<?xml version="1.0" encoding="utf-8" standalone="no"?>
<!DOCTYPE svg PUBLIC "-//W3C//DTD SVG 1.1//EN"
  "http://www.w3.org/Graphics/SVG/1.1/DTD/svg11.dtd">
<svg xmlns:xlink="http://www.w3.org/1999/xlink" width="684pt" height="587.7438pt" viewBox="0 0 684 587.7438" xmlns="http://www.w3.org/2000/svg" version="1.1">
 <metadata>
  <rdf:RDF xmlns:dc="http://purl.org/dc/elements/1.1/" xmlns:cc="http://creativecommons.org/ns#" xmlns:rdf="http://www.w3.org/1999/02/22-rdf-syntax-ns#">
   <cc:Work>
    <dc:type rdf:resource="http://purl.org/dc/dcmitype/StillImage"/>
    <dc:date>2025-10-29T12:35:06.695703</dc:date>
    <dc:format>image/svg+xml</dc:format>
    <dc:creator>
     <cc:Agent>
      <dc:title>Matplotlib v3.10.7, https://matplotlib.org/</dc:title>
     </cc:Agent>
    </dc:creator>
   </cc:Work>
  </rdf:RDF>
 </metadata>
 <defs>
  <style type="text/css">*{stroke-linejoin: round; stroke-linecap: butt}</style>
 </defs>
 <g id="figure_1">
  <g id="patch_1">
   <path d="M 0 587.7438 
L 684 587.7438 
L 684 0 
L 0 0 
z
" style="fill: #ffffff"/>
  </g>
  <g id="axes_1">
   <g id="text_1">
    <!-- 決定木（回帰）の構造 -->
    <g transform="translate(255.6 20.1438) scale(0.1728 -0.1728)">
     <defs>
      <path id="IPAexGothic-6c7a" d="M 4116 2081 
Q 4659 809 6003 84 
L 5656 -338 
Q 4281 500 3775 1884 
Q 3766 1853 3756 1806 
Q 3497 394 2078 -441 
L 1738 -38 
Q 3138 625 3391 2081 
L 1969 2081 
L 1969 2497 
L 3422 2497 
L 3422 3750 
L 2322 3750 
L 2322 4153 
L 3422 4153 
L 3422 5313 
L 3891 5313 
L 3891 4153 
L 5234 4153 
L 5234 2497 
L 6003 2497 
L 6003 2081 
L 4116 2081 
z
M 4788 3750 
L 3891 3750 
L 3891 2497 
L 4788 2497 
L 4788 3750 
z
M 1691 3769 
Q 1203 4344 703 4709 
L 1025 5044 
Q 1544 4675 2022 4147 
L 1691 3769 
z
M 1453 2278 
Q 1016 2772 441 3206 
L 756 3547 
Q 1278 3188 1778 2656 
L 1453 2278 
z
M 391 19 
Q 1063 800 1613 1966 
L 1966 1656 
Q 1394 428 750 -397 
L 391 19 
z
" transform="scale(0.015625)"/>
      <path id="IPAexGothic-5b9a" d="M 3431 303 
Q 3931 225 4709 225 
Q 5191 225 6053 263 
Q 5963 59 5888 -228 
Q 5234 -250 4844 -250 
Q 3569 -250 3003 -78 
Q 2259 153 1750 903 
Q 1441 163 806 -459 
L 475 -75 
Q 1416 759 1684 2419 
L 2125 2303 
Q 2031 1756 1909 1356 
Q 2338 678 2972 416 
L 2972 2944 
L 1434 2944 
L 1434 3353 
L 4959 3353 
L 4959 2944 
L 3431 2944 
L 3431 1984 
L 5397 1984 
L 5397 1569 
L 3431 1569 
L 3431 303 
z
M 3419 4428 
L 5750 4428 
L 5750 3166 
L 5275 3166 
L 5275 4025 
L 1122 4025 
L 1122 3166 
L 647 3166 
L 647 4428 
L 2938 4428 
L 2938 5313 
L 3419 5313 
L 3419 4428 
z
" transform="scale(0.015625)"/>
      <path id="IPAexGothic-6728" d="M 3547 3328 
Q 4384 1728 6088 838 
L 5728 353 
Q 4134 1459 3425 2797 
L 3425 -384 
L 2931 -384 
L 2931 2731 
Q 2272 1253 731 191 
L 372 594 
Q 2013 1584 2803 3328 
L 481 3328 
L 481 3769 
L 2931 3769 
L 2931 5150 
L 3425 5150 
L 3425 3769 
L 5922 3769 
L 5922 3328 
L 3547 3328 
z
" transform="scale(0.015625)"/>
      <path id="IPAexGothic-ff08" d="M 5419 -434 
Q 4197 769 4197 2438 
Q 4197 4097 5419 5300 
L 5919 5300 
Q 4678 4078 4678 2425 
Q 4678 788 5919 -434 
L 5419 -434 
z
" transform="scale(0.015625)"/>
      <path id="IPAexGothic-56de" d="M 4519 3647 
L 4519 1178 
L 1875 1178 
L 1875 3647 
L 4519 3647 
z
M 2328 3250 
L 2328 1575 
L 4066 1575 
L 4066 3250 
L 2328 3250 
z
M 5722 4891 
L 5722 -456 
L 5247 -456 
L 5247 -103 
L 1147 -103 
L 1147 -456 
L 672 -456 
L 672 4891 
L 5722 4891 
z
M 1147 4475 
L 1147 313 
L 5247 313 
L 5247 4475 
L 1147 4475 
z
" transform="scale(0.015625)"/>
      <path id="IPAexGothic-5e30" d="M 5472 5044 
L 5472 3109 
L 2541 3109 
L 2541 3481 
L 5031 3481 
L 5031 3909 
L 2700 3909 
L 2700 4269 
L 5031 4269 
L 5031 4672 
L 2559 4672 
L 2559 5044 
L 5472 5044 
z
M 6022 2675 
L 6022 1631 
L 5594 1631 
L 5594 2297 
L 4244 2297 
L 4244 1784 
L 5503 1784 
L 5503 384 
Q 5503 -19 5056 -19 
Q 4809 -19 4488 13 
L 4441 428 
Q 4719 378 4928 378 
Q 5088 378 5088 544 
L 5088 1419 
L 4244 1419 
L 4244 -447 
L 3816 -447 
L 3816 1419 
L 3091 1419 
L 3091 -97 
L 2675 -97 
L 2675 1784 
L 3816 1784 
L 3816 2297 
L 2584 2297 
L 2584 1631 
L 2156 1631 
L 2156 2675 
L 6022 2675 
z
M 634 4441 
L 1063 4441 
L 1063 1869 
L 634 1869 
L 634 4441 
z
M 1484 5209 
L 1931 5209 
L 1931 3109 
Q 1931 1747 1722 1019 
Q 1463 153 819 -513 
L 506 -122 
Q 1072 388 1313 1216 
Q 1484 1841 1484 2975 
L 1484 5209 
z
" transform="scale(0.015625)"/>
      <path id="IPAexGothic-ff09" d="M 481 -434 
Q 1722 788 1722 2431 
Q 1722 4066 481 5300 
L 981 5300 
Q 2203 4097 2203 2431 
Q 2203 769 981 -434 
L 481 -434 
z
" transform="scale(0.015625)"/>
      <path id="IPAexGothic-306e" d="M 3119 469 
Q 5275 766 5275 2425 
Q 5275 3453 4413 3925 
Q 4041 4116 3547 4159 
Q 3394 2525 2850 1400 
Q 2322 306 1722 306 
Q 1384 306 1084 666 
Q 609 1244 609 2003 
Q 609 3025 1397 3794 
Q 2184 4563 3431 4563 
Q 4306 4563 4928 4122 
Q 5813 3506 5813 2425 
Q 5813 438 3431 6 
L 3119 469 
z
M 3053 4147 
Q 2378 4044 1891 3641 
Q 1097 2981 1097 1991 
Q 1097 1366 1434 978 
Q 1581 813 1719 813 
Q 2022 813 2416 1625 
Q 2909 2638 3053 4147 
z
" transform="scale(0.015625)"/>
      <path id="IPAexGothic-69cb" d="M 1206 2594 
Q 925 1575 456 788 
L 194 1250 
Q 856 2238 1153 3547 
L 328 3547 
L 328 3956 
L 1206 3956 
L 1206 5306 
L 1628 5306 
L 1628 3956 
L 2306 3956 
L 2306 3547 
L 1628 3547 
L 1628 2906 
Q 2213 2391 2447 2106 
L 2191 1647 
Q 1931 2031 1628 2406 
L 1628 -447 
L 1206 -447 
L 1206 2594 
z
M 5006 3194 
L 6100 3194 
L 6100 2841 
L 4328 2841 
L 4328 2509 
L 5647 2509 
L 5647 1025 
L 6131 1025 
L 6131 672 
L 5647 672 
L 5647 78 
Q 5647 -191 5525 -294 
Q 5413 -397 5106 -397 
Q 4716 -397 4409 -353 
L 4347 84 
Q 4759 13 5069 13 
Q 5228 13 5228 197 
L 5228 672 
L 3047 672 
L 3047 -447 
L 2631 -447 
L 2631 672 
L 1978 672 
L 1978 1025 
L 2631 1025 
L 2631 2509 
L 3913 2509 
L 3913 2841 
L 2175 2841 
L 2175 3194 
L 3222 3194 
L 3222 3631 
L 2522 3631 
L 2522 3956 
L 3222 3956 
L 3222 4369 
L 2291 4369 
L 2291 4709 
L 3222 4709 
L 3222 5313 
L 3644 5313 
L 3644 4709 
L 4591 4709 
L 4591 5313 
L 5006 5313 
L 5006 4709 
L 5953 4709 
L 5953 4369 
L 5006 4369 
L 5006 3956 
L 5759 3956 
L 5759 3631 
L 5006 3631 
L 5006 3194 
z
M 4591 3194 
L 4591 3631 
L 3644 3631 
L 3644 3194 
L 4591 3194 
z
M 4591 4369 
L 3644 4369 
L 3644 3956 
L 4591 3956 
L 4591 4369 
z
M 3047 2169 
L 3047 1759 
L 3925 1759 
L 3925 2169 
L 3047 2169 
z
M 3047 1434 
L 3047 1025 
L 3925 1025 
L 3925 1434 
L 3047 1434 
z
M 4316 2169 
L 4316 1759 
L 5228 1759 
L 5228 2169 
L 4316 2169 
z
M 4316 1434 
L 4316 1025 
L 5228 1025 
L 5228 1434 
L 4316 1434 
z
" transform="scale(0.015625)"/>
      <path id="IPAexGothic-9020" d="M 1703 728 
Q 1884 472 2216 306 
Q 2647 94 3891 94 
Q 4778 94 6144 172 
Q 6025 -34 5978 -300 
Q 4853 -341 4263 -341 
Q 2941 -341 2425 -200 
Q 1844 -47 1525 391 
Q 1166 -31 647 -453 
L 366 13 
Q 916 350 1263 659 
L 1263 2303 
L 378 2303 
L 378 2731 
L 1703 2731 
L 1703 728 
z
M 2997 4409 
L 3747 4409 
L 3747 5338 
L 4188 5338 
L 4188 4409 
L 5594 4409 
L 5594 4038 
L 4188 4038 
L 4188 3238 
L 5953 3238 
L 5953 2853 
L 1909 2853 
L 1909 3238 
L 3747 3238 
L 3747 4038 
L 2850 4038 
Q 2681 3656 2453 3341 
L 2094 3616 
Q 2516 4200 2747 5131 
L 3184 5016 
Q 3078 4625 2997 4409 
z
M 5422 2363 
L 5422 622 
L 2503 622 
L 2503 2363 
L 5422 2363 
z
M 2944 1984 
L 2944 1000 
L 4981 1000 
L 4981 1984 
L 2944 1984 
z
M 1522 3775 
Q 1091 4313 556 4728 
L 872 5050 
Q 1475 4581 1863 4128 
L 1522 3775 
z
" transform="scale(0.015625)"/>
     </defs>
     <use xlink:href="#IPAexGothic-6c7a"/>
     <use xlink:href="#IPAexGothic-5b9a" transform="translate(100 0)"/>
     <use xlink:href="#IPAexGothic-6728" transform="translate(200 0)"/>
     <use xlink:href="#IPAexGothic-ff08" transform="translate(300 0)"/>
     <use xlink:href="#IPAexGothic-56de" transform="translate(400 0)"/>
     <use xlink:href="#IPAexGothic-5e30" transform="translate(500 0)"/>
     <use xlink:href="#IPAexGothic-ff09" transform="translate(600 0)"/>
     <use xlink:href="#IPAexGothic-306e" transform="translate(700 0)"/>
     <use xlink:href="#IPAexGothic-69cb" transform="translate(800 0)"/>
     <use xlink:href="#IPAexGothic-9020" transform="translate(900 0)"/>
    </g>
   </g>
   <g id="patch_2">
    <path d="M 53.686961 495.886984 
Q 71.842649 435.758467 90.321515 374.559642 
" style="fill: none; stroke: #000000; stroke-linecap: round"/>
    <path d="M 55.648877 493.809895 
L 53.686961 495.886984 
L 53.202439 493.071197 
" style="fill: none; stroke: #000000; stroke-linecap: round"/>
   </g>
   <g id="text_2">
    <g id="patch_3">
     <path d="M 11.209188 523.116833 
L 86.890812 523.116833 
Q 88.80746 523.116833 88.80746 521.200185 
L 88.80746 501.287415 
Q 88.80746 499.370767 86.890812 499.370767 
L 11.209188 499.370767 
Q 9.29254 499.370767 9.29254 501.287415 
L 9.29254 521.200185 
Q 9.29254 523.116833 11.209188 523.116833 
z
" style="fill: #ffffff; stroke: #000000; stroke-linejoin: miter"/>
    </g>
    <!-- squared_error = 608.512 -->
    <g transform="translate(11.209188 506.073044) scale(0.063888 -0.063888)">
     <defs>
      <path id="IPAexGothic-73" d="M 2234 2547 
Q 1938 2931 1484 2931 
Q 891 2931 891 2475 
Q 891 2153 1531 1944 
L 1741 1875 
Q 2650 1578 2650 894 
Q 2650 434 2272 172 
Q 1972 -31 1497 -31 
Q 766 -31 256 503 
L 603 819 
Q 997 397 1516 397 
Q 2131 397 2131 875 
Q 2131 1238 1453 1478 
L 1234 1553 
Q 378 1853 378 2431 
Q 378 2797 628 3047 
Q 928 3347 1453 3347 
Q 2156 3347 2606 2859 
L 2234 2547 
z
" transform="scale(0.015625)"/>
      <path id="IPAexGothic-71" d="M 3397 -1216 
L 2847 -1216 
L 2847 556 
Q 2441 -31 1759 -31 
Q 1181 -31 788 372 
Q 313 844 313 1656 
Q 313 2450 788 2925 
Q 1203 3341 1803 3341 
Q 2472 3341 2903 2803 
L 2981 3275 
L 3397 3275 
L 3397 -1216 
z
M 2847 1278 
L 2847 2091 
Q 2847 2272 2650 2509 
Q 2319 2906 1869 2906 
Q 1406 2906 1131 2516 
Q 888 2175 888 1672 
Q 888 1116 1169 756 
Q 1447 409 1853 409 
Q 2334 409 2669 875 
Q 2847 1131 2847 1278 
z
" transform="scale(0.015625)"/>
      <path id="IPAexGothic-75" d="M 3284 63 
L 2772 63 
L 2772 644 
Q 2300 0 1625 0 
Q 1072 0 763 375 
Q 519 678 519 1241 
L 519 3250 
L 1069 3250 
L 1069 1259 
Q 1069 466 1734 466 
Q 2406 466 2734 1291 
L 2734 3250 
L 3284 3250 
L 3284 63 
z
" transform="scale(0.015625)"/>
      <path id="IPAexGothic-61" d="M 3156 63 
L 2672 63 
Q 2559 303 2531 556 
L 2509 556 
Q 2147 -25 1428 -25 
Q 934 -25 622 288 
Q 347 563 347 959 
Q 347 1947 2050 1997 
L 2478 2009 
L 2478 2175 
Q 2478 2509 2288 2700 
Q 2088 2900 1775 2900 
Q 1238 2900 969 2378 
L 494 2597 
Q 938 3328 1788 3328 
Q 2375 3328 2691 3000 
Q 2984 2706 2984 2169 
L 2984 997 
Q 2984 400 3156 63 
z
M 2491 1625 
L 2141 1619 
Q 903 1591 903 953 
Q 903 728 1050 581 
Q 1231 403 1525 403 
Q 1934 403 2234 703 
Q 2491 969 2491 1344 
L 2491 1625 
z
" transform="scale(0.015625)"/>
      <path id="IPAexGothic-72" d="M 2309 3316 
L 2213 2769 
Q 2106 2791 2022 2791 
Q 1653 2791 1413 2444 
Q 1113 2006 1113 1675 
L 1113 63 
L 563 63 
L 563 3250 
L 1081 3250 
L 1056 2303 
L 1069 2303 
Q 1422 3341 2097 3341 
Q 2206 3341 2309 3316 
z
" transform="scale(0.015625)"/>
      <path id="IPAexGothic-65" d="M 863 1594 
Q 891 1041 1209 722 
Q 1534 397 1997 397 
Q 2606 397 2963 966 
L 3322 728 
Q 2869 -31 1931 -31 
Q 1222 -31 766 422 
Q 306 884 306 1641 
Q 306 2444 788 2925 
Q 1216 3353 1856 3353 
Q 2459 3353 2866 2956 
Q 3322 2494 3322 1722 
L 3322 1594 
L 863 1594 
z
M 2756 1997 
Q 2709 2431 2450 2681 
Q 2194 2938 1844 2938 
Q 1438 2938 1150 2591 
Q 953 2356 894 1997 
L 2756 1997 
z
" transform="scale(0.015625)"/>
      <path id="IPAexGothic-64" d="M 3391 63 
L 2891 63 
L 2891 619 
Q 2441 -31 1753 -31 
Q 1181 -31 788 372 
Q 313 844 313 1663 
Q 313 2466 772 2938 
Q 1169 3341 1753 3341 
Q 2384 3341 2847 2809 
L 2847 4794 
L 3391 4794 
L 3391 63 
z
M 2847 1303 
L 2847 2097 
Q 2847 2413 2456 2706 
Q 2181 2906 1853 2906 
Q 1484 2906 1228 2650 
Q 888 2309 888 1678 
Q 888 1109 1169 750 
Q 1441 409 1847 409 
Q 2322 409 2656 875 
Q 2847 1134 2847 1303 
z
" transform="scale(0.015625)"/>
      <path id="IPAexGothic-5f" d="M 3200 -750 
L 0 -750 
L 0 -431 
L 3200 -431 
L 3200 -750 
z
" transform="scale(0.015625)"/>
      <path id="IPAexGothic-6f" d="M 1919 3341 
Q 2594 3341 3056 2888 
Q 3531 2413 3531 1638 
Q 3531 888 3066 422 
Q 2609 -31 1919 -31 
Q 1228 -31 781 416 
Q 313 881 313 1656 
Q 313 2413 788 2888 
Q 1241 3341 1919 3341 
z
M 1919 2919 
Q 1519 2919 1241 2631 
Q 888 2278 888 1650 
Q 888 1031 1234 684 
Q 1516 403 1919 403 
Q 2331 403 2609 691 
Q 2956 1038 2956 1672 
Q 2956 2269 2603 2631 
Q 2316 2919 1919 2919 
z
" transform="scale(0.015625)"/>
      <path id="IPAexGothic-20" transform="scale(0.015625)"/>
      <path id="IPAexGothic-3d" d="M 416 2803 
L 3922 2803 
L 3922 2438 
L 416 2438 
L 416 2803 
z
M 416 1625 
L 3922 1625 
L 3922 1259 
L 416 1259 
L 416 1625 
z
" transform="scale(0.015625)"/>
      <path id="IPAexGothic-36" d="M 1056 2328 
Q 1509 2981 2234 2981 
Q 2906 2981 3316 2513 
Q 3675 2106 3675 1522 
Q 3675 884 3272 434 
Q 2853 -31 2178 -31 
Q 1375 -31 922 581 
Q 481 1178 481 2228 
Q 481 3425 1013 4109 
Q 1494 4725 2272 4725 
Q 3191 4725 3609 4025 
L 3150 3775 
Q 2894 4266 2300 4266 
Q 1119 4266 1031 2328 
L 1056 2328 
z
M 2141 2547 
Q 1684 2547 1384 2206 
Q 1116 1900 1116 1541 
Q 1116 1156 1353 844 
Q 1672 428 2159 428 
Q 2669 428 2941 844 
Q 3125 1128 3125 1503 
Q 3125 1944 2881 2228 
Q 2600 2547 2141 2547 
z
" transform="scale(0.015625)"/>
      <path id="IPAexGothic-30" d="M 2038 4725 
Q 2881 4725 3334 3944 
Q 3694 3325 3694 2344 
Q 3694 1372 3334 741 
Q 2888 -31 2016 -31 
Q 1147 -31 700 741 
Q 341 1372 341 2350 
Q 341 3713 1000 4334 
Q 1419 4725 2038 4725 
z
M 2016 4266 
Q 1516 4266 1228 3759 
Q 934 3247 934 2344 
Q 934 1456 1222 947 
Q 1513 447 2016 447 
Q 2619 447 2909 1153 
Q 3100 1622 3100 2375 
Q 3100 3256 2806 3759 
Q 2509 4266 2016 4266 
z
" transform="scale(0.015625)"/>
      <path id="IPAexGothic-38" d="M 2541 2425 
Q 3700 2031 3700 1197 
Q 3700 541 3100 197 
Q 2663 -56 2016 -56 
Q 1366 -56 928 197 
Q 347 531 347 1178 
Q 347 1988 1409 2381 
L 1409 2400 
Q 481 2734 481 3509 
Q 481 4100 981 4456 
Q 1406 4756 2019 4756 
Q 2703 4756 3131 4403 
Q 3553 4069 3553 3566 
Q 3553 2706 2541 2444 
L 2541 2425 
z
M 2022 2625 
Q 2997 2856 2997 3528 
Q 2997 3916 2675 4150 
Q 2413 4347 2016 4347 
Q 1606 4347 1331 4128 
Q 1050 3897 1050 3522 
Q 1050 3150 1350 2925 
Q 1494 2809 1722 2722 
Q 1984 2616 2022 2625 
z
M 1978 2209 
Q 922 1931 922 1216 
Q 922 775 1313 556 
Q 1606 391 2009 391 
Q 2575 391 2881 697 
Q 3106 922 3106 1250 
Q 3106 1594 2794 1850 
Q 2609 1994 2350 2100 
Q 2047 2222 1978 2209 
z
" transform="scale(0.015625)"/>
      <path id="IPAexGothic-2e" d="M 1184 63 
L 494 63 
L 494 753 
L 1184 753 
L 1184 63 
z
" transform="scale(0.015625)"/>
      <path id="IPAexGothic-35" d="M 1178 2603 
Q 1634 2963 2172 2963 
Q 2816 2963 3241 2528 
Q 3638 2113 3638 1497 
Q 3638 938 3297 513 
Q 2869 -31 2031 -31 
Q 959 -31 469 784 
L 938 1028 
Q 1309 434 2013 434 
Q 2466 434 2769 716 
Q 3081 1013 3081 1503 
Q 3081 1966 2806 2241 
Q 2519 2528 2056 2528 
Q 1406 2528 1072 2028 
L 591 2091 
L 884 4634 
L 3406 4634 
L 3406 4153 
L 1341 4153 
L 1134 2603 
L 1178 2603 
z
" transform="scale(0.015625)"/>
      <path id="IPAexGothic-31" d="M 2463 63 
L 1900 63 
L 1900 4103 
Q 1372 3922 788 3797 
L 684 4231 
Q 1519 4441 2106 4731 
L 2463 4731 
L 2463 63 
z
" transform="scale(0.015625)"/>
      <path id="IPAexGothic-32" d="M 3659 63 
L 447 63 
L 447 594 
Q 825 1475 1894 2203 
L 2072 2322 
Q 2619 2697 2791 2906 
Q 2988 3153 2988 3444 
Q 2988 3772 2756 4003 
Q 2500 4259 2084 4259 
Q 1250 4259 991 3328 
L 497 3506 
Q 853 4725 2116 4725 
Q 2806 4725 3216 4316 
Q 3575 3947 3575 3425 
Q 3575 3038 3344 2722 
Q 3131 2416 2366 1938 
L 2231 1856 
Q 1256 1253 978 569 
L 3659 569 
L 3659 63 
z
" transform="scale(0.015625)"/>
     </defs>
     <use xlink:href="#IPAexGothic-73"/>
     <use xlink:href="#IPAexGothic-71" transform="translate(46.191406 0)"/>
     <use xlink:href="#IPAexGothic-75" transform="translate(108.398438 0)"/>
     <use xlink:href="#IPAexGothic-61" transform="translate(168.798828 0)"/>
     <use xlink:href="#IPAexGothic-72" transform="translate(223.779297 0)"/>
     <use xlink:href="#IPAexGothic-65" transform="translate(260.791016 0)"/>
     <use xlink:href="#IPAexGothic-64" transform="translate(317.675781 0)"/>
     <use xlink:href="#IPAexGothic-5f" transform="translate(380.078125 0)"/>
     <use xlink:href="#IPAexGothic-65" transform="translate(430.078125 0)"/>
     <use xlink:href="#IPAexGothic-72" transform="translate(486.962891 0)"/>
     <use xlink:href="#IPAexGothic-72" transform="translate(523.974609 0)"/>
     <use xlink:href="#IPAexGothic-6f" transform="translate(560.986328 0)"/>
     <use xlink:href="#IPAexGothic-72" transform="translate(621.386719 0)"/>
     <use xlink:href="#IPAexGothic-20" transform="translate(658.398438 0)"/>
     <use xlink:href="#IPAexGothic-3d" transform="translate(685.400391 0)"/>
     <use xlink:href="#IPAexGothic-20" transform="translate(753.222656 0)"/>
     <use xlink:href="#IPAexGothic-36" transform="translate(780.224609 0)"/>
     <use xlink:href="#IPAexGothic-30" transform="translate(843.212891 0)"/>
     <use xlink:href="#IPAexGothic-38" transform="translate(906.201172 0)"/>
     <use xlink:href="#IPAexGothic-2e" transform="translate(969.189453 0)"/>
     <use xlink:href="#IPAexGothic-35" transform="translate(995.605469 0)"/>
     <use xlink:href="#IPAexGothic-31" transform="translate(1058.59375 0)"/>
     <use xlink:href="#IPAexGothic-32" transform="translate(1121.582031 0)"/>
    </g>
    <!-- samples = 60 -->
    <g transform="translate(28.980603 513.029676) scale(0.063888 -0.063888)">
     <defs>
      <path id="IPAexGothic-6d" d="M 5022 63 
L 4472 63 
L 4472 2059 
Q 4472 2869 3847 2869 
Q 3550 2869 3303 2594 
Q 3128 2397 3059 2103 
L 3059 63 
L 2509 63 
L 2509 2066 
Q 2509 2869 1919 2869 
Q 1606 2869 1369 2594 
Q 1113 2306 1113 2041 
L 1113 63 
L 563 63 
L 563 3250 
L 1075 3250 
L 1075 2700 
Q 1391 3316 2028 3316 
Q 2725 3316 2956 2647 
Q 3303 3316 3953 3316 
Q 4478 3316 4772 2944 
Q 5022 2638 5022 2072 
L 5022 63 
z
" transform="scale(0.015625)"/>
      <path id="IPAexGothic-70" d="M 1075 2688 
Q 1525 3341 2206 3341 
Q 2769 3341 3172 2938 
Q 3641 2469 3641 1644 
Q 3641 841 3178 372 
Q 2775 -31 2200 -31 
Q 1569 -31 1106 497 
L 1106 -1216 
L 563 -1216 
L 563 3250 
L 1075 3250 
L 1075 2688 
z
M 1106 1950 
L 1106 1291 
Q 1106 897 1516 600 
Q 1791 403 2106 403 
Q 2469 403 2725 659 
Q 3066 997 3066 1631 
Q 3066 2200 2784 2559 
Q 2503 2900 2100 2900 
Q 1656 2900 1338 2484 
Q 1106 2184 1106 1950 
z
" transform="scale(0.015625)"/>
      <path id="IPAexGothic-6c" d="M 1131 63 
L 581 63 
L 581 4794 
L 1131 4794 
L 1131 63 
z
" transform="scale(0.015625)"/>
     </defs>
     <use xlink:href="#IPAexGothic-73"/>
     <use xlink:href="#IPAexGothic-61" transform="translate(46.191406 0)"/>
     <use xlink:href="#IPAexGothic-6d" transform="translate(101.171875 0)"/>
     <use xlink:href="#IPAexGothic-70" transform="translate(188.28125 0)"/>
     <use xlink:href="#IPAexGothic-6c" transform="translate(250.390625 0)"/>
     <use xlink:href="#IPAexGothic-65" transform="translate(277.392578 0)"/>
     <use xlink:href="#IPAexGothic-73" transform="translate(334.277344 0)"/>
     <use xlink:href="#IPAexGothic-20" transform="translate(380.46875 0)"/>
     <use xlink:href="#IPAexGothic-3d" transform="translate(407.470703 0)"/>
     <use xlink:href="#IPAexGothic-20" transform="translate(475.292969 0)"/>
     <use xlink:href="#IPAexGothic-36" transform="translate(502.294922 0)"/>
     <use xlink:href="#IPAexGothic-30" transform="translate(565.283203 0)"/>
    </g>
    <!-- value = -58.59 -->
    <g transform="translate(27.205209 519.986308) scale(0.063888 -0.063888)">
     <defs>
      <path id="IPAexGothic-76" d="M 3103 3250 
L 1747 6 
L 1375 6 
L 25 3250 
L 628 3250 
L 1338 1388 
L 1522 844 
L 1569 703 
L 1588 703 
Q 1641 884 1822 1388 
L 2516 3250 
L 3103 3250 
z
" transform="scale(0.015625)"/>
      <path id="IPAexGothic-2d" d="M 1969 1703 
L 319 1703 
L 319 2203 
L 1969 2203 
L 1969 1703 
z
" transform="scale(0.015625)"/>
      <path id="IPAexGothic-39" d="M 2984 2356 
Q 2544 1716 1813 1716 
Q 1253 1716 847 2056 
Q 366 2459 366 3163 
Q 366 3813 769 4266 
Q 1181 4725 1869 4725 
Q 2800 4725 3241 3950 
Q 3559 3378 3559 2472 
Q 3559 1250 3041 588 
Q 2553 -31 1769 -31 
Q 859 -31 391 703 
L 853 953 
Q 1156 428 1753 428 
Q 2922 428 3009 2356 
L 2984 2356 
z
M 1888 4278 
Q 1450 4278 1172 3950 
Q 922 3653 922 3200 
Q 922 2741 1159 2478 
Q 1434 2163 1906 2163 
Q 2431 2163 2728 2572 
Q 2925 2847 2925 3169 
Q 2925 3553 2694 3863 
Q 2375 4278 1888 4278 
z
" transform="scale(0.015625)"/>
     </defs>
     <use xlink:href="#IPAexGothic-76"/>
     <use xlink:href="#IPAexGothic-61" transform="translate(48.583984 0)"/>
     <use xlink:href="#IPAexGothic-6c" transform="translate(103.564453 0)"/>
     <use xlink:href="#IPAexGothic-75" transform="translate(130.566406 0)"/>
     <use xlink:href="#IPAexGothic-65" transform="translate(190.966797 0)"/>
     <use xlink:href="#IPAexGothic-20" transform="translate(247.851562 0)"/>
     <use xlink:href="#IPAexGothic-3d" transform="translate(274.853516 0)"/>
     <use xlink:href="#IPAexGothic-20" transform="translate(342.675781 0)"/>
     <use xlink:href="#IPAexGothic-2d" transform="translate(369.677734 0)"/>
     <use xlink:href="#IPAexGothic-35" transform="translate(405.46875 0)"/>
     <use xlink:href="#IPAexGothic-38" transform="translate(468.457031 0)"/>
     <use xlink:href="#IPAexGothic-2e" transform="translate(531.445312 0)"/>
     <use xlink:href="#IPAexGothic-35" transform="translate(557.861328 0)"/>
     <use xlink:href="#IPAexGothic-39" transform="translate(620.849609 0)"/>
    </g>
   </g>
   <g id="patch_4">
    <path d="M 128.113039 495.886984 
Q 109.957351 435.758467 91.478485 374.559642 
" style="fill: none; stroke: #000000; stroke-linecap: round"/>
    <path d="M 128.597561 493.071197 
L 128.113039 495.886984 
L 126.151123 493.809895 
" style="fill: none; stroke: #000000; stroke-linecap: round"/>
   </g>
   <g id="text_3">
    <g id="patch_5">
     <path d="M 94.909188 523.116833 
L 170.590812 523.116833 
Q 172.50746 523.116833 172.50746 521.200185 
L 172.50746 501.287415 
Q 172.50746 499.370767 170.590812 499.370767 
L 94.909188 499.370767 
Q 92.99254 499.370767 92.99254 501.287415 
L 92.99254 521.200185 
Q 92.99254 523.116833 94.909188 523.116833 
z
" style="fill: #f4ccaf; stroke: #000000; stroke-linejoin: miter"/>
    </g>
    <!-- squared_error = 109.843 -->
    <g transform="translate(94.909188 506.073044) scale(0.063888 -0.063888)">
     <defs>
      <path id="IPAexGothic-34" d="M 3813 1159 
L 3059 1159 
L 3059 63 
L 2547 63 
L 2547 1159 
L 197 1159 
L 197 1672 
L 2456 4678 
L 3059 4678 
L 3059 1634 
L 3813 1634 
L 3813 1159 
z
M 2578 4109 
L 2559 4109 
Q 2278 3656 2003 3284 
L 759 1634 
L 2547 1634 
L 2547 3144 
Q 2547 3481 2578 4109 
z
" transform="scale(0.015625)"/>
      <path id="IPAexGothic-33" d="M 2381 2419 
Q 3506 2216 3506 1278 
Q 3506 716 3128 356 
Q 2709 -31 1944 -31 
Q 797 -31 288 881 
L 756 1131 
Q 1109 441 1938 441 
Q 2425 441 2694 691 
Q 2950 928 2950 1291 
Q 2950 1719 2566 1978 
Q 2216 2213 1644 2213 
L 1363 2213 
L 1363 2669 
L 1656 2669 
Q 2231 2669 2534 2888 
Q 2859 3119 2859 3509 
Q 2859 3934 2494 4138 
Q 2259 4278 1931 4278 
Q 1238 4278 903 3578 
L 434 3803 
Q 897 4725 1938 4725 
Q 2597 4725 3006 4394 
Q 3416 4069 3416 3534 
Q 3416 3028 3019 2706 
Q 2763 2500 2381 2444 
L 2381 2419 
z
" transform="scale(0.015625)"/>
     </defs>
     <use xlink:href="#IPAexGothic-73"/>
     <use xlink:href="#IPAexGothic-71" transform="translate(46.191406 0)"/>
     <use xlink:href="#IPAexGothic-75" transform="translate(108.398438 0)"/>
     <use xlink:href="#IPAexGothic-61" transform="translate(168.798828 0)"/>
     <use xlink:href="#IPAexGothic-72" transform="translate(223.779297 0)"/>
     <use xlink:href="#IPAexGothic-65" transform="translate(260.791016 0)"/>
     <use xlink:href="#IPAexGothic-64" transform="translate(317.675781 0)"/>
     <use xlink:href="#IPAexGothic-5f" transform="translate(380.078125 0)"/>
     <use xlink:href="#IPAexGothic-65" transform="translate(430.078125 0)"/>
     <use xlink:href="#IPAexGothic-72" transform="translate(486.962891 0)"/>
     <use xlink:href="#IPAexGothic-72" transform="translate(523.974609 0)"/>
     <use xlink:href="#IPAexGothic-6f" transform="translate(560.986328 0)"/>
     <use xlink:href="#IPAexGothic-72" transform="translate(621.386719 0)"/>
     <use xlink:href="#IPAexGothic-20" transform="translate(658.398438 0)"/>
     <use xlink:href="#IPAexGothic-3d" transform="translate(685.400391 0)"/>
     <use xlink:href="#IPAexGothic-20" transform="translate(753.222656 0)"/>
     <use xlink:href="#IPAexGothic-31" transform="translate(780.224609 0)"/>
     <use xlink:href="#IPAexGothic-30" transform="translate(843.212891 0)"/>
     <use xlink:href="#IPAexGothic-39" transform="translate(906.201172 0)"/>
     <use xlink:href="#IPAexGothic-2e" transform="translate(969.189453 0)"/>
     <use xlink:href="#IPAexGothic-38" transform="translate(995.605469 0)"/>
     <use xlink:href="#IPAexGothic-34" transform="translate(1058.59375 0)"/>
     <use xlink:href="#IPAexGothic-33" transform="translate(1121.582031 0)"/>
    </g>
    <!-- samples = 3 -->
    <g transform="translate(114.692584 513.029676) scale(0.063888 -0.063888)">
     <use xlink:href="#IPAexGothic-73"/>
     <use xlink:href="#IPAexGothic-61" transform="translate(46.191406 0)"/>
     <use xlink:href="#IPAexGothic-6d" transform="translate(101.171875 0)"/>
     <use xlink:href="#IPAexGothic-70" transform="translate(188.28125 0)"/>
     <use xlink:href="#IPAexGothic-6c" transform="translate(250.390625 0)"/>
     <use xlink:href="#IPAexGothic-65" transform="translate(277.392578 0)"/>
     <use xlink:href="#IPAexGothic-73" transform="translate(334.277344 0)"/>
     <use xlink:href="#IPAexGothic-20" transform="translate(380.46875 0)"/>
     <use xlink:href="#IPAexGothic-3d" transform="translate(407.470703 0)"/>
     <use xlink:href="#IPAexGothic-20" transform="translate(475.292969 0)"/>
     <use xlink:href="#IPAexGothic-33" transform="translate(502.294922 0)"/>
    </g>
    <!-- value = -2.253 -->
    <g transform="translate(110.905209 519.986308) scale(0.063888 -0.063888)">
     <use xlink:href="#IPAexGothic-76"/>
     <use xlink:href="#IPAexGothic-61" transform="translate(48.583984 0)"/>
     <use xlink:href="#IPAexGothic-6c" transform="translate(103.564453 0)"/>
     <use xlink:href="#IPAexGothic-75" transform="translate(130.566406 0)"/>
     <use xlink:href="#IPAexGothic-65" transform="translate(190.966797 0)"/>
     <use xlink:href="#IPAexGothic-20" transform="translate(247.851562 0)"/>
     <use xlink:href="#IPAexGothic-3d" transform="translate(274.853516 0)"/>
     <use xlink:href="#IPAexGothic-20" transform="translate(342.675781 0)"/>
     <use xlink:href="#IPAexGothic-2d" transform="translate(369.677734 0)"/>
     <use xlink:href="#IPAexGothic-32" transform="translate(405.46875 0)"/>
     <use xlink:href="#IPAexGothic-2e" transform="translate(468.457031 0)"/>
     <use xlink:href="#IPAexGothic-32" transform="translate(494.873047 0)"/>
     <use xlink:href="#IPAexGothic-35" transform="translate(557.861328 0)"/>
     <use xlink:href="#IPAexGothic-33" transform="translate(620.849609 0)"/>
    </g>
   </g>
   <g id="patch_6">
    <path d="M 221.086961 495.886984 
Q 239.242649 435.758467 257.721515 374.559642 
" style="fill: none; stroke: #000000; stroke-linecap: round"/>
    <path d="M 223.048877 493.809895 
L 221.086961 495.886984 
L 220.602439 493.071197 
" style="fill: none; stroke: #000000; stroke-linecap: round"/>
   </g>
   <g id="text_4">
    <g id="patch_7">
     <path d="M 178.609188 523.116833 
L 254.290812 523.116833 
Q 256.20746 523.116833 256.20746 521.200185 
L 256.20746 501.287415 
Q 256.20746 499.370767 254.290812 499.370767 
L 178.609188 499.370767 
Q 176.69254 499.370767 176.69254 501.287415 
L 176.69254 521.200185 
Q 176.69254 523.116833 178.609188 523.116833 
z
" style="fill: #f9e4d4; stroke: #000000; stroke-linejoin: miter"/>
    </g>
    <!-- squared_error = 467.324 -->
    <g transform="translate(178.609188 506.073044) scale(0.063888 -0.063888)">
     <defs>
      <path id="IPAexGothic-37" d="M 3597 4263 
Q 2238 2106 1778 63 
L 1131 63 
Q 1581 1834 2950 4128 
L 428 4128 
L 428 4634 
L 3597 4634 
L 3597 4263 
z
" transform="scale(0.015625)"/>
     </defs>
     <use xlink:href="#IPAexGothic-73"/>
     <use xlink:href="#IPAexGothic-71" transform="translate(46.191406 0)"/>
     <use xlink:href="#IPAexGothic-75" transform="translate(108.398438 0)"/>
     <use xlink:href="#IPAexGothic-61" transform="translate(168.798828 0)"/>
     <use xlink:href="#IPAexGothic-72" transform="translate(223.779297 0)"/>
     <use xlink:href="#IPAexGothic-65" transform="translate(260.791016 0)"/>
     <use xlink:href="#IPAexGothic-64" transform="translate(317.675781 0)"/>
     <use xlink:href="#IPAexGothic-5f" transform="translate(380.078125 0)"/>
     <use xlink:href="#IPAexGothic-65" transform="translate(430.078125 0)"/>
     <use xlink:href="#IPAexGothic-72" transform="translate(486.962891 0)"/>
     <use xlink:href="#IPAexGothic-72" transform="translate(523.974609 0)"/>
     <use xlink:href="#IPAexGothic-6f" transform="translate(560.986328 0)"/>
     <use xlink:href="#IPAexGothic-72" transform="translate(621.386719 0)"/>
     <use xlink:href="#IPAexGothic-20" transform="translate(658.398438 0)"/>
     <use xlink:href="#IPAexGothic-3d" transform="translate(685.400391 0)"/>
     <use xlink:href="#IPAexGothic-20" transform="translate(753.222656 0)"/>
     <use xlink:href="#IPAexGothic-34" transform="translate(780.224609 0)"/>
     <use xlink:href="#IPAexGothic-36" transform="translate(843.212891 0)"/>
     <use xlink:href="#IPAexGothic-37" transform="translate(906.201172 0)"/>
     <use xlink:href="#IPAexGothic-2e" transform="translate(969.189453 0)"/>
     <use xlink:href="#IPAexGothic-33" transform="translate(995.605469 0)"/>
     <use xlink:href="#IPAexGothic-32" transform="translate(1058.59375 0)"/>
     <use xlink:href="#IPAexGothic-34" transform="translate(1121.582031 0)"/>
    </g>
    <!-- samples = 84 -->
    <g transform="translate(196.380603 513.029676) scale(0.063888 -0.063888)">
     <use xlink:href="#IPAexGothic-73"/>
     <use xlink:href="#IPAexGothic-61" transform="translate(46.191406 0)"/>
     <use xlink:href="#IPAexGothic-6d" transform="translate(101.171875 0)"/>
     <use xlink:href="#IPAexGothic-70" transform="translate(188.28125 0)"/>
     <use xlink:href="#IPAexGothic-6c" transform="translate(250.390625 0)"/>
     <use xlink:href="#IPAexGothic-65" transform="translate(277.392578 0)"/>
     <use xlink:href="#IPAexGothic-73" transform="translate(334.277344 0)"/>
     <use xlink:href="#IPAexGothic-20" transform="translate(380.46875 0)"/>
     <use xlink:href="#IPAexGothic-3d" transform="translate(407.470703 0)"/>
     <use xlink:href="#IPAexGothic-20" transform="translate(475.292969 0)"/>
     <use xlink:href="#IPAexGothic-38" transform="translate(502.294922 0)"/>
     <use xlink:href="#IPAexGothic-34" transform="translate(565.283203 0)"/>
    </g>
    <!-- value = -28.549 -->
    <g transform="translate(192.593228 519.986308) scale(0.063888 -0.063888)">
     <use xlink:href="#IPAexGothic-76"/>
     <use xlink:href="#IPAexGothic-61" transform="translate(48.583984 0)"/>
     <use xlink:href="#IPAexGothic-6c" transform="translate(103.564453 0)"/>
     <use xlink:href="#IPAexGothic-75" transform="translate(130.566406 0)"/>
     <use xlink:href="#IPAexGothic-65" transform="translate(190.966797 0)"/>
     <use xlink:href="#IPAexGothic-20" transform="translate(247.851562 0)"/>
     <use xlink:href="#IPAexGothic-3d" transform="translate(274.853516 0)"/>
     <use xlink:href="#IPAexGothic-20" transform="translate(342.675781 0)"/>
     <use xlink:href="#IPAexGothic-2d" transform="translate(369.677734 0)"/>
     <use xlink:href="#IPAexGothic-32" transform="translate(405.46875 0)"/>
     <use xlink:href="#IPAexGothic-38" transform="translate(468.457031 0)"/>
     <use xlink:href="#IPAexGothic-2e" transform="translate(531.445312 0)"/>
     <use xlink:href="#IPAexGothic-35" transform="translate(557.861328 0)"/>
     <use xlink:href="#IPAexGothic-34" transform="translate(620.849609 0)"/>
     <use xlink:href="#IPAexGothic-39" transform="translate(683.837891 0)"/>
    </g>
   </g>
   <g id="patch_8">
    <path d="M 295.513039 495.886984 
Q 277.357351 435.758467 258.878485 374.559642 
" style="fill: none; stroke: #000000; stroke-linecap: round"/>
    <path d="M 295.997561 493.071197 
L 295.513039 495.886984 
L 293.551123 493.809895 
" style="fill: none; stroke: #000000; stroke-linecap: round"/>
   </g>
   <g id="text_5">
    <g id="patch_9">
     <path d="M 262.309188 523.116833 
L 337.990812 523.116833 
Q 339.90746 523.116833 339.90746 521.200185 
L 339.90746 501.287415 
Q 339.90746 499.370767 337.990812 499.370767 
L 262.309188 499.370767 
Q 260.39254 499.370767 260.39254 501.287415 
L 260.39254 521.200185 
Q 260.39254 523.116833 262.309188 523.116833 
z
" style="fill: #f3c3a0; stroke: #000000; stroke-linejoin: miter"/>
    </g>
    <!-- squared_error = 476.896 -->
    <g transform="translate(262.309188 506.073044) scale(0.063888 -0.063888)">
     <use xlink:href="#IPAexGothic-73"/>
     <use xlink:href="#IPAexGothic-71" transform="translate(46.191406 0)"/>
     <use xlink:href="#IPAexGothic-75" transform="translate(108.398438 0)"/>
     <use xlink:href="#IPAexGothic-61" transform="translate(168.798828 0)"/>
     <use xlink:href="#IPAexGothic-72" transform="translate(223.779297 0)"/>
     <use xlink:href="#IPAexGothic-65" transform="translate(260.791016 0)"/>
     <use xlink:href="#IPAexGothic-64" transform="translate(317.675781 0)"/>
     <use xlink:href="#IPAexGothic-5f" transform="translate(380.078125 0)"/>
     <use xlink:href="#IPAexGothic-65" transform="translate(430.078125 0)"/>
     <use xlink:href="#IPAexGothic-72" transform="translate(486.962891 0)"/>
     <use xlink:href="#IPAexGothic-72" transform="translate(523.974609 0)"/>
     <use xlink:href="#IPAexGothic-6f" transform="translate(560.986328 0)"/>
     <use xlink:href="#IPAexGothic-72" transform="translate(621.386719 0)"/>
     <use xlink:href="#IPAexGothic-20" transform="translate(658.398438 0)"/>
     <use xlink:href="#IPAexGothic-3d" transform="translate(685.400391 0)"/>
     <use xlink:href="#IPAexGothic-20" transform="translate(753.222656 0)"/>
     <use xlink:href="#IPAexGothic-34" transform="translate(780.224609 0)"/>
     <use xlink:href="#IPAexGothic-37" transform="translate(843.212891 0)"/>
     <use xlink:href="#IPAexGothic-36" transform="translate(906.201172 0)"/>
     <use xlink:href="#IPAexGothic-2e" transform="translate(969.189453 0)"/>
     <use xlink:href="#IPAexGothic-38" transform="translate(995.605469 0)"/>
     <use xlink:href="#IPAexGothic-39" transform="translate(1058.59375 0)"/>
     <use xlink:href="#IPAexGothic-36" transform="translate(1121.582031 0)"/>
    </g>
    <!-- samples = 65 -->
    <g transform="translate(280.080603 513.029676) scale(0.063888 -0.063888)">
     <use xlink:href="#IPAexGothic-73"/>
     <use xlink:href="#IPAexGothic-61" transform="translate(46.191406 0)"/>
     <use xlink:href="#IPAexGothic-6d" transform="translate(101.171875 0)"/>
     <use xlink:href="#IPAexGothic-70" transform="translate(188.28125 0)"/>
     <use xlink:href="#IPAexGothic-6c" transform="translate(250.390625 0)"/>
     <use xlink:href="#IPAexGothic-65" transform="translate(277.392578 0)"/>
     <use xlink:href="#IPAexGothic-73" transform="translate(334.277344 0)"/>
     <use xlink:href="#IPAexGothic-20" transform="translate(380.46875 0)"/>
     <use xlink:href="#IPAexGothic-3d" transform="translate(407.470703 0)"/>
     <use xlink:href="#IPAexGothic-20" transform="translate(475.292969 0)"/>
     <use xlink:href="#IPAexGothic-36" transform="translate(502.294922 0)"/>
     <use xlink:href="#IPAexGothic-35" transform="translate(565.283203 0)"/>
    </g>
    <!-- value = 8.212 -->
    <g transform="translate(279.448709 519.986308) scale(0.063888 -0.063888)">
     <use xlink:href="#IPAexGothic-76"/>
     <use xlink:href="#IPAexGothic-61" transform="translate(48.583984 0)"/>
     <use xlink:href="#IPAexGothic-6c" transform="translate(103.564453 0)"/>
     <use xlink:href="#IPAexGothic-75" transform="translate(130.566406 0)"/>
     <use xlink:href="#IPAexGothic-65" transform="translate(190.966797 0)"/>
     <use xlink:href="#IPAexGothic-20" transform="translate(247.851562 0)"/>
     <use xlink:href="#IPAexGothic-3d" transform="translate(274.853516 0)"/>
     <use xlink:href="#IPAexGothic-20" transform="translate(342.675781 0)"/>
     <use xlink:href="#IPAexGothic-38" transform="translate(369.677734 0)"/>
     <use xlink:href="#IPAexGothic-2e" transform="translate(432.666016 0)"/>
     <use xlink:href="#IPAexGothic-32" transform="translate(459.082031 0)"/>
     <use xlink:href="#IPAexGothic-31" transform="translate(522.070312 0)"/>
     <use xlink:href="#IPAexGothic-32" transform="translate(585.058594 0)"/>
    </g>
   </g>
   <g id="patch_10">
    <path d="M 388.486961 495.886984 
Q 406.642649 435.758467 425.121515 374.559642 
" style="fill: none; stroke: #000000; stroke-linecap: round"/>
    <path d="M 390.448877 493.809895 
L 388.486961 495.886984 
L 388.002439 493.071197 
" style="fill: none; stroke: #000000; stroke-linecap: round"/>
   </g>
   <g id="text_6">
    <g id="patch_11">
     <path d="M 346.009188 523.116833 
L 421.690812 523.116833 
Q 423.60746 523.116833 423.60746 521.200185 
L 423.60746 501.287415 
Q 423.60746 499.370767 421.690812 499.370767 
L 346.009188 499.370767 
Q 344.09254 499.370767 344.09254 501.287415 
L 344.09254 521.200185 
Q 344.09254 523.116833 346.009188 523.116833 
z
" style="fill: #f4cbad; stroke: #000000; stroke-linejoin: miter"/>
    </g>
    <!-- squared_error = 375.829 -->
    <g transform="translate(346.009188 506.073044) scale(0.063888 -0.063888)">
     <use xlink:href="#IPAexGothic-73"/>
     <use xlink:href="#IPAexGothic-71" transform="translate(46.191406 0)"/>
     <use xlink:href="#IPAexGothic-75" transform="translate(108.398438 0)"/>
     <use xlink:href="#IPAexGothic-61" transform="translate(168.798828 0)"/>
     <use xlink:href="#IPAexGothic-72" transform="translate(223.779297 0)"/>
     <use xlink:href="#IPAexGothic-65" transform="translate(260.791016 0)"/>
     <use xlink:href="#IPAexGothic-64" transform="translate(317.675781 0)"/>
     <use xlink:href="#IPAexGothic-5f" transform="translate(380.078125 0)"/>
     <use xlink:href="#IPAexGothic-65" transform="translate(430.078125 0)"/>
     <use xlink:href="#IPAexGothic-72" transform="translate(486.962891 0)"/>
     <use xlink:href="#IPAexGothic-72" transform="translate(523.974609 0)"/>
     <use xlink:href="#IPAexGothic-6f" transform="translate(560.986328 0)"/>
     <use xlink:href="#IPAexGothic-72" transform="translate(621.386719 0)"/>
     <use xlink:href="#IPAexGothic-20" transform="translate(658.398438 0)"/>
     <use xlink:href="#IPAexGothic-3d" transform="translate(685.400391 0)"/>
     <use xlink:href="#IPAexGothic-20" transform="translate(753.222656 0)"/>
     <use xlink:href="#IPAexGothic-33" transform="translate(780.224609 0)"/>
     <use xlink:href="#IPAexGothic-37" transform="translate(843.212891 0)"/>
     <use xlink:href="#IPAexGothic-35" transform="translate(906.201172 0)"/>
     <use xlink:href="#IPAexGothic-2e" transform="translate(969.189453 0)"/>
     <use xlink:href="#IPAexGothic-38" transform="translate(995.605469 0)"/>
     <use xlink:href="#IPAexGothic-32" transform="translate(1058.59375 0)"/>
     <use xlink:href="#IPAexGothic-39" transform="translate(1121.582031 0)"/>
    </g>
    <!-- samples = 60 -->
    <g transform="translate(363.780603 513.029676) scale(0.063888 -0.063888)">
     <use xlink:href="#IPAexGothic-73"/>
     <use xlink:href="#IPAexGothic-61" transform="translate(46.191406 0)"/>
     <use xlink:href="#IPAexGothic-6d" transform="translate(101.171875 0)"/>
     <use xlink:href="#IPAexGothic-70" transform="translate(188.28125 0)"/>
     <use xlink:href="#IPAexGothic-6c" transform="translate(250.390625 0)"/>
     <use xlink:href="#IPAexGothic-65" transform="translate(277.392578 0)"/>
     <use xlink:href="#IPAexGothic-73" transform="translate(334.277344 0)"/>
     <use xlink:href="#IPAexGothic-20" transform="translate(380.46875 0)"/>
     <use xlink:href="#IPAexGothic-3d" transform="translate(407.470703 0)"/>
     <use xlink:href="#IPAexGothic-20" transform="translate(475.292969 0)"/>
     <use xlink:href="#IPAexGothic-36" transform="translate(502.294922 0)"/>
     <use xlink:href="#IPAexGothic-30" transform="translate(565.283203 0)"/>
    </g>
    <!-- value = -0.73 -->
    <g transform="translate(364.01719 519.986308) scale(0.063888 -0.063888)">
     <use xlink:href="#IPAexGothic-76"/>
     <use xlink:href="#IPAexGothic-61" transform="translate(48.583984 0)"/>
     <use xlink:href="#IPAexGothic-6c" transform="translate(103.564453 0)"/>
     <use xlink:href="#IPAexGothic-75" transform="translate(130.566406 0)"/>
     <use xlink:href="#IPAexGothic-65" transform="translate(190.966797 0)"/>
     <use xlink:href="#IPAexGothic-20" transform="translate(247.851562 0)"/>
     <use xlink:href="#IPAexGothic-3d" transform="translate(274.853516 0)"/>
     <use xlink:href="#IPAexGothic-20" transform="translate(342.675781 0)"/>
     <use xlink:href="#IPAexGothic-2d" transform="translate(369.677734 0)"/>
     <use xlink:href="#IPAexGothic-30" transform="translate(405.46875 0)"/>
     <use xlink:href="#IPAexGothic-2e" transform="translate(468.457031 0)"/>
     <use xlink:href="#IPAexGothic-37" transform="translate(494.873047 0)"/>
     <use xlink:href="#IPAexGothic-33" transform="translate(557.861328 0)"/>
    </g>
   </g>
   <g id="patch_12">
    <path d="M 462.913039 495.886984 
Q 444.757351 435.758467 426.278485 374.559642 
" style="fill: none; stroke: #000000; stroke-linecap: round"/>
    <path d="M 463.397561 493.071197 
L 462.913039 495.886984 
L 460.951123 493.809895 
" style="fill: none; stroke: #000000; stroke-linecap: round"/>
   </g>
   <g id="text_7">
    <g id="patch_13">
     <path d="M 431.721168 523.116833 
L 503.378832 523.116833 
Q 505.295479 523.116833 505.295479 521.200185 
L 505.295479 501.287415 
Q 505.295479 499.370767 503.378832 499.370767 
L 431.721168 499.370767 
Q 429.804521 499.370767 429.804521 501.287415 
L 429.804521 521.200185 
Q 429.804521 523.116833 431.721168 523.116833 
z
" style="fill: #eda572; stroke: #000000; stroke-linejoin: miter"/>
    </g>
    <!-- squared_error = 485.57 -->
    <g transform="translate(431.721168 506.073044) scale(0.063888 -0.063888)">
     <use xlink:href="#IPAexGothic-73"/>
     <use xlink:href="#IPAexGothic-71" transform="translate(46.191406 0)"/>
     <use xlink:href="#IPAexGothic-75" transform="translate(108.398438 0)"/>
     <use xlink:href="#IPAexGothic-61" transform="translate(168.798828 0)"/>
     <use xlink:href="#IPAexGothic-72" transform="translate(223.779297 0)"/>
     <use xlink:href="#IPAexGothic-65" transform="translate(260.791016 0)"/>
     <use xlink:href="#IPAexGothic-64" transform="translate(317.675781 0)"/>
     <use xlink:href="#IPAexGothic-5f" transform="translate(380.078125 0)"/>
     <use xlink:href="#IPAexGothic-65" transform="translate(430.078125 0)"/>
     <use xlink:href="#IPAexGothic-72" transform="translate(486.962891 0)"/>
     <use xlink:href="#IPAexGothic-72" transform="translate(523.974609 0)"/>
     <use xlink:href="#IPAexGothic-6f" transform="translate(560.986328 0)"/>
     <use xlink:href="#IPAexGothic-72" transform="translate(621.386719 0)"/>
     <use xlink:href="#IPAexGothic-20" transform="translate(658.398438 0)"/>
     <use xlink:href="#IPAexGothic-3d" transform="translate(685.400391 0)"/>
     <use xlink:href="#IPAexGothic-20" transform="translate(753.222656 0)"/>
     <use xlink:href="#IPAexGothic-34" transform="translate(780.224609 0)"/>
     <use xlink:href="#IPAexGothic-38" transform="translate(843.212891 0)"/>
     <use xlink:href="#IPAexGothic-35" transform="translate(906.201172 0)"/>
     <use xlink:href="#IPAexGothic-2e" transform="translate(969.189453 0)"/>
     <use xlink:href="#IPAexGothic-35" transform="translate(995.605469 0)"/>
     <use xlink:href="#IPAexGothic-37" transform="translate(1058.59375 0)"/>
    </g>
    <!-- samples = 72 -->
    <g transform="translate(447.480603 513.029676) scale(0.063888 -0.063888)">
     <use xlink:href="#IPAexGothic-73"/>
     <use xlink:href="#IPAexGothic-61" transform="translate(46.191406 0)"/>
     <use xlink:href="#IPAexGothic-6d" transform="translate(101.171875 0)"/>
     <use xlink:href="#IPAexGothic-70" transform="translate(188.28125 0)"/>
     <use xlink:href="#IPAexGothic-6c" transform="translate(250.390625 0)"/>
     <use xlink:href="#IPAexGothic-65" transform="translate(277.392578 0)"/>
     <use xlink:href="#IPAexGothic-73" transform="translate(334.277344 0)"/>
     <use xlink:href="#IPAexGothic-20" transform="translate(380.46875 0)"/>
     <use xlink:href="#IPAexGothic-3d" transform="translate(407.470703 0)"/>
     <use xlink:href="#IPAexGothic-20" transform="translate(475.292969 0)"/>
     <use xlink:href="#IPAexGothic-37" transform="translate(502.294922 0)"/>
     <use xlink:href="#IPAexGothic-32" transform="translate(565.283203 0)"/>
    </g>
    <!-- value = 40.578 -->
    <g transform="translate(444.836728 519.986308) scale(0.063888 -0.063888)">
     <use xlink:href="#IPAexGothic-76"/>
     <use xlink:href="#IPAexGothic-61" transform="translate(48.583984 0)"/>
     <use xlink:href="#IPAexGothic-6c" transform="translate(103.564453 0)"/>
     <use xlink:href="#IPAexGothic-75" transform="translate(130.566406 0)"/>
     <use xlink:href="#IPAexGothic-65" transform="translate(190.966797 0)"/>
     <use xlink:href="#IPAexGothic-20" transform="translate(247.851562 0)"/>
     <use xlink:href="#IPAexGothic-3d" transform="translate(274.853516 0)"/>
     <use xlink:href="#IPAexGothic-20" transform="translate(342.675781 0)"/>
     <use xlink:href="#IPAexGothic-34" transform="translate(369.677734 0)"/>
     <use xlink:href="#IPAexGothic-30" transform="translate(432.666016 0)"/>
     <use xlink:href="#IPAexGothic-2e" transform="translate(495.654297 0)"/>
     <use xlink:href="#IPAexGothic-35" transform="translate(522.070312 0)"/>
     <use xlink:href="#IPAexGothic-37" transform="translate(585.058594 0)"/>
     <use xlink:href="#IPAexGothic-38" transform="translate(648.046875 0)"/>
    </g>
   </g>
   <g id="patch_14">
    <path d="M 555.886961 495.886984 
Q 574.042649 435.758467 592.521515 374.559642 
" style="fill: none; stroke: #000000; stroke-linecap: round"/>
    <path d="M 557.848877 493.809895 
L 555.886961 495.886984 
L 555.402439 493.071197 
" style="fill: none; stroke: #000000; stroke-linecap: round"/>
   </g>
   <g id="text_8">
    <g id="patch_15">
     <path d="M 513.409188 523.116833 
L 589.090812 523.116833 
Q 591.00746 523.116833 591.00746 521.200185 
L 591.00746 501.287415 
Q 591.00746 499.370767 589.090812 499.370767 
L 513.409188 499.370767 
Q 511.49254 499.370767 511.49254 501.287415 
L 511.49254 521.200185 
Q 511.49254 523.116833 513.409188 523.116833 
z
" style="fill: #eeac7c; stroke: #000000; stroke-linejoin: miter"/>
    </g>
    <!-- squared_error = 307.577 -->
    <g transform="translate(513.409188 506.073044) scale(0.063888 -0.063888)">
     <use xlink:href="#IPAexGothic-73"/>
     <use xlink:href="#IPAexGothic-71" transform="translate(46.191406 0)"/>
     <use xlink:href="#IPAexGothic-75" transform="translate(108.398438 0)"/>
     <use xlink:href="#IPAexGothic-61" transform="translate(168.798828 0)"/>
     <use xlink:href="#IPAexGothic-72" transform="translate(223.779297 0)"/>
     <use xlink:href="#IPAexGothic-65" transform="translate(260.791016 0)"/>
     <use xlink:href="#IPAexGothic-64" transform="translate(317.675781 0)"/>
     <use xlink:href="#IPAexGothic-5f" transform="translate(380.078125 0)"/>
     <use xlink:href="#IPAexGothic-65" transform="translate(430.078125 0)"/>
     <use xlink:href="#IPAexGothic-72" transform="translate(486.962891 0)"/>
     <use xlink:href="#IPAexGothic-72" transform="translate(523.974609 0)"/>
     <use xlink:href="#IPAexGothic-6f" transform="translate(560.986328 0)"/>
     <use xlink:href="#IPAexGothic-72" transform="translate(621.386719 0)"/>
     <use xlink:href="#IPAexGothic-20" transform="translate(658.398438 0)"/>
     <use xlink:href="#IPAexGothic-3d" transform="translate(685.400391 0)"/>
     <use xlink:href="#IPAexGothic-20" transform="translate(753.222656 0)"/>
     <use xlink:href="#IPAexGothic-33" transform="translate(780.224609 0)"/>
     <use xlink:href="#IPAexGothic-30" transform="translate(843.212891 0)"/>
     <use xlink:href="#IPAexGothic-37" transform="translate(906.201172 0)"/>
     <use xlink:href="#IPAexGothic-2e" transform="translate(969.189453 0)"/>
     <use xlink:href="#IPAexGothic-35" transform="translate(995.605469 0)"/>
     <use xlink:href="#IPAexGothic-37" transform="translate(1058.59375 0)"/>
     <use xlink:href="#IPAexGothic-37" transform="translate(1121.582031 0)"/>
    </g>
    <!-- samples = 13 -->
    <g transform="translate(531.180603 513.029676) scale(0.063888 -0.063888)">
     <use xlink:href="#IPAexGothic-73"/>
     <use xlink:href="#IPAexGothic-61" transform="translate(46.191406 0)"/>
     <use xlink:href="#IPAexGothic-6d" transform="translate(101.171875 0)"/>
     <use xlink:href="#IPAexGothic-70" transform="translate(188.28125 0)"/>
     <use xlink:href="#IPAexGothic-6c" transform="translate(250.390625 0)"/>
     <use xlink:href="#IPAexGothic-65" transform="translate(277.392578 0)"/>
     <use xlink:href="#IPAexGothic-73" transform="translate(334.277344 0)"/>
     <use xlink:href="#IPAexGothic-20" transform="translate(380.46875 0)"/>
     <use xlink:href="#IPAexGothic-3d" transform="translate(407.470703 0)"/>
     <use xlink:href="#IPAexGothic-20" transform="translate(475.292969 0)"/>
     <use xlink:href="#IPAexGothic-31" transform="translate(502.294922 0)"/>
     <use xlink:href="#IPAexGothic-33" transform="translate(565.283203 0)"/>
    </g>
    <!-- value = 33.501 -->
    <g transform="translate(528.536728 519.986308) scale(0.063888 -0.063888)">
     <use xlink:href="#IPAexGothic-76"/>
     <use xlink:href="#IPAexGothic-61" transform="translate(48.583984 0)"/>
     <use xlink:href="#IPAexGothic-6c" transform="translate(103.564453 0)"/>
     <use xlink:href="#IPAexGothic-75" transform="translate(130.566406 0)"/>
     <use xlink:href="#IPAexGothic-65" transform="translate(190.966797 0)"/>
     <use xlink:href="#IPAexGothic-20" transform="translate(247.851562 0)"/>
     <use xlink:href="#IPAexGothic-3d" transform="translate(274.853516 0)"/>
     <use xlink:href="#IPAexGothic-20" transform="translate(342.675781 0)"/>
     <use xlink:href="#IPAexGothic-33" transform="translate(369.677734 0)"/>
     <use xlink:href="#IPAexGothic-33" transform="translate(432.666016 0)"/>
     <use xlink:href="#IPAexGothic-2e" transform="translate(495.654297 0)"/>
     <use xlink:href="#IPAexGothic-35" transform="translate(522.070312 0)"/>
     <use xlink:href="#IPAexGothic-30" transform="translate(585.058594 0)"/>
     <use xlink:href="#IPAexGothic-31" transform="translate(648.046875 0)"/>
    </g>
   </g>
   <g id="patch_16">
    <path d="M 630.313039 495.886984 
Q 612.157351 435.758467 593.678485 374.559642 
" style="fill: none; stroke: #000000; stroke-linecap: round"/>
    <path d="M 630.797561 493.071197 
L 630.313039 495.886984 
L 628.351123 493.809895 
" style="fill: none; stroke: #000000; stroke-linecap: round"/>
   </g>
   <g id="text_9">
    <g id="patch_17">
     <path d="M 597.109188 523.116833 
L 672.790812 523.116833 
Q 674.70746 523.116833 674.70746 521.200185 
L 674.70746 501.287415 
Q 674.70746 499.370767 672.790812 499.370767 
L 597.109188 499.370767 
Q 595.19254 499.370767 595.19254 501.287415 
L 595.19254 521.200185 
Q 595.19254 523.116833 597.109188 523.116833 
z
" style="fill: #e58139; stroke: #000000; stroke-linejoin: miter"/>
    </g>
    <!-- squared_error = 535.844 -->
    <g transform="translate(597.109188 506.073044) scale(0.063888 -0.063888)">
     <use xlink:href="#IPAexGothic-73"/>
     <use xlink:href="#IPAexGothic-71" transform="translate(46.191406 0)"/>
     <use xlink:href="#IPAexGothic-75" transform="translate(108.398438 0)"/>
     <use xlink:href="#IPAexGothic-61" transform="translate(168.798828 0)"/>
     <use xlink:href="#IPAexGothic-72" transform="translate(223.779297 0)"/>
     <use xlink:href="#IPAexGothic-65" transform="translate(260.791016 0)"/>
     <use xlink:href="#IPAexGothic-64" transform="translate(317.675781 0)"/>
     <use xlink:href="#IPAexGothic-5f" transform="translate(380.078125 0)"/>
     <use xlink:href="#IPAexGothic-65" transform="translate(430.078125 0)"/>
     <use xlink:href="#IPAexGothic-72" transform="translate(486.962891 0)"/>
     <use xlink:href="#IPAexGothic-72" transform="translate(523.974609 0)"/>
     <use xlink:href="#IPAexGothic-6f" transform="translate(560.986328 0)"/>
     <use xlink:href="#IPAexGothic-72" transform="translate(621.386719 0)"/>
     <use xlink:href="#IPAexGothic-20" transform="translate(658.398438 0)"/>
     <use xlink:href="#IPAexGothic-3d" transform="translate(685.400391 0)"/>
     <use xlink:href="#IPAexGothic-20" transform="translate(753.222656 0)"/>
     <use xlink:href="#IPAexGothic-35" transform="translate(780.224609 0)"/>
     <use xlink:href="#IPAexGothic-33" transform="translate(843.212891 0)"/>
     <use xlink:href="#IPAexGothic-35" transform="translate(906.201172 0)"/>
     <use xlink:href="#IPAexGothic-2e" transform="translate(969.189453 0)"/>
     <use xlink:href="#IPAexGothic-38" transform="translate(995.605469 0)"/>
     <use xlink:href="#IPAexGothic-34" transform="translate(1058.59375 0)"/>
     <use xlink:href="#IPAexGothic-34" transform="translate(1121.582031 0)"/>
    </g>
    <!-- samples = 43 -->
    <g transform="translate(614.880603 513.029676) scale(0.063888 -0.063888)">
     <use xlink:href="#IPAexGothic-73"/>
     <use xlink:href="#IPAexGothic-61" transform="translate(46.191406 0)"/>
     <use xlink:href="#IPAexGothic-6d" transform="translate(101.171875 0)"/>
     <use xlink:href="#IPAexGothic-70" transform="translate(188.28125 0)"/>
     <use xlink:href="#IPAexGothic-6c" transform="translate(250.390625 0)"/>
     <use xlink:href="#IPAexGothic-65" transform="translate(277.392578 0)"/>
     <use xlink:href="#IPAexGothic-73" transform="translate(334.277344 0)"/>
     <use xlink:href="#IPAexGothic-20" transform="translate(380.46875 0)"/>
     <use xlink:href="#IPAexGothic-3d" transform="translate(407.470703 0)"/>
     <use xlink:href="#IPAexGothic-20" transform="translate(475.292969 0)"/>
     <use xlink:href="#IPAexGothic-34" transform="translate(502.294922 0)"/>
     <use xlink:href="#IPAexGothic-33" transform="translate(565.283203 0)"/>
    </g>
    <!-- value = 80.844 -->
    <g transform="translate(612.236728 519.986308) scale(0.063888 -0.063888)">
     <use xlink:href="#IPAexGothic-76"/>
     <use xlink:href="#IPAexGothic-61" transform="translate(48.583984 0)"/>
     <use xlink:href="#IPAexGothic-6c" transform="translate(103.564453 0)"/>
     <use xlink:href="#IPAexGothic-75" transform="translate(130.566406 0)"/>
     <use xlink:href="#IPAexGothic-65" transform="translate(190.966797 0)"/>
     <use xlink:href="#IPAexGothic-20" transform="translate(247.851562 0)"/>
     <use xlink:href="#IPAexGothic-3d" transform="translate(274.853516 0)"/>
     <use xlink:href="#IPAexGothic-20" transform="translate(342.675781 0)"/>
     <use xlink:href="#IPAexGothic-38" transform="translate(369.677734 0)"/>
     <use xlink:href="#IPAexGothic-30" transform="translate(432.666016 0)"/>
     <use xlink:href="#IPAexGothic-2e" transform="translate(495.654297 0)"/>
     <use xlink:href="#IPAexGothic-38" transform="translate(522.070312 0)"/>
     <use xlink:href="#IPAexGothic-34" transform="translate(585.058594 0)"/>
     <use xlink:href="#IPAexGothic-34" transform="translate(648.046875 0)"/>
    </g>
   </g>
   <g id="patch_18">
    <path d="M 102.082847 354.125967 
Q 137.536038 295.418533 173.567192 235.754041 
" style="fill: none; stroke: #000000; stroke-linecap: round"/>
    <path d="M 104.497708 352.598923 
L 102.082847 354.125967 
L 102.310128 351.277852 
" style="fill: none; stroke: #000000; stroke-linecap: round"/>
   </g>
   <g id="text_10">
    <g id="patch_19">
     <path d="M 53.059188 387.995149 
L 128.740812 387.995149 
Q 130.65746 387.995149 130.65746 386.078501 
L 130.65746 359.209099 
Q 130.65746 357.292451 128.740812 357.292451 
L 53.059188 357.292451 
Q 51.14254 357.292451 51.14254 359.209099 
L 51.14254 386.078501 
Q 51.14254 387.995149 53.059188 387.995149 
z
" style="fill: #fefdfb; stroke: #000000; stroke-linejoin: miter"/>
    </g>
    <!-- x2 &lt;= 1.212 -->
    <g transform="translate(72.3764 363.994728) scale(0.063888 -0.063888)">
     <defs>
      <path id="IPAexGothic-78" d="M 3050 63 
L 2419 63 
L 1547 1338 
L 691 63 
L 56 63 
L 1247 1675 
L 106 3250 
L 747 3250 
L 1578 2016 
L 2413 3250 
L 3019 3250 
L 1875 1681 
L 3050 63 
z
" transform="scale(0.015625)"/>
      <path id="IPAexGothic-3c" d="M 897 2028 
L 3928 609 
L 3769 263 
L 409 1881 
L 409 2175 
L 3769 3794 
L 3928 3450 
L 897 2028 
z
" transform="scale(0.015625)"/>
     </defs>
     <use xlink:href="#IPAexGothic-78"/>
     <use xlink:href="#IPAexGothic-32" transform="translate(48.876953 0)"/>
     <use xlink:href="#IPAexGothic-20" transform="translate(111.865234 0)"/>
     <use xlink:href="#IPAexGothic-3c" transform="translate(138.867188 0)"/>
     <use xlink:href="#IPAexGothic-3d" transform="translate(206.689453 0)"/>
     <use xlink:href="#IPAexGothic-20" transform="translate(274.511719 0)"/>
     <use xlink:href="#IPAexGothic-31" transform="translate(301.513672 0)"/>
     <use xlink:href="#IPAexGothic-2e" transform="translate(364.501953 0)"/>
     <use xlink:href="#IPAexGothic-32" transform="translate(390.917969 0)"/>
     <use xlink:href="#IPAexGothic-31" transform="translate(453.90625 0)"/>
     <use xlink:href="#IPAexGothic-32" transform="translate(516.894531 0)"/>
    </g>
    <!-- squared_error = 728.706 -->
    <g transform="translate(53.059188 370.95136) scale(0.063888 -0.063888)">
     <use xlink:href="#IPAexGothic-73"/>
     <use xlink:href="#IPAexGothic-71" transform="translate(46.191406 0)"/>
     <use xlink:href="#IPAexGothic-75" transform="translate(108.398438 0)"/>
     <use xlink:href="#IPAexGothic-61" transform="translate(168.798828 0)"/>
     <use xlink:href="#IPAexGothic-72" transform="translate(223.779297 0)"/>
     <use xlink:href="#IPAexGothic-65" transform="translate(260.791016 0)"/>
     <use xlink:href="#IPAexGothic-64" transform="translate(317.675781 0)"/>
     <use xlink:href="#IPAexGothic-5f" transform="translate(380.078125 0)"/>
     <use xlink:href="#IPAexGothic-65" transform="translate(430.078125 0)"/>
     <use xlink:href="#IPAexGothic-72" transform="translate(486.962891 0)"/>
     <use xlink:href="#IPAexGothic-72" transform="translate(523.974609 0)"/>
     <use xlink:href="#IPAexGothic-6f" transform="translate(560.986328 0)"/>
     <use xlink:href="#IPAexGothic-72" transform="translate(621.386719 0)"/>
     <use xlink:href="#IPAexGothic-20" transform="translate(658.398438 0)"/>
     <use xlink:href="#IPAexGothic-3d" transform="translate(685.400391 0)"/>
     <use xlink:href="#IPAexGothic-20" transform="translate(753.222656 0)"/>
     <use xlink:href="#IPAexGothic-37" transform="translate(780.224609 0)"/>
     <use xlink:href="#IPAexGothic-32" transform="translate(843.212891 0)"/>
     <use xlink:href="#IPAexGothic-38" transform="translate(906.201172 0)"/>
     <use xlink:href="#IPAexGothic-2e" transform="translate(969.189453 0)"/>
     <use xlink:href="#IPAexGothic-37" transform="translate(995.605469 0)"/>
     <use xlink:href="#IPAexGothic-30" transform="translate(1058.59375 0)"/>
     <use xlink:href="#IPAexGothic-36" transform="translate(1121.582031 0)"/>
    </g>
    <!-- samples = 63 -->
    <g transform="translate(70.830603 377.907992) scale(0.063888 -0.063888)">
     <use xlink:href="#IPAexGothic-73"/>
     <use xlink:href="#IPAexGothic-61" transform="translate(46.191406 0)"/>
     <use xlink:href="#IPAexGothic-6d" transform="translate(101.171875 0)"/>
     <use xlink:href="#IPAexGothic-70" transform="translate(188.28125 0)"/>
     <use xlink:href="#IPAexGothic-6c" transform="translate(250.390625 0)"/>
     <use xlink:href="#IPAexGothic-65" transform="translate(277.392578 0)"/>
     <use xlink:href="#IPAexGothic-73" transform="translate(334.277344 0)"/>
     <use xlink:href="#IPAexGothic-20" transform="translate(380.46875 0)"/>
     <use xlink:href="#IPAexGothic-3d" transform="translate(407.470703 0)"/>
     <use xlink:href="#IPAexGothic-20" transform="translate(475.292969 0)"/>
     <use xlink:href="#IPAexGothic-36" transform="translate(502.294922 0)"/>
     <use xlink:href="#IPAexGothic-33" transform="translate(565.283203 0)"/>
    </g>
    <!-- value = -55.908 -->
    <g transform="translate(67.043228 384.864625) scale(0.063888 -0.063888)">
     <use xlink:href="#IPAexGothic-76"/>
     <use xlink:href="#IPAexGothic-61" transform="translate(48.583984 0)"/>
     <use xlink:href="#IPAexGothic-6c" transform="translate(103.564453 0)"/>
     <use xlink:href="#IPAexGothic-75" transform="translate(130.566406 0)"/>
     <use xlink:href="#IPAexGothic-65" transform="translate(190.966797 0)"/>
     <use xlink:href="#IPAexGothic-20" transform="translate(247.851562 0)"/>
     <use xlink:href="#IPAexGothic-3d" transform="translate(274.853516 0)"/>
     <use xlink:href="#IPAexGothic-20" transform="translate(342.675781 0)"/>
     <use xlink:href="#IPAexGothic-2d" transform="translate(369.677734 0)"/>
     <use xlink:href="#IPAexGothic-35" transform="translate(405.46875 0)"/>
     <use xlink:href="#IPAexGothic-35" transform="translate(468.457031 0)"/>
     <use xlink:href="#IPAexGothic-2e" transform="translate(531.445312 0)"/>
     <use xlink:href="#IPAexGothic-39" transform="translate(557.861328 0)"/>
     <use xlink:href="#IPAexGothic-30" transform="translate(620.849609 0)"/>
     <use xlink:href="#IPAexGothic-38" transform="translate(683.837891 0)"/>
    </g>
   </g>
   <g id="patch_20">
    <path d="M 247.117153 354.125967 
Q 211.663962 295.418533 175.632808 235.754041 
" style="fill: none; stroke: #000000; stroke-linecap: round"/>
    <path d="M 246.889872 351.277852 
L 247.117153 354.125967 
L 244.702292 352.598923 
" style="fill: none; stroke: #000000; stroke-linecap: round"/>
   </g>
   <g id="text_11">
    <g id="patch_21">
     <path d="M 220.459188 387.995149 
L 296.140812 387.995149 
Q 298.05746 387.995149 298.05746 386.078501 
L 298.05746 359.209099 
Q 298.05746 357.292451 296.140812 357.292451 
L 220.459188 357.292451 
Q 218.54254 357.292451 218.54254 359.209099 
L 218.54254 386.078501 
Q 218.54254 387.995149 220.459188 387.995149 
z
" style="fill: #f6d5be; stroke: #000000; stroke-linejoin: miter"/>
    </g>
    <!-- x2 &lt;= 0.173 -->
    <g transform="translate(239.7764 363.994728) scale(0.063888 -0.063888)">
     <use xlink:href="#IPAexGothic-78"/>
     <use xlink:href="#IPAexGothic-32" transform="translate(48.876953 0)"/>
     <use xlink:href="#IPAexGothic-20" transform="translate(111.865234 0)"/>
     <use xlink:href="#IPAexGothic-3c" transform="translate(138.867188 0)"/>
     <use xlink:href="#IPAexGothic-3d" transform="translate(206.689453 0)"/>
     <use xlink:href="#IPAexGothic-20" transform="translate(274.511719 0)"/>
     <use xlink:href="#IPAexGothic-30" transform="translate(301.513672 0)"/>
     <use xlink:href="#IPAexGothic-2e" transform="translate(364.501953 0)"/>
     <use xlink:href="#IPAexGothic-31" transform="translate(390.917969 0)"/>
     <use xlink:href="#IPAexGothic-37" transform="translate(453.90625 0)"/>
     <use xlink:href="#IPAexGothic-33" transform="translate(516.894531 0)"/>
    </g>
    <!-- squared_error = 803.846 -->
    <g transform="translate(220.459188 370.95136) scale(0.063888 -0.063888)">
     <use xlink:href="#IPAexGothic-73"/>
     <use xlink:href="#IPAexGothic-71" transform="translate(46.191406 0)"/>
     <use xlink:href="#IPAexGothic-75" transform="translate(108.398438 0)"/>
     <use xlink:href="#IPAexGothic-61" transform="translate(168.798828 0)"/>
     <use xlink:href="#IPAexGothic-72" transform="translate(223.779297 0)"/>
     <use xlink:href="#IPAexGothic-65" transform="translate(260.791016 0)"/>
     <use xlink:href="#IPAexGothic-64" transform="translate(317.675781 0)"/>
     <use xlink:href="#IPAexGothic-5f" transform="translate(380.078125 0)"/>
     <use xlink:href="#IPAexGothic-65" transform="translate(430.078125 0)"/>
     <use xlink:href="#IPAexGothic-72" transform="translate(486.962891 0)"/>
     <use xlink:href="#IPAexGothic-72" transform="translate(523.974609 0)"/>
     <use xlink:href="#IPAexGothic-6f" transform="translate(560.986328 0)"/>
     <use xlink:href="#IPAexGothic-72" transform="translate(621.386719 0)"/>
     <use xlink:href="#IPAexGothic-20" transform="translate(658.398438 0)"/>
     <use xlink:href="#IPAexGothic-3d" transform="translate(685.400391 0)"/>
     <use xlink:href="#IPAexGothic-20" transform="translate(753.222656 0)"/>
     <use xlink:href="#IPAexGothic-38" transform="translate(780.224609 0)"/>
     <use xlink:href="#IPAexGothic-30" transform="translate(843.212891 0)"/>
     <use xlink:href="#IPAexGothic-33" transform="translate(906.201172 0)"/>
     <use xlink:href="#IPAexGothic-2e" transform="translate(969.189453 0)"/>
     <use xlink:href="#IPAexGothic-38" transform="translate(995.605469 0)"/>
     <use xlink:href="#IPAexGothic-34" transform="translate(1058.59375 0)"/>
     <use xlink:href="#IPAexGothic-36" transform="translate(1121.582031 0)"/>
    </g>
    <!-- samples = 149 -->
    <g transform="translate(236.218623 377.907992) scale(0.063888 -0.063888)">
     <use xlink:href="#IPAexGothic-73"/>
     <use xlink:href="#IPAexGothic-61" transform="translate(46.191406 0)"/>
     <use xlink:href="#IPAexGothic-6d" transform="translate(101.171875 0)"/>
     <use xlink:href="#IPAexGothic-70" transform="translate(188.28125 0)"/>
     <use xlink:href="#IPAexGothic-6c" transform="translate(250.390625 0)"/>
     <use xlink:href="#IPAexGothic-65" transform="translate(277.392578 0)"/>
     <use xlink:href="#IPAexGothic-73" transform="translate(334.277344 0)"/>
     <use xlink:href="#IPAexGothic-20" transform="translate(380.46875 0)"/>
     <use xlink:href="#IPAexGothic-3d" transform="translate(407.470703 0)"/>
     <use xlink:href="#IPAexGothic-20" transform="translate(475.292969 0)"/>
     <use xlink:href="#IPAexGothic-31" transform="translate(502.294922 0)"/>
     <use xlink:href="#IPAexGothic-34" transform="translate(565.283203 0)"/>
     <use xlink:href="#IPAexGothic-39" transform="translate(628.271484 0)"/>
    </g>
    <!-- value = -12.513 -->
    <g transform="translate(234.443228 384.864625) scale(0.063888 -0.063888)">
     <use xlink:href="#IPAexGothic-76"/>
     <use xlink:href="#IPAexGothic-61" transform="translate(48.583984 0)"/>
     <use xlink:href="#IPAexGothic-6c" transform="translate(103.564453 0)"/>
     <use xlink:href="#IPAexGothic-75" transform="translate(130.566406 0)"/>
     <use xlink:href="#IPAexGothic-65" transform="translate(190.966797 0)"/>
     <use xlink:href="#IPAexGothic-20" transform="translate(247.851562 0)"/>
     <use xlink:href="#IPAexGothic-3d" transform="translate(274.853516 0)"/>
     <use xlink:href="#IPAexGothic-20" transform="translate(342.675781 0)"/>
     <use xlink:href="#IPAexGothic-2d" transform="translate(369.677734 0)"/>
     <use xlink:href="#IPAexGothic-31" transform="translate(405.46875 0)"/>
     <use xlink:href="#IPAexGothic-32" transform="translate(468.457031 0)"/>
     <use xlink:href="#IPAexGothic-2e" transform="translate(531.445312 0)"/>
     <use xlink:href="#IPAexGothic-35" transform="translate(557.861328 0)"/>
     <use xlink:href="#IPAexGothic-31" transform="translate(620.849609 0)"/>
     <use xlink:href="#IPAexGothic-33" transform="translate(683.837891 0)"/>
    </g>
   </g>
   <g id="patch_22">
    <path d="M 436.882847 354.125967 
Q 472.336038 295.418533 508.367192 235.754041 
" style="fill: none; stroke: #000000; stroke-linecap: round"/>
    <path d="M 439.297708 352.598923 
L 436.882847 354.125967 
L 437.110128 351.277852 
" style="fill: none; stroke: #000000; stroke-linecap: round"/>
   </g>
   <g id="text_12">
    <g id="patch_23">
     <path d="M 387.859188 387.995149 
L 463.540812 387.995149 
Q 465.45746 387.995149 465.45746 386.078501 
L 465.45746 359.209099 
Q 465.45746 357.292451 463.540812 357.292451 
L 387.859188 357.292451 
Q 385.94254 357.292451 385.94254 359.209099 
L 385.94254 386.078501 
Q 385.94254 387.995149 387.859188 387.995149 
z
" style="fill: #f0b68d; stroke: #000000; stroke-linejoin: miter"/>
    </g>
    <!-- x2 &lt;= -0.105 -->
    <g transform="translate(406.0329 363.994728) scale(0.063888 -0.063888)">
     <use xlink:href="#IPAexGothic-78"/>
     <use xlink:href="#IPAexGothic-32" transform="translate(48.876953 0)"/>
     <use xlink:href="#IPAexGothic-20" transform="translate(111.865234 0)"/>
     <use xlink:href="#IPAexGothic-3c" transform="translate(138.867188 0)"/>
     <use xlink:href="#IPAexGothic-3d" transform="translate(206.689453 0)"/>
     <use xlink:href="#IPAexGothic-20" transform="translate(274.511719 0)"/>
     <use xlink:href="#IPAexGothic-2d" transform="translate(301.513672 0)"/>
     <use xlink:href="#IPAexGothic-30" transform="translate(337.304688 0)"/>
     <use xlink:href="#IPAexGothic-2e" transform="translate(400.292969 0)"/>
     <use xlink:href="#IPAexGothic-31" transform="translate(426.708984 0)"/>
     <use xlink:href="#IPAexGothic-30" transform="translate(489.697266 0)"/>
     <use xlink:href="#IPAexGothic-35" transform="translate(552.685547 0)"/>
    </g>
    <!-- squared_error = 858.748 -->
    <g transform="translate(387.859188 370.95136) scale(0.063888 -0.063888)">
     <use xlink:href="#IPAexGothic-73"/>
     <use xlink:href="#IPAexGothic-71" transform="translate(46.191406 0)"/>
     <use xlink:href="#IPAexGothic-75" transform="translate(108.398438 0)"/>
     <use xlink:href="#IPAexGothic-61" transform="translate(168.798828 0)"/>
     <use xlink:href="#IPAexGothic-72" transform="translate(223.779297 0)"/>
     <use xlink:href="#IPAexGothic-65" transform="translate(260.791016 0)"/>
     <use xlink:href="#IPAexGothic-64" transform="translate(317.675781 0)"/>
     <use xlink:href="#IPAexGothic-5f" transform="translate(380.078125 0)"/>
     <use xlink:href="#IPAexGothic-65" transform="translate(430.078125 0)"/>
     <use xlink:href="#IPAexGothic-72" transform="translate(486.962891 0)"/>
     <use xlink:href="#IPAexGothic-72" transform="translate(523.974609 0)"/>
     <use xlink:href="#IPAexGothic-6f" transform="translate(560.986328 0)"/>
     <use xlink:href="#IPAexGothic-72" transform="translate(621.386719 0)"/>
     <use xlink:href="#IPAexGothic-20" transform="translate(658.398438 0)"/>
     <use xlink:href="#IPAexGothic-3d" transform="translate(685.400391 0)"/>
     <use xlink:href="#IPAexGothic-20" transform="translate(753.222656 0)"/>
     <use xlink:href="#IPAexGothic-38" transform="translate(780.224609 0)"/>
     <use xlink:href="#IPAexGothic-35" transform="translate(843.212891 0)"/>
     <use xlink:href="#IPAexGothic-38" transform="translate(906.201172 0)"/>
     <use xlink:href="#IPAexGothic-2e" transform="translate(969.189453 0)"/>
     <use xlink:href="#IPAexGothic-37" transform="translate(995.605469 0)"/>
     <use xlink:href="#IPAexGothic-34" transform="translate(1058.59375 0)"/>
     <use xlink:href="#IPAexGothic-38" transform="translate(1121.582031 0)"/>
    </g>
    <!-- samples = 132 -->
    <g transform="translate(403.618623 377.907992) scale(0.063888 -0.063888)">
     <use xlink:href="#IPAexGothic-73"/>
     <use xlink:href="#IPAexGothic-61" transform="translate(46.191406 0)"/>
     <use xlink:href="#IPAexGothic-6d" transform="translate(101.171875 0)"/>
     <use xlink:href="#IPAexGothic-70" transform="translate(188.28125 0)"/>
     <use xlink:href="#IPAexGothic-6c" transform="translate(250.390625 0)"/>
     <use xlink:href="#IPAexGothic-65" transform="translate(277.392578 0)"/>
     <use xlink:href="#IPAexGothic-73" transform="translate(334.277344 0)"/>
     <use xlink:href="#IPAexGothic-20" transform="translate(380.46875 0)"/>
     <use xlink:href="#IPAexGothic-3d" transform="translate(407.470703 0)"/>
     <use xlink:href="#IPAexGothic-20" transform="translate(475.292969 0)"/>
     <use xlink:href="#IPAexGothic-31" transform="translate(502.294922 0)"/>
     <use xlink:href="#IPAexGothic-33" transform="translate(565.283203 0)"/>
     <use xlink:href="#IPAexGothic-32" transform="translate(628.271484 0)"/>
    </g>
    <!-- value = 21.801 -->
    <g transform="translate(402.986728 384.864625) scale(0.063888 -0.063888)">
     <use xlink:href="#IPAexGothic-76"/>
     <use xlink:href="#IPAexGothic-61" transform="translate(48.583984 0)"/>
     <use xlink:href="#IPAexGothic-6c" transform="translate(103.564453 0)"/>
     <use xlink:href="#IPAexGothic-75" transform="translate(130.566406 0)"/>
     <use xlink:href="#IPAexGothic-65" transform="translate(190.966797 0)"/>
     <use xlink:href="#IPAexGothic-20" transform="translate(247.851562 0)"/>
     <use xlink:href="#IPAexGothic-3d" transform="translate(274.853516 0)"/>
     <use xlink:href="#IPAexGothic-20" transform="translate(342.675781 0)"/>
     <use xlink:href="#IPAexGothic-32" transform="translate(369.677734 0)"/>
     <use xlink:href="#IPAexGothic-31" transform="translate(432.666016 0)"/>
     <use xlink:href="#IPAexGothic-2e" transform="translate(495.654297 0)"/>
     <use xlink:href="#IPAexGothic-38" transform="translate(522.070312 0)"/>
     <use xlink:href="#IPAexGothic-30" transform="translate(585.058594 0)"/>
     <use xlink:href="#IPAexGothic-31" transform="translate(648.046875 0)"/>
    </g>
   </g>
   <g id="patch_24">
    <path d="M 581.917153 354.125967 
Q 546.463962 295.418533 510.432808 235.754041 
" style="fill: none; stroke: #000000; stroke-linecap: round"/>
    <path d="M 581.689872 351.277852 
L 581.917153 354.125967 
L 579.502292 352.598923 
" style="fill: none; stroke: #000000; stroke-linecap: round"/>
   </g>
   <g id="text_13">
    <g id="patch_25">
     <path d="M 557.271168 387.995149 
L 628.928832 387.995149 
Q 630.845479 387.995149 630.845479 386.078501 
L 630.845479 359.209099 
Q 630.845479 357.292451 628.928832 357.292451 
L 557.271168 357.292451 
Q 555.354521 357.292451 555.354521 359.209099 
L 555.354521 386.078501 
Q 555.354521 387.995149 557.271168 387.995149 
z
" style="fill: #e78b49; stroke: #000000; stroke-linejoin: miter"/>
    </g>
    <!-- x2 &lt;= -0.811 -->
    <g transform="translate(573.4329 363.994728) scale(0.063888 -0.063888)">
     <use xlink:href="#IPAexGothic-78"/>
     <use xlink:href="#IPAexGothic-32" transform="translate(48.876953 0)"/>
     <use xlink:href="#IPAexGothic-20" transform="translate(111.865234 0)"/>
     <use xlink:href="#IPAexGothic-3c" transform="translate(138.867188 0)"/>
     <use xlink:href="#IPAexGothic-3d" transform="translate(206.689453 0)"/>
     <use xlink:href="#IPAexGothic-20" transform="translate(274.511719 0)"/>
     <use xlink:href="#IPAexGothic-2d" transform="translate(301.513672 0)"/>
     <use xlink:href="#IPAexGothic-30" transform="translate(337.304688 0)"/>
     <use xlink:href="#IPAexGothic-2e" transform="translate(400.292969 0)"/>
     <use xlink:href="#IPAexGothic-38" transform="translate(426.708984 0)"/>
     <use xlink:href="#IPAexGothic-31" transform="translate(489.697266 0)"/>
     <use xlink:href="#IPAexGothic-31" transform="translate(552.685547 0)"/>
    </g>
    <!-- squared_error = 882.38 -->
    <g transform="translate(557.271168 370.95136) scale(0.063888 -0.063888)">
     <use xlink:href="#IPAexGothic-73"/>
     <use xlink:href="#IPAexGothic-71" transform="translate(46.191406 0)"/>
     <use xlink:href="#IPAexGothic-75" transform="translate(108.398438 0)"/>
     <use xlink:href="#IPAexGothic-61" transform="translate(168.798828 0)"/>
     <use xlink:href="#IPAexGothic-72" transform="translate(223.779297 0)"/>
     <use xlink:href="#IPAexGothic-65" transform="translate(260.791016 0)"/>
     <use xlink:href="#IPAexGothic-64" transform="translate(317.675781 0)"/>
     <use xlink:href="#IPAexGothic-5f" transform="translate(380.078125 0)"/>
     <use xlink:href="#IPAexGothic-65" transform="translate(430.078125 0)"/>
     <use xlink:href="#IPAexGothic-72" transform="translate(486.962891 0)"/>
     <use xlink:href="#IPAexGothic-72" transform="translate(523.974609 0)"/>
     <use xlink:href="#IPAexGothic-6f" transform="translate(560.986328 0)"/>
     <use xlink:href="#IPAexGothic-72" transform="translate(621.386719 0)"/>
     <use xlink:href="#IPAexGothic-20" transform="translate(658.398438 0)"/>
     <use xlink:href="#IPAexGothic-3d" transform="translate(685.400391 0)"/>
     <use xlink:href="#IPAexGothic-20" transform="translate(753.222656 0)"/>
     <use xlink:href="#IPAexGothic-38" transform="translate(780.224609 0)"/>
     <use xlink:href="#IPAexGothic-38" transform="translate(843.212891 0)"/>
     <use xlink:href="#IPAexGothic-32" transform="translate(906.201172 0)"/>
     <use xlink:href="#IPAexGothic-2e" transform="translate(969.189453 0)"/>
     <use xlink:href="#IPAexGothic-33" transform="translate(995.605469 0)"/>
     <use xlink:href="#IPAexGothic-38" transform="translate(1058.59375 0)"/>
    </g>
    <!-- samples = 56 -->
    <g transform="translate(573.030603 377.907992) scale(0.063888 -0.063888)">
     <use xlink:href="#IPAexGothic-73"/>
     <use xlink:href="#IPAexGothic-61" transform="translate(46.191406 0)"/>
     <use xlink:href="#IPAexGothic-6d" transform="translate(101.171875 0)"/>
     <use xlink:href="#IPAexGothic-70" transform="translate(188.28125 0)"/>
     <use xlink:href="#IPAexGothic-6c" transform="translate(250.390625 0)"/>
     <use xlink:href="#IPAexGothic-65" transform="translate(277.392578 0)"/>
     <use xlink:href="#IPAexGothic-73" transform="translate(334.277344 0)"/>
     <use xlink:href="#IPAexGothic-20" transform="translate(380.46875 0)"/>
     <use xlink:href="#IPAexGothic-3d" transform="translate(407.470703 0)"/>
     <use xlink:href="#IPAexGothic-20" transform="translate(475.292969 0)"/>
     <use xlink:href="#IPAexGothic-35" transform="translate(502.294922 0)"/>
     <use xlink:href="#IPAexGothic-36" transform="translate(565.283203 0)"/>
    </g>
    <!-- value = 69.854 -->
    <g transform="translate(570.386728 384.864625) scale(0.063888 -0.063888)">
     <use xlink:href="#IPAexGothic-76"/>
     <use xlink:href="#IPAexGothic-61" transform="translate(48.583984 0)"/>
     <use xlink:href="#IPAexGothic-6c" transform="translate(103.564453 0)"/>
     <use xlink:href="#IPAexGothic-75" transform="translate(130.566406 0)"/>
     <use xlink:href="#IPAexGothic-65" transform="translate(190.966797 0)"/>
     <use xlink:href="#IPAexGothic-20" transform="translate(247.851562 0)"/>
     <use xlink:href="#IPAexGothic-3d" transform="translate(274.853516 0)"/>
     <use xlink:href="#IPAexGothic-20" transform="translate(342.675781 0)"/>
     <use xlink:href="#IPAexGothic-36" transform="translate(369.677734 0)"/>
     <use xlink:href="#IPAexGothic-39" transform="translate(432.666016 0)"/>
     <use xlink:href="#IPAexGothic-2e" transform="translate(495.654297 0)"/>
     <use xlink:href="#IPAexGothic-38" transform="translate(522.070312 0)"/>
     <use xlink:href="#IPAexGothic-35" transform="translate(585.058594 0)"/>
     <use xlink:href="#IPAexGothic-34" transform="translate(648.046875 0)"/>
    </g>
   </g>
   <g id="patch_26">
    <path d="M 196.146365 216.204337 
Q 267.871368 156.819119 340.457542 96.720889 
" style="fill: none; stroke: #000000; stroke-linecap: round"/>
    <path d="M 198.92965 215.558784 
L 196.146365 216.204337 
L 197.299894 213.590377 
" style="fill: none; stroke: #000000; stroke-linecap: round"/>
   </g>
   <g id="text_14">
    <g id="patch_27">
     <path d="M 134.747207 249.395149 
L 214.452793 249.395149 
Q 216.369441 249.395149 216.369441 247.478501 
L 216.369441 220.609099 
Q 216.369441 218.692451 214.452793 218.692451 
L 134.747207 218.692451 
Q 132.830559 218.692451 132.830559 220.609099 
L 132.830559 247.478501 
Q 132.830559 249.395149 134.747207 249.395149 
z
" style="fill: #f9e1d0; stroke: #000000; stroke-linejoin: miter"/>
    </g>
    <!-- x1 &lt;= -0.884 -->
    <g transform="translate(154.9329 225.394728) scale(0.063888 -0.063888)">
     <use xlink:href="#IPAexGothic-78"/>
     <use xlink:href="#IPAexGothic-31" transform="translate(48.876953 0)"/>
     <use xlink:href="#IPAexGothic-20" transform="translate(111.865234 0)"/>
     <use xlink:href="#IPAexGothic-3c" transform="translate(138.867188 0)"/>
     <use xlink:href="#IPAexGothic-3d" transform="translate(206.689453 0)"/>
     <use xlink:href="#IPAexGothic-20" transform="translate(274.511719 0)"/>
     <use xlink:href="#IPAexGothic-2d" transform="translate(301.513672 0)"/>
     <use xlink:href="#IPAexGothic-30" transform="translate(337.304688 0)"/>
     <use xlink:href="#IPAexGothic-2e" transform="translate(400.292969 0)"/>
     <use xlink:href="#IPAexGothic-38" transform="translate(426.708984 0)"/>
     <use xlink:href="#IPAexGothic-38" transform="translate(489.697266 0)"/>
     <use xlink:href="#IPAexGothic-34" transform="translate(552.685547 0)"/>
    </g>
    <!-- squared_error = 1174.825 -->
    <g transform="translate(134.747207 232.35136) scale(0.063888 -0.063888)">
     <use xlink:href="#IPAexGothic-73"/>
     <use xlink:href="#IPAexGothic-71" transform="translate(46.191406 0)"/>
     <use xlink:href="#IPAexGothic-75" transform="translate(108.398438 0)"/>
     <use xlink:href="#IPAexGothic-61" transform="translate(168.798828 0)"/>
     <use xlink:href="#IPAexGothic-72" transform="translate(223.779297 0)"/>
     <use xlink:href="#IPAexGothic-65" transform="translate(260.791016 0)"/>
     <use xlink:href="#IPAexGothic-64" transform="translate(317.675781 0)"/>
     <use xlink:href="#IPAexGothic-5f" transform="translate(380.078125 0)"/>
     <use xlink:href="#IPAexGothic-65" transform="translate(430.078125 0)"/>
     <use xlink:href="#IPAexGothic-72" transform="translate(486.962891 0)"/>
     <use xlink:href="#IPAexGothic-72" transform="translate(523.974609 0)"/>
     <use xlink:href="#IPAexGothic-6f" transform="translate(560.986328 0)"/>
     <use xlink:href="#IPAexGothic-72" transform="translate(621.386719 0)"/>
     <use xlink:href="#IPAexGothic-20" transform="translate(658.398438 0)"/>
     <use xlink:href="#IPAexGothic-3d" transform="translate(685.400391 0)"/>
     <use xlink:href="#IPAexGothic-20" transform="translate(753.222656 0)"/>
     <use xlink:href="#IPAexGothic-31" transform="translate(780.224609 0)"/>
     <use xlink:href="#IPAexGothic-31" transform="translate(843.212891 0)"/>
     <use xlink:href="#IPAexGothic-37" transform="translate(906.201172 0)"/>
     <use xlink:href="#IPAexGothic-34" transform="translate(969.189453 0)"/>
     <use xlink:href="#IPAexGothic-2e" transform="translate(1032.177734 0)"/>
     <use xlink:href="#IPAexGothic-38" transform="translate(1058.59375 0)"/>
     <use xlink:href="#IPAexGothic-32" transform="translate(1121.582031 0)"/>
     <use xlink:href="#IPAexGothic-35" transform="translate(1184.570312 0)"/>
    </g>
    <!-- samples = 212 -->
    <g transform="translate(152.518623 239.307992) scale(0.063888 -0.063888)">
     <use xlink:href="#IPAexGothic-73"/>
     <use xlink:href="#IPAexGothic-61" transform="translate(46.191406 0)"/>
     <use xlink:href="#IPAexGothic-6d" transform="translate(101.171875 0)"/>
     <use xlink:href="#IPAexGothic-70" transform="translate(188.28125 0)"/>
     <use xlink:href="#IPAexGothic-6c" transform="translate(250.390625 0)"/>
     <use xlink:href="#IPAexGothic-65" transform="translate(277.392578 0)"/>
     <use xlink:href="#IPAexGothic-73" transform="translate(334.277344 0)"/>
     <use xlink:href="#IPAexGothic-20" transform="translate(380.46875 0)"/>
     <use xlink:href="#IPAexGothic-3d" transform="translate(407.470703 0)"/>
     <use xlink:href="#IPAexGothic-20" transform="translate(475.292969 0)"/>
     <use xlink:href="#IPAexGothic-32" transform="translate(502.294922 0)"/>
     <use xlink:href="#IPAexGothic-31" transform="translate(565.283203 0)"/>
     <use xlink:href="#IPAexGothic-32" transform="translate(628.271484 0)"/>
    </g>
    <!-- value = -25.408 -->
    <g transform="translate(150.743228 246.264625) scale(0.063888 -0.063888)">
     <use xlink:href="#IPAexGothic-76"/>
     <use xlink:href="#IPAexGothic-61" transform="translate(48.583984 0)"/>
     <use xlink:href="#IPAexGothic-6c" transform="translate(103.564453 0)"/>
     <use xlink:href="#IPAexGothic-75" transform="translate(130.566406 0)"/>
     <use xlink:href="#IPAexGothic-65" transform="translate(190.966797 0)"/>
     <use xlink:href="#IPAexGothic-20" transform="translate(247.851562 0)"/>
     <use xlink:href="#IPAexGothic-3d" transform="translate(274.853516 0)"/>
     <use xlink:href="#IPAexGothic-20" transform="translate(342.675781 0)"/>
     <use xlink:href="#IPAexGothic-2d" transform="translate(369.677734 0)"/>
     <use xlink:href="#IPAexGothic-32" transform="translate(405.46875 0)"/>
     <use xlink:href="#IPAexGothic-35" transform="translate(468.457031 0)"/>
     <use xlink:href="#IPAexGothic-2e" transform="translate(531.445312 0)"/>
     <use xlink:href="#IPAexGothic-34" transform="translate(557.861328 0)"/>
     <use xlink:href="#IPAexGothic-30" transform="translate(620.849609 0)"/>
     <use xlink:href="#IPAexGothic-38" transform="translate(683.837891 0)"/>
    </g>
   </g>
   <g id="text_15">
    <!-- True   -->
    <g transform="translate(241.163973 164.7438) scale(0.063888 -0.063888)">
     <defs>
      <path id="IPAexGothic-54" d="M 3866 4141 
L 2175 4141 
L 2175 63 
L 1606 63 
L 1606 4141 
L -31 4141 
L -31 4634 
L 3866 4634 
L 3866 4141 
z
" transform="scale(0.015625)"/>
     </defs>
     <use xlink:href="#IPAexGothic-54"/>
     <use xlink:href="#IPAexGothic-72" transform="translate(59.912109 0)"/>
     <use xlink:href="#IPAexGothic-75" transform="translate(96.923828 0)"/>
     <use xlink:href="#IPAexGothic-65" transform="translate(157.324219 0)"/>
     <use xlink:href="#IPAexGothic-20" transform="translate(214.208984 0)"/>
     <use xlink:href="#IPAexGothic-20" transform="translate(241.210938 0)"/>
    </g>
   </g>
   <g id="patch_28">
    <path d="M 487.853635 216.204337 
Q 416.128632 156.819119 343.542458 96.720889 
" style="fill: none; stroke: #000000; stroke-linecap: round"/>
    <path d="M 486.700106 213.590377 
L 487.853635 216.204337 
L 485.07035 215.558784 
" style="fill: none; stroke: #000000; stroke-linecap: round"/>
   </g>
   <g id="text_16">
    <g id="patch_29">
     <path d="M 469.547207 249.395149 
L 549.252793 249.395149 
Q 551.169441 249.395149 551.169441 247.478501 
L 551.169441 220.609099 
Q 551.169441 218.692451 549.252793 218.692451 
L 469.547207 218.692451 
Q 467.630559 218.692451 467.630559 220.609099 
L 467.630559 247.478501 
Q 467.630559 249.395149 469.547207 249.395149 
z
" style="fill: #eda979; stroke: #000000; stroke-linejoin: miter"/>
    </g>
    <!-- x1 &lt;= 1.188 -->
    <g transform="translate(490.8764 225.394728) scale(0.063888 -0.063888)">
     <use xlink:href="#IPAexGothic-78"/>
     <use xlink:href="#IPAexGothic-31" transform="translate(48.876953 0)"/>
     <use xlink:href="#IPAexGothic-20" transform="translate(111.865234 0)"/>
     <use xlink:href="#IPAexGothic-3c" transform="translate(138.867188 0)"/>
     <use xlink:href="#IPAexGothic-3d" transform="translate(206.689453 0)"/>
     <use xlink:href="#IPAexGothic-20" transform="translate(274.511719 0)"/>
     <use xlink:href="#IPAexGothic-31" transform="translate(301.513672 0)"/>
     <use xlink:href="#IPAexGothic-2e" transform="translate(364.501953 0)"/>
     <use xlink:href="#IPAexGothic-31" transform="translate(390.917969 0)"/>
     <use xlink:href="#IPAexGothic-38" transform="translate(453.90625 0)"/>
     <use xlink:href="#IPAexGothic-38" transform="translate(516.894531 0)"/>
    </g>
    <!-- squared_error = 1348.714 -->
    <g transform="translate(469.547207 232.35136) scale(0.063888 -0.063888)">
     <use xlink:href="#IPAexGothic-73"/>
     <use xlink:href="#IPAexGothic-71" transform="translate(46.191406 0)"/>
     <use xlink:href="#IPAexGothic-75" transform="translate(108.398438 0)"/>
     <use xlink:href="#IPAexGothic-61" transform="translate(168.798828 0)"/>
     <use xlink:href="#IPAexGothic-72" transform="translate(223.779297 0)"/>
     <use xlink:href="#IPAexGothic-65" transform="translate(260.791016 0)"/>
     <use xlink:href="#IPAexGothic-64" transform="translate(317.675781 0)"/>
     <use xlink:href="#IPAexGothic-5f" transform="translate(380.078125 0)"/>
     <use xlink:href="#IPAexGothic-65" transform="translate(430.078125 0)"/>
     <use xlink:href="#IPAexGothic-72" transform="translate(486.962891 0)"/>
     <use xlink:href="#IPAexGothic-72" transform="translate(523.974609 0)"/>
     <use xlink:href="#IPAexGothic-6f" transform="translate(560.986328 0)"/>
     <use xlink:href="#IPAexGothic-72" transform="translate(621.386719 0)"/>
     <use xlink:href="#IPAexGothic-20" transform="translate(658.398438 0)"/>
     <use xlink:href="#IPAexGothic-3d" transform="translate(685.400391 0)"/>
     <use xlink:href="#IPAexGothic-20" transform="translate(753.222656 0)"/>
     <use xlink:href="#IPAexGothic-31" transform="translate(780.224609 0)"/>
     <use xlink:href="#IPAexGothic-33" transform="translate(843.212891 0)"/>
     <use xlink:href="#IPAexGothic-34" transform="translate(906.201172 0)"/>
     <use xlink:href="#IPAexGothic-38" transform="translate(969.189453 0)"/>
     <use xlink:href="#IPAexGothic-2e" transform="translate(1032.177734 0)"/>
     <use xlink:href="#IPAexGothic-37" transform="translate(1058.59375 0)"/>
     <use xlink:href="#IPAexGothic-31" transform="translate(1121.582031 0)"/>
     <use xlink:href="#IPAexGothic-34" transform="translate(1184.570312 0)"/>
    </g>
    <!-- samples = 188 -->
    <g transform="translate(487.318623 239.307992) scale(0.063888 -0.063888)">
     <use xlink:href="#IPAexGothic-73"/>
     <use xlink:href="#IPAexGothic-61" transform="translate(46.191406 0)"/>
     <use xlink:href="#IPAexGothic-6d" transform="translate(101.171875 0)"/>
     <use xlink:href="#IPAexGothic-70" transform="translate(188.28125 0)"/>
     <use xlink:href="#IPAexGothic-6c" transform="translate(250.390625 0)"/>
     <use xlink:href="#IPAexGothic-65" transform="translate(277.392578 0)"/>
     <use xlink:href="#IPAexGothic-73" transform="translate(334.277344 0)"/>
     <use xlink:href="#IPAexGothic-20" transform="translate(380.46875 0)"/>
     <use xlink:href="#IPAexGothic-3d" transform="translate(407.470703 0)"/>
     <use xlink:href="#IPAexGothic-20" transform="translate(475.292969 0)"/>
     <use xlink:href="#IPAexGothic-31" transform="translate(502.294922 0)"/>
     <use xlink:href="#IPAexGothic-38" transform="translate(565.283203 0)"/>
     <use xlink:href="#IPAexGothic-38" transform="translate(628.271484 0)"/>
    </g>
    <!-- value = 36.115 -->
    <g transform="translate(486.686728 246.264625) scale(0.063888 -0.063888)">
     <use xlink:href="#IPAexGothic-76"/>
     <use xlink:href="#IPAexGothic-61" transform="translate(48.583984 0)"/>
     <use xlink:href="#IPAexGothic-6c" transform="translate(103.564453 0)"/>
     <use xlink:href="#IPAexGothic-75" transform="translate(130.566406 0)"/>
     <use xlink:href="#IPAexGothic-65" transform="translate(190.966797 0)"/>
     <use xlink:href="#IPAexGothic-20" transform="translate(247.851562 0)"/>
     <use xlink:href="#IPAexGothic-3d" transform="translate(274.853516 0)"/>
     <use xlink:href="#IPAexGothic-20" transform="translate(342.675781 0)"/>
     <use xlink:href="#IPAexGothic-33" transform="translate(369.677734 0)"/>
     <use xlink:href="#IPAexGothic-36" transform="translate(432.666016 0)"/>
     <use xlink:href="#IPAexGothic-2e" transform="translate(495.654297 0)"/>
     <use xlink:href="#IPAexGothic-31" transform="translate(522.070312 0)"/>
     <use xlink:href="#IPAexGothic-31" transform="translate(585.058594 0)"/>
     <use xlink:href="#IPAexGothic-35" transform="translate(648.046875 0)"/>
    </g>
   </g>
   <g id="text_17">
    <!--   False -->
    <g transform="translate(425.7 164.7438) scale(0.063888 -0.063888)">
     <defs>
      <path id="IPAexGothic-46" d="M 3469 4141 
L 1172 4141 
L 1172 2656 
L 3206 2656 
L 3206 2188 
L 1172 2188 
L 1172 63 
L 609 63 
L 609 4634 
L 3469 4634 
L 3469 4141 
z
" transform="scale(0.015625)"/>
     </defs>
     <use xlink:href="#IPAexGothic-20"/>
     <use xlink:href="#IPAexGothic-20" transform="translate(27.001953 0)"/>
     <use xlink:href="#IPAexGothic-46" transform="translate(54.003906 0)"/>
     <use xlink:href="#IPAexGothic-61" transform="translate(111.181641 0)"/>
     <use xlink:href="#IPAexGothic-6c" transform="translate(166.162109 0)"/>
     <use xlink:href="#IPAexGothic-73" transform="translate(193.164062 0)"/>
     <use xlink:href="#IPAexGothic-65" transform="translate(239.355469 0)"/>
    </g>
   </g>
   <g id="patch_30">
    <path d="M 342 95.4438 
Q 342 95.4438 342 95.4438 
" style="fill: none; stroke: #000000; stroke-linecap: round"/>
   </g>
   <g id="text_18">
    <g id="patch_31">
     <path d="M 302.147207 110.795149 
L 381.852793 110.795149 
Q 383.769441 110.795149 383.769441 108.878501 
L 383.769441 82.009099 
Q 383.769441 80.092451 381.852793 80.092451 
L 302.147207 80.092451 
Q 300.230559 80.092451 300.230559 82.009099 
L 300.230559 108.878501 
Q 300.230559 110.795149 302.147207 110.795149 
z
" style="fill: #f3c7a7; stroke: #000000; stroke-linejoin: miter"/>
    </g>
    <!-- x1 &lt;= 0.126 -->
    <g transform="translate(323.4764 86.794728) scale(0.063888 -0.063888)">
     <use xlink:href="#IPAexGothic-78"/>
     <use xlink:href="#IPAexGothic-31" transform="translate(48.876953 0)"/>
     <use xlink:href="#IPAexGothic-20" transform="translate(111.865234 0)"/>
     <use xlink:href="#IPAexGothic-3c" transform="translate(138.867188 0)"/>
     <use xlink:href="#IPAexGothic-3d" transform="translate(206.689453 0)"/>
     <use xlink:href="#IPAexGothic-20" transform="translate(274.511719 0)"/>
     <use xlink:href="#IPAexGothic-30" transform="translate(301.513672 0)"/>
     <use xlink:href="#IPAexGothic-2e" transform="translate(364.501953 0)"/>
     <use xlink:href="#IPAexGothic-31" transform="translate(390.917969 0)"/>
     <use xlink:href="#IPAexGothic-32" transform="translate(453.90625 0)"/>
     <use xlink:href="#IPAexGothic-36" transform="translate(516.894531 0)"/>
    </g>
    <!-- squared_error = 2199.424 -->
    <g transform="translate(302.147207 93.75136) scale(0.063888 -0.063888)">
     <use xlink:href="#IPAexGothic-73"/>
     <use xlink:href="#IPAexGothic-71" transform="translate(46.191406 0)"/>
     <use xlink:href="#IPAexGothic-75" transform="translate(108.398438 0)"/>
     <use xlink:href="#IPAexGothic-61" transform="translate(168.798828 0)"/>
     <use xlink:href="#IPAexGothic-72" transform="translate(223.779297 0)"/>
     <use xlink:href="#IPAexGothic-65" transform="translate(260.791016 0)"/>
     <use xlink:href="#IPAexGothic-64" transform="translate(317.675781 0)"/>
     <use xlink:href="#IPAexGothic-5f" transform="translate(380.078125 0)"/>
     <use xlink:href="#IPAexGothic-65" transform="translate(430.078125 0)"/>
     <use xlink:href="#IPAexGothic-72" transform="translate(486.962891 0)"/>
     <use xlink:href="#IPAexGothic-72" transform="translate(523.974609 0)"/>
     <use xlink:href="#IPAexGothic-6f" transform="translate(560.986328 0)"/>
     <use xlink:href="#IPAexGothic-72" transform="translate(621.386719 0)"/>
     <use xlink:href="#IPAexGothic-20" transform="translate(658.398438 0)"/>
     <use xlink:href="#IPAexGothic-3d" transform="translate(685.400391 0)"/>
     <use xlink:href="#IPAexGothic-20" transform="translate(753.222656 0)"/>
     <use xlink:href="#IPAexGothic-32" transform="translate(780.224609 0)"/>
     <use xlink:href="#IPAexGothic-31" transform="translate(843.212891 0)"/>
     <use xlink:href="#IPAexGothic-39" transform="translate(906.201172 0)"/>
     <use xlink:href="#IPAexGothic-39" transform="translate(969.189453 0)"/>
     <use xlink:href="#IPAexGothic-2e" transform="translate(1032.177734 0)"/>
     <use xlink:href="#IPAexGothic-34" transform="translate(1058.59375 0)"/>
     <use xlink:href="#IPAexGothic-32" transform="translate(1121.582031 0)"/>
     <use xlink:href="#IPAexGothic-34" transform="translate(1184.570312 0)"/>
    </g>
    <!-- samples = 400 -->
    <g transform="translate(319.918623 100.707992) scale(0.063888 -0.063888)">
     <use xlink:href="#IPAexGothic-73"/>
     <use xlink:href="#IPAexGothic-61" transform="translate(46.191406 0)"/>
     <use xlink:href="#IPAexGothic-6d" transform="translate(101.171875 0)"/>
     <use xlink:href="#IPAexGothic-70" transform="translate(188.28125 0)"/>
     <use xlink:href="#IPAexGothic-6c" transform="translate(250.390625 0)"/>
     <use xlink:href="#IPAexGothic-65" transform="translate(277.392578 0)"/>
     <use xlink:href="#IPAexGothic-73" transform="translate(334.277344 0)"/>
     <use xlink:href="#IPAexGothic-20" transform="translate(380.46875 0)"/>
     <use xlink:href="#IPAexGothic-3d" transform="translate(407.470703 0)"/>
     <use xlink:href="#IPAexGothic-20" transform="translate(475.292969 0)"/>
     <use xlink:href="#IPAexGothic-34" transform="translate(502.294922 0)"/>
     <use xlink:href="#IPAexGothic-30" transform="translate(565.283203 0)"/>
     <use xlink:href="#IPAexGothic-30" transform="translate(628.271484 0)"/>
    </g>
    <!-- value = 3.508 -->
    <g transform="translate(321.298709 107.664625) scale(0.063888 -0.063888)">
     <use xlink:href="#IPAexGothic-76"/>
     <use xlink:href="#IPAexGothic-61" transform="translate(48.583984 0)"/>
     <use xlink:href="#IPAexGothic-6c" transform="translate(103.564453 0)"/>
     <use xlink:href="#IPAexGothic-75" transform="translate(130.566406 0)"/>
     <use xlink:href="#IPAexGothic-65" transform="translate(190.966797 0)"/>
     <use xlink:href="#IPAexGothic-20" transform="translate(247.851562 0)"/>
     <use xlink:href="#IPAexGothic-3d" transform="translate(274.853516 0)"/>
     <use xlink:href="#IPAexGothic-20" transform="translate(342.675781 0)"/>
     <use xlink:href="#IPAexGothic-33" transform="translate(369.677734 0)"/>
     <use xlink:href="#IPAexGothic-2e" transform="translate(432.666016 0)"/>
     <use xlink:href="#IPAexGothic-35" transform="translate(459.082031 0)"/>
     <use xlink:href="#IPAexGothic-30" transform="translate(522.070312 0)"/>
     <use xlink:href="#IPAexGothic-38" transform="translate(585.058594 0)"/>
    </g>
   </g>
  </g>
 </g>
</svg>
