<?xml version="1.0" encoding="utf-8" standalone="no"?>
<!DOCTYPE svg PUBLIC "-//W3C//DTD SVG 1.1//EN"
  "http://www.w3.org/Graphics/SVG/1.1/DTD/svg11.dtd">
<svg xmlns:xlink="http://www.w3.org/1999/xlink" width="507.344375pt" height="289.016925pt" viewBox="0 0 507.344375 289.016925" xmlns="http://www.w3.org/2000/svg" version="1.1">
 <metadata>
  <rdf:RDF xmlns:dc="http://purl.org/dc/elements/1.1/" xmlns:cc="http://creativecommons.org/ns#" xmlns:rdf="http://www.w3.org/1999/02/22-rdf-syntax-ns#">
   <cc:Work>
    <dc:type rdf:resource="http://purl.org/dc/dcmitype/StillImage"/>
    <dc:date>2025-10-29T12:35:06.478008</dc:date>
    <dc:format>image/svg+xml</dc:format>
    <dc:creator>
     <cc:Agent>
      <dc:title>Matplotlib v3.10.7, https://matplotlib.org/</dc:title>
     </cc:Agent>
    </dc:creator>
   </cc:Work>
  </rdf:RDF>
 </metadata>
 <defs>
  <style type="text/css">*{stroke-linejoin: round; stroke-linecap: butt}</style>
 </defs>
 <g id="figure_1">
  <g id="patch_1">
   <path d="M 0 289.016925 
L 507.344375 289.016925 
L 507.344375 0 
L 0 0 
z
" style="fill: #ffffff"/>
  </g>
  <g id="axes_1">
   <g id="patch_2">
    <path d="M 53.744375 247.9038 
L 500.144375 247.9038 
L 500.144375 26.1438 
L 53.744375 26.1438 
z
" style="fill: #ffffff"/>
   </g>
   <g id="PathCollection_1">
    <defs>
     <path id="m89de5d7909" d="M 0 1.936492 
C 0.513564 1.936492 1.006162 1.732451 1.369306 1.369306 
C 1.732451 1.006162 1.936492 0.513564 1.936492 0 
C 1.936492 -0.513564 1.732451 -1.006162 1.369306 -1.369306 
C 1.006162 -1.732451 0.513564 -1.936492 0 -1.936492 
C -0.513564 -1.936492 -1.006162 -1.732451 -1.369306 -1.369306 
C -1.732451 -1.006162 -1.936492 -0.513564 -1.936492 0 
C -1.936492 0.513564 -1.732451 1.006162 -1.369306 1.369306 
C -1.006162 1.732451 -0.513564 1.936492 0 1.936492 
z
" style="stroke: #808080"/>
    </defs>
    <g clip-path="url(#p439cdd3c86)">
     <use xlink:href="#m89de5d7909" x="74.035284" y="148.576672" style="fill: #808080; stroke: #808080"/>
     <use xlink:href="#m89de5d7909" x="80.263943" y="137.042029" style="fill: #808080; stroke: #808080"/>
     <use xlink:href="#m89de5d7909" x="82.263181" y="136.186713" style="fill: #808080; stroke: #808080"/>
     <use xlink:href="#m89de5d7909" x="84.748486" y="150.375895" style="fill: #808080; stroke: #808080"/>
     <use xlink:href="#m89de5d7909" x="85.972243" y="122.193341" style="fill: #808080; stroke: #808080"/>
     <use xlink:href="#m89de5d7909" x="90.454337" y="118.648307" style="fill: #808080; stroke: #808080"/>
     <use xlink:href="#m89de5d7909" x="90.960128" y="122.126314" style="fill: #808080; stroke: #808080"/>
     <use xlink:href="#m89de5d7909" x="95.770739" y="121.492499" style="fill: #808080; stroke: #808080"/>
     <use xlink:href="#m89de5d7909" x="98.034676" y="137.642777" style="fill: #808080; stroke: #808080"/>
     <use xlink:href="#m89de5d7909" x="98.652168" y="121.800927" style="fill: #808080; stroke: #808080"/>
     <use xlink:href="#m89de5d7909" x="102.371016" y="117.352255" style="fill: #808080; stroke: #808080"/>
     <use xlink:href="#m89de5d7909" x="102.580256" y="124.238284" style="fill: #808080; stroke: #808080"/>
     <use xlink:href="#m89de5d7909" x="103.584816" y="113.513199" style="fill: #808080; stroke: #808080"/>
     <use xlink:href="#m89de5d7909" x="108.345553" y="100.767098" style="fill: #808080; stroke: #808080"/>
     <use xlink:href="#m89de5d7909" x="112.141545" y="74.820865" style="fill: #808080; stroke: #808080"/>
     <use xlink:href="#m89de5d7909" x="116.367479" y="97.72146" style="fill: #808080; stroke: #808080"/>
     <use xlink:href="#m89de5d7909" x="119.666424" y="93.846098" style="fill: #808080; stroke: #808080"/>
     <use xlink:href="#m89de5d7909" x="121.206879" y="97.760532" style="fill: #808080; stroke: #808080"/>
     <use xlink:href="#m89de5d7909" x="122.217528" y="125.349797" style="fill: #808080; stroke: #808080"/>
     <use xlink:href="#m89de5d7909" x="129.435853" y="90.924913" style="fill: #808080; stroke: #808080"/>
     <use xlink:href="#m89de5d7909" x="130.027343" y="89.170711" style="fill: #808080; stroke: #808080"/>
     <use xlink:href="#m89de5d7909" x="136.259277" y="47.947872" style="fill: #808080; stroke: #808080"/>
     <use xlink:href="#m89de5d7909" x="136.269251" y="88.779932" style="fill: #808080; stroke: #808080"/>
     <use xlink:href="#m89de5d7909" x="138.420672" y="79.781086" style="fill: #808080; stroke: #808080"/>
     <use xlink:href="#m89de5d7909" x="142.26762" y="82.536993" style="fill: #808080; stroke: #808080"/>
     <use xlink:href="#m89de5d7909" x="146.940793" y="97.210528" style="fill: #808080; stroke: #808080"/>
     <use xlink:href="#m89de5d7909" x="147.593973" y="61.292351" style="fill: #808080; stroke: #808080"/>
     <use xlink:href="#m89de5d7909" x="148.19356" y="66.966148" style="fill: #808080; stroke: #808080"/>
     <use xlink:href="#m89de5d7909" x="148.903004" y="65.969797" style="fill: #808080; stroke: #808080"/>
     <use xlink:href="#m89de5d7909" x="152.795427" y="90.033366" style="fill: #808080; stroke: #808080"/>
     <use xlink:href="#m89de5d7909" x="153.925514" y="53.896616" style="fill: #808080; stroke: #808080"/>
     <use xlink:href="#m89de5d7909" x="154.321712" y="96.827019" style="fill: #808080; stroke: #808080"/>
     <use xlink:href="#m89de5d7909" x="159.559133" y="63.737831" style="fill: #808080; stroke: #808080"/>
     <use xlink:href="#m89de5d7909" x="166.365352" y="36.2238" style="fill: #808080; stroke: #808080"/>
     <use xlink:href="#m89de5d7909" x="174.840145" y="82.253225" style="fill: #808080; stroke: #808080"/>
     <use xlink:href="#m89de5d7909" x="178.763561" y="74.649163" style="fill: #808080; stroke: #808080"/>
     <use xlink:href="#m89de5d7909" x="183.961168" y="63.233877" style="fill: #808080; stroke: #808080"/>
     <use xlink:href="#m89de5d7909" x="187.924996" y="71.812709" style="fill: #808080; stroke: #808080"/>
     <use xlink:href="#m89de5d7909" x="191.571016" y="87.430002" style="fill: #808080; stroke: #808080"/>
     <use xlink:href="#m89de5d7909" x="192.182076" y="62.461982" style="fill: #808080; stroke: #808080"/>
     <use xlink:href="#m89de5d7909" x="192.56066" y="79.81332" style="fill: #808080; stroke: #808080"/>
     <use xlink:href="#m89de5d7909" x="197.563309" y="55.823019" style="fill: #808080; stroke: #808080"/>
     <use xlink:href="#m89de5d7909" x="197.716945" y="77.238295" style="fill: #808080; stroke: #808080"/>
     <use xlink:href="#m89de5d7909" x="200.350496" y="39.185907" style="fill: #808080; stroke: #808080"/>
     <use xlink:href="#m89de5d7909" x="200.651853" y="75.062419" style="fill: #808080; stroke: #808080"/>
     <use xlink:href="#m89de5d7909" x="201.745586" y="67.964352" style="fill: #808080; stroke: #808080"/>
     <use xlink:href="#m89de5d7909" x="206.222954" y="50.617826" style="fill: #808080; stroke: #808080"/>
     <use xlink:href="#m89de5d7909" x="206.283746" y="82.060066" style="fill: #808080; stroke: #808080"/>
     <use xlink:href="#m89de5d7909" x="208.586123" y="59.782753" style="fill: #808080; stroke: #808080"/>
     <use xlink:href="#m89de5d7909" x="219.277918" y="44.647106" style="fill: #808080; stroke: #808080"/>
     <use xlink:href="#m89de5d7909" x="219.986037" y="89.610992" style="fill: #808080; stroke: #808080"/>
     <use xlink:href="#m89de5d7909" x="223.251273" y="62.776587" style="fill: #808080; stroke: #808080"/>
     <use xlink:href="#m89de5d7909" x="226.633188" y="62.49265" style="fill: #808080; stroke: #808080"/>
     <use xlink:href="#m89de5d7909" x="232.479252" y="56.264163" style="fill: #808080; stroke: #808080"/>
     <use xlink:href="#m89de5d7909" x="241.455058" y="90.76263" style="fill: #808080; stroke: #808080"/>
     <use xlink:href="#m89de5d7909" x="248.550347" y="95.346444" style="fill: #808080; stroke: #808080"/>
     <use xlink:href="#m89de5d7909" x="250.371508" y="67.938417" style="fill: #808080; stroke: #808080"/>
     <use xlink:href="#m89de5d7909" x="253.765498" y="73.203955" style="fill: #808080; stroke: #808080"/>
     <use xlink:href="#m89de5d7909" x="260.347767" y="77.716949" style="fill: #808080; stroke: #808080"/>
     <use xlink:href="#m89de5d7909" x="267.024092" y="80.47075" style="fill: #808080; stroke: #808080"/>
     <use xlink:href="#m89de5d7909" x="275.948224" y="102.454708" style="fill: #808080; stroke: #808080"/>
     <use xlink:href="#m89de5d7909" x="276.519431" y="88.841949" style="fill: #808080; stroke: #808080"/>
     <use xlink:href="#m89de5d7909" x="282.058084" y="92.059934" style="fill: #808080; stroke: #808080"/>
     <use xlink:href="#m89de5d7909" x="284.400181" y="109.368225" style="fill: #808080; stroke: #808080"/>
     <use xlink:href="#m89de5d7909" x="286.812509" y="71.595352" style="fill: #808080; stroke: #808080"/>
     <use xlink:href="#m89de5d7909" x="287.914472" y="93.8826" style="fill: #808080; stroke: #808080"/>
     <use xlink:href="#m89de5d7909" x="288.751281" y="120.163601" style="fill: #808080; stroke: #808080"/>
     <use xlink:href="#m89de5d7909" x="294.782868" y="96.716048" style="fill: #808080; stroke: #808080"/>
     <use xlink:href="#m89de5d7909" x="296.169762" y="122.970166" style="fill: #808080; stroke: #808080"/>
     <use xlink:href="#m89de5d7909" x="297.82973" y="97.287544" style="fill: #808080; stroke: #808080"/>
     <use xlink:href="#m89de5d7909" x="303.853504" y="96.791258" style="fill: #808080; stroke: #808080"/>
     <use xlink:href="#m89de5d7909" x="316.729563" y="138.794215" style="fill: #808080; stroke: #808080"/>
     <use xlink:href="#m89de5d7909" x="318.997914" y="113.438354" style="fill: #808080; stroke: #808080"/>
     <use xlink:href="#m89de5d7909" x="319.311574" y="122.1939" style="fill: #808080; stroke: #808080"/>
     <use xlink:href="#m89de5d7909" x="320.327408" y="116.83478" style="fill: #808080; stroke: #808080"/>
     <use xlink:href="#m89de5d7909" x="322.986303" y="102.761353" style="fill: #808080; stroke: #808080"/>
     <use xlink:href="#m89de5d7909" x="324.767783" y="137.353505" style="fill: #808080; stroke: #808080"/>
     <use xlink:href="#m89de5d7909" x="329.500665" y="149.56429" style="fill: #808080; stroke: #808080"/>
     <use xlink:href="#m89de5d7909" x="333.679588" y="155.537099" style="fill: #808080; stroke: #808080"/>
     <use xlink:href="#m89de5d7909" x="334.922913" y="155.558948" style="fill: #808080; stroke: #808080"/>
     <use xlink:href="#m89de5d7909" x="335.39725" y="144.63945" style="fill: #808080; stroke: #808080"/>
     <use xlink:href="#m89de5d7909" x="345.720806" y="147.742585" style="fill: #808080; stroke: #808080"/>
     <use xlink:href="#m89de5d7909" x="354.698725" y="156.865809" style="fill: #808080; stroke: #808080"/>
     <use xlink:href="#m89de5d7909" x="364.05443" y="156.607112" style="fill: #808080; stroke: #808080"/>
     <use xlink:href="#m89de5d7909" x="364.556959" y="169.558931" style="fill: #808080; stroke: #808080"/>
     <use xlink:href="#m89de5d7909" x="366.695793" y="149.228288" style="fill: #808080; stroke: #808080"/>
     <use xlink:href="#m89de5d7909" x="373.21392" y="181.068875" style="fill: #808080; stroke: #808080"/>
     <use xlink:href="#m89de5d7909" x="373.461625" y="135.368889" style="fill: #808080; stroke: #808080"/>
     <use xlink:href="#m89de5d7909" x="374.449023" y="168.378847" style="fill: #808080; stroke: #808080"/>
     <use xlink:href="#m89de5d7909" x="384.190496" y="198.766928" style="fill: #808080; stroke: #808080"/>
     <use xlink:href="#m89de5d7909" x="386.354845" y="203.656569" style="fill: #808080; stroke: #808080"/>
     <use xlink:href="#m89de5d7909" x="390.565404" y="182.792757" style="fill: #808080; stroke: #808080"/>
     <use xlink:href="#m89de5d7909" x="390.69077" y="193.736924" style="fill: #808080; stroke: #808080"/>
     <use xlink:href="#m89de5d7909" x="391.093718" y="179.602671" style="fill: #808080; stroke: #808080"/>
     <use xlink:href="#m89de5d7909" x="392.287998" y="184.134907" style="fill: #808080; stroke: #808080"/>
     <use xlink:href="#m89de5d7909" x="396.44108" y="195.333075" style="fill: #808080; stroke: #808080"/>
     <use xlink:href="#m89de5d7909" x="403.479685" y="211.665527" style="fill: #808080; stroke: #808080"/>
     <use xlink:href="#m89de5d7909" x="404.089673" y="222.303403" style="fill: #808080; stroke: #808080"/>
     <use xlink:href="#m89de5d7909" x="405.929154" y="206.953464" style="fill: #808080; stroke: #808080"/>
     <use xlink:href="#m89de5d7909" x="406.043687" y="186.983085" style="fill: #808080; stroke: #808080"/>
     <use xlink:href="#m89de5d7909" x="408.964856" y="198.510067" style="fill: #808080; stroke: #808080"/>
     <use xlink:href="#m89de5d7909" x="414.454838" y="223.849223" style="fill: #808080; stroke: #808080"/>
     <use xlink:href="#m89de5d7909" x="415.986999" y="202.784622" style="fill: #808080; stroke: #808080"/>
     <use xlink:href="#m89de5d7909" x="428.665979" y="204.892581" style="fill: #808080; stroke: #808080"/>
     <use xlink:href="#m89de5d7909" x="429.936623" y="224.858566" style="fill: #808080; stroke: #808080"/>
     <use xlink:href="#m89de5d7909" x="432.121869" y="209.63374" style="fill: #808080; stroke: #808080"/>
     <use xlink:href="#m89de5d7909" x="438.635766" y="212.982455" style="fill: #808080; stroke: #808080"/>
     <use xlink:href="#m89de5d7909" x="440.846573" y="231.988808" style="fill: #808080; stroke: #808080"/>
     <use xlink:href="#m89de5d7909" x="441.784592" y="209.120329" style="fill: #808080; stroke: #808080"/>
     <use xlink:href="#m89de5d7909" x="447.052529" y="207.002142" style="fill: #808080; stroke: #808080"/>
     <use xlink:href="#m89de5d7909" x="447.77782" y="199.084765" style="fill: #808080; stroke: #808080"/>
     <use xlink:href="#m89de5d7909" x="452.969135" y="200.181192" style="fill: #808080; stroke: #808080"/>
     <use xlink:href="#m89de5d7909" x="456.204308" y="237.8238" style="fill: #808080; stroke: #808080"/>
     <use xlink:href="#m89de5d7909" x="460.257379" y="231.208147" style="fill: #808080; stroke: #808080"/>
     <use xlink:href="#m89de5d7909" x="464.138965" y="208.834698" style="fill: #808080; stroke: #808080"/>
     <use xlink:href="#m89de5d7909" x="464.895205" y="208.828176" style="fill: #808080; stroke: #808080"/>
     <use xlink:href="#m89de5d7909" x="471.064047" y="208.359256" style="fill: #808080; stroke: #808080"/>
     <use xlink:href="#m89de5d7909" x="472.698541" y="156.840927" style="fill: #808080; stroke: #808080"/>
     <use xlink:href="#m89de5d7909" x="472.833029" y="207.293056" style="fill: #808080; stroke: #808080"/>
     <use xlink:href="#m89de5d7909" x="479.853466" y="197.443694" style="fill: #808080; stroke: #808080"/>
    </g>
   </g>
   <g id="matplotlib.axis_1">
    <g id="xtick_1">
     <g id="line2d_1">
      <path d="M 71.751755 247.9038 
L 71.751755 26.1438 
" clip-path="url(#p439cdd3c86)" style="fill: none; stroke: #000000; stroke-opacity: 0.3; stroke-width: 0.5; stroke-linecap: square"/>
     </g>
     <g id="line2d_2">
      <defs>
       <path id="mbcfd85ff95" d="M 0 0 
L 0 3.5 
" style="stroke: #000000; stroke-width: 0.8"/>
      </defs>
      <g>
       <use xlink:href="#mbcfd85ff95" x="71.751755" y="247.9038" style="stroke: #000000; stroke-width: 0.8"/>
      </g>
     </g>
     <g id="text_1">
      <!-- 0 -->
      <g transform="translate(68.602536 262.394425) scale(0.1 -0.1)">
       <defs>
        <path id="IPAexGothic-30" d="M 2038 4725 
Q 2881 4725 3334 3944 
Q 3694 3325 3694 2344 
Q 3694 1372 3334 741 
Q 2888 -31 2016 -31 
Q 1147 -31 700 741 
Q 341 1372 341 2350 
Q 341 3713 1000 4334 
Q 1419 4725 2038 4725 
z
M 2016 4266 
Q 1516 4266 1228 3759 
Q 934 3247 934 2344 
Q 934 1456 1222 947 
Q 1513 447 2016 447 
Q 2619 447 2909 1153 
Q 3100 1622 3100 2375 
Q 3100 3256 2806 3759 
Q 2509 4266 2016 4266 
z
" transform="scale(0.015625)"/>
       </defs>
       <use xlink:href="#IPAexGothic-30"/>
      </g>
     </g>
    </g>
    <g id="xtick_2">
     <g id="line2d_3">
      <path d="M 154.456611 247.9038 
L 154.456611 26.1438 
" clip-path="url(#p439cdd3c86)" style="fill: none; stroke: #000000; stroke-opacity: 0.3; stroke-width: 0.5; stroke-linecap: square"/>
     </g>
     <g id="line2d_4">
      <g>
       <use xlink:href="#mbcfd85ff95" x="154.456611" y="247.9038" style="stroke: #000000; stroke-width: 0.8"/>
      </g>
     </g>
     <g id="text_2">
      <!-- 1 -->
      <g transform="translate(151.307392 262.394425) scale(0.1 -0.1)">
       <defs>
        <path id="IPAexGothic-31" d="M 2463 63 
L 1900 63 
L 1900 4103 
Q 1372 3922 788 3797 
L 684 4231 
Q 1519 4441 2106 4731 
L 2463 4731 
L 2463 63 
z
" transform="scale(0.015625)"/>
       </defs>
       <use xlink:href="#IPAexGothic-31"/>
      </g>
     </g>
    </g>
    <g id="xtick_3">
     <g id="line2d_5">
      <path d="M 237.161467 247.9038 
L 237.161467 26.1438 
" clip-path="url(#p439cdd3c86)" style="fill: none; stroke: #000000; stroke-opacity: 0.3; stroke-width: 0.5; stroke-linecap: square"/>
     </g>
     <g id="line2d_6">
      <g>
       <use xlink:href="#mbcfd85ff95" x="237.161467" y="247.9038" style="stroke: #000000; stroke-width: 0.8"/>
      </g>
     </g>
     <g id="text_3">
      <!-- 2 -->
      <g transform="translate(234.012248 262.394425) scale(0.1 -0.1)">
       <defs>
        <path id="IPAexGothic-32" d="M 3659 63 
L 447 63 
L 447 594 
Q 825 1475 1894 2203 
L 2072 2322 
Q 2619 2697 2791 2906 
Q 2988 3153 2988 3444 
Q 2988 3772 2756 4003 
Q 2500 4259 2084 4259 
Q 1250 4259 991 3328 
L 497 3506 
Q 853 4725 2116 4725 
Q 2806 4725 3216 4316 
Q 3575 3947 3575 3425 
Q 3575 3038 3344 2722 
Q 3131 2416 2366 1938 
L 2231 1856 
Q 1256 1253 978 569 
L 3659 569 
L 3659 63 
z
" transform="scale(0.015625)"/>
       </defs>
       <use xlink:href="#IPAexGothic-32"/>
      </g>
     </g>
    </g>
    <g id="xtick_4">
     <g id="line2d_7">
      <path d="M 319.866323 247.9038 
L 319.866323 26.1438 
" clip-path="url(#p439cdd3c86)" style="fill: none; stroke: #000000; stroke-opacity: 0.3; stroke-width: 0.5; stroke-linecap: square"/>
     </g>
     <g id="line2d_8">
      <g>
       <use xlink:href="#mbcfd85ff95" x="319.866323" y="247.9038" style="stroke: #000000; stroke-width: 0.8"/>
      </g>
     </g>
     <g id="text_4">
      <!-- 3 -->
      <g transform="translate(316.717105 262.394425) scale(0.1 -0.1)">
       <defs>
        <path id="IPAexGothic-33" d="M 2381 2419 
Q 3506 2216 3506 1278 
Q 3506 716 3128 356 
Q 2709 -31 1944 -31 
Q 797 -31 288 881 
L 756 1131 
Q 1109 441 1938 441 
Q 2425 441 2694 691 
Q 2950 928 2950 1291 
Q 2950 1719 2566 1978 
Q 2216 2213 1644 2213 
L 1363 2213 
L 1363 2669 
L 1656 2669 
Q 2231 2669 2534 2888 
Q 2859 3119 2859 3509 
Q 2859 3934 2494 4138 
Q 2259 4278 1931 4278 
Q 1238 4278 903 3578 
L 434 3803 
Q 897 4725 1938 4725 
Q 2597 4725 3006 4394 
Q 3416 4069 3416 3534 
Q 3416 3028 3019 2706 
Q 2763 2500 2381 2444 
L 2381 2419 
z
" transform="scale(0.015625)"/>
       </defs>
       <use xlink:href="#IPAexGothic-33"/>
      </g>
     </g>
    </g>
    <g id="xtick_5">
     <g id="line2d_9">
      <path d="M 402.57118 247.9038 
L 402.57118 26.1438 
" clip-path="url(#p439cdd3c86)" style="fill: none; stroke: #000000; stroke-opacity: 0.3; stroke-width: 0.5; stroke-linecap: square"/>
     </g>
     <g id="line2d_10">
      <g>
       <use xlink:href="#mbcfd85ff95" x="402.57118" y="247.9038" style="stroke: #000000; stroke-width: 0.8"/>
      </g>
     </g>
     <g id="text_5">
      <!-- 4 -->
      <g transform="translate(399.421961 262.394425) scale(0.1 -0.1)">
       <defs>
        <path id="IPAexGothic-34" d="M 3813 1159 
L 3059 1159 
L 3059 63 
L 2547 63 
L 2547 1159 
L 197 1159 
L 197 1672 
L 2456 4678 
L 3059 4678 
L 3059 1634 
L 3813 1634 
L 3813 1159 
z
M 2578 4109 
L 2559 4109 
Q 2278 3656 2003 3284 
L 759 1634 
L 2547 1634 
L 2547 3144 
Q 2547 3481 2578 4109 
z
" transform="scale(0.015625)"/>
       </defs>
       <use xlink:href="#IPAexGothic-34"/>
      </g>
     </g>
    </g>
    <g id="xtick_6">
     <g id="line2d_11">
      <path d="M 485.276036 247.9038 
L 485.276036 26.1438 
" clip-path="url(#p439cdd3c86)" style="fill: none; stroke: #000000; stroke-opacity: 0.3; stroke-width: 0.5; stroke-linecap: square"/>
     </g>
     <g id="line2d_12">
      <g>
       <use xlink:href="#mbcfd85ff95" x="485.276036" y="247.9038" style="stroke: #000000; stroke-width: 0.8"/>
      </g>
     </g>
     <g id="text_6">
      <!-- 5 -->
      <g transform="translate(482.126817 262.394425) scale(0.1 -0.1)">
       <defs>
        <path id="IPAexGothic-35" d="M 1178 2603 
Q 1634 2963 2172 2963 
Q 2816 2963 3241 2528 
Q 3638 2113 3638 1497 
Q 3638 938 3297 513 
Q 2869 -31 2031 -31 
Q 959 -31 469 784 
L 938 1028 
Q 1309 434 2013 434 
Q 2466 434 2769 716 
Q 3081 1013 3081 1503 
Q 3081 1966 2806 2241 
Q 2519 2528 2056 2528 
Q 1406 2528 1072 2028 
L 591 2091 
L 884 4634 
L 3406 4634 
L 3406 4153 
L 1341 4153 
L 1134 2603 
L 1178 2603 
z
" transform="scale(0.015625)"/>
       </defs>
       <use xlink:href="#IPAexGothic-35"/>
      </g>
     </g>
    </g>
    <g id="text_7">
     <!-- x -->
     <g transform="translate(273.425375 279.080925) scale(0.144 -0.144)">
      <defs>
       <path id="IPAexGothic-78" d="M 3050 63 
L 2419 63 
L 1547 1338 
L 691 63 
L 56 63 
L 1247 1675 
L 106 3250 
L 747 3250 
L 1578 2016 
L 2413 3250 
L 3019 3250 
L 1875 1681 
L 3050 63 
z
" transform="scale(0.015625)"/>
      </defs>
      <use xlink:href="#IPAexGothic-78"/>
     </g>
    </g>
   </g>
   <g id="matplotlib.axis_2">
    <g id="ytick_1">
     <g id="line2d_13">
      <path d="M 53.744375 216.794524 
L 500.144375 216.794524 
" clip-path="url(#p439cdd3c86)" style="fill: none; stroke: #000000; stroke-opacity: 0.3; stroke-width: 0.5; stroke-linecap: square"/>
     </g>
     <g id="line2d_14">
      <defs>
       <path id="m7aac29fc34" d="M 0 0 
L -3.5 0 
" style="stroke: #000000; stroke-width: 0.8"/>
      </defs>
      <g>
       <use xlink:href="#m7aac29fc34" x="53.744375" y="216.794524" style="stroke: #000000; stroke-width: 0.8"/>
      </g>
     </g>
     <g id="text_8">
      <!-- −1.0 -->
      <g transform="translate(24.7225 220.539836) scale(0.1 -0.1)">
       <defs>
        <path id="IPAexGothic-2212" d="M 416 2222 
L 3922 2222 
L 3922 1856 
L 416 1856 
L 416 2222 
z
" transform="scale(0.015625)"/>
        <path id="IPAexGothic-2e" d="M 1184 63 
L 494 63 
L 494 753 
L 1184 753 
L 1184 63 
z
" transform="scale(0.015625)"/>
       </defs>
       <use xlink:href="#IPAexGothic-2212"/>
       <use xlink:href="#IPAexGothic-31" transform="translate(67.822266 0)"/>
       <use xlink:href="#IPAexGothic-2e" transform="translate(130.810547 0)"/>
       <use xlink:href="#IPAexGothic-30" transform="translate(157.226562 0)"/>
      </g>
     </g>
    </g>
    <g id="ytick_2">
     <g id="line2d_15">
      <path d="M 53.744375 178.348782 
L 500.144375 178.348782 
" clip-path="url(#p439cdd3c86)" style="fill: none; stroke: #000000; stroke-opacity: 0.3; stroke-width: 0.5; stroke-linecap: square"/>
     </g>
     <g id="line2d_16">
      <g>
       <use xlink:href="#m7aac29fc34" x="53.744375" y="178.348782" style="stroke: #000000; stroke-width: 0.8"/>
      </g>
     </g>
     <g id="text_9">
      <!-- −0.5 -->
      <g transform="translate(24.7225 182.094095) scale(0.1 -0.1)">
       <use xlink:href="#IPAexGothic-2212"/>
       <use xlink:href="#IPAexGothic-30" transform="translate(67.822266 0)"/>
       <use xlink:href="#IPAexGothic-2e" transform="translate(130.810547 0)"/>
       <use xlink:href="#IPAexGothic-35" transform="translate(157.226562 0)"/>
      </g>
     </g>
    </g>
    <g id="ytick_3">
     <g id="line2d_17">
      <path d="M 53.744375 139.90304 
L 500.144375 139.90304 
" clip-path="url(#p439cdd3c86)" style="fill: none; stroke: #000000; stroke-opacity: 0.3; stroke-width: 0.5; stroke-linecap: square"/>
     </g>
     <g id="line2d_18">
      <g>
       <use xlink:href="#m7aac29fc34" x="53.744375" y="139.90304" style="stroke: #000000; stroke-width: 0.8"/>
      </g>
     </g>
     <g id="text_10">
      <!-- 0.0 -->
      <g transform="translate(31.505313 143.648353) scale(0.1 -0.1)">
       <use xlink:href="#IPAexGothic-30"/>
       <use xlink:href="#IPAexGothic-2e" transform="translate(62.988281 0)"/>
       <use xlink:href="#IPAexGothic-30" transform="translate(89.404297 0)"/>
      </g>
     </g>
    </g>
    <g id="ytick_4">
     <g id="line2d_19">
      <path d="M 53.744375 101.457299 
L 500.144375 101.457299 
" clip-path="url(#p439cdd3c86)" style="fill: none; stroke: #000000; stroke-opacity: 0.3; stroke-width: 0.5; stroke-linecap: square"/>
     </g>
     <g id="line2d_20">
      <g>
       <use xlink:href="#m7aac29fc34" x="53.744375" y="101.457299" style="stroke: #000000; stroke-width: 0.8"/>
      </g>
     </g>
     <g id="text_11">
      <!-- 0.5 -->
      <g transform="translate(31.505313 105.202611) scale(0.1 -0.1)">
       <use xlink:href="#IPAexGothic-30"/>
       <use xlink:href="#IPAexGothic-2e" transform="translate(62.988281 0)"/>
       <use xlink:href="#IPAexGothic-35" transform="translate(89.404297 0)"/>
      </g>
     </g>
    </g>
    <g id="ytick_5">
     <g id="line2d_21">
      <path d="M 53.744375 63.011557 
L 500.144375 63.011557 
" clip-path="url(#p439cdd3c86)" style="fill: none; stroke: #000000; stroke-opacity: 0.3; stroke-width: 0.5; stroke-linecap: square"/>
     </g>
     <g id="line2d_22">
      <g>
       <use xlink:href="#m7aac29fc34" x="53.744375" y="63.011557" style="stroke: #000000; stroke-width: 0.8"/>
      </g>
     </g>
     <g id="text_12">
      <!-- 1.0 -->
      <g transform="translate(31.505313 66.75687) scale(0.1 -0.1)">
       <use xlink:href="#IPAexGothic-31"/>
       <use xlink:href="#IPAexGothic-2e" transform="translate(62.988281 0)"/>
       <use xlink:href="#IPAexGothic-30" transform="translate(89.404297 0)"/>
      </g>
     </g>
    </g>
    <g id="text_13">
     <!-- y -->
     <g transform="translate(17.9865 140.56755) rotate(-90) scale(0.144 -0.144)">
      <defs>
       <path id="IPAexGothic-79" d="M 3122 3250 
L 1575 -488 
Q 1278 -1203 550 -1203 
L 478 -1203 
L 344 -703 
L 447 -703 
Q 969 -703 1150 -238 
L 1356 275 
L 38 3250 
L 659 3250 
L 1363 1459 
Q 1528 1025 1606 781 
L 1625 781 
Q 1750 1169 1863 1459 
L 2528 3250 
L 3122 3250 
z
" transform="scale(0.015625)"/>
      </defs>
      <use xlink:href="#IPAexGothic-79"/>
     </g>
    </g>
   </g>
   <g id="line2d_23">
    <path d="M 74.035284 137.780291 
L 80.263943 132.003144 
L 82.263181 130.156757 
L 84.748486 127.869528 
L 85.972243 126.747167 
L 90.454337 122.662892 
L 90.960128 122.204951 
L 95.770739 117.884949 
L 98.034676 115.876786 
L 98.652168 115.332118 
L 102.371016 112.081889 
L 102.580256 111.900626 
L 103.584816 111.0329 
L 108.345553 106.980711 
L 112.141545 103.827192 
L 116.367479 100.406169 
L 119.666424 97.806784 
L 121.206879 96.615681 
L 122.217528 95.842364 
L 129.435853 90.517175 
L 130.027343 90.096949 
L 136.259277 85.82834 
L 136.269251 85.821748 
L 138.420672 84.41837 
L 142.26762 82.003185 
L 146.940793 79.238251 
L 147.593973 78.86702 
L 148.19356 78.529598 
L 148.903004 78.134521 
L 152.795427 76.048536 
L 153.925514 75.469203 
L 154.321712 75.268937 
L 159.559133 72.762694 
L 166.365352 69.909276 
L 174.840145 67.020464 
L 178.763561 65.940469 
L 183.961168 64.766345 
L 187.924996 64.070111 
L 191.571016 63.58344 
L 192.182076 63.516364 
L 192.56066 63.476899 
L 197.563309 63.106064 
L 197.716945 63.099116 
L 200.350496 63.021258 
L 200.651853 63.017318 
L 201.745586 63.011594 
L 206.222954 63.128335 
L 206.283746 63.13147 
L 208.586123 63.280699 
L 219.277918 64.748735 
L 219.986037 64.890638 
L 223.251273 65.615942 
L 226.633188 66.489204 
L 232.479252 68.287267 
L 241.455058 71.740435 
L 248.550347 75.04007 
L 250.371508 75.964989 
L 253.765498 77.771073 
L 260.347767 81.569103 
L 267.024092 85.798533 
L 275.948224 91.997086 
L 276.519431 92.413615 
L 282.058084 96.56689 
L 284.400181 98.382717 
L 286.812509 100.287786 
L 287.914472 101.169343 
L 288.751281 101.843382 
L 294.782868 106.812724 
L 296.169762 107.981222 
L 297.82973 109.391565 
L 303.853504 114.608484 
L 316.729563 126.173519 
L 318.997914 128.253438 
L 319.311574 128.541767 
L 320.327408 129.476665 
L 322.986303 131.930799 
L 324.767783 133.579853 
L 329.500665 137.973112 
L 333.679588 141.857883 
L 334.922913 143.013175 
L 335.39725 143.453757 
L 345.720806 152.988921 
L 354.698725 161.120842 
L 364.05443 169.327781 
L 364.556959 169.758878 
L 366.695793 171.581166 
L 373.21392 176.998904 
L 373.461625 177.200458 
L 374.449023 178.000545 
L 384.190496 185.585304 
L 386.354845 187.188066 
L 390.565404 190.212361 
L 390.69077 190.300447 
L 391.093718 190.582783 
L 392.287998 191.412495 
L 396.44108 194.21309 
L 403.479685 198.643282 
L 404.089673 199.007633 
L 405.929154 200.086824 
L 406.043687 200.15304 
L 408.964856 201.802465 
L 414.454838 204.691882 
L 415.986999 205.44785 
L 428.665979 210.818106 
L 429.936623 211.266344 
L 432.121869 211.99777 
L 438.635766 213.877605 
L 440.846573 214.411871 
L 441.784592 214.622489 
L 447.052529 215.626053 
L 447.77782 215.740248 
L 452.969135 216.386873 
L 456.204308 216.637592 
L 460.257379 216.785995 
L 464.138965 216.755064 
L 464.895205 216.729329 
L 471.064047 216.279812 
L 472.698541 216.089375 
L 472.833029 216.07238 
L 479.853466 214.906759 
" clip-path="url(#p439cdd3c86)" style="fill: none; stroke: #264653; stroke-width: 2; stroke-linecap: square"/>
   </g>
   <g id="line2d_24">
    <path d="M 74.035284 143.045327 
L 85.360365 143.045327 
L 85.360365 122.111989 
L 105.965185 122.111989 
L 105.965185 77.177116 
L 288.332877 77.177116 
L 288.332877 115.027702 
L 327.134224 115.027702 
L 327.134224 150.608474 
L 350.209766 150.608474 
L 350.209766 159.582393 
L 379.31976 159.582393 
L 379.31976 191.146261 
L 399.960382 191.146261 
L 399.960382 208.726072 
L 479.853466 208.726072 
L 479.853466 208.726072 
" clip-path="url(#p439cdd3c86)" style="fill: none; stroke: #2a9d8f; stroke-width: 2; stroke-linecap: square"/>
   </g>
   <g id="text_14">
    <!-- 回帰木は区分的定数で予測する（直感） -->
    <g transform="translate(121.424375 20.1438) scale(0.1728 -0.1728)">
     <defs>
      <path id="IPAexGothic-56de" d="M 4519 3647 
L 4519 1178 
L 1875 1178 
L 1875 3647 
L 4519 3647 
z
M 2328 3250 
L 2328 1575 
L 4066 1575 
L 4066 3250 
L 2328 3250 
z
M 5722 4891 
L 5722 -456 
L 5247 -456 
L 5247 -103 
L 1147 -103 
L 1147 -456 
L 672 -456 
L 672 4891 
L 5722 4891 
z
M 1147 4475 
L 1147 313 
L 5247 313 
L 5247 4475 
L 1147 4475 
z
" transform="scale(0.015625)"/>
      <path id="IPAexGothic-5e30" d="M 5472 5044 
L 5472 3109 
L 2541 3109 
L 2541 3481 
L 5031 3481 
L 5031 3909 
L 2700 3909 
L 2700 4269 
L 5031 4269 
L 5031 4672 
L 2559 4672 
L 2559 5044 
L 5472 5044 
z
M 6022 2675 
L 6022 1631 
L 5594 1631 
L 5594 2297 
L 4244 2297 
L 4244 1784 
L 5503 1784 
L 5503 384 
Q 5503 -19 5056 -19 
Q 4809 -19 4488 13 
L 4441 428 
Q 4719 378 4928 378 
Q 5088 378 5088 544 
L 5088 1419 
L 4244 1419 
L 4244 -447 
L 3816 -447 
L 3816 1419 
L 3091 1419 
L 3091 -97 
L 2675 -97 
L 2675 1784 
L 3816 1784 
L 3816 2297 
L 2584 2297 
L 2584 1631 
L 2156 1631 
L 2156 2675 
L 6022 2675 
z
M 634 4441 
L 1063 4441 
L 1063 1869 
L 634 1869 
L 634 4441 
z
M 1484 5209 
L 1931 5209 
L 1931 3109 
Q 1931 1747 1722 1019 
Q 1463 153 819 -513 
L 506 -122 
Q 1072 388 1313 1216 
Q 1484 1841 1484 2975 
L 1484 5209 
z
" transform="scale(0.015625)"/>
      <path id="IPAexGothic-6728" d="M 3547 3328 
Q 4384 1728 6088 838 
L 5728 353 
Q 4134 1459 3425 2797 
L 3425 -384 
L 2931 -384 
L 2931 2731 
Q 2272 1253 731 191 
L 372 594 
Q 2013 1584 2803 3328 
L 481 3328 
L 481 3769 
L 2931 3769 
L 2931 5150 
L 3425 5150 
L 3425 3769 
L 5922 3769 
L 5922 3328 
L 3547 3328 
z
" transform="scale(0.015625)"/>
      <path id="IPAexGothic-306f" d="M 4066 4875 
L 4538 4875 
L 4556 3769 
Q 5003 3816 5581 3941 
L 5619 3469 
Q 5256 3394 4563 3322 
L 4597 1441 
Q 5100 1284 5934 756 
L 5656 313 
Q 5066 772 4609 978 
Q 4609 441 4384 225 
Q 4128 -13 3634 -13 
Q 2991 -13 2669 231 
Q 2388 444 2388 831 
Q 2388 1225 2772 1484 
Q 3050 1669 3534 1669 
Q 3759 1669 4134 1594 
L 4097 3288 
Q 3697 3269 3359 3269 
Q 2925 3269 2484 3300 
L 2466 3763 
Q 2953 3716 3456 3716 
Q 3738 3716 4091 3738 
L 4066 4875 
z
M 4141 1153 
Q 3753 1259 3513 1259 
Q 2841 1259 2841 850 
Q 2841 422 3634 422 
Q 3888 422 4022 569 
Q 4141 700 4141 922 
Q 4141 1088 4141 1153 
z
M 1000 -50 
Q 794 1072 794 1931 
Q 794 3153 1247 4884 
L 1728 4763 
Q 1269 3044 1269 1900 
Q 1269 1569 1306 1106 
Q 1591 1706 1753 1997 
L 2075 1806 
Q 1484 716 1484 141 
Q 1484 72 1491 0 
L 1000 -50 
z
" transform="scale(0.015625)"/>
      <path id="IPAexGothic-533a" d="M 1294 4391 
L 1294 403 
L 5838 403 
L 5838 -25 
L 1294 -25 
L 1294 -447 
L 806 -447 
L 806 4819 
L 5678 4819 
L 5678 4391 
L 1294 4391 
z
M 3278 2375 
Q 2669 2909 1819 3500 
L 2125 3794 
Q 2881 3281 3547 2725 
Q 3959 3319 4306 4172 
L 4744 4000 
Q 4322 3038 3891 2431 
Q 4438 1959 5203 1216 
L 4850 856 
Q 4206 1534 3616 2075 
Q 2963 1284 1856 659 
L 1534 1013 
Q 2569 1553 3278 2375 
z
" transform="scale(0.015625)"/>
      <path id="IPAexGothic-5206" d="M 3031 2431 
Q 2916 1378 2528 759 
Q 1991 -81 941 -469 
L 625 -53 
Q 2356 488 2541 2431 
L 1375 2431 
L 1375 2772 
Q 1044 2431 653 2156 
L 313 2534 
Q 1600 3425 2219 5056 
L 2688 4875 
Q 2200 3672 1453 2847 
L 4966 2847 
Q 4878 559 4741 94 
Q 4666 -163 4459 -250 
Q 4288 -322 3941 -322 
Q 3525 -322 2981 -263 
L 2884 256 
Q 3441 138 3844 138 
Q 4213 138 4281 438 
Q 4388 931 4472 2431 
L 3031 2431 
z
M 5747 2303 
Q 4416 3238 3506 4934 
L 3934 5113 
Q 4747 3572 6084 2747 
L 5747 2303 
z
" transform="scale(0.015625)"/>
      <path id="IPAexGothic-7684" d="M 5925 4141 
Q 5859 888 5656 91 
Q 5581 -219 5350 -325 
Q 5178 -397 4856 -397 
Q 4428 -397 4044 -353 
L 3953 134 
Q 4444 56 4838 56 
Q 5128 56 5203 234 
Q 5400 706 5459 3438 
L 5466 3719 
L 3838 3719 
Q 3550 3031 3116 2503 
L 2809 2856 
Q 3469 3659 3788 5172 
L 4250 5050 
Q 4144 4559 4000 4141 
L 5925 4141 
z
M 1316 4244 
L 1394 4475 
Q 1500 4806 1566 5209 
L 2053 5141 
Q 1872 4525 1753 4244 
L 2756 4244 
L 2756 366 
L 1022 366 
L 1022 -91 
L 581 -91 
L 581 4244 
L 1316 4244 
z
M 1022 3847 
L 1022 2553 
L 2316 2553 
L 2316 3847 
L 1022 3847 
z
M 1022 2169 
L 1022 763 
L 2316 763 
L 2316 2169 
L 1022 2169 
z
M 4384 1288 
Q 3975 2069 3531 2578 
L 3859 2834 
Q 4375 2259 4753 1569 
L 4384 1288 
z
" transform="scale(0.015625)"/>
      <path id="IPAexGothic-5b9a" d="M 3431 303 
Q 3931 225 4709 225 
Q 5191 225 6053 263 
Q 5963 59 5888 -228 
Q 5234 -250 4844 -250 
Q 3569 -250 3003 -78 
Q 2259 153 1750 903 
Q 1441 163 806 -459 
L 475 -75 
Q 1416 759 1684 2419 
L 2125 2303 
Q 2031 1756 1909 1356 
Q 2338 678 2972 416 
L 2972 2944 
L 1434 2944 
L 1434 3353 
L 4959 3353 
L 4959 2944 
L 3431 2944 
L 3431 1984 
L 5397 1984 
L 5397 1569 
L 3431 1569 
L 3431 303 
z
M 3419 4428 
L 5750 4428 
L 5750 3166 
L 5275 3166 
L 5275 4025 
L 1122 4025 
L 1122 3166 
L 647 3166 
L 647 4428 
L 2938 4428 
L 2938 5313 
L 3419 5313 
L 3419 4428 
z
" transform="scale(0.015625)"/>
      <path id="IPAexGothic-6570" d="M 2847 1553 
Q 2741 1006 2425 534 
Q 2625 441 3091 203 
L 2809 -188 
Q 2541 0 2144 209 
Q 1569 -291 703 -500 
L 422 -125 
Q 1263 19 1747 406 
Q 1222 650 734 816 
Q 975 1172 1147 1503 
L 1172 1553 
L 359 1553 
L 359 1925 
L 1344 1925 
Q 1406 2066 1569 2475 
L 1691 2450 
L 1691 3372 
Q 1250 2738 550 2303 
L 275 2663 
Q 1019 3013 1528 3641 
L 378 3641 
L 378 4006 
L 1691 4006 
L 1691 5313 
L 2113 5313 
L 2113 4006 
L 3297 4006 
L 3297 3641 
L 2113 3641 
L 2113 3513 
Q 2659 3291 3175 2963 
L 2956 2584 
Q 2553 2922 2113 3159 
L 2113 2372 
L 1966 2372 
Q 1928 2288 1872 2141 
Q 1806 1975 1784 1925 
L 3378 1925 
L 3378 1553 
L 2847 1553 
z
M 2419 1553 
L 1613 1553 
Q 1478 1269 1313 997 
Q 1559 909 2047 703 
Q 2313 1047 2419 1553 
z
M 4363 1163 
Q 3953 1781 3738 2638 
Q 3575 2281 3428 2016 
L 3103 2406 
Q 3675 3444 3916 5291 
L 4363 5200 
Q 4284 4666 4197 4197 
L 6009 4197 
L 6009 3775 
L 5503 3775 
Q 5397 2275 4869 1191 
Q 5419 503 6144 75 
L 5822 -378 
Q 5188 106 4631 788 
Q 4113 34 3341 -463 
L 3031 -78 
Q 3888 406 4363 1163 
z
M 4588 1594 
Q 4938 2388 5059 3775 
L 4100 3775 
Q 4041 3519 3972 3288 
Q 3981 3250 3991 3194 
Q 4175 2256 4588 1594 
z
M 1003 4116 
Q 878 4544 638 4934 
L 1053 5094 
Q 1247 4788 1438 4269 
L 1003 4116 
z
M 2316 4269 
Q 2550 4688 2688 5131 
L 3128 4997 
Q 2966 4588 2675 4128 
L 2316 4269 
z
" transform="scale(0.015625)"/>
      <path id="IPAexGothic-3067" d="M 581 4034 
Q 2978 4363 5466 4556 
L 5509 4097 
Q 4388 4031 3750 3572 
Q 2797 2878 2797 1913 
Q 2797 1169 3291 819 
Q 3778 484 4869 416 
L 4906 -116 
Q 2278 0 2278 1850 
Q 2278 3125 3691 4000 
Q 2066 3784 684 3553 
L 581 4034 
z
M 5631 2522 
Q 5269 3063 4875 3391 
L 5175 3622 
Q 5559 3313 5950 2797 
L 5631 2522 
z
M 5034 2053 
Q 4747 2544 4300 2944 
L 4613 3184 
Q 4984 2878 5369 2328 
L 5034 2053 
z
" transform="scale(0.015625)"/>
      <path id="IPAexGothic-4e88" d="M 3541 3491 
Q 3644 3419 3816 3300 
Q 3944 3213 3997 3175 
L 3663 2894 
L 5603 2894 
L 5872 2625 
Q 5181 1709 4463 1069 
L 4066 1378 
Q 4722 1878 5153 2466 
L 3509 2466 
L 3509 147 
Q 3509 -150 3388 -263 
Q 3266 -384 2822 -384 
Q 2341 -384 1863 -331 
L 1766 172 
Q 2416 84 2766 84 
Q 3022 84 3022 334 
L 3022 2466 
L 513 2466 
L 513 2894 
L 3553 2894 
Q 2809 3488 1947 3963 
L 2247 4291 
Q 2741 4009 3181 3725 
Q 3941 4191 4400 4591 
L 1159 4591 
L 1159 5006 
L 4975 5006 
L 5250 4725 
Q 4428 4044 3541 3491 
z
" transform="scale(0.015625)"/>
      <path id="IPAexGothic-6e2c" d="M 3856 4884 
L 3856 1081 
L 2059 1081 
L 2059 4884 
L 3856 4884 
z
M 2456 4494 
L 2456 3756 
L 3459 3756 
L 3459 4494 
L 2456 4494 
z
M 2456 3384 
L 2456 2656 
L 3459 2656 
L 3459 3384 
L 2456 3384 
z
M 2456 2284 
L 2456 1478 
L 3459 1478 
L 3459 2284 
L 2456 2284 
z
M 1413 3891 
Q 1000 4428 556 4763 
L 856 5100 
Q 1309 4753 1734 4269 
L 1413 3891 
z
M 1222 2394 
Q 816 2878 325 3256 
L 625 3591 
Q 1141 3231 1528 2778 
L 1222 2394 
z
M 375 -78 
Q 916 800 1297 1906 
L 1669 1619 
Q 1284 478 759 -428 
L 375 -78 
z
M 3819 -256 
Q 3478 319 3128 716 
L 3469 966 
Q 3834 581 4172 63 
L 3819 -256 
z
M 4378 4513 
L 4806 4513 
L 4806 959 
L 4378 959 
L 4378 4513 
z
M 1638 -109 
Q 2103 300 2450 984 
L 2828 763 
Q 2425 -6 1944 -488 
L 1638 -109 
z
M 5419 5081 
L 5853 5081 
L 5853 109 
Q 5853 -391 5297 -391 
Q 4919 -391 4541 -359 
L 4441 109 
Q 4928 50 5219 50 
Q 5419 50 5419 244 
L 5419 5081 
z
" transform="scale(0.015625)"/>
      <path id="IPAexGothic-3059" d="M 3322 5075 
L 3816 5075 
L 3816 4063 
Q 4131 4075 5756 4116 
L 5756 3669 
Q 5431 3672 3816 3653 
L 3816 2463 
Q 3956 2125 3956 1741 
Q 3956 922 3519 397 
Q 3128 -72 2309 -409 
L 1941 -31 
Q 3263 453 3488 1363 
Q 3250 1031 2809 1031 
Q 2441 1031 2150 1313 
Q 1875 1588 1875 2050 
Q 1875 2475 2166 2769 
Q 2431 3041 2822 3041 
Q 3088 3041 3322 2881 
L 3322 3641 
Q 3000 3634 609 3547 
L 609 3988 
Q 1197 4000 2106 4022 
Q 3066 4047 3322 4050 
L 3322 5075 
z
M 3372 2044 
Q 3372 2300 3194 2478 
Q 3050 2613 2869 2613 
Q 2622 2613 2463 2406 
Q 2344 2250 2344 2088 
Q 2344 1797 2484 1622 
Q 2625 1453 2859 1453 
Q 3372 1453 3372 2044 
z
" transform="scale(0.015625)"/>
      <path id="IPAexGothic-308b" d="M 4391 4397 
L 2613 2588 
Q 3225 2809 3759 2809 
Q 4263 2809 4659 2625 
Q 5391 2269 5391 1484 
Q 5391 756 4706 275 
Q 4072 -166 3053 -166 
Q 2559 -166 2247 19 
Q 1863 250 1863 666 
Q 1863 934 2069 1141 
Q 2331 1403 2741 1403 
Q 3509 1403 4019 428 
Q 4872 784 4872 1491 
Q 4872 1981 4469 2222 
Q 4166 2406 3681 2406 
Q 2425 2406 1238 1209 
L 891 1581 
Q 2438 2934 3578 4281 
Q 2594 4125 1588 4066 
L 1478 4550 
Q 2594 4581 4109 4763 
L 4391 4397 
z
M 3591 303 
Q 3244 1025 2731 1025 
Q 2553 1025 2434 934 
Q 2316 844 2316 700 
Q 2316 250 3034 250 
Q 3275 250 3591 303 
z
" transform="scale(0.015625)"/>
      <path id="IPAexGothic-ff08" d="M 5419 -434 
Q 4197 769 4197 2438 
Q 4197 4097 5419 5300 
L 5919 5300 
Q 4678 4078 4678 2425 
Q 4678 788 5919 -434 
L 5419 -434 
z
" transform="scale(0.015625)"/>
      <path id="IPAexGothic-76f4" d="M 3297 3688 
L 5222 3688 
L 5222 684 
L 1984 684 
L 1984 3688 
L 2847 3688 
Q 2859 3741 2913 4044 
L 2931 4153 
L 647 4153 
L 647 4538 
L 2994 4538 
L 3009 4609 
Q 3056 4944 3103 5338 
L 3584 5288 
Q 3556 5047 3469 4538 
L 5881 4538 
L 5881 4153 
L 3400 4153 
Q 3328 3819 3297 3688 
z
M 4781 3316 
L 2425 3316 
L 2425 2809 
L 4781 2809 
L 4781 3316 
z
M 2425 2450 
L 2425 1953 
L 4781 1953 
L 4781 2450 
L 2425 2450 
z
M 2425 1594 
L 2425 1056 
L 4781 1056 
L 4781 1594 
L 2425 1594 
z
M 1331 244 
L 6081 244 
L 6081 -153 
L 1331 -153 
L 1331 -447 
L 878 -447 
L 878 3213 
L 1331 3213 
L 1331 244 
z
" transform="scale(0.015625)"/>
      <path id="IPAexGothic-611f" d="M 3575 4525 
Q 3519 4872 3478 5313 
L 3928 5313 
Q 3959 4891 4009 4538 
L 4869 4538 
Q 4697 4850 4453 5106 
L 4803 5294 
Q 5081 5025 5266 4703 
L 4956 4538 
L 5931 4538 
L 5931 4166 
L 4075 4166 
Q 4216 3400 4528 2872 
Q 4794 3322 5003 3934 
L 5394 3750 
Q 5153 3072 4784 2491 
Q 4809 2450 4828 2425 
Q 5203 1944 5394 1944 
Q 5534 1944 5609 2766 
L 6013 2481 
Q 5841 1400 5534 1400 
Q 5166 1400 4516 2119 
Q 4141 1647 3672 1294 
L 3350 1613 
Q 3850 1941 4253 2463 
Q 3859 3078 3641 4153 
L 1297 4153 
L 1297 3494 
Q 1297 2631 1169 2100 
Q 1056 1622 747 1209 
L 409 1547 
Q 744 1978 813 2631 
Q 844 2972 844 3403 
L 844 4525 
L 3575 4525 
z
M 3372 3097 
L 3372 1884 
L 2034 1884 
L 2034 1597 
L 1638 1597 
L 1638 3097 
L 3372 3097 
z
M 2034 2772 
L 2034 2209 
L 2975 2209 
L 2975 2772 
L 2034 2772 
z
M 1509 3775 
L 3525 3775 
L 3525 3428 
L 1509 3428 
L 1509 3775 
z
M 409 -25 
Q 909 466 1159 1131 
L 1581 991 
Q 1297 188 794 -347 
L 409 -25 
z
M 2009 1281 
L 2478 1281 
L 2478 359 
Q 2478 156 2606 106 
Q 2741 63 3334 63 
Q 4156 63 4278 172 
Q 4369 266 4378 738 
L 4822 603 
Q 4813 -38 4622 -200 
Q 4434 -359 3303 -359 
Q 2431 -359 2241 -269 
Q 2009 -163 2009 147 
L 2009 1281 
z
M 5734 -147 
Q 5250 569 4684 1056 
L 5044 1306 
Q 5650 813 6138 159 
L 5734 -147 
z
M 3444 481 
Q 3131 913 2713 1294 
L 3059 1563 
Q 3513 1188 3822 781 
L 3444 481 
z
" transform="scale(0.015625)"/>
      <path id="IPAexGothic-ff09" d="M 481 -434 
Q 1722 788 1722 2431 
Q 1722 4066 481 5300 
L 981 5300 
Q 2203 4097 2203 2431 
Q 2203 769 981 -434 
L 481 -434 
z
" transform="scale(0.015625)"/>
     </defs>
     <use xlink:href="#IPAexGothic-56de"/>
     <use xlink:href="#IPAexGothic-5e30" transform="translate(100 0)"/>
     <use xlink:href="#IPAexGothic-6728" transform="translate(200 0)"/>
     <use xlink:href="#IPAexGothic-306f" transform="translate(300 0)"/>
     <use xlink:href="#IPAexGothic-533a" transform="translate(400 0)"/>
     <use xlink:href="#IPAexGothic-5206" transform="translate(500 0)"/>
     <use xlink:href="#IPAexGothic-7684" transform="translate(600 0)"/>
     <use xlink:href="#IPAexGothic-5b9a" transform="translate(700 0)"/>
     <use xlink:href="#IPAexGothic-6570" transform="translate(800 0)"/>
     <use xlink:href="#IPAexGothic-3067" transform="translate(900 0)"/>
     <use xlink:href="#IPAexGothic-4e88" transform="translate(1000 0)"/>
     <use xlink:href="#IPAexGothic-6e2c" transform="translate(1100 0)"/>
     <use xlink:href="#IPAexGothic-3059" transform="translate(1200 0)"/>
     <use xlink:href="#IPAexGothic-308b" transform="translate(1300 0)"/>
     <use xlink:href="#IPAexGothic-ff08" transform="translate(1400 0)"/>
     <use xlink:href="#IPAexGothic-76f4" transform="translate(1500 0)"/>
     <use xlink:href="#IPAexGothic-611f" transform="translate(1600 0)"/>
     <use xlink:href="#IPAexGothic-ff09" transform="translate(1700 0)"/>
    </g>
   </g>
   <g id="legend_1">
    <g id="patch_3">
     <path d="M 68.144375 235.9038 
L 238.544375 235.9038 
Q 240.944375 235.9038 240.944375 233.5038 
L 240.944375 173.209425 
Q 240.944375 170.809425 238.544375 170.809425 
L 68.144375 170.809425 
Q 65.744375 170.809425 65.744375 173.209425 
L 65.744375 233.5038 
Q 65.744375 235.9038 68.144375 235.9038 
z
" style="fill: #ffffff; opacity: 0.8; stroke: #cccccc; stroke-linejoin: miter"/>
    </g>
    <g id="PathCollection_2">
     <defs>
      <path id="md306c03ac1" d="M 0 3.872983 
C 1.027127 3.872983 2.012324 3.464901 2.738613 2.738613 
C 3.464901 2.012324 3.872983 1.027127 3.872983 0 
C 3.872983 -1.027127 3.464901 -2.012324 2.738613 -2.738613 
C 2.012324 -3.464901 1.027127 -3.872983 0 -3.872983 
C -1.027127 -3.872983 -2.012324 -3.464901 -2.738613 -2.738613 
C -3.464901 -2.012324 -3.872983 -1.027127 -3.872983 0 
C -3.872983 1.027127 -3.464901 2.012324 -2.738613 2.738613 
C -2.012324 3.464901 -1.027127 3.872983 0 3.872983 
z
" style="stroke: #808080"/>
     </defs>
     <g>
      <use xlink:href="#md306c03ac1" x="82.544375" y="181.5363" style="fill: #808080; stroke: #808080"/>
     </g>
    </g>
    <g id="text_15">
     <!-- 観測データ -->
     <g transform="translate(104.144375 184.6863) scale(0.12 -0.12)">
      <defs>
       <path id="IPAexGothic-89b3" d="M 1919 4369 
Q 1841 4025 1747 3725 
L 3150 3725 
L 3150 3372 
L 1619 3372 
Q 1459 2959 1294 2675 
L 1825 2675 
Q 1950 2972 2016 3250 
L 2406 3141 
Q 2294 2831 2203 2675 
L 3078 2675 
L 3078 2344 
L 2209 2344 
L 2209 1925 
L 2944 1925 
L 2944 1613 
L 2209 1613 
L 2209 1191 
L 2944 1191 
L 2944 878 
L 2209 878 
L 2209 422 
L 3109 422 
L 3109 91 
L 1191 91 
L 1191 -288 
L 806 -288 
L 806 1944 
Q 606 1666 441 1503 
L 213 1856 
Q 816 2478 1209 3372 
L 353 3372 
L 353 3725 
L 1350 3725 
Q 1453 4019 1538 4369 
L 1094 4369 
Q 916 4025 722 3794 
L 441 4081 
Q 863 4603 1044 5309 
L 1441 5241 
Q 1366 4997 1253 4722 
L 3053 4722 
L 3053 4369 
L 1919 4369 
z
M 1191 2344 
L 1191 1925 
L 1850 1925 
L 1850 2344 
L 1191 2344 
z
M 1191 1613 
L 1191 1191 
L 1850 1191 
L 1850 1613 
L 1191 1613 
z
M 1191 878 
L 1191 422 
L 1850 422 
L 1850 878 
L 1191 878 
z
M 5128 1638 
L 5128 238 
Q 5128 63 5397 63 
Q 5663 63 5709 216 
Q 5759 403 5778 966 
L 6163 806 
Q 6106 81 6028 -109 
Q 5925 -359 5363 -359 
Q 4719 -359 4719 6 
L 4719 1638 
L 4253 1638 
Q 4231 813 4003 372 
Q 3744 -113 3100 -441 
L 2813 -84 
Q 3444 184 3663 653 
Q 3834 1031 3841 1638 
L 3369 1638 
L 3369 5044 
L 5709 5044 
L 5709 1638 
L 5128 1638 
z
M 3778 4672 
L 3778 4031 
L 5306 4031 
L 5306 4672 
L 3778 4672 
z
M 3778 3672 
L 3778 3034 
L 5306 3034 
L 5306 3672 
L 3778 3672 
z
M 3778 2675 
L 3778 2009 
L 5306 2009 
L 5306 2675 
L 3778 2675 
z
" transform="scale(0.015625)"/>
       <path id="IPAexGothic-30c7" d="M 563 3072 
L 5741 3072 
L 5741 2613 
L 3578 2613 
Q 3538 1516 3134 872 
Q 2688 156 1663 -256 
L 1313 156 
Q 2338 538 2713 1166 
Q 3003 1644 3034 2613 
L 563 2613 
L 563 3072 
z
M 1406 4588 
L 4588 4588 
L 4588 4128 
L 1406 4128 
L 1406 4588 
z
M 6009 4469 
Q 5647 5009 5253 5338 
L 5553 5569 
Q 5938 5259 6328 4744 
L 6009 4469 
z
M 5413 4000 
Q 5125 4491 4678 4891 
L 4991 5131 
Q 5363 4825 5747 4275 
L 5413 4000 
z
" transform="scale(0.015625)"/>
       <path id="IPAexGothic-30fc" d="M 588 2688 
L 5809 2688 
L 5809 2175 
L 588 2175 
L 588 2688 
z
" transform="scale(0.015625)"/>
       <path id="IPAexGothic-30bf" d="M 4978 4263 
L 5313 3988 
Q 4797 2431 4056 1459 
Q 3191 325 1822 -300 
L 1466 109 
Q 2131 381 2613 738 
Q 3053 1066 3531 1600 
Q 2919 2225 2144 2791 
Q 1603 2203 1172 1875 
L 825 2234 
Q 2316 3328 2866 5031 
L 3359 4897 
Q 3325 4775 3109 4263 
L 4978 4263 
z
M 2894 3816 
Q 2709 3522 2438 3169 
Q 3194 2616 3841 2003 
Q 4366 2806 4747 3816 
L 2894 3816 
z
" transform="scale(0.015625)"/>
      </defs>
      <use xlink:href="#IPAexGothic-89b3"/>
      <use xlink:href="#IPAexGothic-6e2c" transform="translate(100 0)"/>
      <use xlink:href="#IPAexGothic-30c7" transform="translate(200 0)"/>
      <use xlink:href="#IPAexGothic-30fc" transform="translate(300 0)"/>
      <use xlink:href="#IPAexGothic-30bf" transform="translate(400 0)"/>
     </g>
    </g>
    <g id="line2d_25">
     <path d="M 70.544375 202.55505 
L 82.544375 202.55505 
L 94.544375 202.55505 
" style="fill: none; stroke: #264653; stroke-width: 2; stroke-linecap: square"/>
    </g>
    <g id="text_16">
     <!-- 真の関数 -->
     <g transform="translate(104.144375 206.75505) scale(0.12 -0.12)">
      <defs>
       <path id="IPAexGothic-771f" d="M 3409 3950 
L 5106 3950 
L 5106 1491 
L 1284 1491 
L 1284 3950 
L 2944 3950 
L 2944 4356 
L 606 4356 
L 606 4722 
L 2944 4722 
L 2944 5309 
L 3409 5309 
L 3409 4722 
L 5784 4722 
L 5784 4356 
L 3409 4356 
L 3409 3950 
z
M 4659 3609 
L 1731 3609 
L 1731 3238 
L 4659 3238 
L 4659 3609 
z
M 1731 2919 
L 1731 2547 
L 4659 2547 
L 4659 2919 
L 1731 2919 
z
M 1731 2234 
L 1731 1838 
L 4659 1838 
L 4659 2234 
L 1731 2234 
z
M 313 1141 
L 6078 1141 
L 6078 763 
L 313 763 
L 313 1141 
z
M 441 -97 
Q 1488 219 2291 738 
L 2713 469 
Q 1803 -122 794 -500 
L 441 -97 
z
M 5503 -384 
Q 4628 88 3622 459 
L 4006 750 
Q 4981 434 5906 13 
L 5503 -384 
z
" transform="scale(0.015625)"/>
       <path id="IPAexGothic-306e" d="M 3119 469 
Q 5275 766 5275 2425 
Q 5275 3453 4413 3925 
Q 4041 4116 3547 4159 
Q 3394 2525 2850 1400 
Q 2322 306 1722 306 
Q 1384 306 1084 666 
Q 609 1244 609 2003 
Q 609 3025 1397 3794 
Q 2184 4563 3431 4563 
Q 4306 4563 4928 4122 
Q 5813 3506 5813 2425 
Q 5813 438 3431 6 
L 3119 469 
z
M 3053 4147 
Q 2378 4044 1891 3641 
Q 1097 2981 1097 1991 
Q 1097 1366 1434 978 
Q 1581 813 1719 813 
Q 2022 813 2416 1625 
Q 2909 2638 3053 4147 
z
" transform="scale(0.015625)"/>
       <path id="IPAexGothic-95a2" d="M 2919 5063 
L 2919 3288 
L 1016 3288 
L 1016 -450 
L 569 -450 
L 569 5063 
L 2919 5063 
z
M 1016 4709 
L 1016 4331 
L 2509 4331 
L 2509 4709 
L 1016 4709 
z
M 1016 4019 
L 1016 3628 
L 2509 3628 
L 2509 4019 
L 1016 4019 
z
M 5822 5063 
L 5822 44 
Q 5822 -409 5297 -409 
Q 4956 -409 4672 -366 
L 4594 97 
Q 4841 31 5156 31 
Q 5369 31 5369 244 
L 5369 3288 
L 3422 3288 
L 3422 5063 
L 5822 5063 
z
M 3831 4709 
L 3831 4331 
L 5369 4331 
L 5369 4709 
L 3831 4709 
z
M 3831 4019 
L 3831 3628 
L 5369 3628 
L 5369 4019 
L 3831 4019 
z
M 2425 2478 
Q 2328 2713 2150 2975 
L 2559 3122 
Q 2709 2866 2859 2478 
L 3525 2478 
Q 3716 2847 3806 3147 
L 4256 3022 
Q 4084 2669 3953 2478 
L 4766 2478 
L 4766 2113 
L 3391 2113 
L 3391 1672 
L 4928 1672 
L 4928 1300 
L 3366 1300 
Q 3363 1263 3334 1141 
Q 4016 863 4734 409 
L 4428 34 
Q 3888 441 3281 763 
Q 3278 766 3241 788 
Q 3225 797 3219 800 
Q 2881 100 1875 -256 
L 1588 122 
Q 2769 409 2931 1300 
L 1466 1300 
L 1466 1672 
L 2963 1672 
L 2963 2113 
L 1625 2113 
L 1625 2478 
L 2425 2478 
z
" transform="scale(0.015625)"/>
      </defs>
      <use xlink:href="#IPAexGothic-771f"/>
      <use xlink:href="#IPAexGothic-306e" transform="translate(100 0)"/>
      <use xlink:href="#IPAexGothic-95a2" transform="translate(200 0)"/>
      <use xlink:href="#IPAexGothic-6570" transform="translate(300 0)"/>
     </g>
    </g>
    <g id="line2d_26">
     <path d="M 70.544375 224.6238 
L 76.544375 224.6238 
L 76.544375 224.6238 
L 88.544375 224.6238 
L 88.544375 224.6238 
L 94.544375 224.6238 
" style="fill: none; stroke: #2a9d8f; stroke-width: 2; stroke-linecap: square"/>
    </g>
    <g id="text_17">
     <!-- 回帰木の予測（段差状） -->
     <g transform="translate(104.144375 228.8238) scale(0.12 -0.12)">
      <defs>
       <path id="IPAexGothic-6bb5" d="M 844 4722 
Q 1847 4866 2538 5125 
L 2841 4747 
Q 2131 4497 1272 4378 
L 1272 3634 
L 2481 3634 
L 2481 3244 
L 1272 3244 
L 1272 2394 
L 2481 2394 
L 2481 2003 
L 1272 2003 
L 1272 1094 
L 1303 1094 
Q 2081 1200 2659 1325 
L 2672 934 
Q 2025 772 1272 653 
L 1272 -447 
L 844 -447 
L 844 581 
Q 788 575 625 556 
Q 509 541 441 531 
L 306 984 
Q 756 1034 844 1044 
L 844 4722 
z
M 5022 4984 
L 5022 3359 
Q 5022 3178 5291 3178 
Q 5488 3178 5528 3294 
Q 5566 3419 5584 3866 
L 6006 3725 
Q 5978 3097 5872 2941 
Q 5756 2775 5253 2775 
Q 4841 2775 4703 2878 
Q 4594 2966 4594 3166 
L 4594 4581 
L 3769 4581 
L 3769 4344 
Q 3769 3725 3641 3341 
Q 3478 2863 3006 2547 
L 2694 2872 
Q 3150 3134 3263 3597 
Q 3341 3894 3341 4441 
L 3341 4984 
L 5022 4984 
z
M 4363 447 
Q 3697 -181 2828 -506 
L 2541 -109 
Q 3384 138 4063 731 
Q 3506 1316 3225 1984 
L 2853 1984 
L 2853 2388 
L 5406 2388 
L 5600 2203 
Q 5300 1444 4666 750 
Q 5272 284 6097 59 
L 5797 -397 
Q 4956 -66 4363 447 
z
M 3666 1984 
Q 3963 1422 4356 1019 
Q 4819 1509 5022 1984 
L 3666 1984 
z
" transform="scale(0.015625)"/>
       <path id="IPAexGothic-5dee" d="M 2188 4481 
Q 2013 4781 1766 5084 
L 2194 5275 
Q 2459 4913 2669 4481 
L 3659 4481 
Q 3931 4881 4100 5294 
L 4575 5122 
Q 4353 4766 4150 4481 
L 5725 4481 
L 5725 4103 
L 3403 4103 
L 3403 3519 
L 5431 3519 
L 5431 3147 
L 3403 3147 
L 3403 2534 
L 5975 2534 
L 5975 2138 
L 2341 2138 
Q 2225 1813 2041 1466 
L 5431 1466 
L 5431 1081 
L 3813 1081 
L 3813 103 
L 5913 103 
L 5913 -294 
L 1338 -294 
L 1338 103 
L 3344 103 
L 3344 1081 
L 1803 1081 
Q 1331 400 588 -172 
L 281 200 
Q 1394 966 1875 2138 
L 416 2138 
L 416 2534 
L 2950 2534 
L 2950 3147 
L 959 3147 
L 959 3519 
L 2950 3519 
L 2950 4103 
L 666 4103 
L 666 4481 
L 2188 4481 
z
" transform="scale(0.015625)"/>
       <path id="IPAexGothic-72b6" d="M 4281 3066 
Q 4638 1166 6088 122 
L 5722 -331 
Q 4469 769 4066 2456 
Q 3853 650 2453 -494 
L 2125 -109 
Q 3550 941 3731 3066 
L 2241 3066 
L 2241 3481 
L 3753 3481 
L 3753 5144 
L 4206 5144 
L 4206 3481 
L 5984 3481 
L 5984 3066 
L 4281 3066 
z
M 1591 1600 
Q 1144 1238 528 856 
L 309 1344 
Q 875 1594 1591 2053 
L 1591 5172 
L 2044 5172 
L 2044 -447 
L 1591 -447 
L 1591 1600 
z
M 1006 2572 
Q 791 3384 444 4031 
L 834 4244 
Q 1194 3563 1422 2809 
L 1006 2572 
z
M 5178 3731 
Q 4947 4263 4591 4716 
L 4953 4953 
Q 5284 4553 5581 4019 
L 5178 3731 
z
" transform="scale(0.015625)"/>
      </defs>
      <use xlink:href="#IPAexGothic-56de"/>
      <use xlink:href="#IPAexGothic-5e30" transform="translate(100 0)"/>
      <use xlink:href="#IPAexGothic-6728" transform="translate(200 0)"/>
      <use xlink:href="#IPAexGothic-306e" transform="translate(300 0)"/>
      <use xlink:href="#IPAexGothic-4e88" transform="translate(400 0)"/>
      <use xlink:href="#IPAexGothic-6e2c" transform="translate(500 0)"/>
      <use xlink:href="#IPAexGothic-ff08" transform="translate(600 0)"/>
      <use xlink:href="#IPAexGothic-6bb5" transform="translate(700 0)"/>
      <use xlink:href="#IPAexGothic-5dee" transform="translate(800 0)"/>
      <use xlink:href="#IPAexGothic-72b6" transform="translate(900 0)"/>
      <use xlink:href="#IPAexGothic-ff09" transform="translate(1000 0)"/>
     </g>
    </g>
   </g>
  </g>
 </g>
 <defs>
  <clipPath id="p439cdd3c86">
   <rect x="53.744375" y="26.1438" width="446.4" height="221.76"/>
  </clipPath>
 </defs>
</svg>
