<?xml version="1.0" encoding="utf-8" standalone="no"?>
<!DOCTYPE svg PUBLIC "-//W3C//DTD SVG 1.1//EN"
  "http://www.w3.org/Graphics/SVG/1.1/DTD/svg11.dtd">
<svg xmlns:xlink="http://www.w3.org/1999/xlink" width="684pt" height="679.68pt" viewBox="0 0 684 679.68" xmlns="http://www.w3.org/2000/svg" version="1.1">
 <metadata>
  <rdf:RDF xmlns:dc="http://purl.org/dc/elements/1.1/" xmlns:cc="http://creativecommons.org/ns#" xmlns:rdf="http://www.w3.org/1999/02/22-rdf-syntax-ns#">
   <cc:Work>
    <dc:type rdf:resource="http://purl.org/dc/dcmitype/StillImage"/>
    <dc:date>2025-10-29T22:59:46.939497</dc:date>
    <dc:format>image/svg+xml</dc:format>
    <dc:creator>
     <cc:Agent>
      <dc:title>Matplotlib v3.10.7, https://matplotlib.org/</dc:title>
     </cc:Agent>
    </dc:creator>
   </cc:Work>
  </rdf:RDF>
 </metadata>
 <defs>
  <style type="text/css">*{stroke-linejoin: round; stroke-linecap: butt}</style>
 </defs>
 <g id="figure_1">
  <g id="patch_1">
   <path d="M 0 679.68 
L 684 679.68 
L 684 0 
L 0 0 
z
" style="fill: #ffffff"/>
  </g>
  <g id="axes_1">
   <g id="patch_2">
    <path d="M 379.172802 582.750883 
Q 401.404854 557.506746 424.375833 531.42357 
" style="fill: none; stroke: #000000; stroke-linecap: round"/>
    <path d="M 385.677116 580.114361 
L 379.172802 582.750883 
L 380.966172 575.965518 
" style="fill: none; stroke: #000000; stroke-linecap: round"/>
   </g>
   <g id="text_1">
    <g id="patch_3">
     <path d="M 287.932121 664.238446 
L 396.067879 664.238446 
L 396.067879 585.590826 
L 287.932121 585.590826 
z
" style="fill: #e58139; stroke: #000000; stroke-linejoin: miter"/>
    </g>
    <!-- gini = 0.0 -->
    <g transform="translate(307.149335 603.623669) scale(0.156935 -0.156935)">
     <defs>
      <path id="IPAexGothic-67" d="M 1331 1150 
Q 1006 1122 1006 900 
Q 1006 613 1763 575 
L 2131 556 
Q 3303 497 3303 -294 
Q 3303 -700 2925 -959 
Q 2519 -1253 1794 -1253 
Q 1138 -1253 738 -1028 
Q 353 -809 353 -428 
Q 353 84 1075 247 
L 1075 269 
Q 506 413 506 778 
Q 506 1116 994 1297 
Q 456 1575 456 2181 
Q 456 2650 769 2963 
Q 1128 3322 1738 3322 
Q 2125 3322 2422 3153 
Q 2650 3453 3259 3463 
L 3259 3013 
Q 2838 3003 2703 2938 
Q 3034 2613 3034 2169 
Q 3034 1728 2734 1425 
Q 2400 1094 1813 1094 
Q 1563 1094 1331 1150 
z
M 1734 2919 
Q 1409 2919 1197 2706 
Q 988 2497 988 2181 
Q 988 1872 1184 1684 
Q 1397 1472 1756 1472 
Q 2094 1472 2297 1678 
Q 2503 1881 2503 2203 
Q 2503 2497 2297 2700 
Q 2081 2919 1734 2919 
z
M 1753 159 
Q 903 159 903 -366 
Q 903 -875 1800 -875 
Q 2378 -875 2638 -606 
Q 2772 -481 2772 -313 
Q 2772 159 1753 159 
z
" transform="scale(0.015625)"/>
      <path id="IPAexGothic-69" d="M 1178 3928 
L 550 3928 
L 550 4569 
L 1178 4569 
L 1178 3928 
z
M 1138 63 
L 588 63 
L 588 3250 
L 1138 3250 
L 1138 63 
z
" transform="scale(0.015625)"/>
      <path id="IPAexGothic-6e" d="M 3328 63 
L 2778 63 
L 2778 2041 
Q 2778 2853 2106 2853 
Q 1428 2853 1113 2041 
L 1113 63 
L 563 63 
L 563 3250 
L 1075 3250 
L 1075 2675 
Q 1525 3316 2222 3316 
Q 3328 3316 3328 2072 
L 3328 63 
z
" transform="scale(0.015625)"/>
      <path id="IPAexGothic-20" transform="scale(0.015625)"/>
      <path id="IPAexGothic-3d" d="M 416 2803 
L 3922 2803 
L 3922 2438 
L 416 2438 
L 416 2803 
z
M 416 1625 
L 3922 1625 
L 3922 1259 
L 416 1259 
L 416 1625 
z
" transform="scale(0.015625)"/>
      <path id="IPAexGothic-30" d="M 2038 4725 
Q 2881 4725 3334 3944 
Q 3694 3325 3694 2344 
Q 3694 1372 3334 741 
Q 2888 -31 2016 -31 
Q 1147 -31 700 741 
Q 341 1372 341 2350 
Q 341 3713 1000 4334 
Q 1419 4725 2038 4725 
z
M 2016 4266 
Q 1516 4266 1228 3759 
Q 934 3247 934 2344 
Q 934 1456 1222 947 
Q 1513 447 2016 447 
Q 2619 447 2909 1153 
Q 3100 1622 3100 2375 
Q 3100 3256 2806 3759 
Q 2509 4266 2016 4266 
z
" transform="scale(0.015625)"/>
      <path id="IPAexGothic-2e" d="M 1184 63 
L 494 63 
L 494 753 
L 1184 753 
L 1184 63 
z
" transform="scale(0.015625)"/>
     </defs>
     <use xlink:href="#IPAexGothic-67"/>
     <use xlink:href="#IPAexGothic-69" transform="translate(55.517578 0)"/>
     <use xlink:href="#IPAexGothic-6e" transform="translate(82.519531 0)"/>
     <use xlink:href="#IPAexGothic-69" transform="translate(142.919922 0)"/>
     <use xlink:href="#IPAexGothic-20" transform="translate(169.921875 0)"/>
     <use xlink:href="#IPAexGothic-3d" transform="translate(196.923828 0)"/>
     <use xlink:href="#IPAexGothic-20" transform="translate(264.746094 0)"/>
     <use xlink:href="#IPAexGothic-30" transform="translate(291.748047 0)"/>
     <use xlink:href="#IPAexGothic-2e" transform="translate(354.736328 0)"/>
     <use xlink:href="#IPAexGothic-30" transform="translate(381.152344 0)"/>
    </g>
    <!-- samples = 1 -->
    <g transform="translate(297.643717 620.802687) scale(0.156935 -0.156935)">
     <defs>
      <path id="IPAexGothic-73" d="M 2234 2547 
Q 1938 2931 1484 2931 
Q 891 2931 891 2475 
Q 891 2153 1531 1944 
L 1741 1875 
Q 2650 1578 2650 894 
Q 2650 434 2272 172 
Q 1972 -31 1497 -31 
Q 766 -31 256 503 
L 603 819 
Q 997 397 1516 397 
Q 2131 397 2131 875 
Q 2131 1238 1453 1478 
L 1234 1553 
Q 378 1853 378 2431 
Q 378 2797 628 3047 
Q 928 3347 1453 3347 
Q 2156 3347 2606 2859 
L 2234 2547 
z
" transform="scale(0.015625)"/>
      <path id="IPAexGothic-61" d="M 3156 63 
L 2672 63 
Q 2559 303 2531 556 
L 2509 556 
Q 2147 -25 1428 -25 
Q 934 -25 622 288 
Q 347 563 347 959 
Q 347 1947 2050 1997 
L 2478 2009 
L 2478 2175 
Q 2478 2509 2288 2700 
Q 2088 2900 1775 2900 
Q 1238 2900 969 2378 
L 494 2597 
Q 938 3328 1788 3328 
Q 2375 3328 2691 3000 
Q 2984 2706 2984 2169 
L 2984 997 
Q 2984 400 3156 63 
z
M 2491 1625 
L 2141 1619 
Q 903 1591 903 953 
Q 903 728 1050 581 
Q 1231 403 1525 403 
Q 1934 403 2234 703 
Q 2491 969 2491 1344 
L 2491 1625 
z
" transform="scale(0.015625)"/>
      <path id="IPAexGothic-6d" d="M 5022 63 
L 4472 63 
L 4472 2059 
Q 4472 2869 3847 2869 
Q 3550 2869 3303 2594 
Q 3128 2397 3059 2103 
L 3059 63 
L 2509 63 
L 2509 2066 
Q 2509 2869 1919 2869 
Q 1606 2869 1369 2594 
Q 1113 2306 1113 2041 
L 1113 63 
L 563 63 
L 563 3250 
L 1075 3250 
L 1075 2700 
Q 1391 3316 2028 3316 
Q 2725 3316 2956 2647 
Q 3303 3316 3953 3316 
Q 4478 3316 4772 2944 
Q 5022 2638 5022 2072 
L 5022 63 
z
" transform="scale(0.015625)"/>
      <path id="IPAexGothic-70" d="M 1075 2688 
Q 1525 3341 2206 3341 
Q 2769 3341 3172 2938 
Q 3641 2469 3641 1644 
Q 3641 841 3178 372 
Q 2775 -31 2200 -31 
Q 1569 -31 1106 497 
L 1106 -1216 
L 563 -1216 
L 563 3250 
L 1075 3250 
L 1075 2688 
z
M 1106 1950 
L 1106 1291 
Q 1106 897 1516 600 
Q 1791 403 2106 403 
Q 2469 403 2725 659 
Q 3066 997 3066 1631 
Q 3066 2200 2784 2559 
Q 2503 2900 2100 2900 
Q 1656 2900 1338 2484 
Q 1106 2184 1106 1950 
z
" transform="scale(0.015625)"/>
      <path id="IPAexGothic-6c" d="M 1131 63 
L 581 63 
L 581 4794 
L 1131 4794 
L 1131 63 
z
" transform="scale(0.015625)"/>
      <path id="IPAexGothic-65" d="M 863 1594 
Q 891 1041 1209 722 
Q 1534 397 1997 397 
Q 2606 397 2963 966 
L 3322 728 
Q 2869 -31 1931 -31 
Q 1222 -31 766 422 
Q 306 884 306 1641 
Q 306 2444 788 2925 
Q 1216 3353 1856 3353 
Q 2459 3353 2866 2956 
Q 3322 2494 3322 1722 
L 3322 1594 
L 863 1594 
z
M 2756 1997 
Q 2709 2431 2450 2681 
Q 2194 2938 1844 2938 
Q 1438 2938 1150 2591 
Q 953 2356 894 1997 
L 2756 1997 
z
" transform="scale(0.015625)"/>
      <path id="IPAexGothic-31" d="M 2463 63 
L 1900 63 
L 1900 4103 
Q 1372 3922 788 3797 
L 684 4231 
Q 1519 4441 2106 4731 
L 2463 4731 
L 2463 63 
z
" transform="scale(0.015625)"/>
     </defs>
     <use xlink:href="#IPAexGothic-73"/>
     <use xlink:href="#IPAexGothic-61" transform="translate(46.191406 0)"/>
     <use xlink:href="#IPAexGothic-6d" transform="translate(101.171875 0)"/>
     <use xlink:href="#IPAexGothic-70" transform="translate(188.28125 0)"/>
     <use xlink:href="#IPAexGothic-6c" transform="translate(250.390625 0)"/>
     <use xlink:href="#IPAexGothic-65" transform="translate(277.392578 0)"/>
     <use xlink:href="#IPAexGothic-73" transform="translate(334.277344 0)"/>
     <use xlink:href="#IPAexGothic-20" transform="translate(380.46875 0)"/>
     <use xlink:href="#IPAexGothic-3d" transform="translate(407.470703 0)"/>
     <use xlink:href="#IPAexGothic-20" transform="translate(475.292969 0)"/>
     <use xlink:href="#IPAexGothic-31" transform="translate(502.294922 0)"/>
    </g>
    <!-- value = [1, 0] -->
    <g transform="translate(294.209532 637.890976) scale(0.156935 -0.156935)">
     <defs>
      <path id="IPAexGothic-76" d="M 3103 3250 
L 1747 6 
L 1375 6 
L 25 3250 
L 628 3250 
L 1338 1388 
L 1522 844 
L 1569 703 
L 1588 703 
Q 1641 884 1822 1388 
L 2516 3250 
L 3103 3250 
z
" transform="scale(0.015625)"/>
      <path id="IPAexGothic-75" d="M 3284 63 
L 2772 63 
L 2772 644 
Q 2300 0 1625 0 
Q 1072 0 763 375 
Q 519 678 519 1241 
L 519 3250 
L 1069 3250 
L 1069 1259 
Q 1069 466 1734 466 
Q 2406 466 2734 1291 
L 2734 3250 
L 3284 3250 
L 3284 63 
z
" transform="scale(0.015625)"/>
      <path id="IPAexGothic-5b" d="M 1706 -991 
L 581 -991 
L 581 4750 
L 1706 4750 
L 1706 4438 
L 1028 4438 
L 1028 -678 
L 1706 -678 
L 1706 -991 
z
" transform="scale(0.015625)"/>
      <path id="IPAexGothic-2c" d="M 1150 728 
Q 1028 -159 563 -1006 
L 153 -897 
Q 494 -100 569 728 
L 1150 728 
z
" transform="scale(0.015625)"/>
      <path id="IPAexGothic-5d" d="M 1322 -991 
L 197 -991 
L 197 -678 
L 875 -678 
L 875 4438 
L 197 4438 
L 197 4750 
L 1322 4750 
L 1322 -991 
z
" transform="scale(0.015625)"/>
     </defs>
     <use xlink:href="#IPAexGothic-76"/>
     <use xlink:href="#IPAexGothic-61" transform="translate(48.583984 0)"/>
     <use xlink:href="#IPAexGothic-6c" transform="translate(103.564453 0)"/>
     <use xlink:href="#IPAexGothic-75" transform="translate(130.566406 0)"/>
     <use xlink:href="#IPAexGothic-65" transform="translate(190.966797 0)"/>
     <use xlink:href="#IPAexGothic-20" transform="translate(247.851562 0)"/>
     <use xlink:href="#IPAexGothic-3d" transform="translate(274.853516 0)"/>
     <use xlink:href="#IPAexGothic-20" transform="translate(342.675781 0)"/>
     <use xlink:href="#IPAexGothic-5b" transform="translate(369.677734 0)"/>
     <use xlink:href="#IPAexGothic-31" transform="translate(399.658203 0)"/>
     <use xlink:href="#IPAexGothic-2c" transform="translate(462.646484 0)"/>
     <use xlink:href="#IPAexGothic-20" transform="translate(489.0625 0)"/>
     <use xlink:href="#IPAexGothic-30" transform="translate(516.064453 0)"/>
     <use xlink:href="#IPAexGothic-5d" transform="translate(579.052734 0)"/>
    </g>
    <!-- class = A -->
    <g transform="translate(309.491104 654.979265) scale(0.156935 -0.156935)">
     <defs>
      <path id="IPAexGothic-63" d="M 3269 784 
Q 2834 -31 1900 -31 
Q 1228 -31 788 409 
Q 313 891 313 1663 
Q 313 2428 788 2913 
Q 1222 3347 1881 3347 
Q 2813 3347 3206 2541 
L 2763 2309 
Q 2484 2900 1900 2900 
Q 1516 2900 1234 2619 
Q 881 2266 881 1650 
Q 881 1069 1222 728 
Q 1522 428 1956 428 
Q 2547 428 2847 1016 
L 3269 784 
z
" transform="scale(0.015625)"/>
      <path id="IPAexGothic-41" d="M 4056 63 
L 3444 63 
L 2938 1409 
L 1100 1409 
L 603 63 
L -6 63 
L 1806 4666 
L 2259 4666 
L 4056 63 
z
M 2778 1863 
L 2316 3078 
Q 2125 3588 2028 4000 
L 2009 4000 
Q 1897 3563 1716 3078 
L 1263 1863 
L 2778 1863 
z
" transform="scale(0.015625)"/>
     </defs>
     <use xlink:href="#IPAexGothic-63"/>
     <use xlink:href="#IPAexGothic-6c" transform="translate(54.394531 0)"/>
     <use xlink:href="#IPAexGothic-61" transform="translate(81.396484 0)"/>
     <use xlink:href="#IPAexGothic-73" transform="translate(136.376953 0)"/>
     <use xlink:href="#IPAexGothic-73" transform="translate(182.568359 0)"/>
     <use xlink:href="#IPAexGothic-20" transform="translate(228.759766 0)"/>
     <use xlink:href="#IPAexGothic-3d" transform="translate(255.761719 0)"/>
     <use xlink:href="#IPAexGothic-20" transform="translate(323.583984 0)"/>
     <use xlink:href="#IPAexGothic-41" transform="translate(350.585938 0)"/>
    </g>
   </g>
   <g id="patch_4">
    <path d="M 472.227198 582.750883 
Q 449.995146 557.506746 427.024167 531.42357 
" style="fill: none; stroke: #000000; stroke-linecap: round"/>
    <path d="M 470.433828 575.965518 
L 472.227198 582.750883 
L 465.722884 580.114361 
" style="fill: none; stroke: #000000; stroke-linecap: round"/>
   </g>
   <g id="text_2">
    <g id="patch_5">
     <path d="M 455.332121 664.238446 
L 563.467879 664.238446 
L 563.467879 585.590826 
L 455.332121 585.590826 
z
" style="fill: #399de5; stroke: #000000; stroke-linejoin: miter"/>
    </g>
    <!-- gini = 0.0 -->
    <g transform="translate(474.549335 603.623669) scale(0.156935 -0.156935)">
     <use xlink:href="#IPAexGothic-67"/>
     <use xlink:href="#IPAexGothic-69" transform="translate(55.517578 0)"/>
     <use xlink:href="#IPAexGothic-6e" transform="translate(82.519531 0)"/>
     <use xlink:href="#IPAexGothic-69" transform="translate(142.919922 0)"/>
     <use xlink:href="#IPAexGothic-20" transform="translate(169.921875 0)"/>
     <use xlink:href="#IPAexGothic-3d" transform="translate(196.923828 0)"/>
     <use xlink:href="#IPAexGothic-20" transform="translate(264.746094 0)"/>
     <use xlink:href="#IPAexGothic-30" transform="translate(291.748047 0)"/>
     <use xlink:href="#IPAexGothic-2e" transform="translate(354.736328 0)"/>
     <use xlink:href="#IPAexGothic-30" transform="translate(381.152344 0)"/>
    </g>
    <!-- samples = 1 -->
    <g transform="translate(465.043717 620.802687) scale(0.156935 -0.156935)">
     <use xlink:href="#IPAexGothic-73"/>
     <use xlink:href="#IPAexGothic-61" transform="translate(46.191406 0)"/>
     <use xlink:href="#IPAexGothic-6d" transform="translate(101.171875 0)"/>
     <use xlink:href="#IPAexGothic-70" transform="translate(188.28125 0)"/>
     <use xlink:href="#IPAexGothic-6c" transform="translate(250.390625 0)"/>
     <use xlink:href="#IPAexGothic-65" transform="translate(277.392578 0)"/>
     <use xlink:href="#IPAexGothic-73" transform="translate(334.277344 0)"/>
     <use xlink:href="#IPAexGothic-20" transform="translate(380.46875 0)"/>
     <use xlink:href="#IPAexGothic-3d" transform="translate(407.470703 0)"/>
     <use xlink:href="#IPAexGothic-20" transform="translate(475.292969 0)"/>
     <use xlink:href="#IPAexGothic-31" transform="translate(502.294922 0)"/>
    </g>
    <!-- value = [0, 1] -->
    <g transform="translate(461.609532 637.890976) scale(0.156935 -0.156935)">
     <use xlink:href="#IPAexGothic-76"/>
     <use xlink:href="#IPAexGothic-61" transform="translate(48.583984 0)"/>
     <use xlink:href="#IPAexGothic-6c" transform="translate(103.564453 0)"/>
     <use xlink:href="#IPAexGothic-75" transform="translate(130.566406 0)"/>
     <use xlink:href="#IPAexGothic-65" transform="translate(190.966797 0)"/>
     <use xlink:href="#IPAexGothic-20" transform="translate(247.851562 0)"/>
     <use xlink:href="#IPAexGothic-3d" transform="translate(274.853516 0)"/>
     <use xlink:href="#IPAexGothic-20" transform="translate(342.675781 0)"/>
     <use xlink:href="#IPAexGothic-5b" transform="translate(369.677734 0)"/>
     <use xlink:href="#IPAexGothic-30" transform="translate(399.658203 0)"/>
     <use xlink:href="#IPAexGothic-2c" transform="translate(462.646484 0)"/>
     <use xlink:href="#IPAexGothic-20" transform="translate(489.0625 0)"/>
     <use xlink:href="#IPAexGothic-31" transform="translate(516.064453 0)"/>
     <use xlink:href="#IPAexGothic-5d" transform="translate(579.052734 0)"/>
    </g>
    <!-- class = B -->
    <g transform="translate(476.71823 654.979265) scale(0.156935 -0.156935)">
     <defs>
      <path id="IPAexGothic-42" d="M 2688 2425 
Q 3816 2225 3816 1338 
Q 3816 556 3041 222 
Q 2672 63 2094 63 
L 609 63 
L 609 4634 
L 1916 4634 
Q 2494 4634 2869 4500 
Q 3644 4222 3644 3491 
Q 3644 2609 2688 2447 
L 2688 2425 
z
M 1159 2656 
L 1844 2656 
Q 3063 2656 3063 3431 
Q 3063 4181 1881 4181 
L 1159 4181 
L 1159 2656 
z
M 1159 522 
L 2016 522 
Q 3222 522 3222 1369 
Q 3222 1897 2625 2100 
Q 2278 2222 1875 2222 
L 1159 2222 
L 1159 522 
z
" transform="scale(0.015625)"/>
     </defs>
     <use xlink:href="#IPAexGothic-63"/>
     <use xlink:href="#IPAexGothic-6c" transform="translate(54.394531 0)"/>
     <use xlink:href="#IPAexGothic-61" transform="translate(81.396484 0)"/>
     <use xlink:href="#IPAexGothic-73" transform="translate(136.376953 0)"/>
     <use xlink:href="#IPAexGothic-73" transform="translate(182.568359 0)"/>
     <use xlink:href="#IPAexGothic-20" transform="translate(228.759766 0)"/>
     <use xlink:href="#IPAexGothic-3d" transform="translate(255.761719 0)"/>
     <use xlink:href="#IPAexGothic-20" transform="translate(323.583984 0)"/>
     <use xlink:href="#IPAexGothic-42" transform="translate(350.585938 0)"/>
    </g>
   </g>
   <g id="patch_6">
    <path d="M 295.472802 487.710883 
Q 317.704854 462.466746 340.675833 436.38357 
" style="fill: none; stroke: #000000; stroke-linecap: round"/>
    <path d="M 301.977116 485.074361 
L 295.472802 487.710883 
L 297.266172 480.925518 
" style="fill: none; stroke: #000000; stroke-linecap: round"/>
   </g>
   <g id="text_3">
    <g id="patch_7">
     <path d="M 204.232121 569.198446 
L 312.367879 569.198446 
L 312.367879 490.550826 
L 204.232121 490.550826 
z
" style="fill: #399de5; stroke: #000000; stroke-linejoin: miter"/>
    </g>
    <!-- gini = 0.0 -->
    <g transform="translate(223.449335 508.583669) scale(0.156935 -0.156935)">
     <use xlink:href="#IPAexGothic-67"/>
     <use xlink:href="#IPAexGothic-69" transform="translate(55.517578 0)"/>
     <use xlink:href="#IPAexGothic-6e" transform="translate(82.519531 0)"/>
     <use xlink:href="#IPAexGothic-69" transform="translate(142.919922 0)"/>
     <use xlink:href="#IPAexGothic-20" transform="translate(169.921875 0)"/>
     <use xlink:href="#IPAexGothic-3d" transform="translate(196.923828 0)"/>
     <use xlink:href="#IPAexGothic-20" transform="translate(264.746094 0)"/>
     <use xlink:href="#IPAexGothic-30" transform="translate(291.748047 0)"/>
     <use xlink:href="#IPAexGothic-2e" transform="translate(354.736328 0)"/>
     <use xlink:href="#IPAexGothic-30" transform="translate(381.152344 0)"/>
    </g>
    <!-- samples = 1 -->
    <g transform="translate(213.943717 525.762687) scale(0.156935 -0.156935)">
     <use xlink:href="#IPAexGothic-73"/>
     <use xlink:href="#IPAexGothic-61" transform="translate(46.191406 0)"/>
     <use xlink:href="#IPAexGothic-6d" transform="translate(101.171875 0)"/>
     <use xlink:href="#IPAexGothic-70" transform="translate(188.28125 0)"/>
     <use xlink:href="#IPAexGothic-6c" transform="translate(250.390625 0)"/>
     <use xlink:href="#IPAexGothic-65" transform="translate(277.392578 0)"/>
     <use xlink:href="#IPAexGothic-73" transform="translate(334.277344 0)"/>
     <use xlink:href="#IPAexGothic-20" transform="translate(380.46875 0)"/>
     <use xlink:href="#IPAexGothic-3d" transform="translate(407.470703 0)"/>
     <use xlink:href="#IPAexGothic-20" transform="translate(475.292969 0)"/>
     <use xlink:href="#IPAexGothic-31" transform="translate(502.294922 0)"/>
    </g>
    <!-- value = [0, 1] -->
    <g transform="translate(210.509532 542.850976) scale(0.156935 -0.156935)">
     <use xlink:href="#IPAexGothic-76"/>
     <use xlink:href="#IPAexGothic-61" transform="translate(48.583984 0)"/>
     <use xlink:href="#IPAexGothic-6c" transform="translate(103.564453 0)"/>
     <use xlink:href="#IPAexGothic-75" transform="translate(130.566406 0)"/>
     <use xlink:href="#IPAexGothic-65" transform="translate(190.966797 0)"/>
     <use xlink:href="#IPAexGothic-20" transform="translate(247.851562 0)"/>
     <use xlink:href="#IPAexGothic-3d" transform="translate(274.853516 0)"/>
     <use xlink:href="#IPAexGothic-20" transform="translate(342.675781 0)"/>
     <use xlink:href="#IPAexGothic-5b" transform="translate(369.677734 0)"/>
     <use xlink:href="#IPAexGothic-30" transform="translate(399.658203 0)"/>
     <use xlink:href="#IPAexGothic-2c" transform="translate(462.646484 0)"/>
     <use xlink:href="#IPAexGothic-20" transform="translate(489.0625 0)"/>
     <use xlink:href="#IPAexGothic-31" transform="translate(516.064453 0)"/>
     <use xlink:href="#IPAexGothic-5d" transform="translate(579.052734 0)"/>
    </g>
    <!-- class = B -->
    <g transform="translate(225.61823 559.939265) scale(0.156935 -0.156935)">
     <use xlink:href="#IPAexGothic-63"/>
     <use xlink:href="#IPAexGothic-6c" transform="translate(54.394531 0)"/>
     <use xlink:href="#IPAexGothic-61" transform="translate(81.396484 0)"/>
     <use xlink:href="#IPAexGothic-73" transform="translate(136.376953 0)"/>
     <use xlink:href="#IPAexGothic-73" transform="translate(182.568359 0)"/>
     <use xlink:href="#IPAexGothic-20" transform="translate(228.759766 0)"/>
     <use xlink:href="#IPAexGothic-3d" transform="translate(255.761719 0)"/>
     <use xlink:href="#IPAexGothic-20" transform="translate(323.583984 0)"/>
     <use xlink:href="#IPAexGothic-42" transform="translate(350.585938 0)"/>
    </g>
   </g>
   <g id="patch_8">
    <path d="M 381.040603 479.209975 
Q 362.551381 458.215762 343.323233 436.382509 
" style="fill: none; stroke: #000000; stroke-linecap: round"/>
    <path d="M 379.247232 472.42461 
L 381.040603 479.209975 
L 374.536288 476.573452 
" style="fill: none; stroke: #000000; stroke-linecap: round"/>
   </g>
   <g id="text_4">
    <g id="patch_9">
     <path d="M 371.112273 577.787955 
L 480.287727 577.787955 
L 480.287727 482.052045 
L 371.112273 482.052045 
z
" style="fill: #ffffff; stroke: #000000; stroke-linejoin: miter"/>
    </g>
    <!-- x1 &lt;= -0.548 -->
    <g transform="translate(377.389684 500.084889) scale(0.156935 -0.156935)">
     <defs>
      <path id="IPAexGothic-78" d="M 3050 63 
L 2419 63 
L 1547 1338 
L 691 63 
L 56 63 
L 1247 1675 
L 106 3250 
L 747 3250 
L 1578 2016 
L 2413 3250 
L 3019 3250 
L 1875 1681 
L 3050 63 
z
" transform="scale(0.015625)"/>
      <path id="IPAexGothic-3c" d="M 897 2028 
L 3928 609 
L 3769 263 
L 409 1881 
L 409 2175 
L 3769 3794 
L 3928 3450 
L 897 2028 
z
" transform="scale(0.015625)"/>
      <path id="IPAexGothic-2d" d="M 1969 1703 
L 319 1703 
L 319 2203 
L 1969 2203 
L 1969 1703 
z
" transform="scale(0.015625)"/>
      <path id="IPAexGothic-35" d="M 1178 2603 
Q 1634 2963 2172 2963 
Q 2816 2963 3241 2528 
Q 3638 2113 3638 1497 
Q 3638 938 3297 513 
Q 2869 -31 2031 -31 
Q 959 -31 469 784 
L 938 1028 
Q 1309 434 2013 434 
Q 2466 434 2769 716 
Q 3081 1013 3081 1503 
Q 3081 1966 2806 2241 
Q 2519 2528 2056 2528 
Q 1406 2528 1072 2028 
L 591 2091 
L 884 4634 
L 3406 4634 
L 3406 4153 
L 1341 4153 
L 1134 2603 
L 1178 2603 
z
" transform="scale(0.015625)"/>
      <path id="IPAexGothic-34" d="M 3813 1159 
L 3059 1159 
L 3059 63 
L 2547 63 
L 2547 1159 
L 197 1159 
L 197 1672 
L 2456 4678 
L 3059 4678 
L 3059 1634 
L 3813 1634 
L 3813 1159 
z
M 2578 4109 
L 2559 4109 
Q 2278 3656 2003 3284 
L 759 1634 
L 2547 1634 
L 2547 3144 
Q 2547 3481 2578 4109 
z
" transform="scale(0.015625)"/>
      <path id="IPAexGothic-38" d="M 2541 2425 
Q 3700 2031 3700 1197 
Q 3700 541 3100 197 
Q 2663 -56 2016 -56 
Q 1366 -56 928 197 
Q 347 531 347 1178 
Q 347 1988 1409 2381 
L 1409 2400 
Q 481 2734 481 3509 
Q 481 4100 981 4456 
Q 1406 4756 2019 4756 
Q 2703 4756 3131 4403 
Q 3553 4069 3553 3566 
Q 3553 2706 2541 2444 
L 2541 2425 
z
M 2022 2625 
Q 2997 2856 2997 3528 
Q 2997 3916 2675 4150 
Q 2413 4347 2016 4347 
Q 1606 4347 1331 4128 
Q 1050 3897 1050 3522 
Q 1050 3150 1350 2925 
Q 1494 2809 1722 2722 
Q 1984 2616 2022 2625 
z
M 1978 2209 
Q 922 1931 922 1216 
Q 922 775 1313 556 
Q 1606 391 2009 391 
Q 2575 391 2881 697 
Q 3106 922 3106 1250 
Q 3106 1594 2794 1850 
Q 2609 1994 2350 2100 
Q 2047 2222 1978 2209 
z
" transform="scale(0.015625)"/>
     </defs>
     <use xlink:href="#IPAexGothic-78"/>
     <use xlink:href="#IPAexGothic-31" transform="translate(48.876953 0)"/>
     <use xlink:href="#IPAexGothic-20" transform="translate(111.865234 0)"/>
     <use xlink:href="#IPAexGothic-3c" transform="translate(138.867188 0)"/>
     <use xlink:href="#IPAexGothic-3d" transform="translate(206.689453 0)"/>
     <use xlink:href="#IPAexGothic-20" transform="translate(274.511719 0)"/>
     <use xlink:href="#IPAexGothic-2d" transform="translate(301.513672 0)"/>
     <use xlink:href="#IPAexGothic-30" transform="translate(337.304688 0)"/>
     <use xlink:href="#IPAexGothic-2e" transform="translate(400.292969 0)"/>
     <use xlink:href="#IPAexGothic-35" transform="translate(426.708984 0)"/>
     <use xlink:href="#IPAexGothic-34" transform="translate(489.697266 0)"/>
     <use xlink:href="#IPAexGothic-38" transform="translate(552.685547 0)"/>
    </g>
    <!-- gini = 0.5 -->
    <g transform="translate(390.849335 517.173178) scale(0.156935 -0.156935)">
     <use xlink:href="#IPAexGothic-67"/>
     <use xlink:href="#IPAexGothic-69" transform="translate(55.517578 0)"/>
     <use xlink:href="#IPAexGothic-6e" transform="translate(82.519531 0)"/>
     <use xlink:href="#IPAexGothic-69" transform="translate(142.919922 0)"/>
     <use xlink:href="#IPAexGothic-20" transform="translate(169.921875 0)"/>
     <use xlink:href="#IPAexGothic-3d" transform="translate(196.923828 0)"/>
     <use xlink:href="#IPAexGothic-20" transform="translate(264.746094 0)"/>
     <use xlink:href="#IPAexGothic-30" transform="translate(291.748047 0)"/>
     <use xlink:href="#IPAexGothic-2e" transform="translate(354.736328 0)"/>
     <use xlink:href="#IPAexGothic-35" transform="translate(381.152344 0)"/>
    </g>
    <!-- samples = 2 -->
    <g transform="translate(381.343717 534.352195) scale(0.156935 -0.156935)">
     <defs>
      <path id="IPAexGothic-32" d="M 3659 63 
L 447 63 
L 447 594 
Q 825 1475 1894 2203 
L 2072 2322 
Q 2619 2697 2791 2906 
Q 2988 3153 2988 3444 
Q 2988 3772 2756 4003 
Q 2500 4259 2084 4259 
Q 1250 4259 991 3328 
L 497 3506 
Q 853 4725 2116 4725 
Q 2806 4725 3216 4316 
Q 3575 3947 3575 3425 
Q 3575 3038 3344 2722 
Q 3131 2416 2366 1938 
L 2231 1856 
Q 1256 1253 978 569 
L 3659 569 
L 3659 63 
z
" transform="scale(0.015625)"/>
     </defs>
     <use xlink:href="#IPAexGothic-73"/>
     <use xlink:href="#IPAexGothic-61" transform="translate(46.191406 0)"/>
     <use xlink:href="#IPAexGothic-6d" transform="translate(101.171875 0)"/>
     <use xlink:href="#IPAexGothic-70" transform="translate(188.28125 0)"/>
     <use xlink:href="#IPAexGothic-6c" transform="translate(250.390625 0)"/>
     <use xlink:href="#IPAexGothic-65" transform="translate(277.392578 0)"/>
     <use xlink:href="#IPAexGothic-73" transform="translate(334.277344 0)"/>
     <use xlink:href="#IPAexGothic-20" transform="translate(380.46875 0)"/>
     <use xlink:href="#IPAexGothic-3d" transform="translate(407.470703 0)"/>
     <use xlink:href="#IPAexGothic-20" transform="translate(475.292969 0)"/>
     <use xlink:href="#IPAexGothic-32" transform="translate(502.294922 0)"/>
    </g>
    <!-- value = [1, 1] -->
    <g transform="translate(377.909532 551.440485) scale(0.156935 -0.156935)">
     <use xlink:href="#IPAexGothic-76"/>
     <use xlink:href="#IPAexGothic-61" transform="translate(48.583984 0)"/>
     <use xlink:href="#IPAexGothic-6c" transform="translate(103.564453 0)"/>
     <use xlink:href="#IPAexGothic-75" transform="translate(130.566406 0)"/>
     <use xlink:href="#IPAexGothic-65" transform="translate(190.966797 0)"/>
     <use xlink:href="#IPAexGothic-20" transform="translate(247.851562 0)"/>
     <use xlink:href="#IPAexGothic-3d" transform="translate(274.853516 0)"/>
     <use xlink:href="#IPAexGothic-20" transform="translate(342.675781 0)"/>
     <use xlink:href="#IPAexGothic-5b" transform="translate(369.677734 0)"/>
     <use xlink:href="#IPAexGothic-31" transform="translate(399.658203 0)"/>
     <use xlink:href="#IPAexGothic-2c" transform="translate(462.646484 0)"/>
     <use xlink:href="#IPAexGothic-20" transform="translate(489.0625 0)"/>
     <use xlink:href="#IPAexGothic-31" transform="translate(516.064453 0)"/>
     <use xlink:href="#IPAexGothic-5d" transform="translate(579.052734 0)"/>
    </g>
    <!-- class = A -->
    <g transform="translate(393.191104 568.528774) scale(0.156935 -0.156935)">
     <use xlink:href="#IPAexGothic-63"/>
     <use xlink:href="#IPAexGothic-6c" transform="translate(54.394531 0)"/>
     <use xlink:href="#IPAexGothic-61" transform="translate(81.396484 0)"/>
     <use xlink:href="#IPAexGothic-73" transform="translate(136.376953 0)"/>
     <use xlink:href="#IPAexGothic-73" transform="translate(182.568359 0)"/>
     <use xlink:href="#IPAexGothic-20" transform="translate(228.759766 0)"/>
     <use xlink:href="#IPAexGothic-3d" transform="translate(255.761719 0)"/>
     <use xlink:href="#IPAexGothic-20" transform="translate(323.583984 0)"/>
     <use xlink:href="#IPAexGothic-41" transform="translate(350.585938 0)"/>
    </g>
   </g>
   <g id="patch_10">
    <path d="M 211.772802 392.670883 
Q 234.004854 367.426746 256.975833 341.34357 
" style="fill: none; stroke: #000000; stroke-linecap: round"/>
    <path d="M 218.277116 390.034361 
L 211.772802 392.670883 
L 213.566172 385.885518 
" style="fill: none; stroke: #000000; stroke-linecap: round"/>
   </g>
   <g id="text_5">
    <g id="patch_11">
     <path d="M 115.589886 474.158446 
L 233.610114 474.158446 
L 233.610114 395.510826 
L 115.589886 395.510826 
z
" style="fill: #e58139; stroke: #000000; stroke-linejoin: miter"/>
    </g>
    <!-- gini = 0.0 -->
    <g transform="translate(139.749335 413.543669) scale(0.156935 -0.156935)">
     <use xlink:href="#IPAexGothic-67"/>
     <use xlink:href="#IPAexGothic-69" transform="translate(55.517578 0)"/>
     <use xlink:href="#IPAexGothic-6e" transform="translate(82.519531 0)"/>
     <use xlink:href="#IPAexGothic-69" transform="translate(142.919922 0)"/>
     <use xlink:href="#IPAexGothic-20" transform="translate(169.921875 0)"/>
     <use xlink:href="#IPAexGothic-3d" transform="translate(196.923828 0)"/>
     <use xlink:href="#IPAexGothic-20" transform="translate(264.746094 0)"/>
     <use xlink:href="#IPAexGothic-30" transform="translate(291.748047 0)"/>
     <use xlink:href="#IPAexGothic-2e" transform="translate(354.736328 0)"/>
     <use xlink:href="#IPAexGothic-30" transform="translate(381.152344 0)"/>
    </g>
    <!-- samples = 15 -->
    <g transform="translate(125.301482 430.722687) scale(0.156935 -0.156935)">
     <use xlink:href="#IPAexGothic-73"/>
     <use xlink:href="#IPAexGothic-61" transform="translate(46.191406 0)"/>
     <use xlink:href="#IPAexGothic-6d" transform="translate(101.171875 0)"/>
     <use xlink:href="#IPAexGothic-70" transform="translate(188.28125 0)"/>
     <use xlink:href="#IPAexGothic-6c" transform="translate(250.390625 0)"/>
     <use xlink:href="#IPAexGothic-65" transform="translate(277.392578 0)"/>
     <use xlink:href="#IPAexGothic-73" transform="translate(334.277344 0)"/>
     <use xlink:href="#IPAexGothic-20" transform="translate(380.46875 0)"/>
     <use xlink:href="#IPAexGothic-3d" transform="translate(407.470703 0)"/>
     <use xlink:href="#IPAexGothic-20" transform="translate(475.292969 0)"/>
     <use xlink:href="#IPAexGothic-31" transform="translate(502.294922 0)"/>
     <use xlink:href="#IPAexGothic-35" transform="translate(565.283203 0)"/>
    </g>
    <!-- value = [15, 0] -->
    <g transform="translate(121.867297 447.810976) scale(0.156935 -0.156935)">
     <use xlink:href="#IPAexGothic-76"/>
     <use xlink:href="#IPAexGothic-61" transform="translate(48.583984 0)"/>
     <use xlink:href="#IPAexGothic-6c" transform="translate(103.564453 0)"/>
     <use xlink:href="#IPAexGothic-75" transform="translate(130.566406 0)"/>
     <use xlink:href="#IPAexGothic-65" transform="translate(190.966797 0)"/>
     <use xlink:href="#IPAexGothic-20" transform="translate(247.851562 0)"/>
     <use xlink:href="#IPAexGothic-3d" transform="translate(274.853516 0)"/>
     <use xlink:href="#IPAexGothic-20" transform="translate(342.675781 0)"/>
     <use xlink:href="#IPAexGothic-5b" transform="translate(369.677734 0)"/>
     <use xlink:href="#IPAexGothic-31" transform="translate(399.658203 0)"/>
     <use xlink:href="#IPAexGothic-35" transform="translate(462.646484 0)"/>
     <use xlink:href="#IPAexGothic-2c" transform="translate(525.634766 0)"/>
     <use xlink:href="#IPAexGothic-20" transform="translate(552.050781 0)"/>
     <use xlink:href="#IPAexGothic-30" transform="translate(579.052734 0)"/>
     <use xlink:href="#IPAexGothic-5d" transform="translate(642.041016 0)"/>
    </g>
    <!-- class = A -->
    <g transform="translate(142.091104 464.899265) scale(0.156935 -0.156935)">
     <use xlink:href="#IPAexGothic-63"/>
     <use xlink:href="#IPAexGothic-6c" transform="translate(54.394531 0)"/>
     <use xlink:href="#IPAexGothic-61" transform="translate(81.396484 0)"/>
     <use xlink:href="#IPAexGothic-73" transform="translate(136.376953 0)"/>
     <use xlink:href="#IPAexGothic-73" transform="translate(182.568359 0)"/>
     <use xlink:href="#IPAexGothic-20" transform="translate(228.759766 0)"/>
     <use xlink:href="#IPAexGothic-3d" transform="translate(255.761719 0)"/>
     <use xlink:href="#IPAexGothic-20" transform="translate(323.583984 0)"/>
     <use xlink:href="#IPAexGothic-41" transform="translate(350.585938 0)"/>
    </g>
   </g>
   <g id="patch_12">
    <path d="M 297.340603 384.169975 
Q 278.851381 363.175762 259.623233 341.342509 
" style="fill: none; stroke: #000000; stroke-linecap: round"/>
    <path d="M 295.547232 377.38461 
L 297.340603 384.169975 
L 290.836288 381.533452 
" style="fill: none; stroke: #000000; stroke-linecap: round"/>
   </g>
   <g id="text_6">
    <g id="patch_13">
     <path d="M 287.412273 482.747955 
L 396.587727 482.747955 
L 396.587727 387.012045 
L 287.412273 387.012045 
z
" style="fill: #9ccef2; stroke: #000000; stroke-linejoin: miter"/>
    </g>
    <!-- x1 &lt;= -0.713 -->
    <g transform="translate(293.689684 405.044889) scale(0.156935 -0.156935)">
     <defs>
      <path id="IPAexGothic-37" d="M 3597 4263 
Q 2238 2106 1778 63 
L 1131 63 
Q 1581 1834 2950 4128 
L 428 4128 
L 428 4634 
L 3597 4634 
L 3597 4263 
z
" transform="scale(0.015625)"/>
      <path id="IPAexGothic-33" d="M 2381 2419 
Q 3506 2216 3506 1278 
Q 3506 716 3128 356 
Q 2709 -31 1944 -31 
Q 797 -31 288 881 
L 756 1131 
Q 1109 441 1938 441 
Q 2425 441 2694 691 
Q 2950 928 2950 1291 
Q 2950 1719 2566 1978 
Q 2216 2213 1644 2213 
L 1363 2213 
L 1363 2669 
L 1656 2669 
Q 2231 2669 2534 2888 
Q 2859 3119 2859 3509 
Q 2859 3934 2494 4138 
Q 2259 4278 1931 4278 
Q 1238 4278 903 3578 
L 434 3803 
Q 897 4725 1938 4725 
Q 2597 4725 3006 4394 
Q 3416 4069 3416 3534 
Q 3416 3028 3019 2706 
Q 2763 2500 2381 2444 
L 2381 2419 
z
" transform="scale(0.015625)"/>
     </defs>
     <use xlink:href="#IPAexGothic-78"/>
     <use xlink:href="#IPAexGothic-31" transform="translate(48.876953 0)"/>
     <use xlink:href="#IPAexGothic-20" transform="translate(111.865234 0)"/>
     <use xlink:href="#IPAexGothic-3c" transform="translate(138.867188 0)"/>
     <use xlink:href="#IPAexGothic-3d" transform="translate(206.689453 0)"/>
     <use xlink:href="#IPAexGothic-20" transform="translate(274.511719 0)"/>
     <use xlink:href="#IPAexGothic-2d" transform="translate(301.513672 0)"/>
     <use xlink:href="#IPAexGothic-30" transform="translate(337.304688 0)"/>
     <use xlink:href="#IPAexGothic-2e" transform="translate(400.292969 0)"/>
     <use xlink:href="#IPAexGothic-37" transform="translate(426.708984 0)"/>
     <use xlink:href="#IPAexGothic-31" transform="translate(489.697266 0)"/>
     <use xlink:href="#IPAexGothic-33" transform="translate(552.685547 0)"/>
    </g>
    <!-- gini = 0.444 -->
    <g transform="translate(297.264865 422.133178) scale(0.156935 -0.156935)">
     <use xlink:href="#IPAexGothic-67"/>
     <use xlink:href="#IPAexGothic-69" transform="translate(55.517578 0)"/>
     <use xlink:href="#IPAexGothic-6e" transform="translate(82.519531 0)"/>
     <use xlink:href="#IPAexGothic-69" transform="translate(142.919922 0)"/>
     <use xlink:href="#IPAexGothic-20" transform="translate(169.921875 0)"/>
     <use xlink:href="#IPAexGothic-3d" transform="translate(196.923828 0)"/>
     <use xlink:href="#IPAexGothic-20" transform="translate(264.746094 0)"/>
     <use xlink:href="#IPAexGothic-30" transform="translate(291.748047 0)"/>
     <use xlink:href="#IPAexGothic-2e" transform="translate(354.736328 0)"/>
     <use xlink:href="#IPAexGothic-34" transform="translate(381.152344 0)"/>
     <use xlink:href="#IPAexGothic-34" transform="translate(444.140625 0)"/>
     <use xlink:href="#IPAexGothic-34" transform="translate(507.128906 0)"/>
    </g>
    <!-- samples = 3 -->
    <g transform="translate(297.643717 439.312195) scale(0.156935 -0.156935)">
     <use xlink:href="#IPAexGothic-73"/>
     <use xlink:href="#IPAexGothic-61" transform="translate(46.191406 0)"/>
     <use xlink:href="#IPAexGothic-6d" transform="translate(101.171875 0)"/>
     <use xlink:href="#IPAexGothic-70" transform="translate(188.28125 0)"/>
     <use xlink:href="#IPAexGothic-6c" transform="translate(250.390625 0)"/>
     <use xlink:href="#IPAexGothic-65" transform="translate(277.392578 0)"/>
     <use xlink:href="#IPAexGothic-73" transform="translate(334.277344 0)"/>
     <use xlink:href="#IPAexGothic-20" transform="translate(380.46875 0)"/>
     <use xlink:href="#IPAexGothic-3d" transform="translate(407.470703 0)"/>
     <use xlink:href="#IPAexGothic-20" transform="translate(475.292969 0)"/>
     <use xlink:href="#IPAexGothic-33" transform="translate(502.294922 0)"/>
    </g>
    <!-- value = [1, 2] -->
    <g transform="translate(294.209532 456.400485) scale(0.156935 -0.156935)">
     <use xlink:href="#IPAexGothic-76"/>
     <use xlink:href="#IPAexGothic-61" transform="translate(48.583984 0)"/>
     <use xlink:href="#IPAexGothic-6c" transform="translate(103.564453 0)"/>
     <use xlink:href="#IPAexGothic-75" transform="translate(130.566406 0)"/>
     <use xlink:href="#IPAexGothic-65" transform="translate(190.966797 0)"/>
     <use xlink:href="#IPAexGothic-20" transform="translate(247.851562 0)"/>
     <use xlink:href="#IPAexGothic-3d" transform="translate(274.853516 0)"/>
     <use xlink:href="#IPAexGothic-20" transform="translate(342.675781 0)"/>
     <use xlink:href="#IPAexGothic-5b" transform="translate(369.677734 0)"/>
     <use xlink:href="#IPAexGothic-31" transform="translate(399.658203 0)"/>
     <use xlink:href="#IPAexGothic-2c" transform="translate(462.646484 0)"/>
     <use xlink:href="#IPAexGothic-20" transform="translate(489.0625 0)"/>
     <use xlink:href="#IPAexGothic-32" transform="translate(516.064453 0)"/>
     <use xlink:href="#IPAexGothic-5d" transform="translate(579.052734 0)"/>
    </g>
    <!-- class = B -->
    <g transform="translate(309.31823 473.488774) scale(0.156935 -0.156935)">
     <use xlink:href="#IPAexGothic-63"/>
     <use xlink:href="#IPAexGothic-6c" transform="translate(54.394531 0)"/>
     <use xlink:href="#IPAexGothic-61" transform="translate(81.396484 0)"/>
     <use xlink:href="#IPAexGothic-73" transform="translate(136.376953 0)"/>
     <use xlink:href="#IPAexGothic-73" transform="translate(182.568359 0)"/>
     <use xlink:href="#IPAexGothic-20" transform="translate(228.759766 0)"/>
     <use xlink:href="#IPAexGothic-3d" transform="translate(255.761719 0)"/>
     <use xlink:href="#IPAexGothic-20" transform="translate(323.583984 0)"/>
     <use xlink:href="#IPAexGothic-42" transform="translate(350.585938 0)"/>
    </g>
   </g>
   <g id="patch_14">
    <path d="M 128.072802 297.630883 
Q 150.304854 272.386746 173.275833 246.30357 
" style="fill: none; stroke: #000000; stroke-linecap: round"/>
    <path d="M 134.577116 294.994361 
L 128.072802 297.630883 
L 129.866172 290.845518 
" style="fill: none; stroke: #000000; stroke-linecap: round"/>
   </g>
   <g id="text_7">
    <g id="patch_15">
     <path d="M 31.889886 379.118446 
L 149.910114 379.118446 
L 149.910114 300.470826 
L 31.889886 300.470826 
z
" style="fill: #e58139; stroke: #000000; stroke-linejoin: miter"/>
    </g>
    <!-- gini = 0.0 -->
    <g transform="translate(56.049335 318.503669) scale(0.156935 -0.156935)">
     <use xlink:href="#IPAexGothic-67"/>
     <use xlink:href="#IPAexGothic-69" transform="translate(55.517578 0)"/>
     <use xlink:href="#IPAexGothic-6e" transform="translate(82.519531 0)"/>
     <use xlink:href="#IPAexGothic-69" transform="translate(142.919922 0)"/>
     <use xlink:href="#IPAexGothic-20" transform="translate(169.921875 0)"/>
     <use xlink:href="#IPAexGothic-3d" transform="translate(196.923828 0)"/>
     <use xlink:href="#IPAexGothic-20" transform="translate(264.746094 0)"/>
     <use xlink:href="#IPAexGothic-30" transform="translate(291.748047 0)"/>
     <use xlink:href="#IPAexGothic-2e" transform="translate(354.736328 0)"/>
     <use xlink:href="#IPAexGothic-30" transform="translate(381.152344 0)"/>
    </g>
    <!-- samples = 34 -->
    <g transform="translate(41.601482 335.682687) scale(0.156935 -0.156935)">
     <use xlink:href="#IPAexGothic-73"/>
     <use xlink:href="#IPAexGothic-61" transform="translate(46.191406 0)"/>
     <use xlink:href="#IPAexGothic-6d" transform="translate(101.171875 0)"/>
     <use xlink:href="#IPAexGothic-70" transform="translate(188.28125 0)"/>
     <use xlink:href="#IPAexGothic-6c" transform="translate(250.390625 0)"/>
     <use xlink:href="#IPAexGothic-65" transform="translate(277.392578 0)"/>
     <use xlink:href="#IPAexGothic-73" transform="translate(334.277344 0)"/>
     <use xlink:href="#IPAexGothic-20" transform="translate(380.46875 0)"/>
     <use xlink:href="#IPAexGothic-3d" transform="translate(407.470703 0)"/>
     <use xlink:href="#IPAexGothic-20" transform="translate(475.292969 0)"/>
     <use xlink:href="#IPAexGothic-33" transform="translate(502.294922 0)"/>
     <use xlink:href="#IPAexGothic-34" transform="translate(565.283203 0)"/>
    </g>
    <!-- value = [34, 0] -->
    <g transform="translate(38.167297 352.770976) scale(0.156935 -0.156935)">
     <use xlink:href="#IPAexGothic-76"/>
     <use xlink:href="#IPAexGothic-61" transform="translate(48.583984 0)"/>
     <use xlink:href="#IPAexGothic-6c" transform="translate(103.564453 0)"/>
     <use xlink:href="#IPAexGothic-75" transform="translate(130.566406 0)"/>
     <use xlink:href="#IPAexGothic-65" transform="translate(190.966797 0)"/>
     <use xlink:href="#IPAexGothic-20" transform="translate(247.851562 0)"/>
     <use xlink:href="#IPAexGothic-3d" transform="translate(274.853516 0)"/>
     <use xlink:href="#IPAexGothic-20" transform="translate(342.675781 0)"/>
     <use xlink:href="#IPAexGothic-5b" transform="translate(369.677734 0)"/>
     <use xlink:href="#IPAexGothic-33" transform="translate(399.658203 0)"/>
     <use xlink:href="#IPAexGothic-34" transform="translate(462.646484 0)"/>
     <use xlink:href="#IPAexGothic-2c" transform="translate(525.634766 0)"/>
     <use xlink:href="#IPAexGothic-20" transform="translate(552.050781 0)"/>
     <use xlink:href="#IPAexGothic-30" transform="translate(579.052734 0)"/>
     <use xlink:href="#IPAexGothic-5d" transform="translate(642.041016 0)"/>
    </g>
    <!-- class = A -->
    <g transform="translate(58.391104 369.859265) scale(0.156935 -0.156935)">
     <use xlink:href="#IPAexGothic-63"/>
     <use xlink:href="#IPAexGothic-6c" transform="translate(54.394531 0)"/>
     <use xlink:href="#IPAexGothic-61" transform="translate(81.396484 0)"/>
     <use xlink:href="#IPAexGothic-73" transform="translate(136.376953 0)"/>
     <use xlink:href="#IPAexGothic-73" transform="translate(182.568359 0)"/>
     <use xlink:href="#IPAexGothic-20" transform="translate(228.759766 0)"/>
     <use xlink:href="#IPAexGothic-3d" transform="translate(255.761719 0)"/>
     <use xlink:href="#IPAexGothic-20" transform="translate(323.583984 0)"/>
     <use xlink:href="#IPAexGothic-41" transform="translate(350.585938 0)"/>
    </g>
   </g>
   <g id="patch_16">
    <path d="M 213.640603 289.129975 
Q 195.151381 268.135762 175.923233 246.302509 
" style="fill: none; stroke: #000000; stroke-linecap: round"/>
    <path d="M 211.847232 282.34461 
L 213.640603 289.129975 
L 207.136288 286.493452 
" style="fill: none; stroke: #000000; stroke-linecap: round"/>
   </g>
   <g id="text_8">
    <g id="patch_17">
     <path d="M 199.289886 387.707955 
L 317.310114 387.707955 
L 317.310114 291.972045 
L 199.289886 291.972045 
z
" style="fill: #e89152; stroke: #000000; stroke-linejoin: miter"/>
    </g>
    <!-- x1 &lt;= -0.868 -->
    <g transform="translate(209.989684 310.004889) scale(0.156935 -0.156935)">
     <defs>
      <path id="IPAexGothic-36" d="M 1056 2328 
Q 1509 2981 2234 2981 
Q 2906 2981 3316 2513 
Q 3675 2106 3675 1522 
Q 3675 884 3272 434 
Q 2853 -31 2178 -31 
Q 1375 -31 922 581 
Q 481 1178 481 2228 
Q 481 3425 1013 4109 
Q 1494 4725 2272 4725 
Q 3191 4725 3609 4025 
L 3150 3775 
Q 2894 4266 2300 4266 
Q 1119 4266 1031 2328 
L 1056 2328 
z
M 2141 2547 
Q 1684 2547 1384 2206 
Q 1116 1900 1116 1541 
Q 1116 1156 1353 844 
Q 1672 428 2159 428 
Q 2669 428 2941 844 
Q 3125 1128 3125 1503 
Q 3125 1944 2881 2228 
Q 2600 2547 2141 2547 
z
" transform="scale(0.015625)"/>
     </defs>
     <use xlink:href="#IPAexGothic-78"/>
     <use xlink:href="#IPAexGothic-31" transform="translate(48.876953 0)"/>
     <use xlink:href="#IPAexGothic-20" transform="translate(111.865234 0)"/>
     <use xlink:href="#IPAexGothic-3c" transform="translate(138.867188 0)"/>
     <use xlink:href="#IPAexGothic-3d" transform="translate(206.689453 0)"/>
     <use xlink:href="#IPAexGothic-20" transform="translate(274.511719 0)"/>
     <use xlink:href="#IPAexGothic-2d" transform="translate(301.513672 0)"/>
     <use xlink:href="#IPAexGothic-30" transform="translate(337.304688 0)"/>
     <use xlink:href="#IPAexGothic-2e" transform="translate(400.292969 0)"/>
     <use xlink:href="#IPAexGothic-38" transform="translate(426.708984 0)"/>
     <use xlink:href="#IPAexGothic-36" transform="translate(489.697266 0)"/>
     <use xlink:href="#IPAexGothic-38" transform="translate(552.685547 0)"/>
    </g>
    <!-- gini = 0.198 -->
    <g transform="translate(213.564865 327.093178) scale(0.156935 -0.156935)">
     <defs>
      <path id="IPAexGothic-39" d="M 2984 2356 
Q 2544 1716 1813 1716 
Q 1253 1716 847 2056 
Q 366 2459 366 3163 
Q 366 3813 769 4266 
Q 1181 4725 1869 4725 
Q 2800 4725 3241 3950 
Q 3559 3378 3559 2472 
Q 3559 1250 3041 588 
Q 2553 -31 1769 -31 
Q 859 -31 391 703 
L 853 953 
Q 1156 428 1753 428 
Q 2922 428 3009 2356 
L 2984 2356 
z
M 1888 4278 
Q 1450 4278 1172 3950 
Q 922 3653 922 3200 
Q 922 2741 1159 2478 
Q 1434 2163 1906 2163 
Q 2431 2163 2728 2572 
Q 2925 2847 2925 3169 
Q 2925 3553 2694 3863 
Q 2375 4278 1888 4278 
z
" transform="scale(0.015625)"/>
     </defs>
     <use xlink:href="#IPAexGothic-67"/>
     <use xlink:href="#IPAexGothic-69" transform="translate(55.517578 0)"/>
     <use xlink:href="#IPAexGothic-6e" transform="translate(82.519531 0)"/>
     <use xlink:href="#IPAexGothic-69" transform="translate(142.919922 0)"/>
     <use xlink:href="#IPAexGothic-20" transform="translate(169.921875 0)"/>
     <use xlink:href="#IPAexGothic-3d" transform="translate(196.923828 0)"/>
     <use xlink:href="#IPAexGothic-20" transform="translate(264.746094 0)"/>
     <use xlink:href="#IPAexGothic-30" transform="translate(291.748047 0)"/>
     <use xlink:href="#IPAexGothic-2e" transform="translate(354.736328 0)"/>
     <use xlink:href="#IPAexGothic-31" transform="translate(381.152344 0)"/>
     <use xlink:href="#IPAexGothic-39" transform="translate(444.140625 0)"/>
     <use xlink:href="#IPAexGothic-38" transform="translate(507.128906 0)"/>
    </g>
    <!-- samples = 18 -->
    <g transform="translate(209.001482 344.272195) scale(0.156935 -0.156935)">
     <use xlink:href="#IPAexGothic-73"/>
     <use xlink:href="#IPAexGothic-61" transform="translate(46.191406 0)"/>
     <use xlink:href="#IPAexGothic-6d" transform="translate(101.171875 0)"/>
     <use xlink:href="#IPAexGothic-70" transform="translate(188.28125 0)"/>
     <use xlink:href="#IPAexGothic-6c" transform="translate(250.390625 0)"/>
     <use xlink:href="#IPAexGothic-65" transform="translate(277.392578 0)"/>
     <use xlink:href="#IPAexGothic-73" transform="translate(334.277344 0)"/>
     <use xlink:href="#IPAexGothic-20" transform="translate(380.46875 0)"/>
     <use xlink:href="#IPAexGothic-3d" transform="translate(407.470703 0)"/>
     <use xlink:href="#IPAexGothic-20" transform="translate(475.292969 0)"/>
     <use xlink:href="#IPAexGothic-31" transform="translate(502.294922 0)"/>
     <use xlink:href="#IPAexGothic-38" transform="translate(565.283203 0)"/>
    </g>
    <!-- value = [16, 2] -->
    <g transform="translate(205.567297 361.360485) scale(0.156935 -0.156935)">
     <use xlink:href="#IPAexGothic-76"/>
     <use xlink:href="#IPAexGothic-61" transform="translate(48.583984 0)"/>
     <use xlink:href="#IPAexGothic-6c" transform="translate(103.564453 0)"/>
     <use xlink:href="#IPAexGothic-75" transform="translate(130.566406 0)"/>
     <use xlink:href="#IPAexGothic-65" transform="translate(190.966797 0)"/>
     <use xlink:href="#IPAexGothic-20" transform="translate(247.851562 0)"/>
     <use xlink:href="#IPAexGothic-3d" transform="translate(274.853516 0)"/>
     <use xlink:href="#IPAexGothic-20" transform="translate(342.675781 0)"/>
     <use xlink:href="#IPAexGothic-5b" transform="translate(369.677734 0)"/>
     <use xlink:href="#IPAexGothic-31" transform="translate(399.658203 0)"/>
     <use xlink:href="#IPAexGothic-36" transform="translate(462.646484 0)"/>
     <use xlink:href="#IPAexGothic-2c" transform="translate(525.634766 0)"/>
     <use xlink:href="#IPAexGothic-20" transform="translate(552.050781 0)"/>
     <use xlink:href="#IPAexGothic-32" transform="translate(579.052734 0)"/>
     <use xlink:href="#IPAexGothic-5d" transform="translate(642.041016 0)"/>
    </g>
    <!-- class = A -->
    <g transform="translate(225.791104 378.448774) scale(0.156935 -0.156935)">
     <use xlink:href="#IPAexGothic-63"/>
     <use xlink:href="#IPAexGothic-6c" transform="translate(54.394531 0)"/>
     <use xlink:href="#IPAexGothic-61" transform="translate(81.396484 0)"/>
     <use xlink:href="#IPAexGothic-73" transform="translate(136.376953 0)"/>
     <use xlink:href="#IPAexGothic-73" transform="translate(182.568359 0)"/>
     <use xlink:href="#IPAexGothic-20" transform="translate(228.759766 0)"/>
     <use xlink:href="#IPAexGothic-3d" transform="translate(255.761719 0)"/>
     <use xlink:href="#IPAexGothic-20" transform="translate(323.583984 0)"/>
     <use xlink:href="#IPAexGothic-41" transform="translate(350.585938 0)"/>
    </g>
   </g>
   <g id="patch_18">
    <path d="M 462.872802 297.630883 
Q 485.104854 272.386746 508.075833 246.30357 
" style="fill: none; stroke: #000000; stroke-linecap: round"/>
    <path d="M 469.377116 294.994361 
L 462.872802 297.630883 
L 464.666172 290.845518 
" style="fill: none; stroke: #000000; stroke-linecap: round"/>
   </g>
   <g id="text_9">
    <g id="patch_19">
     <path d="M 371.632121 379.118446 
L 479.767879 379.118446 
L 479.767879 300.470826 
L 371.632121 300.470826 
z
" style="fill: #e58139; stroke: #000000; stroke-linejoin: miter"/>
    </g>
    <!-- gini = 0.0 -->
    <g transform="translate(390.849335 318.503669) scale(0.156935 -0.156935)">
     <use xlink:href="#IPAexGothic-67"/>
     <use xlink:href="#IPAexGothic-69" transform="translate(55.517578 0)"/>
     <use xlink:href="#IPAexGothic-6e" transform="translate(82.519531 0)"/>
     <use xlink:href="#IPAexGothic-69" transform="translate(142.919922 0)"/>
     <use xlink:href="#IPAexGothic-20" transform="translate(169.921875 0)"/>
     <use xlink:href="#IPAexGothic-3d" transform="translate(196.923828 0)"/>
     <use xlink:href="#IPAexGothic-20" transform="translate(264.746094 0)"/>
     <use xlink:href="#IPAexGothic-30" transform="translate(291.748047 0)"/>
     <use xlink:href="#IPAexGothic-2e" transform="translate(354.736328 0)"/>
     <use xlink:href="#IPAexGothic-30" transform="translate(381.152344 0)"/>
    </g>
    <!-- samples = 1 -->
    <g transform="translate(381.343717 335.682687) scale(0.156935 -0.156935)">
     <use xlink:href="#IPAexGothic-73"/>
     <use xlink:href="#IPAexGothic-61" transform="translate(46.191406 0)"/>
     <use xlink:href="#IPAexGothic-6d" transform="translate(101.171875 0)"/>
     <use xlink:href="#IPAexGothic-70" transform="translate(188.28125 0)"/>
     <use xlink:href="#IPAexGothic-6c" transform="translate(250.390625 0)"/>
     <use xlink:href="#IPAexGothic-65" transform="translate(277.392578 0)"/>
     <use xlink:href="#IPAexGothic-73" transform="translate(334.277344 0)"/>
     <use xlink:href="#IPAexGothic-20" transform="translate(380.46875 0)"/>
     <use xlink:href="#IPAexGothic-3d" transform="translate(407.470703 0)"/>
     <use xlink:href="#IPAexGothic-20" transform="translate(475.292969 0)"/>
     <use xlink:href="#IPAexGothic-31" transform="translate(502.294922 0)"/>
    </g>
    <!-- value = [1, 0] -->
    <g transform="translate(377.909532 352.770976) scale(0.156935 -0.156935)">
     <use xlink:href="#IPAexGothic-76"/>
     <use xlink:href="#IPAexGothic-61" transform="translate(48.583984 0)"/>
     <use xlink:href="#IPAexGothic-6c" transform="translate(103.564453 0)"/>
     <use xlink:href="#IPAexGothic-75" transform="translate(130.566406 0)"/>
     <use xlink:href="#IPAexGothic-65" transform="translate(190.966797 0)"/>
     <use xlink:href="#IPAexGothic-20" transform="translate(247.851562 0)"/>
     <use xlink:href="#IPAexGothic-3d" transform="translate(274.853516 0)"/>
     <use xlink:href="#IPAexGothic-20" transform="translate(342.675781 0)"/>
     <use xlink:href="#IPAexGothic-5b" transform="translate(369.677734 0)"/>
     <use xlink:href="#IPAexGothic-31" transform="translate(399.658203 0)"/>
     <use xlink:href="#IPAexGothic-2c" transform="translate(462.646484 0)"/>
     <use xlink:href="#IPAexGothic-20" transform="translate(489.0625 0)"/>
     <use xlink:href="#IPAexGothic-30" transform="translate(516.064453 0)"/>
     <use xlink:href="#IPAexGothic-5d" transform="translate(579.052734 0)"/>
    </g>
    <!-- class = A -->
    <g transform="translate(393.191104 369.859265) scale(0.156935 -0.156935)">
     <use xlink:href="#IPAexGothic-63"/>
     <use xlink:href="#IPAexGothic-6c" transform="translate(54.394531 0)"/>
     <use xlink:href="#IPAexGothic-61" transform="translate(81.396484 0)"/>
     <use xlink:href="#IPAexGothic-73" transform="translate(136.376953 0)"/>
     <use xlink:href="#IPAexGothic-73" transform="translate(182.568359 0)"/>
     <use xlink:href="#IPAexGothic-20" transform="translate(228.759766 0)"/>
     <use xlink:href="#IPAexGothic-3d" transform="translate(255.761719 0)"/>
     <use xlink:href="#IPAexGothic-20" transform="translate(323.583984 0)"/>
     <use xlink:href="#IPAexGothic-41" transform="translate(350.585938 0)"/>
    </g>
   </g>
   <g id="patch_20">
    <path d="M 555.927198 297.630883 
Q 533.695146 272.386746 510.724167 246.30357 
" style="fill: none; stroke: #000000; stroke-linecap: round"/>
    <path d="M 554.133828 290.845518 
L 555.927198 297.630883 
L 549.422884 294.994361 
" style="fill: none; stroke: #000000; stroke-linecap: round"/>
   </g>
   <g id="text_10">
    <g id="patch_21">
     <path d="M 539.032121 379.118446 
L 647.167879 379.118446 
L 647.167879 300.470826 
L 539.032121 300.470826 
z
" style="fill: #399de5; stroke: #000000; stroke-linejoin: miter"/>
    </g>
    <!-- gini = 0.0 -->
    <g transform="translate(558.249335 318.503669) scale(0.156935 -0.156935)">
     <use xlink:href="#IPAexGothic-67"/>
     <use xlink:href="#IPAexGothic-69" transform="translate(55.517578 0)"/>
     <use xlink:href="#IPAexGothic-6e" transform="translate(82.519531 0)"/>
     <use xlink:href="#IPAexGothic-69" transform="translate(142.919922 0)"/>
     <use xlink:href="#IPAexGothic-20" transform="translate(169.921875 0)"/>
     <use xlink:href="#IPAexGothic-3d" transform="translate(196.923828 0)"/>
     <use xlink:href="#IPAexGothic-20" transform="translate(264.746094 0)"/>
     <use xlink:href="#IPAexGothic-30" transform="translate(291.748047 0)"/>
     <use xlink:href="#IPAexGothic-2e" transform="translate(354.736328 0)"/>
     <use xlink:href="#IPAexGothic-30" transform="translate(381.152344 0)"/>
    </g>
    <!-- samples = 5 -->
    <g transform="translate(548.743717 335.682687) scale(0.156935 -0.156935)">
     <use xlink:href="#IPAexGothic-73"/>
     <use xlink:href="#IPAexGothic-61" transform="translate(46.191406 0)"/>
     <use xlink:href="#IPAexGothic-6d" transform="translate(101.171875 0)"/>
     <use xlink:href="#IPAexGothic-70" transform="translate(188.28125 0)"/>
     <use xlink:href="#IPAexGothic-6c" transform="translate(250.390625 0)"/>
     <use xlink:href="#IPAexGothic-65" transform="translate(277.392578 0)"/>
     <use xlink:href="#IPAexGothic-73" transform="translate(334.277344 0)"/>
     <use xlink:href="#IPAexGothic-20" transform="translate(380.46875 0)"/>
     <use xlink:href="#IPAexGothic-3d" transform="translate(407.470703 0)"/>
     <use xlink:href="#IPAexGothic-20" transform="translate(475.292969 0)"/>
     <use xlink:href="#IPAexGothic-35" transform="translate(502.294922 0)"/>
    </g>
    <!-- value = [0, 5] -->
    <g transform="translate(545.309532 352.770976) scale(0.156935 -0.156935)">
     <use xlink:href="#IPAexGothic-76"/>
     <use xlink:href="#IPAexGothic-61" transform="translate(48.583984 0)"/>
     <use xlink:href="#IPAexGothic-6c" transform="translate(103.564453 0)"/>
     <use xlink:href="#IPAexGothic-75" transform="translate(130.566406 0)"/>
     <use xlink:href="#IPAexGothic-65" transform="translate(190.966797 0)"/>
     <use xlink:href="#IPAexGothic-20" transform="translate(247.851562 0)"/>
     <use xlink:href="#IPAexGothic-3d" transform="translate(274.853516 0)"/>
     <use xlink:href="#IPAexGothic-20" transform="translate(342.675781 0)"/>
     <use xlink:href="#IPAexGothic-5b" transform="translate(369.677734 0)"/>
     <use xlink:href="#IPAexGothic-30" transform="translate(399.658203 0)"/>
     <use xlink:href="#IPAexGothic-2c" transform="translate(462.646484 0)"/>
     <use xlink:href="#IPAexGothic-20" transform="translate(489.0625 0)"/>
     <use xlink:href="#IPAexGothic-35" transform="translate(516.064453 0)"/>
     <use xlink:href="#IPAexGothic-5d" transform="translate(579.052734 0)"/>
    </g>
    <!-- class = B -->
    <g transform="translate(560.41823 369.859265) scale(0.156935 -0.156935)">
     <use xlink:href="#IPAexGothic-63"/>
     <use xlink:href="#IPAexGothic-6c" transform="translate(54.394531 0)"/>
     <use xlink:href="#IPAexGothic-61" transform="translate(81.396484 0)"/>
     <use xlink:href="#IPAexGothic-73" transform="translate(136.376953 0)"/>
     <use xlink:href="#IPAexGothic-73" transform="translate(182.568359 0)"/>
     <use xlink:href="#IPAexGothic-20" transform="translate(228.759766 0)"/>
     <use xlink:href="#IPAexGothic-3d" transform="translate(255.761719 0)"/>
     <use xlink:href="#IPAexGothic-20" transform="translate(323.583984 0)"/>
     <use xlink:href="#IPAexGothic-42" transform="translate(350.585938 0)"/>
    </g>
   </g>
   <g id="patch_22">
    <path d="M 236.822075 209.473919 
Q 288.055113 180.386774 340.260417 150.747634 
" style="fill: none; stroke: #000000; stroke-linecap: round"/>
    <path d="M 243.830684 209.104118 
L 236.822075 209.473919 
L 240.7314 203.645151 
" style="fill: none; stroke: #000000; stroke-linecap: round"/>
   </g>
   <g id="text_11">
    <g id="patch_23">
     <path d="M 115.589886 292.667955 
L 233.610114 292.667955 
L 233.610114 196.932045 
L 115.589886 196.932045 
z
" style="fill: #e68641; stroke: #000000; stroke-linejoin: miter"/>
    </g>
    <!-- x2 &lt;= 0.992 -->
    <g transform="translate(129.09858 214.964889) scale(0.156935 -0.156935)">
     <use xlink:href="#IPAexGothic-78"/>
     <use xlink:href="#IPAexGothic-32" transform="translate(48.876953 0)"/>
     <use xlink:href="#IPAexGothic-20" transform="translate(111.865234 0)"/>
     <use xlink:href="#IPAexGothic-3c" transform="translate(138.867188 0)"/>
     <use xlink:href="#IPAexGothic-3d" transform="translate(206.689453 0)"/>
     <use xlink:href="#IPAexGothic-20" transform="translate(274.511719 0)"/>
     <use xlink:href="#IPAexGothic-30" transform="translate(301.513672 0)"/>
     <use xlink:href="#IPAexGothic-2e" transform="translate(364.501953 0)"/>
     <use xlink:href="#IPAexGothic-39" transform="translate(390.917969 0)"/>
     <use xlink:href="#IPAexGothic-39" transform="translate(453.90625 0)"/>
     <use xlink:href="#IPAexGothic-32" transform="translate(516.894531 0)"/>
    </g>
    <!-- gini = 0.074 -->
    <g transform="translate(129.864865 232.053178) scale(0.156935 -0.156935)">
     <use xlink:href="#IPAexGothic-67"/>
     <use xlink:href="#IPAexGothic-69" transform="translate(55.517578 0)"/>
     <use xlink:href="#IPAexGothic-6e" transform="translate(82.519531 0)"/>
     <use xlink:href="#IPAexGothic-69" transform="translate(142.919922 0)"/>
     <use xlink:href="#IPAexGothic-20" transform="translate(169.921875 0)"/>
     <use xlink:href="#IPAexGothic-3d" transform="translate(196.923828 0)"/>
     <use xlink:href="#IPAexGothic-20" transform="translate(264.746094 0)"/>
     <use xlink:href="#IPAexGothic-30" transform="translate(291.748047 0)"/>
     <use xlink:href="#IPAexGothic-2e" transform="translate(354.736328 0)"/>
     <use xlink:href="#IPAexGothic-30" transform="translate(381.152344 0)"/>
     <use xlink:href="#IPAexGothic-37" transform="translate(444.140625 0)"/>
     <use xlink:href="#IPAexGothic-34" transform="translate(507.128906 0)"/>
    </g>
    <!-- samples = 52 -->
    <g transform="translate(125.301482 249.232195) scale(0.156935 -0.156935)">
     <use xlink:href="#IPAexGothic-73"/>
     <use xlink:href="#IPAexGothic-61" transform="translate(46.191406 0)"/>
     <use xlink:href="#IPAexGothic-6d" transform="translate(101.171875 0)"/>
     <use xlink:href="#IPAexGothic-70" transform="translate(188.28125 0)"/>
     <use xlink:href="#IPAexGothic-6c" transform="translate(250.390625 0)"/>
     <use xlink:href="#IPAexGothic-65" transform="translate(277.392578 0)"/>
     <use xlink:href="#IPAexGothic-73" transform="translate(334.277344 0)"/>
     <use xlink:href="#IPAexGothic-20" transform="translate(380.46875 0)"/>
     <use xlink:href="#IPAexGothic-3d" transform="translate(407.470703 0)"/>
     <use xlink:href="#IPAexGothic-20" transform="translate(475.292969 0)"/>
     <use xlink:href="#IPAexGothic-35" transform="translate(502.294922 0)"/>
     <use xlink:href="#IPAexGothic-32" transform="translate(565.283203 0)"/>
    </g>
    <!-- value = [50, 2] -->
    <g transform="translate(121.867297 266.320485) scale(0.156935 -0.156935)">
     <use xlink:href="#IPAexGothic-76"/>
     <use xlink:href="#IPAexGothic-61" transform="translate(48.583984 0)"/>
     <use xlink:href="#IPAexGothic-6c" transform="translate(103.564453 0)"/>
     <use xlink:href="#IPAexGothic-75" transform="translate(130.566406 0)"/>
     <use xlink:href="#IPAexGothic-65" transform="translate(190.966797 0)"/>
     <use xlink:href="#IPAexGothic-20" transform="translate(247.851562 0)"/>
     <use xlink:href="#IPAexGothic-3d" transform="translate(274.853516 0)"/>
     <use xlink:href="#IPAexGothic-20" transform="translate(342.675781 0)"/>
     <use xlink:href="#IPAexGothic-5b" transform="translate(369.677734 0)"/>
     <use xlink:href="#IPAexGothic-35" transform="translate(399.658203 0)"/>
     <use xlink:href="#IPAexGothic-30" transform="translate(462.646484 0)"/>
     <use xlink:href="#IPAexGothic-2c" transform="translate(525.634766 0)"/>
     <use xlink:href="#IPAexGothic-20" transform="translate(552.050781 0)"/>
     <use xlink:href="#IPAexGothic-32" transform="translate(579.052734 0)"/>
     <use xlink:href="#IPAexGothic-5d" transform="translate(642.041016 0)"/>
    </g>
    <!-- class = A -->
    <g transform="translate(142.091104 283.408774) scale(0.156935 -0.156935)">
     <use xlink:href="#IPAexGothic-63"/>
     <use xlink:href="#IPAexGothic-6c" transform="translate(54.394531 0)"/>
     <use xlink:href="#IPAexGothic-61" transform="translate(81.396484 0)"/>
     <use xlink:href="#IPAexGothic-73" transform="translate(136.376953 0)"/>
     <use xlink:href="#IPAexGothic-73" transform="translate(182.568359 0)"/>
     <use xlink:href="#IPAexGothic-20" transform="translate(228.759766 0)"/>
     <use xlink:href="#IPAexGothic-3d" transform="translate(255.761719 0)"/>
     <use xlink:href="#IPAexGothic-20" transform="translate(323.583984 0)"/>
     <use xlink:href="#IPAexGothic-41" transform="translate(350.585938 0)"/>
    </g>
   </g>
   <g id="patch_24">
    <path d="M 451.600966 211.985064 
Q 398.155531 181.64185 343.73783 150.746639 
" style="fill: none; stroke: #000000; stroke-linecap: round"/>
    <path d="M 447.691641 206.156296 
L 451.600966 211.985064 
L 444.592356 211.615263 
" style="fill: none; stroke: #000000; stroke-linecap: round"/>
   </g>
   <g id="text_12">
    <g id="patch_25">
     <path d="M 454.812273 292.667955 
L 563.987727 292.667955 
L 563.987727 196.932045 
L 454.812273 196.932045 
z
" style="fill: #61b1ea; stroke: #000000; stroke-linejoin: miter"/>
    </g>
    <!-- x1 &lt;= -1.517 -->
    <g transform="translate(461.089684 214.964889) scale(0.156935 -0.156935)">
     <use xlink:href="#IPAexGothic-78"/>
     <use xlink:href="#IPAexGothic-31" transform="translate(48.876953 0)"/>
     <use xlink:href="#IPAexGothic-20" transform="translate(111.865234 0)"/>
     <use xlink:href="#IPAexGothic-3c" transform="translate(138.867188 0)"/>
     <use xlink:href="#IPAexGothic-3d" transform="translate(206.689453 0)"/>
     <use xlink:href="#IPAexGothic-20" transform="translate(274.511719 0)"/>
     <use xlink:href="#IPAexGothic-2d" transform="translate(301.513672 0)"/>
     <use xlink:href="#IPAexGothic-31" transform="translate(337.304688 0)"/>
     <use xlink:href="#IPAexGothic-2e" transform="translate(400.292969 0)"/>
     <use xlink:href="#IPAexGothic-35" transform="translate(426.708984 0)"/>
     <use xlink:href="#IPAexGothic-31" transform="translate(489.697266 0)"/>
     <use xlink:href="#IPAexGothic-37" transform="translate(552.685547 0)"/>
    </g>
    <!-- gini = 0.278 -->
    <g transform="translate(464.664865 232.053178) scale(0.156935 -0.156935)">
     <use xlink:href="#IPAexGothic-67"/>
     <use xlink:href="#IPAexGothic-69" transform="translate(55.517578 0)"/>
     <use xlink:href="#IPAexGothic-6e" transform="translate(82.519531 0)"/>
     <use xlink:href="#IPAexGothic-69" transform="translate(142.919922 0)"/>
     <use xlink:href="#IPAexGothic-20" transform="translate(169.921875 0)"/>
     <use xlink:href="#IPAexGothic-3d" transform="translate(196.923828 0)"/>
     <use xlink:href="#IPAexGothic-20" transform="translate(264.746094 0)"/>
     <use xlink:href="#IPAexGothic-30" transform="translate(291.748047 0)"/>
     <use xlink:href="#IPAexGothic-2e" transform="translate(354.736328 0)"/>
     <use xlink:href="#IPAexGothic-32" transform="translate(381.152344 0)"/>
     <use xlink:href="#IPAexGothic-37" transform="translate(444.140625 0)"/>
     <use xlink:href="#IPAexGothic-38" transform="translate(507.128906 0)"/>
    </g>
    <!-- samples = 6 -->
    <g transform="translate(465.043717 249.232195) scale(0.156935 -0.156935)">
     <use xlink:href="#IPAexGothic-73"/>
     <use xlink:href="#IPAexGothic-61" transform="translate(46.191406 0)"/>
     <use xlink:href="#IPAexGothic-6d" transform="translate(101.171875 0)"/>
     <use xlink:href="#IPAexGothic-70" transform="translate(188.28125 0)"/>
     <use xlink:href="#IPAexGothic-6c" transform="translate(250.390625 0)"/>
     <use xlink:href="#IPAexGothic-65" transform="translate(277.392578 0)"/>
     <use xlink:href="#IPAexGothic-73" transform="translate(334.277344 0)"/>
     <use xlink:href="#IPAexGothic-20" transform="translate(380.46875 0)"/>
     <use xlink:href="#IPAexGothic-3d" transform="translate(407.470703 0)"/>
     <use xlink:href="#IPAexGothic-20" transform="translate(475.292969 0)"/>
     <use xlink:href="#IPAexGothic-36" transform="translate(502.294922 0)"/>
    </g>
    <!-- value = [1, 5] -->
    <g transform="translate(461.609532 266.320485) scale(0.156935 -0.156935)">
     <use xlink:href="#IPAexGothic-76"/>
     <use xlink:href="#IPAexGothic-61" transform="translate(48.583984 0)"/>
     <use xlink:href="#IPAexGothic-6c" transform="translate(103.564453 0)"/>
     <use xlink:href="#IPAexGothic-75" transform="translate(130.566406 0)"/>
     <use xlink:href="#IPAexGothic-65" transform="translate(190.966797 0)"/>
     <use xlink:href="#IPAexGothic-20" transform="translate(247.851562 0)"/>
     <use xlink:href="#IPAexGothic-3d" transform="translate(274.853516 0)"/>
     <use xlink:href="#IPAexGothic-20" transform="translate(342.675781 0)"/>
     <use xlink:href="#IPAexGothic-5b" transform="translate(369.677734 0)"/>
     <use xlink:href="#IPAexGothic-31" transform="translate(399.658203 0)"/>
     <use xlink:href="#IPAexGothic-2c" transform="translate(462.646484 0)"/>
     <use xlink:href="#IPAexGothic-20" transform="translate(489.0625 0)"/>
     <use xlink:href="#IPAexGothic-35" transform="translate(516.064453 0)"/>
     <use xlink:href="#IPAexGothic-5d" transform="translate(579.052734 0)"/>
    </g>
    <!-- class = B -->
    <g transform="translate(476.71823 283.408774) scale(0.156935 -0.156935)">
     <use xlink:href="#IPAexGothic-63"/>
     <use xlink:href="#IPAexGothic-6c" transform="translate(54.394531 0)"/>
     <use xlink:href="#IPAexGothic-61" transform="translate(81.396484 0)"/>
     <use xlink:href="#IPAexGothic-73" transform="translate(136.376953 0)"/>
     <use xlink:href="#IPAexGothic-73" transform="translate(182.568359 0)"/>
     <use xlink:href="#IPAexGothic-20" transform="translate(228.759766 0)"/>
     <use xlink:href="#IPAexGothic-3d" transform="translate(255.761719 0)"/>
     <use xlink:href="#IPAexGothic-20" transform="translate(323.583984 0)"/>
     <use xlink:href="#IPAexGothic-42" transform="translate(350.585938 0)"/>
    </g>
   </g>
   <g id="patch_26">
    <path d="M 386.659397 99.049975 
Q 405.148619 78.055762 424.376767 56.222509 
" style="fill: none; stroke: #000000; stroke-linecap: round"/>
    <path d="M 393.163712 96.413452 
L 386.659397 99.049975 
L 388.452768 92.26461 
" style="fill: none; stroke: #000000; stroke-linecap: round"/>
   </g>
   <g id="text_13">
    <g id="patch_27">
     <path d="M 282.989886 197.627955 
L 401.010114 197.627955 
L 401.010114 101.892045 
L 282.989886 101.892045 
z
" style="fill: #e99254; stroke: #000000; stroke-linejoin: miter"/>
    </g>
    <!-- x2 &lt;= 2.392 -->
    <g transform="translate(296.49858 119.924889) scale(0.156935 -0.156935)">
     <use xlink:href="#IPAexGothic-78"/>
     <use xlink:href="#IPAexGothic-32" transform="translate(48.876953 0)"/>
     <use xlink:href="#IPAexGothic-20" transform="translate(111.865234 0)"/>
     <use xlink:href="#IPAexGothic-3c" transform="translate(138.867188 0)"/>
     <use xlink:href="#IPAexGothic-3d" transform="translate(206.689453 0)"/>
     <use xlink:href="#IPAexGothic-20" transform="translate(274.511719 0)"/>
     <use xlink:href="#IPAexGothic-32" transform="translate(301.513672 0)"/>
     <use xlink:href="#IPAexGothic-2e" transform="translate(364.501953 0)"/>
     <use xlink:href="#IPAexGothic-33" transform="translate(390.917969 0)"/>
     <use xlink:href="#IPAexGothic-39" transform="translate(453.90625 0)"/>
     <use xlink:href="#IPAexGothic-32" transform="translate(516.894531 0)"/>
    </g>
    <!-- gini = 0.212 -->
    <g transform="translate(297.264865 137.013178) scale(0.156935 -0.156935)">
     <use xlink:href="#IPAexGothic-67"/>
     <use xlink:href="#IPAexGothic-69" transform="translate(55.517578 0)"/>
     <use xlink:href="#IPAexGothic-6e" transform="translate(82.519531 0)"/>
     <use xlink:href="#IPAexGothic-69" transform="translate(142.919922 0)"/>
     <use xlink:href="#IPAexGothic-20" transform="translate(169.921875 0)"/>
     <use xlink:href="#IPAexGothic-3d" transform="translate(196.923828 0)"/>
     <use xlink:href="#IPAexGothic-20" transform="translate(264.746094 0)"/>
     <use xlink:href="#IPAexGothic-30" transform="translate(291.748047 0)"/>
     <use xlink:href="#IPAexGothic-2e" transform="translate(354.736328 0)"/>
     <use xlink:href="#IPAexGothic-32" transform="translate(381.152344 0)"/>
     <use xlink:href="#IPAexGothic-31" transform="translate(444.140625 0)"/>
     <use xlink:href="#IPAexGothic-32" transform="translate(507.128906 0)"/>
    </g>
    <!-- samples = 58 -->
    <g transform="translate(292.701482 154.192195) scale(0.156935 -0.156935)">
     <use xlink:href="#IPAexGothic-73"/>
     <use xlink:href="#IPAexGothic-61" transform="translate(46.191406 0)"/>
     <use xlink:href="#IPAexGothic-6d" transform="translate(101.171875 0)"/>
     <use xlink:href="#IPAexGothic-70" transform="translate(188.28125 0)"/>
     <use xlink:href="#IPAexGothic-6c" transform="translate(250.390625 0)"/>
     <use xlink:href="#IPAexGothic-65" transform="translate(277.392578 0)"/>
     <use xlink:href="#IPAexGothic-73" transform="translate(334.277344 0)"/>
     <use xlink:href="#IPAexGothic-20" transform="translate(380.46875 0)"/>
     <use xlink:href="#IPAexGothic-3d" transform="translate(407.470703 0)"/>
     <use xlink:href="#IPAexGothic-20" transform="translate(475.292969 0)"/>
     <use xlink:href="#IPAexGothic-35" transform="translate(502.294922 0)"/>
     <use xlink:href="#IPAexGothic-38" transform="translate(565.283203 0)"/>
    </g>
    <!-- value = [51, 7] -->
    <g transform="translate(289.267297 171.280485) scale(0.156935 -0.156935)">
     <use xlink:href="#IPAexGothic-76"/>
     <use xlink:href="#IPAexGothic-61" transform="translate(48.583984 0)"/>
     <use xlink:href="#IPAexGothic-6c" transform="translate(103.564453 0)"/>
     <use xlink:href="#IPAexGothic-75" transform="translate(130.566406 0)"/>
     <use xlink:href="#IPAexGothic-65" transform="translate(190.966797 0)"/>
     <use xlink:href="#IPAexGothic-20" transform="translate(247.851562 0)"/>
     <use xlink:href="#IPAexGothic-3d" transform="translate(274.853516 0)"/>
     <use xlink:href="#IPAexGothic-20" transform="translate(342.675781 0)"/>
     <use xlink:href="#IPAexGothic-5b" transform="translate(369.677734 0)"/>
     <use xlink:href="#IPAexGothic-35" transform="translate(399.658203 0)"/>
     <use xlink:href="#IPAexGothic-31" transform="translate(462.646484 0)"/>
     <use xlink:href="#IPAexGothic-2c" transform="translate(525.634766 0)"/>
     <use xlink:href="#IPAexGothic-20" transform="translate(552.050781 0)"/>
     <use xlink:href="#IPAexGothic-37" transform="translate(579.052734 0)"/>
     <use xlink:href="#IPAexGothic-5d" transform="translate(642.041016 0)"/>
    </g>
    <!-- class = A -->
    <g transform="translate(309.491104 188.368774) scale(0.156935 -0.156935)">
     <use xlink:href="#IPAexGothic-63"/>
     <use xlink:href="#IPAexGothic-6c" transform="translate(54.394531 0)"/>
     <use xlink:href="#IPAexGothic-61" transform="translate(81.396484 0)"/>
     <use xlink:href="#IPAexGothic-73" transform="translate(136.376953 0)"/>
     <use xlink:href="#IPAexGothic-73" transform="translate(182.568359 0)"/>
     <use xlink:href="#IPAexGothic-20" transform="translate(228.759766 0)"/>
     <use xlink:href="#IPAexGothic-3d" transform="translate(255.761719 0)"/>
     <use xlink:href="#IPAexGothic-20" transform="translate(323.583984 0)"/>
     <use xlink:href="#IPAexGothic-41" transform="translate(350.585938 0)"/>
    </g>
   </g>
   <g id="text_14">
    <!-- True   -->
    <g transform="translate(341.757018 102.24) scale(0.156935 -0.156935)">
     <defs>
      <path id="IPAexGothic-54" d="M 3866 4141 
L 2175 4141 
L 2175 63 
L 1606 63 
L 1606 4141 
L -31 4141 
L -31 4634 
L 3866 4634 
L 3866 4141 
z
" transform="scale(0.015625)"/>
      <path id="IPAexGothic-72" d="M 2309 3316 
L 2213 2769 
Q 2106 2791 2022 2791 
Q 1653 2791 1413 2444 
Q 1113 2006 1113 1675 
L 1113 63 
L 563 63 
L 563 3250 
L 1081 3250 
L 1056 2303 
L 1069 2303 
Q 1422 3341 2097 3341 
Q 2206 3341 2309 3316 
z
" transform="scale(0.015625)"/>
     </defs>
     <use xlink:href="#IPAexGothic-54"/>
     <use xlink:href="#IPAexGothic-72" transform="translate(59.912109 0)"/>
     <use xlink:href="#IPAexGothic-75" transform="translate(96.923828 0)"/>
     <use xlink:href="#IPAexGothic-65" transform="translate(157.324219 0)"/>
     <use xlink:href="#IPAexGothic-20" transform="translate(214.208984 0)"/>
     <use xlink:href="#IPAexGothic-20" transform="translate(241.210938 0)"/>
    </g>
   </g>
   <g id="patch_28">
    <path d="M 472.227198 107.550883 
Q 449.995146 82.306746 427.024167 56.22357 
" style="fill: none; stroke: #000000; stroke-linecap: round"/>
    <path d="M 470.433828 100.765518 
L 472.227198 107.550883 
L 465.722884 104.914361 
" style="fill: none; stroke: #000000; stroke-linecap: round"/>
   </g>
   <g id="text_15">
    <g id="patch_29">
     <path d="M 450.389886 189.038446 
L 568.410114 189.038446 
L 568.410114 110.390826 
L 450.389886 110.390826 
z
" style="fill: #399de5; stroke: #000000; stroke-linejoin: miter"/>
    </g>
    <!-- gini = 0.0 -->
    <g transform="translate(474.549335 128.423669) scale(0.156935 -0.156935)">
     <use xlink:href="#IPAexGothic-67"/>
     <use xlink:href="#IPAexGothic-69" transform="translate(55.517578 0)"/>
     <use xlink:href="#IPAexGothic-6e" transform="translate(82.519531 0)"/>
     <use xlink:href="#IPAexGothic-69" transform="translate(142.919922 0)"/>
     <use xlink:href="#IPAexGothic-20" transform="translate(169.921875 0)"/>
     <use xlink:href="#IPAexGothic-3d" transform="translate(196.923828 0)"/>
     <use xlink:href="#IPAexGothic-20" transform="translate(264.746094 0)"/>
     <use xlink:href="#IPAexGothic-30" transform="translate(291.748047 0)"/>
     <use xlink:href="#IPAexGothic-2e" transform="translate(354.736328 0)"/>
     <use xlink:href="#IPAexGothic-30" transform="translate(381.152344 0)"/>
    </g>
    <!-- samples = 42 -->
    <g transform="translate(460.101482 145.602687) scale(0.156935 -0.156935)">
     <use xlink:href="#IPAexGothic-73"/>
     <use xlink:href="#IPAexGothic-61" transform="translate(46.191406 0)"/>
     <use xlink:href="#IPAexGothic-6d" transform="translate(101.171875 0)"/>
     <use xlink:href="#IPAexGothic-70" transform="translate(188.28125 0)"/>
     <use xlink:href="#IPAexGothic-6c" transform="translate(250.390625 0)"/>
     <use xlink:href="#IPAexGothic-65" transform="translate(277.392578 0)"/>
     <use xlink:href="#IPAexGothic-73" transform="translate(334.277344 0)"/>
     <use xlink:href="#IPAexGothic-20" transform="translate(380.46875 0)"/>
     <use xlink:href="#IPAexGothic-3d" transform="translate(407.470703 0)"/>
     <use xlink:href="#IPAexGothic-20" transform="translate(475.292969 0)"/>
     <use xlink:href="#IPAexGothic-34" transform="translate(502.294922 0)"/>
     <use xlink:href="#IPAexGothic-32" transform="translate(565.283203 0)"/>
    </g>
    <!-- value = [0, 42] -->
    <g transform="translate(456.667297 162.690976) scale(0.156935 -0.156935)">
     <use xlink:href="#IPAexGothic-76"/>
     <use xlink:href="#IPAexGothic-61" transform="translate(48.583984 0)"/>
     <use xlink:href="#IPAexGothic-6c" transform="translate(103.564453 0)"/>
     <use xlink:href="#IPAexGothic-75" transform="translate(130.566406 0)"/>
     <use xlink:href="#IPAexGothic-65" transform="translate(190.966797 0)"/>
     <use xlink:href="#IPAexGothic-20" transform="translate(247.851562 0)"/>
     <use xlink:href="#IPAexGothic-3d" transform="translate(274.853516 0)"/>
     <use xlink:href="#IPAexGothic-20" transform="translate(342.675781 0)"/>
     <use xlink:href="#IPAexGothic-5b" transform="translate(369.677734 0)"/>
     <use xlink:href="#IPAexGothic-30" transform="translate(399.658203 0)"/>
     <use xlink:href="#IPAexGothic-2c" transform="translate(462.646484 0)"/>
     <use xlink:href="#IPAexGothic-20" transform="translate(489.0625 0)"/>
     <use xlink:href="#IPAexGothic-34" transform="translate(516.064453 0)"/>
     <use xlink:href="#IPAexGothic-32" transform="translate(579.052734 0)"/>
     <use xlink:href="#IPAexGothic-5d" transform="translate(642.041016 0)"/>
    </g>
    <!-- class = B -->
    <g transform="translate(476.71823 179.779265) scale(0.156935 -0.156935)">
     <use xlink:href="#IPAexGothic-63"/>
     <use xlink:href="#IPAexGothic-6c" transform="translate(54.394531 0)"/>
     <use xlink:href="#IPAexGothic-61" transform="translate(81.396484 0)"/>
     <use xlink:href="#IPAexGothic-73" transform="translate(136.376953 0)"/>
     <use xlink:href="#IPAexGothic-73" transform="translate(182.568359 0)"/>
     <use xlink:href="#IPAexGothic-20" transform="translate(228.759766 0)"/>
     <use xlink:href="#IPAexGothic-3d" transform="translate(255.761719 0)"/>
     <use xlink:href="#IPAexGothic-20" transform="translate(323.583984 0)"/>
     <use xlink:href="#IPAexGothic-42" transform="translate(350.585938 0)"/>
    </g>
   </g>
   <g id="text_16">
    <!--   False -->
    <g transform="translate(467.55 102.24) scale(0.156935 -0.156935)">
     <defs>
      <path id="IPAexGothic-46" d="M 3469 4141 
L 1172 4141 
L 1172 2656 
L 3206 2656 
L 3206 2188 
L 1172 2188 
L 1172 63 
L 609 63 
L 609 4634 
L 3469 4634 
L 3469 4141 
z
" transform="scale(0.015625)"/>
     </defs>
     <use xlink:href="#IPAexGothic-20"/>
     <use xlink:href="#IPAexGothic-20" transform="translate(27.001953 0)"/>
     <use xlink:href="#IPAexGothic-46" transform="translate(54.003906 0)"/>
     <use xlink:href="#IPAexGothic-61" transform="translate(111.181641 0)"/>
     <use xlink:href="#IPAexGothic-6c" transform="translate(166.162109 0)"/>
     <use xlink:href="#IPAexGothic-73" transform="translate(193.164062 0)"/>
     <use xlink:href="#IPAexGothic-65" transform="translate(239.355469 0)"/>
    </g>
   </g>
   <g id="patch_30">
    <path d="M 425.7 54.72 
Q 425.7 54.72 425.7 54.72 
" style="fill: none; stroke: #000000; stroke-linecap: round"/>
   </g>
   <g id="text_17">
    <g id="patch_31">
     <path d="M 361.747651 102.587955 
L 489.652349 102.587955 
L 489.652349 6.852045 
L 361.747651 6.852045 
z
" style="fill: #fefaf7; stroke: #000000; stroke-linejoin: miter"/>
    </g>
    <!-- x1 &lt;= 0.063 -->
    <g transform="translate(380.19858 24.884889) scale(0.156935 -0.156935)">
     <use xlink:href="#IPAexGothic-78"/>
     <use xlink:href="#IPAexGothic-31" transform="translate(48.876953 0)"/>
     <use xlink:href="#IPAexGothic-20" transform="translate(111.865234 0)"/>
     <use xlink:href="#IPAexGothic-3c" transform="translate(138.867188 0)"/>
     <use xlink:href="#IPAexGothic-3d" transform="translate(206.689453 0)"/>
     <use xlink:href="#IPAexGothic-20" transform="translate(274.511719 0)"/>
     <use xlink:href="#IPAexGothic-30" transform="translate(301.513672 0)"/>
     <use xlink:href="#IPAexGothic-2e" transform="translate(364.501953 0)"/>
     <use xlink:href="#IPAexGothic-30" transform="translate(390.917969 0)"/>
     <use xlink:href="#IPAexGothic-36" transform="translate(453.90625 0)"/>
     <use xlink:href="#IPAexGothic-33" transform="translate(516.894531 0)"/>
    </g>
    <!-- gini = 0.5 -->
    <g transform="translate(390.849335 41.973178) scale(0.156935 -0.156935)">
     <use xlink:href="#IPAexGothic-67"/>
     <use xlink:href="#IPAexGothic-69" transform="translate(55.517578 0)"/>
     <use xlink:href="#IPAexGothic-6e" transform="translate(82.519531 0)"/>
     <use xlink:href="#IPAexGothic-69" transform="translate(142.919922 0)"/>
     <use xlink:href="#IPAexGothic-20" transform="translate(169.921875 0)"/>
     <use xlink:href="#IPAexGothic-3d" transform="translate(196.923828 0)"/>
     <use xlink:href="#IPAexGothic-20" transform="translate(264.746094 0)"/>
     <use xlink:href="#IPAexGothic-30" transform="translate(291.748047 0)"/>
     <use xlink:href="#IPAexGothic-2e" transform="translate(354.736328 0)"/>
     <use xlink:href="#IPAexGothic-35" transform="translate(381.152344 0)"/>
    </g>
    <!-- samples = 100 -->
    <g transform="translate(371.459247 59.152195) scale(0.156935 -0.156935)">
     <use xlink:href="#IPAexGothic-73"/>
     <use xlink:href="#IPAexGothic-61" transform="translate(46.191406 0)"/>
     <use xlink:href="#IPAexGothic-6d" transform="translate(101.171875 0)"/>
     <use xlink:href="#IPAexGothic-70" transform="translate(188.28125 0)"/>
     <use xlink:href="#IPAexGothic-6c" transform="translate(250.390625 0)"/>
     <use xlink:href="#IPAexGothic-65" transform="translate(277.392578 0)"/>
     <use xlink:href="#IPAexGothic-73" transform="translate(334.277344 0)"/>
     <use xlink:href="#IPAexGothic-20" transform="translate(380.46875 0)"/>
     <use xlink:href="#IPAexGothic-3d" transform="translate(407.470703 0)"/>
     <use xlink:href="#IPAexGothic-20" transform="translate(475.292969 0)"/>
     <use xlink:href="#IPAexGothic-31" transform="translate(502.294922 0)"/>
     <use xlink:href="#IPAexGothic-30" transform="translate(565.283203 0)"/>
     <use xlink:href="#IPAexGothic-30" transform="translate(628.271484 0)"/>
    </g>
    <!-- value = [51, 49] -->
    <g transform="translate(368.025062 76.240485) scale(0.156935 -0.156935)">
     <use xlink:href="#IPAexGothic-76"/>
     <use xlink:href="#IPAexGothic-61" transform="translate(48.583984 0)"/>
     <use xlink:href="#IPAexGothic-6c" transform="translate(103.564453 0)"/>
     <use xlink:href="#IPAexGothic-75" transform="translate(130.566406 0)"/>
     <use xlink:href="#IPAexGothic-65" transform="translate(190.966797 0)"/>
     <use xlink:href="#IPAexGothic-20" transform="translate(247.851562 0)"/>
     <use xlink:href="#IPAexGothic-3d" transform="translate(274.853516 0)"/>
     <use xlink:href="#IPAexGothic-20" transform="translate(342.675781 0)"/>
     <use xlink:href="#IPAexGothic-5b" transform="translate(369.677734 0)"/>
     <use xlink:href="#IPAexGothic-35" transform="translate(399.658203 0)"/>
     <use xlink:href="#IPAexGothic-31" transform="translate(462.646484 0)"/>
     <use xlink:href="#IPAexGothic-2c" transform="translate(525.634766 0)"/>
     <use xlink:href="#IPAexGothic-20" transform="translate(552.050781 0)"/>
     <use xlink:href="#IPAexGothic-34" transform="translate(579.052734 0)"/>
     <use xlink:href="#IPAexGothic-39" transform="translate(642.041016 0)"/>
     <use xlink:href="#IPAexGothic-5d" transform="translate(705.029297 0)"/>
    </g>
    <!-- class = A -->
    <g transform="translate(393.191104 93.328774) scale(0.156935 -0.156935)">
     <use xlink:href="#IPAexGothic-63"/>
     <use xlink:href="#IPAexGothic-6c" transform="translate(54.394531 0)"/>
     <use xlink:href="#IPAexGothic-61" transform="translate(81.396484 0)"/>
     <use xlink:href="#IPAexGothic-73" transform="translate(136.376953 0)"/>
     <use xlink:href="#IPAexGothic-73" transform="translate(182.568359 0)"/>
     <use xlink:href="#IPAexGothic-20" transform="translate(228.759766 0)"/>
     <use xlink:href="#IPAexGothic-3d" transform="translate(255.761719 0)"/>
     <use xlink:href="#IPAexGothic-20" transform="translate(323.583984 0)"/>
     <use xlink:href="#IPAexGothic-41" transform="translate(350.585938 0)"/>
    </g>
   </g>
  </g>
 </g>
</svg>
