<?xml version="1.0" encoding="utf-8" standalone="no"?>
<!DOCTYPE svg PUBLIC "-//W3C//DTD SVG 1.1//EN"
  "http://www.w3.org/Graphics/SVG/1.1/DTD/svg11.dtd">
<svg xmlns:xlink="http://www.w3.org/1999/xlink" width="498.40375pt" height="510.776925pt" viewBox="0 0 498.40375 510.776925" xmlns="http://www.w3.org/2000/svg" version="1.1">
 <metadata>
  <rdf:RDF xmlns:dc="http://purl.org/dc/elements/1.1/" xmlns:cc="http://creativecommons.org/ns#" xmlns:rdf="http://www.w3.org/1999/02/22-rdf-syntax-ns#">
   <cc:Work>
    <dc:type rdf:resource="http://purl.org/dc/dcmitype/StillImage"/>
    <dc:date>2025-10-29T22:59:46.774060</dc:date>
    <dc:format>image/svg+xml</dc:format>
    <dc:creator>
     <cc:Agent>
      <dc:title>Matplotlib v3.10.7, https://matplotlib.org/</dc:title>
     </cc:Agent>
    </dc:creator>
   </cc:Work>
  </rdf:RDF>
 </metadata>
 <defs>
  <style type="text/css">*{stroke-linejoin: round; stroke-linecap: butt}</style>
 </defs>
 <g id="figure_1">
  <g id="patch_1">
   <path d="M 0 510.776925 
L 498.40375 510.776925 
L 498.40375 0 
L 0 0 
z
" style="fill: #ffffff"/>
  </g>
  <g id="axes_1">
   <g id="patch_2">
    <path d="M 44.80375 469.6638 
L 491.20375 469.6638 
L 491.20375 26.1438 
L 44.80375 26.1438 
z
" style="fill: #ffffff"/>
   </g>
   <g id="QuadContourSet_1">
    <path d="M 51.671442 469.6638 
L 58.539135 469.6638 
L 65.406827 469.6638 
L 72.274519 469.6638 
L 79.142212 469.6638 
L 86.009904 469.6638 
L 92.877596 469.6638 
L 99.745288 469.6638 
L 106.612981 469.6638 
L 113.480673 469.6638 
L 120.348365 469.6638 
L 127.216058 469.6638 
L 134.08375 469.6638 
L 140.951442 469.6638 
L 147.819135 469.6638 
L 154.686827 469.6638 
L 161.554519 469.6638 
L 168.422212 469.6638 
L 175.289904 469.6638 
L 182.157596 469.6638 
L 189.025288 469.6638 
L 195.892981 469.6638 
L 202.760673 469.6638 
L 209.628365 469.6638 
L 216.496058 469.6638 
L 223.36375 469.6638 
L 230.231442 469.6638 
L 237.099135 469.6638 
L 243.966827 469.6638 
L 250.834519 469.6638 
L 251.864673 469.6638 
L 251.864673 464.789954 
L 251.864673 459.916108 
L 251.864673 455.042262 
L 251.864673 450.168415 
L 251.864673 445.294569 
L 251.864673 440.420723 
L 251.864673 435.546877 
L 251.864673 430.673031 
L 251.864673 425.799185 
L 251.864673 420.925338 
L 251.864673 416.051492 
L 251.864673 411.177646 
L 251.864673 406.3038 
L 251.864673 401.429954 
L 251.864673 396.556108 
L 251.864673 391.682262 
L 251.864673 386.808415 
L 251.864673 381.934569 
L 251.864673 377.060723 
L 251.864673 372.186877 
L 251.864673 367.313031 
L 251.864673 362.439185 
L 251.864673 357.565338 
L 251.864673 352.691492 
L 251.864673 347.817646 
L 251.864673 342.9438 
L 251.864673 338.069954 
L 251.864673 333.196108 
L 251.864673 328.322262 
L 251.864673 323.448415 
L 251.864673 318.574569 
L 251.864673 313.700723 
L 251.864673 308.826877 
L 251.864673 303.953031 
L 251.864673 299.079185 
L 251.864673 294.205338 
L 250.834519 293.474262 
L 243.966827 293.474262 
L 237.099135 293.474262 
L 230.231442 293.474262 
L 223.36375 293.474262 
L 216.496058 293.474262 
L 210.658519 289.331492 
L 210.658519 284.457646 
L 210.658519 279.5838 
L 210.658519 274.709954 
L 210.658519 269.836108 
L 210.658519 264.962262 
L 210.658519 260.088415 
L 210.658519 255.214569 
L 210.658519 250.340723 
L 210.658519 245.466877 
L 210.658519 240.593031 
L 210.658519 235.719185 
L 210.658519 230.845338 
L 210.658519 225.971492 
L 209.628365 225.240415 
L 202.760673 225.240415 
L 201.730519 225.971492 
L 201.730519 230.845338 
L 201.730519 235.719185 
L 201.730519 240.593031 
L 201.730519 245.466877 
L 201.730519 250.340723 
L 201.730519 255.214569 
L 201.730519 260.088415 
L 201.730519 264.962262 
L 201.730519 269.836108 
L 201.730519 274.709954 
L 201.730519 279.5838 
L 201.730519 284.457646 
L 201.730519 289.331492 
L 195.892981 293.474262 
L 189.025288 293.474262 
L 183.18775 289.331492 
L 183.18775 284.457646 
L 183.18775 279.5838 
L 183.18775 274.709954 
L 183.18775 269.836108 
L 183.18775 264.962262 
L 183.18775 260.088415 
L 183.18775 255.214569 
L 183.18775 250.340723 
L 183.18775 245.466877 
L 183.18775 240.593031 
L 183.18775 235.719185 
L 183.18775 230.845338 
L 183.18775 225.971492 
L 182.157596 225.240415 
L 175.289904 225.240415 
L 168.422212 225.240415 
L 161.554519 225.240415 
L 154.686827 225.240415 
L 147.819135 225.240415 
L 141.981596 221.097646 
L 141.981596 216.2238 
L 141.981596 211.349954 
L 141.981596 206.476108 
L 141.981596 201.602262 
L 141.981596 196.728415 
L 141.981596 191.854569 
L 141.981596 186.980723 
L 141.981596 182.106877 
L 141.981596 177.233031 
L 141.981596 172.359185 
L 141.981596 167.485338 
L 141.981596 162.611492 
L 141.981596 157.737646 
L 141.981596 152.8638 
L 141.981596 147.989954 
L 141.981596 143.116108 
L 141.981596 138.242262 
L 141.981596 133.368415 
L 141.981596 128.494569 
L 141.981596 123.620723 
L 141.981596 118.746877 
L 141.981596 113.873031 
L 141.981596 108.999185 
L 141.981596 104.125338 
L 141.981596 99.251492 
L 141.981596 94.377646 
L 141.981596 89.5038 
L 141.981596 84.629954 
L 141.981596 79.756108 
L 141.981596 74.882262 
L 141.981596 70.008415 
L 141.981596 65.134569 
L 141.981596 60.260723 
L 141.981596 55.386877 
L 141.981596 50.513031 
L 141.981596 45.639185 
L 141.981596 40.765338 
L 141.981596 35.891492 
L 141.981596 31.017646 
L 141.981596 26.1438 
L 140.951442 26.1438 
L 134.08375 26.1438 
L 127.216058 26.1438 
L 120.348365 26.1438 
L 113.480673 26.1438 
L 106.612981 26.1438 
L 99.745288 26.1438 
L 92.877596 26.1438 
L 86.009904 26.1438 
L 79.142212 26.1438 
L 72.274519 26.1438 
L 65.406827 26.1438 
L 58.539135 26.1438 
L 51.671442 26.1438 
L 44.80375 26.1438 
L 44.80375 31.017646 
L 44.80375 35.891492 
L 44.80375 40.765338 
L 44.80375 45.639185 
L 44.80375 50.513031 
L 44.80375 55.386877 
L 44.80375 60.260723 
L 44.80375 65.134569 
L 44.80375 70.008415 
L 44.80375 74.882262 
L 44.80375 79.756108 
L 44.80375 84.629954 
L 44.80375 89.5038 
L 44.80375 94.377646 
L 44.80375 99.251492 
L 44.80375 104.125338 
L 44.80375 108.999185 
L 44.80375 113.873031 
L 44.80375 118.746877 
L 44.80375 123.620723 
L 44.80375 128.494569 
L 44.80375 133.368415 
L 44.80375 138.242262 
L 44.80375 143.116108 
L 44.80375 147.989954 
L 44.80375 152.8638 
L 44.80375 157.737646 
L 44.80375 162.611492 
L 44.80375 167.485338 
L 44.80375 172.359185 
L 44.80375 177.233031 
L 44.80375 182.106877 
L 44.80375 186.980723 
L 44.80375 191.854569 
L 44.80375 196.728415 
L 44.80375 201.602262 
L 44.80375 206.476108 
L 44.80375 211.349954 
L 44.80375 216.2238 
L 44.80375 221.097646 
L 44.80375 225.971492 
L 44.80375 230.845338 
L 44.80375 235.719185 
L 44.80375 240.593031 
L 44.80375 245.466877 
L 44.80375 250.340723 
L 44.80375 255.214569 
L 44.80375 260.088415 
L 44.80375 264.962262 
L 44.80375 269.836108 
L 44.80375 274.709954 
L 44.80375 279.5838 
L 44.80375 284.457646 
L 44.80375 289.331492 
L 44.80375 294.205338 
L 44.80375 299.079185 
L 44.80375 303.953031 
L 44.80375 308.826877 
L 44.80375 313.700723 
L 44.80375 318.574569 
L 44.80375 323.448415 
L 44.80375 328.322262 
L 44.80375 333.196108 
L 44.80375 338.069954 
L 44.80375 342.9438 
L 44.80375 347.817646 
L 44.80375 352.691492 
L 44.80375 357.565338 
L 44.80375 362.439185 
L 44.80375 367.313031 
L 44.80375 372.186877 
L 44.80375 377.060723 
L 44.80375 381.934569 
L 44.80375 386.808415 
L 44.80375 391.682262 
L 44.80375 396.556108 
L 44.80375 401.429954 
L 44.80375 406.3038 
L 44.80375 411.177646 
L 44.80375 416.051492 
L 44.80375 420.925338 
L 44.80375 425.799185 
L 44.80375 430.673031 
L 44.80375 435.546877 
L 44.80375 440.420723 
L 44.80375 445.294569 
L 44.80375 450.168415 
L 44.80375 455.042262 
L 44.80375 459.916108 
L 44.80375 464.789954 
L 44.80375 469.6638 
z
" clip-path="url(#paa94d0aa30)" style="fill: #fbb4ae; fill-opacity: 0.6"/>
    <path d="M 252.894827 464.789954 
L 252.894827 459.916108 
L 252.894827 455.042262 
L 252.894827 450.168415 
L 252.894827 445.294569 
L 252.894827 440.420723 
L 252.894827 435.546877 
L 252.894827 430.673031 
L 252.894827 425.799185 
L 252.894827 420.925338 
L 252.894827 416.051492 
L 252.894827 411.177646 
L 252.894827 406.3038 
L 252.894827 401.429954 
L 252.894827 396.556108 
L 252.894827 391.682262 
L 252.894827 386.808415 
L 252.894827 381.934569 
L 252.894827 377.060723 
L 252.894827 372.186877 
L 252.894827 367.313031 
L 252.894827 362.439185 
L 252.894827 357.565338 
L 252.894827 352.691492 
L 252.894827 347.817646 
L 252.894827 342.9438 
L 252.894827 338.069954 
L 252.894827 333.196108 
L 252.894827 328.322262 
L 252.894827 323.448415 
L 252.894827 318.574569 
L 252.894827 313.700723 
L 252.894827 308.826877 
L 252.894827 303.953031 
L 252.894827 299.079185 
L 252.894827 294.205338 
L 250.834519 292.743185 
L 243.966827 292.743185 
L 237.099135 292.743185 
L 230.231442 292.743185 
L 223.36375 292.743185 
L 216.496058 292.743185 
L 211.688673 289.331492 
L 211.688673 284.457646 
L 211.688673 279.5838 
L 211.688673 274.709954 
L 211.688673 269.836108 
L 211.688673 264.962262 
L 211.688673 260.088415 
L 211.688673 255.214569 
L 211.688673 250.340723 
L 211.688673 245.466877 
L 211.688673 240.593031 
L 211.688673 235.719185 
L 211.688673 230.845338 
L 211.688673 225.971492 
L 209.628365 224.509338 
L 202.760673 224.509338 
L 200.700365 225.971492 
L 200.700365 230.845338 
L 200.700365 235.719185 
L 200.700365 240.593031 
L 200.700365 245.466877 
L 200.700365 250.340723 
L 200.700365 255.214569 
L 200.700365 260.088415 
L 200.700365 264.962262 
L 200.700365 269.836108 
L 200.700365 274.709954 
L 200.700365 279.5838 
L 200.700365 284.457646 
L 200.700365 289.331492 
L 195.892981 292.743185 
L 189.025288 292.743185 
L 184.217904 289.331492 
L 184.217904 284.457646 
L 184.217904 279.5838 
L 184.217904 274.709954 
L 184.217904 269.836108 
L 184.217904 264.962262 
L 184.217904 260.088415 
L 184.217904 255.214569 
L 184.217904 250.340723 
L 184.217904 245.466877 
L 184.217904 240.593031 
L 184.217904 235.719185 
L 184.217904 230.845338 
L 184.217904 225.971492 
L 182.157596 224.509338 
L 175.289904 224.509338 
L 168.422212 224.509338 
L 161.554519 224.509338 
L 154.686827 224.509338 
L 147.819135 224.509338 
L 143.01175 221.097646 
L 143.01175 216.2238 
L 143.01175 211.349954 
L 143.01175 206.476108 
L 143.01175 201.602262 
L 143.01175 196.728415 
L 143.01175 191.854569 
L 143.01175 186.980723 
L 143.01175 182.106877 
L 143.01175 177.233031 
L 143.01175 172.359185 
L 143.01175 167.485338 
L 143.01175 162.611492 
L 143.01175 157.737646 
L 143.01175 152.8638 
L 143.01175 147.989954 
L 143.01175 143.116108 
L 143.01175 138.242262 
L 143.01175 133.368415 
L 143.01175 128.494569 
L 143.01175 123.620723 
L 143.01175 118.746877 
L 143.01175 113.873031 
L 143.01175 108.999185 
L 143.01175 104.125338 
L 143.01175 99.251492 
L 143.01175 94.377646 
L 143.01175 89.5038 
L 143.01175 84.629954 
L 143.01175 79.756108 
L 143.01175 74.882262 
L 143.01175 70.008415 
L 143.01175 65.134569 
L 143.01175 60.260723 
L 143.01175 55.386877 
L 143.01175 50.513031 
L 143.01175 45.639185 
L 143.01175 40.765338 
L 143.01175 35.891492 
L 143.01175 31.017646 
L 143.01175 26.1438 
L 141.981596 26.1438 
L 141.981596 31.017646 
L 141.981596 35.891492 
L 141.981596 40.765338 
L 141.981596 45.639185 
L 141.981596 50.513031 
L 141.981596 55.386877 
L 141.981596 60.260723 
L 141.981596 65.134569 
L 141.981596 70.008415 
L 141.981596 74.882262 
L 141.981596 79.756108 
L 141.981596 84.629954 
L 141.981596 89.5038 
L 141.981596 94.377646 
L 141.981596 99.251492 
L 141.981596 104.125338 
L 141.981596 108.999185 
L 141.981596 113.873031 
L 141.981596 118.746877 
L 141.981596 123.620723 
L 141.981596 128.494569 
L 141.981596 133.368415 
L 141.981596 138.242262 
L 141.981596 143.116108 
L 141.981596 147.989954 
L 141.981596 152.8638 
L 141.981596 157.737646 
L 141.981596 162.611492 
L 141.981596 167.485338 
L 141.981596 172.359185 
L 141.981596 177.233031 
L 141.981596 182.106877 
L 141.981596 186.980723 
L 141.981596 191.854569 
L 141.981596 196.728415 
L 141.981596 201.602262 
L 141.981596 206.476108 
L 141.981596 211.349954 
L 141.981596 216.2238 
L 141.981596 221.097646 
L 147.819135 225.240415 
L 154.686827 225.240415 
L 161.554519 225.240415 
L 168.422212 225.240415 
L 175.289904 225.240415 
L 182.157596 225.240415 
L 183.18775 225.971492 
L 183.18775 230.845338 
L 183.18775 235.719185 
L 183.18775 240.593031 
L 183.18775 245.466877 
L 183.18775 250.340723 
L 183.18775 255.214569 
L 183.18775 260.088415 
L 183.18775 264.962262 
L 183.18775 269.836108 
L 183.18775 274.709954 
L 183.18775 279.5838 
L 183.18775 284.457646 
L 183.18775 289.331492 
L 189.025288 293.474262 
L 195.892981 293.474262 
L 201.730519 289.331492 
L 201.730519 284.457646 
L 201.730519 279.5838 
L 201.730519 274.709954 
L 201.730519 269.836108 
L 201.730519 264.962262 
L 201.730519 260.088415 
L 201.730519 255.214569 
L 201.730519 250.340723 
L 201.730519 245.466877 
L 201.730519 240.593031 
L 201.730519 235.719185 
L 201.730519 230.845338 
L 201.730519 225.971492 
L 202.760673 225.240415 
L 209.628365 225.240415 
L 210.658519 225.971492 
L 210.658519 230.845338 
L 210.658519 235.719185 
L 210.658519 240.593031 
L 210.658519 245.466877 
L 210.658519 250.340723 
L 210.658519 255.214569 
L 210.658519 260.088415 
L 210.658519 264.962262 
L 210.658519 269.836108 
L 210.658519 274.709954 
L 210.658519 279.5838 
L 210.658519 284.457646 
L 210.658519 289.331492 
L 216.496058 293.474262 
L 223.36375 293.474262 
L 230.231442 293.474262 
L 237.099135 293.474262 
L 243.966827 293.474262 
L 250.834519 293.474262 
L 251.864673 294.205338 
L 251.864673 299.079185 
L 251.864673 303.953031 
L 251.864673 308.826877 
L 251.864673 313.700723 
L 251.864673 318.574569 
L 251.864673 323.448415 
L 251.864673 328.322262 
L 251.864673 333.196108 
L 251.864673 338.069954 
L 251.864673 342.9438 
L 251.864673 347.817646 
L 251.864673 352.691492 
L 251.864673 357.565338 
L 251.864673 362.439185 
L 251.864673 367.313031 
L 251.864673 372.186877 
L 251.864673 377.060723 
L 251.864673 381.934569 
L 251.864673 386.808415 
L 251.864673 391.682262 
L 251.864673 396.556108 
L 251.864673 401.429954 
L 251.864673 406.3038 
L 251.864673 411.177646 
L 251.864673 416.051492 
L 251.864673 420.925338 
L 251.864673 425.799185 
L 251.864673 430.673031 
L 251.864673 435.546877 
L 251.864673 440.420723 
L 251.864673 445.294569 
L 251.864673 450.168415 
L 251.864673 455.042262 
L 251.864673 459.916108 
L 251.864673 464.789954 
L 251.864673 469.6638 
L 252.894827 469.6638 
z
" clip-path="url(#paa94d0aa30)" style="fill: #b3cde3; fill-opacity: 0.6"/>
    <path d="M 253.924981 464.789954 
L 253.924981 459.916108 
L 253.924981 455.042262 
L 253.924981 450.168415 
L 253.924981 445.294569 
L 253.924981 440.420723 
L 253.924981 435.546877 
L 253.924981 430.673031 
L 253.924981 425.799185 
L 253.924981 420.925338 
L 253.924981 416.051492 
L 253.924981 411.177646 
L 253.924981 406.3038 
L 253.924981 401.429954 
L 253.924981 396.556108 
L 253.924981 391.682262 
L 253.924981 386.808415 
L 253.924981 381.934569 
L 253.924981 377.060723 
L 253.924981 372.186877 
L 253.924981 367.313031 
L 253.924981 362.439185 
L 253.924981 357.565338 
L 253.924981 352.691492 
L 253.924981 347.817646 
L 253.924981 342.9438 
L 253.924981 338.069954 
L 253.924981 333.196108 
L 253.924981 328.322262 
L 253.924981 323.448415 
L 253.924981 318.574569 
L 253.924981 313.700723 
L 253.924981 308.826877 
L 253.924981 303.953031 
L 253.924981 299.079185 
L 253.924981 294.205338 
L 250.834519 292.012108 
L 243.966827 292.012108 
L 237.099135 292.012108 
L 230.231442 292.012108 
L 223.36375 292.012108 
L 216.496058 292.012108 
L 212.718827 289.331492 
L 212.718827 284.457646 
L 212.718827 279.5838 
L 212.718827 274.709954 
L 212.718827 269.836108 
L 212.718827 264.962262 
L 212.718827 260.088415 
L 212.718827 255.214569 
L 212.718827 250.340723 
L 212.718827 245.466877 
L 212.718827 240.593031 
L 212.718827 235.719185 
L 212.718827 230.845338 
L 212.718827 225.971492 
L 209.628365 223.778262 
L 202.760673 223.778262 
L 199.670212 225.971492 
L 199.670212 230.845338 
L 199.670212 235.719185 
L 199.670212 240.593031 
L 199.670212 245.466877 
L 199.670212 250.340723 
L 199.670212 255.214569 
L 199.670212 260.088415 
L 199.670212 264.962262 
L 199.670212 269.836108 
L 199.670212 274.709954 
L 199.670212 279.5838 
L 199.670212 284.457646 
L 199.670212 289.331492 
L 195.892981 292.012108 
L 189.025288 292.012108 
L 185.248058 289.331492 
L 185.248058 284.457646 
L 185.248058 279.5838 
L 185.248058 274.709954 
L 185.248058 269.836108 
L 185.248058 264.962262 
L 185.248058 260.088415 
L 185.248058 255.214569 
L 185.248058 250.340723 
L 185.248058 245.466877 
L 185.248058 240.593031 
L 185.248058 235.719185 
L 185.248058 230.845338 
L 185.248058 225.971492 
L 182.157596 223.778262 
L 175.289904 223.778262 
L 168.422212 223.778262 
L 161.554519 223.778262 
L 154.686827 223.778262 
L 147.819135 223.778262 
L 144.041904 221.097646 
L 144.041904 216.2238 
L 144.041904 211.349954 
L 144.041904 206.476108 
L 144.041904 201.602262 
L 144.041904 196.728415 
L 144.041904 191.854569 
L 144.041904 186.980723 
L 144.041904 182.106877 
L 144.041904 177.233031 
L 144.041904 172.359185 
L 144.041904 167.485338 
L 144.041904 162.611492 
L 144.041904 157.737646 
L 144.041904 152.8638 
L 144.041904 147.989954 
L 144.041904 143.116108 
L 144.041904 138.242262 
L 144.041904 133.368415 
L 144.041904 128.494569 
L 144.041904 123.620723 
L 144.041904 118.746877 
L 144.041904 113.873031 
L 144.041904 108.999185 
L 144.041904 104.125338 
L 144.041904 99.251492 
L 144.041904 94.377646 
L 144.041904 89.5038 
L 144.041904 84.629954 
L 144.041904 79.756108 
L 144.041904 74.882262 
L 144.041904 70.008415 
L 144.041904 65.134569 
L 144.041904 60.260723 
L 144.041904 55.386877 
L 144.041904 50.513031 
L 144.041904 45.639185 
L 144.041904 40.765338 
L 144.041904 35.891492 
L 144.041904 31.017646 
L 144.041904 26.1438 
L 143.01175 26.1438 
L 143.01175 31.017646 
L 143.01175 35.891492 
L 143.01175 40.765338 
L 143.01175 45.639185 
L 143.01175 50.513031 
L 143.01175 55.386877 
L 143.01175 60.260723 
L 143.01175 65.134569 
L 143.01175 70.008415 
L 143.01175 74.882262 
L 143.01175 79.756108 
L 143.01175 84.629954 
L 143.01175 89.5038 
L 143.01175 94.377646 
L 143.01175 99.251492 
L 143.01175 104.125338 
L 143.01175 108.999185 
L 143.01175 113.873031 
L 143.01175 118.746877 
L 143.01175 123.620723 
L 143.01175 128.494569 
L 143.01175 133.368415 
L 143.01175 138.242262 
L 143.01175 143.116108 
L 143.01175 147.989954 
L 143.01175 152.8638 
L 143.01175 157.737646 
L 143.01175 162.611492 
L 143.01175 167.485338 
L 143.01175 172.359185 
L 143.01175 177.233031 
L 143.01175 182.106877 
L 143.01175 186.980723 
L 143.01175 191.854569 
L 143.01175 196.728415 
L 143.01175 201.602262 
L 143.01175 206.476108 
L 143.01175 211.349954 
L 143.01175 216.2238 
L 143.01175 221.097646 
L 147.819135 224.509338 
L 154.686827 224.509338 
L 161.554519 224.509338 
L 168.422212 224.509338 
L 175.289904 224.509338 
L 182.157596 224.509338 
L 184.217904 225.971492 
L 184.217904 230.845338 
L 184.217904 235.719185 
L 184.217904 240.593031 
L 184.217904 245.466877 
L 184.217904 250.340723 
L 184.217904 255.214569 
L 184.217904 260.088415 
L 184.217904 264.962262 
L 184.217904 269.836108 
L 184.217904 274.709954 
L 184.217904 279.5838 
L 184.217904 284.457646 
L 184.217904 289.331492 
L 189.025288 292.743185 
L 195.892981 292.743185 
L 200.700365 289.331492 
L 200.700365 284.457646 
L 200.700365 279.5838 
L 200.700365 274.709954 
L 200.700365 269.836108 
L 200.700365 264.962262 
L 200.700365 260.088415 
L 200.700365 255.214569 
L 200.700365 250.340723 
L 200.700365 245.466877 
L 200.700365 240.593031 
L 200.700365 235.719185 
L 200.700365 230.845338 
L 200.700365 225.971492 
L 202.760673 224.509338 
L 209.628365 224.509338 
L 211.688673 225.971492 
L 211.688673 230.845338 
L 211.688673 235.719185 
L 211.688673 240.593031 
L 211.688673 245.466877 
L 211.688673 250.340723 
L 211.688673 255.214569 
L 211.688673 260.088415 
L 211.688673 264.962262 
L 211.688673 269.836108 
L 211.688673 274.709954 
L 211.688673 279.5838 
L 211.688673 284.457646 
L 211.688673 289.331492 
L 216.496058 292.743185 
L 223.36375 292.743185 
L 230.231442 292.743185 
L 237.099135 292.743185 
L 243.966827 292.743185 
L 250.834519 292.743185 
L 252.894827 294.205338 
L 252.894827 299.079185 
L 252.894827 303.953031 
L 252.894827 308.826877 
L 252.894827 313.700723 
L 252.894827 318.574569 
L 252.894827 323.448415 
L 252.894827 328.322262 
L 252.894827 333.196108 
L 252.894827 338.069954 
L 252.894827 342.9438 
L 252.894827 347.817646 
L 252.894827 352.691492 
L 252.894827 357.565338 
L 252.894827 362.439185 
L 252.894827 367.313031 
L 252.894827 372.186877 
L 252.894827 377.060723 
L 252.894827 381.934569 
L 252.894827 386.808415 
L 252.894827 391.682262 
L 252.894827 396.556108 
L 252.894827 401.429954 
L 252.894827 406.3038 
L 252.894827 411.177646 
L 252.894827 416.051492 
L 252.894827 420.925338 
L 252.894827 425.799185 
L 252.894827 430.673031 
L 252.894827 435.546877 
L 252.894827 440.420723 
L 252.894827 445.294569 
L 252.894827 450.168415 
L 252.894827 455.042262 
L 252.894827 459.916108 
L 252.894827 464.789954 
L 252.894827 469.6638 
L 253.924981 469.6638 
z
" clip-path="url(#paa94d0aa30)" style="fill: #decbe4; fill-opacity: 0.6"/>
    <path d="M 254.955135 464.789954 
L 254.955135 459.916108 
L 254.955135 455.042262 
L 254.955135 450.168415 
L 254.955135 445.294569 
L 254.955135 440.420723 
L 254.955135 435.546877 
L 254.955135 430.673031 
L 254.955135 425.799185 
L 254.955135 420.925338 
L 254.955135 416.051492 
L 254.955135 411.177646 
L 254.955135 406.3038 
L 254.955135 401.429954 
L 254.955135 396.556108 
L 254.955135 391.682262 
L 254.955135 386.808415 
L 254.955135 381.934569 
L 254.955135 377.060723 
L 254.955135 372.186877 
L 254.955135 367.313031 
L 254.955135 362.439185 
L 254.955135 357.565338 
L 254.955135 352.691492 
L 254.955135 347.817646 
L 254.955135 342.9438 
L 254.955135 338.069954 
L 254.955135 333.196108 
L 254.955135 328.322262 
L 254.955135 323.448415 
L 254.955135 318.574569 
L 254.955135 313.700723 
L 254.955135 308.826877 
L 254.955135 303.953031 
L 254.955135 299.079185 
L 254.955135 294.205338 
L 250.834519 291.281031 
L 243.966827 291.281031 
L 237.099135 291.281031 
L 230.231442 291.281031 
L 223.36375 291.281031 
L 216.496058 291.281031 
L 213.748981 289.331492 
L 213.748981 284.457646 
L 213.748981 279.5838 
L 213.748981 274.709954 
L 213.748981 269.836108 
L 213.748981 264.962262 
L 213.748981 260.088415 
L 213.748981 255.214569 
L 213.748981 250.340723 
L 213.748981 245.466877 
L 213.748981 240.593031 
L 213.748981 235.719185 
L 213.748981 230.845338 
L 213.748981 225.971492 
L 209.628365 223.047185 
L 202.760673 223.047185 
L 198.640058 225.971492 
L 198.640058 230.845338 
L 198.640058 235.719185 
L 198.640058 240.593031 
L 198.640058 245.466877 
L 198.640058 250.340723 
L 198.640058 255.214569 
L 198.640058 260.088415 
L 198.640058 264.962262 
L 198.640058 269.836108 
L 198.640058 274.709954 
L 198.640058 279.5838 
L 198.640058 284.457646 
L 198.640058 289.331492 
L 195.892981 291.281031 
L 189.025288 291.281031 
L 186.278212 289.331492 
L 186.278212 284.457646 
L 186.278212 279.5838 
L 186.278212 274.709954 
L 186.278212 269.836108 
L 186.278212 264.962262 
L 186.278212 260.088415 
L 186.278212 255.214569 
L 186.278212 250.340723 
L 186.278212 245.466877 
L 186.278212 240.593031 
L 186.278212 235.719185 
L 186.278212 230.845338 
L 186.278212 225.971492 
L 182.157596 223.047185 
L 175.289904 223.047185 
L 168.422212 223.047185 
L 161.554519 223.047185 
L 154.686827 223.047185 
L 147.819135 223.047185 
L 145.072058 221.097646 
L 145.072058 216.2238 
L 145.072058 211.349954 
L 145.072058 206.476108 
L 145.072058 201.602262 
L 145.072058 196.728415 
L 145.072058 191.854569 
L 145.072058 186.980723 
L 145.072058 182.106877 
L 145.072058 177.233031 
L 145.072058 172.359185 
L 145.072058 167.485338 
L 145.072058 162.611492 
L 145.072058 157.737646 
L 145.072058 152.8638 
L 145.072058 147.989954 
L 145.072058 143.116108 
L 145.072058 138.242262 
L 145.072058 133.368415 
L 145.072058 128.494569 
L 145.072058 123.620723 
L 145.072058 118.746877 
L 145.072058 113.873031 
L 145.072058 108.999185 
L 145.072058 104.125338 
L 145.072058 99.251492 
L 145.072058 94.377646 
L 145.072058 89.5038 
L 145.072058 84.629954 
L 145.072058 79.756108 
L 145.072058 74.882262 
L 145.072058 70.008415 
L 145.072058 65.134569 
L 145.072058 60.260723 
L 145.072058 55.386877 
L 145.072058 50.513031 
L 145.072058 45.639185 
L 145.072058 40.765338 
L 145.072058 35.891492 
L 145.072058 31.017646 
L 145.072058 26.1438 
L 144.041904 26.1438 
L 144.041904 31.017646 
L 144.041904 35.891492 
L 144.041904 40.765338 
L 144.041904 45.639185 
L 144.041904 50.513031 
L 144.041904 55.386877 
L 144.041904 60.260723 
L 144.041904 65.134569 
L 144.041904 70.008415 
L 144.041904 74.882262 
L 144.041904 79.756108 
L 144.041904 84.629954 
L 144.041904 89.5038 
L 144.041904 94.377646 
L 144.041904 99.251492 
L 144.041904 104.125338 
L 144.041904 108.999185 
L 144.041904 113.873031 
L 144.041904 118.746877 
L 144.041904 123.620723 
L 144.041904 128.494569 
L 144.041904 133.368415 
L 144.041904 138.242262 
L 144.041904 143.116108 
L 144.041904 147.989954 
L 144.041904 152.8638 
L 144.041904 157.737646 
L 144.041904 162.611492 
L 144.041904 167.485338 
L 144.041904 172.359185 
L 144.041904 177.233031 
L 144.041904 182.106877 
L 144.041904 186.980723 
L 144.041904 191.854569 
L 144.041904 196.728415 
L 144.041904 201.602262 
L 144.041904 206.476108 
L 144.041904 211.349954 
L 144.041904 216.2238 
L 144.041904 221.097646 
L 147.819135 223.778262 
L 154.686827 223.778262 
L 161.554519 223.778262 
L 168.422212 223.778262 
L 175.289904 223.778262 
L 182.157596 223.778262 
L 185.248058 225.971492 
L 185.248058 230.845338 
L 185.248058 235.719185 
L 185.248058 240.593031 
L 185.248058 245.466877 
L 185.248058 250.340723 
L 185.248058 255.214569 
L 185.248058 260.088415 
L 185.248058 264.962262 
L 185.248058 269.836108 
L 185.248058 274.709954 
L 185.248058 279.5838 
L 185.248058 284.457646 
L 185.248058 289.331492 
L 189.025288 292.012108 
L 195.892981 292.012108 
L 199.670212 289.331492 
L 199.670212 284.457646 
L 199.670212 279.5838 
L 199.670212 274.709954 
L 199.670212 269.836108 
L 199.670212 264.962262 
L 199.670212 260.088415 
L 199.670212 255.214569 
L 199.670212 250.340723 
L 199.670212 245.466877 
L 199.670212 240.593031 
L 199.670212 235.719185 
L 199.670212 230.845338 
L 199.670212 225.971492 
L 202.760673 223.778262 
L 209.628365 223.778262 
L 212.718827 225.971492 
L 212.718827 230.845338 
L 212.718827 235.719185 
L 212.718827 240.593031 
L 212.718827 245.466877 
L 212.718827 250.340723 
L 212.718827 255.214569 
L 212.718827 260.088415 
L 212.718827 264.962262 
L 212.718827 269.836108 
L 212.718827 274.709954 
L 212.718827 279.5838 
L 212.718827 284.457646 
L 212.718827 289.331492 
L 216.496058 292.012108 
L 223.36375 292.012108 
L 230.231442 292.012108 
L 237.099135 292.012108 
L 243.966827 292.012108 
L 250.834519 292.012108 
L 253.924981 294.205338 
L 253.924981 299.079185 
L 253.924981 303.953031 
L 253.924981 308.826877 
L 253.924981 313.700723 
L 253.924981 318.574569 
L 253.924981 323.448415 
L 253.924981 328.322262 
L 253.924981 333.196108 
L 253.924981 338.069954 
L 253.924981 342.9438 
L 253.924981 347.817646 
L 253.924981 352.691492 
L 253.924981 357.565338 
L 253.924981 362.439185 
L 253.924981 367.313031 
L 253.924981 372.186877 
L 253.924981 377.060723 
L 253.924981 381.934569 
L 253.924981 386.808415 
L 253.924981 391.682262 
L 253.924981 396.556108 
L 253.924981 401.429954 
L 253.924981 406.3038 
L 253.924981 411.177646 
L 253.924981 416.051492 
L 253.924981 420.925338 
L 253.924981 425.799185 
L 253.924981 430.673031 
L 253.924981 435.546877 
L 253.924981 440.420723 
L 253.924981 445.294569 
L 253.924981 450.168415 
L 253.924981 455.042262 
L 253.924981 459.916108 
L 253.924981 464.789954 
L 253.924981 469.6638 
L 254.955135 469.6638 
z
" clip-path="url(#paa94d0aa30)" style="fill: #fed9a6; fill-opacity: 0.6"/>
    <path d="M 255.985288 464.789954 
L 255.985288 459.916108 
L 255.985288 455.042262 
L 255.985288 450.168415 
L 255.985288 445.294569 
L 255.985288 440.420723 
L 255.985288 435.546877 
L 255.985288 430.673031 
L 255.985288 425.799185 
L 255.985288 420.925338 
L 255.985288 416.051492 
L 255.985288 411.177646 
L 255.985288 406.3038 
L 255.985288 401.429954 
L 255.985288 396.556108 
L 255.985288 391.682262 
L 255.985288 386.808415 
L 255.985288 381.934569 
L 255.985288 377.060723 
L 255.985288 372.186877 
L 255.985288 367.313031 
L 255.985288 362.439185 
L 255.985288 357.565338 
L 255.985288 352.691492 
L 255.985288 347.817646 
L 255.985288 342.9438 
L 255.985288 338.069954 
L 255.985288 333.196108 
L 255.985288 328.322262 
L 255.985288 323.448415 
L 255.985288 318.574569 
L 255.985288 313.700723 
L 255.985288 308.826877 
L 255.985288 303.953031 
L 255.985288 299.079185 
L 255.985288 294.205338 
L 250.834519 290.549954 
L 243.966827 290.549954 
L 237.099135 290.549954 
L 230.231442 290.549954 
L 223.36375 290.549954 
L 216.496058 290.549954 
L 214.779135 289.331492 
L 214.779135 284.457646 
L 214.779135 279.5838 
L 214.779135 274.709954 
L 214.779135 269.836108 
L 214.779135 264.962262 
L 214.779135 260.088415 
L 214.779135 255.214569 
L 214.779135 250.340723 
L 214.779135 245.466877 
L 214.779135 240.593031 
L 214.779135 235.719185 
L 214.779135 230.845338 
L 214.779135 225.971492 
L 209.628365 222.316108 
L 202.760673 222.316108 
L 197.609904 225.971492 
L 197.609904 230.845338 
L 197.609904 235.719185 
L 197.609904 240.593031 
L 197.609904 245.466877 
L 197.609904 250.340723 
L 197.609904 255.214569 
L 197.609904 260.088415 
L 197.609904 264.962262 
L 197.609904 269.836108 
L 197.609904 274.709954 
L 197.609904 279.5838 
L 197.609904 284.457646 
L 197.609904 289.331492 
L 195.892981 290.549954 
L 189.025288 290.549954 
L 187.308365 289.331492 
L 187.308365 284.457646 
L 187.308365 279.5838 
L 187.308365 274.709954 
L 187.308365 269.836108 
L 187.308365 264.962262 
L 187.308365 260.088415 
L 187.308365 255.214569 
L 187.308365 250.340723 
L 187.308365 245.466877 
L 187.308365 240.593031 
L 187.308365 235.719185 
L 187.308365 230.845338 
L 187.308365 225.971492 
L 182.157596 222.316108 
L 175.289904 222.316108 
L 168.422212 222.316108 
L 161.554519 222.316108 
L 154.686827 222.316108 
L 147.819135 222.316108 
L 146.102212 221.097646 
L 146.102212 216.2238 
L 146.102212 211.349954 
L 146.102212 206.476108 
L 146.102212 201.602262 
L 146.102212 196.728415 
L 146.102212 191.854569 
L 146.102212 186.980723 
L 146.102212 182.106877 
L 146.102212 177.233031 
L 146.102212 172.359185 
L 146.102212 167.485338 
L 146.102212 162.611492 
L 146.102212 157.737646 
L 146.102212 152.8638 
L 146.102212 147.989954 
L 146.102212 143.116108 
L 146.102212 138.242262 
L 146.102212 133.368415 
L 146.102212 128.494569 
L 146.102212 123.620723 
L 146.102212 118.746877 
L 146.102212 113.873031 
L 146.102212 108.999185 
L 146.102212 104.125338 
L 146.102212 99.251492 
L 146.102212 94.377646 
L 146.102212 89.5038 
L 146.102212 84.629954 
L 146.102212 79.756108 
L 146.102212 74.882262 
L 146.102212 70.008415 
L 146.102212 65.134569 
L 146.102212 60.260723 
L 146.102212 55.386877 
L 146.102212 50.513031 
L 146.102212 45.639185 
L 146.102212 40.765338 
L 146.102212 35.891492 
L 146.102212 31.017646 
L 146.102212 26.1438 
L 145.072058 26.1438 
L 145.072058 31.017646 
L 145.072058 35.891492 
L 145.072058 40.765338 
L 145.072058 45.639185 
L 145.072058 50.513031 
L 145.072058 55.386877 
L 145.072058 60.260723 
L 145.072058 65.134569 
L 145.072058 70.008415 
L 145.072058 74.882262 
L 145.072058 79.756108 
L 145.072058 84.629954 
L 145.072058 89.5038 
L 145.072058 94.377646 
L 145.072058 99.251492 
L 145.072058 104.125338 
L 145.072058 108.999185 
L 145.072058 113.873031 
L 145.072058 118.746877 
L 145.072058 123.620723 
L 145.072058 128.494569 
L 145.072058 133.368415 
L 145.072058 138.242262 
L 145.072058 143.116108 
L 145.072058 147.989954 
L 145.072058 152.8638 
L 145.072058 157.737646 
L 145.072058 162.611492 
L 145.072058 167.485338 
L 145.072058 172.359185 
L 145.072058 177.233031 
L 145.072058 182.106877 
L 145.072058 186.980723 
L 145.072058 191.854569 
L 145.072058 196.728415 
L 145.072058 201.602262 
L 145.072058 206.476108 
L 145.072058 211.349954 
L 145.072058 216.2238 
L 145.072058 221.097646 
L 147.819135 223.047185 
L 154.686827 223.047185 
L 161.554519 223.047185 
L 168.422212 223.047185 
L 175.289904 223.047185 
L 182.157596 223.047185 
L 186.278212 225.971492 
L 186.278212 230.845338 
L 186.278212 235.719185 
L 186.278212 240.593031 
L 186.278212 245.466877 
L 186.278212 250.340723 
L 186.278212 255.214569 
L 186.278212 260.088415 
L 186.278212 264.962262 
L 186.278212 269.836108 
L 186.278212 274.709954 
L 186.278212 279.5838 
L 186.278212 284.457646 
L 186.278212 289.331492 
L 189.025288 291.281031 
L 195.892981 291.281031 
L 198.640058 289.331492 
L 198.640058 284.457646 
L 198.640058 279.5838 
L 198.640058 274.709954 
L 198.640058 269.836108 
L 198.640058 264.962262 
L 198.640058 260.088415 
L 198.640058 255.214569 
L 198.640058 250.340723 
L 198.640058 245.466877 
L 198.640058 240.593031 
L 198.640058 235.719185 
L 198.640058 230.845338 
L 198.640058 225.971492 
L 202.760673 223.047185 
L 209.628365 223.047185 
L 213.748981 225.971492 
L 213.748981 230.845338 
L 213.748981 235.719185 
L 213.748981 240.593031 
L 213.748981 245.466877 
L 213.748981 250.340723 
L 213.748981 255.214569 
L 213.748981 260.088415 
L 213.748981 264.962262 
L 213.748981 269.836108 
L 213.748981 274.709954 
L 213.748981 279.5838 
L 213.748981 284.457646 
L 213.748981 289.331492 
L 216.496058 291.281031 
L 223.36375 291.281031 
L 230.231442 291.281031 
L 237.099135 291.281031 
L 243.966827 291.281031 
L 250.834519 291.281031 
L 254.955135 294.205338 
L 254.955135 299.079185 
L 254.955135 303.953031 
L 254.955135 308.826877 
L 254.955135 313.700723 
L 254.955135 318.574569 
L 254.955135 323.448415 
L 254.955135 328.322262 
L 254.955135 333.196108 
L 254.955135 338.069954 
L 254.955135 342.9438 
L 254.955135 347.817646 
L 254.955135 352.691492 
L 254.955135 357.565338 
L 254.955135 362.439185 
L 254.955135 367.313031 
L 254.955135 372.186877 
L 254.955135 377.060723 
L 254.955135 381.934569 
L 254.955135 386.808415 
L 254.955135 391.682262 
L 254.955135 396.556108 
L 254.955135 401.429954 
L 254.955135 406.3038 
L 254.955135 411.177646 
L 254.955135 416.051492 
L 254.955135 420.925338 
L 254.955135 425.799185 
L 254.955135 430.673031 
L 254.955135 435.546877 
L 254.955135 440.420723 
L 254.955135 445.294569 
L 254.955135 450.168415 
L 254.955135 455.042262 
L 254.955135 459.916108 
L 254.955135 464.789954 
L 254.955135 469.6638 
L 255.985288 469.6638 
z
" clip-path="url(#paa94d0aa30)" style="fill: #ffffcc; fill-opacity: 0.6"/>
    <path d="M 257.015442 464.789954 
L 257.015442 459.916108 
L 257.015442 455.042262 
L 257.015442 450.168415 
L 257.015442 445.294569 
L 257.015442 440.420723 
L 257.015442 435.546877 
L 257.015442 430.673031 
L 257.015442 425.799185 
L 257.015442 420.925338 
L 257.015442 416.051492 
L 257.015442 411.177646 
L 257.015442 406.3038 
L 257.015442 401.429954 
L 257.015442 396.556108 
L 257.015442 391.682262 
L 257.015442 386.808415 
L 257.015442 381.934569 
L 257.015442 377.060723 
L 257.015442 372.186877 
L 257.015442 367.313031 
L 257.015442 362.439185 
L 257.015442 357.565338 
L 257.015442 352.691492 
L 257.015442 347.817646 
L 257.015442 342.9438 
L 257.015442 338.069954 
L 257.015442 333.196108 
L 257.015442 328.322262 
L 257.015442 323.448415 
L 257.015442 318.574569 
L 257.015442 313.700723 
L 257.015442 308.826877 
L 257.015442 303.953031 
L 257.015442 299.079185 
L 257.015442 294.205338 
L 250.834519 289.818877 
L 243.966827 289.818877 
L 237.099135 289.818877 
L 230.231442 289.818877 
L 223.36375 289.818877 
L 216.496058 289.818877 
L 215.809288 289.331492 
L 215.809288 284.457646 
L 215.809288 279.5838 
L 215.809288 274.709954 
L 215.809288 269.836108 
L 215.809288 264.962262 
L 215.809288 260.088415 
L 215.809288 255.214569 
L 215.809288 250.340723 
L 215.809288 245.466877 
L 215.809288 240.593031 
L 215.809288 235.719185 
L 215.809288 230.845338 
L 215.809288 225.971492 
L 209.628365 221.585031 
L 202.760673 221.585031 
L 196.57975 225.971492 
L 196.57975 230.845338 
L 196.57975 235.719185 
L 196.57975 240.593031 
L 196.57975 245.466877 
L 196.57975 250.340723 
L 196.57975 255.214569 
L 196.57975 260.088415 
L 196.57975 264.962262 
L 196.57975 269.836108 
L 196.57975 274.709954 
L 196.57975 279.5838 
L 196.57975 284.457646 
L 196.57975 289.331492 
L 195.892981 289.818877 
L 189.025288 289.818877 
L 188.338519 289.331492 
L 188.338519 284.457646 
L 188.338519 279.5838 
L 188.338519 274.709954 
L 188.338519 269.836108 
L 188.338519 264.962262 
L 188.338519 260.088415 
L 188.338519 255.214569 
L 188.338519 250.340723 
L 188.338519 245.466877 
L 188.338519 240.593031 
L 188.338519 235.719185 
L 188.338519 230.845338 
L 188.338519 225.971492 
L 182.157596 221.585031 
L 175.289904 221.585031 
L 168.422212 221.585031 
L 161.554519 221.585031 
L 154.686827 221.585031 
L 147.819135 221.585031 
L 147.132365 221.097646 
L 147.132365 216.2238 
L 147.132365 211.349954 
L 147.132365 206.476108 
L 147.132365 201.602262 
L 147.132365 196.728415 
L 147.132365 191.854569 
L 147.132365 186.980723 
L 147.132365 182.106877 
L 147.132365 177.233031 
L 147.132365 172.359185 
L 147.132365 167.485338 
L 147.132365 162.611492 
L 147.132365 157.737646 
L 147.132365 152.8638 
L 147.132365 147.989954 
L 147.132365 143.116108 
L 147.132365 138.242262 
L 147.132365 133.368415 
L 147.132365 128.494569 
L 147.132365 123.620723 
L 147.132365 118.746877 
L 147.132365 113.873031 
L 147.132365 108.999185 
L 147.132365 104.125338 
L 147.132365 99.251492 
L 147.132365 94.377646 
L 147.132365 89.5038 
L 147.132365 84.629954 
L 147.132365 79.756108 
L 147.132365 74.882262 
L 147.132365 70.008415 
L 147.132365 65.134569 
L 147.132365 60.260723 
L 147.132365 55.386877 
L 147.132365 50.513031 
L 147.132365 45.639185 
L 147.132365 40.765338 
L 147.132365 35.891492 
L 147.132365 31.017646 
L 147.132365 26.1438 
L 146.102212 26.1438 
L 146.102212 31.017646 
L 146.102212 35.891492 
L 146.102212 40.765338 
L 146.102212 45.639185 
L 146.102212 50.513031 
L 146.102212 55.386877 
L 146.102212 60.260723 
L 146.102212 65.134569 
L 146.102212 70.008415 
L 146.102212 74.882262 
L 146.102212 79.756108 
L 146.102212 84.629954 
L 146.102212 89.5038 
L 146.102212 94.377646 
L 146.102212 99.251492 
L 146.102212 104.125338 
L 146.102212 108.999185 
L 146.102212 113.873031 
L 146.102212 118.746877 
L 146.102212 123.620723 
L 146.102212 128.494569 
L 146.102212 133.368415 
L 146.102212 138.242262 
L 146.102212 143.116108 
L 146.102212 147.989954 
L 146.102212 152.8638 
L 146.102212 157.737646 
L 146.102212 162.611492 
L 146.102212 167.485338 
L 146.102212 172.359185 
L 146.102212 177.233031 
L 146.102212 182.106877 
L 146.102212 186.980723 
L 146.102212 191.854569 
L 146.102212 196.728415 
L 146.102212 201.602262 
L 146.102212 206.476108 
L 146.102212 211.349954 
L 146.102212 216.2238 
L 146.102212 221.097646 
L 147.819135 222.316108 
L 154.686827 222.316108 
L 161.554519 222.316108 
L 168.422212 222.316108 
L 175.289904 222.316108 
L 182.157596 222.316108 
L 187.308365 225.971492 
L 187.308365 230.845338 
L 187.308365 235.719185 
L 187.308365 240.593031 
L 187.308365 245.466877 
L 187.308365 250.340723 
L 187.308365 255.214569 
L 187.308365 260.088415 
L 187.308365 264.962262 
L 187.308365 269.836108 
L 187.308365 274.709954 
L 187.308365 279.5838 
L 187.308365 284.457646 
L 187.308365 289.331492 
L 189.025288 290.549954 
L 195.892981 290.549954 
L 197.609904 289.331492 
L 197.609904 284.457646 
L 197.609904 279.5838 
L 197.609904 274.709954 
L 197.609904 269.836108 
L 197.609904 264.962262 
L 197.609904 260.088415 
L 197.609904 255.214569 
L 197.609904 250.340723 
L 197.609904 245.466877 
L 197.609904 240.593031 
L 197.609904 235.719185 
L 197.609904 230.845338 
L 197.609904 225.971492 
L 202.760673 222.316108 
L 209.628365 222.316108 
L 214.779135 225.971492 
L 214.779135 230.845338 
L 214.779135 235.719185 
L 214.779135 240.593031 
L 214.779135 245.466877 
L 214.779135 250.340723 
L 214.779135 255.214569 
L 214.779135 260.088415 
L 214.779135 264.962262 
L 214.779135 269.836108 
L 214.779135 274.709954 
L 214.779135 279.5838 
L 214.779135 284.457646 
L 214.779135 289.331492 
L 216.496058 290.549954 
L 223.36375 290.549954 
L 230.231442 290.549954 
L 237.099135 290.549954 
L 243.966827 290.549954 
L 250.834519 290.549954 
L 255.985288 294.205338 
L 255.985288 299.079185 
L 255.985288 303.953031 
L 255.985288 308.826877 
L 255.985288 313.700723 
L 255.985288 318.574569 
L 255.985288 323.448415 
L 255.985288 328.322262 
L 255.985288 333.196108 
L 255.985288 338.069954 
L 255.985288 342.9438 
L 255.985288 347.817646 
L 255.985288 352.691492 
L 255.985288 357.565338 
L 255.985288 362.439185 
L 255.985288 367.313031 
L 255.985288 372.186877 
L 255.985288 377.060723 
L 255.985288 381.934569 
L 255.985288 386.808415 
L 255.985288 391.682262 
L 255.985288 396.556108 
L 255.985288 401.429954 
L 255.985288 406.3038 
L 255.985288 411.177646 
L 255.985288 416.051492 
L 255.985288 420.925338 
L 255.985288 425.799185 
L 255.985288 430.673031 
L 255.985288 435.546877 
L 255.985288 440.420723 
L 255.985288 445.294569 
L 255.985288 450.168415 
L 255.985288 455.042262 
L 255.985288 459.916108 
L 255.985288 464.789954 
L 255.985288 469.6638 
L 257.015442 469.6638 
z
" clip-path="url(#paa94d0aa30)" style="fill: #fddaec; fill-opacity: 0.6"/>
    <path d="M 257.702212 469.6638 
L 264.569904 469.6638 
L 271.437596 469.6638 
L 278.305288 469.6638 
L 285.172981 469.6638 
L 292.040673 469.6638 
L 298.908365 469.6638 
L 305.776058 469.6638 
L 312.64375 469.6638 
L 319.511442 469.6638 
L 326.379135 469.6638 
L 333.246827 469.6638 
L 340.114519 469.6638 
L 346.982212 469.6638 
L 353.849904 469.6638 
L 360.717596 469.6638 
L 367.585288 469.6638 
L 374.452981 469.6638 
L 381.320673 469.6638 
L 388.188365 469.6638 
L 395.056058 469.6638 
L 401.92375 469.6638 
L 408.791442 469.6638 
L 415.659135 469.6638 
L 422.526827 469.6638 
L 429.394519 469.6638 
L 436.262212 469.6638 
L 443.129904 469.6638 
L 449.997596 469.6638 
L 456.865288 469.6638 
L 463.732981 469.6638 
L 470.600673 469.6638 
L 477.468365 469.6638 
L 484.336058 469.6638 
L 491.20375 469.6638 
L 491.20375 464.789954 
L 491.20375 459.916108 
L 491.20375 455.042262 
L 491.20375 450.168415 
L 491.20375 445.294569 
L 491.20375 440.420723 
L 491.20375 435.546877 
L 491.20375 430.673031 
L 491.20375 425.799185 
L 491.20375 420.925338 
L 491.20375 416.051492 
L 491.20375 411.177646 
L 491.20375 406.3038 
L 491.20375 401.429954 
L 491.20375 396.556108 
L 491.20375 391.682262 
L 491.20375 386.808415 
L 491.20375 381.934569 
L 491.20375 377.060723 
L 491.20375 372.186877 
L 491.20375 367.313031 
L 491.20375 362.439185 
L 491.20375 357.565338 
L 491.20375 352.691492 
L 491.20375 347.817646 
L 491.20375 342.9438 
L 491.20375 338.069954 
L 491.20375 333.196108 
L 491.20375 328.322262 
L 491.20375 323.448415 
L 491.20375 318.574569 
L 491.20375 313.700723 
L 491.20375 308.826877 
L 491.20375 303.953031 
L 491.20375 299.079185 
L 491.20375 294.205338 
L 491.20375 289.331492 
L 491.20375 284.457646 
L 491.20375 279.5838 
L 491.20375 274.709954 
L 491.20375 269.836108 
L 491.20375 264.962262 
L 491.20375 260.088415 
L 491.20375 255.214569 
L 491.20375 250.340723 
L 491.20375 245.466877 
L 491.20375 240.593031 
L 491.20375 235.719185 
L 491.20375 230.845338 
L 491.20375 225.971492 
L 491.20375 221.097646 
L 491.20375 216.2238 
L 491.20375 211.349954 
L 491.20375 206.476108 
L 491.20375 201.602262 
L 491.20375 196.728415 
L 491.20375 191.854569 
L 491.20375 186.980723 
L 491.20375 182.106877 
L 491.20375 177.233031 
L 491.20375 172.359185 
L 491.20375 167.485338 
L 491.20375 162.611492 
L 491.20375 157.737646 
L 491.20375 152.8638 
L 491.20375 147.989954 
L 491.20375 143.116108 
L 491.20375 138.242262 
L 491.20375 133.368415 
L 491.20375 128.494569 
L 491.20375 123.620723 
L 491.20375 118.746877 
L 491.20375 113.873031 
L 491.20375 108.999185 
L 491.20375 104.125338 
L 491.20375 99.251492 
L 491.20375 94.377646 
L 491.20375 89.5038 
L 491.20375 84.629954 
L 491.20375 79.756108 
L 491.20375 74.882262 
L 491.20375 70.008415 
L 491.20375 65.134569 
L 491.20375 60.260723 
L 491.20375 55.386877 
L 491.20375 50.513031 
L 491.20375 45.639185 
L 491.20375 40.765338 
L 491.20375 35.891492 
L 491.20375 31.017646 
L 491.20375 26.1438 
L 484.336058 26.1438 
L 477.468365 26.1438 
L 470.600673 26.1438 
L 463.732981 26.1438 
L 456.865288 26.1438 
L 449.997596 26.1438 
L 443.129904 26.1438 
L 436.262212 26.1438 
L 429.394519 26.1438 
L 422.526827 26.1438 
L 415.659135 26.1438 
L 408.791442 26.1438 
L 401.92375 26.1438 
L 395.056058 26.1438 
L 388.188365 26.1438 
L 381.320673 26.1438 
L 374.452981 26.1438 
L 367.585288 26.1438 
L 360.717596 26.1438 
L 353.849904 26.1438 
L 346.982212 26.1438 
L 340.114519 26.1438 
L 333.246827 26.1438 
L 326.379135 26.1438 
L 319.511442 26.1438 
L 312.64375 26.1438 
L 305.776058 26.1438 
L 298.908365 26.1438 
L 292.040673 26.1438 
L 285.172981 26.1438 
L 278.305288 26.1438 
L 271.437596 26.1438 
L 264.569904 26.1438 
L 257.702212 26.1438 
L 250.834519 26.1438 
L 243.966827 26.1438 
L 237.099135 26.1438 
L 230.231442 26.1438 
L 223.36375 26.1438 
L 216.496058 26.1438 
L 209.628365 26.1438 
L 202.760673 26.1438 
L 195.892981 26.1438 
L 189.025288 26.1438 
L 182.157596 26.1438 
L 175.289904 26.1438 
L 168.422212 26.1438 
L 161.554519 26.1438 
L 154.686827 26.1438 
L 147.819135 26.1438 
L 147.132365 26.1438 
L 147.132365 31.017646 
L 147.132365 35.891492 
L 147.132365 40.765338 
L 147.132365 45.639185 
L 147.132365 50.513031 
L 147.132365 55.386877 
L 147.132365 60.260723 
L 147.132365 65.134569 
L 147.132365 70.008415 
L 147.132365 74.882262 
L 147.132365 79.756108 
L 147.132365 84.629954 
L 147.132365 89.5038 
L 147.132365 94.377646 
L 147.132365 99.251492 
L 147.132365 104.125338 
L 147.132365 108.999185 
L 147.132365 113.873031 
L 147.132365 118.746877 
L 147.132365 123.620723 
L 147.132365 128.494569 
L 147.132365 133.368415 
L 147.132365 138.242262 
L 147.132365 143.116108 
L 147.132365 147.989954 
L 147.132365 152.8638 
L 147.132365 157.737646 
L 147.132365 162.611492 
L 147.132365 167.485338 
L 147.132365 172.359185 
L 147.132365 177.233031 
L 147.132365 182.106877 
L 147.132365 186.980723 
L 147.132365 191.854569 
L 147.132365 196.728415 
L 147.132365 201.602262 
L 147.132365 206.476108 
L 147.132365 211.349954 
L 147.132365 216.2238 
L 147.132365 221.097646 
L 147.819135 221.585031 
L 154.686827 221.585031 
L 161.554519 221.585031 
L 168.422212 221.585031 
L 175.289904 221.585031 
L 182.157596 221.585031 
L 188.338519 225.971492 
L 188.338519 230.845338 
L 188.338519 235.719185 
L 188.338519 240.593031 
L 188.338519 245.466877 
L 188.338519 250.340723 
L 188.338519 255.214569 
L 188.338519 260.088415 
L 188.338519 264.962262 
L 188.338519 269.836108 
L 188.338519 274.709954 
L 188.338519 279.5838 
L 188.338519 284.457646 
L 188.338519 289.331492 
L 189.025288 289.818877 
L 195.892981 289.818877 
L 196.57975 289.331492 
L 196.57975 284.457646 
L 196.57975 279.5838 
L 196.57975 274.709954 
L 196.57975 269.836108 
L 196.57975 264.962262 
L 196.57975 260.088415 
L 196.57975 255.214569 
L 196.57975 250.340723 
L 196.57975 245.466877 
L 196.57975 240.593031 
L 196.57975 235.719185 
L 196.57975 230.845338 
L 196.57975 225.971492 
L 202.760673 221.585031 
L 209.628365 221.585031 
L 215.809288 225.971492 
L 215.809288 230.845338 
L 215.809288 235.719185 
L 215.809288 240.593031 
L 215.809288 245.466877 
L 215.809288 250.340723 
L 215.809288 255.214569 
L 215.809288 260.088415 
L 215.809288 264.962262 
L 215.809288 269.836108 
L 215.809288 274.709954 
L 215.809288 279.5838 
L 215.809288 284.457646 
L 215.809288 289.331492 
L 216.496058 289.818877 
L 223.36375 289.818877 
L 230.231442 289.818877 
L 237.099135 289.818877 
L 243.966827 289.818877 
L 250.834519 289.818877 
L 257.015442 294.205338 
L 257.015442 299.079185 
L 257.015442 303.953031 
L 257.015442 308.826877 
L 257.015442 313.700723 
L 257.015442 318.574569 
L 257.015442 323.448415 
L 257.015442 328.322262 
L 257.015442 333.196108 
L 257.015442 338.069954 
L 257.015442 342.9438 
L 257.015442 347.817646 
L 257.015442 352.691492 
L 257.015442 357.565338 
L 257.015442 362.439185 
L 257.015442 367.313031 
L 257.015442 372.186877 
L 257.015442 377.060723 
L 257.015442 381.934569 
L 257.015442 386.808415 
L 257.015442 391.682262 
L 257.015442 396.556108 
L 257.015442 401.429954 
L 257.015442 406.3038 
L 257.015442 411.177646 
L 257.015442 416.051492 
L 257.015442 420.925338 
L 257.015442 425.799185 
L 257.015442 430.673031 
L 257.015442 435.546877 
L 257.015442 440.420723 
L 257.015442 445.294569 
L 257.015442 450.168415 
L 257.015442 455.042262 
L 257.015442 459.916108 
L 257.015442 464.789954 
L 257.015442 469.6638 
z
" clip-path="url(#paa94d0aa30)" style="fill: #f2f2f2; fill-opacity: 0.6"/>
   </g>
   <g id="PathCollection_1">
    <defs>
     <path id="m68c06185b6" d="M 0 4 
C 1.060812 4 2.078319 3.578535 2.828427 2.828427 
C 3.578535 2.078319 4 1.060812 4 0 
C 4 -1.060812 3.578535 -2.078319 2.828427 -2.828427 
C 2.078319 -3.578535 1.060812 -4 0 -4 
C -1.060812 -4 -2.078319 -3.578535 -2.828427 -2.828427 
C -3.578535 -2.078319 -4 -1.060812 -4 0 
C -4 1.060812 -3.578535 2.078319 -2.828427 2.828427 
C -2.078319 3.578535 -1.060812 4 0 4 
z
" style="stroke: #000000"/>
    </defs>
    <g clip-path="url(#paa94d0aa30)">
     <use xlink:href="#m68c06185b6" x="212.022897" y="307.632398" style="fill: #ff0000; stroke: #000000"/>
     <use xlink:href="#m68c06185b6" x="178.828285" y="273.902561" style="fill: #ff0000; stroke: #000000"/>
     <use xlink:href="#m68c06185b6" x="129.952118" y="240.053525" style="fill: #ff0000; stroke: #000000"/>
     <use xlink:href="#m68c06185b6" x="113.480673" y="202.396738" style="fill: #ff0000; stroke: #000000"/>
     <use xlink:href="#m68c06185b6" x="225.961277" y="356.8771" style="fill: #ff0000; stroke: #000000"/>
     <use xlink:href="#m68c06185b6" x="192.167355" y="359.052571" style="fill: #ff0000; stroke: #000000"/>
     <use xlink:href="#m68c06185b6" x="209.732363" y="296.184452" style="fill: #ff0000; stroke: #000000"/>
     <use xlink:href="#m68c06185b6" x="178.576835" y="292.95396" style="fill: #ff0000; stroke: #000000"/>
     <use xlink:href="#m68c06185b6" x="201.466319" y="316.246341" style="fill: #ff0000; stroke: #000000"/>
     <use xlink:href="#m68c06185b6" x="204.651251" y="327.249084" style="fill: #ff0000; stroke: #000000"/>
     <use xlink:href="#m68c06185b6" x="238.364849" y="328.163162" style="fill: #ff0000; stroke: #000000"/>
     <use xlink:href="#m68c06185b6" x="185.663194" y="266.724154" style="fill: #ff0000; stroke: #000000"/>
     <use xlink:href="#m68c06185b6" x="232.774835" y="381.439219" style="fill: #ff0000; stroke: #000000"/>
     <use xlink:href="#m68c06185b6" x="165.420848" y="241.396902" style="fill: #ff0000; stroke: #000000"/>
     <use xlink:href="#m68c06185b6" x="214.41088" y="311.268528" style="fill: #ff0000; stroke: #000000"/>
     <use xlink:href="#m68c06185b6" x="164.495558" y="319.066868" style="fill: #ff0000; stroke: #000000"/>
     <use xlink:href="#m68c06185b6" x="239.889113" y="349.264104" style="fill: #ff0000; stroke: #000000"/>
     <use xlink:href="#m68c06185b6" x="181.262991" y="324.983651" style="fill: #ff0000; stroke: #000000"/>
     <use xlink:href="#m68c06185b6" x="250.62936" y="358.806297" style="fill: #ff0000; stroke: #000000"/>
     <use xlink:href="#m68c06185b6" x="214.034083" y="361.680848" style="fill: #ff0000; stroke: #000000"/>
     <use xlink:href="#m68c06185b6" x="145.065645" y="246.559752" style="fill: #ff0000; stroke: #000000"/>
     <use xlink:href="#m68c06185b6" x="172.703678" y="274.025696" style="fill: #ff0000; stroke: #000000"/>
     <use xlink:href="#m68c06185b6" x="231.395703" y="386.668648" style="fill: #ff0000; stroke: #000000"/>
     <use xlink:href="#m68c06185b6" x="177.997835" y="297.972418" style="fill: #ff0000; stroke: #000000"/>
     <use xlink:href="#m68c06185b6" x="190.930668" y="310.473538" style="fill: #ff0000; stroke: #000000"/>
     <use xlink:href="#m68c06185b6" x="197.323917" y="292.406424" style="fill: #ff0000; stroke: #000000"/>
     <use xlink:href="#m68c06185b6" x="216.289155" y="316.935984" style="fill: #ff0000; stroke: #000000"/>
     <use xlink:href="#m68c06185b6" x="206.859924" y="280.578038" style="fill: #ff0000; stroke: #000000"/>
     <use xlink:href="#m68c06185b6" x="179.112135" y="310.00352" style="fill: #ff0000; stroke: #000000"/>
     <use xlink:href="#m68c06185b6" x="166.004522" y="253.16233" style="fill: #ff0000; stroke: #000000"/>
     <use xlink:href="#m68c06185b6" x="188.660492" y="298.292025" style="fill: #ff0000; stroke: #000000"/>
     <use xlink:href="#m68c06185b6" x="150.943551" y="279.225731" style="fill: #ff0000; stroke: #000000"/>
     <use xlink:href="#m68c06185b6" x="162.081919" y="260.785391" style="fill: #ff0000; stroke: #000000"/>
     <use xlink:href="#m68c06185b6" x="195.752231" y="318.907139" style="fill: #ff0000; stroke: #000000"/>
     <use xlink:href="#m68c06185b6" x="174.946011" y="293.327522" style="fill: #ff0000; stroke: #000000"/>
     <use xlink:href="#m68c06185b6" x="211.018743" y="317.635692" style="fill: #ff0000; stroke: #000000"/>
     <use xlink:href="#m68c06185b6" x="187.629228" y="360.434276" style="fill: #ff0000; stroke: #000000"/>
     <use xlink:href="#m68c06185b6" x="188.905045" y="346.664561" style="fill: #ff0000; stroke: #000000"/>
     <use xlink:href="#m68c06185b6" x="193.401375" y="292.354566" style="fill: #ff0000; stroke: #000000"/>
     <use xlink:href="#m68c06185b6" x="185.377144" y="314.382955" style="fill: #ff0000; stroke: #000000"/>
     <use xlink:href="#m68c06185b6" x="144.847618" y="268.191214" style="fill: #ff0000; stroke: #000000"/>
     <use xlink:href="#m68c06185b6" x="159.910557" y="297.297032" style="fill: #ff0000; stroke: #000000"/>
     <use xlink:href="#m68c06185b6" x="152.784584" y="259.336175" style="fill: #ff0000; stroke: #000000"/>
     <use xlink:href="#m68c06185b6" x="144.441351" y="274.420402" style="fill: #ff0000; stroke: #000000"/>
     <use xlink:href="#m68c06185b6" x="150.19249" y="262.212064" style="fill: #ff0000; stroke: #000000"/>
     <use xlink:href="#m68c06185b6" x="123.502806" y="222.802866" style="fill: #ff0000; stroke: #000000"/>
     <use xlink:href="#m68c06185b6" x="194.226815" y="302.277674" style="fill: #ff0000; stroke: #000000"/>
     <use xlink:href="#m68c06185b6" x="182.987547" y="310.307041" style="fill: #ff0000; stroke: #000000"/>
     <use xlink:href="#m68c06185b6" x="183.107659" y="301.595915" style="fill: #ff0000; stroke: #000000"/>
     <use xlink:href="#m68c06185b6" x="179.360227" y="298.130565" style="fill: #ff0000; stroke: #000000"/>
     <use xlink:href="#m68c06185b6" x="155.668657" y="255.991105" style="fill: #ff0000; stroke: #000000"/>
    </g>
   </g>
   <g id="PathCollection_2">
    <defs>
     <path id="m0770bf1a25" d="M 0 4 
C 1.060812 4 2.078319 3.578535 2.828427 2.828427 
C 3.578535 2.078319 4 1.060812 4 0 
C 4 -1.060812 3.578535 -2.078319 2.828427 -2.828427 
C 2.078319 -3.578535 1.060812 -4 0 -4 
C -1.060812 -4 -2.078319 -3.578535 -2.828427 -2.828427 
C -3.578535 -2.078319 -4 -1.060812 -4 0 
C -4 1.060812 -3.578535 2.078319 -2.828427 2.828427 
C -2.078319 3.578535 -1.060812 4 0 4 
z
" style="stroke: #000000"/>
    </defs>
    <g clip-path="url(#paa94d0aa30)">
     <use xlink:href="#m0770bf1a25" x="311.242449" y="249.003986" style="fill: #0000ff; stroke: #000000"/>
     <use xlink:href="#m0770bf1a25" x="288.360333" y="346.996627" style="fill: #0000ff; stroke: #000000"/>
     <use xlink:href="#m0770bf1a25" x="357.625822" y="363.137342" style="fill: #0000ff; stroke: #000000"/>
     <use xlink:href="#m0770bf1a25" x="203.634865" y="73.895636" style="fill: #0000ff; stroke: #000000"/>
     <use xlink:href="#m0770bf1a25" x="237.921761" y="108.483912" style="fill: #0000ff; stroke: #000000"/>
     <use xlink:href="#m0770bf1a25" x="304.451632" y="262.661733" style="fill: #0000ff; stroke: #000000"/>
     <use xlink:href="#m0770bf1a25" x="240.41592" y="220.643277" style="fill: #0000ff; stroke: #000000"/>
     <use xlink:href="#m0770bf1a25" x="308.249014" y="317.121343" style="fill: #0000ff; stroke: #000000"/>
     <use xlink:href="#m0770bf1a25" x="355.722531" y="367.195723" style="fill: #0000ff; stroke: #000000"/>
     <use xlink:href="#m0770bf1a25" x="421.001703" y="230.661331" style="fill: #0000ff; stroke: #000000"/>
     <use xlink:href="#m0770bf1a25" x="303.285411" y="309.015866" style="fill: #0000ff; stroke: #000000"/>
     <use xlink:href="#m0770bf1a25" x="308.125521" y="348.562007" style="fill: #0000ff; stroke: #000000"/>
     <use xlink:href="#m0770bf1a25" x="331.292199" y="362.704004" style="fill: #0000ff; stroke: #000000"/>
     <use xlink:href="#m0770bf1a25" x="281.604089" y="218.447561" style="fill: #0000ff; stroke: #000000"/>
     <use xlink:href="#m0770bf1a25" x="298.387321" y="331.416519" style="fill: #0000ff; stroke: #000000"/>
     <use xlink:href="#m0770bf1a25" x="379.361931" y="284.849932" style="fill: #0000ff; stroke: #000000"/>
     <use xlink:href="#m0770bf1a25" x="372.346732" y="330.381004" style="fill: #0000ff; stroke: #000000"/>
     <use xlink:href="#m0770bf1a25" x="368.427891" y="325.168247" style="fill: #0000ff; stroke: #000000"/>
     <use xlink:href="#m0770bf1a25" x="332.41715" y="250.564319" style="fill: #0000ff; stroke: #000000"/>
     <use xlink:href="#m0770bf1a25" x="239.312217" y="217.741852" style="fill: #0000ff; stroke: #000000"/>
     <use xlink:href="#m0770bf1a25" x="326.756779" y="264.181107" style="fill: #0000ff; stroke: #000000"/>
     <use xlink:href="#m0770bf1a25" x="255.231858" y="282.458803" style="fill: #0000ff; stroke: #000000"/>
     <use xlink:href="#m0770bf1a25" x="334.88966" y="216.409908" style="fill: #0000ff; stroke: #000000"/>
     <use xlink:href="#m0770bf1a25" x="268.404613" y="244.963728" style="fill: #0000ff; stroke: #000000"/>
     <use xlink:href="#m0770bf1a25" x="311.061963" y="232.872136" style="fill: #0000ff; stroke: #000000"/>
     <use xlink:href="#m0770bf1a25" x="327.399733" y="348.54004" style="fill: #0000ff; stroke: #000000"/>
     <use xlink:href="#m0770bf1a25" x="330.89227" y="265.462551" style="fill: #0000ff; stroke: #000000"/>
     <use xlink:href="#m0770bf1a25" x="308.390245" y="320.636713" style="fill: #0000ff; stroke: #000000"/>
     <use xlink:href="#m0770bf1a25" x="341.995247" y="355.538243" style="fill: #0000ff; stroke: #000000"/>
     <use xlink:href="#m0770bf1a25" x="292.091601" y="279.892105" style="fill: #0000ff; stroke: #000000"/>
     <use xlink:href="#m0770bf1a25" x="214.9962" y="287.547542" style="fill: #0000ff; stroke: #000000"/>
     <use xlink:href="#m0770bf1a25" x="192.306063" y="274.004276" style="fill: #0000ff; stroke: #000000"/>
     <use xlink:href="#m0770bf1a25" x="399.411454" y="335.051568" style="fill: #0000ff; stroke: #000000"/>
     <use xlink:href="#m0770bf1a25" x="296.415272" y="261.286172" style="fill: #0000ff; stroke: #000000"/>
     <use xlink:href="#m0770bf1a25" x="296.110703" y="420.925338" style="fill: #0000ff; stroke: #000000"/>
     <use xlink:href="#m0770bf1a25" x="311.088064" y="223.107175" style="fill: #0000ff; stroke: #000000"/>
     <use xlink:href="#m0770bf1a25" x="343.797391" y="292.72681" style="fill: #0000ff; stroke: #000000"/>
     <use xlink:href="#m0770bf1a25" x="340.156441" y="262.313146" style="fill: #0000ff; stroke: #000000"/>
     <use xlink:href="#m0770bf1a25" x="175.275038" y="211.788697" style="fill: #0000ff; stroke: #000000"/>
     <use xlink:href="#m0770bf1a25" x="394.808152" y="321.81928" style="fill: #0000ff; stroke: #000000"/>
     <use xlink:href="#m0770bf1a25" x="321.29422" y="339.755556" style="fill: #0000ff; stroke: #000000"/>
     <use xlink:href="#m0770bf1a25" x="351.613487" y="296.284122" style="fill: #0000ff; stroke: #000000"/>
     <use xlink:href="#m0770bf1a25" x="269.388995" y="250.487423" style="fill: #0000ff; stroke: #000000"/>
     <use xlink:href="#m0770bf1a25" x="327.151494" y="255.138077" style="fill: #0000ff; stroke: #000000"/>
     <use xlink:href="#m0770bf1a25" x="375.53952" y="322.506757" style="fill: #0000ff; stroke: #000000"/>
     <use xlink:href="#m0770bf1a25" x="360.383294" y="269.291664" style="fill: #0000ff; stroke: #000000"/>
     <use xlink:href="#m0770bf1a25" x="318.113278" y="237.223801" style="fill: #0000ff; stroke: #000000"/>
     <use xlink:href="#m0770bf1a25" x="424.838859" y="295.717151" style="fill: #0000ff; stroke: #000000"/>
     <use xlink:href="#m0770bf1a25" x="269.160404" y="191.134372" style="fill: #0000ff; stroke: #000000"/>
    </g>
   </g>
   <g id="matplotlib.axis_1">
    <g id="xtick_1">
     <g id="line2d_1">
      <defs>
       <path id="mafed2516a3" d="M 0 0 
L 0 3.5 
" style="stroke: #000000; stroke-width: 0.8"/>
      </defs>
      <g>
       <use xlink:href="#mafed2516a3" x="111.217299" y="469.6638" style="stroke: #000000; stroke-width: 0.8"/>
      </g>
     </g>
     <g id="text_1">
      <!-- 2 -->
      <g transform="translate(104.676674 484.154425) scale(0.1 -0.1)">
       <defs>
        <path id="IPAexGothic-2212" d="M 416 2222 
L 3922 2222 
L 3922 1856 
L 416 1856 
L 416 2222 
z
" transform="scale(0.015625)"/>
        <path id="IPAexGothic-32" d="M 3659 63 
L 447 63 
L 447 594 
Q 825 1475 1894 2203 
L 2072 2322 
Q 2619 2697 2791 2906 
Q 2988 3153 2988 3444 
Q 2988 3772 2756 4003 
Q 2500 4259 2084 4259 
Q 1250 4259 991 3328 
L 497 3506 
Q 853 4725 2116 4725 
Q 2806 4725 3216 4316 
Q 3575 3947 3575 3425 
Q 3575 3038 3344 2722 
Q 3131 2416 2366 1938 
L 2231 1856 
Q 1256 1253 978 569 
L 3659 569 
L 3659 63 
z
" transform="scale(0.015625)"/>
       </defs>
       <use xlink:href="#IPAexGothic-2212"/>
       <use xlink:href="#IPAexGothic-32" transform="translate(67.822266 0)"/>
      </g>
     </g>
    </g>
    <g id="xtick_2">
     <g id="line2d_2">
      <g>
       <use xlink:href="#mafed2516a3" x="179.894222" y="469.6638" style="stroke: #000000; stroke-width: 0.8"/>
      </g>
     </g>
     <g id="text_2">
      <!-- 1 -->
      <g transform="translate(173.353597 484.154425) scale(0.1 -0.1)">
       <defs>
        <path id="IPAexGothic-31" d="M 2463 63 
L 1900 63 
L 1900 4103 
Q 1372 3922 788 3797 
L 684 4231 
Q 1519 4441 2106 4731 
L 2463 4731 
L 2463 63 
z
" transform="scale(0.015625)"/>
       </defs>
       <use xlink:href="#IPAexGothic-2212"/>
       <use xlink:href="#IPAexGothic-31" transform="translate(67.822266 0)"/>
      </g>
     </g>
    </g>
    <g id="xtick_3">
     <g id="line2d_3">
      <g>
       <use xlink:href="#mafed2516a3" x="248.571146" y="469.6638" style="stroke: #000000; stroke-width: 0.8"/>
      </g>
     </g>
     <g id="text_3">
      <!-- 0 -->
      <g transform="translate(245.421927 484.154425) scale(0.1 -0.1)">
       <defs>
        <path id="IPAexGothic-30" d="M 2038 4725 
Q 2881 4725 3334 3944 
Q 3694 3325 3694 2344 
Q 3694 1372 3334 741 
Q 2888 -31 2016 -31 
Q 1147 -31 700 741 
Q 341 1372 341 2350 
Q 341 3713 1000 4334 
Q 1419 4725 2038 4725 
z
M 2016 4266 
Q 1516 4266 1228 3759 
Q 934 3247 934 2344 
Q 934 1456 1222 947 
Q 1513 447 2016 447 
Q 2619 447 2909 1153 
Q 3100 1622 3100 2375 
Q 3100 3256 2806 3759 
Q 2509 4266 2016 4266 
z
" transform="scale(0.015625)"/>
       </defs>
       <use xlink:href="#IPAexGothic-30"/>
      </g>
     </g>
    </g>
    <g id="xtick_4">
     <g id="line2d_4">
      <g>
       <use xlink:href="#mafed2516a3" x="317.248069" y="469.6638" style="stroke: #000000; stroke-width: 0.8"/>
      </g>
     </g>
     <g id="text_4">
      <!-- 1 -->
      <g transform="translate(314.09885 484.154425) scale(0.1 -0.1)">
       <use xlink:href="#IPAexGothic-31"/>
      </g>
     </g>
    </g>
    <g id="xtick_5">
     <g id="line2d_5">
      <g>
       <use xlink:href="#mafed2516a3" x="385.924992" y="469.6638" style="stroke: #000000; stroke-width: 0.8"/>
      </g>
     </g>
     <g id="text_5">
      <!-- 2 -->
      <g transform="translate(382.775773 484.154425) scale(0.1 -0.1)">
       <use xlink:href="#IPAexGothic-32"/>
      </g>
     </g>
    </g>
    <g id="xtick_6">
     <g id="line2d_6">
      <g>
       <use xlink:href="#mafed2516a3" x="454.601915" y="469.6638" style="stroke: #000000; stroke-width: 0.8"/>
      </g>
     </g>
     <g id="text_6">
      <!-- 3 -->
      <g transform="translate(451.452696 484.154425) scale(0.1 -0.1)">
       <defs>
        <path id="IPAexGothic-33" d="M 2381 2419 
Q 3506 2216 3506 1278 
Q 3506 716 3128 356 
Q 2709 -31 1944 -31 
Q 797 -31 288 881 
L 756 1131 
Q 1109 441 1938 441 
Q 2425 441 2694 691 
Q 2950 928 2950 1291 
Q 2950 1719 2566 1978 
Q 2216 2213 1644 2213 
L 1363 2213 
L 1363 2669 
L 1656 2669 
Q 2231 2669 2534 2888 
Q 2859 3119 2859 3509 
Q 2859 3934 2494 4138 
Q 2259 4278 1931 4278 
Q 1238 4278 903 3578 
L 434 3803 
Q 897 4725 1938 4725 
Q 2597 4725 3006 4394 
Q 3416 4069 3416 3534 
Q 3416 3028 3019 2706 
Q 2763 2500 2381 2444 
L 2381 2419 
z
" transform="scale(0.015625)"/>
       </defs>
       <use xlink:href="#IPAexGothic-33"/>
      </g>
     </g>
    </g>
    <g id="text_7">
     <!-- x1 -->
     <g transform="translate(259.949875 500.840925) scale(0.144 -0.144)">
      <defs>
       <path id="IPAexGothic-78" d="M 3050 63 
L 2419 63 
L 1547 1338 
L 691 63 
L 56 63 
L 1247 1675 
L 106 3250 
L 747 3250 
L 1578 2016 
L 2413 3250 
L 3019 3250 
L 1875 1681 
L 3050 63 
z
" transform="scale(0.015625)"/>
      </defs>
      <use xlink:href="#IPAexGothic-78"/>
      <use xlink:href="#IPAexGothic-31" transform="translate(48.876953 0)"/>
     </g>
    </g>
   </g>
   <g id="matplotlib.axis_2">
    <g id="ytick_1">
     <g id="line2d_7">
      <defs>
       <path id="m1550db1ae6" d="M 0 0 
L -3.5 0 
" style="stroke: #000000; stroke-width: 0.8"/>
      </defs>
      <g>
       <use xlink:href="#m1550db1ae6" x="44.80375" y="435.77781" style="stroke: #000000; stroke-width: 0.8"/>
      </g>
     </g>
     <g id="text_8">
      <!-- 2 -->
      <g transform="translate(24.7225 439.523123) scale(0.1 -0.1)">
       <use xlink:href="#IPAexGothic-2212"/>
       <use xlink:href="#IPAexGothic-32" transform="translate(67.822266 0)"/>
      </g>
     </g>
    </g>
    <g id="ytick_2">
     <g id="line2d_8">
      <g>
       <use xlink:href="#m1550db1ae6" x="44.80375" y="338.300887" style="stroke: #000000; stroke-width: 0.8"/>
      </g>
     </g>
     <g id="text_9">
      <!-- 0 -->
      <g transform="translate(31.505312 342.0462) scale(0.1 -0.1)">
       <use xlink:href="#IPAexGothic-30"/>
      </g>
     </g>
    </g>
    <g id="ytick_3">
     <g id="line2d_9">
      <g>
       <use xlink:href="#m1550db1ae6" x="44.80375" y="240.823964" style="stroke: #000000; stroke-width: 0.8"/>
      </g>
     </g>
     <g id="text_10">
      <!-- 2 -->
      <g transform="translate(31.505312 244.569277) scale(0.1 -0.1)">
       <use xlink:href="#IPAexGothic-32"/>
      </g>
     </g>
    </g>
    <g id="ytick_4">
     <g id="line2d_10">
      <g>
       <use xlink:href="#m1550db1ae6" x="44.80375" y="143.347041" style="stroke: #000000; stroke-width: 0.8"/>
      </g>
     </g>
     <g id="text_11">
      <!-- 4 -->
      <g transform="translate(31.505312 147.092354) scale(0.1 -0.1)">
       <defs>
        <path id="IPAexGothic-34" d="M 3813 1159 
L 3059 1159 
L 3059 63 
L 2547 63 
L 2547 1159 
L 197 1159 
L 197 1672 
L 2456 4678 
L 3059 4678 
L 3059 1634 
L 3813 1634 
L 3813 1159 
z
M 2578 4109 
L 2559 4109 
Q 2278 3656 2003 3284 
L 759 1634 
L 2547 1634 
L 2547 3144 
Q 2547 3481 2578 4109 
z
" transform="scale(0.015625)"/>
       </defs>
       <use xlink:href="#IPAexGothic-34"/>
      </g>
     </g>
    </g>
    <g id="ytick_5">
     <g id="line2d_11">
      <g>
       <use xlink:href="#m1550db1ae6" x="44.80375" y="45.870118" style="stroke: #000000; stroke-width: 0.8"/>
      </g>
     </g>
     <g id="text_12">
      <!-- 6 -->
      <g transform="translate(31.505312 49.615431) scale(0.1 -0.1)">
       <defs>
        <path id="IPAexGothic-36" d="M 1056 2328 
Q 1509 2981 2234 2981 
Q 2906 2981 3316 2513 
Q 3675 2106 3675 1522 
Q 3675 884 3272 434 
Q 2853 -31 2178 -31 
Q 1375 -31 922 581 
Q 481 1178 481 2228 
Q 481 3425 1013 4109 
Q 1494 4725 2272 4725 
Q 3191 4725 3609 4025 
L 3150 3775 
Q 2894 4266 2300 4266 
Q 1119 4266 1031 2328 
L 1056 2328 
z
M 2141 2547 
Q 1684 2547 1384 2206 
Q 1116 1900 1116 1541 
Q 1116 1156 1353 844 
Q 1672 428 2159 428 
Q 2669 428 2941 844 
Q 3125 1128 3125 1503 
Q 3125 1944 2881 2228 
Q 2600 2547 2141 2547 
z
" transform="scale(0.015625)"/>
       </defs>
       <use xlink:href="#IPAexGothic-36"/>
      </g>
     </g>
    </g>
    <g id="text_13">
     <!-- x2 -->
     <g transform="translate(17.9865 255.957675) rotate(-90) scale(0.144 -0.144)">
      <use xlink:href="#IPAexGothic-78"/>
      <use xlink:href="#IPAexGothic-32" transform="translate(48.876953 0)"/>
     </g>
    </g>
   </g>
   <g id="text_14">
    <!--  -->
    <g transform="translate(181.60375 20.1438) scale(0.1728 -0.1728)">
     <defs>
      <path id="IPAexGothic-6c7a" d="M 4116 2081 
Q 4659 809 6003 84 
L 5656 -338 
Q 4281 500 3775 1884 
Q 3766 1853 3756 1806 
Q 3497 394 2078 -441 
L 1738 -38 
Q 3138 625 3391 2081 
L 1969 2081 
L 1969 2497 
L 3422 2497 
L 3422 3750 
L 2322 3750 
L 2322 4153 
L 3422 4153 
L 3422 5313 
L 3891 5313 
L 3891 4153 
L 5234 4153 
L 5234 2497 
L 6003 2497 
L 6003 2081 
L 4116 2081 
z
M 4788 3750 
L 3891 3750 
L 3891 2497 
L 4788 2497 
L 4788 3750 
z
M 1691 3769 
Q 1203 4344 703 4709 
L 1025 5044 
Q 1544 4675 2022 4147 
L 1691 3769 
z
M 1453 2278 
Q 1016 2772 441 3206 
L 756 3547 
Q 1278 3188 1778 2656 
L 1453 2278 
z
M 391 19 
Q 1063 800 1613 1966 
L 1966 1656 
Q 1394 428 750 -397 
L 391 19 
z
" transform="scale(0.015625)"/>
      <path id="IPAexGothic-5b9a" d="M 3431 303 
Q 3931 225 4709 225 
Q 5191 225 6053 263 
Q 5963 59 5888 -228 
Q 5234 -250 4844 -250 
Q 3569 -250 3003 -78 
Q 2259 153 1750 903 
Q 1441 163 806 -459 
L 475 -75 
Q 1416 759 1684 2419 
L 2125 2303 
Q 2031 1756 1909 1356 
Q 2338 678 2972 416 
L 2972 2944 
L 1434 2944 
L 1434 3353 
L 4959 3353 
L 4959 2944 
L 3431 2944 
L 3431 1984 
L 5397 1984 
L 5397 1569 
L 3431 1569 
L 3431 303 
z
M 3419 4428 
L 5750 4428 
L 5750 3166 
L 5275 3166 
L 5275 4025 
L 1122 4025 
L 1122 3166 
L 647 3166 
L 647 4428 
L 2938 4428 
L 2938 5313 
L 3419 5313 
L 3419 4428 
z
" transform="scale(0.015625)"/>
      <path id="IPAexGothic-6728" d="M 3547 3328 
Q 4384 1728 6088 838 
L 5728 353 
Q 4134 1459 3425 2797 
L 3425 -384 
L 2931 -384 
L 2931 2731 
Q 2272 1253 731 191 
L 372 594 
Q 2013 1584 2803 3328 
L 481 3328 
L 481 3769 
L 2931 3769 
L 2931 5150 
L 3425 5150 
L 3425 3769 
L 5922 3769 
L 5922 3328 
L 3547 3328 
z
" transform="scale(0.015625)"/>
      <path id="IPAexGothic-306b" d="M 1088 -38 
Q 922 1003 922 2081 
Q 922 3222 1331 4794 
L 1813 4684 
Q 1391 3113 1391 2003 
Q 1391 1441 1422 1147 
Q 1434 1181 1813 2016 
L 2125 1797 
Q 1800 1081 1691 763 
Q 1581 453 1581 269 
Q 1581 78 1588 6 
L 1088 -38 
z
M 2834 4038 
Q 3969 4213 5313 4172 
L 5338 3681 
Q 3959 3728 2869 3547 
L 2834 4038 
z
M 5650 256 
Q 5044 172 4372 172 
Q 3463 172 3047 434 
Q 2784 594 2675 841 
Q 2572 1075 2572 1447 
Q 2572 1563 2578 1656 
L 3053 1684 
Q 3050 1613 3044 1528 
Q 3041 1481 3041 1466 
Q 3041 1200 3119 1053 
Q 3178 944 3309 850 
Q 3569 678 4275 678 
Q 4891 678 5588 763 
L 5650 256 
z
" transform="scale(0.015625)"/>
      <path id="IPAexGothic-3088" d="M 2784 5019 
L 3272 5019 
Q 3247 4378 3272 3647 
Q 4184 3719 4850 3903 
L 4997 3431 
Q 4369 3291 3272 3200 
Q 3288 2366 3378 1550 
Q 4134 1353 5344 647 
L 5031 213 
Q 4244 759 3406 1044 
L 3413 891 
Q 3434 359 3122 84 
Q 2863 -141 2272 -141 
Q 1641 -141 1272 116 
Q 934 350 934 738 
Q 934 1294 1500 1534 
Q 1841 1678 2278 1678 
Q 2581 1678 2906 1631 
Q 2813 2559 2784 5019 
z
M 2931 1178 
Q 2613 1244 2369 1244 
Q 1422 1244 1422 794 
Q 1422 300 2278 300 
Q 2956 300 2938 934 
L 2931 1178 
z
" transform="scale(0.015625)"/>
      <path id="IPAexGothic-308b" d="M 4391 4397 
L 2613 2588 
Q 3225 2809 3759 2809 
Q 4263 2809 4659 2625 
Q 5391 2269 5391 1484 
Q 5391 756 4706 275 
Q 4072 -166 3053 -166 
Q 2559 -166 2247 19 
Q 1863 250 1863 666 
Q 1863 934 2069 1141 
Q 2331 1403 2741 1403 
Q 3509 1403 4019 428 
Q 4872 784 4872 1491 
Q 4872 1981 4469 2222 
Q 4166 2406 3681 2406 
Q 2425 2406 1238 1209 
L 891 1581 
Q 2438 2934 3578 4281 
Q 2594 4125 1588 4066 
L 1478 4550 
Q 2594 4581 4109 4763 
L 4391 4397 
z
M 3591 303 
Q 3244 1025 2731 1025 
Q 2553 1025 2434 934 
Q 2316 844 2316 700 
Q 2316 250 3034 250 
Q 3275 250 3591 303 
z
" transform="scale(0.015625)"/>
      <path id="IPAexGothic-5206" d="M 3031 2431 
Q 2916 1378 2528 759 
Q 1991 -81 941 -469 
L 625 -53 
Q 2356 488 2541 2431 
L 1375 2431 
L 1375 2772 
Q 1044 2431 653 2156 
L 313 2534 
Q 1600 3425 2219 5056 
L 2688 4875 
Q 2200 3672 1453 2847 
L 4966 2847 
Q 4878 559 4741 94 
Q 4666 -163 4459 -250 
Q 4288 -322 3941 -322 
Q 3525 -322 2981 -263 
L 2884 256 
Q 3441 138 3844 138 
Q 4213 138 4281 438 
Q 4388 931 4472 2431 
L 3031 2431 
z
M 5747 2303 
Q 4416 3238 3506 4934 
L 3934 5113 
Q 4747 3572 6084 2747 
L 5747 2303 
z
" transform="scale(0.015625)"/>
      <path id="IPAexGothic-985e" d="M 1575 3238 
Q 1153 2647 513 2213 
L 256 2547 
Q 953 2959 1416 3572 
L 1447 3609 
L 366 3609 
L 366 3981 
L 1575 3981 
L 1575 5313 
L 1978 5313 
L 1978 3981 
L 3109 3981 
L 3109 3609 
L 1978 3609 
L 1978 3425 
Q 2581 3147 3059 2791 
L 2809 2406 
Q 2469 2747 1978 3059 
L 1978 2388 
L 1575 2388 
L 1575 3238 
z
M 4616 4025 
L 5709 4025 
L 5709 794 
L 3400 794 
L 3400 4025 
L 4219 4025 
Q 4284 4284 4353 4659 
L 3094 4659 
L 3094 5056 
L 6022 5056 
L 6022 4659 
L 4800 4659 
Q 4797 4638 4769 4538 
Q 4719 4309 4616 4025 
z
M 5300 3653 
L 3809 3653 
L 3809 3078 
L 5300 3078 
L 5300 3653 
z
M 3809 2713 
L 3809 2138 
L 5300 2138 
L 5300 2713 
L 3809 2713 
z
M 3809 1778 
L 3809 1166 
L 5300 1166 
L 5300 1778 
L 3809 1778 
z
M 1569 1691 
L 1569 2197 
L 1991 2197 
L 1991 1691 
L 3072 1691 
L 3072 1306 
L 1978 1306 
Q 1969 1178 1938 1081 
Q 2447 744 2944 256 
L 2625 -88 
Q 2247 375 1825 719 
Q 1525 -28 678 -497 
L 384 -153 
Q 1416 338 1550 1306 
L 366 1306 
L 366 1691 
L 1569 1691 
z
M 897 4072 
Q 706 4600 500 4916 
L 884 5088 
Q 1091 4756 1300 4238 
L 897 4072 
z
M 2200 4219 
Q 2456 4659 2578 5100 
L 2994 4978 
Q 2819 4509 2541 4072 
L 2200 4219 
z
M 5753 -422 
Q 5344 47 4728 525 
L 5044 756 
Q 5566 413 6138 -116 
L 5753 -422 
z
M 2809 -178 
Q 3488 169 3981 750 
L 4338 506 
Q 3831 -88 3122 -500 
L 2809 -178 
z
" transform="scale(0.015625)"/>
      <path id="IPAexGothic-5883" d="M 4606 1153 
L 4606 256 
Q 4606 106 4684 75 
Q 4744 50 5009 50 
Q 5503 50 5563 216 
Q 5597 331 5606 794 
L 6041 666 
Q 6031 -41 5881 -200 
Q 5713 -378 4978 -378 
Q 4531 -378 4375 -322 
Q 4172 -231 4172 78 
L 4172 1153 
L 3647 1153 
Q 3619 394 3281 38 
Q 2884 -369 1919 -494 
L 1691 -91 
Q 2659 -3 2963 341 
Q 3184 591 3213 1153 
L 2541 1153 
L 2541 2938 
L 5459 2938 
L 5459 1153 
L 4606 1153 
z
M 2981 2597 
L 2981 2216 
L 5022 2216 
L 5022 2597 
L 2981 2597 
z
M 2981 1891 
L 2981 1494 
L 5022 1494 
L 5022 1891 
L 2981 1891 
z
M 1069 3731 
L 1069 5147 
L 1497 5147 
L 1497 3731 
L 2028 3731 
L 2028 3303 
L 1497 3303 
L 1497 1238 
L 1522 1244 
Q 1853 1359 2181 1491 
L 2213 1088 
Q 1397 706 447 403 
L 275 866 
Q 572 931 1025 1075 
Q 1031 1078 1050 1081 
Q 1063 1084 1069 1088 
L 1069 3303 
L 372 3303 
L 372 3731 
L 1069 3731 
z
M 4191 4659 
L 5747 4659 
L 5747 4313 
L 5059 4313 
Q 4963 4016 4791 3688 
L 6034 3688 
L 6034 3322 
L 2169 3322 
L 2169 3688 
L 3163 3688 
Q 3053 4031 2913 4313 
L 2334 4313 
L 2334 4659 
L 3744 4659 
L 3744 5313 
L 4191 5313 
L 4191 4659 
z
M 3372 4313 
Q 3506 4041 3603 3688 
L 4356 3688 
Q 4500 4000 4600 4313 
L 3372 4313 
z
" transform="scale(0.015625)"/>
      <path id="IPAexGothic-754c" d="M 4247 2559 
L 4288 2528 
Q 5050 1897 6122 1556 
L 5822 1138 
Q 4450 1706 3691 2559 
L 2706 2559 
Q 1947 1547 600 1044 
L 313 1441 
Q 1488 1788 2194 2559 
L 1094 2559 
L 1094 4978 
L 5297 4978 
L 5297 2559 
L 4247 2559 
z
M 1534 4606 
L 1534 3956 
L 2963 3956 
L 2963 4606 
L 1534 4606 
z
M 1534 3597 
L 1534 2919 
L 2963 2919 
L 2963 3597 
L 1534 3597 
z
M 4856 2919 
L 4856 3597 
L 3391 3597 
L 3391 2919 
L 4856 2919 
z
M 4856 3956 
L 4856 4606 
L 3391 4606 
L 3391 3956 
L 4856 3956 
z
M 2084 1844 
L 2559 1844 
L 2559 1550 
Q 2559 584 2128 72 
Q 1828 -291 1209 -556 
L 894 -206 
Q 1600 75 1869 506 
Q 2084 856 2084 1409 
L 2084 1844 
z
M 3947 1844 
L 4422 1844 
L 4422 -441 
L 3947 -441 
L 3947 1844 
z
" transform="scale(0.015625)"/>
     </defs>
     <use xlink:href="#IPAexGothic-6c7a"/>
     <use xlink:href="#IPAexGothic-5b9a" transform="translate(100 0)"/>
     <use xlink:href="#IPAexGothic-6728" transform="translate(200 0)"/>
     <use xlink:href="#IPAexGothic-306b" transform="translate(300 0)"/>
     <use xlink:href="#IPAexGothic-3088" transform="translate(400 0)"/>
     <use xlink:href="#IPAexGothic-308b" transform="translate(500 0)"/>
     <use xlink:href="#IPAexGothic-5206" transform="translate(600 0)"/>
     <use xlink:href="#IPAexGothic-985e" transform="translate(700 0)"/>
     <use xlink:href="#IPAexGothic-5883" transform="translate(800 0)"/>
     <use xlink:href="#IPAexGothic-754c" transform="translate(900 0)"/>
    </g>
   </g>
   <g id="legend_1">
    <g id="patch_3">
     <path d="M 430.493125 81.0813 
L 476.80375 81.0813 
Q 479.20375 81.0813 479.20375 78.6813 
L 479.20375 40.5438 
Q 479.20375 38.1438 476.80375 38.1438 
L 430.493125 38.1438 
Q 428.093125 38.1438 428.093125 40.5438 
L 428.093125 78.6813 
Q 428.093125 81.0813 430.493125 81.0813 
z
" style="fill: #ffffff; opacity: 0.8; stroke: #cccccc; stroke-linejoin: miter"/>
    </g>
    <g id="PathCollection_3">
     <defs>
      <path id="m29aa796950" d="M 0 8 
C 2.121625 8 4.156639 7.15707 5.656854 5.656854 
C 7.15707 4.156639 8 2.121625 8 0 
C 8 -2.121625 7.15707 -4.156639 5.656854 -5.656854 
C 4.156639 -7.15707 2.121625 -8 0 -8 
C -2.121625 -8 -4.156639 -7.15707 -5.656854 -5.656854 
C -7.15707 -4.156639 -8 -2.121625 -8 0 
C -8 2.121625 -7.15707 4.156639 -5.656854 5.656854 
C -4.156639 7.15707 -2.121625 8 0 8 
z
" style="stroke: #000000"/>
     </defs>
     <g>
      <use xlink:href="#m29aa796950" x="444.893125" y="48.78255" style="fill: #ff0000; stroke: #000000"/>
     </g>
    </g>
    <g id="text_15">
     <!-- A -->
     <g transform="translate(466.493125 51.93255) scale(0.12 -0.12)">
      <defs>
       <path id="IPAexGothic-41" d="M 4056 63 
L 3444 63 
L 2938 1409 
L 1100 1409 
L 603 63 
L -6 63 
L 1806 4666 
L 2259 4666 
L 4056 63 
z
M 2778 1863 
L 2316 3078 
Q 2125 3588 2028 4000 
L 2009 4000 
Q 1897 3563 1716 3078 
L 1263 1863 
L 2778 1863 
z
" transform="scale(0.015625)"/>
      </defs>
      <use xlink:href="#IPAexGothic-41"/>
     </g>
    </g>
    <g id="PathCollection_4">
     <defs>
      <path id="md1aa30c5c5" d="M 0 8 
C 2.121625 8 4.156639 7.15707 5.656854 5.656854 
C 7.15707 4.156639 8 2.121625 8 0 
C 8 -2.121625 7.15707 -4.156639 5.656854 -5.656854 
C 4.156639 -7.15707 2.121625 -8 0 -8 
C -2.121625 -8 -4.156639 -7.15707 -5.656854 -5.656854 
C -7.15707 -4.156639 -8 -2.121625 -8 0 
C -8 2.121625 -7.15707 4.156639 -5.656854 5.656854 
C -4.156639 7.15707 -2.121625 8 0 8 
z
" style="stroke: #000000"/>
     </defs>
     <g>
      <use xlink:href="#md1aa30c5c5" x="444.893125" y="70.8513" style="fill: #0000ff; stroke: #000000"/>
     </g>
    </g>
    <g id="text_16">
     <!-- B -->
     <g transform="translate(466.493125 74.0013) scale(0.12 -0.12)">
      <defs>
       <path id="IPAexGothic-42" d="M 2688 2425 
Q 3816 2225 3816 1338 
Q 3816 556 3041 222 
Q 2672 63 2094 63 
L 609 63 
L 609 4634 
L 1916 4634 
Q 2494 4634 2869 4500 
Q 3644 4222 3644 3491 
Q 3644 2609 2688 2447 
L 2688 2425 
z
M 1159 2656 
L 1844 2656 
Q 3063 2656 3063 3431 
Q 3063 4181 1881 4181 
L 1159 4181 
L 1159 2656 
z
M 1159 522 
L 2016 522 
Q 3222 522 3222 1369 
Q 3222 1897 2625 2100 
Q 2278 2222 1875 2222 
L 1159 2222 
L 1159 522 
z
" transform="scale(0.015625)"/>
      </defs>
      <use xlink:href="#IPAexGothic-42"/>
     </g>
    </g>
   </g>
  </g>
 </g>
 <defs>
  <clipPath id="paa94d0aa30">
   <rect x="44.80375" y="26.1438" width="446.4" height="443.52"/>
  </clipPath>
 </defs>
</svg>
