<?xml version="1.0" encoding="utf-8" standalone="no"?>
<!DOCTYPE svg PUBLIC "-//W3C//DTD SVG 1.1//EN"
  "http://www.w3.org/Graphics/SVG/1.1/DTD/svg11.dtd">
<svg xmlns:xlink="http://www.w3.org/1999/xlink" width="709.517687pt" height="350.702904pt" viewBox="0 0 709.517687 350.702904" xmlns="http://www.w3.org/2000/svg" version="1.1">
 <metadata>
  <rdf:RDF xmlns:dc="http://purl.org/dc/elements/1.1/" xmlns:cc="http://creativecommons.org/ns#" xmlns:rdf="http://www.w3.org/1999/02/22-rdf-syntax-ns#">
   <cc:Work>
    <dc:type rdf:resource="http://purl.org/dc/dcmitype/StillImage"/>
    <dc:date>2025-10-29T12:35:04.406132</dc:date>
    <dc:format>image/svg+xml</dc:format>
    <dc:creator>
     <cc:Agent>
      <dc:title>Matplotlib v3.10.7, https://matplotlib.org/</dc:title>
     </cc:Agent>
    </dc:creator>
   </cc:Work>
  </rdf:RDF>
 </metadata>
 <defs>
  <style type="text/css">*{stroke-linejoin: round; stroke-linecap: butt}</style>
 </defs>
 <g id="figure_1">
  <g id="patch_1">
   <path d="M -0 350.702904 
L 709.517687 350.702904 
L 709.517687 0 
L -0 0 
z
" style="fill: #ffffff"/>
  </g>
  <g id="axes_1">
   <g id="patch_2">
    <path d="M 52.267688 309.589779 
L 702.317688 309.589779 
L 702.317688 7.401586 
L 52.267688 7.401586 
z
" style="fill: #ffffff"/>
   </g>
   <g id="PathCollection_1">
    <defs>
     <path id="m13b3e95651" d="M 0 4 
C 1.060812 4 2.078319 3.578535 2.828427 2.828427 
C 3.578535 2.078319 4 1.060812 4 0 
C 4 -1.060812 3.578535 -2.078319 2.828427 -2.828427 
C 2.078319 -3.578535 1.060812 -4 0 -4 
C -1.060812 -4 -2.078319 -3.578535 -2.828427 -2.828427 
C -3.578535 -2.078319 -4 -1.060812 -4 0 
C -4 1.060812 -3.578535 2.078319 -2.828427 2.828427 
C -2.078319 3.578535 -1.060812 4 0 4 
z
" style="stroke: #ff7f0e; stroke-opacity: 0.6"/>
    </defs>
    <g clip-path="url(#p3fb6c08698)">
     <use xlink:href="#m13b3e95651" x="180.307839" y="223.716112" style="fill: #ff7f0e; fill-opacity: 0.6; stroke: #ff7f0e; stroke-opacity: 0.6"/>
     <use xlink:href="#m13b3e95651" x="183.618509" y="225.005753" style="fill: #ff7f0e; fill-opacity: 0.6; stroke: #ff7f0e; stroke-opacity: 0.6"/>
     <use xlink:href="#m13b3e95651" x="186.929178" y="216.583849" style="fill: #ff7f0e; fill-opacity: 0.6; stroke: #ff7f0e; stroke-opacity: 0.6"/>
     <use xlink:href="#m13b3e95651" x="190.239848" y="220.490797" style="fill: #ff7f0e; fill-opacity: 0.6; stroke: #ff7f0e; stroke-opacity: 0.6"/>
     <use xlink:href="#m13b3e95651" x="193.550518" y="225.387851" style="fill: #ff7f0e; fill-opacity: 0.6; stroke: #ff7f0e; stroke-opacity: 0.6"/>
     <use xlink:href="#m13b3e95651" x="196.861188" y="215.790255" style="fill: #ff7f0e; fill-opacity: 0.6; stroke: #ff7f0e; stroke-opacity: 0.6"/>
     <use xlink:href="#m13b3e95651" x="200.171857" y="205.767193" style="fill: #ff7f0e; fill-opacity: 0.6; stroke: #ff7f0e; stroke-opacity: 0.6"/>
     <use xlink:href="#m13b3e95651" x="203.482527" y="207.990738" style="fill: #ff7f0e; fill-opacity: 0.6; stroke: #ff7f0e; stroke-opacity: 0.6"/>
     <use xlink:href="#m13b3e95651" x="206.793197" y="222.409739" style="fill: #ff7f0e; fill-opacity: 0.6; stroke: #ff7f0e; stroke-opacity: 0.6"/>
     <use xlink:href="#m13b3e95651" x="210.103867" y="226.56329" style="fill: #ff7f0e; fill-opacity: 0.6; stroke: #ff7f0e; stroke-opacity: 0.6"/>
     <use xlink:href="#m13b3e95651" x="213.414536" y="219.370269" style="fill: #ff7f0e; fill-opacity: 0.6; stroke: #ff7f0e; stroke-opacity: 0.6"/>
     <use xlink:href="#m13b3e95651" x="216.725206" y="211.965617" style="fill: #ff7f0e; fill-opacity: 0.6; stroke: #ff7f0e; stroke-opacity: 0.6"/>
     <use xlink:href="#m13b3e95651" x="220.035876" y="233.128851" style="fill: #ff7f0e; fill-opacity: 0.6; stroke: #ff7f0e; stroke-opacity: 0.6"/>
     <use xlink:href="#m13b3e95651" x="223.346545" y="212.136224" style="fill: #ff7f0e; fill-opacity: 0.6; stroke: #ff7f0e; stroke-opacity: 0.6"/>
     <use xlink:href="#m13b3e95651" x="226.657215" y="220.676652" style="fill: #ff7f0e; fill-opacity: 0.6; stroke: #ff7f0e; stroke-opacity: 0.6"/>
     <use xlink:href="#m13b3e95651" x="229.967885" y="214.694824" style="fill: #ff7f0e; fill-opacity: 0.6; stroke: #ff7f0e; stroke-opacity: 0.6"/>
     <use xlink:href="#m13b3e95651" x="233.278555" y="254.652529" style="fill: #ff7f0e; fill-opacity: 0.6; stroke: #ff7f0e; stroke-opacity: 0.6"/>
     <use xlink:href="#m13b3e95651" x="236.589224" y="208.493082" style="fill: #ff7f0e; fill-opacity: 0.6; stroke: #ff7f0e; stroke-opacity: 0.6"/>
     <use xlink:href="#m13b3e95651" x="239.899894" y="200.491519" style="fill: #ff7f0e; fill-opacity: 0.6; stroke: #ff7f0e; stroke-opacity: 0.6"/>
     <use xlink:href="#m13b3e95651" x="243.210564" y="193.404667" style="fill: #ff7f0e; fill-opacity: 0.6; stroke: #ff7f0e; stroke-opacity: 0.6"/>
     <use xlink:href="#m13b3e95651" x="246.521233" y="203.301677" style="fill: #ff7f0e; fill-opacity: 0.6; stroke: #ff7f0e; stroke-opacity: 0.6"/>
     <use xlink:href="#m13b3e95651" x="249.831903" y="188.070221" style="fill: #ff7f0e; fill-opacity: 0.6; stroke: #ff7f0e; stroke-opacity: 0.6"/>
     <use xlink:href="#m13b3e95651" x="253.142573" y="206.078798" style="fill: #ff7f0e; fill-opacity: 0.6; stroke: #ff7f0e; stroke-opacity: 0.6"/>
     <use xlink:href="#m13b3e95651" x="256.453243" y="195.355433" style="fill: #ff7f0e; fill-opacity: 0.6; stroke: #ff7f0e; stroke-opacity: 0.6"/>
     <use xlink:href="#m13b3e95651" x="259.763912" y="189.012457" style="fill: #ff7f0e; fill-opacity: 0.6; stroke: #ff7f0e; stroke-opacity: 0.6"/>
     <use xlink:href="#m13b3e95651" x="263.074582" y="195.501346" style="fill: #ff7f0e; fill-opacity: 0.6; stroke: #ff7f0e; stroke-opacity: 0.6"/>
     <use xlink:href="#m13b3e95651" x="266.385252" y="202.254652" style="fill: #ff7f0e; fill-opacity: 0.6; stroke: #ff7f0e; stroke-opacity: 0.6"/>
     <use xlink:href="#m13b3e95651" x="269.695922" y="202.79395" style="fill: #ff7f0e; fill-opacity: 0.6; stroke: #ff7f0e; stroke-opacity: 0.6"/>
     <use xlink:href="#m13b3e95651" x="273.006591" y="197.280035" style="fill: #ff7f0e; fill-opacity: 0.6; stroke: #ff7f0e; stroke-opacity: 0.6"/>
     <use xlink:href="#m13b3e95651" x="276.317261" y="189.749832" style="fill: #ff7f0e; fill-opacity: 0.6; stroke: #ff7f0e; stroke-opacity: 0.6"/>
     <use xlink:href="#m13b3e95651" x="279.627931" y="200.200726" style="fill: #ff7f0e; fill-opacity: 0.6; stroke: #ff7f0e; stroke-opacity: 0.6"/>
     <use xlink:href="#m13b3e95651" x="282.9386" y="270.161063" style="fill: #ff7f0e; fill-opacity: 0.6; stroke: #ff7f0e; stroke-opacity: 0.6"/>
     <use xlink:href="#m13b3e95651" x="286.24927" y="189.90436" style="fill: #ff7f0e; fill-opacity: 0.6; stroke: #ff7f0e; stroke-opacity: 0.6"/>
     <use xlink:href="#m13b3e95651" x="289.55994" y="182.165389" style="fill: #ff7f0e; fill-opacity: 0.6; stroke: #ff7f0e; stroke-opacity: 0.6"/>
     <use xlink:href="#m13b3e95651" x="292.87061" y="184.099267" style="fill: #ff7f0e; fill-opacity: 0.6; stroke: #ff7f0e; stroke-opacity: 0.6"/>
     <use xlink:href="#m13b3e95651" x="296.181279" y="181.632441" style="fill: #ff7f0e; fill-opacity: 0.6; stroke: #ff7f0e; stroke-opacity: 0.6"/>
     <use xlink:href="#m13b3e95651" x="299.491949" y="190.003986" style="fill: #ff7f0e; fill-opacity: 0.6; stroke: #ff7f0e; stroke-opacity: 0.6"/>
     <use xlink:href="#m13b3e95651" x="302.802619" y="183.922518" style="fill: #ff7f0e; fill-opacity: 0.6; stroke: #ff7f0e; stroke-opacity: 0.6"/>
     <use xlink:href="#m13b3e95651" x="306.113288" y="174.171056" style="fill: #ff7f0e; fill-opacity: 0.6; stroke: #ff7f0e; stroke-opacity: 0.6"/>
     <use xlink:href="#m13b3e95651" x="309.423958" y="166.343627" style="fill: #ff7f0e; fill-opacity: 0.6; stroke: #ff7f0e; stroke-opacity: 0.6"/>
     <use xlink:href="#m13b3e95651" x="312.734628" y="191.146372" style="fill: #ff7f0e; fill-opacity: 0.6; stroke: #ff7f0e; stroke-opacity: 0.6"/>
     <use xlink:href="#m13b3e95651" x="316.045298" y="163.869379" style="fill: #ff7f0e; fill-opacity: 0.6; stroke: #ff7f0e; stroke-opacity: 0.6"/>
     <use xlink:href="#m13b3e95651" x="319.355967" y="164.312748" style="fill: #ff7f0e; fill-opacity: 0.6; stroke: #ff7f0e; stroke-opacity: 0.6"/>
     <use xlink:href="#m13b3e95651" x="322.666637" y="168.493422" style="fill: #ff7f0e; fill-opacity: 0.6; stroke: #ff7f0e; stroke-opacity: 0.6"/>
     <use xlink:href="#m13b3e95651" x="325.977307" y="172.22443" style="fill: #ff7f0e; fill-opacity: 0.6; stroke: #ff7f0e; stroke-opacity: 0.6"/>
     <use xlink:href="#m13b3e95651" x="329.287977" y="176.53531" style="fill: #ff7f0e; fill-opacity: 0.6; stroke: #ff7f0e; stroke-opacity: 0.6"/>
     <use xlink:href="#m13b3e95651" x="332.598646" y="158.693542" style="fill: #ff7f0e; fill-opacity: 0.6; stroke: #ff7f0e; stroke-opacity: 0.6"/>
     <use xlink:href="#m13b3e95651" x="335.909316" y="152.819219" style="fill: #ff7f0e; fill-opacity: 0.6; stroke: #ff7f0e; stroke-opacity: 0.6"/>
     <use xlink:href="#m13b3e95651" x="339.219986" y="153.173755" style="fill: #ff7f0e; fill-opacity: 0.6; stroke: #ff7f0e; stroke-opacity: 0.6"/>
     <use xlink:href="#m13b3e95651" x="342.530655" y="156.618941" style="fill: #ff7f0e; fill-opacity: 0.6; stroke: #ff7f0e; stroke-opacity: 0.6"/>
     <use xlink:href="#m13b3e95651" x="345.841325" y="164.505287" style="fill: #ff7f0e; fill-opacity: 0.6; stroke: #ff7f0e; stroke-opacity: 0.6"/>
     <use xlink:href="#m13b3e95651" x="349.151995" y="178.122028" style="fill: #ff7f0e; fill-opacity: 0.6; stroke: #ff7f0e; stroke-opacity: 0.6"/>
     <use xlink:href="#m13b3e95651" x="352.462665" y="165.634613" style="fill: #ff7f0e; fill-opacity: 0.6; stroke: #ff7f0e; stroke-opacity: 0.6"/>
     <use xlink:href="#m13b3e95651" x="355.773334" y="158.264565" style="fill: #ff7f0e; fill-opacity: 0.6; stroke: #ff7f0e; stroke-opacity: 0.6"/>
     <use xlink:href="#m13b3e95651" x="359.084004" y="175.454815" style="fill: #ff7f0e; fill-opacity: 0.6; stroke: #ff7f0e; stroke-opacity: 0.6"/>
     <use xlink:href="#m13b3e95651" x="362.394674" y="158.446814" style="fill: #ff7f0e; fill-opacity: 0.6; stroke: #ff7f0e; stroke-opacity: 0.6"/>
     <use xlink:href="#m13b3e95651" x="365.705343" y="156.978813" style="fill: #ff7f0e; fill-opacity: 0.6; stroke: #ff7f0e; stroke-opacity: 0.6"/>
     <use xlink:href="#m13b3e95651" x="369.016013" y="153.329429" style="fill: #ff7f0e; fill-opacity: 0.6; stroke: #ff7f0e; stroke-opacity: 0.6"/>
     <use xlink:href="#m13b3e95651" x="372.326683" y="169.910087" style="fill: #ff7f0e; fill-opacity: 0.6; stroke: #ff7f0e; stroke-opacity: 0.6"/>
     <use xlink:href="#m13b3e95651" x="375.637353" y="163.84558" style="fill: #ff7f0e; fill-opacity: 0.6; stroke: #ff7f0e; stroke-opacity: 0.6"/>
     <use xlink:href="#m13b3e95651" x="378.948022" y="160.581804" style="fill: #ff7f0e; fill-opacity: 0.6; stroke: #ff7f0e; stroke-opacity: 0.6"/>
     <use xlink:href="#m13b3e95651" x="382.258692" y="166.353506" style="fill: #ff7f0e; fill-opacity: 0.6; stroke: #ff7f0e; stroke-opacity: 0.6"/>
     <use xlink:href="#m13b3e95651" x="385.569362" y="137.792962" style="fill: #ff7f0e; fill-opacity: 0.6; stroke: #ff7f0e; stroke-opacity: 0.6"/>
     <use xlink:href="#m13b3e95651" x="388.880032" y="157.720736" style="fill: #ff7f0e; fill-opacity: 0.6; stroke: #ff7f0e; stroke-opacity: 0.6"/>
     <use xlink:href="#m13b3e95651" x="392.190701" y="148.805387" style="fill: #ff7f0e; fill-opacity: 0.6; stroke: #ff7f0e; stroke-opacity: 0.6"/>
     <use xlink:href="#m13b3e95651" x="395.501371" y="153.202639" style="fill: #ff7f0e; fill-opacity: 0.6; stroke: #ff7f0e; stroke-opacity: 0.6"/>
     <use xlink:href="#m13b3e95651" x="398.812041" y="115.212033" style="fill: #ff7f0e; fill-opacity: 0.6; stroke: #ff7f0e; stroke-opacity: 0.6"/>
     <use xlink:href="#m13b3e95651" x="402.12271" y="136.039512" style="fill: #ff7f0e; fill-opacity: 0.6; stroke: #ff7f0e; stroke-opacity: 0.6"/>
     <use xlink:href="#m13b3e95651" x="405.43338" y="141.37427" style="fill: #ff7f0e; fill-opacity: 0.6; stroke: #ff7f0e; stroke-opacity: 0.6"/>
     <use xlink:href="#m13b3e95651" x="408.74405" y="166.972194" style="fill: #ff7f0e; fill-opacity: 0.6; stroke: #ff7f0e; stroke-opacity: 0.6"/>
     <use xlink:href="#m13b3e95651" x="412.05472" y="144.572362" style="fill: #ff7f0e; fill-opacity: 0.6; stroke: #ff7f0e; stroke-opacity: 0.6"/>
     <use xlink:href="#m13b3e95651" x="415.365389" y="137.478212" style="fill: #ff7f0e; fill-opacity: 0.6; stroke: #ff7f0e; stroke-opacity: 0.6"/>
     <use xlink:href="#m13b3e95651" x="418.676059" y="133.318949" style="fill: #ff7f0e; fill-opacity: 0.6; stroke: #ff7f0e; stroke-opacity: 0.6"/>
     <use xlink:href="#m13b3e95651" x="421.986729" y="147.465109" style="fill: #ff7f0e; fill-opacity: 0.6; stroke: #ff7f0e; stroke-opacity: 0.6"/>
     <use xlink:href="#m13b3e95651" x="425.297398" y="123.327432" style="fill: #ff7f0e; fill-opacity: 0.6; stroke: #ff7f0e; stroke-opacity: 0.6"/>
     <use xlink:href="#m13b3e95651" x="428.608068" y="151.805558" style="fill: #ff7f0e; fill-opacity: 0.6; stroke: #ff7f0e; stroke-opacity: 0.6"/>
     <use xlink:href="#m13b3e95651" x="431.918738" y="144.454607" style="fill: #ff7f0e; fill-opacity: 0.6; stroke: #ff7f0e; stroke-opacity: 0.6"/>
     <use xlink:href="#m13b3e95651" x="435.229408" y="128.265723" style="fill: #ff7f0e; fill-opacity: 0.6; stroke: #ff7f0e; stroke-opacity: 0.6"/>
     <use xlink:href="#m13b3e95651" x="438.540077" y="135.476007" style="fill: #ff7f0e; fill-opacity: 0.6; stroke: #ff7f0e; stroke-opacity: 0.6"/>
     <use xlink:href="#m13b3e95651" x="441.850747" y="115.924529" style="fill: #ff7f0e; fill-opacity: 0.6; stroke: #ff7f0e; stroke-opacity: 0.6"/>
     <use xlink:href="#m13b3e95651" x="445.161417" y="131.880404" style="fill: #ff7f0e; fill-opacity: 0.6; stroke: #ff7f0e; stroke-opacity: 0.6"/>
     <use xlink:href="#m13b3e95651" x="448.472087" y="138.484806" style="fill: #ff7f0e; fill-opacity: 0.6; stroke: #ff7f0e; stroke-opacity: 0.6"/>
     <use xlink:href="#m13b3e95651" x="451.782756" y="134.934844" style="fill: #ff7f0e; fill-opacity: 0.6; stroke: #ff7f0e; stroke-opacity: 0.6"/>
     <use xlink:href="#m13b3e95651" x="455.093426" y="140.520074" style="fill: #ff7f0e; fill-opacity: 0.6; stroke: #ff7f0e; stroke-opacity: 0.6"/>
     <use xlink:href="#m13b3e95651" x="458.404096" y="141.137678" style="fill: #ff7f0e; fill-opacity: 0.6; stroke: #ff7f0e; stroke-opacity: 0.6"/>
     <use xlink:href="#m13b3e95651" x="461.714765" y="122.012663" style="fill: #ff7f0e; fill-opacity: 0.6; stroke: #ff7f0e; stroke-opacity: 0.6"/>
     <use xlink:href="#m13b3e95651" x="465.025435" y="121.336273" style="fill: #ff7f0e; fill-opacity: 0.6; stroke: #ff7f0e; stroke-opacity: 0.6"/>
     <use xlink:href="#m13b3e95651" x="468.336105" y="113.471733" style="fill: #ff7f0e; fill-opacity: 0.6; stroke: #ff7f0e; stroke-opacity: 0.6"/>
     <use xlink:href="#m13b3e95651" x="471.646775" y="131.645314" style="fill: #ff7f0e; fill-opacity: 0.6; stroke: #ff7f0e; stroke-opacity: 0.6"/>
     <use xlink:href="#m13b3e95651" x="474.957444" y="107.471869" style="fill: #ff7f0e; fill-opacity: 0.6; stroke: #ff7f0e; stroke-opacity: 0.6"/>
     <use xlink:href="#m13b3e95651" x="478.268114" y="232.239432" style="fill: #ff7f0e; fill-opacity: 0.6; stroke: #ff7f0e; stroke-opacity: 0.6"/>
     <use xlink:href="#m13b3e95651" x="481.578784" y="106.271854" style="fill: #ff7f0e; fill-opacity: 0.6; stroke: #ff7f0e; stroke-opacity: 0.6"/>
     <use xlink:href="#m13b3e95651" x="484.889453" y="124.049848" style="fill: #ff7f0e; fill-opacity: 0.6; stroke: #ff7f0e; stroke-opacity: 0.6"/>
     <use xlink:href="#m13b3e95651" x="488.200123" y="125.762334" style="fill: #ff7f0e; fill-opacity: 0.6; stroke: #ff7f0e; stroke-opacity: 0.6"/>
     <use xlink:href="#m13b3e95651" x="491.510793" y="115.335266" style="fill: #ff7f0e; fill-opacity: 0.6; stroke: #ff7f0e; stroke-opacity: 0.6"/>
     <use xlink:href="#m13b3e95651" x="494.821463" y="106.827211" style="fill: #ff7f0e; fill-opacity: 0.6; stroke: #ff7f0e; stroke-opacity: 0.6"/>
     <use xlink:href="#m13b3e95651" x="498.132132" y="113.890913" style="fill: #ff7f0e; fill-opacity: 0.6; stroke: #ff7f0e; stroke-opacity: 0.6"/>
     <use xlink:href="#m13b3e95651" x="501.442802" y="119.786763" style="fill: #ff7f0e; fill-opacity: 0.6; stroke: #ff7f0e; stroke-opacity: 0.6"/>
     <use xlink:href="#m13b3e95651" x="504.753472" y="125.768879" style="fill: #ff7f0e; fill-opacity: 0.6; stroke: #ff7f0e; stroke-opacity: 0.6"/>
     <use xlink:href="#m13b3e95651" x="508.064142" y="125.196685" style="fill: #ff7f0e; fill-opacity: 0.6; stroke: #ff7f0e; stroke-opacity: 0.6"/>
     <use xlink:href="#m13b3e95651" x="511.374811" y="183.758608" style="fill: #ff7f0e; fill-opacity: 0.6; stroke: #ff7f0e; stroke-opacity: 0.6"/>
     <use xlink:href="#m13b3e95651" x="514.685481" y="100.377334" style="fill: #ff7f0e; fill-opacity: 0.6; stroke: #ff7f0e; stroke-opacity: 0.6"/>
     <use xlink:href="#m13b3e95651" x="517.996151" y="110.113732" style="fill: #ff7f0e; fill-opacity: 0.6; stroke: #ff7f0e; stroke-opacity: 0.6"/>
     <use xlink:href="#m13b3e95651" x="521.30682" y="117.55093" style="fill: #ff7f0e; fill-opacity: 0.6; stroke: #ff7f0e; stroke-opacity: 0.6"/>
     <use xlink:href="#m13b3e95651" x="524.61749" y="98.055354" style="fill: #ff7f0e; fill-opacity: 0.6; stroke: #ff7f0e; stroke-opacity: 0.6"/>
     <use xlink:href="#m13b3e95651" x="527.92816" y="117.211733" style="fill: #ff7f0e; fill-opacity: 0.6; stroke: #ff7f0e; stroke-opacity: 0.6"/>
     <use xlink:href="#m13b3e95651" x="531.23883" y="110.723929" style="fill: #ff7f0e; fill-opacity: 0.6; stroke: #ff7f0e; stroke-opacity: 0.6"/>
     <use xlink:href="#m13b3e95651" x="534.549499" y="97.00913" style="fill: #ff7f0e; fill-opacity: 0.6; stroke: #ff7f0e; stroke-opacity: 0.6"/>
     <use xlink:href="#m13b3e95651" x="537.860169" y="122.930311" style="fill: #ff7f0e; fill-opacity: 0.6; stroke: #ff7f0e; stroke-opacity: 0.6"/>
     <use xlink:href="#m13b3e95651" x="541.170839" y="96.939678" style="fill: #ff7f0e; fill-opacity: 0.6; stroke: #ff7f0e; stroke-opacity: 0.6"/>
     <use xlink:href="#m13b3e95651" x="544.481508" y="104.922984" style="fill: #ff7f0e; fill-opacity: 0.6; stroke: #ff7f0e; stroke-opacity: 0.6"/>
     <use xlink:href="#m13b3e95651" x="547.792178" y="97.270255" style="fill: #ff7f0e; fill-opacity: 0.6; stroke: #ff7f0e; stroke-opacity: 0.6"/>
     <use xlink:href="#m13b3e95651" x="551.102848" y="77.633784" style="fill: #ff7f0e; fill-opacity: 0.6; stroke: #ff7f0e; stroke-opacity: 0.6"/>
     <use xlink:href="#m13b3e95651" x="554.413518" y="94.114156" style="fill: #ff7f0e; fill-opacity: 0.6; stroke: #ff7f0e; stroke-opacity: 0.6"/>
     <use xlink:href="#m13b3e95651" x="557.724187" y="88.335784" style="fill: #ff7f0e; fill-opacity: 0.6; stroke: #ff7f0e; stroke-opacity: 0.6"/>
     <use xlink:href="#m13b3e95651" x="561.034857" y="100.885975" style="fill: #ff7f0e; fill-opacity: 0.6; stroke: #ff7f0e; stroke-opacity: 0.6"/>
     <use xlink:href="#m13b3e95651" x="564.345527" y="79.204234" style="fill: #ff7f0e; fill-opacity: 0.6; stroke: #ff7f0e; stroke-opacity: 0.6"/>
     <use xlink:href="#m13b3e95651" x="567.656197" y="84.613263" style="fill: #ff7f0e; fill-opacity: 0.6; stroke: #ff7f0e; stroke-opacity: 0.6"/>
     <use xlink:href="#m13b3e95651" x="570.966866" y="82.363924" style="fill: #ff7f0e; fill-opacity: 0.6; stroke: #ff7f0e; stroke-opacity: 0.6"/>
     <use xlink:href="#m13b3e95651" x="574.277536" y="78.196595" style="fill: #ff7f0e; fill-opacity: 0.6; stroke: #ff7f0e; stroke-opacity: 0.6"/>
    </g>
   </g>
   <g id="FillBetweenPolyCollection_1">
    <defs>
     <path id="mfd3f814130" d="M 81.815415 -125.886889 
L 81.815415 -54.848952 
L 84.785036 -55.891057 
L 87.754656 -56.932984 
L 90.724277 -57.974732 
L 93.693898 -59.016301 
L 96.663519 -60.057692 
L 99.63314 -61.098903 
L 102.602761 -62.139934 
L 105.572381 -63.180786 
L 108.542002 -64.221457 
L 111.511623 -65.261948 
L 114.481244 -66.302259 
L 117.450865 -67.342388 
L 120.420486 -68.382337 
L 123.390106 -69.422104 
L 126.359727 -70.461689 
L 129.329348 -71.501092 
L 132.298969 -72.540314 
L 135.26859 -73.579352 
L 138.238211 -74.618209 
L 141.207831 -75.656882 
L 144.177452 -76.695372 
L 147.147073 -77.733679 
L 150.116694 -78.771802 
L 153.086315 -79.809742 
L 156.055936 -80.847497 
L 159.025556 -81.885068 
L 161.995177 -82.922455 
L 164.964798 -83.959657 
L 167.934419 -84.996674 
L 170.90404 -86.033506 
L 173.873661 -87.070152 
L 176.843281 -88.106613 
L 179.812902 -89.142889 
L 182.782523 -90.178978 
L 185.752144 -91.214881 
L 188.721765 -92.250598 
L 191.691386 -93.286128 
L 194.661006 -94.321471 
L 197.630627 -95.356628 
L 200.600248 -96.391597 
L 203.569869 -97.426379 
L 206.53949 -98.460974 
L 209.509111 -99.495381 
L 212.478731 -100.5296 
L 215.448352 -101.563631 
L 218.417973 -102.597474 
L 221.387594 -103.631128 
L 224.357215 -104.664594 
L 227.326836 -105.697871 
L 230.296456 -106.73096 
L 233.266077 -107.763859 
L 236.235698 -108.796569 
L 239.205319 -109.82909 
L 242.17494 -110.861422 
L 245.144561 -111.893564 
L 248.114181 -112.925516 
L 251.083802 -113.957278 
L 254.053423 -114.988851 
L 257.023044 -116.020233 
L 259.992665 -117.051425 
L 262.962285 -118.082426 
L 265.931906 -119.113237 
L 268.901527 -120.143857 
L 271.871148 -121.174287 
L 274.840769 -122.204526 
L 277.81039 -123.234573 
L 280.78001 -124.26443 
L 283.749631 -125.294095 
L 286.719252 -126.32357 
L 289.688873 -127.352852 
L 292.658494 -128.381944 
L 295.628115 -129.410843 
L 298.597735 -130.439551 
L 301.567356 -131.468067 
L 304.536977 -132.496392 
L 307.506598 -133.524524 
L 310.476219 -134.552465 
L 313.44584 -135.580213 
L 316.41546 -136.607769 
L 319.385081 -137.635133 
L 322.354702 -138.662305 
L 325.324323 -139.689285 
L 328.293944 -140.716072 
L 331.263565 -141.742666 
L 334.233185 -142.769068 
L 337.202806 -143.795278 
L 340.172427 -144.821295 
L 343.142048 -145.847119 
L 346.111669 -146.872751 
L 349.08129 -147.89819 
L 352.05091 -148.923436 
L 355.020531 -149.948489 
L 357.990152 -150.97335 
L 360.959773 -151.998017 
L 363.929394 -153.022492 
L 366.899015 -154.046775 
L 369.868635 -155.070864 
L 372.838256 -156.09476 
L 375.807877 -157.118464 
L 378.777498 -158.141974 
L 381.747119 -159.165292 
L 384.71674 -160.188417 
L 387.68636 -161.211348 
L 390.655981 -162.234088 
L 393.625602 -163.256634 
L 396.595223 -164.278987 
L 399.564844 -165.301148 
L 402.534465 -166.323115 
L 405.504085 -167.34489 
L 408.473706 -168.366473 
L 411.443327 -169.387862 
L 414.412948 -170.409059 
L 417.382569 -171.430063 
L 420.35219 -172.450875 
L 423.32181 -173.471494 
L 426.291431 -174.49192 
L 429.261052 -175.512154 
L 432.230673 -176.532196 
L 435.200294 -177.552045 
L 438.169915 -178.571703 
L 441.139535 -179.591167 
L 444.109156 -180.61044 
L 447.078777 -181.629521 
L 450.048398 -182.64841 
L 453.018019 -183.667106 
L 455.98764 -184.685611 
L 458.95726 -185.703924 
L 461.926881 -186.722046 
L 464.896502 -187.739976 
L 467.866123 -188.757714 
L 470.835744 -189.775261 
L 473.805365 -190.792617 
L 476.774985 -191.809781 
L 479.744606 -192.826755 
L 482.714227 -193.843537 
L 485.683848 -194.860129 
L 488.653469 -195.87653 
L 491.62309 -196.89274 
L 494.59271 -197.908759 
L 497.562331 -198.924589 
L 500.531952 -199.940228 
L 503.501573 -200.955676 
L 506.471194 -201.970935 
L 509.440814 -202.986004 
L 512.410435 -204.000883 
L 515.380056 -205.015573 
L 518.349677 -206.030073 
L 521.319298 -207.044384 
L 524.288919 -208.058506 
L 527.258539 -209.072438 
L 530.22816 -210.086182 
L 533.197781 -211.099737 
L 536.167402 -212.113104 
L 539.137023 -213.126282 
L 542.106644 -214.139273 
L 545.076264 -215.152075 
L 548.045885 -216.164689 
L 551.015506 -217.177115 
L 553.985127 -218.189355 
L 556.954748 -219.201406 
L 559.924369 -220.213271 
L 562.893989 -221.224949 
L 565.86361 -222.23644 
L 568.833231 -223.247744 
L 571.802852 -224.258862 
L 574.772473 -225.269794 
L 577.742094 -226.28054 
L 580.711714 -227.2911 
L 583.681335 -228.301474 
L 586.650956 -229.311664 
L 589.620577 -230.321668 
L 592.590198 -231.331487 
L 595.559819 -232.341121 
L 598.529439 -233.350571 
L 601.49906 -234.359837 
L 604.468681 -235.368919 
L 607.438302 -236.377817 
L 610.407923 -237.386531 
L 613.377544 -238.395062 
L 616.347164 -239.40341 
L 619.316785 -240.411575 
L 622.286406 -241.419557 
L 625.256027 -242.427357 
L 628.225648 -243.434975 
L 631.195269 -244.44241 
L 634.164889 -245.449665 
L 637.13451 -246.456737 
L 640.104131 -247.463629 
L 643.073752 -248.47034 
L 646.043373 -249.47687 
L 649.012994 -250.483219 
L 651.982614 -251.489389 
L 654.952235 -252.495378 
L 657.921856 -253.501189 
L 660.891477 -254.506819 
L 663.861098 -255.512271 
L 666.830719 -256.517544 
L 669.800339 -257.522638 
L 672.76996 -258.527555 
L 672.76996 -329.565491 
L 672.76996 -329.565491 
L 669.800339 -328.523386 
L 666.830719 -327.48146 
L 663.861098 -326.439711 
L 660.891477 -325.398142 
L 657.921856 -324.356752 
L 654.952235 -323.315541 
L 651.982614 -322.274509 
L 649.012994 -321.233657 
L 646.043373 -320.192986 
L 643.073752 -319.152495 
L 640.104131 -318.112184 
L 637.13451 -317.072055 
L 634.164889 -316.032106 
L 631.195269 -314.992339 
L 628.225648 -313.952754 
L 625.256027 -312.913351 
L 622.286406 -311.87413 
L 619.316785 -310.835091 
L 616.347164 -309.796234 
L 613.377544 -308.757561 
L 610.407923 -307.719071 
L 607.438302 -306.680764 
L 604.468681 -305.642641 
L 601.49906 -304.604701 
L 598.529439 -303.566946 
L 595.559819 -302.529375 
L 592.590198 -301.491988 
L 589.620577 -300.454786 
L 586.650956 -299.417769 
L 583.681335 -298.380937 
L 580.711714 -297.344291 
L 577.742094 -296.30783 
L 574.772473 -295.271555 
L 571.802852 -294.235465 
L 568.833231 -293.199562 
L 565.86361 -292.163845 
L 562.893989 -291.128315 
L 559.924369 -290.092972 
L 556.954748 -289.057815 
L 553.985127 -288.022846 
L 551.015506 -286.988064 
L 548.045885 -285.953469 
L 545.076264 -284.919062 
L 542.106644 -283.884843 
L 539.137023 -282.850812 
L 536.167402 -281.81697 
L 533.197781 -280.783315 
L 530.22816 -279.749849 
L 527.258539 -278.716572 
L 524.288919 -277.683483 
L 521.319298 -276.650584 
L 518.349677 -275.617874 
L 515.380056 -274.585353 
L 512.410435 -273.553021 
L 509.440814 -272.520879 
L 506.471194 -271.488927 
L 503.501573 -270.457165 
L 500.531952 -269.425593 
L 497.562331 -268.39421 
L 494.59271 -267.363019 
L 491.62309 -266.332017 
L 488.653469 -265.301206 
L 485.683848 -264.270586 
L 482.714227 -263.240156 
L 479.744606 -262.209917 
L 476.774985 -261.17987 
L 473.805365 -260.150013 
L 470.835744 -259.120348 
L 467.866123 -258.090874 
L 464.896502 -257.061591 
L 461.926881 -256.0325 
L 458.95726 -255.0036 
L 455.98764 -253.974892 
L 453.018019 -252.946376 
L 450.048398 -251.918051 
L 447.078777 -250.889919 
L 444.109156 -249.861978 
L 441.139535 -248.83423 
L 438.169915 -247.806674 
L 435.200294 -246.77931 
L 432.230673 -245.752138 
L 429.261052 -244.725159 
L 426.291431 -243.698372 
L 423.32181 -242.671777 
L 420.35219 -241.645375 
L 417.382569 -240.619165 
L 414.412948 -239.593148 
L 411.443327 -238.567324 
L 408.473706 -237.541693 
L 405.504085 -236.516254 
L 402.534465 -235.491007 
L 399.564844 -234.465954 
L 396.595223 -233.441093 
L 393.625602 -232.416426 
L 390.655981 -231.391951 
L 387.68636 -230.367669 
L 384.71674 -229.343579 
L 381.747119 -228.319683 
L 378.777498 -227.29598 
L 375.807877 -226.272469 
L 372.838256 -225.249151 
L 369.868635 -224.226027 
L 366.899015 -223.203095 
L 363.929394 -222.180356 
L 360.959773 -221.157809 
L 357.990152 -220.135456 
L 355.020531 -219.113296 
L 352.05091 -218.091328 
L 349.08129 -217.069553 
L 346.111669 -216.047971 
L 343.142048 -215.026581 
L 340.172427 -214.005384 
L 337.202806 -212.98438 
L 334.233185 -211.963568 
L 331.263565 -210.942949 
L 328.293944 -209.922523 
L 325.324323 -208.902289 
L 322.354702 -207.882247 
L 319.385081 -206.862398 
L 316.41546 -205.842741 
L 313.44584 -204.823276 
L 310.476219 -203.804003 
L 307.506598 -202.784922 
L 304.536977 -201.766034 
L 301.567356 -200.747337 
L 298.597735 -199.728832 
L 295.628115 -198.710519 
L 292.658494 -197.692397 
L 289.688873 -196.674467 
L 286.719252 -195.656729 
L 283.749631 -194.639182 
L 280.78001 -193.621826 
L 277.81039 -192.604662 
L 274.840769 -191.587688 
L 271.871148 -190.570906 
L 268.901527 -189.554314 
L 265.931906 -188.537914 
L 262.962285 -187.521704 
L 259.992665 -186.505684 
L 257.023044 -185.489855 
L 254.053423 -184.474216 
L 251.083802 -183.458767 
L 248.114181 -182.443508 
L 245.144561 -181.428439 
L 242.17494 -180.41356 
L 239.205319 -179.39887 
L 236.235698 -178.38437 
L 233.266077 -177.370059 
L 230.296456 -176.355937 
L 227.326836 -175.342005 
L 224.357215 -174.328261 
L 221.387594 -173.314706 
L 218.417973 -172.301339 
L 215.448352 -171.288161 
L 212.478731 -170.275171 
L 209.509111 -169.262369 
L 206.53949 -168.249754 
L 203.569869 -167.237328 
L 200.600248 -166.225089 
L 197.630627 -165.213037 
L 194.661006 -164.201172 
L 191.691386 -163.189495 
L 188.721765 -162.178004 
L 185.752144 -161.166699 
L 182.782523 -160.155581 
L 179.812902 -159.144649 
L 176.843281 -158.133903 
L 173.873661 -157.123343 
L 170.90404 -156.112969 
L 167.934419 -155.102779 
L 164.964798 -154.092775 
L 161.995177 -153.082956 
L 159.025556 -152.073322 
L 156.055936 -151.063872 
L 153.086315 -150.054606 
L 150.116694 -149.045524 
L 147.147073 -148.036626 
L 144.177452 -147.027912 
L 141.207831 -146.019381 
L 138.238211 -145.011033 
L 135.26859 -144.002868 
L 132.298969 -142.994886 
L 129.329348 -141.987086 
L 126.359727 -140.979469 
L 123.390106 -139.972033 
L 120.420486 -138.964779 
L 117.450865 -137.957706 
L 114.481244 -136.950814 
L 111.511623 -135.944104 
L 108.542002 -134.937574 
L 105.572381 -133.931224 
L 102.602761 -132.925054 
L 99.63314 -131.919065 
L 96.663519 -130.913255 
L 93.693898 -129.907624 
L 90.724277 -128.902172 
L 87.754656 -127.896899 
L 84.785036 -126.891805 
L 81.815415 -125.886889 
z
" style="stroke: #2ca02c; stroke-opacity: 0.2"/>
    </defs>
    <g clip-path="url(#p3fb6c08698)">
     <use xlink:href="#mfd3f814130" x="0" y="350.702904" style="fill: #2ca02c; fill-opacity: 0.2; stroke: #2ca02c; stroke-opacity: 0.2"/>
    </g>
   </g>
   <g id="matplotlib.axis_1">
    <g id="xtick_1">
     <g id="line2d_1">
      <defs>
       <path id="maf00b5c2c7" d="M 0 0 
L 0 3.5 
" style="stroke: #000000; stroke-width: 0.8"/>
      </defs>
      <g>
       <use xlink:href="#maf00b5c2c7" x="81.815415" y="309.589779" style="stroke: #000000; stroke-width: 0.8"/>
      </g>
     </g>
     <g id="text_1">
      <!-- −6 -->
      <g transform="translate(75.27479 324.080404) scale(0.1 -0.1)">
       <defs>
        <path id="IPAexGothic-2212" d="M 416 2222 
L 3922 2222 
L 3922 1856 
L 416 1856 
L 416 2222 
z
" transform="scale(0.015625)"/>
        <path id="IPAexGothic-36" d="M 1056 2328 
Q 1509 2981 2234 2981 
Q 2906 2981 3316 2513 
Q 3675 2106 3675 1522 
Q 3675 884 3272 434 
Q 2853 -31 2178 -31 
Q 1375 -31 922 581 
Q 481 1178 481 2228 
Q 481 3425 1013 4109 
Q 1494 4725 2272 4725 
Q 3191 4725 3609 4025 
L 3150 3775 
Q 2894 4266 2300 4266 
Q 1119 4266 1031 2328 
L 1056 2328 
z
M 2141 2547 
Q 1684 2547 1384 2206 
Q 1116 1900 1116 1541 
Q 1116 1156 1353 844 
Q 1672 428 2159 428 
Q 2669 428 2941 844 
Q 3125 1128 3125 1503 
Q 3125 1944 2881 2228 
Q 2600 2547 2141 2547 
z
" transform="scale(0.015625)"/>
       </defs>
       <use xlink:href="#IPAexGothic-2212"/>
       <use xlink:href="#IPAexGothic-36" transform="translate(67.822266 0)"/>
      </g>
     </g>
    </g>
    <g id="xtick_2">
     <g id="line2d_2">
      <g>
       <use xlink:href="#maf00b5c2c7" x="180.307839" y="309.589779" style="stroke: #000000; stroke-width: 0.8"/>
      </g>
     </g>
     <g id="text_2">
      <!-- −4 -->
      <g transform="translate(173.767214 324.080404) scale(0.1 -0.1)">
       <defs>
        <path id="IPAexGothic-34" d="M 3813 1159 
L 3059 1159 
L 3059 63 
L 2547 63 
L 2547 1159 
L 197 1159 
L 197 1672 
L 2456 4678 
L 3059 4678 
L 3059 1634 
L 3813 1634 
L 3813 1159 
z
M 2578 4109 
L 2559 4109 
Q 2278 3656 2003 3284 
L 759 1634 
L 2547 1634 
L 2547 3144 
Q 2547 3481 2578 4109 
z
" transform="scale(0.015625)"/>
       </defs>
       <use xlink:href="#IPAexGothic-2212"/>
       <use xlink:href="#IPAexGothic-34" transform="translate(67.822266 0)"/>
      </g>
     </g>
    </g>
    <g id="xtick_3">
     <g id="line2d_3">
      <g>
       <use xlink:href="#maf00b5c2c7" x="278.800263" y="309.589779" style="stroke: #000000; stroke-width: 0.8"/>
      </g>
     </g>
     <g id="text_3">
      <!-- −2 -->
      <g transform="translate(272.259638 324.080404) scale(0.1 -0.1)">
       <defs>
        <path id="IPAexGothic-32" d="M 3659 63 
L 447 63 
L 447 594 
Q 825 1475 1894 2203 
L 2072 2322 
Q 2619 2697 2791 2906 
Q 2988 3153 2988 3444 
Q 2988 3772 2756 4003 
Q 2500 4259 2084 4259 
Q 1250 4259 991 3328 
L 497 3506 
Q 853 4725 2116 4725 
Q 2806 4725 3216 4316 
Q 3575 3947 3575 3425 
Q 3575 3038 3344 2722 
Q 3131 2416 2366 1938 
L 2231 1856 
Q 1256 1253 978 569 
L 3659 569 
L 3659 63 
z
" transform="scale(0.015625)"/>
       </defs>
       <use xlink:href="#IPAexGothic-2212"/>
       <use xlink:href="#IPAexGothic-32" transform="translate(67.822266 0)"/>
      </g>
     </g>
    </g>
    <g id="xtick_4">
     <g id="line2d_4">
      <g>
       <use xlink:href="#maf00b5c2c7" x="377.292688" y="309.589779" style="stroke: #000000; stroke-width: 0.8"/>
      </g>
     </g>
     <g id="text_4">
      <!-- 0 -->
      <g transform="translate(374.143469 324.080404) scale(0.1 -0.1)">
       <defs>
        <path id="IPAexGothic-30" d="M 2038 4725 
Q 2881 4725 3334 3944 
Q 3694 3325 3694 2344 
Q 3694 1372 3334 741 
Q 2888 -31 2016 -31 
Q 1147 -31 700 741 
Q 341 1372 341 2350 
Q 341 3713 1000 4334 
Q 1419 4725 2038 4725 
z
M 2016 4266 
Q 1516 4266 1228 3759 
Q 934 3247 934 2344 
Q 934 1456 1222 947 
Q 1513 447 2016 447 
Q 2619 447 2909 1153 
Q 3100 1622 3100 2375 
Q 3100 3256 2806 3759 
Q 2509 4266 2016 4266 
z
" transform="scale(0.015625)"/>
       </defs>
       <use xlink:href="#IPAexGothic-30"/>
      </g>
     </g>
    </g>
    <g id="xtick_5">
     <g id="line2d_5">
      <g>
       <use xlink:href="#maf00b5c2c7" x="475.785112" y="309.589779" style="stroke: #000000; stroke-width: 0.8"/>
      </g>
     </g>
     <g id="text_5">
      <!-- 2 -->
      <g transform="translate(472.635893 324.080404) scale(0.1 -0.1)">
       <use xlink:href="#IPAexGothic-32"/>
      </g>
     </g>
    </g>
    <g id="xtick_6">
     <g id="line2d_6">
      <g>
       <use xlink:href="#maf00b5c2c7" x="574.277536" y="309.589779" style="stroke: #000000; stroke-width: 0.8"/>
      </g>
     </g>
     <g id="text_6">
      <!-- 4 -->
      <g transform="translate(571.128317 324.080404) scale(0.1 -0.1)">
       <use xlink:href="#IPAexGothic-34"/>
      </g>
     </g>
    </g>
    <g id="xtick_7">
     <g id="line2d_7">
      <g>
       <use xlink:href="#maf00b5c2c7" x="672.76996" y="309.589779" style="stroke: #000000; stroke-width: 0.8"/>
      </g>
     </g>
     <g id="text_7">
      <!-- 6 -->
      <g transform="translate(669.620741 324.080404) scale(0.1 -0.1)">
       <use xlink:href="#IPAexGothic-36"/>
      </g>
     </g>
    </g>
    <g id="text_8">
     <!-- 入力 $x$ -->
     <g transform="translate(356.628688 340.766904) scale(0.144 -0.144)">
      <defs>
       <path id="IPAexGothic-5165" d="M 3275 3078 
Q 2806 619 819 -334 
L 447 91 
Q 2934 1156 3000 4550 
L 1472 4550 
L 1472 4984 
L 3525 4984 
L 3525 4728 
Q 3525 3053 4116 2041 
Q 4734 972 6022 275 
L 5650 -200 
Q 3697 1044 3275 3078 
z
" transform="scale(0.015625)"/>
       <path id="IPAexGothic-529b" d="M 3303 3944 
L 5653 3944 
Q 5622 1247 5428 356 
Q 5303 -231 4647 -231 
Q 4159 -231 3456 -147 
L 3381 416 
Q 4022 263 4456 263 
Q 4881 263 4947 616 
Q 5106 1509 5134 3303 
L 5141 3509 
L 3291 3509 
Q 3234 2200 2741 1281 
Q 2194 297 878 -416 
L 525 -6 
Q 2709 963 2778 3450 
L 641 3450 
L 641 3891 
L 2784 3891 
L 2784 5147 
L 3303 5147 
L 3303 3944 
z
" transform="scale(0.015625)"/>
       <path id="IPAexGothic-20" transform="scale(0.015625)"/>
       <path id="DejaVuSans-Oblique-78" d="M 3841 3500 
L 2234 1784 
L 3219 0 
L 2559 0 
L 1819 1388 
L 531 0 
L -166 0 
L 1556 1844 
L 641 3500 
L 1300 3500 
L 1972 2234 
L 3144 3500 
L 3841 3500 
z
" transform="scale(0.015625)"/>
      </defs>
      <use xlink:href="#IPAexGothic-5165" transform="translate(0 0.578125)"/>
      <use xlink:href="#IPAexGothic-529b" transform="translate(100 0.578125)"/>
      <use xlink:href="#IPAexGothic-20" transform="translate(200 0.578125)"/>
      <use xlink:href="#DejaVuSans-Oblique-78" transform="translate(227.001953 0.578125)"/>
     </g>
    </g>
   </g>
   <g id="matplotlib.axis_2">
    <g id="ytick_1">
     <g id="line2d_8">
      <defs>
       <path id="ma6861b4a81" d="M 0 0 
L -3.5 0 
" style="stroke: #000000; stroke-width: 0.8"/>
      </defs>
      <g>
       <use xlink:href="#ma6861b4a81" x="52.267688" y="293.706351" style="stroke: #000000; stroke-width: 0.8"/>
      </g>
     </g>
     <g id="text_9">
      <!-- −15 -->
      <g transform="translate(25.888 297.451664) scale(0.1 -0.1)">
       <defs>
        <path id="IPAexGothic-31" d="M 2463 63 
L 1900 63 
L 1900 4103 
Q 1372 3922 788 3797 
L 684 4231 
Q 1519 4441 2106 4731 
L 2463 4731 
L 2463 63 
z
" transform="scale(0.015625)"/>
        <path id="IPAexGothic-35" d="M 1178 2603 
Q 1634 2963 2172 2963 
Q 2816 2963 3241 2528 
Q 3638 2113 3638 1497 
Q 3638 938 3297 513 
Q 2869 -31 2031 -31 
Q 959 -31 469 784 
L 938 1028 
Q 1309 434 2013 434 
Q 2466 434 2769 716 
Q 3081 1013 3081 1503 
Q 3081 1966 2806 2241 
Q 2519 2528 2056 2528 
Q 1406 2528 1072 2028 
L 591 2091 
L 884 4634 
L 3406 4634 
L 3406 4153 
L 1341 4153 
L 1134 2603 
L 1178 2603 
z
" transform="scale(0.015625)"/>
       </defs>
       <use xlink:href="#IPAexGothic-2212"/>
       <use xlink:href="#IPAexGothic-31" transform="translate(67.822266 0)"/>
       <use xlink:href="#IPAexGothic-35" transform="translate(130.810547 0)"/>
      </g>
     </g>
    </g>
    <g id="ytick_2">
     <g id="line2d_9">
      <g>
       <use xlink:href="#ma6861b4a81" x="52.267688" y="246.579511" style="stroke: #000000; stroke-width: 0.8"/>
      </g>
     </g>
     <g id="text_10">
      <!-- −10 -->
      <g transform="translate(25.888 250.324824) scale(0.1 -0.1)">
       <use xlink:href="#IPAexGothic-2212"/>
       <use xlink:href="#IPAexGothic-31" transform="translate(67.822266 0)"/>
       <use xlink:href="#IPAexGothic-30" transform="translate(130.810547 0)"/>
      </g>
     </g>
    </g>
    <g id="ytick_3">
     <g id="line2d_10">
      <g>
       <use xlink:href="#ma6861b4a81" x="52.267688" y="199.452672" style="stroke: #000000; stroke-width: 0.8"/>
      </g>
     </g>
     <g id="text_11">
      <!-- −5 -->
      <g transform="translate(32.186438 203.197984) scale(0.1 -0.1)">
       <use xlink:href="#IPAexGothic-2212"/>
       <use xlink:href="#IPAexGothic-35" transform="translate(67.822266 0)"/>
      </g>
     </g>
    </g>
    <g id="ytick_4">
     <g id="line2d_11">
      <g>
       <use xlink:href="#ma6861b4a81" x="52.267688" y="152.325832" style="stroke: #000000; stroke-width: 0.8"/>
      </g>
     </g>
     <g id="text_12">
      <!-- 0 -->
      <g transform="translate(38.96925 156.071144) scale(0.1 -0.1)">
       <use xlink:href="#IPAexGothic-30"/>
      </g>
     </g>
    </g>
    <g id="ytick_5">
     <g id="line2d_12">
      <g>
       <use xlink:href="#ma6861b4a81" x="52.267688" y="105.198992" style="stroke: #000000; stroke-width: 0.8"/>
      </g>
     </g>
     <g id="text_13">
      <!-- 5 -->
      <g transform="translate(38.96925 108.944305) scale(0.1 -0.1)">
       <use xlink:href="#IPAexGothic-35"/>
      </g>
     </g>
    </g>
    <g id="ytick_6">
     <g id="line2d_13">
      <g>
       <use xlink:href="#ma6861b4a81" x="52.267688" y="58.072152" style="stroke: #000000; stroke-width: 0.8"/>
      </g>
     </g>
     <g id="text_14">
      <!-- 10 -->
      <g transform="translate(32.670813 61.817465) scale(0.1 -0.1)">
       <use xlink:href="#IPAexGothic-31"/>
       <use xlink:href="#IPAexGothic-30" transform="translate(62.988281 0)"/>
      </g>
     </g>
    </g>
    <g id="ytick_7">
     <g id="line2d_14">
      <g>
       <use xlink:href="#ma6861b4a81" x="52.267688" y="10.945313" style="stroke: #000000; stroke-width: 0.8"/>
      </g>
     </g>
     <g id="text_15">
      <!-- 15 -->
      <g transform="translate(32.670813 14.690625) scale(0.1 -0.1)">
       <use xlink:href="#IPAexGothic-31"/>
       <use xlink:href="#IPAexGothic-35" transform="translate(62.988281 0)"/>
      </g>
     </g>
    </g>
    <g id="text_16">
     <!-- 出力 $y$ -->
     <g transform="translate(18.864 179.159682) rotate(-90) scale(0.144 -0.144)">
      <defs>
       <path id="IPAexGothic-51fa" d="M 3419 2956 
L 4928 2956 
L 4928 4500 
L 5397 4500 
L 5397 2203 
L 4928 2203 
L 4928 2541 
L 3419 2541 
L 3419 384 
L 5194 384 
L 5194 1813 
L 5653 1813 
L 5653 -447 
L 5194 -447 
L 5194 -31 
L 1203 -31 
L 1203 -447 
L 744 -447 
L 744 1813 
L 1203 1813 
L 1203 384 
L 2938 384 
L 2938 2541 
L 1459 2541 
L 1459 2203 
L 1000 2203 
L 1000 4500 
L 1459 4500 
L 1459 2956 
L 2938 2956 
L 2938 5144 
L 3419 5144 
L 3419 2956 
z
" transform="scale(0.015625)"/>
       <path id="DejaVuSans-Oblique-79" d="M 1588 -325 
Q 1188 -997 936 -1164 
Q 684 -1331 294 -1331 
L -159 -1331 
L -63 -850 
L 269 -850 
Q 509 -850 678 -719 
Q 847 -588 1056 -206 
L 1234 128 
L 459 3500 
L 1069 3500 
L 1650 819 
L 3256 3500 
L 3859 3500 
L 1588 -325 
z
" transform="scale(0.015625)"/>
      </defs>
      <use xlink:href="#IPAexGothic-51fa" transform="translate(0 0.578125)"/>
      <use xlink:href="#IPAexGothic-529b" transform="translate(100 0.578125)"/>
      <use xlink:href="#IPAexGothic-20" transform="translate(200 0.578125)"/>
      <use xlink:href="#DejaVuSans-Oblique-79" transform="translate(227.001953 0.578125)"/>
     </g>
    </g>
   </g>
   <g id="line2d_15">
    <path d="M 81.815415 260.50376 
L 672.76996 56.487604 
L 672.76996 56.487604 
" clip-path="url(#p3fb6c08698)" style="fill: none; stroke-dasharray: 4.44,1.92; stroke-dashoffset: 0; stroke: #1f77b4; stroke-width: 1.2"/>
   </g>
   <g id="line2d_16">
    <path d="M 81.815415 260.334983 
L 672.76996 56.656381 
L 672.76996 56.656381 
" clip-path="url(#p3fb6c08698)" style="fill: none; stroke: #2ca02c; stroke-width: 2; stroke-linecap: square"/>
   </g>
   <g id="legend_1">
    <g id="patch_3">
     <path d="M 66.667688 106.499086 
L 225.067688 106.499086 
Q 227.467688 106.499086 227.467688 104.099086 
L 227.467688 21.801586 
Q 227.467688 19.401586 225.067688 19.401586 
L 66.667688 19.401586 
Q 64.267688 19.401586 64.267688 21.801586 
L 64.267688 104.099086 
Q 64.267688 106.499086 66.667688 106.499086 
z
" style="fill: #ffffff; opacity: 0.8; stroke: #cccccc; stroke-linejoin: miter"/>
    </g>
    <g id="PathCollection_2">
     <defs>
      <path id="m1fd03617cd" d="M 0 8 
C 2.121625 8 4.156639 7.15707 5.656854 5.656854 
C 7.15707 4.156639 8 2.121625 8 0 
C 8 -2.121625 7.15707 -4.156639 5.656854 -5.656854 
C 4.156639 -7.15707 2.121625 -8 0 -8 
C -2.121625 -8 -4.156639 -7.15707 -5.656854 -5.656854 
C -7.15707 -4.156639 -8 -2.121625 -8 0 
C -8 2.121625 -7.15707 4.156639 -5.656854 5.656854 
C -4.156639 7.15707 -2.121625 8 0 8 
z
" style="stroke: #ff7f0e; stroke-opacity: 0.6"/>
     </defs>
     <g>
      <use xlink:href="#m1fd03617cd" x="81.067688" y="30.040336" style="fill: #ff7f0e; fill-opacity: 0.6; stroke: #ff7f0e; stroke-opacity: 0.6"/>
     </g>
    </g>
    <g id="text_17">
     <!-- 観測値 -->
     <g transform="translate(102.667687 33.190336) scale(0.12 -0.12)">
      <defs>
       <path id="IPAexGothic-89b3" d="M 1919 4369 
Q 1841 4025 1747 3725 
L 3150 3725 
L 3150 3372 
L 1619 3372 
Q 1459 2959 1294 2675 
L 1825 2675 
Q 1950 2972 2016 3250 
L 2406 3141 
Q 2294 2831 2203 2675 
L 3078 2675 
L 3078 2344 
L 2209 2344 
L 2209 1925 
L 2944 1925 
L 2944 1613 
L 2209 1613 
L 2209 1191 
L 2944 1191 
L 2944 878 
L 2209 878 
L 2209 422 
L 3109 422 
L 3109 91 
L 1191 91 
L 1191 -288 
L 806 -288 
L 806 1944 
Q 606 1666 441 1503 
L 213 1856 
Q 816 2478 1209 3372 
L 353 3372 
L 353 3725 
L 1350 3725 
Q 1453 4019 1538 4369 
L 1094 4369 
Q 916 4025 722 3794 
L 441 4081 
Q 863 4603 1044 5309 
L 1441 5241 
Q 1366 4997 1253 4722 
L 3053 4722 
L 3053 4369 
L 1919 4369 
z
M 1191 2344 
L 1191 1925 
L 1850 1925 
L 1850 2344 
L 1191 2344 
z
M 1191 1613 
L 1191 1191 
L 1850 1191 
L 1850 1613 
L 1191 1613 
z
M 1191 878 
L 1191 422 
L 1850 422 
L 1850 878 
L 1191 878 
z
M 5128 1638 
L 5128 238 
Q 5128 63 5397 63 
Q 5663 63 5709 216 
Q 5759 403 5778 966 
L 6163 806 
Q 6106 81 6028 -109 
Q 5925 -359 5363 -359 
Q 4719 -359 4719 6 
L 4719 1638 
L 4253 1638 
Q 4231 813 4003 372 
Q 3744 -113 3100 -441 
L 2813 -84 
Q 3444 184 3663 653 
Q 3834 1031 3841 1638 
L 3369 1638 
L 3369 5044 
L 5709 5044 
L 5709 1638 
L 5128 1638 
z
M 3778 4672 
L 3778 4031 
L 5306 4031 
L 5306 4672 
L 3778 4672 
z
M 3778 3672 
L 3778 3034 
L 5306 3034 
L 5306 3672 
L 3778 3672 
z
M 3778 2675 
L 3778 2009 
L 5306 2009 
L 5306 2675 
L 3778 2675 
z
" transform="scale(0.015625)"/>
       <path id="IPAexGothic-6e2c" d="M 3856 4884 
L 3856 1081 
L 2059 1081 
L 2059 4884 
L 3856 4884 
z
M 2456 4494 
L 2456 3756 
L 3459 3756 
L 3459 4494 
L 2456 4494 
z
M 2456 3384 
L 2456 2656 
L 3459 2656 
L 3459 3384 
L 2456 3384 
z
M 2456 2284 
L 2456 1478 
L 3459 1478 
L 3459 2284 
L 2456 2284 
z
M 1413 3891 
Q 1000 4428 556 4763 
L 856 5100 
Q 1309 4753 1734 4269 
L 1413 3891 
z
M 1222 2394 
Q 816 2878 325 3256 
L 625 3591 
Q 1141 3231 1528 2778 
L 1222 2394 
z
M 375 -78 
Q 916 800 1297 1906 
L 1669 1619 
Q 1284 478 759 -428 
L 375 -78 
z
M 3819 -256 
Q 3478 319 3128 716 
L 3469 966 
Q 3834 581 4172 63 
L 3819 -256 
z
M 4378 4513 
L 4806 4513 
L 4806 959 
L 4378 959 
L 4378 4513 
z
M 1638 -109 
Q 2103 300 2450 984 
L 2828 763 
Q 2425 -6 1944 -488 
L 1638 -109 
z
M 5419 5081 
L 5853 5081 
L 5853 109 
Q 5853 -391 5297 -391 
Q 4919 -391 4541 -359 
L 4441 109 
Q 4928 50 5219 50 
Q 5419 50 5419 244 
L 5419 5081 
z
" transform="scale(0.015625)"/>
       <path id="IPAexGothic-5024" d="M 4172 3675 
L 5453 3675 
L 5453 684 
L 3019 684 
L 3019 3675 
L 3750 3675 
Q 3788 3884 3825 4153 
L 2141 4153 
L 2141 4544 
L 3884 4544 
Q 3922 4844 3966 5325 
L 4434 5272 
L 4388 4953 
Q 4331 4578 4331 4544 
L 5863 4544 
L 5863 4153 
L 4269 4153 
Q 4200 3781 4172 3675 
z
M 5038 3316 
L 3434 3316 
L 3434 2803 
L 5038 2803 
L 5038 3316 
z
M 3434 2450 
L 3434 1941 
L 5038 1941 
L 5038 2450 
L 3434 2450 
z
M 3434 1588 
L 3434 1044 
L 5038 1044 
L 5038 1588 
L 3434 1588 
z
M 1509 3669 
L 1509 -447 
L 1069 -447 
L 1069 2725 
Q 856 2338 531 1875 
L 288 2266 
Q 1163 3531 1541 5325 
L 1975 5222 
Q 1791 4378 1509 3669 
z
M 2488 244 
L 6031 244 
L 6031 -153 
L 2488 -153 
L 2488 -447 
L 2059 -447 
L 2059 3213 
L 2488 3213 
L 2488 244 
z
" transform="scale(0.015625)"/>
      </defs>
      <use xlink:href="#IPAexGothic-89b3"/>
      <use xlink:href="#IPAexGothic-6e2c" transform="translate(100 0)"/>
      <use xlink:href="#IPAexGothic-5024" transform="translate(200 0)"/>
     </g>
    </g>
    <g id="line2d_17">
     <path d="M 69.067688 51.059086 
L 81.067688 51.059086 
L 93.067688 51.059086 
" style="fill: none; stroke-dasharray: 4.44,1.92; stroke-dashoffset: 0; stroke: #1f77b4; stroke-width: 1.2"/>
    </g>
    <g id="text_18">
     <!-- 最尤推定（OLS） -->
     <g transform="translate(102.667687 55.259086) scale(0.12 -0.12)">
      <defs>
       <path id="IPAexGothic-6700" d="M 5106 5050 
L 5106 3275 
L 1284 3275 
L 1284 5050 
L 5106 5050 
z
M 1741 4697 
L 1741 4331 
L 4656 4331 
L 4656 4697 
L 1741 4697 
z
M 1741 4000 
L 1741 3622 
L 4656 3622 
L 4656 4000 
L 1741 4000 
z
M 2925 2528 
L 2925 -450 
L 2503 -450 
L 2503 228 
Q 1869 94 525 -78 
L 409 356 
Q 491 363 609 372 
Q 725 381 756 381 
L 994 403 
L 994 2528 
L 384 2528 
L 384 2900 
L 6016 2900 
L 6016 2528 
L 2925 2528 
z
M 2503 2528 
L 1400 2528 
L 1400 2088 
L 2503 2088 
L 2503 2528 
z
M 2503 1763 
L 1400 1763 
L 1400 1309 
L 2503 1309 
L 2503 1763 
z
M 2503 984 
L 1400 984 
L 1400 434 
L 1759 472 
Q 2159 500 2503 550 
L 2503 984 
z
M 4844 588 
Q 5350 225 6047 -9 
L 5753 -419 
Q 5066 -128 4556 288 
Q 4000 -241 3281 -534 
L 3006 -163 
Q 3734 84 4263 563 
Q 3722 1141 3463 1803 
L 3084 1803 
L 3084 2169 
L 5425 2169 
L 5656 1963 
Q 5328 1178 4881 638 
L 4844 588 
z
M 4538 850 
Q 4884 1275 5119 1803 
L 3872 1803 
Q 4113 1275 4538 850 
z
" transform="scale(0.015625)"/>
       <path id="IPAexGothic-5c24" d="M 2666 3788 
L 2666 5216 
L 3153 5216 
L 3153 3788 
L 5791 3788 
L 5791 3359 
L 3106 3359 
Q 3050 1809 2363 863 
Q 1797 94 763 -403 
L 438 -13 
Q 1531 434 2100 1294 
Q 2609 2050 2659 3316 
L 2659 3359 
L 609 3359 
L 609 3788 
L 2666 3788 
z
M 3188 2925 
L 3675 2925 
L 3675 525 
Q 3675 313 3828 275 
Q 3972 238 4456 238 
Q 5250 238 5319 384 
Q 5372 503 5403 1306 
L 5906 1147 
Q 5897 206 5672 -31 
Q 5466 -238 4488 -238 
Q 3606 -238 3413 -134 
Q 3188 -28 3188 341 
L 3188 2925 
z
M 4828 3891 
Q 4466 4413 3988 4831 
L 4366 5094 
Q 4838 4694 5225 4191 
L 4828 3891 
z
" transform="scale(0.015625)"/>
       <path id="IPAexGothic-63a8" d="M 3244 4063 
L 4244 4063 
Q 4481 4578 4653 5228 
L 5125 5100 
Q 4913 4484 4691 4063 
L 5906 4063 
L 5906 3666 
L 4647 3666 
L 4647 2822 
L 5747 2822 
L 5747 2438 
L 4647 2438 
L 4647 1594 
L 5747 1594 
L 5747 1216 
L 4647 1216 
L 4647 319 
L 6047 319 
L 6047 -91 
L 3244 -91 
L 3244 -481 
L 2816 -481 
L 2816 3188 
L 2791 3128 
Q 2581 2744 2366 2463 
L 2084 2797 
Q 2813 3728 3166 5284 
L 3616 5144 
Q 3431 4500 3244 4063 
z
M 3244 319 
L 4231 319 
L 4231 1216 
L 3244 1216 
L 3244 319 
z
M 3244 1594 
L 4231 1594 
L 4231 2438 
L 3244 2438 
L 3244 1594 
z
M 3244 2822 
L 4231 2822 
L 4231 3666 
L 3244 3666 
L 3244 2822 
z
M 1184 4084 
L 1184 5313 
L 1613 5313 
L 1613 4084 
L 2328 4084 
L 2328 3669 
L 1613 3669 
L 1613 2241 
Q 1997 2341 2334 2453 
L 2359 2069 
Q 1809 1884 1631 1831 
L 1613 1825 
L 1613 44 
Q 1613 -197 1522 -294 
Q 1413 -403 1081 -403 
Q 738 -403 519 -366 
L 441 97 
Q 741 38 978 38 
Q 1184 38 1184 219 
L 1184 1703 
L 1147 1697 
Q 734 1581 409 1509 
L 275 1941 
Q 722 2022 1138 2119 
Q 1147 2122 1166 2125 
Q 1178 2128 1184 2131 
L 1184 3669 
L 372 3669 
L 372 4084 
L 1184 4084 
z
" transform="scale(0.015625)"/>
       <path id="IPAexGothic-5b9a" d="M 3431 303 
Q 3931 225 4709 225 
Q 5191 225 6053 263 
Q 5963 59 5888 -228 
Q 5234 -250 4844 -250 
Q 3569 -250 3003 -78 
Q 2259 153 1750 903 
Q 1441 163 806 -459 
L 475 -75 
Q 1416 759 1684 2419 
L 2125 2303 
Q 2031 1756 1909 1356 
Q 2338 678 2972 416 
L 2972 2944 
L 1434 2944 
L 1434 3353 
L 4959 3353 
L 4959 2944 
L 3431 2944 
L 3431 1984 
L 5397 1984 
L 5397 1569 
L 3431 1569 
L 3431 303 
z
M 3419 4428 
L 5750 4428 
L 5750 3166 
L 5275 3166 
L 5275 4025 
L 1122 4025 
L 1122 3166 
L 647 3166 
L 647 4428 
L 2938 4428 
L 2938 5313 
L 3419 5313 
L 3419 4428 
z
" transform="scale(0.015625)"/>
       <path id="IPAexGothic-ff08" d="M 5419 -434 
Q 4197 769 4197 2438 
Q 4197 4097 5419 5300 
L 5919 5300 
Q 4678 4078 4678 2425 
Q 4678 788 5919 -434 
L 5419 -434 
z
" transform="scale(0.015625)"/>
       <path id="IPAexGothic-4f" d="M 2541 4725 
Q 3456 4725 4044 4138 
Q 4709 3472 4709 2331 
Q 4709 1219 4031 550 
Q 3450 -31 2541 -31 
Q 1638 -31 1056 550 
Q 378 1219 378 2356 
Q 378 3469 1044 4138 
Q 1631 4725 2541 4725 
z
M 2541 4266 
Q 1953 4266 1531 3844 
Q 994 3303 994 2350 
Q 994 1391 1531 863 
Q 1947 447 2541 447 
Q 3131 447 3556 863 
Q 4094 1400 4094 2375 
Q 4094 3297 3550 3844 
Q 3138 4266 2541 4266 
z
" transform="scale(0.015625)"/>
       <path id="IPAexGothic-4c" d="M 3347 63 
L 609 63 
L 609 4634 
L 1178 4634 
L 1178 563 
L 3347 563 
L 3347 63 
z
" transform="scale(0.015625)"/>
       <path id="IPAexGothic-53" d="M 2919 3641 
Q 2563 4259 1853 4259 
Q 1453 4259 1213 4009 
Q 1028 3803 1028 3534 
Q 1028 3238 1266 3047 
Q 1444 2913 1984 2688 
L 2200 2597 
Q 2925 2306 3191 1953 
Q 3422 1644 3422 1259 
Q 3422 644 2969 288 
Q 2559 -31 1931 -31 
Q 881 -31 313 766 
L 753 1100 
Q 1203 459 1938 459 
Q 2288 459 2534 625 
Q 2841 847 2841 1216 
Q 2841 1503 2616 1728 
Q 2375 1959 1728 2206 
L 1541 2278 
Q 453 2694 453 3481 
Q 453 4006 806 4347 
Q 1203 4725 1863 4725 
Q 2841 4725 3359 3956 
L 2919 3641 
z
" transform="scale(0.015625)"/>
       <path id="IPAexGothic-ff09" d="M 481 -434 
Q 1722 788 1722 2431 
Q 1722 4066 481 5300 
L 981 5300 
Q 2203 4097 2203 2431 
Q 2203 769 981 -434 
L 481 -434 
z
" transform="scale(0.015625)"/>
      </defs>
      <use xlink:href="#IPAexGothic-6700"/>
      <use xlink:href="#IPAexGothic-5c24" transform="translate(100 0)"/>
      <use xlink:href="#IPAexGothic-63a8" transform="translate(200 0)"/>
      <use xlink:href="#IPAexGothic-5b9a" transform="translate(300 0)"/>
      <use xlink:href="#IPAexGothic-ff08" transform="translate(400 0)"/>
      <use xlink:href="#IPAexGothic-4f" transform="translate(500 0)"/>
      <use xlink:href="#IPAexGothic-4c" transform="translate(579.6875 0)"/>
      <use xlink:href="#IPAexGothic-53" transform="translate(632.275391 0)"/>
      <use xlink:href="#IPAexGothic-ff09" transform="translate(690.771484 0)"/>
     </g>
    </g>
    <g id="line2d_18">
     <path d="M 69.067688 73.150336 
L 81.067688 73.150336 
L 93.067688 73.150336 
" style="fill: none; stroke: #2ca02c; stroke-width: 2; stroke-linecap: square"/>
    </g>
    <g id="text_19">
     <!-- ベイズ線形回帰の平均 -->
     <g transform="translate(102.667687 77.350336) scale(0.12 -0.12)">
      <defs>
       <path id="IPAexGothic-30d9" d="M 428 1991 
Q 1119 2547 2100 3681 
Q 2356 3975 2566 3975 
Q 2772 3975 3181 3584 
Q 4328 2475 5950 1356 
L 5600 863 
Q 3994 2081 2816 3241 
Q 2653 3394 2584 3394 
Q 2513 3394 2291 3125 
Q 1706 2384 775 1528 
L 428 1991 
z
M 5356 3719 
Q 4994 4259 4600 4588 
L 4903 4819 
Q 5288 4509 5675 3994 
L 5356 3719 
z
M 4759 3250 
Q 4472 3741 4025 4141 
L 4338 4381 
Q 4709 4075 5094 3525 
L 4759 3250 
z
" transform="scale(0.015625)"/>
       <path id="IPAexGothic-30a4" d="M 3131 -231 
L 3131 2875 
Q 2091 2088 1106 1656 
L 781 2059 
Q 3016 3000 4469 4916 
L 4916 4641 
Q 4384 3938 3675 3316 
L 3675 -231 
L 3131 -231 
z
" transform="scale(0.015625)"/>
       <path id="IPAexGothic-30ba" d="M 4359 4409 
L 4716 4078 
Q 4328 3000 3647 2081 
Q 4659 1363 5659 384 
L 5234 -50 
Q 4256 1016 3353 1709 
Q 2372 525 1044 -103 
L 653 331 
Q 3128 1384 4097 3928 
L 1241 3891 
L 1228 4384 
L 4359 4409 
z
M 5947 4397 
Q 5584 4941 5191 5269 
L 5491 5497 
Q 5875 5188 6266 4672 
L 5947 4397 
z
M 5325 3956 
Q 5034 4447 4591 4844 
L 4903 5088 
Q 5275 4781 5659 4231 
L 5325 3956 
z
" transform="scale(0.015625)"/>
       <path id="IPAexGothic-7dda" d="M 1247 3078 
Q 838 3659 378 4122 
L 666 4428 
Q 788 4306 916 4153 
Q 1281 4681 1541 5331 
L 1956 5119 
Q 1553 4391 1156 3866 
Q 1394 3547 1478 3419 
Q 1863 3991 2156 4550 
L 2541 4313 
Q 1859 3213 1319 2572 
Q 1700 2581 2266 2631 
Q 2169 2872 2016 3150 
L 2366 3303 
Q 2675 2750 2884 2106 
L 2500 1919 
Q 2494 1947 2378 2322 
Q 2147 2281 1791 2234 
L 1791 -447 
L 1369 -447 
L 1369 2181 
Q 975 2134 428 2106 
L 281 2534 
Q 722 2544 863 2553 
Q 947 2666 1247 3078 
z
M 4678 1553 
L 4678 25 
Q 4678 -231 4569 -319 
Q 4472 -397 4225 -397 
Q 3991 -397 3725 -366 
L 3659 56 
Q 3891 13 4122 13 
Q 4275 13 4275 184 
L 4275 2444 
L 3116 2444 
L 3116 4691 
L 4019 4691 
Q 4091 4934 4178 5356 
L 4647 5278 
Q 4506 4884 4416 4691 
L 5772 4691 
L 5772 2444 
L 4697 2444 
Q 4803 1978 5025 1594 
Q 5416 1984 5644 2316 
L 6003 2047 
Q 5578 1584 5216 1288 
Q 5609 738 6213 269 
L 5938 -116 
Q 5056 606 4678 1553 
z
M 3531 4331 
L 3531 3756 
L 5356 3756 
L 5356 4331 
L 3531 4331 
z
M 3531 3403 
L 3531 2803 
L 5356 2803 
L 5356 3403 
L 3531 3403 
z
M 353 206 
Q 566 769 653 1759 
L 1063 1709 
Q 984 678 769 -13 
L 353 206 
z
M 2322 428 
Q 2222 1150 2009 1759 
L 2375 1869 
Q 2581 1366 2738 616 
L 2322 428 
z
M 2834 1925 
L 3950 1925 
L 4153 1747 
Q 3781 534 2878 -231 
L 2578 69 
Q 3359 666 3666 1541 
L 2834 1541 
L 2834 1925 
z
" transform="scale(0.015625)"/>
       <path id="IPAexGothic-5f62" d="M 2856 4488 
L 2856 2859 
L 3744 2859 
L 3744 2456 
L 2875 2456 
L 2875 -384 
L 2434 -384 
L 2434 2456 
L 1653 2456 
L 1653 2394 
Q 1653 1425 1466 759 
Q 1266 59 756 -525 
L 425 -181 
Q 1213 666 1213 2341 
L 1213 2456 
L 322 2456 
L 322 2859 
L 1213 2859 
L 1213 4488 
L 481 4488 
L 481 4891 
L 3609 4891 
L 3609 4488 
L 2856 4488 
z
M 2416 4488 
L 1653 4488 
L 1653 2859 
L 2416 2859 
L 2416 4488 
z
M 3369 6 
Q 4859 738 5728 2203 
L 6144 1966 
Q 5216 403 3688 -384 
L 3369 6 
z
M 3334 3425 
Q 4566 4031 5197 5141 
L 5634 4909 
Q 4872 3697 3650 3066 
L 3334 3425 
z
M 3303 1728 
Q 4684 2331 5472 3706 
L 5888 3481 
Q 5025 2031 3609 1338 
L 3303 1728 
z
" transform="scale(0.015625)"/>
       <path id="IPAexGothic-56de" d="M 4519 3647 
L 4519 1178 
L 1875 1178 
L 1875 3647 
L 4519 3647 
z
M 2328 3250 
L 2328 1575 
L 4066 1575 
L 4066 3250 
L 2328 3250 
z
M 5722 4891 
L 5722 -456 
L 5247 -456 
L 5247 -103 
L 1147 -103 
L 1147 -456 
L 672 -456 
L 672 4891 
L 5722 4891 
z
M 1147 4475 
L 1147 313 
L 5247 313 
L 5247 4475 
L 1147 4475 
z
" transform="scale(0.015625)"/>
       <path id="IPAexGothic-5e30" d="M 5472 5044 
L 5472 3109 
L 2541 3109 
L 2541 3481 
L 5031 3481 
L 5031 3909 
L 2700 3909 
L 2700 4269 
L 5031 4269 
L 5031 4672 
L 2559 4672 
L 2559 5044 
L 5472 5044 
z
M 6022 2675 
L 6022 1631 
L 5594 1631 
L 5594 2297 
L 4244 2297 
L 4244 1784 
L 5503 1784 
L 5503 384 
Q 5503 -19 5056 -19 
Q 4809 -19 4488 13 
L 4441 428 
Q 4719 378 4928 378 
Q 5088 378 5088 544 
L 5088 1419 
L 4244 1419 
L 4244 -447 
L 3816 -447 
L 3816 1419 
L 3091 1419 
L 3091 -97 
L 2675 -97 
L 2675 1784 
L 3816 1784 
L 3816 2297 
L 2584 2297 
L 2584 1631 
L 2156 1631 
L 2156 2675 
L 6022 2675 
z
M 634 4441 
L 1063 4441 
L 1063 1869 
L 634 1869 
L 634 4441 
z
M 1484 5209 
L 1931 5209 
L 1931 3109 
Q 1931 1747 1722 1019 
Q 1463 153 819 -513 
L 506 -122 
Q 1072 388 1313 1216 
Q 1484 1841 1484 2975 
L 1484 5209 
z
" transform="scale(0.015625)"/>
       <path id="IPAexGothic-306e" d="M 3119 469 
Q 5275 766 5275 2425 
Q 5275 3453 4413 3925 
Q 4041 4116 3547 4159 
Q 3394 2525 2850 1400 
Q 2322 306 1722 306 
Q 1384 306 1084 666 
Q 609 1244 609 2003 
Q 609 3025 1397 3794 
Q 2184 4563 3431 4563 
Q 4306 4563 4928 4122 
Q 5813 3506 5813 2425 
Q 5813 438 3431 6 
L 3119 469 
z
M 3053 4147 
Q 2378 4044 1891 3641 
Q 1097 2981 1097 1991 
Q 1097 1366 1434 978 
Q 1581 813 1719 813 
Q 2022 813 2416 1625 
Q 2909 2638 3053 4147 
z
" transform="scale(0.015625)"/>
       <path id="IPAexGothic-5e73" d="M 3422 4428 
L 3422 1941 
L 6084 1941 
L 6084 1513 
L 3422 1513 
L 3422 -447 
L 2934 -447 
L 2934 1513 
L 322 1513 
L 322 1941 
L 2934 1941 
L 2934 4428 
L 641 4428 
L 641 4856 
L 5763 4856 
L 5763 4428 
L 3422 4428 
z
M 1728 2278 
Q 1488 3094 1081 3859 
L 1544 4038 
Q 1875 3422 2222 2472 
L 1728 2278 
z
M 4134 2425 
Q 4509 3138 4813 4128 
L 5306 3944 
Q 4984 3006 4569 2228 
L 4134 2425 
z
" transform="scale(0.015625)"/>
       <path id="IPAexGothic-5747" d="M 1206 3794 
L 1206 5144 
L 1659 5144 
L 1659 3794 
L 2369 3794 
L 2369 3372 
L 1659 3372 
L 1659 1325 
Q 2078 1513 2484 1722 
L 2566 1313 
Q 1556 775 559 397 
L 334 838 
Q 803 975 1206 1138 
L 1206 3372 
L 413 3372 
L 413 3794 
L 1206 3794 
z
M 3475 4244 
L 5844 4244 
Q 5834 1131 5619 184 
Q 5494 -366 4838 -366 
Q 4369 -366 3859 -306 
L 3769 184 
Q 4241 88 4731 88 
Q 5059 88 5147 306 
Q 5359 919 5369 3828 
L 3316 3828 
Q 3013 3119 2466 2472 
L 2150 2828 
Q 2944 3788 3259 5263 
L 3719 5147 
Q 3619 4663 3475 4244 
z
M 2975 2847 
L 4678 2847 
L 4678 2431 
L 2975 2431 
L 2975 2847 
z
M 2559 1044 
Q 3747 1338 4838 1797 
L 4891 1388 
Q 3831 891 2766 588 
L 2559 1044 
z
" transform="scale(0.015625)"/>
      </defs>
      <use xlink:href="#IPAexGothic-30d9"/>
      <use xlink:href="#IPAexGothic-30a4" transform="translate(100 0)"/>
      <use xlink:href="#IPAexGothic-30ba" transform="translate(200 0)"/>
      <use xlink:href="#IPAexGothic-7dda" transform="translate(300 0)"/>
      <use xlink:href="#IPAexGothic-5f62" transform="translate(400 0)"/>
      <use xlink:href="#IPAexGothic-56de" transform="translate(500 0)"/>
      <use xlink:href="#IPAexGothic-5e30" transform="translate(600 0)"/>
      <use xlink:href="#IPAexGothic-306e" transform="translate(700 0)"/>
      <use xlink:href="#IPAexGothic-5e73" transform="translate(800 0)"/>
      <use xlink:href="#IPAexGothic-5747" transform="translate(900 0)"/>
     </g>
    </g>
    <g id="patch_4">
     <path d="M 69.067688 99.419086 
L 93.067688 99.419086 
L 93.067688 91.019086 
L 69.067688 91.019086 
z
" style="fill: #2ca02c; fill-opacity: 0.2; stroke: #2ca02c; stroke-opacity: 0.2; stroke-linejoin: miter"/>
    </g>
    <g id="text_20">
     <!-- 95% 信頼区間 -->
     <g transform="translate(102.667687 99.419086) scale(0.12 -0.12)">
      <defs>
       <path id="IPAexGothic-39" d="M 2984 2356 
Q 2544 1716 1813 1716 
Q 1253 1716 847 2056 
Q 366 2459 366 3163 
Q 366 3813 769 4266 
Q 1181 4725 1869 4725 
Q 2800 4725 3241 3950 
Q 3559 3378 3559 2472 
Q 3559 1250 3041 588 
Q 2553 -31 1769 -31 
Q 859 -31 391 703 
L 853 953 
Q 1156 428 1753 428 
Q 2922 428 3009 2356 
L 2984 2356 
z
M 1888 4278 
Q 1450 4278 1172 3950 
Q 922 3653 922 3200 
Q 922 2741 1159 2478 
Q 1434 2163 1906 2163 
Q 2431 2163 2728 2572 
Q 2925 2847 2925 3169 
Q 2925 3553 2694 3863 
Q 2375 4278 1888 4278 
z
" transform="scale(0.015625)"/>
       <path id="IPAexGothic-25" d="M 4088 2481 
Q 4528 2481 4800 2181 
Q 5094 1847 5094 1203 
Q 5094 534 4728 197 
Q 4472 -38 4088 -38 
Q 3647 -38 3378 269 
Q 3084 600 3084 1222 
Q 3084 1906 3444 2244 
Q 3697 2481 4088 2481 
z
M 4081 2097 
Q 3566 2097 3566 1234 
Q 3566 356 4097 356 
Q 4613 356 4613 1241 
Q 4613 2097 4081 2097 
z
M 1331 4731 
Q 1769 4731 2041 4431 
Q 2334 4097 2334 3450 
Q 2334 2781 1969 2447 
Q 1713 2209 1331 2209 
Q 888 2209 619 2516 
Q 325 2850 325 3472 
Q 325 4156 684 4494 
Q 941 4731 1331 4731 
z
M 1322 4347 
Q 806 4347 806 3484 
Q 806 2606 1338 2606 
Q 1859 2606 1859 3484 
Q 1859 3859 1725 4091 
Q 1584 4347 1322 4347 
z
M 4569 4603 
L 1106 -134 
L 856 78 
L 4313 4813 
L 4569 4603 
z
" transform="scale(0.015625)"/>
       <path id="IPAexGothic-4fe1" d="M 1572 3809 
L 1572 -447 
L 1119 -447 
L 1119 2847 
Q 856 2372 550 1972 
L 300 2363 
Q 1172 3550 1566 5253 
L 2013 5147 
Q 1819 4428 1572 3809 
z
M 5534 1619 
L 5534 -447 
L 5081 -447 
L 5081 -116 
L 2763 -116 
L 2763 -447 
L 2316 -447 
L 2316 1619 
L 5534 1619 
z
M 2763 1234 
L 2763 269 
L 5081 269 
L 5081 1234 
L 2763 1234 
z
M 2475 4984 
L 5375 4984 
L 5375 4588 
L 2475 4588 
L 2475 4984 
z
M 2475 3297 
L 5375 3297 
L 5375 2906 
L 2475 2906 
L 2475 3297 
z
M 2475 2456 
L 5375 2456 
L 5375 2066 
L 2475 2066 
L 2475 2456 
z
M 1894 4147 
L 6003 4147 
L 6003 3738 
L 1894 3738 
L 1894 4147 
z
" transform="scale(0.015625)"/>
       <path id="IPAexGothic-983c" d="M 1513 1466 
Q 1109 591 494 -13 
L 219 344 
Q 953 994 1434 2016 
L 525 2016 
L 525 3578 
L 1513 3578 
L 1513 4134 
L 313 4134 
L 313 4531 
L 1513 4531 
L 1513 5313 
L 1922 5313 
L 1922 4531 
L 3109 4531 
L 3109 4134 
L 1922 4134 
L 1922 3578 
L 2925 3578 
L 2925 2016 
L 1922 2016 
L 1922 1734 
Q 2400 1369 2900 856 
L 2613 494 
Q 2288 919 1922 1288 
L 1922 -447 
L 1513 -447 
L 1513 1466 
z
M 1525 3200 
L 909 3200 
L 909 2388 
L 1525 2388 
L 1525 3200 
z
M 1909 3200 
L 1909 2388 
L 2541 2388 
L 2541 3200 
L 1909 3200 
z
M 4622 4025 
L 5709 4025 
L 5709 794 
L 3400 794 
L 3400 4025 
L 4225 4025 
Q 4309 4319 4359 4653 
L 3034 4653 
L 3034 5050 
L 6022 5050 
L 6022 4653 
L 4806 4653 
Q 4716 4288 4622 4025 
z
M 5300 3647 
L 3809 3647 
L 3809 3072 
L 5300 3072 
L 5300 3647 
z
M 3809 2713 
L 3809 2131 
L 5300 2131 
L 5300 2713 
L 3809 2713 
z
M 3809 1778 
L 3809 1166 
L 5300 1166 
L 5300 1778 
L 3809 1778 
z
M 5763 -434 
Q 5328 59 4713 519 
L 5038 763 
Q 5459 500 6138 -122 
L 5763 -434 
z
M 2791 -184 
Q 3566 234 3969 744 
L 4328 506 
Q 3772 -116 3113 -500 
L 2791 -184 
z
" transform="scale(0.015625)"/>
       <path id="IPAexGothic-533a" d="M 1294 4391 
L 1294 403 
L 5838 403 
L 5838 -25 
L 1294 -25 
L 1294 -447 
L 806 -447 
L 806 4819 
L 5678 4819 
L 5678 4391 
L 1294 4391 
z
M 3278 2375 
Q 2669 2909 1819 3500 
L 2125 3794 
Q 2881 3281 3547 2725 
Q 3959 3319 4306 4172 
L 4744 4000 
Q 4322 3038 3891 2431 
Q 4438 1959 5203 1216 
L 4850 856 
Q 4206 1534 3616 2075 
Q 2963 1284 1856 659 
L 1534 1013 
Q 2569 1553 3278 2375 
z
" transform="scale(0.015625)"/>
       <path id="IPAexGothic-9593" d="M 4450 2566 
L 4450 353 
L 2375 353 
L 2375 -25 
L 1953 -25 
L 1953 2566 
L 4450 2566 
z
M 4028 2200 
L 2375 2200 
L 2375 1653 
L 4028 1653 
L 4028 2200 
z
M 4028 1300 
L 2375 1300 
L 2375 719 
L 4028 719 
L 4028 1300 
z
M 2913 5019 
L 2913 3059 
L 1056 3059 
L 1056 -447 
L 609 -447 
L 609 5019 
L 2913 5019 
z
M 1056 4659 
L 1056 4206 
L 2497 4206 
L 2497 4659 
L 1056 4659 
z
M 1056 3881 
L 1056 3413 
L 2497 3413 
L 2497 3881 
L 1056 3881 
z
M 5788 5019 
L 5788 91 
Q 5788 -225 5641 -331 
Q 5525 -409 5231 -409 
Q 4803 -409 4481 -366 
L 4419 97 
Q 4853 38 5128 38 
Q 5341 38 5341 244 
L 5341 3059 
L 3438 3059 
L 3438 5019 
L 5788 5019 
z
M 3853 4659 
L 3853 4206 
L 5341 4206 
L 5341 4659 
L 3853 4659 
z
M 3853 3881 
L 3853 3413 
L 5341 3413 
L 5341 3881 
L 3853 3881 
z
" transform="scale(0.015625)"/>
      </defs>
      <use xlink:href="#IPAexGothic-39"/>
      <use xlink:href="#IPAexGothic-35" transform="translate(62.988281 0)"/>
      <use xlink:href="#IPAexGothic-25" transform="translate(125.976562 0)"/>
      <use xlink:href="#IPAexGothic-20" transform="translate(210.986328 0)"/>
      <use xlink:href="#IPAexGothic-4fe1" transform="translate(237.988281 0)"/>
      <use xlink:href="#IPAexGothic-983c" transform="translate(337.988281 0)"/>
      <use xlink:href="#IPAexGothic-533a" transform="translate(437.988281 0)"/>
      <use xlink:href="#IPAexGothic-9593" transform="translate(537.988281 0)"/>
     </g>
    </g>
   </g>
  </g>
 </g>
 <defs>
  <clipPath id="p3fb6c08698">
   <rect x="52.267688" y="7.401586" width="650.05" height="302.188193"/>
  </clipPath>
 </defs>
</svg>
