<?xml version="1.0" encoding="utf-8" standalone="no"?>
<!DOCTYPE svg PUBLIC "-//W3C//DTD SVG 1.1//EN"
  "http://www.w3.org/Graphics/SVG/1.1/DTD/svg11.dtd">
<svg xmlns:xlink="http://www.w3.org/1999/xlink" width="613.099062pt" height="325.513125pt" viewBox="0 0 613.099062 325.513125" xmlns="http://www.w3.org/2000/svg" version="1.1">
 <metadata>
  <rdf:RDF xmlns:dc="http://purl.org/dc/elements/1.1/" xmlns:cc="http://creativecommons.org/ns#" xmlns:rdf="http://www.w3.org/1999/02/22-rdf-syntax-ns#">
   <cc:Work>
    <dc:type rdf:resource="http://purl.org/dc/dcmitype/StillImage"/>
    <dc:date>2025-10-30T20:22:34.207174</dc:date>
    <dc:format>image/svg+xml</dc:format>
    <dc:creator>
     <cc:Agent>
      <dc:title>Matplotlib v3.10.7, https://matplotlib.org/</dc:title>
     </cc:Agent>
    </dc:creator>
   </cc:Work>
  </rdf:RDF>
 </metadata>
 <defs>
  <style type="text/css">*{stroke-linejoin: round; stroke-linecap: butt}</style>
 </defs>
 <g id="figure_1">
  <g id="patch_1">
   <path d="M 0 325.513125 
L 613.099062 325.513125 
L 613.099062 0 
L 0 0 
z
" style="fill: #ffffff"/>
  </g>
  <g id="axes_1">
   <g id="patch_2">
    <path d="M 47.899063 284.4 
L 605.899063 284.4 
L 605.899063 7.2 
L 47.899063 7.2 
z
" style="fill: #ffffff"/>
   </g>
   <g id="PathCollection_1">
    <defs>
     <path id="m9920fc051c" d="M -4 4 
L 4 -4 
M -4 -4 
L 4 4 
" style="stroke: #ffa500; stroke-width: 1.2"/>
    </defs>
    <g clip-path="url(#p3f4aa22e93)">
     <use xlink:href="#m9920fc051c" x="73.262699" y="257.195624" style="fill: #ffa500; stroke: #ffa500; stroke-width: 1.2"/>
     <use xlink:href="#m9920fc051c" x="78.386666" y="271.8" style="fill: #ffa500; stroke: #ffa500; stroke-width: 1.2"/>
     <use xlink:href="#m9920fc051c" x="83.510633" y="232.398591" style="fill: #ffa500; stroke: #ffa500; stroke-width: 1.2"/>
     <use xlink:href="#m9920fc051c" x="88.6346" y="218.315819" style="fill: #ffa500; stroke: #ffa500; stroke-width: 1.2"/>
     <use xlink:href="#m9920fc051c" x="93.758567" y="193.769689" style="fill: #ffa500; stroke: #ffa500; stroke-width: 1.2"/>
     <use xlink:href="#m9920fc051c" x="98.882534" y="258.183454" style="fill: #ffa500; stroke: #ffa500; stroke-width: 1.2"/>
     <use xlink:href="#m9920fc051c" x="104.006501" y="211.312819" style="fill: #ffa500; stroke: #ffa500; stroke-width: 1.2"/>
     <use xlink:href="#m9920fc051c" x="109.130467" y="241.712172" style="fill: #ffa500; stroke: #ffa500; stroke-width: 1.2"/>
     <use xlink:href="#m9920fc051c" x="114.254434" y="234.308322" style="fill: #ffa500; stroke: #ffa500; stroke-width: 1.2"/>
     <use xlink:href="#m9920fc051c" x="119.378401" y="224.063729" style="fill: #ffa500; stroke: #ffa500; stroke-width: 1.2"/>
     <use xlink:href="#m9920fc051c" x="124.502368" y="254.539678" style="fill: #ffa500; stroke: #ffa500; stroke-width: 1.2"/>
     <use xlink:href="#m9920fc051c" x="129.626335" y="211.525449" style="fill: #ffa500; stroke: #ffa500; stroke-width: 1.2"/>
     <use xlink:href="#m9920fc051c" x="134.750302" y="212.209112" style="fill: #ffa500; stroke: #ffa500; stroke-width: 1.2"/>
     <use xlink:href="#m9920fc051c" x="139.874269" y="248.137012" style="fill: #ffa500; stroke: #ffa500; stroke-width: 1.2"/>
     <use xlink:href="#m9920fc051c" x="144.998236" y="235.499049" style="fill: #ffa500; stroke: #ffa500; stroke-width: 1.2"/>
     <use xlink:href="#m9920fc051c" x="150.122203" y="188.805282" style="fill: #ffa500; stroke: #ffa500; stroke-width: 1.2"/>
     <use xlink:href="#m9920fc051c" x="155.24617" y="223.909489" style="fill: #ffa500; stroke: #ffa500; stroke-width: 1.2"/>
     <use xlink:href="#m9920fc051c" x="160.370137" y="250.983643" style="fill: #ffa500; stroke: #ffa500; stroke-width: 1.2"/>
     <use xlink:href="#m9920fc051c" x="165.494104" y="203.328581" style="fill: #ffa500; stroke: #ffa500; stroke-width: 1.2"/>
     <use xlink:href="#m9920fc051c" x="170.618071" y="212.857141" style="fill: #ffa500; stroke: #ffa500; stroke-width: 1.2"/>
     <use xlink:href="#m9920fc051c" x="175.742038" y="234.202354" style="fill: #ffa500; stroke: #ffa500; stroke-width: 1.2"/>
     <use xlink:href="#m9920fc051c" x="180.866005" y="201.783077" style="fill: #ffa500; stroke: #ffa500; stroke-width: 1.2"/>
     <use xlink:href="#m9920fc051c" x="185.989972" y="194.113305" style="fill: #ffa500; stroke: #ffa500; stroke-width: 1.2"/>
     <use xlink:href="#m9920fc051c" x="191.113939" y="215.995962" style="fill: #ffa500; stroke: #ffa500; stroke-width: 1.2"/>
     <use xlink:href="#m9920fc051c" x="196.237905" y="167.836908" style="fill: #ffa500; stroke: #ffa500; stroke-width: 1.2"/>
     <use xlink:href="#m9920fc051c" x="201.361872" y="189.021264" style="fill: #ffa500; stroke: #ffa500; stroke-width: 1.2"/>
     <use xlink:href="#m9920fc051c" x="206.485839" y="201.900373" style="fill: #ffa500; stroke: #ffa500; stroke-width: 1.2"/>
     <use xlink:href="#m9920fc051c" x="211.609806" y="167.755488" style="fill: #ffa500; stroke: #ffa500; stroke-width: 1.2"/>
     <use xlink:href="#m9920fc051c" x="216.733773" y="217.913057" style="fill: #ffa500; stroke: #ffa500; stroke-width: 1.2"/>
     <use xlink:href="#m9920fc051c" x="221.85774" y="193.768511" style="fill: #ffa500; stroke: #ffa500; stroke-width: 1.2"/>
     <use xlink:href="#m9920fc051c" x="226.981707" y="221.103044" style="fill: #ffa500; stroke: #ffa500; stroke-width: 1.2"/>
     <use xlink:href="#m9920fc051c" x="232.105674" y="161.591634" style="fill: #ffa500; stroke: #ffa500; stroke-width: 1.2"/>
     <use xlink:href="#m9920fc051c" x="237.229641" y="204.570968" style="fill: #ffa500; stroke: #ffa500; stroke-width: 1.2"/>
     <use xlink:href="#m9920fc051c" x="242.353608" y="207.0604" style="fill: #ffa500; stroke: #ffa500; stroke-width: 1.2"/>
     <use xlink:href="#m9920fc051c" x="247.477575" y="184.324613" style="fill: #ffa500; stroke: #ffa500; stroke-width: 1.2"/>
     <use xlink:href="#m9920fc051c" x="252.601542" y="150.094098" style="fill: #ffa500; stroke: #ffa500; stroke-width: 1.2"/>
     <use xlink:href="#m9920fc051c" x="257.725509" y="128.031372" style="fill: #ffa500; stroke: #ffa500; stroke-width: 1.2"/>
     <use xlink:href="#m9920fc051c" x="262.849476" y="150.060386" style="fill: #ffa500; stroke: #ffa500; stroke-width: 1.2"/>
     <use xlink:href="#m9920fc051c" x="267.973443" y="164.647377" style="fill: #ffa500; stroke: #ffa500; stroke-width: 1.2"/>
     <use xlink:href="#m9920fc051c" x="273.09741" y="153.09827" style="fill: #ffa500; stroke: #ffa500; stroke-width: 1.2"/>
     <use xlink:href="#m9920fc051c" x="278.221377" y="149.797434" style="fill: #ffa500; stroke: #ffa500; stroke-width: 1.2"/>
     <use xlink:href="#m9920fc051c" x="283.345343" y="172.121792" style="fill: #ffa500; stroke: #ffa500; stroke-width: 1.2"/>
     <use xlink:href="#m9920fc051c" x="288.46931" y="158.509928" style="fill: #ffa500; stroke: #ffa500; stroke-width: 1.2"/>
     <use xlink:href="#m9920fc051c" x="293.593277" y="126.161882" style="fill: #ffa500; stroke: #ffa500; stroke-width: 1.2"/>
     <use xlink:href="#m9920fc051c" x="298.717244" y="193.091106" style="fill: #ffa500; stroke: #ffa500; stroke-width: 1.2"/>
     <use xlink:href="#m9920fc051c" x="303.841211" y="110.57891" style="fill: #ffa500; stroke: #ffa500; stroke-width: 1.2"/>
     <use xlink:href="#m9920fc051c" x="308.965178" y="128.749181" style="fill: #ffa500; stroke: #ffa500; stroke-width: 1.2"/>
     <use xlink:href="#m9920fc051c" x="314.089145" y="181.323413" style="fill: #ffa500; stroke: #ffa500; stroke-width: 1.2"/>
     <use xlink:href="#m9920fc051c" x="319.213112" y="139.97464" style="fill: #ffa500; stroke: #ffa500; stroke-width: 1.2"/>
     <use xlink:href="#m9920fc051c" x="324.337079" y="129.156106" style="fill: #ffa500; stroke: #ffa500; stroke-width: 1.2"/>
     <use xlink:href="#m9920fc051c" x="329.461046" y="163.906068" style="fill: #ffa500; stroke: #ffa500; stroke-width: 1.2"/>
     <use xlink:href="#m9920fc051c" x="334.585013" y="158.087663" style="fill: #ffa500; stroke: #ffa500; stroke-width: 1.2"/>
     <use xlink:href="#m9920fc051c" x="339.70898" y="127.860565" style="fill: #ffa500; stroke: #ffa500; stroke-width: 1.2"/>
     <use xlink:href="#m9920fc051c" x="344.832947" y="185.229242" style="fill: #ffa500; stroke: #ffa500; stroke-width: 1.2"/>
     <use xlink:href="#m9920fc051c" x="349.956914" y="151.228645" style="fill: #ffa500; stroke: #ffa500; stroke-width: 1.2"/>
     <use xlink:href="#m9920fc051c" x="355.080881" y="155.554449" style="fill: #ffa500; stroke: #ffa500; stroke-width: 1.2"/>
     <use xlink:href="#m9920fc051c" x="360.204848" y="84.599191" style="fill: #ffa500; stroke: #ffa500; stroke-width: 1.2"/>
     <use xlink:href="#m9920fc051c" x="365.328815" y="163.920945" style="fill: #ffa500; stroke: #ffa500; stroke-width: 1.2"/>
     <use xlink:href="#m9920fc051c" x="370.452782" y="128.47438" style="fill: #ffa500; stroke: #ffa500; stroke-width: 1.2"/>
     <use xlink:href="#m9920fc051c" x="375.576748" y="123.508725" style="fill: #ffa500; stroke: #ffa500; stroke-width: 1.2"/>
     <use xlink:href="#m9920fc051c" x="380.700715" y="93.213162" style="fill: #ffa500; stroke: #ffa500; stroke-width: 1.2"/>
     <use xlink:href="#m9920fc051c" x="385.824682" y="83.990505" style="fill: #ffa500; stroke: #ffa500; stroke-width: 1.2"/>
     <use xlink:href="#m9920fc051c" x="390.948649" y="112.462745" style="fill: #ffa500; stroke: #ffa500; stroke-width: 1.2"/>
     <use xlink:href="#m9920fc051c" x="396.072616" y="112.657134" style="fill: #ffa500; stroke: #ffa500; stroke-width: 1.2"/>
     <use xlink:href="#m9920fc051c" x="401.196583" y="107.314197" style="fill: #ffa500; stroke: #ffa500; stroke-width: 1.2"/>
     <use xlink:href="#m9920fc051c" x="406.32055" y="107.364583" style="fill: #ffa500; stroke: #ffa500; stroke-width: 1.2"/>
     <use xlink:href="#m9920fc051c" x="411.444517" y="124.006834" style="fill: #ffa500; stroke: #ffa500; stroke-width: 1.2"/>
     <use xlink:href="#m9920fc051c" x="416.568484" y="116.350828" style="fill: #ffa500; stroke: #ffa500; stroke-width: 1.2"/>
     <use xlink:href="#m9920fc051c" x="421.692451" y="113.550225" style="fill: #ffa500; stroke: #ffa500; stroke-width: 1.2"/>
     <use xlink:href="#m9920fc051c" x="426.816418" y="114.656682" style="fill: #ffa500; stroke: #ffa500; stroke-width: 1.2"/>
     <use xlink:href="#m9920fc051c" x="431.940385" y="102.458827" style="fill: #ffa500; stroke: #ffa500; stroke-width: 1.2"/>
     <use xlink:href="#m9920fc051c" x="437.064352" y="137.152216" style="fill: #ffa500; stroke: #ffa500; stroke-width: 1.2"/>
     <use xlink:href="#m9920fc051c" x="442.188319" y="89.480536" style="fill: #ffa500; stroke: #ffa500; stroke-width: 1.2"/>
     <use xlink:href="#m9920fc051c" x="447.312286" y="71.430227" style="fill: #ffa500; stroke: #ffa500; stroke-width: 1.2"/>
     <use xlink:href="#m9920fc051c" x="452.436253" y="108.231133" style="fill: #ffa500; stroke: #ffa500; stroke-width: 1.2"/>
     <use xlink:href="#m9920fc051c" x="457.56022" y="103.909705" style="fill: #ffa500; stroke: #ffa500; stroke-width: 1.2"/>
     <use xlink:href="#m9920fc051c" x="462.684186" y="76.068224" style="fill: #ffa500; stroke: #ffa500; stroke-width: 1.2"/>
     <use xlink:href="#m9920fc051c" x="467.808153" y="73.907342" style="fill: #ffa500; stroke: #ffa500; stroke-width: 1.2"/>
     <use xlink:href="#m9920fc051c" x="472.93212" y="79.778435" style="fill: #ffa500; stroke: #ffa500; stroke-width: 1.2"/>
     <use xlink:href="#m9920fc051c" x="478.056087" y="76.637176" style="fill: #ffa500; stroke: #ffa500; stroke-width: 1.2"/>
     <use xlink:href="#m9920fc051c" x="483.180054" y="101.666544" style="fill: #ffa500; stroke: #ffa500; stroke-width: 1.2"/>
     <use xlink:href="#m9920fc051c" x="488.304021" y="47.302782" style="fill: #ffa500; stroke: #ffa500; stroke-width: 1.2"/>
     <use xlink:href="#m9920fc051c" x="493.427988" y="122.597319" style="fill: #ffa500; stroke: #ffa500; stroke-width: 1.2"/>
     <use xlink:href="#m9920fc051c" x="498.551955" y="61.655869" style="fill: #ffa500; stroke: #ffa500; stroke-width: 1.2"/>
     <use xlink:href="#m9920fc051c" x="503.675922" y="80.640166" style="fill: #ffa500; stroke: #ffa500; stroke-width: 1.2"/>
     <use xlink:href="#m9920fc051c" x="508.799889" y="66.30718" style="fill: #ffa500; stroke: #ffa500; stroke-width: 1.2"/>
     <use xlink:href="#m9920fc051c" x="513.923856" y="67.587969" style="fill: #ffa500; stroke: #ffa500; stroke-width: 1.2"/>
     <use xlink:href="#m9920fc051c" x="519.047823" y="84.425451" style="fill: #ffa500; stroke: #ffa500; stroke-width: 1.2"/>
     <use xlink:href="#m9920fc051c" x="524.17179" y="35.254965" style="fill: #ffa500; stroke: #ffa500; stroke-width: 1.2"/>
     <use xlink:href="#m9920fc051c" x="529.295757" y="53.236194" style="fill: #ffa500; stroke: #ffa500; stroke-width: 1.2"/>
     <use xlink:href="#m9920fc051c" x="534.419724" y="75.774936" style="fill: #ffa500; stroke: #ffa500; stroke-width: 1.2"/>
     <use xlink:href="#m9920fc051c" x="539.543691" y="61.64485" style="fill: #ffa500; stroke: #ffa500; stroke-width: 1.2"/>
     <use xlink:href="#m9920fc051c" x="544.667658" y="84.929235" style="fill: #ffa500; stroke: #ffa500; stroke-width: 1.2"/>
     <use xlink:href="#m9920fc051c" x="549.791624" y="62.910113" style="fill: #ffa500; stroke: #ffa500; stroke-width: 1.2"/>
     <use xlink:href="#m9920fc051c" x="554.915591" y="19.8" style="fill: #ffa500; stroke: #ffa500; stroke-width: 1.2"/>
     <use xlink:href="#m9920fc051c" x="560.039558" y="46.409102" style="fill: #ffa500; stroke: #ffa500; stroke-width: 1.2"/>
     <use xlink:href="#m9920fc051c" x="565.163525" y="69.432435" style="fill: #ffa500; stroke: #ffa500; stroke-width: 1.2"/>
     <use xlink:href="#m9920fc051c" x="570.287492" y="30.240981" style="fill: #ffa500; stroke: #ffa500; stroke-width: 1.2"/>
     <use xlink:href="#m9920fc051c" x="575.411459" y="55.838634" style="fill: #ffa500; stroke: #ffa500; stroke-width: 1.2"/>
     <use xlink:href="#m9920fc051c" x="580.535426" y="31.950142" style="fill: #ffa500; stroke: #ffa500; stroke-width: 1.2"/>
    </g>
   </g>
   <g id="matplotlib.axis_1">
    <g id="xtick_1">
     <g id="line2d_1">
      <defs>
       <path id="mdc05cad4e1" d="M 0 0 
L 0 3.5 
" style="stroke: #000000; stroke-width: 0.8"/>
      </defs>
      <g>
       <use xlink:href="#mdc05cad4e1" x="123.989972" y="284.4" style="stroke: #000000; stroke-width: 0.8"/>
      </g>
     </g>
     <g id="text_1">
      <!-- -4 -->
      <g transform="translate(119.050909 298.890625) scale(0.1 -0.1)">
       <defs>
        <path id="IPAexGothic-2d" d="M 1969 1703 
L 319 1703 
L 319 2203 
L 1969 2203 
L 1969 1703 
z
" transform="scale(0.015625)"/>
        <path id="IPAexGothic-34" d="M 3813 1159 
L 3059 1159 
L 3059 63 
L 2547 63 
L 2547 1159 
L 197 1159 
L 197 1672 
L 2456 4678 
L 3059 4678 
L 3059 1634 
L 3813 1634 
L 3813 1159 
z
M 2578 4109 
L 2559 4109 
Q 2278 3656 2003 3284 
L 759 1634 
L 2547 1634 
L 2547 3144 
Q 2547 3481 2578 4109 
z
" transform="scale(0.015625)"/>
       </defs>
       <use xlink:href="#IPAexGothic-2d"/>
       <use xlink:href="#IPAexGothic-34" transform="translate(35.791016 0)"/>
      </g>
     </g>
    </g>
    <g id="xtick_2">
     <g id="line2d_2">
      <g>
       <use xlink:href="#mdc05cad4e1" x="225.444517" y="284.4" style="stroke: #000000; stroke-width: 0.8"/>
      </g>
     </g>
     <g id="text_2">
      <!-- -2 -->
      <g transform="translate(220.505455 298.890625) scale(0.1 -0.1)">
       <defs>
        <path id="IPAexGothic-32" d="M 3659 63 
L 447 63 
L 447 594 
Q 825 1475 1894 2203 
L 2072 2322 
Q 2619 2697 2791 2906 
Q 2988 3153 2988 3444 
Q 2988 3772 2756 4003 
Q 2500 4259 2084 4259 
Q 1250 4259 991 3328 
L 497 3506 
Q 853 4725 2116 4725 
Q 2806 4725 3216 4316 
Q 3575 3947 3575 3425 
Q 3575 3038 3344 2722 
Q 3131 2416 2366 1938 
L 2231 1856 
Q 1256 1253 978 569 
L 3659 569 
L 3659 63 
z
" transform="scale(0.015625)"/>
       </defs>
       <use xlink:href="#IPAexGothic-2d"/>
       <use xlink:href="#IPAexGothic-32" transform="translate(35.791016 0)"/>
      </g>
     </g>
    </g>
    <g id="xtick_3">
     <g id="line2d_3">
      <g>
       <use xlink:href="#mdc05cad4e1" x="326.899063" y="284.4" style="stroke: #000000; stroke-width: 0.8"/>
      </g>
     </g>
     <g id="text_3">
      <!-- 0 -->
      <g transform="translate(323.749844 298.890625) scale(0.1 -0.1)">
       <defs>
        <path id="IPAexGothic-30" d="M 2038 4725 
Q 2881 4725 3334 3944 
Q 3694 3325 3694 2344 
Q 3694 1372 3334 741 
Q 2888 -31 2016 -31 
Q 1147 -31 700 741 
Q 341 1372 341 2350 
Q 341 3713 1000 4334 
Q 1419 4725 2038 4725 
z
M 2016 4266 
Q 1516 4266 1228 3759 
Q 934 3247 934 2344 
Q 934 1456 1222 947 
Q 1513 447 2016 447 
Q 2619 447 2909 1153 
Q 3100 1622 3100 2375 
Q 3100 3256 2806 3759 
Q 2509 4266 2016 4266 
z
" transform="scale(0.015625)"/>
       </defs>
       <use xlink:href="#IPAexGothic-30"/>
      </g>
     </g>
    </g>
    <g id="xtick_4">
     <g id="line2d_4">
      <g>
       <use xlink:href="#mdc05cad4e1" x="428.353608" y="284.4" style="stroke: #000000; stroke-width: 0.8"/>
      </g>
     </g>
     <g id="text_4">
      <!-- 2 -->
      <g transform="translate(425.204389 298.890625) scale(0.1 -0.1)">
       <use xlink:href="#IPAexGothic-32"/>
      </g>
     </g>
    </g>
    <g id="xtick_5">
     <g id="line2d_5">
      <g>
       <use xlink:href="#mdc05cad4e1" x="529.808153" y="284.4" style="stroke: #000000; stroke-width: 0.8"/>
      </g>
     </g>
     <g id="text_5">
      <!-- 4 -->
      <g transform="translate(526.658935 298.890625) scale(0.1 -0.1)">
       <use xlink:href="#IPAexGothic-34"/>
      </g>
     </g>
    </g>
    <g id="text_6">
     <!-- $x$ -->
     <g transform="translate(322.579063 315.577125) scale(0.144 -0.144)">
      <defs>
       <path id="DejaVuSans-Oblique-78" d="M 3841 3500 
L 2234 1784 
L 3219 0 
L 2559 0 
L 1819 1388 
L 531 0 
L -166 0 
L 1556 1844 
L 641 3500 
L 1300 3500 
L 1972 2234 
L 3144 3500 
L 3841 3500 
z
" transform="scale(0.015625)"/>
      </defs>
      <use xlink:href="#DejaVuSans-Oblique-78" transform="translate(0 0.3125)"/>
     </g>
    </g>
   </g>
   <g id="matplotlib.axis_2">
    <g id="ytick_1">
     <g id="line2d_6">
      <defs>
       <path id="mc1cbd19f43" d="M 0 0 
L -3.5 0 
" style="stroke: #000000; stroke-width: 0.8"/>
      </defs>
      <g>
       <use xlink:href="#mc1cbd19f43" x="47.899063" y="258.700825" style="stroke: #000000; stroke-width: 0.8"/>
      </g>
     </g>
     <g id="text_7">
      <!-- -10 -->
      <g transform="translate(24.7225 262.446137) scale(0.1 -0.1)">
       <defs>
        <path id="IPAexGothic-31" d="M 2463 63 
L 1900 63 
L 1900 4103 
Q 1372 3922 788 3797 
L 684 4231 
Q 1519 4441 2106 4731 
L 2463 4731 
L 2463 63 
z
" transform="scale(0.015625)"/>
       </defs>
       <use xlink:href="#IPAexGothic-2d"/>
       <use xlink:href="#IPAexGothic-31" transform="translate(35.791016 0)"/>
       <use xlink:href="#IPAexGothic-30" transform="translate(98.779297 0)"/>
      </g>
     </g>
    </g>
    <g id="ytick_2">
     <g id="line2d_7">
      <g>
       <use xlink:href="#mc1cbd19f43" x="47.899063" y="208.011262" style="stroke: #000000; stroke-width: 0.8"/>
      </g>
     </g>
     <g id="text_8">
      <!-- -5 -->
      <g transform="translate(31.020938 211.756575) scale(0.1 -0.1)">
       <defs>
        <path id="IPAexGothic-35" d="M 1178 2603 
Q 1634 2963 2172 2963 
Q 2816 2963 3241 2528 
Q 3638 2113 3638 1497 
Q 3638 938 3297 513 
Q 2869 -31 2031 -31 
Q 959 -31 469 784 
L 938 1028 
Q 1309 434 2013 434 
Q 2466 434 2769 716 
Q 3081 1013 3081 1503 
Q 3081 1966 2806 2241 
Q 2519 2528 2056 2528 
Q 1406 2528 1072 2028 
L 591 2091 
L 884 4634 
L 3406 4634 
L 3406 4153 
L 1341 4153 
L 1134 2603 
L 1178 2603 
z
" transform="scale(0.015625)"/>
       </defs>
       <use xlink:href="#IPAexGothic-2d"/>
       <use xlink:href="#IPAexGothic-35" transform="translate(35.791016 0)"/>
      </g>
     </g>
    </g>
    <g id="ytick_3">
     <g id="line2d_8">
      <g>
       <use xlink:href="#mc1cbd19f43" x="47.899063" y="157.3217" style="stroke: #000000; stroke-width: 0.8"/>
      </g>
     </g>
     <g id="text_9">
      <!-- 0 -->
      <g transform="translate(34.600625 161.067013) scale(0.1 -0.1)">
       <use xlink:href="#IPAexGothic-30"/>
      </g>
     </g>
    </g>
    <g id="ytick_4">
     <g id="line2d_9">
      <g>
       <use xlink:href="#mc1cbd19f43" x="47.899063" y="106.632138" style="stroke: #000000; stroke-width: 0.8"/>
      </g>
     </g>
     <g id="text_10">
      <!-- 5 -->
      <g transform="translate(34.600625 110.37745) scale(0.1 -0.1)">
       <use xlink:href="#IPAexGothic-35"/>
      </g>
     </g>
    </g>
    <g id="ytick_5">
     <g id="line2d_10">
      <g>
       <use xlink:href="#mc1cbd19f43" x="47.899063" y="55.942576" style="stroke: #000000; stroke-width: 0.8"/>
      </g>
     </g>
     <g id="text_11">
      <!-- 10 -->
      <g transform="translate(28.302188 59.687888) scale(0.1 -0.1)">
       <use xlink:href="#IPAexGothic-31"/>
       <use xlink:href="#IPAexGothic-30" transform="translate(62.988281 0)"/>
      </g>
     </g>
    </g>
    <g id="text_12">
     <!-- $y$ -->
     <g transform="translate(17.6985 150.12) rotate(-90) scale(0.144 -0.144)">
      <defs>
       <path id="DejaVuSans-Oblique-79" d="M 1588 -325 
Q 1188 -997 936 -1164 
Q 684 -1331 294 -1331 
L -159 -1331 
L -63 -850 
L 269 -850 
Q 509 -850 678 -719 
Q 847 -588 1056 -206 
L 1234 128 
L 459 3500 
L 1069 3500 
L 1650 819 
L 3256 3500 
L 3859 3500 
L 1588 -325 
z
" transform="scale(0.015625)"/>
      </defs>
      <use xlink:href="#DejaVuSans-Oblique-79" transform="translate(0 0.3125)"/>
     </g>
    </g>
   </g>
   <g id="line2d_11">
    <path d="M 73.262699 247.90741 
L 78.386666 245.826409 
L 83.510633 243.745408 
L 88.6346 241.664408 
L 93.758567 239.583407 
L 98.882534 237.502406 
L 104.006501 235.421405 
L 109.130467 233.340404 
L 114.254434 231.259403 
L 119.378401 229.178403 
L 124.502368 227.097402 
L 129.626335 225.016401 
L 134.750302 222.9354 
L 139.874269 220.854399 
L 144.998236 218.773399 
L 150.122203 216.692398 
L 155.24617 214.611397 
L 160.370137 212.530396 
L 165.494104 210.449395 
L 170.618071 208.368395 
L 175.742038 206.287394 
L 180.866005 204.206393 
L 185.989972 202.125392 
L 191.113939 200.044391 
L 196.237905 197.96339 
L 201.361872 195.88239 
L 206.485839 193.801389 
L 211.609806 191.720388 
L 216.733773 189.639387 
L 221.85774 187.558386 
L 226.981707 185.477386 
L 232.105674 183.396385 
L 237.229641 181.315384 
L 242.353608 179.234383 
L 247.477575 177.153382 
L 252.601542 175.072381 
L 257.725509 172.991381 
L 262.849476 170.91038 
L 267.973443 168.829379 
L 273.09741 166.748378 
L 278.221377 164.667377 
L 283.345343 162.586377 
L 288.46931 160.505376 
L 293.593277 158.424375 
L 298.717244 156.343374 
L 303.841211 154.262373 
L 308.965178 152.181373 
L 314.089145 150.100372 
L 319.213112 148.019371 
L 324.337079 145.93837 
L 329.461046 143.857369 
L 334.585013 141.776368 
L 339.70898 139.695368 
L 344.832947 137.614367 
L 349.956914 135.533366 
L 355.080881 133.452365 
L 360.204848 131.371364 
L 365.328815 129.290364 
L 370.452782 127.209363 
L 375.576748 125.128362 
L 380.700715 123.047361 
L 385.824682 120.96636 
L 390.948649 118.88536 
L 396.072616 116.804359 
L 401.196583 114.723358 
L 406.32055 112.642357 
L 411.444517 110.561356 
L 416.568484 108.480355 
L 421.692451 106.399355 
L 426.816418 104.318354 
L 431.940385 102.237353 
L 437.064352 100.156352 
L 442.188319 98.075351 
L 447.312286 95.994351 
L 452.436253 93.91335 
L 457.56022 91.832349 
L 462.684186 89.751348 
L 467.808153 87.670347 
L 472.93212 85.589346 
L 478.056087 83.508346 
L 483.180054 81.427345 
L 488.304021 79.346344 
L 493.427988 77.265343 
L 498.551955 75.184342 
L 503.675922 73.103342 
L 508.799889 71.022341 
L 513.923856 68.94134 
L 519.047823 66.860339 
L 524.17179 64.779338 
L 529.295757 62.698338 
L 534.419724 60.617337 
L 539.543691 58.536336 
L 544.667658 56.455335 
L 549.791624 54.374334 
L 554.915591 52.293333 
L 560.039558 50.212333 
L 565.163525 48.131332 
L 570.287492 46.050331 
L 575.411459 43.96933 
L 580.535426 41.888329 
" clip-path="url(#p3f4aa22e93)" style="fill: none; stroke: #264653; stroke-width: 1.2; stroke-linecap: square"/>
   </g>
   <g id="legend_1">
    <g id="patch_3">
     <path d="M 62.299063 62.4225 
L 227.681563 62.4225 
Q 230.081563 62.4225 230.081563 60.0225 
L 230.081563 21.6 
Q 230.081563 19.2 227.681563 19.2 
L 62.299063 19.2 
Q 59.899063 19.2 59.899063 21.6 
L 59.899063 60.0225 
Q 59.899063 62.4225 62.299063 62.4225 
z
" style="fill: #ffffff; opacity: 0.8; stroke: #cccccc; stroke-linejoin: miter"/>
    </g>
    <g id="PathCollection_2">
     <defs>
      <path id="m200215e66d" d="M -8 8 
L 8 -8 
M -8 -8 
L 8 8 
" style="stroke: #ffa500; stroke-width: 1.2"/>
     </defs>
     <g>
      <use xlink:href="#m200215e66d" x="76.699063" y="29.83875" style="fill: #ffa500; stroke: #ffa500; stroke-width: 1.2"/>
     </g>
    </g>
    <g id="text_13">
     <!-- observations -->
     <g transform="translate(98.299063 32.98875) scale(0.12 -0.12)">
      <defs>
       <path id="IPAexGothic-6f" d="M 1919 3341 
Q 2594 3341 3056 2888 
Q 3531 2413 3531 1638 
Q 3531 888 3066 422 
Q 2609 -31 1919 -31 
Q 1228 -31 781 416 
Q 313 881 313 1656 
Q 313 2413 788 2888 
Q 1241 3341 1919 3341 
z
M 1919 2919 
Q 1519 2919 1241 2631 
Q 888 2278 888 1650 
Q 888 1031 1234 684 
Q 1516 403 1919 403 
Q 2331 403 2609 691 
Q 2956 1038 2956 1672 
Q 2956 2269 2603 2631 
Q 2316 2919 1919 2919 
z
" transform="scale(0.015625)"/>
       <path id="IPAexGothic-62" d="M 1125 2731 
Q 1550 3341 2219 3341 
Q 2788 3341 3191 2938 
Q 3659 2469 3659 1644 
Q 3659 838 3191 372 
Q 2788 -31 2206 -31 
Q 1559 -31 1088 516 
L 1009 44 
L 581 44 
L 581 4794 
L 1125 4794 
L 1125 2731 
z
M 1125 1997 
L 1125 1253 
Q 1125 888 1528 600 
Q 1803 403 2119 403 
Q 2488 403 2744 659 
Q 3084 1009 3084 1631 
Q 3084 2194 2803 2553 
Q 2525 2900 2125 2900 
Q 1759 2900 1438 2578 
Q 1125 2266 1125 1997 
z
" transform="scale(0.015625)"/>
       <path id="IPAexGothic-73" d="M 2234 2547 
Q 1938 2931 1484 2931 
Q 891 2931 891 2475 
Q 891 2153 1531 1944 
L 1741 1875 
Q 2650 1578 2650 894 
Q 2650 434 2272 172 
Q 1972 -31 1497 -31 
Q 766 -31 256 503 
L 603 819 
Q 997 397 1516 397 
Q 2131 397 2131 875 
Q 2131 1238 1453 1478 
L 1234 1553 
Q 378 1853 378 2431 
Q 378 2797 628 3047 
Q 928 3347 1453 3347 
Q 2156 3347 2606 2859 
L 2234 2547 
z
" transform="scale(0.015625)"/>
       <path id="IPAexGothic-65" d="M 863 1594 
Q 891 1041 1209 722 
Q 1534 397 1997 397 
Q 2606 397 2963 966 
L 3322 728 
Q 2869 -31 1931 -31 
Q 1222 -31 766 422 
Q 306 884 306 1641 
Q 306 2444 788 2925 
Q 1216 3353 1856 3353 
Q 2459 3353 2866 2956 
Q 3322 2494 3322 1722 
L 3322 1594 
L 863 1594 
z
M 2756 1997 
Q 2709 2431 2450 2681 
Q 2194 2938 1844 2938 
Q 1438 2938 1150 2591 
Q 953 2356 894 1997 
L 2756 1997 
z
" transform="scale(0.015625)"/>
       <path id="IPAexGothic-72" d="M 2309 3316 
L 2213 2769 
Q 2106 2791 2022 2791 
Q 1653 2791 1413 2444 
Q 1113 2006 1113 1675 
L 1113 63 
L 563 63 
L 563 3250 
L 1081 3250 
L 1056 2303 
L 1069 2303 
Q 1422 3341 2097 3341 
Q 2206 3341 2309 3316 
z
" transform="scale(0.015625)"/>
       <path id="IPAexGothic-76" d="M 3103 3250 
L 1747 6 
L 1375 6 
L 25 3250 
L 628 3250 
L 1338 1388 
L 1522 844 
L 1569 703 
L 1588 703 
Q 1641 884 1822 1388 
L 2516 3250 
L 3103 3250 
z
" transform="scale(0.015625)"/>
       <path id="IPAexGothic-61" d="M 3156 63 
L 2672 63 
Q 2559 303 2531 556 
L 2509 556 
Q 2147 -25 1428 -25 
Q 934 -25 622 288 
Q 347 563 347 959 
Q 347 1947 2050 1997 
L 2478 2009 
L 2478 2175 
Q 2478 2509 2288 2700 
Q 2088 2900 1775 2900 
Q 1238 2900 969 2378 
L 494 2597 
Q 938 3328 1788 3328 
Q 2375 3328 2691 3000 
Q 2984 2706 2984 2169 
L 2984 997 
Q 2984 400 3156 63 
z
M 2491 1625 
L 2141 1619 
Q 903 1591 903 953 
Q 903 728 1050 581 
Q 1231 403 1525 403 
Q 1934 403 2234 703 
Q 2491 969 2491 1344 
L 2491 1625 
z
" transform="scale(0.015625)"/>
       <path id="IPAexGothic-74" d="M 2125 241 
Q 1769 -6 1397 -6 
Q 653 -6 653 831 
L 653 2859 
L 219 2859 
L 219 3250 
L 653 3250 
L 653 3966 
L 1178 4228 
L 1178 3250 
L 2063 3250 
L 2063 2859 
L 1178 2859 
L 1178 906 
Q 1178 416 1513 416 
Q 1738 416 1941 588 
L 2125 241 
z
" transform="scale(0.015625)"/>
       <path id="IPAexGothic-69" d="M 1178 3928 
L 550 3928 
L 550 4569 
L 1178 4569 
L 1178 3928 
z
M 1138 63 
L 588 63 
L 588 3250 
L 1138 3250 
L 1138 63 
z
" transform="scale(0.015625)"/>
       <path id="IPAexGothic-6e" d="M 3328 63 
L 2778 63 
L 2778 2041 
Q 2778 2853 2106 2853 
Q 1428 2853 1113 2041 
L 1113 63 
L 563 63 
L 563 3250 
L 1075 3250 
L 1075 2675 
Q 1525 3316 2222 3316 
Q 3328 3316 3328 2072 
L 3328 63 
z
" transform="scale(0.015625)"/>
      </defs>
      <use xlink:href="#IPAexGothic-6f"/>
      <use xlink:href="#IPAexGothic-62" transform="translate(60.400391 0)"/>
      <use xlink:href="#IPAexGothic-73" transform="translate(122.802734 0)"/>
      <use xlink:href="#IPAexGothic-65" transform="translate(168.994141 0)"/>
      <use xlink:href="#IPAexGothic-72" transform="translate(225.878906 0)"/>
      <use xlink:href="#IPAexGothic-76" transform="translate(262.890625 0)"/>
      <use xlink:href="#IPAexGothic-61" transform="translate(311.474609 0)"/>
      <use xlink:href="#IPAexGothic-74" transform="translate(366.455078 0)"/>
      <use xlink:href="#IPAexGothic-69" transform="translate(401.074219 0)"/>
      <use xlink:href="#IPAexGothic-6f" transform="translate(428.076172 0)"/>
      <use xlink:href="#IPAexGothic-6e" transform="translate(488.476562 0)"/>
      <use xlink:href="#IPAexGothic-73" transform="translate(548.876953 0)"/>
     </g>
    </g>
    <g id="line2d_12">
     <path d="M 64.699063 51.073125 
L 76.699063 51.073125 
L 88.699063 51.073125 
" style="fill: none; stroke: #264653; stroke-width: 1.2; stroke-linecap: square"/>
    </g>
    <g id="text_14">
     <!-- linear regression (OLS) -->
     <g transform="translate(98.299063 55.273125) scale(0.12 -0.12)">
      <defs>
       <path id="IPAexGothic-6c" d="M 1131 63 
L 581 63 
L 581 4794 
L 1131 4794 
L 1131 63 
z
" transform="scale(0.015625)"/>
       <path id="IPAexGothic-20" transform="scale(0.015625)"/>
       <path id="IPAexGothic-67" d="M 1331 1150 
Q 1006 1122 1006 900 
Q 1006 613 1763 575 
L 2131 556 
Q 3303 497 3303 -294 
Q 3303 -700 2925 -959 
Q 2519 -1253 1794 -1253 
Q 1138 -1253 738 -1028 
Q 353 -809 353 -428 
Q 353 84 1075 247 
L 1075 269 
Q 506 413 506 778 
Q 506 1116 994 1297 
Q 456 1575 456 2181 
Q 456 2650 769 2963 
Q 1128 3322 1738 3322 
Q 2125 3322 2422 3153 
Q 2650 3453 3259 3463 
L 3259 3013 
Q 2838 3003 2703 2938 
Q 3034 2613 3034 2169 
Q 3034 1728 2734 1425 
Q 2400 1094 1813 1094 
Q 1563 1094 1331 1150 
z
M 1734 2919 
Q 1409 2919 1197 2706 
Q 988 2497 988 2181 
Q 988 1872 1184 1684 
Q 1397 1472 1756 1472 
Q 2094 1472 2297 1678 
Q 2503 1881 2503 2203 
Q 2503 2497 2297 2700 
Q 2081 2919 1734 2919 
z
M 1753 159 
Q 903 159 903 -366 
Q 903 -875 1800 -875 
Q 2378 -875 2638 -606 
Q 2772 -481 2772 -313 
Q 2772 159 1753 159 
z
" transform="scale(0.015625)"/>
       <path id="IPAexGothic-28" d="M 1928 -1016 
L 1653 -1166 
Q 488 69 488 1875 
Q 488 3678 1653 4909 
L 1928 4763 
Q 1006 3522 1006 1881 
Q 1006 203 1928 -1016 
z
" transform="scale(0.015625)"/>
       <path id="IPAexGothic-4f" d="M 2541 4725 
Q 3456 4725 4044 4138 
Q 4709 3472 4709 2331 
Q 4709 1219 4031 550 
Q 3450 -31 2541 -31 
Q 1638 -31 1056 550 
Q 378 1219 378 2356 
Q 378 3469 1044 4138 
Q 1631 4725 2541 4725 
z
M 2541 4266 
Q 1953 4266 1531 3844 
Q 994 3303 994 2350 
Q 994 1391 1531 863 
Q 1947 447 2541 447 
Q 3131 447 3556 863 
Q 4094 1400 4094 2375 
Q 4094 3297 3550 3844 
Q 3138 4266 2541 4266 
z
" transform="scale(0.015625)"/>
       <path id="IPAexGothic-4c" d="M 3347 63 
L 609 63 
L 609 4634 
L 1178 4634 
L 1178 563 
L 3347 563 
L 3347 63 
z
" transform="scale(0.015625)"/>
       <path id="IPAexGothic-53" d="M 2919 3641 
Q 2563 4259 1853 4259 
Q 1453 4259 1213 4009 
Q 1028 3803 1028 3534 
Q 1028 3238 1266 3047 
Q 1444 2913 1984 2688 
L 2200 2597 
Q 2925 2306 3191 1953 
Q 3422 1644 3422 1259 
Q 3422 644 2969 288 
Q 2559 -31 1931 -31 
Q 881 -31 313 766 
L 753 1100 
Q 1203 459 1938 459 
Q 2288 459 2534 625 
Q 2841 847 2841 1216 
Q 2841 1503 2616 1728 
Q 2375 1959 1728 2206 
L 1541 2278 
Q 453 2694 453 3481 
Q 453 4006 806 4347 
Q 1203 4725 1863 4725 
Q 2841 4725 3359 3956 
L 2919 3641 
z
" transform="scale(0.015625)"/>
       <path id="IPAexGothic-29" d="M 466 4909 
Q 1638 3672 1638 1875 
Q 1638 75 466 -1166 
L 191 -1016 
Q 1119 216 1119 1881 
Q 1119 3509 191 4763 
L 466 4909 
z
" transform="scale(0.015625)"/>
      </defs>
      <use xlink:href="#IPAexGothic-6c"/>
      <use xlink:href="#IPAexGothic-69" transform="translate(27.001953 0)"/>
      <use xlink:href="#IPAexGothic-6e" transform="translate(54.003906 0)"/>
      <use xlink:href="#IPAexGothic-65" transform="translate(114.404297 0)"/>
      <use xlink:href="#IPAexGothic-61" transform="translate(171.289062 0)"/>
      <use xlink:href="#IPAexGothic-72" transform="translate(226.269531 0)"/>
      <use xlink:href="#IPAexGothic-20" transform="translate(263.28125 0)"/>
      <use xlink:href="#IPAexGothic-72" transform="translate(290.283203 0)"/>
      <use xlink:href="#IPAexGothic-65" transform="translate(327.294922 0)"/>
      <use xlink:href="#IPAexGothic-67" transform="translate(384.179688 0)"/>
      <use xlink:href="#IPAexGothic-72" transform="translate(439.697266 0)"/>
      <use xlink:href="#IPAexGothic-65" transform="translate(476.708984 0)"/>
      <use xlink:href="#IPAexGothic-73" transform="translate(533.59375 0)"/>
      <use xlink:href="#IPAexGothic-73" transform="translate(579.785156 0)"/>
      <use xlink:href="#IPAexGothic-69" transform="translate(625.976562 0)"/>
      <use xlink:href="#IPAexGothic-6f" transform="translate(652.978516 0)"/>
      <use xlink:href="#IPAexGothic-6e" transform="translate(713.378906 0)"/>
      <use xlink:href="#IPAexGothic-20" transform="translate(773.779297 0)"/>
      <use xlink:href="#IPAexGothic-28" transform="translate(800.78125 0)"/>
      <use xlink:href="#IPAexGothic-4f" transform="translate(834.082031 0)"/>
      <use xlink:href="#IPAexGothic-4c" transform="translate(913.769531 0)"/>
      <use xlink:href="#IPAexGothic-53" transform="translate(966.357422 0)"/>
      <use xlink:href="#IPAexGothic-29" transform="translate(1024.853516 0)"/>
     </g>
    </g>
   </g>
  </g>
 </g>
 <defs>
  <clipPath id="p3f4aa22e93">
   <rect x="47.899063" y="7.2" width="558" height="277.2"/>
  </clipPath>
 </defs>
</svg>
