<?xml version="1.0" encoding="utf-8" standalone="no"?>
<!DOCTYPE svg PUBLIC "-//W3C//DTD SVG 1.1//EN"
  "http://www.w3.org/Graphics/SVG/1.1/DTD/svg11.dtd">
<svg xmlns:xlink="http://www.w3.org/1999/xlink" width="611.3375pt" height="327.870772pt" viewBox="0 0 611.3375 327.870772" xmlns="http://www.w3.org/2000/svg" version="1.1">
 <metadata>
  <rdf:RDF xmlns:dc="http://purl.org/dc/elements/1.1/" xmlns:cc="http://creativecommons.org/ns#" xmlns:rdf="http://www.w3.org/1999/02/22-rdf-syntax-ns#">
   <cc:Work>
    <dc:type rdf:resource="http://purl.org/dc/dcmitype/StillImage"/>
    <dc:date>2025-10-30T20:25:30.391159</dc:date>
    <dc:format>image/svg+xml</dc:format>
    <dc:creator>
     <cc:Agent>
      <dc:title>Matplotlib v3.10.7, https://matplotlib.org/</dc:title>
     </cc:Agent>
    </dc:creator>
   </cc:Work>
  </rdf:RDF>
 </metadata>
 <defs>
  <style type="text/css">*{stroke-linejoin: round; stroke-linecap: butt}</style>
 </defs>
 <g id="figure_1">
  <g id="patch_1">
   <path d="M 0 327.870772 
L 611.3375 327.870772 
L 611.3375 0 
L 0 0 
z
" style="fill: #ffffff"/>
  </g>
  <g id="axes_1">
   <g id="patch_2">
    <path d="M 46.1375 287.748897 
L 604.1375 287.748897 
L 604.1375 10.548897 
L 46.1375 10.548897 
z
" style="fill: #ffffff"/>
   </g>
   <g id="PathCollection_1">
    <defs>
     <path id="m440ac57da4" d="M -4 4 
L 4 -4 
M -4 -4 
L 4 4 
" style="stroke: #ffa500; stroke-width: 1.2"/>
    </defs>
    <g clip-path="url(#p3ec8145031)">
     <use xlink:href="#m440ac57da4" x="71.501136" y="232.256664" style="fill: #ffa500; stroke: #ffa500; stroke-width: 1.2"/>
     <use xlink:href="#m440ac57da4" x="76.625103" y="275.148897" style="fill: #ffa500; stroke: #ffa500; stroke-width: 1.2"/>
     <use xlink:href="#m440ac57da4" x="81.74907" y="264.778751" style="fill: #ffa500; stroke: #ffa500; stroke-width: 1.2"/>
     <use xlink:href="#m440ac57da4" x="86.873037" y="240.112771" style="fill: #ffa500; stroke: #ffa500; stroke-width: 1.2"/>
     <use xlink:href="#m440ac57da4" x="91.997004" y="232.342244" style="fill: #ffa500; stroke: #ffa500; stroke-width: 1.2"/>
     <use xlink:href="#m440ac57da4" x="97.120971" y="252.805216" style="fill: #ffa500; stroke: #ffa500; stroke-width: 1.2"/>
     <use xlink:href="#m440ac57da4" x="102.244938" y="236.122992" style="fill: #ffa500; stroke: #ffa500; stroke-width: 1.2"/>
     <use xlink:href="#m440ac57da4" x="107.368905" y="269.857392" style="fill: #ffa500; stroke: #ffa500; stroke-width: 1.2"/>
     <use xlink:href="#m440ac57da4" x="112.492872" y="237.544986" style="fill: #ffa500; stroke: #ffa500; stroke-width: 1.2"/>
     <use xlink:href="#m440ac57da4" x="117.616839" y="208.381649" style="fill: #ffa500; stroke: #ffa500; stroke-width: 1.2"/>
     <use xlink:href="#m440ac57da4" x="122.740806" y="218.499885" style="fill: #ffa500; stroke: #ffa500; stroke-width: 1.2"/>
     <use xlink:href="#m440ac57da4" x="127.864773" y="262.161742" style="fill: #ffa500; stroke: #ffa500; stroke-width: 1.2"/>
     <use xlink:href="#m440ac57da4" x="132.98874" y="234.444719" style="fill: #ffa500; stroke: #ffa500; stroke-width: 1.2"/>
     <use xlink:href="#m440ac57da4" x="138.112707" y="247.13182" style="fill: #ffa500; stroke: #ffa500; stroke-width: 1.2"/>
     <use xlink:href="#m440ac57da4" x="143.236674" y="247.436913" style="fill: #ffa500; stroke: #ffa500; stroke-width: 1.2"/>
     <use xlink:href="#m440ac57da4" x="148.36064" y="223.160934" style="fill: #ffa500; stroke: #ffa500; stroke-width: 1.2"/>
     <use xlink:href="#m440ac57da4" x="153.484607" y="231.54739" style="fill: #ffa500; stroke: #ffa500; stroke-width: 1.2"/>
     <use xlink:href="#m440ac57da4" x="158.608574" y="246.232811" style="fill: #ffa500; stroke: #ffa500; stroke-width: 1.2"/>
     <use xlink:href="#m440ac57da4" x="163.732541" y="252.988322" style="fill: #ffa500; stroke: #ffa500; stroke-width: 1.2"/>
     <use xlink:href="#m440ac57da4" x="168.856508" y="238.098806" style="fill: #ffa500; stroke: #ffa500; stroke-width: 1.2"/>
     <use xlink:href="#m440ac57da4" x="173.980475" y="186.516858" style="fill: #ffa500; stroke: #ffa500; stroke-width: 1.2"/>
     <use xlink:href="#m440ac57da4" x="179.104442" y="193.455246" style="fill: #ffa500; stroke: #ffa500; stroke-width: 1.2"/>
     <use xlink:href="#m440ac57da4" x="184.228409" y="172.86168" style="fill: #ffa500; stroke: #ffa500; stroke-width: 1.2"/>
     <use xlink:href="#m440ac57da4" x="189.352376" y="242.730804" style="fill: #ffa500; stroke: #ffa500; stroke-width: 1.2"/>
     <use xlink:href="#m440ac57da4" x="194.476343" y="210.692779" style="fill: #ffa500; stroke: #ffa500; stroke-width: 1.2"/>
     <use xlink:href="#m440ac57da4" x="199.60031" y="214.128814" style="fill: #ffa500; stroke: #ffa500; stroke-width: 1.2"/>
     <use xlink:href="#m440ac57da4" x="204.724277" y="204.335059" style="fill: #ffa500; stroke: #ffa500; stroke-width: 1.2"/>
     <use xlink:href="#m440ac57da4" x="209.848244" y="201.144092" style="fill: #ffa500; stroke: #ffa500; stroke-width: 1.2"/>
     <use xlink:href="#m440ac57da4" x="214.972211" y="207.58849" style="fill: #ffa500; stroke: #ffa500; stroke-width: 1.2"/>
     <use xlink:href="#m440ac57da4" x="220.096178" y="183.910499" style="fill: #ffa500; stroke: #ffa500; stroke-width: 1.2"/>
     <use xlink:href="#m440ac57da4" x="225.220145" y="232.224006" style="fill: #ffa500; stroke: #ffa500; stroke-width: 1.2"/>
     <use xlink:href="#m440ac57da4" x="230.344112" y="156.064929" style="fill: #ffa500; stroke: #ffa500; stroke-width: 1.2"/>
     <use xlink:href="#m440ac57da4" x="235.468079" y="199.067666" style="fill: #ffa500; stroke: #ffa500; stroke-width: 1.2"/>
     <use xlink:href="#m440ac57da4" x="240.592045" y="224.610999" style="fill: #ffa500; stroke: #ffa500; stroke-width: 1.2"/>
     <use xlink:href="#m440ac57da4" x="245.716012" y="197.652427" style="fill: #ffa500; stroke: #ffa500; stroke-width: 1.2"/>
     <use xlink:href="#m440ac57da4" x="250.839979" y="175.355698" style="fill: #ffa500; stroke: #ffa500; stroke-width: 1.2"/>
     <use xlink:href="#m440ac57da4" x="255.963946" y="176.795553" style="fill: #ffa500; stroke: #ffa500; stroke-width: 1.2"/>
     <use xlink:href="#m440ac57da4" x="261.087913" y="194.786706" style="fill: #ffa500; stroke: #ffa500; stroke-width: 1.2"/>
     <use xlink:href="#m440ac57da4" x="266.21188" y="170.00573" style="fill: #ffa500; stroke: #ffa500; stroke-width: 1.2"/>
     <use xlink:href="#m440ac57da4" x="271.335847" y="196.441838" style="fill: #ffa500; stroke: #ffa500; stroke-width: 1.2"/>
     <use xlink:href="#m440ac57da4" x="276.459814" y="140.823801" style="fill: #ffa500; stroke: #ffa500; stroke-width: 1.2"/>
     <use xlink:href="#m440ac57da4" x="281.583781" y="161.760269" style="fill: #ffa500; stroke: #ffa500; stroke-width: 1.2"/>
     <use xlink:href="#m440ac57da4" x="286.707748" y="172.507922" style="fill: #ffa500; stroke: #ffa500; stroke-width: 1.2"/>
     <use xlink:href="#m440ac57da4" x="291.831715" y="138.289561" style="fill: #ffa500; stroke: #ffa500; stroke-width: 1.2"/>
     <use xlink:href="#m440ac57da4" x="296.955682" y="177.501477" style="fill: #ffa500; stroke: #ffa500; stroke-width: 1.2"/>
     <use xlink:href="#m440ac57da4" x="302.079649" y="205.507151" style="fill: #ffa500; stroke: #ffa500; stroke-width: 1.2"/>
     <use xlink:href="#m440ac57da4" x="307.203616" y="157.1166" style="fill: #ffa500; stroke: #ffa500; stroke-width: 1.2"/>
     <use xlink:href="#m440ac57da4" x="312.327583" y="213.059531" style="fill: #ffa500; stroke: #ffa500; stroke-width: 1.2"/>
     <use xlink:href="#m440ac57da4" x="317.45155" y="167.677408" style="fill: #ffa500; stroke: #ffa500; stroke-width: 1.2"/>
     <use xlink:href="#m440ac57da4" x="322.575517" y="177.383004" style="fill: #ffa500; stroke: #ffa500; stroke-width: 1.2"/>
     <use xlink:href="#m440ac57da4" x="327.699483" y="207.323981" style="fill: #ffa500; stroke: #ffa500; stroke-width: 1.2"/>
     <use xlink:href="#m440ac57da4" x="332.82345" y="136.248303" style="fill: #ffa500; stroke: #ffa500; stroke-width: 1.2"/>
     <use xlink:href="#m440ac57da4" x="337.947417" y="150.497589" style="fill: #ffa500; stroke: #ffa500; stroke-width: 1.2"/>
     <use xlink:href="#m440ac57da4" x="343.071384" y="134.980833" style="fill: #ffa500; stroke: #ffa500; stroke-width: 1.2"/>
     <use xlink:href="#m440ac57da4" x="348.195351" y="154.91267" style="fill: #ffa500; stroke: #ffa500; stroke-width: 1.2"/>
     <use xlink:href="#m440ac57da4" x="353.319318" y="145.319983" style="fill: #ffa500; stroke: #ffa500; stroke-width: 1.2"/>
     <use xlink:href="#m440ac57da4" x="358.443285" y="196.437902" style="fill: #ffa500; stroke: #ffa500; stroke-width: 1.2"/>
     <use xlink:href="#m440ac57da4" x="363.567252" y="181.456734" style="fill: #ffa500; stroke: #ffa500; stroke-width: 1.2"/>
     <use xlink:href="#m440ac57da4" x="368.691219" y="176.015025" style="fill: #ffa500; stroke: #ffa500; stroke-width: 1.2"/>
     <use xlink:href="#m440ac57da4" x="373.815186" y="108.096374" style="fill: #ffa500; stroke: #ffa500; stroke-width: 1.2"/>
     <use xlink:href="#m440ac57da4" x="378.939153" y="129.653362" style="fill: #ffa500; stroke: #ffa500; stroke-width: 1.2"/>
     <use xlink:href="#m440ac57da4" x="384.06312" y="144.033393" style="fill: #ffa500; stroke: #ffa500; stroke-width: 1.2"/>
     <use xlink:href="#m440ac57da4" x="389.187087" y="128.847866" style="fill: #ffa500; stroke: #ffa500; stroke-width: 1.2"/>
     <use xlink:href="#m440ac57da4" x="394.311054" y="152.553643" style="fill: #ffa500; stroke: #ffa500; stroke-width: 1.2"/>
     <use xlink:href="#m440ac57da4" x="399.435021" y="125.772793" style="fill: #ffa500; stroke: #ffa500; stroke-width: 1.2"/>
     <use xlink:href="#m440ac57da4" x="404.558988" y="120.814265" style="fill: #ffa500; stroke: #ffa500; stroke-width: 1.2"/>
     <use xlink:href="#m440ac57da4" x="409.682955" y="129.772142" style="fill: #ffa500; stroke: #ffa500; stroke-width: 1.2"/>
     <use xlink:href="#m440ac57da4" x="414.806921" y="144.015712" style="fill: #ffa500; stroke: #ffa500; stroke-width: 1.2"/>
     <use xlink:href="#m440ac57da4" x="419.930888" y="83.125008" style="fill: #ffa500; stroke: #ffa500; stroke-width: 1.2"/>
     <use xlink:href="#m440ac57da4" x="425.054855" y="119.773439" style="fill: #ffa500; stroke: #ffa500; stroke-width: 1.2"/>
     <use xlink:href="#m440ac57da4" x="430.178822" y="105.890181" style="fill: #ffa500; stroke: #ffa500; stroke-width: 1.2"/>
     <use xlink:href="#m440ac57da4" x="435.302789" y="136.224591" style="fill: #ffa500; stroke: #ffa500; stroke-width: 1.2"/>
     <use xlink:href="#m440ac57da4" x="440.426756" y="115.358184" style="fill: #ffa500; stroke: #ffa500; stroke-width: 1.2"/>
     <use xlink:href="#m440ac57da4" x="445.550723" y="85.271183" style="fill: #ffa500; stroke: #ffa500; stroke-width: 1.2"/>
     <use xlink:href="#m440ac57da4" x="450.67469" y="102.782119" style="fill: #ffa500; stroke: #ffa500; stroke-width: 1.2"/>
     <use xlink:href="#m440ac57da4" x="455.798657" y="99.138082" style="fill: #ffa500; stroke: #ffa500; stroke-width: 1.2"/>
     <use xlink:href="#m440ac57da4" x="460.922624" y="83.894641" style="fill: #ffa500; stroke: #ffa500; stroke-width: 1.2"/>
     <use xlink:href="#m440ac57da4" x="466.046591" y="113.339922" style="fill: #ffa500; stroke: #ffa500; stroke-width: 1.2"/>
     <use xlink:href="#m440ac57da4" x="471.170558" y="78.869159" style="fill: #ffa500; stroke: #ffa500; stroke-width: 1.2"/>
     <use xlink:href="#m440ac57da4" x="476.294525" y="125.630702" style="fill: #ffa500; stroke: #ffa500; stroke-width: 1.2"/>
     <use xlink:href="#m440ac57da4" x="481.418492" y="110.207206" style="fill: #ffa500; stroke: #ffa500; stroke-width: 1.2"/>
     <use xlink:href="#m440ac57da4" x="486.542459" y="80.400267" style="fill: #ffa500; stroke: #ffa500; stroke-width: 1.2"/>
     <use xlink:href="#m440ac57da4" x="491.666426" y="64.307429" style="fill: #ffa500; stroke: #ffa500; stroke-width: 1.2"/>
     <use xlink:href="#m440ac57da4" x="496.790393" y="57.893381" style="fill: #ffa500; stroke: #ffa500; stroke-width: 1.2"/>
     <use xlink:href="#m440ac57da4" x="501.91436" y="90.082157" style="fill: #ffa500; stroke: #ffa500; stroke-width: 1.2"/>
     <use xlink:href="#m440ac57da4" x="507.038326" y="74.437958" style="fill: #ffa500; stroke: #ffa500; stroke-width: 1.2"/>
     <use xlink:href="#m440ac57da4" x="512.162293" y="75.129617" style="fill: #ffa500; stroke: #ffa500; stroke-width: 1.2"/>
     <use xlink:href="#m440ac57da4" x="517.28626" y="76.368778" style="fill: #ffa500; stroke: #ffa500; stroke-width: 1.2"/>
     <use xlink:href="#m440ac57da4" x="522.410227" y="45.411879" style="fill: #ffa500; stroke: #ffa500; stroke-width: 1.2"/>
     <use xlink:href="#m440ac57da4" x="527.534194" y="110.7254" style="fill: #ffa500; stroke: #ffa500; stroke-width: 1.2"/>
     <use xlink:href="#m440ac57da4" x="532.658161" y="38.260356" style="fill: #ffa500; stroke: #ffa500; stroke-width: 1.2"/>
     <use xlink:href="#m440ac57da4" x="537.782128" y="72.677871" style="fill: #ffa500; stroke: #ffa500; stroke-width: 1.2"/>
     <use xlink:href="#m440ac57da4" x="542.906095" y="54.65127" style="fill: #ffa500; stroke: #ffa500; stroke-width: 1.2"/>
     <use xlink:href="#m440ac57da4" x="548.030062" y="70.812497" style="fill: #ffa500; stroke: #ffa500; stroke-width: 1.2"/>
     <use xlink:href="#m440ac57da4" x="553.154029" y="59.277914" style="fill: #ffa500; stroke: #ffa500; stroke-width: 1.2"/>
     <use xlink:href="#m440ac57da4" x="558.277996" y="34.306985" style="fill: #ffa500; stroke: #ffa500; stroke-width: 1.2"/>
     <use xlink:href="#m440ac57da4" x="563.401963" y="56.062182" style="fill: #ffa500; stroke: #ffa500; stroke-width: 1.2"/>
     <use xlink:href="#m440ac57da4" x="568.52593" y="23.148897" style="fill: #ffa500; stroke: #ffa500; stroke-width: 1.2"/>
     <use xlink:href="#m440ac57da4" x="573.649897" y="52.540847" style="fill: #ffa500; stroke: #ffa500; stroke-width: 1.2"/>
     <use xlink:href="#m440ac57da4" x="578.773864" y="114.123722" style="fill: #ffa500; stroke: #ffa500; stroke-width: 1.2"/>
    </g>
   </g>
   <g id="matplotlib.axis_1">
    <g id="xtick_1">
     <g id="line2d_1">
      <defs>
       <path id="m35397615c5" d="M 0 0 
L 0 3.5 
" style="stroke: #000000; stroke-width: 0.8"/>
      </defs>
      <g>
       <use xlink:href="#m35397615c5" x="122.228409" y="287.748897" style="stroke: #000000; stroke-width: 0.8"/>
      </g>
     </g>
     <g id="text_1">
      <!-- -4 -->
      <g transform="translate(117.228409 302.444209) scale(0.1 -0.1)">
       <defs>
        <path id="MS-Gothic-2d" d="M 3000 2500 
L 3000 2100 
L 150 2100 
L 150 2500 
L 3000 2500 
z
" transform="scale(0.015625)"/>
        <path id="MS-Gothic-34" d="M 1875 50 
L 1875 625 
L 1875 1200 
L 200 1200 
L 200 1675 
L 1875 4925 
L 2450 4925 
L 2450 1675 
L 2975 1675 
L 2975 1200 
L 2450 1200 
L 2450 50 
L 1875 50 
z
M 1875 1675 
L 1875 3875 
L 750 1675 
L 1875 1675 
z
" transform="scale(0.015625)"/>
       </defs>
       <use xlink:href="#MS-Gothic-2d"/>
       <use xlink:href="#MS-Gothic-34" transform="translate(50 0)"/>
      </g>
     </g>
    </g>
    <g id="xtick_2">
     <g id="line2d_2">
      <g>
       <use xlink:href="#m35397615c5" x="223.682955" y="287.748897" style="stroke: #000000; stroke-width: 0.8"/>
      </g>
     </g>
     <g id="text_2">
      <!-- -2 -->
      <g transform="translate(218.682955 302.444209) scale(0.1 -0.1)">
       <defs>
        <path id="MS-Gothic-32" d="M 2850 525 
L 2850 50 
L 300 50 
L 300 450 
Q 875 1525 1725 2500 
Q 2200 3050 2200 3650 
Q 2200 4075 1975 4300 
Q 1825 4450 1575 4450 
Q 1375 4450 1175 4250 
Q 950 4025 950 3325 
L 400 3325 
Q 425 4225 825 4625 
Q 1125 4925 1625 4925 
Q 2100 4925 2425 4600 
Q 2775 4250 2775 3625 
Q 2775 2900 2100 2125 
Q 1375 1300 900 525 
L 2850 525 
z
" transform="scale(0.015625)"/>
       </defs>
       <use xlink:href="#MS-Gothic-2d"/>
       <use xlink:href="#MS-Gothic-32" transform="translate(50 0)"/>
      </g>
     </g>
    </g>
    <g id="xtick_3">
     <g id="line2d_3">
      <g>
       <use xlink:href="#m35397615c5" x="325.1375" y="287.748897" style="stroke: #000000; stroke-width: 0.8"/>
      </g>
     </g>
     <g id="text_3">
      <!-- 0 -->
      <g transform="translate(322.6375 302.444209) scale(0.1 -0.1)">
       <defs>
        <path id="MS-Gothic-30" d="M 200 2500 
Q 200 3975 800 4575 
Q 1150 4925 1575 4925 
Q 2000 4925 2350 4575 
Q 2950 3975 2950 2500 
Q 2950 1000 2350 400 
Q 2000 50 1575 50 
Q 1150 50 800 400 
Q 200 1000 200 2500 
z
M 2375 2500 
Q 2375 3825 1900 4300 
Q 1750 4450 1575 4450 
Q 1400 4450 1250 4300 
Q 775 3800 775 2500 
Q 775 1150 1250 675 
Q 1400 525 1575 525 
Q 1750 525 1900 675 
Q 2375 1150 2375 2500 
z
" transform="scale(0.015625)"/>
       </defs>
       <use xlink:href="#MS-Gothic-30"/>
      </g>
     </g>
    </g>
    <g id="xtick_4">
     <g id="line2d_4">
      <g>
       <use xlink:href="#m35397615c5" x="426.592045" y="287.748897" style="stroke: #000000; stroke-width: 0.8"/>
      </g>
     </g>
     <g id="text_4">
      <!-- 2 -->
      <g transform="translate(424.092045 302.444209) scale(0.1 -0.1)">
       <use xlink:href="#MS-Gothic-32"/>
      </g>
     </g>
    </g>
    <g id="xtick_5">
     <g id="line2d_5">
      <g>
       <use xlink:href="#m35397615c5" x="528.046591" y="287.748897" style="stroke: #000000; stroke-width: 0.8"/>
      </g>
     </g>
     <g id="text_5">
      <!-- 4 -->
      <g transform="translate(525.546591 302.444209) scale(0.1 -0.1)">
       <use xlink:href="#MS-Gothic-34"/>
      </g>
     </g>
    </g>
    <g id="text_6">
     <!-- $x$ -->
     <g transform="translate(320.8175 318.814522) scale(0.144 -0.144)">
      <defs>
       <path id="DejaVuSans-Oblique-78" d="M 3841 3500 
L 2234 1784 
L 3219 0 
L 2559 0 
L 1819 1388 
L 531 0 
L -166 0 
L 1556 1844 
L 641 3500 
L 1300 3500 
L 1972 2234 
L 3144 3500 
L 3841 3500 
z
" transform="scale(0.015625)"/>
      </defs>
      <use xlink:href="#DejaVuSans-Oblique-78" transform="translate(0 0.3125)"/>
     </g>
    </g>
   </g>
   <g id="matplotlib.axis_2">
    <g id="ytick_1">
     <g id="line2d_6">
      <defs>
       <path id="m35ee7c11b3" d="M 0 0 
L -3.5 0 
" style="stroke: #000000; stroke-width: 0.8"/>
      </defs>
      <g>
       <use xlink:href="#m35ee7c11b3" x="46.1375" y="264.742591" style="stroke: #000000; stroke-width: 0.8"/>
      </g>
     </g>
     <g id="text_7">
      <!-- -10 -->
      <g transform="translate(24.1375 268.590247) scale(0.1 -0.1)">
       <defs>
        <path id="MS-Gothic-31" d="M 1375 50 
L 1375 2000 
L 1375 3925 
L 625 3925 
L 625 4225 
Q 1500 4225 1650 4925 
L 1950 4925 
L 1950 50 
L 1375 50 
z
" transform="scale(0.015625)"/>
       </defs>
       <use xlink:href="#MS-Gothic-2d"/>
       <use xlink:href="#MS-Gothic-31" transform="translate(50 0)"/>
       <use xlink:href="#MS-Gothic-30" transform="translate(100 0)"/>
      </g>
     </g>
    </g>
    <g id="ytick_2">
     <g id="line2d_7">
      <g>
       <use xlink:href="#m35ee7c11b3" x="46.1375" y="214.003604" style="stroke: #000000; stroke-width: 0.8"/>
      </g>
     </g>
     <g id="text_8">
      <!-- -5 -->
      <g transform="translate(29.1375 217.85126) scale(0.1 -0.1)">
       <defs>
        <path id="MS-Gothic-35" d="M 850 1425 
Q 850 925 1100 675 
Q 1250 525 1525 525 
Q 1750 525 1950 725 
Q 2250 1025 2250 1725 
Q 2250 2375 2000 2625 
Q 1850 2775 1650 2775 
Q 1200 2775 925 2250 
L 425 2250 
L 575 4925 
L 2725 4925 
L 2725 4450 
L 1050 4450 
L 950 2825 
Q 1275 3200 1775 3200 
Q 2150 3200 2425 2925 
Q 2825 2525 2825 1725 
Q 2825 875 2350 400 
Q 2000 50 1500 50 
Q 975 50 675 350 
Q 300 725 275 1425 
L 850 1425 
z
" transform="scale(0.015625)"/>
       </defs>
       <use xlink:href="#MS-Gothic-2d"/>
       <use xlink:href="#MS-Gothic-35" transform="translate(50 0)"/>
      </g>
     </g>
    </g>
    <g id="ytick_3">
     <g id="line2d_8">
      <g>
       <use xlink:href="#m35ee7c11b3" x="46.1375" y="163.264617" style="stroke: #000000; stroke-width: 0.8"/>
      </g>
     </g>
     <g id="text_9">
      <!-- 0 -->
      <g transform="translate(34.1375 167.112273) scale(0.1 -0.1)">
       <use xlink:href="#MS-Gothic-30"/>
      </g>
     </g>
    </g>
    <g id="ytick_4">
     <g id="line2d_9">
      <g>
       <use xlink:href="#m35ee7c11b3" x="46.1375" y="112.52563" style="stroke: #000000; stroke-width: 0.8"/>
      </g>
     </g>
     <g id="text_10">
      <!-- 5 -->
      <g transform="translate(34.1375 116.373286) scale(0.1 -0.1)">
       <use xlink:href="#MS-Gothic-35"/>
      </g>
     </g>
    </g>
    <g id="ytick_5">
     <g id="line2d_10">
      <g>
       <use xlink:href="#m35ee7c11b3" x="46.1375" y="61.786643" style="stroke: #000000; stroke-width: 0.8"/>
      </g>
     </g>
     <g id="text_11">
      <!-- 10 -->
      <g transform="translate(29.1375 65.634299) scale(0.1 -0.1)">
       <use xlink:href="#MS-Gothic-31"/>
       <use xlink:href="#MS-Gothic-30" transform="translate(50 0)"/>
      </g>
     </g>
    </g>
    <g id="ytick_6">
     <g id="line2d_11">
      <g>
       <use xlink:href="#m35ee7c11b3" x="46.1375" y="11.047656" style="stroke: #000000; stroke-width: 0.8"/>
      </g>
     </g>
     <g id="text_12">
      <!-- 15 -->
      <g transform="translate(29.1375 14.895312) scale(0.1 -0.1)">
       <use xlink:href="#MS-Gothic-31"/>
       <use xlink:href="#MS-Gothic-35" transform="translate(50 0)"/>
      </g>
     </g>
    </g>
    <g id="text_13">
     <!-- $y$ -->
     <g transform="translate(17.1135 153.468897) rotate(-90) scale(0.144 -0.144)">
      <defs>
       <path id="DejaVuSans-Oblique-79" d="M 1588 -325 
Q 1188 -997 936 -1164 
Q 684 -1331 294 -1331 
L -159 -1331 
L -63 -850 
L 269 -850 
Q 509 -850 678 -719 
Q 847 -588 1056 -206 
L 1234 128 
L 459 3500 
L 1069 3500 
L 1650 819 
L 3256 3500 
L 3859 3500 
L 1588 -325 
z
" transform="scale(0.015625)"/>
      </defs>
      <use xlink:href="#DejaVuSans-Oblique-79" transform="translate(0 0.3125)"/>
     </g>
    </g>
   </g>
   <g id="line2d_12">
    <path d="M 71.501136 262.275904 
L 76.625103 260.165265 
L 81.74907 258.054626 
L 86.873037 255.943987 
L 91.997004 253.833348 
L 97.120971 251.722709 
L 102.244938 249.61207 
L 107.368905 247.501431 
L 112.492872 245.390792 
L 117.616839 243.280154 
L 122.740806 241.169515 
L 127.864773 239.058876 
L 132.98874 236.948237 
L 138.112707 234.837598 
L 143.236674 232.726959 
L 148.36064 230.61632 
L 153.484607 228.505681 
L 158.608574 226.395043 
L 163.732541 224.284404 
L 168.856508 222.173765 
L 173.980475 220.063126 
L 179.104442 217.952487 
L 184.228409 215.841848 
L 189.352376 213.731209 
L 194.476343 211.62057 
L 199.60031 209.509932 
L 204.724277 207.399293 
L 209.848244 205.288654 
L 214.972211 203.178015 
L 220.096178 201.067376 
L 225.220145 198.956737 
L 230.344112 196.846098 
L 235.468079 194.735459 
L 240.592045 192.62482 
L 245.716012 190.514182 
L 250.839979 188.403543 
L 255.963946 186.292904 
L 261.087913 184.182265 
L 266.21188 182.071626 
L 271.335847 179.960987 
L 276.459814 177.850348 
L 281.583781 175.739709 
L 286.707748 173.629071 
L 291.831715 171.518432 
L 296.955682 169.407793 
L 302.079649 167.297154 
L 307.203616 165.186515 
L 312.327583 163.075876 
L 317.45155 160.965237 
L 322.575517 158.854598 
L 327.699483 156.74396 
L 332.82345 154.633321 
L 337.947417 152.522682 
L 343.071384 150.412043 
L 348.195351 148.301404 
L 353.319318 146.190765 
L 358.443285 144.080126 
L 363.567252 141.969487 
L 368.691219 139.858848 
L 373.815186 137.74821 
L 378.939153 135.637571 
L 384.06312 133.526932 
L 389.187087 131.416293 
L 394.311054 129.305654 
L 399.435021 127.195015 
L 404.558988 125.084376 
L 409.682955 122.973737 
L 414.806921 120.863099 
L 419.930888 118.75246 
L 425.054855 116.641821 
L 430.178822 114.531182 
L 435.302789 112.420543 
L 440.426756 110.309904 
L 445.550723 108.199265 
L 450.67469 106.088626 
L 455.798657 103.977988 
L 460.922624 101.867349 
L 466.046591 99.75671 
L 471.170558 97.646071 
L 476.294525 95.535432 
L 481.418492 93.424793 
L 486.542459 91.314154 
L 491.666426 89.203515 
L 496.790393 87.092876 
L 501.91436 84.982238 
L 507.038326 82.871599 
L 512.162293 80.76096 
L 517.28626 78.650321 
L 522.410227 76.539682 
L 527.534194 74.429043 
L 532.658161 72.318404 
L 537.782128 70.207765 
L 542.906095 68.097127 
L 548.030062 65.986488 
L 553.154029 63.875849 
L 558.277996 61.76521 
L 563.401963 59.654571 
L 568.52593 57.543932 
L 573.649897 55.433293 
L 578.773864 53.322654 
" clip-path="url(#p3ec8145031)" style="fill: none; stroke: #264653; stroke-width: 1.2; stroke-linecap: square"/>
   </g>
   <g id="legend_1">
    <g id="patch_3">
     <path d="M 60.5375 64.933272 
L 236.9375 64.933272 
Q 239.3375 64.933272 239.3375 62.533272 
L 239.3375 24.948897 
Q 239.3375 22.548897 236.9375 22.548897 
L 60.5375 22.548897 
Q 58.1375 22.548897 58.1375 24.948897 
L 58.1375 62.533272 
Q 58.1375 64.933272 60.5375 64.933272 
z
" style="fill: #ffffff; opacity: 0.8; stroke: #cccccc; stroke-linejoin: miter"/>
    </g>
    <g id="PathCollection_2">
     <defs>
      <path id="m7f0c3542e6" d="M -8 8 
L 8 -8 
M -8 -8 
L 8 8 
" style="stroke: #ffa500; stroke-width: 1.2"/>
     </defs>
     <g>
      <use xlink:href="#m7f0c3542e6" x="74.9375" y="33.433272" style="fill: #ffa500; stroke: #ffa500; stroke-width: 1.2"/>
     </g>
    </g>
    <g id="text_14">
     <!-- observations -->
     <g transform="translate(96.5375 36.583272) scale(0.12 -0.12)">
      <defs>
       <path id="MS-Gothic-6f" d="M 650 3075 
Q 1050 3475 1600 3475 
Q 2125 3475 2525 3075 
Q 2925 2675 2925 1750 
Q 2925 850 2525 450 
Q 2125 50 1600 50 
Q 1050 50 650 450 
Q 250 850 250 1750 
Q 250 2675 650 3075 
z
M 1600 3025 
Q 1300 3025 1075 2800 
Q 800 2525 800 1750 
Q 800 1000 1075 725 
Q 1300 500 1600 500 
Q 1875 500 2100 725 
Q 2375 1000 2375 1750 
Q 2375 2525 2100 2800 
Q 1875 3025 1600 3025 
z
" transform="scale(0.015625)"/>
       <path id="MS-Gothic-62" d="M 825 2925 
Q 1225 3475 1750 3475 
Q 2150 3475 2450 3175 
Q 2850 2775 2850 1825 
Q 2850 825 2450 425 
Q 2075 50 1675 50 
Q 1200 50 825 475 
L 825 50 
L 325 50 
L 325 4925 
L 825 4925 
L 825 2925 
z
M 825 1675 
Q 825 950 1075 700 
Q 1300 475 1550 475 
Q 1850 475 2025 650 
Q 2350 975 2350 1775 
Q 2350 2550 2050 2850 
Q 1875 3025 1600 3025 
Q 1325 3025 1075 2775 
Q 825 2525 825 1675 
z
" transform="scale(0.015625)"/>
       <path id="MS-Gothic-73" d="M 2175 2450 
Q 2150 2725 2000 2875 
Q 1850 3025 1600 3025 
Q 1275 3025 1150 2900 
Q 1000 2750 1000 2575 
Q 1000 2450 1125 2325 
Q 1300 2150 1875 1950 
Q 2325 1800 2525 1600 
Q 2750 1375 2750 1000 
Q 2750 650 2500 400 
Q 2150 50 1600 50 
Q 1000 50 700 350 
Q 375 675 400 1375 
L 900 1375 
Q 900 825 1050 675 
Q 1225 500 1575 500 
Q 1925 500 2100 675 
Q 2250 825 2250 1025 
Q 2250 1175 2100 1325 
Q 1950 1475 1525 1625 
Q 900 1850 700 2050 
Q 475 2275 475 2600 
Q 475 2925 750 3200 
Q 1025 3475 1600 3475 
Q 2100 3475 2400 3175 
Q 2700 2875 2675 2450 
L 2175 2450 
z
" transform="scale(0.015625)"/>
       <path id="MS-Gothic-65" d="M 2875 1225 
Q 2800 675 2500 375 
Q 2175 50 1675 50 
Q 1125 50 800 375 
Q 325 850 325 1750 
Q 325 2675 750 3100 
Q 1125 3475 1650 3475 
Q 2075 3475 2425 3175 
Q 2875 2800 2850 1750 
L 875 1750 
Q 875 925 1175 700 
Q 1350 525 1675 525 
Q 1950 525 2125 700 
Q 2275 850 2300 1225 
L 2875 1225 
z
M 2275 2150 
Q 2300 2650 2050 2875 
Q 1825 3075 1600 3050 
Q 1350 3025 1125 2800 
Q 925 2600 875 2150 
L 2275 2150 
z
" transform="scale(0.015625)"/>
       <path id="MS-Gothic-72" d="M 1175 2750 
Q 1725 3600 2525 3475 
L 2525 2875 
Q 1600 3050 1175 1900 
L 1175 50 
L 675 50 
L 675 3475 
L 1175 3475 
L 1175 2750 
z
" transform="scale(0.015625)"/>
       <path id="MS-Gothic-76" d="M 1300 50 
L 250 3475 
L 775 3475 
L 1550 875 
L 1600 875 
L 2375 3475 
L 2900 3475 
L 1850 50 
L 1300 50 
z
" transform="scale(0.015625)"/>
       <path id="MS-Gothic-61" d="M 2200 1925 
Q 1900 1750 1500 1625 
Q 1200 1525 1025 1350 
Q 900 1225 900 1000 
Q 900 750 1025 625 
Q 1150 500 1425 500 
Q 1875 500 2200 1025 
L 2200 1925 
z
M 2200 425 
Q 1825 50 1275 50 
Q 825 50 550 325 
Q 300 575 300 950 
Q 300 1350 575 1625 
Q 825 1875 1150 1975 
Q 2000 2250 2075 2350 
Q 2200 2500 2200 2650 
Q 2200 2800 2050 2925 
Q 1925 3025 1600 3025 
Q 1350 3025 1200 2875 
Q 1000 2675 975 2350 
L 425 2350 
Q 450 2850 775 3175 
Q 1075 3475 1600 3475 
Q 2200 3475 2450 3225 
Q 2700 2975 2700 2600 
L 2700 625 
Q 2700 325 2900 50 
L 2300 50 
Q 2200 150 2200 425 
z
" transform="scale(0.015625)"/>
       <path id="MS-Gothic-74" d="M 1050 3075 
L 250 3075 
L 250 3475 
L 1050 3475 
L 1050 4575 
L 1550 4575 
L 1550 3475 
L 2675 3475 
L 2675 3075 
L 1550 3075 
L 1550 800 
Q 1550 525 1950 525 
Q 2375 525 2825 725 
L 2825 200 
Q 2200 50 1875 50 
Q 1050 50 1050 700 
L 1050 3075 
z
" transform="scale(0.015625)"/>
       <path id="MS-Gothic-69" d="M 1825 50 
L 1325 50 
L 1325 3475 
L 1825 3475 
L 1825 50 
z
M 1825 4925 
L 1825 4275 
L 1325 4275 
L 1325 4925 
L 1825 4925 
z
" transform="scale(0.015625)"/>
       <path id="MS-Gothic-6e" d="M 2325 2500 
Q 2325 2725 2175 2875 
Q 2025 3025 1775 3025 
Q 1500 3025 1225 2750 
Q 875 2400 875 1850 
L 875 50 
L 375 50 
L 375 3475 
L 875 3475 
L 875 2825 
Q 1000 3000 1175 3175 
Q 1475 3475 1925 3475 
Q 2325 3475 2575 3225 
Q 2825 2975 2825 2550 
L 2825 50 
L 2325 50 
L 2325 2500 
z
" transform="scale(0.015625)"/>
      </defs>
      <use xlink:href="#MS-Gothic-6f"/>
      <use xlink:href="#MS-Gothic-62" transform="translate(50 0)"/>
      <use xlink:href="#MS-Gothic-73" transform="translate(100 0)"/>
      <use xlink:href="#MS-Gothic-65" transform="translate(150 0)"/>
      <use xlink:href="#MS-Gothic-72" transform="translate(200 0)"/>
      <use xlink:href="#MS-Gothic-76" transform="translate(250 0)"/>
      <use xlink:href="#MS-Gothic-61" transform="translate(300 0)"/>
      <use xlink:href="#MS-Gothic-74" transform="translate(350 0)"/>
      <use xlink:href="#MS-Gothic-69" transform="translate(400 0)"/>
      <use xlink:href="#MS-Gothic-6f" transform="translate(450 0)"/>
      <use xlink:href="#MS-Gothic-6e" transform="translate(500 0)"/>
      <use xlink:href="#MS-Gothic-73" transform="translate(550 0)"/>
     </g>
    </g>
    <g id="line2d_13">
     <path d="M 62.9375 54.386397 
L 74.9375 54.386397 
L 86.9375 54.386397 
" style="fill: none; stroke: #264653; stroke-width: 1.2; stroke-linecap: square"/>
    </g>
    <g id="text_15">
     <!-- linear regression (OLS) -->
     <g transform="translate(96.5375 58.586397) scale(0.12 -0.12)">
      <defs>
       <path id="MS-Gothic-6c" d="M 1850 50 
L 1350 50 
L 1350 4925 
L 1850 4925 
L 1850 50 
z
" transform="scale(0.015625)"/>
       <path id="MS-Gothic-20" transform="scale(0.015625)"/>
       <path id="MS-Gothic-67" d="M 800 1600 
Q 500 1875 500 2350 
Q 500 2900 800 3200 
Q 1075 3475 1500 3475 
Q 1925 3475 2175 3225 
Q 2550 3525 3000 3475 
L 3000 3000 
Q 2650 3100 2325 3000 
Q 2500 2800 2500 2350 
Q 2500 1875 2200 1575 
Q 1925 1300 1500 1300 
Q 1275 1300 1075 1400 
Q 850 1275 850 1125 
Q 850 1025 950 925 
Q 1075 800 1650 800 
Q 2425 800 2675 550 
Q 2900 325 2900 50 
Q 2900 -275 2675 -500 
Q 2375 -800 1600 -800 
Q 775 -800 475 -500 
Q 275 -300 275 -75 
Q 275 250 725 525 
Q 400 700 400 1025 
Q 400 1350 800 1600 
z
M 1075 400 
Q 725 200 725 -25 
Q 725 -125 850 -250 
Q 1050 -450 1625 -450 
Q 2125 -450 2300 -275 
Q 2425 -150 2425 0 
Q 2425 125 2325 225 
Q 2200 350 1750 350 
Q 1525 350 1075 400 
z
M 1500 3050 
Q 1300 3050 1150 2900 
Q 1000 2750 1000 2350 
Q 1000 2025 1150 1875 
Q 1300 1725 1500 1725 
Q 1700 1725 1850 1875 
Q 2000 2025 2000 2350 
Q 2000 2750 1850 2900 
Q 1700 3050 1500 3050 
z
" transform="scale(0.015625)"/>
       <path id="MS-Gothic-28" d="M 2725 -575 
Q 1475 650 1475 2300 
Q 1475 3950 2725 5175 
L 3000 4900 
Q 1850 3825 1850 2300 
Q 1850 775 3000 -300 
L 2725 -575 
z
" transform="scale(0.015625)"/>
       <path id="MS-Gothic-4f" d="M 2425 4600 
Q 2975 4050 2975 2500 
Q 2975 925 2425 375 
Q 2100 50 1600 50 
Q 1075 50 750 375 
Q 200 925 200 2500 
Q 200 4050 750 4600 
Q 1075 4925 1600 4925 
Q 2100 4925 2425 4600 
z
M 1100 4225 
Q 775 3900 775 2500 
Q 775 1075 1100 750 
Q 1325 525 1600 525 
Q 1850 525 2075 750 
Q 2400 1075 2400 2500 
Q 2400 3900 2075 4225 
Q 1850 4450 1600 4450 
Q 1325 4450 1100 4225 
z
" transform="scale(0.015625)"/>
       <path id="MS-Gothic-4c" d="M 325 4925 
L 900 4925 
L 900 525 
L 2925 525 
L 2925 50 
L 325 50 
L 325 4925 
z
" transform="scale(0.015625)"/>
       <path id="MS-Gothic-53" d="M 1300 3100 
Q 1825 2650 2350 2350 
Q 2925 2025 2925 1400 
Q 2925 775 2550 400 
Q 2200 50 1575 50 
Q 975 50 650 375 
Q 250 775 250 1325 
L 250 1575 
L 825 1575 
L 825 1350 
Q 825 950 1025 750 
Q 1225 550 1525 550 
Q 1925 550 2125 750 
Q 2350 975 2350 1325 
Q 2350 1700 2000 1925 
Q 1375 2325 825 2775 
Q 425 3100 400 3650 
Q 375 4200 775 4575 
Q 1150 4925 1600 4925 
Q 2150 4925 2450 4625 
Q 2825 4250 2800 3575 
L 2225 3575 
Q 2275 4000 2025 4250 
Q 1850 4425 1600 4425 
Q 1350 4425 1175 4250 
Q 950 4025 950 3725 
Q 950 3400 1300 3100 
z
" transform="scale(0.015625)"/>
       <path id="MS-Gothic-29" d="M 1700 2300 
Q 1700 650 450 -575 
L 175 -300 
Q 1325 775 1325 2300 
Q 1325 3825 175 4900 
L 450 5175 
Q 1700 3950 1700 2300 
z
" transform="scale(0.015625)"/>
      </defs>
      <use xlink:href="#MS-Gothic-6c"/>
      <use xlink:href="#MS-Gothic-69" transform="translate(50 0)"/>
      <use xlink:href="#MS-Gothic-6e" transform="translate(100 0)"/>
      <use xlink:href="#MS-Gothic-65" transform="translate(150 0)"/>
      <use xlink:href="#MS-Gothic-61" transform="translate(200 0)"/>
      <use xlink:href="#MS-Gothic-72" transform="translate(250 0)"/>
      <use xlink:href="#MS-Gothic-20" transform="translate(300 0)"/>
      <use xlink:href="#MS-Gothic-72" transform="translate(350 0)"/>
      <use xlink:href="#MS-Gothic-65" transform="translate(400 0)"/>
      <use xlink:href="#MS-Gothic-67" transform="translate(450 0)"/>
      <use xlink:href="#MS-Gothic-72" transform="translate(500 0)"/>
      <use xlink:href="#MS-Gothic-65" transform="translate(550 0)"/>
      <use xlink:href="#MS-Gothic-73" transform="translate(600 0)"/>
      <use xlink:href="#MS-Gothic-73" transform="translate(650 0)"/>
      <use xlink:href="#MS-Gothic-69" transform="translate(700 0)"/>
      <use xlink:href="#MS-Gothic-6f" transform="translate(750 0)"/>
      <use xlink:href="#MS-Gothic-6e" transform="translate(800 0)"/>
      <use xlink:href="#MS-Gothic-20" transform="translate(850 0)"/>
      <use xlink:href="#MS-Gothic-28" transform="translate(900 0)"/>
      <use xlink:href="#MS-Gothic-4f" transform="translate(950 0)"/>
      <use xlink:href="#MS-Gothic-4c" transform="translate(1000 0)"/>
      <use xlink:href="#MS-Gothic-53" transform="translate(1050 0)"/>
      <use xlink:href="#MS-Gothic-29" transform="translate(1100 0)"/>
     </g>
    </g>
   </g>
  </g>
 </g>
 <defs>
  <clipPath id="p3ec8145031">
   <rect x="46.1375" y="10.548897" width="558" height="277.2"/>
  </clipPath>
 </defs>
</svg>
