<?xml version="1.0" encoding="utf-8" standalone="no"?>
<!DOCTYPE svg PUBLIC "-//W3C//DTD SVG 1.1//EN"
  "http://www.w3.org/Graphics/SVG/1.1/DTD/svg11.dtd">
<svg xmlns:xlink="http://www.w3.org/1999/xlink" width="709.517687pt" height="350.850625pt" viewBox="0 0 709.517687 350.850625" xmlns="http://www.w3.org/2000/svg" version="1.1">
 <metadata>
  <rdf:RDF xmlns:dc="http://purl.org/dc/elements/1.1/" xmlns:cc="http://creativecommons.org/ns#" xmlns:rdf="http://www.w3.org/1999/02/22-rdf-syntax-ns#">
   <cc:Work>
    <dc:type rdf:resource="http://purl.org/dc/dcmitype/StillImage"/>
    <dc:date>2025-10-29T12:35:04.955975</dc:date>
    <dc:format>image/svg+xml</dc:format>
    <dc:creator>
     <cc:Agent>
      <dc:title>Matplotlib v3.10.7, https://matplotlib.org/</dc:title>
     </cc:Agent>
    </dc:creator>
   </cc:Work>
  </rdf:RDF>
 </metadata>
 <defs>
  <style type="text/css">*{stroke-linejoin: round; stroke-linecap: butt}</style>
 </defs>
 <g id="figure_1">
  <g id="patch_1">
   <path d="M -0 350.850625 
L 709.517687 350.850625 
L 709.517687 0 
L -0 0 
z
" style="fill: #ffffff"/>
  </g>
  <g id="axes_1">
   <g id="patch_2">
    <path d="M 52.267688 309.7375 
L 702.317688 309.7375 
L 702.317688 7.2 
L 52.267688 7.2 
z
" style="fill: #ffffff"/>
   </g>
   <g id="PathCollection_1">
    <defs>
     <path id="m48db5e7e71" d="M 0 2.236068 
C 0.593012 2.236068 1.161816 2.000462 1.581139 1.581139 
C 2.000462 1.161816 2.236068 0.593012 2.236068 0 
C 2.236068 -0.593012 2.000462 -1.161816 1.581139 -1.581139 
C 1.161816 -2.000462 0.593012 -2.236068 0 -2.236068 
C -0.593012 -2.236068 -1.161816 -2.000462 -1.581139 -1.581139 
C -2.000462 -1.161816 -2.236068 -0.593012 -2.236068 0 
C -2.236068 0.593012 -2.000462 1.161816 -1.581139 1.581139 
C -1.161816 2.000462 -0.593012 2.236068 0 2.236068 
z
" style="stroke: #ff7f0e; stroke-opacity: 0.6"/>
    </defs>
    <g clip-path="url(#p3e033e019e)">
     <use xlink:href="#m48db5e7e71" x="124.026454" y="231.940103" style="fill: #ff7f0e; fill-opacity: 0.6; stroke: #ff7f0e; stroke-opacity: 0.6"/>
     <use xlink:href="#m48db5e7e71" x="126.571843" y="241.486974" style="fill: #ff7f0e; fill-opacity: 0.6; stroke: #ff7f0e; stroke-opacity: 0.6"/>
     <use xlink:href="#m48db5e7e71" x="129.117232" y="221.303035" style="fill: #ff7f0e; fill-opacity: 0.6; stroke: #ff7f0e; stroke-opacity: 0.6"/>
     <use xlink:href="#m48db5e7e71" x="131.662622" y="216.368469" style="fill: #ff7f0e; fill-opacity: 0.6; stroke: #ff7f0e; stroke-opacity: 0.6"/>
     <use xlink:href="#m48db5e7e71" x="134.208011" y="240.754141" style="fill: #ff7f0e; fill-opacity: 0.6; stroke: #ff7f0e; stroke-opacity: 0.6"/>
     <use xlink:href="#m48db5e7e71" x="136.7534" y="231.557837" style="fill: #ff7f0e; fill-opacity: 0.6; stroke: #ff7f0e; stroke-opacity: 0.6"/>
     <use xlink:href="#m48db5e7e71" x="139.298789" y="214.988776" style="fill: #ff7f0e; fill-opacity: 0.6; stroke: #ff7f0e; stroke-opacity: 0.6"/>
     <use xlink:href="#m48db5e7e71" x="141.844179" y="216.268083" style="fill: #ff7f0e; fill-opacity: 0.6; stroke: #ff7f0e; stroke-opacity: 0.6"/>
     <use xlink:href="#m48db5e7e71" x="144.389568" y="210.531379" style="fill: #ff7f0e; fill-opacity: 0.6; stroke: #ff7f0e; stroke-opacity: 0.6"/>
     <use xlink:href="#m48db5e7e71" x="146.934957" y="215.628264" style="fill: #ff7f0e; fill-opacity: 0.6; stroke: #ff7f0e; stroke-opacity: 0.6"/>
     <use xlink:href="#m48db5e7e71" x="149.480347" y="196.371756" style="fill: #ff7f0e; fill-opacity: 0.6; stroke: #ff7f0e; stroke-opacity: 0.6"/>
     <use xlink:href="#m48db5e7e71" x="152.025736" y="194.581585" style="fill: #ff7f0e; fill-opacity: 0.6; stroke: #ff7f0e; stroke-opacity: 0.6"/>
     <use xlink:href="#m48db5e7e71" x="154.571125" y="198.632002" style="fill: #ff7f0e; fill-opacity: 0.6; stroke: #ff7f0e; stroke-opacity: 0.6"/>
     <use xlink:href="#m48db5e7e71" x="157.116514" y="185.886072" style="fill: #ff7f0e; fill-opacity: 0.6; stroke: #ff7f0e; stroke-opacity: 0.6"/>
     <use xlink:href="#m48db5e7e71" x="159.661904" y="189.530954" style="fill: #ff7f0e; fill-opacity: 0.6; stroke: #ff7f0e; stroke-opacity: 0.6"/>
     <use xlink:href="#m48db5e7e71" x="162.207293" y="199.555868" style="fill: #ff7f0e; fill-opacity: 0.6; stroke: #ff7f0e; stroke-opacity: 0.6"/>
     <use xlink:href="#m48db5e7e71" x="164.752682" y="185.356504" style="fill: #ff7f0e; fill-opacity: 0.6; stroke: #ff7f0e; stroke-opacity: 0.6"/>
     <use xlink:href="#m48db5e7e71" x="167.298072" y="195.475648" style="fill: #ff7f0e; fill-opacity: 0.6; stroke: #ff7f0e; stroke-opacity: 0.6"/>
     <use xlink:href="#m48db5e7e71" x="169.843461" y="175.574391" style="fill: #ff7f0e; fill-opacity: 0.6; stroke: #ff7f0e; stroke-opacity: 0.6"/>
     <use xlink:href="#m48db5e7e71" x="172.38885" y="181.985892" style="fill: #ff7f0e; fill-opacity: 0.6; stroke: #ff7f0e; stroke-opacity: 0.6"/>
     <use xlink:href="#m48db5e7e71" x="174.934239" y="180.902567" style="fill: #ff7f0e; fill-opacity: 0.6; stroke: #ff7f0e; stroke-opacity: 0.6"/>
     <use xlink:href="#m48db5e7e71" x="177.479629" y="183.290914" style="fill: #ff7f0e; fill-opacity: 0.6; stroke: #ff7f0e; stroke-opacity: 0.6"/>
     <use xlink:href="#m48db5e7e71" x="180.025018" y="162.92785" style="fill: #ff7f0e; fill-opacity: 0.6; stroke: #ff7f0e; stroke-opacity: 0.6"/>
     <use xlink:href="#m48db5e7e71" x="182.570407" y="173.766208" style="fill: #ff7f0e; fill-opacity: 0.6; stroke: #ff7f0e; stroke-opacity: 0.6"/>
     <use xlink:href="#m48db5e7e71" x="185.115797" y="174.165178" style="fill: #ff7f0e; fill-opacity: 0.6; stroke: #ff7f0e; stroke-opacity: 0.6"/>
     <use xlink:href="#m48db5e7e71" x="187.661186" y="171.279529" style="fill: #ff7f0e; fill-opacity: 0.6; stroke: #ff7f0e; stroke-opacity: 0.6"/>
     <use xlink:href="#m48db5e7e71" x="190.206575" y="160.756048" style="fill: #ff7f0e; fill-opacity: 0.6; stroke: #ff7f0e; stroke-opacity: 0.6"/>
     <use xlink:href="#m48db5e7e71" x="192.751964" y="160.257663" style="fill: #ff7f0e; fill-opacity: 0.6; stroke: #ff7f0e; stroke-opacity: 0.6"/>
     <use xlink:href="#m48db5e7e71" x="195.297354" y="157.763776" style="fill: #ff7f0e; fill-opacity: 0.6; stroke: #ff7f0e; stroke-opacity: 0.6"/>
     <use xlink:href="#m48db5e7e71" x="197.842743" y="155.585537" style="fill: #ff7f0e; fill-opacity: 0.6; stroke: #ff7f0e; stroke-opacity: 0.6"/>
     <use xlink:href="#m48db5e7e71" x="200.388132" y="137.366424" style="fill: #ff7f0e; fill-opacity: 0.6; stroke: #ff7f0e; stroke-opacity: 0.6"/>
     <use xlink:href="#m48db5e7e71" x="202.933522" y="159.638613" style="fill: #ff7f0e; fill-opacity: 0.6; stroke: #ff7f0e; stroke-opacity: 0.6"/>
     <use xlink:href="#m48db5e7e71" x="205.478911" y="158.749923" style="fill: #ff7f0e; fill-opacity: 0.6; stroke: #ff7f0e; stroke-opacity: 0.6"/>
     <use xlink:href="#m48db5e7e71" x="208.0243" y="159.756868" style="fill: #ff7f0e; fill-opacity: 0.6; stroke: #ff7f0e; stroke-opacity: 0.6"/>
     <use xlink:href="#m48db5e7e71" x="210.569689" y="144.35526" style="fill: #ff7f0e; fill-opacity: 0.6; stroke: #ff7f0e; stroke-opacity: 0.6"/>
     <use xlink:href="#m48db5e7e71" x="213.115079" y="137.69759" style="fill: #ff7f0e; fill-opacity: 0.6; stroke: #ff7f0e; stroke-opacity: 0.6"/>
     <use xlink:href="#m48db5e7e71" x="215.660468" y="147.754312" style="fill: #ff7f0e; fill-opacity: 0.6; stroke: #ff7f0e; stroke-opacity: 0.6"/>
     <use xlink:href="#m48db5e7e71" x="218.205857" y="152.938128" style="fill: #ff7f0e; fill-opacity: 0.6; stroke: #ff7f0e; stroke-opacity: 0.6"/>
     <use xlink:href="#m48db5e7e71" x="220.751247" y="151.109797" style="fill: #ff7f0e; fill-opacity: 0.6; stroke: #ff7f0e; stroke-opacity: 0.6"/>
     <use xlink:href="#m48db5e7e71" x="223.296636" y="135.453493" style="fill: #ff7f0e; fill-opacity: 0.6; stroke: #ff7f0e; stroke-opacity: 0.6"/>
     <use xlink:href="#m48db5e7e71" x="225.842025" y="132.962264" style="fill: #ff7f0e; fill-opacity: 0.6; stroke: #ff7f0e; stroke-opacity: 0.6"/>
     <use xlink:href="#m48db5e7e71" x="228.387414" y="133.285477" style="fill: #ff7f0e; fill-opacity: 0.6; stroke: #ff7f0e; stroke-opacity: 0.6"/>
     <use xlink:href="#m48db5e7e71" x="230.932804" y="143.221918" style="fill: #ff7f0e; fill-opacity: 0.6; stroke: #ff7f0e; stroke-opacity: 0.6"/>
     <use xlink:href="#m48db5e7e71" x="233.478193" y="133.183788" style="fill: #ff7f0e; fill-opacity: 0.6; stroke: #ff7f0e; stroke-opacity: 0.6"/>
     <use xlink:href="#m48db5e7e71" x="236.023582" y="132.801633" style="fill: #ff7f0e; fill-opacity: 0.6; stroke: #ff7f0e; stroke-opacity: 0.6"/>
     <use xlink:href="#m48db5e7e71" x="238.568972" y="130.385758" style="fill: #ff7f0e; fill-opacity: 0.6; stroke: #ff7f0e; stroke-opacity: 0.6"/>
     <use xlink:href="#m48db5e7e71" x="241.114361" y="122.770254" style="fill: #ff7f0e; fill-opacity: 0.6; stroke: #ff7f0e; stroke-opacity: 0.6"/>
     <use xlink:href="#m48db5e7e71" x="243.65975" y="127.539728" style="fill: #ff7f0e; fill-opacity: 0.6; stroke: #ff7f0e; stroke-opacity: 0.6"/>
     <use xlink:href="#m48db5e7e71" x="246.205139" y="121.861592" style="fill: #ff7f0e; fill-opacity: 0.6; stroke: #ff7f0e; stroke-opacity: 0.6"/>
     <use xlink:href="#m48db5e7e71" x="248.750529" y="126.345715" style="fill: #ff7f0e; fill-opacity: 0.6; stroke: #ff7f0e; stroke-opacity: 0.6"/>
     <use xlink:href="#m48db5e7e71" x="251.295918" y="122.948714" style="fill: #ff7f0e; fill-opacity: 0.6; stroke: #ff7f0e; stroke-opacity: 0.6"/>
     <use xlink:href="#m48db5e7e71" x="253.841307" y="118.435596" style="fill: #ff7f0e; fill-opacity: 0.6; stroke: #ff7f0e; stroke-opacity: 0.6"/>
     <use xlink:href="#m48db5e7e71" x="256.386697" y="137.039379" style="fill: #ff7f0e; fill-opacity: 0.6; stroke: #ff7f0e; stroke-opacity: 0.6"/>
     <use xlink:href="#m48db5e7e71" x="258.932086" y="125.03003" style="fill: #ff7f0e; fill-opacity: 0.6; stroke: #ff7f0e; stroke-opacity: 0.6"/>
     <use xlink:href="#m48db5e7e71" x="261.477475" y="125.285262" style="fill: #ff7f0e; fill-opacity: 0.6; stroke: #ff7f0e; stroke-opacity: 0.6"/>
     <use xlink:href="#m48db5e7e71" x="264.022864" y="125.737736" style="fill: #ff7f0e; fill-opacity: 0.6; stroke: #ff7f0e; stroke-opacity: 0.6"/>
     <use xlink:href="#m48db5e7e71" x="266.568254" y="121.162369" style="fill: #ff7f0e; fill-opacity: 0.6; stroke: #ff7f0e; stroke-opacity: 0.6"/>
     <use xlink:href="#m48db5e7e71" x="269.113643" y="103.255911" style="fill: #ff7f0e; fill-opacity: 0.6; stroke: #ff7f0e; stroke-opacity: 0.6"/>
     <use xlink:href="#m48db5e7e71" x="271.659032" y="124.614065" style="fill: #ff7f0e; fill-opacity: 0.6; stroke: #ff7f0e; stroke-opacity: 0.6"/>
     <use xlink:href="#m48db5e7e71" x="274.204421" y="106.152975" style="fill: #ff7f0e; fill-opacity: 0.6; stroke: #ff7f0e; stroke-opacity: 0.6"/>
     <use xlink:href="#m48db5e7e71" x="276.749811" y="130.32206" style="fill: #ff7f0e; fill-opacity: 0.6; stroke: #ff7f0e; stroke-opacity: 0.6"/>
     <use xlink:href="#m48db5e7e71" x="279.2952" y="116.530475" style="fill: #ff7f0e; fill-opacity: 0.6; stroke: #ff7f0e; stroke-opacity: 0.6"/>
     <use xlink:href="#m48db5e7e71" x="281.840589" y="110.841452" style="fill: #ff7f0e; fill-opacity: 0.6; stroke: #ff7f0e; stroke-opacity: 0.6"/>
     <use xlink:href="#m48db5e7e71" x="284.385979" y="105.881942" style="fill: #ff7f0e; fill-opacity: 0.6; stroke: #ff7f0e; stroke-opacity: 0.6"/>
     <use xlink:href="#m48db5e7e71" x="286.931368" y="103.782069" style="fill: #ff7f0e; fill-opacity: 0.6; stroke: #ff7f0e; stroke-opacity: 0.6"/>
     <use xlink:href="#m48db5e7e71" x="289.476757" y="102.11376" style="fill: #ff7f0e; fill-opacity: 0.6; stroke: #ff7f0e; stroke-opacity: 0.6"/>
     <use xlink:href="#m48db5e7e71" x="292.022146" y="112.097494" style="fill: #ff7f0e; fill-opacity: 0.6; stroke: #ff7f0e; stroke-opacity: 0.6"/>
     <use xlink:href="#m48db5e7e71" x="294.567536" y="112.335805" style="fill: #ff7f0e; fill-opacity: 0.6; stroke: #ff7f0e; stroke-opacity: 0.6"/>
     <use xlink:href="#m48db5e7e71" x="297.112925" y="98.976504" style="fill: #ff7f0e; fill-opacity: 0.6; stroke: #ff7f0e; stroke-opacity: 0.6"/>
     <use xlink:href="#m48db5e7e71" x="299.658314" y="108.147999" style="fill: #ff7f0e; fill-opacity: 0.6; stroke: #ff7f0e; stroke-opacity: 0.6"/>
     <use xlink:href="#m48db5e7e71" x="302.203704" y="117.675187" style="fill: #ff7f0e; fill-opacity: 0.6; stroke: #ff7f0e; stroke-opacity: 0.6"/>
     <use xlink:href="#m48db5e7e71" x="304.749093" y="115.571464" style="fill: #ff7f0e; fill-opacity: 0.6; stroke: #ff7f0e; stroke-opacity: 0.6"/>
     <use xlink:href="#m48db5e7e71" x="307.294482" y="112.810688" style="fill: #ff7f0e; fill-opacity: 0.6; stroke: #ff7f0e; stroke-opacity: 0.6"/>
     <use xlink:href="#m48db5e7e71" x="309.839871" y="98.646216" style="fill: #ff7f0e; fill-opacity: 0.6; stroke: #ff7f0e; stroke-opacity: 0.6"/>
     <use xlink:href="#m48db5e7e71" x="312.385261" y="101.327912" style="fill: #ff7f0e; fill-opacity: 0.6; stroke: #ff7f0e; stroke-opacity: 0.6"/>
     <use xlink:href="#m48db5e7e71" x="314.93065" y="95.454577" style="fill: #ff7f0e; fill-opacity: 0.6; stroke: #ff7f0e; stroke-opacity: 0.6"/>
     <use xlink:href="#m48db5e7e71" x="317.476039" y="105.42404" style="fill: #ff7f0e; fill-opacity: 0.6; stroke: #ff7f0e; stroke-opacity: 0.6"/>
     <use xlink:href="#m48db5e7e71" x="320.021429" y="99.231763" style="fill: #ff7f0e; fill-opacity: 0.6; stroke: #ff7f0e; stroke-opacity: 0.6"/>
     <use xlink:href="#m48db5e7e71" x="322.566818" y="94.186523" style="fill: #ff7f0e; fill-opacity: 0.6; stroke: #ff7f0e; stroke-opacity: 0.6"/>
     <use xlink:href="#m48db5e7e71" x="325.112207" y="102.477064" style="fill: #ff7f0e; fill-opacity: 0.6; stroke: #ff7f0e; stroke-opacity: 0.6"/>
     <use xlink:href="#m48db5e7e71" x="327.657596" y="94.628171" style="fill: #ff7f0e; fill-opacity: 0.6; stroke: #ff7f0e; stroke-opacity: 0.6"/>
     <use xlink:href="#m48db5e7e71" x="330.202986" y="104.700574" style="fill: #ff7f0e; fill-opacity: 0.6; stroke: #ff7f0e; stroke-opacity: 0.6"/>
     <use xlink:href="#m48db5e7e71" x="332.748375" y="101.325497" style="fill: #ff7f0e; fill-opacity: 0.6; stroke: #ff7f0e; stroke-opacity: 0.6"/>
     <use xlink:href="#m48db5e7e71" x="335.293764" y="100.983979" style="fill: #ff7f0e; fill-opacity: 0.6; stroke: #ff7f0e; stroke-opacity: 0.6"/>
     <use xlink:href="#m48db5e7e71" x="337.839154" y="108.214679" style="fill: #ff7f0e; fill-opacity: 0.6; stroke: #ff7f0e; stroke-opacity: 0.6"/>
     <use xlink:href="#m48db5e7e71" x="340.384543" y="91.744425" style="fill: #ff7f0e; fill-opacity: 0.6; stroke: #ff7f0e; stroke-opacity: 0.6"/>
     <use xlink:href="#m48db5e7e71" x="342.929932" y="100.35897" style="fill: #ff7f0e; fill-opacity: 0.6; stroke: #ff7f0e; stroke-opacity: 0.6"/>
     <use xlink:href="#m48db5e7e71" x="345.475321" y="95.32748" style="fill: #ff7f0e; fill-opacity: 0.6; stroke: #ff7f0e; stroke-opacity: 0.6"/>
     <use xlink:href="#m48db5e7e71" x="348.020711" y="90.440833" style="fill: #ff7f0e; fill-opacity: 0.6; stroke: #ff7f0e; stroke-opacity: 0.6"/>
     <use xlink:href="#m48db5e7e71" x="350.5661" y="90.341818" style="fill: #ff7f0e; fill-opacity: 0.6; stroke: #ff7f0e; stroke-opacity: 0.6"/>
     <use xlink:href="#m48db5e7e71" x="353.111489" y="87.853442" style="fill: #ff7f0e; fill-opacity: 0.6; stroke: #ff7f0e; stroke-opacity: 0.6"/>
     <use xlink:href="#m48db5e7e71" x="355.656879" y="94.713717" style="fill: #ff7f0e; fill-opacity: 0.6; stroke: #ff7f0e; stroke-opacity: 0.6"/>
     <use xlink:href="#m48db5e7e71" x="358.202268" y="97.417208" style="fill: #ff7f0e; fill-opacity: 0.6; stroke: #ff7f0e; stroke-opacity: 0.6"/>
     <use xlink:href="#m48db5e7e71" x="360.747657" y="93.785143" style="fill: #ff7f0e; fill-opacity: 0.6; stroke: #ff7f0e; stroke-opacity: 0.6"/>
     <use xlink:href="#m48db5e7e71" x="363.293046" y="108.699755" style="fill: #ff7f0e; fill-opacity: 0.6; stroke: #ff7f0e; stroke-opacity: 0.6"/>
     <use xlink:href="#m48db5e7e71" x="365.838436" y="106.074865" style="fill: #ff7f0e; fill-opacity: 0.6; stroke: #ff7f0e; stroke-opacity: 0.6"/>
     <use xlink:href="#m48db5e7e71" x="368.383825" y="104.562128" style="fill: #ff7f0e; fill-opacity: 0.6; stroke: #ff7f0e; stroke-opacity: 0.6"/>
     <use xlink:href="#m48db5e7e71" x="370.929214" y="101.151506" style="fill: #ff7f0e; fill-opacity: 0.6; stroke: #ff7f0e; stroke-opacity: 0.6"/>
     <use xlink:href="#m48db5e7e71" x="373.474604" y="87.573746" style="fill: #ff7f0e; fill-opacity: 0.6; stroke: #ff7f0e; stroke-opacity: 0.6"/>
     <use xlink:href="#m48db5e7e71" x="376.019993" y="99.674955" style="fill: #ff7f0e; fill-opacity: 0.6; stroke: #ff7f0e; stroke-opacity: 0.6"/>
     <use xlink:href="#m48db5e7e71" x="378.565382" y="94.37974" style="fill: #ff7f0e; fill-opacity: 0.6; stroke: #ff7f0e; stroke-opacity: 0.6"/>
     <use xlink:href="#m48db5e7e71" x="381.110771" y="78.17051" style="fill: #ff7f0e; fill-opacity: 0.6; stroke: #ff7f0e; stroke-opacity: 0.6"/>
     <use xlink:href="#m48db5e7e71" x="383.656161" y="93.629025" style="fill: #ff7f0e; fill-opacity: 0.6; stroke: #ff7f0e; stroke-opacity: 0.6"/>
     <use xlink:href="#m48db5e7e71" x="386.20155" y="82.98249" style="fill: #ff7f0e; fill-opacity: 0.6; stroke: #ff7f0e; stroke-opacity: 0.6"/>
     <use xlink:href="#m48db5e7e71" x="388.746939" y="98.607954" style="fill: #ff7f0e; fill-opacity: 0.6; stroke: #ff7f0e; stroke-opacity: 0.6"/>
     <use xlink:href="#m48db5e7e71" x="391.292329" y="91.451729" style="fill: #ff7f0e; fill-opacity: 0.6; stroke: #ff7f0e; stroke-opacity: 0.6"/>
     <use xlink:href="#m48db5e7e71" x="393.837718" y="98.293027" style="fill: #ff7f0e; fill-opacity: 0.6; stroke: #ff7f0e; stroke-opacity: 0.6"/>
     <use xlink:href="#m48db5e7e71" x="396.383107" y="92.266" style="fill: #ff7f0e; fill-opacity: 0.6; stroke: #ff7f0e; stroke-opacity: 0.6"/>
     <use xlink:href="#m48db5e7e71" x="398.928496" y="80.847813" style="fill: #ff7f0e; fill-opacity: 0.6; stroke: #ff7f0e; stroke-opacity: 0.6"/>
     <use xlink:href="#m48db5e7e71" x="401.473886" y="105.027911" style="fill: #ff7f0e; fill-opacity: 0.6; stroke: #ff7f0e; stroke-opacity: 0.6"/>
     <use xlink:href="#m48db5e7e71" x="404.019275" y="84.291894" style="fill: #ff7f0e; fill-opacity: 0.6; stroke: #ff7f0e; stroke-opacity: 0.6"/>
     <use xlink:href="#m48db5e7e71" x="406.564664" y="85.964116" style="fill: #ff7f0e; fill-opacity: 0.6; stroke: #ff7f0e; stroke-opacity: 0.6"/>
     <use xlink:href="#m48db5e7e71" x="409.110054" y="93.675742" style="fill: #ff7f0e; fill-opacity: 0.6; stroke: #ff7f0e; stroke-opacity: 0.6"/>
     <use xlink:href="#m48db5e7e71" x="411.655443" y="101.583034" style="fill: #ff7f0e; fill-opacity: 0.6; stroke: #ff7f0e; stroke-opacity: 0.6"/>
     <use xlink:href="#m48db5e7e71" x="414.200832" y="86.982655" style="fill: #ff7f0e; fill-opacity: 0.6; stroke: #ff7f0e; stroke-opacity: 0.6"/>
     <use xlink:href="#m48db5e7e71" x="416.746221" y="92.522355" style="fill: #ff7f0e; fill-opacity: 0.6; stroke: #ff7f0e; stroke-opacity: 0.6"/>
     <use xlink:href="#m48db5e7e71" x="419.291611" y="85.112156" style="fill: #ff7f0e; fill-opacity: 0.6; stroke: #ff7f0e; stroke-opacity: 0.6"/>
     <use xlink:href="#m48db5e7e71" x="421.837" y="86.948019" style="fill: #ff7f0e; fill-opacity: 0.6; stroke: #ff7f0e; stroke-opacity: 0.6"/>
     <use xlink:href="#m48db5e7e71" x="424.382389" y="71.777651" style="fill: #ff7f0e; fill-opacity: 0.6; stroke: #ff7f0e; stroke-opacity: 0.6"/>
     <use xlink:href="#m48db5e7e71" x="426.927779" y="89.105966" style="fill: #ff7f0e; fill-opacity: 0.6; stroke: #ff7f0e; stroke-opacity: 0.6"/>
     <use xlink:href="#m48db5e7e71" x="429.473168" y="96.396998" style="fill: #ff7f0e; fill-opacity: 0.6; stroke: #ff7f0e; stroke-opacity: 0.6"/>
     <use xlink:href="#m48db5e7e71" x="432.018557" y="84.81733" style="fill: #ff7f0e; fill-opacity: 0.6; stroke: #ff7f0e; stroke-opacity: 0.6"/>
     <use xlink:href="#m48db5e7e71" x="434.563946" y="84.277581" style="fill: #ff7f0e; fill-opacity: 0.6; stroke: #ff7f0e; stroke-opacity: 0.6"/>
     <use xlink:href="#m48db5e7e71" x="437.109336" y="73.305401" style="fill: #ff7f0e; fill-opacity: 0.6; stroke: #ff7f0e; stroke-opacity: 0.6"/>
     <use xlink:href="#m48db5e7e71" x="439.654725" y="78.133238" style="fill: #ff7f0e; fill-opacity: 0.6; stroke: #ff7f0e; stroke-opacity: 0.6"/>
     <use xlink:href="#m48db5e7e71" x="442.200114" y="82.526486" style="fill: #ff7f0e; fill-opacity: 0.6; stroke: #ff7f0e; stroke-opacity: 0.6"/>
     <use xlink:href="#m48db5e7e71" x="444.745504" y="71.867855" style="fill: #ff7f0e; fill-opacity: 0.6; stroke: #ff7f0e; stroke-opacity: 0.6"/>
     <use xlink:href="#m48db5e7e71" x="447.290893" y="96.909981" style="fill: #ff7f0e; fill-opacity: 0.6; stroke: #ff7f0e; stroke-opacity: 0.6"/>
     <use xlink:href="#m48db5e7e71" x="449.836282" y="91.54574" style="fill: #ff7f0e; fill-opacity: 0.6; stroke: #ff7f0e; stroke-opacity: 0.6"/>
     <use xlink:href="#m48db5e7e71" x="452.381671" y="94.120063" style="fill: #ff7f0e; fill-opacity: 0.6; stroke: #ff7f0e; stroke-opacity: 0.6"/>
     <use xlink:href="#m48db5e7e71" x="454.927061" y="88.87021" style="fill: #ff7f0e; fill-opacity: 0.6; stroke: #ff7f0e; stroke-opacity: 0.6"/>
     <use xlink:href="#m48db5e7e71" x="457.47245" y="98.09139" style="fill: #ff7f0e; fill-opacity: 0.6; stroke: #ff7f0e; stroke-opacity: 0.6"/>
     <use xlink:href="#m48db5e7e71" x="460.017839" y="78.826831" style="fill: #ff7f0e; fill-opacity: 0.6; stroke: #ff7f0e; stroke-opacity: 0.6"/>
     <use xlink:href="#m48db5e7e71" x="462.563229" y="86.813637" style="fill: #ff7f0e; fill-opacity: 0.6; stroke: #ff7f0e; stroke-opacity: 0.6"/>
     <use xlink:href="#m48db5e7e71" x="465.108618" y="98.513699" style="fill: #ff7f0e; fill-opacity: 0.6; stroke: #ff7f0e; stroke-opacity: 0.6"/>
     <use xlink:href="#m48db5e7e71" x="467.654007" y="94.026707" style="fill: #ff7f0e; fill-opacity: 0.6; stroke: #ff7f0e; stroke-opacity: 0.6"/>
     <use xlink:href="#m48db5e7e71" x="470.199396" y="81.235648" style="fill: #ff7f0e; fill-opacity: 0.6; stroke: #ff7f0e; stroke-opacity: 0.6"/>
     <use xlink:href="#m48db5e7e71" x="472.744786" y="76.082191" style="fill: #ff7f0e; fill-opacity: 0.6; stroke: #ff7f0e; stroke-opacity: 0.6"/>
     <use xlink:href="#m48db5e7e71" x="475.290175" y="64.902373" style="fill: #ff7f0e; fill-opacity: 0.6; stroke: #ff7f0e; stroke-opacity: 0.6"/>
     <use xlink:href="#m48db5e7e71" x="477.835564" y="56.011552" style="fill: #ff7f0e; fill-opacity: 0.6; stroke: #ff7f0e; stroke-opacity: 0.6"/>
     <use xlink:href="#m48db5e7e71" x="480.380954" y="79.568689" style="fill: #ff7f0e; fill-opacity: 0.6; stroke: #ff7f0e; stroke-opacity: 0.6"/>
     <use xlink:href="#m48db5e7e71" x="482.926343" y="92.714523" style="fill: #ff7f0e; fill-opacity: 0.6; stroke: #ff7f0e; stroke-opacity: 0.6"/>
     <use xlink:href="#m48db5e7e71" x="485.471732" y="103.371185" style="fill: #ff7f0e; fill-opacity: 0.6; stroke: #ff7f0e; stroke-opacity: 0.6"/>
     <use xlink:href="#m48db5e7e71" x="488.017121" y="80.374784" style="fill: #ff7f0e; fill-opacity: 0.6; stroke: #ff7f0e; stroke-opacity: 0.6"/>
     <use xlink:href="#m48db5e7e71" x="490.562511" y="90.431038" style="fill: #ff7f0e; fill-opacity: 0.6; stroke: #ff7f0e; stroke-opacity: 0.6"/>
     <use xlink:href="#m48db5e7e71" x="493.1079" y="86.438991" style="fill: #ff7f0e; fill-opacity: 0.6; stroke: #ff7f0e; stroke-opacity: 0.6"/>
     <use xlink:href="#m48db5e7e71" x="495.653289" y="88.08482" style="fill: #ff7f0e; fill-opacity: 0.6; stroke: #ff7f0e; stroke-opacity: 0.6"/>
     <use xlink:href="#m48db5e7e71" x="498.198678" y="83.377306" style="fill: #ff7f0e; fill-opacity: 0.6; stroke: #ff7f0e; stroke-opacity: 0.6"/>
     <use xlink:href="#m48db5e7e71" x="500.744068" y="71.675661" style="fill: #ff7f0e; fill-opacity: 0.6; stroke: #ff7f0e; stroke-opacity: 0.6"/>
     <use xlink:href="#m48db5e7e71" x="503.289457" y="80.061807" style="fill: #ff7f0e; fill-opacity: 0.6; stroke: #ff7f0e; stroke-opacity: 0.6"/>
     <use xlink:href="#m48db5e7e71" x="505.834846" y="82.803912" style="fill: #ff7f0e; fill-opacity: 0.6; stroke: #ff7f0e; stroke-opacity: 0.6"/>
     <use xlink:href="#m48db5e7e71" x="508.380236" y="90.868601" style="fill: #ff7f0e; fill-opacity: 0.6; stroke: #ff7f0e; stroke-opacity: 0.6"/>
     <use xlink:href="#m48db5e7e71" x="510.925625" y="96.662953" style="fill: #ff7f0e; fill-opacity: 0.6; stroke: #ff7f0e; stroke-opacity: 0.6"/>
     <use xlink:href="#m48db5e7e71" x="513.471014" y="85.089248" style="fill: #ff7f0e; fill-opacity: 0.6; stroke: #ff7f0e; stroke-opacity: 0.6"/>
     <use xlink:href="#m48db5e7e71" x="516.016403" y="80.684581" style="fill: #ff7f0e; fill-opacity: 0.6; stroke: #ff7f0e; stroke-opacity: 0.6"/>
     <use xlink:href="#m48db5e7e71" x="518.561793" y="63.073557" style="fill: #ff7f0e; fill-opacity: 0.6; stroke: #ff7f0e; stroke-opacity: 0.6"/>
     <use xlink:href="#m48db5e7e71" x="521.107182" y="78.310628" style="fill: #ff7f0e; fill-opacity: 0.6; stroke: #ff7f0e; stroke-opacity: 0.6"/>
     <use xlink:href="#m48db5e7e71" x="523.652571" y="69.883155" style="fill: #ff7f0e; fill-opacity: 0.6; stroke: #ff7f0e; stroke-opacity: 0.6"/>
     <use xlink:href="#m48db5e7e71" x="526.197961" y="83.618243" style="fill: #ff7f0e; fill-opacity: 0.6; stroke: #ff7f0e; stroke-opacity: 0.6"/>
     <use xlink:href="#m48db5e7e71" x="528.74335" y="89.776228" style="fill: #ff7f0e; fill-opacity: 0.6; stroke: #ff7f0e; stroke-opacity: 0.6"/>
     <use xlink:href="#m48db5e7e71" x="531.288739" y="87.320525" style="fill: #ff7f0e; fill-opacity: 0.6; stroke: #ff7f0e; stroke-opacity: 0.6"/>
     <use xlink:href="#m48db5e7e71" x="533.834128" y="84.66098" style="fill: #ff7f0e; fill-opacity: 0.6; stroke: #ff7f0e; stroke-opacity: 0.6"/>
     <use xlink:href="#m48db5e7e71" x="536.379518" y="57.160097" style="fill: #ff7f0e; fill-opacity: 0.6; stroke: #ff7f0e; stroke-opacity: 0.6"/>
     <use xlink:href="#m48db5e7e71" x="538.924907" y="84.771216" style="fill: #ff7f0e; fill-opacity: 0.6; stroke: #ff7f0e; stroke-opacity: 0.6"/>
     <use xlink:href="#m48db5e7e71" x="541.470296" y="68.581557" style="fill: #ff7f0e; fill-opacity: 0.6; stroke: #ff7f0e; stroke-opacity: 0.6"/>
     <use xlink:href="#m48db5e7e71" x="544.015686" y="84.684836" style="fill: #ff7f0e; fill-opacity: 0.6; stroke: #ff7f0e; stroke-opacity: 0.6"/>
     <use xlink:href="#m48db5e7e71" x="546.561075" y="66.806433" style="fill: #ff7f0e; fill-opacity: 0.6; stroke: #ff7f0e; stroke-opacity: 0.6"/>
     <use xlink:href="#m48db5e7e71" x="549.106464" y="71.529925" style="fill: #ff7f0e; fill-opacity: 0.6; stroke: #ff7f0e; stroke-opacity: 0.6"/>
     <use xlink:href="#m48db5e7e71" x="551.651853" y="76.18961" style="fill: #ff7f0e; fill-opacity: 0.6; stroke: #ff7f0e; stroke-opacity: 0.6"/>
     <use xlink:href="#m48db5e7e71" x="554.197243" y="74.587867" style="fill: #ff7f0e; fill-opacity: 0.6; stroke: #ff7f0e; stroke-opacity: 0.6"/>
     <use xlink:href="#m48db5e7e71" x="556.742632" y="79.902432" style="fill: #ff7f0e; fill-opacity: 0.6; stroke: #ff7f0e; stroke-opacity: 0.6"/>
     <use xlink:href="#m48db5e7e71" x="559.288021" y="68.910694" style="fill: #ff7f0e; fill-opacity: 0.6; stroke: #ff7f0e; stroke-opacity: 0.6"/>
     <use xlink:href="#m48db5e7e71" x="561.833411" y="76.916938" style="fill: #ff7f0e; fill-opacity: 0.6; stroke: #ff7f0e; stroke-opacity: 0.6"/>
     <use xlink:href="#m48db5e7e71" x="564.3788" y="83.666286" style="fill: #ff7f0e; fill-opacity: 0.6; stroke: #ff7f0e; stroke-opacity: 0.6"/>
     <use xlink:href="#m48db5e7e71" x="566.924189" y="83.574486" style="fill: #ff7f0e; fill-opacity: 0.6; stroke: #ff7f0e; stroke-opacity: 0.6"/>
     <use xlink:href="#m48db5e7e71" x="569.469578" y="69.188802" style="fill: #ff7f0e; fill-opacity: 0.6; stroke: #ff7f0e; stroke-opacity: 0.6"/>
     <use xlink:href="#m48db5e7e71" x="572.014968" y="55.202148" style="fill: #ff7f0e; fill-opacity: 0.6; stroke: #ff7f0e; stroke-opacity: 0.6"/>
     <use xlink:href="#m48db5e7e71" x="574.560357" y="68.035461" style="fill: #ff7f0e; fill-opacity: 0.6; stroke: #ff7f0e; stroke-opacity: 0.6"/>
     <use xlink:href="#m48db5e7e71" x="577.105746" y="70.015921" style="fill: #ff7f0e; fill-opacity: 0.6; stroke: #ff7f0e; stroke-opacity: 0.6"/>
     <use xlink:href="#m48db5e7e71" x="579.651136" y="65.487596" style="fill: #ff7f0e; fill-opacity: 0.6; stroke: #ff7f0e; stroke-opacity: 0.6"/>
     <use xlink:href="#m48db5e7e71" x="582.196525" y="55.090147" style="fill: #ff7f0e; fill-opacity: 0.6; stroke: #ff7f0e; stroke-opacity: 0.6"/>
     <use xlink:href="#m48db5e7e71" x="584.741914" y="64.683379" style="fill: #ff7f0e; fill-opacity: 0.6; stroke: #ff7f0e; stroke-opacity: 0.6"/>
     <use xlink:href="#m48db5e7e71" x="587.287303" y="69.920811" style="fill: #ff7f0e; fill-opacity: 0.6; stroke: #ff7f0e; stroke-opacity: 0.6"/>
     <use xlink:href="#m48db5e7e71" x="589.832693" y="54.73774" style="fill: #ff7f0e; fill-opacity: 0.6; stroke: #ff7f0e; stroke-opacity: 0.6"/>
     <use xlink:href="#m48db5e7e71" x="592.378082" y="60.37962" style="fill: #ff7f0e; fill-opacity: 0.6; stroke: #ff7f0e; stroke-opacity: 0.6"/>
     <use xlink:href="#m48db5e7e71" x="594.923471" y="49.048176" style="fill: #ff7f0e; fill-opacity: 0.6; stroke: #ff7f0e; stroke-opacity: 0.6"/>
     <use xlink:href="#m48db5e7e71" x="597.468861" y="61.055893" style="fill: #ff7f0e; fill-opacity: 0.6; stroke: #ff7f0e; stroke-opacity: 0.6"/>
     <use xlink:href="#m48db5e7e71" x="600.01425" y="73.564347" style="fill: #ff7f0e; fill-opacity: 0.6; stroke: #ff7f0e; stroke-opacity: 0.6"/>
     <use xlink:href="#m48db5e7e71" x="602.559639" y="74.042542" style="fill: #ff7f0e; fill-opacity: 0.6; stroke: #ff7f0e; stroke-opacity: 0.6"/>
     <use xlink:href="#m48db5e7e71" x="605.105028" y="44.454348" style="fill: #ff7f0e; fill-opacity: 0.6; stroke: #ff7f0e; stroke-opacity: 0.6"/>
     <use xlink:href="#m48db5e7e71" x="607.650418" y="42.827974" style="fill: #ff7f0e; fill-opacity: 0.6; stroke: #ff7f0e; stroke-opacity: 0.6"/>
     <use xlink:href="#m48db5e7e71" x="610.195807" y="59.945265" style="fill: #ff7f0e; fill-opacity: 0.6; stroke: #ff7f0e; stroke-opacity: 0.6"/>
     <use xlink:href="#m48db5e7e71" x="612.741196" y="60.89403" style="fill: #ff7f0e; fill-opacity: 0.6; stroke: #ff7f0e; stroke-opacity: 0.6"/>
     <use xlink:href="#m48db5e7e71" x="615.286586" y="42.360902" style="fill: #ff7f0e; fill-opacity: 0.6; stroke: #ff7f0e; stroke-opacity: 0.6"/>
     <use xlink:href="#m48db5e7e71" x="617.831975" y="65.720424" style="fill: #ff7f0e; fill-opacity: 0.6; stroke: #ff7f0e; stroke-opacity: 0.6"/>
     <use xlink:href="#m48db5e7e71" x="620.377364" y="62.639409" style="fill: #ff7f0e; fill-opacity: 0.6; stroke: #ff7f0e; stroke-opacity: 0.6"/>
     <use xlink:href="#m48db5e7e71" x="622.922753" y="46.938736" style="fill: #ff7f0e; fill-opacity: 0.6; stroke: #ff7f0e; stroke-opacity: 0.6"/>
     <use xlink:href="#m48db5e7e71" x="625.468143" y="55.679186" style="fill: #ff7f0e; fill-opacity: 0.6; stroke: #ff7f0e; stroke-opacity: 0.6"/>
     <use xlink:href="#m48db5e7e71" x="628.013532" y="50.833372" style="fill: #ff7f0e; fill-opacity: 0.6; stroke: #ff7f0e; stroke-opacity: 0.6"/>
     <use xlink:href="#m48db5e7e71" x="630.558921" y="51.162867" style="fill: #ff7f0e; fill-opacity: 0.6; stroke: #ff7f0e; stroke-opacity: 0.6"/>
    </g>
   </g>
   <g id="matplotlib.axis_1">
    <g id="xtick_1">
     <g id="line2d_1">
      <defs>
       <path id="m4c6c915b60" d="M 0 0 
L 0 3.5 
" style="stroke: #000000; stroke-width: 0.8"/>
      </defs>
      <g>
       <use xlink:href="#m4c6c915b60" x="124.026454" y="309.7375" style="stroke: #000000; stroke-width: 0.8"/>
      </g>
     </g>
     <g id="text_1">
      <!-- −3 -->
      <g transform="translate(117.485829 324.228125) scale(0.1 -0.1)">
       <defs>
        <path id="IPAexGothic-2212" d="M 416 2222 
L 3922 2222 
L 3922 1856 
L 416 1856 
L 416 2222 
z
" transform="scale(0.015625)"/>
        <path id="IPAexGothic-33" d="M 2381 2419 
Q 3506 2216 3506 1278 
Q 3506 716 3128 356 
Q 2709 -31 1944 -31 
Q 797 -31 288 881 
L 756 1131 
Q 1109 441 1938 441 
Q 2425 441 2694 691 
Q 2950 928 2950 1291 
Q 2950 1719 2566 1978 
Q 2216 2213 1644 2213 
L 1363 2213 
L 1363 2669 
L 1656 2669 
Q 2231 2669 2534 2888 
Q 2859 3119 2859 3509 
Q 2859 3934 2494 4138 
Q 2259 4278 1931 4278 
Q 1238 4278 903 3578 
L 434 3803 
Q 897 4725 1938 4725 
Q 2597 4725 3006 4394 
Q 3416 4069 3416 3534 
Q 3416 3028 3019 2706 
Q 2763 2500 2381 2444 
L 2381 2419 
z
" transform="scale(0.015625)"/>
       </defs>
       <use xlink:href="#IPAexGothic-2212"/>
       <use xlink:href="#IPAexGothic-33" transform="translate(67.822266 0)"/>
      </g>
     </g>
    </g>
    <g id="xtick_2">
     <g id="line2d_2">
      <g>
       <use xlink:href="#m4c6c915b60" x="208.448532" y="309.7375" style="stroke: #000000; stroke-width: 0.8"/>
      </g>
     </g>
     <g id="text_2">
      <!-- −2 -->
      <g transform="translate(201.907907 324.228125) scale(0.1 -0.1)">
       <defs>
        <path id="IPAexGothic-32" d="M 3659 63 
L 447 63 
L 447 594 
Q 825 1475 1894 2203 
L 2072 2322 
Q 2619 2697 2791 2906 
Q 2988 3153 2988 3444 
Q 2988 3772 2756 4003 
Q 2500 4259 2084 4259 
Q 1250 4259 991 3328 
L 497 3506 
Q 853 4725 2116 4725 
Q 2806 4725 3216 4316 
Q 3575 3947 3575 3425 
Q 3575 3038 3344 2722 
Q 3131 2416 2366 1938 
L 2231 1856 
Q 1256 1253 978 569 
L 3659 569 
L 3659 63 
z
" transform="scale(0.015625)"/>
       </defs>
       <use xlink:href="#IPAexGothic-2212"/>
       <use xlink:href="#IPAexGothic-32" transform="translate(67.822266 0)"/>
      </g>
     </g>
    </g>
    <g id="xtick_3">
     <g id="line2d_3">
      <g>
       <use xlink:href="#m4c6c915b60" x="292.87061" y="309.7375" style="stroke: #000000; stroke-width: 0.8"/>
      </g>
     </g>
     <g id="text_3">
      <!-- −1 -->
      <g transform="translate(286.329985 324.228125) scale(0.1 -0.1)">
       <defs>
        <path id="IPAexGothic-31" d="M 2463 63 
L 1900 63 
L 1900 4103 
Q 1372 3922 788 3797 
L 684 4231 
Q 1519 4441 2106 4731 
L 2463 4731 
L 2463 63 
z
" transform="scale(0.015625)"/>
       </defs>
       <use xlink:href="#IPAexGothic-2212"/>
       <use xlink:href="#IPAexGothic-31" transform="translate(67.822266 0)"/>
      </g>
     </g>
    </g>
    <g id="xtick_4">
     <g id="line2d_4">
      <g>
       <use xlink:href="#m4c6c915b60" x="377.292687" y="309.7375" style="stroke: #000000; stroke-width: 0.8"/>
      </g>
     </g>
     <g id="text_4">
      <!-- 0 -->
      <g transform="translate(374.143469 324.228125) scale(0.1 -0.1)">
       <defs>
        <path id="IPAexGothic-30" d="M 2038 4725 
Q 2881 4725 3334 3944 
Q 3694 3325 3694 2344 
Q 3694 1372 3334 741 
Q 2888 -31 2016 -31 
Q 1147 -31 700 741 
Q 341 1372 341 2350 
Q 341 3713 1000 4334 
Q 1419 4725 2038 4725 
z
M 2016 4266 
Q 1516 4266 1228 3759 
Q 934 3247 934 2344 
Q 934 1456 1222 947 
Q 1513 447 2016 447 
Q 2619 447 2909 1153 
Q 3100 1622 3100 2375 
Q 3100 3256 2806 3759 
Q 2509 4266 2016 4266 
z
" transform="scale(0.015625)"/>
       </defs>
       <use xlink:href="#IPAexGothic-30"/>
      </g>
     </g>
    </g>
    <g id="xtick_5">
     <g id="line2d_5">
      <g>
       <use xlink:href="#m4c6c915b60" x="461.714765" y="309.7375" style="stroke: #000000; stroke-width: 0.8"/>
      </g>
     </g>
     <g id="text_5">
      <!-- 1 -->
      <g transform="translate(458.565547 324.228125) scale(0.1 -0.1)">
       <use xlink:href="#IPAexGothic-31"/>
      </g>
     </g>
    </g>
    <g id="xtick_6">
     <g id="line2d_6">
      <g>
       <use xlink:href="#m4c6c915b60" x="546.136843" y="309.7375" style="stroke: #000000; stroke-width: 0.8"/>
      </g>
     </g>
     <g id="text_6">
      <!-- 2 -->
      <g transform="translate(542.987625 324.228125) scale(0.1 -0.1)">
       <use xlink:href="#IPAexGothic-32"/>
      </g>
     </g>
    </g>
    <g id="xtick_7">
     <g id="line2d_7">
      <g>
       <use xlink:href="#m4c6c915b60" x="630.558921" y="309.7375" style="stroke: #000000; stroke-width: 0.8"/>
      </g>
     </g>
     <g id="text_7">
      <!-- 3 -->
      <g transform="translate(627.409703 324.228125) scale(0.1 -0.1)">
       <use xlink:href="#IPAexGothic-33"/>
      </g>
     </g>
    </g>
    <g id="text_8">
     <!-- 入力 $x$ -->
     <g transform="translate(356.628688 340.914625) scale(0.144 -0.144)">
      <defs>
       <path id="IPAexGothic-5165" d="M 3275 3078 
Q 2806 619 819 -334 
L 447 91 
Q 2934 1156 3000 4550 
L 1472 4550 
L 1472 4984 
L 3525 4984 
L 3525 4728 
Q 3525 3053 4116 2041 
Q 4734 972 6022 275 
L 5650 -200 
Q 3697 1044 3275 3078 
z
" transform="scale(0.015625)"/>
       <path id="IPAexGothic-529b" d="M 3303 3944 
L 5653 3944 
Q 5622 1247 5428 356 
Q 5303 -231 4647 -231 
Q 4159 -231 3456 -147 
L 3381 416 
Q 4022 263 4456 263 
Q 4881 263 4947 616 
Q 5106 1509 5134 3303 
L 5141 3509 
L 3291 3509 
Q 3234 2200 2741 1281 
Q 2194 297 878 -416 
L 525 -6 
Q 2709 963 2778 3450 
L 641 3450 
L 641 3891 
L 2784 3891 
L 2784 5147 
L 3303 5147 
L 3303 3944 
z
" transform="scale(0.015625)"/>
       <path id="IPAexGothic-20" transform="scale(0.015625)"/>
       <path id="DejaVuSans-Oblique-78" d="M 3841 3500 
L 2234 1784 
L 3219 0 
L 2559 0 
L 1819 1388 
L 531 0 
L -166 0 
L 1556 1844 
L 641 3500 
L 1300 3500 
L 1972 2234 
L 3144 3500 
L 3841 3500 
z
" transform="scale(0.015625)"/>
      </defs>
      <use xlink:href="#IPAexGothic-5165" transform="translate(0 0.578125)"/>
      <use xlink:href="#IPAexGothic-529b" transform="translate(100 0.578125)"/>
      <use xlink:href="#IPAexGothic-20" transform="translate(200 0.578125)"/>
      <use xlink:href="#DejaVuSans-Oblique-78" transform="translate(227.001953 0.578125)"/>
     </g>
    </g>
   </g>
   <g id="matplotlib.axis_2">
    <g id="ytick_1">
     <g id="line2d_8">
      <defs>
       <path id="m1ec6ee660a" d="M 0 0 
L -3.5 0 
" style="stroke: #000000; stroke-width: 0.8"/>
      </defs>
      <g>
       <use xlink:href="#m1ec6ee660a" x="52.267688" y="288.027083" style="stroke: #000000; stroke-width: 0.8"/>
      </g>
     </g>
     <g id="text_9">
      <!-- −40 -->
      <g transform="translate(25.888 291.772396) scale(0.1 -0.1)">
       <defs>
        <path id="IPAexGothic-34" d="M 3813 1159 
L 3059 1159 
L 3059 63 
L 2547 63 
L 2547 1159 
L 197 1159 
L 197 1672 
L 2456 4678 
L 3059 4678 
L 3059 1634 
L 3813 1634 
L 3813 1159 
z
M 2578 4109 
L 2559 4109 
Q 2278 3656 2003 3284 
L 759 1634 
L 2547 1634 
L 2547 3144 
Q 2547 3481 2578 4109 
z
" transform="scale(0.015625)"/>
       </defs>
       <use xlink:href="#IPAexGothic-2212"/>
       <use xlink:href="#IPAexGothic-34" transform="translate(67.822266 0)"/>
       <use xlink:href="#IPAexGothic-30" transform="translate(130.810547 0)"/>
      </g>
     </g>
    </g>
    <g id="ytick_2">
     <g id="line2d_9">
      <g>
       <use xlink:href="#m1ec6ee660a" x="52.267688" y="240.533715" style="stroke: #000000; stroke-width: 0.8"/>
      </g>
     </g>
     <g id="text_10">
      <!-- −30 -->
      <g transform="translate(25.888 244.279028) scale(0.1 -0.1)">
       <use xlink:href="#IPAexGothic-2212"/>
       <use xlink:href="#IPAexGothic-33" transform="translate(67.822266 0)"/>
       <use xlink:href="#IPAexGothic-30" transform="translate(130.810547 0)"/>
      </g>
     </g>
    </g>
    <g id="ytick_3">
     <g id="line2d_10">
      <g>
       <use xlink:href="#m1ec6ee660a" x="52.267688" y="193.040347" style="stroke: #000000; stroke-width: 0.8"/>
      </g>
     </g>
     <g id="text_11">
      <!-- −20 -->
      <g transform="translate(25.888 196.78566) scale(0.1 -0.1)">
       <use xlink:href="#IPAexGothic-2212"/>
       <use xlink:href="#IPAexGothic-32" transform="translate(67.822266 0)"/>
       <use xlink:href="#IPAexGothic-30" transform="translate(130.810547 0)"/>
      </g>
     </g>
    </g>
    <g id="ytick_4">
     <g id="line2d_11">
      <g>
       <use xlink:href="#m1ec6ee660a" x="52.267688" y="145.546979" style="stroke: #000000; stroke-width: 0.8"/>
      </g>
     </g>
     <g id="text_12">
      <!-- −10 -->
      <g transform="translate(25.888 149.292292) scale(0.1 -0.1)">
       <use xlink:href="#IPAexGothic-2212"/>
       <use xlink:href="#IPAexGothic-31" transform="translate(67.822266 0)"/>
       <use xlink:href="#IPAexGothic-30" transform="translate(130.810547 0)"/>
      </g>
     </g>
    </g>
    <g id="ytick_5">
     <g id="line2d_12">
      <g>
       <use xlink:href="#m1ec6ee660a" x="52.267688" y="98.053611" style="stroke: #000000; stroke-width: 0.8"/>
      </g>
     </g>
     <g id="text_13">
      <!-- 0 -->
      <g transform="translate(38.96925 101.798924) scale(0.1 -0.1)">
       <use xlink:href="#IPAexGothic-30"/>
      </g>
     </g>
    </g>
    <g id="ytick_6">
     <g id="line2d_13">
      <g>
       <use xlink:href="#m1ec6ee660a" x="52.267688" y="50.560243" style="stroke: #000000; stroke-width: 0.8"/>
      </g>
     </g>
     <g id="text_14">
      <!-- 10 -->
      <g transform="translate(32.670813 54.305556) scale(0.1 -0.1)">
       <use xlink:href="#IPAexGothic-31"/>
       <use xlink:href="#IPAexGothic-30" transform="translate(62.988281 0)"/>
      </g>
     </g>
    </g>
    <g id="text_15">
     <!-- 出力 $y$ -->
     <g transform="translate(18.864 179.13275) rotate(-90) scale(0.144 -0.144)">
      <defs>
       <path id="IPAexGothic-51fa" d="M 3419 2956 
L 4928 2956 
L 4928 4500 
L 5397 4500 
L 5397 2203 
L 4928 2203 
L 4928 2541 
L 3419 2541 
L 3419 384 
L 5194 384 
L 5194 1813 
L 5653 1813 
L 5653 -447 
L 5194 -447 
L 5194 -31 
L 1203 -31 
L 1203 -447 
L 744 -447 
L 744 1813 
L 1203 1813 
L 1203 384 
L 2938 384 
L 2938 2541 
L 1459 2541 
L 1459 2203 
L 1000 2203 
L 1000 4500 
L 1459 4500 
L 1459 2956 
L 2938 2956 
L 2938 5144 
L 3419 5144 
L 3419 2956 
z
" transform="scale(0.015625)"/>
       <path id="DejaVuSans-Oblique-79" d="M 1588 -325 
Q 1188 -997 936 -1164 
Q 684 -1331 294 -1331 
L -159 -1331 
L -63 -850 
L 269 -850 
Q 509 -850 678 -719 
Q 847 -588 1056 -206 
L 1234 128 
L 459 3500 
L 1069 3500 
L 1650 819 
L 3256 3500 
L 3859 3500 
L 1588 -325 
z
" transform="scale(0.015625)"/>
      </defs>
      <use xlink:href="#IPAexGothic-51fa" transform="translate(0 0.578125)"/>
      <use xlink:href="#IPAexGothic-529b" transform="translate(100 0.578125)"/>
      <use xlink:href="#IPAexGothic-20" transform="translate(200 0.578125)"/>
      <use xlink:href="#DejaVuSans-Oblique-79" transform="translate(227.001953 0.578125)"/>
     </g>
    </g>
   </g>
   <g id="line2d_14">
    <path d="M 81.815415 295.804122 
L 89.721161 283.273015 
L 97.626908 271.267481 
L 105.532654 259.77582 
L 113.4384 248.786332 
L 121.344147 238.287315 
L 129.249893 228.267069 
L 137.15564 218.713893 
L 145.061386 209.616086 
L 152.967133 200.961948 
L 160.872879 192.739777 
L 168.778625 184.937874 
L 176.684372 177.544536 
L 184.590118 170.548064 
L 192.495865 163.936756 
L 200.401611 157.698912 
L 208.307358 151.822831 
L 216.213104 146.296812 
L 224.11885 141.109155 
L 232.024597 136.248158 
L 239.930343 131.702121 
L 247.83609 127.459343 
L 255.741836 123.508124 
L 263.647583 119.836762 
L 271.553329 116.433557 
L 279.459075 113.286808 
L 287.364822 110.384814 
L 295.270568 107.715875 
L 303.176315 105.268289 
L 311.082061 103.030356 
L 318.987808 100.990375 
L 328.869991 98.700944 
L 338.752174 96.679677 
L 348.634357 94.903722 
L 358.51654 93.350225 
L 368.398723 91.996334 
L 380.257342 90.602966 
L 392.115962 89.424631 
L 405.951018 88.269002 
L 423.738948 87.033359 
L 455.361933 85.141543 
L 477.102736 83.7415 
L 492.914229 82.510302 
L 506.749285 81.20269 
L 518.607905 79.860879 
L 530.466525 78.273383 
L 540.348708 76.734303 
L 550.230891 74.974332 
L 560.113074 72.970616 
L 569.995257 70.700303 
L 577.901003 68.676745 
L 585.80675 66.456238 
L 593.712496 64.027081 
L 601.618242 61.377573 
L 609.523989 58.496014 
L 617.429735 55.370702 
L 625.335482 51.989938 
L 633.241228 48.342019 
L 641.146975 44.415246 
L 649.052721 40.197917 
L 656.958467 35.678333 
L 664.864214 30.844791 
L 672.76996 25.685592 
L 672.76996 25.685592 
" clip-path="url(#p3e033e019e)" style="fill: none; stroke: #2ca02c; stroke-width: 2; stroke-linecap: square"/>
   </g>
   <g id="line2d_15">
    <path d="M 81.815415 187.168459 
L 672.76996 29.808132 
L 672.76996 29.808132 
" clip-path="url(#p3e033e019e)" style="fill: none; stroke-dasharray: 7.4,3.2; stroke-dashoffset: 0; stroke: #1f77b4; stroke-width: 2"/>
   </g>
   <g id="line2d_16">
    <path d="M 81.815415 295.985795 
L 89.721161 283.350872 
L 97.626908 271.254379 
L 105.532654 259.684128 
L 113.4384 248.62793 
L 121.344147 238.073597 
L 129.249893 228.00894 
L 135.179203 220.774466 
L 141.108513 213.803437 
L 147.037823 207.090711 
L 152.967133 200.631146 
L 158.896442 194.419601 
L 164.825752 188.450933 
L 170.755062 182.72 
L 176.684372 177.221661 
L 182.613682 171.950772 
L 190.519428 165.267847 
L 198.425175 158.967951 
L 206.330921 153.038894 
L 214.236667 147.468489 
L 222.142414 142.244547 
L 230.04816 137.35488 
L 237.953907 132.787299 
L 245.859653 128.529616 
L 253.7654 124.569643 
L 261.671146 120.895192 
L 269.576892 117.494073 
L 277.482639 114.354099 
L 285.388385 111.463081 
L 293.294132 108.808831 
L 301.199878 106.379161 
L 309.105625 104.161882 
L 317.011371 102.144805 
L 326.893554 99.886426 
L 336.775737 97.898014 
L 346.65792 96.155763 
L 356.540103 94.635869 
L 366.422286 93.314526 
L 378.280906 91.957483 
L 390.139525 90.810937 
L 403.974582 89.684466 
L 421.762511 88.469746 
L 479.079173 84.769313 
L 492.914229 83.565027 
L 504.772849 82.332514 
L 516.631468 80.871717 
L 526.513651 79.450325 
L 536.395834 77.818031 
L 546.278017 75.951029 
L 556.1602 73.825514 
L 564.065947 71.922975 
L 571.971693 69.827564 
L 579.87744 67.527092 
L 587.783186 65.009371 
L 595.688933 62.262213 
L 603.594679 59.273428 
L 611.500425 56.03083 
L 619.406172 52.522229 
L 627.311918 48.735437 
L 635.217665 44.658266 
L 643.123411 40.278528 
L 651.029158 35.584033 
L 658.934904 30.562593 
L 666.84065 25.202022 
L 672.76996 20.951705 
L 672.76996 20.951705 
" clip-path="url(#p3e033e019e)" style="fill: none; stroke: #d62728; stroke-width: 2; stroke-linecap: square"/>
   </g>
   <g id="legend_1">
    <g id="patch_3">
     <path d="M 66.667688 106.275 
L 184.625813 106.275 
Q 187.025813 106.275 187.025813 103.875 
L 187.025813 21.6 
Q 187.025813 19.2 184.625813 19.2 
L 66.667688 19.2 
Q 64.267688 19.2 64.267688 21.6 
L 64.267688 103.875 
Q 64.267688 106.275 66.667688 106.275 
z
" style="fill: #ffffff; opacity: 0.8; stroke: #cccccc; stroke-linejoin: miter"/>
    </g>
    <g id="PathCollection_2">
     <defs>
      <path id="m5d3ba383cc" d="M 0 4.472136 
C 1.186024 4.472136 2.323632 4.000923 3.162278 3.162278 
C 4.000923 2.323632 4.472136 1.186024 4.472136 0 
C 4.472136 -1.186024 4.000923 -2.323632 3.162278 -3.162278 
C 2.323632 -4.000923 1.186024 -4.472136 0 -4.472136 
C -1.186024 -4.472136 -2.323632 -4.000923 -3.162278 -3.162278 
C -4.000923 -2.323632 -4.472136 -1.186024 -4.472136 0 
C -4.472136 1.186024 -4.000923 2.323632 -3.162278 3.162278 
C -2.323632 4.000923 -1.186024 4.472136 0 4.472136 
z
" style="stroke: #ff7f0e; stroke-opacity: 0.6"/>
     </defs>
     <g>
      <use xlink:href="#m5d3ba383cc" x="81.067688" y="29.83875" style="fill: #ff7f0e; fill-opacity: 0.6; stroke: #ff7f0e; stroke-opacity: 0.6"/>
     </g>
    </g>
    <g id="text_16">
     <!-- 観測値 -->
     <g transform="translate(102.667687 32.98875) scale(0.12 -0.12)">
      <defs>
       <path id="IPAexGothic-89b3" d="M 1919 4369 
Q 1841 4025 1747 3725 
L 3150 3725 
L 3150 3372 
L 1619 3372 
Q 1459 2959 1294 2675 
L 1825 2675 
Q 1950 2972 2016 3250 
L 2406 3141 
Q 2294 2831 2203 2675 
L 3078 2675 
L 3078 2344 
L 2209 2344 
L 2209 1925 
L 2944 1925 
L 2944 1613 
L 2209 1613 
L 2209 1191 
L 2944 1191 
L 2944 878 
L 2209 878 
L 2209 422 
L 3109 422 
L 3109 91 
L 1191 91 
L 1191 -288 
L 806 -288 
L 806 1944 
Q 606 1666 441 1503 
L 213 1856 
Q 816 2478 1209 3372 
L 353 3372 
L 353 3725 
L 1350 3725 
Q 1453 4019 1538 4369 
L 1094 4369 
Q 916 4025 722 3794 
L 441 4081 
Q 863 4603 1044 5309 
L 1441 5241 
Q 1366 4997 1253 4722 
L 3053 4722 
L 3053 4369 
L 1919 4369 
z
M 1191 2344 
L 1191 1925 
L 1850 1925 
L 1850 2344 
L 1191 2344 
z
M 1191 1613 
L 1191 1191 
L 1850 1191 
L 1850 1613 
L 1191 1613 
z
M 1191 878 
L 1191 422 
L 1850 422 
L 1850 878 
L 1191 878 
z
M 5128 1638 
L 5128 238 
Q 5128 63 5397 63 
Q 5663 63 5709 216 
Q 5759 403 5778 966 
L 6163 806 
Q 6106 81 6028 -109 
Q 5925 -359 5363 -359 
Q 4719 -359 4719 6 
L 4719 1638 
L 4253 1638 
Q 4231 813 4003 372 
Q 3744 -113 3100 -441 
L 2813 -84 
Q 3444 184 3663 653 
Q 3834 1031 3841 1638 
L 3369 1638 
L 3369 5044 
L 5709 5044 
L 5709 1638 
L 5128 1638 
z
M 3778 4672 
L 3778 4031 
L 5306 4031 
L 5306 4672 
L 3778 4672 
z
M 3778 3672 
L 3778 3034 
L 5306 3034 
L 5306 3672 
L 3778 3672 
z
M 3778 2675 
L 3778 2009 
L 5306 2009 
L 5306 2675 
L 3778 2675 
z
" transform="scale(0.015625)"/>
       <path id="IPAexGothic-6e2c" d="M 3856 4884 
L 3856 1081 
L 2059 1081 
L 2059 4884 
L 3856 4884 
z
M 2456 4494 
L 2456 3756 
L 3459 3756 
L 3459 4494 
L 2456 4494 
z
M 2456 3384 
L 2456 2656 
L 3459 2656 
L 3459 3384 
L 2456 3384 
z
M 2456 2284 
L 2456 1478 
L 3459 1478 
L 3459 2284 
L 2456 2284 
z
M 1413 3891 
Q 1000 4428 556 4763 
L 856 5100 
Q 1309 4753 1734 4269 
L 1413 3891 
z
M 1222 2394 
Q 816 2878 325 3256 
L 625 3591 
Q 1141 3231 1528 2778 
L 1222 2394 
z
M 375 -78 
Q 916 800 1297 1906 
L 1669 1619 
Q 1284 478 759 -428 
L 375 -78 
z
M 3819 -256 
Q 3478 319 3128 716 
L 3469 966 
Q 3834 581 4172 63 
L 3819 -256 
z
M 4378 4513 
L 4806 4513 
L 4806 959 
L 4378 959 
L 4378 4513 
z
M 1638 -109 
Q 2103 300 2450 984 
L 2828 763 
Q 2425 -6 1944 -488 
L 1638 -109 
z
M 5419 5081 
L 5853 5081 
L 5853 109 
Q 5853 -391 5297 -391 
Q 4919 -391 4541 -359 
L 4441 109 
Q 4928 50 5219 50 
Q 5419 50 5419 244 
L 5419 5081 
z
" transform="scale(0.015625)"/>
       <path id="IPAexGothic-5024" d="M 4172 3675 
L 5453 3675 
L 5453 684 
L 3019 684 
L 3019 3675 
L 3750 3675 
Q 3788 3884 3825 4153 
L 2141 4153 
L 2141 4544 
L 3884 4544 
Q 3922 4844 3966 5325 
L 4434 5272 
L 4388 4953 
Q 4331 4578 4331 4544 
L 5863 4544 
L 5863 4153 
L 4269 4153 
Q 4200 3781 4172 3675 
z
M 5038 3316 
L 3434 3316 
L 3434 2803 
L 5038 2803 
L 5038 3316 
z
M 3434 2450 
L 3434 1941 
L 5038 1941 
L 5038 2450 
L 3434 2450 
z
M 3434 1588 
L 3434 1044 
L 5038 1044 
L 5038 1588 
L 3434 1588 
z
M 1509 3669 
L 1509 -447 
L 1069 -447 
L 1069 2725 
Q 856 2338 531 1875 
L 288 2266 
Q 1163 3531 1541 5325 
L 1975 5222 
Q 1791 4378 1509 3669 
z
M 2488 244 
L 6031 244 
L 6031 -153 
L 2488 -153 
L 2488 -447 
L 2059 -447 
L 2059 3213 
L 2488 3213 
L 2488 244 
z
" transform="scale(0.015625)"/>
      </defs>
      <use xlink:href="#IPAexGothic-89b3"/>
      <use xlink:href="#IPAexGothic-6e2c" transform="translate(100 0)"/>
      <use xlink:href="#IPAexGothic-5024" transform="translate(200 0)"/>
     </g>
    </g>
    <g id="line2d_17">
     <path d="M 69.067688 50.8575 
L 81.067688 50.8575 
L 93.067688 50.8575 
" style="fill: none; stroke: #2ca02c; stroke-width: 2; stroke-linecap: square"/>
    </g>
    <g id="text_17">
     <!-- 真の関数 -->
     <g transform="translate(102.667687 55.0575) scale(0.12 -0.12)">
      <defs>
       <path id="IPAexGothic-771f" d="M 3409 3950 
L 5106 3950 
L 5106 1491 
L 1284 1491 
L 1284 3950 
L 2944 3950 
L 2944 4356 
L 606 4356 
L 606 4722 
L 2944 4722 
L 2944 5309 
L 3409 5309 
L 3409 4722 
L 5784 4722 
L 5784 4356 
L 3409 4356 
L 3409 3950 
z
M 4659 3609 
L 1731 3609 
L 1731 3238 
L 4659 3238 
L 4659 3609 
z
M 1731 2919 
L 1731 2547 
L 4659 2547 
L 4659 2919 
L 1731 2919 
z
M 1731 2234 
L 1731 1838 
L 4659 1838 
L 4659 2234 
L 1731 2234 
z
M 313 1141 
L 6078 1141 
L 6078 763 
L 313 763 
L 313 1141 
z
M 441 -97 
Q 1488 219 2291 738 
L 2713 469 
Q 1803 -122 794 -500 
L 441 -97 
z
M 5503 -384 
Q 4628 88 3622 459 
L 4006 750 
Q 4981 434 5906 13 
L 5503 -384 
z
" transform="scale(0.015625)"/>
       <path id="IPAexGothic-306e" d="M 3119 469 
Q 5275 766 5275 2425 
Q 5275 3453 4413 3925 
Q 4041 4116 3547 4159 
Q 3394 2525 2850 1400 
Q 2322 306 1722 306 
Q 1384 306 1084 666 
Q 609 1244 609 2003 
Q 609 3025 1397 3794 
Q 2184 4563 3431 4563 
Q 4306 4563 4928 4122 
Q 5813 3506 5813 2425 
Q 5813 438 3431 6 
L 3119 469 
z
M 3053 4147 
Q 2378 4044 1891 3641 
Q 1097 2981 1097 1991 
Q 1097 1366 1434 978 
Q 1581 813 1719 813 
Q 2022 813 2416 1625 
Q 2909 2638 3053 4147 
z
" transform="scale(0.015625)"/>
       <path id="IPAexGothic-95a2" d="M 2919 5063 
L 2919 3288 
L 1016 3288 
L 1016 -450 
L 569 -450 
L 569 5063 
L 2919 5063 
z
M 1016 4709 
L 1016 4331 
L 2509 4331 
L 2509 4709 
L 1016 4709 
z
M 1016 4019 
L 1016 3628 
L 2509 3628 
L 2509 4019 
L 1016 4019 
z
M 5822 5063 
L 5822 44 
Q 5822 -409 5297 -409 
Q 4956 -409 4672 -366 
L 4594 97 
Q 4841 31 5156 31 
Q 5369 31 5369 244 
L 5369 3288 
L 3422 3288 
L 3422 5063 
L 5822 5063 
z
M 3831 4709 
L 3831 4331 
L 5369 4331 
L 5369 4709 
L 3831 4709 
z
M 3831 4019 
L 3831 3628 
L 5369 3628 
L 5369 4019 
L 3831 4019 
z
M 2425 2478 
Q 2328 2713 2150 2975 
L 2559 3122 
Q 2709 2866 2859 2478 
L 3525 2478 
Q 3716 2847 3806 3147 
L 4256 3022 
Q 4084 2669 3953 2478 
L 4766 2478 
L 4766 2113 
L 3391 2113 
L 3391 1672 
L 4928 1672 
L 4928 1300 
L 3366 1300 
Q 3363 1263 3334 1141 
Q 4016 863 4734 409 
L 4428 34 
Q 3888 441 3281 763 
Q 3278 766 3241 788 
Q 3225 797 3219 800 
Q 2881 100 1875 -256 
L 1588 122 
Q 2769 409 2931 1300 
L 1466 1300 
L 1466 1672 
L 2963 1672 
L 2963 2113 
L 1625 2113 
L 1625 2478 
L 2425 2478 
z
" transform="scale(0.015625)"/>
       <path id="IPAexGothic-6570" d="M 2847 1553 
Q 2741 1006 2425 534 
Q 2625 441 3091 203 
L 2809 -188 
Q 2541 0 2144 209 
Q 1569 -291 703 -500 
L 422 -125 
Q 1263 19 1747 406 
Q 1222 650 734 816 
Q 975 1172 1147 1503 
L 1172 1553 
L 359 1553 
L 359 1925 
L 1344 1925 
Q 1406 2066 1569 2475 
L 1691 2450 
L 1691 3372 
Q 1250 2738 550 2303 
L 275 2663 
Q 1019 3013 1528 3641 
L 378 3641 
L 378 4006 
L 1691 4006 
L 1691 5313 
L 2113 5313 
L 2113 4006 
L 3297 4006 
L 3297 3641 
L 2113 3641 
L 2113 3513 
Q 2659 3291 3175 2963 
L 2956 2584 
Q 2553 2922 2113 3159 
L 2113 2372 
L 1966 2372 
Q 1928 2288 1872 2141 
Q 1806 1975 1784 1925 
L 3378 1925 
L 3378 1553 
L 2847 1553 
z
M 2419 1553 
L 1613 1553 
Q 1478 1269 1313 997 
Q 1559 909 2047 703 
Q 2313 1047 2419 1553 
z
M 4363 1163 
Q 3953 1781 3738 2638 
Q 3575 2281 3428 2016 
L 3103 2406 
Q 3675 3444 3916 5291 
L 4363 5200 
Q 4284 4666 4197 4197 
L 6009 4197 
L 6009 3775 
L 5503 3775 
Q 5397 2275 4869 1191 
Q 5419 503 6144 75 
L 5822 -378 
Q 5188 106 4631 788 
Q 4113 34 3341 -463 
L 3031 -78 
Q 3888 406 4363 1163 
z
M 4588 1594 
Q 4938 2388 5059 3775 
L 4100 3775 
Q 4041 3519 3972 3288 
Q 3981 3250 3991 3194 
Q 4175 2256 4588 1594 
z
M 1003 4116 
Q 878 4544 638 4934 
L 1053 5094 
Q 1247 4788 1438 4269 
L 1003 4116 
z
M 2316 4269 
Q 2550 4688 2688 5131 
L 3128 4997 
Q 2966 4588 2675 4128 
L 2316 4269 
z
" transform="scale(0.015625)"/>
      </defs>
      <use xlink:href="#IPAexGothic-771f"/>
      <use xlink:href="#IPAexGothic-306e" transform="translate(100 0)"/>
      <use xlink:href="#IPAexGothic-95a2" transform="translate(200 0)"/>
      <use xlink:href="#IPAexGothic-6570" transform="translate(300 0)"/>
     </g>
    </g>
    <g id="line2d_18">
     <path d="M 69.067688 72.92625 
L 81.067688 72.92625 
L 93.067688 72.92625 
" style="fill: none; stroke-dasharray: 7.4,3.2; stroke-dashoffset: 0; stroke: #1f77b4; stroke-width: 2"/>
    </g>
    <g id="text_18">
     <!-- 線形回帰 -->
     <g transform="translate(102.667687 77.12625) scale(0.12 -0.12)">
      <defs>
       <path id="IPAexGothic-7dda" d="M 1247 3078 
Q 838 3659 378 4122 
L 666 4428 
Q 788 4306 916 4153 
Q 1281 4681 1541 5331 
L 1956 5119 
Q 1553 4391 1156 3866 
Q 1394 3547 1478 3419 
Q 1863 3991 2156 4550 
L 2541 4313 
Q 1859 3213 1319 2572 
Q 1700 2581 2266 2631 
Q 2169 2872 2016 3150 
L 2366 3303 
Q 2675 2750 2884 2106 
L 2500 1919 
Q 2494 1947 2378 2322 
Q 2147 2281 1791 2234 
L 1791 -447 
L 1369 -447 
L 1369 2181 
Q 975 2134 428 2106 
L 281 2534 
Q 722 2544 863 2553 
Q 947 2666 1247 3078 
z
M 4678 1553 
L 4678 25 
Q 4678 -231 4569 -319 
Q 4472 -397 4225 -397 
Q 3991 -397 3725 -366 
L 3659 56 
Q 3891 13 4122 13 
Q 4275 13 4275 184 
L 4275 2444 
L 3116 2444 
L 3116 4691 
L 4019 4691 
Q 4091 4934 4178 5356 
L 4647 5278 
Q 4506 4884 4416 4691 
L 5772 4691 
L 5772 2444 
L 4697 2444 
Q 4803 1978 5025 1594 
Q 5416 1984 5644 2316 
L 6003 2047 
Q 5578 1584 5216 1288 
Q 5609 738 6213 269 
L 5938 -116 
Q 5056 606 4678 1553 
z
M 3531 4331 
L 3531 3756 
L 5356 3756 
L 5356 4331 
L 3531 4331 
z
M 3531 3403 
L 3531 2803 
L 5356 2803 
L 5356 3403 
L 3531 3403 
z
M 353 206 
Q 566 769 653 1759 
L 1063 1709 
Q 984 678 769 -13 
L 353 206 
z
M 2322 428 
Q 2222 1150 2009 1759 
L 2375 1869 
Q 2581 1366 2738 616 
L 2322 428 
z
M 2834 1925 
L 3950 1925 
L 4153 1747 
Q 3781 534 2878 -231 
L 2578 69 
Q 3359 666 3666 1541 
L 2834 1541 
L 2834 1925 
z
" transform="scale(0.015625)"/>
       <path id="IPAexGothic-5f62" d="M 2856 4488 
L 2856 2859 
L 3744 2859 
L 3744 2456 
L 2875 2456 
L 2875 -384 
L 2434 -384 
L 2434 2456 
L 1653 2456 
L 1653 2394 
Q 1653 1425 1466 759 
Q 1266 59 756 -525 
L 425 -181 
Q 1213 666 1213 2341 
L 1213 2456 
L 322 2456 
L 322 2859 
L 1213 2859 
L 1213 4488 
L 481 4488 
L 481 4891 
L 3609 4891 
L 3609 4488 
L 2856 4488 
z
M 2416 4488 
L 1653 4488 
L 1653 2859 
L 2416 2859 
L 2416 4488 
z
M 3369 6 
Q 4859 738 5728 2203 
L 6144 1966 
Q 5216 403 3688 -384 
L 3369 6 
z
M 3334 3425 
Q 4566 4031 5197 5141 
L 5634 4909 
Q 4872 3697 3650 3066 
L 3334 3425 
z
M 3303 1728 
Q 4684 2331 5472 3706 
L 5888 3481 
Q 5025 2031 3609 1338 
L 3303 1728 
z
" transform="scale(0.015625)"/>
       <path id="IPAexGothic-56de" d="M 4519 3647 
L 4519 1178 
L 1875 1178 
L 1875 3647 
L 4519 3647 
z
M 2328 3250 
L 2328 1575 
L 4066 1575 
L 4066 3250 
L 2328 3250 
z
M 5722 4891 
L 5722 -456 
L 5247 -456 
L 5247 -103 
L 1147 -103 
L 1147 -456 
L 672 -456 
L 672 4891 
L 5722 4891 
z
M 1147 4475 
L 1147 313 
L 5247 313 
L 5247 4475 
L 1147 4475 
z
" transform="scale(0.015625)"/>
       <path id="IPAexGothic-5e30" d="M 5472 5044 
L 5472 3109 
L 2541 3109 
L 2541 3481 
L 5031 3481 
L 5031 3909 
L 2700 3909 
L 2700 4269 
L 5031 4269 
L 5031 4672 
L 2559 4672 
L 2559 5044 
L 5472 5044 
z
M 6022 2675 
L 6022 1631 
L 5594 1631 
L 5594 2297 
L 4244 2297 
L 4244 1784 
L 5503 1784 
L 5503 384 
Q 5503 -19 5056 -19 
Q 4809 -19 4488 13 
L 4441 428 
Q 4719 378 4928 378 
Q 5088 378 5088 544 
L 5088 1419 
L 4244 1419 
L 4244 -447 
L 3816 -447 
L 3816 1419 
L 3091 1419 
L 3091 -97 
L 2675 -97 
L 2675 1784 
L 3816 1784 
L 3816 2297 
L 2584 2297 
L 2584 1631 
L 2156 1631 
L 2156 2675 
L 6022 2675 
z
M 634 4441 
L 1063 4441 
L 1063 1869 
L 634 1869 
L 634 4441 
z
M 1484 5209 
L 1931 5209 
L 1931 3109 
Q 1931 1747 1722 1019 
Q 1463 153 819 -513 
L 506 -122 
Q 1072 388 1313 1216 
Q 1484 1841 1484 2975 
L 1484 5209 
z
" transform="scale(0.015625)"/>
      </defs>
      <use xlink:href="#IPAexGothic-7dda"/>
      <use xlink:href="#IPAexGothic-5f62" transform="translate(100 0)"/>
      <use xlink:href="#IPAexGothic-56de" transform="translate(200 0)"/>
      <use xlink:href="#IPAexGothic-5e30" transform="translate(300 0)"/>
     </g>
    </g>
    <g id="line2d_19">
     <path d="M 69.067688 94.995 
L 81.067688 94.995 
L 93.067688 94.995 
" style="fill: none; stroke: #d62728; stroke-width: 2; stroke-linecap: square"/>
    </g>
    <g id="text_19">
     <!-- 3次多項式回帰 -->
     <g transform="translate(102.667687 99.195) scale(0.12 -0.12)">
      <defs>
       <path id="IPAexGothic-6b21" d="M 3519 3750 
L 2950 3750 
Q 2678 3041 2231 2444 
L 1853 2772 
Q 2600 3756 2878 5184 
L 3353 5094 
Q 3241 4603 3103 4166 
L 5541 4166 
L 5841 3928 
Q 5406 2903 4906 2222 
L 4484 2481 
Q 4963 3072 5247 3750 
L 3994 3750 
L 3994 3263 
Q 3994 1384 6028 91 
L 5681 -353 
Q 4166 622 3794 2194 
Q 3669 1413 3391 922 
Q 2903 72 1931 -488 
L 1613 -72 
Q 3519 888 3519 3359 
L 3519 3750 
z
M 1438 3200 
Q 959 3884 509 4294 
L 881 4628 
Q 1413 4153 1841 3597 
L 1438 3200 
z
M 325 250 
Q 984 938 1600 2003 
L 1950 1656 
Q 1319 538 697 -184 
L 325 250 
z
" transform="scale(0.015625)"/>
       <path id="IPAexGothic-591a" d="M 3719 794 
Q 3313 1209 2834 1550 
Q 2309 1216 1638 984 
L 1350 1350 
Q 2997 1878 3969 3134 
L 4397 3022 
Q 4206 2759 4116 2656 
L 5563 2656 
L 5803 2425 
Q 4853 913 3700 281 
Q 2784 -209 1331 -447 
L 1025 0 
Q 2738 163 3719 794 
z
M 4097 1063 
L 4128 1088 
Q 4831 1650 5150 2259 
L 3744 2259 
Q 3447 1981 3181 1784 
Q 3625 1481 4097 1063 
z
M 2681 3072 
Q 2297 3456 1881 3763 
Q 1547 3528 1044 3269 
L 747 3622 
Q 2097 4191 2872 5313 
L 3309 5153 
Q 3116 4903 3028 4800 
L 4588 4800 
L 4813 4581 
Q 3981 3331 2791 2650 
Q 1925 2153 728 1856 
L 422 2259 
Q 1844 2541 2681 3072 
z
M 3059 3341 
Q 3747 3850 4141 4409 
L 2669 4409 
Q 2425 4178 2206 4000 
Q 2641 3709 3059 3341 
z
" transform="scale(0.015625)"/>
       <path id="IPAexGothic-9805" d="M 4281 4031 
L 5613 4031 
L 5613 788 
L 4756 788 
Q 5431 478 6131 -44 
L 5797 -428 
Q 5100 141 4409 488 
L 4747 788 
L 2828 788 
L 2828 4031 
L 3866 4031 
Q 3944 4300 4006 4647 
L 2444 4647 
L 2444 5056 
L 5978 5056 
L 5978 4647 
L 4472 4647 
Q 4388 4309 4281 4031 
z
M 5178 3647 
L 3263 3647 
L 3263 3084 
L 5178 3084 
L 5178 3647 
z
M 3263 2706 
L 3263 2138 
L 5178 2138 
L 5178 2706 
L 3263 2706 
z
M 3263 1766 
L 3263 1172 
L 5178 1172 
L 5178 1766 
L 3263 1766 
z
M 1644 4006 
L 1644 1538 
Q 2097 1694 2541 1863 
L 2597 1478 
Q 1822 1122 447 659 
L 250 1113 
Q 816 1269 1134 1369 
L 1191 1388 
L 1191 4006 
L 378 4006 
L 378 4434 
L 2516 4434 
L 2516 4006 
L 1644 4006 
z
M 2131 -153 
Q 2997 203 3547 781 
L 3925 513 
Q 3381 -59 2484 -519 
L 2131 -153 
z
" transform="scale(0.015625)"/>
       <path id="IPAexGothic-5f0f" d="M 3975 4006 
L 5922 4006 
L 5922 3591 
L 4013 3591 
Q 4119 2525 4244 2094 
Q 4544 1028 4988 528 
Q 5234 253 5331 253 
Q 5484 253 5628 1209 
L 6056 928 
Q 5834 -350 5403 -350 
Q 5191 -350 4834 -13 
Q 3794 981 3534 3559 
L 481 3559 
L 481 3981 
L 3497 3981 
Q 3444 4603 3425 5306 
L 3900 5306 
Q 3928 4616 3975 4006 
z
M 2309 2222 
L 2309 775 
L 2516 806 
Q 2938 881 3691 1038 
L 3731 666 
Q 2284 291 641 31 
L 494 494 
Q 1434 628 1850 697 
L 1850 2222 
L 775 2222 
L 775 2631 
L 3384 2631 
L 3384 2222 
L 2309 2222 
z
M 5056 4141 
Q 4759 4631 4391 4997 
L 4763 5222 
Q 5150 4834 5434 4403 
L 5056 4141 
z
" transform="scale(0.015625)"/>
      </defs>
      <use xlink:href="#IPAexGothic-33"/>
      <use xlink:href="#IPAexGothic-6b21" transform="translate(62.988281 0)"/>
      <use xlink:href="#IPAexGothic-591a" transform="translate(162.988281 0)"/>
      <use xlink:href="#IPAexGothic-9805" transform="translate(262.988281 0)"/>
      <use xlink:href="#IPAexGothic-5f0f" transform="translate(362.988281 0)"/>
      <use xlink:href="#IPAexGothic-56de" transform="translate(462.988281 0)"/>
      <use xlink:href="#IPAexGothic-5e30" transform="translate(562.988281 0)"/>
     </g>
    </g>
   </g>
  </g>
 </g>
 <defs>
  <clipPath id="p3e033e019e">
   <rect x="52.267688" y="7.2" width="650.05" height="302.5375"/>
  </clipPath>
 </defs>
</svg>
