<?xml version="1.0" encoding="utf-8" standalone="no"?>
<!DOCTYPE svg PUBLIC "-//W3C//DTD SVG 1.1//EN"
  "http://www.w3.org/Graphics/SVG/1.1/DTD/svg11.dtd">
<svg xmlns:xlink="http://www.w3.org/1999/xlink" width="854.723062pt" height="277.864375pt" viewBox="0 0 854.723062 277.864375" xmlns="http://www.w3.org/2000/svg" version="1.1">
 <metadata>
  <rdf:RDF xmlns:dc="http://purl.org/dc/elements/1.1/" xmlns:cc="http://creativecommons.org/ns#" xmlns:rdf="http://www.w3.org/1999/02/22-rdf-syntax-ns#">
   <cc:Work>
    <dc:type rdf:resource="http://purl.org/dc/dcmitype/StillImage"/>
    <dc:date>2025-10-29T12:35:05.436947</dc:date>
    <dc:format>image/svg+xml</dc:format>
    <dc:creator>
     <cc:Agent>
      <dc:title>Matplotlib v3.10.7, https://matplotlib.org/</dc:title>
     </cc:Agent>
    </dc:creator>
   </cc:Work>
  </rdf:RDF>
 </metadata>
 <defs>
  <style type="text/css">*{stroke-linejoin: round; stroke-linecap: butt}</style>
 </defs>
 <g id="figure_1">
  <g id="patch_1">
   <path d="M 0 277.864375 
L 854.723062 277.864375 
L 854.723062 0 
L 0 0 
z
" style="fill: #ffffff"/>
  </g>
  <g id="axes_1">
   <g id="patch_2">
    <path d="M 47.983063 234.57775 
L 847.523063 234.57775 
L 847.523063 7.323524 
L 47.983063 7.323524 
z
" style="fill: #ffffff"/>
   </g>
   <g id="patch_3">
    <path d="M 84.32579 234.57775 
L 102.963086 234.57775 
L 102.963086 231.985861 
L 84.32579 231.985861 
z
" clip-path="url(#p90ff8df75c)" style="fill: #264653"/>
   </g>
   <g id="patch_4">
    <path d="M 158.874974 234.57775 
L 177.51227 234.57775 
L 177.51227 232.040894 
L 158.874974 232.040894 
z
" clip-path="url(#p90ff8df75c)" style="fill: #264653"/>
   </g>
   <g id="patch_5">
    <path d="M 233.424158 234.57775 
L 252.061454 234.57775 
L 252.061454 18.145154 
L 233.424158 18.145154 
z
" clip-path="url(#p90ff8df75c)" style="fill: #264653"/>
   </g>
   <g id="patch_6">
    <path d="M 307.973342 234.57775 
L 326.610638 234.57775 
L 326.610638 198.255147 
L 307.973342 198.255147 
z
" clip-path="url(#p90ff8df75c)" style="fill: #264653"/>
   </g>
   <g id="patch_7">
    <path d="M 382.522526 234.57775 
L 401.159822 234.57775 
L 401.159822 231.512943 
L 382.522526 231.512943 
z
" clip-path="url(#p90ff8df75c)" style="fill: #264653"/>
   </g>
   <g id="patch_8">
    <path d="M 457.071711 234.57775 
L 475.709007 234.57775 
L 475.709007 231.928516 
L 457.071711 231.928516 
z
" clip-path="url(#p90ff8df75c)" style="fill: #264653"/>
   </g>
   <g id="patch_9">
    <path d="M 531.620895 234.57775 
L 550.258191 234.57775 
L 550.258191 232.060777 
L 531.620895 232.060777 
z
" clip-path="url(#p90ff8df75c)" style="fill: #264653"/>
   </g>
   <g id="patch_10">
    <path d="M 606.170079 234.57775 
L 624.807375 234.57775 
L 624.807375 229.104956 
L 606.170079 229.104956 
z
" clip-path="url(#p90ff8df75c)" style="fill: #264653"/>
   </g>
   <g id="patch_11">
    <path d="M 680.719263 234.57775 
L 699.356559 234.57775 
L 699.356559 233.960344 
L 680.719263 233.960344 
z
" clip-path="url(#p90ff8df75c)" style="fill: #264653"/>
   </g>
   <g id="patch_12">
    <path d="M 755.268447 234.57775 
L 773.905743 234.57775 
L 773.905743 231.624897 
L 755.268447 231.624897 
z
" clip-path="url(#p90ff8df75c)" style="fill: #264653"/>
   </g>
   <g id="patch_13">
    <path d="M 102.963086 234.57775 
L 121.600382 234.57775 
L 121.600382 234.561537 
L 102.963086 234.561537 
z
" clip-path="url(#p90ff8df75c)" style="fill: #2a9d8f"/>
   </g>
   <g id="patch_14">
    <path d="M 177.51227 234.57775 
L 196.149566 234.57775 
L 196.149566 234.56208 
L 177.51227 234.56208 
z
" clip-path="url(#p90ff8df75c)" style="fill: #2a9d8f"/>
   </g>
   <g id="patch_15">
    <path d="M 252.061454 234.57775 
L 270.69875 234.57775 
L 270.69875 122.940336 
L 252.061454 122.940336 
z
" clip-path="url(#p90ff8df75c)" style="fill: #2a9d8f"/>
   </g>
   <g id="patch_16">
    <path d="M 326.610638 234.57775 
L 345.247934 234.57775 
L 345.247934 216.043692 
L 326.610638 216.043692 
z
" clip-path="url(#p90ff8df75c)" style="fill: #2a9d8f"/>
   </g>
   <g id="patch_17">
    <path d="M 401.159822 234.57775 
L 419.797118 234.57775 
L 419.797118 234.558187 
L 401.159822 234.558187 
z
" clip-path="url(#p90ff8df75c)" style="fill: #2a9d8f"/>
   </g>
   <g id="patch_18">
    <path d="M 475.709007 234.57775 
L 494.346303 234.57775 
L 494.346303 234.490625 
L 475.709007 234.490625 
z
" clip-path="url(#p90ff8df75c)" style="fill: #2a9d8f"/>
   </g>
   <g id="patch_19">
    <path d="M 550.258191 234.57775 
L 568.895487 234.57775 
L 568.895487 234.576825 
L 550.258191 234.576825 
z
" clip-path="url(#p90ff8df75c)" style="fill: #2a9d8f"/>
   </g>
   <g id="patch_20">
    <path d="M 624.807375 234.57775 
L 643.444671 234.57775 
L 643.444671 124.746493 
L 624.807375 124.746493 
z
" clip-path="url(#p90ff8df75c)" style="fill: #2a9d8f"/>
   </g>
   <g id="patch_21">
    <path d="M 699.356559 234.57775 
L 717.993855 234.57775 
L 717.993855 216.265835 
L 699.356559 216.265835 
z
" clip-path="url(#p90ff8df75c)" style="fill: #2a9d8f"/>
   </g>
   <g id="patch_22">
    <path d="M 773.905743 234.57775 
L 792.543039 234.57775 
L 792.543039 234.50216 
L 773.905743 234.50216 
z
" clip-path="url(#p90ff8df75c)" style="fill: #2a9d8f"/>
   </g>
   <g id="patch_23">
    <path d="M 121.600382 234.57775 
L 140.237678 234.57775 
L 140.237678 234.57775 
L 121.600382 234.57775 
z
" clip-path="url(#p90ff8df75c)" style="fill: #e9c46a"/>
   </g>
   <g id="patch_24">
    <path d="M 196.149566 234.57775 
L 214.786862 234.57775 
L 214.786862 234.57775 
L 196.149566 234.57775 
z
" clip-path="url(#p90ff8df75c)" style="fill: #e9c46a"/>
   </g>
   <g id="patch_25">
    <path d="M 270.69875 234.57775 
L 289.336046 234.57775 
L 289.336046 36.382273 
L 270.69875 36.382273 
z
" clip-path="url(#p90ff8df75c)" style="fill: #e9c46a"/>
   </g>
   <g id="patch_26">
    <path d="M 345.247934 234.57775 
L 363.88523 234.57775 
L 363.88523 220.851548 
L 345.247934 220.851548 
z
" clip-path="url(#p90ff8df75c)" style="fill: #e9c46a"/>
   </g>
   <g id="patch_27">
    <path d="M 419.797118 234.57775 
L 438.434414 234.57775 
L 438.434414 234.57775 
L 419.797118 234.57775 
z
" clip-path="url(#p90ff8df75c)" style="fill: #e9c46a"/>
   </g>
   <g id="patch_28">
    <path d="M 494.346303 234.57775 
L 512.983599 234.57775 
L 512.983599 234.57775 
L 494.346303 234.57775 
z
" clip-path="url(#p90ff8df75c)" style="fill: #e9c46a"/>
   </g>
   <g id="patch_29">
    <path d="M 568.895487 234.57775 
L 587.532783 234.57775 
L 587.532783 234.57775 
L 568.895487 234.57775 
z
" clip-path="url(#p90ff8df75c)" style="fill: #e9c46a"/>
   </g>
   <g id="patch_30">
    <path d="M 643.444671 234.57775 
L 662.081967 234.57775 
L 662.081967 234.072785 
L 643.444671 234.072785 
z
" clip-path="url(#p90ff8df75c)" style="fill: #e9c46a"/>
   </g>
   <g id="patch_31">
    <path d="M 717.993855 234.57775 
L 736.631151 234.57775 
L 736.631151 234.57775 
L 717.993855 234.57775 
z
" clip-path="url(#p90ff8df75c)" style="fill: #e9c46a"/>
   </g>
   <g id="patch_32">
    <path d="M 792.543039 234.57775 
L 811.180335 234.57775 
L 811.180335 234.57775 
L 792.543039 234.57775 
z
" clip-path="url(#p90ff8df75c)" style="fill: #e9c46a"/>
   </g>
   <g id="matplotlib.axis_1">
    <g id="xtick_1">
     <g id="line2d_1">
      <path d="M 112.281734 234.57775 
L 112.281734 7.323524 
" clip-path="url(#p90ff8df75c)" style="fill: none; stroke: #000000; stroke-opacity: 0.3; stroke-width: 0.5; stroke-linecap: square"/>
     </g>
     <g id="line2d_2">
      <defs>
       <path id="m0c53bbc240" d="M 0 0 
L 0 3.5 
" style="stroke: #000000; stroke-width: 0.8"/>
      </defs>
      <g>
       <use xlink:href="#m0c53bbc240" x="112.281734" y="234.57775" style="stroke: #000000; stroke-width: 0.8"/>
      </g>
     </g>
     <g id="text_1">
      <!-- 0 -->
      <g transform="translate(109.132515 249.068375) scale(0.1 -0.1)">
       <defs>
        <path id="IPAexGothic-30" d="M 2038 4725 
Q 2881 4725 3334 3944 
Q 3694 3325 3694 2344 
Q 3694 1372 3334 741 
Q 2888 -31 2016 -31 
Q 1147 -31 700 741 
Q 341 1372 341 2350 
Q 341 3713 1000 4334 
Q 1419 4725 2038 4725 
z
M 2016 4266 
Q 1516 4266 1228 3759 
Q 934 3247 934 2344 
Q 934 1456 1222 947 
Q 1513 447 2016 447 
Q 2619 447 2909 1153 
Q 3100 1622 3100 2375 
Q 3100 3256 2806 3759 
Q 2509 4266 2016 4266 
z
" transform="scale(0.015625)"/>
       </defs>
       <use xlink:href="#IPAexGothic-30"/>
      </g>
     </g>
    </g>
    <g id="xtick_2">
     <g id="line2d_3">
      <path d="M 261.380102 234.57775 
L 261.380102 7.323524 
" clip-path="url(#p90ff8df75c)" style="fill: none; stroke: #000000; stroke-opacity: 0.3; stroke-width: 0.5; stroke-linecap: square"/>
     </g>
     <g id="line2d_4">
      <g>
       <use xlink:href="#m0c53bbc240" x="261.380102" y="234.57775" style="stroke: #000000; stroke-width: 0.8"/>
      </g>
     </g>
     <g id="text_2">
      <!-- 2 -->
      <g transform="translate(258.230883 249.068375) scale(0.1 -0.1)">
       <defs>
        <path id="IPAexGothic-32" d="M 3659 63 
L 447 63 
L 447 594 
Q 825 1475 1894 2203 
L 2072 2322 
Q 2619 2697 2791 2906 
Q 2988 3153 2988 3444 
Q 2988 3772 2756 4003 
Q 2500 4259 2084 4259 
Q 1250 4259 991 3328 
L 497 3506 
Q 853 4725 2116 4725 
Q 2806 4725 3216 4316 
Q 3575 3947 3575 3425 
Q 3575 3038 3344 2722 
Q 3131 2416 2366 1938 
L 2231 1856 
Q 1256 1253 978 569 
L 3659 569 
L 3659 63 
z
" transform="scale(0.015625)"/>
       </defs>
       <use xlink:href="#IPAexGothic-32"/>
      </g>
     </g>
    </g>
    <g id="xtick_3">
     <g id="line2d_5">
      <path d="M 410.47847 234.57775 
L 410.47847 7.323524 
" clip-path="url(#p90ff8df75c)" style="fill: none; stroke: #000000; stroke-opacity: 0.3; stroke-width: 0.5; stroke-linecap: square"/>
     </g>
     <g id="line2d_6">
      <g>
       <use xlink:href="#m0c53bbc240" x="410.47847" y="234.57775" style="stroke: #000000; stroke-width: 0.8"/>
      </g>
     </g>
     <g id="text_3">
      <!-- 4 -->
      <g transform="translate(407.329252 249.068375) scale(0.1 -0.1)">
       <defs>
        <path id="IPAexGothic-34" d="M 3813 1159 
L 3059 1159 
L 3059 63 
L 2547 63 
L 2547 1159 
L 197 1159 
L 197 1672 
L 2456 4678 
L 3059 4678 
L 3059 1634 
L 3813 1634 
L 3813 1159 
z
M 2578 4109 
L 2559 4109 
Q 2278 3656 2003 3284 
L 759 1634 
L 2547 1634 
L 2547 3144 
Q 2547 3481 2578 4109 
z
" transform="scale(0.015625)"/>
       </defs>
       <use xlink:href="#IPAexGothic-34"/>
      </g>
     </g>
    </g>
    <g id="xtick_4">
     <g id="line2d_7">
      <path d="M 559.576839 234.57775 
L 559.576839 7.323524 
" clip-path="url(#p90ff8df75c)" style="fill: none; stroke: #000000; stroke-opacity: 0.3; stroke-width: 0.5; stroke-linecap: square"/>
     </g>
     <g id="line2d_8">
      <g>
       <use xlink:href="#m0c53bbc240" x="559.576839" y="234.57775" style="stroke: #000000; stroke-width: 0.8"/>
      </g>
     </g>
     <g id="text_4">
      <!-- 6 -->
      <g transform="translate(556.42762 249.068375) scale(0.1 -0.1)">
       <defs>
        <path id="IPAexGothic-36" d="M 1056 2328 
Q 1509 2981 2234 2981 
Q 2906 2981 3316 2513 
Q 3675 2106 3675 1522 
Q 3675 884 3272 434 
Q 2853 -31 2178 -31 
Q 1375 -31 922 581 
Q 481 1178 481 2228 
Q 481 3425 1013 4109 
Q 1494 4725 2272 4725 
Q 3191 4725 3609 4025 
L 3150 3775 
Q 2894 4266 2300 4266 
Q 1119 4266 1031 2328 
L 1056 2328 
z
M 2141 2547 
Q 1684 2547 1384 2206 
Q 1116 1900 1116 1541 
Q 1116 1156 1353 844 
Q 1672 428 2159 428 
Q 2669 428 2941 844 
Q 3125 1128 3125 1503 
Q 3125 1944 2881 2228 
Q 2600 2547 2141 2547 
z
" transform="scale(0.015625)"/>
       </defs>
       <use xlink:href="#IPAexGothic-36"/>
      </g>
     </g>
    </g>
    <g id="xtick_5">
     <g id="line2d_9">
      <path d="M 708.675207 234.57775 
L 708.675207 7.323524 
" clip-path="url(#p90ff8df75c)" style="fill: none; stroke: #000000; stroke-opacity: 0.3; stroke-width: 0.5; stroke-linecap: square"/>
     </g>
     <g id="line2d_10">
      <g>
       <use xlink:href="#m0c53bbc240" x="708.675207" y="234.57775" style="stroke: #000000; stroke-width: 0.8"/>
      </g>
     </g>
     <g id="text_5">
      <!-- 8 -->
      <g transform="translate(705.525988 249.068375) scale(0.1 -0.1)">
       <defs>
        <path id="IPAexGothic-38" d="M 2541 2425 
Q 3700 2031 3700 1197 
Q 3700 541 3100 197 
Q 2663 -56 2016 -56 
Q 1366 -56 928 197 
Q 347 531 347 1178 
Q 347 1988 1409 2381 
L 1409 2400 
Q 481 2734 481 3509 
Q 481 4100 981 4456 
Q 1406 4756 2019 4756 
Q 2703 4756 3131 4403 
Q 3553 4069 3553 3566 
Q 3553 2706 2541 2444 
L 2541 2425 
z
M 2022 2625 
Q 2997 2856 2997 3528 
Q 2997 3916 2675 4150 
Q 2413 4347 2016 4347 
Q 1606 4347 1331 4128 
Q 1050 3897 1050 3522 
Q 1050 3150 1350 2925 
Q 1494 2809 1722 2722 
Q 1984 2616 2022 2625 
z
M 1978 2209 
Q 922 1931 922 1216 
Q 922 775 1313 556 
Q 1606 391 2009 391 
Q 2575 391 2881 697 
Q 3106 922 3106 1250 
Q 3106 1594 2794 1850 
Q 2609 1994 2350 2100 
Q 2047 2222 1978 2209 
z
" transform="scale(0.015625)"/>
       </defs>
       <use xlink:href="#IPAexGothic-38"/>
      </g>
     </g>
    </g>
    <g id="text_6">
     <!-- $\beta$ のインデックス -->
     <g transform="translate(390.801063 267.640375) scale(0.144 -0.144)">
      <defs>
       <path id="DejaVuSans-Oblique-3b2" d="M 872 216 
L 572 -1331 
L -6 -1331 
L 928 3478 
Q 1206 4903 2538 4903 
Q 3888 4903 3659 3700 
Q 3503 2844 2894 2531 
Q 3713 2250 3553 1416 
Q 3272 -69 1759 -66 
Q 1097 -63 872 216 
z
M 1019 966 
Q 1259 422 1875 425 
Q 2775 425 2966 1406 
Q 3138 2288 1675 2219 
L 1778 2750 
Q 2909 2731 3106 3750 
Q 3241 4438 2509 4434 
Q 1691 4434 1503 3459 
L 1019 966 
z
" transform="scale(0.015625)"/>
       <path id="IPAexGothic-20" transform="scale(0.015625)"/>
       <path id="IPAexGothic-306e" d="M 3119 469 
Q 5275 766 5275 2425 
Q 5275 3453 4413 3925 
Q 4041 4116 3547 4159 
Q 3394 2525 2850 1400 
Q 2322 306 1722 306 
Q 1384 306 1084 666 
Q 609 1244 609 2003 
Q 609 3025 1397 3794 
Q 2184 4563 3431 4563 
Q 4306 4563 4928 4122 
Q 5813 3506 5813 2425 
Q 5813 438 3431 6 
L 3119 469 
z
M 3053 4147 
Q 2378 4044 1891 3641 
Q 1097 2981 1097 1991 
Q 1097 1366 1434 978 
Q 1581 813 1719 813 
Q 2022 813 2416 1625 
Q 2909 2638 3053 4147 
z
" transform="scale(0.015625)"/>
       <path id="IPAexGothic-30a4" d="M 3131 -231 
L 3131 2875 
Q 2091 2088 1106 1656 
L 781 2059 
Q 3016 3000 4469 4916 
L 4916 4641 
Q 4384 3938 3675 3316 
L 3675 -231 
L 3131 -231 
z
" transform="scale(0.015625)"/>
       <path id="IPAexGothic-30f3" d="M 2444 3084 
Q 1816 3656 1056 4084 
L 1381 4519 
Q 2063 4191 2816 3559 
L 2444 3084 
z
M 1100 609 
Q 3984 1106 5216 3828 
L 5619 3469 
Q 4413 794 1434 103 
L 1100 609 
z
" transform="scale(0.015625)"/>
       <path id="IPAexGothic-30c7" d="M 563 3072 
L 5741 3072 
L 5741 2613 
L 3578 2613 
Q 3538 1516 3134 872 
Q 2688 156 1663 -256 
L 1313 156 
Q 2338 538 2713 1166 
Q 3003 1644 3034 2613 
L 563 2613 
L 563 3072 
z
M 1406 4588 
L 4588 4588 
L 4588 4128 
L 1406 4128 
L 1406 4588 
z
M 6009 4469 
Q 5647 5009 5253 5338 
L 5553 5569 
Q 5938 5259 6328 4744 
L 6009 4469 
z
M 5413 4000 
Q 5125 4491 4678 4891 
L 4991 5131 
Q 5363 4825 5747 4275 
L 5413 4000 
z
" transform="scale(0.015625)"/>
       <path id="IPAexGothic-30c3" d="M 1775 1984 
Q 1553 2666 1275 3175 
L 1716 3391 
Q 2034 2866 2247 2209 
L 1775 1984 
z
M 3003 2297 
Q 2813 2978 2522 3469 
L 2978 3681 
Q 3291 3166 3484 2522 
L 3003 2297 
z
M 1928 372 
Q 3094 744 3731 1569 
Q 4275 2263 4469 3525 
L 4975 3406 
Q 4734 1975 4016 1119 
Q 3406 391 2266 -44 
L 1928 372 
z
" transform="scale(0.015625)"/>
       <path id="IPAexGothic-30af" d="M 4934 4191 
L 5272 3941 
Q 4894 2334 4031 1300 
Q 3275 391 2028 -225 
L 1656 184 
Q 2875 691 3641 1625 
Q 4403 2553 4691 3731 
L 2903 3731 
Q 2188 2653 1356 1959 
L 978 2309 
Q 2328 3400 2931 5022 
L 3422 4881 
Q 3363 4672 3141 4191 
L 4934 4191 
z
" transform="scale(0.015625)"/>
       <path id="IPAexGothic-30b9" d="M 4359 4481 
L 4716 4147 
Q 4328 3072 3647 2150 
Q 4659 1434 5659 453 
L 5234 19 
Q 4256 1088 3353 1778 
Q 2372 597 1044 -31 
L 653 403 
Q 3128 1453 4097 4000 
L 1241 3963 
L 1228 4453 
L 4359 4481 
z
" transform="scale(0.015625)"/>
      </defs>
      <use xlink:href="#DejaVuSans-Oblique-3b2" transform="translate(0 0.984375)"/>
      <use xlink:href="#IPAexGothic-20" transform="translate(63.818359 0.984375)"/>
      <use xlink:href="#IPAexGothic-306e" transform="translate(90.820312 0.984375)"/>
      <use xlink:href="#IPAexGothic-30a4" transform="translate(190.820312 0.984375)"/>
      <use xlink:href="#IPAexGothic-30f3" transform="translate(290.820312 0.984375)"/>
      <use xlink:href="#IPAexGothic-30c7" transform="translate(390.820312 0.984375)"/>
      <use xlink:href="#IPAexGothic-30c3" transform="translate(490.820312 0.984375)"/>
      <use xlink:href="#IPAexGothic-30af" transform="translate(590.820312 0.984375)"/>
      <use xlink:href="#IPAexGothic-30b9" transform="translate(690.820312 0.984375)"/>
     </g>
    </g>
   </g>
   <g id="matplotlib.axis_2">
    <g id="ytick_1">
     <g id="line2d_11">
      <path d="M 47.983063 234.57775 
L 847.523063 234.57775 
" clip-path="url(#p90ff8df75c)" style="fill: none; stroke: #000000; stroke-opacity: 0.3; stroke-width: 0.5; stroke-linecap: square"/>
     </g>
     <g id="line2d_12">
      <defs>
       <path id="m4b10d3e589" d="M 0 0 
L -3.5 0 
" style="stroke: #000000; stroke-width: 0.8"/>
      </defs>
      <g>
       <use xlink:href="#m4b10d3e589" x="47.983063" y="234.57775" style="stroke: #000000; stroke-width: 0.8"/>
      </g>
     </g>
     <g id="text_7">
      <!-- 0.0 -->
      <g transform="translate(25.744 238.323063) scale(0.1 -0.1)">
       <defs>
        <path id="IPAexGothic-2e" d="M 1184 63 
L 494 63 
L 494 753 
L 1184 753 
L 1184 63 
z
" transform="scale(0.015625)"/>
       </defs>
       <use xlink:href="#IPAexGothic-30"/>
       <use xlink:href="#IPAexGothic-2e" transform="translate(62.988281 0)"/>
       <use xlink:href="#IPAexGothic-30" transform="translate(89.404297 0)"/>
      </g>
     </g>
    </g>
    <g id="ytick_2">
     <g id="line2d_13">
      <path d="M 47.983063 189.851263 
L 847.523063 189.851263 
" clip-path="url(#p90ff8df75c)" style="fill: none; stroke: #000000; stroke-opacity: 0.3; stroke-width: 0.5; stroke-linecap: square"/>
     </g>
     <g id="line2d_14">
      <g>
       <use xlink:href="#m4b10d3e589" x="47.983063" y="189.851263" style="stroke: #000000; stroke-width: 0.8"/>
      </g>
     </g>
     <g id="text_8">
      <!-- 0.2 -->
      <g transform="translate(25.744 193.596575) scale(0.1 -0.1)">
       <use xlink:href="#IPAexGothic-30"/>
       <use xlink:href="#IPAexGothic-2e" transform="translate(62.988281 0)"/>
       <use xlink:href="#IPAexGothic-32" transform="translate(89.404297 0)"/>
      </g>
     </g>
    </g>
    <g id="ytick_3">
     <g id="line2d_15">
      <path d="M 47.983063 145.124775 
L 847.523063 145.124775 
" clip-path="url(#p90ff8df75c)" style="fill: none; stroke: #000000; stroke-opacity: 0.3; stroke-width: 0.5; stroke-linecap: square"/>
     </g>
     <g id="line2d_16">
      <g>
       <use xlink:href="#m4b10d3e589" x="47.983063" y="145.124775" style="stroke: #000000; stroke-width: 0.8"/>
      </g>
     </g>
     <g id="text_9">
      <!-- 0.4 -->
      <g transform="translate(25.744 148.870088) scale(0.1 -0.1)">
       <use xlink:href="#IPAexGothic-30"/>
       <use xlink:href="#IPAexGothic-2e" transform="translate(62.988281 0)"/>
       <use xlink:href="#IPAexGothic-34" transform="translate(89.404297 0)"/>
      </g>
     </g>
    </g>
    <g id="ytick_4">
     <g id="line2d_17">
      <path d="M 47.983063 100.398288 
L 847.523063 100.398288 
" clip-path="url(#p90ff8df75c)" style="fill: none; stroke: #000000; stroke-opacity: 0.3; stroke-width: 0.5; stroke-linecap: square"/>
     </g>
     <g id="line2d_18">
      <g>
       <use xlink:href="#m4b10d3e589" x="47.983063" y="100.398288" style="stroke: #000000; stroke-width: 0.8"/>
      </g>
     </g>
     <g id="text_10">
      <!-- 0.6 -->
      <g transform="translate(25.744 104.1436) scale(0.1 -0.1)">
       <use xlink:href="#IPAexGothic-30"/>
       <use xlink:href="#IPAexGothic-2e" transform="translate(62.988281 0)"/>
       <use xlink:href="#IPAexGothic-36" transform="translate(89.404297 0)"/>
      </g>
     </g>
    </g>
    <g id="ytick_5">
     <g id="line2d_19">
      <path d="M 47.983063 55.6718 
L 847.523063 55.6718 
" clip-path="url(#p90ff8df75c)" style="fill: none; stroke: #000000; stroke-opacity: 0.3; stroke-width: 0.5; stroke-linecap: square"/>
     </g>
     <g id="line2d_20">
      <g>
       <use xlink:href="#m4b10d3e589" x="47.983063" y="55.6718" style="stroke: #000000; stroke-width: 0.8"/>
      </g>
     </g>
     <g id="text_11">
      <!-- 0.8 -->
      <g transform="translate(25.744 59.417113) scale(0.1 -0.1)">
       <use xlink:href="#IPAexGothic-30"/>
       <use xlink:href="#IPAexGothic-2e" transform="translate(62.988281 0)"/>
       <use xlink:href="#IPAexGothic-38" transform="translate(89.404297 0)"/>
      </g>
     </g>
    </g>
    <g id="ytick_6">
     <g id="line2d_21">
      <path d="M 47.983063 10.945313 
L 847.523063 10.945313 
" clip-path="url(#p90ff8df75c)" style="fill: none; stroke: #000000; stroke-opacity: 0.3; stroke-width: 0.5; stroke-linecap: square"/>
     </g>
     <g id="line2d_22">
      <g>
       <use xlink:href="#m4b10d3e589" x="47.983063" y="10.945313" style="stroke: #000000; stroke-width: 0.8"/>
      </g>
     </g>
     <g id="text_12">
      <!-- 1.0 -->
      <g transform="translate(25.744 14.690625) scale(0.1 -0.1)">
       <defs>
        <path id="IPAexGothic-31" d="M 2463 63 
L 1900 63 
L 1900 4103 
Q 1372 3922 788 3797 
L 684 4231 
Q 1519 4441 2106 4731 
L 2463 4731 
L 2463 63 
z
" transform="scale(0.015625)"/>
       </defs>
       <use xlink:href="#IPAexGothic-31"/>
       <use xlink:href="#IPAexGothic-2e" transform="translate(62.988281 0)"/>
       <use xlink:href="#IPAexGothic-30" transform="translate(89.404297 0)"/>
      </g>
     </g>
    </g>
    <g id="text_13">
     <!-- $|\beta|$ -->
     <g transform="translate(18.288 130.454637) rotate(-90) scale(0.144 -0.144)">
      <defs>
       <path id="DejaVuSans-7c" d="M 1344 4891 
L 1344 -1509 
L 813 -1509 
L 813 4891 
L 1344 4891 
z
" transform="scale(0.015625)"/>
      </defs>
      <use xlink:href="#DejaVuSans-7c" transform="translate(0 0.390625)"/>
      <use xlink:href="#DejaVuSans-Oblique-3b2" transform="translate(33.691406 0.390625)"/>
      <use xlink:href="#DejaVuSans-7c" transform="translate(97.509766 0.390625)"/>
     </g>
    </g>
   </g>
   <g id="legend_1">
    <g id="patch_33">
     <path d="M 760.056187 84.399149 
L 833.123062 84.399149 
Q 835.523062 84.399149 835.523062 81.999149 
L 835.523062 21.723524 
Q 835.523062 19.323524 833.123062 19.323524 
L 760.056187 19.323524 
Q 757.656187 19.323524 757.656187 21.723524 
L 757.656187 81.999149 
Q 757.656187 84.399149 760.056187 84.399149 
z
" style="fill: #ffffff; opacity: 0.8; stroke: #cccccc; stroke-linejoin: miter"/>
    </g>
    <g id="patch_34">
     <path d="M 762.456187 33.112274 
L 786.456187 33.112274 
L 786.456187 24.712274 
L 762.456187 24.712274 
z
" style="fill: #264653"/>
    </g>
    <g id="text_14">
     <!-- Linear -->
     <g transform="translate(796.056187 33.112274) scale(0.12 -0.12)">
      <defs>
       <path id="IPAexGothic-4c" d="M 3347 63 
L 609 63 
L 609 4634 
L 1178 4634 
L 1178 563 
L 3347 563 
L 3347 63 
z
" transform="scale(0.015625)"/>
       <path id="IPAexGothic-69" d="M 1178 3928 
L 550 3928 
L 550 4569 
L 1178 4569 
L 1178 3928 
z
M 1138 63 
L 588 63 
L 588 3250 
L 1138 3250 
L 1138 63 
z
" transform="scale(0.015625)"/>
       <path id="IPAexGothic-6e" d="M 3328 63 
L 2778 63 
L 2778 2041 
Q 2778 2853 2106 2853 
Q 1428 2853 1113 2041 
L 1113 63 
L 563 63 
L 563 3250 
L 1075 3250 
L 1075 2675 
Q 1525 3316 2222 3316 
Q 3328 3316 3328 2072 
L 3328 63 
z
" transform="scale(0.015625)"/>
       <path id="IPAexGothic-65" d="M 863 1594 
Q 891 1041 1209 722 
Q 1534 397 1997 397 
Q 2606 397 2963 966 
L 3322 728 
Q 2869 -31 1931 -31 
Q 1222 -31 766 422 
Q 306 884 306 1641 
Q 306 2444 788 2925 
Q 1216 3353 1856 3353 
Q 2459 3353 2866 2956 
Q 3322 2494 3322 1722 
L 3322 1594 
L 863 1594 
z
M 2756 1997 
Q 2709 2431 2450 2681 
Q 2194 2938 1844 2938 
Q 1438 2938 1150 2591 
Q 953 2356 894 1997 
L 2756 1997 
z
" transform="scale(0.015625)"/>
       <path id="IPAexGothic-61" d="M 3156 63 
L 2672 63 
Q 2559 303 2531 556 
L 2509 556 
Q 2147 -25 1428 -25 
Q 934 -25 622 288 
Q 347 563 347 959 
Q 347 1947 2050 1997 
L 2478 2009 
L 2478 2175 
Q 2478 2509 2288 2700 
Q 2088 2900 1775 2900 
Q 1238 2900 969 2378 
L 494 2597 
Q 938 3328 1788 3328 
Q 2375 3328 2691 3000 
Q 2984 2706 2984 2169 
L 2984 997 
Q 2984 400 3156 63 
z
M 2491 1625 
L 2141 1619 
Q 903 1591 903 953 
Q 903 728 1050 581 
Q 1231 403 1525 403 
Q 1934 403 2234 703 
Q 2491 969 2491 1344 
L 2491 1625 
z
" transform="scale(0.015625)"/>
       <path id="IPAexGothic-72" d="M 2309 3316 
L 2213 2769 
Q 2106 2791 2022 2791 
Q 1653 2791 1413 2444 
Q 1113 2006 1113 1675 
L 1113 63 
L 563 63 
L 563 3250 
L 1081 3250 
L 1056 2303 
L 1069 2303 
Q 1422 3341 2097 3341 
Q 2206 3341 2309 3316 
z
" transform="scale(0.015625)"/>
      </defs>
      <use xlink:href="#IPAexGothic-4c"/>
      <use xlink:href="#IPAexGothic-69" transform="translate(52.587891 0)"/>
      <use xlink:href="#IPAexGothic-6e" transform="translate(79.589844 0)"/>
      <use xlink:href="#IPAexGothic-65" transform="translate(139.990234 0)"/>
      <use xlink:href="#IPAexGothic-61" transform="translate(196.875 0)"/>
      <use xlink:href="#IPAexGothic-72" transform="translate(251.855469 0)"/>
     </g>
    </g>
    <g id="patch_35">
     <path d="M 762.456187 55.181024 
L 786.456187 55.181024 
L 786.456187 46.781024 
L 762.456187 46.781024 
z
" style="fill: #2a9d8f"/>
    </g>
    <g id="text_15">
     <!-- Ridge -->
     <g transform="translate(796.056187 55.181024) scale(0.12 -0.12)">
      <defs>
       <path id="IPAexGothic-52" d="M 4072 63 
L 3394 63 
Q 3138 641 2828 1197 
Q 2584 1641 2344 1825 
Q 2050 2044 1625 2044 
L 1172 2044 
L 1172 63 
L 609 63 
L 609 4634 
L 2009 4634 
Q 2713 4634 3131 4378 
Q 3688 4044 3688 3381 
Q 3688 2784 3181 2459 
Q 2906 2272 2522 2216 
L 2522 2197 
Q 2941 2050 3247 1581 
Q 3516 1166 4072 63 
z
M 1172 2478 
L 1869 2478 
Q 3106 2478 3106 3369 
Q 3106 4181 1928 4181 
L 1172 4181 
L 1172 2478 
z
" transform="scale(0.015625)"/>
       <path id="IPAexGothic-64" d="M 3391 63 
L 2891 63 
L 2891 619 
Q 2441 -31 1753 -31 
Q 1181 -31 788 372 
Q 313 844 313 1663 
Q 313 2466 772 2938 
Q 1169 3341 1753 3341 
Q 2384 3341 2847 2809 
L 2847 4794 
L 3391 4794 
L 3391 63 
z
M 2847 1303 
L 2847 2097 
Q 2847 2413 2456 2706 
Q 2181 2906 1853 2906 
Q 1484 2906 1228 2650 
Q 888 2309 888 1678 
Q 888 1109 1169 750 
Q 1441 409 1847 409 
Q 2322 409 2656 875 
Q 2847 1134 2847 1303 
z
" transform="scale(0.015625)"/>
       <path id="IPAexGothic-67" d="M 1331 1150 
Q 1006 1122 1006 900 
Q 1006 613 1763 575 
L 2131 556 
Q 3303 497 3303 -294 
Q 3303 -700 2925 -959 
Q 2519 -1253 1794 -1253 
Q 1138 -1253 738 -1028 
Q 353 -809 353 -428 
Q 353 84 1075 247 
L 1075 269 
Q 506 413 506 778 
Q 506 1116 994 1297 
Q 456 1575 456 2181 
Q 456 2650 769 2963 
Q 1128 3322 1738 3322 
Q 2125 3322 2422 3153 
Q 2650 3453 3259 3463 
L 3259 3013 
Q 2838 3003 2703 2938 
Q 3034 2613 3034 2169 
Q 3034 1728 2734 1425 
Q 2400 1094 1813 1094 
Q 1563 1094 1331 1150 
z
M 1734 2919 
Q 1409 2919 1197 2706 
Q 988 2497 988 2181 
Q 988 1872 1184 1684 
Q 1397 1472 1756 1472 
Q 2094 1472 2297 1678 
Q 2503 1881 2503 2203 
Q 2503 2497 2297 2700 
Q 2081 2919 1734 2919 
z
M 1753 159 
Q 903 159 903 -366 
Q 903 -875 1800 -875 
Q 2378 -875 2638 -606 
Q 2772 -481 2772 -313 
Q 2772 159 1753 159 
z
" transform="scale(0.015625)"/>
      </defs>
      <use xlink:href="#IPAexGothic-52"/>
      <use xlink:href="#IPAexGothic-69" transform="translate(64.794922 0)"/>
      <use xlink:href="#IPAexGothic-64" transform="translate(91.796875 0)"/>
      <use xlink:href="#IPAexGothic-67" transform="translate(154.199219 0)"/>
      <use xlink:href="#IPAexGothic-65" transform="translate(209.716797 0)"/>
     </g>
    </g>
    <g id="patch_36">
     <path d="M 762.456187 77.319149 
L 786.456187 77.319149 
L 786.456187 68.919149 
L 762.456187 68.919149 
z
" style="fill: #e9c46a"/>
    </g>
    <g id="text_16">
     <!-- Lasso -->
     <g transform="translate(796.056187 77.319149) scale(0.12 -0.12)">
      <defs>
       <path id="IPAexGothic-73" d="M 2234 2547 
Q 1938 2931 1484 2931 
Q 891 2931 891 2475 
Q 891 2153 1531 1944 
L 1741 1875 
Q 2650 1578 2650 894 
Q 2650 434 2272 172 
Q 1972 -31 1497 -31 
Q 766 -31 256 503 
L 603 819 
Q 997 397 1516 397 
Q 2131 397 2131 875 
Q 2131 1238 1453 1478 
L 1234 1553 
Q 378 1853 378 2431 
Q 378 2797 628 3047 
Q 928 3347 1453 3347 
Q 2156 3347 2606 2859 
L 2234 2547 
z
" transform="scale(0.015625)"/>
       <path id="IPAexGothic-6f" d="M 1919 3341 
Q 2594 3341 3056 2888 
Q 3531 2413 3531 1638 
Q 3531 888 3066 422 
Q 2609 -31 1919 -31 
Q 1228 -31 781 416 
Q 313 881 313 1656 
Q 313 2413 788 2888 
Q 1241 3341 1919 3341 
z
M 1919 2919 
Q 1519 2919 1241 2631 
Q 888 2278 888 1650 
Q 888 1031 1234 684 
Q 1516 403 1919 403 
Q 2331 403 2609 691 
Q 2956 1038 2956 1672 
Q 2956 2269 2603 2631 
Q 2316 2919 1919 2919 
z
" transform="scale(0.015625)"/>
      </defs>
      <use xlink:href="#IPAexGothic-4c"/>
      <use xlink:href="#IPAexGothic-61" transform="translate(52.587891 0)"/>
      <use xlink:href="#IPAexGothic-73" transform="translate(107.568359 0)"/>
      <use xlink:href="#IPAexGothic-73" transform="translate(153.759766 0)"/>
      <use xlink:href="#IPAexGothic-6f" transform="translate(199.951172 0)"/>
     </g>
    </g>
   </g>
  </g>
 </g>
 <defs>
  <clipPath id="p90ff8df75c">
   <rect x="47.983063" y="7.323524" width="799.54" height="227.254226"/>
  </clipPath>
 </defs>
</svg>
