<?xml version="1.0" encoding="utf-8" standalone="no"?>
<!DOCTYPE svg PUBLIC "-//W3C//DTD SVG 1.1//EN"
  "http://www.w3.org/Graphics/SVG/1.1/DTD/svg11.dtd">
<svg xmlns:xlink="http://www.w3.org/1999/xlink" width="499.7375pt" height="399.259375pt" viewBox="0 0 499.7375 399.259375" xmlns="http://www.w3.org/2000/svg" version="1.1">
 <metadata>
  <rdf:RDF xmlns:dc="http://purl.org/dc/elements/1.1/" xmlns:cc="http://creativecommons.org/ns#" xmlns:rdf="http://www.w3.org/1999/02/22-rdf-syntax-ns#">
   <cc:Work>
    <dc:type rdf:resource="http://purl.org/dc/dcmitype/StillImage"/>
    <dc:date>2025-10-30T20:25:31.606804</dc:date>
    <dc:format>image/svg+xml</dc:format>
    <dc:creator>
     <cc:Agent>
      <dc:title>Matplotlib v3.10.7, https://matplotlib.org/</dc:title>
     </cc:Agent>
    </dc:creator>
   </cc:Work>
  </rdf:RDF>
 </metadata>
 <defs>
  <style type="text/css">*{stroke-linejoin: round; stroke-linecap: butt}</style>
 </defs>
 <g id="figure_1">
  <g id="patch_1">
   <path d="M 0 399.259375 
L 499.7375 399.259375 
L 499.7375 0 
L 0 0 
z
" style="fill: #ffffff"/>
  </g>
  <g id="axes_1">
   <g id="patch_2">
    <path d="M 46.1375 359.1375 
L 492.5375 359.1375 
L 492.5375 26.4975 
L 46.1375 26.4975 
z
" style="fill: #ffffff"/>
   </g>
   <g id="matplotlib.axis_1">
    <g id="xtick_1">
     <g id="line2d_1">
      <defs>
       <path id="mbca7f70b8d" d="M 0 0 
L 0 3.5 
" style="stroke: #000000; stroke-width: 0.8"/>
      </defs>
      <g>
       <use xlink:href="#mbca7f70b8d" x="66.428409" y="359.1375" style="stroke: #000000; stroke-width: 0.8"/>
      </g>
     </g>
     <g id="text_1">
      <!-- 0 -->
      <g transform="translate(63.928409 373.832812) scale(0.1 -0.1)">
       <defs>
        <path id="MS-Gothic-30" d="M 200 2500 
Q 200 3975 800 4575 
Q 1150 4925 1575 4925 
Q 2000 4925 2350 4575 
Q 2950 3975 2950 2500 
Q 2950 1000 2350 400 
Q 2000 50 1575 50 
Q 1150 50 800 400 
Q 200 1000 200 2500 
z
M 2375 2500 
Q 2375 3825 1900 4300 
Q 1750 4450 1575 4450 
Q 1400 4450 1250 4300 
Q 775 3800 775 2500 
Q 775 1150 1250 675 
Q 1400 525 1575 525 
Q 1750 525 1900 675 
Q 2375 1150 2375 2500 
z
" transform="scale(0.015625)"/>
       </defs>
       <use xlink:href="#MS-Gothic-30"/>
      </g>
     </g>
    </g>
    <g id="xtick_2">
     <g id="line2d_2">
      <g>
       <use xlink:href="#mbca7f70b8d" x="136.397061" y="359.1375" style="stroke: #000000; stroke-width: 0.8"/>
      </g>
     </g>
     <g id="text_2">
      <!-- 5 -->
      <g transform="translate(133.897061 373.832812) scale(0.1 -0.1)">
       <defs>
        <path id="MS-Gothic-35" d="M 850 1425 
Q 850 925 1100 675 
Q 1250 525 1525 525 
Q 1750 525 1950 725 
Q 2250 1025 2250 1725 
Q 2250 2375 2000 2625 
Q 1850 2775 1650 2775 
Q 1200 2775 925 2250 
L 425 2250 
L 575 4925 
L 2725 4925 
L 2725 4450 
L 1050 4450 
L 950 2825 
Q 1275 3200 1775 3200 
Q 2150 3200 2425 2925 
Q 2825 2525 2825 1725 
Q 2825 875 2350 400 
Q 2000 50 1500 50 
Q 975 50 675 350 
Q 300 725 275 1425 
L 850 1425 
z
" transform="scale(0.015625)"/>
       </defs>
       <use xlink:href="#MS-Gothic-35"/>
      </g>
     </g>
    </g>
    <g id="xtick_3">
     <g id="line2d_3">
      <g>
       <use xlink:href="#mbca7f70b8d" x="206.365713" y="359.1375" style="stroke: #000000; stroke-width: 0.8"/>
      </g>
     </g>
     <g id="text_3">
      <!-- 10 -->
      <g transform="translate(201.365713 373.832812) scale(0.1 -0.1)">
       <defs>
        <path id="MS-Gothic-31" d="M 1375 50 
L 1375 2000 
L 1375 3925 
L 625 3925 
L 625 4225 
Q 1500 4225 1650 4925 
L 1950 4925 
L 1950 50 
L 1375 50 
z
" transform="scale(0.015625)"/>
       </defs>
       <use xlink:href="#MS-Gothic-31"/>
       <use xlink:href="#MS-Gothic-30" transform="translate(50 0)"/>
      </g>
     </g>
    </g>
    <g id="xtick_4">
     <g id="line2d_4">
      <g>
       <use xlink:href="#mbca7f70b8d" x="276.334365" y="359.1375" style="stroke: #000000; stroke-width: 0.8"/>
      </g>
     </g>
     <g id="text_4">
      <!-- 15 -->
      <g transform="translate(271.334365 373.832812) scale(0.1 -0.1)">
       <use xlink:href="#MS-Gothic-31"/>
       <use xlink:href="#MS-Gothic-35" transform="translate(50 0)"/>
      </g>
     </g>
    </g>
    <g id="xtick_5">
     <g id="line2d_5">
      <g>
       <use xlink:href="#mbca7f70b8d" x="346.303017" y="359.1375" style="stroke: #000000; stroke-width: 0.8"/>
      </g>
     </g>
     <g id="text_5">
      <!-- 20 -->
      <g transform="translate(341.303017 373.832812) scale(0.1 -0.1)">
       <defs>
        <path id="MS-Gothic-32" d="M 2850 525 
L 2850 50 
L 300 50 
L 300 450 
Q 875 1525 1725 2500 
Q 2200 3050 2200 3650 
Q 2200 4075 1975 4300 
Q 1825 4450 1575 4450 
Q 1375 4450 1175 4250 
Q 950 4025 950 3325 
L 400 3325 
Q 425 4225 825 4625 
Q 1125 4925 1625 4925 
Q 2100 4925 2425 4600 
Q 2775 4250 2775 3625 
Q 2775 2900 2100 2125 
Q 1375 1300 900 525 
L 2850 525 
z
" transform="scale(0.015625)"/>
       </defs>
       <use xlink:href="#MS-Gothic-32"/>
       <use xlink:href="#MS-Gothic-30" transform="translate(50 0)"/>
      </g>
     </g>
    </g>
    <g id="xtick_6">
     <g id="line2d_6">
      <g>
       <use xlink:href="#mbca7f70b8d" x="416.271669" y="359.1375" style="stroke: #000000; stroke-width: 0.8"/>
      </g>
     </g>
     <g id="text_6">
      <!-- 25 -->
      <g transform="translate(411.271669 373.832812) scale(0.1 -0.1)">
       <use xlink:href="#MS-Gothic-32"/>
       <use xlink:href="#MS-Gothic-35" transform="translate(50 0)"/>
      </g>
     </g>
    </g>
    <g id="xtick_7">
     <g id="line2d_7">
      <g>
       <use xlink:href="#mbca7f70b8d" x="486.240321" y="359.1375" style="stroke: #000000; stroke-width: 0.8"/>
      </g>
     </g>
     <g id="text_7">
      <!-- 30 -->
      <g transform="translate(481.240321 373.832812) scale(0.1 -0.1)">
       <defs>
        <path id="MS-Gothic-33" d="M 850 1500 
Q 825 950 1075 700 
Q 1250 525 1550 525 
Q 1800 525 2025 750 
Q 2250 975 2250 1500 
Q 2250 1900 1975 2175 
Q 1775 2375 1375 2350 
L 1375 2775 
Q 1775 2800 1975 3000 
Q 2175 3200 2175 3600 
Q 2175 4100 1950 4325 
Q 1800 4475 1575 4475 
Q 1350 4475 1200 4325 
Q 950 4075 925 3575 
L 375 3575 
Q 400 4225 800 4625 
Q 1100 4925 1575 4925 
Q 2075 4925 2375 4625 
Q 2725 4275 2725 3700 
Q 2725 3175 2450 2900 
Q 2200 2650 1975 2575 
Q 2300 2475 2475 2300 
Q 2825 1950 2825 1450 
Q 2825 800 2425 400 
Q 2075 50 1550 50 
Q 975 50 650 375 
Q 275 750 275 1500 
L 850 1500 
z
" transform="scale(0.015625)"/>
       </defs>
       <use xlink:href="#MS-Gothic-33"/>
       <use xlink:href="#MS-Gothic-30" transform="translate(50 0)"/>
      </g>
     </g>
    </g>
    <g id="text_8">
     <!-- $x_1$ -->
     <g transform="translate(261.6335 389.611375) scale(0.144 -0.144)">
      <defs>
       <path id="DejaVuSans-Oblique-78" d="M 3841 3500 
L 2234 1784 
L 3219 0 
L 2559 0 
L 1819 1388 
L 531 0 
L -166 0 
L 1556 1844 
L 641 3500 
L 1300 3500 
L 1972 2234 
L 3144 3500 
L 3841 3500 
z
" transform="scale(0.015625)"/>
       <path id="DejaVuSans-31" d="M 794 531 
L 1825 531 
L 1825 4091 
L 703 3866 
L 703 4441 
L 1819 4666 
L 2450 4666 
L 2450 531 
L 3481 531 
L 3481 0 
L 794 0 
L 794 531 
z
" transform="scale(0.015625)"/>
      </defs>
      <use xlink:href="#DejaVuSans-Oblique-78" transform="translate(0 0.3125)"/>
      <use xlink:href="#DejaVuSans-31" transform="translate(59.179688 -16.09375) scale(0.7)"/>
     </g>
    </g>
   </g>
   <g id="matplotlib.axis_2">
    <g id="ytick_1">
     <g id="line2d_8">
      <defs>
       <path id="m1058c9e30c" d="M 0 0 
L -3.5 0 
" style="stroke: #000000; stroke-width: 0.8"/>
      </defs>
      <g>
       <use xlink:href="#m1058c9e30c" x="46.1375" y="346.299815" style="stroke: #000000; stroke-width: 0.8"/>
      </g>
     </g>
     <g id="text_9">
      <!-- 0 -->
      <g transform="translate(34.1375 350.147471) scale(0.1 -0.1)">
       <use xlink:href="#MS-Gothic-30"/>
      </g>
     </g>
    </g>
    <g id="ytick_2">
     <g id="line2d_9">
      <g>
       <use xlink:href="#m1058c9e30c" x="46.1375" y="285.363352" style="stroke: #000000; stroke-width: 0.8"/>
      </g>
     </g>
     <g id="text_10">
      <!-- 100 -->
      <g transform="translate(24.1375 289.211008) scale(0.1 -0.1)">
       <use xlink:href="#MS-Gothic-31"/>
       <use xlink:href="#MS-Gothic-30" transform="translate(50 0)"/>
       <use xlink:href="#MS-Gothic-30" transform="translate(100 0)"/>
      </g>
     </g>
    </g>
    <g id="ytick_3">
     <g id="line2d_10">
      <g>
       <use xlink:href="#m1058c9e30c" x="46.1375" y="224.426889" style="stroke: #000000; stroke-width: 0.8"/>
      </g>
     </g>
     <g id="text_11">
      <!-- 200 -->
      <g transform="translate(24.1375 228.274545) scale(0.1 -0.1)">
       <use xlink:href="#MS-Gothic-32"/>
       <use xlink:href="#MS-Gothic-30" transform="translate(50 0)"/>
       <use xlink:href="#MS-Gothic-30" transform="translate(100 0)"/>
      </g>
     </g>
    </g>
    <g id="ytick_4">
     <g id="line2d_11">
      <g>
       <use xlink:href="#m1058c9e30c" x="46.1375" y="163.490426" style="stroke: #000000; stroke-width: 0.8"/>
      </g>
     </g>
     <g id="text_12">
      <!-- 300 -->
      <g transform="translate(24.1375 167.338082) scale(0.1 -0.1)">
       <use xlink:href="#MS-Gothic-33"/>
       <use xlink:href="#MS-Gothic-30" transform="translate(50 0)"/>
       <use xlink:href="#MS-Gothic-30" transform="translate(100 0)"/>
      </g>
     </g>
    </g>
    <g id="ytick_5">
     <g id="line2d_12">
      <g>
       <use xlink:href="#m1058c9e30c" x="46.1375" y="102.553963" style="stroke: #000000; stroke-width: 0.8"/>
      </g>
     </g>
     <g id="text_13">
      <!-- 400 -->
      <g transform="translate(24.1375 106.401619) scale(0.1 -0.1)">
       <defs>
        <path id="MS-Gothic-34" d="M 1875 50 
L 1875 625 
L 1875 1200 
L 200 1200 
L 200 1675 
L 1875 4925 
L 2450 4925 
L 2450 1675 
L 2975 1675 
L 2975 1200 
L 2450 1200 
L 2450 50 
L 1875 50 
z
M 1875 1675 
L 1875 3875 
L 750 1675 
L 1875 1675 
z
" transform="scale(0.015625)"/>
       </defs>
       <use xlink:href="#MS-Gothic-34"/>
       <use xlink:href="#MS-Gothic-30" transform="translate(50 0)"/>
       <use xlink:href="#MS-Gothic-30" transform="translate(100 0)"/>
      </g>
     </g>
    </g>
    <g id="ytick_6">
     <g id="line2d_13">
      <g>
       <use xlink:href="#m1058c9e30c" x="46.1375" y="41.6175" style="stroke: #000000; stroke-width: 0.8"/>
      </g>
     </g>
     <g id="text_14">
      <!-- 500 -->
      <g transform="translate(24.1375 45.465156) scale(0.1 -0.1)">
       <use xlink:href="#MS-Gothic-35"/>
       <use xlink:href="#MS-Gothic-30" transform="translate(50 0)"/>
       <use xlink:href="#MS-Gothic-30" transform="translate(100 0)"/>
      </g>
     </g>
    </g>
    <g id="text_15">
     <!-- $y$ -->
     <g transform="translate(17.1135 197.1375) rotate(-90) scale(0.144 -0.144)">
      <defs>
       <path id="DejaVuSans-Oblique-79" d="M 1588 -325 
Q 1188 -997 936 -1164 
Q 684 -1331 294 -1331 
L -159 -1331 
L -63 -850 
L 269 -850 
Q 509 -850 678 -719 
Q 847 -588 1056 -206 
L 1234 128 
L 459 3500 
L 1069 3500 
L 1650 819 
L 3256 3500 
L 3859 3500 
L 1588 -325 
z
" transform="scale(0.015625)"/>
      </defs>
      <use xlink:href="#DejaVuSans-Oblique-79" transform="translate(0 0.3125)"/>
     </g>
    </g>
   </g>
   <g id="line2d_14">
    <defs>
     <path id="mcac372b78a" d="M 0 4 
C 1.060812 4 2.078319 3.578535 2.828427 2.828427 
C 3.578535 2.078319 4 1.060812 4 0 
C 4 -1.060812 3.578535 -2.078319 2.828427 -2.828427 
C 2.078319 -3.578535 1.060812 -4 0 -4 
C -1.060812 -4 -2.078319 -3.578535 -2.828427 -2.828427 
C -3.578535 -2.078319 -4 -1.060812 -4 0 
C -4 1.060812 -3.578535 2.078319 -2.828427 2.828427 
C -2.078319 3.578535 -1.060812 4 0 4 
z
" style="stroke: #000000"/>
    </defs>
    <g clip-path="url(#ped44763632)">
     <use xlink:href="#mcac372b78a" x="66.428409" y="344.0175" style="stroke: #000000"/>
     <use xlink:href="#mcac372b78a" x="80.422139" y="331.366029" style="stroke: #000000"/>
     <use xlink:href="#mcac372b78a" x="94.41587" y="323.558364" style="stroke: #000000"/>
     <use xlink:href="#mcac372b78a" x="108.4096" y="315.230394" style="stroke: #000000"/>
     <use xlink:href="#mcac372b78a" x="122.403331" y="308.787215" style="stroke: #000000"/>
     <use xlink:href="#mcac372b78a" x="136.397061" y="41.6175" style="stroke: #000000"/>
     <use xlink:href="#mcac372b78a" x="150.390792" y="291.103057" style="stroke: #000000"/>
     <use xlink:href="#mcac372b78a" x="164.384522" y="277.038358" style="stroke: #000000"/>
     <use xlink:href="#mcac372b78a" x="178.378252" y="269.513077" style="stroke: #000000"/>
     <use xlink:href="#mcac372b78a" x="192.371983" y="259.720846" style="stroke: #000000"/>
     <use xlink:href="#mcac372b78a" x="206.365713" y="254.769686" style="stroke: #000000"/>
     <use xlink:href="#mcac372b78a" x="220.359444" y="239.844363" style="stroke: #000000"/>
     <use xlink:href="#mcac372b78a" x="234.353174" y="231.541571" style="stroke: #000000"/>
     <use xlink:href="#mcac372b78a" x="248.346904" y="226.179793" style="stroke: #000000"/>
     <use xlink:href="#mcac372b78a" x="262.340635" y="217.225266" style="stroke: #000000"/>
     <use xlink:href="#mcac372b78a" x="276.334365" y="208.075171" style="stroke: #000000"/>
     <use xlink:href="#mcac372b78a" x="290.328096" y="198.198359" style="stroke: #000000"/>
     <use xlink:href="#mcac372b78a" x="304.321826" y="187.714154" style="stroke: #000000"/>
     <use xlink:href="#mcac372b78a" x="318.315556" y="179.139245" style="stroke: #000000"/>
     <use xlink:href="#mcac372b78a" x="332.309287" y="170.856248" style="stroke: #000000"/>
     <use xlink:href="#mcac372b78a" x="346.303017" y="159.762011" style="stroke: #000000"/>
     <use xlink:href="#mcac372b78a" x="360.296748" y="153.49993" style="stroke: #000000"/>
     <use xlink:href="#mcac372b78a" x="374.290478" y="143.429261" style="stroke: #000000"/>
     <use xlink:href="#mcac372b78a" x="388.284208" y="133.836538" style="stroke: #000000"/>
     <use xlink:href="#mcac372b78a" x="402.277939" y="124.149419" style="stroke: #000000"/>
     <use xlink:href="#mcac372b78a" x="416.271669" y="113.003494" style="stroke: #000000"/>
     <use xlink:href="#mcac372b78a" x="430.2654" y="107.430868" style="stroke: #000000"/>
     <use xlink:href="#mcac372b78a" x="444.25913" y="96.373577" style="stroke: #000000"/>
     <use xlink:href="#mcac372b78a" x="458.252861" y="86.756706" style="stroke: #000000"/>
     <use xlink:href="#mcac372b78a" x="472.246591" y="80.943149" style="stroke: #000000"/>
    </g>
   </g>
   <g id="text_16">
    <!-- Data containing an outlier -->
    <g transform="translate(157.0175 20.4975) scale(0.1728 -0.1728)">
     <defs>
      <path id="MS-Gothic-44" d="M 1150 525 
Q 1600 525 1950 875 
Q 2325 1250 2325 2475 
Q 2325 3725 1925 4125 
Q 1600 4450 1150 4450 
L 875 4450 
L 875 525 
L 1150 525 
z
M 1150 4925 
Q 1925 4925 2375 4475 
Q 2950 3900 2950 2475 
Q 2950 1075 2425 550 
Q 1925 50 1150 50 
L 300 50 
L 300 4925 
L 1150 4925 
z
" transform="scale(0.015625)"/>
      <path id="MS-Gothic-61" d="M 2200 1925 
Q 1900 1750 1500 1625 
Q 1200 1525 1025 1350 
Q 900 1225 900 1000 
Q 900 750 1025 625 
Q 1150 500 1425 500 
Q 1875 500 2200 1025 
L 2200 1925 
z
M 2200 425 
Q 1825 50 1275 50 
Q 825 50 550 325 
Q 300 575 300 950 
Q 300 1350 575 1625 
Q 825 1875 1150 1975 
Q 2000 2250 2075 2350 
Q 2200 2500 2200 2650 
Q 2200 2800 2050 2925 
Q 1925 3025 1600 3025 
Q 1350 3025 1200 2875 
Q 1000 2675 975 2350 
L 425 2350 
Q 450 2850 775 3175 
Q 1075 3475 1600 3475 
Q 2200 3475 2450 3225 
Q 2700 2975 2700 2600 
L 2700 625 
Q 2700 325 2900 50 
L 2300 50 
Q 2200 150 2200 425 
z
" transform="scale(0.015625)"/>
      <path id="MS-Gothic-74" d="M 1050 3075 
L 250 3075 
L 250 3475 
L 1050 3475 
L 1050 4575 
L 1550 4575 
L 1550 3475 
L 2675 3475 
L 2675 3075 
L 1550 3075 
L 1550 800 
Q 1550 525 1950 525 
Q 2375 525 2825 725 
L 2825 200 
Q 2200 50 1875 50 
Q 1050 50 1050 700 
L 1050 3075 
z
" transform="scale(0.015625)"/>
      <path id="MS-Gothic-20" transform="scale(0.015625)"/>
      <path id="MS-Gothic-63" d="M 2250 2300 
Q 2200 2700 2025 2875 
Q 1875 3025 1650 3025 
Q 1375 3025 1150 2800 
Q 850 2500 850 1675 
Q 850 1000 1125 725 
Q 1350 500 1625 500 
Q 1875 500 2075 700 
Q 2325 950 2300 1500 
L 2875 1500 
Q 2900 800 2500 400 
Q 2150 50 1625 50 
Q 1100 50 700 450 
Q 275 875 275 1675 
Q 275 2600 750 3075 
Q 1150 3475 1650 3475 
Q 2150 3475 2450 3175 
Q 2775 2850 2800 2300 
L 2250 2300 
z
" transform="scale(0.015625)"/>
      <path id="MS-Gothic-6f" d="M 650 3075 
Q 1050 3475 1600 3475 
Q 2125 3475 2525 3075 
Q 2925 2675 2925 1750 
Q 2925 850 2525 450 
Q 2125 50 1600 50 
Q 1050 50 650 450 
Q 250 850 250 1750 
Q 250 2675 650 3075 
z
M 1600 3025 
Q 1300 3025 1075 2800 
Q 800 2525 800 1750 
Q 800 1000 1075 725 
Q 1300 500 1600 500 
Q 1875 500 2100 725 
Q 2375 1000 2375 1750 
Q 2375 2525 2100 2800 
Q 1875 3025 1600 3025 
z
" transform="scale(0.015625)"/>
      <path id="MS-Gothic-6e" d="M 2325 2500 
Q 2325 2725 2175 2875 
Q 2025 3025 1775 3025 
Q 1500 3025 1225 2750 
Q 875 2400 875 1850 
L 875 50 
L 375 50 
L 375 3475 
L 875 3475 
L 875 2825 
Q 1000 3000 1175 3175 
Q 1475 3475 1925 3475 
Q 2325 3475 2575 3225 
Q 2825 2975 2825 2550 
L 2825 50 
L 2325 50 
L 2325 2500 
z
" transform="scale(0.015625)"/>
      <path id="MS-Gothic-69" d="M 1825 50 
L 1325 50 
L 1325 3475 
L 1825 3475 
L 1825 50 
z
M 1825 4925 
L 1825 4275 
L 1325 4275 
L 1325 4925 
L 1825 4925 
z
" transform="scale(0.015625)"/>
      <path id="MS-Gothic-67" d="M 800 1600 
Q 500 1875 500 2350 
Q 500 2900 800 3200 
Q 1075 3475 1500 3475 
Q 1925 3475 2175 3225 
Q 2550 3525 3000 3475 
L 3000 3000 
Q 2650 3100 2325 3000 
Q 2500 2800 2500 2350 
Q 2500 1875 2200 1575 
Q 1925 1300 1500 1300 
Q 1275 1300 1075 1400 
Q 850 1275 850 1125 
Q 850 1025 950 925 
Q 1075 800 1650 800 
Q 2425 800 2675 550 
Q 2900 325 2900 50 
Q 2900 -275 2675 -500 
Q 2375 -800 1600 -800 
Q 775 -800 475 -500 
Q 275 -300 275 -75 
Q 275 250 725 525 
Q 400 700 400 1025 
Q 400 1350 800 1600 
z
M 1075 400 
Q 725 200 725 -25 
Q 725 -125 850 -250 
Q 1050 -450 1625 -450 
Q 2125 -450 2300 -275 
Q 2425 -150 2425 0 
Q 2425 125 2325 225 
Q 2200 350 1750 350 
Q 1525 350 1075 400 
z
M 1500 3050 
Q 1300 3050 1150 2900 
Q 1000 2750 1000 2350 
Q 1000 2025 1150 1875 
Q 1300 1725 1500 1725 
Q 1700 1725 1850 1875 
Q 2000 2025 2000 2350 
Q 2000 2750 1850 2900 
Q 1700 3050 1500 3050 
z
" transform="scale(0.015625)"/>
      <path id="MS-Gothic-75" d="M 2275 550 
Q 1875 50 1250 50 
Q 825 50 600 275 
Q 350 525 350 900 
L 350 3475 
L 850 3475 
L 850 1025 
Q 850 725 975 600 
Q 1100 475 1400 475 
Q 1750 475 2000 725 
Q 2275 1000 2275 1425 
L 2275 3475 
L 2775 3475 
L 2775 50 
L 2275 50 
L 2275 550 
z
" transform="scale(0.015625)"/>
      <path id="MS-Gothic-6c" d="M 1850 50 
L 1350 50 
L 1350 4925 
L 1850 4925 
L 1850 50 
z
" transform="scale(0.015625)"/>
      <path id="MS-Gothic-65" d="M 2875 1225 
Q 2800 675 2500 375 
Q 2175 50 1675 50 
Q 1125 50 800 375 
Q 325 850 325 1750 
Q 325 2675 750 3100 
Q 1125 3475 1650 3475 
Q 2075 3475 2425 3175 
Q 2875 2800 2850 1750 
L 875 1750 
Q 875 925 1175 700 
Q 1350 525 1675 525 
Q 1950 525 2125 700 
Q 2275 850 2300 1225 
L 2875 1225 
z
M 2275 2150 
Q 2300 2650 2050 2875 
Q 1825 3075 1600 3050 
Q 1350 3025 1125 2800 
Q 925 2600 875 2150 
L 2275 2150 
z
" transform="scale(0.015625)"/>
      <path id="MS-Gothic-72" d="M 1175 2750 
Q 1725 3600 2525 3475 
L 2525 2875 
Q 1600 3050 1175 1900 
L 1175 50 
L 675 50 
L 675 3475 
L 1175 3475 
L 1175 2750 
z
" transform="scale(0.015625)"/>
     </defs>
     <use xlink:href="#MS-Gothic-44"/>
     <use xlink:href="#MS-Gothic-61" transform="translate(50 0)"/>
     <use xlink:href="#MS-Gothic-74" transform="translate(100 0)"/>
     <use xlink:href="#MS-Gothic-61" transform="translate(150 0)"/>
     <use xlink:href="#MS-Gothic-20" transform="translate(200 0)"/>
     <use xlink:href="#MS-Gothic-63" transform="translate(250 0)"/>
     <use xlink:href="#MS-Gothic-6f" transform="translate(300 0)"/>
     <use xlink:href="#MS-Gothic-6e" transform="translate(350 0)"/>
     <use xlink:href="#MS-Gothic-74" transform="translate(400 0)"/>
     <use xlink:href="#MS-Gothic-61" transform="translate(450 0)"/>
     <use xlink:href="#MS-Gothic-69" transform="translate(500 0)"/>
     <use xlink:href="#MS-Gothic-6e" transform="translate(550 0)"/>
     <use xlink:href="#MS-Gothic-69" transform="translate(600 0)"/>
     <use xlink:href="#MS-Gothic-6e" transform="translate(650 0)"/>
     <use xlink:href="#MS-Gothic-67" transform="translate(700 0)"/>
     <use xlink:href="#MS-Gothic-20" transform="translate(750 0)"/>
     <use xlink:href="#MS-Gothic-61" transform="translate(800 0)"/>
     <use xlink:href="#MS-Gothic-6e" transform="translate(850 0)"/>
     <use xlink:href="#MS-Gothic-20" transform="translate(900 0)"/>
     <use xlink:href="#MS-Gothic-6f" transform="translate(950 0)"/>
     <use xlink:href="#MS-Gothic-75" transform="translate(1000 0)"/>
     <use xlink:href="#MS-Gothic-74" transform="translate(1050 0)"/>
     <use xlink:href="#MS-Gothic-6c" transform="translate(1100 0)"/>
     <use xlink:href="#MS-Gothic-69" transform="translate(1150 0)"/>
     <use xlink:href="#MS-Gothic-65" transform="translate(1200 0)"/>
     <use xlink:href="#MS-Gothic-72" transform="translate(1250 0)"/>
    </g>
   </g>
   <g id="legend_1">
    <g id="patch_3">
     <path d="M 415.7375 58.87875 
L 478.1375 58.87875 
Q 480.5375 58.87875 480.5375 56.47875 
L 480.5375 40.8975 
Q 480.5375 38.4975 478.1375 38.4975 
L 415.7375 38.4975 
Q 413.3375 38.4975 413.3375 40.8975 
L 413.3375 56.47875 
Q 413.3375 58.87875 415.7375 58.87875 
z
" style="fill: #ffffff; opacity: 0.8; stroke: #cccccc; stroke-linejoin: miter"/>
    </g>
    <g id="line2d_15">
     <defs>
      <path id="m81789f8ef3" d="M 0 8 
C 2.121625 8 4.156639 7.15707 5.656854 5.656854 
C 7.15707 4.156639 8 2.121625 8 0 
C 8 -2.121625 7.15707 -4.156639 5.656854 -5.656854 
C 4.156639 -7.15707 2.121625 -8 0 -8 
C -2.121625 -8 -4.156639 -7.15707 -5.656854 -5.656854 
C -7.15707 -4.156639 -8 -2.121625 -8 0 
C -8 2.121625 -7.15707 4.156639 -5.656854 5.656854 
C -4.156639 7.15707 -2.121625 8 0 8 
z
" style="stroke: #000000"/>
     </defs>
     <g>
      <use xlink:href="#m81789f8ef3" x="430.1375" y="48.331875" style="stroke: #000000"/>
     </g>
    </g>
    <g id="text_17">
     <!-- data -->
     <g transform="translate(451.7375 52.531875) scale(0.12 -0.12)">
      <defs>
       <path id="MS-Gothic-64" d="M 2300 550 
Q 1900 50 1400 50 
Q 1025 50 675 400 
Q 250 825 250 1825 
Q 250 2650 725 3125 
Q 1075 3475 1500 3475 
Q 1950 3475 2300 3100 
L 2300 4925 
L 2800 4925 
L 2800 50 
L 2300 50 
L 2300 550 
z
M 1550 3025 
Q 1325 3025 1125 2825 
Q 800 2500 800 1775 
Q 800 950 1075 675 
Q 1250 500 1525 500 
Q 1750 500 1975 725 
Q 2300 1050 2300 1825 
Q 2300 2525 1975 2850 
Q 1800 3025 1550 3025 
z
" transform="scale(0.015625)"/>
      </defs>
      <use xlink:href="#MS-Gothic-64"/>
      <use xlink:href="#MS-Gothic-61" transform="translate(50 0)"/>
      <use xlink:href="#MS-Gothic-74" transform="translate(100 0)"/>
      <use xlink:href="#MS-Gothic-61" transform="translate(150 0)"/>
     </g>
    </g>
   </g>
  </g>
 </g>
 <defs>
  <clipPath id="ped44763632">
   <rect x="46.1375" y="26.4975" width="446.4" height="332.64"/>
  </clipPath>
 </defs>
</svg>
