<?xml version="1.0" encoding="utf-8" standalone="no"?>
<!DOCTYPE svg PUBLIC "-//W3C//DTD SVG 1.1//EN"
  "http://www.w3.org/Graphics/SVG/1.1/DTD/svg11.dtd">
<svg xmlns:xlink="http://www.w3.org/1999/xlink" width="500.561562pt" height="399.896925pt" viewBox="0 0 500.561562 399.896925" xmlns="http://www.w3.org/2000/svg" version="1.1">
 <metadata>
  <rdf:RDF xmlns:dc="http://purl.org/dc/elements/1.1/" xmlns:cc="http://creativecommons.org/ns#" xmlns:rdf="http://www.w3.org/1999/02/22-rdf-syntax-ns#">
   <cc:Work>
    <dc:type rdf:resource="http://purl.org/dc/dcmitype/StillImage"/>
    <dc:date>2025-10-29T12:35:05.693834</dc:date>
    <dc:format>image/svg+xml</dc:format>
    <dc:creator>
     <cc:Agent>
      <dc:title>Matplotlib v3.10.7, https://matplotlib.org/</dc:title>
     </cc:Agent>
    </dc:creator>
   </cc:Work>
  </rdf:RDF>
 </metadata>
 <defs>
  <style type="text/css">*{stroke-linejoin: round; stroke-linecap: butt}</style>
 </defs>
 <g id="figure_1">
  <g id="patch_1">
   <path d="M 0 399.896925 
L 500.561562 399.896925 
L 500.561562 0 
L 0 0 
z
" style="fill: #ffffff"/>
  </g>
  <g id="axes_1">
   <g id="patch_2">
    <path d="M 46.961562 358.7838 
L 493.361562 358.7838 
L 493.361562 26.1438 
L 46.961562 26.1438 
z
" style="fill: #ffffff"/>
   </g>
   <g id="matplotlib.axis_1">
    <g id="xtick_1">
     <g id="line2d_1">
      <path d="M 67.252472 358.7838 
L 67.252472 26.1438 
" clip-path="url(#p8527453be1)" style="fill: none; stroke: #000000; stroke-opacity: 0.3; stroke-width: 0.5; stroke-linecap: square"/>
     </g>
     <g id="line2d_2">
      <defs>
       <path id="m2ee7160641" d="M 0 0 
L 0 3.5 
" style="stroke: #000000; stroke-width: 0.8"/>
      </defs>
      <g>
       <use xlink:href="#m2ee7160641" x="67.252472" y="358.7838" style="stroke: #000000; stroke-width: 0.8"/>
      </g>
     </g>
     <g id="text_1">
      <!-- −2.0 -->
      <g transform="translate(56.241534 373.274425) scale(0.1 -0.1)">
       <defs>
        <path id="IPAexGothic-2212" d="M 416 2222 
L 3922 2222 
L 3922 1856 
L 416 1856 
L 416 2222 
z
" transform="scale(0.015625)"/>
        <path id="IPAexGothic-32" d="M 3659 63 
L 447 63 
L 447 594 
Q 825 1475 1894 2203 
L 2072 2322 
Q 2619 2697 2791 2906 
Q 2988 3153 2988 3444 
Q 2988 3772 2756 4003 
Q 2500 4259 2084 4259 
Q 1250 4259 991 3328 
L 497 3506 
Q 853 4725 2116 4725 
Q 2806 4725 3216 4316 
Q 3575 3947 3575 3425 
Q 3575 3038 3344 2722 
Q 3131 2416 2366 1938 
L 2231 1856 
Q 1256 1253 978 569 
L 3659 569 
L 3659 63 
z
" transform="scale(0.015625)"/>
        <path id="IPAexGothic-2e" d="M 1184 63 
L 494 63 
L 494 753 
L 1184 753 
L 1184 63 
z
" transform="scale(0.015625)"/>
        <path id="IPAexGothic-30" d="M 2038 4725 
Q 2881 4725 3334 3944 
Q 3694 3325 3694 2344 
Q 3694 1372 3334 741 
Q 2888 -31 2016 -31 
Q 1147 -31 700 741 
Q 341 1372 341 2350 
Q 341 3713 1000 4334 
Q 1419 4725 2038 4725 
z
M 2016 4266 
Q 1516 4266 1228 3759 
Q 934 3247 934 2344 
Q 934 1456 1222 947 
Q 1513 447 2016 447 
Q 2619 447 2909 1153 
Q 3100 1622 3100 2375 
Q 3100 3256 2806 3759 
Q 2509 4266 2016 4266 
z
" transform="scale(0.015625)"/>
       </defs>
       <use xlink:href="#IPAexGothic-2212"/>
       <use xlink:href="#IPAexGothic-32" transform="translate(67.822266 0)"/>
       <use xlink:href="#IPAexGothic-2e" transform="translate(130.810547 0)"/>
       <use xlink:href="#IPAexGothic-30" transform="translate(157.226562 0)"/>
      </g>
     </g>
    </g>
    <g id="xtick_2">
     <g id="line2d_3">
      <path d="M 118.10688 358.7838 
L 118.10688 26.1438 
" clip-path="url(#p8527453be1)" style="fill: none; stroke: #000000; stroke-opacity: 0.3; stroke-width: 0.5; stroke-linecap: square"/>
     </g>
     <g id="line2d_4">
      <g>
       <use xlink:href="#m2ee7160641" x="118.10688" y="358.7838" style="stroke: #000000; stroke-width: 0.8"/>
      </g>
     </g>
     <g id="text_2">
      <!-- −1.5 -->
      <g transform="translate(107.095943 373.274425) scale(0.1 -0.1)">
       <defs>
        <path id="IPAexGothic-31" d="M 2463 63 
L 1900 63 
L 1900 4103 
Q 1372 3922 788 3797 
L 684 4231 
Q 1519 4441 2106 4731 
L 2463 4731 
L 2463 63 
z
" transform="scale(0.015625)"/>
        <path id="IPAexGothic-35" d="M 1178 2603 
Q 1634 2963 2172 2963 
Q 2816 2963 3241 2528 
Q 3638 2113 3638 1497 
Q 3638 938 3297 513 
Q 2869 -31 2031 -31 
Q 959 -31 469 784 
L 938 1028 
Q 1309 434 2013 434 
Q 2466 434 2769 716 
Q 3081 1013 3081 1503 
Q 3081 1966 2806 2241 
Q 2519 2528 2056 2528 
Q 1406 2528 1072 2028 
L 591 2091 
L 884 4634 
L 3406 4634 
L 3406 4153 
L 1341 4153 
L 1134 2603 
L 1178 2603 
z
" transform="scale(0.015625)"/>
       </defs>
       <use xlink:href="#IPAexGothic-2212"/>
       <use xlink:href="#IPAexGothic-31" transform="translate(67.822266 0)"/>
       <use xlink:href="#IPAexGothic-2e" transform="translate(130.810547 0)"/>
       <use xlink:href="#IPAexGothic-35" transform="translate(157.226562 0)"/>
      </g>
     </g>
    </g>
    <g id="xtick_3">
     <g id="line2d_5">
      <path d="M 168.961289 358.7838 
L 168.961289 26.1438 
" clip-path="url(#p8527453be1)" style="fill: none; stroke: #000000; stroke-opacity: 0.3; stroke-width: 0.5; stroke-linecap: square"/>
     </g>
     <g id="line2d_6">
      <g>
       <use xlink:href="#m2ee7160641" x="168.961289" y="358.7838" style="stroke: #000000; stroke-width: 0.8"/>
      </g>
     </g>
     <g id="text_3">
      <!-- −1.0 -->
      <g transform="translate(157.950352 373.274425) scale(0.1 -0.1)">
       <use xlink:href="#IPAexGothic-2212"/>
       <use xlink:href="#IPAexGothic-31" transform="translate(67.822266 0)"/>
       <use xlink:href="#IPAexGothic-2e" transform="translate(130.810547 0)"/>
       <use xlink:href="#IPAexGothic-30" transform="translate(157.226562 0)"/>
      </g>
     </g>
    </g>
    <g id="xtick_4">
     <g id="line2d_7">
      <path d="M 219.815698 358.7838 
L 219.815698 26.1438 
" clip-path="url(#p8527453be1)" style="fill: none; stroke: #000000; stroke-opacity: 0.3; stroke-width: 0.5; stroke-linecap: square"/>
     </g>
     <g id="line2d_8">
      <g>
       <use xlink:href="#m2ee7160641" x="219.815698" y="358.7838" style="stroke: #000000; stroke-width: 0.8"/>
      </g>
     </g>
     <g id="text_4">
      <!-- −0.5 -->
      <g transform="translate(208.80476 373.274425) scale(0.1 -0.1)">
       <use xlink:href="#IPAexGothic-2212"/>
       <use xlink:href="#IPAexGothic-30" transform="translate(67.822266 0)"/>
       <use xlink:href="#IPAexGothic-2e" transform="translate(130.810547 0)"/>
       <use xlink:href="#IPAexGothic-35" transform="translate(157.226562 0)"/>
      </g>
     </g>
    </g>
    <g id="xtick_5">
     <g id="line2d_9">
      <path d="M 270.670107 358.7838 
L 270.670107 26.1438 
" clip-path="url(#p8527453be1)" style="fill: none; stroke: #000000; stroke-opacity: 0.3; stroke-width: 0.5; stroke-linecap: square"/>
     </g>
     <g id="line2d_10">
      <g>
       <use xlink:href="#m2ee7160641" x="270.670107" y="358.7838" style="stroke: #000000; stroke-width: 0.8"/>
      </g>
     </g>
     <g id="text_5">
      <!-- 0.0 -->
      <g transform="translate(263.050575 373.274425) scale(0.1 -0.1)">
       <use xlink:href="#IPAexGothic-30"/>
       <use xlink:href="#IPAexGothic-2e" transform="translate(62.988281 0)"/>
       <use xlink:href="#IPAexGothic-30" transform="translate(89.404297 0)"/>
      </g>
     </g>
    </g>
    <g id="xtick_6">
     <g id="line2d_11">
      <path d="M 321.524515 358.7838 
L 321.524515 26.1438 
" clip-path="url(#p8527453be1)" style="fill: none; stroke: #000000; stroke-opacity: 0.3; stroke-width: 0.5; stroke-linecap: square"/>
     </g>
     <g id="line2d_12">
      <g>
       <use xlink:href="#m2ee7160641" x="321.524515" y="358.7838" style="stroke: #000000; stroke-width: 0.8"/>
      </g>
     </g>
     <g id="text_6">
      <!-- 0.5 -->
      <g transform="translate(313.904984 373.274425) scale(0.1 -0.1)">
       <use xlink:href="#IPAexGothic-30"/>
       <use xlink:href="#IPAexGothic-2e" transform="translate(62.988281 0)"/>
       <use xlink:href="#IPAexGothic-35" transform="translate(89.404297 0)"/>
      </g>
     </g>
    </g>
    <g id="xtick_7">
     <g id="line2d_13">
      <path d="M 372.378924 358.7838 
L 372.378924 26.1438 
" clip-path="url(#p8527453be1)" style="fill: none; stroke: #000000; stroke-opacity: 0.3; stroke-width: 0.5; stroke-linecap: square"/>
     </g>
     <g id="line2d_14">
      <g>
       <use xlink:href="#m2ee7160641" x="372.378924" y="358.7838" style="stroke: #000000; stroke-width: 0.8"/>
      </g>
     </g>
     <g id="text_7">
      <!-- 1.0 -->
      <g transform="translate(364.759393 373.274425) scale(0.1 -0.1)">
       <use xlink:href="#IPAexGothic-31"/>
       <use xlink:href="#IPAexGothic-2e" transform="translate(62.988281 0)"/>
       <use xlink:href="#IPAexGothic-30" transform="translate(89.404297 0)"/>
      </g>
     </g>
    </g>
    <g id="xtick_8">
     <g id="line2d_15">
      <path d="M 423.233333 358.7838 
L 423.233333 26.1438 
" clip-path="url(#p8527453be1)" style="fill: none; stroke: #000000; stroke-opacity: 0.3; stroke-width: 0.5; stroke-linecap: square"/>
     </g>
     <g id="line2d_16">
      <g>
       <use xlink:href="#m2ee7160641" x="423.233333" y="358.7838" style="stroke: #000000; stroke-width: 0.8"/>
      </g>
     </g>
     <g id="text_8">
      <!-- 1.5 -->
      <g transform="translate(415.613802 373.274425) scale(0.1 -0.1)">
       <use xlink:href="#IPAexGothic-31"/>
       <use xlink:href="#IPAexGothic-2e" transform="translate(62.988281 0)"/>
       <use xlink:href="#IPAexGothic-35" transform="translate(89.404297 0)"/>
      </g>
     </g>
    </g>
    <g id="xtick_9">
     <g id="line2d_17">
      <path d="M 474.087742 358.7838 
L 474.087742 26.1438 
" clip-path="url(#p8527453be1)" style="fill: none; stroke: #000000; stroke-opacity: 0.3; stroke-width: 0.5; stroke-linecap: square"/>
     </g>
     <g id="line2d_18">
      <g>
       <use xlink:href="#m2ee7160641" x="474.087742" y="358.7838" style="stroke: #000000; stroke-width: 0.8"/>
      </g>
     </g>
     <g id="text_9">
      <!-- 2.0 -->
      <g transform="translate(466.46821 373.274425) scale(0.1 -0.1)">
       <use xlink:href="#IPAexGothic-32"/>
       <use xlink:href="#IPAexGothic-2e" transform="translate(62.988281 0)"/>
       <use xlink:href="#IPAexGothic-30" transform="translate(89.404297 0)"/>
      </g>
     </g>
    </g>
    <g id="text_10">
     <!-- 残差 $r$ -->
     <g transform="translate(250.793563 389.960925) scale(0.144 -0.144)">
      <defs>
       <path id="IPAexGothic-6b8b" d="M 4575 1106 
Q 4906 1394 5338 1913 
L 5681 1691 
Q 5219 1122 4766 728 
Q 4947 434 5181 219 
Q 5366 66 5425 66 
Q 5584 66 5706 1013 
L 6097 769 
Q 5916 -453 5528 -453 
Q 5350 -453 5028 -209 
Q 4722 31 4434 459 
Q 3672 -113 2603 -525 
L 2316 -153 
Q 3413 219 4241 825 
Q 4025 1284 3928 1919 
L 2669 1825 
L 2641 2194 
L 3878 2291 
Q 3838 2688 3831 2881 
L 2909 2816 
L 2891 3181 
L 3806 3238 
L 3806 3309 
Q 3797 3606 3788 3822 
L 2725 3756 
L 2700 4128 
L 3769 4191 
L 3756 4500 
L 3750 4634 
L 3744 4934 
L 3728 5313 
L 4172 5313 
Q 4172 5088 4178 4978 
Q 4188 4547 4197 4219 
L 5853 4319 
L 5888 3956 
L 4216 3853 
L 4241 3272 
L 5700 3366 
L 5725 3009 
L 4259 2906 
Q 4278 2694 4313 2322 
L 6041 2456 
L 6059 2088 
L 4363 1953 
Q 4450 1406 4575 1106 
z
M 1853 1638 
Q 1463 2009 1047 2297 
Q 850 1900 588 1516 
L 331 1881 
Q 1050 2928 1291 4544 
L 484 4544 
L 484 4953 
L 3050 4953 
L 3050 4544 
L 1694 4544 
Q 1694 4500 1688 4472 
Q 1628 4078 1559 3775 
L 2488 3775 
L 2738 3575 
Q 2556 2156 2175 1284 
Q 1744 316 869 -519 
L 556 -169 
Q 1416 584 1853 1638 
z
M 2003 2053 
Q 2172 2578 2284 3384 
L 1456 3384 
Q 1319 2894 1203 2634 
Q 1638 2366 2003 2053 
z
M 5272 4300 
Q 4950 4622 4569 4863 
L 4869 5147 
Q 5225 4934 5584 4594 
L 5272 4300 
z
" transform="scale(0.015625)"/>
       <path id="IPAexGothic-5dee" d="M 2188 4481 
Q 2013 4781 1766 5084 
L 2194 5275 
Q 2459 4913 2669 4481 
L 3659 4481 
Q 3931 4881 4100 5294 
L 4575 5122 
Q 4353 4766 4150 4481 
L 5725 4481 
L 5725 4103 
L 3403 4103 
L 3403 3519 
L 5431 3519 
L 5431 3147 
L 3403 3147 
L 3403 2534 
L 5975 2534 
L 5975 2138 
L 2341 2138 
Q 2225 1813 2041 1466 
L 5431 1466 
L 5431 1081 
L 3813 1081 
L 3813 103 
L 5913 103 
L 5913 -294 
L 1338 -294 
L 1338 103 
L 3344 103 
L 3344 1081 
L 1803 1081 
Q 1331 400 588 -172 
L 281 200 
Q 1394 966 1875 2138 
L 416 2138 
L 416 2534 
L 2950 2534 
L 2950 3147 
L 959 3147 
L 959 3519 
L 2950 3519 
L 2950 4103 
L 666 4103 
L 666 4481 
L 2188 4481 
z
" transform="scale(0.015625)"/>
       <path id="IPAexGothic-20" transform="scale(0.015625)"/>
       <path id="DejaVuSans-Oblique-72" d="M 2853 2969 
Q 2766 3016 2653 3041 
Q 2541 3066 2413 3066 
Q 1953 3066 1609 2717 
Q 1266 2369 1153 1784 
L 800 0 
L 225 0 
L 909 3500 
L 1484 3500 
L 1375 2956 
Q 1603 3259 1920 3421 
Q 2238 3584 2597 3584 
Q 2691 3584 2781 3573 
Q 2872 3563 2963 3538 
L 2853 2969 
z
" transform="scale(0.015625)"/>
      </defs>
      <use xlink:href="#IPAexGothic-6b8b" transform="translate(0 0.984375)"/>
      <use xlink:href="#IPAexGothic-5dee" transform="translate(100 0.984375)"/>
      <use xlink:href="#IPAexGothic-20" transform="translate(200 0.984375)"/>
      <use xlink:href="#DejaVuSans-Oblique-72" transform="translate(227.001953 0.984375)"/>
     </g>
    </g>
   </g>
   <g id="matplotlib.axis_2">
    <g id="ytick_1">
     <g id="line2d_19">
      <path d="M 46.961562 343.6638 
L 493.361562 343.6638 
" clip-path="url(#p8527453be1)" style="fill: none; stroke: #000000; stroke-opacity: 0.3; stroke-width: 0.5; stroke-linecap: square"/>
     </g>
     <g id="line2d_20">
      <defs>
       <path id="mab774cfed3" d="M 0 0 
L -3.5 0 
" style="stroke: #000000; stroke-width: 0.8"/>
      </defs>
      <g>
       <use xlink:href="#mab774cfed3" x="46.961562" y="343.6638" style="stroke: #000000; stroke-width: 0.8"/>
      </g>
     </g>
     <g id="text_11">
      <!-- 0.0 -->
      <g transform="translate(24.7225 347.409112) scale(0.1 -0.1)">
       <use xlink:href="#IPAexGothic-30"/>
       <use xlink:href="#IPAexGothic-2e" transform="translate(62.988281 0)"/>
       <use xlink:href="#IPAexGothic-30" transform="translate(89.404297 0)"/>
      </g>
     </g>
    </g>
    <g id="ytick_2">
     <g id="line2d_21">
      <path d="M 46.961562 305.8638 
L 493.361562 305.8638 
" clip-path="url(#p8527453be1)" style="fill: none; stroke: #000000; stroke-opacity: 0.3; stroke-width: 0.5; stroke-linecap: square"/>
     </g>
     <g id="line2d_22">
      <g>
       <use xlink:href="#mab774cfed3" x="46.961562" y="305.8638" style="stroke: #000000; stroke-width: 0.8"/>
      </g>
     </g>
     <g id="text_12">
      <!-- 0.5 -->
      <g transform="translate(24.7225 309.609113) scale(0.1 -0.1)">
       <use xlink:href="#IPAexGothic-30"/>
       <use xlink:href="#IPAexGothic-2e" transform="translate(62.988281 0)"/>
       <use xlink:href="#IPAexGothic-35" transform="translate(89.404297 0)"/>
      </g>
     </g>
    </g>
    <g id="ytick_3">
     <g id="line2d_23">
      <path d="M 46.961562 268.0638 
L 493.361562 268.0638 
" clip-path="url(#p8527453be1)" style="fill: none; stroke: #000000; stroke-opacity: 0.3; stroke-width: 0.5; stroke-linecap: square"/>
     </g>
     <g id="line2d_24">
      <g>
       <use xlink:href="#mab774cfed3" x="46.961562" y="268.0638" style="stroke: #000000; stroke-width: 0.8"/>
      </g>
     </g>
     <g id="text_13">
      <!-- 1.0 -->
      <g transform="translate(24.7225 271.809113) scale(0.1 -0.1)">
       <use xlink:href="#IPAexGothic-31"/>
       <use xlink:href="#IPAexGothic-2e" transform="translate(62.988281 0)"/>
       <use xlink:href="#IPAexGothic-30" transform="translate(89.404297 0)"/>
      </g>
     </g>
    </g>
    <g id="ytick_4">
     <g id="line2d_25">
      <path d="M 46.961562 230.2638 
L 493.361562 230.2638 
" clip-path="url(#p8527453be1)" style="fill: none; stroke: #000000; stroke-opacity: 0.3; stroke-width: 0.5; stroke-linecap: square"/>
     </g>
     <g id="line2d_26">
      <g>
       <use xlink:href="#mab774cfed3" x="46.961562" y="230.2638" style="stroke: #000000; stroke-width: 0.8"/>
      </g>
     </g>
     <g id="text_14">
      <!-- 1.5 -->
      <g transform="translate(24.7225 234.009113) scale(0.1 -0.1)">
       <use xlink:href="#IPAexGothic-31"/>
       <use xlink:href="#IPAexGothic-2e" transform="translate(62.988281 0)"/>
       <use xlink:href="#IPAexGothic-35" transform="translate(89.404297 0)"/>
      </g>
     </g>
    </g>
    <g id="ytick_5">
     <g id="line2d_27">
      <path d="M 46.961562 192.4638 
L 493.361562 192.4638 
" clip-path="url(#p8527453be1)" style="fill: none; stroke: #000000; stroke-opacity: 0.3; stroke-width: 0.5; stroke-linecap: square"/>
     </g>
     <g id="line2d_28">
      <g>
       <use xlink:href="#mab774cfed3" x="46.961562" y="192.4638" style="stroke: #000000; stroke-width: 0.8"/>
      </g>
     </g>
     <g id="text_15">
      <!-- 2.0 -->
      <g transform="translate(24.7225 196.209113) scale(0.1 -0.1)">
       <use xlink:href="#IPAexGothic-32"/>
       <use xlink:href="#IPAexGothic-2e" transform="translate(62.988281 0)"/>
       <use xlink:href="#IPAexGothic-30" transform="translate(89.404297 0)"/>
      </g>
     </g>
    </g>
    <g id="ytick_6">
     <g id="line2d_29">
      <path d="M 46.961562 154.6638 
L 493.361562 154.6638 
" clip-path="url(#p8527453be1)" style="fill: none; stroke: #000000; stroke-opacity: 0.3; stroke-width: 0.5; stroke-linecap: square"/>
     </g>
     <g id="line2d_30">
      <g>
       <use xlink:href="#mab774cfed3" x="46.961562" y="154.6638" style="stroke: #000000; stroke-width: 0.8"/>
      </g>
     </g>
     <g id="text_16">
      <!-- 2.5 -->
      <g transform="translate(24.7225 158.409113) scale(0.1 -0.1)">
       <use xlink:href="#IPAexGothic-32"/>
       <use xlink:href="#IPAexGothic-2e" transform="translate(62.988281 0)"/>
       <use xlink:href="#IPAexGothic-35" transform="translate(89.404297 0)"/>
      </g>
     </g>
    </g>
    <g id="ytick_7">
     <g id="line2d_31">
      <path d="M 46.961562 116.8638 
L 493.361562 116.8638 
" clip-path="url(#p8527453be1)" style="fill: none; stroke: #000000; stroke-opacity: 0.3; stroke-width: 0.5; stroke-linecap: square"/>
     </g>
     <g id="line2d_32">
      <g>
       <use xlink:href="#mab774cfed3" x="46.961562" y="116.8638" style="stroke: #000000; stroke-width: 0.8"/>
      </g>
     </g>
     <g id="text_17">
      <!-- 3.0 -->
      <g transform="translate(24.7225 120.609113) scale(0.1 -0.1)">
       <defs>
        <path id="IPAexGothic-33" d="M 2381 2419 
Q 3506 2216 3506 1278 
Q 3506 716 3128 356 
Q 2709 -31 1944 -31 
Q 797 -31 288 881 
L 756 1131 
Q 1109 441 1938 441 
Q 2425 441 2694 691 
Q 2950 928 2950 1291 
Q 2950 1719 2566 1978 
Q 2216 2213 1644 2213 
L 1363 2213 
L 1363 2669 
L 1656 2669 
Q 2231 2669 2534 2888 
Q 2859 3119 2859 3509 
Q 2859 3934 2494 4138 
Q 2259 4278 1931 4278 
Q 1238 4278 903 3578 
L 434 3803 
Q 897 4725 1938 4725 
Q 2597 4725 3006 4394 
Q 3416 4069 3416 3534 
Q 3416 3028 3019 2706 
Q 2763 2500 2381 2444 
L 2381 2419 
z
" transform="scale(0.015625)"/>
       </defs>
       <use xlink:href="#IPAexGothic-33"/>
       <use xlink:href="#IPAexGothic-2e" transform="translate(62.988281 0)"/>
       <use xlink:href="#IPAexGothic-30" transform="translate(89.404297 0)"/>
      </g>
     </g>
    </g>
    <g id="ytick_8">
     <g id="line2d_33">
      <path d="M 46.961562 79.0638 
L 493.361562 79.0638 
" clip-path="url(#p8527453be1)" style="fill: none; stroke: #000000; stroke-opacity: 0.3; stroke-width: 0.5; stroke-linecap: square"/>
     </g>
     <g id="line2d_34">
      <g>
       <use xlink:href="#mab774cfed3" x="46.961562" y="79.0638" style="stroke: #000000; stroke-width: 0.8"/>
      </g>
     </g>
     <g id="text_18">
      <!-- 3.5 -->
      <g transform="translate(24.7225 82.809113) scale(0.1 -0.1)">
       <use xlink:href="#IPAexGothic-33"/>
       <use xlink:href="#IPAexGothic-2e" transform="translate(62.988281 0)"/>
       <use xlink:href="#IPAexGothic-35" transform="translate(89.404297 0)"/>
      </g>
     </g>
    </g>
    <g id="ytick_9">
     <g id="line2d_35">
      <path d="M 46.961562 41.2638 
L 493.361562 41.2638 
" clip-path="url(#p8527453be1)" style="fill: none; stroke: #000000; stroke-opacity: 0.3; stroke-width: 0.5; stroke-linecap: square"/>
     </g>
     <g id="line2d_36">
      <g>
       <use xlink:href="#mab774cfed3" x="46.961562" y="41.2638" style="stroke: #000000; stroke-width: 0.8"/>
      </g>
     </g>
     <g id="text_19">
      <!-- 4.0 -->
      <g transform="translate(24.7225 45.009113) scale(0.1 -0.1)">
       <defs>
        <path id="IPAexGothic-34" d="M 3813 1159 
L 3059 1159 
L 3059 63 
L 2547 63 
L 2547 1159 
L 197 1159 
L 197 1672 
L 2456 4678 
L 3059 4678 
L 3059 1634 
L 3813 1634 
L 3813 1159 
z
M 2578 4109 
L 2559 4109 
Q 2278 3656 2003 3284 
L 759 1634 
L 2547 1634 
L 2547 3144 
Q 2547 3481 2578 4109 
z
" transform="scale(0.015625)"/>
       </defs>
       <use xlink:href="#IPAexGothic-34"/>
       <use xlink:href="#IPAexGothic-2e" transform="translate(62.988281 0)"/>
       <use xlink:href="#IPAexGothic-30" transform="translate(89.404297 0)"/>
      </g>
     </g>
    </g>
    <g id="text_20">
     <!-- 損失 -->
     <g transform="translate(17.9865 206.8638) rotate(-90) scale(0.144 -0.144)">
      <defs>
       <path id="IPAexGothic-640d" d="M 1178 4013 
L 1178 5300 
L 1606 5300 
L 1606 4013 
L 2316 4013 
L 2316 3597 
L 1606 3597 
L 1606 2381 
Q 1797 2438 2259 2597 
L 2291 2216 
Q 2022 2106 1606 1972 
L 1606 0 
Q 1606 -272 1484 -363 
Q 1384 -447 1094 -447 
Q 797 -447 519 -409 
L 441 50 
Q 719 -6 966 -6 
Q 1178 -6 1178 172 
L 1178 1831 
Q 753 1703 403 1619 
L 275 2047 
Q 741 2144 1153 2253 
L 1178 2259 
L 1178 3597 
L 372 3597 
L 372 4013 
L 1178 4013 
z
M 5428 5038 
L 5428 3731 
L 2816 3731 
L 2816 5038 
L 5428 5038 
z
M 3244 4678 
L 3244 4084 
L 4997 4084 
L 4997 4678 
L 3244 4678 
z
M 5753 3391 
L 5753 659 
L 2509 659 
L 2509 3391 
L 5753 3391 
z
M 2938 3038 
L 2938 2597 
L 5325 2597 
L 5325 3038 
L 2938 3038 
z
M 2938 2256 
L 2938 1813 
L 5325 1813 
L 5325 2256 
L 2938 2256 
z
M 2938 1472 
L 2938 1006 
L 5325 1006 
L 5325 1472 
L 2938 1472 
z
M 2034 -122 
Q 2828 141 3469 609 
L 3781 313 
Q 3153 -172 2347 -513 
L 2034 -122 
z
M 5803 -447 
Q 5113 16 4356 319 
L 4653 634 
Q 5450 325 6150 -78 
L 5803 -447 
z
" transform="scale(0.015625)"/>
       <path id="IPAexGothic-5931" d="M 3000 4109 
L 3000 5294 
L 3481 5294 
L 3481 4109 
L 5534 4109 
L 5534 3694 
L 3481 3694 
L 3481 2606 
L 5919 2606 
L 5919 2184 
L 3603 2184 
Q 4241 744 6009 194 
L 5663 -272 
Q 3900 466 3316 1953 
Q 3131 1175 2547 572 
Q 1928 -66 881 -363 
L 588 72 
Q 2550 525 2944 2184 
L 544 2184 
L 544 2606 
L 3000 2606 
L 3000 3694 
L 1741 3694 
Q 1519 3194 1175 2747 
L 806 3059 
Q 1409 3800 1669 4972 
L 2138 4866 
Q 2034 4453 1906 4109 
L 3000 4109 
z
" transform="scale(0.015625)"/>
      </defs>
      <use xlink:href="#IPAexGothic-640d"/>
      <use xlink:href="#IPAexGothic-5931" transform="translate(100 0)"/>
     </g>
    </g>
   </g>
   <g id="line2d_37">
    <path d="M 67.252472 41.2638 
L 74.372089 62.06136 
L 81.491706 82.11804 
L 88.611323 101.43384 
L 94.713852 117.40056 
L 100.816381 132.82296 
L 106.91891 147.70104 
L 113.021439 162.0348 
L 119.123969 175.82424 
L 125.226498 189.06936 
L 131.329027 201.77016 
L 137.431556 213.92664 
L 143.534085 225.5388 
L 149.636614 236.60664 
L 154.722055 245.41404 
L 159.807496 253.84344 
L 164.892936 261.89484 
L 169.978377 269.56824 
L 175.063818 276.86364 
L 180.149259 283.78104 
L 185.2347 290.32044 
L 190.320141 296.48184 
L 195.405582 302.26524 
L 200.491023 307.67064 
L 205.576463 312.69804 
L 210.661904 317.34744 
L 214.730257 320.7948 
L 218.79861 324.00024 
L 222.866962 326.96376 
L 226.935315 329.68536 
L 231.003668 332.16504 
L 235.07202 334.4028 
L 239.140373 336.39864 
L 243.208726 338.15256 
L 247.277079 339.66456 
L 251.345431 340.93464 
L 255.413784 341.9628 
L 259.482137 342.74904 
L 263.550489 343.29336 
L 267.618842 343.59576 
L 271.687195 343.65624 
L 275.755547 343.4748 
L 279.8239 343.05144 
L 283.892253 342.38616 
L 287.960606 341.47896 
L 292.028958 340.32984 
L 296.097311 338.9388 
L 300.165664 337.30584 
L 304.234016 335.43096 
L 308.302369 333.31416 
L 312.370722 330.95544 
L 316.439074 328.3548 
L 320.507427 325.51224 
L 324.57578 322.42776 
L 328.644133 319.10136 
L 332.712485 315.53304 
L 336.780838 311.7228 
L 341.866279 306.6198 
L 346.95172 301.1388 
L 352.037161 295.2798 
L 357.122601 289.0428 
L 362.208042 282.4278 
L 367.293483 275.4348 
L 372.378924 268.0638 
L 377.464365 260.3148 
L 382.549806 252.1878 
L 387.635247 243.6828 
L 392.720688 234.7998 
L 398.823217 223.64124 
L 404.925746 211.93836 
L 411.028275 199.69116 
L 417.130804 186.89964 
L 423.233333 173.5638 
L 429.335862 159.68364 
L 435.438391 145.25916 
L 441.54092 130.29036 
L 447.643449 114.77724 
L 453.745978 98.7198 
L 460.865595 79.29816 
L 467.985213 59.13564 
L 473.070653 44.28024 
L 473.070653 44.28024 
" clip-path="url(#p8527453be1)" style="fill: none; stroke: #ff0000; stroke-width: 1.2; stroke-linecap: square"/>
   </g>
   <g id="line2d_38">
    <path d="M 67.252472 192.4638 
L 270.670107 343.6638 
L 473.070653 193.2198 
L 473.070653 193.2198 
" clip-path="url(#p8527453be1)" style="fill: none; stroke: #ffa500; stroke-width: 1.2; stroke-linecap: square"/>
   </g>
   <g id="line2d_39">
    <path d="M 67.252472 201.9138 
L 124.209409 265.28172 
L 131.329027 272.71698 
L 137.431556 278.79522 
L 143.534085 284.6013 
L 149.636614 290.13522 
L 155.739143 295.39698 
L 161.841672 300.38658 
L 167.944201 305.10402 
L 174.04673 309.5493 
L 180.149259 313.72242 
L 186.251788 317.62338 
L 192.354317 321.25218 
L 198.456846 324.60882 
L 204.559375 327.6933 
L 210.661904 330.50562 
L 216.764433 333.04578 
L 222.866962 335.31378 
L 228.969491 337.30962 
L 235.07202 339.0333 
L 241.17455 340.48482 
L 247.277079 341.66418 
L 252.362519 342.43908 
L 257.44796 343.02498 
L 262.533401 343.42188 
L 267.618842 343.62978 
L 272.704283 343.64868 
L 277.789724 343.47858 
L 282.875165 343.11948 
L 287.960606 342.57138 
L 293.046046 341.83428 
L 298.131487 340.90818 
L 304.234016 339.54738 
L 310.336545 337.91442 
L 316.439074 336.0093 
L 322.541604 333.83202 
L 328.644133 331.38258 
L 334.746662 328.66098 
L 340.849191 325.66722 
L 346.95172 322.4013 
L 353.054249 318.86322 
L 359.156778 315.05298 
L 365.259307 310.97058 
L 371.361836 306.61602 
L 377.464365 301.9893 
L 383.566894 297.09042 
L 389.669423 291.91938 
L 395.771952 286.47618 
L 401.874481 280.76082 
L 407.97701 274.7733 
L 414.079539 268.51362 
L 421.199156 260.86668 
L 436.455479 243.8718 
L 473.070653 203.0478 
L 473.070653 203.0478 
" clip-path="url(#p8527453be1)" style="fill: none; stroke: #008000; stroke-width: 1.2; stroke-linecap: square"/>
   </g>
   <g id="line2d_40">
    <path d="M 46.961562 343.6638 
L 493.361562 343.6638 
" clip-path="url(#p8527453be1)" style="fill: none; stroke: #000000; stroke-width: 0.8; stroke-linecap: square"/>
   </g>
   <g id="text_21">
    <!-- 二乗・絶対・Huber損失の比較 -->
    <g transform="translate(149.917062 20.1438) scale(0.1728 -0.1728)">
     <defs>
      <path id="IPAexGothic-4e8c" d="M 994 4331 
L 5403 4331 
L 5403 3838 
L 994 3838 
L 994 4331 
z
M 513 859 
L 5881 859 
L 5881 359 
L 513 359 
L 513 859 
z
" transform="scale(0.015625)"/>
      <path id="IPAexGothic-4e57" d="M 3756 1428 
Q 4803 575 6078 181 
L 5766 -263 
Q 4316 344 3403 1275 
L 3403 -447 
L 2950 -447 
L 2950 1244 
Q 2131 219 684 -384 
L 378 6 
Q 1688 438 2631 1428 
L 703 1428 
L 703 1806 
L 1581 1806 
L 1581 2516 
L 384 2516 
L 384 2900 
L 1581 2900 
L 1581 3584 
L 703 3584 
L 703 3956 
L 2950 3956 
L 2950 4500 
L 2688 4475 
Q 1822 4409 1081 4384 
L 884 4775 
Q 3334 4881 4800 5147 
L 5178 4763 
Q 4397 4638 3403 4538 
L 3403 3956 
L 5691 3956 
L 5691 3584 
L 4813 3584 
L 4813 2900 
L 6016 2900 
L 6016 2516 
L 4813 2516 
L 4813 1806 
L 5691 1806 
L 5691 1428 
L 3756 1428 
z
M 4372 3584 
L 3391 3584 
L 3391 2894 
L 4372 2894 
L 4372 3584 
z
M 2963 3584 
L 2022 3584 
L 2022 2894 
L 2963 2894 
L 2963 3584 
z
M 4372 2522 
L 3391 2522 
L 3391 1806 
L 4372 1806 
L 4372 2522 
z
M 2963 2522 
L 2022 2522 
L 2022 1806 
L 2963 1806 
L 2963 2522 
z
" transform="scale(0.015625)"/>
      <path id="IPAexGothic-30fb" d="M 2772 2859 
L 3628 2859 
L 3628 2003 
L 2772 2003 
L 2772 2859 
z
" transform="scale(0.015625)"/>
      <path id="IPAexGothic-7d76" d="M 3569 1709 
L 3569 372 
Q 3569 181 3678 134 
Q 3813 75 4500 75 
Q 5381 75 5522 216 
Q 5644 319 5663 1031 
L 6113 909 
Q 6063 28 5844 -175 
Q 5631 -366 4416 -366 
Q 3488 -366 3300 -238 
Q 3147 -131 3147 191 
L 3147 3138 
Q 3022 2956 2834 2722 
L 2591 3084 
Q 3363 3966 3716 5313 
L 4128 5203 
Q 4044 4938 3981 4756 
L 5069 4756 
L 5266 4578 
Q 5006 3991 4709 3541 
L 5772 3541 
L 5772 1397 
L 5350 1397 
L 5350 1709 
L 3569 1709 
z
M 3569 2081 
L 4250 2081 
L 4250 3169 
L 3569 3169 
L 3569 2081 
z
M 4641 3169 
L 4641 2081 
L 5350 2081 
L 5350 3169 
L 4641 3169 
z
M 4269 3541 
L 4294 3578 
Q 4606 4072 4725 4384 
L 3831 4384 
Q 3688 4009 3409 3541 
L 4269 3541 
z
M 1272 3097 
Q 816 3728 416 4128 
L 697 4428 
Q 831 4284 947 4159 
Q 1334 4750 1566 5338 
L 1981 5125 
Q 1566 4359 1184 3866 
Q 1369 3625 1503 3425 
L 1613 3591 
Q 1984 4150 2219 4563 
L 2597 4313 
Q 1909 3250 1313 2572 
Q 1600 2581 2200 2625 
Q 2072 2950 1963 3150 
L 2316 3297 
Q 2594 2794 2828 2094 
L 2438 1913 
Q 2409 2016 2316 2316 
Q 1947 2250 1791 2234 
L 1791 -447 
L 1375 -447 
L 1375 2188 
Q 891 2128 434 2106 
L 288 2534 
Q 353 2538 500 2541 
Q 641 2544 716 2547 
L 856 2553 
L 894 2606 
Q 988 2719 1272 3097 
z
M 359 206 
Q 572 769 659 1753 
L 1069 1709 
Q 1003 713 775 -13 
L 359 206 
z
M 2347 288 
Q 2216 1141 2009 1759 
L 2375 1869 
Q 2613 1253 2784 459 
L 2347 288 
z
" transform="scale(0.015625)"/>
      <path id="IPAexGothic-5bfe" d="M 2694 3597 
Q 2694 3566 2688 3534 
Q 2584 2566 2234 1703 
Q 2569 1288 3028 666 
L 2656 331 
Q 2434 672 2016 1234 
Q 1466 184 725 -416 
L 366 -63 
Q 1156 525 1684 1569 
L 1709 1625 
Q 1191 2278 647 2844 
L 975 3113 
Q 1475 2619 1906 2100 
Q 2153 2825 2241 3597 
L 391 3597 
L 391 4013 
L 1666 4013 
L 1666 5209 
L 2106 5209 
L 2106 4013 
L 3272 4013 
L 3272 3706 
L 4822 3706 
L 4822 5209 
L 5275 5209 
L 5275 3706 
L 6041 3706 
L 6041 3278 
L 5300 3278 
L 5300 109 
Q 5300 -397 4694 -397 
Q 4206 -397 3872 -353 
L 3784 141 
Q 4200 63 4616 63 
Q 4847 63 4847 269 
L 4847 3278 
L 3241 3278 
L 3241 3597 
L 2694 3597 
z
M 4000 1147 
Q 3619 1994 3188 2578 
L 3578 2816 
Q 4044 2188 4409 1428 
L 4000 1147 
z
" transform="scale(0.015625)"/>
      <path id="IPAexGothic-48" d="M 4181 63 
L 3619 63 
L 3619 2200 
L 1172 2200 
L 1172 63 
L 609 63 
L 609 4634 
L 1172 4634 
L 1172 2669 
L 3619 2669 
L 3619 4634 
L 4181 4634 
L 4181 63 
z
" transform="scale(0.015625)"/>
      <path id="IPAexGothic-75" d="M 3284 63 
L 2772 63 
L 2772 644 
Q 2300 0 1625 0 
Q 1072 0 763 375 
Q 519 678 519 1241 
L 519 3250 
L 1069 3250 
L 1069 1259 
Q 1069 466 1734 466 
Q 2406 466 2734 1291 
L 2734 3250 
L 3284 3250 
L 3284 63 
z
" transform="scale(0.015625)"/>
      <path id="IPAexGothic-62" d="M 1125 2731 
Q 1550 3341 2219 3341 
Q 2788 3341 3191 2938 
Q 3659 2469 3659 1644 
Q 3659 838 3191 372 
Q 2788 -31 2206 -31 
Q 1559 -31 1088 516 
L 1009 44 
L 581 44 
L 581 4794 
L 1125 4794 
L 1125 2731 
z
M 1125 1997 
L 1125 1253 
Q 1125 888 1528 600 
Q 1803 403 2119 403 
Q 2488 403 2744 659 
Q 3084 1009 3084 1631 
Q 3084 2194 2803 2553 
Q 2525 2900 2125 2900 
Q 1759 2900 1438 2578 
Q 1125 2266 1125 1997 
z
" transform="scale(0.015625)"/>
      <path id="IPAexGothic-65" d="M 863 1594 
Q 891 1041 1209 722 
Q 1534 397 1997 397 
Q 2606 397 2963 966 
L 3322 728 
Q 2869 -31 1931 -31 
Q 1222 -31 766 422 
Q 306 884 306 1641 
Q 306 2444 788 2925 
Q 1216 3353 1856 3353 
Q 2459 3353 2866 2956 
Q 3322 2494 3322 1722 
L 3322 1594 
L 863 1594 
z
M 2756 1997 
Q 2709 2431 2450 2681 
Q 2194 2938 1844 2938 
Q 1438 2938 1150 2591 
Q 953 2356 894 1997 
L 2756 1997 
z
" transform="scale(0.015625)"/>
      <path id="IPAexGothic-72" d="M 2309 3316 
L 2213 2769 
Q 2106 2791 2022 2791 
Q 1653 2791 1413 2444 
Q 1113 2006 1113 1675 
L 1113 63 
L 563 63 
L 563 3250 
L 1081 3250 
L 1056 2303 
L 1069 2303 
Q 1422 3341 2097 3341 
Q 2206 3341 2309 3316 
z
" transform="scale(0.015625)"/>
      <path id="IPAexGothic-306e" d="M 3119 469 
Q 5275 766 5275 2425 
Q 5275 3453 4413 3925 
Q 4041 4116 3547 4159 
Q 3394 2525 2850 1400 
Q 2322 306 1722 306 
Q 1384 306 1084 666 
Q 609 1244 609 2003 
Q 609 3025 1397 3794 
Q 2184 4563 3431 4563 
Q 4306 4563 4928 4122 
Q 5813 3506 5813 2425 
Q 5813 438 3431 6 
L 3119 469 
z
M 3053 4147 
Q 2378 4044 1891 3641 
Q 1097 2981 1097 1991 
Q 1097 1366 1434 978 
Q 1581 813 1719 813 
Q 2022 813 2416 1625 
Q 2909 2638 3053 4147 
z
" transform="scale(0.015625)"/>
      <path id="IPAexGothic-6bd4" d="M 1525 3250 
L 3003 3250 
L 3003 2822 
L 1525 2822 
L 1525 472 
Q 2469 747 3016 934 
L 3041 531 
Q 1813 59 459 -300 
L 294 159 
Q 694 250 1056 344 
L 1056 5081 
L 1525 5081 
L 1525 3250 
z
M 3794 3028 
Q 4691 3472 5341 4038 
L 5744 3706 
Q 4778 2969 3794 2572 
L 3794 556 
Q 3794 353 3978 313 
Q 4106 288 4472 288 
Q 5169 288 5328 378 
Q 5491 463 5522 1516 
L 5994 1356 
Q 5966 238 5772 34 
Q 5566 -172 4491 -172 
Q 3809 -172 3588 -75 
Q 3334 28 3334 397 
L 3334 5113 
L 3794 5113 
L 3794 3028 
z
" transform="scale(0.015625)"/>
      <path id="IPAexGothic-8f03" d="M 1413 3688 
L 1413 4153 
L 384 4153 
L 384 4538 
L 1413 4538 
L 1413 5313 
L 1816 5313 
L 1816 4538 
L 2875 4538 
L 2875 4153 
L 1816 4153 
L 1816 3688 
L 2734 3688 
L 2734 1516 
L 1816 1516 
L 1816 1013 
L 2931 1013 
L 2931 628 
L 1816 628 
L 1816 -447 
L 1413 -447 
L 1413 628 
L 294 628 
L 294 1013 
L 1413 1013 
L 1413 1516 
L 531 1516 
L 531 3688 
L 1413 3688 
z
M 1425 3353 
L 903 3353 
L 903 2778 
L 1425 2778 
L 1425 3353 
z
M 1803 3353 
L 1803 2778 
L 2363 2778 
L 2363 3353 
L 1803 3353 
z
M 1425 2456 
L 903 2456 
L 903 1856 
L 1425 1856 
L 1425 2456 
z
M 1803 2456 
L 1803 1856 
L 2363 1856 
L 2363 2456 
L 1803 2456 
z
M 4241 1013 
Q 3791 1606 3550 2338 
L 3916 2509 
Q 4091 1900 4478 1363 
Q 4825 1941 4978 2638 
L 5375 2491 
Q 5194 1719 4747 1031 
Q 5294 444 6144 44 
L 5859 -378 
Q 5069 50 4497 691 
Q 3853 -78 3050 -481 
L 2750 -128 
Q 3644 259 4241 1013 
z
M 4647 4263 
L 6059 4263 
L 6059 3853 
L 2963 3853 
L 2963 4263 
L 4206 4263 
L 4206 5313 
L 4647 5313 
L 4647 4263 
z
M 2847 2297 
Q 3406 2859 3738 3700 
L 4119 3541 
Q 3769 2644 3153 1991 
L 2847 2297 
z
M 5759 2106 
Q 5334 2863 4734 3541 
L 5075 3731 
Q 5731 3044 6097 2419 
L 5759 2106 
z
" transform="scale(0.015625)"/>
     </defs>
     <use xlink:href="#IPAexGothic-4e8c"/>
     <use xlink:href="#IPAexGothic-4e57" transform="translate(100 0)"/>
     <use xlink:href="#IPAexGothic-30fb" transform="translate(200 0)"/>
     <use xlink:href="#IPAexGothic-7d76" transform="translate(300 0)"/>
     <use xlink:href="#IPAexGothic-5bfe" transform="translate(400 0)"/>
     <use xlink:href="#IPAexGothic-30fb" transform="translate(500 0)"/>
     <use xlink:href="#IPAexGothic-48" transform="translate(600 0)"/>
     <use xlink:href="#IPAexGothic-75" transform="translate(675 0)"/>
     <use xlink:href="#IPAexGothic-62" transform="translate(735.400391 0)"/>
     <use xlink:href="#IPAexGothic-65" transform="translate(797.802734 0)"/>
     <use xlink:href="#IPAexGothic-72" transform="translate(854.6875 0)"/>
     <use xlink:href="#IPAexGothic-640d" transform="translate(891.699219 0)"/>
     <use xlink:href="#IPAexGothic-5931" transform="translate(991.699219 0)"/>
     <use xlink:href="#IPAexGothic-306e" transform="translate(1091.699219 0)"/>
     <use xlink:href="#IPAexGothic-6bd4" transform="translate(1191.699219 0)"/>
     <use xlink:href="#IPAexGothic-8f03" transform="translate(1291.699219 0)"/>
    </g>
   </g>
   <g id="legend_1">
    <g id="patch_3">
     <path d="M 188.861562 105.45255 
L 351.461563 105.45255 
Q 353.861562 105.45255 353.861562 103.05255 
L 353.861562 40.5438 
Q 353.861562 38.1438 351.461563 38.1438 
L 188.861562 38.1438 
Q 186.461562 38.1438 186.461562 40.5438 
L 186.461562 103.05255 
Q 186.461562 105.45255 188.861562 105.45255 
z
" style="fill: #ffffff; opacity: 0.8; stroke: #cccccc; stroke-linejoin: miter"/>
    </g>
    <g id="line2d_41">
     <path d="M 191.261562 48.3438 
L 203.261562 48.3438 
L 215.261562 48.3438 
" style="fill: none; stroke: #ff0000; stroke-width: 1.2; stroke-linecap: square"/>
    </g>
    <g id="text_22">
     <!-- 二乗誤差 $r^2$ -->
     <g transform="translate(224.861562 52.5438) scale(0.12 -0.12)">
      <defs>
       <path id="IPAexGothic-8aa4" d="M 2291 1684 
L 2291 -128 
L 925 -128 
L 925 -447 
L 516 -447 
L 516 1684 
L 2291 1684 
z
M 925 1313 
L 925 244 
L 1881 244 
L 1881 1313 
L 925 1313 
z
M 5572 5019 
L 5572 3281 
L 3556 3281 
L 3556 5019 
L 5572 5019 
z
M 3966 4647 
L 3966 3647 
L 5169 3647 
L 5169 4647 
L 3966 4647 
z
M 3122 2706 
L 5553 2706 
L 5453 1594 
L 6109 1594 
L 6109 1209 
L 2481 1209 
L 2481 1594 
L 5022 1594 
L 5094 2334 
L 3122 2334 
L 3122 1972 
L 2706 1972 
L 2706 4544 
L 3122 4544 
L 3122 2706 
z
M 600 5044 
L 2206 5044 
L 2206 4659 
L 600 4659 
L 600 5044 
z
M 331 4206 
L 2444 4206 
L 2444 3816 
L 331 3816 
L 331 4206 
z
M 600 3359 
L 2206 3359 
L 2206 2975 
L 600 2975 
L 600 3359 
z
M 600 2522 
L 2206 2522 
L 2206 2138 
L 600 2138 
L 600 2522 
z
M 2419 -153 
Q 3113 319 3609 1025 
L 3978 794 
Q 3434 22 2738 -494 
L 2419 -153 
z
M 5766 -416 
Q 5125 350 4528 794 
L 4856 1069 
Q 5531 591 6128 -78 
L 5766 -416 
z
" transform="scale(0.015625)"/>
       <path id="DejaVuSans-32" d="M 1228 531 
L 3431 531 
L 3431 0 
L 469 0 
L 469 531 
Q 828 903 1448 1529 
Q 2069 2156 2228 2338 
Q 2531 2678 2651 2914 
Q 2772 3150 2772 3378 
Q 2772 3750 2511 3984 
Q 2250 4219 1831 4219 
Q 1534 4219 1204 4116 
Q 875 4013 500 3803 
L 500 4441 
Q 881 4594 1212 4672 
Q 1544 4750 1819 4750 
Q 2544 4750 2975 4387 
Q 3406 4025 3406 3419 
Q 3406 3131 3298 2873 
Q 3191 2616 2906 2266 
Q 2828 2175 2409 1742 
Q 1991 1309 1228 531 
z
" transform="scale(0.015625)"/>
      </defs>
      <use xlink:href="#IPAexGothic-4e8c" transform="translate(0 0.765625)"/>
      <use xlink:href="#IPAexGothic-4e57" transform="translate(100 0.765625)"/>
      <use xlink:href="#IPAexGothic-8aa4" transform="translate(200 0.765625)"/>
      <use xlink:href="#IPAexGothic-5dee" transform="translate(300 0.765625)"/>
      <use xlink:href="#IPAexGothic-20" transform="translate(400 0.765625)"/>
      <use xlink:href="#DejaVuSans-Oblique-72" transform="translate(427.001953 0.765625)"/>
      <use xlink:href="#DejaVuSans-32" transform="translate(472.76513 39.046875) scale(0.7)"/>
     </g>
    </g>
    <g id="line2d_42">
     <path d="M 191.261562 71.5038 
L 203.261562 71.5038 
L 215.261562 71.5038 
" style="fill: none; stroke: #ffa500; stroke-width: 1.2; stroke-linecap: square"/>
    </g>
    <g id="text_23">
     <!-- 絶対誤差 $|r|$ -->
     <g transform="translate(224.861562 75.7038) scale(0.12 -0.12)">
      <defs>
       <path id="DejaVuSans-7c" d="M 1344 4891 
L 1344 -1509 
L 813 -1509 
L 813 4891 
L 1344 4891 
z
" transform="scale(0.015625)"/>
      </defs>
      <use xlink:href="#IPAexGothic-7d76" transform="translate(0 0.59375)"/>
      <use xlink:href="#IPAexGothic-5bfe" transform="translate(100 0.59375)"/>
      <use xlink:href="#IPAexGothic-8aa4" transform="translate(200 0.59375)"/>
      <use xlink:href="#IPAexGothic-5dee" transform="translate(300 0.59375)"/>
      <use xlink:href="#IPAexGothic-20" transform="translate(400 0.59375)"/>
      <use xlink:href="#DejaVuSans-7c" transform="translate(427.001953 0.59375)"/>
      <use xlink:href="#DejaVuSans-Oblique-72" transform="translate(460.693359 0.59375)"/>
      <use xlink:href="#DejaVuSans-7c" transform="translate(501.806641 0.59375)"/>
     </g>
    </g>
    <g id="line2d_43">
     <path d="M 191.261562 94.17255 
L 203.261562 94.17255 
L 215.261562 94.17255 
" style="fill: none; stroke: #008000; stroke-width: 1.2; stroke-linecap: square"/>
    </g>
    <g id="text_24">
     <!-- Huber損失（$\delta=1.5$） -->
     <g transform="translate(224.861562 98.37255) scale(0.12 -0.12)">
      <defs>
       <path id="IPAexGothic-ff08" d="M 5419 -434 
Q 4197 769 4197 2438 
Q 4197 4097 5419 5300 
L 5919 5300 
Q 4678 4078 4678 2425 
Q 4678 788 5919 -434 
L 5419 -434 
z
" transform="scale(0.015625)"/>
       <path id="DejaVuSans-Oblique-3b4" d="M 3472 4053 
Q 3197 4272 2450 4272 
Q 1659 4272 1588 3906 
Q 1531 3619 2328 3469 
Q 2953 3353 3253 3003 
Q 3616 2581 3447 1716 
Q 3284 888 2763 400 
Q 2238 -91 1488 -91 
Q 741 -91 406 400 
Q 72 888 241 1747 
Q 363 2384 891 2900 
Q 1097 3100 1353 3213 
Q 913 3459 1000 3900 
Q 1166 4750 2544 4750 
Q 3234 4750 3566 4531 
L 3472 4053 
z
M 1753 3056 
Q 1525 2966 1306 2738 
Q 969 2384 847 1747 
Q 722 1113 919 756 
Q 1119 397 1584 397 
Q 2044 397 2381 759 
Q 2722 1122 2838 1716 
Q 2956 2338 2731 2638 
Q 2491 2959 2103 2994 
Q 1906 3013 1753 3056 
z
" transform="scale(0.015625)"/>
       <path id="DejaVuSans-3d" d="M 678 2906 
L 4684 2906 
L 4684 2381 
L 678 2381 
L 678 2906 
z
M 678 1631 
L 4684 1631 
L 4684 1100 
L 678 1100 
L 678 1631 
z
" transform="scale(0.015625)"/>
       <path id="DejaVuSans-31" d="M 794 531 
L 1825 531 
L 1825 4091 
L 703 3866 
L 703 4441 
L 1819 4666 
L 2450 4666 
L 2450 531 
L 3481 531 
L 3481 0 
L 794 0 
L 794 531 
z
" transform="scale(0.015625)"/>
       <path id="DejaVuSans-2e" d="M 684 794 
L 1344 794 
L 1344 0 
L 684 0 
L 684 794 
z
" transform="scale(0.015625)"/>
       <path id="DejaVuSans-35" d="M 691 4666 
L 3169 4666 
L 3169 4134 
L 1269 4134 
L 1269 2991 
Q 1406 3038 1543 3061 
Q 1681 3084 1819 3084 
Q 2600 3084 3056 2656 
Q 3513 2228 3513 1497 
Q 3513 744 3044 326 
Q 2575 -91 1722 -91 
Q 1428 -91 1123 -41 
Q 819 9 494 109 
L 494 744 
Q 775 591 1075 516 
Q 1375 441 1709 441 
Q 2250 441 2565 725 
Q 2881 1009 2881 1497 
Q 2881 1984 2565 2268 
Q 2250 2553 1709 2553 
Q 1456 2553 1204 2497 
Q 953 2441 691 2322 
L 691 4666 
z
" transform="scale(0.015625)"/>
       <path id="IPAexGothic-ff09" d="M 481 -434 
Q 1722 788 1722 2431 
Q 1722 4066 481 5300 
L 981 5300 
Q 2203 4097 2203 2431 
Q 2203 769 981 -434 
L 481 -434 
z
" transform="scale(0.015625)"/>
      </defs>
      <use xlink:href="#IPAexGothic-48" transform="translate(0 0.1875)"/>
      <use xlink:href="#IPAexGothic-75" transform="translate(75 0.1875)"/>
      <use xlink:href="#IPAexGothic-62" transform="translate(135.400391 0.1875)"/>
      <use xlink:href="#IPAexGothic-65" transform="translate(197.802734 0.1875)"/>
      <use xlink:href="#IPAexGothic-72" transform="translate(254.6875 0.1875)"/>
      <use xlink:href="#IPAexGothic-640d" transform="translate(291.699219 0.1875)"/>
      <use xlink:href="#IPAexGothic-5931" transform="translate(391.699219 0.1875)"/>
      <use xlink:href="#IPAexGothic-ff08" transform="translate(491.699219 0.1875)"/>
      <use xlink:href="#DejaVuSans-Oblique-3b4" transform="translate(591.699219 0.1875)"/>
      <use xlink:href="#DejaVuSans-3d" transform="translate(672.363281 0.1875)"/>
      <use xlink:href="#DejaVuSans-31" transform="translate(775.634766 0.1875)"/>
      <use xlink:href="#DejaVuSans-2e" transform="translate(839.257812 0.1875)"/>
      <use xlink:href="#DejaVuSans-35" transform="translate(871.044922 0.1875)"/>
      <use xlink:href="#IPAexGothic-ff09" transform="translate(934.667969 0.1875)"/>
     </g>
    </g>
   </g>
  </g>
 </g>
 <defs>
  <clipPath id="p8527453be1">
   <rect x="46.961562" y="26.1438" width="446.4" height="332.64"/>
  </clipPath>
 </defs>
</svg>
