<?xml version="1.0" encoding="utf-8" standalone="no"?>
<!DOCTYPE svg PUBLIC "-//W3C//DTD SVG 1.1//EN"
  "http://www.w3.org/Graphics/SVG/1.1/DTD/svg11.dtd">
<svg xmlns:xlink="http://www.w3.org/1999/xlink" width="500.561562pt" height="399.896925pt" viewBox="0 0 500.561562 399.896925" xmlns="http://www.w3.org/2000/svg" version="1.1">
 <metadata>
  <rdf:RDF xmlns:dc="http://purl.org/dc/elements/1.1/" xmlns:cc="http://creativecommons.org/ns#" xmlns:rdf="http://www.w3.org/1999/02/22-rdf-syntax-ns#">
   <cc:Work>
    <dc:type rdf:resource="http://purl.org/dc/dcmitype/StillImage"/>
    <dc:date>2025-10-30T20:22:36.216477</dc:date>
    <dc:format>image/svg+xml</dc:format>
    <dc:creator>
     <cc:Agent>
      <dc:title>Matplotlib v3.10.7, https://matplotlib.org/</dc:title>
     </cc:Agent>
    </dc:creator>
   </cc:Work>
  </rdf:RDF>
 </metadata>
 <defs>
  <style type="text/css">*{stroke-linejoin: round; stroke-linecap: butt}</style>
 </defs>
 <g id="figure_1">
  <g id="patch_1">
   <path d="M 0 399.896925 
L 500.561562 399.896925 
L 500.561562 0 
L 0 0 
z
" style="fill: #ffffff"/>
  </g>
  <g id="axes_1">
   <g id="patch_2">
    <path d="M 46.961562 358.7838 
L 493.361562 358.7838 
L 493.361562 26.1438 
L 46.961562 26.1438 
z
" style="fill: #ffffff"/>
   </g>
   <g id="matplotlib.axis_1">
    <g id="xtick_1">
     <g id="line2d_1">
      <path d="M 67.252472 358.7838 
L 67.252472 26.1438 
" clip-path="url(#p5814832394)" style="fill: none; stroke: #000000; stroke-opacity: 0.3; stroke-width: 0.5; stroke-linecap: square"/>
     </g>
     <g id="line2d_2">
      <defs>
       <path id="m4f69b585f7" d="M 0 0 
L 0 3.5 
" style="stroke: #000000; stroke-width: 0.8"/>
      </defs>
      <g>
       <use xlink:href="#m4f69b585f7" x="67.252472" y="358.7838" style="stroke: #000000; stroke-width: 0.8"/>
      </g>
     </g>
     <g id="text_1">
      <!-- -2.0 -->
      <g transform="translate(57.843097 373.274425) scale(0.1 -0.1)">
       <defs>
        <path id="IPAexGothic-2d" d="M 1969 1703 
L 319 1703 
L 319 2203 
L 1969 2203 
L 1969 1703 
z
" transform="scale(0.015625)"/>
        <path id="IPAexGothic-32" d="M 3659 63 
L 447 63 
L 447 594 
Q 825 1475 1894 2203 
L 2072 2322 
Q 2619 2697 2791 2906 
Q 2988 3153 2988 3444 
Q 2988 3772 2756 4003 
Q 2500 4259 2084 4259 
Q 1250 4259 991 3328 
L 497 3506 
Q 853 4725 2116 4725 
Q 2806 4725 3216 4316 
Q 3575 3947 3575 3425 
Q 3575 3038 3344 2722 
Q 3131 2416 2366 1938 
L 2231 1856 
Q 1256 1253 978 569 
L 3659 569 
L 3659 63 
z
" transform="scale(0.015625)"/>
        <path id="IPAexGothic-2e" d="M 1184 63 
L 494 63 
L 494 753 
L 1184 753 
L 1184 63 
z
" transform="scale(0.015625)"/>
        <path id="IPAexGothic-30" d="M 2038 4725 
Q 2881 4725 3334 3944 
Q 3694 3325 3694 2344 
Q 3694 1372 3334 741 
Q 2888 -31 2016 -31 
Q 1147 -31 700 741 
Q 341 1372 341 2350 
Q 341 3713 1000 4334 
Q 1419 4725 2038 4725 
z
M 2016 4266 
Q 1516 4266 1228 3759 
Q 934 3247 934 2344 
Q 934 1456 1222 947 
Q 1513 447 2016 447 
Q 2619 447 2909 1153 
Q 3100 1622 3100 2375 
Q 3100 3256 2806 3759 
Q 2509 4266 2016 4266 
z
" transform="scale(0.015625)"/>
       </defs>
       <use xlink:href="#IPAexGothic-2d"/>
       <use xlink:href="#IPAexGothic-32" transform="translate(35.791016 0)"/>
       <use xlink:href="#IPAexGothic-2e" transform="translate(98.779297 0)"/>
       <use xlink:href="#IPAexGothic-30" transform="translate(125.195312 0)"/>
      </g>
     </g>
    </g>
    <g id="xtick_2">
     <g id="line2d_3">
      <path d="M 118.10688 358.7838 
L 118.10688 26.1438 
" clip-path="url(#p5814832394)" style="fill: none; stroke: #000000; stroke-opacity: 0.3; stroke-width: 0.5; stroke-linecap: square"/>
     </g>
     <g id="line2d_4">
      <g>
       <use xlink:href="#m4f69b585f7" x="118.10688" y="358.7838" style="stroke: #000000; stroke-width: 0.8"/>
      </g>
     </g>
     <g id="text_2">
      <!-- -1.5 -->
      <g transform="translate(108.697505 373.274425) scale(0.1 -0.1)">
       <defs>
        <path id="IPAexGothic-31" d="M 2463 63 
L 1900 63 
L 1900 4103 
Q 1372 3922 788 3797 
L 684 4231 
Q 1519 4441 2106 4731 
L 2463 4731 
L 2463 63 
z
" transform="scale(0.015625)"/>
        <path id="IPAexGothic-35" d="M 1178 2603 
Q 1634 2963 2172 2963 
Q 2816 2963 3241 2528 
Q 3638 2113 3638 1497 
Q 3638 938 3297 513 
Q 2869 -31 2031 -31 
Q 959 -31 469 784 
L 938 1028 
Q 1309 434 2013 434 
Q 2466 434 2769 716 
Q 3081 1013 3081 1503 
Q 3081 1966 2806 2241 
Q 2519 2528 2056 2528 
Q 1406 2528 1072 2028 
L 591 2091 
L 884 4634 
L 3406 4634 
L 3406 4153 
L 1341 4153 
L 1134 2603 
L 1178 2603 
z
" transform="scale(0.015625)"/>
       </defs>
       <use xlink:href="#IPAexGothic-2d"/>
       <use xlink:href="#IPAexGothic-31" transform="translate(35.791016 0)"/>
       <use xlink:href="#IPAexGothic-2e" transform="translate(98.779297 0)"/>
       <use xlink:href="#IPAexGothic-35" transform="translate(125.195312 0)"/>
      </g>
     </g>
    </g>
    <g id="xtick_3">
     <g id="line2d_5">
      <path d="M 168.961289 358.7838 
L 168.961289 26.1438 
" clip-path="url(#p5814832394)" style="fill: none; stroke: #000000; stroke-opacity: 0.3; stroke-width: 0.5; stroke-linecap: square"/>
     </g>
     <g id="line2d_6">
      <g>
       <use xlink:href="#m4f69b585f7" x="168.961289" y="358.7838" style="stroke: #000000; stroke-width: 0.8"/>
      </g>
     </g>
     <g id="text_3">
      <!-- -1.0 -->
      <g transform="translate(159.551914 373.274425) scale(0.1 -0.1)">
       <use xlink:href="#IPAexGothic-2d"/>
       <use xlink:href="#IPAexGothic-31" transform="translate(35.791016 0)"/>
       <use xlink:href="#IPAexGothic-2e" transform="translate(98.779297 0)"/>
       <use xlink:href="#IPAexGothic-30" transform="translate(125.195312 0)"/>
      </g>
     </g>
    </g>
    <g id="xtick_4">
     <g id="line2d_7">
      <path d="M 219.815698 358.7838 
L 219.815698 26.1438 
" clip-path="url(#p5814832394)" style="fill: none; stroke: #000000; stroke-opacity: 0.3; stroke-width: 0.5; stroke-linecap: square"/>
     </g>
     <g id="line2d_8">
      <g>
       <use xlink:href="#m4f69b585f7" x="219.815698" y="358.7838" style="stroke: #000000; stroke-width: 0.8"/>
      </g>
     </g>
     <g id="text_4">
      <!-- -0.5 -->
      <g transform="translate(210.406323 373.274425) scale(0.1 -0.1)">
       <use xlink:href="#IPAexGothic-2d"/>
       <use xlink:href="#IPAexGothic-30" transform="translate(35.791016 0)"/>
       <use xlink:href="#IPAexGothic-2e" transform="translate(98.779297 0)"/>
       <use xlink:href="#IPAexGothic-35" transform="translate(125.195312 0)"/>
      </g>
     </g>
    </g>
    <g id="xtick_5">
     <g id="line2d_9">
      <path d="M 270.670107 358.7838 
L 270.670107 26.1438 
" clip-path="url(#p5814832394)" style="fill: none; stroke: #000000; stroke-opacity: 0.3; stroke-width: 0.5; stroke-linecap: square"/>
     </g>
     <g id="line2d_10">
      <g>
       <use xlink:href="#m4f69b585f7" x="270.670107" y="358.7838" style="stroke: #000000; stroke-width: 0.8"/>
      </g>
     </g>
     <g id="text_5">
      <!-- 0.0 -->
      <g transform="translate(263.050575 373.274425) scale(0.1 -0.1)">
       <use xlink:href="#IPAexGothic-30"/>
       <use xlink:href="#IPAexGothic-2e" transform="translate(62.988281 0)"/>
       <use xlink:href="#IPAexGothic-30" transform="translate(89.404297 0)"/>
      </g>
     </g>
    </g>
    <g id="xtick_6">
     <g id="line2d_11">
      <path d="M 321.524515 358.7838 
L 321.524515 26.1438 
" clip-path="url(#p5814832394)" style="fill: none; stroke: #000000; stroke-opacity: 0.3; stroke-width: 0.5; stroke-linecap: square"/>
     </g>
     <g id="line2d_12">
      <g>
       <use xlink:href="#m4f69b585f7" x="321.524515" y="358.7838" style="stroke: #000000; stroke-width: 0.8"/>
      </g>
     </g>
     <g id="text_6">
      <!-- 0.5 -->
      <g transform="translate(313.904984 373.274425) scale(0.1 -0.1)">
       <use xlink:href="#IPAexGothic-30"/>
       <use xlink:href="#IPAexGothic-2e" transform="translate(62.988281 0)"/>
       <use xlink:href="#IPAexGothic-35" transform="translate(89.404297 0)"/>
      </g>
     </g>
    </g>
    <g id="xtick_7">
     <g id="line2d_13">
      <path d="M 372.378924 358.7838 
L 372.378924 26.1438 
" clip-path="url(#p5814832394)" style="fill: none; stroke: #000000; stroke-opacity: 0.3; stroke-width: 0.5; stroke-linecap: square"/>
     </g>
     <g id="line2d_14">
      <g>
       <use xlink:href="#m4f69b585f7" x="372.378924" y="358.7838" style="stroke: #000000; stroke-width: 0.8"/>
      </g>
     </g>
     <g id="text_7">
      <!-- 1.0 -->
      <g transform="translate(364.759393 373.274425) scale(0.1 -0.1)">
       <use xlink:href="#IPAexGothic-31"/>
       <use xlink:href="#IPAexGothic-2e" transform="translate(62.988281 0)"/>
       <use xlink:href="#IPAexGothic-30" transform="translate(89.404297 0)"/>
      </g>
     </g>
    </g>
    <g id="xtick_8">
     <g id="line2d_15">
      <path d="M 423.233333 358.7838 
L 423.233333 26.1438 
" clip-path="url(#p5814832394)" style="fill: none; stroke: #000000; stroke-opacity: 0.3; stroke-width: 0.5; stroke-linecap: square"/>
     </g>
     <g id="line2d_16">
      <g>
       <use xlink:href="#m4f69b585f7" x="423.233333" y="358.7838" style="stroke: #000000; stroke-width: 0.8"/>
      </g>
     </g>
     <g id="text_8">
      <!-- 1.5 -->
      <g transform="translate(415.613802 373.274425) scale(0.1 -0.1)">
       <use xlink:href="#IPAexGothic-31"/>
       <use xlink:href="#IPAexGothic-2e" transform="translate(62.988281 0)"/>
       <use xlink:href="#IPAexGothic-35" transform="translate(89.404297 0)"/>
      </g>
     </g>
    </g>
    <g id="xtick_9">
     <g id="line2d_17">
      <path d="M 474.087742 358.7838 
L 474.087742 26.1438 
" clip-path="url(#p5814832394)" style="fill: none; stroke: #000000; stroke-opacity: 0.3; stroke-width: 0.5; stroke-linecap: square"/>
     </g>
     <g id="line2d_18">
      <g>
       <use xlink:href="#m4f69b585f7" x="474.087742" y="358.7838" style="stroke: #000000; stroke-width: 0.8"/>
      </g>
     </g>
     <g id="text_9">
      <!-- 2.0 -->
      <g transform="translate(466.46821 373.274425) scale(0.1 -0.1)">
       <use xlink:href="#IPAexGothic-32"/>
       <use xlink:href="#IPAexGothic-2e" transform="translate(62.988281 0)"/>
       <use xlink:href="#IPAexGothic-30" transform="translate(89.404297 0)"/>
      </g>
     </g>
    </g>
    <g id="text_10">
     <!-- residual $r$ -->
     <g transform="translate(238.481562 389.960925) scale(0.144 -0.144)">
      <defs>
       <path id="IPAexGothic-72" d="M 2309 3316 
L 2213 2769 
Q 2106 2791 2022 2791 
Q 1653 2791 1413 2444 
Q 1113 2006 1113 1675 
L 1113 63 
L 563 63 
L 563 3250 
L 1081 3250 
L 1056 2303 
L 1069 2303 
Q 1422 3341 2097 3341 
Q 2206 3341 2309 3316 
z
" transform="scale(0.015625)"/>
       <path id="IPAexGothic-65" d="M 863 1594 
Q 891 1041 1209 722 
Q 1534 397 1997 397 
Q 2606 397 2963 966 
L 3322 728 
Q 2869 -31 1931 -31 
Q 1222 -31 766 422 
Q 306 884 306 1641 
Q 306 2444 788 2925 
Q 1216 3353 1856 3353 
Q 2459 3353 2866 2956 
Q 3322 2494 3322 1722 
L 3322 1594 
L 863 1594 
z
M 2756 1997 
Q 2709 2431 2450 2681 
Q 2194 2938 1844 2938 
Q 1438 2938 1150 2591 
Q 953 2356 894 1997 
L 2756 1997 
z
" transform="scale(0.015625)"/>
       <path id="IPAexGothic-73" d="M 2234 2547 
Q 1938 2931 1484 2931 
Q 891 2931 891 2475 
Q 891 2153 1531 1944 
L 1741 1875 
Q 2650 1578 2650 894 
Q 2650 434 2272 172 
Q 1972 -31 1497 -31 
Q 766 -31 256 503 
L 603 819 
Q 997 397 1516 397 
Q 2131 397 2131 875 
Q 2131 1238 1453 1478 
L 1234 1553 
Q 378 1853 378 2431 
Q 378 2797 628 3047 
Q 928 3347 1453 3347 
Q 2156 3347 2606 2859 
L 2234 2547 
z
" transform="scale(0.015625)"/>
       <path id="IPAexGothic-69" d="M 1178 3928 
L 550 3928 
L 550 4569 
L 1178 4569 
L 1178 3928 
z
M 1138 63 
L 588 63 
L 588 3250 
L 1138 3250 
L 1138 63 
z
" transform="scale(0.015625)"/>
       <path id="IPAexGothic-64" d="M 3391 63 
L 2891 63 
L 2891 619 
Q 2441 -31 1753 -31 
Q 1181 -31 788 372 
Q 313 844 313 1663 
Q 313 2466 772 2938 
Q 1169 3341 1753 3341 
Q 2384 3341 2847 2809 
L 2847 4794 
L 3391 4794 
L 3391 63 
z
M 2847 1303 
L 2847 2097 
Q 2847 2413 2456 2706 
Q 2181 2906 1853 2906 
Q 1484 2906 1228 2650 
Q 888 2309 888 1678 
Q 888 1109 1169 750 
Q 1441 409 1847 409 
Q 2322 409 2656 875 
Q 2847 1134 2847 1303 
z
" transform="scale(0.015625)"/>
       <path id="IPAexGothic-75" d="M 3284 63 
L 2772 63 
L 2772 644 
Q 2300 0 1625 0 
Q 1072 0 763 375 
Q 519 678 519 1241 
L 519 3250 
L 1069 3250 
L 1069 1259 
Q 1069 466 1734 466 
Q 2406 466 2734 1291 
L 2734 3250 
L 3284 3250 
L 3284 63 
z
" transform="scale(0.015625)"/>
       <path id="IPAexGothic-61" d="M 3156 63 
L 2672 63 
Q 2559 303 2531 556 
L 2509 556 
Q 2147 -25 1428 -25 
Q 934 -25 622 288 
Q 347 563 347 959 
Q 347 1947 2050 1997 
L 2478 2009 
L 2478 2175 
Q 2478 2509 2288 2700 
Q 2088 2900 1775 2900 
Q 1238 2900 969 2378 
L 494 2597 
Q 938 3328 1788 3328 
Q 2375 3328 2691 3000 
Q 2984 2706 2984 2169 
L 2984 997 
Q 2984 400 3156 63 
z
M 2491 1625 
L 2141 1619 
Q 903 1591 903 953 
Q 903 728 1050 581 
Q 1231 403 1525 403 
Q 1934 403 2234 703 
Q 2491 969 2491 1344 
L 2491 1625 
z
" transform="scale(0.015625)"/>
       <path id="IPAexGothic-6c" d="M 1131 63 
L 581 63 
L 581 4794 
L 1131 4794 
L 1131 63 
z
" transform="scale(0.015625)"/>
       <path id="IPAexGothic-20" transform="scale(0.015625)"/>
       <path id="DejaVuSans-Oblique-72" d="M 2853 2969 
Q 2766 3016 2653 3041 
Q 2541 3066 2413 3066 
Q 1953 3066 1609 2717 
Q 1266 2369 1153 1784 
L 800 0 
L 225 0 
L 909 3500 
L 1484 3500 
L 1375 2956 
Q 1603 3259 1920 3421 
Q 2238 3584 2597 3584 
Q 2691 3584 2781 3573 
Q 2872 3563 2963 3538 
L 2853 2969 
z
" transform="scale(0.015625)"/>
      </defs>
      <use xlink:href="#IPAexGothic-72" transform="translate(0 0.09375)"/>
      <use xlink:href="#IPAexGothic-65" transform="translate(37.011719 0.09375)"/>
      <use xlink:href="#IPAexGothic-73" transform="translate(93.896484 0.09375)"/>
      <use xlink:href="#IPAexGothic-69" transform="translate(140.087891 0.09375)"/>
      <use xlink:href="#IPAexGothic-64" transform="translate(167.089844 0.09375)"/>
      <use xlink:href="#IPAexGothic-75" transform="translate(229.492188 0.09375)"/>
      <use xlink:href="#IPAexGothic-61" transform="translate(289.892578 0.09375)"/>
      <use xlink:href="#IPAexGothic-6c" transform="translate(344.873047 0.09375)"/>
      <use xlink:href="#IPAexGothic-20" transform="translate(371.875 0.09375)"/>
      <use xlink:href="#DejaVuSans-Oblique-72" transform="translate(398.876953 0.09375)"/>
     </g>
    </g>
   </g>
   <g id="matplotlib.axis_2">
    <g id="ytick_1">
     <g id="line2d_19">
      <path d="M 46.961562 343.6638 
L 493.361562 343.6638 
" clip-path="url(#p5814832394)" style="fill: none; stroke: #000000; stroke-opacity: 0.3; stroke-width: 0.5; stroke-linecap: square"/>
     </g>
     <g id="line2d_20">
      <defs>
       <path id="m09665413f1" d="M 0 0 
L -3.5 0 
" style="stroke: #000000; stroke-width: 0.8"/>
      </defs>
      <g>
       <use xlink:href="#m09665413f1" x="46.961562" y="343.6638" style="stroke: #000000; stroke-width: 0.8"/>
      </g>
     </g>
     <g id="text_11">
      <!-- 0.0 -->
      <g transform="translate(24.7225 347.409112) scale(0.1 -0.1)">
       <use xlink:href="#IPAexGothic-30"/>
       <use xlink:href="#IPAexGothic-2e" transform="translate(62.988281 0)"/>
       <use xlink:href="#IPAexGothic-30" transform="translate(89.404297 0)"/>
      </g>
     </g>
    </g>
    <g id="ytick_2">
     <g id="line2d_21">
      <path d="M 46.961562 305.8638 
L 493.361562 305.8638 
" clip-path="url(#p5814832394)" style="fill: none; stroke: #000000; stroke-opacity: 0.3; stroke-width: 0.5; stroke-linecap: square"/>
     </g>
     <g id="line2d_22">
      <g>
       <use xlink:href="#m09665413f1" x="46.961562" y="305.8638" style="stroke: #000000; stroke-width: 0.8"/>
      </g>
     </g>
     <g id="text_12">
      <!-- 0.5 -->
      <g transform="translate(24.7225 309.609113) scale(0.1 -0.1)">
       <use xlink:href="#IPAexGothic-30"/>
       <use xlink:href="#IPAexGothic-2e" transform="translate(62.988281 0)"/>
       <use xlink:href="#IPAexGothic-35" transform="translate(89.404297 0)"/>
      </g>
     </g>
    </g>
    <g id="ytick_3">
     <g id="line2d_23">
      <path d="M 46.961562 268.0638 
L 493.361562 268.0638 
" clip-path="url(#p5814832394)" style="fill: none; stroke: #000000; stroke-opacity: 0.3; stroke-width: 0.5; stroke-linecap: square"/>
     </g>
     <g id="line2d_24">
      <g>
       <use xlink:href="#m09665413f1" x="46.961562" y="268.0638" style="stroke: #000000; stroke-width: 0.8"/>
      </g>
     </g>
     <g id="text_13">
      <!-- 1.0 -->
      <g transform="translate(24.7225 271.809113) scale(0.1 -0.1)">
       <use xlink:href="#IPAexGothic-31"/>
       <use xlink:href="#IPAexGothic-2e" transform="translate(62.988281 0)"/>
       <use xlink:href="#IPAexGothic-30" transform="translate(89.404297 0)"/>
      </g>
     </g>
    </g>
    <g id="ytick_4">
     <g id="line2d_25">
      <path d="M 46.961562 230.2638 
L 493.361562 230.2638 
" clip-path="url(#p5814832394)" style="fill: none; stroke: #000000; stroke-opacity: 0.3; stroke-width: 0.5; stroke-linecap: square"/>
     </g>
     <g id="line2d_26">
      <g>
       <use xlink:href="#m09665413f1" x="46.961562" y="230.2638" style="stroke: #000000; stroke-width: 0.8"/>
      </g>
     </g>
     <g id="text_14">
      <!-- 1.5 -->
      <g transform="translate(24.7225 234.009113) scale(0.1 -0.1)">
       <use xlink:href="#IPAexGothic-31"/>
       <use xlink:href="#IPAexGothic-2e" transform="translate(62.988281 0)"/>
       <use xlink:href="#IPAexGothic-35" transform="translate(89.404297 0)"/>
      </g>
     </g>
    </g>
    <g id="ytick_5">
     <g id="line2d_27">
      <path d="M 46.961562 192.4638 
L 493.361562 192.4638 
" clip-path="url(#p5814832394)" style="fill: none; stroke: #000000; stroke-opacity: 0.3; stroke-width: 0.5; stroke-linecap: square"/>
     </g>
     <g id="line2d_28">
      <g>
       <use xlink:href="#m09665413f1" x="46.961562" y="192.4638" style="stroke: #000000; stroke-width: 0.8"/>
      </g>
     </g>
     <g id="text_15">
      <!-- 2.0 -->
      <g transform="translate(24.7225 196.209113) scale(0.1 -0.1)">
       <use xlink:href="#IPAexGothic-32"/>
       <use xlink:href="#IPAexGothic-2e" transform="translate(62.988281 0)"/>
       <use xlink:href="#IPAexGothic-30" transform="translate(89.404297 0)"/>
      </g>
     </g>
    </g>
    <g id="ytick_6">
     <g id="line2d_29">
      <path d="M 46.961562 154.6638 
L 493.361562 154.6638 
" clip-path="url(#p5814832394)" style="fill: none; stroke: #000000; stroke-opacity: 0.3; stroke-width: 0.5; stroke-linecap: square"/>
     </g>
     <g id="line2d_30">
      <g>
       <use xlink:href="#m09665413f1" x="46.961562" y="154.6638" style="stroke: #000000; stroke-width: 0.8"/>
      </g>
     </g>
     <g id="text_16">
      <!-- 2.5 -->
      <g transform="translate(24.7225 158.409113) scale(0.1 -0.1)">
       <use xlink:href="#IPAexGothic-32"/>
       <use xlink:href="#IPAexGothic-2e" transform="translate(62.988281 0)"/>
       <use xlink:href="#IPAexGothic-35" transform="translate(89.404297 0)"/>
      </g>
     </g>
    </g>
    <g id="ytick_7">
     <g id="line2d_31">
      <path d="M 46.961562 116.8638 
L 493.361562 116.8638 
" clip-path="url(#p5814832394)" style="fill: none; stroke: #000000; stroke-opacity: 0.3; stroke-width: 0.5; stroke-linecap: square"/>
     </g>
     <g id="line2d_32">
      <g>
       <use xlink:href="#m09665413f1" x="46.961562" y="116.8638" style="stroke: #000000; stroke-width: 0.8"/>
      </g>
     </g>
     <g id="text_17">
      <!-- 3.0 -->
      <g transform="translate(24.7225 120.609113) scale(0.1 -0.1)">
       <defs>
        <path id="IPAexGothic-33" d="M 2381 2419 
Q 3506 2216 3506 1278 
Q 3506 716 3128 356 
Q 2709 -31 1944 -31 
Q 797 -31 288 881 
L 756 1131 
Q 1109 441 1938 441 
Q 2425 441 2694 691 
Q 2950 928 2950 1291 
Q 2950 1719 2566 1978 
Q 2216 2213 1644 2213 
L 1363 2213 
L 1363 2669 
L 1656 2669 
Q 2231 2669 2534 2888 
Q 2859 3119 2859 3509 
Q 2859 3934 2494 4138 
Q 2259 4278 1931 4278 
Q 1238 4278 903 3578 
L 434 3803 
Q 897 4725 1938 4725 
Q 2597 4725 3006 4394 
Q 3416 4069 3416 3534 
Q 3416 3028 3019 2706 
Q 2763 2500 2381 2444 
L 2381 2419 
z
" transform="scale(0.015625)"/>
       </defs>
       <use xlink:href="#IPAexGothic-33"/>
       <use xlink:href="#IPAexGothic-2e" transform="translate(62.988281 0)"/>
       <use xlink:href="#IPAexGothic-30" transform="translate(89.404297 0)"/>
      </g>
     </g>
    </g>
    <g id="ytick_8">
     <g id="line2d_33">
      <path d="M 46.961562 79.0638 
L 493.361562 79.0638 
" clip-path="url(#p5814832394)" style="fill: none; stroke: #000000; stroke-opacity: 0.3; stroke-width: 0.5; stroke-linecap: square"/>
     </g>
     <g id="line2d_34">
      <g>
       <use xlink:href="#m09665413f1" x="46.961562" y="79.0638" style="stroke: #000000; stroke-width: 0.8"/>
      </g>
     </g>
     <g id="text_18">
      <!-- 3.5 -->
      <g transform="translate(24.7225 82.809113) scale(0.1 -0.1)">
       <use xlink:href="#IPAexGothic-33"/>
       <use xlink:href="#IPAexGothic-2e" transform="translate(62.988281 0)"/>
       <use xlink:href="#IPAexGothic-35" transform="translate(89.404297 0)"/>
      </g>
     </g>
    </g>
    <g id="ytick_9">
     <g id="line2d_35">
      <path d="M 46.961562 41.2638 
L 493.361562 41.2638 
" clip-path="url(#p5814832394)" style="fill: none; stroke: #000000; stroke-opacity: 0.3; stroke-width: 0.5; stroke-linecap: square"/>
     </g>
     <g id="line2d_36">
      <g>
       <use xlink:href="#m09665413f1" x="46.961562" y="41.2638" style="stroke: #000000; stroke-width: 0.8"/>
      </g>
     </g>
     <g id="text_19">
      <!-- 4.0 -->
      <g transform="translate(24.7225 45.009113) scale(0.1 -0.1)">
       <defs>
        <path id="IPAexGothic-34" d="M 3813 1159 
L 3059 1159 
L 3059 63 
L 2547 63 
L 2547 1159 
L 197 1159 
L 197 1672 
L 2456 4678 
L 3059 4678 
L 3059 1634 
L 3813 1634 
L 3813 1159 
z
M 2578 4109 
L 2559 4109 
Q 2278 3656 2003 3284 
L 759 1634 
L 2547 1634 
L 2547 3144 
Q 2547 3481 2578 4109 
z
" transform="scale(0.015625)"/>
       </defs>
       <use xlink:href="#IPAexGothic-34"/>
       <use xlink:href="#IPAexGothic-2e" transform="translate(62.988281 0)"/>
       <use xlink:href="#IPAexGothic-30" transform="translate(89.404297 0)"/>
      </g>
     </g>
    </g>
    <g id="text_20">
     <!-- loss -->
     <g transform="translate(17.9865 205.40805) rotate(-90) scale(0.144 -0.144)">
      <defs>
       <path id="IPAexGothic-6f" d="M 1919 3341 
Q 2594 3341 3056 2888 
Q 3531 2413 3531 1638 
Q 3531 888 3066 422 
Q 2609 -31 1919 -31 
Q 1228 -31 781 416 
Q 313 881 313 1656 
Q 313 2413 788 2888 
Q 1241 3341 1919 3341 
z
M 1919 2919 
Q 1519 2919 1241 2631 
Q 888 2278 888 1650 
Q 888 1031 1234 684 
Q 1516 403 1919 403 
Q 2331 403 2609 691 
Q 2956 1038 2956 1672 
Q 2956 2269 2603 2631 
Q 2316 2919 1919 2919 
z
" transform="scale(0.015625)"/>
      </defs>
      <use xlink:href="#IPAexGothic-6c"/>
      <use xlink:href="#IPAexGothic-6f" transform="translate(27.001953 0)"/>
      <use xlink:href="#IPAexGothic-73" transform="translate(87.402344 0)"/>
      <use xlink:href="#IPAexGothic-73" transform="translate(133.59375 0)"/>
     </g>
    </g>
   </g>
   <g id="line2d_37">
    <path d="M 67.252472 41.2638 
L 74.372089 62.06136 
L 81.491706 82.11804 
L 88.611323 101.43384 
L 94.713852 117.40056 
L 100.816381 132.82296 
L 106.91891 147.70104 
L 113.021439 162.0348 
L 119.123969 175.82424 
L 125.226498 189.06936 
L 131.329027 201.77016 
L 137.431556 213.92664 
L 143.534085 225.5388 
L 149.636614 236.60664 
L 154.722055 245.41404 
L 159.807496 253.84344 
L 164.892936 261.89484 
L 169.978377 269.56824 
L 175.063818 276.86364 
L 180.149259 283.78104 
L 185.2347 290.32044 
L 190.320141 296.48184 
L 195.405582 302.26524 
L 200.491023 307.67064 
L 205.576463 312.69804 
L 210.661904 317.34744 
L 214.730257 320.7948 
L 218.79861 324.00024 
L 222.866962 326.96376 
L 226.935315 329.68536 
L 231.003668 332.16504 
L 235.07202 334.4028 
L 239.140373 336.39864 
L 243.208726 338.15256 
L 247.277079 339.66456 
L 251.345431 340.93464 
L 255.413784 341.9628 
L 259.482137 342.74904 
L 263.550489 343.29336 
L 267.618842 343.59576 
L 271.687195 343.65624 
L 275.755547 343.4748 
L 279.8239 343.05144 
L 283.892253 342.38616 
L 287.960606 341.47896 
L 292.028958 340.32984 
L 296.097311 338.9388 
L 300.165664 337.30584 
L 304.234016 335.43096 
L 308.302369 333.31416 
L 312.370722 330.95544 
L 316.439074 328.3548 
L 320.507427 325.51224 
L 324.57578 322.42776 
L 328.644133 319.10136 
L 332.712485 315.53304 
L 336.780838 311.7228 
L 341.866279 306.6198 
L 346.95172 301.1388 
L 352.037161 295.2798 
L 357.122601 289.0428 
L 362.208042 282.4278 
L 367.293483 275.4348 
L 372.378924 268.0638 
L 377.464365 260.3148 
L 382.549806 252.1878 
L 387.635247 243.6828 
L 392.720688 234.7998 
L 398.823217 223.64124 
L 404.925746 211.93836 
L 411.028275 199.69116 
L 417.130804 186.89964 
L 423.233333 173.5638 
L 429.335862 159.68364 
L 435.438391 145.25916 
L 441.54092 130.29036 
L 447.643449 114.77724 
L 453.745978 98.7198 
L 460.865595 79.29816 
L 467.985213 59.13564 
L 473.070653 44.28024 
L 473.070653 44.28024 
" clip-path="url(#p5814832394)" style="fill: none; stroke: #ff0000; stroke-width: 1.2; stroke-linecap: square"/>
   </g>
   <g id="line2d_38">
    <path d="M 67.252472 192.4638 
L 270.670107 343.6638 
L 473.070653 193.2198 
L 473.070653 193.2198 
" clip-path="url(#p5814832394)" style="fill: none; stroke: #ffa500; stroke-width: 1.2; stroke-linecap: square"/>
   </g>
   <g id="line2d_39">
    <path d="M 67.252472 201.9138 
L 124.209409 265.28172 
L 131.329027 272.71698 
L 137.431556 278.79522 
L 143.534085 284.6013 
L 149.636614 290.13522 
L 155.739143 295.39698 
L 161.841672 300.38658 
L 167.944201 305.10402 
L 174.04673 309.5493 
L 180.149259 313.72242 
L 186.251788 317.62338 
L 192.354317 321.25218 
L 198.456846 324.60882 
L 204.559375 327.6933 
L 210.661904 330.50562 
L 216.764433 333.04578 
L 222.866962 335.31378 
L 228.969491 337.30962 
L 235.07202 339.0333 
L 241.17455 340.48482 
L 247.277079 341.66418 
L 252.362519 342.43908 
L 257.44796 343.02498 
L 262.533401 343.42188 
L 267.618842 343.62978 
L 272.704283 343.64868 
L 277.789724 343.47858 
L 282.875165 343.11948 
L 287.960606 342.57138 
L 293.046046 341.83428 
L 298.131487 340.90818 
L 304.234016 339.54738 
L 310.336545 337.91442 
L 316.439074 336.0093 
L 322.541604 333.83202 
L 328.644133 331.38258 
L 334.746662 328.66098 
L 340.849191 325.66722 
L 346.95172 322.4013 
L 353.054249 318.86322 
L 359.156778 315.05298 
L 365.259307 310.97058 
L 371.361836 306.61602 
L 377.464365 301.9893 
L 383.566894 297.09042 
L 389.669423 291.91938 
L 395.771952 286.47618 
L 401.874481 280.76082 
L 407.97701 274.7733 
L 414.079539 268.51362 
L 421.199156 260.86668 
L 436.455479 243.8718 
L 473.070653 203.0478 
L 473.070653 203.0478 
" clip-path="url(#p5814832394)" style="fill: none; stroke: #008000; stroke-width: 1.2; stroke-linecap: square"/>
   </g>
   <g id="line2d_40">
    <path d="M 46.961562 343.6638 
L 493.361562 343.6638 
" clip-path="url(#p5814832394)" style="fill: none; stroke: #000000; stroke-width: 0.8; stroke-linecap: square"/>
   </g>
   <g id="text_21">
    <!-- Squared, absolute, and Huber losses -->
    <g transform="translate(122.544462 20.1438) scale(0.1728 -0.1728)">
     <defs>
      <path id="IPAexGothic-53" d="M 2919 3641 
Q 2563 4259 1853 4259 
Q 1453 4259 1213 4009 
Q 1028 3803 1028 3534 
Q 1028 3238 1266 3047 
Q 1444 2913 1984 2688 
L 2200 2597 
Q 2925 2306 3191 1953 
Q 3422 1644 3422 1259 
Q 3422 644 2969 288 
Q 2559 -31 1931 -31 
Q 881 -31 313 766 
L 753 1100 
Q 1203 459 1938 459 
Q 2288 459 2534 625 
Q 2841 847 2841 1216 
Q 2841 1503 2616 1728 
Q 2375 1959 1728 2206 
L 1541 2278 
Q 453 2694 453 3481 
Q 453 4006 806 4347 
Q 1203 4725 1863 4725 
Q 2841 4725 3359 3956 
L 2919 3641 
z
" transform="scale(0.015625)"/>
      <path id="IPAexGothic-71" d="M 3397 -1216 
L 2847 -1216 
L 2847 556 
Q 2441 -31 1759 -31 
Q 1181 -31 788 372 
Q 313 844 313 1656 
Q 313 2450 788 2925 
Q 1203 3341 1803 3341 
Q 2472 3341 2903 2803 
L 2981 3275 
L 3397 3275 
L 3397 -1216 
z
M 2847 1278 
L 2847 2091 
Q 2847 2272 2650 2509 
Q 2319 2906 1869 2906 
Q 1406 2906 1131 2516 
Q 888 2175 888 1672 
Q 888 1116 1169 756 
Q 1447 409 1853 409 
Q 2334 409 2669 875 
Q 2847 1131 2847 1278 
z
" transform="scale(0.015625)"/>
      <path id="IPAexGothic-2c" d="M 1150 728 
Q 1028 -159 563 -1006 
L 153 -897 
Q 494 -100 569 728 
L 1150 728 
z
" transform="scale(0.015625)"/>
      <path id="IPAexGothic-62" d="M 1125 2731 
Q 1550 3341 2219 3341 
Q 2788 3341 3191 2938 
Q 3659 2469 3659 1644 
Q 3659 838 3191 372 
Q 2788 -31 2206 -31 
Q 1559 -31 1088 516 
L 1009 44 
L 581 44 
L 581 4794 
L 1125 4794 
L 1125 2731 
z
M 1125 1997 
L 1125 1253 
Q 1125 888 1528 600 
Q 1803 403 2119 403 
Q 2488 403 2744 659 
Q 3084 1009 3084 1631 
Q 3084 2194 2803 2553 
Q 2525 2900 2125 2900 
Q 1759 2900 1438 2578 
Q 1125 2266 1125 1997 
z
" transform="scale(0.015625)"/>
      <path id="IPAexGothic-74" d="M 2125 241 
Q 1769 -6 1397 -6 
Q 653 -6 653 831 
L 653 2859 
L 219 2859 
L 219 3250 
L 653 3250 
L 653 3966 
L 1178 4228 
L 1178 3250 
L 2063 3250 
L 2063 2859 
L 1178 2859 
L 1178 906 
Q 1178 416 1513 416 
Q 1738 416 1941 588 
L 2125 241 
z
" transform="scale(0.015625)"/>
      <path id="IPAexGothic-6e" d="M 3328 63 
L 2778 63 
L 2778 2041 
Q 2778 2853 2106 2853 
Q 1428 2853 1113 2041 
L 1113 63 
L 563 63 
L 563 3250 
L 1075 3250 
L 1075 2675 
Q 1525 3316 2222 3316 
Q 3328 3316 3328 2072 
L 3328 63 
z
" transform="scale(0.015625)"/>
      <path id="IPAexGothic-48" d="M 4181 63 
L 3619 63 
L 3619 2200 
L 1172 2200 
L 1172 63 
L 609 63 
L 609 4634 
L 1172 4634 
L 1172 2669 
L 3619 2669 
L 3619 4634 
L 4181 4634 
L 4181 63 
z
" transform="scale(0.015625)"/>
     </defs>
     <use xlink:href="#IPAexGothic-53"/>
     <use xlink:href="#IPAexGothic-71" transform="translate(58.496094 0)"/>
     <use xlink:href="#IPAexGothic-75" transform="translate(120.703125 0)"/>
     <use xlink:href="#IPAexGothic-61" transform="translate(181.103516 0)"/>
     <use xlink:href="#IPAexGothic-72" transform="translate(236.083984 0)"/>
     <use xlink:href="#IPAexGothic-65" transform="translate(273.095703 0)"/>
     <use xlink:href="#IPAexGothic-64" transform="translate(329.980469 0)"/>
     <use xlink:href="#IPAexGothic-2c" transform="translate(392.382812 0)"/>
     <use xlink:href="#IPAexGothic-20" transform="translate(418.798828 0)"/>
     <use xlink:href="#IPAexGothic-61" transform="translate(445.800781 0)"/>
     <use xlink:href="#IPAexGothic-62" transform="translate(500.78125 0)"/>
     <use xlink:href="#IPAexGothic-73" transform="translate(563.183594 0)"/>
     <use xlink:href="#IPAexGothic-6f" transform="translate(609.375 0)"/>
     <use xlink:href="#IPAexGothic-6c" transform="translate(669.775391 0)"/>
     <use xlink:href="#IPAexGothic-75" transform="translate(696.777344 0)"/>
     <use xlink:href="#IPAexGothic-74" transform="translate(757.177734 0)"/>
     <use xlink:href="#IPAexGothic-65" transform="translate(791.796875 0)"/>
     <use xlink:href="#IPAexGothic-2c" transform="translate(848.681641 0)"/>
     <use xlink:href="#IPAexGothic-20" transform="translate(875.097656 0)"/>
     <use xlink:href="#IPAexGothic-61" transform="translate(902.099609 0)"/>
     <use xlink:href="#IPAexGothic-6e" transform="translate(957.080078 0)"/>
     <use xlink:href="#IPAexGothic-64" transform="translate(1017.480469 0)"/>
     <use xlink:href="#IPAexGothic-20" transform="translate(1079.882812 0)"/>
     <use xlink:href="#IPAexGothic-48" transform="translate(1106.884766 0)"/>
     <use xlink:href="#IPAexGothic-75" transform="translate(1181.884766 0)"/>
     <use xlink:href="#IPAexGothic-62" transform="translate(1242.285156 0)"/>
     <use xlink:href="#IPAexGothic-65" transform="translate(1304.6875 0)"/>
     <use xlink:href="#IPAexGothic-72" transform="translate(1361.572266 0)"/>
     <use xlink:href="#IPAexGothic-20" transform="translate(1398.583984 0)"/>
     <use xlink:href="#IPAexGothic-6c" transform="translate(1425.585938 0)"/>
     <use xlink:href="#IPAexGothic-6f" transform="translate(1452.587891 0)"/>
     <use xlink:href="#IPAexGothic-73" transform="translate(1512.988281 0)"/>
     <use xlink:href="#IPAexGothic-73" transform="translate(1559.179688 0)"/>
     <use xlink:href="#IPAexGothic-65" transform="translate(1605.371094 0)"/>
     <use xlink:href="#IPAexGothic-73" transform="translate(1662.255859 0)"/>
    </g>
   </g>
   <g id="legend_1">
    <g id="patch_3">
     <path d="M 207.221563 106.1838 
L 333.101563 106.1838 
Q 335.501563 106.1838 335.501563 103.7838 
L 335.501563 40.5438 
Q 335.501563 38.1438 333.101563 38.1438 
L 207.221563 38.1438 
Q 204.821563 38.1438 204.821563 40.5438 
L 204.821563 103.7838 
Q 204.821563 106.1838 207.221563 106.1838 
z
" style="fill: #ffffff; opacity: 0.8; stroke: #cccccc; stroke-linejoin: miter"/>
    </g>
    <g id="line2d_41">
     <path d="M 209.621563 49.6638 
L 221.621563 49.6638 
L 233.621563 49.6638 
" style="fill: none; stroke: #ff0000; stroke-width: 1.2; stroke-linecap: square"/>
    </g>
    <g id="text_22">
     <!-- squared $r^2$ -->
     <g transform="translate(243.221563 53.8638) scale(0.12 -0.12)">
      <defs>
       <path id="DejaVuSans-32" d="M 1228 531 
L 3431 531 
L 3431 0 
L 469 0 
L 469 531 
Q 828 903 1448 1529 
Q 2069 2156 2228 2338 
Q 2531 2678 2651 2914 
Q 2772 3150 2772 3378 
Q 2772 3750 2511 3984 
Q 2250 4219 1831 4219 
Q 1534 4219 1204 4116 
Q 875 4013 500 3803 
L 500 4441 
Q 881 4594 1212 4672 
Q 1544 4750 1819 4750 
Q 2544 4750 2975 4387 
Q 3406 4025 3406 3419 
Q 3406 3131 3298 2873 
Q 3191 2616 2906 2266 
Q 2828 2175 2409 1742 
Q 1991 1309 1228 531 
z
" transform="scale(0.015625)"/>
      </defs>
      <use xlink:href="#IPAexGothic-73" transform="translate(0 0.765625)"/>
      <use xlink:href="#IPAexGothic-71" transform="translate(46.191406 0.765625)"/>
      <use xlink:href="#IPAexGothic-75" transform="translate(108.398438 0.765625)"/>
      <use xlink:href="#IPAexGothic-61" transform="translate(168.798828 0.765625)"/>
      <use xlink:href="#IPAexGothic-72" transform="translate(223.779297 0.765625)"/>
      <use xlink:href="#IPAexGothic-65" transform="translate(260.791016 0.765625)"/>
      <use xlink:href="#IPAexGothic-64" transform="translate(317.675781 0.765625)"/>
      <use xlink:href="#IPAexGothic-20" transform="translate(380.078125 0.765625)"/>
      <use xlink:href="#DejaVuSans-Oblique-72" transform="translate(407.080078 0.765625)"/>
      <use xlink:href="#DejaVuSans-32" transform="translate(452.843255 39.046875) scale(0.7)"/>
     </g>
    </g>
    <g id="line2d_42">
     <path d="M 209.621563 71.9838 
L 221.621563 71.9838 
L 233.621563 71.9838 
" style="fill: none; stroke: #ffa500; stroke-width: 1.2; stroke-linecap: square"/>
    </g>
    <g id="text_23">
     <!-- absolute $|r|$ -->
     <g transform="translate(243.221563 76.1838) scale(0.12 -0.12)">
      <defs>
       <path id="DejaVuSans-7c" d="M 1344 4891 
L 1344 -1509 
L 813 -1509 
L 813 4891 
L 1344 4891 
z
" transform="scale(0.015625)"/>
      </defs>
      <use xlink:href="#IPAexGothic-61" transform="translate(0 0.578125)"/>
      <use xlink:href="#IPAexGothic-62" transform="translate(54.980469 0.578125)"/>
      <use xlink:href="#IPAexGothic-73" transform="translate(117.382812 0.578125)"/>
      <use xlink:href="#IPAexGothic-6f" transform="translate(163.574219 0.578125)"/>
      <use xlink:href="#IPAexGothic-6c" transform="translate(223.974609 0.578125)"/>
      <use xlink:href="#IPAexGothic-75" transform="translate(250.976562 0.578125)"/>
      <use xlink:href="#IPAexGothic-74" transform="translate(311.376953 0.578125)"/>
      <use xlink:href="#IPAexGothic-65" transform="translate(345.996094 0.578125)"/>
      <use xlink:href="#IPAexGothic-20" transform="translate(402.880859 0.578125)"/>
      <use xlink:href="#DejaVuSans-7c" transform="translate(429.882812 0.578125)"/>
      <use xlink:href="#DejaVuSans-Oblique-72" transform="translate(463.574219 0.578125)"/>
      <use xlink:href="#DejaVuSans-7c" transform="translate(504.6875 0.578125)"/>
     </g>
    </g>
    <g id="line2d_43">
     <path d="M 209.621563 94.9038 
L 221.621563 94.9038 
L 233.621563 94.9038 
" style="fill: none; stroke: #008000; stroke-width: 1.2; stroke-linecap: square"/>
    </g>
    <g id="text_24">
     <!-- Huber ($\delta=1.5$) -->
     <g transform="translate(243.221563 99.1038) scale(0.12 -0.12)">
      <defs>
       <path id="IPAexGothic-28" d="M 1928 -1016 
L 1653 -1166 
Q 488 69 488 1875 
Q 488 3678 1653 4909 
L 1928 4763 
Q 1006 3522 1006 1881 
Q 1006 203 1928 -1016 
z
" transform="scale(0.015625)"/>
       <path id="DejaVuSans-Oblique-3b4" d="M 3472 4053 
Q 3197 4272 2450 4272 
Q 1659 4272 1588 3906 
Q 1531 3619 2328 3469 
Q 2953 3353 3253 3003 
Q 3616 2581 3447 1716 
Q 3284 888 2763 400 
Q 2238 -91 1488 -91 
Q 741 -91 406 400 
Q 72 888 241 1747 
Q 363 2384 891 2900 
Q 1097 3100 1353 3213 
Q 913 3459 1000 3900 
Q 1166 4750 2544 4750 
Q 3234 4750 3566 4531 
L 3472 4053 
z
M 1753 3056 
Q 1525 2966 1306 2738 
Q 969 2384 847 1747 
Q 722 1113 919 756 
Q 1119 397 1584 397 
Q 2044 397 2381 759 
Q 2722 1122 2838 1716 
Q 2956 2338 2731 2638 
Q 2491 2959 2103 2994 
Q 1906 3013 1753 3056 
z
" transform="scale(0.015625)"/>
       <path id="DejaVuSans-3d" d="M 678 2906 
L 4684 2906 
L 4684 2381 
L 678 2381 
L 678 2906 
z
M 678 1631 
L 4684 1631 
L 4684 1100 
L 678 1100 
L 678 1631 
z
" transform="scale(0.015625)"/>
       <path id="DejaVuSans-31" d="M 794 531 
L 1825 531 
L 1825 4091 
L 703 3866 
L 703 4441 
L 1819 4666 
L 2450 4666 
L 2450 531 
L 3481 531 
L 3481 0 
L 794 0 
L 794 531 
z
" transform="scale(0.015625)"/>
       <path id="DejaVuSans-2e" d="M 684 794 
L 1344 794 
L 1344 0 
L 684 0 
L 684 794 
z
" transform="scale(0.015625)"/>
       <path id="DejaVuSans-35" d="M 691 4666 
L 3169 4666 
L 3169 4134 
L 1269 4134 
L 1269 2991 
Q 1406 3038 1543 3061 
Q 1681 3084 1819 3084 
Q 2600 3084 3056 2656 
Q 3513 2228 3513 1497 
Q 3513 744 3044 326 
Q 2575 -91 1722 -91 
Q 1428 -91 1123 -41 
Q 819 9 494 109 
L 494 744 
Q 775 591 1075 516 
Q 1375 441 1709 441 
Q 2250 441 2565 725 
Q 2881 1009 2881 1497 
Q 2881 1984 2565 2268 
Q 2250 2553 1709 2553 
Q 1456 2553 1204 2497 
Q 953 2441 691 2322 
L 691 4666 
z
" transform="scale(0.015625)"/>
       <path id="IPAexGothic-29" d="M 466 4909 
Q 1638 3672 1638 1875 
Q 1638 75 466 -1166 
L 191 -1016 
Q 1119 216 1119 1881 
Q 1119 3509 191 4763 
L 466 4909 
z
" transform="scale(0.015625)"/>
      </defs>
      <use xlink:href="#IPAexGothic-48" transform="translate(0 0.296875)"/>
      <use xlink:href="#IPAexGothic-75" transform="translate(75 0.296875)"/>
      <use xlink:href="#IPAexGothic-62" transform="translate(135.400391 0.296875)"/>
      <use xlink:href="#IPAexGothic-65" transform="translate(197.802734 0.296875)"/>
      <use xlink:href="#IPAexGothic-72" transform="translate(254.6875 0.296875)"/>
      <use xlink:href="#IPAexGothic-20" transform="translate(291.699219 0.296875)"/>
      <use xlink:href="#IPAexGothic-28" transform="translate(318.701172 0.296875)"/>
      <use xlink:href="#DejaVuSans-Oblique-3b4" transform="translate(352.001953 0.296875)"/>
      <use xlink:href="#DejaVuSans-3d" transform="translate(432.666016 0.296875)"/>
      <use xlink:href="#DejaVuSans-31" transform="translate(535.9375 0.296875)"/>
      <use xlink:href="#DejaVuSans-2e" transform="translate(599.560547 0.296875)"/>
      <use xlink:href="#DejaVuSans-35" transform="translate(631.347656 0.296875)"/>
      <use xlink:href="#IPAexGothic-29" transform="translate(694.970703 0.296875)"/>
     </g>
    </g>
   </g>
  </g>
 </g>
 <defs>
  <clipPath id="p5814832394">
   <rect x="46.961562" y="26.1438" width="446.4" height="332.64"/>
  </clipPath>
 </defs>
</svg>
