<?xml version="1.0" encoding="utf-8" standalone="no"?>
<!DOCTYPE svg PUBLIC "-//W3C//DTD SVG 1.1//EN"
  "http://www.w3.org/Graphics/SVG/1.1/DTD/svg11.dtd">
<svg xmlns:xlink="http://www.w3.org/1999/xlink" width="499.7375pt" height="399.259375pt" viewBox="0 0 499.7375 399.259375" xmlns="http://www.w3.org/2000/svg" version="1.1">
 <metadata>
  <rdf:RDF xmlns:dc="http://purl.org/dc/elements/1.1/" xmlns:cc="http://creativecommons.org/ns#" xmlns:rdf="http://www.w3.org/1999/02/22-rdf-syntax-ns#">
   <cc:Work>
    <dc:type rdf:resource="http://purl.org/dc/dcmitype/StillImage"/>
    <dc:date>2025-10-30T20:25:31.477616</dc:date>
    <dc:format>image/svg+xml</dc:format>
    <dc:creator>
     <cc:Agent>
      <dc:title>Matplotlib v3.10.7, https://matplotlib.org/</dc:title>
     </cc:Agent>
    </dc:creator>
   </cc:Work>
  </rdf:RDF>
 </metadata>
 <defs>
  <style type="text/css">*{stroke-linejoin: round; stroke-linecap: butt}</style>
 </defs>
 <g id="figure_1">
  <g id="patch_1">
   <path d="M 0 399.259375 
L 499.7375 399.259375 
L 499.7375 0 
L 0 0 
z
" style="fill: #ffffff"/>
  </g>
  <g id="axes_1">
   <g id="patch_2">
    <path d="M 46.1375 359.1375 
L 492.5375 359.1375 
L 492.5375 26.4975 
L 46.1375 26.4975 
z
" style="fill: #ffffff"/>
   </g>
   <g id="matplotlib.axis_1">
    <g id="xtick_1">
     <g id="line2d_1">
      <path d="M 66.428409 359.1375 
L 66.428409 26.4975 
" clip-path="url(#p9c47fc4f86)" style="fill: none; stroke: #000000; stroke-opacity: 0.3; stroke-width: 0.5; stroke-linecap: square"/>
     </g>
     <g id="line2d_2">
      <defs>
       <path id="md4056f39a8" d="M 0 0 
L 0 3.5 
" style="stroke: #000000; stroke-width: 0.8"/>
      </defs>
      <g>
       <use xlink:href="#md4056f39a8" x="66.428409" y="359.1375" style="stroke: #000000; stroke-width: 0.8"/>
      </g>
     </g>
     <g id="text_1">
      <!-- -2.0 -->
      <g transform="translate(56.428409 373.832812) scale(0.1 -0.1)">
       <defs>
        <path id="MS-Gothic-2d" d="M 3000 2500 
L 3000 2100 
L 150 2100 
L 150 2500 
L 3000 2500 
z
" transform="scale(0.015625)"/>
        <path id="MS-Gothic-32" d="M 2850 525 
L 2850 50 
L 300 50 
L 300 450 
Q 875 1525 1725 2500 
Q 2200 3050 2200 3650 
Q 2200 4075 1975 4300 
Q 1825 4450 1575 4450 
Q 1375 4450 1175 4250 
Q 950 4025 950 3325 
L 400 3325 
Q 425 4225 825 4625 
Q 1125 4925 1625 4925 
Q 2100 4925 2425 4600 
Q 2775 4250 2775 3625 
Q 2775 2900 2100 2125 
Q 1375 1300 900 525 
L 2850 525 
z
" transform="scale(0.015625)"/>
        <path id="MS-Gothic-2e" d="M 1100 600 
L 1100 50 
L 525 50 
L 525 600 
L 1100 600 
z
" transform="scale(0.015625)"/>
        <path id="MS-Gothic-30" d="M 200 2500 
Q 200 3975 800 4575 
Q 1150 4925 1575 4925 
Q 2000 4925 2350 4575 
Q 2950 3975 2950 2500 
Q 2950 1000 2350 400 
Q 2000 50 1575 50 
Q 1150 50 800 400 
Q 200 1000 200 2500 
z
M 2375 2500 
Q 2375 3825 1900 4300 
Q 1750 4450 1575 4450 
Q 1400 4450 1250 4300 
Q 775 3800 775 2500 
Q 775 1150 1250 675 
Q 1400 525 1575 525 
Q 1750 525 1900 675 
Q 2375 1150 2375 2500 
z
" transform="scale(0.015625)"/>
       </defs>
       <use xlink:href="#MS-Gothic-2d"/>
       <use xlink:href="#MS-Gothic-32" transform="translate(50 0)"/>
       <use xlink:href="#MS-Gothic-2e" transform="translate(100 0)"/>
       <use xlink:href="#MS-Gothic-30" transform="translate(150 0)"/>
      </g>
     </g>
    </g>
    <g id="xtick_2">
     <g id="line2d_3">
      <path d="M 117.282818 359.1375 
L 117.282818 26.4975 
" clip-path="url(#p9c47fc4f86)" style="fill: none; stroke: #000000; stroke-opacity: 0.3; stroke-width: 0.5; stroke-linecap: square"/>
     </g>
     <g id="line2d_4">
      <g>
       <use xlink:href="#md4056f39a8" x="117.282818" y="359.1375" style="stroke: #000000; stroke-width: 0.8"/>
      </g>
     </g>
     <g id="text_2">
      <!-- -1.5 -->
      <g transform="translate(107.282818 373.832812) scale(0.1 -0.1)">
       <defs>
        <path id="MS-Gothic-31" d="M 1375 50 
L 1375 2000 
L 1375 3925 
L 625 3925 
L 625 4225 
Q 1500 4225 1650 4925 
L 1950 4925 
L 1950 50 
L 1375 50 
z
" transform="scale(0.015625)"/>
        <path id="MS-Gothic-35" d="M 850 1425 
Q 850 925 1100 675 
Q 1250 525 1525 525 
Q 1750 525 1950 725 
Q 2250 1025 2250 1725 
Q 2250 2375 2000 2625 
Q 1850 2775 1650 2775 
Q 1200 2775 925 2250 
L 425 2250 
L 575 4925 
L 2725 4925 
L 2725 4450 
L 1050 4450 
L 950 2825 
Q 1275 3200 1775 3200 
Q 2150 3200 2425 2925 
Q 2825 2525 2825 1725 
Q 2825 875 2350 400 
Q 2000 50 1500 50 
Q 975 50 675 350 
Q 300 725 275 1425 
L 850 1425 
z
" transform="scale(0.015625)"/>
       </defs>
       <use xlink:href="#MS-Gothic-2d"/>
       <use xlink:href="#MS-Gothic-31" transform="translate(50 0)"/>
       <use xlink:href="#MS-Gothic-2e" transform="translate(100 0)"/>
       <use xlink:href="#MS-Gothic-35" transform="translate(150 0)"/>
      </g>
     </g>
    </g>
    <g id="xtick_3">
     <g id="line2d_5">
      <path d="M 168.137227 359.1375 
L 168.137227 26.4975 
" clip-path="url(#p9c47fc4f86)" style="fill: none; stroke: #000000; stroke-opacity: 0.3; stroke-width: 0.5; stroke-linecap: square"/>
     </g>
     <g id="line2d_6">
      <g>
       <use xlink:href="#md4056f39a8" x="168.137227" y="359.1375" style="stroke: #000000; stroke-width: 0.8"/>
      </g>
     </g>
     <g id="text_3">
      <!-- -1.0 -->
      <g transform="translate(158.137227 373.832812) scale(0.1 -0.1)">
       <use xlink:href="#MS-Gothic-2d"/>
       <use xlink:href="#MS-Gothic-31" transform="translate(50 0)"/>
       <use xlink:href="#MS-Gothic-2e" transform="translate(100 0)"/>
       <use xlink:href="#MS-Gothic-30" transform="translate(150 0)"/>
      </g>
     </g>
    </g>
    <g id="xtick_4">
     <g id="line2d_7">
      <path d="M 218.991635 359.1375 
L 218.991635 26.4975 
" clip-path="url(#p9c47fc4f86)" style="fill: none; stroke: #000000; stroke-opacity: 0.3; stroke-width: 0.5; stroke-linecap: square"/>
     </g>
     <g id="line2d_8">
      <g>
       <use xlink:href="#md4056f39a8" x="218.991635" y="359.1375" style="stroke: #000000; stroke-width: 0.8"/>
      </g>
     </g>
     <g id="text_4">
      <!-- -0.5 -->
      <g transform="translate(208.991635 373.832812) scale(0.1 -0.1)">
       <use xlink:href="#MS-Gothic-2d"/>
       <use xlink:href="#MS-Gothic-30" transform="translate(50 0)"/>
       <use xlink:href="#MS-Gothic-2e" transform="translate(100 0)"/>
       <use xlink:href="#MS-Gothic-35" transform="translate(150 0)"/>
      </g>
     </g>
    </g>
    <g id="xtick_5">
     <g id="line2d_9">
      <path d="M 269.846044 359.1375 
L 269.846044 26.4975 
" clip-path="url(#p9c47fc4f86)" style="fill: none; stroke: #000000; stroke-opacity: 0.3; stroke-width: 0.5; stroke-linecap: square"/>
     </g>
     <g id="line2d_10">
      <g>
       <use xlink:href="#md4056f39a8" x="269.846044" y="359.1375" style="stroke: #000000; stroke-width: 0.8"/>
      </g>
     </g>
     <g id="text_5">
      <!-- 0.0 -->
      <g transform="translate(262.346044 373.832812) scale(0.1 -0.1)">
       <use xlink:href="#MS-Gothic-30"/>
       <use xlink:href="#MS-Gothic-2e" transform="translate(50 0)"/>
       <use xlink:href="#MS-Gothic-30" transform="translate(100 0)"/>
      </g>
     </g>
    </g>
    <g id="xtick_6">
     <g id="line2d_11">
      <path d="M 320.700453 359.1375 
L 320.700453 26.4975 
" clip-path="url(#p9c47fc4f86)" style="fill: none; stroke: #000000; stroke-opacity: 0.3; stroke-width: 0.5; stroke-linecap: square"/>
     </g>
     <g id="line2d_12">
      <g>
       <use xlink:href="#md4056f39a8" x="320.700453" y="359.1375" style="stroke: #000000; stroke-width: 0.8"/>
      </g>
     </g>
     <g id="text_6">
      <!-- 0.5 -->
      <g transform="translate(313.200453 373.832812) scale(0.1 -0.1)">
       <use xlink:href="#MS-Gothic-30"/>
       <use xlink:href="#MS-Gothic-2e" transform="translate(50 0)"/>
       <use xlink:href="#MS-Gothic-35" transform="translate(100 0)"/>
      </g>
     </g>
    </g>
    <g id="xtick_7">
     <g id="line2d_13">
      <path d="M 371.554862 359.1375 
L 371.554862 26.4975 
" clip-path="url(#p9c47fc4f86)" style="fill: none; stroke: #000000; stroke-opacity: 0.3; stroke-width: 0.5; stroke-linecap: square"/>
     </g>
     <g id="line2d_14">
      <g>
       <use xlink:href="#md4056f39a8" x="371.554862" y="359.1375" style="stroke: #000000; stroke-width: 0.8"/>
      </g>
     </g>
     <g id="text_7">
      <!-- 1.0 -->
      <g transform="translate(364.054862 373.832812) scale(0.1 -0.1)">
       <use xlink:href="#MS-Gothic-31"/>
       <use xlink:href="#MS-Gothic-2e" transform="translate(50 0)"/>
       <use xlink:href="#MS-Gothic-30" transform="translate(100 0)"/>
      </g>
     </g>
    </g>
    <g id="xtick_8">
     <g id="line2d_15">
      <path d="M 422.40927 359.1375 
L 422.40927 26.4975 
" clip-path="url(#p9c47fc4f86)" style="fill: none; stroke: #000000; stroke-opacity: 0.3; stroke-width: 0.5; stroke-linecap: square"/>
     </g>
     <g id="line2d_16">
      <g>
       <use xlink:href="#md4056f39a8" x="422.40927" y="359.1375" style="stroke: #000000; stroke-width: 0.8"/>
      </g>
     </g>
     <g id="text_8">
      <!-- 1.5 -->
      <g transform="translate(414.90927 373.832812) scale(0.1 -0.1)">
       <use xlink:href="#MS-Gothic-31"/>
       <use xlink:href="#MS-Gothic-2e" transform="translate(50 0)"/>
       <use xlink:href="#MS-Gothic-35" transform="translate(100 0)"/>
      </g>
     </g>
    </g>
    <g id="xtick_9">
     <g id="line2d_17">
      <path d="M 473.263679 359.1375 
L 473.263679 26.4975 
" clip-path="url(#p9c47fc4f86)" style="fill: none; stroke: #000000; stroke-opacity: 0.3; stroke-width: 0.5; stroke-linecap: square"/>
     </g>
     <g id="line2d_18">
      <g>
       <use xlink:href="#md4056f39a8" x="473.263679" y="359.1375" style="stroke: #000000; stroke-width: 0.8"/>
      </g>
     </g>
     <g id="text_9">
      <!-- 2.0 -->
      <g transform="translate(465.763679 373.832812) scale(0.1 -0.1)">
       <use xlink:href="#MS-Gothic-32"/>
       <use xlink:href="#MS-Gothic-2e" transform="translate(50 0)"/>
       <use xlink:href="#MS-Gothic-30" transform="translate(100 0)"/>
      </g>
     </g>
    </g>
    <g id="text_10">
     <!-- residual $r$ -->
     <g transform="translate(233.9135 390.203125) scale(0.144 -0.144)">
      <defs>
       <path id="MS-Gothic-72" d="M 1175 2750 
Q 1725 3600 2525 3475 
L 2525 2875 
Q 1600 3050 1175 1900 
L 1175 50 
L 675 50 
L 675 3475 
L 1175 3475 
L 1175 2750 
z
" transform="scale(0.015625)"/>
       <path id="MS-Gothic-65" d="M 2875 1225 
Q 2800 675 2500 375 
Q 2175 50 1675 50 
Q 1125 50 800 375 
Q 325 850 325 1750 
Q 325 2675 750 3100 
Q 1125 3475 1650 3475 
Q 2075 3475 2425 3175 
Q 2875 2800 2850 1750 
L 875 1750 
Q 875 925 1175 700 
Q 1350 525 1675 525 
Q 1950 525 2125 700 
Q 2275 850 2300 1225 
L 2875 1225 
z
M 2275 2150 
Q 2300 2650 2050 2875 
Q 1825 3075 1600 3050 
Q 1350 3025 1125 2800 
Q 925 2600 875 2150 
L 2275 2150 
z
" transform="scale(0.015625)"/>
       <path id="MS-Gothic-73" d="M 2175 2450 
Q 2150 2725 2000 2875 
Q 1850 3025 1600 3025 
Q 1275 3025 1150 2900 
Q 1000 2750 1000 2575 
Q 1000 2450 1125 2325 
Q 1300 2150 1875 1950 
Q 2325 1800 2525 1600 
Q 2750 1375 2750 1000 
Q 2750 650 2500 400 
Q 2150 50 1600 50 
Q 1000 50 700 350 
Q 375 675 400 1375 
L 900 1375 
Q 900 825 1050 675 
Q 1225 500 1575 500 
Q 1925 500 2100 675 
Q 2250 825 2250 1025 
Q 2250 1175 2100 1325 
Q 1950 1475 1525 1625 
Q 900 1850 700 2050 
Q 475 2275 475 2600 
Q 475 2925 750 3200 
Q 1025 3475 1600 3475 
Q 2100 3475 2400 3175 
Q 2700 2875 2675 2450 
L 2175 2450 
z
" transform="scale(0.015625)"/>
       <path id="MS-Gothic-69" d="M 1825 50 
L 1325 50 
L 1325 3475 
L 1825 3475 
L 1825 50 
z
M 1825 4925 
L 1825 4275 
L 1325 4275 
L 1325 4925 
L 1825 4925 
z
" transform="scale(0.015625)"/>
       <path id="MS-Gothic-64" d="M 2300 550 
Q 1900 50 1400 50 
Q 1025 50 675 400 
Q 250 825 250 1825 
Q 250 2650 725 3125 
Q 1075 3475 1500 3475 
Q 1950 3475 2300 3100 
L 2300 4925 
L 2800 4925 
L 2800 50 
L 2300 50 
L 2300 550 
z
M 1550 3025 
Q 1325 3025 1125 2825 
Q 800 2500 800 1775 
Q 800 950 1075 675 
Q 1250 500 1525 500 
Q 1750 500 1975 725 
Q 2300 1050 2300 1825 
Q 2300 2525 1975 2850 
Q 1800 3025 1550 3025 
z
" transform="scale(0.015625)"/>
       <path id="MS-Gothic-75" d="M 2275 550 
Q 1875 50 1250 50 
Q 825 50 600 275 
Q 350 525 350 900 
L 350 3475 
L 850 3475 
L 850 1025 
Q 850 725 975 600 
Q 1100 475 1400 475 
Q 1750 475 2000 725 
Q 2275 1000 2275 1425 
L 2275 3475 
L 2775 3475 
L 2775 50 
L 2275 50 
L 2275 550 
z
" transform="scale(0.015625)"/>
       <path id="MS-Gothic-61" d="M 2200 1925 
Q 1900 1750 1500 1625 
Q 1200 1525 1025 1350 
Q 900 1225 900 1000 
Q 900 750 1025 625 
Q 1150 500 1425 500 
Q 1875 500 2200 1025 
L 2200 1925 
z
M 2200 425 
Q 1825 50 1275 50 
Q 825 50 550 325 
Q 300 575 300 950 
Q 300 1350 575 1625 
Q 825 1875 1150 1975 
Q 2000 2250 2075 2350 
Q 2200 2500 2200 2650 
Q 2200 2800 2050 2925 
Q 1925 3025 1600 3025 
Q 1350 3025 1200 2875 
Q 1000 2675 975 2350 
L 425 2350 
Q 450 2850 775 3175 
Q 1075 3475 1600 3475 
Q 2200 3475 2450 3225 
Q 2700 2975 2700 2600 
L 2700 625 
Q 2700 325 2900 50 
L 2300 50 
Q 2200 150 2200 425 
z
" transform="scale(0.015625)"/>
       <path id="MS-Gothic-6c" d="M 1850 50 
L 1350 50 
L 1350 4925 
L 1850 4925 
L 1850 50 
z
" transform="scale(0.015625)"/>
       <path id="MS-Gothic-20" transform="scale(0.015625)"/>
       <path id="DejaVuSans-Oblique-72" d="M 2853 2969 
Q 2766 3016 2653 3041 
Q 2541 3066 2413 3066 
Q 1953 3066 1609 2717 
Q 1266 2369 1153 1784 
L 800 0 
L 225 0 
L 909 3500 
L 1484 3500 
L 1375 2956 
Q 1603 3259 1920 3421 
Q 2238 3584 2597 3584 
Q 2691 3584 2781 3573 
Q 2872 3563 2963 3538 
L 2853 2969 
z
" transform="scale(0.015625)"/>
      </defs>
      <use xlink:href="#MS-Gothic-72" transform="translate(0 0.046875)"/>
      <use xlink:href="#MS-Gothic-65" transform="translate(50 0.046875)"/>
      <use xlink:href="#MS-Gothic-73" transform="translate(100 0.046875)"/>
      <use xlink:href="#MS-Gothic-69" transform="translate(150 0.046875)"/>
      <use xlink:href="#MS-Gothic-64" transform="translate(200 0.046875)"/>
      <use xlink:href="#MS-Gothic-75" transform="translate(250 0.046875)"/>
      <use xlink:href="#MS-Gothic-61" transform="translate(300 0.046875)"/>
      <use xlink:href="#MS-Gothic-6c" transform="translate(350 0.046875)"/>
      <use xlink:href="#MS-Gothic-20" transform="translate(400 0.046875)"/>
      <use xlink:href="#DejaVuSans-Oblique-72" transform="translate(450 0.046875)"/>
     </g>
    </g>
   </g>
   <g id="matplotlib.axis_2">
    <g id="ytick_1">
     <g id="line2d_19">
      <path d="M 46.1375 344.0175 
L 492.5375 344.0175 
" clip-path="url(#p9c47fc4f86)" style="fill: none; stroke: #000000; stroke-opacity: 0.3; stroke-width: 0.5; stroke-linecap: square"/>
     </g>
     <g id="line2d_20">
      <defs>
       <path id="m0df6acc7ac" d="M 0 0 
L -3.5 0 
" style="stroke: #000000; stroke-width: 0.8"/>
      </defs>
      <g>
       <use xlink:href="#m0df6acc7ac" x="46.1375" y="344.0175" style="stroke: #000000; stroke-width: 0.8"/>
      </g>
     </g>
     <g id="text_11">
      <!-- 0.0 -->
      <g transform="translate(24.1375 347.865156) scale(0.1 -0.1)">
       <use xlink:href="#MS-Gothic-30"/>
       <use xlink:href="#MS-Gothic-2e" transform="translate(50 0)"/>
       <use xlink:href="#MS-Gothic-30" transform="translate(100 0)"/>
      </g>
     </g>
    </g>
    <g id="ytick_2">
     <g id="line2d_21">
      <path d="M 46.1375 306.2175 
L 492.5375 306.2175 
" clip-path="url(#p9c47fc4f86)" style="fill: none; stroke: #000000; stroke-opacity: 0.3; stroke-width: 0.5; stroke-linecap: square"/>
     </g>
     <g id="line2d_22">
      <g>
       <use xlink:href="#m0df6acc7ac" x="46.1375" y="306.2175" style="stroke: #000000; stroke-width: 0.8"/>
      </g>
     </g>
     <g id="text_12">
      <!-- 0.5 -->
      <g transform="translate(24.1375 310.065156) scale(0.1 -0.1)">
       <use xlink:href="#MS-Gothic-30"/>
       <use xlink:href="#MS-Gothic-2e" transform="translate(50 0)"/>
       <use xlink:href="#MS-Gothic-35" transform="translate(100 0)"/>
      </g>
     </g>
    </g>
    <g id="ytick_3">
     <g id="line2d_23">
      <path d="M 46.1375 268.4175 
L 492.5375 268.4175 
" clip-path="url(#p9c47fc4f86)" style="fill: none; stroke: #000000; stroke-opacity: 0.3; stroke-width: 0.5; stroke-linecap: square"/>
     </g>
     <g id="line2d_24">
      <g>
       <use xlink:href="#m0df6acc7ac" x="46.1375" y="268.4175" style="stroke: #000000; stroke-width: 0.8"/>
      </g>
     </g>
     <g id="text_13">
      <!-- 1.0 -->
      <g transform="translate(24.1375 272.265156) scale(0.1 -0.1)">
       <use xlink:href="#MS-Gothic-31"/>
       <use xlink:href="#MS-Gothic-2e" transform="translate(50 0)"/>
       <use xlink:href="#MS-Gothic-30" transform="translate(100 0)"/>
      </g>
     </g>
    </g>
    <g id="ytick_4">
     <g id="line2d_25">
      <path d="M 46.1375 230.6175 
L 492.5375 230.6175 
" clip-path="url(#p9c47fc4f86)" style="fill: none; stroke: #000000; stroke-opacity: 0.3; stroke-width: 0.5; stroke-linecap: square"/>
     </g>
     <g id="line2d_26">
      <g>
       <use xlink:href="#m0df6acc7ac" x="46.1375" y="230.6175" style="stroke: #000000; stroke-width: 0.8"/>
      </g>
     </g>
     <g id="text_14">
      <!-- 1.5 -->
      <g transform="translate(24.1375 234.465156) scale(0.1 -0.1)">
       <use xlink:href="#MS-Gothic-31"/>
       <use xlink:href="#MS-Gothic-2e" transform="translate(50 0)"/>
       <use xlink:href="#MS-Gothic-35" transform="translate(100 0)"/>
      </g>
     </g>
    </g>
    <g id="ytick_5">
     <g id="line2d_27">
      <path d="M 46.1375 192.8175 
L 492.5375 192.8175 
" clip-path="url(#p9c47fc4f86)" style="fill: none; stroke: #000000; stroke-opacity: 0.3; stroke-width: 0.5; stroke-linecap: square"/>
     </g>
     <g id="line2d_28">
      <g>
       <use xlink:href="#m0df6acc7ac" x="46.1375" y="192.8175" style="stroke: #000000; stroke-width: 0.8"/>
      </g>
     </g>
     <g id="text_15">
      <!-- 2.0 -->
      <g transform="translate(24.1375 196.665156) scale(0.1 -0.1)">
       <use xlink:href="#MS-Gothic-32"/>
       <use xlink:href="#MS-Gothic-2e" transform="translate(50 0)"/>
       <use xlink:href="#MS-Gothic-30" transform="translate(100 0)"/>
      </g>
     </g>
    </g>
    <g id="ytick_6">
     <g id="line2d_29">
      <path d="M 46.1375 155.0175 
L 492.5375 155.0175 
" clip-path="url(#p9c47fc4f86)" style="fill: none; stroke: #000000; stroke-opacity: 0.3; stroke-width: 0.5; stroke-linecap: square"/>
     </g>
     <g id="line2d_30">
      <g>
       <use xlink:href="#m0df6acc7ac" x="46.1375" y="155.0175" style="stroke: #000000; stroke-width: 0.8"/>
      </g>
     </g>
     <g id="text_16">
      <!-- 2.5 -->
      <g transform="translate(24.1375 158.865156) scale(0.1 -0.1)">
       <use xlink:href="#MS-Gothic-32"/>
       <use xlink:href="#MS-Gothic-2e" transform="translate(50 0)"/>
       <use xlink:href="#MS-Gothic-35" transform="translate(100 0)"/>
      </g>
     </g>
    </g>
    <g id="ytick_7">
     <g id="line2d_31">
      <path d="M 46.1375 117.2175 
L 492.5375 117.2175 
" clip-path="url(#p9c47fc4f86)" style="fill: none; stroke: #000000; stroke-opacity: 0.3; stroke-width: 0.5; stroke-linecap: square"/>
     </g>
     <g id="line2d_32">
      <g>
       <use xlink:href="#m0df6acc7ac" x="46.1375" y="117.2175" style="stroke: #000000; stroke-width: 0.8"/>
      </g>
     </g>
     <g id="text_17">
      <!-- 3.0 -->
      <g transform="translate(24.1375 121.065156) scale(0.1 -0.1)">
       <defs>
        <path id="MS-Gothic-33" d="M 850 1500 
Q 825 950 1075 700 
Q 1250 525 1550 525 
Q 1800 525 2025 750 
Q 2250 975 2250 1500 
Q 2250 1900 1975 2175 
Q 1775 2375 1375 2350 
L 1375 2775 
Q 1775 2800 1975 3000 
Q 2175 3200 2175 3600 
Q 2175 4100 1950 4325 
Q 1800 4475 1575 4475 
Q 1350 4475 1200 4325 
Q 950 4075 925 3575 
L 375 3575 
Q 400 4225 800 4625 
Q 1100 4925 1575 4925 
Q 2075 4925 2375 4625 
Q 2725 4275 2725 3700 
Q 2725 3175 2450 2900 
Q 2200 2650 1975 2575 
Q 2300 2475 2475 2300 
Q 2825 1950 2825 1450 
Q 2825 800 2425 400 
Q 2075 50 1550 50 
Q 975 50 650 375 
Q 275 750 275 1500 
L 850 1500 
z
" transform="scale(0.015625)"/>
       </defs>
       <use xlink:href="#MS-Gothic-33"/>
       <use xlink:href="#MS-Gothic-2e" transform="translate(50 0)"/>
       <use xlink:href="#MS-Gothic-30" transform="translate(100 0)"/>
      </g>
     </g>
    </g>
    <g id="ytick_8">
     <g id="line2d_33">
      <path d="M 46.1375 79.4175 
L 492.5375 79.4175 
" clip-path="url(#p9c47fc4f86)" style="fill: none; stroke: #000000; stroke-opacity: 0.3; stroke-width: 0.5; stroke-linecap: square"/>
     </g>
     <g id="line2d_34">
      <g>
       <use xlink:href="#m0df6acc7ac" x="46.1375" y="79.4175" style="stroke: #000000; stroke-width: 0.8"/>
      </g>
     </g>
     <g id="text_18">
      <!-- 3.5 -->
      <g transform="translate(24.1375 83.265156) scale(0.1 -0.1)">
       <use xlink:href="#MS-Gothic-33"/>
       <use xlink:href="#MS-Gothic-2e" transform="translate(50 0)"/>
       <use xlink:href="#MS-Gothic-35" transform="translate(100 0)"/>
      </g>
     </g>
    </g>
    <g id="ytick_9">
     <g id="line2d_35">
      <path d="M 46.1375 41.6175 
L 492.5375 41.6175 
" clip-path="url(#p9c47fc4f86)" style="fill: none; stroke: #000000; stroke-opacity: 0.3; stroke-width: 0.5; stroke-linecap: square"/>
     </g>
     <g id="line2d_36">
      <g>
       <use xlink:href="#m0df6acc7ac" x="46.1375" y="41.6175" style="stroke: #000000; stroke-width: 0.8"/>
      </g>
     </g>
     <g id="text_19">
      <!-- 4.0 -->
      <g transform="translate(24.1375 45.465156) scale(0.1 -0.1)">
       <defs>
        <path id="MS-Gothic-34" d="M 1875 50 
L 1875 625 
L 1875 1200 
L 200 1200 
L 200 1675 
L 1875 4925 
L 2450 4925 
L 2450 1675 
L 2975 1675 
L 2975 1200 
L 2450 1200 
L 2450 50 
L 1875 50 
z
M 1875 1675 
L 1875 3875 
L 750 1675 
L 1875 1675 
z
" transform="scale(0.015625)"/>
       </defs>
       <use xlink:href="#MS-Gothic-34"/>
       <use xlink:href="#MS-Gothic-2e" transform="translate(50 0)"/>
       <use xlink:href="#MS-Gothic-30" transform="translate(100 0)"/>
      </g>
     </g>
    </g>
    <g id="text_20">
     <!-- loss -->
     <g transform="translate(18.28125 207.2175) rotate(-90) scale(0.144 -0.144)">
      <defs>
       <path id="MS-Gothic-6f" d="M 650 3075 
Q 1050 3475 1600 3475 
Q 2125 3475 2525 3075 
Q 2925 2675 2925 1750 
Q 2925 850 2525 450 
Q 2125 50 1600 50 
Q 1050 50 650 450 
Q 250 850 250 1750 
Q 250 2675 650 3075 
z
M 1600 3025 
Q 1300 3025 1075 2800 
Q 800 2525 800 1750 
Q 800 1000 1075 725 
Q 1300 500 1600 500 
Q 1875 500 2100 725 
Q 2375 1000 2375 1750 
Q 2375 2525 2100 2800 
Q 1875 3025 1600 3025 
z
" transform="scale(0.015625)"/>
      </defs>
      <use xlink:href="#MS-Gothic-6c"/>
      <use xlink:href="#MS-Gothic-6f" transform="translate(50 0)"/>
      <use xlink:href="#MS-Gothic-73" transform="translate(100 0)"/>
      <use xlink:href="#MS-Gothic-73" transform="translate(150 0)"/>
     </g>
    </g>
   </g>
   <g id="line2d_37">
    <path d="M 66.428409 41.6175 
L 73.548026 62.41506 
L 80.667644 82.47174 
L 87.787261 101.78754 
L 93.88979 117.75426 
L 99.992319 133.17666 
L 106.094848 148.05474 
L 112.197377 162.3885 
L 118.299906 176.17794 
L 124.402435 189.42306 
L 130.504964 202.12386 
L 136.607493 214.28034 
L 142.710022 225.8925 
L 148.812551 236.96034 
L 153.897992 245.76774 
L 158.983433 254.19714 
L 164.068874 262.24854 
L 169.154315 269.92194 
L 174.239756 277.21734 
L 179.325197 284.13474 
L 184.410637 290.67414 
L 189.496078 296.83554 
L 194.581519 302.61894 
L 199.66696 308.02434 
L 204.752401 313.05174 
L 209.837842 317.70114 
L 213.906194 321.1485 
L 217.974547 324.35394 
L 222.0429 327.31746 
L 226.111253 330.03906 
L 230.179605 332.51874 
L 234.247958 334.7565 
L 238.316311 336.75234 
L 242.384663 338.50626 
L 246.453016 340.01826 
L 250.521369 341.28834 
L 254.589721 342.3165 
L 258.658074 343.10274 
L 262.726427 343.64706 
L 266.79478 343.94946 
L 270.863132 344.00994 
L 274.931485 343.8285 
L 278.999838 343.40514 
L 283.06819 342.73986 
L 287.136543 341.83266 
L 291.204896 340.68354 
L 295.273248 339.2925 
L 299.341601 337.65954 
L 303.409954 335.78466 
L 307.478307 333.66786 
L 311.546659 331.30914 
L 315.615012 328.7085 
L 319.683365 325.86594 
L 323.751717 322.78146 
L 327.82007 319.45506 
L 331.888423 315.88674 
L 335.956775 312.0765 
L 341.042216 306.9735 
L 346.127657 301.4925 
L 351.213098 295.6335 
L 356.298539 289.3965 
L 361.38398 282.7815 
L 366.469421 275.7885 
L 371.554862 268.4175 
L 376.640302 260.6685 
L 381.725743 252.5415 
L 386.811184 244.0365 
L 391.896625 235.1535 
L 397.999154 223.99494 
L 404.101683 212.29206 
L 410.204212 200.04486 
L 416.306741 187.25334 
L 422.40927 173.9175 
L 428.511799 160.03734 
L 434.614328 145.61286 
L 440.716857 130.64406 
L 446.819387 115.13094 
L 452.921916 99.0735 
L 460.041533 79.65186 
L 467.16115 59.48934 
L 472.246591 44.63394 
L 472.246591 44.63394 
" clip-path="url(#p9c47fc4f86)" style="fill: none; stroke: #ff0000; stroke-width: 1.2; stroke-linecap: square"/>
   </g>
   <g id="line2d_38">
    <path d="M 66.428409 192.8175 
L 269.846044 344.0175 
L 472.246591 193.5735 
L 472.246591 193.5735 
" clip-path="url(#p9c47fc4f86)" style="fill: none; stroke: #ffa500; stroke-width: 1.2; stroke-linecap: square"/>
   </g>
   <g id="line2d_39">
    <path d="M 66.428409 202.2675 
L 123.385347 265.63542 
L 130.504964 273.07068 
L 136.607493 279.14892 
L 142.710022 284.955 
L 148.812551 290.48892 
L 154.91508 295.75068 
L 161.017609 300.74028 
L 167.120138 305.45772 
L 173.222667 309.903 
L 179.325197 314.07612 
L 185.427726 317.97708 
L 191.530255 321.60588 
L 197.632784 324.96252 
L 203.735313 328.047 
L 209.837842 330.85932 
L 215.940371 333.39948 
L 222.0429 335.66748 
L 228.145429 337.66332 
L 234.247958 339.387 
L 240.350487 340.83852 
L 246.453016 342.01788 
L 251.538457 342.79278 
L 256.623898 343.37868 
L 261.709339 343.77558 
L 266.79478 343.98348 
L 271.88022 344.00238 
L 276.965661 343.83228 
L 282.051102 343.47318 
L 287.136543 342.92508 
L 292.221984 342.18798 
L 297.307425 341.26188 
L 303.409954 339.90108 
L 309.512483 338.26812 
L 315.615012 336.363 
L 321.717541 334.18572 
L 327.82007 331.73628 
L 333.922599 329.01468 
L 340.025128 326.02092 
L 346.127657 322.755 
L 352.230186 319.21692 
L 358.332715 315.40668 
L 364.435244 311.32428 
L 370.537773 306.96972 
L 376.640302 302.343 
L 382.742832 297.44412 
L 388.845361 292.27308 
L 394.94789 286.82988 
L 401.050419 281.11452 
L 407.152948 275.127 
L 413.255477 268.86732 
L 420.375094 261.22038 
L 435.631417 244.2255 
L 472.246591 203.4015 
L 472.246591 203.4015 
" clip-path="url(#p9c47fc4f86)" style="fill: none; stroke: #008000; stroke-width: 1.2; stroke-linecap: square"/>
   </g>
   <g id="line2d_40">
    <path d="M 46.1375 344.0175 
L 492.5375 344.0175 
" clip-path="url(#p9c47fc4f86)" style="fill: none; stroke: #000000; stroke-width: 0.8; stroke-linecap: square"/>
   </g>
   <g id="text_21">
    <!-- Squared, absolute, and Huber losses -->
    <g transform="translate(118.1375 20.4975) scale(0.1728 -0.1728)">
     <defs>
      <path id="MS-Gothic-53" d="M 1300 3100 
Q 1825 2650 2350 2350 
Q 2925 2025 2925 1400 
Q 2925 775 2550 400 
Q 2200 50 1575 50 
Q 975 50 650 375 
Q 250 775 250 1325 
L 250 1575 
L 825 1575 
L 825 1350 
Q 825 950 1025 750 
Q 1225 550 1525 550 
Q 1925 550 2125 750 
Q 2350 975 2350 1325 
Q 2350 1700 2000 1925 
Q 1375 2325 825 2775 
Q 425 3100 400 3650 
Q 375 4200 775 4575 
Q 1150 4925 1600 4925 
Q 2150 4925 2450 4625 
Q 2825 4250 2800 3575 
L 2225 3575 
Q 2275 4000 2025 4250 
Q 1850 4425 1600 4425 
Q 1350 4425 1175 4250 
Q 950 4025 950 3725 
Q 950 3400 1300 3100 
z
" transform="scale(0.015625)"/>
      <path id="MS-Gothic-71" d="M 1550 3050 
Q 1325 3050 1125 2850 
Q 775 2500 775 1675 
Q 775 950 1050 675 
Q 1225 500 1450 500 
Q 1700 500 1900 700 
Q 2300 1100 2300 1825 
Q 2300 2525 2000 2825 
Q 1775 3050 1550 3050 
z
M 2325 3475 
L 2825 3475 
L 2825 -825 
L 2325 -825 
L 2325 725 
Q 2000 50 1325 50 
Q 950 50 675 325 
Q 225 775 225 1700 
Q 225 2650 700 3125 
Q 1050 3475 1475 3475 
Q 1925 3475 2325 2975 
L 2325 3475 
z
" transform="scale(0.015625)"/>
      <path id="MS-Gothic-2c" d="M 800 -625 
L 550 -625 
L 800 50 
L 550 50 
L 550 600 
L 1125 600 
L 1125 50 
L 800 -625 
z
" transform="scale(0.015625)"/>
      <path id="MS-Gothic-62" d="M 825 2925 
Q 1225 3475 1750 3475 
Q 2150 3475 2450 3175 
Q 2850 2775 2850 1825 
Q 2850 825 2450 425 
Q 2075 50 1675 50 
Q 1200 50 825 475 
L 825 50 
L 325 50 
L 325 4925 
L 825 4925 
L 825 2925 
z
M 825 1675 
Q 825 950 1075 700 
Q 1300 475 1550 475 
Q 1850 475 2025 650 
Q 2350 975 2350 1775 
Q 2350 2550 2050 2850 
Q 1875 3025 1600 3025 
Q 1325 3025 1075 2775 
Q 825 2525 825 1675 
z
" transform="scale(0.015625)"/>
      <path id="MS-Gothic-74" d="M 1050 3075 
L 250 3075 
L 250 3475 
L 1050 3475 
L 1050 4575 
L 1550 4575 
L 1550 3475 
L 2675 3475 
L 2675 3075 
L 1550 3075 
L 1550 800 
Q 1550 525 1950 525 
Q 2375 525 2825 725 
L 2825 200 
Q 2200 50 1875 50 
Q 1050 50 1050 700 
L 1050 3075 
z
" transform="scale(0.015625)"/>
      <path id="MS-Gothic-6e" d="M 2325 2500 
Q 2325 2725 2175 2875 
Q 2025 3025 1775 3025 
Q 1500 3025 1225 2750 
Q 875 2400 875 1850 
L 875 50 
L 375 50 
L 375 3475 
L 875 3475 
L 875 2825 
Q 1000 3000 1175 3175 
Q 1475 3475 1925 3475 
Q 2325 3475 2575 3225 
Q 2825 2975 2825 2550 
L 2825 50 
L 2325 50 
L 2325 2500 
z
" transform="scale(0.015625)"/>
      <path id="MS-Gothic-48" d="M 300 50 
L 300 4925 
L 875 4925 
L 875 2975 
L 2300 2975 
L 2300 4925 
L 2875 4925 
L 2875 50 
L 2300 50 
L 2300 1275 
L 2300 2500 
L 875 2500 
L 875 50 
L 300 50 
z
" transform="scale(0.015625)"/>
     </defs>
     <use xlink:href="#MS-Gothic-53"/>
     <use xlink:href="#MS-Gothic-71" transform="translate(50 0)"/>
     <use xlink:href="#MS-Gothic-75" transform="translate(100 0)"/>
     <use xlink:href="#MS-Gothic-61" transform="translate(150 0)"/>
     <use xlink:href="#MS-Gothic-72" transform="translate(200 0)"/>
     <use xlink:href="#MS-Gothic-65" transform="translate(250 0)"/>
     <use xlink:href="#MS-Gothic-64" transform="translate(300 0)"/>
     <use xlink:href="#MS-Gothic-2c" transform="translate(350 0)"/>
     <use xlink:href="#MS-Gothic-20" transform="translate(400 0)"/>
     <use xlink:href="#MS-Gothic-61" transform="translate(450 0)"/>
     <use xlink:href="#MS-Gothic-62" transform="translate(500 0)"/>
     <use xlink:href="#MS-Gothic-73" transform="translate(550 0)"/>
     <use xlink:href="#MS-Gothic-6f" transform="translate(600 0)"/>
     <use xlink:href="#MS-Gothic-6c" transform="translate(650 0)"/>
     <use xlink:href="#MS-Gothic-75" transform="translate(700 0)"/>
     <use xlink:href="#MS-Gothic-74" transform="translate(750 0)"/>
     <use xlink:href="#MS-Gothic-65" transform="translate(800 0)"/>
     <use xlink:href="#MS-Gothic-2c" transform="translate(850 0)"/>
     <use xlink:href="#MS-Gothic-20" transform="translate(900 0)"/>
     <use xlink:href="#MS-Gothic-61" transform="translate(950 0)"/>
     <use xlink:href="#MS-Gothic-6e" transform="translate(1000 0)"/>
     <use xlink:href="#MS-Gothic-64" transform="translate(1050 0)"/>
     <use xlink:href="#MS-Gothic-20" transform="translate(1100 0)"/>
     <use xlink:href="#MS-Gothic-48" transform="translate(1150 0)"/>
     <use xlink:href="#MS-Gothic-75" transform="translate(1200 0)"/>
     <use xlink:href="#MS-Gothic-62" transform="translate(1250 0)"/>
     <use xlink:href="#MS-Gothic-65" transform="translate(1300 0)"/>
     <use xlink:href="#MS-Gothic-72" transform="translate(1350 0)"/>
     <use xlink:href="#MS-Gothic-20" transform="translate(1400 0)"/>
     <use xlink:href="#MS-Gothic-6c" transform="translate(1450 0)"/>
     <use xlink:href="#MS-Gothic-6f" transform="translate(1500 0)"/>
     <use xlink:href="#MS-Gothic-73" transform="translate(1550 0)"/>
     <use xlink:href="#MS-Gothic-73" transform="translate(1600 0)"/>
     <use xlink:href="#MS-Gothic-65" transform="translate(1650 0)"/>
     <use xlink:href="#MS-Gothic-73" transform="translate(1700 0)"/>
    </g>
   </g>
   <g id="legend_1">
    <g id="patch_3">
     <path d="M 205.5575 105.0975 
L 333.1175 105.0975 
Q 335.5175 105.0975 335.5175 102.6975 
L 335.5175 40.8975 
Q 335.5175 38.4975 333.1175 38.4975 
L 205.5575 38.4975 
Q 203.1575 38.4975 203.1575 40.8975 
L 203.1575 102.6975 
Q 203.1575 105.0975 205.5575 105.0975 
z
" style="fill: #ffffff; opacity: 0.8; stroke: #cccccc; stroke-linejoin: miter"/>
    </g>
    <g id="line2d_41">
     <path d="M 207.9575 50.0175 
L 219.9575 50.0175 
L 231.9575 50.0175 
" style="fill: none; stroke: #ff0000; stroke-width: 1.2; stroke-linecap: square"/>
    </g>
    <g id="text_22">
     <!-- squared $r^2$ -->
     <g transform="translate(241.5575 54.2175) scale(0.12 -0.12)">
      <defs>
       <path id="DejaVuSans-32" d="M 1228 531 
L 3431 531 
L 3431 0 
L 469 0 
L 469 531 
Q 828 903 1448 1529 
Q 2069 2156 2228 2338 
Q 2531 2678 2651 2914 
Q 2772 3150 2772 3378 
Q 2772 3750 2511 3984 
Q 2250 4219 1831 4219 
Q 1534 4219 1204 4116 
Q 875 4013 500 3803 
L 500 4441 
Q 881 4594 1212 4672 
Q 1544 4750 1819 4750 
Q 2544 4750 2975 4387 
Q 3406 4025 3406 3419 
Q 3406 3131 3298 2873 
Q 3191 2616 2906 2266 
Q 2828 2175 2409 1742 
Q 1991 1309 1228 531 
z
" transform="scale(0.015625)"/>
      </defs>
      <use xlink:href="#MS-Gothic-73" transform="translate(0 0.765625)"/>
      <use xlink:href="#MS-Gothic-71" transform="translate(50 0.765625)"/>
      <use xlink:href="#MS-Gothic-75" transform="translate(100 0.765625)"/>
      <use xlink:href="#MS-Gothic-61" transform="translate(150 0.765625)"/>
      <use xlink:href="#MS-Gothic-72" transform="translate(200 0.765625)"/>
      <use xlink:href="#MS-Gothic-65" transform="translate(250 0.765625)"/>
      <use xlink:href="#MS-Gothic-64" transform="translate(300 0.765625)"/>
      <use xlink:href="#MS-Gothic-20" transform="translate(350 0.765625)"/>
      <use xlink:href="#DejaVuSans-Oblique-72" transform="translate(400 0.765625)"/>
      <use xlink:href="#DejaVuSans-32" transform="translate(445.763177 39.046875) scale(0.7)"/>
     </g>
    </g>
    <g id="line2d_42">
     <path d="M 207.9575 71.6175 
L 219.9575 71.6175 
L 231.9575 71.6175 
" style="fill: none; stroke: #ffa500; stroke-width: 1.2; stroke-linecap: square"/>
    </g>
    <g id="text_23">
     <!-- absolute $|r|$ -->
     <g transform="translate(241.5575 75.8175) scale(0.12 -0.12)">
      <defs>
       <path id="DejaVuSans-7c" d="M 1344 4891 
L 1344 -1509 
L 813 -1509 
L 813 4891 
L 1344 4891 
z
" transform="scale(0.015625)"/>
      </defs>
      <use xlink:href="#MS-Gothic-61" transform="translate(0 0.046875)"/>
      <use xlink:href="#MS-Gothic-62" transform="translate(50 0.046875)"/>
      <use xlink:href="#MS-Gothic-73" transform="translate(100 0.046875)"/>
      <use xlink:href="#MS-Gothic-6f" transform="translate(150 0.046875)"/>
      <use xlink:href="#MS-Gothic-6c" transform="translate(200 0.046875)"/>
      <use xlink:href="#MS-Gothic-75" transform="translate(250 0.046875)"/>
      <use xlink:href="#MS-Gothic-74" transform="translate(300 0.046875)"/>
      <use xlink:href="#MS-Gothic-65" transform="translate(350 0.046875)"/>
      <use xlink:href="#MS-Gothic-20" transform="translate(400 0.046875)"/>
      <use xlink:href="#DejaVuSans-7c" transform="translate(450 0.046875)"/>
      <use xlink:href="#DejaVuSans-Oblique-72" transform="translate(483.691406 0.046875)"/>
      <use xlink:href="#DejaVuSans-7c" transform="translate(524.804688 0.046875)"/>
     </g>
    </g>
    <g id="line2d_43">
     <path d="M 207.9575 94.550625 
L 219.9575 94.550625 
L 231.9575 94.550625 
" style="fill: none; stroke: #008000; stroke-width: 1.2; stroke-linecap: square"/>
    </g>
    <g id="text_24">
     <!-- Huber ($\delta=1.5$) -->
     <g transform="translate(241.5575 98.750625) scale(0.12 -0.12)">
      <defs>
       <path id="MS-Gothic-28" d="M 2725 -575 
Q 1475 650 1475 2300 
Q 1475 3950 2725 5175 
L 3000 4900 
Q 1850 3825 1850 2300 
Q 1850 775 3000 -300 
L 2725 -575 
z
" transform="scale(0.015625)"/>
       <path id="DejaVuSans-Oblique-3b4" d="M 3472 4053 
Q 3197 4272 2450 4272 
Q 1659 4272 1588 3906 
Q 1531 3619 2328 3469 
Q 2953 3353 3253 3003 
Q 3616 2581 3447 1716 
Q 3284 888 2763 400 
Q 2238 -91 1488 -91 
Q 741 -91 406 400 
Q 72 888 241 1747 
Q 363 2384 891 2900 
Q 1097 3100 1353 3213 
Q 913 3459 1000 3900 
Q 1166 4750 2544 4750 
Q 3234 4750 3566 4531 
L 3472 4053 
z
M 1753 3056 
Q 1525 2966 1306 2738 
Q 969 2384 847 1747 
Q 722 1113 919 756 
Q 1119 397 1584 397 
Q 2044 397 2381 759 
Q 2722 1122 2838 1716 
Q 2956 2338 2731 2638 
Q 2491 2959 2103 2994 
Q 1906 3013 1753 3056 
z
" transform="scale(0.015625)"/>
       <path id="DejaVuSans-3d" d="M 678 2906 
L 4684 2906 
L 4684 2381 
L 678 2381 
L 678 2906 
z
M 678 1631 
L 4684 1631 
L 4684 1100 
L 678 1100 
L 678 1631 
z
" transform="scale(0.015625)"/>
       <path id="DejaVuSans-31" d="M 794 531 
L 1825 531 
L 1825 4091 
L 703 3866 
L 703 4441 
L 1819 4666 
L 2450 4666 
L 2450 531 
L 3481 531 
L 3481 0 
L 794 0 
L 794 531 
z
" transform="scale(0.015625)"/>
       <path id="DejaVuSans-2e" d="M 684 794 
L 1344 794 
L 1344 0 
L 684 0 
L 684 794 
z
" transform="scale(0.015625)"/>
       <path id="DejaVuSans-35" d="M 691 4666 
L 3169 4666 
L 3169 4134 
L 1269 4134 
L 1269 2991 
Q 1406 3038 1543 3061 
Q 1681 3084 1819 3084 
Q 2600 3084 3056 2656 
Q 3513 2228 3513 1497 
Q 3513 744 3044 326 
Q 2575 -91 1722 -91 
Q 1428 -91 1123 -41 
Q 819 9 494 109 
L 494 744 
Q 775 591 1075 516 
Q 1375 441 1709 441 
Q 2250 441 2565 725 
Q 2881 1009 2881 1497 
Q 2881 1984 2565 2268 
Q 2250 2553 1709 2553 
Q 1456 2553 1204 2497 
Q 953 2441 691 2322 
L 691 4666 
z
" transform="scale(0.015625)"/>
       <path id="MS-Gothic-29" d="M 1700 2300 
Q 1700 650 450 -575 
L 175 -300 
Q 1325 775 1325 2300 
Q 1325 3825 175 4900 
L 450 5175 
Q 1700 3950 1700 2300 
z
" transform="scale(0.015625)"/>
      </defs>
      <use xlink:href="#MS-Gothic-48" transform="translate(0 0.140625)"/>
      <use xlink:href="#MS-Gothic-75" transform="translate(50 0.140625)"/>
      <use xlink:href="#MS-Gothic-62" transform="translate(100 0.140625)"/>
      <use xlink:href="#MS-Gothic-65" transform="translate(150 0.140625)"/>
      <use xlink:href="#MS-Gothic-72" transform="translate(200 0.140625)"/>
      <use xlink:href="#MS-Gothic-20" transform="translate(250 0.140625)"/>
      <use xlink:href="#MS-Gothic-28" transform="translate(300 0.140625)"/>
      <use xlink:href="#DejaVuSans-Oblique-3b4" transform="translate(350 0.140625)"/>
      <use xlink:href="#DejaVuSans-3d" transform="translate(430.664062 0.140625)"/>
      <use xlink:href="#DejaVuSans-31" transform="translate(533.935547 0.140625)"/>
      <use xlink:href="#DejaVuSans-2e" transform="translate(597.558594 0.140625)"/>
      <use xlink:href="#DejaVuSans-35" transform="translate(629.345703 0.140625)"/>
      <use xlink:href="#MS-Gothic-29" transform="translate(692.96875 0.140625)"/>
     </g>
    </g>
   </g>
  </g>
 </g>
 <defs>
  <clipPath id="p9c47fc4f86">
   <rect x="46.1375" y="26.4975" width="446.4" height="332.64"/>
  </clipPath>
 </defs>
</svg>
