<?xml version="1.0" encoding="utf-8" standalone="no"?>
<!DOCTYPE svg PUBLIC "-//W3C//DTD SVG 1.1//EN"
  "http://www.w3.org/Graphics/SVG/1.1/DTD/svg11.dtd">
<svg xmlns:xlink="http://www.w3.org/1999/xlink" width="468pt" height="252pt" viewBox="0 0 468 252" xmlns="http://www.w3.org/2000/svg" version="1.1">
 <metadata>
  <rdf:RDF xmlns:dc="http://purl.org/dc/elements/1.1/" xmlns:cc="http://creativecommons.org/ns#" xmlns:rdf="http://www.w3.org/1999/02/22-rdf-syntax-ns#">
   <cc:Work>
    <dc:type rdf:resource="http://purl.org/dc/dcmitype/StillImage"/>
    <dc:date>2025-10-27T10:38:04.933951</dc:date>
    <dc:format>image/svg+xml</dc:format>
    <dc:creator>
     <cc:Agent>
      <dc:title>Matplotlib v3.10.7, https://matplotlib.org/</dc:title>
     </cc:Agent>
    </dc:creator>
   </cc:Work>
  </rdf:RDF>
 </metadata>
 <defs>
  <style type="text/css">*{stroke-linejoin: round; stroke-linecap: butt}</style>
 </defs>
 <g id="figure_1">
  <g id="patch_1">
   <path d="M 0 252 
L 468 252 
L 468 0 
L 0 0 
z
" style="fill: #ffffff"/>
  </g>
  <g id="axes_1">
   <g id="patch_2">
    <path d="M 55.1 206.44 
L 449.25726 206.44 
L 449.25726 30.48 
L 55.1 30.48 
z
" style="fill: #ffffff"/>
   </g>
   <g id="PathCollection_1">
    <defs>
     <path id="m84a36b57c8" d="M 0 3.872983 
C 1.027127 3.872983 2.012324 3.464901 2.738613 2.738613 
C 3.464901 2.012324 3.872983 1.027127 3.872983 0 
C 3.872983 -1.027127 3.464901 -2.012324 2.738613 -2.738613 
C 2.012324 -3.464901 1.027127 -3.872983 0 -3.872983 
C -1.027127 -3.872983 -2.012324 -3.464901 -2.738613 -2.738613 
C -3.464901 -2.012324 -3.872983 -1.027127 -3.872983 0 
C -3.872983 1.027127 -3.464901 2.012324 -2.738613 2.738613 
C -2.012324 3.464901 -1.027127 3.872983 0 3.872983 
z
" style="stroke: #ef4444"/>
    </defs>
    <g clip-path="url(#p11f0a68281)">
     <use xlink:href="#m84a36b57c8" x="193.125105" y="38.478182" style="fill: #ef4444; stroke: #ef4444"/>
     <use xlink:href="#m84a36b57c8" x="353.270258" y="198.441818" style="fill: #ef4444; stroke: #ef4444"/>
    </g>
   </g>
   <g id="matplotlib.axis_1">
    <g id="xtick_1">
     <g id="line2d_1">
      <path d="M 73.016239 206.44 
L 73.016239 30.48 
" clip-path="url(#p11f0a68281)" style="fill: none; stroke: #000000; stroke-opacity: 0.3; stroke-width: 0.5; stroke-linecap: square"/>
     </g>
     <g id="line2d_2">
      <defs>
       <path id="mfc2874c9c2" d="M 0 0 
L 0 3.5 
" style="stroke: #000000; stroke-width: 0.8"/>
      </defs>
      <g>
       <use xlink:href="#mfc2874c9c2" x="73.016239" y="206.44" style="stroke: #000000; stroke-width: 0.8"/>
      </g>
     </g>
     <g id="text_1">
      <!-- 2022-01 -->
      <g transform="translate(52.331083 220.930625) scale(0.1 -0.1)">
       <defs>
        <path id="IPAexGothic-32" d="M 3659 63 
L 447 63 
L 447 594 
Q 825 1475 1894 2203 
L 2072 2322 
Q 2619 2697 2791 2906 
Q 2988 3153 2988 3444 
Q 2988 3772 2756 4003 
Q 2500 4259 2084 4259 
Q 1250 4259 991 3328 
L 497 3506 
Q 853 4725 2116 4725 
Q 2806 4725 3216 4316 
Q 3575 3947 3575 3425 
Q 3575 3038 3344 2722 
Q 3131 2416 2366 1938 
L 2231 1856 
Q 1256 1253 978 569 
L 3659 569 
L 3659 63 
z
" transform="scale(0.015625)"/>
        <path id="IPAexGothic-30" d="M 2038 4725 
Q 2881 4725 3334 3944 
Q 3694 3325 3694 2344 
Q 3694 1372 3334 741 
Q 2888 -31 2016 -31 
Q 1147 -31 700 741 
Q 341 1372 341 2350 
Q 341 3713 1000 4334 
Q 1419 4725 2038 4725 
z
M 2016 4266 
Q 1516 4266 1228 3759 
Q 934 3247 934 2344 
Q 934 1456 1222 947 
Q 1513 447 2016 447 
Q 2619 447 2909 1153 
Q 3100 1622 3100 2375 
Q 3100 3256 2806 3759 
Q 2509 4266 2016 4266 
z
" transform="scale(0.015625)"/>
        <path id="IPAexGothic-2d" d="M 1969 1703 
L 319 1703 
L 319 2203 
L 1969 2203 
L 1969 1703 
z
" transform="scale(0.015625)"/>
        <path id="IPAexGothic-31" d="M 2463 63 
L 1900 63 
L 1900 4103 
Q 1372 3922 788 3797 
L 684 4231 
Q 1519 4441 2106 4731 
L 2463 4731 
L 2463 63 
z
" transform="scale(0.015625)"/>
       </defs>
       <use xlink:href="#IPAexGothic-32"/>
       <use xlink:href="#IPAexGothic-30" transform="translate(62.988281 0)"/>
       <use xlink:href="#IPAexGothic-32" transform="translate(125.976562 0)"/>
       <use xlink:href="#IPAexGothic-32" transform="translate(188.964844 0)"/>
       <use xlink:href="#IPAexGothic-2d" transform="translate(251.953125 0)"/>
       <use xlink:href="#IPAexGothic-30" transform="translate(287.744141 0)"/>
       <use xlink:href="#IPAexGothic-31" transform="translate(350.732422 0)"/>
      </g>
     </g>
    </g>
    <g id="xtick_2">
     <g id="line2d_3">
      <path d="M 135.072486 206.44 
L 135.072486 30.48 
" clip-path="url(#p11f0a68281)" style="fill: none; stroke: #000000; stroke-opacity: 0.3; stroke-width: 0.5; stroke-linecap: square"/>
     </g>
     <g id="line2d_4">
      <g>
       <use xlink:href="#mfc2874c9c2" x="135.072486" y="206.44" style="stroke: #000000; stroke-width: 0.8"/>
      </g>
     </g>
     <g id="text_2">
      <!-- 2022-02 -->
      <g transform="translate(114.38733 220.930625) scale(0.1 -0.1)">
       <use xlink:href="#IPAexGothic-32"/>
       <use xlink:href="#IPAexGothic-30" transform="translate(62.988281 0)"/>
       <use xlink:href="#IPAexGothic-32" transform="translate(125.976562 0)"/>
       <use xlink:href="#IPAexGothic-32" transform="translate(188.964844 0)"/>
       <use xlink:href="#IPAexGothic-2d" transform="translate(251.953125 0)"/>
       <use xlink:href="#IPAexGothic-30" transform="translate(287.744141 0)"/>
       <use xlink:href="#IPAexGothic-32" transform="translate(350.732422 0)"/>
      </g>
     </g>
    </g>
    <g id="xtick_3">
     <g id="line2d_5">
      <path d="M 191.12329 206.44 
L 191.12329 30.48 
" clip-path="url(#p11f0a68281)" style="fill: none; stroke: #000000; stroke-opacity: 0.3; stroke-width: 0.5; stroke-linecap: square"/>
     </g>
     <g id="line2d_6">
      <g>
       <use xlink:href="#mfc2874c9c2" x="191.12329" y="206.44" style="stroke: #000000; stroke-width: 0.8"/>
      </g>
     </g>
     <g id="text_3">
      <!-- 2022-03 -->
      <g transform="translate(170.438134 220.930625) scale(0.1 -0.1)">
       <defs>
        <path id="IPAexGothic-33" d="M 2381 2419 
Q 3506 2216 3506 1278 
Q 3506 716 3128 356 
Q 2709 -31 1944 -31 
Q 797 -31 288 881 
L 756 1131 
Q 1109 441 1938 441 
Q 2425 441 2694 691 
Q 2950 928 2950 1291 
Q 2950 1719 2566 1978 
Q 2216 2213 1644 2213 
L 1363 2213 
L 1363 2669 
L 1656 2669 
Q 2231 2669 2534 2888 
Q 2859 3119 2859 3509 
Q 2859 3934 2494 4138 
Q 2259 4278 1931 4278 
Q 1238 4278 903 3578 
L 434 3803 
Q 897 4725 1938 4725 
Q 2597 4725 3006 4394 
Q 3416 4069 3416 3534 
Q 3416 3028 3019 2706 
Q 2763 2500 2381 2444 
L 2381 2419 
z
" transform="scale(0.015625)"/>
       </defs>
       <use xlink:href="#IPAexGothic-32"/>
       <use xlink:href="#IPAexGothic-30" transform="translate(62.988281 0)"/>
       <use xlink:href="#IPAexGothic-32" transform="translate(125.976562 0)"/>
       <use xlink:href="#IPAexGothic-32" transform="translate(188.964844 0)"/>
       <use xlink:href="#IPAexGothic-2d" transform="translate(251.953125 0)"/>
       <use xlink:href="#IPAexGothic-30" transform="translate(287.744141 0)"/>
       <use xlink:href="#IPAexGothic-33" transform="translate(350.732422 0)"/>
      </g>
     </g>
    </g>
    <g id="xtick_4">
     <g id="line2d_7">
      <path d="M 253.179537 206.44 
L 253.179537 30.48 
" clip-path="url(#p11f0a68281)" style="fill: none; stroke: #000000; stroke-opacity: 0.3; stroke-width: 0.5; stroke-linecap: square"/>
     </g>
     <g id="line2d_8">
      <g>
       <use xlink:href="#mfc2874c9c2" x="253.179537" y="206.44" style="stroke: #000000; stroke-width: 0.8"/>
      </g>
     </g>
     <g id="text_4">
      <!-- 2022-04 -->
      <g transform="translate(232.494381 220.930625) scale(0.1 -0.1)">
       <defs>
        <path id="IPAexGothic-34" d="M 3813 1159 
L 3059 1159 
L 3059 63 
L 2547 63 
L 2547 1159 
L 197 1159 
L 197 1672 
L 2456 4678 
L 3059 4678 
L 3059 1634 
L 3813 1634 
L 3813 1159 
z
M 2578 4109 
L 2559 4109 
Q 2278 3656 2003 3284 
L 759 1634 
L 2547 1634 
L 2547 3144 
Q 2547 3481 2578 4109 
z
" transform="scale(0.015625)"/>
       </defs>
       <use xlink:href="#IPAexGothic-32"/>
       <use xlink:href="#IPAexGothic-30" transform="translate(62.988281 0)"/>
       <use xlink:href="#IPAexGothic-32" transform="translate(125.976562 0)"/>
       <use xlink:href="#IPAexGothic-32" transform="translate(188.964844 0)"/>
       <use xlink:href="#IPAexGothic-2d" transform="translate(251.953125 0)"/>
       <use xlink:href="#IPAexGothic-30" transform="translate(287.744141 0)"/>
       <use xlink:href="#IPAexGothic-34" transform="translate(350.732422 0)"/>
      </g>
     </g>
    </g>
    <g id="xtick_5">
     <g id="line2d_9">
      <path d="M 313.23397 206.44 
L 313.23397 30.48 
" clip-path="url(#p11f0a68281)" style="fill: none; stroke: #000000; stroke-opacity: 0.3; stroke-width: 0.5; stroke-linecap: square"/>
     </g>
     <g id="line2d_10">
      <g>
       <use xlink:href="#mfc2874c9c2" x="313.23397" y="206.44" style="stroke: #000000; stroke-width: 0.8"/>
      </g>
     </g>
     <g id="text_5">
      <!-- 2022-05 -->
      <g transform="translate(292.548814 220.930625) scale(0.1 -0.1)">
       <defs>
        <path id="IPAexGothic-35" d="M 1178 2603 
Q 1634 2963 2172 2963 
Q 2816 2963 3241 2528 
Q 3638 2113 3638 1497 
Q 3638 938 3297 513 
Q 2869 -31 2031 -31 
Q 959 -31 469 784 
L 938 1028 
Q 1309 434 2013 434 
Q 2466 434 2769 716 
Q 3081 1013 3081 1503 
Q 3081 1966 2806 2241 
Q 2519 2528 2056 2528 
Q 1406 2528 1072 2028 
L 591 2091 
L 884 4634 
L 3406 4634 
L 3406 4153 
L 1341 4153 
L 1134 2603 
L 1178 2603 
z
" transform="scale(0.015625)"/>
       </defs>
       <use xlink:href="#IPAexGothic-32"/>
       <use xlink:href="#IPAexGothic-30" transform="translate(62.988281 0)"/>
       <use xlink:href="#IPAexGothic-32" transform="translate(125.976562 0)"/>
       <use xlink:href="#IPAexGothic-32" transform="translate(188.964844 0)"/>
       <use xlink:href="#IPAexGothic-2d" transform="translate(251.953125 0)"/>
       <use xlink:href="#IPAexGothic-30" transform="translate(287.744141 0)"/>
       <use xlink:href="#IPAexGothic-35" transform="translate(350.732422 0)"/>
      </g>
     </g>
    </g>
    <g id="xtick_6">
     <g id="line2d_11">
      <path d="M 375.290217 206.44 
L 375.290217 30.48 
" clip-path="url(#p11f0a68281)" style="fill: none; stroke: #000000; stroke-opacity: 0.3; stroke-width: 0.5; stroke-linecap: square"/>
     </g>
     <g id="line2d_12">
      <g>
       <use xlink:href="#mfc2874c9c2" x="375.290217" y="206.44" style="stroke: #000000; stroke-width: 0.8"/>
      </g>
     </g>
     <g id="text_6">
      <!-- 2022-06 -->
      <g transform="translate(354.605061 220.930625) scale(0.1 -0.1)">
       <defs>
        <path id="IPAexGothic-36" d="M 1056 2328 
Q 1509 2981 2234 2981 
Q 2906 2981 3316 2513 
Q 3675 2106 3675 1522 
Q 3675 884 3272 434 
Q 2853 -31 2178 -31 
Q 1375 -31 922 581 
Q 481 1178 481 2228 
Q 481 3425 1013 4109 
Q 1494 4725 2272 4725 
Q 3191 4725 3609 4025 
L 3150 3775 
Q 2894 4266 2300 4266 
Q 1119 4266 1031 2328 
L 1056 2328 
z
M 2141 2547 
Q 1684 2547 1384 2206 
Q 1116 1900 1116 1541 
Q 1116 1156 1353 844 
Q 1672 428 2159 428 
Q 2669 428 2941 844 
Q 3125 1128 3125 1503 
Q 3125 1944 2881 2228 
Q 2600 2547 2141 2547 
z
" transform="scale(0.015625)"/>
       </defs>
       <use xlink:href="#IPAexGothic-32"/>
       <use xlink:href="#IPAexGothic-30" transform="translate(62.988281 0)"/>
       <use xlink:href="#IPAexGothic-32" transform="translate(125.976562 0)"/>
       <use xlink:href="#IPAexGothic-32" transform="translate(188.964844 0)"/>
       <use xlink:href="#IPAexGothic-2d" transform="translate(251.953125 0)"/>
       <use xlink:href="#IPAexGothic-30" transform="translate(287.744141 0)"/>
       <use xlink:href="#IPAexGothic-36" transform="translate(350.732422 0)"/>
      </g>
     </g>
    </g>
    <g id="xtick_7">
     <g id="line2d_13">
      <path d="M 435.34465 206.44 
L 435.34465 30.48 
" clip-path="url(#p11f0a68281)" style="fill: none; stroke: #000000; stroke-opacity: 0.3; stroke-width: 0.5; stroke-linecap: square"/>
     </g>
     <g id="line2d_14">
      <g>
       <use xlink:href="#mfc2874c9c2" x="435.34465" y="206.44" style="stroke: #000000; stroke-width: 0.8"/>
      </g>
     </g>
     <g id="text_7">
      <!-- 2022-07 -->
      <g transform="translate(414.659494 220.930625) scale(0.1 -0.1)">
       <defs>
        <path id="IPAexGothic-37" d="M 3597 4263 
Q 2238 2106 1778 63 
L 1131 63 
Q 1581 1834 2950 4128 
L 428 4128 
L 428 4634 
L 3597 4634 
L 3597 4263 
z
" transform="scale(0.015625)"/>
       </defs>
       <use xlink:href="#IPAexGothic-32"/>
       <use xlink:href="#IPAexGothic-30" transform="translate(62.988281 0)"/>
       <use xlink:href="#IPAexGothic-32" transform="translate(125.976562 0)"/>
       <use xlink:href="#IPAexGothic-32" transform="translate(188.964844 0)"/>
       <use xlink:href="#IPAexGothic-2d" transform="translate(251.953125 0)"/>
       <use xlink:href="#IPAexGothic-30" transform="translate(287.744141 0)"/>
       <use xlink:href="#IPAexGothic-37" transform="translate(350.732422 0)"/>
      </g>
     </g>
    </g>
    <g id="text_8">
     <!-- 日付 -->
     <g transform="translate(237.77863 237.617125) scale(0.144 -0.144)">
      <defs>
       <path id="IPAexGothic-65e5" d="M 5231 4800 
L 5231 -288 
L 4744 -288 
L 4744 128 
L 1647 128 
L 1647 -288 
L 1159 -288 
L 1159 4800 
L 5231 4800 
z
M 1647 4372 
L 1647 2731 
L 4744 2731 
L 4744 4372 
L 1647 4372 
z
M 1647 2297 
L 1647 556 
L 4744 556 
L 4744 2297 
L 1647 2297 
z
" transform="scale(0.015625)"/>
       <path id="IPAexGothic-4ed8" d="M 1681 3769 
L 1681 -447 
L 1213 -447 
L 1213 2822 
Q 913 2313 578 1863 
L 316 2253 
Q 1241 3463 1653 5184 
L 2128 5069 
Q 1928 4378 1719 3859 
L 1681 3769 
z
M 5084 3816 
L 5991 3816 
L 5991 3388 
L 5109 3388 
L 5109 213 
Q 5109 -78 5006 -191 
Q 4888 -319 4525 -319 
Q 4031 -319 3513 -266 
L 3431 238 
Q 3978 141 4403 141 
Q 4634 141 4634 384 
L 4634 3388 
L 2028 3388 
L 2028 3816 
L 4609 3816 
L 4609 5153 
L 5084 5153 
L 5084 3816 
z
M 3431 1172 
Q 3034 1994 2547 2566 
L 2931 2822 
Q 3428 2231 3853 1472 
L 3431 1172 
z
" transform="scale(0.015625)"/>
      </defs>
      <use xlink:href="#IPAexGothic-65e5"/>
      <use xlink:href="#IPAexGothic-4ed8" transform="translate(100 0)"/>
     </g>
    </g>
   </g>
   <g id="matplotlib.axis_2">
    <g id="ytick_1">
     <g id="line2d_15">
      <path d="M 55.1 199.493572 
L 449.25726 199.493572 
" clip-path="url(#p11f0a68281)" style="fill: none; stroke: #000000; stroke-opacity: 0.3; stroke-width: 0.5; stroke-linecap: square"/>
     </g>
     <g id="line2d_16">
      <defs>
       <path id="mb4a69a583d" d="M 0 0 
L -3.5 0 
" style="stroke: #000000; stroke-width: 0.8"/>
      </defs>
      <g>
       <use xlink:href="#mb4a69a583d" x="55.1" y="199.493572" style="stroke: #000000; stroke-width: 0.8"/>
      </g>
     </g>
     <g id="text_9">
      <!-- 80 -->
      <g transform="translate(35.503125 203.238885) scale(0.1 -0.1)">
       <defs>
        <path id="IPAexGothic-38" d="M 2541 2425 
Q 3700 2031 3700 1197 
Q 3700 541 3100 197 
Q 2663 -56 2016 -56 
Q 1366 -56 928 197 
Q 347 531 347 1178 
Q 347 1988 1409 2381 
L 1409 2400 
Q 481 2734 481 3509 
Q 481 4100 981 4456 
Q 1406 4756 2019 4756 
Q 2703 4756 3131 4403 
Q 3553 4069 3553 3566 
Q 3553 2706 2541 2444 
L 2541 2425 
z
M 2022 2625 
Q 2997 2856 2997 3528 
Q 2997 3916 2675 4150 
Q 2413 4347 2016 4347 
Q 1606 4347 1331 4128 
Q 1050 3897 1050 3522 
Q 1050 3150 1350 2925 
Q 1494 2809 1722 2722 
Q 1984 2616 2022 2625 
z
M 1978 2209 
Q 922 1931 922 1216 
Q 922 775 1313 556 
Q 1606 391 2009 391 
Q 2575 391 2881 697 
Q 3106 922 3106 1250 
Q 3106 1594 2794 1850 
Q 2609 1994 2350 2100 
Q 2047 2222 1978 2209 
z
" transform="scale(0.015625)"/>
       </defs>
       <use xlink:href="#IPAexGothic-38"/>
       <use xlink:href="#IPAexGothic-30" transform="translate(62.988281 0)"/>
      </g>
     </g>
    </g>
    <g id="ytick_2">
     <g id="line2d_17">
      <path d="M 55.1 164.707468 
L 449.25726 164.707468 
" clip-path="url(#p11f0a68281)" style="fill: none; stroke: #000000; stroke-opacity: 0.3; stroke-width: 0.5; stroke-linecap: square"/>
     </g>
     <g id="line2d_18">
      <g>
       <use xlink:href="#mb4a69a583d" x="55.1" y="164.707468" style="stroke: #000000; stroke-width: 0.8"/>
      </g>
     </g>
     <g id="text_10">
      <!-- 90 -->
      <g transform="translate(35.503125 168.452781) scale(0.1 -0.1)">
       <defs>
        <path id="IPAexGothic-39" d="M 2984 2356 
Q 2544 1716 1813 1716 
Q 1253 1716 847 2056 
Q 366 2459 366 3163 
Q 366 3813 769 4266 
Q 1181 4725 1869 4725 
Q 2800 4725 3241 3950 
Q 3559 3378 3559 2472 
Q 3559 1250 3041 588 
Q 2553 -31 1769 -31 
Q 859 -31 391 703 
L 853 953 
Q 1156 428 1753 428 
Q 2922 428 3009 2356 
L 2984 2356 
z
M 1888 4278 
Q 1450 4278 1172 3950 
Q 922 3653 922 3200 
Q 922 2741 1159 2478 
Q 1434 2163 1906 2163 
Q 2431 2163 2728 2572 
Q 2925 2847 2925 3169 
Q 2925 3553 2694 3863 
Q 2375 4278 1888 4278 
z
" transform="scale(0.015625)"/>
       </defs>
       <use xlink:href="#IPAexGothic-39"/>
       <use xlink:href="#IPAexGothic-30" transform="translate(62.988281 0)"/>
      </g>
     </g>
    </g>
    <g id="ytick_3">
     <g id="line2d_19">
      <path d="M 55.1 129.921365 
L 449.25726 129.921365 
" clip-path="url(#p11f0a68281)" style="fill: none; stroke: #000000; stroke-opacity: 0.3; stroke-width: 0.5; stroke-linecap: square"/>
     </g>
     <g id="line2d_20">
      <g>
       <use xlink:href="#mb4a69a583d" x="55.1" y="129.921365" style="stroke: #000000; stroke-width: 0.8"/>
      </g>
     </g>
     <g id="text_11">
      <!-- 100 -->
      <g transform="translate(29.204688 133.666677) scale(0.1 -0.1)">
       <use xlink:href="#IPAexGothic-31"/>
       <use xlink:href="#IPAexGothic-30" transform="translate(62.988281 0)"/>
       <use xlink:href="#IPAexGothic-30" transform="translate(125.976562 0)"/>
      </g>
     </g>
    </g>
    <g id="ytick_4">
     <g id="line2d_21">
      <path d="M 55.1 95.135261 
L 449.25726 95.135261 
" clip-path="url(#p11f0a68281)" style="fill: none; stroke: #000000; stroke-opacity: 0.3; stroke-width: 0.5; stroke-linecap: square"/>
     </g>
     <g id="line2d_22">
      <g>
       <use xlink:href="#mb4a69a583d" x="55.1" y="95.135261" style="stroke: #000000; stroke-width: 0.8"/>
      </g>
     </g>
     <g id="text_12">
      <!-- 110 -->
      <g transform="translate(29.204688 98.880573) scale(0.1 -0.1)">
       <use xlink:href="#IPAexGothic-31"/>
       <use xlink:href="#IPAexGothic-31" transform="translate(62.988281 0)"/>
       <use xlink:href="#IPAexGothic-30" transform="translate(125.976562 0)"/>
      </g>
     </g>
    </g>
    <g id="ytick_5">
     <g id="line2d_23">
      <path d="M 55.1 60.349157 
L 449.25726 60.349157 
" clip-path="url(#p11f0a68281)" style="fill: none; stroke: #000000; stroke-opacity: 0.3; stroke-width: 0.5; stroke-linecap: square"/>
     </g>
     <g id="line2d_24">
      <g>
       <use xlink:href="#mb4a69a583d" x="55.1" y="60.349157" style="stroke: #000000; stroke-width: 0.8"/>
      </g>
     </g>
     <g id="text_13">
      <!-- 120 -->
      <g transform="translate(29.204688 64.09447) scale(0.1 -0.1)">
       <use xlink:href="#IPAexGothic-31"/>
       <use xlink:href="#IPAexGothic-32" transform="translate(62.988281 0)"/>
       <use xlink:href="#IPAexGothic-30" transform="translate(125.976562 0)"/>
      </g>
     </g>
    </g>
    <g id="text_14">
     <!-- 値 -->
     <g transform="translate(22.468688 125.66) rotate(-90) scale(0.144 -0.144)">
      <defs>
       <path id="IPAexGothic-5024" d="M 4172 3675 
L 5453 3675 
L 5453 684 
L 3019 684 
L 3019 3675 
L 3750 3675 
Q 3788 3884 3825 4153 
L 2141 4153 
L 2141 4544 
L 3884 4544 
Q 3922 4844 3966 5325 
L 4434 5272 
L 4388 4953 
Q 4331 4578 4331 4544 
L 5863 4544 
L 5863 4153 
L 4269 4153 
Q 4200 3781 4172 3675 
z
M 5038 3316 
L 3434 3316 
L 3434 2803 
L 5038 2803 
L 5038 3316 
z
M 3434 2450 
L 3434 1941 
L 5038 1941 
L 5038 2450 
L 3434 2450 
z
M 3434 1588 
L 3434 1044 
L 5038 1044 
L 5038 1588 
L 3434 1588 
z
M 1509 3669 
L 1509 -447 
L 1069 -447 
L 1069 2725 
Q 856 2338 531 1875 
L 288 2266 
Q 1163 3531 1541 5325 
L 1975 5222 
Q 1791 4378 1509 3669 
z
M 2488 244 
L 6031 244 
L 6031 -153 
L 2488 -153 
L 2488 -447 
L 2059 -447 
L 2059 3213 
L 2488 3213 
L 2488 244 
z
" transform="scale(0.015625)"/>
      </defs>
      <use xlink:href="#IPAexGothic-5024"/>
     </g>
    </g>
   </g>
   <g id="line2d_25">
    <path d="M 73.016239 122.259639 
L 75.018054 116.817326 
L 77.019868 113.231307 
L 79.021682 110.546596 
L 81.023497 110.019112 
L 83.025311 95.00559 
L 85.027126 102.477108 
L 87.02894 107.846597 
L 89.030754 111.018897 
L 91.032569 119.532572 
L 93.034383 145.761445 
L 95.036198 134.234413 
L 97.038012 164.469336 
L 99.039827 145.126098 
L 101.041641 158.896202 
L 103.043455 167.990195 
L 105.04527 153.661392 
L 107.047084 157.919298 
L 109.048899 145.561234 
L 111.050713 139.924859 
L 113.052528 122.292554 
L 115.054342 111.787317 
L 117.056156 115.78713 
L 119.057971 106.040056 
L 121.059785 94.449908 
L 123.0616 96.596348 
L 125.063414 112.734467 
L 127.065229 87.682669 
L 129.067043 124.606404 
L 131.068857 133.65362 
L 133.070672 138.79956 
L 135.072486 136.741067 
L 137.074301 137.872868 
L 139.076115 159.701748 
L 141.077929 165.725727 
L 143.079744 163.497597 
L 145.081558 165.557239 
L 147.083373 157.490881 
L 149.085187 158.299156 
L 151.087002 137.621808 
L 153.088816 127.190103 
L 155.09063 136.115604 
L 157.092445 110.241472 
L 159.094259 100.645374 
L 161.096074 92.933249 
L 163.097888 100.812977 
L 165.099703 106.077241 
L 167.101517 108.393282 
L 169.103331 105.661764 
L 171.105146 125.098275 
L 173.10696 135.237682 
L 175.108775 132.713432 
L 177.110589 155.837595 
L 179.112404 164.315899 
L 181.114218 163.639675 
L 183.116032 163.325691 
L 185.117847 155.785897 
L 187.119661 164.18159 
L 189.121476 161.278121 
L 191.12329 141.523098 
L 193.125105 38.478182 
L 195.126919 129.479175 
L 197.128733 112.864602 
L 199.130548 99.648544 
L 201.132362 95.230527 
L 203.134177 94.555314 
L 205.135991 98.625051 
L 209.13962 115.931867 
L 211.141434 111.127496 
L 213.143249 137.694039 
L 215.145063 132.127394 
L 217.146878 159.517275 
L 219.148692 137.863054 
L 221.150506 175.097337 
L 223.152321 153.546178 
L 225.154135 169.246044 
L 227.15595 158.868276 
L 229.157764 150.824187 
L 231.159579 145.208519 
L 233.161393 114.417945 
L 235.163207 118.51152 
L 237.165022 118.665607 
L 239.166836 97.280553 
L 241.168651 91.881478 
L 243.170465 103.118554 
L 245.17228 93.111436 
L 247.174094 101.299075 
L 249.175908 103.76735 
L 251.177723 114.216966 
L 253.179537 129.9801 
L 255.181352 143.511376 
L 257.183166 144.03446 
L 259.18498 155.884918 
L 261.186795 173.366147 
L 263.188609 168.498243 
L 265.190424 166.367426 
L 267.192238 159.88778 
L 269.194053 134.475799 
L 271.195867 143.295733 
L 273.197681 126.600428 
L 275.199496 107.655348 
L 277.20131 105.970577 
L 279.203125 98.774148 
L 281.204939 87.807629 
L 283.206754 93.762527 
L 285.208568 95.543893 
L 287.210382 96.987109 
L 289.212197 106.607696 
L 291.214011 123.905265 
L 293.215826 138.032724 
L 295.21764 141.459619 
L 297.219455 140.641845 
L 299.221269 159.639138 
L 301.223083 155.015038 
L 303.224898 161.836928 
L 305.226712 165.15398 
L 307.228527 176.385023 
L 309.230341 148.82269 
L 311.232156 142.59763 
L 313.23397 141.05653 
L 315.235784 115.592344 
L 317.237599 109.651476 
L 319.239413 99.169488 
L 321.241228 101.042869 
L 323.243042 93.729745 
L 325.244856 100.130193 
L 327.246671 94.369746 
L 329.248485 108.609645 
L 331.2503 128.929538 
L 333.252114 128.430321 
L 337.255743 151.783531 
L 339.257557 167.453812 
L 341.259372 155.633477 
L 343.261186 169.79735 
L 345.263001 151.994171 
L 347.264815 162.65529 
L 349.26663 150.142175 
L 351.268444 140.982635 
L 353.270258 198.441818 
L 355.272073 100.781046 
L 357.273887 112.941304 
L 359.275702 87.381144 
L 361.277516 92.500277 
L 363.279331 99.970582 
L 365.281145 88.102603 
L 367.282959 95.929014 
L 369.284774 102.834378 
L 371.286588 128.452691 
L 373.288403 126.423193 
L 375.290217 143.471254 
L 379.293846 158.978498 
L 381.29566 162.721977 
L 383.297475 153.642402 
L 385.299289 160.372023 
L 387.301104 170.898323 
L 389.302918 141.693389 
L 391.304732 140.061109 
L 393.306547 129.0063 
L 395.308361 131.880344 
L 397.310176 106.693434 
L 399.31199 105.250228 
L 401.313805 90.189355 
L 403.315619 91.96118 
L 405.317433 91.079188 
L 407.319248 104.374219 
L 409.321062 122.201789 
L 411.322877 112.431763 
L 413.324691 126.996897 
L 415.326506 142.971057 
L 417.32832 154.243743 
L 419.330134 164.225307 
L 421.331949 175.267271 
L 423.333763 172.897534 
L 425.335578 163.492702 
L 427.337392 146.866517 
L 429.339207 147.215353 
L 431.341021 129.506062 
L 431.341021 129.506062 
" clip-path="url(#p11f0a68281)" style="fill: none; stroke: #2563eb; stroke-width: 1.2; stroke-linecap: square"/>
   </g>
   <g id="text_15">
    <!-- Zスコアによる異常検知 -->
    <g transform="translate(160.23148 24.48) scale(0.1728 -0.1728)">
     <defs>
      <path id="IPAexGothic-5a" d="M 3881 63 
L 213 63 
L 213 472 
L 2406 3366 
Q 2572 3591 3022 4122 
L 3022 4141 
L 403 4141 
L 403 4634 
L 3713 4634 
L 3713 4178 
L 1544 1306 
Q 1184 834 969 588 
L 969 563 
L 3881 563 
L 3881 63 
z
" transform="scale(0.015625)"/>
      <path id="IPAexGothic-30b9" d="M 4359 4481 
L 4716 4147 
Q 4328 3072 3647 2150 
Q 4659 1434 5659 453 
L 5234 19 
Q 4256 1088 3353 1778 
Q 2372 597 1044 -31 
L 653 403 
Q 3128 1453 4097 4000 
L 1241 3963 
L 1228 4453 
L 4359 4481 
z
" transform="scale(0.015625)"/>
      <path id="IPAexGothic-30b3" d="M 1134 4213 
L 5166 4213 
L 5166 153 
L 4653 153 
L 4653 594 
L 1063 594 
L 1063 1088 
L 4653 1088 
L 4653 3725 
L 1134 3725 
L 1134 4213 
z
" transform="scale(0.015625)"/>
      <path id="IPAexGothic-30a2" d="M 5388 4556 
L 5747 4200 
Q 5081 3022 4019 2191 
L 3647 2547 
Q 4519 3178 5081 4091 
L 850 4013 
L 850 4500 
L 5388 4556 
z
M 1216 256 
Q 2319 813 2616 1691 
Q 2797 2200 2797 3628 
L 3313 3628 
Q 3303 1981 3059 1356 
Q 2697 431 1594 -153 
L 1216 256 
z
" transform="scale(0.015625)"/>
      <path id="IPAexGothic-306b" d="M 1088 -38 
Q 922 1003 922 2081 
Q 922 3222 1331 4794 
L 1813 4684 
Q 1391 3113 1391 2003 
Q 1391 1441 1422 1147 
Q 1434 1181 1813 2016 
L 2125 1797 
Q 1800 1081 1691 763 
Q 1581 453 1581 269 
Q 1581 78 1588 6 
L 1088 -38 
z
M 2834 4038 
Q 3969 4213 5313 4172 
L 5338 3681 
Q 3959 3728 2869 3547 
L 2834 4038 
z
M 5650 256 
Q 5044 172 4372 172 
Q 3463 172 3047 434 
Q 2784 594 2675 841 
Q 2572 1075 2572 1447 
Q 2572 1563 2578 1656 
L 3053 1684 
Q 3050 1613 3044 1528 
Q 3041 1481 3041 1466 
Q 3041 1200 3119 1053 
Q 3178 944 3309 850 
Q 3569 678 4275 678 
Q 4891 678 5588 763 
L 5650 256 
z
" transform="scale(0.015625)"/>
      <path id="IPAexGothic-3088" d="M 2784 5019 
L 3272 5019 
Q 3247 4378 3272 3647 
Q 4184 3719 4850 3903 
L 4997 3431 
Q 4369 3291 3272 3200 
Q 3288 2366 3378 1550 
Q 4134 1353 5344 647 
L 5031 213 
Q 4244 759 3406 1044 
L 3413 891 
Q 3434 359 3122 84 
Q 2863 -141 2272 -141 
Q 1641 -141 1272 116 
Q 934 350 934 738 
Q 934 1294 1500 1534 
Q 1841 1678 2278 1678 
Q 2581 1678 2906 1631 
Q 2813 2559 2784 5019 
z
M 2931 1178 
Q 2613 1244 2369 1244 
Q 1422 1244 1422 794 
Q 1422 300 2278 300 
Q 2956 300 2938 934 
L 2931 1178 
z
" transform="scale(0.015625)"/>
      <path id="IPAexGothic-308b" d="M 4391 4397 
L 2613 2588 
Q 3225 2809 3759 2809 
Q 4263 2809 4659 2625 
Q 5391 2269 5391 1484 
Q 5391 756 4706 275 
Q 4072 -166 3053 -166 
Q 2559 -166 2247 19 
Q 1863 250 1863 666 
Q 1863 934 2069 1141 
Q 2331 1403 2741 1403 
Q 3509 1403 4019 428 
Q 4872 784 4872 1491 
Q 4872 1981 4469 2222 
Q 4166 2406 3681 2406 
Q 2425 2406 1238 1209 
L 891 1581 
Q 2438 2934 3578 4281 
Q 2594 4125 1588 4066 
L 1478 4550 
Q 2594 4581 4109 4763 
L 4391 4397 
z
M 3591 303 
Q 3244 1025 2731 1025 
Q 2553 1025 2434 934 
Q 2316 844 2316 700 
Q 2316 250 3034 250 
Q 3275 250 3591 303 
z
" transform="scale(0.015625)"/>
      <path id="IPAexGothic-7570" d="M 4369 2828 
L 4369 2216 
L 5616 2216 
L 5616 1844 
L 4369 1844 
L 4369 1247 
L 6078 1247 
L 6078 863 
L 313 863 
L 313 1247 
L 1975 1247 
L 1975 1844 
L 772 1844 
L 772 2216 
L 1975 2216 
L 1975 2828 
L 1094 2828 
L 1094 5025 
L 5297 5025 
L 5297 2828 
L 4369 2828 
z
M 3922 2828 
L 2428 2828 
L 2428 2216 
L 3922 2216 
L 3922 2828 
z
M 3922 1844 
L 2428 1844 
L 2428 1247 
L 3922 1247 
L 3922 1844 
z
M 1534 4659 
L 1534 4109 
L 2959 4109 
L 2959 4659 
L 1534 4659 
z
M 1534 3756 
L 1534 3181 
L 2959 3181 
L 2959 3756 
L 1534 3756 
z
M 4856 3181 
L 4856 3756 
L 3391 3756 
L 3391 3181 
L 4856 3181 
z
M 4856 4109 
L 4856 4659 
L 3391 4659 
L 3391 4109 
L 4856 4109 
z
M 394 -97 
Q 1472 225 2225 750 
L 2641 488 
Q 1778 -116 741 -506 
L 394 -97 
z
M 5456 -397 
Q 4619 75 3588 488 
L 3978 769 
Q 4909 475 5859 13 
L 5456 -397 
z
" transform="scale(0.015625)"/>
      <path id="IPAexGothic-5e38" d="M 2944 1697 
L 2944 2150 
L 1534 2150 
L 1534 3475 
L 4856 3475 
L 4856 2150 
L 3413 2150 
L 3413 1697 
L 5459 1697 
L 5459 359 
Q 5459 -122 4888 -122 
Q 4506 -122 4184 -84 
L 4109 384 
Q 4428 319 4772 319 
Q 5006 319 5006 550 
L 5006 1313 
L 3413 1313 
L 3413 -453 
L 2944 -453 
L 2944 1313 
L 1413 1313 
L 1413 -197 
L 959 -197 
L 959 1697 
L 2944 1697 
z
M 1991 2522 
L 4403 2522 
L 4403 3097 
L 1991 3097 
L 1991 2522 
z
M 1784 4238 
Q 1550 4672 1328 4947 
L 1741 5172 
Q 2038 4825 2259 4409 
L 1963 4238 
L 2944 4238 
L 2944 5313 
L 3413 5313 
L 3413 4238 
L 3988 4238 
Q 4306 4725 4481 5184 
L 4953 4994 
Q 4747 4566 4506 4238 
L 5803 4238 
L 5803 3009 
L 5350 3009 
L 5350 3853 
L 1034 3853 
L 1034 3009 
L 581 3009 
L 581 4238 
L 1784 4238 
z
" transform="scale(0.015625)"/>
      <path id="IPAexGothic-691c" d="M 4125 1119 
Q 3803 -72 2459 -481 
L 2178 -106 
Q 3588 250 3828 1438 
L 2997 1438 
L 2997 1113 
L 2581 1113 
L 2581 2869 
L 3850 2869 
L 3850 3353 
L 3188 3353 
L 3188 3566 
Q 2788 3166 2375 2888 
L 2094 3238 
Q 3263 3956 3753 5241 
L 4225 5241 
Q 4891 4109 6125 3403 
L 5816 3028 
Q 5425 3288 5013 3647 
L 5013 3353 
L 4266 3353 
L 4266 2869 
L 5575 2869 
L 5575 1150 
L 5159 1150 
L 5159 1438 
L 4359 1438 
Q 4781 466 6016 16 
L 5681 -394 
Q 4497 197 4125 1119 
z
M 3856 2516 
L 2997 2516 
L 2997 1784 
L 3856 1784 
L 3856 2516 
z
M 4259 2516 
L 4259 1784 
L 5159 1784 
L 5159 2516 
L 4259 2516 
z
M 3334 3725 
L 4928 3725 
Q 4363 4263 4016 4831 
Q 3759 4225 3334 3725 
z
M 1200 2594 
Q 928 1569 450 794 
L 188 1256 
Q 850 2238 1147 3547 
L 322 3547 
L 322 3956 
L 1200 3956 
L 1200 5306 
L 1622 5306 
L 1622 3956 
L 2325 3956 
L 2325 3547 
L 1622 3547 
L 1622 2900 
Q 2088 2484 2394 2119 
L 2141 1666 
Q 1897 2078 1622 2400 
L 1622 -447 
L 1200 -447 
L 1200 2594 
z
" transform="scale(0.015625)"/>
      <path id="IPAexGothic-77e5" d="M 2219 3988 
L 2219 2778 
L 3372 2778 
L 3372 2375 
L 2213 2375 
Q 2203 2078 2163 1813 
L 2194 1788 
Q 2884 1163 3403 531 
L 3075 116 
Q 2625 738 2066 1319 
Q 1766 159 753 -478 
L 428 -109 
Q 1231 359 1528 1147 
Q 1713 1634 1759 2375 
L 409 2375 
L 409 2778 
L 1766 2778 
L 1766 3988 
L 1344 3988 
Q 1106 3409 806 3003 
L 466 3316 
Q 1016 4103 1234 5281 
L 1688 5216 
Q 1591 4731 1484 4391 
L 3219 4391 
L 3219 3988 
L 2219 3988 
z
M 5791 4469 
L 5791 -194 
L 5338 -194 
L 5338 197 
L 3981 197 
L 3981 -272 
L 3528 -272 
L 3528 4469 
L 5791 4469 
z
M 3981 4053 
L 3981 613 
L 5338 613 
L 5338 4053 
L 3981 4053 
z
" transform="scale(0.015625)"/>
     </defs>
     <use xlink:href="#IPAexGothic-5a"/>
     <use xlink:href="#IPAexGothic-30b9" transform="translate(64.208984 0)"/>
     <use xlink:href="#IPAexGothic-30b3" transform="translate(164.208984 0)"/>
     <use xlink:href="#IPAexGothic-30a2" transform="translate(264.208984 0)"/>
     <use xlink:href="#IPAexGothic-306b" transform="translate(364.208984 0)"/>
     <use xlink:href="#IPAexGothic-3088" transform="translate(464.208984 0)"/>
     <use xlink:href="#IPAexGothic-308b" transform="translate(564.208984 0)"/>
     <use xlink:href="#IPAexGothic-7570" transform="translate(664.208984 0)"/>
     <use xlink:href="#IPAexGothic-5e38" transform="translate(764.208984 0)"/>
     <use xlink:href="#IPAexGothic-691c" transform="translate(864.208984 0)"/>
     <use xlink:href="#IPAexGothic-77e5" transform="translate(964.208984 0)"/>
    </g>
   </g>
   <g id="legend_1">
    <g id="patch_3">
     <path d="M 360.45726 85.4175 
L 434.85726 85.4175 
Q 437.25726 85.4175 437.25726 83.0175 
L 437.25726 44.88 
Q 437.25726 42.48 434.85726 42.48 
L 360.45726 42.48 
Q 358.05726 42.48 358.05726 44.88 
L 358.05726 83.0175 
Q 358.05726 85.4175 360.45726 85.4175 
z
" style="fill: #ffffff; opacity: 0.8; stroke: #cccccc; stroke-linejoin: miter"/>
    </g>
    <g id="line2d_26">
     <path d="M 362.85726 52.06875 
L 374.85726 52.06875 
L 386.85726 52.06875 
" style="fill: none; stroke: #2563eb; stroke-width: 1.2; stroke-linecap: square"/>
    </g>
    <g id="text_16">
     <!-- 系列 -->
     <g transform="translate(396.45726 56.26875) scale(0.12 -0.12)">
      <defs>
       <path id="IPAexGothic-7cfb" d="M 3016 2547 
Q 3747 3259 4341 4013 
L 4769 3744 
Q 3978 2831 3259 2194 
Q 3303 2203 3406 2203 
Q 3681 2209 4988 2272 
Q 4756 2522 4469 2791 
L 4794 3041 
Q 5478 2466 6013 1813 
L 5628 1491 
Q 5484 1688 5275 1941 
Q 5238 1938 5116 1925 
Q 5022 1916 4963 1913 
L 4188 1863 
Q 3803 1838 3419 1806 
L 3419 -447 
L 2944 -447 
L 2944 1778 
L 2609 1759 
Q 1972 1728 684 1697 
L 513 2150 
Q 1878 2150 2553 2175 
L 2625 2175 
L 2694 2241 
Q 2084 2869 1222 3519 
L 1569 3847 
Q 2047 3456 2119 3391 
Q 2497 3819 2791 4325 
L 2675 4319 
Q 1919 4250 856 4197 
L 678 4616 
Q 3319 4750 5000 5094 
L 5397 4684 
Q 4234 4475 2963 4347 
L 3303 4197 
Q 2797 3484 2431 3109 
Q 2788 2778 3016 2547 
z
M 525 31 
Q 1366 641 1869 1403 
L 2291 1191 
Q 1731 313 934 -313 
L 525 31 
z
M 5544 -141 
Q 4738 722 4038 1241 
L 4409 1516 
Q 5225 956 5972 213 
L 5544 -141 
z
" transform="scale(0.015625)"/>
       <path id="IPAexGothic-5217" d="M 2334 1600 
Q 1944 1966 1306 2378 
Q 1038 1938 709 1541 
L 434 1906 
Q 1325 2934 1663 4550 
L 606 4550 
L 606 4953 
L 3781 4953 
L 3781 4550 
L 2097 4550 
Q 2091 4531 2078 4466 
Q 2000 4100 1900 3781 
L 3141 3781 
L 3409 3575 
Q 3156 2138 2656 1247 
Q 2097 269 1003 -500 
L 684 -128 
Q 1769 563 2334 1600 
z
M 2534 2009 
Q 2794 2656 2919 3384 
L 1766 3384 
Q 1638 3034 1478 2706 
Q 2181 2294 2534 2009 
z
M 3956 4416 
L 4409 4416 
L 4409 966 
L 3956 966 
L 3956 4416 
z
M 5306 5056 
L 5759 5056 
L 5759 197 
Q 5759 -138 5569 -263 
Q 5419 -353 5094 -353 
Q 4547 -353 3963 -294 
L 3878 191 
Q 4600 116 5038 116 
Q 5306 116 5306 359 
L 5306 5056 
z
" transform="scale(0.015625)"/>
      </defs>
      <use xlink:href="#IPAexGothic-7cfb"/>
      <use xlink:href="#IPAexGothic-5217" transform="translate(100 0)"/>
     </g>
    </g>
    <g id="PathCollection_2">
     <defs>
      <path id="m2f15ffed96" d="M 0 7.745967 
C 2.054254 7.745967 4.024648 6.929803 5.477226 5.477226 
C 6.929803 4.024648 7.745967 2.054254 7.745967 0 
C 7.745967 -2.054254 6.929803 -4.024648 5.477226 -5.477226 
C 4.024648 -6.929803 2.054254 -7.745967 0 -7.745967 
C -2.054254 -7.745967 -4.024648 -6.929803 -5.477226 -5.477226 
C -6.929803 -4.024648 -7.745967 -2.054254 -7.745967 0 
C -7.745967 2.054254 -6.929803 4.024648 -5.477226 5.477226 
C -4.024648 6.929803 -2.054254 7.745967 0 7.745967 
z
" style="stroke: #ef4444"/>
     </defs>
     <g>
      <use xlink:href="#m2f15ffed96" x="374.85726" y="75.1875" style="fill: #ef4444; stroke: #ef4444"/>
     </g>
    </g>
    <g id="text_17">
     <!-- 異常値 -->
     <g transform="translate(396.45726 78.3375) scale(0.12 -0.12)">
      <use xlink:href="#IPAexGothic-7570"/>
      <use xlink:href="#IPAexGothic-5e38" transform="translate(100 0)"/>
      <use xlink:href="#IPAexGothic-5024" transform="translate(200 0)"/>
     </g>
    </g>
   </g>
  </g>
 </g>
 <defs>
  <clipPath id="p11f0a68281">
   <rect x="55.1" y="30.48" width="394.15726" height="175.96"/>
  </clipPath>
 </defs>
</svg>
