<?xml version="1.0" encoding="utf-8" standalone="no"?>
<!DOCTYPE svg PUBLIC "-//W3C//DTD SVG 1.1//EN"
  "http://www.w3.org/Graphics/SVG/1.1/DTD/svg11.dtd">
<svg xmlns:xlink="http://www.w3.org/1999/xlink" width="504pt" height="288pt" viewBox="0 0 504 288" xmlns="http://www.w3.org/2000/svg" version="1.1">
 <metadata>
  <rdf:RDF xmlns:dc="http://purl.org/dc/elements/1.1/" xmlns:cc="http://creativecommons.org/ns#" xmlns:rdf="http://www.w3.org/1999/02/22-rdf-syntax-ns#">
   <cc:Work>
    <dc:type rdf:resource="http://purl.org/dc/dcmitype/StillImage"/>
    <dc:date>2025-10-27T10:38:05.681086</dc:date>
    <dc:format>image/svg+xml</dc:format>
    <dc:creator>
     <cc:Agent>
      <dc:title>Matplotlib v3.10.7, https://matplotlib.org/</dc:title>
     </cc:Agent>
    </dc:creator>
   </cc:Work>
  </rdf:RDF>
 </metadata>
 <defs>
  <style type="text/css">*{stroke-linejoin: round; stroke-linecap: butt}</style>
 </defs>
 <g id="figure_1">
  <g id="patch_1">
   <path d="M 0 288 
L 504 288 
L 504 0 
L 0 0 
z
" style="fill: #ffffff"/>
  </g>
  <g id="axes_1">
   <g id="patch_2">
    <path d="M 49.25 242.44 
L 493.2 242.44 
L 493.2 30.48 
L 49.25 30.48 
z
" style="fill: #ffffff"/>
   </g>
   <g id="matplotlib.axis_1">
    <g id="xtick_1">
     <g id="line2d_1">
      <path d="M 69.429545 242.44 
L 69.429545 30.48 
" clip-path="url(#pdb21c81f16)" style="fill: none; stroke: #000000; stroke-opacity: 0.3; stroke-width: 0.5; stroke-linecap: square"/>
     </g>
     <g id="line2d_2">
      <defs>
       <path id="mfc5c01de71" d="M 0 0 
L 0 3.5 
" style="stroke: #000000; stroke-width: 0.8"/>
      </defs>
      <g>
       <use xlink:href="#mfc5c01de71" x="69.429545" y="242.44" style="stroke: #000000; stroke-width: 0.8"/>
      </g>
     </g>
     <g id="text_1">
      <!-- 2020-01 -->
      <g transform="translate(48.744389 256.930625) scale(0.1 -0.1)">
       <defs>
        <path id="IPAexGothic-32" d="M 3659 63 
L 447 63 
L 447 594 
Q 825 1475 1894 2203 
L 2072 2322 
Q 2619 2697 2791 2906 
Q 2988 3153 2988 3444 
Q 2988 3772 2756 4003 
Q 2500 4259 2084 4259 
Q 1250 4259 991 3328 
L 497 3506 
Q 853 4725 2116 4725 
Q 2806 4725 3216 4316 
Q 3575 3947 3575 3425 
Q 3575 3038 3344 2722 
Q 3131 2416 2366 1938 
L 2231 1856 
Q 1256 1253 978 569 
L 3659 569 
L 3659 63 
z
" transform="scale(0.015625)"/>
        <path id="IPAexGothic-30" d="M 2038 4725 
Q 2881 4725 3334 3944 
Q 3694 3325 3694 2344 
Q 3694 1372 3334 741 
Q 2888 -31 2016 -31 
Q 1147 -31 700 741 
Q 341 1372 341 2350 
Q 341 3713 1000 4334 
Q 1419 4725 2038 4725 
z
M 2016 4266 
Q 1516 4266 1228 3759 
Q 934 3247 934 2344 
Q 934 1456 1222 947 
Q 1513 447 2016 447 
Q 2619 447 2909 1153 
Q 3100 1622 3100 2375 
Q 3100 3256 2806 3759 
Q 2509 4266 2016 4266 
z
" transform="scale(0.015625)"/>
        <path id="IPAexGothic-2d" d="M 1969 1703 
L 319 1703 
L 319 2203 
L 1969 2203 
L 1969 1703 
z
" transform="scale(0.015625)"/>
        <path id="IPAexGothic-31" d="M 2463 63 
L 1900 63 
L 1900 4103 
Q 1372 3922 788 3797 
L 684 4231 
Q 1519 4441 2106 4731 
L 2463 4731 
L 2463 63 
z
" transform="scale(0.015625)"/>
       </defs>
       <use xlink:href="#IPAexGothic-32"/>
       <use xlink:href="#IPAexGothic-30" transform="translate(62.988281 0)"/>
       <use xlink:href="#IPAexGothic-32" transform="translate(125.976562 0)"/>
       <use xlink:href="#IPAexGothic-30" transform="translate(188.964844 0)"/>
       <use xlink:href="#IPAexGothic-2d" transform="translate(251.953125 0)"/>
       <use xlink:href="#IPAexGothic-30" transform="translate(287.744141 0)"/>
       <use xlink:href="#IPAexGothic-31" transform="translate(350.732422 0)"/>
      </g>
     </g>
    </g>
    <g id="xtick_2">
     <g id="line2d_3">
      <path d="M 126.558852 242.44 
L 126.558852 30.48 
" clip-path="url(#pdb21c81f16)" style="fill: none; stroke: #000000; stroke-opacity: 0.3; stroke-width: 0.5; stroke-linecap: square"/>
     </g>
     <g id="line2d_4">
      <g>
       <use xlink:href="#mfc5c01de71" x="126.558852" y="242.44" style="stroke: #000000; stroke-width: 0.8"/>
      </g>
     </g>
     <g id="text_2">
      <!-- 2020-02 -->
      <g transform="translate(105.873696 256.930625) scale(0.1 -0.1)">
       <use xlink:href="#IPAexGothic-32"/>
       <use xlink:href="#IPAexGothic-30" transform="translate(62.988281 0)"/>
       <use xlink:href="#IPAexGothic-32" transform="translate(125.976562 0)"/>
       <use xlink:href="#IPAexGothic-30" transform="translate(188.964844 0)"/>
       <use xlink:href="#IPAexGothic-2d" transform="translate(251.953125 0)"/>
       <use xlink:href="#IPAexGothic-30" transform="translate(287.744141 0)"/>
       <use xlink:href="#IPAexGothic-32" transform="translate(350.732422 0)"/>
      </g>
     </g>
    </g>
    <g id="xtick_3">
     <g id="line2d_5">
      <path d="M 180.002397 242.44 
L 180.002397 30.48 
" clip-path="url(#pdb21c81f16)" style="fill: none; stroke: #000000; stroke-opacity: 0.3; stroke-width: 0.5; stroke-linecap: square"/>
     </g>
     <g id="line2d_6">
      <g>
       <use xlink:href="#mfc5c01de71" x="180.002397" y="242.44" style="stroke: #000000; stroke-width: 0.8"/>
      </g>
     </g>
     <g id="text_3">
      <!-- 2020-03 -->
      <g transform="translate(159.317241 256.930625) scale(0.1 -0.1)">
       <defs>
        <path id="IPAexGothic-33" d="M 2381 2419 
Q 3506 2216 3506 1278 
Q 3506 716 3128 356 
Q 2709 -31 1944 -31 
Q 797 -31 288 881 
L 756 1131 
Q 1109 441 1938 441 
Q 2425 441 2694 691 
Q 2950 928 2950 1291 
Q 2950 1719 2566 1978 
Q 2216 2213 1644 2213 
L 1363 2213 
L 1363 2669 
L 1656 2669 
Q 2231 2669 2534 2888 
Q 2859 3119 2859 3509 
Q 2859 3934 2494 4138 
Q 2259 4278 1931 4278 
Q 1238 4278 903 3578 
L 434 3803 
Q 897 4725 1938 4725 
Q 2597 4725 3006 4394 
Q 3416 4069 3416 3534 
Q 3416 3028 3019 2706 
Q 2763 2500 2381 2444 
L 2381 2419 
z
" transform="scale(0.015625)"/>
       </defs>
       <use xlink:href="#IPAexGothic-32"/>
       <use xlink:href="#IPAexGothic-30" transform="translate(62.988281 0)"/>
       <use xlink:href="#IPAexGothic-32" transform="translate(125.976562 0)"/>
       <use xlink:href="#IPAexGothic-30" transform="translate(188.964844 0)"/>
       <use xlink:href="#IPAexGothic-2d" transform="translate(251.953125 0)"/>
       <use xlink:href="#IPAexGothic-30" transform="translate(287.744141 0)"/>
       <use xlink:href="#IPAexGothic-33" transform="translate(350.732422 0)"/>
      </g>
     </g>
    </g>
    <g id="xtick_4">
     <g id="line2d_7">
      <path d="M 237.131704 242.44 
L 237.131704 30.48 
" clip-path="url(#pdb21c81f16)" style="fill: none; stroke: #000000; stroke-opacity: 0.3; stroke-width: 0.5; stroke-linecap: square"/>
     </g>
     <g id="line2d_8">
      <g>
       <use xlink:href="#mfc5c01de71" x="237.131704" y="242.44" style="stroke: #000000; stroke-width: 0.8"/>
      </g>
     </g>
     <g id="text_4">
      <!-- 2020-04 -->
      <g transform="translate(216.446548 256.930625) scale(0.1 -0.1)">
       <defs>
        <path id="IPAexGothic-34" d="M 3813 1159 
L 3059 1159 
L 3059 63 
L 2547 63 
L 2547 1159 
L 197 1159 
L 197 1672 
L 2456 4678 
L 3059 4678 
L 3059 1634 
L 3813 1634 
L 3813 1159 
z
M 2578 4109 
L 2559 4109 
Q 2278 3656 2003 3284 
L 759 1634 
L 2547 1634 
L 2547 3144 
Q 2547 3481 2578 4109 
z
" transform="scale(0.015625)"/>
       </defs>
       <use xlink:href="#IPAexGothic-32"/>
       <use xlink:href="#IPAexGothic-30" transform="translate(62.988281 0)"/>
       <use xlink:href="#IPAexGothic-32" transform="translate(125.976562 0)"/>
       <use xlink:href="#IPAexGothic-30" transform="translate(188.964844 0)"/>
       <use xlink:href="#IPAexGothic-2d" transform="translate(251.953125 0)"/>
       <use xlink:href="#IPAexGothic-30" transform="translate(287.744141 0)"/>
       <use xlink:href="#IPAexGothic-34" transform="translate(350.732422 0)"/>
      </g>
     </g>
    </g>
    <g id="xtick_5">
     <g id="line2d_9">
      <path d="M 292.41813 242.44 
L 292.41813 30.48 
" clip-path="url(#pdb21c81f16)" style="fill: none; stroke: #000000; stroke-opacity: 0.3; stroke-width: 0.5; stroke-linecap: square"/>
     </g>
     <g id="line2d_10">
      <g>
       <use xlink:href="#mfc5c01de71" x="292.41813" y="242.44" style="stroke: #000000; stroke-width: 0.8"/>
      </g>
     </g>
     <g id="text_5">
      <!-- 2020-05 -->
      <g transform="translate(271.732974 256.930625) scale(0.1 -0.1)">
       <defs>
        <path id="IPAexGothic-35" d="M 1178 2603 
Q 1634 2963 2172 2963 
Q 2816 2963 3241 2528 
Q 3638 2113 3638 1497 
Q 3638 938 3297 513 
Q 2869 -31 2031 -31 
Q 959 -31 469 784 
L 938 1028 
Q 1309 434 2013 434 
Q 2466 434 2769 716 
Q 3081 1013 3081 1503 
Q 3081 1966 2806 2241 
Q 2519 2528 2056 2528 
Q 1406 2528 1072 2028 
L 591 2091 
L 884 4634 
L 3406 4634 
L 3406 4153 
L 1341 4153 
L 1134 2603 
L 1178 2603 
z
" transform="scale(0.015625)"/>
       </defs>
       <use xlink:href="#IPAexGothic-32"/>
       <use xlink:href="#IPAexGothic-30" transform="translate(62.988281 0)"/>
       <use xlink:href="#IPAexGothic-32" transform="translate(125.976562 0)"/>
       <use xlink:href="#IPAexGothic-30" transform="translate(188.964844 0)"/>
       <use xlink:href="#IPAexGothic-2d" transform="translate(251.953125 0)"/>
       <use xlink:href="#IPAexGothic-30" transform="translate(287.744141 0)"/>
       <use xlink:href="#IPAexGothic-35" transform="translate(350.732422 0)"/>
      </g>
     </g>
    </g>
    <g id="xtick_6">
     <g id="line2d_11">
      <path d="M 349.547437 242.44 
L 349.547437 30.48 
" clip-path="url(#pdb21c81f16)" style="fill: none; stroke: #000000; stroke-opacity: 0.3; stroke-width: 0.5; stroke-linecap: square"/>
     </g>
     <g id="line2d_12">
      <g>
       <use xlink:href="#mfc5c01de71" x="349.547437" y="242.44" style="stroke: #000000; stroke-width: 0.8"/>
      </g>
     </g>
     <g id="text_6">
      <!-- 2020-06 -->
      <g transform="translate(328.86228 256.930625) scale(0.1 -0.1)">
       <defs>
        <path id="IPAexGothic-36" d="M 1056 2328 
Q 1509 2981 2234 2981 
Q 2906 2981 3316 2513 
Q 3675 2106 3675 1522 
Q 3675 884 3272 434 
Q 2853 -31 2178 -31 
Q 1375 -31 922 581 
Q 481 1178 481 2228 
Q 481 3425 1013 4109 
Q 1494 4725 2272 4725 
Q 3191 4725 3609 4025 
L 3150 3775 
Q 2894 4266 2300 4266 
Q 1119 4266 1031 2328 
L 1056 2328 
z
M 2141 2547 
Q 1684 2547 1384 2206 
Q 1116 1900 1116 1541 
Q 1116 1156 1353 844 
Q 1672 428 2159 428 
Q 2669 428 2941 844 
Q 3125 1128 3125 1503 
Q 3125 1944 2881 2228 
Q 2600 2547 2141 2547 
z
" transform="scale(0.015625)"/>
       </defs>
       <use xlink:href="#IPAexGothic-32"/>
       <use xlink:href="#IPAexGothic-30" transform="translate(62.988281 0)"/>
       <use xlink:href="#IPAexGothic-32" transform="translate(125.976562 0)"/>
       <use xlink:href="#IPAexGothic-30" transform="translate(188.964844 0)"/>
       <use xlink:href="#IPAexGothic-2d" transform="translate(251.953125 0)"/>
       <use xlink:href="#IPAexGothic-30" transform="translate(287.744141 0)"/>
       <use xlink:href="#IPAexGothic-36" transform="translate(350.732422 0)"/>
      </g>
     </g>
    </g>
    <g id="xtick_7">
     <g id="line2d_13">
      <path d="M 404.833863 242.44 
L 404.833863 30.48 
" clip-path="url(#pdb21c81f16)" style="fill: none; stroke: #000000; stroke-opacity: 0.3; stroke-width: 0.5; stroke-linecap: square"/>
     </g>
     <g id="line2d_14">
      <g>
       <use xlink:href="#mfc5c01de71" x="404.833863" y="242.44" style="stroke: #000000; stroke-width: 0.8"/>
      </g>
     </g>
     <g id="text_7">
      <!-- 2020-07 -->
      <g transform="translate(384.148706 256.930625) scale(0.1 -0.1)">
       <defs>
        <path id="IPAexGothic-37" d="M 3597 4263 
Q 2238 2106 1778 63 
L 1131 63 
Q 1581 1834 2950 4128 
L 428 4128 
L 428 4634 
L 3597 4634 
L 3597 4263 
z
" transform="scale(0.015625)"/>
       </defs>
       <use xlink:href="#IPAexGothic-32"/>
       <use xlink:href="#IPAexGothic-30" transform="translate(62.988281 0)"/>
       <use xlink:href="#IPAexGothic-32" transform="translate(125.976562 0)"/>
       <use xlink:href="#IPAexGothic-30" transform="translate(188.964844 0)"/>
       <use xlink:href="#IPAexGothic-2d" transform="translate(251.953125 0)"/>
       <use xlink:href="#IPAexGothic-30" transform="translate(287.744141 0)"/>
       <use xlink:href="#IPAexGothic-37" transform="translate(350.732422 0)"/>
      </g>
     </g>
    </g>
    <g id="xtick_8">
     <g id="line2d_15">
      <path d="M 461.963169 242.44 
L 461.963169 30.48 
" clip-path="url(#pdb21c81f16)" style="fill: none; stroke: #000000; stroke-opacity: 0.3; stroke-width: 0.5; stroke-linecap: square"/>
     </g>
     <g id="line2d_16">
      <g>
       <use xlink:href="#mfc5c01de71" x="461.963169" y="242.44" style="stroke: #000000; stroke-width: 0.8"/>
      </g>
     </g>
     <g id="text_8">
      <!-- 2020-08 -->
      <g transform="translate(441.278013 256.930625) scale(0.1 -0.1)">
       <defs>
        <path id="IPAexGothic-38" d="M 2541 2425 
Q 3700 2031 3700 1197 
Q 3700 541 3100 197 
Q 2663 -56 2016 -56 
Q 1366 -56 928 197 
Q 347 531 347 1178 
Q 347 1988 1409 2381 
L 1409 2400 
Q 481 2734 481 3509 
Q 481 4100 981 4456 
Q 1406 4756 2019 4756 
Q 2703 4756 3131 4403 
Q 3553 4069 3553 3566 
Q 3553 2706 2541 2444 
L 2541 2425 
z
M 2022 2625 
Q 2997 2856 2997 3528 
Q 2997 3916 2675 4150 
Q 2413 4347 2016 4347 
Q 1606 4347 1331 4128 
Q 1050 3897 1050 3522 
Q 1050 3150 1350 2925 
Q 1494 2809 1722 2722 
Q 1984 2616 2022 2625 
z
M 1978 2209 
Q 922 1931 922 1216 
Q 922 775 1313 556 
Q 1606 391 2009 391 
Q 2575 391 2881 697 
Q 3106 922 3106 1250 
Q 3106 1594 2794 1850 
Q 2609 1994 2350 2100 
Q 2047 2222 1978 2209 
z
" transform="scale(0.015625)"/>
       </defs>
       <use xlink:href="#IPAexGothic-32"/>
       <use xlink:href="#IPAexGothic-30" transform="translate(62.988281 0)"/>
       <use xlink:href="#IPAexGothic-32" transform="translate(125.976562 0)"/>
       <use xlink:href="#IPAexGothic-30" transform="translate(188.964844 0)"/>
       <use xlink:href="#IPAexGothic-2d" transform="translate(251.953125 0)"/>
       <use xlink:href="#IPAexGothic-30" transform="translate(287.744141 0)"/>
       <use xlink:href="#IPAexGothic-38" transform="translate(350.732422 0)"/>
      </g>
     </g>
    </g>
    <g id="text_9">
     <!-- 日付 -->
     <g transform="translate(256.825 273.617125) scale(0.144 -0.144)">
      <defs>
       <path id="IPAexGothic-65e5" d="M 5231 4800 
L 5231 -288 
L 4744 -288 
L 4744 128 
L 1647 128 
L 1647 -288 
L 1159 -288 
L 1159 4800 
L 5231 4800 
z
M 1647 4372 
L 1647 2731 
L 4744 2731 
L 4744 4372 
L 1647 4372 
z
M 1647 2297 
L 1647 556 
L 4744 556 
L 4744 2297 
L 1647 2297 
z
" transform="scale(0.015625)"/>
       <path id="IPAexGothic-4ed8" d="M 1681 3769 
L 1681 -447 
L 1213 -447 
L 1213 2822 
Q 913 2313 578 1863 
L 316 2253 
Q 1241 3463 1653 5184 
L 2128 5069 
Q 1928 4378 1719 3859 
L 1681 3769 
z
M 5084 3816 
L 5991 3816 
L 5991 3388 
L 5109 3388 
L 5109 213 
Q 5109 -78 5006 -191 
Q 4888 -319 4525 -319 
Q 4031 -319 3513 -266 
L 3431 238 
Q 3978 141 4403 141 
Q 4634 141 4634 384 
L 4634 3388 
L 2028 3388 
L 2028 3816 
L 4609 3816 
L 4609 5153 
L 5084 5153 
L 5084 3816 
z
M 3431 1172 
Q 3034 1994 2547 2566 
L 2931 2822 
Q 3428 2231 3853 1472 
L 3431 1172 
z
" transform="scale(0.015625)"/>
      </defs>
      <use xlink:href="#IPAexGothic-65e5"/>
      <use xlink:href="#IPAexGothic-4ed8" transform="translate(100 0)"/>
     </g>
    </g>
   </g>
   <g id="matplotlib.axis_2">
    <g id="ytick_1">
     <g id="line2d_17">
      <path d="M 49.25 222.724324 
L 493.2 222.724324 
" clip-path="url(#pdb21c81f16)" style="fill: none; stroke: #000000; stroke-opacity: 0.3; stroke-width: 0.5; stroke-linecap: square"/>
     </g>
     <g id="line2d_18">
      <defs>
       <path id="m4b4e671183" d="M 0 0 
L -3.5 0 
" style="stroke: #000000; stroke-width: 0.8"/>
      </defs>
      <g>
       <use xlink:href="#m4b4e671183" x="49.25" y="222.724324" style="stroke: #000000; stroke-width: 0.8"/>
      </g>
     </g>
     <g id="text_10">
      <!-- −4 -->
      <g transform="translate(29.16875 226.469637) scale(0.1 -0.1)">
       <defs>
        <path id="IPAexGothic-2212" d="M 416 2222 
L 3922 2222 
L 3922 1856 
L 416 1856 
L 416 2222 
z
" transform="scale(0.015625)"/>
       </defs>
       <use xlink:href="#IPAexGothic-2212"/>
       <use xlink:href="#IPAexGothic-34" transform="translate(67.822266 0)"/>
      </g>
     </g>
    </g>
    <g id="ytick_2">
     <g id="line2d_19">
      <path d="M 49.25 197.336568 
L 493.2 197.336568 
" clip-path="url(#pdb21c81f16)" style="fill: none; stroke: #000000; stroke-opacity: 0.3; stroke-width: 0.5; stroke-linecap: square"/>
     </g>
     <g id="line2d_20">
      <g>
       <use xlink:href="#m4b4e671183" x="49.25" y="197.336568" style="stroke: #000000; stroke-width: 0.8"/>
      </g>
     </g>
     <g id="text_11">
      <!-- −3 -->
      <g transform="translate(29.16875 201.08188) scale(0.1 -0.1)">
       <use xlink:href="#IPAexGothic-2212"/>
       <use xlink:href="#IPAexGothic-33" transform="translate(67.822266 0)"/>
      </g>
     </g>
    </g>
    <g id="ytick_3">
     <g id="line2d_21">
      <path d="M 49.25 171.948811 
L 493.2 171.948811 
" clip-path="url(#pdb21c81f16)" style="fill: none; stroke: #000000; stroke-opacity: 0.3; stroke-width: 0.5; stroke-linecap: square"/>
     </g>
     <g id="line2d_22">
      <g>
       <use xlink:href="#m4b4e671183" x="49.25" y="171.948811" style="stroke: #000000; stroke-width: 0.8"/>
      </g>
     </g>
     <g id="text_12">
      <!-- −2 -->
      <g transform="translate(29.16875 175.694123) scale(0.1 -0.1)">
       <use xlink:href="#IPAexGothic-2212"/>
       <use xlink:href="#IPAexGothic-32" transform="translate(67.822266 0)"/>
      </g>
     </g>
    </g>
    <g id="ytick_4">
     <g id="line2d_23">
      <path d="M 49.25 146.561054 
L 493.2 146.561054 
" clip-path="url(#pdb21c81f16)" style="fill: none; stroke: #000000; stroke-opacity: 0.3; stroke-width: 0.5; stroke-linecap: square"/>
     </g>
     <g id="line2d_24">
      <g>
       <use xlink:href="#m4b4e671183" x="49.25" y="146.561054" style="stroke: #000000; stroke-width: 0.8"/>
      </g>
     </g>
     <g id="text_13">
      <!-- −1 -->
      <g transform="translate(29.16875 150.306366) scale(0.1 -0.1)">
       <use xlink:href="#IPAexGothic-2212"/>
       <use xlink:href="#IPAexGothic-31" transform="translate(67.822266 0)"/>
      </g>
     </g>
    </g>
    <g id="ytick_5">
     <g id="line2d_25">
      <path d="M 49.25 121.173297 
L 493.2 121.173297 
" clip-path="url(#pdb21c81f16)" style="fill: none; stroke: #000000; stroke-opacity: 0.3; stroke-width: 0.5; stroke-linecap: square"/>
     </g>
     <g id="line2d_26">
      <g>
       <use xlink:href="#m4b4e671183" x="49.25" y="121.173297" style="stroke: #000000; stroke-width: 0.8"/>
      </g>
     </g>
     <g id="text_14">
      <!-- 0 -->
      <g transform="translate(35.951563 124.91861) scale(0.1 -0.1)">
       <use xlink:href="#IPAexGothic-30"/>
      </g>
     </g>
    </g>
    <g id="ytick_6">
     <g id="line2d_27">
      <path d="M 49.25 95.78554 
L 493.2 95.78554 
" clip-path="url(#pdb21c81f16)" style="fill: none; stroke: #000000; stroke-opacity: 0.3; stroke-width: 0.5; stroke-linecap: square"/>
     </g>
     <g id="line2d_28">
      <g>
       <use xlink:href="#m4b4e671183" x="49.25" y="95.78554" style="stroke: #000000; stroke-width: 0.8"/>
      </g>
     </g>
     <g id="text_15">
      <!-- 1 -->
      <g transform="translate(35.951563 99.530853) scale(0.1 -0.1)">
       <use xlink:href="#IPAexGothic-31"/>
      </g>
     </g>
    </g>
    <g id="ytick_7">
     <g id="line2d_29">
      <path d="M 49.25 70.397783 
L 493.2 70.397783 
" clip-path="url(#pdb21c81f16)" style="fill: none; stroke: #000000; stroke-opacity: 0.3; stroke-width: 0.5; stroke-linecap: square"/>
     </g>
     <g id="line2d_30">
      <g>
       <use xlink:href="#m4b4e671183" x="49.25" y="70.397783" style="stroke: #000000; stroke-width: 0.8"/>
      </g>
     </g>
     <g id="text_16">
      <!-- 2 -->
      <g transform="translate(35.951563 74.143096) scale(0.1 -0.1)">
       <use xlink:href="#IPAexGothic-32"/>
      </g>
     </g>
    </g>
    <g id="ytick_8">
     <g id="line2d_31">
      <path d="M 49.25 45.010027 
L 493.2 45.010027 
" clip-path="url(#pdb21c81f16)" style="fill: none; stroke: #000000; stroke-opacity: 0.3; stroke-width: 0.5; stroke-linecap: square"/>
     </g>
     <g id="line2d_32">
      <g>
       <use xlink:href="#m4b4e671183" x="49.25" y="45.010027" style="stroke: #000000; stroke-width: 0.8"/>
      </g>
     </g>
     <g id="text_17">
      <!-- 3 -->
      <g transform="translate(35.951563 48.755339) scale(0.1 -0.1)">
       <use xlink:href="#IPAexGothic-33"/>
      </g>
     </g>
    </g>
    <g id="text_18">
     <!-- 値 -->
     <g transform="translate(22.43275 143.66) rotate(-90) scale(0.144 -0.144)">
      <defs>
       <path id="IPAexGothic-5024" d="M 4172 3675 
L 5453 3675 
L 5453 684 
L 3019 684 
L 3019 3675 
L 3750 3675 
Q 3788 3884 3825 4153 
L 2141 4153 
L 2141 4544 
L 3884 4544 
Q 3922 4844 3966 5325 
L 4434 5272 
L 4388 4953 
Q 4331 4578 4331 4544 
L 5863 4544 
L 5863 4153 
L 4269 4153 
Q 4200 3781 4172 3675 
z
M 5038 3316 
L 3434 3316 
L 3434 2803 
L 5038 2803 
L 5038 3316 
z
M 3434 2450 
L 3434 1941 
L 5038 1941 
L 5038 2450 
L 3434 2450 
z
M 3434 1588 
L 3434 1044 
L 5038 1044 
L 5038 1588 
L 3434 1588 
z
M 1509 3669 
L 1509 -447 
L 1069 -447 
L 1069 2725 
Q 856 2338 531 1875 
L 288 2266 
Q 1163 3531 1541 5325 
L 1975 5222 
Q 1791 4378 1509 3669 
z
M 2488 244 
L 6031 244 
L 6031 -153 
L 2488 -153 
L 2488 -447 
L 2059 -447 
L 2059 3213 
L 2488 3213 
L 2488 244 
z
" transform="scale(0.015625)"/>
      </defs>
      <use xlink:href="#IPAexGothic-5024"/>
     </g>
    </g>
   </g>
   <g id="line2d_33">
    <path d="M 69.429545 130.304472 
L 71.272426 97.006509 
L 73.115307 68.793197 
L 74.958188 76.453319 
L 76.801069 79.355374 
L 78.64395 104.329322 
L 80.486831 132.589989 
L 82.329711 152.023118 
L 84.172592 168.116102 
L 86.015473 130.442834 
L 87.858354 129.091099 
L 89.701235 123.45904 
L 91.544116 139.020731 
L 93.386997 161.283739 
L 95.229878 179.765527 
L 97.072758 183.553412 
L 98.915639 149.628132 
L 100.75852 140.62353 
L 102.601401 146.384867 
L 104.444282 144.896138 
L 106.287163 174.016128 
L 108.130044 126.919013 
L 109.972924 156.077357 
L 111.815805 144.530161 
L 113.658686 83.270096 
L 115.501567 159.410054 
L 117.344448 183.658575 
L 119.187329 183.286263 
L 121.03021 161.693388 
L 122.87309 193.074225 
L 126.558852 161.307719 
L 128.401733 144.938217 
L 130.244614 198.444181 
L 132.087495 158.851365 
L 133.930376 107.007043 
L 135.773257 100.172646 
L 137.616137 124.831143 
L 139.459018 139.307486 
L 141.301899 201.051059 
L 143.14478 165.003096 
L 144.987661 113.694645 
L 146.830542 99.432083 
L 148.673423 181.540514 
L 150.516303 174.244944 
L 152.359184 160.934744 
L 154.202065 161.282028 
L 156.044946 123.018152 
L 157.887827 166.748169 
L 159.730708 171.297916 
L 163.416469 109.992691 
L 165.25935 109.052717 
L 167.102231 85.897726 
L 168.945112 83.274018 
L 170.787993 121.536239 
L 172.630874 88.587799 
L 174.473755 111.201219 
L 176.316636 155.589419 
L 178.159516 134.143831 
L 180.002397 84.192377 
L 181.845278 70.935409 
L 183.688159 60.68674 
L 185.53104 73.99282 
L 187.373921 150.727906 
L 189.216802 124.597121 
L 191.059682 119.570696 
L 192.902563 187.10375 
L 194.745444 183.873692 
L 196.588325 187.396794 
L 198.431206 140.59012 
L 200.274087 131.632821 
L 202.116968 120.92378 
L 203.959848 114.83663 
L 205.802729 150.453986 
L 207.64561 191.526827 
L 209.488491 168.969435 
L 211.331372 162.078855 
L 213.174253 150.168982 
L 215.017134 145.694053 
L 216.860015 151.011829 
L 218.702895 127.965319 
L 220.545776 121.057335 
L 222.388657 136.905749 
L 224.231538 180.4127 
L 226.074419 228.395869 
L 227.9173 232.805455 
L 229.760181 203.20637 
L 231.603061 155.46086 
L 233.445942 155.83659 
L 235.288823 128.244469 
L 237.131704 96.653015 
L 238.974585 43.587067 
L 240.817466 59.574951 
L 242.660347 40.114545 
L 244.503227 58.481986 
L 246.346108 108.735795 
L 248.188989 170.113584 
L 250.03187 147.885265 
L 251.874751 117.315401 
L 253.717632 55.776074 
L 255.560513 92.360988 
L 257.403394 88.560806 
L 259.246274 101.285871 
L 261.089155 167.38054 
L 262.932036 144.002879 
L 264.774917 145.322713 
L 266.617798 170.483093 
L 268.460679 112.840412 
L 270.30356 131.006306 
L 272.14644 116.152508 
L 273.989321 124.397333 
L 275.832202 141.621469 
L 277.675083 139.749198 
L 279.517964 114.042344 
L 281.360845 133.698038 
L 283.203726 171.867903 
L 285.046606 111.053662 
L 286.889487 102.935079 
L 288.732368 132.754361 
L 290.575249 131.607855 
L 292.41813 168.203569 
L 294.261011 155.74963 
L 296.103892 123.527254 
L 297.946773 171.863593 
L 299.789653 134.644404 
L 301.632534 110.098892 
L 303.475415 120.323373 
L 305.318296 117.976676 
L 309.004058 136.853239 
L 310.846939 179.415902 
L 312.689819 120.550843 
L 314.5327 137.78493 
L 316.375581 129.379867 
L 318.218462 132.702467 
L 320.061343 117.68138 
L 321.904224 104.331476 
L 323.747105 135.310792 
L 325.589985 121.871786 
L 327.432866 128.516327 
L 329.275747 148.744383 
L 331.118628 107.544426 
L 332.961509 81.712049 
L 334.80439 116.51102 
L 336.647271 125.5829 
L 338.490152 149.921086 
L 340.333032 170.172224 
L 342.175913 180.413793 
L 344.018794 148.559865 
L 345.861675 176.307817 
L 347.704556 196.901178 
L 349.547437 166.881335 
L 351.390318 171.438797 
L 353.233198 125.151567 
L 355.076079 148.351324 
L 356.91896 152.542313 
L 358.761841 162.822849 
L 360.604722 209.096768 
L 364.290484 140.424097 
L 366.133364 110.400434 
L 367.976245 118.416672 
L 369.819126 102.288892 
L 371.662007 111.877018 
L 373.504888 117.058288 
L 375.347769 138.646689 
L 377.19065 137.413537 
L 379.033531 156.492713 
L 380.876411 130.672599 
L 382.719292 144.959259 
L 384.562173 164.371342 
L 386.405054 154.147539 
L 388.247935 145.749143 
L 390.090816 181.275966 
L 391.933697 190.426463 
L 393.776577 184.523601 
L 395.619458 155.844239 
L 399.30522 109.036403 
L 401.148101 119.447492 
L 402.990982 141.205618 
L 404.833863 171.769097 
L 406.676743 154.085908 
L 408.519624 154.843004 
L 410.362505 134.201087 
L 412.205386 105.135228 
L 414.048267 59.649446 
L 415.891148 100.547515 
L 417.734029 92.682815 
L 419.57691 143.405696 
L 421.41979 110.476083 
L 423.262671 144.721576 
L 425.105552 141.171241 
L 426.948433 163.185788 
L 428.791314 111.189048 
L 430.634195 100.2776 
L 432.477076 83.824509 
L 434.319956 98.642496 
L 436.162837 95.726375 
L 438.005718 131.426361 
L 439.848599 140.6231 
L 441.69148 100.070748 
L 443.534361 153.565089 
L 445.377242 142.21455 
L 447.220122 105.188417 
L 449.063003 82.632342 
L 450.905884 77.254329 
L 452.748765 90.060104 
L 454.591646 65.114257 
L 456.434527 89.2935 
L 458.277408 99.943692 
L 460.120289 149.114109 
L 461.963169 132.844532 
L 463.80605 137.385971 
L 465.648931 132.52538 
L 467.491812 186.696739 
L 469.334693 197.182632 
L 471.177574 178.26721 
L 473.020455 192.017106 
L 473.020455 192.017106 
" clip-path="url(#pdb21c81f16)" style="fill: none; stroke: #cbd5f5; stroke-width: 1.2; stroke-linecap: square"/>
   </g>
   <g id="line2d_34">
    <path d="M 69.429545 130.304472 
L 71.272426 97.006509 
L 73.115307 68.793197 
L 74.958188 76.453319 
L 76.801069 79.355374 
L 78.64395 104.329322 
L 80.486831 132.589989 
L 82.329711 152.023118 
L 84.172592 168.116102 
L 86.015473 130.442834 
L 87.858354 129.091099 
L 89.701235 123.45904 
L 91.544116 139.020731 
L 93.386997 161.283739 
L 95.229878 179.765527 
L 97.072758 183.553412 
L 98.915639 149.628132 
L 100.75852 140.62353 
L 102.601401 146.384867 
L 104.444282 144.896138 
L 106.287163 174.016128 
L 108.130044 126.919013 
L 109.972924 156.077357 
L 111.815805 144.530161 
L 113.658686 83.270096 
L 115.501567 159.410054 
L 117.344448 183.658575 
L 119.187329 183.286263 
L 121.03021 161.693388 
L 122.87309 193.074225 
L 126.558852 161.307719 
L 128.401733 144.938217 
L 130.244614 198.444181 
L 132.087495 158.851365 
L 133.930376 107.007043 
L 135.773257 100.172646 
L 137.616137 124.831143 
L 139.459018 139.307486 
L 141.301899 201.051059 
L 143.14478 165.003096 
L 144.987661 113.694645 
L 146.830542 99.432083 
L 148.673423 181.540514 
L 150.516303 174.244944 
L 152.359184 160.934744 
L 154.202065 161.282028 
L 156.044946 123.018152 
L 157.887827 166.748169 
L 159.730708 171.297916 
L 163.416469 109.992691 
L 165.25935 109.052717 
L 167.102231 85.897726 
L 168.945112 83.274018 
L 170.787993 121.536239 
L 172.630874 88.587799 
L 174.473755 111.201219 
L 176.316636 155.589419 
L 178.159516 134.143831 
L 180.002397 84.192377 
L 181.845278 70.935409 
L 183.688159 60.68674 
L 185.53104 73.99282 
L 187.373921 150.727906 
L 189.216802 124.597121 
L 191.059682 119.570696 
L 192.902563 187.10375 
L 194.745444 183.873692 
L 196.588325 187.396794 
L 198.431206 140.59012 
L 200.274087 131.632821 
L 202.116968 120.92378 
L 203.959848 114.83663 
L 205.802729 150.453986 
L 207.64561 191.526827 
L 209.488491 168.969435 
L 211.331372 162.078855 
L 213.174253 150.168982 
L 215.017134 145.694053 
L 216.860015 151.011829 
L 218.702895 127.965319 
L 220.545776 121.057335 
L 222.388657 136.905749 
L 224.231538 180.4127 
L 226.074419 228.395869 
L 227.9173 232.805455 
L 229.760181 203.20637 
L 231.603061 155.46086 
L 233.445942 155.83659 
L 235.288823 128.244469 
L 237.131704 96.653015 
L 238.974585 43.587067 
L 240.817466 59.574951 
L 242.660347 40.114545 
L 244.503227 58.481986 
L 246.346108 108.735795 
L 248.188989 170.113584 
L 250.03187 147.885265 
L 251.874751 117.315401 
L 253.717632 55.776074 
L 255.560513 92.360988 
L 257.403394 88.560806 
L 259.246274 101.285871 
L 261.089155 167.38054 
L 262.932036 144.002879 
L 264.774917 145.322713 
L 266.617798 170.483093 
L 268.460679 112.840412 
L 270.30356 131.006306 
L 272.14644 116.152508 
L 273.989321 124.397333 
L 275.832202 141.621469 
L 277.675083 139.749198 
L 279.517964 114.042344 
L 281.360845 133.698038 
L 283.203726 171.867903 
L 285.046606 111.053662 
L 286.889487 102.935079 
L 288.732368 132.754361 
L 290.575249 131.607855 
L 292.41813 168.203569 
L 294.261011 155.74963 
L 296.103892 123.527254 
L 297.946773 171.863593 
L 299.789653 134.644404 
L 301.632534 110.098892 
L 303.475415 120.323373 
L 305.318296 117.976676 
L 309.004058 136.853239 
L 310.846939 179.415902 
L 312.689819 120.550843 
L 314.5327 137.78493 
L 316.375581 129.379867 
L 318.218462 132.702467 
L 320.061343 117.68138 
L 321.904224 104.331476 
L 323.747105 135.310792 
L 325.589985 121.871786 
L 327.432866 128.516327 
L 329.275747 148.744383 
L 331.118628 107.544426 
L 332.961509 81.712049 
L 334.80439 116.51102 
L 336.647271 125.5829 
L 338.490152 149.921086 
L 340.333032 170.172224 
L 342.175913 180.413793 
L 344.018794 148.559865 
L 345.861675 176.307817 
L 347.704556 196.901178 
L 349.547437 166.881335 
L 351.390318 171.438797 
L 353.233198 125.151567 
L 355.076079 148.351324 
L 356.91896 152.542313 
L 358.761841 162.822849 
L 360.604722 209.096768 
L 364.290484 140.424097 
L 366.133364 110.400434 
L 367.976245 118.416672 
L 369.819126 102.288892 
L 371.662007 111.877018 
L 373.504888 117.058288 
L 375.347769 138.646689 
L 377.19065 137.413537 
L 379.033531 156.492713 
L 380.876411 130.672599 
L 382.719292 144.959259 
L 384.562173 164.371342 
L 386.405054 154.147539 
L 388.247935 145.749143 
L 390.090816 181.275966 
L 391.933697 190.426463 
L 393.776577 184.523601 
L 395.619458 155.844239 
L 399.30522 109.036403 
L 401.148101 119.447492 
L 402.990982 141.205618 
L 404.833863 171.769097 
L 406.676743 154.085908 
L 408.519624 154.843004 
L 410.362505 134.201087 
L 412.205386 105.135228 
L 414.048267 59.649446 
L 415.891148 100.547515 
L 417.734029 92.682815 
L 419.57691 143.405696 
L 421.41979 110.476083 
L 423.262671 144.721576 
L 425.105552 141.171241 
L 426.948433 163.185788 
L 428.791314 111.189048 
L 430.634195 100.2776 
L 432.477076 83.824509 
L 434.319956 98.642496 
L 436.162837 95.726375 
L 436.162837 95.726375 
" clip-path="url(#pdb21c81f16)" style="fill: none; stroke: #2563eb; stroke-width: 1.2; stroke-linecap: square"/>
   </g>
   <g id="line2d_35">
    <path d="M 438.005718 114.368388 
L 439.848599 126.599415 
L 441.69148 134.045235 
L 443.534361 137.142137 
L 445.377242 137.964744 
L 447.220122 137.822868 
L 449.063003 137.458035 
L 450.905884 137.157607 
L 452.748765 136.982617 
L 454.591646 136.905803 
L 456.434527 136.884527 
L 458.277408 136.886784 
L 460.120289 136.895012 
L 461.963169 136.902036 
L 463.80605 136.90622 
L 465.648931 136.908101 
L 467.491812 136.908651 
L 469.334693 136.908623 
L 471.177574 136.908439 
L 473.020455 136.908275 
" clip-path="url(#pdb21c81f16)" style="fill: none; stroke: #f97316; stroke-width: 1.6; stroke-linecap: square"/>
   </g>
   <g id="text_19">
    <!-- 自己回帰モデルによる短期予測 -->
    <g transform="translate(150.265 24.48) scale(0.1728 -0.1728)">
     <defs>
      <path id="IPAexGothic-81ea" d="M 2591 4353 
Q 2719 4766 2816 5294 
L 3359 5191 
Q 3250 4809 3072 4353 
L 5291 4353 
L 5291 -450 
L 4822 -450 
L 4822 -72 
L 1569 -72 
L 1569 -450 
L 1100 -450 
L 1100 4353 
L 2591 4353 
z
M 1569 3956 
L 1569 3028 
L 4822 3028 
L 4822 3956 
L 1569 3956 
z
M 1569 2644 
L 1569 1716 
L 4822 1716 
L 4822 2644 
L 1569 2644 
z
M 1569 1331 
L 1569 325 
L 4822 325 
L 4822 1331 
L 1569 1331 
z
" transform="scale(0.015625)"/>
      <path id="IPAexGothic-5df1" d="M 1472 2541 
L 1472 728 
Q 1472 416 1716 366 
Q 2003 316 3328 316 
Q 5109 316 5272 469 
Q 5394 591 5434 1369 
L 5441 1491 
L 5925 1338 
Q 5878 347 5722 134 
Q 5600 -38 5253 -88 
Q 4706 -166 3269 -166 
Q 1466 -166 1197 6 
Q 972 153 972 556 
L 972 2956 
L 4606 2956 
L 4606 4347 
L 813 4347 
L 813 4775 
L 5100 4775 
L 5100 2016 
L 4606 2016 
L 4606 2541 
L 1472 2541 
z
" transform="scale(0.015625)"/>
      <path id="IPAexGothic-56de" d="M 4519 3647 
L 4519 1178 
L 1875 1178 
L 1875 3647 
L 4519 3647 
z
M 2328 3250 
L 2328 1575 
L 4066 1575 
L 4066 3250 
L 2328 3250 
z
M 5722 4891 
L 5722 -456 
L 5247 -456 
L 5247 -103 
L 1147 -103 
L 1147 -456 
L 672 -456 
L 672 4891 
L 5722 4891 
z
M 1147 4475 
L 1147 313 
L 5247 313 
L 5247 4475 
L 1147 4475 
z
" transform="scale(0.015625)"/>
      <path id="IPAexGothic-5e30" d="M 5472 5044 
L 5472 3109 
L 2541 3109 
L 2541 3481 
L 5031 3481 
L 5031 3909 
L 2700 3909 
L 2700 4269 
L 5031 4269 
L 5031 4672 
L 2559 4672 
L 2559 5044 
L 5472 5044 
z
M 6022 2675 
L 6022 1631 
L 5594 1631 
L 5594 2297 
L 4244 2297 
L 4244 1784 
L 5503 1784 
L 5503 384 
Q 5503 -19 5056 -19 
Q 4809 -19 4488 13 
L 4441 428 
Q 4719 378 4928 378 
Q 5088 378 5088 544 
L 5088 1419 
L 4244 1419 
L 4244 -447 
L 3816 -447 
L 3816 1419 
L 3091 1419 
L 3091 -97 
L 2675 -97 
L 2675 1784 
L 3816 1784 
L 3816 2297 
L 2584 2297 
L 2584 1631 
L 2156 1631 
L 2156 2675 
L 6022 2675 
z
M 634 4441 
L 1063 4441 
L 1063 1869 
L 634 1869 
L 634 4441 
z
M 1484 5209 
L 1931 5209 
L 1931 3109 
Q 1931 1747 1722 1019 
Q 1463 153 819 -513 
L 506 -122 
Q 1072 388 1313 1216 
Q 1484 1841 1484 2975 
L 1484 5209 
z
" transform="scale(0.015625)"/>
      <path id="IPAexGothic-30e2" d="M 1216 4409 
L 5147 4409 
L 5147 3950 
L 3053 3950 
L 3053 2797 
L 5644 2797 
L 5644 2328 
L 3053 2328 
L 3053 972 
Q 3053 669 3272 600 
Q 3453 544 4013 544 
Q 4556 544 5269 600 
L 5269 97 
Q 4684 50 4147 50 
Q 3025 50 2753 250 
Q 2541 403 2541 825 
L 2541 2328 
L 744 2328 
L 744 2797 
L 2541 2797 
L 2541 3950 
L 1216 3950 
L 1216 4409 
z
" transform="scale(0.015625)"/>
      <path id="IPAexGothic-30c7" d="M 563 3072 
L 5741 3072 
L 5741 2613 
L 3578 2613 
Q 3538 1516 3134 872 
Q 2688 156 1663 -256 
L 1313 156 
Q 2338 538 2713 1166 
Q 3003 1644 3034 2613 
L 563 2613 
L 563 3072 
z
M 1406 4588 
L 4588 4588 
L 4588 4128 
L 1406 4128 
L 1406 4588 
z
M 6009 4469 
Q 5647 5009 5253 5338 
L 5553 5569 
Q 5938 5259 6328 4744 
L 6009 4469 
z
M 5413 4000 
Q 5125 4491 4678 4891 
L 4991 5131 
Q 5363 4825 5747 4275 
L 5413 4000 
z
" transform="scale(0.015625)"/>
      <path id="IPAexGothic-30eb" d="M 353 331 
Q 1313 994 1544 2022 
Q 1684 2650 1684 4397 
L 2203 4397 
L 2203 4153 
L 2203 4116 
Q 2203 2259 1934 1491 
Q 1619 588 744 -38 
L 353 331 
z
M 3125 4666 
L 3650 4666 
L 3650 769 
Q 4875 1488 5672 2734 
L 6000 2278 
Q 5075 966 3516 63 
L 3125 359 
L 3125 4666 
z
" transform="scale(0.015625)"/>
      <path id="IPAexGothic-306b" d="M 1088 -38 
Q 922 1003 922 2081 
Q 922 3222 1331 4794 
L 1813 4684 
Q 1391 3113 1391 2003 
Q 1391 1441 1422 1147 
Q 1434 1181 1813 2016 
L 2125 1797 
Q 1800 1081 1691 763 
Q 1581 453 1581 269 
Q 1581 78 1588 6 
L 1088 -38 
z
M 2834 4038 
Q 3969 4213 5313 4172 
L 5338 3681 
Q 3959 3728 2869 3547 
L 2834 4038 
z
M 5650 256 
Q 5044 172 4372 172 
Q 3463 172 3047 434 
Q 2784 594 2675 841 
Q 2572 1075 2572 1447 
Q 2572 1563 2578 1656 
L 3053 1684 
Q 3050 1613 3044 1528 
Q 3041 1481 3041 1466 
Q 3041 1200 3119 1053 
Q 3178 944 3309 850 
Q 3569 678 4275 678 
Q 4891 678 5588 763 
L 5650 256 
z
" transform="scale(0.015625)"/>
      <path id="IPAexGothic-3088" d="M 2784 5019 
L 3272 5019 
Q 3247 4378 3272 3647 
Q 4184 3719 4850 3903 
L 4997 3431 
Q 4369 3291 3272 3200 
Q 3288 2366 3378 1550 
Q 4134 1353 5344 647 
L 5031 213 
Q 4244 759 3406 1044 
L 3413 891 
Q 3434 359 3122 84 
Q 2863 -141 2272 -141 
Q 1641 -141 1272 116 
Q 934 350 934 738 
Q 934 1294 1500 1534 
Q 1841 1678 2278 1678 
Q 2581 1678 2906 1631 
Q 2813 2559 2784 5019 
z
M 2931 1178 
Q 2613 1244 2369 1244 
Q 1422 1244 1422 794 
Q 1422 300 2278 300 
Q 2956 300 2938 934 
L 2931 1178 
z
" transform="scale(0.015625)"/>
      <path id="IPAexGothic-308b" d="M 4391 4397 
L 2613 2588 
Q 3225 2809 3759 2809 
Q 4263 2809 4659 2625 
Q 5391 2269 5391 1484 
Q 5391 756 4706 275 
Q 4072 -166 3053 -166 
Q 2559 -166 2247 19 
Q 1863 250 1863 666 
Q 1863 934 2069 1141 
Q 2331 1403 2741 1403 
Q 3509 1403 4019 428 
Q 4872 784 4872 1491 
Q 4872 1981 4469 2222 
Q 4166 2406 3681 2406 
Q 2425 2406 1238 1209 
L 891 1581 
Q 2438 2934 3578 4281 
Q 2594 4125 1588 4066 
L 1478 4550 
Q 2594 4581 4109 4763 
L 4391 4397 
z
M 3591 303 
Q 3244 1025 2731 1025 
Q 2553 1025 2434 934 
Q 2316 844 2316 700 
Q 2316 250 3034 250 
Q 3275 250 3591 303 
z
" transform="scale(0.015625)"/>
      <path id="IPAexGothic-77ed" d="M 1941 4025 
L 1941 2772 
L 2791 2772 
L 2791 2375 
L 1934 2375 
Q 1919 2059 1900 1894 
Q 2503 1381 2969 756 
L 2650 391 
Q 2294 931 1838 1428 
Q 1600 253 666 -488 
L 353 -128 
Q 1044 384 1325 1191 
Q 1469 1644 1500 2375 
L 366 2375 
L 366 2772 
L 1506 2772 
L 1506 4025 
L 1209 4025 
Q 1022 3459 744 2997 
L 403 3272 
Q 872 4081 1044 5300 
L 1472 5234 
Q 1409 4781 1319 4416 
L 2650 4416 
L 2650 4025 
L 1941 4025 
z
M 5581 3731 
L 5581 1875 
L 3028 1875 
L 3028 3731 
L 5581 3731 
z
M 3456 3334 
L 3456 2266 
L 5153 2266 
L 5153 3334 
L 3456 3334 
z
M 4434 159 
Q 4716 822 4947 1734 
L 5416 1581 
Q 5141 700 4869 159 
L 6081 159 
L 6081 -256 
L 2559 -256 
L 2559 159 
L 4434 159 
z
M 2759 4850 
L 5888 4850 
L 5888 4434 
L 2759 4434 
L 2759 4850 
z
M 3675 294 
Q 3494 950 3206 1538 
L 3616 1691 
Q 3881 1150 4097 469 
L 3675 294 
z
" transform="scale(0.015625)"/>
      <path id="IPAexGothic-671f" d="M 1009 4469 
L 1009 5313 
L 1431 5313 
L 1431 4469 
L 2513 4469 
L 2513 5313 
L 2928 5313 
L 2928 4469 
L 3434 4469 
L 3434 4084 
L 2928 4084 
L 2928 1522 
L 3503 1522 
L 3503 1125 
L 319 1125 
L 319 1522 
L 1009 1522 
L 1009 4084 
L 441 4084 
L 441 4469 
L 1009 4469 
z
M 2513 4084 
L 1431 4084 
L 1431 3481 
L 2513 3481 
L 2513 4084 
z
M 2513 3116 
L 1431 3116 
L 1431 2516 
L 2513 2516 
L 2513 3116 
z
M 2513 2156 
L 1431 2156 
L 1431 1522 
L 2513 1522 
L 2513 2156 
z
M 5747 4984 
L 5747 72 
Q 5747 -391 5216 -391 
Q 4766 -391 4419 -347 
L 4350 109 
Q 4763 38 5138 38 
Q 5331 38 5331 225 
L 5331 1703 
L 4113 1703 
Q 4094 1028 3997 597 
Q 3875 -16 3478 -544 
L 3122 -206 
Q 3691 491 3691 1997 
L 3691 4984 
L 5747 4984 
z
M 5331 4594 
L 4113 4594 
L 4113 3547 
L 5331 3547 
L 5331 4594 
z
M 5331 3163 
L 4113 3163 
L 4113 2088 
L 5331 2088 
L 5331 3163 
z
M 434 -109 
Q 978 328 1331 984 
L 1728 769 
Q 1322 22 766 -475 
L 434 -109 
z
M 2853 -97 
Q 2559 453 2194 819 
L 2547 1038 
Q 2866 747 3231 219 
L 2853 -97 
z
" transform="scale(0.015625)"/>
      <path id="IPAexGothic-4e88" d="M 3541 3491 
Q 3644 3419 3816 3300 
Q 3944 3213 3997 3175 
L 3663 2894 
L 5603 2894 
L 5872 2625 
Q 5181 1709 4463 1069 
L 4066 1378 
Q 4722 1878 5153 2466 
L 3509 2466 
L 3509 147 
Q 3509 -150 3388 -263 
Q 3266 -384 2822 -384 
Q 2341 -384 1863 -331 
L 1766 172 
Q 2416 84 2766 84 
Q 3022 84 3022 334 
L 3022 2466 
L 513 2466 
L 513 2894 
L 3553 2894 
Q 2809 3488 1947 3963 
L 2247 4291 
Q 2741 4009 3181 3725 
Q 3941 4191 4400 4591 
L 1159 4591 
L 1159 5006 
L 4975 5006 
L 5250 4725 
Q 4428 4044 3541 3491 
z
" transform="scale(0.015625)"/>
      <path id="IPAexGothic-6e2c" d="M 3856 4884 
L 3856 1081 
L 2059 1081 
L 2059 4884 
L 3856 4884 
z
M 2456 4494 
L 2456 3756 
L 3459 3756 
L 3459 4494 
L 2456 4494 
z
M 2456 3384 
L 2456 2656 
L 3459 2656 
L 3459 3384 
L 2456 3384 
z
M 2456 2284 
L 2456 1478 
L 3459 1478 
L 3459 2284 
L 2456 2284 
z
M 1413 3891 
Q 1000 4428 556 4763 
L 856 5100 
Q 1309 4753 1734 4269 
L 1413 3891 
z
M 1222 2394 
Q 816 2878 325 3256 
L 625 3591 
Q 1141 3231 1528 2778 
L 1222 2394 
z
M 375 -78 
Q 916 800 1297 1906 
L 1669 1619 
Q 1284 478 759 -428 
L 375 -78 
z
M 3819 -256 
Q 3478 319 3128 716 
L 3469 966 
Q 3834 581 4172 63 
L 3819 -256 
z
M 4378 4513 
L 4806 4513 
L 4806 959 
L 4378 959 
L 4378 4513 
z
M 1638 -109 
Q 2103 300 2450 984 
L 2828 763 
Q 2425 -6 1944 -488 
L 1638 -109 
z
M 5419 5081 
L 5853 5081 
L 5853 109 
Q 5853 -391 5297 -391 
Q 4919 -391 4541 -359 
L 4441 109 
Q 4928 50 5219 50 
Q 5419 50 5419 244 
L 5419 5081 
z
" transform="scale(0.015625)"/>
     </defs>
     <use xlink:href="#IPAexGothic-81ea"/>
     <use xlink:href="#IPAexGothic-5df1" transform="translate(100 0)"/>
     <use xlink:href="#IPAexGothic-56de" transform="translate(200 0)"/>
     <use xlink:href="#IPAexGothic-5e30" transform="translate(300 0)"/>
     <use xlink:href="#IPAexGothic-30e2" transform="translate(400 0)"/>
     <use xlink:href="#IPAexGothic-30c7" transform="translate(500 0)"/>
     <use xlink:href="#IPAexGothic-30eb" transform="translate(600 0)"/>
     <use xlink:href="#IPAexGothic-306b" transform="translate(700 0)"/>
     <use xlink:href="#IPAexGothic-3088" transform="translate(800 0)"/>
     <use xlink:href="#IPAexGothic-308b" transform="translate(900 0)"/>
     <use xlink:href="#IPAexGothic-77ed" transform="translate(1000 0)"/>
     <use xlink:href="#IPAexGothic-671f" transform="translate(1100 0)"/>
     <use xlink:href="#IPAexGothic-4e88" transform="translate(1200 0)"/>
     <use xlink:href="#IPAexGothic-6e2c" transform="translate(1300 0)"/>
    </g>
   </g>
   <g id="legend_1">
    <g id="patch_3">
     <path d="M 356.4 230.44 
L 478.8 230.44 
Q 481.2 230.44 481.2 228.04 
L 481.2 167.35375 
Q 481.2 164.95375 478.8 164.95375 
L 356.4 164.95375 
Q 354 164.95375 354 167.35375 
L 354 228.04 
Q 354 230.44 356.4 230.44 
z
" style="fill: #ffffff; opacity: 0.8; stroke: #cccccc; stroke-linejoin: miter"/>
    </g>
    <g id="line2d_36">
     <path d="M 358.8 174.5425 
L 370.8 174.5425 
L 382.8 174.5425 
" style="fill: none; stroke: #cbd5f5; stroke-width: 1.2; stroke-linecap: square"/>
    </g>
    <g id="text_20">
     <!-- 実測値（全体） -->
     <g transform="translate(392.4 178.7425) scale(0.12 -0.12)">
      <defs>
       <path id="IPAexGothic-5b9f" d="M 3525 1275 
Q 4288 350 6022 91 
L 5738 -375 
Q 3953 -41 3219 1050 
Q 2731 -144 728 -472 
L 466 -44 
Q 2422 150 2872 1275 
L 384 1275 
L 384 1659 
L 2950 1659 
L 2950 2144 
L 966 2144 
L 966 2509 
L 2950 2509 
L 2950 2969 
L 1266 2969 
L 1266 3341 
L 2950 3341 
L 2950 3988 
L 3403 3988 
L 3403 3341 
L 5125 3341 
L 5125 2969 
L 3403 2969 
L 3403 2509 
L 5444 2509 
L 5444 2144 
L 3403 2144 
L 3403 1659 
L 6016 1659 
L 6016 1275 
L 3525 1275 
z
M 3413 4544 
L 5778 4544 
L 5778 3269 
L 5309 3269 
L 5309 4147 
L 1084 4147 
L 1084 3269 
L 616 3269 
L 616 4544 
L 2938 4544 
L 2938 5313 
L 3413 5313 
L 3413 4544 
z
" transform="scale(0.015625)"/>
       <path id="IPAexGothic-ff08" d="M 5419 -434 
Q 4197 769 4197 2438 
Q 4197 4097 5419 5300 
L 5919 5300 
Q 4678 4078 4678 2425 
Q 4678 788 5919 -434 
L 5419 -434 
z
" transform="scale(0.015625)"/>
       <path id="IPAexGothic-5168" d="M 3416 2778 
L 3416 1747 
L 5284 1747 
L 5284 1338 
L 3416 1338 
L 3416 184 
L 5859 184 
L 5859 -231 
L 547 -231 
L 547 184 
L 2941 184 
L 2941 1338 
L 1116 1338 
L 1116 1747 
L 2941 1747 
L 2941 2778 
L 1666 2778 
L 1666 3091 
Q 1188 2744 597 2472 
L 316 2847 
Q 2006 3569 2888 5197 
L 3441 5197 
Q 4491 3763 6116 3041 
L 5816 2619 
Q 4231 3413 3172 4775 
Q 2603 3834 1788 3181 
L 4803 3181 
L 4803 2778 
L 3416 2778 
z
" transform="scale(0.015625)"/>
       <path id="IPAexGothic-4f53" d="M 4253 3481 
Q 4869 2069 6041 1138 
L 5688 703 
Q 4541 1841 4069 3122 
L 4069 1228 
L 4925 1228 
L 4925 831 
L 4081 831 
L 4081 -450 
L 3613 -450 
L 3613 831 
L 2781 831 
L 2781 1228 
L 3628 1228 
L 3628 3097 
Q 3216 1703 2063 556 
L 1706 928 
Q 2844 1875 3441 3481 
L 1969 3481 
L 1969 3897 
L 3613 3897 
L 3613 5209 
L 4081 5209 
L 4081 3897 
L 5872 3897 
L 5872 3481 
L 4253 3481 
z
M 1572 3700 
L 1572 -441 
L 1119 -441 
L 1119 2778 
Q 888 2363 550 1913 
L 300 2303 
Q 1219 3575 1591 5241 
L 2041 5125 
Q 1844 4356 1572 3700 
z
" transform="scale(0.015625)"/>
       <path id="IPAexGothic-ff09" d="M 481 -434 
Q 1722 788 1722 2431 
Q 1722 4066 481 5300 
L 981 5300 
Q 2203 4097 2203 2431 
Q 2203 769 981 -434 
L 481 -434 
z
" transform="scale(0.015625)"/>
      </defs>
      <use xlink:href="#IPAexGothic-5b9f"/>
      <use xlink:href="#IPAexGothic-6e2c" transform="translate(100 0)"/>
      <use xlink:href="#IPAexGothic-5024" transform="translate(200 0)"/>
      <use xlink:href="#IPAexGothic-ff08" transform="translate(300 0)"/>
      <use xlink:href="#IPAexGothic-5168" transform="translate(400 0)"/>
      <use xlink:href="#IPAexGothic-4f53" transform="translate(500 0)"/>
      <use xlink:href="#IPAexGothic-ff09" transform="translate(600 0)"/>
     </g>
    </g>
    <g id="line2d_37">
     <path d="M 358.8 196.61125 
L 370.8 196.61125 
L 382.8 196.61125 
" style="fill: none; stroke: #2563eb; stroke-width: 1.2; stroke-linecap: square"/>
    </g>
    <g id="text_21">
     <!-- 学習区間 -->
     <g transform="translate(392.4 200.81125) scale(0.12 -0.12)">
      <defs>
       <path id="IPAexGothic-5b66" d="M 1706 4050 
L 1688 4088 
Q 1525 4513 1244 4959 
L 1681 5150 
Q 1947 4791 2200 4216 
L 1763 4050 
L 3941 4050 
Q 4359 4628 4653 5234 
L 5138 5016 
Q 4822 4488 4472 4050 
L 5797 4050 
L 5797 2675 
L 5338 2675 
L 5338 3653 
L 1072 3653 
L 1072 2675 
L 613 2675 
L 613 4050 
L 1706 4050 
z
M 3444 1888 
L 3444 1650 
L 6078 1650 
L 6078 1241 
L 3475 1241 
L 3475 91 
Q 3475 -428 2834 -428 
Q 2319 -428 1875 -366 
L 1784 128 
Q 2278 25 2744 25 
Q 2994 25 2994 263 
L 2994 1241 
L 319 1241 
L 319 1650 
L 2969 1650 
L 2969 2113 
L 3000 2125 
Q 3559 2338 4116 2675 
L 1466 2675 
L 1466 3078 
L 4756 3078 
L 5019 2822 
Q 4338 2309 3444 1888 
z
M 3019 4072 
Q 2831 4609 2572 5044 
L 3006 5228 
Q 3275 4822 3500 4250 
L 3019 4072 
z
" transform="scale(0.015625)"/>
       <path id="IPAexGothic-7fd2" d="M 3006 5063 
L 3006 3047 
Q 3006 2781 2878 2675 
Q 2769 2584 2481 2584 
Q 2078 2584 1772 2631 
L 1716 3072 
Q 2159 2988 2347 2988 
Q 2566 2988 2566 3219 
L 2566 4678 
L 466 4678 
L 466 5063 
L 3006 5063 
z
M 5778 5063 
L 5778 3041 
Q 5778 2584 5288 2584 
Q 4916 2584 4519 2631 
L 4441 3066 
Q 4856 2988 5131 2988 
Q 5338 2988 5338 3206 
L 5338 4678 
L 3238 4678 
L 3238 5063 
L 5778 5063 
z
M 2866 2119 
Q 2950 2356 3013 2669 
L 3500 2572 
Q 3409 2322 3306 2119 
L 5325 2119 
L 5325 -447 
L 4856 -447 
L 4856 -172 
L 1619 -172 
L 1619 -447 
L 1150 -447 
L 1150 2119 
L 2866 2119 
z
M 1619 1747 
L 1619 1197 
L 4856 1197 
L 4856 1747 
L 1619 1747 
z
M 1619 831 
L 1619 206 
L 4856 206 
L 4856 831 
L 1619 831 
z
M 1594 3681 
Q 1219 4044 778 4341 
L 1056 4609 
Q 1525 4325 1869 3981 
L 1594 3681 
z
M 4269 3694 
Q 3816 4066 3403 4341 
L 3684 4622 
Q 4203 4294 4556 3994 
L 4269 3694 
z
M 447 2950 
Q 1328 3347 2225 3969 
L 2353 3622 
Q 1581 3056 691 2606 
L 447 2950 
z
M 3231 3059 
Q 4138 3444 4978 4031 
L 5113 3675 
Q 4281 3066 3463 2700 
L 3231 3059 
z
" transform="scale(0.015625)"/>
       <path id="IPAexGothic-533a" d="M 1294 4391 
L 1294 403 
L 5838 403 
L 5838 -25 
L 1294 -25 
L 1294 -447 
L 806 -447 
L 806 4819 
L 5678 4819 
L 5678 4391 
L 1294 4391 
z
M 3278 2375 
Q 2669 2909 1819 3500 
L 2125 3794 
Q 2881 3281 3547 2725 
Q 3959 3319 4306 4172 
L 4744 4000 
Q 4322 3038 3891 2431 
Q 4438 1959 5203 1216 
L 4850 856 
Q 4206 1534 3616 2075 
Q 2963 1284 1856 659 
L 1534 1013 
Q 2569 1553 3278 2375 
z
" transform="scale(0.015625)"/>
       <path id="IPAexGothic-9593" d="M 4450 2566 
L 4450 353 
L 2375 353 
L 2375 -25 
L 1953 -25 
L 1953 2566 
L 4450 2566 
z
M 4028 2200 
L 2375 2200 
L 2375 1653 
L 4028 1653 
L 4028 2200 
z
M 4028 1300 
L 2375 1300 
L 2375 719 
L 4028 719 
L 4028 1300 
z
M 2913 5019 
L 2913 3059 
L 1056 3059 
L 1056 -447 
L 609 -447 
L 609 5019 
L 2913 5019 
z
M 1056 4659 
L 1056 4206 
L 2497 4206 
L 2497 4659 
L 1056 4659 
z
M 1056 3881 
L 1056 3413 
L 2497 3413 
L 2497 3881 
L 1056 3881 
z
M 5788 5019 
L 5788 91 
Q 5788 -225 5641 -331 
Q 5525 -409 5231 -409 
Q 4803 -409 4481 -366 
L 4419 97 
Q 4853 38 5128 38 
Q 5341 38 5341 244 
L 5341 3059 
L 3438 3059 
L 3438 5019 
L 5788 5019 
z
M 3853 4659 
L 3853 4206 
L 5341 4206 
L 5341 4659 
L 3853 4659 
z
M 3853 3881 
L 3853 3413 
L 5341 3413 
L 5341 3881 
L 3853 3881 
z
" transform="scale(0.015625)"/>
      </defs>
      <use xlink:href="#IPAexGothic-5b66"/>
      <use xlink:href="#IPAexGothic-7fd2" transform="translate(100 0)"/>
      <use xlink:href="#IPAexGothic-533a" transform="translate(200 0)"/>
      <use xlink:href="#IPAexGothic-9593" transform="translate(300 0)"/>
     </g>
    </g>
    <g id="line2d_38">
     <path d="M 358.8 219.16 
L 370.8 219.16 
L 382.8 219.16 
" style="fill: none; stroke: #f97316; stroke-width: 1.6; stroke-linecap: square"/>
    </g>
    <g id="text_22">
     <!-- AR(3) 予測 -->
     <g transform="translate(392.4 223.36) scale(0.12 -0.12)">
      <defs>
       <path id="IPAexGothic-41" d="M 4056 63 
L 3444 63 
L 2938 1409 
L 1100 1409 
L 603 63 
L -6 63 
L 1806 4666 
L 2259 4666 
L 4056 63 
z
M 2778 1863 
L 2316 3078 
Q 2125 3588 2028 4000 
L 2009 4000 
Q 1897 3563 1716 3078 
L 1263 1863 
L 2778 1863 
z
" transform="scale(0.015625)"/>
       <path id="IPAexGothic-52" d="M 4072 63 
L 3394 63 
Q 3138 641 2828 1197 
Q 2584 1641 2344 1825 
Q 2050 2044 1625 2044 
L 1172 2044 
L 1172 63 
L 609 63 
L 609 4634 
L 2009 4634 
Q 2713 4634 3131 4378 
Q 3688 4044 3688 3381 
Q 3688 2784 3181 2459 
Q 2906 2272 2522 2216 
L 2522 2197 
Q 2941 2050 3247 1581 
Q 3516 1166 4072 63 
z
M 1172 2478 
L 1869 2478 
Q 3106 2478 3106 3369 
Q 3106 4181 1928 4181 
L 1172 4181 
L 1172 2478 
z
" transform="scale(0.015625)"/>
       <path id="IPAexGothic-28" d="M 1928 -1016 
L 1653 -1166 
Q 488 69 488 1875 
Q 488 3678 1653 4909 
L 1928 4763 
Q 1006 3522 1006 1881 
Q 1006 203 1928 -1016 
z
" transform="scale(0.015625)"/>
       <path id="IPAexGothic-29" d="M 466 4909 
Q 1638 3672 1638 1875 
Q 1638 75 466 -1166 
L 191 -1016 
Q 1119 216 1119 1881 
Q 1119 3509 191 4763 
L 466 4909 
z
" transform="scale(0.015625)"/>
       <path id="IPAexGothic-20" transform="scale(0.015625)"/>
      </defs>
      <use xlink:href="#IPAexGothic-41"/>
      <use xlink:href="#IPAexGothic-52" transform="translate(63.720703 0)"/>
      <use xlink:href="#IPAexGothic-28" transform="translate(128.515625 0)"/>
      <use xlink:href="#IPAexGothic-33" transform="translate(161.816406 0)"/>
      <use xlink:href="#IPAexGothic-29" transform="translate(224.804688 0)"/>
      <use xlink:href="#IPAexGothic-20" transform="translate(258.105469 0)"/>
      <use xlink:href="#IPAexGothic-4e88" transform="translate(285.107422 0)"/>
      <use xlink:href="#IPAexGothic-6e2c" transform="translate(385.107422 0)"/>
     </g>
    </g>
   </g>
  </g>
 </g>
 <defs>
  <clipPath id="pdb21c81f16">
   <rect x="49.25" y="30.48" width="443.95" height="211.96"/>
  </clipPath>
 </defs>
</svg>
