<?xml version="1.0" encoding="utf-8" standalone="no"?>
<!DOCTYPE svg PUBLIC "-//W3C//DTD SVG 1.1//EN"
  "http://www.w3.org/Graphics/SVG/1.1/DTD/svg11.dtd">
<svg xmlns:xlink="http://www.w3.org/1999/xlink" width="504pt" height="288pt" viewBox="0 0 504 288" xmlns="http://www.w3.org/2000/svg" version="1.1">
 <metadata>
  <rdf:RDF xmlns:dc="http://purl.org/dc/elements/1.1/" xmlns:cc="http://creativecommons.org/ns#" xmlns:rdf="http://www.w3.org/1999/02/22-rdf-syntax-ns#">
   <cc:Work>
    <dc:type rdf:resource="http://purl.org/dc/dcmitype/StillImage"/>
    <dc:date>2025-10-27T10:38:07.946528</dc:date>
    <dc:format>image/svg+xml</dc:format>
    <dc:creator>
     <cc:Agent>
      <dc:title>Matplotlib v3.10.7, https://matplotlib.org/</dc:title>
     </cc:Agent>
    </dc:creator>
   </cc:Work>
  </rdf:RDF>
 </metadata>
 <defs>
  <style type="text/css">*{stroke-linejoin: round; stroke-linecap: butt}</style>
 </defs>
 <g id="figure_1">
  <g id="patch_1">
   <path d="M 0 288 
L 504 288 
L 504 0 
L 0 0 
z
" style="fill: #ffffff"/>
  </g>
  <g id="axes_1">
   <g id="patch_2">
    <path d="M 55.1 242.44 
L 482.825865 242.44 
L 482.825865 30.48 
L 55.1 30.48 
z
" style="fill: #ffffff"/>
   </g>
   <g id="matplotlib.axis_1">
    <g id="xtick_1">
     <g id="line2d_1">
      <path d="M 74.542085 242.44 
L 74.542085 30.48 
" clip-path="url(#p4d3d2b9a5c)" style="fill: none; stroke: #000000; stroke-opacity: 0.3; stroke-width: 0.5; stroke-linecap: square"/>
     </g>
     <g id="line2d_2">
      <defs>
       <path id="mebc9f9dc0e" d="M 0 0 
L 0 3.5 
" style="stroke: #000000; stroke-width: 0.8"/>
      </defs>
      <g>
       <use xlink:href="#mebc9f9dc0e" x="74.542085" y="242.44" style="stroke: #000000; stroke-width: 0.8"/>
      </g>
     </g>
     <g id="text_1">
      <!-- 2020-01 -->
      <g transform="translate(53.856929 256.930625) scale(0.1 -0.1)">
       <defs>
        <path id="IPAexGothic-32" d="M 3659 63 
L 447 63 
L 447 594 
Q 825 1475 1894 2203 
L 2072 2322 
Q 2619 2697 2791 2906 
Q 2988 3153 2988 3444 
Q 2988 3772 2756 4003 
Q 2500 4259 2084 4259 
Q 1250 4259 991 3328 
L 497 3506 
Q 853 4725 2116 4725 
Q 2806 4725 3216 4316 
Q 3575 3947 3575 3425 
Q 3575 3038 3344 2722 
Q 3131 2416 2366 1938 
L 2231 1856 
Q 1256 1253 978 569 
L 3659 569 
L 3659 63 
z
" transform="scale(0.015625)"/>
        <path id="IPAexGothic-30" d="M 2038 4725 
Q 2881 4725 3334 3944 
Q 3694 3325 3694 2344 
Q 3694 1372 3334 741 
Q 2888 -31 2016 -31 
Q 1147 -31 700 741 
Q 341 1372 341 2350 
Q 341 3713 1000 4334 
Q 1419 4725 2038 4725 
z
M 2016 4266 
Q 1516 4266 1228 3759 
Q 934 3247 934 2344 
Q 934 1456 1222 947 
Q 1513 447 2016 447 
Q 2619 447 2909 1153 
Q 3100 1622 3100 2375 
Q 3100 3256 2806 3759 
Q 2509 4266 2016 4266 
z
" transform="scale(0.015625)"/>
        <path id="IPAexGothic-2d" d="M 1969 1703 
L 319 1703 
L 319 2203 
L 1969 2203 
L 1969 1703 
z
" transform="scale(0.015625)"/>
        <path id="IPAexGothic-31" d="M 2463 63 
L 1900 63 
L 1900 4103 
Q 1372 3922 788 3797 
L 684 4231 
Q 1519 4441 2106 4731 
L 2463 4731 
L 2463 63 
z
" transform="scale(0.015625)"/>
       </defs>
       <use xlink:href="#IPAexGothic-32"/>
       <use xlink:href="#IPAexGothic-30" transform="translate(62.988281 0)"/>
       <use xlink:href="#IPAexGothic-32" transform="translate(125.976562 0)"/>
       <use xlink:href="#IPAexGothic-30" transform="translate(188.964844 0)"/>
       <use xlink:href="#IPAexGothic-2d" transform="translate(251.953125 0)"/>
       <use xlink:href="#IPAexGothic-30" transform="translate(287.744141 0)"/>
       <use xlink:href="#IPAexGothic-31" transform="translate(350.732422 0)"/>
      </g>
     </g>
    </g>
    <g id="xtick_2">
     <g id="line2d_3">
      <path d="M 124.977619 242.44 
L 124.977619 30.48 
" clip-path="url(#p4d3d2b9a5c)" style="fill: none; stroke: #000000; stroke-opacity: 0.3; stroke-width: 0.5; stroke-linecap: square"/>
     </g>
     <g id="line2d_4">
      <g>
       <use xlink:href="#mebc9f9dc0e" x="124.977619" y="242.44" style="stroke: #000000; stroke-width: 0.8"/>
      </g>
     </g>
     <g id="text_2">
      <!-- 2020-02 -->
      <g transform="translate(104.292462 256.930625) scale(0.1 -0.1)">
       <use xlink:href="#IPAexGothic-32"/>
       <use xlink:href="#IPAexGothic-30" transform="translate(62.988281 0)"/>
       <use xlink:href="#IPAexGothic-32" transform="translate(125.976562 0)"/>
       <use xlink:href="#IPAexGothic-30" transform="translate(188.964844 0)"/>
       <use xlink:href="#IPAexGothic-2d" transform="translate(251.953125 0)"/>
       <use xlink:href="#IPAexGothic-30" transform="translate(287.744141 0)"/>
       <use xlink:href="#IPAexGothic-32" transform="translate(350.732422 0)"/>
      </g>
     </g>
    </g>
    <g id="xtick_3">
     <g id="line2d_5">
      <path d="M 172.159247 242.44 
L 172.159247 30.48 
" clip-path="url(#p4d3d2b9a5c)" style="fill: none; stroke: #000000; stroke-opacity: 0.3; stroke-width: 0.5; stroke-linecap: square"/>
     </g>
     <g id="line2d_6">
      <g>
       <use xlink:href="#mebc9f9dc0e" x="172.159247" y="242.44" style="stroke: #000000; stroke-width: 0.8"/>
      </g>
     </g>
     <g id="text_3">
      <!-- 2020-03 -->
      <g transform="translate(151.474091 256.930625) scale(0.1 -0.1)">
       <defs>
        <path id="IPAexGothic-33" d="M 2381 2419 
Q 3506 2216 3506 1278 
Q 3506 716 3128 356 
Q 2709 -31 1944 -31 
Q 797 -31 288 881 
L 756 1131 
Q 1109 441 1938 441 
Q 2425 441 2694 691 
Q 2950 928 2950 1291 
Q 2950 1719 2566 1978 
Q 2216 2213 1644 2213 
L 1363 2213 
L 1363 2669 
L 1656 2669 
Q 2231 2669 2534 2888 
Q 2859 3119 2859 3509 
Q 2859 3934 2494 4138 
Q 2259 4278 1931 4278 
Q 1238 4278 903 3578 
L 434 3803 
Q 897 4725 1938 4725 
Q 2597 4725 3006 4394 
Q 3416 4069 3416 3534 
Q 3416 3028 3019 2706 
Q 2763 2500 2381 2444 
L 2381 2419 
z
" transform="scale(0.015625)"/>
       </defs>
       <use xlink:href="#IPAexGothic-32"/>
       <use xlink:href="#IPAexGothic-30" transform="translate(62.988281 0)"/>
       <use xlink:href="#IPAexGothic-32" transform="translate(125.976562 0)"/>
       <use xlink:href="#IPAexGothic-30" transform="translate(188.964844 0)"/>
       <use xlink:href="#IPAexGothic-2d" transform="translate(251.953125 0)"/>
       <use xlink:href="#IPAexGothic-30" transform="translate(287.744141 0)"/>
       <use xlink:href="#IPAexGothic-33" transform="translate(350.732422 0)"/>
      </g>
     </g>
    </g>
    <g id="xtick_4">
     <g id="line2d_7">
      <path d="M 222.594781 242.44 
L 222.594781 30.48 
" clip-path="url(#p4d3d2b9a5c)" style="fill: none; stroke: #000000; stroke-opacity: 0.3; stroke-width: 0.5; stroke-linecap: square"/>
     </g>
     <g id="line2d_8">
      <g>
       <use xlink:href="#mebc9f9dc0e" x="222.594781" y="242.44" style="stroke: #000000; stroke-width: 0.8"/>
      </g>
     </g>
     <g id="text_4">
      <!-- 2020-04 -->
      <g transform="translate(201.909624 256.930625) scale(0.1 -0.1)">
       <defs>
        <path id="IPAexGothic-34" d="M 3813 1159 
L 3059 1159 
L 3059 63 
L 2547 63 
L 2547 1159 
L 197 1159 
L 197 1672 
L 2456 4678 
L 3059 4678 
L 3059 1634 
L 3813 1634 
L 3813 1159 
z
M 2578 4109 
L 2559 4109 
Q 2278 3656 2003 3284 
L 759 1634 
L 2547 1634 
L 2547 3144 
Q 2547 3481 2578 4109 
z
" transform="scale(0.015625)"/>
       </defs>
       <use xlink:href="#IPAexGothic-32"/>
       <use xlink:href="#IPAexGothic-30" transform="translate(62.988281 0)"/>
       <use xlink:href="#IPAexGothic-32" transform="translate(125.976562 0)"/>
       <use xlink:href="#IPAexGothic-30" transform="translate(188.964844 0)"/>
       <use xlink:href="#IPAexGothic-2d" transform="translate(251.953125 0)"/>
       <use xlink:href="#IPAexGothic-30" transform="translate(287.744141 0)"/>
       <use xlink:href="#IPAexGothic-34" transform="translate(350.732422 0)"/>
      </g>
     </g>
    </g>
    <g id="xtick_5">
     <g id="line2d_9">
      <path d="M 271.403362 242.44 
L 271.403362 30.48 
" clip-path="url(#p4d3d2b9a5c)" style="fill: none; stroke: #000000; stroke-opacity: 0.3; stroke-width: 0.5; stroke-linecap: square"/>
     </g>
     <g id="line2d_10">
      <g>
       <use xlink:href="#mebc9f9dc0e" x="271.403362" y="242.44" style="stroke: #000000; stroke-width: 0.8"/>
      </g>
     </g>
     <g id="text_5">
      <!-- 2020-05 -->
      <g transform="translate(250.718205 256.930625) scale(0.1 -0.1)">
       <defs>
        <path id="IPAexGothic-35" d="M 1178 2603 
Q 1634 2963 2172 2963 
Q 2816 2963 3241 2528 
Q 3638 2113 3638 1497 
Q 3638 938 3297 513 
Q 2869 -31 2031 -31 
Q 959 -31 469 784 
L 938 1028 
Q 1309 434 2013 434 
Q 2466 434 2769 716 
Q 3081 1013 3081 1503 
Q 3081 1966 2806 2241 
Q 2519 2528 2056 2528 
Q 1406 2528 1072 2028 
L 591 2091 
L 884 4634 
L 3406 4634 
L 3406 4153 
L 1341 4153 
L 1134 2603 
L 1178 2603 
z
" transform="scale(0.015625)"/>
       </defs>
       <use xlink:href="#IPAexGothic-32"/>
       <use xlink:href="#IPAexGothic-30" transform="translate(62.988281 0)"/>
       <use xlink:href="#IPAexGothic-32" transform="translate(125.976562 0)"/>
       <use xlink:href="#IPAexGothic-30" transform="translate(188.964844 0)"/>
       <use xlink:href="#IPAexGothic-2d" transform="translate(251.953125 0)"/>
       <use xlink:href="#IPAexGothic-30" transform="translate(287.744141 0)"/>
       <use xlink:href="#IPAexGothic-35" transform="translate(350.732422 0)"/>
      </g>
     </g>
    </g>
    <g id="xtick_6">
     <g id="line2d_11">
      <path d="M 321.838895 242.44 
L 321.838895 30.48 
" clip-path="url(#p4d3d2b9a5c)" style="fill: none; stroke: #000000; stroke-opacity: 0.3; stroke-width: 0.5; stroke-linecap: square"/>
     </g>
     <g id="line2d_12">
      <g>
       <use xlink:href="#mebc9f9dc0e" x="321.838895" y="242.44" style="stroke: #000000; stroke-width: 0.8"/>
      </g>
     </g>
     <g id="text_6">
      <!-- 2020-06 -->
      <g transform="translate(301.153739 256.930625) scale(0.1 -0.1)">
       <defs>
        <path id="IPAexGothic-36" d="M 1056 2328 
Q 1509 2981 2234 2981 
Q 2906 2981 3316 2513 
Q 3675 2106 3675 1522 
Q 3675 884 3272 434 
Q 2853 -31 2178 -31 
Q 1375 -31 922 581 
Q 481 1178 481 2228 
Q 481 3425 1013 4109 
Q 1494 4725 2272 4725 
Q 3191 4725 3609 4025 
L 3150 3775 
Q 2894 4266 2300 4266 
Q 1119 4266 1031 2328 
L 1056 2328 
z
M 2141 2547 
Q 1684 2547 1384 2206 
Q 1116 1900 1116 1541 
Q 1116 1156 1353 844 
Q 1672 428 2159 428 
Q 2669 428 2941 844 
Q 3125 1128 3125 1503 
Q 3125 1944 2881 2228 
Q 2600 2547 2141 2547 
z
" transform="scale(0.015625)"/>
       </defs>
       <use xlink:href="#IPAexGothic-32"/>
       <use xlink:href="#IPAexGothic-30" transform="translate(62.988281 0)"/>
       <use xlink:href="#IPAexGothic-32" transform="translate(125.976562 0)"/>
       <use xlink:href="#IPAexGothic-30" transform="translate(188.964844 0)"/>
       <use xlink:href="#IPAexGothic-2d" transform="translate(251.953125 0)"/>
       <use xlink:href="#IPAexGothic-30" transform="translate(287.744141 0)"/>
       <use xlink:href="#IPAexGothic-36" transform="translate(350.732422 0)"/>
      </g>
     </g>
    </g>
    <g id="xtick_7">
     <g id="line2d_13">
      <path d="M 370.647477 242.44 
L 370.647477 30.48 
" clip-path="url(#p4d3d2b9a5c)" style="fill: none; stroke: #000000; stroke-opacity: 0.3; stroke-width: 0.5; stroke-linecap: square"/>
     </g>
     <g id="line2d_14">
      <g>
       <use xlink:href="#mebc9f9dc0e" x="370.647477" y="242.44" style="stroke: #000000; stroke-width: 0.8"/>
      </g>
     </g>
     <g id="text_7">
      <!-- 2020-07 -->
      <g transform="translate(349.96232 256.930625) scale(0.1 -0.1)">
       <defs>
        <path id="IPAexGothic-37" d="M 3597 4263 
Q 2238 2106 1778 63 
L 1131 63 
Q 1581 1834 2950 4128 
L 428 4128 
L 428 4634 
L 3597 4634 
L 3597 4263 
z
" transform="scale(0.015625)"/>
       </defs>
       <use xlink:href="#IPAexGothic-32"/>
       <use xlink:href="#IPAexGothic-30" transform="translate(62.988281 0)"/>
       <use xlink:href="#IPAexGothic-32" transform="translate(125.976562 0)"/>
       <use xlink:href="#IPAexGothic-30" transform="translate(188.964844 0)"/>
       <use xlink:href="#IPAexGothic-2d" transform="translate(251.953125 0)"/>
       <use xlink:href="#IPAexGothic-30" transform="translate(287.744141 0)"/>
       <use xlink:href="#IPAexGothic-37" transform="translate(350.732422 0)"/>
      </g>
     </g>
    </g>
    <g id="xtick_8">
     <g id="line2d_15">
      <path d="M 421.08301 242.44 
L 421.08301 30.48 
" clip-path="url(#p4d3d2b9a5c)" style="fill: none; stroke: #000000; stroke-opacity: 0.3; stroke-width: 0.5; stroke-linecap: square"/>
     </g>
     <g id="line2d_16">
      <g>
       <use xlink:href="#mebc9f9dc0e" x="421.08301" y="242.44" style="stroke: #000000; stroke-width: 0.8"/>
      </g>
     </g>
     <g id="text_8">
      <!-- 2020-08 -->
      <g transform="translate(400.397854 256.930625) scale(0.1 -0.1)">
       <defs>
        <path id="IPAexGothic-38" d="M 2541 2425 
Q 3700 2031 3700 1197 
Q 3700 541 3100 197 
Q 2663 -56 2016 -56 
Q 1366 -56 928 197 
Q 347 531 347 1178 
Q 347 1988 1409 2381 
L 1409 2400 
Q 481 2734 481 3509 
Q 481 4100 981 4456 
Q 1406 4756 2019 4756 
Q 2703 4756 3131 4403 
Q 3553 4069 3553 3566 
Q 3553 2706 2541 2444 
L 2541 2425 
z
M 2022 2625 
Q 2997 2856 2997 3528 
Q 2997 3916 2675 4150 
Q 2413 4347 2016 4347 
Q 1606 4347 1331 4128 
Q 1050 3897 1050 3522 
Q 1050 3150 1350 2925 
Q 1494 2809 1722 2722 
Q 1984 2616 2022 2625 
z
M 1978 2209 
Q 922 1931 922 1216 
Q 922 775 1313 556 
Q 1606 391 2009 391 
Q 2575 391 2881 697 
Q 3106 922 3106 1250 
Q 3106 1594 2794 1850 
Q 2609 1994 2350 2100 
Q 2047 2222 1978 2209 
z
" transform="scale(0.015625)"/>
       </defs>
       <use xlink:href="#IPAexGothic-32"/>
       <use xlink:href="#IPAexGothic-30" transform="translate(62.988281 0)"/>
       <use xlink:href="#IPAexGothic-32" transform="translate(125.976562 0)"/>
       <use xlink:href="#IPAexGothic-30" transform="translate(188.964844 0)"/>
       <use xlink:href="#IPAexGothic-2d" transform="translate(251.953125 0)"/>
       <use xlink:href="#IPAexGothic-30" transform="translate(287.744141 0)"/>
       <use xlink:href="#IPAexGothic-38" transform="translate(350.732422 0)"/>
      </g>
     </g>
    </g>
    <g id="xtick_9">
     <g id="line2d_17">
      <path d="M 471.518544 242.44 
L 471.518544 30.48 
" clip-path="url(#p4d3d2b9a5c)" style="fill: none; stroke: #000000; stroke-opacity: 0.3; stroke-width: 0.5; stroke-linecap: square"/>
     </g>
     <g id="line2d_18">
      <g>
       <use xlink:href="#mebc9f9dc0e" x="471.518544" y="242.44" style="stroke: #000000; stroke-width: 0.8"/>
      </g>
     </g>
     <g id="text_9">
      <!-- 2020-09 -->
      <g transform="translate(450.833388 256.930625) scale(0.1 -0.1)">
       <defs>
        <path id="IPAexGothic-39" d="M 2984 2356 
Q 2544 1716 1813 1716 
Q 1253 1716 847 2056 
Q 366 2459 366 3163 
Q 366 3813 769 4266 
Q 1181 4725 1869 4725 
Q 2800 4725 3241 3950 
Q 3559 3378 3559 2472 
Q 3559 1250 3041 588 
Q 2553 -31 1769 -31 
Q 859 -31 391 703 
L 853 953 
Q 1156 428 1753 428 
Q 2922 428 3009 2356 
L 2984 2356 
z
M 1888 4278 
Q 1450 4278 1172 3950 
Q 922 3653 922 3200 
Q 922 2741 1159 2478 
Q 1434 2163 1906 2163 
Q 2431 2163 2728 2572 
Q 2925 2847 2925 3169 
Q 2925 3553 2694 3863 
Q 2375 4278 1888 4278 
z
" transform="scale(0.015625)"/>
       </defs>
       <use xlink:href="#IPAexGothic-32"/>
       <use xlink:href="#IPAexGothic-30" transform="translate(62.988281 0)"/>
       <use xlink:href="#IPAexGothic-32" transform="translate(125.976562 0)"/>
       <use xlink:href="#IPAexGothic-30" transform="translate(188.964844 0)"/>
       <use xlink:href="#IPAexGothic-2d" transform="translate(251.953125 0)"/>
       <use xlink:href="#IPAexGothic-30" transform="translate(287.744141 0)"/>
       <use xlink:href="#IPAexGothic-39" transform="translate(350.732422 0)"/>
      </g>
     </g>
    </g>
    <g id="text_10">
     <!-- 日付 -->
     <g transform="translate(254.562933 273.617125) scale(0.144 -0.144)">
      <defs>
       <path id="IPAexGothic-65e5" d="M 5231 4800 
L 5231 -288 
L 4744 -288 
L 4744 128 
L 1647 128 
L 1647 -288 
L 1159 -288 
L 1159 4800 
L 5231 4800 
z
M 1647 4372 
L 1647 2731 
L 4744 2731 
L 4744 4372 
L 1647 4372 
z
M 1647 2297 
L 1647 556 
L 4744 556 
L 4744 2297 
L 1647 2297 
z
" transform="scale(0.015625)"/>
       <path id="IPAexGothic-4ed8" d="M 1681 3769 
L 1681 -447 
L 1213 -447 
L 1213 2822 
Q 913 2313 578 1863 
L 316 2253 
Q 1241 3463 1653 5184 
L 2128 5069 
Q 1928 4378 1719 3859 
L 1681 3769 
z
M 5084 3816 
L 5991 3816 
L 5991 3388 
L 5109 3388 
L 5109 213 
Q 5109 -78 5006 -191 
Q 4888 -319 4525 -319 
Q 4031 -319 3513 -266 
L 3431 238 
Q 3978 141 4403 141 
Q 4634 141 4634 384 
L 4634 3388 
L 2028 3388 
L 2028 3816 
L 4609 3816 
L 4609 5153 
L 5084 5153 
L 5084 3816 
z
M 3431 1172 
Q 3034 1994 2547 2566 
L 2931 2822 
Q 3428 2231 3853 1472 
L 3431 1172 
z
" transform="scale(0.015625)"/>
      </defs>
      <use xlink:href="#IPAexGothic-65e5"/>
      <use xlink:href="#IPAexGothic-4ed8" transform="translate(100 0)"/>
     </g>
    </g>
   </g>
   <g id="matplotlib.axis_2">
    <g id="ytick_1">
     <g id="line2d_19">
      <path d="M 55.1 240.585773 
L 482.825865 240.585773 
" clip-path="url(#p4d3d2b9a5c)" style="fill: none; stroke: #000000; stroke-opacity: 0.3; stroke-width: 0.5; stroke-linecap: square"/>
     </g>
     <g id="line2d_20">
      <defs>
       <path id="m4287456d0d" d="M 0 0 
L -3.5 0 
" style="stroke: #000000; stroke-width: 0.8"/>
      </defs>
      <g>
       <use xlink:href="#m4287456d0d" x="55.1" y="240.585773" style="stroke: #000000; stroke-width: 0.8"/>
      </g>
     </g>
     <g id="text_11">
      <!-- 75 -->
      <g transform="translate(35.503125 244.331085) scale(0.1 -0.1)">
       <use xlink:href="#IPAexGothic-37"/>
       <use xlink:href="#IPAexGothic-35" transform="translate(62.988281 0)"/>
      </g>
     </g>
    </g>
    <g id="ytick_2">
     <g id="line2d_21">
      <path d="M 55.1 214.53462 
L 482.825865 214.53462 
" clip-path="url(#p4d3d2b9a5c)" style="fill: none; stroke: #000000; stroke-opacity: 0.3; stroke-width: 0.5; stroke-linecap: square"/>
     </g>
     <g id="line2d_22">
      <g>
       <use xlink:href="#m4287456d0d" x="55.1" y="214.53462" style="stroke: #000000; stroke-width: 0.8"/>
      </g>
     </g>
     <g id="text_12">
      <!-- 80 -->
      <g transform="translate(35.503125 218.279932) scale(0.1 -0.1)">
       <use xlink:href="#IPAexGothic-38"/>
       <use xlink:href="#IPAexGothic-30" transform="translate(62.988281 0)"/>
      </g>
     </g>
    </g>
    <g id="ytick_3">
     <g id="line2d_23">
      <path d="M 55.1 188.483467 
L 482.825865 188.483467 
" clip-path="url(#p4d3d2b9a5c)" style="fill: none; stroke: #000000; stroke-opacity: 0.3; stroke-width: 0.5; stroke-linecap: square"/>
     </g>
     <g id="line2d_24">
      <g>
       <use xlink:href="#m4287456d0d" x="55.1" y="188.483467" style="stroke: #000000; stroke-width: 0.8"/>
      </g>
     </g>
     <g id="text_13">
      <!-- 85 -->
      <g transform="translate(35.503125 192.228779) scale(0.1 -0.1)">
       <use xlink:href="#IPAexGothic-38"/>
       <use xlink:href="#IPAexGothic-35" transform="translate(62.988281 0)"/>
      </g>
     </g>
    </g>
    <g id="ytick_4">
     <g id="line2d_25">
      <path d="M 55.1 162.432314 
L 482.825865 162.432314 
" clip-path="url(#p4d3d2b9a5c)" style="fill: none; stroke: #000000; stroke-opacity: 0.3; stroke-width: 0.5; stroke-linecap: square"/>
     </g>
     <g id="line2d_26">
      <g>
       <use xlink:href="#m4287456d0d" x="55.1" y="162.432314" style="stroke: #000000; stroke-width: 0.8"/>
      </g>
     </g>
     <g id="text_14">
      <!-- 90 -->
      <g transform="translate(35.503125 166.177626) scale(0.1 -0.1)">
       <use xlink:href="#IPAexGothic-39"/>
       <use xlink:href="#IPAexGothic-30" transform="translate(62.988281 0)"/>
      </g>
     </g>
    </g>
    <g id="ytick_5">
     <g id="line2d_27">
      <path d="M 55.1 136.381161 
L 482.825865 136.381161 
" clip-path="url(#p4d3d2b9a5c)" style="fill: none; stroke: #000000; stroke-opacity: 0.3; stroke-width: 0.5; stroke-linecap: square"/>
     </g>
     <g id="line2d_28">
      <g>
       <use xlink:href="#m4287456d0d" x="55.1" y="136.381161" style="stroke: #000000; stroke-width: 0.8"/>
      </g>
     </g>
     <g id="text_15">
      <!-- 95 -->
      <g transform="translate(35.503125 140.126474) scale(0.1 -0.1)">
       <use xlink:href="#IPAexGothic-39"/>
       <use xlink:href="#IPAexGothic-35" transform="translate(62.988281 0)"/>
      </g>
     </g>
    </g>
    <g id="ytick_6">
     <g id="line2d_29">
      <path d="M 55.1 110.330008 
L 482.825865 110.330008 
" clip-path="url(#p4d3d2b9a5c)" style="fill: none; stroke: #000000; stroke-opacity: 0.3; stroke-width: 0.5; stroke-linecap: square"/>
     </g>
     <g id="line2d_30">
      <g>
       <use xlink:href="#m4287456d0d" x="55.1" y="110.330008" style="stroke: #000000; stroke-width: 0.8"/>
      </g>
     </g>
     <g id="text_16">
      <!-- 100 -->
      <g transform="translate(29.204688 114.075321) scale(0.1 -0.1)">
       <use xlink:href="#IPAexGothic-31"/>
       <use xlink:href="#IPAexGothic-30" transform="translate(62.988281 0)"/>
       <use xlink:href="#IPAexGothic-30" transform="translate(125.976562 0)"/>
      </g>
     </g>
    </g>
    <g id="ytick_7">
     <g id="line2d_31">
      <path d="M 55.1 84.278855 
L 482.825865 84.278855 
" clip-path="url(#p4d3d2b9a5c)" style="fill: none; stroke: #000000; stroke-opacity: 0.3; stroke-width: 0.5; stroke-linecap: square"/>
     </g>
     <g id="line2d_32">
      <g>
       <use xlink:href="#m4287456d0d" x="55.1" y="84.278855" style="stroke: #000000; stroke-width: 0.8"/>
      </g>
     </g>
     <g id="text_17">
      <!-- 105 -->
      <g transform="translate(29.204688 88.024168) scale(0.1 -0.1)">
       <use xlink:href="#IPAexGothic-31"/>
       <use xlink:href="#IPAexGothic-30" transform="translate(62.988281 0)"/>
       <use xlink:href="#IPAexGothic-35" transform="translate(125.976562 0)"/>
      </g>
     </g>
    </g>
    <g id="ytick_8">
     <g id="line2d_33">
      <path d="M 55.1 58.227702 
L 482.825865 58.227702 
" clip-path="url(#p4d3d2b9a5c)" style="fill: none; stroke: #000000; stroke-opacity: 0.3; stroke-width: 0.5; stroke-linecap: square"/>
     </g>
     <g id="line2d_34">
      <g>
       <use xlink:href="#m4287456d0d" x="55.1" y="58.227702" style="stroke: #000000; stroke-width: 0.8"/>
      </g>
     </g>
     <g id="text_18">
      <!-- 110 -->
      <g transform="translate(29.204688 61.973015) scale(0.1 -0.1)">
       <use xlink:href="#IPAexGothic-31"/>
       <use xlink:href="#IPAexGothic-31" transform="translate(62.988281 0)"/>
       <use xlink:href="#IPAexGothic-30" transform="translate(125.976562 0)"/>
      </g>
     </g>
    </g>
    <g id="ytick_9">
     <g id="line2d_35">
      <path d="M 55.1 32.176549 
L 482.825865 32.176549 
" clip-path="url(#p4d3d2b9a5c)" style="fill: none; stroke: #000000; stroke-opacity: 0.3; stroke-width: 0.5; stroke-linecap: square"/>
     </g>
     <g id="line2d_36">
      <g>
       <use xlink:href="#m4287456d0d" x="55.1" y="32.176549" style="stroke: #000000; stroke-width: 0.8"/>
      </g>
     </g>
     <g id="text_19">
      <!-- 115 -->
      <g transform="translate(29.204688 35.921862) scale(0.1 -0.1)">
       <use xlink:href="#IPAexGothic-31"/>
       <use xlink:href="#IPAexGothic-31" transform="translate(62.988281 0)"/>
       <use xlink:href="#IPAexGothic-35" transform="translate(125.976562 0)"/>
      </g>
     </g>
    </g>
    <g id="text_20">
     <!-- 値 -->
     <g transform="translate(22.468688 143.66) rotate(-90) scale(0.144 -0.144)">
      <defs>
       <path id="IPAexGothic-5024" d="M 4172 3675 
L 5453 3675 
L 5453 684 
L 3019 684 
L 3019 3675 
L 3750 3675 
Q 3788 3884 3825 4153 
L 2141 4153 
L 2141 4544 
L 3884 4544 
Q 3922 4844 3966 5325 
L 4434 5272 
L 4388 4953 
Q 4331 4578 4331 4544 
L 5863 4544 
L 5863 4153 
L 4269 4153 
Q 4200 3781 4172 3675 
z
M 5038 3316 
L 3434 3316 
L 3434 2803 
L 5038 2803 
L 5038 3316 
z
M 3434 2450 
L 3434 1941 
L 5038 1941 
L 5038 2450 
L 3434 2450 
z
M 3434 1588 
L 3434 1044 
L 5038 1044 
L 5038 1588 
L 3434 1588 
z
M 1509 3669 
L 1509 -447 
L 1069 -447 
L 1069 2725 
Q 856 2338 531 1875 
L 288 2266 
Q 1163 3531 1541 5325 
L 1975 5222 
Q 1791 4378 1509 3669 
z
M 2488 244 
L 6031 244 
L 6031 -153 
L 2488 -153 
L 2488 -447 
L 2059 -447 
L 2059 3213 
L 2488 3213 
L 2488 244 
z
" transform="scale(0.015625)"/>
      </defs>
      <use xlink:href="#IPAexGothic-5024"/>
     </g>
    </g>
   </g>
   <g id="line2d_37">
    <path d="M 74.542085 217.426491 
L 76.169037 206.765551 
L 77.79599 211.28455 
L 79.422943 219.365783 
L 81.049896 209.281607 
L 82.676848 225.867258 
L 84.303801 209.896332 
L 85.930754 218.925513 
L 87.557706 209.599595 
L 89.184659 211.102974 
L 90.811612 220.530935 
L 92.438565 210.405235 
L 94.065517 211.862337 
L 95.69247 219.584452 
L 97.319423 198.894936 
L 98.946375 208.267026 
L 100.573328 223.772869 
L 102.200281 222.25604 
L 103.827233 212.058471 
L 105.454186 212.095886 
L 107.081139 220.215251 
L 108.708092 205.032114 
L 110.335044 213.776397 
L 111.961997 221.276788 
L 113.58895 217.46223 
L 115.215902 215.931952 
L 116.842855 226.674279 
L 118.469808 221.038646 
L 120.09676 228.679708 
L 121.723713 216.828863 
L 123.350666 209.74663 
L 124.977619 224.583988 
L 126.604571 212.017404 
L 128.231524 223.777571 
L 129.858477 215.813411 
L 131.485429 218.568636 
L 133.112382 224.008251 
L 134.739335 218.826014 
L 136.366287 224.112086 
L 137.99324 212.240732 
L 139.620193 214.173742 
L 141.247146 205.156491 
L 142.874098 225.97045 
L 144.501051 205.994198 
L 146.128004 215.150136 
L 147.754956 211.366578 
L 149.381909 216.007553 
L 151.008862 202.444531 
L 152.635814 203.702411 
L 154.262767 206.183868 
L 155.88972 212.506875 
L 157.516673 232.805455 
L 159.143625 210.186723 
L 160.770578 214.790644 
L 162.397531 215.581638 
L 164.024483 211.138386 
L 165.651436 205.20732 
L 167.278389 212.44581 
L 168.905342 218.179899 
L 170.532294 220.612933 
L 172.159247 211.642388 
L 173.7862 205.948918 
L 175.413152 210.251988 
L 177.040105 210.956454 
L 178.667058 218.059299 
L 180.29401 224.193599 
L 181.920963 207.140936 
L 183.547916 209.795674 
L 185.174869 228.818079 
L 186.801821 220.139679 
L 188.428774 126.989898 
L 190.055727 126.366921 
L 191.682679 142.391573 
L 193.309632 115.247243 
L 194.936585 123.235167 
L 196.563537 127.421855 
L 198.19049 137.578583 
L 199.817443 149.428788 
L 201.444396 128.779877 
L 203.071348 119.701575 
L 204.698301 127.80964 
L 206.325254 146.489954 
L 207.952206 125.701844 
L 209.579159 142.617085 
L 211.206112 156.99546 
L 212.833064 133.378361 
L 214.460017 161.799267 
L 216.08697 135.320874 
L 217.713923 126.890178 
L 219.340875 126.642312 
L 220.967828 110.863526 
L 222.594781 130.099849 
L 224.221733 145.603182 
L 225.848686 130.608677 
L 227.475639 130.011453 
L 229.102591 141.844865 
L 230.729544 152.792864 
L 232.356497 139.885873 
L 233.98345 142.8933 
L 235.610402 140.100744 
L 237.237355 138.143214 
L 238.864308 129.310521 
L 240.49126 130.795242 
L 242.118213 123.008044 
L 243.745166 141.306299 
L 245.372118 127.892902 
L 246.999071 152.739794 
L 248.626024 136.140699 
L 250.252977 151.245413 
L 251.879929 144.676218 
L 253.506882 126.592871 
L 255.133835 145.303232 
L 256.760787 122.877813 
L 258.38774 120.280664 
L 260.014693 131.344647 
L 261.641646 139.188989 
L 263.268598 145.594493 
L 264.895551 144.230737 
L 266.522504 137.042398 
L 268.149456 145.681423 
L 269.776409 137.236433 
L 271.403362 143.686242 
L 273.030314 130.617034 
L 274.657267 153.57143 
L 276.28422 131.854103 
L 277.911173 127.421955 
L 279.538125 145.792423 
L 281.165078 122.588593 
L 282.792031 122.011004 
L 284.418983 129.912941 
L 286.045936 150.375907 
L 287.672889 133.846227 
L 289.299841 151.480909 
L 290.926794 140.654665 
L 292.553747 148.195566 
L 294.1807 134.912381 
L 295.807652 143.379072 
L 297.434605 133.217881 
L 299.061558 127.745992 
L 300.68851 142.99359 
L 302.315463 52.032515 
L 303.942416 62.934959 
L 305.569368 60.771123 
L 307.196321 61.719976 
L 308.823274 66.830413 
L 310.450227 64.758256 
L 312.077179 47.803328 
L 313.704132 46.291851 
L 315.331085 58.657744 
L 316.958037 48.683877 
L 318.58499 46.896191 
L 320.211943 50.780558 
L 321.838895 82.390957 
L 323.465848 59.188029 
L 325.092801 43.769729 
L 326.719754 54.71551 
L 328.346706 59.397121 
L 329.973659 62.303542 
L 331.600612 55.050001 
L 333.227564 62.463825 
L 334.854517 48.563702 
L 336.48147 59.318454 
L 338.108423 58.329234 
L 339.735375 52.733538 
L 341.362328 44.253617 
L 342.989281 59.998931 
L 344.616233 53.11266 
L 346.243186 61.421747 
L 347.870139 72.038853 
L 349.497091 58.277215 
L 351.124044 52.037182 
L 352.750997 54.15815 
L 354.37795 59.273742 
L 356.004902 61.203457 
L 357.631855 72.311945 
L 359.258808 59.737974 
L 360.88576 40.114545 
L 362.512713 60.881111 
L 364.139666 58.688225 
L 365.766618 42.352045 
L 367.393571 56.911144 
L 369.020524 55.360918 
L 370.647477 71.43226 
L 372.274429 48.891465 
L 373.901382 42.45975 
L 375.528335 58.923513 
L 377.155287 46.231226 
L 378.78224 47.102015 
L 380.409193 89.544291 
L 382.036145 42.850132 
L 383.663098 74.304389 
L 385.290051 53.315885 
L 386.917004 53.055963 
L 388.543956 60.946341 
L 390.170909 62.365685 
L 391.797862 62.609078 
L 393.424814 63.644628 
L 395.051767 63.435429 
L 396.67872 66.546781 
L 398.305672 59.345847 
L 399.932625 57.090383 
L 401.559578 60.580313 
L 403.186531 54.760519 
L 404.813483 67.708143 
L 406.440436 56.173954 
L 408.067389 49.021345 
L 409.694341 40.327348 
L 411.321294 72.780065 
L 412.948247 49.638019 
L 414.5752 55.227603 
L 416.202152 80.685862 
L 417.829105 65.449806 
L 419.456058 69.669204 
L 421.08301 52.345434 
L 422.709963 41.38242 
L 424.336916 43.874006 
L 425.963868 55.469096 
L 427.590821 42.490137 
L 429.217774 53.810914 
L 430.844727 55.707161 
L 432.471679 75.598856 
L 434.098632 66.523327 
L 435.725585 62.466541 
L 437.352537 67.057931 
L 438.97949 69.536232 
L 440.606443 63.688235 
L 442.233395 46.855672 
L 443.860348 53.063712 
L 445.487301 55.19597 
L 447.114254 62.3486 
L 448.741206 63.418088 
L 450.368159 58.592086 
L 451.995112 66.738086 
L 453.622064 56.326299 
L 455.249017 59.902782 
L 456.87597 61.729438 
L 458.502922 56.447267 
L 460.129875 58.623536 
L 461.756828 55.231564 
L 463.383781 69.107576 
L 463.383781 69.107576 
" clip-path="url(#p4d3d2b9a5c)" style="fill: none; stroke: #64748b; stroke-opacity: 0.7; stroke-width: 1.2; stroke-linecap: square"/>
   </g>
   <g id="line2d_38">
    <path d="M 74.542085 217.426491 
L 76.169037 212.096021 
L 77.79599 211.825531 
L 79.422943 213.710594 
L 81.049896 212.824796 
L 82.676848 214.99854 
L 84.303801 214.269653 
L 85.930754 214.851636 
L 87.557706 214.268076 
L 89.184659 213.951566 
L 90.811612 214.54969 
L 92.438565 214.204319 
L 94.065517 214.024166 
L 95.69247 214.42133 
L 97.319423 213.097647 
L 98.946375 213.204895 
L 100.573328 214.096918 
L 103.827233 214.501712 
L 105.454186 213.518043 
L 107.081139 214.255109 
L 108.708092 213.262723 
L 110.335044 213.561066 
L 111.961997 214.287767 
L 113.58895 214.068574 
L 115.215902 214.463339 
L 116.842855 215.521335 
L 118.469808 215.625206 
L 120.09676 217.75269 
L 121.723713 218.36425 
L 123.350666 217.362375 
L 124.977619 217.528657 
L 126.604571 217.525724 
L 128.231524 218.36013 
L 129.858477 218.045713 
L 131.485429 219.012607 
L 133.112382 219.743454 
L 134.739335 219.568399 
L 136.366287 220.043389 
L 137.99324 219.77973 
L 139.620193 218.886834 
L 141.247146 217.752395 
L 142.874098 217.558876 
L 144.501051 216.784972 
L 146.128004 217.170936 
L 147.754956 216.226836 
L 149.381909 216.511846 
L 151.008862 214.988058 
L 155.88972 212.416833 
L 157.516673 213.415365 
L 159.143625 212.420696 
L 162.397531 212.703397 
L 164.024483 213.130675 
L 165.651436 211.647594 
L 167.278389 212.108423 
L 168.905342 212.324835 
L 170.532294 212.985289 
L 172.159247 212.673492 
L 173.7862 212.923805 
L 175.413152 213.391632 
L 178.667058 214.129133 
L 180.29401 213.514 
L 181.920963 213.296444 
L 183.547916 212.93966 
L 185.174869 213.88512 
L 186.801821 214.52807 
L 188.428774 208.941111 
L 190.055727 202.792619 
L 191.682679 197.379167 
L 193.309632 189.853046 
L 194.936585 183.538245 
L 196.563537 177.929169 
L 198.19049 172.738211 
L 199.817443 168.343378 
L 201.444396 161.966277 
L 203.071348 154.502561 
L 204.698301 148.836039 
L 206.325254 144.314202 
L 207.952206 136.948757 
L 209.579159 131.411429 
L 211.206112 133.554683 
L 212.833064 134.0555 
L 216.08697 136.875595 
L 217.713923 137.136667 
L 219.340875 137.080986 
L 220.967828 135.172767 
L 222.594781 133.792129 
L 224.221733 134.993793 
L 225.848686 135.772872 
L 227.475639 135.930145 
L 229.102591 135.598352 
L 230.729544 137.533425 
L 232.356497 137.338339 
L 233.98345 136.331042 
L 235.610402 136.811212 
L 237.237355 135.121494 
L 238.864308 134.692183 
L 240.49126 134.971116 
L 242.118213 134.711525 
L 243.745166 136.886009 
L 245.372118 136.72837 
L 248.626024 137.633272 
L 250.252977 139.149984 
L 251.879929 139.352223 
L 253.506882 137.480795 
L 255.133835 137.86775 
L 258.38774 135.022352 
L 260.014693 134.53674 
L 261.641646 135.242345 
L 263.268598 136.299434 
L 264.895551 137.815341 
L 266.522504 137.510777 
L 268.149456 138.781385 
L 269.776409 137.674002 
L 271.403362 138.21297 
L 273.030314 136.739514 
L 274.657267 137.374886 
L 276.28422 137.750688 
L 277.911173 136.473454 
L 279.538125 138.110212 
L 281.165078 138.275064 
L 284.418983 136.945801 
L 286.045936 137.28733 
L 287.672889 136.54558 
L 289.299841 137.576902 
L 290.926794 137.217848 
L 292.553747 138.000643 
L 294.1807 137.373939 
L 295.807652 138.285513 
L 297.434605 136.831688 
L 299.061558 136.538251 
L 300.68851 137.650511 
L 302.315463 130.953375 
L 305.569368 122.318124 
L 307.196321 117.447197 
L 308.823274 111.479662 
L 310.450227 106.544807 
L 312.077179 99.139266 
L 315.331085 86.003506 
L 316.958037 79.844327 
L 318.58499 72.952693 
L 320.211943 67.064312 
L 321.838895 63.824667 
L 323.465848 57.838555 
L 326.719754 56.661253 
L 328.346706 56.56311 
L 329.973659 56.604793 
L 331.600612 55.763335 
L 333.227564 55.599447 
L 334.854517 55.65376 
L 336.48147 56.584231 
L 338.108423 56.560766 
L 339.735375 56.850028 
L 341.362328 56.661273 
L 342.989281 57.319728 
L 344.616233 55.228421 
L 346.243186 55.387972 
L 347.870139 57.407195 
L 349.497091 57.661603 
L 352.750997 56.554079 
L 354.37795 56.855775 
L 356.004902 56.765749 
L 357.631855 58.462052 
L 359.258808 58.492017 
L 360.88576 57.190968 
L 362.512713 57.772938 
L 364.139666 58.803981 
L 365.766618 57.543489 
L 367.393571 57.81481 
L 369.020524 57.381893 
L 370.647477 57.338565 
L 373.901382 55.984052 
L 375.528335 56.324435 
L 378.78224 54.385581 
L 380.409193 55.616463 
L 382.036145 54.410188 
L 383.663098 56.85232 
L 385.290051 56.311947 
L 386.917004 55.909642 
L 388.543956 57.237806 
L 390.170909 57.627417 
L 391.797862 58.145142 
L 393.424814 57.588883 
L 395.051767 58.627737 
L 396.67872 60.34824 
L 398.305672 60.378406 
L 399.932625 61.15406 
L 401.559578 62.116796 
L 403.186531 59.632241 
L 404.813483 61.407813 
L 406.440436 60.112782 
L 408.067389 59.806029 
L 409.694341 58.896842 
L 411.321294 59.742108 
L 412.948247 58.832989 
L 414.5752 58.305741 
L 416.202152 59.522972 
L 419.456058 59.889887 
L 421.08301 59.389857 
L 424.336916 57.074552 
L 425.963868 57.125165 
L 427.590821 55.323879 
L 429.217774 55.15509 
L 430.844727 55.632648 
L 432.471679 58.152042 
L 434.098632 57.705132 
L 437.352537 59.466478 
L 438.97949 58.670076 
L 440.606443 58.54425 
L 442.233395 56.914712 
L 443.860348 56.966017 
L 445.487301 57.952699 
L 447.114254 59.272313 
L 448.741206 59.840098 
L 450.368159 60.990237 
L 451.995112 61.913607 
L 453.622064 61.957831 
L 455.249017 60.836683 
L 458.502922 60.064314 
L 460.129875 59.461857 
L 461.756828 58.440095 
L 463.383781 58.827191 
L 463.383781 58.827191 
" clip-path="url(#p4d3d2b9a5c)" style="fill: none; stroke: #2563eb; stroke-width: 2; stroke-linecap: square"/>
   </g>
   <g id="line2d_39">
    <path d="M 188.428774 242.44 
L 188.428774 30.48 
" clip-path="url(#p4d3d2b9a5c)" style="fill: none; stroke-dasharray: 5.55,2.4; stroke-dashoffset: 0; stroke: #ef4444; stroke-width: 1.5"/>
   </g>
   <g id="line2d_40">
    <path d="M 302.315463 242.44 
L 302.315463 30.48 
" clip-path="url(#p4d3d2b9a5c)" style="fill: none; stroke-dasharray: 5.55,2.4; stroke-dashoffset: 0; stroke: #ef4444; stroke-width: 1.5"/>
   </g>
   <g id="text_21">
    <!-- 平均の変化点を確認 -->
    <g transform="translate(191.202933 24.48) scale(0.1728 -0.1728)">
     <defs>
      <path id="IPAexGothic-5e73" d="M 3422 4428 
L 3422 1941 
L 6084 1941 
L 6084 1513 
L 3422 1513 
L 3422 -447 
L 2934 -447 
L 2934 1513 
L 322 1513 
L 322 1941 
L 2934 1941 
L 2934 4428 
L 641 4428 
L 641 4856 
L 5763 4856 
L 5763 4428 
L 3422 4428 
z
M 1728 2278 
Q 1488 3094 1081 3859 
L 1544 4038 
Q 1875 3422 2222 2472 
L 1728 2278 
z
M 4134 2425 
Q 4509 3138 4813 4128 
L 5306 3944 
Q 4984 3006 4569 2228 
L 4134 2425 
z
" transform="scale(0.015625)"/>
      <path id="IPAexGothic-5747" d="M 1206 3794 
L 1206 5144 
L 1659 5144 
L 1659 3794 
L 2369 3794 
L 2369 3372 
L 1659 3372 
L 1659 1325 
Q 2078 1513 2484 1722 
L 2566 1313 
Q 1556 775 559 397 
L 334 838 
Q 803 975 1206 1138 
L 1206 3372 
L 413 3372 
L 413 3794 
L 1206 3794 
z
M 3475 4244 
L 5844 4244 
Q 5834 1131 5619 184 
Q 5494 -366 4838 -366 
Q 4369 -366 3859 -306 
L 3769 184 
Q 4241 88 4731 88 
Q 5059 88 5147 306 
Q 5359 919 5369 3828 
L 3316 3828 
Q 3013 3119 2466 2472 
L 2150 2828 
Q 2944 3788 3259 5263 
L 3719 5147 
Q 3619 4663 3475 4244 
z
M 2975 2847 
L 4678 2847 
L 4678 2431 
L 2975 2431 
L 2975 2847 
z
M 2559 1044 
Q 3747 1338 4838 1797 
L 4891 1388 
Q 3831 891 2766 588 
L 2559 1044 
z
" transform="scale(0.015625)"/>
      <path id="IPAexGothic-306e" d="M 3119 469 
Q 5275 766 5275 2425 
Q 5275 3453 4413 3925 
Q 4041 4116 3547 4159 
Q 3394 2525 2850 1400 
Q 2322 306 1722 306 
Q 1384 306 1084 666 
Q 609 1244 609 2003 
Q 609 3025 1397 3794 
Q 2184 4563 3431 4563 
Q 4306 4563 4928 4122 
Q 5813 3506 5813 2425 
Q 5813 438 3431 6 
L 3119 469 
z
M 3053 4147 
Q 2378 4044 1891 3641 
Q 1097 2981 1097 1991 
Q 1097 1366 1434 978 
Q 1581 813 1719 813 
Q 2022 813 2416 1625 
Q 2909 2638 3053 4147 
z
" transform="scale(0.015625)"/>
      <path id="IPAexGothic-5909" d="M 2147 1253 
Q 1641 822 944 563 
L 672 900 
Q 1938 1391 2556 2394 
L 2972 2231 
Q 2847 2034 2747 1900 
L 4750 1900 
L 4969 1700 
Q 4422 984 3859 563 
Q 4650 241 6094 69 
L 5825 -366 
Q 4275 -125 3431 288 
Q 2441 -272 603 -538 
L 341 -134 
Q 2103 75 2997 538 
Q 2591 791 2184 1209 
L 2147 1253 
z
M 2434 1528 
L 2422 1516 
Q 2803 1106 3425 778 
Q 3888 1078 4269 1528 
L 2434 1528 
z
M 4059 4147 
L 4059 2650 
Q 4059 2272 3663 2272 
Q 3416 2272 3047 2309 
L 2963 2725 
Q 3241 2681 3431 2681 
Q 3631 2681 3631 2872 
L 3631 4147 
L 2822 4147 
Q 2766 3291 2503 2816 
Q 2191 2259 1503 1869 
L 1172 2156 
Q 1878 2572 2144 3066 
Q 2359 3456 2388 4147 
L 403 4147 
L 403 4544 
L 2938 4544 
L 2938 5294 
L 3419 5294 
L 3419 4544 
L 6000 4544 
L 6000 4147 
L 4059 4147 
z
M 5494 2363 
Q 4828 3150 4328 3584 
L 4672 3859 
Q 5266 3369 5878 2656 
L 5494 2363 
z
M 341 2528 
Q 1025 3022 1441 3775 
L 1844 3597 
Q 1406 2781 706 2241 
L 341 2528 
z
" transform="scale(0.015625)"/>
      <path id="IPAexGothic-5316" d="M 1831 3700 
L 1831 -341 
L 1356 -341 
L 1356 2772 
Q 1069 2275 678 1772 
L 378 2138 
Q 1319 3278 1856 5166 
L 2319 5013 
Q 2100 4319 1831 3700 
z
M 3425 2906 
Q 4528 3350 5306 3969 
L 5703 3616 
Q 4728 2919 3425 2444 
L 3425 575 
Q 3425 353 3584 306 
Q 3738 263 4334 263 
Q 5072 263 5250 347 
Q 5384 403 5422 594 
Q 5475 872 5506 1497 
L 5978 1331 
Q 5931 319 5775 106 
Q 5641 -75 5331 -141 
Q 5041 -206 4244 -206 
Q 3438 -206 3181 -78 
Q 2931 47 2931 384 
L 2931 5113 
L 3425 5113 
L 3425 2906 
z
" transform="scale(0.015625)"/>
      <path id="IPAexGothic-70b9" d="M 3331 4372 
L 5728 4372 
L 5728 3944 
L 3331 3944 
L 3331 3231 
L 5288 3231 
L 5288 1338 
L 1122 1338 
L 1122 3231 
L 2850 3231 
L 2850 5197 
L 3331 5197 
L 3331 4372 
z
M 1563 2834 
L 1563 1734 
L 4847 1734 
L 4847 2834 
L 1563 2834 
z
M 494 -166 
Q 984 353 1288 1094 
L 1709 928 
Q 1378 81 897 -488 
L 494 -166 
z
M 2466 -434 
Q 2391 275 2216 884 
L 2650 984 
Q 2866 366 2966 -325 
L 2466 -434 
z
M 3866 -331 
Q 3681 384 3388 947 
L 3809 1088 
Q 4119 538 4341 -153 
L 3866 -331 
z
M 5569 -353 
Q 5088 466 4622 978 
L 5013 1191 
Q 5603 578 6009 -63 
L 5569 -353 
z
" transform="scale(0.015625)"/>
      <path id="IPAexGothic-3092" d="M 1094 4263 
Q 1544 4222 2359 4222 
Q 2581 4734 2700 5163 
L 3175 5028 
Q 2997 4538 2859 4256 
Q 3516 4284 4294 4459 
L 4356 4019 
Q 3603 3869 2656 3819 
Q 2391 3284 2059 2797 
Q 2531 3200 2963 3200 
Q 3638 3200 3859 2378 
Q 4556 2681 5338 2950 
L 5575 2528 
Q 4641 2253 3941 1956 
Q 3981 1678 3994 1028 
L 3513 991 
Q 3513 1456 3494 1753 
Q 2388 1194 2388 716 
Q 2388 428 2753 328 
Q 3066 241 3806 241 
Q 4394 241 5178 344 
L 5216 -128 
Q 4434 -213 3653 -213 
Q 2656 -213 2244 41 
Q 1913 244 1913 631 
Q 1913 1094 2344 1497 
Q 2709 1841 3428 2181 
Q 3266 2797 2878 2797 
Q 2238 2797 1209 1419 
L 838 1694 
Q 1625 2716 2163 3800 
Q 1522 3800 1088 3825 
L 1094 4263 
z
" transform="scale(0.015625)"/>
      <path id="IPAexGothic-78ba" d="M 4347 3219 
Q 4516 3538 4647 3956 
L 5075 3853 
Q 4875 3431 4750 3219 
L 5888 3219 
L 5888 2847 
L 4700 2847 
L 4700 2222 
L 5741 2222 
L 5741 1869 
L 4700 1869 
L 4700 1250 
L 5741 1250 
L 5741 897 
L 4700 897 
L 4700 231 
L 6034 231 
L 6034 -141 
L 3463 -141 
L 3463 -447 
L 3047 -447 
L 3047 2444 
Q 2756 2019 2484 1703 
L 2284 2100 
Q 3159 3197 3506 4147 
L 2913 4147 
L 2913 3425 
L 2509 3425 
L 2509 4519 
L 3634 4519 
Q 3750 4903 3847 5319 
L 4269 5241 
Q 4175 4834 4072 4519 
L 5934 4519 
L 5934 3425 
L 5525 3425 
L 5525 4147 
L 3938 4147 
Q 3747 3647 3513 3219 
L 4347 3219 
z
M 4297 2847 
L 3463 2847 
L 3463 2222 
L 4297 2222 
L 4297 2847 
z
M 4297 1869 
L 3463 1869 
L 3463 1250 
L 4297 1250 
L 4297 1869 
z
M 4297 897 
L 3463 897 
L 3463 231 
L 4297 231 
L 4297 897 
z
M 1159 2944 
L 2275 2944 
L 2275 197 
L 1213 197 
L 1213 -328 
L 816 -328 
L 816 2206 
Q 650 1903 394 1522 
L 188 1919 
Q 931 3013 1200 4416 
L 406 4416 
L 406 4819 
L 2409 4819 
L 2409 4416 
L 1616 4416 
L 1597 4353 
Q 1456 3663 1159 2944 
z
M 1213 2553 
L 1213 588 
L 1878 588 
L 1878 2553 
L 1213 2553 
z
" transform="scale(0.015625)"/>
      <path id="IPAexGothic-8a8d" d="M 4341 4556 
Q 4309 4069 4219 3694 
Q 4622 3497 4956 3309 
L 4731 2963 
Q 4463 3125 4141 3291 
L 4091 3322 
Q 3756 2566 2959 2088 
L 2663 2419 
Q 3456 2844 3713 3500 
Q 3213 3722 2906 3828 
L 3113 4141 
Q 3381 4050 3828 3866 
Q 3916 4231 3925 4556 
L 2816 4556 
L 2816 4947 
L 5775 4947 
Q 5766 3272 5653 2713 
Q 5606 2459 5453 2369 
Q 5334 2284 5025 2284 
Q 4684 2284 4366 2334 
L 4303 2784 
Q 4644 2713 4928 2713 
Q 5181 2713 5228 2906 
Q 5309 3234 5338 4513 
Q 5338 4544 5338 4556 
L 4341 4556 
z
M 2406 1684 
L 2406 -128 
L 959 -128 
L 959 -447 
L 544 -447 
L 544 1684 
L 2406 1684 
z
M 959 1313 
L 959 244 
L 1984 244 
L 1984 1313 
L 959 1313 
z
M 634 5044 
L 2313 5044 
L 2313 4659 
L 634 4659 
L 634 5044 
z
M 353 4206 
L 2638 4206 
L 2638 3816 
L 353 3816 
L 353 4206 
z
M 634 3359 
L 2313 3359 
L 2313 2975 
L 634 2975 
L 634 3359 
z
M 634 2522 
L 2313 2522 
L 2313 2138 
L 634 2138 
L 634 2522 
z
M 2528 31 
Q 2816 625 2919 1447 
L 3322 1375 
Q 3200 381 2900 -225 
L 2528 31 
z
M 3572 1556 
L 4000 1556 
L 4000 294 
Q 4000 128 4084 100 
Q 4144 75 4300 75 
Q 4728 75 4775 275 
Q 4806 394 4825 738 
L 5253 616 
Q 5206 -44 5081 -188 
Q 4941 -347 4359 -347 
Q 3900 -347 3738 -269 
Q 3572 -191 3572 91 
L 3572 1556 
z
M 5775 -25 
Q 5428 800 5006 1375 
L 5366 1588 
Q 5819 994 6166 244 
L 5775 -25 
z
M 4566 1294 
Q 4106 1772 3656 2075 
L 3938 2350 
Q 4331 2113 4872 1613 
L 4566 1294 
z
" transform="scale(0.015625)"/>
     </defs>
     <use xlink:href="#IPAexGothic-5e73"/>
     <use xlink:href="#IPAexGothic-5747" transform="translate(100 0)"/>
     <use xlink:href="#IPAexGothic-306e" transform="translate(200 0)"/>
     <use xlink:href="#IPAexGothic-5909" transform="translate(300 0)"/>
     <use xlink:href="#IPAexGothic-5316" transform="translate(400 0)"/>
     <use xlink:href="#IPAexGothic-70b9" transform="translate(500 0)"/>
     <use xlink:href="#IPAexGothic-3092" transform="translate(600 0)"/>
     <use xlink:href="#IPAexGothic-78ba" transform="translate(700 0)"/>
     <use xlink:href="#IPAexGothic-8a8d" transform="translate(800 0)"/>
    </g>
   </g>
   <g id="legend_1">
    <g id="patch_3">
     <path d="M 69.5 85.4175 
L 183.01625 85.4175 
Q 185.41625 85.4175 185.41625 83.0175 
L 185.41625 44.88 
Q 185.41625 42.48 183.01625 42.48 
L 69.5 42.48 
Q 67.1 42.48 67.1 44.88 
L 67.1 83.0175 
Q 67.1 85.4175 69.5 85.4175 
z
" style="fill: #ffffff; opacity: 0.8; stroke: #cccccc; stroke-linejoin: miter"/>
    </g>
    <g id="line2d_41">
     <path d="M 71.9 52.06875 
L 83.9 52.06875 
L 95.9 52.06875 
" style="fill: none; stroke: #64748b; stroke-opacity: 0.7; stroke-width: 1.2; stroke-linecap: square"/>
    </g>
    <g id="text_22">
     <!-- 観測値 -->
     <g transform="translate(105.5 56.26875) scale(0.12 -0.12)">
      <defs>
       <path id="IPAexGothic-89b3" d="M 1919 4369 
Q 1841 4025 1747 3725 
L 3150 3725 
L 3150 3372 
L 1619 3372 
Q 1459 2959 1294 2675 
L 1825 2675 
Q 1950 2972 2016 3250 
L 2406 3141 
Q 2294 2831 2203 2675 
L 3078 2675 
L 3078 2344 
L 2209 2344 
L 2209 1925 
L 2944 1925 
L 2944 1613 
L 2209 1613 
L 2209 1191 
L 2944 1191 
L 2944 878 
L 2209 878 
L 2209 422 
L 3109 422 
L 3109 91 
L 1191 91 
L 1191 -288 
L 806 -288 
L 806 1944 
Q 606 1666 441 1503 
L 213 1856 
Q 816 2478 1209 3372 
L 353 3372 
L 353 3725 
L 1350 3725 
Q 1453 4019 1538 4369 
L 1094 4369 
Q 916 4025 722 3794 
L 441 4081 
Q 863 4603 1044 5309 
L 1441 5241 
Q 1366 4997 1253 4722 
L 3053 4722 
L 3053 4369 
L 1919 4369 
z
M 1191 2344 
L 1191 1925 
L 1850 1925 
L 1850 2344 
L 1191 2344 
z
M 1191 1613 
L 1191 1191 
L 1850 1191 
L 1850 1613 
L 1191 1613 
z
M 1191 878 
L 1191 422 
L 1850 422 
L 1850 878 
L 1191 878 
z
M 5128 1638 
L 5128 238 
Q 5128 63 5397 63 
Q 5663 63 5709 216 
Q 5759 403 5778 966 
L 6163 806 
Q 6106 81 6028 -109 
Q 5925 -359 5363 -359 
Q 4719 -359 4719 6 
L 4719 1638 
L 4253 1638 
Q 4231 813 4003 372 
Q 3744 -113 3100 -441 
L 2813 -84 
Q 3444 184 3663 653 
Q 3834 1031 3841 1638 
L 3369 1638 
L 3369 5044 
L 5709 5044 
L 5709 1638 
L 5128 1638 
z
M 3778 4672 
L 3778 4031 
L 5306 4031 
L 5306 4672 
L 3778 4672 
z
M 3778 3672 
L 3778 3034 
L 5306 3034 
L 5306 3672 
L 3778 3672 
z
M 3778 2675 
L 3778 2009 
L 5306 2009 
L 5306 2675 
L 3778 2675 
z
" transform="scale(0.015625)"/>
       <path id="IPAexGothic-6e2c" d="M 3856 4884 
L 3856 1081 
L 2059 1081 
L 2059 4884 
L 3856 4884 
z
M 2456 4494 
L 2456 3756 
L 3459 3756 
L 3459 4494 
L 2456 4494 
z
M 2456 3384 
L 2456 2656 
L 3459 2656 
L 3459 3384 
L 2456 3384 
z
M 2456 2284 
L 2456 1478 
L 3459 1478 
L 3459 2284 
L 2456 2284 
z
M 1413 3891 
Q 1000 4428 556 4763 
L 856 5100 
Q 1309 4753 1734 4269 
L 1413 3891 
z
M 1222 2394 
Q 816 2878 325 3256 
L 625 3591 
Q 1141 3231 1528 2778 
L 1222 2394 
z
M 375 -78 
Q 916 800 1297 1906 
L 1669 1619 
Q 1284 478 759 -428 
L 375 -78 
z
M 3819 -256 
Q 3478 319 3128 716 
L 3469 966 
Q 3834 581 4172 63 
L 3819 -256 
z
M 4378 4513 
L 4806 4513 
L 4806 959 
L 4378 959 
L 4378 4513 
z
M 1638 -109 
Q 2103 300 2450 984 
L 2828 763 
Q 2425 -6 1944 -488 
L 1638 -109 
z
M 5419 5081 
L 5853 5081 
L 5853 109 
Q 5853 -391 5297 -391 
Q 4919 -391 4541 -359 
L 4441 109 
Q 4928 50 5219 50 
Q 5419 50 5419 244 
L 5419 5081 
z
" transform="scale(0.015625)"/>
      </defs>
      <use xlink:href="#IPAexGothic-89b3"/>
      <use xlink:href="#IPAexGothic-6e2c" transform="translate(100 0)"/>
      <use xlink:href="#IPAexGothic-5024" transform="translate(200 0)"/>
     </g>
    </g>
    <g id="line2d_42">
     <path d="M 71.9 74.1375 
L 83.9 74.1375 
L 95.9 74.1375 
" style="fill: none; stroke: #2563eb; stroke-width: 2; stroke-linecap: square"/>
    </g>
    <g id="text_23">
     <!-- 14日移動平均 -->
     <g transform="translate(105.5 78.3375) scale(0.12 -0.12)">
      <defs>
       <path id="IPAexGothic-79fb" d="M 4691 2419 
L 5844 2419 
L 6069 2188 
Q 5503 1156 4763 513 
Q 4081 -75 2975 -469 
L 2681 -97 
Q 3684 194 4384 728 
Q 4097 1056 3731 1356 
Q 3381 1053 2919 819 
L 2669 1150 
Q 3853 1772 4500 2878 
L 4909 2772 
Q 4772 2528 4691 2419 
z
M 4409 2034 
Q 4219 1803 4000 1588 
Q 4375 1341 4703 1009 
Q 5219 1488 5497 2034 
L 4409 2034 
z
M 1350 2328 
Q 1009 1334 513 659 
L 263 1081 
Q 966 2022 1266 3128 
L 366 3128 
L 366 3531 
L 1350 3531 
L 1350 4400 
Q 919 4322 575 4266 
L 366 4644 
Q 1506 4809 2378 5144 
L 2700 4747 
Q 2238 4600 1784 4491 
L 1784 3531 
L 2616 3531 
L 2616 3128 
L 1784 3128 
L 1784 2688 
Q 2306 2266 2719 1803 
L 2444 1356 
Q 2106 1838 1784 2181 
L 1784 -450 
L 1350 -450 
L 1350 2328 
z
M 4275 4800 
L 5491 4800 
L 5709 4609 
Q 4763 2809 2875 2047 
L 2606 2388 
Q 3534 2722 4134 3244 
Q 3869 3519 3450 3794 
Q 3184 3569 2859 3359 
L 2591 3666 
Q 3578 4259 4056 5288 
L 4481 5191 
Q 4406 5034 4275 4800 
z
M 4019 4416 
Q 3856 4194 3700 4038 
Q 4128 3759 4372 3553 
L 4416 3513 
Q 4884 3991 5119 4416 
L 4019 4416 
z
" transform="scale(0.015625)"/>
       <path id="IPAexGothic-52d5" d="M 1803 3425 
L 1803 3794 
L 372 3794 
L 372 4147 
L 1803 4147 
L 1803 4556 
Q 1250 4500 634 4466 
L 506 4819 
Q 1997 4903 3091 5159 
L 3378 4794 
Q 2803 4678 2219 4606 
L 2219 4147 
L 3538 4147 
L 3538 3794 
L 2219 3794 
L 2219 3425 
L 3378 3425 
L 3378 1569 
L 2219 1569 
L 2219 1178 
L 3447 1178 
L 3447 825 
L 2219 825 
L 2219 384 
Q 2934 459 3544 569 
L 3544 231 
Q 2569 22 416 -206 
L 294 197 
Q 791 238 1284 288 
L 1803 338 
L 1803 825 
L 581 825 
L 581 1178 
L 1803 1178 
L 1803 1569 
L 678 1569 
L 678 3425 
L 1803 3425 
z
M 1816 3100 
L 1075 3100 
L 1075 2669 
L 1816 2669 
L 1816 3100 
z
M 2206 3100 
L 2206 2669 
L 2981 2669 
L 2981 3100 
L 2206 3100 
z
M 1816 2350 
L 1075 2350 
L 1075 1894 
L 1816 1894 
L 1816 2350 
z
M 2206 2350 
L 2206 1894 
L 2981 1894 
L 2981 2350 
L 2206 2350 
z
M 4806 3469 
Q 4797 2084 4628 1338 
Q 4375 250 3572 -459 
L 3238 -141 
Q 3975 481 4225 1550 
Q 4378 2213 4378 3413 
L 3559 3413 
L 3559 3828 
L 4384 3828 
L 4384 5209 
L 4813 5209 
L 4813 3878 
L 5931 3878 
Q 5931 941 5766 128 
Q 5669 -347 5144 -347 
Q 4838 -347 4500 -294 
L 4422 197 
Q 4797 100 5069 100 
Q 5294 100 5344 369 
Q 5484 1053 5503 3200 
L 5503 3469 
L 4806 3469 
z
" transform="scale(0.015625)"/>
      </defs>
      <use xlink:href="#IPAexGothic-31"/>
      <use xlink:href="#IPAexGothic-34" transform="translate(62.988281 0)"/>
      <use xlink:href="#IPAexGothic-65e5" transform="translate(125.976562 0)"/>
      <use xlink:href="#IPAexGothic-79fb" transform="translate(225.976562 0)"/>
      <use xlink:href="#IPAexGothic-52d5" transform="translate(325.976562 0)"/>
      <use xlink:href="#IPAexGothic-5e73" transform="translate(425.976562 0)"/>
      <use xlink:href="#IPAexGothic-5747" transform="translate(525.976562 0)"/>
     </g>
    </g>
   </g>
  </g>
 </g>
 <defs>
  <clipPath id="p4d3d2b9a5c">
   <rect x="55.1" y="30.48" width="427.725865" height="211.96"/>
  </clipPath>
 </defs>
</svg>
