<?xml version="1.0" encoding="utf-8" standalone="no"?>
<!DOCTYPE svg PUBLIC "-//W3C//DTD SVG 1.1//EN"
  "http://www.w3.org/Graphics/SVG/1.1/DTD/svg11.dtd">
<svg xmlns:xlink="http://www.w3.org/1999/xlink" width="504pt" height="288pt" viewBox="0 0 504 288" xmlns="http://www.w3.org/2000/svg" version="1.1">
 <metadata>
  <rdf:RDF xmlns:dc="http://purl.org/dc/elements/1.1/" xmlns:cc="http://creativecommons.org/ns#" xmlns:rdf="http://www.w3.org/1999/02/22-rdf-syntax-ns#">
   <cc:Work>
    <dc:type rdf:resource="http://purl.org/dc/dcmitype/StillImage"/>
    <dc:date>2025-10-27T10:38:08.244581</dc:date>
    <dc:format>image/svg+xml</dc:format>
    <dc:creator>
     <cc:Agent>
      <dc:title>Matplotlib v3.10.7, https://matplotlib.org/</dc:title>
     </cc:Agent>
    </dc:creator>
   </cc:Work>
  </rdf:RDF>
 </metadata>
 <defs>
  <style type="text/css">*{stroke-linejoin: round; stroke-linecap: butt}</style>
 </defs>
 <g id="figure_1">
  <g id="patch_1">
   <path d="M 0 288 
L 504 288 
L 504 0 
L 0 0 
z
" style="fill: #ffffff"/>
  </g>
  <g id="axes_1">
   <g id="patch_2">
    <path d="M 55.1 242.44 
L 493.2 242.44 
L 493.2 30.48 
L 55.1 30.48 
z
" style="fill: #ffffff"/>
   </g>
   <g id="matplotlib.axis_1">
    <g id="xtick_1">
     <g id="line2d_1">
      <path d="M 68.357268 242.44 
L 68.357268 30.48 
" clip-path="url(#p257b7c72b8)" style="fill: none; stroke: #000000; stroke-opacity: 0.3; stroke-width: 0.5; stroke-linecap: square"/>
     </g>
     <g id="line2d_2">
      <defs>
       <path id="mfe02d27e2d" d="M 0 0 
L 0 3.5 
" style="stroke: #000000; stroke-width: 0.8"/>
      </defs>
      <g>
       <use xlink:href="#mfe02d27e2d" x="68.357268" y="242.44" style="stroke: #000000; stroke-width: 0.8"/>
      </g>
     </g>
     <g id="text_1">
      <!-- 2018 -->
      <g transform="translate(55.760393 256.930625) scale(0.1 -0.1)">
       <defs>
        <path id="IPAexGothic-32" d="M 3659 63 
L 447 63 
L 447 594 
Q 825 1475 1894 2203 
L 2072 2322 
Q 2619 2697 2791 2906 
Q 2988 3153 2988 3444 
Q 2988 3772 2756 4003 
Q 2500 4259 2084 4259 
Q 1250 4259 991 3328 
L 497 3506 
Q 853 4725 2116 4725 
Q 2806 4725 3216 4316 
Q 3575 3947 3575 3425 
Q 3575 3038 3344 2722 
Q 3131 2416 2366 1938 
L 2231 1856 
Q 1256 1253 978 569 
L 3659 569 
L 3659 63 
z
" transform="scale(0.015625)"/>
        <path id="IPAexGothic-30" d="M 2038 4725 
Q 2881 4725 3334 3944 
Q 3694 3325 3694 2344 
Q 3694 1372 3334 741 
Q 2888 -31 2016 -31 
Q 1147 -31 700 741 
Q 341 1372 341 2350 
Q 341 3713 1000 4334 
Q 1419 4725 2038 4725 
z
M 2016 4266 
Q 1516 4266 1228 3759 
Q 934 3247 934 2344 
Q 934 1456 1222 947 
Q 1513 447 2016 447 
Q 2619 447 2909 1153 
Q 3100 1622 3100 2375 
Q 3100 3256 2806 3759 
Q 2509 4266 2016 4266 
z
" transform="scale(0.015625)"/>
        <path id="IPAexGothic-31" d="M 2463 63 
L 1900 63 
L 1900 4103 
Q 1372 3922 788 3797 
L 684 4231 
Q 1519 4441 2106 4731 
L 2463 4731 
L 2463 63 
z
" transform="scale(0.015625)"/>
        <path id="IPAexGothic-38" d="M 2541 2425 
Q 3700 2031 3700 1197 
Q 3700 541 3100 197 
Q 2663 -56 2016 -56 
Q 1366 -56 928 197 
Q 347 531 347 1178 
Q 347 1988 1409 2381 
L 1409 2400 
Q 481 2734 481 3509 
Q 481 4100 981 4456 
Q 1406 4756 2019 4756 
Q 2703 4756 3131 4403 
Q 3553 4069 3553 3566 
Q 3553 2706 2541 2444 
L 2541 2425 
z
M 2022 2625 
Q 2997 2856 2997 3528 
Q 2997 3916 2675 4150 
Q 2413 4347 2016 4347 
Q 1606 4347 1331 4128 
Q 1050 3897 1050 3522 
Q 1050 3150 1350 2925 
Q 1494 2809 1722 2722 
Q 1984 2616 2022 2625 
z
M 1978 2209 
Q 922 1931 922 1216 
Q 922 775 1313 556 
Q 1606 391 2009 391 
Q 2575 391 2881 697 
Q 3106 922 3106 1250 
Q 3106 1594 2794 1850 
Q 2609 1994 2350 2100 
Q 2047 2222 1978 2209 
z
" transform="scale(0.015625)"/>
       </defs>
       <use xlink:href="#IPAexGothic-32"/>
       <use xlink:href="#IPAexGothic-30" transform="translate(62.988281 0)"/>
       <use xlink:href="#IPAexGothic-31" transform="translate(125.976562 0)"/>
       <use xlink:href="#IPAexGothic-38" transform="translate(188.964844 0)"/>
      </g>
     </g>
    </g>
    <g id="xtick_2">
     <g id="line2d_3">
      <path d="M 149.343087 242.44 
L 149.343087 30.48 
" clip-path="url(#p257b7c72b8)" style="fill: none; stroke: #000000; stroke-opacity: 0.3; stroke-width: 0.5; stroke-linecap: square"/>
     </g>
     <g id="line2d_4">
      <g>
       <use xlink:href="#mfe02d27e2d" x="149.343087" y="242.44" style="stroke: #000000; stroke-width: 0.8"/>
      </g>
     </g>
     <g id="text_2">
      <!-- 2019 -->
      <g transform="translate(136.746212 256.930625) scale(0.1 -0.1)">
       <defs>
        <path id="IPAexGothic-39" d="M 2984 2356 
Q 2544 1716 1813 1716 
Q 1253 1716 847 2056 
Q 366 2459 366 3163 
Q 366 3813 769 4266 
Q 1181 4725 1869 4725 
Q 2800 4725 3241 3950 
Q 3559 3378 3559 2472 
Q 3559 1250 3041 588 
Q 2553 -31 1769 -31 
Q 859 -31 391 703 
L 853 953 
Q 1156 428 1753 428 
Q 2922 428 3009 2356 
L 2984 2356 
z
M 1888 4278 
Q 1450 4278 1172 3950 
Q 922 3653 922 3200 
Q 922 2741 1159 2478 
Q 1434 2163 1906 2163 
Q 2431 2163 2728 2572 
Q 2925 2847 2925 3169 
Q 2925 3553 2694 3863 
Q 2375 4278 1888 4278 
z
" transform="scale(0.015625)"/>
       </defs>
       <use xlink:href="#IPAexGothic-32"/>
       <use xlink:href="#IPAexGothic-30" transform="translate(62.988281 0)"/>
       <use xlink:href="#IPAexGothic-31" transform="translate(125.976562 0)"/>
       <use xlink:href="#IPAexGothic-39" transform="translate(188.964844 0)"/>
      </g>
     </g>
    </g>
    <g id="xtick_3">
     <g id="line2d_5">
      <path d="M 230.328906 242.44 
L 230.328906 30.48 
" clip-path="url(#p257b7c72b8)" style="fill: none; stroke: #000000; stroke-opacity: 0.3; stroke-width: 0.5; stroke-linecap: square"/>
     </g>
     <g id="line2d_6">
      <g>
       <use xlink:href="#mfe02d27e2d" x="230.328906" y="242.44" style="stroke: #000000; stroke-width: 0.8"/>
      </g>
     </g>
     <g id="text_3">
      <!-- 2020 -->
      <g transform="translate(217.732031 256.930625) scale(0.1 -0.1)">
       <use xlink:href="#IPAexGothic-32"/>
       <use xlink:href="#IPAexGothic-30" transform="translate(62.988281 0)"/>
       <use xlink:href="#IPAexGothic-32" transform="translate(125.976562 0)"/>
       <use xlink:href="#IPAexGothic-30" transform="translate(188.964844 0)"/>
      </g>
     </g>
    </g>
    <g id="xtick_4">
     <g id="line2d_7">
      <path d="M 311.536604 242.44 
L 311.536604 30.48 
" clip-path="url(#p257b7c72b8)" style="fill: none; stroke: #000000; stroke-opacity: 0.3; stroke-width: 0.5; stroke-linecap: square"/>
     </g>
     <g id="line2d_8">
      <g>
       <use xlink:href="#mfe02d27e2d" x="311.536604" y="242.44" style="stroke: #000000; stroke-width: 0.8"/>
      </g>
     </g>
     <g id="text_4">
      <!-- 2021 -->
      <g transform="translate(298.939729 256.930625) scale(0.1 -0.1)">
       <use xlink:href="#IPAexGothic-32"/>
       <use xlink:href="#IPAexGothic-30" transform="translate(62.988281 0)"/>
       <use xlink:href="#IPAexGothic-32" transform="translate(125.976562 0)"/>
       <use xlink:href="#IPAexGothic-31" transform="translate(188.964844 0)"/>
      </g>
     </g>
    </g>
    <g id="xtick_5">
     <g id="line2d_9">
      <path d="M 392.522423 242.44 
L 392.522423 30.48 
" clip-path="url(#p257b7c72b8)" style="fill: none; stroke: #000000; stroke-opacity: 0.3; stroke-width: 0.5; stroke-linecap: square"/>
     </g>
     <g id="line2d_10">
      <g>
       <use xlink:href="#mfe02d27e2d" x="392.522423" y="242.44" style="stroke: #000000; stroke-width: 0.8"/>
      </g>
     </g>
     <g id="text_5">
      <!-- 2022 -->
      <g transform="translate(379.925548 256.930625) scale(0.1 -0.1)">
       <use xlink:href="#IPAexGothic-32"/>
       <use xlink:href="#IPAexGothic-30" transform="translate(62.988281 0)"/>
       <use xlink:href="#IPAexGothic-32" transform="translate(125.976562 0)"/>
       <use xlink:href="#IPAexGothic-32" transform="translate(188.964844 0)"/>
      </g>
     </g>
    </g>
    <g id="xtick_6">
     <g id="line2d_11">
      <path d="M 473.508243 242.44 
L 473.508243 30.48 
" clip-path="url(#p257b7c72b8)" style="fill: none; stroke: #000000; stroke-opacity: 0.3; stroke-width: 0.5; stroke-linecap: square"/>
     </g>
     <g id="line2d_12">
      <g>
       <use xlink:href="#mfe02d27e2d" x="473.508243" y="242.44" style="stroke: #000000; stroke-width: 0.8"/>
      </g>
     </g>
     <g id="text_6">
      <!-- 2023 -->
      <g transform="translate(460.911368 256.930625) scale(0.1 -0.1)">
       <defs>
        <path id="IPAexGothic-33" d="M 2381 2419 
Q 3506 2216 3506 1278 
Q 3506 716 3128 356 
Q 2709 -31 1944 -31 
Q 797 -31 288 881 
L 756 1131 
Q 1109 441 1938 441 
Q 2425 441 2694 691 
Q 2950 928 2950 1291 
Q 2950 1719 2566 1978 
Q 2216 2213 1644 2213 
L 1363 2213 
L 1363 2669 
L 1656 2669 
Q 2231 2669 2534 2888 
Q 2859 3119 2859 3509 
Q 2859 3934 2494 4138 
Q 2259 4278 1931 4278 
Q 1238 4278 903 3578 
L 434 3803 
Q 897 4725 1938 4725 
Q 2597 4725 3006 4394 
Q 3416 4069 3416 3534 
Q 3416 3028 3019 2706 
Q 2763 2500 2381 2444 
L 2381 2419 
z
" transform="scale(0.015625)"/>
       </defs>
       <use xlink:href="#IPAexGothic-32"/>
       <use xlink:href="#IPAexGothic-30" transform="translate(62.988281 0)"/>
       <use xlink:href="#IPAexGothic-32" transform="translate(125.976562 0)"/>
       <use xlink:href="#IPAexGothic-33" transform="translate(188.964844 0)"/>
      </g>
     </g>
    </g>
    <g id="text_7">
     <!-- 年月 -->
     <g transform="translate(259.75 273.617125) scale(0.144 -0.144)">
      <defs>
       <path id="IPAexGothic-5e74" d="M 1772 4159 
Q 1444 3422 875 2803 
L 528 3166 
Q 1322 3941 1631 5259 
L 2109 5156 
Q 1994 4759 1931 4563 
L 5694 4563 
L 5694 4159 
L 3756 4159 
L 3756 3128 
L 5434 3128 
L 5434 2725 
L 3756 2725 
L 3756 1509 
L 6078 1509 
L 6078 1094 
L 3756 1094 
L 3756 -450 
L 3275 -450 
L 3275 1094 
L 447 1094 
L 447 1509 
L 1534 1509 
L 1534 3128 
L 3275 3128 
L 3275 4159 
L 1772 4159 
z
M 3275 2725 
L 1994 2725 
L 1994 1509 
L 3275 1509 
L 3275 2725 
z
" transform="scale(0.015625)"/>
       <path id="IPAexGothic-6708" d="M 5044 4984 
L 5044 256 
Q 5044 -78 4869 -203 
Q 4734 -300 4403 -300 
Q 3894 -300 3253 -247 
L 3169 244 
Q 3750 159 4294 159 
Q 4503 159 4547 263 
Q 4569 313 4569 438 
L 4569 1672 
L 1953 1672 
Q 1906 956 1716 475 
Q 1538 6 1116 -472 
L 744 -63 
Q 1259 475 1403 1244 
Q 1500 1772 1500 2650 
L 1500 4984 
L 5044 4984 
z
M 1981 4569 
L 1981 3541 
L 4569 3541 
L 4569 4569 
L 1981 4569 
z
M 1981 3144 
L 1981 2556 
Q 1981 2288 1975 2147 
L 1975 2069 
L 4569 2069 
L 4569 3144 
L 1981 3144 
z
" transform="scale(0.015625)"/>
      </defs>
      <use xlink:href="#IPAexGothic-5e74"/>
      <use xlink:href="#IPAexGothic-6708" transform="translate(100 0)"/>
     </g>
    </g>
   </g>
   <g id="matplotlib.axis_2">
    <g id="ytick_1">
     <g id="line2d_13">
      <path d="M 55.1 235.957797 
L 493.2 235.957797 
" clip-path="url(#p257b7c72b8)" style="fill: none; stroke: #000000; stroke-opacity: 0.3; stroke-width: 0.5; stroke-linecap: square"/>
     </g>
     <g id="line2d_14">
      <defs>
       <path id="m3839ee37f8" d="M 0 0 
L -3.5 0 
" style="stroke: #000000; stroke-width: 0.8"/>
      </defs>
      <g>
       <use xlink:href="#m3839ee37f8" x="55.1" y="235.957797" style="stroke: #000000; stroke-width: 0.8"/>
      </g>
     </g>
     <g id="text_8">
      <!-- 100 -->
      <g transform="translate(29.204688 239.703109) scale(0.1 -0.1)">
       <use xlink:href="#IPAexGothic-31"/>
       <use xlink:href="#IPAexGothic-30" transform="translate(62.988281 0)"/>
       <use xlink:href="#IPAexGothic-30" transform="translate(125.976562 0)"/>
      </g>
     </g>
    </g>
    <g id="ytick_2">
     <g id="line2d_15">
      <path d="M 55.1 190.375776 
L 493.2 190.375776 
" clip-path="url(#p257b7c72b8)" style="fill: none; stroke: #000000; stroke-opacity: 0.3; stroke-width: 0.5; stroke-linecap: square"/>
     </g>
     <g id="line2d_16">
      <g>
       <use xlink:href="#m3839ee37f8" x="55.1" y="190.375776" style="stroke: #000000; stroke-width: 0.8"/>
      </g>
     </g>
     <g id="text_9">
      <!-- 120 -->
      <g transform="translate(29.204688 194.121088) scale(0.1 -0.1)">
       <use xlink:href="#IPAexGothic-31"/>
       <use xlink:href="#IPAexGothic-32" transform="translate(62.988281 0)"/>
       <use xlink:href="#IPAexGothic-30" transform="translate(125.976562 0)"/>
      </g>
     </g>
    </g>
    <g id="ytick_3">
     <g id="line2d_17">
      <path d="M 55.1 144.793755 
L 493.2 144.793755 
" clip-path="url(#p257b7c72b8)" style="fill: none; stroke: #000000; stroke-opacity: 0.3; stroke-width: 0.5; stroke-linecap: square"/>
     </g>
     <g id="line2d_18">
      <g>
       <use xlink:href="#m3839ee37f8" x="55.1" y="144.793755" style="stroke: #000000; stroke-width: 0.8"/>
      </g>
     </g>
     <g id="text_10">
      <!-- 140 -->
      <g transform="translate(29.204688 148.539067) scale(0.1 -0.1)">
       <defs>
        <path id="IPAexGothic-34" d="M 3813 1159 
L 3059 1159 
L 3059 63 
L 2547 63 
L 2547 1159 
L 197 1159 
L 197 1672 
L 2456 4678 
L 3059 4678 
L 3059 1634 
L 3813 1634 
L 3813 1159 
z
M 2578 4109 
L 2559 4109 
Q 2278 3656 2003 3284 
L 759 1634 
L 2547 1634 
L 2547 3144 
Q 2547 3481 2578 4109 
z
" transform="scale(0.015625)"/>
       </defs>
       <use xlink:href="#IPAexGothic-31"/>
       <use xlink:href="#IPAexGothic-34" transform="translate(62.988281 0)"/>
       <use xlink:href="#IPAexGothic-30" transform="translate(125.976562 0)"/>
      </g>
     </g>
    </g>
    <g id="ytick_4">
     <g id="line2d_19">
      <path d="M 55.1 99.211734 
L 493.2 99.211734 
" clip-path="url(#p257b7c72b8)" style="fill: none; stroke: #000000; stroke-opacity: 0.3; stroke-width: 0.5; stroke-linecap: square"/>
     </g>
     <g id="line2d_20">
      <g>
       <use xlink:href="#m3839ee37f8" x="55.1" y="99.211734" style="stroke: #000000; stroke-width: 0.8"/>
      </g>
     </g>
     <g id="text_11">
      <!-- 160 -->
      <g transform="translate(29.204688 102.957046) scale(0.1 -0.1)">
       <defs>
        <path id="IPAexGothic-36" d="M 1056 2328 
Q 1509 2981 2234 2981 
Q 2906 2981 3316 2513 
Q 3675 2106 3675 1522 
Q 3675 884 3272 434 
Q 2853 -31 2178 -31 
Q 1375 -31 922 581 
Q 481 1178 481 2228 
Q 481 3425 1013 4109 
Q 1494 4725 2272 4725 
Q 3191 4725 3609 4025 
L 3150 3775 
Q 2894 4266 2300 4266 
Q 1119 4266 1031 2328 
L 1056 2328 
z
M 2141 2547 
Q 1684 2547 1384 2206 
Q 1116 1900 1116 1541 
Q 1116 1156 1353 844 
Q 1672 428 2159 428 
Q 2669 428 2941 844 
Q 3125 1128 3125 1503 
Q 3125 1944 2881 2228 
Q 2600 2547 2141 2547 
z
" transform="scale(0.015625)"/>
       </defs>
       <use xlink:href="#IPAexGothic-31"/>
       <use xlink:href="#IPAexGothic-36" transform="translate(62.988281 0)"/>
       <use xlink:href="#IPAexGothic-30" transform="translate(125.976562 0)"/>
      </g>
     </g>
    </g>
    <g id="ytick_5">
     <g id="line2d_21">
      <path d="M 55.1 53.629713 
L 493.2 53.629713 
" clip-path="url(#p257b7c72b8)" style="fill: none; stroke: #000000; stroke-opacity: 0.3; stroke-width: 0.5; stroke-linecap: square"/>
     </g>
     <g id="line2d_22">
      <g>
       <use xlink:href="#m3839ee37f8" x="55.1" y="53.629713" style="stroke: #000000; stroke-width: 0.8"/>
      </g>
     </g>
     <g id="text_12">
      <!-- 180 -->
      <g transform="translate(29.204688 57.375025) scale(0.1 -0.1)">
       <use xlink:href="#IPAexGothic-31"/>
       <use xlink:href="#IPAexGothic-38" transform="translate(62.988281 0)"/>
       <use xlink:href="#IPAexGothic-30" transform="translate(125.976562 0)"/>
      </g>
     </g>
    </g>
    <g id="text_13">
     <!-- 値 -->
     <g transform="translate(22.468688 143.66) rotate(-90) scale(0.144 -0.144)">
      <defs>
       <path id="IPAexGothic-5024" d="M 4172 3675 
L 5453 3675 
L 5453 684 
L 3019 684 
L 3019 3675 
L 3750 3675 
Q 3788 3884 3825 4153 
L 2141 4153 
L 2141 4544 
L 3884 4544 
Q 3922 4844 3966 5325 
L 4434 5272 
L 4388 4953 
Q 4331 4578 4331 4544 
L 5863 4544 
L 5863 4153 
L 4269 4153 
Q 4200 3781 4172 3675 
z
M 5038 3316 
L 3434 3316 
L 3434 2803 
L 5038 2803 
L 5038 3316 
z
M 3434 2450 
L 3434 1941 
L 5038 1941 
L 5038 2450 
L 3434 2450 
z
M 3434 1588 
L 3434 1044 
L 5038 1044 
L 5038 1588 
L 3434 1588 
z
M 1509 3669 
L 1509 -447 
L 1069 -447 
L 1069 2725 
Q 856 2338 531 1875 
L 288 2266 
Q 1163 3531 1541 5325 
L 1975 5222 
Q 1791 4378 1509 3669 
z
M 2488 244 
L 6031 244 
L 6031 -153 
L 2488 -153 
L 2488 -447 
L 2059 -447 
L 2059 3213 
L 2488 3213 
L 2488 244 
z
" transform="scale(0.015625)"/>
      </defs>
      <use xlink:href="#IPAexGothic-5024"/>
     </g>
    </g>
   </g>
   <g id="line2d_23">
    <path d="M 75.013636 232.805455 
L 81.226247 222.182906 
L 88.104495 213.660831 
L 94.760864 220.681758 
L 101.639111 204.034568 
L 108.29548 221.863151 
L 115.173728 210.261381 
L 122.051975 217.690998 
L 128.708344 219.669202 
L 135.586592 218.70672 
L 142.24296 215.860494 
L 149.121208 210.517339 
L 155.999456 196.683543 
L 162.212066 173.806299 
L 169.090314 175.623998 
L 175.746683 167.745008 
L 182.62493 169.597401 
L 189.281299 171.671474 
L 196.159547 176.168759 
L 203.037794 178.658053 
L 209.694163 185.049159 
L 216.572411 184.419963 
L 223.228779 180.051997 
L 230.107027 165.934785 
L 236.985275 161.568884 
L 243.419764 141.077767 
L 250.298012 123.818578 
L 256.954381 129.791076 
L 263.832629 124.704108 
L 270.488997 111.648737 
L 277.367245 139.054263 
L 284.245493 148.332865 
L 290.901861 144.782874 
L 297.780109 131.079618 
L 304.436478 123.918134 
L 311.314725 132.34979 
L 318.192973 109.63782 
L 324.405584 100.325522 
L 331.283831 93.611353 
L 337.9402 95.483682 
L 344.818448 77.583833 
L 351.474816 91.579812 
L 358.353064 90.670759 
L 365.231312 97.605572 
L 371.88768 90.671373 
L 378.765928 93.650757 
L 385.422297 101.072719 
L 392.300544 85.89264 
L 399.178792 65.95482 
L 405.391403 66.922655 
L 412.269651 51.470305 
L 418.926019 42.077088 
L 425.804267 51.604418 
L 432.460636 52.692194 
L 439.338883 61.060021 
L 446.217131 55.413247 
L 452.8735 63.502755 
L 459.751747 54.036257 
L 466.408116 52.817709 
L 473.286364 40.114545 
" clip-path="url(#p257b7c72b8)" style="fill: none; stroke: #cbd5f5; stroke-width: 1.2; stroke-linecap: square"/>
   </g>
   <g id="line2d_24">
    <path d="M 75.013636 232.805455 
L 81.226247 222.182906 
L 88.104495 213.660831 
L 94.760864 220.681758 
L 101.639111 204.034568 
L 108.29548 221.863151 
L 115.173728 210.261381 
L 122.051975 217.690998 
L 128.708344 219.669202 
L 135.586592 218.70672 
L 142.24296 215.860494 
L 149.121208 210.517339 
L 155.999456 196.683543 
L 162.212066 173.806299 
L 169.090314 175.623998 
L 175.746683 167.745008 
L 182.62493 169.597401 
L 189.281299 171.671474 
L 196.159547 176.168759 
L 203.037794 178.658053 
L 209.694163 185.049159 
L 216.572411 184.419963 
L 223.228779 180.051997 
L 230.107027 165.934785 
L 236.985275 161.568884 
L 243.419764 141.077767 
L 250.298012 123.818578 
L 256.954381 129.791076 
L 263.832629 124.704108 
L 270.488997 111.648737 
L 277.367245 139.054263 
L 284.245493 148.332865 
L 290.901861 144.782874 
L 297.780109 131.079618 
L 304.436478 123.918134 
L 311.314725 132.34979 
L 318.192973 109.63782 
L 324.405584 100.325522 
L 331.283831 93.611353 
L 337.9402 95.483682 
L 344.818448 77.583833 
L 351.474816 91.579812 
L 358.353064 90.670759 
L 365.231312 97.605572 
L 371.88768 90.671373 
L 378.765928 93.650757 
L 385.422297 101.072719 
L 392.300544 85.89264 
" clip-path="url(#p257b7c72b8)" style="fill: none; stroke: #2563eb; stroke-width: 1.2; stroke-linecap: square"/>
   </g>
   <g id="line2d_25">
    <path d="M 399.178792 71.971232 
L 405.391403 56.145451 
L 412.269651 48.476041 
L 418.926019 50.222665 
L 425.804267 40.777322 
L 432.460636 45.988003 
L 439.338883 50.836049 
L 446.217131 57.369036 
L 452.8735 56.84038 
L 459.751747 53.761552 
L 466.408116 52.023161 
L 473.286364 45.47105 
" clip-path="url(#p257b7c72b8)" style="fill: none; stroke: #f97316; stroke-width: 1.6; stroke-linecap: square"/>
   </g>
   <g id="text_14">
    <!-- ETS モデルによる予測 -->
    <g transform="translate(187.32475 24.48) scale(0.1728 -0.1728)">
     <defs>
      <path id="IPAexGothic-45" d="M 3547 63 
L 609 63 
L 609 4634 
L 3469 4634 
L 3469 4147 
L 1166 4147 
L 1166 2650 
L 3206 2650 
L 3206 2191 
L 1166 2191 
L 1166 556 
L 3547 556 
L 3547 63 
z
" transform="scale(0.015625)"/>
      <path id="IPAexGothic-54" d="M 3866 4141 
L 2175 4141 
L 2175 63 
L 1606 63 
L 1606 4141 
L -31 4141 
L -31 4634 
L 3866 4634 
L 3866 4141 
z
" transform="scale(0.015625)"/>
      <path id="IPAexGothic-53" d="M 2919 3641 
Q 2563 4259 1853 4259 
Q 1453 4259 1213 4009 
Q 1028 3803 1028 3534 
Q 1028 3238 1266 3047 
Q 1444 2913 1984 2688 
L 2200 2597 
Q 2925 2306 3191 1953 
Q 3422 1644 3422 1259 
Q 3422 644 2969 288 
Q 2559 -31 1931 -31 
Q 881 -31 313 766 
L 753 1100 
Q 1203 459 1938 459 
Q 2288 459 2534 625 
Q 2841 847 2841 1216 
Q 2841 1503 2616 1728 
Q 2375 1959 1728 2206 
L 1541 2278 
Q 453 2694 453 3481 
Q 453 4006 806 4347 
Q 1203 4725 1863 4725 
Q 2841 4725 3359 3956 
L 2919 3641 
z
" transform="scale(0.015625)"/>
      <path id="IPAexGothic-20" transform="scale(0.015625)"/>
      <path id="IPAexGothic-30e2" d="M 1216 4409 
L 5147 4409 
L 5147 3950 
L 3053 3950 
L 3053 2797 
L 5644 2797 
L 5644 2328 
L 3053 2328 
L 3053 972 
Q 3053 669 3272 600 
Q 3453 544 4013 544 
Q 4556 544 5269 600 
L 5269 97 
Q 4684 50 4147 50 
Q 3025 50 2753 250 
Q 2541 403 2541 825 
L 2541 2328 
L 744 2328 
L 744 2797 
L 2541 2797 
L 2541 3950 
L 1216 3950 
L 1216 4409 
z
" transform="scale(0.015625)"/>
      <path id="IPAexGothic-30c7" d="M 563 3072 
L 5741 3072 
L 5741 2613 
L 3578 2613 
Q 3538 1516 3134 872 
Q 2688 156 1663 -256 
L 1313 156 
Q 2338 538 2713 1166 
Q 3003 1644 3034 2613 
L 563 2613 
L 563 3072 
z
M 1406 4588 
L 4588 4588 
L 4588 4128 
L 1406 4128 
L 1406 4588 
z
M 6009 4469 
Q 5647 5009 5253 5338 
L 5553 5569 
Q 5938 5259 6328 4744 
L 6009 4469 
z
M 5413 4000 
Q 5125 4491 4678 4891 
L 4991 5131 
Q 5363 4825 5747 4275 
L 5413 4000 
z
" transform="scale(0.015625)"/>
      <path id="IPAexGothic-30eb" d="M 353 331 
Q 1313 994 1544 2022 
Q 1684 2650 1684 4397 
L 2203 4397 
L 2203 4153 
L 2203 4116 
Q 2203 2259 1934 1491 
Q 1619 588 744 -38 
L 353 331 
z
M 3125 4666 
L 3650 4666 
L 3650 769 
Q 4875 1488 5672 2734 
L 6000 2278 
Q 5075 966 3516 63 
L 3125 359 
L 3125 4666 
z
" transform="scale(0.015625)"/>
      <path id="IPAexGothic-306b" d="M 1088 -38 
Q 922 1003 922 2081 
Q 922 3222 1331 4794 
L 1813 4684 
Q 1391 3113 1391 2003 
Q 1391 1441 1422 1147 
Q 1434 1181 1813 2016 
L 2125 1797 
Q 1800 1081 1691 763 
Q 1581 453 1581 269 
Q 1581 78 1588 6 
L 1088 -38 
z
M 2834 4038 
Q 3969 4213 5313 4172 
L 5338 3681 
Q 3959 3728 2869 3547 
L 2834 4038 
z
M 5650 256 
Q 5044 172 4372 172 
Q 3463 172 3047 434 
Q 2784 594 2675 841 
Q 2572 1075 2572 1447 
Q 2572 1563 2578 1656 
L 3053 1684 
Q 3050 1613 3044 1528 
Q 3041 1481 3041 1466 
Q 3041 1200 3119 1053 
Q 3178 944 3309 850 
Q 3569 678 4275 678 
Q 4891 678 5588 763 
L 5650 256 
z
" transform="scale(0.015625)"/>
      <path id="IPAexGothic-3088" d="M 2784 5019 
L 3272 5019 
Q 3247 4378 3272 3647 
Q 4184 3719 4850 3903 
L 4997 3431 
Q 4369 3291 3272 3200 
Q 3288 2366 3378 1550 
Q 4134 1353 5344 647 
L 5031 213 
Q 4244 759 3406 1044 
L 3413 891 
Q 3434 359 3122 84 
Q 2863 -141 2272 -141 
Q 1641 -141 1272 116 
Q 934 350 934 738 
Q 934 1294 1500 1534 
Q 1841 1678 2278 1678 
Q 2581 1678 2906 1631 
Q 2813 2559 2784 5019 
z
M 2931 1178 
Q 2613 1244 2369 1244 
Q 1422 1244 1422 794 
Q 1422 300 2278 300 
Q 2956 300 2938 934 
L 2931 1178 
z
" transform="scale(0.015625)"/>
      <path id="IPAexGothic-308b" d="M 4391 4397 
L 2613 2588 
Q 3225 2809 3759 2809 
Q 4263 2809 4659 2625 
Q 5391 2269 5391 1484 
Q 5391 756 4706 275 
Q 4072 -166 3053 -166 
Q 2559 -166 2247 19 
Q 1863 250 1863 666 
Q 1863 934 2069 1141 
Q 2331 1403 2741 1403 
Q 3509 1403 4019 428 
Q 4872 784 4872 1491 
Q 4872 1981 4469 2222 
Q 4166 2406 3681 2406 
Q 2425 2406 1238 1209 
L 891 1581 
Q 2438 2934 3578 4281 
Q 2594 4125 1588 4066 
L 1478 4550 
Q 2594 4581 4109 4763 
L 4391 4397 
z
M 3591 303 
Q 3244 1025 2731 1025 
Q 2553 1025 2434 934 
Q 2316 844 2316 700 
Q 2316 250 3034 250 
Q 3275 250 3591 303 
z
" transform="scale(0.015625)"/>
      <path id="IPAexGothic-4e88" d="M 3541 3491 
Q 3644 3419 3816 3300 
Q 3944 3213 3997 3175 
L 3663 2894 
L 5603 2894 
L 5872 2625 
Q 5181 1709 4463 1069 
L 4066 1378 
Q 4722 1878 5153 2466 
L 3509 2466 
L 3509 147 
Q 3509 -150 3388 -263 
Q 3266 -384 2822 -384 
Q 2341 -384 1863 -331 
L 1766 172 
Q 2416 84 2766 84 
Q 3022 84 3022 334 
L 3022 2466 
L 513 2466 
L 513 2894 
L 3553 2894 
Q 2809 3488 1947 3963 
L 2247 4291 
Q 2741 4009 3181 3725 
Q 3941 4191 4400 4591 
L 1159 4591 
L 1159 5006 
L 4975 5006 
L 5250 4725 
Q 4428 4044 3541 3491 
z
" transform="scale(0.015625)"/>
      <path id="IPAexGothic-6e2c" d="M 3856 4884 
L 3856 1081 
L 2059 1081 
L 2059 4884 
L 3856 4884 
z
M 2456 4494 
L 2456 3756 
L 3459 3756 
L 3459 4494 
L 2456 4494 
z
M 2456 3384 
L 2456 2656 
L 3459 2656 
L 3459 3384 
L 2456 3384 
z
M 2456 2284 
L 2456 1478 
L 3459 1478 
L 3459 2284 
L 2456 2284 
z
M 1413 3891 
Q 1000 4428 556 4763 
L 856 5100 
Q 1309 4753 1734 4269 
L 1413 3891 
z
M 1222 2394 
Q 816 2878 325 3256 
L 625 3591 
Q 1141 3231 1528 2778 
L 1222 2394 
z
M 375 -78 
Q 916 800 1297 1906 
L 1669 1619 
Q 1284 478 759 -428 
L 375 -78 
z
M 3819 -256 
Q 3478 319 3128 716 
L 3469 966 
Q 3834 581 4172 63 
L 3819 -256 
z
M 4378 4513 
L 4806 4513 
L 4806 959 
L 4378 959 
L 4378 4513 
z
M 1638 -109 
Q 2103 300 2450 984 
L 2828 763 
Q 2425 -6 1944 -488 
L 1638 -109 
z
M 5419 5081 
L 5853 5081 
L 5853 109 
Q 5853 -391 5297 -391 
Q 4919 -391 4541 -359 
L 4441 109 
Q 4928 50 5219 50 
Q 5419 50 5419 244 
L 5419 5081 
z
" transform="scale(0.015625)"/>
     </defs>
     <use xlink:href="#IPAexGothic-45"/>
     <use xlink:href="#IPAexGothic-54" transform="translate(59.521484 0)"/>
     <use xlink:href="#IPAexGothic-53" transform="translate(119.433594 0)"/>
     <use xlink:href="#IPAexGothic-20" transform="translate(177.929688 0)"/>
     <use xlink:href="#IPAexGothic-30e2" transform="translate(204.931641 0)"/>
     <use xlink:href="#IPAexGothic-30c7" transform="translate(304.931641 0)"/>
     <use xlink:href="#IPAexGothic-30eb" transform="translate(404.931641 0)"/>
     <use xlink:href="#IPAexGothic-306b" transform="translate(504.931641 0)"/>
     <use xlink:href="#IPAexGothic-3088" transform="translate(604.931641 0)"/>
     <use xlink:href="#IPAexGothic-308b" transform="translate(704.931641 0)"/>
     <use xlink:href="#IPAexGothic-4e88" transform="translate(804.931641 0)"/>
     <use xlink:href="#IPAexGothic-6e2c" transform="translate(904.931641 0)"/>
    </g>
   </g>
   <g id="legend_1">
    <g id="patch_3">
     <path d="M 69.5 107.48625 
L 191.9 107.48625 
Q 194.3 107.48625 194.3 105.08625 
L 194.3 44.88 
Q 194.3 42.48 191.9 42.48 
L 69.5 42.48 
Q 67.1 42.48 67.1 44.88 
L 67.1 105.08625 
Q 67.1 107.48625 69.5 107.48625 
z
" style="fill: #ffffff; opacity: 0.8; stroke: #cccccc; stroke-linejoin: miter"/>
    </g>
    <g id="line2d_26">
     <path d="M 71.9 52.06875 
L 83.9 52.06875 
L 95.9 52.06875 
" style="fill: none; stroke: #cbd5f5; stroke-width: 1.2; stroke-linecap: square"/>
    </g>
    <g id="text_15">
     <!-- 実測値（全体） -->
     <g transform="translate(105.5 56.26875) scale(0.12 -0.12)">
      <defs>
       <path id="IPAexGothic-5b9f" d="M 3525 1275 
Q 4288 350 6022 91 
L 5738 -375 
Q 3953 -41 3219 1050 
Q 2731 -144 728 -472 
L 466 -44 
Q 2422 150 2872 1275 
L 384 1275 
L 384 1659 
L 2950 1659 
L 2950 2144 
L 966 2144 
L 966 2509 
L 2950 2509 
L 2950 2969 
L 1266 2969 
L 1266 3341 
L 2950 3341 
L 2950 3988 
L 3403 3988 
L 3403 3341 
L 5125 3341 
L 5125 2969 
L 3403 2969 
L 3403 2509 
L 5444 2509 
L 5444 2144 
L 3403 2144 
L 3403 1659 
L 6016 1659 
L 6016 1275 
L 3525 1275 
z
M 3413 4544 
L 5778 4544 
L 5778 3269 
L 5309 3269 
L 5309 4147 
L 1084 4147 
L 1084 3269 
L 616 3269 
L 616 4544 
L 2938 4544 
L 2938 5313 
L 3413 5313 
L 3413 4544 
z
" transform="scale(0.015625)"/>
       <path id="IPAexGothic-ff08" d="M 5419 -434 
Q 4197 769 4197 2438 
Q 4197 4097 5419 5300 
L 5919 5300 
Q 4678 4078 4678 2425 
Q 4678 788 5919 -434 
L 5419 -434 
z
" transform="scale(0.015625)"/>
       <path id="IPAexGothic-5168" d="M 3416 2778 
L 3416 1747 
L 5284 1747 
L 5284 1338 
L 3416 1338 
L 3416 184 
L 5859 184 
L 5859 -231 
L 547 -231 
L 547 184 
L 2941 184 
L 2941 1338 
L 1116 1338 
L 1116 1747 
L 2941 1747 
L 2941 2778 
L 1666 2778 
L 1666 3091 
Q 1188 2744 597 2472 
L 316 2847 
Q 2006 3569 2888 5197 
L 3441 5197 
Q 4491 3763 6116 3041 
L 5816 2619 
Q 4231 3413 3172 4775 
Q 2603 3834 1788 3181 
L 4803 3181 
L 4803 2778 
L 3416 2778 
z
" transform="scale(0.015625)"/>
       <path id="IPAexGothic-4f53" d="M 4253 3481 
Q 4869 2069 6041 1138 
L 5688 703 
Q 4541 1841 4069 3122 
L 4069 1228 
L 4925 1228 
L 4925 831 
L 4081 831 
L 4081 -450 
L 3613 -450 
L 3613 831 
L 2781 831 
L 2781 1228 
L 3628 1228 
L 3628 3097 
Q 3216 1703 2063 556 
L 1706 928 
Q 2844 1875 3441 3481 
L 1969 3481 
L 1969 3897 
L 3613 3897 
L 3613 5209 
L 4081 5209 
L 4081 3897 
L 5872 3897 
L 5872 3481 
L 4253 3481 
z
M 1572 3700 
L 1572 -441 
L 1119 -441 
L 1119 2778 
Q 888 2363 550 1913 
L 300 2303 
Q 1219 3575 1591 5241 
L 2041 5125 
Q 1844 4356 1572 3700 
z
" transform="scale(0.015625)"/>
       <path id="IPAexGothic-ff09" d="M 481 -434 
Q 1722 788 1722 2431 
Q 1722 4066 481 5300 
L 981 5300 
Q 2203 4097 2203 2431 
Q 2203 769 981 -434 
L 481 -434 
z
" transform="scale(0.015625)"/>
      </defs>
      <use xlink:href="#IPAexGothic-5b9f"/>
      <use xlink:href="#IPAexGothic-6e2c" transform="translate(100 0)"/>
      <use xlink:href="#IPAexGothic-5024" transform="translate(200 0)"/>
      <use xlink:href="#IPAexGothic-ff08" transform="translate(300 0)"/>
      <use xlink:href="#IPAexGothic-5168" transform="translate(400 0)"/>
      <use xlink:href="#IPAexGothic-4f53" transform="translate(500 0)"/>
      <use xlink:href="#IPAexGothic-ff09" transform="translate(600 0)"/>
     </g>
    </g>
    <g id="line2d_27">
     <path d="M 71.9 74.1375 
L 83.9 74.1375 
L 95.9 74.1375 
" style="fill: none; stroke: #2563eb; stroke-width: 1.2; stroke-linecap: square"/>
    </g>
    <g id="text_16">
     <!-- 学習区間 -->
     <g transform="translate(105.5 78.3375) scale(0.12 -0.12)">
      <defs>
       <path id="IPAexGothic-5b66" d="M 1706 4050 
L 1688 4088 
Q 1525 4513 1244 4959 
L 1681 5150 
Q 1947 4791 2200 4216 
L 1763 4050 
L 3941 4050 
Q 4359 4628 4653 5234 
L 5138 5016 
Q 4822 4488 4472 4050 
L 5797 4050 
L 5797 2675 
L 5338 2675 
L 5338 3653 
L 1072 3653 
L 1072 2675 
L 613 2675 
L 613 4050 
L 1706 4050 
z
M 3444 1888 
L 3444 1650 
L 6078 1650 
L 6078 1241 
L 3475 1241 
L 3475 91 
Q 3475 -428 2834 -428 
Q 2319 -428 1875 -366 
L 1784 128 
Q 2278 25 2744 25 
Q 2994 25 2994 263 
L 2994 1241 
L 319 1241 
L 319 1650 
L 2969 1650 
L 2969 2113 
L 3000 2125 
Q 3559 2338 4116 2675 
L 1466 2675 
L 1466 3078 
L 4756 3078 
L 5019 2822 
Q 4338 2309 3444 1888 
z
M 3019 4072 
Q 2831 4609 2572 5044 
L 3006 5228 
Q 3275 4822 3500 4250 
L 3019 4072 
z
" transform="scale(0.015625)"/>
       <path id="IPAexGothic-7fd2" d="M 3006 5063 
L 3006 3047 
Q 3006 2781 2878 2675 
Q 2769 2584 2481 2584 
Q 2078 2584 1772 2631 
L 1716 3072 
Q 2159 2988 2347 2988 
Q 2566 2988 2566 3219 
L 2566 4678 
L 466 4678 
L 466 5063 
L 3006 5063 
z
M 5778 5063 
L 5778 3041 
Q 5778 2584 5288 2584 
Q 4916 2584 4519 2631 
L 4441 3066 
Q 4856 2988 5131 2988 
Q 5338 2988 5338 3206 
L 5338 4678 
L 3238 4678 
L 3238 5063 
L 5778 5063 
z
M 2866 2119 
Q 2950 2356 3013 2669 
L 3500 2572 
Q 3409 2322 3306 2119 
L 5325 2119 
L 5325 -447 
L 4856 -447 
L 4856 -172 
L 1619 -172 
L 1619 -447 
L 1150 -447 
L 1150 2119 
L 2866 2119 
z
M 1619 1747 
L 1619 1197 
L 4856 1197 
L 4856 1747 
L 1619 1747 
z
M 1619 831 
L 1619 206 
L 4856 206 
L 4856 831 
L 1619 831 
z
M 1594 3681 
Q 1219 4044 778 4341 
L 1056 4609 
Q 1525 4325 1869 3981 
L 1594 3681 
z
M 4269 3694 
Q 3816 4066 3403 4341 
L 3684 4622 
Q 4203 4294 4556 3994 
L 4269 3694 
z
M 447 2950 
Q 1328 3347 2225 3969 
L 2353 3622 
Q 1581 3056 691 2606 
L 447 2950 
z
M 3231 3059 
Q 4138 3444 4978 4031 
L 5113 3675 
Q 4281 3066 3463 2700 
L 3231 3059 
z
" transform="scale(0.015625)"/>
       <path id="IPAexGothic-533a" d="M 1294 4391 
L 1294 403 
L 5838 403 
L 5838 -25 
L 1294 -25 
L 1294 -447 
L 806 -447 
L 806 4819 
L 5678 4819 
L 5678 4391 
L 1294 4391 
z
M 3278 2375 
Q 2669 2909 1819 3500 
L 2125 3794 
Q 2881 3281 3547 2725 
Q 3959 3319 4306 4172 
L 4744 4000 
Q 4322 3038 3891 2431 
Q 4438 1959 5203 1216 
L 4850 856 
Q 4206 1534 3616 2075 
Q 2963 1284 1856 659 
L 1534 1013 
Q 2569 1553 3278 2375 
z
" transform="scale(0.015625)"/>
       <path id="IPAexGothic-9593" d="M 4450 2566 
L 4450 353 
L 2375 353 
L 2375 -25 
L 1953 -25 
L 1953 2566 
L 4450 2566 
z
M 4028 2200 
L 2375 2200 
L 2375 1653 
L 4028 1653 
L 4028 2200 
z
M 4028 1300 
L 2375 1300 
L 2375 719 
L 4028 719 
L 4028 1300 
z
M 2913 5019 
L 2913 3059 
L 1056 3059 
L 1056 -447 
L 609 -447 
L 609 5019 
L 2913 5019 
z
M 1056 4659 
L 1056 4206 
L 2497 4206 
L 2497 4659 
L 1056 4659 
z
M 1056 3881 
L 1056 3413 
L 2497 3413 
L 2497 3881 
L 1056 3881 
z
M 5788 5019 
L 5788 91 
Q 5788 -225 5641 -331 
Q 5525 -409 5231 -409 
Q 4803 -409 4481 -366 
L 4419 97 
Q 4853 38 5128 38 
Q 5341 38 5341 244 
L 5341 3059 
L 3438 3059 
L 3438 5019 
L 5788 5019 
z
M 3853 4659 
L 3853 4206 
L 5341 4206 
L 5341 4659 
L 3853 4659 
z
M 3853 3881 
L 3853 3413 
L 5341 3413 
L 5341 3881 
L 3853 3881 
z
" transform="scale(0.015625)"/>
      </defs>
      <use xlink:href="#IPAexGothic-5b66"/>
      <use xlink:href="#IPAexGothic-7fd2" transform="translate(100 0)"/>
      <use xlink:href="#IPAexGothic-533a" transform="translate(200 0)"/>
      <use xlink:href="#IPAexGothic-9593" transform="translate(300 0)"/>
     </g>
    </g>
    <g id="line2d_28">
     <path d="M 71.9 96.20625 
L 83.9 96.20625 
L 95.9 96.20625 
" style="fill: none; stroke: #f97316; stroke-width: 1.6; stroke-linecap: square"/>
    </g>
    <g id="text_17">
     <!-- ETS 予測 -->
     <g transform="translate(105.5 100.40625) scale(0.12 -0.12)">
      <use xlink:href="#IPAexGothic-45"/>
      <use xlink:href="#IPAexGothic-54" transform="translate(59.521484 0)"/>
      <use xlink:href="#IPAexGothic-53" transform="translate(119.433594 0)"/>
      <use xlink:href="#IPAexGothic-20" transform="translate(177.929688 0)"/>
      <use xlink:href="#IPAexGothic-4e88" transform="translate(204.931641 0)"/>
      <use xlink:href="#IPAexGothic-6e2c" transform="translate(304.931641 0)"/>
     </g>
    </g>
   </g>
  </g>
 </g>
 <defs>
  <clipPath id="p257b7c72b8">
   <rect x="55.1" y="30.48" width="438.1" height="211.96"/>
  </clipPath>
 </defs>
</svg>
