<?xml version="1.0" encoding="utf-8" standalone="no"?>
<!DOCTYPE svg PUBLIC "-//W3C//DTD SVG 1.1//EN"
  "http://www.w3.org/Graphics/SVG/1.1/DTD/svg11.dtd">
<svg xmlns:xlink="http://www.w3.org/1999/xlink" width="648pt" height="288pt" viewBox="0 0 648 288" xmlns="http://www.w3.org/2000/svg" version="1.1">
 <metadata>
  <rdf:RDF xmlns:dc="http://purl.org/dc/elements/1.1/" xmlns:cc="http://creativecommons.org/ns#" xmlns:rdf="http://www.w3.org/1999/02/22-rdf-syntax-ns#">
   <cc:Work>
    <dc:type rdf:resource="http://purl.org/dc/dcmitype/StillImage"/>
    <dc:date>2025-10-27T10:38:08.826876</dc:date>
    <dc:format>image/svg+xml</dc:format>
    <dc:creator>
     <cc:Agent>
      <dc:title>Matplotlib v3.10.7, https://matplotlib.org/</dc:title>
     </cc:Agent>
    </dc:creator>
   </cc:Work>
  </rdf:RDF>
 </metadata>
 <defs>
  <style type="text/css">*{stroke-linejoin: round; stroke-linecap: butt}</style>
 </defs>
 <g id="figure_1">
  <g id="patch_1">
   <path d="M 0 288 
L 648 288 
L 648 0 
L 0 0 
z
" style="fill: #ffffff"/>
  </g>
  <g id="axes_1">
   <g id="patch_2">
    <path d="M 55.1 242.44 
L 637.2 242.44 
L 637.2 30.48 
L 55.1 30.48 
z
" style="fill: #ffffff"/>
   </g>
   <g id="matplotlib.axis_1">
    <g id="xtick_1">
     <g id="line2d_1">
      <defs>
       <path id="m552e62c310" d="M 0 0 
L 0 3.5 
" style="stroke: #000000; stroke-width: 0.8"/>
      </defs>
      <g>
       <use xlink:href="#m552e62c310" x="79.354167" y="242.44" style="stroke: #000000; stroke-width: 0.8"/>
      </g>
     </g>
     <g id="text_1">
      <!-- 1月 -->
      <g transform="translate(71.204948 256.930625) scale(0.1 -0.1)">
       <defs>
        <path id="IPAexGothic-31" d="M 2463 63 
L 1900 63 
L 1900 4103 
Q 1372 3922 788 3797 
L 684 4231 
Q 1519 4441 2106 4731 
L 2463 4731 
L 2463 63 
z
" transform="scale(0.015625)"/>
        <path id="IPAexGothic-6708" d="M 5044 4984 
L 5044 256 
Q 5044 -78 4869 -203 
Q 4734 -300 4403 -300 
Q 3894 -300 3253 -247 
L 3169 244 
Q 3750 159 4294 159 
Q 4503 159 4547 263 
Q 4569 313 4569 438 
L 4569 1672 
L 1953 1672 
Q 1906 956 1716 475 
Q 1538 6 1116 -472 
L 744 -63 
Q 1259 475 1403 1244 
Q 1500 1772 1500 2650 
L 1500 4984 
L 5044 4984 
z
M 1981 4569 
L 1981 3541 
L 4569 3541 
L 4569 4569 
L 1981 4569 
z
M 1981 3144 
L 1981 2556 
Q 1981 2288 1975 2147 
L 1975 2069 
L 4569 2069 
L 4569 3144 
L 1981 3144 
z
" transform="scale(0.015625)"/>
       </defs>
       <use xlink:href="#IPAexGothic-31"/>
       <use xlink:href="#IPAexGothic-6708" transform="translate(62.988281 0)"/>
      </g>
     </g>
    </g>
    <g id="xtick_2">
     <g id="line2d_2">
      <g>
       <use xlink:href="#m552e62c310" x="127.8625" y="242.44" style="stroke: #000000; stroke-width: 0.8"/>
      </g>
     </g>
     <g id="text_2">
      <!-- 2月 -->
      <g transform="translate(119.713281 256.930625) scale(0.1 -0.1)">
       <defs>
        <path id="IPAexGothic-32" d="M 3659 63 
L 447 63 
L 447 594 
Q 825 1475 1894 2203 
L 2072 2322 
Q 2619 2697 2791 2906 
Q 2988 3153 2988 3444 
Q 2988 3772 2756 4003 
Q 2500 4259 2084 4259 
Q 1250 4259 991 3328 
L 497 3506 
Q 853 4725 2116 4725 
Q 2806 4725 3216 4316 
Q 3575 3947 3575 3425 
Q 3575 3038 3344 2722 
Q 3131 2416 2366 1938 
L 2231 1856 
Q 1256 1253 978 569 
L 3659 569 
L 3659 63 
z
" transform="scale(0.015625)"/>
       </defs>
       <use xlink:href="#IPAexGothic-32"/>
       <use xlink:href="#IPAexGothic-6708" transform="translate(62.988281 0)"/>
      </g>
     </g>
    </g>
    <g id="xtick_3">
     <g id="line2d_3">
      <g>
       <use xlink:href="#m552e62c310" x="176.370833" y="242.44" style="stroke: #000000; stroke-width: 0.8"/>
      </g>
     </g>
     <g id="text_3">
      <!-- 3月 -->
      <g transform="translate(168.221615 256.930625) scale(0.1 -0.1)">
       <defs>
        <path id="IPAexGothic-33" d="M 2381 2419 
Q 3506 2216 3506 1278 
Q 3506 716 3128 356 
Q 2709 -31 1944 -31 
Q 797 -31 288 881 
L 756 1131 
Q 1109 441 1938 441 
Q 2425 441 2694 691 
Q 2950 928 2950 1291 
Q 2950 1719 2566 1978 
Q 2216 2213 1644 2213 
L 1363 2213 
L 1363 2669 
L 1656 2669 
Q 2231 2669 2534 2888 
Q 2859 3119 2859 3509 
Q 2859 3934 2494 4138 
Q 2259 4278 1931 4278 
Q 1238 4278 903 3578 
L 434 3803 
Q 897 4725 1938 4725 
Q 2597 4725 3006 4394 
Q 3416 4069 3416 3534 
Q 3416 3028 3019 2706 
Q 2763 2500 2381 2444 
L 2381 2419 
z
" transform="scale(0.015625)"/>
       </defs>
       <use xlink:href="#IPAexGothic-33"/>
       <use xlink:href="#IPAexGothic-6708" transform="translate(62.988281 0)"/>
      </g>
     </g>
    </g>
    <g id="xtick_4">
     <g id="line2d_4">
      <g>
       <use xlink:href="#m552e62c310" x="224.879167" y="242.44" style="stroke: #000000; stroke-width: 0.8"/>
      </g>
     </g>
     <g id="text_4">
      <!-- 4月 -->
      <g transform="translate(216.729948 256.930625) scale(0.1 -0.1)">
       <defs>
        <path id="IPAexGothic-34" d="M 3813 1159 
L 3059 1159 
L 3059 63 
L 2547 63 
L 2547 1159 
L 197 1159 
L 197 1672 
L 2456 4678 
L 3059 4678 
L 3059 1634 
L 3813 1634 
L 3813 1159 
z
M 2578 4109 
L 2559 4109 
Q 2278 3656 2003 3284 
L 759 1634 
L 2547 1634 
L 2547 3144 
Q 2547 3481 2578 4109 
z
" transform="scale(0.015625)"/>
       </defs>
       <use xlink:href="#IPAexGothic-34"/>
       <use xlink:href="#IPAexGothic-6708" transform="translate(62.988281 0)"/>
      </g>
     </g>
    </g>
    <g id="xtick_5">
     <g id="line2d_5">
      <g>
       <use xlink:href="#m552e62c310" x="273.3875" y="242.44" style="stroke: #000000; stroke-width: 0.8"/>
      </g>
     </g>
     <g id="text_5">
      <!-- 5月 -->
      <g transform="translate(265.238281 256.930625) scale(0.1 -0.1)">
       <defs>
        <path id="IPAexGothic-35" d="M 1178 2603 
Q 1634 2963 2172 2963 
Q 2816 2963 3241 2528 
Q 3638 2113 3638 1497 
Q 3638 938 3297 513 
Q 2869 -31 2031 -31 
Q 959 -31 469 784 
L 938 1028 
Q 1309 434 2013 434 
Q 2466 434 2769 716 
Q 3081 1013 3081 1503 
Q 3081 1966 2806 2241 
Q 2519 2528 2056 2528 
Q 1406 2528 1072 2028 
L 591 2091 
L 884 4634 
L 3406 4634 
L 3406 4153 
L 1341 4153 
L 1134 2603 
L 1178 2603 
z
" transform="scale(0.015625)"/>
       </defs>
       <use xlink:href="#IPAexGothic-35"/>
       <use xlink:href="#IPAexGothic-6708" transform="translate(62.988281 0)"/>
      </g>
     </g>
    </g>
    <g id="xtick_6">
     <g id="line2d_6">
      <g>
       <use xlink:href="#m552e62c310" x="321.895833" y="242.44" style="stroke: #000000; stroke-width: 0.8"/>
      </g>
     </g>
     <g id="text_6">
      <!-- 6月 -->
      <g transform="translate(313.746615 256.930625) scale(0.1 -0.1)">
       <defs>
        <path id="IPAexGothic-36" d="M 1056 2328 
Q 1509 2981 2234 2981 
Q 2906 2981 3316 2513 
Q 3675 2106 3675 1522 
Q 3675 884 3272 434 
Q 2853 -31 2178 -31 
Q 1375 -31 922 581 
Q 481 1178 481 2228 
Q 481 3425 1013 4109 
Q 1494 4725 2272 4725 
Q 3191 4725 3609 4025 
L 3150 3775 
Q 2894 4266 2300 4266 
Q 1119 4266 1031 2328 
L 1056 2328 
z
M 2141 2547 
Q 1684 2547 1384 2206 
Q 1116 1900 1116 1541 
Q 1116 1156 1353 844 
Q 1672 428 2159 428 
Q 2669 428 2941 844 
Q 3125 1128 3125 1503 
Q 3125 1944 2881 2228 
Q 2600 2547 2141 2547 
z
" transform="scale(0.015625)"/>
       </defs>
       <use xlink:href="#IPAexGothic-36"/>
       <use xlink:href="#IPAexGothic-6708" transform="translate(62.988281 0)"/>
      </g>
     </g>
    </g>
    <g id="xtick_7">
     <g id="line2d_7">
      <g>
       <use xlink:href="#m552e62c310" x="370.404167" y="242.44" style="stroke: #000000; stroke-width: 0.8"/>
      </g>
     </g>
     <g id="text_7">
      <!-- 7月 -->
      <g transform="translate(362.254948 256.930625) scale(0.1 -0.1)">
       <defs>
        <path id="IPAexGothic-37" d="M 3597 4263 
Q 2238 2106 1778 63 
L 1131 63 
Q 1581 1834 2950 4128 
L 428 4128 
L 428 4634 
L 3597 4634 
L 3597 4263 
z
" transform="scale(0.015625)"/>
       </defs>
       <use xlink:href="#IPAexGothic-37"/>
       <use xlink:href="#IPAexGothic-6708" transform="translate(62.988281 0)"/>
      </g>
     </g>
    </g>
    <g id="xtick_8">
     <g id="line2d_8">
      <g>
       <use xlink:href="#m552e62c310" x="418.9125" y="242.44" style="stroke: #000000; stroke-width: 0.8"/>
      </g>
     </g>
     <g id="text_8">
      <!-- 8月 -->
      <g transform="translate(410.763281 256.930625) scale(0.1 -0.1)">
       <defs>
        <path id="IPAexGothic-38" d="M 2541 2425 
Q 3700 2031 3700 1197 
Q 3700 541 3100 197 
Q 2663 -56 2016 -56 
Q 1366 -56 928 197 
Q 347 531 347 1178 
Q 347 1988 1409 2381 
L 1409 2400 
Q 481 2734 481 3509 
Q 481 4100 981 4456 
Q 1406 4756 2019 4756 
Q 2703 4756 3131 4403 
Q 3553 4069 3553 3566 
Q 3553 2706 2541 2444 
L 2541 2425 
z
M 2022 2625 
Q 2997 2856 2997 3528 
Q 2997 3916 2675 4150 
Q 2413 4347 2016 4347 
Q 1606 4347 1331 4128 
Q 1050 3897 1050 3522 
Q 1050 3150 1350 2925 
Q 1494 2809 1722 2722 
Q 1984 2616 2022 2625 
z
M 1978 2209 
Q 922 1931 922 1216 
Q 922 775 1313 556 
Q 1606 391 2009 391 
Q 2575 391 2881 697 
Q 3106 922 3106 1250 
Q 3106 1594 2794 1850 
Q 2609 1994 2350 2100 
Q 2047 2222 1978 2209 
z
" transform="scale(0.015625)"/>
       </defs>
       <use xlink:href="#IPAexGothic-38"/>
       <use xlink:href="#IPAexGothic-6708" transform="translate(62.988281 0)"/>
      </g>
     </g>
    </g>
    <g id="xtick_9">
     <g id="line2d_9">
      <g>
       <use xlink:href="#m552e62c310" x="467.420833" y="242.44" style="stroke: #000000; stroke-width: 0.8"/>
      </g>
     </g>
     <g id="text_9">
      <!-- 9月 -->
      <g transform="translate(459.271615 256.930625) scale(0.1 -0.1)">
       <defs>
        <path id="IPAexGothic-39" d="M 2984 2356 
Q 2544 1716 1813 1716 
Q 1253 1716 847 2056 
Q 366 2459 366 3163 
Q 366 3813 769 4266 
Q 1181 4725 1869 4725 
Q 2800 4725 3241 3950 
Q 3559 3378 3559 2472 
Q 3559 1250 3041 588 
Q 2553 -31 1769 -31 
Q 859 -31 391 703 
L 853 953 
Q 1156 428 1753 428 
Q 2922 428 3009 2356 
L 2984 2356 
z
M 1888 4278 
Q 1450 4278 1172 3950 
Q 922 3653 922 3200 
Q 922 2741 1159 2478 
Q 1434 2163 1906 2163 
Q 2431 2163 2728 2572 
Q 2925 2847 2925 3169 
Q 2925 3553 2694 3863 
Q 2375 4278 1888 4278 
z
" transform="scale(0.015625)"/>
       </defs>
       <use xlink:href="#IPAexGothic-39"/>
       <use xlink:href="#IPAexGothic-6708" transform="translate(62.988281 0)"/>
      </g>
     </g>
    </g>
    <g id="xtick_10">
     <g id="line2d_10">
      <g>
       <use xlink:href="#m552e62c310" x="515.929167" y="242.44" style="stroke: #000000; stroke-width: 0.8"/>
      </g>
     </g>
     <g id="text_10">
      <!-- 10月 -->
      <g transform="translate(504.630729 256.930625) scale(0.1 -0.1)">
       <defs>
        <path id="IPAexGothic-30" d="M 2038 4725 
Q 2881 4725 3334 3944 
Q 3694 3325 3694 2344 
Q 3694 1372 3334 741 
Q 2888 -31 2016 -31 
Q 1147 -31 700 741 
Q 341 1372 341 2350 
Q 341 3713 1000 4334 
Q 1419 4725 2038 4725 
z
M 2016 4266 
Q 1516 4266 1228 3759 
Q 934 3247 934 2344 
Q 934 1456 1222 947 
Q 1513 447 2016 447 
Q 2619 447 2909 1153 
Q 3100 1622 3100 2375 
Q 3100 3256 2806 3759 
Q 2509 4266 2016 4266 
z
" transform="scale(0.015625)"/>
       </defs>
       <use xlink:href="#IPAexGothic-31"/>
       <use xlink:href="#IPAexGothic-30" transform="translate(62.988281 0)"/>
       <use xlink:href="#IPAexGothic-6708" transform="translate(125.976562 0)"/>
      </g>
     </g>
    </g>
    <g id="xtick_11">
     <g id="line2d_11">
      <g>
       <use xlink:href="#m552e62c310" x="564.4375" y="242.44" style="stroke: #000000; stroke-width: 0.8"/>
      </g>
     </g>
     <g id="text_11">
      <!-- 11月 -->
      <g transform="translate(553.139062 256.930625) scale(0.1 -0.1)">
       <use xlink:href="#IPAexGothic-31"/>
       <use xlink:href="#IPAexGothic-31" transform="translate(62.988281 0)"/>
       <use xlink:href="#IPAexGothic-6708" transform="translate(125.976562 0)"/>
      </g>
     </g>
    </g>
    <g id="xtick_12">
     <g id="line2d_12">
      <g>
       <use xlink:href="#m552e62c310" x="612.945833" y="242.44" style="stroke: #000000; stroke-width: 0.8"/>
      </g>
     </g>
     <g id="text_12">
      <!-- 12月 -->
      <g transform="translate(601.647396 256.930625) scale(0.1 -0.1)">
       <use xlink:href="#IPAexGothic-31"/>
       <use xlink:href="#IPAexGothic-32" transform="translate(62.988281 0)"/>
       <use xlink:href="#IPAexGothic-6708" transform="translate(125.976562 0)"/>
      </g>
     </g>
    </g>
    <g id="text_13">
     <!-- 月 -->
     <g transform="translate(338.95 273.617125) scale(0.144 -0.144)">
      <use xlink:href="#IPAexGothic-6708"/>
     </g>
    </g>
   </g>
   <g id="matplotlib.axis_2">
    <g id="ytick_1">
     <g id="line2d_13">
      <path d="M 55.1 221.783056 
L 637.2 221.783056 
" clip-path="url(#pf6c14d3c68)" style="fill: none; stroke: #000000; stroke-opacity: 0.3; stroke-width: 0.5; stroke-linecap: square"/>
     </g>
     <g id="line2d_14">
      <defs>
       <path id="m61d55e38c4" d="M 0 0 
L -3.5 0 
" style="stroke: #000000; stroke-width: 0.8"/>
      </defs>
      <g>
       <use xlink:href="#m61d55e38c4" x="55.1" y="221.783056" style="stroke: #000000; stroke-width: 0.8"/>
      </g>
     </g>
     <g id="text_14">
      <!-- 140 -->
      <g transform="translate(29.204688 225.528369) scale(0.1 -0.1)">
       <use xlink:href="#IPAexGothic-31"/>
       <use xlink:href="#IPAexGothic-34" transform="translate(62.988281 0)"/>
       <use xlink:href="#IPAexGothic-30" transform="translate(125.976562 0)"/>
      </g>
     </g>
    </g>
    <g id="ytick_2">
     <g id="line2d_15">
      <path d="M 55.1 175.874098 
L 637.2 175.874098 
" clip-path="url(#pf6c14d3c68)" style="fill: none; stroke: #000000; stroke-opacity: 0.3; stroke-width: 0.5; stroke-linecap: square"/>
     </g>
     <g id="line2d_16">
      <g>
       <use xlink:href="#m61d55e38c4" x="55.1" y="175.874098" style="stroke: #000000; stroke-width: 0.8"/>
      </g>
     </g>
     <g id="text_15">
      <!-- 145 -->
      <g transform="translate(29.204688 179.619411) scale(0.1 -0.1)">
       <use xlink:href="#IPAexGothic-31"/>
       <use xlink:href="#IPAexGothic-34" transform="translate(62.988281 0)"/>
       <use xlink:href="#IPAexGothic-35" transform="translate(125.976562 0)"/>
      </g>
     </g>
    </g>
    <g id="ytick_3">
     <g id="line2d_17">
      <path d="M 55.1 129.96514 
L 637.2 129.96514 
" clip-path="url(#pf6c14d3c68)" style="fill: none; stroke: #000000; stroke-opacity: 0.3; stroke-width: 0.5; stroke-linecap: square"/>
     </g>
     <g id="line2d_18">
      <g>
       <use xlink:href="#m61d55e38c4" x="55.1" y="129.96514" style="stroke: #000000; stroke-width: 0.8"/>
      </g>
     </g>
     <g id="text_16">
      <!-- 150 -->
      <g transform="translate(29.204688 133.710452) scale(0.1 -0.1)">
       <use xlink:href="#IPAexGothic-31"/>
       <use xlink:href="#IPAexGothic-35" transform="translate(62.988281 0)"/>
       <use xlink:href="#IPAexGothic-30" transform="translate(125.976562 0)"/>
      </g>
     </g>
    </g>
    <g id="ytick_4">
     <g id="line2d_19">
      <path d="M 55.1 84.056182 
L 637.2 84.056182 
" clip-path="url(#pf6c14d3c68)" style="fill: none; stroke: #000000; stroke-opacity: 0.3; stroke-width: 0.5; stroke-linecap: square"/>
     </g>
     <g id="line2d_20">
      <g>
       <use xlink:href="#m61d55e38c4" x="55.1" y="84.056182" style="stroke: #000000; stroke-width: 0.8"/>
      </g>
     </g>
     <g id="text_17">
      <!-- 155 -->
      <g transform="translate(29.204688 87.801494) scale(0.1 -0.1)">
       <use xlink:href="#IPAexGothic-31"/>
       <use xlink:href="#IPAexGothic-35" transform="translate(62.988281 0)"/>
       <use xlink:href="#IPAexGothic-35" transform="translate(125.976562 0)"/>
      </g>
     </g>
    </g>
    <g id="ytick_5">
     <g id="line2d_21">
      <path d="M 55.1 38.147223 
L 637.2 38.147223 
" clip-path="url(#pf6c14d3c68)" style="fill: none; stroke: #000000; stroke-opacity: 0.3; stroke-width: 0.5; stroke-linecap: square"/>
     </g>
     <g id="line2d_22">
      <g>
       <use xlink:href="#m61d55e38c4" x="55.1" y="38.147223" style="stroke: #000000; stroke-width: 0.8"/>
      </g>
     </g>
     <g id="text_18">
      <!-- 160 -->
      <g transform="translate(29.204688 41.892536) scale(0.1 -0.1)">
       <use xlink:href="#IPAexGothic-31"/>
       <use xlink:href="#IPAexGothic-36" transform="translate(62.988281 0)"/>
       <use xlink:href="#IPAexGothic-30" transform="translate(125.976562 0)"/>
      </g>
     </g>
    </g>
    <g id="text_19">
     <!-- 値 -->
     <g transform="translate(22.468688 143.66) rotate(-90) scale(0.144 -0.144)">
      <defs>
       <path id="IPAexGothic-5024" d="M 4172 3675 
L 5453 3675 
L 5453 684 
L 3019 684 
L 3019 3675 
L 3750 3675 
Q 3788 3884 3825 4153 
L 2141 4153 
L 2141 4544 
L 3884 4544 
Q 3922 4844 3966 5325 
L 4434 5272 
L 4388 4953 
Q 4331 4578 4331 4544 
L 5863 4544 
L 5863 4153 
L 4269 4153 
Q 4200 3781 4172 3675 
z
M 5038 3316 
L 3434 3316 
L 3434 2803 
L 5038 2803 
L 5038 3316 
z
M 3434 2450 
L 3434 1941 
L 5038 1941 
L 5038 2450 
L 3434 2450 
z
M 3434 1588 
L 3434 1044 
L 5038 1044 
L 5038 1588 
L 3434 1588 
z
M 1509 3669 
L 1509 -447 
L 1069 -447 
L 1069 2725 
Q 856 2338 531 1875 
L 288 2266 
Q 1163 3531 1541 5325 
L 1975 5222 
Q 1791 4378 1509 3669 
z
M 2488 244 
L 6031 244 
L 6031 -153 
L 2488 -153 
L 2488 -447 
L 2059 -447 
L 2059 3213 
L 2488 3213 
L 2488 244 
z
" transform="scale(0.015625)"/>
      </defs>
      <use xlink:href="#IPAexGothic-5024"/>
     </g>
    </g>
   </g>
   <g id="patch_3">
    <path d="M 67.227083 130.005421 
L 91.48125 130.005421 
L 91.48125 102.648742 
L 67.227083 102.648742 
L 67.227083 130.005421 
z
" clip-path="url(#pf6c14d3c68)" style="fill: #264653; stroke: #000000; stroke-linejoin: miter"/>
   </g>
   <g id="line2d_23">
    <path d="M 79.354167 130.005421 
L 79.354167 163.22222 
" clip-path="url(#pf6c14d3c68)" style="fill: none; stroke: #000000; stroke-linecap: square"/>
   </g>
   <g id="line2d_24">
    <path d="M 79.354167 102.648742 
L 79.354167 74.248836 
" clip-path="url(#pf6c14d3c68)" style="fill: none; stroke: #000000; stroke-linecap: square"/>
   </g>
   <g id="line2d_25">
    <path d="M 73.290625 163.22222 
L 85.417708 163.22222 
" clip-path="url(#pf6c14d3c68)" style="fill: none; stroke: #000000; stroke-linecap: square"/>
   </g>
   <g id="line2d_26">
    <path d="M 73.290625 74.248836 
L 85.417708 74.248836 
" clip-path="url(#pf6c14d3c68)" style="fill: none; stroke: #000000; stroke-linecap: square"/>
   </g>
   <g id="line2d_27"/>
   <g id="patch_4">
    <path d="M 115.735417 112.422585 
L 139.989583 112.422585 
L 139.989583 85.048507 
L 115.735417 85.048507 
L 115.735417 112.422585 
z
" clip-path="url(#pf6c14d3c68)" style="fill: #264653; stroke: #000000; stroke-linejoin: miter"/>
   </g>
   <g id="line2d_28">
    <path d="M 127.8625 112.422585 
L 127.8625 145.801929 
" clip-path="url(#pf6c14d3c68)" style="fill: none; stroke: #000000; stroke-linecap: square"/>
   </g>
   <g id="line2d_29">
    <path d="M 127.8625 85.048507 
L 127.8625 45.543011 
" clip-path="url(#pf6c14d3c68)" style="fill: none; stroke: #000000; stroke-linecap: square"/>
   </g>
   <g id="line2d_30">
    <path d="M 121.798958 145.801929 
L 133.926042 145.801929 
" clip-path="url(#pf6c14d3c68)" style="fill: none; stroke: #000000; stroke-linecap: square"/>
   </g>
   <g id="line2d_31">
    <path d="M 121.798958 45.543011 
L 133.926042 45.543011 
" clip-path="url(#pf6c14d3c68)" style="fill: none; stroke: #000000; stroke-linecap: square"/>
   </g>
   <g id="line2d_32"/>
   <g id="patch_5">
    <path d="M 164.24375 97.280814 
L 188.497917 97.280814 
L 188.497917 72.762591 
L 164.24375 72.762591 
L 164.24375 97.280814 
z
" clip-path="url(#pf6c14d3c68)" style="fill: #264653; stroke: #000000; stroke-linejoin: miter"/>
   </g>
   <g id="line2d_33">
    <path d="M 176.370833 97.280814 
L 176.370833 129.094054 
" clip-path="url(#pf6c14d3c68)" style="fill: none; stroke: #000000; stroke-linecap: square"/>
   </g>
   <g id="line2d_34">
    <path d="M 176.370833 72.762591 
L 176.370833 41.412051 
" clip-path="url(#pf6c14d3c68)" style="fill: none; stroke: #000000; stroke-linecap: square"/>
   </g>
   <g id="line2d_35">
    <path d="M 170.307292 129.094054 
L 182.434375 129.094054 
" clip-path="url(#pf6c14d3c68)" style="fill: none; stroke: #000000; stroke-linecap: square"/>
   </g>
   <g id="line2d_36">
    <path d="M 170.307292 41.412051 
L 182.434375 41.412051 
" clip-path="url(#pf6c14d3c68)" style="fill: none; stroke: #000000; stroke-linecap: square"/>
   </g>
   <g id="line2d_37"/>
   <g id="patch_6">
    <path d="M 212.752083 99.619666 
L 237.00625 99.619666 
L 237.00625 72.143616 
L 212.752083 72.143616 
L 212.752083 99.619666 
z
" clip-path="url(#pf6c14d3c68)" style="fill: #264653; stroke: #000000; stroke-linejoin: miter"/>
   </g>
   <g id="line2d_38">
    <path d="M 224.879167 99.619666 
L 224.879167 134.934017 
" clip-path="url(#pf6c14d3c68)" style="fill: none; stroke: #000000; stroke-linecap: square"/>
   </g>
   <g id="line2d_39">
    <path d="M 224.879167 72.143616 
L 224.879167 40.114545 
" clip-path="url(#pf6c14d3c68)" style="fill: none; stroke: #000000; stroke-linecap: square"/>
   </g>
   <g id="line2d_40">
    <path d="M 218.815625 134.934017 
L 230.942708 134.934017 
" clip-path="url(#pf6c14d3c68)" style="fill: none; stroke: #000000; stroke-linecap: square"/>
   </g>
   <g id="line2d_41">
    <path d="M 218.815625 40.114545 
L 230.942708 40.114545 
" clip-path="url(#pf6c14d3c68)" style="fill: none; stroke: #000000; stroke-linecap: square"/>
   </g>
   <g id="line2d_42"/>
   <g id="patch_7">
    <path d="M 261.260417 110.616674 
L 285.514583 110.616674 
L 285.514583 85.378991 
L 261.260417 85.378991 
L 261.260417 110.616674 
z
" clip-path="url(#pf6c14d3c68)" style="fill: #264653; stroke: #000000; stroke-linejoin: miter"/>
   </g>
   <g id="line2d_43">
    <path d="M 273.3875 110.616674 
L 273.3875 141.154001 
" clip-path="url(#pf6c14d3c68)" style="fill: none; stroke: #000000; stroke-linecap: square"/>
   </g>
   <g id="line2d_44">
    <path d="M 273.3875 85.378991 
L 273.3875 56.30286 
" clip-path="url(#pf6c14d3c68)" style="fill: none; stroke: #000000; stroke-linecap: square"/>
   </g>
   <g id="line2d_45">
    <path d="M 267.323958 141.154001 
L 279.451042 141.154001 
" clip-path="url(#pf6c14d3c68)" style="fill: none; stroke: #000000; stroke-linecap: square"/>
   </g>
   <g id="line2d_46">
    <path d="M 267.323958 56.30286 
L 279.451042 56.30286 
" clip-path="url(#pf6c14d3c68)" style="fill: none; stroke: #000000; stroke-linecap: square"/>
   </g>
   <g id="line2d_47">
    <defs>
     <path id="m447553a107" d="M 0 3 
C 0.795609 3 1.55874 2.683901 2.12132 2.12132 
C 2.683901 1.55874 3 0.795609 3 0 
C 3 -0.795609 2.683901 -1.55874 2.12132 -2.12132 
C 1.55874 -2.683901 0.795609 -3 0 -3 
C -0.795609 -3 -1.55874 -2.683901 -2.12132 -2.12132 
C -2.683901 -1.55874 -3 -0.795609 -3 0 
C -3 0.795609 -2.683901 1.55874 -2.12132 2.12132 
C -1.55874 2.683901 -0.795609 3 0 3 
z
" style="stroke: #000000"/>
    </defs>
    <g clip-path="url(#pf6c14d3c68)">
     <use xlink:href="#m447553a107" x="273.3875" y="150.25815" style="fill-opacity: 0; stroke: #000000"/>
     <use xlink:href="#m447553a107" x="273.3875" y="165.465712" style="fill-opacity: 0; stroke: #000000"/>
     <use xlink:href="#m447553a107" x="273.3875" y="44.415274" style="fill-opacity: 0; stroke: #000000"/>
    </g>
   </g>
   <g id="patch_8">
    <path d="M 309.76875 137.947684 
L 334.022917 137.947684 
L 334.022917 109.764973 
L 309.76875 109.764973 
L 309.76875 137.947684 
z
" clip-path="url(#pf6c14d3c68)" style="fill: #264653; stroke: #000000; stroke-linejoin: miter"/>
   </g>
   <g id="line2d_48">
    <path d="M 321.895833 137.947684 
L 321.895833 163.906339 
" clip-path="url(#pf6c14d3c68)" style="fill: none; stroke: #000000; stroke-linecap: square"/>
   </g>
   <g id="line2d_49">
    <path d="M 321.895833 109.764973 
L 321.895833 71.130213 
" clip-path="url(#pf6c14d3c68)" style="fill: none; stroke: #000000; stroke-linecap: square"/>
   </g>
   <g id="line2d_50">
    <path d="M 315.832292 163.906339 
L 327.959375 163.906339 
" clip-path="url(#pf6c14d3c68)" style="fill: none; stroke: #000000; stroke-linecap: square"/>
   </g>
   <g id="line2d_51">
    <path d="M 315.832292 71.130213 
L 327.959375 71.130213 
" clip-path="url(#pf6c14d3c68)" style="fill: none; stroke: #000000; stroke-linecap: square"/>
   </g>
   <g id="line2d_52"/>
   <g id="patch_9">
    <path d="M 358.277083 154.11327 
L 382.53125 154.11327 
L 382.53125 127.958803 
L 358.277083 127.958803 
L 358.277083 154.11327 
z
" clip-path="url(#pf6c14d3c68)" style="fill: #264653; stroke: #000000; stroke-linejoin: miter"/>
   </g>
   <g id="line2d_53">
    <path d="M 370.404167 154.11327 
L 370.404167 185.198346 
" clip-path="url(#pf6c14d3c68)" style="fill: none; stroke: #000000; stroke-linecap: square"/>
   </g>
   <g id="line2d_54">
    <path d="M 370.404167 127.958803 
L 370.404167 89.682167 
" clip-path="url(#pf6c14d3c68)" style="fill: none; stroke: #000000; stroke-linecap: square"/>
   </g>
   <g id="line2d_55">
    <path d="M 364.340625 185.198346 
L 376.467708 185.198346 
" clip-path="url(#pf6c14d3c68)" style="fill: none; stroke: #000000; stroke-linecap: square"/>
   </g>
   <g id="line2d_56">
    <path d="M 364.340625 89.682167 
L 376.467708 89.682167 
" clip-path="url(#pf6c14d3c68)" style="fill: none; stroke: #000000; stroke-linecap: square"/>
   </g>
   <g id="line2d_57">
    <g clip-path="url(#pf6c14d3c68)">
     <use xlink:href="#m447553a107" x="370.404167" y="193.932491" style="fill-opacity: 0; stroke: #000000"/>
     <use xlink:href="#m447553a107" x="370.404167" y="87.555225" style="fill-opacity: 0; stroke: #000000"/>
    </g>
   </g>
   <g id="patch_10">
    <path d="M 406.785417 169.71734 
L 431.039583 169.71734 
L 431.039583 148.849506 
L 406.785417 148.849506 
L 406.785417 169.71734 
z
" clip-path="url(#pf6c14d3c68)" style="fill: #264653; stroke: #000000; stroke-linejoin: miter"/>
   </g>
   <g id="line2d_58">
    <path d="M 418.9125 169.71734 
L 418.9125 198.348847 
" clip-path="url(#pf6c14d3c68)" style="fill: none; stroke: #000000; stroke-linecap: square"/>
   </g>
   <g id="line2d_59">
    <path d="M 418.9125 148.849506 
L 418.9125 120.319671 
" clip-path="url(#pf6c14d3c68)" style="fill: none; stroke: #000000; stroke-linecap: square"/>
   </g>
   <g id="line2d_60">
    <path d="M 412.848958 198.348847 
L 424.976042 198.348847 
" clip-path="url(#pf6c14d3c68)" style="fill: none; stroke: #000000; stroke-linecap: square"/>
   </g>
   <g id="line2d_61">
    <path d="M 412.848958 120.319671 
L 424.976042 120.319671 
" clip-path="url(#pf6c14d3c68)" style="fill: none; stroke: #000000; stroke-linecap: square"/>
   </g>
   <g id="line2d_62">
    <g clip-path="url(#pf6c14d3c68)">
     <use xlink:href="#m447553a107" x="418.9125" y="218.571864" style="fill-opacity: 0; stroke: #000000"/>
     <use xlink:href="#m447553a107" x="418.9125" y="206.570512" style="fill-opacity: 0; stroke: #000000"/>
     <use xlink:href="#m447553a107" x="418.9125" y="201.474348" style="fill-opacity: 0; stroke: #000000"/>
     <use xlink:href="#m447553a107" x="418.9125" y="201.123472" style="fill-opacity: 0; stroke: #000000"/>
    </g>
   </g>
   <g id="patch_11">
    <path d="M 455.29375 185.565934 
L 479.547917 185.565934 
L 479.547917 159.476088 
L 455.29375 159.476088 
L 455.29375 185.565934 
z
" clip-path="url(#pf6c14d3c68)" style="fill: #264653; stroke: #000000; stroke-linejoin: miter"/>
   </g>
   <g id="line2d_63">
    <path d="M 467.420833 185.565934 
L 467.420833 211.891574 
" clip-path="url(#pf6c14d3c68)" style="fill: none; stroke: #000000; stroke-linecap: square"/>
   </g>
   <g id="line2d_64">
    <path d="M 467.420833 159.476088 
L 467.420833 121.541466 
" clip-path="url(#pf6c14d3c68)" style="fill: none; stroke: #000000; stroke-linecap: square"/>
   </g>
   <g id="line2d_65">
    <path d="M 461.357292 211.891574 
L 473.484375 211.891574 
" clip-path="url(#pf6c14d3c68)" style="fill: none; stroke: #000000; stroke-linecap: square"/>
   </g>
   <g id="line2d_66">
    <path d="M 461.357292 121.541466 
L 473.484375 121.541466 
" clip-path="url(#pf6c14d3c68)" style="fill: none; stroke: #000000; stroke-linecap: square"/>
   </g>
   <g id="line2d_67">
    <g clip-path="url(#pf6c14d3c68)">
     <use xlink:href="#m447553a107" x="467.420833" y="232.805455" style="fill-opacity: 0; stroke: #000000"/>
    </g>
   </g>
   <g id="patch_12">
    <path d="M 503.802083 185.416926 
L 528.05625 185.416926 
L 528.05625 154.668323 
L 503.802083 154.668323 
L 503.802083 185.416926 
z
" clip-path="url(#pf6c14d3c68)" style="fill: #264653; stroke: #000000; stroke-linejoin: miter"/>
   </g>
   <g id="line2d_68">
    <path d="M 515.929167 185.416926 
L 515.929167 220.387346 
" clip-path="url(#pf6c14d3c68)" style="fill: none; stroke: #000000; stroke-linecap: square"/>
   </g>
   <g id="line2d_69">
    <path d="M 515.929167 154.668323 
L 515.929167 113.716325 
" clip-path="url(#pf6c14d3c68)" style="fill: none; stroke: #000000; stroke-linecap: square"/>
   </g>
   <g id="line2d_70">
    <path d="M 509.865625 220.387346 
L 521.992708 220.387346 
" clip-path="url(#pf6c14d3c68)" style="fill: none; stroke: #000000; stroke-linecap: square"/>
   </g>
   <g id="line2d_71">
    <path d="M 509.865625 113.716325 
L 521.992708 113.716325 
" clip-path="url(#pf6c14d3c68)" style="fill: none; stroke: #000000; stroke-linecap: square"/>
   </g>
   <g id="line2d_72"/>
   <g id="patch_13">
    <path d="M 552.310417 172.407926 
L 576.564583 172.407926 
L 576.564583 148.111859 
L 552.310417 148.111859 
L 552.310417 172.407926 
z
" clip-path="url(#pf6c14d3c68)" style="fill: #264653; stroke: #000000; stroke-linejoin: miter"/>
   </g>
   <g id="line2d_73">
    <path d="M 564.4375 172.407926 
L 564.4375 205.076808 
" clip-path="url(#pf6c14d3c68)" style="fill: none; stroke: #000000; stroke-linecap: square"/>
   </g>
   <g id="line2d_74">
    <path d="M 564.4375 148.111859 
L 564.4375 111.917114 
" clip-path="url(#pf6c14d3c68)" style="fill: none; stroke: #000000; stroke-linecap: square"/>
   </g>
   <g id="line2d_75">
    <path d="M 558.373958 205.076808 
L 570.501042 205.076808 
" clip-path="url(#pf6c14d3c68)" style="fill: none; stroke: #000000; stroke-linecap: square"/>
   </g>
   <g id="line2d_76">
    <path d="M 558.373958 111.917114 
L 570.501042 111.917114 
" clip-path="url(#pf6c14d3c68)" style="fill: none; stroke: #000000; stroke-linecap: square"/>
   </g>
   <g id="line2d_77">
    <g clip-path="url(#pf6c14d3c68)">
     <use xlink:href="#m447553a107" x="564.4375" y="108.204378" style="fill-opacity: 0; stroke: #000000"/>
    </g>
   </g>
   <g id="patch_14">
    <path d="M 600.81875 152.093961 
L 625.072917 152.093961 
L 625.072917 127.233367 
L 600.81875 127.233367 
L 600.81875 152.093961 
z
" clip-path="url(#pf6c14d3c68)" style="fill: #264653; stroke: #000000; stroke-linejoin: miter"/>
   </g>
   <g id="line2d_78">
    <path d="M 612.945833 152.093961 
L 612.945833 186.406548 
" clip-path="url(#pf6c14d3c68)" style="fill: none; stroke: #000000; stroke-linecap: square"/>
   </g>
   <g id="line2d_79">
    <path d="M 612.945833 127.233367 
L 612.945833 95.27567 
" clip-path="url(#pf6c14d3c68)" style="fill: none; stroke: #000000; stroke-linecap: square"/>
   </g>
   <g id="line2d_80">
    <path d="M 606.882292 186.406548 
L 619.009375 186.406548 
" clip-path="url(#pf6c14d3c68)" style="fill: none; stroke: #000000; stroke-linecap: square"/>
   </g>
   <g id="line2d_81">
    <path d="M 606.882292 95.27567 
L 619.009375 95.27567 
" clip-path="url(#pf6c14d3c68)" style="fill: none; stroke: #000000; stroke-linecap: square"/>
   </g>
   <g id="line2d_82">
    <g clip-path="url(#pf6c14d3c68)">
     <use xlink:href="#m447553a107" x="612.945833" y="189.87713" style="fill-opacity: 0; stroke: #000000"/>
     <use xlink:href="#m447553a107" x="612.945833" y="189.579284" style="fill-opacity: 0; stroke: #000000"/>
     <use xlink:href="#m447553a107" x="612.945833" y="195.185381" style="fill-opacity: 0; stroke: #000000"/>
     <use xlink:href="#m447553a107" x="612.945833" y="78.043897" style="fill-opacity: 0; stroke: #000000"/>
    </g>
   </g>
   <g id="line2d_83">
    <path d="M 67.227083 115.033275 
L 91.48125 115.033275 
" clip-path="url(#pf6c14d3c68)" style="fill: none; stroke: #2a9d8f"/>
   </g>
   <g id="line2d_84">
    <path d="M 115.735417 97.715295 
L 139.989583 97.715295 
" clip-path="url(#pf6c14d3c68)" style="fill: none; stroke: #2a9d8f"/>
   </g>
   <g id="line2d_85">
    <path d="M 164.24375 86.002538 
L 188.497917 86.002538 
" clip-path="url(#pf6c14d3c68)" style="fill: none; stroke: #2a9d8f"/>
   </g>
   <g id="line2d_86">
    <path d="M 212.752083 84.3858 
L 237.00625 84.3858 
" clip-path="url(#pf6c14d3c68)" style="fill: none; stroke: #2a9d8f"/>
   </g>
   <g id="line2d_87">
    <path d="M 261.260417 97.405819 
L 285.514583 97.405819 
" clip-path="url(#pf6c14d3c68)" style="fill: none; stroke: #2a9d8f"/>
   </g>
   <g id="line2d_88">
    <path d="M 309.76875 122.069034 
L 334.022917 122.069034 
" clip-path="url(#pf6c14d3c68)" style="fill: none; stroke: #2a9d8f"/>
   </g>
   <g id="line2d_89">
    <path d="M 358.277083 141.591078 
L 382.53125 141.591078 
" clip-path="url(#pf6c14d3c68)" style="fill: none; stroke: #2a9d8f"/>
   </g>
   <g id="line2d_90">
    <path d="M 406.785417 158.501833 
L 431.039583 158.501833 
" clip-path="url(#pf6c14d3c68)" style="fill: none; stroke: #2a9d8f"/>
   </g>
   <g id="line2d_91">
    <path d="M 455.29375 175.156565 
L 479.547917 175.156565 
" clip-path="url(#pf6c14d3c68)" style="fill: none; stroke: #2a9d8f"/>
   </g>
   <g id="line2d_92">
    <path d="M 503.802083 170.567883 
L 528.05625 170.567883 
" clip-path="url(#pf6c14d3c68)" style="fill: none; stroke: #2a9d8f"/>
   </g>
   <g id="line2d_93">
    <path d="M 552.310417 159.375274 
L 576.564583 159.375274 
" clip-path="url(#pf6c14d3c68)" style="fill: none; stroke: #2a9d8f"/>
   </g>
   <g id="line2d_94">
    <path d="M 600.81875 139.064787 
L 625.072917 139.064787 
" clip-path="url(#pf6c14d3c68)" style="fill: none; stroke: #2a9d8f"/>
   </g>
   <g id="text_20">
    <!-- 月別ボックスプロット -->
    <g transform="translate(259.75 24.48) scale(0.1728 -0.1728)">
     <defs>
      <path id="IPAexGothic-5225" d="M 1922 2963 
Q 1906 2453 1894 2209 
L 3341 2209 
Q 3313 550 3175 63 
Q 3059 -366 2413 -366 
Q 2072 -366 1753 -313 
L 1691 134 
Q 2084 63 2413 63 
Q 2694 63 2759 319 
Q 2856 722 2888 1753 
Q 2888 1800 2894 1819 
L 1863 1819 
Q 1709 350 700 -481 
L 353 -147 
Q 1075 403 1306 1256 
Q 1450 1822 1478 2963 
L 700 2963 
L 700 4984 
L 3278 4984 
L 3278 2963 
L 1922 2963 
z
M 1141 4588 
L 1141 3353 
L 2838 3353 
L 2838 4588 
L 1141 4588 
z
M 3972 4597 
L 4425 4597 
L 4425 1159 
L 3972 1159 
L 3972 4597 
z
M 5309 5044 
L 5763 5044 
L 5763 191 
Q 5763 -141 5581 -263 
Q 5438 -359 5116 -359 
Q 4688 -359 4253 -313 
L 4156 178 
Q 4625 116 5072 116 
Q 5309 116 5309 353 
L 5309 5044 
z
" transform="scale(0.015625)"/>
      <path id="IPAexGothic-30dc" d="M 2972 4953 
L 3478 4953 
L 3478 3769 
L 5584 3769 
L 5584 3316 
L 3478 3316 
L 3478 372 
Q 3478 -172 2844 -172 
Q 2431 -172 2019 -97 
L 1909 434 
Q 2300 334 2716 334 
Q 2972 334 2972 591 
L 2972 3316 
L 822 3316 
L 822 3769 
L 2972 3769 
L 2972 4953 
z
M 603 897 
Q 988 1269 1222 1666 
Q 1438 2038 1600 2547 
L 2050 2344 
Q 1859 1741 1588 1300 
Q 1372 950 1000 531 
L 603 897 
z
M 5313 684 
Q 4847 1672 4309 2363 
L 4719 2631 
Q 5269 1991 5775 1006 
L 5313 684 
z
M 5728 4391 
Q 5369 4931 4975 5259 
L 5275 5491 
Q 5659 5181 6050 4666 
L 5728 4391 
z
M 5091 3969 
Q 4800 4459 4353 4856 
L 4666 5100 
Q 5038 4794 5422 4244 
L 5091 3969 
z
" transform="scale(0.015625)"/>
      <path id="IPAexGothic-30c3" d="M 1775 1984 
Q 1553 2666 1275 3175 
L 1716 3391 
Q 2034 2866 2247 2209 
L 1775 1984 
z
M 3003 2297 
Q 2813 2978 2522 3469 
L 2978 3681 
Q 3291 3166 3484 2522 
L 3003 2297 
z
M 1928 372 
Q 3094 744 3731 1569 
Q 4275 2263 4469 3525 
L 4975 3406 
Q 4734 1975 4016 1119 
Q 3406 391 2266 -44 
L 1928 372 
z
" transform="scale(0.015625)"/>
      <path id="IPAexGothic-30af" d="M 4934 4191 
L 5272 3941 
Q 4894 2334 4031 1300 
Q 3275 391 2028 -225 
L 1656 184 
Q 2875 691 3641 1625 
Q 4403 2553 4691 3731 
L 2903 3731 
Q 2188 2653 1356 1959 
L 978 2309 
Q 2328 3400 2931 5022 
L 3422 4881 
Q 3363 4672 3141 4191 
L 4934 4191 
z
" transform="scale(0.015625)"/>
      <path id="IPAexGothic-30b9" d="M 4359 4481 
L 4716 4147 
Q 4328 3072 3647 2150 
Q 4659 1434 5659 453 
L 5234 19 
Q 4256 1088 3353 1778 
Q 2372 597 1044 -31 
L 653 403 
Q 3128 1453 4097 4000 
L 1241 3963 
L 1228 4453 
L 4359 4481 
z
" transform="scale(0.015625)"/>
      <path id="IPAexGothic-30d7" d="M 4825 4275 
L 5125 4000 
Q 4884 2378 4081 1381 
Q 3294 413 1888 -116 
L 1522 331 
Q 4069 1113 4550 3803 
L 966 3738 
L 966 4225 
L 4825 4275 
z
M 5597 5509 
Q 5906 5509 6119 5275 
Q 6303 5075 6303 4806 
Q 6303 4494 6069 4281 
Q 5866 4097 5597 4097 
Q 5284 4097 5072 4331 
Q 4888 4534 4888 4806 
Q 4888 5116 5122 5328 
Q 5328 5509 5597 5509 
z
M 5597 5228 
Q 5409 5228 5278 5088 
Q 5169 4966 5169 4806 
Q 5169 4616 5309 4488 
Q 5434 4378 5597 4378 
Q 5784 4378 5913 4519 
Q 6022 4641 6022 4806 
Q 6022 4991 5881 5119 
Q 5759 5228 5597 5228 
z
" transform="scale(0.015625)"/>
      <path id="IPAexGothic-30ed" d="M 1147 4269 
L 5250 4269 
L 5250 172 
L 4725 172 
L 4725 569 
L 1672 569 
L 1672 172 
L 1147 172 
L 1147 4269 
z
M 1672 3781 
L 1672 1063 
L 4725 1063 
L 4725 3781 
L 1672 3781 
z
" transform="scale(0.015625)"/>
      <path id="IPAexGothic-30c8" d="M 2284 4997 
L 2803 4997 
L 2803 3206 
Q 4088 2619 5216 1888 
L 4878 1369 
Q 3819 2175 2803 2688 
L 2803 -184 
L 2284 -184 
L 2284 4997 
z
" transform="scale(0.015625)"/>
     </defs>
     <use xlink:href="#IPAexGothic-6708"/>
     <use xlink:href="#IPAexGothic-5225" transform="translate(100 0)"/>
     <use xlink:href="#IPAexGothic-30dc" transform="translate(200 0)"/>
     <use xlink:href="#IPAexGothic-30c3" transform="translate(300 0)"/>
     <use xlink:href="#IPAexGothic-30af" transform="translate(400 0)"/>
     <use xlink:href="#IPAexGothic-30b9" transform="translate(500 0)"/>
     <use xlink:href="#IPAexGothic-30d7" transform="translate(600 0)"/>
     <use xlink:href="#IPAexGothic-30ed" transform="translate(700 0)"/>
     <use xlink:href="#IPAexGothic-30c3" transform="translate(800 0)"/>
     <use xlink:href="#IPAexGothic-30c8" transform="translate(900 0)"/>
    </g>
   </g>
  </g>
 </g>
 <defs>
  <clipPath id="pf6c14d3c68">
   <rect x="55.1" y="30.48" width="582.1" height="211.96"/>
  </clipPath>
 </defs>
</svg>
