<?xml version="1.0" encoding="utf-8" standalone="no"?>
<!DOCTYPE svg PUBLIC "-//W3C//DTD SVG 1.1//EN"
  "http://www.w3.org/Graphics/SVG/1.1/DTD/svg11.dtd">
<svg xmlns:xlink="http://www.w3.org/1999/xlink" width="504pt" height="288pt" viewBox="0 0 504 288" xmlns="http://www.w3.org/2000/svg" version="1.1">
 <metadata>
  <rdf:RDF xmlns:dc="http://purl.org/dc/elements/1.1/" xmlns:cc="http://creativecommons.org/ns#" xmlns:rdf="http://www.w3.org/1999/02/22-rdf-syntax-ns#">
   <cc:Work>
    <dc:type rdf:resource="http://purl.org/dc/dcmitype/StillImage"/>
    <dc:date>2025-10-27T10:38:18.498199</dc:date>
    <dc:format>image/svg+xml</dc:format>
    <dc:creator>
     <cc:Agent>
      <dc:title>Matplotlib v3.10.7, https://matplotlib.org/</dc:title>
     </cc:Agent>
    </dc:creator>
   </cc:Work>
  </rdf:RDF>
 </metadata>
 <defs>
  <style type="text/css">*{stroke-linejoin: round; stroke-linecap: butt}</style>
 </defs>
 <g id="figure_1">
  <g id="patch_1">
   <path d="M 0 288 
L 504 288 
L 504 0 
L 0 0 
z
" style="fill: #ffffff"/>
  </g>
  <g id="axes_1">
   <g id="patch_2">
    <path d="M 55.1 242.44 
L 484.311601 242.44 
L 484.311601 30.48 
L 55.1 30.48 
z
" style="fill: #ffffff"/>
   </g>
   <g id="PathCollection_1">
    <defs>
     <path id="mf7583186a0" d="M 0 2.828427 
C 0.750108 2.828427 1.469594 2.530406 2 2 
C 2.530406 1.469594 2.828427 0.750108 2.828427 0 
C 2.828427 -0.750108 2.530406 -1.469594 2 -2 
C 1.469594 -2.530406 0.750108 -2.828427 0 -2.828427 
C -0.750108 -2.828427 -1.469594 -2.530406 -2 -2 
C -2.530406 -1.469594 -2.828427 -0.750108 -2.828427 0 
C -2.828427 0.750108 -2.530406 1.469594 -2 2 
C -1.469594 2.530406 -0.750108 2.828427 0 2.828427 
z
" style="stroke: #f97316"/>
    </defs>
    <g clip-path="url(#p15ddcb5d3c)">
     <use xlink:href="#mf7583186a0" x="74.609618" y="209.943583" style="fill: #f97316; stroke: #f97316"/>
     <use xlink:href="#mf7583186a0" x="123.587739" y="201.773361" style="fill: #f97316; stroke: #f97316"/>
     <use xlink:href="#mf7583186a0" x="172.56586" y="181.079874" style="fill: #f97316; stroke: #f97316"/>
     <use xlink:href="#mf7583186a0" x="221.543982" y="163.495232" style="fill: #f97316; stroke: #f97316"/>
     <use xlink:href="#mf7583186a0" x="270.522103" y="139.12368" style="fill: #f97316; stroke: #f97316"/>
     <use xlink:href="#mf7583186a0" x="319.500224" y="130.521044" style="fill: #f97316; stroke: #f97316"/>
     <use xlink:href="#mf7583186a0" x="368.478345" y="113.411402" style="fill: #f97316; stroke: #f97316"/>
     <use xlink:href="#mf7583186a0" x="417.456466" y="94.425253" style="fill: #f97316; stroke: #f97316"/>
    </g>
   </g>
   <g id="matplotlib.axis_1">
    <g id="xtick_1">
     <g id="line2d_1">
      <path d="M 74.609618 242.44 
L 74.609618 30.48 
" clip-path="url(#p15ddcb5d3c)" style="fill: none; stroke: #000000; stroke-opacity: 0.3; stroke-width: 0.5; stroke-linecap: square"/>
     </g>
     <g id="line2d_2">
      <defs>
       <path id="mbb78d0b9ee" d="M 0 0 
L 0 3.5 
" style="stroke: #000000; stroke-width: 0.8"/>
      </defs>
      <g>
       <use xlink:href="#mbb78d0b9ee" x="74.609618" y="242.44" style="stroke: #000000; stroke-width: 0.8"/>
      </g>
     </g>
     <g id="text_1">
      <!-- 2022-01 -->
      <g transform="translate(53.924462 256.930625) scale(0.1 -0.1)">
       <defs>
        <path id="IPAexGothic-32" d="M 3659 63 
L 447 63 
L 447 594 
Q 825 1475 1894 2203 
L 2072 2322 
Q 2619 2697 2791 2906 
Q 2988 3153 2988 3444 
Q 2988 3772 2756 4003 
Q 2500 4259 2084 4259 
Q 1250 4259 991 3328 
L 497 3506 
Q 853 4725 2116 4725 
Q 2806 4725 3216 4316 
Q 3575 3947 3575 3425 
Q 3575 3038 3344 2722 
Q 3131 2416 2366 1938 
L 2231 1856 
Q 1256 1253 978 569 
L 3659 569 
L 3659 63 
z
" transform="scale(0.015625)"/>
        <path id="IPAexGothic-30" d="M 2038 4725 
Q 2881 4725 3334 3944 
Q 3694 3325 3694 2344 
Q 3694 1372 3334 741 
Q 2888 -31 2016 -31 
Q 1147 -31 700 741 
Q 341 1372 341 2350 
Q 341 3713 1000 4334 
Q 1419 4725 2038 4725 
z
M 2016 4266 
Q 1516 4266 1228 3759 
Q 934 3247 934 2344 
Q 934 1456 1222 947 
Q 1513 447 2016 447 
Q 2619 447 2909 1153 
Q 3100 1622 3100 2375 
Q 3100 3256 2806 3759 
Q 2509 4266 2016 4266 
z
" transform="scale(0.015625)"/>
        <path id="IPAexGothic-2d" d="M 1969 1703 
L 319 1703 
L 319 2203 
L 1969 2203 
L 1969 1703 
z
" transform="scale(0.015625)"/>
        <path id="IPAexGothic-31" d="M 2463 63 
L 1900 63 
L 1900 4103 
Q 1372 3922 788 3797 
L 684 4231 
Q 1519 4441 2106 4731 
L 2463 4731 
L 2463 63 
z
" transform="scale(0.015625)"/>
       </defs>
       <use xlink:href="#IPAexGothic-32"/>
       <use xlink:href="#IPAexGothic-30" transform="translate(62.988281 0)"/>
       <use xlink:href="#IPAexGothic-32" transform="translate(125.976562 0)"/>
       <use xlink:href="#IPAexGothic-32" transform="translate(188.964844 0)"/>
       <use xlink:href="#IPAexGothic-2d" transform="translate(251.953125 0)"/>
       <use xlink:href="#IPAexGothic-30" transform="translate(287.744141 0)"/>
       <use xlink:href="#IPAexGothic-31" transform="translate(350.732422 0)"/>
      </g>
     </g>
    </g>
    <g id="xtick_2">
     <g id="line2d_3">
      <path d="M 125.220343 242.44 
L 125.220343 30.48 
" clip-path="url(#p15ddcb5d3c)" style="fill: none; stroke: #000000; stroke-opacity: 0.3; stroke-width: 0.5; stroke-linecap: square"/>
     </g>
     <g id="line2d_4">
      <g>
       <use xlink:href="#mbb78d0b9ee" x="125.220343" y="242.44" style="stroke: #000000; stroke-width: 0.8"/>
      </g>
     </g>
     <g id="text_2">
      <!-- 2022-02 -->
      <g transform="translate(104.535187 256.930625) scale(0.1 -0.1)">
       <use xlink:href="#IPAexGothic-32"/>
       <use xlink:href="#IPAexGothic-30" transform="translate(62.988281 0)"/>
       <use xlink:href="#IPAexGothic-32" transform="translate(125.976562 0)"/>
       <use xlink:href="#IPAexGothic-32" transform="translate(188.964844 0)"/>
       <use xlink:href="#IPAexGothic-2d" transform="translate(251.953125 0)"/>
       <use xlink:href="#IPAexGothic-30" transform="translate(287.744141 0)"/>
       <use xlink:href="#IPAexGothic-32" transform="translate(350.732422 0)"/>
      </g>
     </g>
    </g>
    <g id="xtick_3">
     <g id="line2d_5">
      <path d="M 170.933256 242.44 
L 170.933256 30.48 
" clip-path="url(#p15ddcb5d3c)" style="fill: none; stroke: #000000; stroke-opacity: 0.3; stroke-width: 0.5; stroke-linecap: square"/>
     </g>
     <g id="line2d_6">
      <g>
       <use xlink:href="#mbb78d0b9ee" x="170.933256" y="242.44" style="stroke: #000000; stroke-width: 0.8"/>
      </g>
     </g>
     <g id="text_3">
      <!-- 2022-03 -->
      <g transform="translate(150.2481 256.930625) scale(0.1 -0.1)">
       <defs>
        <path id="IPAexGothic-33" d="M 2381 2419 
Q 3506 2216 3506 1278 
Q 3506 716 3128 356 
Q 2709 -31 1944 -31 
Q 797 -31 288 881 
L 756 1131 
Q 1109 441 1938 441 
Q 2425 441 2694 691 
Q 2950 928 2950 1291 
Q 2950 1719 2566 1978 
Q 2216 2213 1644 2213 
L 1363 2213 
L 1363 2669 
L 1656 2669 
Q 2231 2669 2534 2888 
Q 2859 3119 2859 3509 
Q 2859 3934 2494 4138 
Q 2259 4278 1931 4278 
Q 1238 4278 903 3578 
L 434 3803 
Q 897 4725 1938 4725 
Q 2597 4725 3006 4394 
Q 3416 4069 3416 3534 
Q 3416 3028 3019 2706 
Q 2763 2500 2381 2444 
L 2381 2419 
z
" transform="scale(0.015625)"/>
       </defs>
       <use xlink:href="#IPAexGothic-32"/>
       <use xlink:href="#IPAexGothic-30" transform="translate(62.988281 0)"/>
       <use xlink:href="#IPAexGothic-32" transform="translate(125.976562 0)"/>
       <use xlink:href="#IPAexGothic-32" transform="translate(188.964844 0)"/>
       <use xlink:href="#IPAexGothic-2d" transform="translate(251.953125 0)"/>
       <use xlink:href="#IPAexGothic-30" transform="translate(287.744141 0)"/>
       <use xlink:href="#IPAexGothic-33" transform="translate(350.732422 0)"/>
      </g>
     </g>
    </g>
    <g id="xtick_4">
     <g id="line2d_7">
      <path d="M 221.543982 242.44 
L 221.543982 30.48 
" clip-path="url(#p15ddcb5d3c)" style="fill: none; stroke: #000000; stroke-opacity: 0.3; stroke-width: 0.5; stroke-linecap: square"/>
     </g>
     <g id="line2d_8">
      <g>
       <use xlink:href="#mbb78d0b9ee" x="221.543982" y="242.44" style="stroke: #000000; stroke-width: 0.8"/>
      </g>
     </g>
     <g id="text_4">
      <!-- 2022-04 -->
      <g transform="translate(200.858825 256.930625) scale(0.1 -0.1)">
       <defs>
        <path id="IPAexGothic-34" d="M 3813 1159 
L 3059 1159 
L 3059 63 
L 2547 63 
L 2547 1159 
L 197 1159 
L 197 1672 
L 2456 4678 
L 3059 4678 
L 3059 1634 
L 3813 1634 
L 3813 1159 
z
M 2578 4109 
L 2559 4109 
Q 2278 3656 2003 3284 
L 759 1634 
L 2547 1634 
L 2547 3144 
Q 2547 3481 2578 4109 
z
" transform="scale(0.015625)"/>
       </defs>
       <use xlink:href="#IPAexGothic-32"/>
       <use xlink:href="#IPAexGothic-30" transform="translate(62.988281 0)"/>
       <use xlink:href="#IPAexGothic-32" transform="translate(125.976562 0)"/>
       <use xlink:href="#IPAexGothic-32" transform="translate(188.964844 0)"/>
       <use xlink:href="#IPAexGothic-2d" transform="translate(251.953125 0)"/>
       <use xlink:href="#IPAexGothic-30" transform="translate(287.744141 0)"/>
       <use xlink:href="#IPAexGothic-34" transform="translate(350.732422 0)"/>
      </g>
     </g>
    </g>
    <g id="xtick_5">
     <g id="line2d_9">
      <path d="M 270.522103 242.44 
L 270.522103 30.48 
" clip-path="url(#p15ddcb5d3c)" style="fill: none; stroke: #000000; stroke-opacity: 0.3; stroke-width: 0.5; stroke-linecap: square"/>
     </g>
     <g id="line2d_10">
      <g>
       <use xlink:href="#mbb78d0b9ee" x="270.522103" y="242.44" style="stroke: #000000; stroke-width: 0.8"/>
      </g>
     </g>
     <g id="text_5">
      <!-- 2022-05 -->
      <g transform="translate(249.836946 256.930625) scale(0.1 -0.1)">
       <defs>
        <path id="IPAexGothic-35" d="M 1178 2603 
Q 1634 2963 2172 2963 
Q 2816 2963 3241 2528 
Q 3638 2113 3638 1497 
Q 3638 938 3297 513 
Q 2869 -31 2031 -31 
Q 959 -31 469 784 
L 938 1028 
Q 1309 434 2013 434 
Q 2466 434 2769 716 
Q 3081 1013 3081 1503 
Q 3081 1966 2806 2241 
Q 2519 2528 2056 2528 
Q 1406 2528 1072 2028 
L 591 2091 
L 884 4634 
L 3406 4634 
L 3406 4153 
L 1341 4153 
L 1134 2603 
L 1178 2603 
z
" transform="scale(0.015625)"/>
       </defs>
       <use xlink:href="#IPAexGothic-32"/>
       <use xlink:href="#IPAexGothic-30" transform="translate(62.988281 0)"/>
       <use xlink:href="#IPAexGothic-32" transform="translate(125.976562 0)"/>
       <use xlink:href="#IPAexGothic-32" transform="translate(188.964844 0)"/>
       <use xlink:href="#IPAexGothic-2d" transform="translate(251.953125 0)"/>
       <use xlink:href="#IPAexGothic-30" transform="translate(287.744141 0)"/>
       <use xlink:href="#IPAexGothic-35" transform="translate(350.732422 0)"/>
      </g>
     </g>
    </g>
    <g id="xtick_6">
     <g id="line2d_11">
      <path d="M 321.132828 242.44 
L 321.132828 30.48 
" clip-path="url(#p15ddcb5d3c)" style="fill: none; stroke: #000000; stroke-opacity: 0.3; stroke-width: 0.5; stroke-linecap: square"/>
     </g>
     <g id="line2d_12">
      <g>
       <use xlink:href="#mbb78d0b9ee" x="321.132828" y="242.44" style="stroke: #000000; stroke-width: 0.8"/>
      </g>
     </g>
     <g id="text_6">
      <!-- 2022-06 -->
      <g transform="translate(300.447672 256.930625) scale(0.1 -0.1)">
       <defs>
        <path id="IPAexGothic-36" d="M 1056 2328 
Q 1509 2981 2234 2981 
Q 2906 2981 3316 2513 
Q 3675 2106 3675 1522 
Q 3675 884 3272 434 
Q 2853 -31 2178 -31 
Q 1375 -31 922 581 
Q 481 1178 481 2228 
Q 481 3425 1013 4109 
Q 1494 4725 2272 4725 
Q 3191 4725 3609 4025 
L 3150 3775 
Q 2894 4266 2300 4266 
Q 1119 4266 1031 2328 
L 1056 2328 
z
M 2141 2547 
Q 1684 2547 1384 2206 
Q 1116 1900 1116 1541 
Q 1116 1156 1353 844 
Q 1672 428 2159 428 
Q 2669 428 2941 844 
Q 3125 1128 3125 1503 
Q 3125 1944 2881 2228 
Q 2600 2547 2141 2547 
z
" transform="scale(0.015625)"/>
       </defs>
       <use xlink:href="#IPAexGothic-32"/>
       <use xlink:href="#IPAexGothic-30" transform="translate(62.988281 0)"/>
       <use xlink:href="#IPAexGothic-32" transform="translate(125.976562 0)"/>
       <use xlink:href="#IPAexGothic-32" transform="translate(188.964844 0)"/>
       <use xlink:href="#IPAexGothic-2d" transform="translate(251.953125 0)"/>
       <use xlink:href="#IPAexGothic-30" transform="translate(287.744141 0)"/>
       <use xlink:href="#IPAexGothic-36" transform="translate(350.732422 0)"/>
      </g>
     </g>
    </g>
    <g id="xtick_7">
     <g id="line2d_13">
      <path d="M 370.110949 242.44 
L 370.110949 30.48 
" clip-path="url(#p15ddcb5d3c)" style="fill: none; stroke: #000000; stroke-opacity: 0.3; stroke-width: 0.5; stroke-linecap: square"/>
     </g>
     <g id="line2d_14">
      <g>
       <use xlink:href="#mbb78d0b9ee" x="370.110949" y="242.44" style="stroke: #000000; stroke-width: 0.8"/>
      </g>
     </g>
     <g id="text_7">
      <!-- 2022-07 -->
      <g transform="translate(349.425793 256.930625) scale(0.1 -0.1)">
       <defs>
        <path id="IPAexGothic-37" d="M 3597 4263 
Q 2238 2106 1778 63 
L 1131 63 
Q 1581 1834 2950 4128 
L 428 4128 
L 428 4634 
L 3597 4634 
L 3597 4263 
z
" transform="scale(0.015625)"/>
       </defs>
       <use xlink:href="#IPAexGothic-32"/>
       <use xlink:href="#IPAexGothic-30" transform="translate(62.988281 0)"/>
       <use xlink:href="#IPAexGothic-32" transform="translate(125.976562 0)"/>
       <use xlink:href="#IPAexGothic-32" transform="translate(188.964844 0)"/>
       <use xlink:href="#IPAexGothic-2d" transform="translate(251.953125 0)"/>
       <use xlink:href="#IPAexGothic-30" transform="translate(287.744141 0)"/>
       <use xlink:href="#IPAexGothic-37" transform="translate(350.732422 0)"/>
      </g>
     </g>
    </g>
    <g id="xtick_8">
     <g id="line2d_15">
      <path d="M 420.721674 242.44 
L 420.721674 30.48 
" clip-path="url(#p15ddcb5d3c)" style="fill: none; stroke: #000000; stroke-opacity: 0.3; stroke-width: 0.5; stroke-linecap: square"/>
     </g>
     <g id="line2d_16">
      <g>
       <use xlink:href="#mbb78d0b9ee" x="420.721674" y="242.44" style="stroke: #000000; stroke-width: 0.8"/>
      </g>
     </g>
     <g id="text_8">
      <!-- 2022-08 -->
      <g transform="translate(400.036518 256.930625) scale(0.1 -0.1)">
       <defs>
        <path id="IPAexGothic-38" d="M 2541 2425 
Q 3700 2031 3700 1197 
Q 3700 541 3100 197 
Q 2663 -56 2016 -56 
Q 1366 -56 928 197 
Q 347 531 347 1178 
Q 347 1988 1409 2381 
L 1409 2400 
Q 481 2734 481 3509 
Q 481 4100 981 4456 
Q 1406 4756 2019 4756 
Q 2703 4756 3131 4403 
Q 3553 4069 3553 3566 
Q 3553 2706 2541 2444 
L 2541 2425 
z
M 2022 2625 
Q 2997 2856 2997 3528 
Q 2997 3916 2675 4150 
Q 2413 4347 2016 4347 
Q 1606 4347 1331 4128 
Q 1050 3897 1050 3522 
Q 1050 3150 1350 2925 
Q 1494 2809 1722 2722 
Q 1984 2616 2022 2625 
z
M 1978 2209 
Q 922 1931 922 1216 
Q 922 775 1313 556 
Q 1606 391 2009 391 
Q 2575 391 2881 697 
Q 3106 922 3106 1250 
Q 3106 1594 2794 1850 
Q 2609 1994 2350 2100 
Q 2047 2222 1978 2209 
z
" transform="scale(0.015625)"/>
       </defs>
       <use xlink:href="#IPAexGothic-32"/>
       <use xlink:href="#IPAexGothic-30" transform="translate(62.988281 0)"/>
       <use xlink:href="#IPAexGothic-32" transform="translate(125.976562 0)"/>
       <use xlink:href="#IPAexGothic-32" transform="translate(188.964844 0)"/>
       <use xlink:href="#IPAexGothic-2d" transform="translate(251.953125 0)"/>
       <use xlink:href="#IPAexGothic-30" transform="translate(287.744141 0)"/>
       <use xlink:href="#IPAexGothic-38" transform="translate(350.732422 0)"/>
      </g>
     </g>
    </g>
    <g id="xtick_9">
     <g id="line2d_17">
      <path d="M 471.332399 242.44 
L 471.332399 30.48 
" clip-path="url(#p15ddcb5d3c)" style="fill: none; stroke: #000000; stroke-opacity: 0.3; stroke-width: 0.5; stroke-linecap: square"/>
     </g>
     <g id="line2d_18">
      <g>
       <use xlink:href="#mbb78d0b9ee" x="471.332399" y="242.44" style="stroke: #000000; stroke-width: 0.8"/>
      </g>
     </g>
     <g id="text_9">
      <!-- 2022-09 -->
      <g transform="translate(450.647243 256.930625) scale(0.1 -0.1)">
       <defs>
        <path id="IPAexGothic-39" d="M 2984 2356 
Q 2544 1716 1813 1716 
Q 1253 1716 847 2056 
Q 366 2459 366 3163 
Q 366 3813 769 4266 
Q 1181 4725 1869 4725 
Q 2800 4725 3241 3950 
Q 3559 3378 3559 2472 
Q 3559 1250 3041 588 
Q 2553 -31 1769 -31 
Q 859 -31 391 703 
L 853 953 
Q 1156 428 1753 428 
Q 2922 428 3009 2356 
L 2984 2356 
z
M 1888 4278 
Q 1450 4278 1172 3950 
Q 922 3653 922 3200 
Q 922 2741 1159 2478 
Q 1434 2163 1906 2163 
Q 2431 2163 2728 2572 
Q 2925 2847 2925 3169 
Q 2925 3553 2694 3863 
Q 2375 4278 1888 4278 
z
" transform="scale(0.015625)"/>
       </defs>
       <use xlink:href="#IPAexGothic-32"/>
       <use xlink:href="#IPAexGothic-30" transform="translate(62.988281 0)"/>
       <use xlink:href="#IPAexGothic-32" transform="translate(125.976562 0)"/>
       <use xlink:href="#IPAexGothic-32" transform="translate(188.964844 0)"/>
       <use xlink:href="#IPAexGothic-2d" transform="translate(251.953125 0)"/>
       <use xlink:href="#IPAexGothic-30" transform="translate(287.744141 0)"/>
       <use xlink:href="#IPAexGothic-39" transform="translate(350.732422 0)"/>
      </g>
     </g>
    </g>
    <g id="text_10">
     <!-- 日付 -->
     <g transform="translate(255.305801 273.617125) scale(0.144 -0.144)">
      <defs>
       <path id="IPAexGothic-65e5" d="M 5231 4800 
L 5231 -288 
L 4744 -288 
L 4744 128 
L 1647 128 
L 1647 -288 
L 1159 -288 
L 1159 4800 
L 5231 4800 
z
M 1647 4372 
L 1647 2731 
L 4744 2731 
L 4744 4372 
L 1647 4372 
z
M 1647 2297 
L 1647 556 
L 4744 556 
L 4744 2297 
L 1647 2297 
z
" transform="scale(0.015625)"/>
       <path id="IPAexGothic-4ed8" d="M 1681 3769 
L 1681 -447 
L 1213 -447 
L 1213 2822 
Q 913 2313 578 1863 
L 316 2253 
Q 1241 3463 1653 5184 
L 2128 5069 
Q 1928 4378 1719 3859 
L 1681 3769 
z
M 5084 3816 
L 5991 3816 
L 5991 3388 
L 5109 3388 
L 5109 213 
Q 5109 -78 5006 -191 
Q 4888 -319 4525 -319 
Q 4031 -319 3513 -266 
L 3431 238 
Q 3978 141 4403 141 
Q 4634 141 4634 384 
L 4634 3388 
L 2028 3388 
L 2028 3816 
L 4609 3816 
L 4609 5153 
L 5084 5153 
L 5084 3816 
z
M 3431 1172 
Q 3034 1994 2547 2566 
L 2931 2822 
Q 3428 2231 3853 1472 
L 3431 1172 
z
" transform="scale(0.015625)"/>
      </defs>
      <use xlink:href="#IPAexGothic-65e5"/>
      <use xlink:href="#IPAexGothic-4ed8" transform="translate(100 0)"/>
     </g>
    </g>
   </g>
   <g id="matplotlib.axis_2">
    <g id="ytick_1">
     <g id="line2d_19">
      <path d="M 55.1 210.865165 
L 484.311601 210.865165 
" clip-path="url(#p15ddcb5d3c)" style="fill: none; stroke: #000000; stroke-opacity: 0.3; stroke-width: 0.5; stroke-linecap: square"/>
     </g>
     <g id="line2d_20">
      <defs>
       <path id="me80c56eea3" d="M 0 0 
L -3.5 0 
" style="stroke: #000000; stroke-width: 0.8"/>
      </defs>
      <g>
       <use xlink:href="#me80c56eea3" x="55.1" y="210.865165" style="stroke: #000000; stroke-width: 0.8"/>
      </g>
     </g>
     <g id="text_11">
      <!-- 120 -->
      <g transform="translate(29.204688 214.610478) scale(0.1 -0.1)">
       <use xlink:href="#IPAexGothic-31"/>
       <use xlink:href="#IPAexGothic-32" transform="translate(62.988281 0)"/>
       <use xlink:href="#IPAexGothic-30" transform="translate(125.976562 0)"/>
      </g>
     </g>
    </g>
    <g id="ytick_2">
     <g id="line2d_21">
      <path d="M 55.1 174.21595 
L 484.311601 174.21595 
" clip-path="url(#p15ddcb5d3c)" style="fill: none; stroke: #000000; stroke-opacity: 0.3; stroke-width: 0.5; stroke-linecap: square"/>
     </g>
     <g id="line2d_22">
      <g>
       <use xlink:href="#me80c56eea3" x="55.1" y="174.21595" style="stroke: #000000; stroke-width: 0.8"/>
      </g>
     </g>
     <g id="text_12">
      <!-- 130 -->
      <g transform="translate(29.204688 177.961263) scale(0.1 -0.1)">
       <use xlink:href="#IPAexGothic-31"/>
       <use xlink:href="#IPAexGothic-33" transform="translate(62.988281 0)"/>
       <use xlink:href="#IPAexGothic-30" transform="translate(125.976562 0)"/>
      </g>
     </g>
    </g>
    <g id="ytick_3">
     <g id="line2d_23">
      <path d="M 55.1 137.566735 
L 484.311601 137.566735 
" clip-path="url(#p15ddcb5d3c)" style="fill: none; stroke: #000000; stroke-opacity: 0.3; stroke-width: 0.5; stroke-linecap: square"/>
     </g>
     <g id="line2d_24">
      <g>
       <use xlink:href="#me80c56eea3" x="55.1" y="137.566735" style="stroke: #000000; stroke-width: 0.8"/>
      </g>
     </g>
     <g id="text_13">
      <!-- 140 -->
      <g transform="translate(29.204688 141.312048) scale(0.1 -0.1)">
       <use xlink:href="#IPAexGothic-31"/>
       <use xlink:href="#IPAexGothic-34" transform="translate(62.988281 0)"/>
       <use xlink:href="#IPAexGothic-30" transform="translate(125.976562 0)"/>
      </g>
     </g>
    </g>
    <g id="ytick_4">
     <g id="line2d_25">
      <path d="M 55.1 100.91752 
L 484.311601 100.91752 
" clip-path="url(#p15ddcb5d3c)" style="fill: none; stroke: #000000; stroke-opacity: 0.3; stroke-width: 0.5; stroke-linecap: square"/>
     </g>
     <g id="line2d_26">
      <g>
       <use xlink:href="#me80c56eea3" x="55.1" y="100.91752" style="stroke: #000000; stroke-width: 0.8"/>
      </g>
     </g>
     <g id="text_14">
      <!-- 150 -->
      <g transform="translate(29.204688 104.662832) scale(0.1 -0.1)">
       <use xlink:href="#IPAexGothic-31"/>
       <use xlink:href="#IPAexGothic-35" transform="translate(62.988281 0)"/>
       <use xlink:href="#IPAexGothic-30" transform="translate(125.976562 0)"/>
      </g>
     </g>
    </g>
    <g id="ytick_5">
     <g id="line2d_27">
      <path d="M 55.1 64.268305 
L 484.311601 64.268305 
" clip-path="url(#p15ddcb5d3c)" style="fill: none; stroke: #000000; stroke-opacity: 0.3; stroke-width: 0.5; stroke-linecap: square"/>
     </g>
     <g id="line2d_28">
      <g>
       <use xlink:href="#me80c56eea3" x="55.1" y="64.268305" style="stroke: #000000; stroke-width: 0.8"/>
      </g>
     </g>
     <g id="text_15">
      <!-- 160 -->
      <g transform="translate(29.204688 68.013617) scale(0.1 -0.1)">
       <use xlink:href="#IPAexGothic-31"/>
       <use xlink:href="#IPAexGothic-36" transform="translate(62.988281 0)"/>
       <use xlink:href="#IPAexGothic-30" transform="translate(125.976562 0)"/>
      </g>
     </g>
    </g>
    <g id="text_16">
     <!-- 売上（千万円） -->
     <g transform="translate(22.468688 186.86) rotate(-90) scale(0.144 -0.144)">
      <defs>
       <path id="IPAexGothic-58f2" d="M 2938 4544 
L 2938 5313 
L 3419 5313 
L 3419 4544 
L 5781 4544 
L 5781 4147 
L 3419 4147 
L 3419 3559 
L 5306 3559 
L 5306 3163 
L 1088 3163 
L 1088 3559 
L 2938 3559 
L 2938 4147 
L 609 4147 
L 609 4544 
L 2938 4544 
z
M 5684 2706 
L 5684 1522 
L 5216 1522 
L 5216 2316 
L 1178 2316 
L 1178 1478 
L 709 1478 
L 709 2706 
L 5684 2706 
z
M 531 -84 
Q 1494 91 1894 556 
Q 2213 913 2222 1972 
L 2688 1972 
Q 2678 756 2216 225 
Q 1794 -256 819 -506 
L 531 -84 
z
M 3622 1972 
L 4091 1972 
L 4091 353 
Q 4091 191 4181 153 
Q 4313 100 4684 100 
Q 5169 100 5294 159 
Q 5503 256 5513 1006 
L 5972 863 
Q 5944 -22 5691 -206 
Q 5503 -347 4659 -347 
Q 3981 -347 3809 -250 
Q 3622 -144 3622 178 
L 3622 1972 
z
" transform="scale(0.015625)"/>
       <path id="IPAexGothic-4e0a" d="M 3259 3366 
L 5475 3366 
L 5475 2913 
L 3259 2913 
L 3259 556 
L 5991 556 
L 5991 103 
L 391 103 
L 391 556 
L 2772 556 
L 2772 5050 
L 3259 5050 
L 3259 3366 
z
" transform="scale(0.015625)"/>
       <path id="IPAexGothic-ff08" d="M 5419 -434 
Q 4197 769 4197 2438 
Q 4197 4097 5419 5300 
L 5919 5300 
Q 4678 4078 4678 2425 
Q 4678 788 5919 -434 
L 5419 -434 
z
" transform="scale(0.015625)"/>
       <path id="IPAexGothic-5343" d="M 2925 2694 
L 2925 4159 
Q 1706 4019 947 3975 
L 769 4397 
Q 3213 4538 4884 4997 
L 5275 4569 
Q 4534 4388 3509 4244 
L 3438 4228 
L 3438 2694 
L 5916 2694 
L 5916 2253 
L 3438 2253 
L 3438 -447 
L 2925 -447 
L 2925 2253 
L 481 2253 
L 481 2694 
L 2925 2694 
z
" transform="scale(0.015625)"/>
       <path id="IPAexGothic-4e07" d="M 2888 4316 
Q 2878 3816 2828 3128 
L 5369 3128 
Q 5284 984 5056 300 
Q 4950 -22 4750 -134 
Q 4556 -250 4181 -250 
Q 3659 -250 3091 -159 
L 3028 363 
Q 3638 225 4103 225 
Q 4456 225 4569 463 
Q 4797 906 4866 2700 
L 2784 2700 
Q 2534 575 934 -391 
L 591 -6 
Q 1900 716 2216 2200 
Q 2394 3041 2394 4316 
L 506 4316 
L 506 4756 
L 5888 4756 
L 5888 4316 
L 2888 4316 
z
" transform="scale(0.015625)"/>
       <path id="IPAexGothic-5186" d="M 5594 4806 
L 5594 322 
Q 5594 34 5491 -97 
Q 5366 -269 4959 -269 
Q 4469 -269 3897 -225 
L 3809 275 
Q 4378 206 4844 206 
Q 5106 206 5106 434 
L 5106 2119 
L 1281 2119 
L 1281 -359 
L 794 -359 
L 794 4806 
L 5594 4806 
z
M 1281 4366 
L 1281 2547 
L 2944 2547 
L 2944 4366 
L 1281 4366 
z
M 5106 2547 
L 5106 4366 
L 3413 4366 
L 3413 2547 
L 5106 2547 
z
" transform="scale(0.015625)"/>
       <path id="IPAexGothic-ff09" d="M 481 -434 
Q 1722 788 1722 2431 
Q 1722 4066 481 5300 
L 981 5300 
Q 2203 4097 2203 2431 
Q 2203 769 981 -434 
L 481 -434 
z
" transform="scale(0.015625)"/>
      </defs>
      <use xlink:href="#IPAexGothic-58f2"/>
      <use xlink:href="#IPAexGothic-4e0a" transform="translate(100 0)"/>
      <use xlink:href="#IPAexGothic-ff08" transform="translate(200 0)"/>
      <use xlink:href="#IPAexGothic-5343" transform="translate(300 0)"/>
      <use xlink:href="#IPAexGothic-4e07" transform="translate(400 0)"/>
      <use xlink:href="#IPAexGothic-5186" transform="translate(500 0)"/>
      <use xlink:href="#IPAexGothic-ff09" transform="translate(600 0)"/>
     </g>
    </g>
   </g>
   <g id="line2d_29">
    <path d="M 74.609618 209.943583 
L 76.242222 205.187895 
L 77.874826 193.146228 
L 79.50743 191.213555 
L 81.140034 190.804045 
L 82.772638 180.074718 
L 84.405242 170.12424 
L 86.037847 170.916285 
L 87.670451 182.466771 
L 89.303055 187.308482 
L 90.935659 184.544966 
L 92.568263 182.726592 
L 94.200867 204.076923 
L 95.833471 193.397014 
L 97.466075 206.205322 
L 99.098679 207.986497 
L 100.731283 212.154527 
L 102.363887 215.763309 
L 105.629095 214.567219 
L 107.261699 226.203861 
L 108.894303 217.18908 
L 110.526907 232.805455 
L 112.159511 224.80343 
L 113.792115 218.933533 
L 115.424719 221.823935 
L 117.057323 223.810244 
L 118.689927 220.01183 
L 120.322531 210.752817 
L 121.955135 199.404601 
L 123.587739 201.773361 
L 125.220343 189.260664 
L 126.852947 182.515373 
L 128.485551 171.525996 
L 130.118156 168.812108 
L 131.75076 163.62818 
L 133.383364 167.98267 
L 135.015968 162.316141 
L 136.648572 155.069938 
L 138.281176 150.594379 
L 139.91378 172.713068 
L 141.546384 155.440535 
L 143.178988 160.67761 
L 146.444196 178.642425 
L 148.0768 188.42795 
L 149.709404 180.985984 
L 151.342008 182.584346 
L 152.974612 188.505524 
L 154.607216 196.077028 
L 156.23982 206.150033 
L 157.872424 219.569682 
L 159.505028 211.470183 
L 161.137632 206.075939 
L 162.770236 218.507168 
L 164.40284 203.124701 
L 166.035444 198.717531 
L 167.668048 191.661697 
L 169.300652 199.58501 
L 170.933256 189.376626 
L 172.56586 181.079874 
L 174.198465 179.809758 
L 175.831069 152.106839 
L 177.463673 162.63311 
L 179.096277 151.482083 
L 180.728881 151.636156 
L 182.361485 135.091455 
L 183.994089 135.195908 
L 185.626693 139.681833 
L 187.259297 161.200229 
L 188.891901 146.610804 
L 190.524505 145.033899 
L 192.157109 146.691638 
L 193.789713 163.338173 
L 195.422317 150.733639 
L 197.054921 179.31335 
L 198.687525 180.029797 
L 200.320129 173.606815 
L 201.952733 184.859516 
L 203.585337 174.547162 
L 205.217941 190.895612 
L 206.850545 198.861962 
L 208.483149 197.71287 
L 210.115753 202.39358 
L 211.748357 201.936729 
L 213.380961 184.90792 
L 215.013565 181.116363 
L 216.646169 170.782521 
L 218.278774 179.944606 
L 219.911378 155.653411 
L 221.543982 163.495232 
L 223.176586 143.202981 
L 224.80919 151.536238 
L 226.441794 147.896993 
L 228.074398 135.570345 
L 229.707002 125.688323 
L 231.339606 129.025741 
L 232.97221 132.673634 
L 234.604814 137.662991 
L 236.237418 138.829624 
L 237.870022 126.815435 
L 239.502626 126.298623 
L 241.13523 138.762625 
L 242.767834 150.191791 
L 244.400438 141.197288 
L 246.033042 162.527738 
L 247.665646 163.915431 
L 249.29825 159.416475 
L 250.930854 185.220113 
L 252.563458 169.90021 
L 254.196062 180.048617 
L 255.828666 176.927599 
L 257.46127 179.008122 
L 259.093874 176.422036 
L 260.726478 170.991216 
L 262.359083 178.595322 
L 263.991687 158.468495 
L 265.624291 158.457134 
L 267.256895 151.73689 
L 268.889499 143.003886 
L 270.522103 139.12368 
L 272.154707 132.064035 
L 273.787311 131.317749 
L 275.419915 136.471897 
L 277.052519 121.898945 
L 278.685123 122.396987 
L 280.317727 124.142243 
L 281.950331 109.995234 
L 283.582935 115.507293 
L 285.215539 119.612859 
L 286.848143 121.652909 
L 288.480747 115.093463 
L 290.113351 118.437216 
L 291.745955 116.131312 
L 293.378559 131.206395 
L 295.011163 129.013983 
L 296.643767 131.918226 
L 298.276371 139.045758 
L 299.908975 169.572091 
L 301.541579 147.234033 
L 303.174183 156.803773 
L 304.806787 158.130278 
L 306.439392 159.240056 
L 308.071996 158.605806 
L 309.7046 157.245984 
L 311.337204 159.175222 
L 312.969808 166.330612 
L 314.602412 148.085468 
L 316.235016 147.320399 
L 317.86762 127.132581 
L 319.500224 130.521044 
L 321.132828 121.146991 
L 322.765432 121.60717 
L 326.03064 104.501474 
L 327.663244 111.151986 
L 329.295848 95.017647 
L 330.928452 96.174999 
L 332.561056 103.538908 
L 334.19366 113.151078 
L 335.826264 93.755136 
L 337.458868 102.750015 
L 339.091472 108.458956 
L 340.724076 111.063548 
L 342.35668 101.297772 
L 343.989284 120.523391 
L 345.621888 125.069554 
L 347.254492 141.884155 
L 348.887096 123.667901 
L 350.519701 133.022902 
L 352.152305 134.980523 
L 353.784909 144.394875 
L 355.417513 138.750012 
L 357.050117 142.200227 
L 358.682721 138.600514 
L 360.315325 141.167847 
L 361.947929 146.703144 
L 363.580533 123.253653 
L 365.213137 139.119974 
L 366.845741 120.316561 
L 368.478345 113.411402 
L 370.110949 112.910707 
L 371.743553 94.393449 
L 373.376157 94.49796 
L 375.008761 91.126968 
L 376.641365 79.961914 
L 378.273969 84.222725 
L 379.906573 68.724354 
L 383.171781 82.557047 
L 384.804385 95.274738 
L 386.436989 93.66225 
L 388.069593 80.115632 
L 389.702197 93.211344 
L 391.334801 100.195371 
L 392.967405 91.621435 
L 394.60001 118.613931 
L 396.232614 118.784777 
L 397.865218 122.714484 
L 399.497822 118.958038 
L 401.130426 131.17245 
L 402.76303 132.748418 
L 404.395634 140.742294 
L 406.028238 123.081046 
L 407.660842 120.694072 
L 409.293446 127.051917 
L 410.92605 118.210374 
L 412.558654 123.77774 
L 414.191258 111.903193 
L 415.823862 91.965552 
L 417.456466 94.425253 
L 419.08907 71.839957 
L 420.721674 88.165397 
L 422.354278 72.284035 
L 423.986882 72.865672 
L 425.619486 63.132769 
L 427.25209 64.290186 
L 428.884694 66.526706 
L 430.517298 68.222969 
L 432.149902 40.114545 
L 433.782506 65.098361 
L 435.41511 82.366284 
L 437.047714 76.343925 
L 438.680319 71.378353 
L 440.312923 85.292945 
L 441.945527 77.202207 
L 443.578131 85.372744 
L 445.210735 99.116469 
L 446.843339 106.219613 
L 448.475943 114.128685 
L 450.108547 114.947339 
L 451.741151 122.557922 
L 453.373755 103.656618 
L 455.006359 100.275329 
L 456.638963 119.318095 
L 458.271567 115.729554 
L 459.904171 115.878398 
L 461.536775 104.8756 
L 463.169379 114.721691 
L 464.801983 93.946295 
L 464.801983 93.946295 
" clip-path="url(#p15ddcb5d3c)" style="fill: none; stroke: #2563eb; stroke-width: 1.6; stroke-linecap: square"/>
   </g>
   <g id="text_17">
    <!-- 日次売上の推移 -->
    <g transform="translate(209.225801 24.48) scale(0.1728 -0.1728)">
     <defs>
      <path id="IPAexGothic-6b21" d="M 3519 3750 
L 2950 3750 
Q 2678 3041 2231 2444 
L 1853 2772 
Q 2600 3756 2878 5184 
L 3353 5094 
Q 3241 4603 3103 4166 
L 5541 4166 
L 5841 3928 
Q 5406 2903 4906 2222 
L 4484 2481 
Q 4963 3072 5247 3750 
L 3994 3750 
L 3994 3263 
Q 3994 1384 6028 91 
L 5681 -353 
Q 4166 622 3794 2194 
Q 3669 1413 3391 922 
Q 2903 72 1931 -488 
L 1613 -72 
Q 3519 888 3519 3359 
L 3519 3750 
z
M 1438 3200 
Q 959 3884 509 4294 
L 881 4628 
Q 1413 4153 1841 3597 
L 1438 3200 
z
M 325 250 
Q 984 938 1600 2003 
L 1950 1656 
Q 1319 538 697 -184 
L 325 250 
z
" transform="scale(0.015625)"/>
      <path id="IPAexGothic-306e" d="M 3119 469 
Q 5275 766 5275 2425 
Q 5275 3453 4413 3925 
Q 4041 4116 3547 4159 
Q 3394 2525 2850 1400 
Q 2322 306 1722 306 
Q 1384 306 1084 666 
Q 609 1244 609 2003 
Q 609 3025 1397 3794 
Q 2184 4563 3431 4563 
Q 4306 4563 4928 4122 
Q 5813 3506 5813 2425 
Q 5813 438 3431 6 
L 3119 469 
z
M 3053 4147 
Q 2378 4044 1891 3641 
Q 1097 2981 1097 1991 
Q 1097 1366 1434 978 
Q 1581 813 1719 813 
Q 2022 813 2416 1625 
Q 2909 2638 3053 4147 
z
" transform="scale(0.015625)"/>
      <path id="IPAexGothic-63a8" d="M 3244 4063 
L 4244 4063 
Q 4481 4578 4653 5228 
L 5125 5100 
Q 4913 4484 4691 4063 
L 5906 4063 
L 5906 3666 
L 4647 3666 
L 4647 2822 
L 5747 2822 
L 5747 2438 
L 4647 2438 
L 4647 1594 
L 5747 1594 
L 5747 1216 
L 4647 1216 
L 4647 319 
L 6047 319 
L 6047 -91 
L 3244 -91 
L 3244 -481 
L 2816 -481 
L 2816 3188 
L 2791 3128 
Q 2581 2744 2366 2463 
L 2084 2797 
Q 2813 3728 3166 5284 
L 3616 5144 
Q 3431 4500 3244 4063 
z
M 3244 319 
L 4231 319 
L 4231 1216 
L 3244 1216 
L 3244 319 
z
M 3244 1594 
L 4231 1594 
L 4231 2438 
L 3244 2438 
L 3244 1594 
z
M 3244 2822 
L 4231 2822 
L 4231 3666 
L 3244 3666 
L 3244 2822 
z
M 1184 4084 
L 1184 5313 
L 1613 5313 
L 1613 4084 
L 2328 4084 
L 2328 3669 
L 1613 3669 
L 1613 2241 
Q 1997 2341 2334 2453 
L 2359 2069 
Q 1809 1884 1631 1831 
L 1613 1825 
L 1613 44 
Q 1613 -197 1522 -294 
Q 1413 -403 1081 -403 
Q 738 -403 519 -366 
L 441 97 
Q 741 38 978 38 
Q 1184 38 1184 219 
L 1184 1703 
L 1147 1697 
Q 734 1581 409 1509 
L 275 1941 
Q 722 2022 1138 2119 
Q 1147 2122 1166 2125 
Q 1178 2128 1184 2131 
L 1184 3669 
L 372 3669 
L 372 4084 
L 1184 4084 
z
" transform="scale(0.015625)"/>
      <path id="IPAexGothic-79fb" d="M 4691 2419 
L 5844 2419 
L 6069 2188 
Q 5503 1156 4763 513 
Q 4081 -75 2975 -469 
L 2681 -97 
Q 3684 194 4384 728 
Q 4097 1056 3731 1356 
Q 3381 1053 2919 819 
L 2669 1150 
Q 3853 1772 4500 2878 
L 4909 2772 
Q 4772 2528 4691 2419 
z
M 4409 2034 
Q 4219 1803 4000 1588 
Q 4375 1341 4703 1009 
Q 5219 1488 5497 2034 
L 4409 2034 
z
M 1350 2328 
Q 1009 1334 513 659 
L 263 1081 
Q 966 2022 1266 3128 
L 366 3128 
L 366 3531 
L 1350 3531 
L 1350 4400 
Q 919 4322 575 4266 
L 366 4644 
Q 1506 4809 2378 5144 
L 2700 4747 
Q 2238 4600 1784 4491 
L 1784 3531 
L 2616 3531 
L 2616 3128 
L 1784 3128 
L 1784 2688 
Q 2306 2266 2719 1803 
L 2444 1356 
Q 2106 1838 1784 2181 
L 1784 -450 
L 1350 -450 
L 1350 2328 
z
M 4275 4800 
L 5491 4800 
L 5709 4609 
Q 4763 2809 2875 2047 
L 2606 2388 
Q 3534 2722 4134 3244 
Q 3869 3519 3450 3794 
Q 3184 3569 2859 3359 
L 2591 3666 
Q 3578 4259 4056 5288 
L 4481 5191 
Q 4406 5034 4275 4800 
z
M 4019 4416 
Q 3856 4194 3700 4038 
Q 4128 3759 4372 3553 
L 4416 3513 
Q 4884 3991 5119 4416 
L 4019 4416 
z
" transform="scale(0.015625)"/>
     </defs>
     <use xlink:href="#IPAexGothic-65e5"/>
     <use xlink:href="#IPAexGothic-6b21" transform="translate(100 0)"/>
     <use xlink:href="#IPAexGothic-58f2" transform="translate(200 0)"/>
     <use xlink:href="#IPAexGothic-4e0a" transform="translate(300 0)"/>
     <use xlink:href="#IPAexGothic-306e" transform="translate(400 0)"/>
     <use xlink:href="#IPAexGothic-63a8" transform="translate(500 0)"/>
     <use xlink:href="#IPAexGothic-79fb" transform="translate(600 0)"/>
    </g>
   </g>
   <g id="legend_1">
    <g id="patch_3">
     <path d="M 69.5 85.4175 
L 155.9 85.4175 
Q 158.3 85.4175 158.3 83.0175 
L 158.3 44.88 
Q 158.3 42.48 155.9 42.48 
L 69.5 42.48 
Q 67.1 42.48 67.1 44.88 
L 67.1 83.0175 
Q 67.1 85.4175 69.5 85.4175 
z
" style="fill: #ffffff; opacity: 0.8; stroke: #cccccc; stroke-linejoin: miter"/>
    </g>
    <g id="line2d_30">
     <path d="M 71.9 52.06875 
L 83.9 52.06875 
L 95.9 52.06875 
" style="fill: none; stroke: #2563eb; stroke-width: 1.6; stroke-linecap: square"/>
    </g>
    <g id="text_18">
     <!-- 日次売上 -->
     <g transform="translate(105.5 56.26875) scale(0.12 -0.12)">
      <use xlink:href="#IPAexGothic-65e5"/>
      <use xlink:href="#IPAexGothic-6b21" transform="translate(100 0)"/>
      <use xlink:href="#IPAexGothic-58f2" transform="translate(200 0)"/>
      <use xlink:href="#IPAexGothic-4e0a" transform="translate(300 0)"/>
     </g>
    </g>
    <g id="PathCollection_2">
     <defs>
      <path id="m1c1c9fc2f9" d="M 0 5.656854 
C 1.500215 5.656854 2.939188 5.060812 4 4 
C 5.060812 2.939188 5.656854 1.500215 5.656854 0 
C 5.656854 -1.500215 5.060812 -2.939188 4 -4 
C 2.939188 -5.060812 1.500215 -5.656854 0 -5.656854 
C -1.500215 -5.656854 -2.939188 -5.060812 -4 -4 
C -5.060812 -2.939188 -5.656854 -1.500215 -5.656854 0 
C -5.656854 1.500215 -5.060812 2.939188 -4 4 
C -2.939188 5.060812 -1.500215 5.656854 0 5.656854 
z
" style="stroke: #f97316"/>
     </defs>
     <g>
      <use xlink:href="#m1c1c9fc2f9" x="83.9" y="75.1875" style="fill: #f97316; stroke: #f97316"/>
     </g>
    </g>
    <g id="text_19">
     <!-- 月末観測 -->
     <g transform="translate(105.5 78.3375) scale(0.12 -0.12)">
      <defs>
       <path id="IPAexGothic-6708" d="M 5044 4984 
L 5044 256 
Q 5044 -78 4869 -203 
Q 4734 -300 4403 -300 
Q 3894 -300 3253 -247 
L 3169 244 
Q 3750 159 4294 159 
Q 4503 159 4547 263 
Q 4569 313 4569 438 
L 4569 1672 
L 1953 1672 
Q 1906 956 1716 475 
Q 1538 6 1116 -472 
L 744 -63 
Q 1259 475 1403 1244 
Q 1500 1772 1500 2650 
L 1500 4984 
L 5044 4984 
z
M 1981 4569 
L 1981 3541 
L 4569 3541 
L 4569 4569 
L 1981 4569 
z
M 1981 3144 
L 1981 2556 
Q 1981 2288 1975 2147 
L 1975 2069 
L 4569 2069 
L 4569 3144 
L 1981 3144 
z
" transform="scale(0.015625)"/>
       <path id="IPAexGothic-672b" d="M 3656 2438 
Q 4506 1213 6094 378 
L 5744 -97 
Q 4181 906 3413 2131 
L 3413 -450 
L 2938 -450 
L 2938 2078 
Q 2191 694 684 -213 
L 341 203 
Q 1841 988 2725 2438 
L 800 2438 
L 800 2853 
L 2938 2853 
L 2938 3903 
L 441 3903 
L 441 4319 
L 2938 4319 
L 2938 5309 
L 3413 5309 
L 3413 4319 
L 5953 4319 
L 5953 3903 
L 3413 3903 
L 3413 2853 
L 5600 2853 
L 5600 2438 
L 3656 2438 
z
" transform="scale(0.015625)"/>
       <path id="IPAexGothic-89b3" d="M 1919 4369 
Q 1841 4025 1747 3725 
L 3150 3725 
L 3150 3372 
L 1619 3372 
Q 1459 2959 1294 2675 
L 1825 2675 
Q 1950 2972 2016 3250 
L 2406 3141 
Q 2294 2831 2203 2675 
L 3078 2675 
L 3078 2344 
L 2209 2344 
L 2209 1925 
L 2944 1925 
L 2944 1613 
L 2209 1613 
L 2209 1191 
L 2944 1191 
L 2944 878 
L 2209 878 
L 2209 422 
L 3109 422 
L 3109 91 
L 1191 91 
L 1191 -288 
L 806 -288 
L 806 1944 
Q 606 1666 441 1503 
L 213 1856 
Q 816 2478 1209 3372 
L 353 3372 
L 353 3725 
L 1350 3725 
Q 1453 4019 1538 4369 
L 1094 4369 
Q 916 4025 722 3794 
L 441 4081 
Q 863 4603 1044 5309 
L 1441 5241 
Q 1366 4997 1253 4722 
L 3053 4722 
L 3053 4369 
L 1919 4369 
z
M 1191 2344 
L 1191 1925 
L 1850 1925 
L 1850 2344 
L 1191 2344 
z
M 1191 1613 
L 1191 1191 
L 1850 1191 
L 1850 1613 
L 1191 1613 
z
M 1191 878 
L 1191 422 
L 1850 422 
L 1850 878 
L 1191 878 
z
M 5128 1638 
L 5128 238 
Q 5128 63 5397 63 
Q 5663 63 5709 216 
Q 5759 403 5778 966 
L 6163 806 
Q 6106 81 6028 -109 
Q 5925 -359 5363 -359 
Q 4719 -359 4719 6 
L 4719 1638 
L 4253 1638 
Q 4231 813 4003 372 
Q 3744 -113 3100 -441 
L 2813 -84 
Q 3444 184 3663 653 
Q 3834 1031 3841 1638 
L 3369 1638 
L 3369 5044 
L 5709 5044 
L 5709 1638 
L 5128 1638 
z
M 3778 4672 
L 3778 4031 
L 5306 4031 
L 5306 4672 
L 3778 4672 
z
M 3778 3672 
L 3778 3034 
L 5306 3034 
L 5306 3672 
L 3778 3672 
z
M 3778 2675 
L 3778 2009 
L 5306 2009 
L 5306 2675 
L 3778 2675 
z
" transform="scale(0.015625)"/>
       <path id="IPAexGothic-6e2c" d="M 3856 4884 
L 3856 1081 
L 2059 1081 
L 2059 4884 
L 3856 4884 
z
M 2456 4494 
L 2456 3756 
L 3459 3756 
L 3459 4494 
L 2456 4494 
z
M 2456 3384 
L 2456 2656 
L 3459 2656 
L 3459 3384 
L 2456 3384 
z
M 2456 2284 
L 2456 1478 
L 3459 1478 
L 3459 2284 
L 2456 2284 
z
M 1413 3891 
Q 1000 4428 556 4763 
L 856 5100 
Q 1309 4753 1734 4269 
L 1413 3891 
z
M 1222 2394 
Q 816 2878 325 3256 
L 625 3591 
Q 1141 3231 1528 2778 
L 1222 2394 
z
M 375 -78 
Q 916 800 1297 1906 
L 1669 1619 
Q 1284 478 759 -428 
L 375 -78 
z
M 3819 -256 
Q 3478 319 3128 716 
L 3469 966 
Q 3834 581 4172 63 
L 3819 -256 
z
M 4378 4513 
L 4806 4513 
L 4806 959 
L 4378 959 
L 4378 4513 
z
M 1638 -109 
Q 2103 300 2450 984 
L 2828 763 
Q 2425 -6 1944 -488 
L 1638 -109 
z
M 5419 5081 
L 5853 5081 
L 5853 109 
Q 5853 -391 5297 -391 
Q 4919 -391 4541 -359 
L 4441 109 
Q 4928 50 5219 50 
Q 5419 50 5419 244 
L 5419 5081 
z
" transform="scale(0.015625)"/>
      </defs>
      <use xlink:href="#IPAexGothic-6708"/>
      <use xlink:href="#IPAexGothic-672b" transform="translate(100 0)"/>
      <use xlink:href="#IPAexGothic-89b3" transform="translate(200 0)"/>
      <use xlink:href="#IPAexGothic-6e2c" transform="translate(300 0)"/>
     </g>
    </g>
   </g>
  </g>
 </g>
 <defs>
  <clipPath id="p15ddcb5d3c">
   <rect x="55.1" y="30.48" width="429.211601" height="211.96"/>
  </clipPath>
 </defs>
</svg>
