<?xml version="1.0" encoding="utf-8" standalone="no"?>
<!DOCTYPE svg PUBLIC "-//W3C//DTD SVG 1.1//EN"
  "http://www.w3.org/Graphics/SVG/1.1/DTD/svg11.dtd">
<svg xmlns:xlink="http://www.w3.org/1999/xlink" width="504pt" height="288pt" viewBox="0 0 504 288" xmlns="http://www.w3.org/2000/svg" version="1.1">
 <metadata>
  <rdf:RDF xmlns:dc="http://purl.org/dc/elements/1.1/" xmlns:cc="http://creativecommons.org/ns#" xmlns:rdf="http://www.w3.org/1999/02/22-rdf-syntax-ns#">
   <cc:Work>
    <dc:type rdf:resource="http://purl.org/dc/dcmitype/StillImage"/>
    <dc:date>2025-10-27T10:38:09.391419</dc:date>
    <dc:format>image/svg+xml</dc:format>
    <dc:creator>
     <cc:Agent>
      <dc:title>Matplotlib v3.10.7, https://matplotlib.org/</dc:title>
     </cc:Agent>
    </dc:creator>
   </cc:Work>
  </rdf:RDF>
 </metadata>
 <defs>
  <style type="text/css">*{stroke-linejoin: round; stroke-linecap: butt}</style>
 </defs>
 <g id="figure_1">
  <g id="patch_1">
   <path d="M 0 288 
L 504 288 
L 504 0 
L 0 0 
z
" style="fill: #ffffff"/>
  </g>
  <g id="axes_1">
   <g id="patch_2">
    <path d="M 64.55 242.44 
L 493.2 242.44 
L 493.2 30.8625 
L 64.55 30.8625 
z
" style="fill: #ffffff"/>
   </g>
   <g id="FillBetweenPolyCollection_1">
    <path d="M 90.422317 121.989947 
L 90.422317 151.312553 
L 109.586997 151.312553 
L 122.36345 151.312553 
L 135.139903 151.312553 
L 147.916356 151.312553 
L 160.692809 151.312553 
L 173.469262 151.312553 
L 186.245715 151.312553 
L 199.022168 151.312553 
L 211.798621 151.312553 
L 224.575075 151.312553 
L 237.351528 151.312553 
L 250.127981 151.312553 
L 262.904434 151.312553 
L 275.680887 151.312553 
L 288.45734 151.312553 
L 301.233793 151.312553 
L 314.010246 151.312553 
L 326.786699 151.312553 
L 339.563152 151.312553 
L 352.339605 151.312553 
L 365.116058 151.312553 
L 377.892511 151.312553 
L 390.668964 151.312553 
L 403.445417 151.312553 
L 416.22187 151.312553 
L 428.998323 151.312553 
L 441.774776 151.312553 
L 454.55123 151.312553 
L 473.715909 151.312553 
L 473.715909 121.989947 
L 473.715909 121.989947 
L 454.55123 121.989947 
L 441.774776 121.989947 
L 428.998323 121.989947 
L 416.22187 121.989947 
L 403.445417 121.989947 
L 390.668964 121.989947 
L 377.892511 121.989947 
L 365.116058 121.989947 
L 352.339605 121.989947 
L 339.563152 121.989947 
L 326.786699 121.989947 
L 314.010246 121.989947 
L 301.233793 121.989947 
L 288.45734 121.989947 
L 275.680887 121.989947 
L 262.904434 121.989947 
L 250.127981 121.989947 
L 237.351528 121.989947 
L 224.575075 121.989947 
L 211.798621 121.989947 
L 199.022168 121.989947 
L 186.245715 121.989947 
L 173.469262 121.989947 
L 160.692809 121.989947 
L 147.916356 121.989947 
L 135.139903 121.989947 
L 122.36345 121.989947 
L 109.586997 121.989947 
L 90.422317 121.989947 
z
" clip-path="url(#p06a8b4c1b1)" style="fill: #264653; fill-opacity: 0.25"/>
   </g>
   <g id="matplotlib.axis_1">
    <g id="xtick_1">
     <g id="line2d_1">
      <path d="M 84.034091 242.44 
L 84.034091 30.8625 
" clip-path="url(#p06a8b4c1b1)" style="fill: none; stroke: #000000; stroke-opacity: 0.3; stroke-width: 0.5; stroke-linecap: square"/>
     </g>
     <g id="line2d_2">
      <defs>
       <path id="m46f099f003" d="M 0 0 
L 0 3.5 
" style="stroke: #000000; stroke-width: 0.8"/>
      </defs>
      <g>
       <use xlink:href="#m46f099f003" x="84.034091" y="242.44" style="stroke: #000000; stroke-width: 0.8"/>
      </g>
     </g>
     <g id="text_1">
      <!-- 0 -->
      <g transform="translate(80.884872 256.930625) scale(0.1 -0.1)">
       <defs>
        <path id="IPAexGothic-30" d="M 2038 4725 
Q 2881 4725 3334 3944 
Q 3694 3325 3694 2344 
Q 3694 1372 3334 741 
Q 2888 -31 2016 -31 
Q 1147 -31 700 741 
Q 341 1372 341 2350 
Q 341 3713 1000 4334 
Q 1419 4725 2038 4725 
z
M 2016 4266 
Q 1516 4266 1228 3759 
Q 934 3247 934 2344 
Q 934 1456 1222 947 
Q 1513 447 2016 447 
Q 2619 447 2909 1153 
Q 3100 1622 3100 2375 
Q 3100 3256 2806 3759 
Q 2509 4266 2016 4266 
z
" transform="scale(0.015625)"/>
       </defs>
       <use xlink:href="#IPAexGothic-30"/>
      </g>
     </g>
    </g>
    <g id="xtick_2">
     <g id="line2d_3">
      <path d="M 147.916356 242.44 
L 147.916356 30.8625 
" clip-path="url(#p06a8b4c1b1)" style="fill: none; stroke: #000000; stroke-opacity: 0.3; stroke-width: 0.5; stroke-linecap: square"/>
     </g>
     <g id="line2d_4">
      <g>
       <use xlink:href="#m46f099f003" x="147.916356" y="242.44" style="stroke: #000000; stroke-width: 0.8"/>
      </g>
     </g>
     <g id="text_2">
      <!-- 5 -->
      <g transform="translate(144.767137 256.930625) scale(0.1 -0.1)">
       <defs>
        <path id="IPAexGothic-35" d="M 1178 2603 
Q 1634 2963 2172 2963 
Q 2816 2963 3241 2528 
Q 3638 2113 3638 1497 
Q 3638 938 3297 513 
Q 2869 -31 2031 -31 
Q 959 -31 469 784 
L 938 1028 
Q 1309 434 2013 434 
Q 2466 434 2769 716 
Q 3081 1013 3081 1503 
Q 3081 1966 2806 2241 
Q 2519 2528 2056 2528 
Q 1406 2528 1072 2028 
L 591 2091 
L 884 4634 
L 3406 4634 
L 3406 4153 
L 1341 4153 
L 1134 2603 
L 1178 2603 
z
" transform="scale(0.015625)"/>
       </defs>
       <use xlink:href="#IPAexGothic-35"/>
      </g>
     </g>
    </g>
    <g id="xtick_3">
     <g id="line2d_5">
      <path d="M 211.798621 242.44 
L 211.798621 30.8625 
" clip-path="url(#p06a8b4c1b1)" style="fill: none; stroke: #000000; stroke-opacity: 0.3; stroke-width: 0.5; stroke-linecap: square"/>
     </g>
     <g id="line2d_6">
      <g>
       <use xlink:href="#m46f099f003" x="211.798621" y="242.44" style="stroke: #000000; stroke-width: 0.8"/>
      </g>
     </g>
     <g id="text_3">
      <!-- 10 -->
      <g transform="translate(205.500184 256.930625) scale(0.1 -0.1)">
       <defs>
        <path id="IPAexGothic-31" d="M 2463 63 
L 1900 63 
L 1900 4103 
Q 1372 3922 788 3797 
L 684 4231 
Q 1519 4441 2106 4731 
L 2463 4731 
L 2463 63 
z
" transform="scale(0.015625)"/>
       </defs>
       <use xlink:href="#IPAexGothic-31"/>
       <use xlink:href="#IPAexGothic-30" transform="translate(62.988281 0)"/>
      </g>
     </g>
    </g>
    <g id="xtick_4">
     <g id="line2d_7">
      <path d="M 275.680887 242.44 
L 275.680887 30.8625 
" clip-path="url(#p06a8b4c1b1)" style="fill: none; stroke: #000000; stroke-opacity: 0.3; stroke-width: 0.5; stroke-linecap: square"/>
     </g>
     <g id="line2d_8">
      <g>
       <use xlink:href="#m46f099f003" x="275.680887" y="242.44" style="stroke: #000000; stroke-width: 0.8"/>
      </g>
     </g>
     <g id="text_4">
      <!-- 15 -->
      <g transform="translate(269.382449 256.930625) scale(0.1 -0.1)">
       <use xlink:href="#IPAexGothic-31"/>
       <use xlink:href="#IPAexGothic-35" transform="translate(62.988281 0)"/>
      </g>
     </g>
    </g>
    <g id="xtick_5">
     <g id="line2d_9">
      <path d="M 339.563152 242.44 
L 339.563152 30.8625 
" clip-path="url(#p06a8b4c1b1)" style="fill: none; stroke: #000000; stroke-opacity: 0.3; stroke-width: 0.5; stroke-linecap: square"/>
     </g>
     <g id="line2d_10">
      <g>
       <use xlink:href="#m46f099f003" x="339.563152" y="242.44" style="stroke: #000000; stroke-width: 0.8"/>
      </g>
     </g>
     <g id="text_5">
      <!-- 20 -->
      <g transform="translate(333.264715 256.930625) scale(0.1 -0.1)">
       <defs>
        <path id="IPAexGothic-32" d="M 3659 63 
L 447 63 
L 447 594 
Q 825 1475 1894 2203 
L 2072 2322 
Q 2619 2697 2791 2906 
Q 2988 3153 2988 3444 
Q 2988 3772 2756 4003 
Q 2500 4259 2084 4259 
Q 1250 4259 991 3328 
L 497 3506 
Q 853 4725 2116 4725 
Q 2806 4725 3216 4316 
Q 3575 3947 3575 3425 
Q 3575 3038 3344 2722 
Q 3131 2416 2366 1938 
L 2231 1856 
Q 1256 1253 978 569 
L 3659 569 
L 3659 63 
z
" transform="scale(0.015625)"/>
       </defs>
       <use xlink:href="#IPAexGothic-32"/>
       <use xlink:href="#IPAexGothic-30" transform="translate(62.988281 0)"/>
      </g>
     </g>
    </g>
    <g id="xtick_6">
     <g id="line2d_11">
      <path d="M 403.445417 242.44 
L 403.445417 30.8625 
" clip-path="url(#p06a8b4c1b1)" style="fill: none; stroke: #000000; stroke-opacity: 0.3; stroke-width: 0.5; stroke-linecap: square"/>
     </g>
     <g id="line2d_12">
      <g>
       <use xlink:href="#m46f099f003" x="403.445417" y="242.44" style="stroke: #000000; stroke-width: 0.8"/>
      </g>
     </g>
     <g id="text_6">
      <!-- 25 -->
      <g transform="translate(397.14698 256.930625) scale(0.1 -0.1)">
       <use xlink:href="#IPAexGothic-32"/>
       <use xlink:href="#IPAexGothic-35" transform="translate(62.988281 0)"/>
      </g>
     </g>
    </g>
    <g id="xtick_7">
     <g id="line2d_13">
      <path d="M 467.327683 242.44 
L 467.327683 30.8625 
" clip-path="url(#p06a8b4c1b1)" style="fill: none; stroke: #000000; stroke-opacity: 0.3; stroke-width: 0.5; stroke-linecap: square"/>
     </g>
     <g id="line2d_14">
      <g>
       <use xlink:href="#m46f099f003" x="467.327683" y="242.44" style="stroke: #000000; stroke-width: 0.8"/>
      </g>
     </g>
     <g id="text_7">
      <!-- 30 -->
      <g transform="translate(461.029245 256.930625) scale(0.1 -0.1)">
       <defs>
        <path id="IPAexGothic-33" d="M 2381 2419 
Q 3506 2216 3506 1278 
Q 3506 716 3128 356 
Q 2709 -31 1944 -31 
Q 797 -31 288 881 
L 756 1131 
Q 1109 441 1938 441 
Q 2425 441 2694 691 
Q 2950 928 2950 1291 
Q 2950 1719 2566 1978 
Q 2216 2213 1644 2213 
L 1363 2213 
L 1363 2669 
L 1656 2669 
Q 2231 2669 2534 2888 
Q 2859 3119 2859 3509 
Q 2859 3934 2494 4138 
Q 2259 4278 1931 4278 
Q 1238 4278 903 3578 
L 434 3803 
Q 897 4725 1938 4725 
Q 2597 4725 3006 4394 
Q 3416 4069 3416 3534 
Q 3416 3028 3019 2706 
Q 2763 2500 2381 2444 
L 2381 2419 
z
" transform="scale(0.015625)"/>
       </defs>
       <use xlink:href="#IPAexGothic-33"/>
       <use xlink:href="#IPAexGothic-30" transform="translate(62.988281 0)"/>
      </g>
     </g>
    </g>
    <g id="text_8">
     <!-- ラグ -->
     <g transform="translate(264.475 273.617125) scale(0.144 -0.144)">
      <defs>
       <path id="IPAexGothic-30e9" d="M 1447 4709 
L 4922 4709 
L 4922 4234 
L 1447 4234 
L 1447 4709 
z
M 897 3303 
L 5172 3303 
L 5478 3013 
Q 5069 1669 4219 875 
Q 3475 181 2306 -181 
L 1972 294 
Q 4150 784 4834 2828 
L 897 2828 
L 897 3303 
z
" transform="scale(0.015625)"/>
       <path id="IPAexGothic-30b0" d="M 4769 4128 
L 5106 3878 
Q 4728 2272 3866 1238 
Q 3106 328 1863 -288 
L 1491 122 
Q 2709 628 3475 1563 
Q 4238 2491 4525 3669 
L 2738 3669 
Q 2022 2591 1191 1897 
L 813 2247 
Q 2163 3338 2766 4959 
L 3256 4819 
Q 3197 4609 2975 4128 
L 4769 4128 
z
M 6009 4422 
Q 5647 4966 5253 5294 
L 5556 5522 
Q 5941 5213 6328 4697 
L 6009 4422 
z
M 5416 3956 
Q 5125 4447 4678 4844 
L 4991 5088 
Q 5363 4781 5747 4231 
L 5416 3956 
z
" transform="scale(0.015625)"/>
      </defs>
      <use xlink:href="#IPAexGothic-30e9"/>
      <use xlink:href="#IPAexGothic-30b0" transform="translate(100 0)"/>
     </g>
    </g>
   </g>
   <g id="matplotlib.axis_2">
    <g id="ytick_1">
     <g id="line2d_15">
      <path d="M 64.55 242.44 
L 493.2 242.44 
" clip-path="url(#p06a8b4c1b1)" style="fill: none; stroke: #000000; stroke-opacity: 0.3; stroke-width: 0.5; stroke-linecap: square"/>
     </g>
     <g id="line2d_16">
      <defs>
       <path id="mf0833613dc" d="M 0 0 
L -3.5 0 
" style="stroke: #000000; stroke-width: 0.8"/>
      </defs>
      <g>
       <use xlink:href="#mf0833613dc" x="64.55" y="242.44" style="stroke: #000000; stroke-width: 0.8"/>
      </g>
     </g>
     <g id="text_9">
      <!-- −1.00 -->
      <g transform="translate(29.229688 246.185313) scale(0.1 -0.1)">
       <defs>
        <path id="IPAexGothic-2212" d="M 416 2222 
L 3922 2222 
L 3922 1856 
L 416 1856 
L 416 2222 
z
" transform="scale(0.015625)"/>
        <path id="IPAexGothic-2e" d="M 1184 63 
L 494 63 
L 494 753 
L 1184 753 
L 1184 63 
z
" transform="scale(0.015625)"/>
       </defs>
       <use xlink:href="#IPAexGothic-2212"/>
       <use xlink:href="#IPAexGothic-31" transform="translate(67.822266 0)"/>
       <use xlink:href="#IPAexGothic-2e" transform="translate(130.810547 0)"/>
       <use xlink:href="#IPAexGothic-30" transform="translate(157.226562 0)"/>
       <use xlink:href="#IPAexGothic-30" transform="translate(220.214844 0)"/>
      </g>
     </g>
    </g>
    <g id="ytick_2">
     <g id="line2d_17">
      <path d="M 64.55 215.992813 
L 493.2 215.992813 
" clip-path="url(#p06a8b4c1b1)" style="fill: none; stroke: #000000; stroke-opacity: 0.3; stroke-width: 0.5; stroke-linecap: square"/>
     </g>
     <g id="line2d_18">
      <g>
       <use xlink:href="#mf0833613dc" x="64.55" y="215.992813" style="stroke: #000000; stroke-width: 0.8"/>
      </g>
     </g>
     <g id="text_10">
      <!-- −0.75 -->
      <g transform="translate(29.229688 219.738125) scale(0.1 -0.1)">
       <defs>
        <path id="IPAexGothic-37" d="M 3597 4263 
Q 2238 2106 1778 63 
L 1131 63 
Q 1581 1834 2950 4128 
L 428 4128 
L 428 4634 
L 3597 4634 
L 3597 4263 
z
" transform="scale(0.015625)"/>
       </defs>
       <use xlink:href="#IPAexGothic-2212"/>
       <use xlink:href="#IPAexGothic-30" transform="translate(67.822266 0)"/>
       <use xlink:href="#IPAexGothic-2e" transform="translate(130.810547 0)"/>
       <use xlink:href="#IPAexGothic-37" transform="translate(157.226562 0)"/>
       <use xlink:href="#IPAexGothic-35" transform="translate(220.214844 0)"/>
      </g>
     </g>
    </g>
    <g id="ytick_3">
     <g id="line2d_19">
      <path d="M 64.55 189.545625 
L 493.2 189.545625 
" clip-path="url(#p06a8b4c1b1)" style="fill: none; stroke: #000000; stroke-opacity: 0.3; stroke-width: 0.5; stroke-linecap: square"/>
     </g>
     <g id="line2d_20">
      <g>
       <use xlink:href="#mf0833613dc" x="64.55" y="189.545625" style="stroke: #000000; stroke-width: 0.8"/>
      </g>
     </g>
     <g id="text_11">
      <!-- −0.50 -->
      <g transform="translate(29.229688 193.290938) scale(0.1 -0.1)">
       <use xlink:href="#IPAexGothic-2212"/>
       <use xlink:href="#IPAexGothic-30" transform="translate(67.822266 0)"/>
       <use xlink:href="#IPAexGothic-2e" transform="translate(130.810547 0)"/>
       <use xlink:href="#IPAexGothic-35" transform="translate(157.226562 0)"/>
       <use xlink:href="#IPAexGothic-30" transform="translate(220.214844 0)"/>
      </g>
     </g>
    </g>
    <g id="ytick_4">
     <g id="line2d_21">
      <path d="M 64.55 163.098438 
L 493.2 163.098438 
" clip-path="url(#p06a8b4c1b1)" style="fill: none; stroke: #000000; stroke-opacity: 0.3; stroke-width: 0.5; stroke-linecap: square"/>
     </g>
     <g id="line2d_22">
      <g>
       <use xlink:href="#mf0833613dc" x="64.55" y="163.098438" style="stroke: #000000; stroke-width: 0.8"/>
      </g>
     </g>
     <g id="text_12">
      <!-- −0.25 -->
      <g transform="translate(29.229688 166.84375) scale(0.1 -0.1)">
       <use xlink:href="#IPAexGothic-2212"/>
       <use xlink:href="#IPAexGothic-30" transform="translate(67.822266 0)"/>
       <use xlink:href="#IPAexGothic-2e" transform="translate(130.810547 0)"/>
       <use xlink:href="#IPAexGothic-32" transform="translate(157.226562 0)"/>
       <use xlink:href="#IPAexGothic-35" transform="translate(220.214844 0)"/>
      </g>
     </g>
    </g>
    <g id="ytick_5">
     <g id="line2d_23">
      <path d="M 64.55 136.65125 
L 493.2 136.65125 
" clip-path="url(#p06a8b4c1b1)" style="fill: none; stroke: #000000; stroke-opacity: 0.3; stroke-width: 0.5; stroke-linecap: square"/>
     </g>
     <g id="line2d_24">
      <g>
       <use xlink:href="#mf0833613dc" x="64.55" y="136.65125" style="stroke: #000000; stroke-width: 0.8"/>
      </g>
     </g>
     <g id="text_13">
      <!-- 0.00 -->
      <g transform="translate(36.0125 140.396563) scale(0.1 -0.1)">
       <use xlink:href="#IPAexGothic-30"/>
       <use xlink:href="#IPAexGothic-2e" transform="translate(62.988281 0)"/>
       <use xlink:href="#IPAexGothic-30" transform="translate(89.404297 0)"/>
       <use xlink:href="#IPAexGothic-30" transform="translate(152.392578 0)"/>
      </g>
     </g>
    </g>
    <g id="ytick_6">
     <g id="line2d_25">
      <path d="M 64.55 110.204062 
L 493.2 110.204062 
" clip-path="url(#p06a8b4c1b1)" style="fill: none; stroke: #000000; stroke-opacity: 0.3; stroke-width: 0.5; stroke-linecap: square"/>
     </g>
     <g id="line2d_26">
      <g>
       <use xlink:href="#mf0833613dc" x="64.55" y="110.204062" style="stroke: #000000; stroke-width: 0.8"/>
      </g>
     </g>
     <g id="text_14">
      <!-- 0.25 -->
      <g transform="translate(36.0125 113.949375) scale(0.1 -0.1)">
       <use xlink:href="#IPAexGothic-30"/>
       <use xlink:href="#IPAexGothic-2e" transform="translate(62.988281 0)"/>
       <use xlink:href="#IPAexGothic-32" transform="translate(89.404297 0)"/>
       <use xlink:href="#IPAexGothic-35" transform="translate(152.392578 0)"/>
      </g>
     </g>
    </g>
    <g id="ytick_7">
     <g id="line2d_27">
      <path d="M 64.55 83.756875 
L 493.2 83.756875 
" clip-path="url(#p06a8b4c1b1)" style="fill: none; stroke: #000000; stroke-opacity: 0.3; stroke-width: 0.5; stroke-linecap: square"/>
     </g>
     <g id="line2d_28">
      <g>
       <use xlink:href="#mf0833613dc" x="64.55" y="83.756875" style="stroke: #000000; stroke-width: 0.8"/>
      </g>
     </g>
     <g id="text_15">
      <!-- 0.50 -->
      <g transform="translate(36.0125 87.502187) scale(0.1 -0.1)">
       <use xlink:href="#IPAexGothic-30"/>
       <use xlink:href="#IPAexGothic-2e" transform="translate(62.988281 0)"/>
       <use xlink:href="#IPAexGothic-35" transform="translate(89.404297 0)"/>
       <use xlink:href="#IPAexGothic-30" transform="translate(152.392578 0)"/>
      </g>
     </g>
    </g>
    <g id="ytick_8">
     <g id="line2d_29">
      <path d="M 64.55 57.309687 
L 493.2 57.309687 
" clip-path="url(#p06a8b4c1b1)" style="fill: none; stroke: #000000; stroke-opacity: 0.3; stroke-width: 0.5; stroke-linecap: square"/>
     </g>
     <g id="line2d_30">
      <g>
       <use xlink:href="#mf0833613dc" x="64.55" y="57.309687" style="stroke: #000000; stroke-width: 0.8"/>
      </g>
     </g>
     <g id="text_16">
      <!-- 0.75 -->
      <g transform="translate(36.0125 61.055) scale(0.1 -0.1)">
       <use xlink:href="#IPAexGothic-30"/>
       <use xlink:href="#IPAexGothic-2e" transform="translate(62.988281 0)"/>
       <use xlink:href="#IPAexGothic-37" transform="translate(89.404297 0)"/>
       <use xlink:href="#IPAexGothic-35" transform="translate(152.392578 0)"/>
      </g>
     </g>
    </g>
    <g id="ytick_9">
     <g id="line2d_31">
      <path d="M 64.55 30.8625 
L 493.2 30.8625 
" clip-path="url(#p06a8b4c1b1)" style="fill: none; stroke: #000000; stroke-opacity: 0.3; stroke-width: 0.5; stroke-linecap: square"/>
     </g>
     <g id="line2d_32">
      <g>
       <use xlink:href="#mf0833613dc" x="64.55" y="30.8625" style="stroke: #000000; stroke-width: 0.8"/>
      </g>
     </g>
     <g id="text_17">
      <!-- 1.00 -->
      <g transform="translate(36.0125 34.607812) scale(0.1 -0.1)">
       <use xlink:href="#IPAexGothic-31"/>
       <use xlink:href="#IPAexGothic-2e" transform="translate(62.988281 0)"/>
       <use xlink:href="#IPAexGothic-30" transform="translate(89.404297 0)"/>
       <use xlink:href="#IPAexGothic-30" transform="translate(152.392578 0)"/>
      </g>
     </g>
    </g>
    <g id="text_18">
     <!-- 偏自己相関 -->
     <g transform="translate(22.493688 172.65125) rotate(-90) scale(0.144 -0.144)">
      <defs>
       <path id="IPAexGothic-504f" d="M 1503 3653 
L 1503 -447 
L 1063 -447 
L 1063 2700 
Q 816 2247 538 1863 
L 288 2253 
Q 1175 3556 1528 5325 
L 1963 5222 
Q 1800 4438 1503 3653 
z
M 5681 4116 
L 5681 2859 
L 2616 2859 
L 2616 2769 
Q 2616 2603 2609 2406 
L 5863 2406 
L 5863 13 
Q 5863 -213 5772 -300 
Q 5688 -384 5466 -384 
Q 5281 -384 5138 -359 
L 5081 72 
Q 5216 31 5338 31 
Q 5447 31 5447 191 
L 5447 916 
L 4856 916 
L 4856 -281 
L 4459 -281 
L 4459 916 
L 3922 916 
L 3922 -281 
L 3525 -281 
L 3525 916 
L 2988 916 
L 2988 -447 
L 2578 -447 
L 2578 1997 
L 2566 1997 
Q 2441 594 1881 -347 
L 1591 31 
Q 1981 672 2097 1466 
Q 2188 2072 2188 2950 
L 2188 4116 
L 5681 4116 
z
M 5253 3763 
L 2616 3763 
L 2616 3213 
L 5253 3213 
L 5253 3763 
z
M 2988 2053 
L 2988 1253 
L 3525 1253 
L 3525 2053 
L 2988 2053 
z
M 5447 1253 
L 5447 2053 
L 4856 2053 
L 4856 1253 
L 5447 1253 
z
M 3922 2053 
L 3922 1253 
L 4459 1253 
L 4459 2053 
L 3922 2053 
z
M 1997 4966 
L 5978 4966 
L 5978 4594 
L 1997 4594 
L 1997 4966 
z
" transform="scale(0.015625)"/>
       <path id="IPAexGothic-81ea" d="M 2591 4353 
Q 2719 4766 2816 5294 
L 3359 5191 
Q 3250 4809 3072 4353 
L 5291 4353 
L 5291 -450 
L 4822 -450 
L 4822 -72 
L 1569 -72 
L 1569 -450 
L 1100 -450 
L 1100 4353 
L 2591 4353 
z
M 1569 3956 
L 1569 3028 
L 4822 3028 
L 4822 3956 
L 1569 3956 
z
M 1569 2644 
L 1569 1716 
L 4822 1716 
L 4822 2644 
L 1569 2644 
z
M 1569 1331 
L 1569 325 
L 4822 325 
L 4822 1331 
L 1569 1331 
z
" transform="scale(0.015625)"/>
       <path id="IPAexGothic-5df1" d="M 1472 2541 
L 1472 728 
Q 1472 416 1716 366 
Q 2003 316 3328 316 
Q 5109 316 5272 469 
Q 5394 591 5434 1369 
L 5441 1491 
L 5925 1338 
Q 5878 347 5722 134 
Q 5600 -38 5253 -88 
Q 4706 -166 3269 -166 
Q 1466 -166 1197 6 
Q 972 153 972 556 
L 972 2956 
L 4606 2956 
L 4606 4347 
L 813 4347 
L 813 4775 
L 5100 4775 
L 5100 2016 
L 4606 2016 
L 4606 2541 
L 1472 2541 
z
" transform="scale(0.015625)"/>
       <path id="IPAexGothic-76f8" d="M 1388 2691 
L 1369 2631 
Q 1075 1622 556 781 
L 275 1250 
Q 1006 2284 1316 3541 
L 409 3541 
L 409 3956 
L 1388 3956 
L 1388 5300 
L 1828 5300 
L 1828 3956 
L 2725 3956 
L 2725 3541 
L 1828 3541 
L 1828 2925 
Q 2456 2400 2819 1978 
L 2550 1519 
Q 2238 1963 1828 2422 
L 1828 -447 
L 1388 -447 
L 1388 2691 
z
M 5803 4884 
L 5803 -331 
L 5369 -331 
L 5369 116 
L 3409 116 
L 3409 -331 
L 2981 -331 
L 2981 4884 
L 5803 4884 
z
M 3409 4488 
L 3409 3450 
L 5369 3450 
L 5369 4488 
L 3409 4488 
z
M 3409 3066 
L 3409 2022 
L 5369 2022 
L 5369 3066 
L 3409 3066 
z
M 3409 1638 
L 3409 506 
L 5369 506 
L 5369 1638 
L 3409 1638 
z
" transform="scale(0.015625)"/>
       <path id="IPAexGothic-95a2" d="M 2919 5063 
L 2919 3288 
L 1016 3288 
L 1016 -450 
L 569 -450 
L 569 5063 
L 2919 5063 
z
M 1016 4709 
L 1016 4331 
L 2509 4331 
L 2509 4709 
L 1016 4709 
z
M 1016 4019 
L 1016 3628 
L 2509 3628 
L 2509 4019 
L 1016 4019 
z
M 5822 5063 
L 5822 44 
Q 5822 -409 5297 -409 
Q 4956 -409 4672 -366 
L 4594 97 
Q 4841 31 5156 31 
Q 5369 31 5369 244 
L 5369 3288 
L 3422 3288 
L 3422 5063 
L 5822 5063 
z
M 3831 4709 
L 3831 4331 
L 5369 4331 
L 5369 4709 
L 3831 4709 
z
M 3831 4019 
L 3831 3628 
L 5369 3628 
L 5369 4019 
L 3831 4019 
z
M 2425 2478 
Q 2328 2713 2150 2975 
L 2559 3122 
Q 2709 2866 2859 2478 
L 3525 2478 
Q 3716 2847 3806 3147 
L 4256 3022 
Q 4084 2669 3953 2478 
L 4766 2478 
L 4766 2113 
L 3391 2113 
L 3391 1672 
L 4928 1672 
L 4928 1300 
L 3366 1300 
Q 3363 1263 3334 1141 
Q 4016 863 4734 409 
L 4428 34 
Q 3888 441 3281 763 
Q 3278 766 3241 788 
Q 3225 797 3219 800 
Q 2881 100 1875 -256 
L 1588 122 
Q 2769 409 2931 1300 
L 1466 1300 
L 1466 1672 
L 2963 1672 
L 2963 2113 
L 1625 2113 
L 1625 2478 
L 2425 2478 
z
" transform="scale(0.015625)"/>
      </defs>
      <use xlink:href="#IPAexGothic-504f"/>
      <use xlink:href="#IPAexGothic-81ea" transform="translate(100 0)"/>
      <use xlink:href="#IPAexGothic-5df1" transform="translate(200 0)"/>
      <use xlink:href="#IPAexGothic-76f8" transform="translate(300 0)"/>
      <use xlink:href="#IPAexGothic-95a2" transform="translate(400 0)"/>
     </g>
    </g>
   </g>
   <g id="LineCollection_1">
    <path d="M 84.034091 136.65125 
L 84.034091 30.8625 
" clip-path="url(#p06a8b4c1b1)" style="fill: none; stroke: #264653; stroke-width: 1.2"/>
    <path d="M 96.810544 136.65125 
L 96.810544 56.11858 
" clip-path="url(#p06a8b4c1b1)" style="fill: none; stroke: #264653; stroke-width: 1.2"/>
    <path d="M 109.586997 136.65125 
L 109.586997 121.026893 
" clip-path="url(#p06a8b4c1b1)" style="fill: none; stroke: #264653; stroke-width: 1.2"/>
    <path d="M 122.36345 136.65125 
L 122.36345 142.770607 
" clip-path="url(#p06a8b4c1b1)" style="fill: none; stroke: #264653; stroke-width: 1.2"/>
    <path d="M 135.139903 136.65125 
L 135.139903 152.33402 
" clip-path="url(#p06a8b4c1b1)" style="fill: none; stroke: #264653; stroke-width: 1.2"/>
    <path d="M 147.916356 136.65125 
L 147.916356 151.257806 
" clip-path="url(#p06a8b4c1b1)" style="fill: none; stroke: #264653; stroke-width: 1.2"/>
    <path d="M 160.692809 136.65125 
L 160.692809 145.672181 
" clip-path="url(#p06a8b4c1b1)" style="fill: none; stroke: #264653; stroke-width: 1.2"/>
    <path d="M 173.469262 136.65125 
L 173.469262 159.85283 
" clip-path="url(#p06a8b4c1b1)" style="fill: none; stroke: #264653; stroke-width: 1.2"/>
    <path d="M 186.245715 136.65125 
L 186.245715 147.811097 
" clip-path="url(#p06a8b4c1b1)" style="fill: none; stroke: #264653; stroke-width: 1.2"/>
    <path d="M 199.022168 136.65125 
L 199.022168 159.099072 
" clip-path="url(#p06a8b4c1b1)" style="fill: none; stroke: #264653; stroke-width: 1.2"/>
    <path d="M 211.798621 136.65125 
L 211.798621 138.903376 
" clip-path="url(#p06a8b4c1b1)" style="fill: none; stroke: #264653; stroke-width: 1.2"/>
    <path d="M 224.575075 136.65125 
L 224.575075 147.121634 
" clip-path="url(#p06a8b4c1b1)" style="fill: none; stroke: #264653; stroke-width: 1.2"/>
    <path d="M 237.351528 136.65125 
L 237.351528 148.385556 
" clip-path="url(#p06a8b4c1b1)" style="fill: none; stroke: #264653; stroke-width: 1.2"/>
    <path d="M 250.127981 136.65125 
L 250.127981 147.610095 
" clip-path="url(#p06a8b4c1b1)" style="fill: none; stroke: #264653; stroke-width: 1.2"/>
    <path d="M 262.904434 136.65125 
L 262.904434 137.42437 
" clip-path="url(#p06a8b4c1b1)" style="fill: none; stroke: #264653; stroke-width: 1.2"/>
    <path d="M 275.680887 136.65125 
L 275.680887 136.381238 
" clip-path="url(#p06a8b4c1b1)" style="fill: none; stroke: #264653; stroke-width: 1.2"/>
    <path d="M 288.45734 136.65125 
L 288.45734 141.33141 
" clip-path="url(#p06a8b4c1b1)" style="fill: none; stroke: #264653; stroke-width: 1.2"/>
    <path d="M 301.233793 136.65125 
L 301.233793 126.62179 
" clip-path="url(#p06a8b4c1b1)" style="fill: none; stroke: #264653; stroke-width: 1.2"/>
    <path d="M 314.010246 136.65125 
L 314.010246 129.20812 
" clip-path="url(#p06a8b4c1b1)" style="fill: none; stroke: #264653; stroke-width: 1.2"/>
    <path d="M 326.786699 136.65125 
L 326.786699 142.040175 
" clip-path="url(#p06a8b4c1b1)" style="fill: none; stroke: #264653; stroke-width: 1.2"/>
    <path d="M 339.563152 136.65125 
L 339.563152 133.034843 
" clip-path="url(#p06a8b4c1b1)" style="fill: none; stroke: #264653; stroke-width: 1.2"/>
    <path d="M 352.339605 136.65125 
L 352.339605 136.929395 
" clip-path="url(#p06a8b4c1b1)" style="fill: none; stroke: #264653; stroke-width: 1.2"/>
    <path d="M 365.116058 136.65125 
L 365.116058 132.432757 
" clip-path="url(#p06a8b4c1b1)" style="fill: none; stroke: #264653; stroke-width: 1.2"/>
    <path d="M 377.892511 136.65125 
L 377.892511 147.539472 
" clip-path="url(#p06a8b4c1b1)" style="fill: none; stroke: #264653; stroke-width: 1.2"/>
    <path d="M 390.668964 136.65125 
L 390.668964 134.392223 
" clip-path="url(#p06a8b4c1b1)" style="fill: none; stroke: #264653; stroke-width: 1.2"/>
    <path d="M 403.445417 136.65125 
L 403.445417 129.684288 
" clip-path="url(#p06a8b4c1b1)" style="fill: none; stroke: #264653; stroke-width: 1.2"/>
    <path d="M 416.22187 136.65125 
L 416.22187 145.291425 
" clip-path="url(#p06a8b4c1b1)" style="fill: none; stroke: #264653; stroke-width: 1.2"/>
    <path d="M 428.998323 136.65125 
L 428.998323 135.927091 
" clip-path="url(#p06a8b4c1b1)" style="fill: none; stroke: #264653; stroke-width: 1.2"/>
    <path d="M 441.774776 136.65125 
L 441.774776 141.317349 
" clip-path="url(#p06a8b4c1b1)" style="fill: none; stroke: #264653; stroke-width: 1.2"/>
    <path d="M 454.55123 136.65125 
L 454.55123 146.037248 
" clip-path="url(#p06a8b4c1b1)" style="fill: none; stroke: #264653; stroke-width: 1.2"/>
    <path d="M 467.327683 136.65125 
L 467.327683 138.739555 
" clip-path="url(#p06a8b4c1b1)" style="fill: none; stroke: #264653; stroke-width: 1.2"/>
   </g>
   <g id="line2d_33">
    <path d="M 64.55 136.65125 
L 493.2 136.65125 
" clip-path="url(#p06a8b4c1b1)" style="fill: none; stroke: #f97316; stroke-width: 1.2; stroke-linecap: square"/>
   </g>
   <g id="line2d_34">
    <defs>
     <path id="m1b24f157f0" d="M 0 2.5 
C 0.663008 2.5 1.29895 2.236584 1.767767 1.767767 
C 2.236584 1.29895 2.5 0.663008 2.5 0 
C 2.5 -0.663008 2.236584 -1.29895 1.767767 -1.767767 
C 1.29895 -2.236584 0.663008 -2.5 0 -2.5 
C -0.663008 -2.5 -1.29895 -2.236584 -1.767767 -1.767767 
C -2.236584 -1.29895 -2.5 -0.663008 -2.5 0 
C -2.5 0.663008 -2.236584 1.29895 -1.767767 1.767767 
C -1.29895 2.236584 -0.663008 2.5 0 2.5 
z
" style="stroke: #f97316"/>
    </defs>
    <g clip-path="url(#p06a8b4c1b1)">
     <use xlink:href="#m1b24f157f0" x="84.034091" y="30.8625" style="fill: #f97316; stroke: #f97316"/>
     <use xlink:href="#m1b24f157f0" x="96.810544" y="56.11858" style="fill: #f97316; stroke: #f97316"/>
     <use xlink:href="#m1b24f157f0" x="109.586997" y="121.026893" style="fill: #f97316; stroke: #f97316"/>
     <use xlink:href="#m1b24f157f0" x="122.36345" y="142.770607" style="fill: #f97316; stroke: #f97316"/>
     <use xlink:href="#m1b24f157f0" x="135.139903" y="152.33402" style="fill: #f97316; stroke: #f97316"/>
     <use xlink:href="#m1b24f157f0" x="147.916356" y="151.257806" style="fill: #f97316; stroke: #f97316"/>
     <use xlink:href="#m1b24f157f0" x="160.692809" y="145.672181" style="fill: #f97316; stroke: #f97316"/>
     <use xlink:href="#m1b24f157f0" x="173.469262" y="159.85283" style="fill: #f97316; stroke: #f97316"/>
     <use xlink:href="#m1b24f157f0" x="186.245715" y="147.811097" style="fill: #f97316; stroke: #f97316"/>
     <use xlink:href="#m1b24f157f0" x="199.022168" y="159.099072" style="fill: #f97316; stroke: #f97316"/>
     <use xlink:href="#m1b24f157f0" x="211.798621" y="138.903376" style="fill: #f97316; stroke: #f97316"/>
     <use xlink:href="#m1b24f157f0" x="224.575075" y="147.121634" style="fill: #f97316; stroke: #f97316"/>
     <use xlink:href="#m1b24f157f0" x="237.351528" y="148.385556" style="fill: #f97316; stroke: #f97316"/>
     <use xlink:href="#m1b24f157f0" x="250.127981" y="147.610095" style="fill: #f97316; stroke: #f97316"/>
     <use xlink:href="#m1b24f157f0" x="262.904434" y="137.42437" style="fill: #f97316; stroke: #f97316"/>
     <use xlink:href="#m1b24f157f0" x="275.680887" y="136.381238" style="fill: #f97316; stroke: #f97316"/>
     <use xlink:href="#m1b24f157f0" x="288.45734" y="141.33141" style="fill: #f97316; stroke: #f97316"/>
     <use xlink:href="#m1b24f157f0" x="301.233793" y="126.62179" style="fill: #f97316; stroke: #f97316"/>
     <use xlink:href="#m1b24f157f0" x="314.010246" y="129.20812" style="fill: #f97316; stroke: #f97316"/>
     <use xlink:href="#m1b24f157f0" x="326.786699" y="142.040175" style="fill: #f97316; stroke: #f97316"/>
     <use xlink:href="#m1b24f157f0" x="339.563152" y="133.034843" style="fill: #f97316; stroke: #f97316"/>
     <use xlink:href="#m1b24f157f0" x="352.339605" y="136.929395" style="fill: #f97316; stroke: #f97316"/>
     <use xlink:href="#m1b24f157f0" x="365.116058" y="132.432757" style="fill: #f97316; stroke: #f97316"/>
     <use xlink:href="#m1b24f157f0" x="377.892511" y="147.539472" style="fill: #f97316; stroke: #f97316"/>
     <use xlink:href="#m1b24f157f0" x="390.668964" y="134.392223" style="fill: #f97316; stroke: #f97316"/>
     <use xlink:href="#m1b24f157f0" x="403.445417" y="129.684288" style="fill: #f97316; stroke: #f97316"/>
     <use xlink:href="#m1b24f157f0" x="416.22187" y="145.291425" style="fill: #f97316; stroke: #f97316"/>
     <use xlink:href="#m1b24f157f0" x="428.998323" y="135.927091" style="fill: #f97316; stroke: #f97316"/>
     <use xlink:href="#m1b24f157f0" x="441.774776" y="141.317349" style="fill: #f97316; stroke: #f97316"/>
     <use xlink:href="#m1b24f157f0" x="454.55123" y="146.037248" style="fill: #f97316; stroke: #f97316"/>
     <use xlink:href="#m1b24f157f0" x="467.327683" y="138.739555" style="fill: #f97316; stroke: #f97316"/>
    </g>
   </g>
   <g id="text_19">
    <!-- 偏自己相関関数 (PACF) -->
    <g transform="translate(188.23195 24.8625) scale(0.1728 -0.1728)">
     <defs>
      <path id="IPAexGothic-6570" d="M 2847 1553 
Q 2741 1006 2425 534 
Q 2625 441 3091 203 
L 2809 -188 
Q 2541 0 2144 209 
Q 1569 -291 703 -500 
L 422 -125 
Q 1263 19 1747 406 
Q 1222 650 734 816 
Q 975 1172 1147 1503 
L 1172 1553 
L 359 1553 
L 359 1925 
L 1344 1925 
Q 1406 2066 1569 2475 
L 1691 2450 
L 1691 3372 
Q 1250 2738 550 2303 
L 275 2663 
Q 1019 3013 1528 3641 
L 378 3641 
L 378 4006 
L 1691 4006 
L 1691 5313 
L 2113 5313 
L 2113 4006 
L 3297 4006 
L 3297 3641 
L 2113 3641 
L 2113 3513 
Q 2659 3291 3175 2963 
L 2956 2584 
Q 2553 2922 2113 3159 
L 2113 2372 
L 1966 2372 
Q 1928 2288 1872 2141 
Q 1806 1975 1784 1925 
L 3378 1925 
L 3378 1553 
L 2847 1553 
z
M 2419 1553 
L 1613 1553 
Q 1478 1269 1313 997 
Q 1559 909 2047 703 
Q 2313 1047 2419 1553 
z
M 4363 1163 
Q 3953 1781 3738 2638 
Q 3575 2281 3428 2016 
L 3103 2406 
Q 3675 3444 3916 5291 
L 4363 5200 
Q 4284 4666 4197 4197 
L 6009 4197 
L 6009 3775 
L 5503 3775 
Q 5397 2275 4869 1191 
Q 5419 503 6144 75 
L 5822 -378 
Q 5188 106 4631 788 
Q 4113 34 3341 -463 
L 3031 -78 
Q 3888 406 4363 1163 
z
M 4588 1594 
Q 4938 2388 5059 3775 
L 4100 3775 
Q 4041 3519 3972 3288 
Q 3981 3250 3991 3194 
Q 4175 2256 4588 1594 
z
M 1003 4116 
Q 878 4544 638 4934 
L 1053 5094 
Q 1247 4788 1438 4269 
L 1003 4116 
z
M 2316 4269 
Q 2550 4688 2688 5131 
L 3128 4997 
Q 2966 4588 2675 4128 
L 2316 4269 
z
" transform="scale(0.015625)"/>
      <path id="IPAexGothic-20" transform="scale(0.015625)"/>
      <path id="IPAexGothic-28" d="M 1928 -1016 
L 1653 -1166 
Q 488 69 488 1875 
Q 488 3678 1653 4909 
L 1928 4763 
Q 1006 3522 1006 1881 
Q 1006 203 1928 -1016 
z
" transform="scale(0.015625)"/>
      <path id="IPAexGothic-50" d="M 609 4634 
L 1941 4634 
Q 3688 4634 3688 3322 
Q 3688 1934 1906 1934 
L 1172 1934 
L 1172 63 
L 609 63 
L 609 4634 
z
M 1172 2381 
L 1800 2381 
Q 3100 2381 3100 3316 
Q 3100 4181 1894 4181 
L 1172 4181 
L 1172 2381 
z
" transform="scale(0.015625)"/>
      <path id="IPAexGothic-41" d="M 4056 63 
L 3444 63 
L 2938 1409 
L 1100 1409 
L 603 63 
L -6 63 
L 1806 4666 
L 2259 4666 
L 4056 63 
z
M 2778 1863 
L 2316 3078 
Q 2125 3588 2028 4000 
L 2009 4000 
Q 1897 3563 1716 3078 
L 1263 1863 
L 2778 1863 
z
" transform="scale(0.015625)"/>
      <path id="IPAexGothic-43" d="M 4353 1088 
Q 4181 694 3859 428 
Q 3313 -31 2559 -31 
Q 1588 -31 959 653 
Q 378 1294 378 2331 
Q 378 3406 1013 4078 
Q 1619 4725 2534 4725 
Q 3813 4725 4322 3628 
L 3809 3391 
Q 3425 4238 2541 4238 
Q 1891 4238 1453 3744 
Q 994 3216 994 2322 
Q 994 1550 1384 1056 
Q 1841 472 2563 472 
Q 3456 472 3878 1319 
L 4353 1088 
z
" transform="scale(0.015625)"/>
      <path id="IPAexGothic-46" d="M 3469 4141 
L 1172 4141 
L 1172 2656 
L 3206 2656 
L 3206 2188 
L 1172 2188 
L 1172 63 
L 609 63 
L 609 4634 
L 3469 4634 
L 3469 4141 
z
" transform="scale(0.015625)"/>
      <path id="IPAexGothic-29" d="M 466 4909 
Q 1638 3672 1638 1875 
Q 1638 75 466 -1166 
L 191 -1016 
Q 1119 216 1119 1881 
Q 1119 3509 191 4763 
L 466 4909 
z
" transform="scale(0.015625)"/>
     </defs>
     <use xlink:href="#IPAexGothic-504f"/>
     <use xlink:href="#IPAexGothic-81ea" transform="translate(100 0)"/>
     <use xlink:href="#IPAexGothic-5df1" transform="translate(200 0)"/>
     <use xlink:href="#IPAexGothic-76f8" transform="translate(300 0)"/>
     <use xlink:href="#IPAexGothic-95a2" transform="translate(400 0)"/>
     <use xlink:href="#IPAexGothic-95a2" transform="translate(500 0)"/>
     <use xlink:href="#IPAexGothic-6570" transform="translate(600 0)"/>
     <use xlink:href="#IPAexGothic-20" transform="translate(700 0)"/>
     <use xlink:href="#IPAexGothic-28" transform="translate(727.001953 0)"/>
     <use xlink:href="#IPAexGothic-50" transform="translate(760.302734 0)"/>
     <use xlink:href="#IPAexGothic-41" transform="translate(822.412109 0)"/>
     <use xlink:href="#IPAexGothic-43" transform="translate(886.132812 0)"/>
     <use xlink:href="#IPAexGothic-46" transform="translate(958.642578 0)"/>
     <use xlink:href="#IPAexGothic-29" transform="translate(1015.820312 0)"/>
    </g>
   </g>
  </g>
 </g>
 <defs>
  <clipPath id="p06a8b4c1b1">
   <rect x="64.55" y="30.8625" width="428.65" height="211.5775"/>
  </clipPath>
 </defs>
</svg>
