<?xml version="1.0" encoding="utf-8" standalone="no"?>
<!DOCTYPE svg PUBLIC "-//W3C//DTD SVG 1.1//EN"
  "http://www.w3.org/Graphics/SVG/1.1/DTD/svg11.dtd">
<svg xmlns:xlink="http://www.w3.org/1999/xlink" width="504pt" height="288pt" viewBox="0 0 504 288" xmlns="http://www.w3.org/2000/svg" version="1.1">
 <metadata>
  <rdf:RDF xmlns:dc="http://purl.org/dc/elements/1.1/" xmlns:cc="http://creativecommons.org/ns#" xmlns:rdf="http://www.w3.org/1999/02/22-rdf-syntax-ns#">
   <cc:Work>
    <dc:type rdf:resource="http://purl.org/dc/dcmitype/StillImage"/>
    <dc:date>2025-10-27T10:38:09.550054</dc:date>
    <dc:format>image/svg+xml</dc:format>
    <dc:creator>
     <cc:Agent>
      <dc:title>Matplotlib v3.10.7, https://matplotlib.org/</dc:title>
     </cc:Agent>
    </dc:creator>
   </cc:Work>
  </rdf:RDF>
 </metadata>
 <defs>
  <style type="text/css">*{stroke-linejoin: round; stroke-linecap: butt}</style>
 </defs>
 <g id="figure_1">
  <g id="patch_1">
   <path d="M 0 288 
L 504 288 
L 504 0 
L 0 0 
z
" style="fill: #ffffff"/>
  </g>
  <g id="axes_1">
   <g id="patch_2">
    <path d="M 49.25 242.44 
L 493.2 242.44 
L 493.2 30.48 
L 49.25 30.48 
z
" style="fill: #ffffff"/>
   </g>
   <g id="patch_3">
    <path d="M 0 0 
z
" clip-path="url(#p245c476b2a)" style="fill: #cbd5f5"/>
   </g>
   <g id="patch_4">
    <path d="M 69.429545 135.498071 
L 71.462749 135.498071 
L 71.462749 126.993145 
L 69.429545 126.993145 
z
" clip-path="url(#p245c476b2a)" style="fill: #cbd5f5"/>
   </g>
   <g id="patch_5">
    <path d="M 71.97105 135.498071 
L 74.004253 135.498071 
L 74.004253 143.260703 
L 71.97105 143.260703 
z
" clip-path="url(#p245c476b2a)" style="fill: #cbd5f5"/>
   </g>
   <g id="patch_6">
    <path d="M 74.512554 135.498071 
L 76.545758 135.498071 
L 76.545758 160.840922 
L 74.512554 160.840922 
z
" clip-path="url(#p245c476b2a)" style="fill: #cbd5f5"/>
   </g>
   <g id="patch_7">
    <path d="M 77.054059 135.498071 
L 79.087262 135.498071 
L 79.087262 148.646957 
L 77.054059 148.646957 
z
" clip-path="url(#p245c476b2a)" style="fill: #cbd5f5"/>
   </g>
   <g id="patch_8">
    <path d="M 79.595563 135.498071 
L 81.628767 135.498071 
L 81.628767 164.416481 
L 79.595563 164.416481 
z
" clip-path="url(#p245c476b2a)" style="fill: #cbd5f5"/>
   </g>
   <g id="patch_9">
    <path d="M 82.137068 135.498071 
L 84.170271 135.498071 
L 84.170271 133.711497 
L 82.137068 133.711497 
z
" clip-path="url(#p245c476b2a)" style="fill: #cbd5f5"/>
   </g>
   <g id="patch_10">
    <path d="M 84.678572 135.498071 
L 86.711776 135.498071 
L 86.711776 95.731711 
L 84.678572 95.731711 
z
" clip-path="url(#p245c476b2a)" style="fill: #cbd5f5"/>
   </g>
   <g id="patch_11">
    <path d="M 87.220077 135.498071 
L 89.25328 135.498071 
L 89.25328 149.744446 
L 87.220077 149.744446 
z
" clip-path="url(#p245c476b2a)" style="fill: #cbd5f5"/>
   </g>
   <g id="patch_12">
    <path d="M 89.761581 135.498071 
L 91.794785 135.498071 
L 91.794785 153.620266 
L 89.761581 153.620266 
z
" clip-path="url(#p245c476b2a)" style="fill: #cbd5f5"/>
   </g>
   <g id="patch_13">
    <path d="M 92.303086 135.498071 
L 94.336289 135.498071 
L 94.336289 121.02544 
L 92.303086 121.02544 
z
" clip-path="url(#p245c476b2a)" style="fill: #cbd5f5"/>
   </g>
   <g id="patch_14">
    <path d="M 94.84459 135.498071 
L 96.877794 135.498071 
L 96.877794 125.049275 
L 94.84459 125.049275 
z
" clip-path="url(#p245c476b2a)" style="fill: #cbd5f5"/>
   </g>
   <g id="patch_15">
    <path d="M 97.386095 135.498071 
L 99.419298 135.498071 
L 99.419298 132.43205 
L 97.386095 132.43205 
z
" clip-path="url(#p245c476b2a)" style="fill: #cbd5f5"/>
   </g>
   <g id="patch_16">
    <path d="M 99.927599 135.498071 
L 101.960803 135.498071 
L 101.960803 162.508796 
L 99.927599 162.508796 
z
" clip-path="url(#p245c476b2a)" style="fill: #cbd5f5"/>
   </g>
   <g id="patch_17">
    <path d="M 102.469104 135.498071 
L 104.502307 135.498071 
L 104.502307 136.361981 
L 102.469104 136.361981 
z
" clip-path="url(#p245c476b2a)" style="fill: #cbd5f5"/>
   </g>
   <g id="patch_18">
    <path d="M 105.010608 135.498071 
L 107.043812 135.498071 
L 107.043812 114.952079 
L 105.010608 114.952079 
z
" clip-path="url(#p245c476b2a)" style="fill: #cbd5f5"/>
   </g>
   <g id="patch_19">
    <path d="M 107.552112 135.498071 
L 109.585316 135.498071 
L 109.585316 174.709816 
L 107.552112 174.709816 
z
" clip-path="url(#p245c476b2a)" style="fill: #cbd5f5"/>
   </g>
   <g id="patch_20">
    <path d="M 110.093617 135.498071 
L 112.12682 135.498071 
L 112.12682 149.186426 
L 110.093617 149.186426 
z
" clip-path="url(#p245c476b2a)" style="fill: #cbd5f5"/>
   </g>
   <g id="patch_21">
    <path d="M 112.635121 135.498071 
L 114.668325 135.498071 
L 114.668325 192.86456 
L 112.635121 192.86456 
z
" clip-path="url(#p245c476b2a)" style="fill: #cbd5f5"/>
   </g>
   <g id="patch_22">
    <path d="M 115.176626 135.498071 
L 117.209829 135.498071 
L 117.209829 175.872289 
L 115.176626 175.872289 
z
" clip-path="url(#p245c476b2a)" style="fill: #cbd5f5"/>
   </g>
   <g id="patch_23">
    <path d="M 117.71813 135.498071 
L 119.751334 135.498071 
L 119.751334 194.671584 
L 117.71813 194.671584 
z
" clip-path="url(#p245c476b2a)" style="fill: #cbd5f5"/>
   </g>
   <g id="patch_24">
    <path d="M 120.259635 135.498071 
L 122.292838 135.498071 
L 122.292838 143.34494 
L 120.259635 143.34494 
z
" clip-path="url(#p245c476b2a)" style="fill: #cbd5f5"/>
   </g>
   <g id="patch_25">
    <path d="M 122.801139 135.498071 
L 124.834343 135.498071 
L 124.834343 178.013816 
L 122.801139 178.013816 
z
" clip-path="url(#p245c476b2a)" style="fill: #cbd5f5"/>
   </g>
   <g id="patch_26">
    <path d="M 125.342644 135.498071 
L 127.375847 135.498071 
L 127.375847 126.147311 
L 125.342644 126.147311 
z
" clip-path="url(#p245c476b2a)" style="fill: #cbd5f5"/>
   </g>
   <g id="patch_27">
    <path d="M 127.884148 135.498071 
L 129.917352 135.498071 
L 129.917352 130.126458 
L 127.884148 130.126458 
z
" clip-path="url(#p245c476b2a)" style="fill: #cbd5f5"/>
   </g>
   <g id="patch_28">
    <path d="M 130.425653 135.498071 
L 132.458856 135.498071 
L 132.458856 141.882218 
L 130.425653 141.882218 
z
" clip-path="url(#p245c476b2a)" style="fill: #cbd5f5"/>
   </g>
   <g id="patch_29">
    <path d="M 132.967157 135.498071 
L 135.000361 135.498071 
L 135.000361 221.799892 
L 132.967157 221.799892 
z
" clip-path="url(#p245c476b2a)" style="fill: #cbd5f5"/>
   </g>
   <g id="patch_30">
    <path d="M 135.508662 135.498071 
L 137.541865 135.498071 
L 137.541865 155.036415 
L 135.508662 155.036415 
z
" clip-path="url(#p245c476b2a)" style="fill: #cbd5f5"/>
   </g>
   <g id="patch_31">
    <path d="M 138.050166 135.498071 
L 140.08337 135.498071 
L 140.08337 137.279199 
L 138.050166 137.279199 
z
" clip-path="url(#p245c476b2a)" style="fill: #cbd5f5"/>
   </g>
   <g id="patch_32">
    <path d="M 140.59167 135.498071 
L 142.624874 135.498071 
L 142.624874 131.332269 
L 140.59167 131.332269 
z
" clip-path="url(#p245c476b2a)" style="fill: #cbd5f5"/>
   </g>
   <g id="patch_33">
    <path d="M 143.133175 135.498071 
L 145.166379 135.498071 
L 145.166379 191.605687 
L 143.133175 191.605687 
z
" clip-path="url(#p245c476b2a)" style="fill: #cbd5f5"/>
   </g>
   <g id="patch_34">
    <path d="M 145.674679 135.498071 
L 147.707883 135.498071 
L 147.707883 153.660829 
L 145.674679 153.660829 
z
" clip-path="url(#p245c476b2a)" style="fill: #cbd5f5"/>
   </g>
   <g id="patch_35">
    <path d="M 148.216184 135.498071 
L 150.249387 135.498071 
L 150.249387 173.130609 
L 148.216184 173.130609 
z
" clip-path="url(#p245c476b2a)" style="fill: #cbd5f5"/>
   </g>
   <g id="patch_36">
    <path d="M 150.757688 135.498071 
L 152.790892 135.498071 
L 152.790892 167.363049 
L 150.757688 167.363049 
z
" clip-path="url(#p245c476b2a)" style="fill: #cbd5f5"/>
   </g>
   <g id="patch_37">
    <path d="M 153.299193 135.498071 
L 155.332396 135.498071 
L 155.332396 92.843519 
L 153.299193 92.843519 
z
" clip-path="url(#p245c476b2a)" style="fill: #cbd5f5"/>
   </g>
   <g id="patch_38">
    <path d="M 155.840697 135.498071 
L 157.873901 135.498071 
L 157.873901 167.113239 
L 155.840697 167.113239 
z
" clip-path="url(#p245c476b2a)" style="fill: #cbd5f5"/>
   </g>
   <g id="patch_39">
    <path d="M 158.382202 135.498071 
L 160.415405 135.498071 
L 160.415405 136.797273 
L 158.382202 136.797273 
z
" clip-path="url(#p245c476b2a)" style="fill: #cbd5f5"/>
   </g>
   <g id="patch_40">
    <path d="M 160.923706 135.498071 
L 162.95691 135.498071 
L 162.95691 100.138745 
L 160.923706 100.138745 
z
" clip-path="url(#p245c476b2a)" style="fill: #cbd5f5"/>
   </g>
   <g id="patch_41">
    <path d="M 163.465211 135.498071 
L 165.498414 135.498071 
L 165.498414 158.321116 
L 163.465211 158.321116 
z
" clip-path="url(#p245c476b2a)" style="fill: #cbd5f5"/>
   </g>
   <g id="patch_42">
    <path d="M 166.006715 135.498071 
L 168.039919 135.498071 
L 168.039919 139.930393 
L 166.006715 139.930393 
z
" clip-path="url(#p245c476b2a)" style="fill: #cbd5f5"/>
   </g>
   <g id="patch_43">
    <path d="M 168.54822 135.498071 
L 170.581423 135.498071 
L 170.581423 131.102547 
L 168.54822 131.102547 
z
" clip-path="url(#p245c476b2a)" style="fill: #cbd5f5"/>
   </g>
   <g id="patch_44">
    <path d="M 171.089724 135.498071 
L 173.122928 135.498071 
L 173.122928 132.967138 
L 171.089724 132.967138 
z
" clip-path="url(#p245c476b2a)" style="fill: #cbd5f5"/>
   </g>
   <g id="patch_45">
    <path d="M 173.631229 135.498071 
L 175.664432 135.498071 
L 175.664432 184.032004 
L 173.631229 184.032004 
z
" clip-path="url(#p245c476b2a)" style="fill: #cbd5f5"/>
   </g>
   <g id="patch_46">
    <path d="M 176.172733 135.498071 
L 178.205937 135.498071 
L 178.205937 132.386073 
L 176.172733 132.386073 
z
" clip-path="url(#p245c476b2a)" style="fill: #cbd5f5"/>
   </g>
   <g id="patch_47">
    <path d="M 178.714237 135.498071 
L 180.747441 135.498071 
L 180.747441 80.069402 
L 178.714237 80.069402 
z
" clip-path="url(#p245c476b2a)" style="fill: #cbd5f5"/>
   </g>
   <g id="patch_48">
    <path d="M 181.255742 135.498071 
L 183.288946 135.498071 
L 183.288946 196.47184 
L 181.255742 196.47184 
z
" clip-path="url(#p245c476b2a)" style="fill: #cbd5f5"/>
   </g>
   <g id="patch_49">
    <path d="M 183.797246 135.498071 
L 185.83045 135.498071 
L 185.83045 100.271326 
L 183.797246 100.271326 
z
" clip-path="url(#p245c476b2a)" style="fill: #cbd5f5"/>
   </g>
   <g id="patch_50">
    <path d="M 186.338751 135.498071 
L 188.371954 135.498071 
L 188.371954 130.712251 
L 186.338751 130.712251 
z
" clip-path="url(#p245c476b2a)" style="fill: #cbd5f5"/>
   </g>
   <g id="patch_51">
    <path d="M 188.880255 135.498071 
L 190.913459 135.498071 
L 190.913459 161.141953 
L 188.880255 161.141953 
z
" clip-path="url(#p245c476b2a)" style="fill: #cbd5f5"/>
   </g>
   <g id="patch_52">
    <path d="M 191.42176 135.498071 
L 193.454963 135.498071 
L 193.454963 54.210012 
L 191.42176 54.210012 
z
" clip-path="url(#p245c476b2a)" style="fill: #cbd5f5"/>
   </g>
   <g id="patch_53">
    <path d="M 193.963264 135.498071 
L 195.996468 135.498071 
L 195.996468 106.037349 
L 193.963264 106.037349 
z
" clip-path="url(#p245c476b2a)" style="fill: #cbd5f5"/>
   </g>
   <g id="patch_54">
    <path d="M 196.504769 135.498071 
L 198.537972 135.498071 
L 198.537972 181.002027 
L 196.504769 181.002027 
z
" clip-path="url(#p245c476b2a)" style="fill: #cbd5f5"/>
   </g>
   <g id="patch_55">
    <path d="M 199.046273 135.498071 
L 201.079477 135.498071 
L 201.079477 132.58699 
L 199.046273 132.58699 
z
" clip-path="url(#p245c476b2a)" style="fill: #cbd5f5"/>
   </g>
   <g id="patch_56">
    <path d="M 201.587778 135.498071 
L 203.620981 135.498071 
L 203.620981 113.010277 
L 201.587778 113.010277 
z
" clip-path="url(#p245c476b2a)" style="fill: #cbd5f5"/>
   </g>
   <g id="patch_57">
    <path d="M 204.129282 135.498071 
L 206.162486 135.498071 
L 206.162486 142.75636 
L 204.129282 142.75636 
z
" clip-path="url(#p245c476b2a)" style="fill: #cbd5f5"/>
   </g>
   <g id="patch_58">
    <path d="M 206.670787 135.498071 
L 208.70399 135.498071 
L 208.70399 109.120509 
L 206.670787 109.120509 
z
" clip-path="url(#p245c476b2a)" style="fill: #cbd5f5"/>
   </g>
   <g id="patch_59">
    <path d="M 209.212291 135.498071 
L 211.245495 135.498071 
L 211.245495 138.025172 
L 209.212291 138.025172 
z
" clip-path="url(#p245c476b2a)" style="fill: #cbd5f5"/>
   </g>
   <g id="patch_60">
    <path d="M 211.753796 135.498071 
L 213.786999 135.498071 
L 213.786999 110.107686 
L 211.753796 110.107686 
z
" clip-path="url(#p245c476b2a)" style="fill: #cbd5f5"/>
   </g>
   <g id="patch_61">
    <path d="M 214.2953 135.498071 
L 216.328504 135.498071 
L 216.328504 81.623663 
L 214.2953 81.623663 
z
" clip-path="url(#p245c476b2a)" style="fill: #cbd5f5"/>
   </g>
   <g id="patch_62">
    <path d="M 216.836804 135.498071 
L 218.870008 135.498071 
L 218.870008 159.968901 
L 216.836804 159.968901 
z
" clip-path="url(#p245c476b2a)" style="fill: #cbd5f5"/>
   </g>
   <g id="patch_63">
    <path d="M 219.378309 135.498071 
L 221.411512 135.498071 
L 221.411512 128.02527 
L 219.378309 128.02527 
z
" clip-path="url(#p245c476b2a)" style="fill: #cbd5f5"/>
   </g>
   <g id="patch_64">
    <path d="M 221.919813 135.498071 
L 223.953017 135.498071 
L 223.953017 152.461483 
L 221.919813 152.461483 
z
" clip-path="url(#p245c476b2a)" style="fill: #cbd5f5"/>
   </g>
   <g id="patch_65">
    <path d="M 224.461318 135.498071 
L 226.494521 135.498071 
L 226.494521 130.787782 
L 224.461318 130.787782 
z
" clip-path="url(#p245c476b2a)" style="fill: #cbd5f5"/>
   </g>
   <g id="patch_66">
    <path d="M 227.002822 135.498071 
L 229.036026 135.498071 
L 229.036026 179.306463 
L 227.002822 179.306463 
z
" clip-path="url(#p245c476b2a)" style="fill: #cbd5f5"/>
   </g>
   <g id="patch_67">
    <path d="M 229.544327 135.498071 
L 231.57753 135.498071 
L 231.57753 157.483708 
L 229.544327 157.483708 
z
" clip-path="url(#p245c476b2a)" style="fill: #cbd5f5"/>
   </g>
   <g id="patch_68">
    <path d="M 232.085831 135.498071 
L 234.119035 135.498071 
L 234.119035 143.049058 
L 232.085831 143.049058 
z
" clip-path="url(#p245c476b2a)" style="fill: #cbd5f5"/>
   </g>
   <g id="patch_69">
    <path d="M 234.627336 135.498071 
L 236.660539 135.498071 
L 236.660539 100.741447 
L 234.627336 100.741447 
z
" clip-path="url(#p245c476b2a)" style="fill: #cbd5f5"/>
   </g>
   <g id="patch_70">
    <path d="M 237.16884 135.498071 
L 239.202044 135.498071 
L 239.202044 92.162817 
L 237.16884 92.162817 
z
" clip-path="url(#p245c476b2a)" style="fill: #cbd5f5"/>
   </g>
   <g id="patch_71">
    <path d="M 239.710345 135.498071 
L 241.743548 135.498071 
L 241.743548 184.24481 
L 239.710345 184.24481 
z
" clip-path="url(#p245c476b2a)" style="fill: #cbd5f5"/>
   </g>
   <g id="patch_72">
    <path d="M 242.251849 135.498071 
L 244.285053 135.498071 
L 244.285053 165.696197 
L 242.251849 165.696197 
z
" clip-path="url(#p245c476b2a)" style="fill: #cbd5f5"/>
   </g>
   <g id="patch_73">
    <path d="M 244.793354 135.498071 
L 246.826557 135.498071 
L 246.826557 110.435831 
L 244.793354 110.435831 
z
" clip-path="url(#p245c476b2a)" style="fill: #cbd5f5"/>
   </g>
   <g id="patch_74">
    <path d="M 247.334858 135.498071 
L 249.368062 135.498071 
L 249.368062 211.484056 
L 247.334858 211.484056 
z
" clip-path="url(#p245c476b2a)" style="fill: #cbd5f5"/>
   </g>
   <g id="patch_75">
    <path d="M 249.876362 135.498071 
L 251.909566 135.498071 
L 251.909566 154.053691 
L 249.876362 154.053691 
z
" clip-path="url(#p245c476b2a)" style="fill: #cbd5f5"/>
   </g>
   <g id="patch_76">
    <path d="M 252.417867 135.498071 
L 254.451071 135.498071 
L 254.451071 139.441871 
L 252.417867 139.441871 
z
" clip-path="url(#p245c476b2a)" style="fill: #cbd5f5"/>
   </g>
   <g id="patch_77">
    <path d="M 254.959371 135.498071 
L 256.992575 135.498071 
L 256.992575 84.414043 
L 254.959371 84.414043 
z
" clip-path="url(#p245c476b2a)" style="fill: #cbd5f5"/>
   </g>
   <g id="patch_78">
    <path d="M 257.500876 135.498071 
L 259.534079 135.498071 
L 259.534079 108.35786 
L 257.500876 108.35786 
z
" clip-path="url(#p245c476b2a)" style="fill: #cbd5f5"/>
   </g>
   <g id="patch_79">
    <path d="M 260.04238 135.498071 
L 262.075584 135.498071 
L 262.075584 148.16238 
L 260.04238 148.16238 
z
" clip-path="url(#p245c476b2a)" style="fill: #cbd5f5"/>
   </g>
   <g id="patch_80">
    <path d="M 262.583885 135.498071 
L 264.617088 135.498071 
L 264.617088 149.878398 
L 262.583885 149.878398 
z
" clip-path="url(#p245c476b2a)" style="fill: #cbd5f5"/>
   </g>
   <g id="patch_81">
    <path d="M 265.125389 135.498071 
L 267.158593 135.498071 
L 267.158593 145.349241 
L 265.125389 145.349241 
z
" clip-path="url(#p245c476b2a)" style="fill: #cbd5f5"/>
   </g>
   <g id="patch_82">
    <path d="M 267.666894 135.498071 
L 269.700097 135.498071 
L 269.700097 75.134794 
L 267.666894 75.134794 
z
" clip-path="url(#p245c476b2a)" style="fill: #cbd5f5"/>
   </g>
   <g id="patch_83">
    <path d="M 270.208398 135.498071 
L 272.241602 135.498071 
L 272.241602 151.833277 
L 270.208398 151.833277 
z
" clip-path="url(#p245c476b2a)" style="fill: #cbd5f5"/>
   </g>
   <g id="patch_84">
    <path d="M 272.749903 135.498071 
L 274.783106 135.498071 
L 274.783106 147.208721 
L 272.749903 147.208721 
z
" clip-path="url(#p245c476b2a)" style="fill: #cbd5f5"/>
   </g>
   <g id="patch_85">
    <path d="M 275.291407 135.498071 
L 277.324611 135.498071 
L 277.324611 121.799961 
L 275.291407 121.799961 
z
" clip-path="url(#p245c476b2a)" style="fill: #cbd5f5"/>
   </g>
   <g id="patch_86">
    <path d="M 277.832912 135.498071 
L 279.866115 135.498071 
L 279.866115 140.149725 
L 277.832912 140.149725 
z
" clip-path="url(#p245c476b2a)" style="fill: #cbd5f5"/>
   </g>
   <g id="patch_87">
    <path d="M 280.374416 135.498071 
L 282.40762 135.498071 
L 282.40762 143.119181 
L 280.374416 143.119181 
z
" clip-path="url(#p245c476b2a)" style="fill: #cbd5f5"/>
   </g>
   <g id="patch_88">
    <path d="M 282.915921 135.498071 
L 284.949124 135.498071 
L 284.949124 178.742975 
L 282.915921 178.742975 
z
" clip-path="url(#p245c476b2a)" style="fill: #cbd5f5"/>
   </g>
   <g id="patch_89">
    <path d="M 285.457425 135.498071 
L 287.490629 135.498071 
L 287.490629 135.957873 
L 285.457425 135.957873 
z
" clip-path="url(#p245c476b2a)" style="fill: #cbd5f5"/>
   </g>
   <g id="patch_90">
    <path d="M 287.998929 135.498071 
L 290.032133 135.498071 
L 290.032133 153.205797 
L 287.998929 153.205797 
z
" clip-path="url(#p245c476b2a)" style="fill: #cbd5f5"/>
   </g>
   <g id="patch_91">
    <path d="M 290.540434 135.498071 
L 292.573638 135.498071 
L 292.573638 88.419259 
L 290.540434 88.419259 
z
" clip-path="url(#p245c476b2a)" style="fill: #cbd5f5"/>
   </g>
   <g id="patch_92">
    <path d="M 293.081938 135.498071 
L 295.115142 135.498071 
L 295.115142 109.893773 
L 293.081938 109.893773 
z
" clip-path="url(#p245c476b2a)" style="fill: #cbd5f5"/>
   </g>
   <g id="patch_93">
    <path d="M 295.623443 135.498071 
L 297.656646 135.498071 
L 297.656646 136.429541 
L 295.623443 136.429541 
z
" clip-path="url(#p245c476b2a)" style="fill: #cbd5f5"/>
   </g>
   <g id="patch_94">
    <path d="M 298.164947 135.498071 
L 300.198151 135.498071 
L 300.198151 109.696478 
L 298.164947 109.696478 
z
" clip-path="url(#p245c476b2a)" style="fill: #cbd5f5"/>
   </g>
   <g id="patch_95">
    <path d="M 300.706452 135.498071 
L 302.739655 135.498071 
L 302.739655 148.407501 
L 300.706452 148.407501 
z
" clip-path="url(#p245c476b2a)" style="fill: #cbd5f5"/>
   </g>
   <g id="patch_96">
    <path d="M 303.247956 135.498071 
L 305.28116 135.498071 
L 305.28116 95.205775 
L 303.247956 95.205775 
z
" clip-path="url(#p245c476b2a)" style="fill: #cbd5f5"/>
   </g>
   <g id="patch_97">
    <path d="M 305.789461 135.498071 
L 307.822664 135.498071 
L 307.822664 135.699716 
L 305.789461 135.699716 
z
" clip-path="url(#p245c476b2a)" style="fill: #cbd5f5"/>
   </g>
   <g id="patch_98">
    <path d="M 308.330965 135.498071 
L 310.364169 135.498071 
L 310.364169 113.709053 
L 308.330965 113.709053 
z
" clip-path="url(#p245c476b2a)" style="fill: #cbd5f5"/>
   </g>
   <g id="patch_99">
    <path d="M 310.87247 135.498071 
L 312.905673 135.498071 
L 312.905673 183.057056 
L 310.87247 183.057056 
z
" clip-path="url(#p245c476b2a)" style="fill: #cbd5f5"/>
   </g>
   <g id="patch_100">
    <path d="M 313.413974 135.498071 
L 315.447178 135.498071 
L 315.447178 122.329747 
L 313.413974 122.329747 
z
" clip-path="url(#p245c476b2a)" style="fill: #cbd5f5"/>
   </g>
   <g id="patch_101">
    <path d="M 315.955479 135.498071 
L 317.988682 135.498071 
L 317.988682 199.093475 
L 315.955479 199.093475 
z
" clip-path="url(#p245c476b2a)" style="fill: #cbd5f5"/>
   </g>
   <g id="patch_102">
    <path d="M 318.496983 135.498071 
L 320.530187 135.498071 
L 320.530187 215.381841 
L 318.496983 215.381841 
z
" clip-path="url(#p245c476b2a)" style="fill: #cbd5f5"/>
   </g>
   <g id="patch_103">
    <path d="M 321.038488 135.498071 
L 323.071691 135.498071 
L 323.071691 148.084036 
L 321.038488 148.084036 
z
" clip-path="url(#p245c476b2a)" style="fill: #cbd5f5"/>
   </g>
   <g id="patch_104">
    <path d="M 323.579992 135.498071 
L 325.613196 135.498071 
L 325.613196 172.996195 
L 323.579992 172.996195 
z
" clip-path="url(#p245c476b2a)" style="fill: #cbd5f5"/>
   </g>
   <g id="patch_105">
    <path d="M 326.121496 135.498071 
L 328.1547 135.498071 
L 328.1547 128.496329 
L 326.121496 128.496329 
z
" clip-path="url(#p245c476b2a)" style="fill: #cbd5f5"/>
   </g>
   <g id="patch_106">
    <path d="M 328.663001 135.498071 
L 330.696204 135.498071 
L 330.696204 40.114545 
L 328.663001 40.114545 
z
" clip-path="url(#p245c476b2a)" style="fill: #cbd5f5"/>
   </g>
   <g id="patch_107">
    <path d="M 331.204505 135.498071 
L 333.237709 135.498071 
L 333.237709 168.829299 
L 331.204505 168.829299 
z
" clip-path="url(#p245c476b2a)" style="fill: #cbd5f5"/>
   </g>
   <g id="patch_108">
    <path d="M 333.74601 135.498071 
L 335.779213 135.498071 
L 335.779213 161.040837 
L 333.74601 161.040837 
z
" clip-path="url(#p245c476b2a)" style="fill: #cbd5f5"/>
   </g>
   <g id="patch_109">
    <path d="M 336.287514 135.498071 
L 338.320718 135.498071 
L 338.320718 126.951295 
L 336.287514 126.951295 
z
" clip-path="url(#p245c476b2a)" style="fill: #cbd5f5"/>
   </g>
   <g id="patch_110">
    <path d="M 338.829019 135.498071 
L 340.862222 135.498071 
L 340.862222 115.094242 
L 338.829019 115.094242 
z
" clip-path="url(#p245c476b2a)" style="fill: #cbd5f5"/>
   </g>
   <g id="patch_111">
    <path d="M 341.370523 135.498071 
L 343.403727 135.498071 
L 343.403727 142.705822 
L 341.370523 142.705822 
z
" clip-path="url(#p245c476b2a)" style="fill: #cbd5f5"/>
   </g>
   <g id="patch_112">
    <path d="M 343.912028 135.498071 
L 345.945231 135.498071 
L 345.945231 143.95067 
L 343.912028 143.95067 
z
" clip-path="url(#p245c476b2a)" style="fill: #cbd5f5"/>
   </g>
   <g id="patch_113">
    <path d="M 346.453532 135.498071 
L 348.486736 135.498071 
L 348.486736 106.509918 
L 346.453532 106.509918 
z
" clip-path="url(#p245c476b2a)" style="fill: #cbd5f5"/>
   </g>
   <g id="patch_114">
    <path d="M 348.995037 135.498071 
L 351.02824 135.498071 
L 351.02824 114.429472 
L 348.995037 114.429472 
z
" clip-path="url(#p245c476b2a)" style="fill: #cbd5f5"/>
   </g>
   <g id="patch_115">
    <path d="M 351.536541 135.498071 
L 353.569745 135.498071 
L 353.569745 176.835824 
L 351.536541 176.835824 
z
" clip-path="url(#p245c476b2a)" style="fill: #cbd5f5"/>
   </g>
   <g id="patch_116">
    <path d="M 354.078046 135.498071 
L 356.111249 135.498071 
L 356.111249 138.749595 
L 354.078046 138.749595 
z
" clip-path="url(#p245c476b2a)" style="fill: #cbd5f5"/>
   </g>
   <g id="patch_117">
    <path d="M 356.61955 135.498071 
L 358.652754 135.498071 
L 358.652754 134.046057 
L 356.61955 134.046057 
z
" clip-path="url(#p245c476b2a)" style="fill: #cbd5f5"/>
   </g>
   <g id="patch_118">
    <path d="M 359.161054 135.498071 
L 361.194258 135.498071 
L 361.194258 178.849129 
L 359.161054 178.849129 
z
" clip-path="url(#p245c476b2a)" style="fill: #cbd5f5"/>
   </g>
   <g id="patch_119">
    <path d="M 361.702559 135.498071 
L 363.735763 135.498071 
L 363.735763 124.514749 
L 361.702559 124.514749 
z
" clip-path="url(#p245c476b2a)" style="fill: #cbd5f5"/>
   </g>
   <g id="patch_120">
    <path d="M 364.244063 135.498071 
L 366.277267 135.498071 
L 366.277267 171.513536 
L 364.244063 171.513536 
z
" clip-path="url(#p245c476b2a)" style="fill: #cbd5f5"/>
   </g>
   <g id="patch_121">
    <path d="M 366.785568 135.498071 
L 368.818771 135.498071 
L 368.818771 93.741626 
L 366.785568 93.741626 
z
" clip-path="url(#p245c476b2a)" style="fill: #cbd5f5"/>
   </g>
   <g id="patch_122">
    <path d="M 369.327072 135.498071 
L 371.360276 135.498071 
L 371.360276 127.431376 
L 369.327072 127.431376 
z
" clip-path="url(#p245c476b2a)" style="fill: #cbd5f5"/>
   </g>
   <g id="patch_123">
    <path d="M 371.868577 135.498071 
L 373.90178 135.498071 
L 373.90178 131.779431 
L 371.868577 131.779431 
z
" clip-path="url(#p245c476b2a)" style="fill: #cbd5f5"/>
   </g>
   <g id="patch_124">
    <path d="M 374.410081 135.498071 
L 376.443285 135.498071 
L 376.443285 160.05022 
L 374.410081 160.05022 
z
" clip-path="url(#p245c476b2a)" style="fill: #cbd5f5"/>
   </g>
   <g id="patch_125">
    <path d="M 376.951586 135.498071 
L 378.984789 135.498071 
L 378.984789 140.502982 
L 376.951586 140.502982 
z
" clip-path="url(#p245c476b2a)" style="fill: #cbd5f5"/>
   </g>
   <g id="patch_126">
    <path d="M 379.49309 135.498071 
L 381.526294 135.498071 
L 381.526294 220.063438 
L 379.49309 220.063438 
z
" clip-path="url(#p245c476b2a)" style="fill: #cbd5f5"/>
   </g>
   <g id="patch_127">
    <path d="M 382.034595 135.498071 
L 384.067798 135.498071 
L 384.067798 186.096323 
L 382.034595 186.096323 
z
" clip-path="url(#p245c476b2a)" style="fill: #cbd5f5"/>
   </g>
   <g id="patch_128">
    <path d="M 384.576099 135.498071 
L 386.609303 135.498071 
L 386.609303 118.735059 
L 384.576099 118.735059 
z
" clip-path="url(#p245c476b2a)" style="fill: #cbd5f5"/>
   </g>
   <g id="patch_129">
    <path d="M 387.117604 135.498071 
L 389.150807 135.498071 
L 389.150807 232.805455 
L 387.117604 232.805455 
z
" clip-path="url(#p245c476b2a)" style="fill: #cbd5f5"/>
   </g>
   <g id="patch_130">
    <path d="M 389.659108 135.498071 
L 391.692312 135.498071 
L 391.692312 94.258171 
L 389.659108 94.258171 
z
" clip-path="url(#p245c476b2a)" style="fill: #cbd5f5"/>
   </g>
   <g id="patch_131">
    <path d="M 392.200613 135.498071 
L 394.233816 135.498071 
L 394.233816 218.392324 
L 392.200613 218.392324 
z
" clip-path="url(#p245c476b2a)" style="fill: #cbd5f5"/>
   </g>
   <g id="patch_132">
    <path d="M 394.742117 135.498071 
L 396.775321 135.498071 
L 396.775321 97.585627 
L 394.742117 97.585627 
z
" clip-path="url(#p245c476b2a)" style="fill: #cbd5f5"/>
   </g>
   <g id="patch_133">
    <path d="M 397.283621 135.498071 
L 399.316825 135.498071 
L 399.316825 176.865699 
L 397.283621 176.865699 
z
" clip-path="url(#p245c476b2a)" style="fill: #cbd5f5"/>
   </g>
   <g id="patch_134">
    <path d="M 399.825126 135.498071 
L 401.85833 135.498071 
L 401.85833 96.360743 
L 399.825126 96.360743 
z
" clip-path="url(#p245c476b2a)" style="fill: #cbd5f5"/>
   </g>
   <g id="patch_135">
    <path d="M 402.36663 135.498071 
L 404.399834 135.498071 
L 404.399834 129.077813 
L 402.36663 129.077813 
z
" clip-path="url(#p245c476b2a)" style="fill: #cbd5f5"/>
   </g>
   <g id="patch_136">
    <path d="M 404.908135 135.498071 
L 406.941338 135.498071 
L 406.941338 210.54118 
L 404.908135 210.54118 
z
" clip-path="url(#p245c476b2a)" style="fill: #cbd5f5"/>
   </g>
   <g id="patch_137">
    <path d="M 407.449639 135.498071 
L 409.482843 135.498071 
L 409.482843 71.4644 
L 407.449639 71.4644 
z
" clip-path="url(#p245c476b2a)" style="fill: #cbd5f5"/>
   </g>
   <g id="patch_138">
    <path d="M 409.991144 135.498071 
L 412.024347 135.498071 
L 412.024347 64.46916 
L 409.991144 64.46916 
z
" clip-path="url(#p245c476b2a)" style="fill: #cbd5f5"/>
   </g>
   <g id="patch_139">
    <path d="M 412.532648 135.498071 
L 414.565852 135.498071 
L 414.565852 138.600759 
L 412.532648 138.600759 
z
" clip-path="url(#p245c476b2a)" style="fill: #cbd5f5"/>
   </g>
   <g id="patch_140">
    <path d="M 415.074153 135.498071 
L 417.107356 135.498071 
L 417.107356 148.438553 
L 415.074153 148.438553 
z
" clip-path="url(#p245c476b2a)" style="fill: #cbd5f5"/>
   </g>
   <g id="patch_141">
    <path d="M 417.615657 135.498071 
L 419.648861 135.498071 
L 419.648861 143.112884 
L 417.615657 143.112884 
z
" clip-path="url(#p245c476b2a)" style="fill: #cbd5f5"/>
   </g>
   <g id="patch_142">
    <path d="M 420.157162 135.498071 
L 422.190365 135.498071 
L 422.190365 182.171416 
L 420.157162 182.171416 
z
" clip-path="url(#p245c476b2a)" style="fill: #cbd5f5"/>
   </g>
   <g id="patch_143">
    <path d="M 422.698666 135.498071 
L 424.73187 135.498071 
L 424.73187 81.318 
L 422.698666 81.318 
z
" clip-path="url(#p245c476b2a)" style="fill: #cbd5f5"/>
   </g>
   <g id="patch_144">
    <path d="M 425.240171 135.498071 
L 427.273374 135.498071 
L 427.273374 161.385603 
L 425.240171 161.385603 
z
" clip-path="url(#p245c476b2a)" style="fill: #cbd5f5"/>
   </g>
   <g id="patch_145">
    <path d="M 427.781675 135.498071 
L 429.814879 135.498071 
L 429.814879 137.979678 
L 427.781675 137.979678 
z
" clip-path="url(#p245c476b2a)" style="fill: #cbd5f5"/>
   </g>
   <g id="patch_146">
    <path d="M 430.32318 135.498071 
L 432.356383 135.498071 
L 432.356383 174.015906 
L 430.32318 174.015906 
z
" clip-path="url(#p245c476b2a)" style="fill: #cbd5f5"/>
   </g>
   <g id="patch_147">
    <path d="M 432.864684 135.498071 
L 434.897888 135.498071 
L 434.897888 166.655298 
L 432.864684 166.655298 
z
" clip-path="url(#p245c476b2a)" style="fill: #cbd5f5"/>
   </g>
   <g id="patch_148">
    <path d="M 435.406188 135.498071 
L 437.439392 135.498071 
L 437.439392 200.363294 
L 435.406188 200.363294 
z
" clip-path="url(#p245c476b2a)" style="fill: #cbd5f5"/>
   </g>
   <g id="patch_149">
    <path d="M 437.947693 135.498071 
L 439.980896 135.498071 
L 439.980896 68.952324 
L 437.947693 68.952324 
z
" clip-path="url(#p245c476b2a)" style="fill: #cbd5f5"/>
   </g>
   <g id="patch_150">
    <path d="M 440.489197 135.498071 
L 442.522401 135.498071 
L 442.522401 143.325698 
L 440.489197 143.325698 
z
" clip-path="url(#p245c476b2a)" style="fill: #cbd5f5"/>
   </g>
   <g id="patch_151">
    <path d="M 443.030702 135.498071 
L 445.063905 135.498071 
L 445.063905 86.185337 
L 443.030702 86.185337 
z
" clip-path="url(#p245c476b2a)" style="fill: #cbd5f5"/>
   </g>
   <g id="patch_152">
    <path d="M 445.572206 135.498071 
L 447.60541 135.498071 
L 447.60541 134.838385 
L 445.572206 134.838385 
z
" clip-path="url(#p245c476b2a)" style="fill: #cbd5f5"/>
   </g>
   <g id="patch_153">
    <path d="M 448.113711 135.498071 
L 450.146914 135.498071 
L 450.146914 169.862904 
L 448.113711 169.862904 
z
" clip-path="url(#p245c476b2a)" style="fill: #cbd5f5"/>
   </g>
   <g id="patch_154">
    <path d="M 450.655215 135.498071 
L 452.688419 135.498071 
L 452.688419 152.024232 
L 450.655215 152.024232 
z
" clip-path="url(#p245c476b2a)" style="fill: #cbd5f5"/>
   </g>
   <g id="patch_155">
    <path d="M 453.19672 135.498071 
L 455.229923 135.498071 
L 455.229923 164.13796 
L 453.19672 164.13796 
z
" clip-path="url(#p245c476b2a)" style="fill: #cbd5f5"/>
   </g>
   <g id="patch_156">
    <path d="M 455.738224 135.498071 
L 457.771428 135.498071 
L 457.771428 135.083686 
L 455.738224 135.083686 
z
" clip-path="url(#p245c476b2a)" style="fill: #cbd5f5"/>
   </g>
   <g id="patch_157">
    <path d="M 458.279729 135.498071 
L 460.312932 135.498071 
L 460.312932 155.030972 
L 458.279729 155.030972 
z
" clip-path="url(#p245c476b2a)" style="fill: #cbd5f5"/>
   </g>
   <g id="patch_158">
    <path d="M 460.821233 135.498071 
L 462.854437 135.498071 
L 462.854437 151.304411 
L 460.821233 151.304411 
z
" clip-path="url(#p245c476b2a)" style="fill: #cbd5f5"/>
   </g>
   <g id="patch_159">
    <path d="M 463.362738 135.498071 
L 465.395941 135.498071 
L 465.395941 208.884499 
L 463.362738 208.884499 
z
" clip-path="url(#p245c476b2a)" style="fill: #cbd5f5"/>
   </g>
   <g id="patch_160">
    <path d="M 465.904242 135.498071 
L 467.937446 135.498071 
L 467.937446 180.539214 
L 465.904242 180.539214 
z
" clip-path="url(#p245c476b2a)" style="fill: #cbd5f5"/>
   </g>
   <g id="patch_161">
    <path d="M 468.445747 135.498071 
L 470.47895 135.498071 
L 470.47895 40.455847 
L 468.445747 40.455847 
z
" clip-path="url(#p245c476b2a)" style="fill: #cbd5f5"/>
   </g>
   <g id="patch_162">
    <path d="M 470.987251 135.498071 
L 473.020455 135.498071 
L 473.020455 171.880879 
L 470.987251 171.880879 
z
" clip-path="url(#p245c476b2a)" style="fill: #cbd5f5"/>
   </g>
   <g id="matplotlib.axis_1">
    <g id="xtick_1">
     <g id="line2d_1">
      <defs>
       <path id="me685238910" d="M 0 0 
L 0 3.5 
" style="stroke: #000000; stroke-width: 0.8"/>
      </defs>
      <g>
       <use xlink:href="#me685238910" x="67.904643" y="242.44" style="stroke: #000000; stroke-width: 0.8"/>
      </g>
     </g>
     <g id="text_1">
      <!-- 2021-05 -->
      <g transform="translate(47.219487 256.930625) scale(0.1 -0.1)">
       <defs>
        <path id="IPAexGothic-32" d="M 3659 63 
L 447 63 
L 447 594 
Q 825 1475 1894 2203 
L 2072 2322 
Q 2619 2697 2791 2906 
Q 2988 3153 2988 3444 
Q 2988 3772 2756 4003 
Q 2500 4259 2084 4259 
Q 1250 4259 991 3328 
L 497 3506 
Q 853 4725 2116 4725 
Q 2806 4725 3216 4316 
Q 3575 3947 3575 3425 
Q 3575 3038 3344 2722 
Q 3131 2416 2366 1938 
L 2231 1856 
Q 1256 1253 978 569 
L 3659 569 
L 3659 63 
z
" transform="scale(0.015625)"/>
        <path id="IPAexGothic-30" d="M 2038 4725 
Q 2881 4725 3334 3944 
Q 3694 3325 3694 2344 
Q 3694 1372 3334 741 
Q 2888 -31 2016 -31 
Q 1147 -31 700 741 
Q 341 1372 341 2350 
Q 341 3713 1000 4334 
Q 1419 4725 2038 4725 
z
M 2016 4266 
Q 1516 4266 1228 3759 
Q 934 3247 934 2344 
Q 934 1456 1222 947 
Q 1513 447 2016 447 
Q 2619 447 2909 1153 
Q 3100 1622 3100 2375 
Q 3100 3256 2806 3759 
Q 2509 4266 2016 4266 
z
" transform="scale(0.015625)"/>
        <path id="IPAexGothic-31" d="M 2463 63 
L 1900 63 
L 1900 4103 
Q 1372 3922 788 3797 
L 684 4231 
Q 1519 4441 2106 4731 
L 2463 4731 
L 2463 63 
z
" transform="scale(0.015625)"/>
        <path id="IPAexGothic-2d" d="M 1969 1703 
L 319 1703 
L 319 2203 
L 1969 2203 
L 1969 1703 
z
" transform="scale(0.015625)"/>
        <path id="IPAexGothic-35" d="M 1178 2603 
Q 1634 2963 2172 2963 
Q 2816 2963 3241 2528 
Q 3638 2113 3638 1497 
Q 3638 938 3297 513 
Q 2869 -31 2031 -31 
Q 959 -31 469 784 
L 938 1028 
Q 1309 434 2013 434 
Q 2466 434 2769 716 
Q 3081 1013 3081 1503 
Q 3081 1966 2806 2241 
Q 2519 2528 2056 2528 
Q 1406 2528 1072 2028 
L 591 2091 
L 884 4634 
L 3406 4634 
L 3406 4153 
L 1341 4153 
L 1134 2603 
L 1178 2603 
z
" transform="scale(0.015625)"/>
       </defs>
       <use xlink:href="#IPAexGothic-32"/>
       <use xlink:href="#IPAexGothic-30" transform="translate(62.988281 0)"/>
       <use xlink:href="#IPAexGothic-32" transform="translate(125.976562 0)"/>
       <use xlink:href="#IPAexGothic-31" transform="translate(188.964844 0)"/>
       <use xlink:href="#IPAexGothic-2d" transform="translate(251.953125 0)"/>
       <use xlink:href="#IPAexGothic-30" transform="translate(287.744141 0)"/>
       <use xlink:href="#IPAexGothic-35" transform="translate(350.732422 0)"/>
      </g>
     </g>
    </g>
    <g id="xtick_2">
     <g id="line2d_2">
      <g>
       <use xlink:href="#me685238910" x="146.691281" y="242.44" style="stroke: #000000; stroke-width: 0.8"/>
      </g>
     </g>
     <g id="text_2">
      <!-- 2021-06 -->
      <g transform="translate(126.006125 256.930625) scale(0.1 -0.1)">
       <defs>
        <path id="IPAexGothic-36" d="M 1056 2328 
Q 1509 2981 2234 2981 
Q 2906 2981 3316 2513 
Q 3675 2106 3675 1522 
Q 3675 884 3272 434 
Q 2853 -31 2178 -31 
Q 1375 -31 922 581 
Q 481 1178 481 2228 
Q 481 3425 1013 4109 
Q 1494 4725 2272 4725 
Q 3191 4725 3609 4025 
L 3150 3775 
Q 2894 4266 2300 4266 
Q 1119 4266 1031 2328 
L 1056 2328 
z
M 2141 2547 
Q 1684 2547 1384 2206 
Q 1116 1900 1116 1541 
Q 1116 1156 1353 844 
Q 1672 428 2159 428 
Q 2669 428 2941 844 
Q 3125 1128 3125 1503 
Q 3125 1944 2881 2228 
Q 2600 2547 2141 2547 
z
" transform="scale(0.015625)"/>
       </defs>
       <use xlink:href="#IPAexGothic-32"/>
       <use xlink:href="#IPAexGothic-30" transform="translate(62.988281 0)"/>
       <use xlink:href="#IPAexGothic-32" transform="translate(125.976562 0)"/>
       <use xlink:href="#IPAexGothic-31" transform="translate(188.964844 0)"/>
       <use xlink:href="#IPAexGothic-2d" transform="translate(251.953125 0)"/>
       <use xlink:href="#IPAexGothic-30" transform="translate(287.744141 0)"/>
       <use xlink:href="#IPAexGothic-36" transform="translate(350.732422 0)"/>
      </g>
     </g>
    </g>
    <g id="xtick_3">
     <g id="line2d_3">
      <g>
       <use xlink:href="#me685238910" x="222.936415" y="242.44" style="stroke: #000000; stroke-width: 0.8"/>
      </g>
     </g>
     <g id="text_3">
      <!-- 2021-07 -->
      <g transform="translate(202.251259 256.930625) scale(0.1 -0.1)">
       <defs>
        <path id="IPAexGothic-37" d="M 3597 4263 
Q 2238 2106 1778 63 
L 1131 63 
Q 1581 1834 2950 4128 
L 428 4128 
L 428 4634 
L 3597 4634 
L 3597 4263 
z
" transform="scale(0.015625)"/>
       </defs>
       <use xlink:href="#IPAexGothic-32"/>
       <use xlink:href="#IPAexGothic-30" transform="translate(62.988281 0)"/>
       <use xlink:href="#IPAexGothic-32" transform="translate(125.976562 0)"/>
       <use xlink:href="#IPAexGothic-31" transform="translate(188.964844 0)"/>
       <use xlink:href="#IPAexGothic-2d" transform="translate(251.953125 0)"/>
       <use xlink:href="#IPAexGothic-30" transform="translate(287.744141 0)"/>
       <use xlink:href="#IPAexGothic-37" transform="translate(350.732422 0)"/>
      </g>
     </g>
    </g>
    <g id="xtick_4">
     <g id="line2d_4">
      <g>
       <use xlink:href="#me685238910" x="301.723054" y="242.44" style="stroke: #000000; stroke-width: 0.8"/>
      </g>
     </g>
     <g id="text_4">
      <!-- 2021-08 -->
      <g transform="translate(281.037897 256.930625) scale(0.1 -0.1)">
       <defs>
        <path id="IPAexGothic-38" d="M 2541 2425 
Q 3700 2031 3700 1197 
Q 3700 541 3100 197 
Q 2663 -56 2016 -56 
Q 1366 -56 928 197 
Q 347 531 347 1178 
Q 347 1988 1409 2381 
L 1409 2400 
Q 481 2734 481 3509 
Q 481 4100 981 4456 
Q 1406 4756 2019 4756 
Q 2703 4756 3131 4403 
Q 3553 4069 3553 3566 
Q 3553 2706 2541 2444 
L 2541 2425 
z
M 2022 2625 
Q 2997 2856 2997 3528 
Q 2997 3916 2675 4150 
Q 2413 4347 2016 4347 
Q 1606 4347 1331 4128 
Q 1050 3897 1050 3522 
Q 1050 3150 1350 2925 
Q 1494 2809 1722 2722 
Q 1984 2616 2022 2625 
z
M 1978 2209 
Q 922 1931 922 1216 
Q 922 775 1313 556 
Q 1606 391 2009 391 
Q 2575 391 2881 697 
Q 3106 922 3106 1250 
Q 3106 1594 2794 1850 
Q 2609 1994 2350 2100 
Q 2047 2222 1978 2209 
z
" transform="scale(0.015625)"/>
       </defs>
       <use xlink:href="#IPAexGothic-32"/>
       <use xlink:href="#IPAexGothic-30" transform="translate(62.988281 0)"/>
       <use xlink:href="#IPAexGothic-32" transform="translate(125.976562 0)"/>
       <use xlink:href="#IPAexGothic-31" transform="translate(188.964844 0)"/>
       <use xlink:href="#IPAexGothic-2d" transform="translate(251.953125 0)"/>
       <use xlink:href="#IPAexGothic-30" transform="translate(287.744141 0)"/>
       <use xlink:href="#IPAexGothic-38" transform="translate(350.732422 0)"/>
      </g>
     </g>
    </g>
    <g id="xtick_5">
     <g id="line2d_5">
      <g>
       <use xlink:href="#me685238910" x="380.509692" y="242.44" style="stroke: #000000; stroke-width: 0.8"/>
      </g>
     </g>
     <g id="text_5">
      <!-- 2021-09 -->
      <g transform="translate(359.824536 256.930625) scale(0.1 -0.1)">
       <defs>
        <path id="IPAexGothic-39" d="M 2984 2356 
Q 2544 1716 1813 1716 
Q 1253 1716 847 2056 
Q 366 2459 366 3163 
Q 366 3813 769 4266 
Q 1181 4725 1869 4725 
Q 2800 4725 3241 3950 
Q 3559 3378 3559 2472 
Q 3559 1250 3041 588 
Q 2553 -31 1769 -31 
Q 859 -31 391 703 
L 853 953 
Q 1156 428 1753 428 
Q 2922 428 3009 2356 
L 2984 2356 
z
M 1888 4278 
Q 1450 4278 1172 3950 
Q 922 3653 922 3200 
Q 922 2741 1159 2478 
Q 1434 2163 1906 2163 
Q 2431 2163 2728 2572 
Q 2925 2847 2925 3169 
Q 2925 3553 2694 3863 
Q 2375 4278 1888 4278 
z
" transform="scale(0.015625)"/>
       </defs>
       <use xlink:href="#IPAexGothic-32"/>
       <use xlink:href="#IPAexGothic-30" transform="translate(62.988281 0)"/>
       <use xlink:href="#IPAexGothic-32" transform="translate(125.976562 0)"/>
       <use xlink:href="#IPAexGothic-31" transform="translate(188.964844 0)"/>
       <use xlink:href="#IPAexGothic-2d" transform="translate(251.953125 0)"/>
       <use xlink:href="#IPAexGothic-30" transform="translate(287.744141 0)"/>
       <use xlink:href="#IPAexGothic-39" transform="translate(350.732422 0)"/>
      </g>
     </g>
    </g>
    <g id="xtick_6">
     <g id="line2d_6">
      <g>
       <use xlink:href="#me685238910" x="456.754826" y="242.44" style="stroke: #000000; stroke-width: 0.8"/>
      </g>
     </g>
     <g id="text_6">
      <!-- 2021-10 -->
      <g transform="translate(436.06967 256.930625) scale(0.1 -0.1)">
       <use xlink:href="#IPAexGothic-32"/>
       <use xlink:href="#IPAexGothic-30" transform="translate(62.988281 0)"/>
       <use xlink:href="#IPAexGothic-32" transform="translate(125.976562 0)"/>
       <use xlink:href="#IPAexGothic-31" transform="translate(188.964844 0)"/>
       <use xlink:href="#IPAexGothic-2d" transform="translate(251.953125 0)"/>
       <use xlink:href="#IPAexGothic-31" transform="translate(287.744141 0)"/>
       <use xlink:href="#IPAexGothic-30" transform="translate(350.732422 0)"/>
      </g>
     </g>
    </g>
    <g id="text_7">
     <!-- 日付 -->
     <g transform="translate(256.825 273.617125) scale(0.144 -0.144)">
      <defs>
       <path id="IPAexGothic-65e5" d="M 5231 4800 
L 5231 -288 
L 4744 -288 
L 4744 128 
L 1647 128 
L 1647 -288 
L 1159 -288 
L 1159 4800 
L 5231 4800 
z
M 1647 4372 
L 1647 2731 
L 4744 2731 
L 4744 4372 
L 1647 4372 
z
M 1647 2297 
L 1647 556 
L 4744 556 
L 4744 2297 
L 1647 2297 
z
" transform="scale(0.015625)"/>
       <path id="IPAexGothic-4ed8" d="M 1681 3769 
L 1681 -447 
L 1213 -447 
L 1213 2822 
Q 913 2313 578 1863 
L 316 2253 
Q 1241 3463 1653 5184 
L 2128 5069 
Q 1928 4378 1719 3859 
L 1681 3769 
z
M 5084 3816 
L 5991 3816 
L 5991 3388 
L 5109 3388 
L 5109 213 
Q 5109 -78 5006 -191 
Q 4888 -319 4525 -319 
Q 4031 -319 3513 -266 
L 3431 238 
Q 3978 141 4403 141 
Q 4634 141 4634 384 
L 4634 3388 
L 2028 3388 
L 2028 3816 
L 4609 3816 
L 4609 5153 
L 5084 5153 
L 5084 3816 
z
M 3431 1172 
Q 3034 1994 2547 2566 
L 2931 2822 
Q 3428 2231 3853 1472 
L 3431 1172 
z
" transform="scale(0.015625)"/>
      </defs>
      <use xlink:href="#IPAexGothic-65e5"/>
      <use xlink:href="#IPAexGothic-4ed8" transform="translate(100 0)"/>
     </g>
    </g>
   </g>
   <g id="matplotlib.axis_2">
    <g id="ytick_1">
     <g id="line2d_7">
      <path d="M 49.25 230.396156 
L 493.2 230.396156 
" clip-path="url(#p245c476b2a)" style="fill: none; stroke: #000000; stroke-opacity: 0.3; stroke-width: 0.5; stroke-linecap: square"/>
     </g>
     <g id="line2d_8">
      <defs>
       <path id="m142c4e5b49" d="M 0 0 
L -3.5 0 
" style="stroke: #000000; stroke-width: 0.8"/>
      </defs>
      <g>
       <use xlink:href="#m142c4e5b49" x="49.25" y="230.396156" style="stroke: #000000; stroke-width: 0.8"/>
      </g>
     </g>
     <g id="text_8">
      <!-- −6 -->
      <g transform="translate(29.16875 234.141468) scale(0.1 -0.1)">
       <defs>
        <path id="IPAexGothic-2212" d="M 416 2222 
L 3922 2222 
L 3922 1856 
L 416 1856 
L 416 2222 
z
" transform="scale(0.015625)"/>
       </defs>
       <use xlink:href="#IPAexGothic-2212"/>
       <use xlink:href="#IPAexGothic-36" transform="translate(67.822266 0)"/>
      </g>
     </g>
    </g>
    <g id="ytick_2">
     <g id="line2d_9">
      <path d="M 49.25 198.763461 
L 493.2 198.763461 
" clip-path="url(#p245c476b2a)" style="fill: none; stroke: #000000; stroke-opacity: 0.3; stroke-width: 0.5; stroke-linecap: square"/>
     </g>
     <g id="line2d_10">
      <g>
       <use xlink:href="#m142c4e5b49" x="49.25" y="198.763461" style="stroke: #000000; stroke-width: 0.8"/>
      </g>
     </g>
     <g id="text_9">
      <!-- −4 -->
      <g transform="translate(29.16875 202.508773) scale(0.1 -0.1)">
       <defs>
        <path id="IPAexGothic-34" d="M 3813 1159 
L 3059 1159 
L 3059 63 
L 2547 63 
L 2547 1159 
L 197 1159 
L 197 1672 
L 2456 4678 
L 3059 4678 
L 3059 1634 
L 3813 1634 
L 3813 1159 
z
M 2578 4109 
L 2559 4109 
Q 2278 3656 2003 3284 
L 759 1634 
L 2547 1634 
L 2547 3144 
Q 2547 3481 2578 4109 
z
" transform="scale(0.015625)"/>
       </defs>
       <use xlink:href="#IPAexGothic-2212"/>
       <use xlink:href="#IPAexGothic-34" transform="translate(67.822266 0)"/>
      </g>
     </g>
    </g>
    <g id="ytick_3">
     <g id="line2d_11">
      <path d="M 49.25 167.130766 
L 493.2 167.130766 
" clip-path="url(#p245c476b2a)" style="fill: none; stroke: #000000; stroke-opacity: 0.3; stroke-width: 0.5; stroke-linecap: square"/>
     </g>
     <g id="line2d_12">
      <g>
       <use xlink:href="#m142c4e5b49" x="49.25" y="167.130766" style="stroke: #000000; stroke-width: 0.8"/>
      </g>
     </g>
     <g id="text_10">
      <!-- −2 -->
      <g transform="translate(29.16875 170.876078) scale(0.1 -0.1)">
       <use xlink:href="#IPAexGothic-2212"/>
       <use xlink:href="#IPAexGothic-32" transform="translate(67.822266 0)"/>
      </g>
     </g>
    </g>
    <g id="ytick_4">
     <g id="line2d_13">
      <path d="M 49.25 135.498071 
L 493.2 135.498071 
" clip-path="url(#p245c476b2a)" style="fill: none; stroke: #000000; stroke-opacity: 0.3; stroke-width: 0.5; stroke-linecap: square"/>
     </g>
     <g id="line2d_14">
      <g>
       <use xlink:href="#m142c4e5b49" x="49.25" y="135.498071" style="stroke: #000000; stroke-width: 0.8"/>
      </g>
     </g>
     <g id="text_11">
      <!-- 0 -->
      <g transform="translate(35.951563 139.243383) scale(0.1 -0.1)">
       <use xlink:href="#IPAexGothic-30"/>
      </g>
     </g>
    </g>
    <g id="ytick_5">
     <g id="line2d_15">
      <path d="M 49.25 103.865376 
L 493.2 103.865376 
" clip-path="url(#p245c476b2a)" style="fill: none; stroke: #000000; stroke-opacity: 0.3; stroke-width: 0.5; stroke-linecap: square"/>
     </g>
     <g id="line2d_16">
      <g>
       <use xlink:href="#m142c4e5b49" x="49.25" y="103.865376" style="stroke: #000000; stroke-width: 0.8"/>
      </g>
     </g>
     <g id="text_12">
      <!-- 2 -->
      <g transform="translate(35.951563 107.610688) scale(0.1 -0.1)">
       <use xlink:href="#IPAexGothic-32"/>
      </g>
     </g>
    </g>
    <g id="ytick_6">
     <g id="line2d_17">
      <path d="M 49.25 72.232681 
L 493.2 72.232681 
" clip-path="url(#p245c476b2a)" style="fill: none; stroke: #000000; stroke-opacity: 0.3; stroke-width: 0.5; stroke-linecap: square"/>
     </g>
     <g id="line2d_18">
      <g>
       <use xlink:href="#m142c4e5b49" x="49.25" y="72.232681" style="stroke: #000000; stroke-width: 0.8"/>
      </g>
     </g>
     <g id="text_13">
      <!-- 4 -->
      <g transform="translate(35.951563 75.977993) scale(0.1 -0.1)">
       <use xlink:href="#IPAexGothic-34"/>
      </g>
     </g>
    </g>
    <g id="ytick_7">
     <g id="line2d_19">
      <path d="M 49.25 40.599986 
L 493.2 40.599986 
" clip-path="url(#p245c476b2a)" style="fill: none; stroke: #000000; stroke-opacity: 0.3; stroke-width: 0.5; stroke-linecap: square"/>
     </g>
     <g id="line2d_20">
      <g>
       <use xlink:href="#m142c4e5b49" x="49.25" y="40.599986" style="stroke: #000000; stroke-width: 0.8"/>
      </g>
     </g>
     <g id="text_14">
      <!-- 6 -->
      <g transform="translate(35.951563 44.345298) scale(0.1 -0.1)">
       <use xlink:href="#IPAexGothic-36"/>
      </g>
     </g>
    </g>
    <g id="text_15">
     <!-- 変化率（%） -->
     <g transform="translate(22.43275 178.581125) rotate(-90) scale(0.144 -0.144)">
      <defs>
       <path id="IPAexGothic-5909" d="M 2147 1253 
Q 1641 822 944 563 
L 672 900 
Q 1938 1391 2556 2394 
L 2972 2231 
Q 2847 2034 2747 1900 
L 4750 1900 
L 4969 1700 
Q 4422 984 3859 563 
Q 4650 241 6094 69 
L 5825 -366 
Q 4275 -125 3431 288 
Q 2441 -272 603 -538 
L 341 -134 
Q 2103 75 2997 538 
Q 2591 791 2184 1209 
L 2147 1253 
z
M 2434 1528 
L 2422 1516 
Q 2803 1106 3425 778 
Q 3888 1078 4269 1528 
L 2434 1528 
z
M 4059 4147 
L 4059 2650 
Q 4059 2272 3663 2272 
Q 3416 2272 3047 2309 
L 2963 2725 
Q 3241 2681 3431 2681 
Q 3631 2681 3631 2872 
L 3631 4147 
L 2822 4147 
Q 2766 3291 2503 2816 
Q 2191 2259 1503 1869 
L 1172 2156 
Q 1878 2572 2144 3066 
Q 2359 3456 2388 4147 
L 403 4147 
L 403 4544 
L 2938 4544 
L 2938 5294 
L 3419 5294 
L 3419 4544 
L 6000 4544 
L 6000 4147 
L 4059 4147 
z
M 5494 2363 
Q 4828 3150 4328 3584 
L 4672 3859 
Q 5266 3369 5878 2656 
L 5494 2363 
z
M 341 2528 
Q 1025 3022 1441 3775 
L 1844 3597 
Q 1406 2781 706 2241 
L 341 2528 
z
" transform="scale(0.015625)"/>
       <path id="IPAexGothic-5316" d="M 1831 3700 
L 1831 -341 
L 1356 -341 
L 1356 2772 
Q 1069 2275 678 1772 
L 378 2138 
Q 1319 3278 1856 5166 
L 2319 5013 
Q 2100 4319 1831 3700 
z
M 3425 2906 
Q 4528 3350 5306 3969 
L 5703 3616 
Q 4728 2919 3425 2444 
L 3425 575 
Q 3425 353 3584 306 
Q 3738 263 4334 263 
Q 5072 263 5250 347 
Q 5384 403 5422 594 
Q 5475 872 5506 1497 
L 5978 1331 
Q 5931 319 5775 106 
Q 5641 -75 5331 -141 
Q 5041 -206 4244 -206 
Q 3438 -206 3181 -78 
Q 2931 47 2931 384 
L 2931 5113 
L 3425 5113 
L 3425 2906 
z
" transform="scale(0.015625)"/>
       <path id="IPAexGothic-7387" d="M 3022 2847 
Q 3338 3231 3684 3744 
L 4053 3525 
Q 3506 2766 2919 2181 
L 3266 2200 
Q 3575 2209 3825 2234 
Q 3728 2406 3575 2616 
L 3913 2772 
Q 4244 2350 4541 1766 
L 4156 1547 
Q 4084 1753 3997 1913 
L 3856 1894 
Q 3709 1875 3416 1850 
L 3416 1228 
L 6084 1228 
L 6084 819 
L 3416 819 
L 3416 -447 
L 2941 -447 
L 2941 819 
L 322 819 
L 322 1228 
L 2941 1228 
L 2941 1803 
L 2881 1797 
Q 2306 1759 2031 1747 
L 1903 2163 
Q 2319 2163 2416 2169 
Q 2522 2269 2772 2553 
Q 2347 3028 1916 3347 
L 2184 3653 
L 2447 3425 
Q 2681 3744 2869 4128 
L 547 4128 
L 547 4525 
L 2941 4525 
L 2941 5313 
L 3416 5313 
L 3416 4525 
L 5853 4525 
L 5853 4128 
L 2972 4128 
L 3278 3981 
Q 2991 3509 2697 3188 
Q 2850 3041 3022 2847 
z
M 1497 2822 
Q 1128 3263 691 3566 
L 1000 3847 
Q 1409 3588 1831 3156 
L 1497 2822 
z
M 4219 3078 
Q 4794 3478 5147 3897 
L 5538 3616 
Q 5078 3178 4494 2803 
L 4219 3078 
z
M 5556 1631 
Q 4997 2109 4372 2444 
L 4659 2741 
Q 5356 2381 5894 1984 
L 5556 1631 
z
M 538 1925 
Q 1306 2297 1881 2803 
L 2075 2456 
Q 1622 2034 813 1528 
L 538 1925 
z
" transform="scale(0.015625)"/>
       <path id="IPAexGothic-ff08" d="M 5419 -434 
Q 4197 769 4197 2438 
Q 4197 4097 5419 5300 
L 5919 5300 
Q 4678 4078 4678 2425 
Q 4678 788 5919 -434 
L 5419 -434 
z
" transform="scale(0.015625)"/>
       <path id="IPAexGothic-25" d="M 4088 2481 
Q 4528 2481 4800 2181 
Q 5094 1847 5094 1203 
Q 5094 534 4728 197 
Q 4472 -38 4088 -38 
Q 3647 -38 3378 269 
Q 3084 600 3084 1222 
Q 3084 1906 3444 2244 
Q 3697 2481 4088 2481 
z
M 4081 2097 
Q 3566 2097 3566 1234 
Q 3566 356 4097 356 
Q 4613 356 4613 1241 
Q 4613 2097 4081 2097 
z
M 1331 4731 
Q 1769 4731 2041 4431 
Q 2334 4097 2334 3450 
Q 2334 2781 1969 2447 
Q 1713 2209 1331 2209 
Q 888 2209 619 2516 
Q 325 2850 325 3472 
Q 325 4156 684 4494 
Q 941 4731 1331 4731 
z
M 1322 4347 
Q 806 4347 806 3484 
Q 806 2606 1338 2606 
Q 1859 2606 1859 3484 
Q 1859 3859 1725 4091 
Q 1584 4347 1322 4347 
z
M 4569 4603 
L 1106 -134 
L 856 78 
L 4313 4813 
L 4569 4603 
z
" transform="scale(0.015625)"/>
       <path id="IPAexGothic-ff09" d="M 481 -434 
Q 1722 788 1722 2431 
Q 1722 4066 481 5300 
L 981 5300 
Q 2203 4097 2203 2431 
Q 2203 769 981 -434 
L 481 -434 
z
" transform="scale(0.015625)"/>
      </defs>
      <use xlink:href="#IPAexGothic-5909"/>
      <use xlink:href="#IPAexGothic-5316" transform="translate(100 0)"/>
      <use xlink:href="#IPAexGothic-7387" transform="translate(200 0)"/>
      <use xlink:href="#IPAexGothic-ff08" transform="translate(300 0)"/>
      <use xlink:href="#IPAexGothic-25" transform="translate(400 0)"/>
      <use xlink:href="#IPAexGothic-ff09" transform="translate(485.009766 0)"/>
     </g>
    </g>
   </g>
   <g id="line2d_21">
    <path d="M 80.612165 148.831642 
L 83.15367 146.311618 
L 85.695174 139.085917 
L 88.236678 140.418233 
L 90.778183 141.885125 
L 93.319687 139.799157 
L 95.861192 138.458259 
L 98.402696 137.956074 
L 100.944201 139.844745 
L 103.485705 139.595976 
L 106.02721 138.7359 
L 108.568714 140.982265 
L 111.110219 140.149801 
L 113.651723 143.308202 
L 116.193228 144.126474 
L 118.734732 148.480766 
L 121.276237 151.881711 
L 123.817741 153.900951 
L 126.359245 151.938597 
L 128.90075 152.58867 
L 131.442254 153.791023 
L 133.983759 160.17444 
L 136.525263 159.640699 
L 139.066768 159.706214 
L 144.149777 162.083076 
L 146.691281 162.402676 
L 149.232786 160.993108 
L 151.77429 160.385305 
L 154.315795 153.111872 
L 156.857299 154.809608 
L 159.398804 151.865569 
L 161.940308 150.007814 
L 164.481812 152.021718 
L 167.023317 151.882302 
L 169.564821 145.403921 
L 172.106326 143.827544 
L 174.64783 147.16703 
L 177.189335 147.242301 
L 179.730839 139.275424 
L 182.272344 142.333353 
L 184.813848 137.129119 
L 187.355353 134.511205 
L 189.896857 139.389664 
L 192.438362 131.325148 
L 194.979866 129.128011 
L 197.521371 134.903959 
L 202.604379 131.142942 
L 205.145884 131.975357 
L 207.687388 130.272027 
L 210.228893 126.985824 
L 212.770397 125.394511 
L 215.311902 125.50553 
L 217.853406 122.898177 
L 220.394911 124.880601 
L 222.936415 126.434118 
L 225.47792 124.265963 
L 228.019424 133.201424 
L 230.560929 136.876164 
L 233.102433 134.165237 
L 235.643937 131.890556 
L 238.185442 130.401451 
L 240.726946 133.364912 
L 243.268451 137.406033 
L 245.809955 135.435365 
L 248.35146 142.676535 
L 250.892964 147.850108 
L 253.434469 146.383892 
L 258.517478 140.118545 
L 261.058982 141.359588 
L 263.600487 139.257583 
L 266.141991 138.390836 
L 268.683496 133.539817 
L 271.225 137.189233 
L 273.766504 141.121084 
L 276.308009 136.660737 
L 278.849513 134.835989 
L 281.391018 137.170514 
L 283.932522 134.831866 
L 286.474027 133.539307 
L 289.015531 134.522445 
L 291.557036 134.808531 
L 294.09854 134.91824 
L 296.640045 134.08018 
L 299.181549 131.210043 
L 301.723054 131.42849 
L 304.264558 132.862131 
L 306.806063 131.709734 
L 309.347567 129.3169 
L 311.889071 133.692407 
L 314.430576 132.419552 
L 316.97208 136.417716 
L 319.513585 139.034777 
L 322.055089 139.900932 
L 324.596594 141.314532 
L 327.138098 144.17718 
L 329.679603 139.192949 
L 332.221107 141.507218 
L 334.762612 145.174672 
L 337.304116 143.642086 
L 339.845621 145.062691 
L 342.387125 145.563127 
L 344.928629 147.723242 
L 347.470134 142.255589 
L 350.011638 141.691284 
L 352.553143 140.101452 
L 355.094647 134.62772 
L 357.636152 133.625007 
L 360.177656 134.043074 
L 362.719161 133.758675 
L 365.260665 143.144318 
L 367.80217 137.780912 
L 370.343674 135.380236 
L 372.885179 135.725103 
L 375.426683 138.936245 
L 377.968188 138.778899 
L 383.051196 149.900268 
L 385.592701 150.20781 
L 388.134205 154.205641 
L 390.67571 151.027682 
L 393.217214 157.052416 
L 395.758719 151.24788 
L 398.300223 154.987233 
L 400.841728 149.619177 
L 403.383232 152.14319 
L 405.924737 158.079605 
L 408.466241 153.771388 
L 411.007746 146.94417 
L 413.54925 146.808297 
L 416.090755 141.692233 
L 418.632259 138.621988 
L 421.173763 143.153156 
L 423.715268 132.332624 
L 426.256772 137.12744 
L 428.798277 131.38368 
L 431.339781 136.842985 
L 433.881286 136.113671 
L 436.42279 143.542425 
L 438.964295 139.247747 
L 441.505799 134.446641 
L 444.047304 135.498136 
L 446.588808 140.52451 
L 449.130313 142.75752 
L 451.671817 143.01364 
L 454.213322 144.515431 
L 456.754826 141.152022 
L 459.29633 146.417234 
L 461.837835 145.697149 
L 464.379339 150.761779 
L 466.920844 151.227729 
L 469.462348 142.213483 
L 472.003853 140.179025 
L 472.003853 140.179025 
" clip-path="url(#p245c476b2a)" style="fill: none; stroke: #ef4444; stroke-width: 2; stroke-linecap: square"/>
   </g>
   <g id="line2d_22">
    <path d="M 49.25 135.498071 
L 493.2 135.498071 
" clip-path="url(#p245c476b2a)" style="fill: none; stroke: #475569; stroke-linecap: square"/>
   </g>
   <g id="text_16">
    <!-- 日次パーセント変化の推移 -->
    <g transform="translate(167.545 24.48) scale(0.1728 -0.1728)">
     <defs>
      <path id="IPAexGothic-6b21" d="M 3519 3750 
L 2950 3750 
Q 2678 3041 2231 2444 
L 1853 2772 
Q 2600 3756 2878 5184 
L 3353 5094 
Q 3241 4603 3103 4166 
L 5541 4166 
L 5841 3928 
Q 5406 2903 4906 2222 
L 4484 2481 
Q 4963 3072 5247 3750 
L 3994 3750 
L 3994 3263 
Q 3994 1384 6028 91 
L 5681 -353 
Q 4166 622 3794 2194 
Q 3669 1413 3391 922 
Q 2903 72 1931 -488 
L 1613 -72 
Q 3519 888 3519 3359 
L 3519 3750 
z
M 1438 3200 
Q 959 3884 509 4294 
L 881 4628 
Q 1413 4153 1841 3597 
L 1438 3200 
z
M 325 250 
Q 984 938 1600 2003 
L 1950 1656 
Q 1319 538 697 -184 
L 325 250 
z
" transform="scale(0.015625)"/>
      <path id="IPAexGothic-30d1" d="M 403 897 
Q 1447 2063 1947 3878 
L 2472 3694 
Q 1913 1772 872 538 
L 403 897 
z
M 5416 672 
Q 4669 2269 3659 3719 
L 4122 3963 
Q 5025 2728 5931 1019 
L 5416 672 
z
M 5228 5234 
Q 5538 5234 5750 5000 
Q 5931 4797 5931 4531 
Q 5931 4219 5697 4006 
Q 5497 3822 5228 3822 
Q 4916 3822 4703 4056 
Q 4519 4259 4519 4531 
Q 4519 4841 4753 5050 
Q 4956 5234 5228 5234 
z
M 5228 4953 
Q 5038 4953 4909 4813 
Q 4800 4691 4800 4531 
Q 4800 4341 4941 4213 
Q 5063 4103 5228 4103 
Q 5413 4103 5541 4244 
Q 5650 4366 5650 4531 
Q 5650 4716 5509 4844 
Q 5388 4953 5228 4953 
z
" transform="scale(0.015625)"/>
      <path id="IPAexGothic-30fc" d="M 588 2688 
L 5809 2688 
L 5809 2175 
L 588 2175 
L 588 2688 
z
" transform="scale(0.015625)"/>
      <path id="IPAexGothic-30bb" d="M 2059 4878 
L 2584 4878 
L 2584 3397 
L 5291 3731 
L 5606 3444 
Q 4838 2313 4006 1556 
L 3569 1875 
Q 4297 2459 4844 3231 
L 2584 2931 
L 2584 978 
Q 2584 734 2738 669 
Q 2922 584 3616 584 
Q 4419 584 5425 697 
L 5444 172 
Q 4563 103 3844 103 
Q 2678 103 2359 256 
Q 2059 403 2059 863 
L 2059 2859 
L 638 2675 
L 588 3150 
L 2059 3334 
L 2059 4878 
z
" transform="scale(0.015625)"/>
      <path id="IPAexGothic-30f3" d="M 2444 3084 
Q 1816 3656 1056 4084 
L 1381 4519 
Q 2063 4191 2816 3559 
L 2444 3084 
z
M 1100 609 
Q 3984 1106 5216 3828 
L 5619 3469 
Q 4413 794 1434 103 
L 1100 609 
z
" transform="scale(0.015625)"/>
      <path id="IPAexGothic-30c8" d="M 2284 4997 
L 2803 4997 
L 2803 3206 
Q 4088 2619 5216 1888 
L 4878 1369 
Q 3819 2175 2803 2688 
L 2803 -184 
L 2284 -184 
L 2284 4997 
z
" transform="scale(0.015625)"/>
      <path id="IPAexGothic-306e" d="M 3119 469 
Q 5275 766 5275 2425 
Q 5275 3453 4413 3925 
Q 4041 4116 3547 4159 
Q 3394 2525 2850 1400 
Q 2322 306 1722 306 
Q 1384 306 1084 666 
Q 609 1244 609 2003 
Q 609 3025 1397 3794 
Q 2184 4563 3431 4563 
Q 4306 4563 4928 4122 
Q 5813 3506 5813 2425 
Q 5813 438 3431 6 
L 3119 469 
z
M 3053 4147 
Q 2378 4044 1891 3641 
Q 1097 2981 1097 1991 
Q 1097 1366 1434 978 
Q 1581 813 1719 813 
Q 2022 813 2416 1625 
Q 2909 2638 3053 4147 
z
" transform="scale(0.015625)"/>
      <path id="IPAexGothic-63a8" d="M 3244 4063 
L 4244 4063 
Q 4481 4578 4653 5228 
L 5125 5100 
Q 4913 4484 4691 4063 
L 5906 4063 
L 5906 3666 
L 4647 3666 
L 4647 2822 
L 5747 2822 
L 5747 2438 
L 4647 2438 
L 4647 1594 
L 5747 1594 
L 5747 1216 
L 4647 1216 
L 4647 319 
L 6047 319 
L 6047 -91 
L 3244 -91 
L 3244 -481 
L 2816 -481 
L 2816 3188 
L 2791 3128 
Q 2581 2744 2366 2463 
L 2084 2797 
Q 2813 3728 3166 5284 
L 3616 5144 
Q 3431 4500 3244 4063 
z
M 3244 319 
L 4231 319 
L 4231 1216 
L 3244 1216 
L 3244 319 
z
M 3244 1594 
L 4231 1594 
L 4231 2438 
L 3244 2438 
L 3244 1594 
z
M 3244 2822 
L 4231 2822 
L 4231 3666 
L 3244 3666 
L 3244 2822 
z
M 1184 4084 
L 1184 5313 
L 1613 5313 
L 1613 4084 
L 2328 4084 
L 2328 3669 
L 1613 3669 
L 1613 2241 
Q 1997 2341 2334 2453 
L 2359 2069 
Q 1809 1884 1631 1831 
L 1613 1825 
L 1613 44 
Q 1613 -197 1522 -294 
Q 1413 -403 1081 -403 
Q 738 -403 519 -366 
L 441 97 
Q 741 38 978 38 
Q 1184 38 1184 219 
L 1184 1703 
L 1147 1697 
Q 734 1581 409 1509 
L 275 1941 
Q 722 2022 1138 2119 
Q 1147 2122 1166 2125 
Q 1178 2128 1184 2131 
L 1184 3669 
L 372 3669 
L 372 4084 
L 1184 4084 
z
" transform="scale(0.015625)"/>
      <path id="IPAexGothic-79fb" d="M 4691 2419 
L 5844 2419 
L 6069 2188 
Q 5503 1156 4763 513 
Q 4081 -75 2975 -469 
L 2681 -97 
Q 3684 194 4384 728 
Q 4097 1056 3731 1356 
Q 3381 1053 2919 819 
L 2669 1150 
Q 3853 1772 4500 2878 
L 4909 2772 
Q 4772 2528 4691 2419 
z
M 4409 2034 
Q 4219 1803 4000 1588 
Q 4375 1341 4703 1009 
Q 5219 1488 5497 2034 
L 4409 2034 
z
M 1350 2328 
Q 1009 1334 513 659 
L 263 1081 
Q 966 2022 1266 3128 
L 366 3128 
L 366 3531 
L 1350 3531 
L 1350 4400 
Q 919 4322 575 4266 
L 366 4644 
Q 1506 4809 2378 5144 
L 2700 4747 
Q 2238 4600 1784 4491 
L 1784 3531 
L 2616 3531 
L 2616 3128 
L 1784 3128 
L 1784 2688 
Q 2306 2266 2719 1803 
L 2444 1356 
Q 2106 1838 1784 2181 
L 1784 -450 
L 1350 -450 
L 1350 2328 
z
M 4275 4800 
L 5491 4800 
L 5709 4609 
Q 4763 2809 2875 2047 
L 2606 2388 
Q 3534 2722 4134 3244 
Q 3869 3519 3450 3794 
Q 3184 3569 2859 3359 
L 2591 3666 
Q 3578 4259 4056 5288 
L 4481 5191 
Q 4406 5034 4275 4800 
z
M 4019 4416 
Q 3856 4194 3700 4038 
Q 4128 3759 4372 3553 
L 4416 3513 
Q 4884 3991 5119 4416 
L 4019 4416 
z
" transform="scale(0.015625)"/>
     </defs>
     <use xlink:href="#IPAexGothic-65e5"/>
     <use xlink:href="#IPAexGothic-6b21" transform="translate(100 0)"/>
     <use xlink:href="#IPAexGothic-30d1" transform="translate(200 0)"/>
     <use xlink:href="#IPAexGothic-30fc" transform="translate(300 0)"/>
     <use xlink:href="#IPAexGothic-30bb" transform="translate(400 0)"/>
     <use xlink:href="#IPAexGothic-30f3" transform="translate(500 0)"/>
     <use xlink:href="#IPAexGothic-30c8" transform="translate(600 0)"/>
     <use xlink:href="#IPAexGothic-5909" transform="translate(700 0)"/>
     <use xlink:href="#IPAexGothic-5316" transform="translate(800 0)"/>
     <use xlink:href="#IPAexGothic-306e" transform="translate(900 0)"/>
     <use xlink:href="#IPAexGothic-63a8" transform="translate(1000 0)"/>
     <use xlink:href="#IPAexGothic-79fb" transform="translate(1100 0)"/>
    </g>
   </g>
   <g id="legend_1">
    <g id="patch_163">
     <path d="M 63.65 85.4175 
L 177.16625 85.4175 
Q 179.56625 85.4175 179.56625 83.0175 
L 179.56625 44.88 
Q 179.56625 42.48 177.16625 42.48 
L 63.65 42.48 
Q 61.25 42.48 61.25 44.88 
L 61.25 83.0175 
Q 61.25 85.4175 63.65 85.4175 
z
" style="fill: #ffffff; opacity: 0.8; stroke: #cccccc; stroke-linejoin: miter"/>
    </g>
    <g id="line2d_23">
     <path d="M 66.05 52.06875 
L 78.05 52.06875 
L 90.05 52.06875 
" style="fill: none; stroke: #ef4444; stroke-width: 2; stroke-linecap: square"/>
    </g>
    <g id="text_17">
     <!-- 14日移動平均 -->
     <g transform="translate(99.65 56.26875) scale(0.12 -0.12)">
      <defs>
       <path id="IPAexGothic-52d5" d="M 1803 3425 
L 1803 3794 
L 372 3794 
L 372 4147 
L 1803 4147 
L 1803 4556 
Q 1250 4500 634 4466 
L 506 4819 
Q 1997 4903 3091 5159 
L 3378 4794 
Q 2803 4678 2219 4606 
L 2219 4147 
L 3538 4147 
L 3538 3794 
L 2219 3794 
L 2219 3425 
L 3378 3425 
L 3378 1569 
L 2219 1569 
L 2219 1178 
L 3447 1178 
L 3447 825 
L 2219 825 
L 2219 384 
Q 2934 459 3544 569 
L 3544 231 
Q 2569 22 416 -206 
L 294 197 
Q 791 238 1284 288 
L 1803 338 
L 1803 825 
L 581 825 
L 581 1178 
L 1803 1178 
L 1803 1569 
L 678 1569 
L 678 3425 
L 1803 3425 
z
M 1816 3100 
L 1075 3100 
L 1075 2669 
L 1816 2669 
L 1816 3100 
z
M 2206 3100 
L 2206 2669 
L 2981 2669 
L 2981 3100 
L 2206 3100 
z
M 1816 2350 
L 1075 2350 
L 1075 1894 
L 1816 1894 
L 1816 2350 
z
M 2206 2350 
L 2206 1894 
L 2981 1894 
L 2981 2350 
L 2206 2350 
z
M 4806 3469 
Q 4797 2084 4628 1338 
Q 4375 250 3572 -459 
L 3238 -141 
Q 3975 481 4225 1550 
Q 4378 2213 4378 3413 
L 3559 3413 
L 3559 3828 
L 4384 3828 
L 4384 5209 
L 4813 5209 
L 4813 3878 
L 5931 3878 
Q 5931 941 5766 128 
Q 5669 -347 5144 -347 
Q 4838 -347 4500 -294 
L 4422 197 
Q 4797 100 5069 100 
Q 5294 100 5344 369 
Q 5484 1053 5503 3200 
L 5503 3469 
L 4806 3469 
z
" transform="scale(0.015625)"/>
       <path id="IPAexGothic-5e73" d="M 3422 4428 
L 3422 1941 
L 6084 1941 
L 6084 1513 
L 3422 1513 
L 3422 -447 
L 2934 -447 
L 2934 1513 
L 322 1513 
L 322 1941 
L 2934 1941 
L 2934 4428 
L 641 4428 
L 641 4856 
L 5763 4856 
L 5763 4428 
L 3422 4428 
z
M 1728 2278 
Q 1488 3094 1081 3859 
L 1544 4038 
Q 1875 3422 2222 2472 
L 1728 2278 
z
M 4134 2425 
Q 4509 3138 4813 4128 
L 5306 3944 
Q 4984 3006 4569 2228 
L 4134 2425 
z
" transform="scale(0.015625)"/>
       <path id="IPAexGothic-5747" d="M 1206 3794 
L 1206 5144 
L 1659 5144 
L 1659 3794 
L 2369 3794 
L 2369 3372 
L 1659 3372 
L 1659 1325 
Q 2078 1513 2484 1722 
L 2566 1313 
Q 1556 775 559 397 
L 334 838 
Q 803 975 1206 1138 
L 1206 3372 
L 413 3372 
L 413 3794 
L 1206 3794 
z
M 3475 4244 
L 5844 4244 
Q 5834 1131 5619 184 
Q 5494 -366 4838 -366 
Q 4369 -366 3859 -306 
L 3769 184 
Q 4241 88 4731 88 
Q 5059 88 5147 306 
Q 5359 919 5369 3828 
L 3316 3828 
Q 3013 3119 2466 2472 
L 2150 2828 
Q 2944 3788 3259 5263 
L 3719 5147 
Q 3619 4663 3475 4244 
z
M 2975 2847 
L 4678 2847 
L 4678 2431 
L 2975 2431 
L 2975 2847 
z
M 2559 1044 
Q 3747 1338 4838 1797 
L 4891 1388 
Q 3831 891 2766 588 
L 2559 1044 
z
" transform="scale(0.015625)"/>
      </defs>
      <use xlink:href="#IPAexGothic-31"/>
      <use xlink:href="#IPAexGothic-34" transform="translate(62.988281 0)"/>
      <use xlink:href="#IPAexGothic-65e5" transform="translate(125.976562 0)"/>
      <use xlink:href="#IPAexGothic-79fb" transform="translate(225.976562 0)"/>
      <use xlink:href="#IPAexGothic-52d5" transform="translate(325.976562 0)"/>
      <use xlink:href="#IPAexGothic-5e73" transform="translate(425.976562 0)"/>
      <use xlink:href="#IPAexGothic-5747" transform="translate(525.976562 0)"/>
     </g>
    </g>
    <g id="patch_164">
     <path d="M 66.05 78.3375 
L 90.05 78.3375 
L 90.05 69.9375 
L 66.05 69.9375 
z
" style="fill: #cbd5f5"/>
    </g>
    <g id="text_18">
     <!-- 日次の増減率 -->
     <g transform="translate(99.65 78.3375) scale(0.12 -0.12)">
      <defs>
       <path id="IPAexGothic-5897" d="M 1125 3719 
L 1125 5147 
L 1572 5147 
L 1572 3719 
L 2181 3719 
L 2181 3291 
L 1572 3291 
L 1572 1313 
Q 1931 1441 2256 1600 
L 2309 1184 
Q 1350 725 447 428 
L 275 891 
Q 784 1016 1125 1147 
L 1125 3291 
L 363 3291 
L 363 3719 
L 1125 3719 
z
M 3272 4434 
Q 3094 4838 2913 5106 
L 3347 5266 
Q 3600 4844 3750 4434 
L 4469 4434 
Q 4691 4872 4831 5306 
L 5306 5125 
Q 5116 4744 4934 4434 
L 5875 4434 
L 5875 2322 
L 2375 2322 
L 2375 4434 
L 3272 4434 
z
M 2803 4094 
L 2803 3566 
L 3897 3566 
L 3897 4094 
L 2803 4094 
z
M 2803 3241 
L 2803 2663 
L 3897 2663 
L 3897 3241 
L 2803 3241 
z
M 5447 2663 
L 5447 3241 
L 4313 3241 
L 4313 2663 
L 5447 2663 
z
M 5447 3566 
L 5447 4094 
L 4313 4094 
L 4313 3566 
L 5447 3566 
z
M 5631 1953 
L 5631 -447 
L 5203 -447 
L 5203 -159 
L 3084 -159 
L 3084 -447 
L 2650 -447 
L 2650 1953 
L 5631 1953 
z
M 3084 1600 
L 3084 1075 
L 5203 1075 
L 5203 1600 
L 3084 1600 
z
M 3084 744 
L 3084 188 
L 5203 188 
L 5203 744 
L 3084 744 
z
" transform="scale(0.015625)"/>
       <path id="IPAexGothic-6e1b" d="M 4531 1175 
Q 4263 2144 4184 3794 
L 2419 3794 
L 2419 2566 
Q 2419 1391 2309 741 
Q 2194 59 1844 -481 
L 1491 -156 
Q 1991 622 1991 2419 
L 1991 4172 
L 4172 4172 
L 4153 4469 
Q 4150 4556 4141 4816 
Q 4131 5156 4128 5306 
L 4563 5306 
Q 4575 4588 4594 4206 
L 5938 4206 
L 5938 3822 
L 4613 3822 
Q 4697 2419 4831 1706 
Q 5131 2281 5381 3250 
L 5791 3078 
Q 5466 1978 4991 1144 
Q 5125 753 5306 459 
Q 5391 325 5441 325 
Q 5556 325 5703 1259 
L 6106 947 
Q 5844 -353 5534 -353 
Q 5397 -353 5203 -150 
Q 4922 163 4697 697 
Q 4181 19 3513 -475 
L 3188 -141 
Q 4000 384 4531 1175 
z
M 4038 2431 
L 4038 903 
L 3066 903 
L 3066 506 
L 2694 506 
L 2694 2431 
L 4038 2431 
z
M 3066 2088 
L 3066 1247 
L 3659 1247 
L 3659 2088 
L 3066 2088 
z
M 1472 3872 
Q 963 4463 556 4769 
L 856 5100 
Q 1372 4728 1784 4250 
L 1472 3872 
z
M 1209 2375 
Q 781 2897 294 3256 
L 581 3603 
Q 1109 3213 1516 2759 
L 1209 2375 
z
M 331 -103 
Q 838 763 1172 1931 
L 1547 1644 
Q 1188 422 722 -441 
L 331 -103 
z
M 2609 3272 
L 4081 3272 
L 4081 2900 
L 2609 2900 
L 2609 3272 
z
M 5413 4281 
Q 5128 4753 4881 5019 
L 5259 5209 
Q 5566 4884 5803 4513 
L 5413 4281 
z
" transform="scale(0.015625)"/>
      </defs>
      <use xlink:href="#IPAexGothic-65e5"/>
      <use xlink:href="#IPAexGothic-6b21" transform="translate(100 0)"/>
      <use xlink:href="#IPAexGothic-306e" transform="translate(200 0)"/>
      <use xlink:href="#IPAexGothic-5897" transform="translate(300 0)"/>
      <use xlink:href="#IPAexGothic-6e1b" transform="translate(400 0)"/>
      <use xlink:href="#IPAexGothic-7387" transform="translate(500 0)"/>
     </g>
    </g>
   </g>
  </g>
 </g>
 <defs>
  <clipPath id="p245c476b2a">
   <rect x="49.25" y="30.48" width="443.95" height="211.96"/>
  </clipPath>
 </defs>
</svg>
