<?xml version="1.0" encoding="utf-8" standalone="no"?>
<!DOCTYPE svg PUBLIC "-//W3C//DTD SVG 1.1//EN"
  "http://www.w3.org/Graphics/SVG/1.1/DTD/svg11.dtd">
<svg xmlns:xlink="http://www.w3.org/1999/xlink" width="504pt" height="288pt" viewBox="0 0 504 288" xmlns="http://www.w3.org/2000/svg" version="1.1">
 <metadata>
  <rdf:RDF xmlns:dc="http://purl.org/dc/elements/1.1/" xmlns:cc="http://creativecommons.org/ns#" xmlns:rdf="http://www.w3.org/1999/02/22-rdf-syntax-ns#">
   <cc:Work>
    <dc:type rdf:resource="http://purl.org/dc/dcmitype/StillImage"/>
    <dc:date>2025-10-27T10:38:09.699977</dc:date>
    <dc:format>image/svg+xml</dc:format>
    <dc:creator>
     <cc:Agent>
      <dc:title>Matplotlib v3.10.7, https://matplotlib.org/</dc:title>
     </cc:Agent>
    </dc:creator>
   </cc:Work>
  </rdf:RDF>
 </metadata>
 <defs>
  <style type="text/css">*{stroke-linejoin: round; stroke-linecap: butt}</style>
 </defs>
 <g id="figure_1">
  <g id="patch_1">
   <path d="M 0 288 
L 504 288 
L 504 0 
L 0 0 
z
" style="fill: #ffffff"/>
  </g>
  <g id="axes_1">
   <g id="patch_2">
    <path d="M 55.1 242.44 
L 490.209545 242.44 
L 490.209545 30.48 
L 55.1 30.48 
z
" style="fill: #ffffff"/>
   </g>
   <g id="matplotlib.axis_1">
    <g id="xtick_1">
     <g id="line2d_1">
      <path d="M 74.877707 242.44 
L 74.877707 30.48 
" clip-path="url(#p77d09b6714)" style="fill: none; stroke: #000000; stroke-opacity: 0.3; stroke-width: 0.5; stroke-linecap: square"/>
     </g>
     <g id="line2d_2">
      <defs>
       <path id="mebcca2dc1b" d="M 0 0 
L 0 3.5 
" style="stroke: #000000; stroke-width: 0.8"/>
      </defs>
      <g>
       <use xlink:href="#mebcca2dc1b" x="74.877707" y="242.44" style="stroke: #000000; stroke-width: 0.8"/>
      </g>
     </g>
     <g id="text_1">
      <!-- 2021-04 -->
      <g transform="translate(54.19255 256.930625) scale(0.1 -0.1)">
       <defs>
        <path id="IPAexGothic-32" d="M 3659 63 
L 447 63 
L 447 594 
Q 825 1475 1894 2203 
L 2072 2322 
Q 2619 2697 2791 2906 
Q 2988 3153 2988 3444 
Q 2988 3772 2756 4003 
Q 2500 4259 2084 4259 
Q 1250 4259 991 3328 
L 497 3506 
Q 853 4725 2116 4725 
Q 2806 4725 3216 4316 
Q 3575 3947 3575 3425 
Q 3575 3038 3344 2722 
Q 3131 2416 2366 1938 
L 2231 1856 
Q 1256 1253 978 569 
L 3659 569 
L 3659 63 
z
" transform="scale(0.015625)"/>
        <path id="IPAexGothic-30" d="M 2038 4725 
Q 2881 4725 3334 3944 
Q 3694 3325 3694 2344 
Q 3694 1372 3334 741 
Q 2888 -31 2016 -31 
Q 1147 -31 700 741 
Q 341 1372 341 2350 
Q 341 3713 1000 4334 
Q 1419 4725 2038 4725 
z
M 2016 4266 
Q 1516 4266 1228 3759 
Q 934 3247 934 2344 
Q 934 1456 1222 947 
Q 1513 447 2016 447 
Q 2619 447 2909 1153 
Q 3100 1622 3100 2375 
Q 3100 3256 2806 3759 
Q 2509 4266 2016 4266 
z
" transform="scale(0.015625)"/>
        <path id="IPAexGothic-31" d="M 2463 63 
L 1900 63 
L 1900 4103 
Q 1372 3922 788 3797 
L 684 4231 
Q 1519 4441 2106 4731 
L 2463 4731 
L 2463 63 
z
" transform="scale(0.015625)"/>
        <path id="IPAexGothic-2d" d="M 1969 1703 
L 319 1703 
L 319 2203 
L 1969 2203 
L 1969 1703 
z
" transform="scale(0.015625)"/>
        <path id="IPAexGothic-34" d="M 3813 1159 
L 3059 1159 
L 3059 63 
L 2547 63 
L 2547 1159 
L 197 1159 
L 197 1672 
L 2456 4678 
L 3059 4678 
L 3059 1634 
L 3813 1634 
L 3813 1159 
z
M 2578 4109 
L 2559 4109 
Q 2278 3656 2003 3284 
L 759 1634 
L 2547 1634 
L 2547 3144 
Q 2547 3481 2578 4109 
z
" transform="scale(0.015625)"/>
       </defs>
       <use xlink:href="#IPAexGothic-32"/>
       <use xlink:href="#IPAexGothic-30" transform="translate(62.988281 0)"/>
       <use xlink:href="#IPAexGothic-32" transform="translate(125.976562 0)"/>
       <use xlink:href="#IPAexGothic-31" transform="translate(188.964844 0)"/>
       <use xlink:href="#IPAexGothic-2d" transform="translate(251.953125 0)"/>
       <use xlink:href="#IPAexGothic-30" transform="translate(287.744141 0)"/>
       <use xlink:href="#IPAexGothic-34" transform="translate(350.732422 0)"/>
      </g>
     </g>
    </g>
    <g id="xtick_2">
     <g id="line2d_3">
      <path d="M 130.32922 242.44 
L 130.32922 30.48 
" clip-path="url(#p77d09b6714)" style="fill: none; stroke: #000000; stroke-opacity: 0.3; stroke-width: 0.5; stroke-linecap: square"/>
     </g>
     <g id="line2d_4">
      <g>
       <use xlink:href="#mebcca2dc1b" x="130.32922" y="242.44" style="stroke: #000000; stroke-width: 0.8"/>
      </g>
     </g>
     <g id="text_2">
      <!-- 2021-05 -->
      <g transform="translate(109.644064 256.930625) scale(0.1 -0.1)">
       <defs>
        <path id="IPAexGothic-35" d="M 1178 2603 
Q 1634 2963 2172 2963 
Q 2816 2963 3241 2528 
Q 3638 2113 3638 1497 
Q 3638 938 3297 513 
Q 2869 -31 2031 -31 
Q 959 -31 469 784 
L 938 1028 
Q 1309 434 2013 434 
Q 2466 434 2769 716 
Q 3081 1013 3081 1503 
Q 3081 1966 2806 2241 
Q 2519 2528 2056 2528 
Q 1406 2528 1072 2028 
L 591 2091 
L 884 4634 
L 3406 4634 
L 3406 4153 
L 1341 4153 
L 1134 2603 
L 1178 2603 
z
" transform="scale(0.015625)"/>
       </defs>
       <use xlink:href="#IPAexGothic-32"/>
       <use xlink:href="#IPAexGothic-30" transform="translate(62.988281 0)"/>
       <use xlink:href="#IPAexGothic-32" transform="translate(125.976562 0)"/>
       <use xlink:href="#IPAexGothic-31" transform="translate(188.964844 0)"/>
       <use xlink:href="#IPAexGothic-2d" transform="translate(251.953125 0)"/>
       <use xlink:href="#IPAexGothic-30" transform="translate(287.744141 0)"/>
       <use xlink:href="#IPAexGothic-35" transform="translate(350.732422 0)"/>
      </g>
     </g>
    </g>
    <g id="xtick_3">
     <g id="line2d_5">
      <path d="M 187.629118 242.44 
L 187.629118 30.48 
" clip-path="url(#p77d09b6714)" style="fill: none; stroke: #000000; stroke-opacity: 0.3; stroke-width: 0.5; stroke-linecap: square"/>
     </g>
     <g id="line2d_6">
      <g>
       <use xlink:href="#mebcca2dc1b" x="187.629118" y="242.44" style="stroke: #000000; stroke-width: 0.8"/>
      </g>
     </g>
     <g id="text_3">
      <!-- 2021-06 -->
      <g transform="translate(166.943962 256.930625) scale(0.1 -0.1)">
       <defs>
        <path id="IPAexGothic-36" d="M 1056 2328 
Q 1509 2981 2234 2981 
Q 2906 2981 3316 2513 
Q 3675 2106 3675 1522 
Q 3675 884 3272 434 
Q 2853 -31 2178 -31 
Q 1375 -31 922 581 
Q 481 1178 481 2228 
Q 481 3425 1013 4109 
Q 1494 4725 2272 4725 
Q 3191 4725 3609 4025 
L 3150 3775 
Q 2894 4266 2300 4266 
Q 1119 4266 1031 2328 
L 1056 2328 
z
M 2141 2547 
Q 1684 2547 1384 2206 
Q 1116 1900 1116 1541 
Q 1116 1156 1353 844 
Q 1672 428 2159 428 
Q 2669 428 2941 844 
Q 3125 1128 3125 1503 
Q 3125 1944 2881 2228 
Q 2600 2547 2141 2547 
z
" transform="scale(0.015625)"/>
       </defs>
       <use xlink:href="#IPAexGothic-32"/>
       <use xlink:href="#IPAexGothic-30" transform="translate(62.988281 0)"/>
       <use xlink:href="#IPAexGothic-32" transform="translate(125.976562 0)"/>
       <use xlink:href="#IPAexGothic-31" transform="translate(188.964844 0)"/>
       <use xlink:href="#IPAexGothic-2d" transform="translate(251.953125 0)"/>
       <use xlink:href="#IPAexGothic-30" transform="translate(287.744141 0)"/>
       <use xlink:href="#IPAexGothic-36" transform="translate(350.732422 0)"/>
      </g>
     </g>
    </g>
    <g id="xtick_4">
     <g id="line2d_7">
      <path d="M 243.080632 242.44 
L 243.080632 30.48 
" clip-path="url(#p77d09b6714)" style="fill: none; stroke: #000000; stroke-opacity: 0.3; stroke-width: 0.5; stroke-linecap: square"/>
     </g>
     <g id="line2d_8">
      <g>
       <use xlink:href="#mebcca2dc1b" x="243.080632" y="242.44" style="stroke: #000000; stroke-width: 0.8"/>
      </g>
     </g>
     <g id="text_4">
      <!-- 2021-07 -->
      <g transform="translate(222.395476 256.930625) scale(0.1 -0.1)">
       <defs>
        <path id="IPAexGothic-37" d="M 3597 4263 
Q 2238 2106 1778 63 
L 1131 63 
Q 1581 1834 2950 4128 
L 428 4128 
L 428 4634 
L 3597 4634 
L 3597 4263 
z
" transform="scale(0.015625)"/>
       </defs>
       <use xlink:href="#IPAexGothic-32"/>
       <use xlink:href="#IPAexGothic-30" transform="translate(62.988281 0)"/>
       <use xlink:href="#IPAexGothic-32" transform="translate(125.976562 0)"/>
       <use xlink:href="#IPAexGothic-31" transform="translate(188.964844 0)"/>
       <use xlink:href="#IPAexGothic-2d" transform="translate(251.953125 0)"/>
       <use xlink:href="#IPAexGothic-30" transform="translate(287.744141 0)"/>
       <use xlink:href="#IPAexGothic-37" transform="translate(350.732422 0)"/>
      </g>
     </g>
    </g>
    <g id="xtick_5">
     <g id="line2d_9">
      <path d="M 300.38053 242.44 
L 300.38053 30.48 
" clip-path="url(#p77d09b6714)" style="fill: none; stroke: #000000; stroke-opacity: 0.3; stroke-width: 0.5; stroke-linecap: square"/>
     </g>
     <g id="line2d_10">
      <g>
       <use xlink:href="#mebcca2dc1b" x="300.38053" y="242.44" style="stroke: #000000; stroke-width: 0.8"/>
      </g>
     </g>
     <g id="text_5">
      <!-- 2021-08 -->
      <g transform="translate(279.695373 256.930625) scale(0.1 -0.1)">
       <defs>
        <path id="IPAexGothic-38" d="M 2541 2425 
Q 3700 2031 3700 1197 
Q 3700 541 3100 197 
Q 2663 -56 2016 -56 
Q 1366 -56 928 197 
Q 347 531 347 1178 
Q 347 1988 1409 2381 
L 1409 2400 
Q 481 2734 481 3509 
Q 481 4100 981 4456 
Q 1406 4756 2019 4756 
Q 2703 4756 3131 4403 
Q 3553 4069 3553 3566 
Q 3553 2706 2541 2444 
L 2541 2425 
z
M 2022 2625 
Q 2997 2856 2997 3528 
Q 2997 3916 2675 4150 
Q 2413 4347 2016 4347 
Q 1606 4347 1331 4128 
Q 1050 3897 1050 3522 
Q 1050 3150 1350 2925 
Q 1494 2809 1722 2722 
Q 1984 2616 2022 2625 
z
M 1978 2209 
Q 922 1931 922 1216 
Q 922 775 1313 556 
Q 1606 391 2009 391 
Q 2575 391 2881 697 
Q 3106 922 3106 1250 
Q 3106 1594 2794 1850 
Q 2609 1994 2350 2100 
Q 2047 2222 1978 2209 
z
" transform="scale(0.015625)"/>
       </defs>
       <use xlink:href="#IPAexGothic-32"/>
       <use xlink:href="#IPAexGothic-30" transform="translate(62.988281 0)"/>
       <use xlink:href="#IPAexGothic-32" transform="translate(125.976562 0)"/>
       <use xlink:href="#IPAexGothic-31" transform="translate(188.964844 0)"/>
       <use xlink:href="#IPAexGothic-2d" transform="translate(251.953125 0)"/>
       <use xlink:href="#IPAexGothic-30" transform="translate(287.744141 0)"/>
       <use xlink:href="#IPAexGothic-38" transform="translate(350.732422 0)"/>
      </g>
     </g>
    </g>
    <g id="xtick_6">
     <g id="line2d_11">
      <path d="M 357.680427 242.44 
L 357.680427 30.48 
" clip-path="url(#p77d09b6714)" style="fill: none; stroke: #000000; stroke-opacity: 0.3; stroke-width: 0.5; stroke-linecap: square"/>
     </g>
     <g id="line2d_12">
      <g>
       <use xlink:href="#mebcca2dc1b" x="357.680427" y="242.44" style="stroke: #000000; stroke-width: 0.8"/>
      </g>
     </g>
     <g id="text_6">
      <!-- 2021-09 -->
      <g transform="translate(336.995271 256.930625) scale(0.1 -0.1)">
       <defs>
        <path id="IPAexGothic-39" d="M 2984 2356 
Q 2544 1716 1813 1716 
Q 1253 1716 847 2056 
Q 366 2459 366 3163 
Q 366 3813 769 4266 
Q 1181 4725 1869 4725 
Q 2800 4725 3241 3950 
Q 3559 3378 3559 2472 
Q 3559 1250 3041 588 
Q 2553 -31 1769 -31 
Q 859 -31 391 703 
L 853 953 
Q 1156 428 1753 428 
Q 2922 428 3009 2356 
L 2984 2356 
z
M 1888 4278 
Q 1450 4278 1172 3950 
Q 922 3653 922 3200 
Q 922 2741 1159 2478 
Q 1434 2163 1906 2163 
Q 2431 2163 2728 2572 
Q 2925 2847 2925 3169 
Q 2925 3553 2694 3863 
Q 2375 4278 1888 4278 
z
" transform="scale(0.015625)"/>
       </defs>
       <use xlink:href="#IPAexGothic-32"/>
       <use xlink:href="#IPAexGothic-30" transform="translate(62.988281 0)"/>
       <use xlink:href="#IPAexGothic-32" transform="translate(125.976562 0)"/>
       <use xlink:href="#IPAexGothic-31" transform="translate(188.964844 0)"/>
       <use xlink:href="#IPAexGothic-2d" transform="translate(251.953125 0)"/>
       <use xlink:href="#IPAexGothic-30" transform="translate(287.744141 0)"/>
       <use xlink:href="#IPAexGothic-39" transform="translate(350.732422 0)"/>
      </g>
     </g>
    </g>
    <g id="xtick_7">
     <g id="line2d_13">
      <path d="M 413.131941 242.44 
L 413.131941 30.48 
" clip-path="url(#p77d09b6714)" style="fill: none; stroke: #000000; stroke-opacity: 0.3; stroke-width: 0.5; stroke-linecap: square"/>
     </g>
     <g id="line2d_14">
      <g>
       <use xlink:href="#mebcca2dc1b" x="413.131941" y="242.44" style="stroke: #000000; stroke-width: 0.8"/>
      </g>
     </g>
     <g id="text_7">
      <!-- 2021-10 -->
      <g transform="translate(392.446785 256.930625) scale(0.1 -0.1)">
       <use xlink:href="#IPAexGothic-32"/>
       <use xlink:href="#IPAexGothic-30" transform="translate(62.988281 0)"/>
       <use xlink:href="#IPAexGothic-32" transform="translate(125.976562 0)"/>
       <use xlink:href="#IPAexGothic-31" transform="translate(188.964844 0)"/>
       <use xlink:href="#IPAexGothic-2d" transform="translate(251.953125 0)"/>
       <use xlink:href="#IPAexGothic-31" transform="translate(287.744141 0)"/>
       <use xlink:href="#IPAexGothic-30" transform="translate(350.732422 0)"/>
      </g>
     </g>
    </g>
    <g id="xtick_8">
     <g id="line2d_15">
      <path d="M 470.431839 242.44 
L 470.431839 30.48 
" clip-path="url(#p77d09b6714)" style="fill: none; stroke: #000000; stroke-opacity: 0.3; stroke-width: 0.5; stroke-linecap: square"/>
     </g>
     <g id="line2d_16">
      <g>
       <use xlink:href="#mebcca2dc1b" x="470.431839" y="242.44" style="stroke: #000000; stroke-width: 0.8"/>
      </g>
     </g>
     <g id="text_8">
      <!-- 2021-11 -->
      <g transform="translate(449.746683 256.930625) scale(0.1 -0.1)">
       <use xlink:href="#IPAexGothic-32"/>
       <use xlink:href="#IPAexGothic-30" transform="translate(62.988281 0)"/>
       <use xlink:href="#IPAexGothic-32" transform="translate(125.976562 0)"/>
       <use xlink:href="#IPAexGothic-31" transform="translate(188.964844 0)"/>
       <use xlink:href="#IPAexGothic-2d" transform="translate(251.953125 0)"/>
       <use xlink:href="#IPAexGothic-31" transform="translate(287.744141 0)"/>
       <use xlink:href="#IPAexGothic-31" transform="translate(350.732422 0)"/>
      </g>
     </g>
    </g>
    <g id="text_9">
     <!-- 日付 -->
     <g transform="translate(258.254773 273.617125) scale(0.144 -0.144)">
      <defs>
       <path id="IPAexGothic-65e5" d="M 5231 4800 
L 5231 -288 
L 4744 -288 
L 4744 128 
L 1647 128 
L 1647 -288 
L 1159 -288 
L 1159 4800 
L 5231 4800 
z
M 1647 4372 
L 1647 2731 
L 4744 2731 
L 4744 4372 
L 1647 4372 
z
M 1647 2297 
L 1647 556 
L 4744 556 
L 4744 2297 
L 1647 2297 
z
" transform="scale(0.015625)"/>
       <path id="IPAexGothic-4ed8" d="M 1681 3769 
L 1681 -447 
L 1213 -447 
L 1213 2822 
Q 913 2313 578 1863 
L 316 2253 
Q 1241 3463 1653 5184 
L 2128 5069 
Q 1928 4378 1719 3859 
L 1681 3769 
z
M 5084 3816 
L 5991 3816 
L 5991 3388 
L 5109 3388 
L 5109 213 
Q 5109 -78 5006 -191 
Q 4888 -319 4525 -319 
Q 4031 -319 3513 -266 
L 3431 238 
Q 3978 141 4403 141 
Q 4634 141 4634 384 
L 4634 3388 
L 2028 3388 
L 2028 3816 
L 4609 3816 
L 4609 5153 
L 5084 5153 
L 5084 3816 
z
M 3431 1172 
Q 3034 1994 2547 2566 
L 2931 2822 
Q 3428 2231 3853 1472 
L 3431 1172 
z
" transform="scale(0.015625)"/>
      </defs>
      <use xlink:href="#IPAexGothic-65e5"/>
      <use xlink:href="#IPAexGothic-4ed8" transform="translate(100 0)"/>
     </g>
    </g>
   </g>
   <g id="matplotlib.axis_2">
    <g id="ytick_1">
     <g id="line2d_17">
      <path d="M 55.1 227.414572 
L 490.209545 227.414572 
" clip-path="url(#p77d09b6714)" style="fill: none; stroke: #000000; stroke-opacity: 0.3; stroke-width: 0.5; stroke-linecap: square"/>
     </g>
     <g id="line2d_18">
      <defs>
       <path id="mefb120c0d9" d="M 0 0 
L -3.5 0 
" style="stroke: #000000; stroke-width: 0.8"/>
      </defs>
      <g>
       <use xlink:href="#mefb120c0d9" x="55.1" y="227.414572" style="stroke: #000000; stroke-width: 0.8"/>
      </g>
     </g>
     <g id="text_10">
      <!-- 190 -->
      <g transform="translate(29.204688 231.159885) scale(0.1 -0.1)">
       <use xlink:href="#IPAexGothic-31"/>
       <use xlink:href="#IPAexGothic-39" transform="translate(62.988281 0)"/>
       <use xlink:href="#IPAexGothic-30" transform="translate(125.976562 0)"/>
      </g>
     </g>
    </g>
    <g id="ytick_2">
     <g id="line2d_19">
      <path d="M 55.1 198.191167 
L 490.209545 198.191167 
" clip-path="url(#p77d09b6714)" style="fill: none; stroke: #000000; stroke-opacity: 0.3; stroke-width: 0.5; stroke-linecap: square"/>
     </g>
     <g id="line2d_20">
      <g>
       <use xlink:href="#mefb120c0d9" x="55.1" y="198.191167" style="stroke: #000000; stroke-width: 0.8"/>
      </g>
     </g>
     <g id="text_11">
      <!-- 200 -->
      <g transform="translate(29.204688 201.93648) scale(0.1 -0.1)">
       <use xlink:href="#IPAexGothic-32"/>
       <use xlink:href="#IPAexGothic-30" transform="translate(62.988281 0)"/>
       <use xlink:href="#IPAexGothic-30" transform="translate(125.976562 0)"/>
      </g>
     </g>
    </g>
    <g id="ytick_3">
     <g id="line2d_21">
      <path d="M 55.1 168.967762 
L 490.209545 168.967762 
" clip-path="url(#p77d09b6714)" style="fill: none; stroke: #000000; stroke-opacity: 0.3; stroke-width: 0.5; stroke-linecap: square"/>
     </g>
     <g id="line2d_22">
      <g>
       <use xlink:href="#mefb120c0d9" x="55.1" y="168.967762" style="stroke: #000000; stroke-width: 0.8"/>
      </g>
     </g>
     <g id="text_12">
      <!-- 210 -->
      <g transform="translate(29.204688 172.713074) scale(0.1 -0.1)">
       <use xlink:href="#IPAexGothic-32"/>
       <use xlink:href="#IPAexGothic-31" transform="translate(62.988281 0)"/>
       <use xlink:href="#IPAexGothic-30" transform="translate(125.976562 0)"/>
      </g>
     </g>
    </g>
    <g id="ytick_4">
     <g id="line2d_23">
      <path d="M 55.1 139.744357 
L 490.209545 139.744357 
" clip-path="url(#p77d09b6714)" style="fill: none; stroke: #000000; stroke-opacity: 0.3; stroke-width: 0.5; stroke-linecap: square"/>
     </g>
     <g id="line2d_24">
      <g>
       <use xlink:href="#mefb120c0d9" x="55.1" y="139.744357" style="stroke: #000000; stroke-width: 0.8"/>
      </g>
     </g>
     <g id="text_13">
      <!-- 220 -->
      <g transform="translate(29.204688 143.489669) scale(0.1 -0.1)">
       <use xlink:href="#IPAexGothic-32"/>
       <use xlink:href="#IPAexGothic-32" transform="translate(62.988281 0)"/>
       <use xlink:href="#IPAexGothic-30" transform="translate(125.976562 0)"/>
      </g>
     </g>
    </g>
    <g id="ytick_5">
     <g id="line2d_25">
      <path d="M 55.1 110.520952 
L 490.209545 110.520952 
" clip-path="url(#p77d09b6714)" style="fill: none; stroke: #000000; stroke-opacity: 0.3; stroke-width: 0.5; stroke-linecap: square"/>
     </g>
     <g id="line2d_26">
      <g>
       <use xlink:href="#mefb120c0d9" x="55.1" y="110.520952" style="stroke: #000000; stroke-width: 0.8"/>
      </g>
     </g>
     <g id="text_14">
      <!-- 230 -->
      <g transform="translate(29.204688 114.266264) scale(0.1 -0.1)">
       <defs>
        <path id="IPAexGothic-33" d="M 2381 2419 
Q 3506 2216 3506 1278 
Q 3506 716 3128 356 
Q 2709 -31 1944 -31 
Q 797 -31 288 881 
L 756 1131 
Q 1109 441 1938 441 
Q 2425 441 2694 691 
Q 2950 928 2950 1291 
Q 2950 1719 2566 1978 
Q 2216 2213 1644 2213 
L 1363 2213 
L 1363 2669 
L 1656 2669 
Q 2231 2669 2534 2888 
Q 2859 3119 2859 3509 
Q 2859 3934 2494 4138 
Q 2259 4278 1931 4278 
Q 1238 4278 903 3578 
L 434 3803 
Q 897 4725 1938 4725 
Q 2597 4725 3006 4394 
Q 3416 4069 3416 3534 
Q 3416 3028 3019 2706 
Q 2763 2500 2381 2444 
L 2381 2419 
z
" transform="scale(0.015625)"/>
       </defs>
       <use xlink:href="#IPAexGothic-32"/>
       <use xlink:href="#IPAexGothic-33" transform="translate(62.988281 0)"/>
       <use xlink:href="#IPAexGothic-30" transform="translate(125.976562 0)"/>
      </g>
     </g>
    </g>
    <g id="ytick_6">
     <g id="line2d_27">
      <path d="M 55.1 81.297546 
L 490.209545 81.297546 
" clip-path="url(#p77d09b6714)" style="fill: none; stroke: #000000; stroke-opacity: 0.3; stroke-width: 0.5; stroke-linecap: square"/>
     </g>
     <g id="line2d_28">
      <g>
       <use xlink:href="#mefb120c0d9" x="55.1" y="81.297546" style="stroke: #000000; stroke-width: 0.8"/>
      </g>
     </g>
     <g id="text_15">
      <!-- 240 -->
      <g transform="translate(29.204688 85.042859) scale(0.1 -0.1)">
       <use xlink:href="#IPAexGothic-32"/>
       <use xlink:href="#IPAexGothic-34" transform="translate(62.988281 0)"/>
       <use xlink:href="#IPAexGothic-30" transform="translate(125.976562 0)"/>
      </g>
     </g>
    </g>
    <g id="ytick_7">
     <g id="line2d_29">
      <path d="M 55.1 52.074141 
L 490.209545 52.074141 
" clip-path="url(#p77d09b6714)" style="fill: none; stroke: #000000; stroke-opacity: 0.3; stroke-width: 0.5; stroke-linecap: square"/>
     </g>
     <g id="line2d_30">
      <g>
       <use xlink:href="#mefb120c0d9" x="55.1" y="52.074141" style="stroke: #000000; stroke-width: 0.8"/>
      </g>
     </g>
     <g id="text_16">
      <!-- 250 -->
      <g transform="translate(29.204688 55.819454) scale(0.1 -0.1)">
       <use xlink:href="#IPAexGothic-32"/>
       <use xlink:href="#IPAexGothic-35" transform="translate(62.988281 0)"/>
       <use xlink:href="#IPAexGothic-30" transform="translate(125.976562 0)"/>
      </g>
     </g>
    </g>
    <g id="text_17">
     <!-- 値 -->
     <g transform="translate(22.468688 143.66) rotate(-90) scale(0.144 -0.144)">
      <defs>
       <path id="IPAexGothic-5024" d="M 4172 3675 
L 5453 3675 
L 5453 684 
L 3019 684 
L 3019 3675 
L 3750 3675 
Q 3788 3884 3825 4153 
L 2141 4153 
L 2141 4544 
L 3884 4544 
Q 3922 4844 3966 5325 
L 4434 5272 
L 4388 4953 
Q 4331 4578 4331 4544 
L 5863 4544 
L 5863 4153 
L 4269 4153 
Q 4200 3781 4172 3675 
z
M 5038 3316 
L 3434 3316 
L 3434 2803 
L 5038 2803 
L 5038 3316 
z
M 3434 2450 
L 3434 1941 
L 5038 1941 
L 5038 2450 
L 3434 2450 
z
M 3434 1588 
L 3434 1044 
L 5038 1044 
L 5038 1588 
L 3434 1588 
z
M 1509 3669 
L 1509 -447 
L 1069 -447 
L 1069 2725 
Q 856 2338 531 1875 
L 288 2266 
Q 1163 3531 1541 5325 
L 1975 5222 
Q 1791 4378 1509 3669 
z
M 2488 244 
L 6031 244 
L 6031 -153 
L 2488 -153 
L 2488 -447 
L 2059 -447 
L 2059 3213 
L 2488 3213 
L 2488 244 
z
" transform="scale(0.015625)"/>
      </defs>
      <use xlink:href="#IPAexGothic-5024"/>
     </g>
    </g>
   </g>
   <g id="line2d_31">
    <path d="M 74.877707 185.880916 
L 76.72609 164.161089 
L 78.574474 204.020805 
L 80.422858 169.559773 
L 82.271242 155.512848 
L 84.119626 156.615373 
L 85.968009 174.362429 
L 87.816393 176.599538 
L 89.664777 202.805563 
L 91.513161 209.334771 
L 93.361545 218.74787 
L 95.209928 232.805455 
L 97.058312 223.921881 
L 98.906696 198.835544 
L 100.75508 196.790725 
L 102.603464 161.880961 
L 104.451847 150.884724 
L 106.300231 138.737831 
L 108.148615 159.484814 
L 109.996999 148.063811 
L 111.845383 184.410973 
L 113.693766 195.459535 
L 115.54215 197.062048 
L 117.390534 204.306432 
L 119.238918 231.3458 
L 121.087301 232.30124 
L 122.935685 201.692135 
L 124.784069 205.168517 
L 126.632453 167.701137 
L 128.480837 163.950038 
L 130.32922 154.218554 
L 132.177604 149.145381 
L 134.025988 140.529942 
L 135.874372 157.844953 
L 137.722756 152.949358 
L 139.571139 183.882386 
L 141.419523 192.459955 
L 143.267907 207.368297 
L 145.116291 197.485806 
L 146.964675 203.468161 
L 148.813058 207.739573 
L 150.661442 163.506836 
L 152.509826 177.895092 
L 156.206594 145.019258 
L 158.054977 122.970465 
L 159.903361 144.549431 
L 161.751745 139.653624 
L 163.600129 156.302283 
L 165.448513 186.663044 
L 167.296896 172.389613 
L 169.14528 179.30045 
L 170.993664 199.094826 
L 172.842048 195.885512 
L 174.690432 207.027096 
L 176.538815 196.527319 
L 180.235583 144.880163 
L 182.083967 146.933267 
L 183.932351 131.803274 
L 185.780734 123.319785 
L 187.629118 138.571433 
L 189.477502 142.559416 
L 191.325886 144.444959 
L 193.17427 188.030043 
L 195.022653 174.350756 
L 196.871037 210.137746 
L 198.719421 182.476891 
L 200.567805 178.922236 
L 202.416188 176.893665 
L 204.264572 169.871502 
L 206.112956 144.737137 
L 207.96134 138.057114 
L 209.809724 125.893148 
L 211.658107 137.061437 
L 213.506491 125.131415 
L 215.354875 153.20046 
L 217.203259 156.743439 
L 219.051643 169.864306 
L 220.900026 160.045169 
L 222.74841 197.408139 
L 224.596794 184.179639 
L 226.445178 159.29035 
L 228.293562 170.055464 
L 230.141945 163.584473 
L 231.990329 132.525581 
L 233.838713 128.469402 
L 235.687097 109.093976 
L 237.535481 129.026034 
L 239.383864 121.094004 
L 241.232248 125.122874 
L 243.080632 132.897642 
L 244.929016 170.029794 
L 246.7774 150.040229 
L 248.625783 182.270448 
L 250.474167 188.838162 
L 252.322551 176.088312 
L 254.170935 152.367232 
L 256.019319 144.674744 
L 257.867702 122.500619 
L 259.716086 111.103292 
L 261.56447 106.950269 
L 263.412854 113.059976 
L 265.261238 93.93776 
L 267.109621 150.630942 
L 268.958005 157.09545 
L 270.806389 154.842282 
L 272.654773 173.173547 
L 274.503157 193.436462 
L 276.35154 172.268701 
L 278.199924 165.505838 
L 280.048308 174.616748 
L 281.896692 122.693167 
L 283.745076 104.28092 
L 285.593459 94.285832 
L 287.441843 108.4288 
L 289.290227 100.176662 
L 291.138611 120.062177 
L 292.986994 114.13125 
L 294.835378 136.520143 
L 296.683762 135.943282 
L 298.532146 154.327432 
L 300.38053 143.292807 
L 302.228913 145.129787 
L 304.077297 134.082427 
L 305.925681 156.577098 
L 307.774065 145.818234 
L 309.622449 106.552978 
L 311.470832 107.278106 
L 313.319216 89.653702 
L 315.1676 90.225874 
L 317.015984 96.67147 
L 318.864368 97.61633 
L 320.712751 113.950417 
L 322.561135 127.029409 
L 324.409519 152.583935 
L 326.257903 127.033981 
L 328.106287 145.129718 
L 329.95467 127.441647 
L 331.803054 125.806455 
L 333.651438 101.52756 
L 335.499822 101.306874 
L 337.348206 89.805188 
L 339.196589 84.510564 
L 341.044973 93.821056 
L 342.893357 97.282022 
L 344.741741 101.897002 
L 346.590125 113.641794 
L 348.438508 135.856518 
L 350.286892 106.406434 
L 352.135276 150.483259 
L 353.98366 142.004126 
L 355.832044 103.615945 
L 357.680427 129.158439 
L 359.528811 99.22975 
L 361.377195 87.19374 
L 363.225579 86.597993 
L 365.073963 94.64223 
L 366.922346 95.508358 
L 368.77073 82.505508 
L 370.619114 87.077639 
L 372.467498 129.295464 
L 374.315881 114.400197 
L 376.164265 133.416926 
L 378.012649 120.364748 
L 379.861033 128.183087 
L 381.709417 133.385455 
L 383.5578 118.215411 
L 385.406184 99.433765 
L 387.254568 70.958004 
L 389.102952 40.319805 
L 390.951336 65.473245 
L 392.799719 67.65198 
L 394.648103 65.899244 
L 396.496487 83.277339 
L 398.344871 87.6048 
L 402.041638 116.565783 
L 403.890022 130.904738 
L 405.738406 119.143089 
L 407.58679 104.211416 
L 409.435174 103.119276 
L 411.283557 73.020621 
L 413.131941 66.427929 
L 414.980325 68.20738 
L 416.828709 40.114545 
L 418.677093 72.984916 
L 420.525476 51.191837 
L 422.37386 52.750447 
L 424.222244 89.490785 
L 426.070628 99.800687 
L 427.919012 97.202053 
L 429.767395 96.471159 
L 431.615779 107.417241 
L 433.464163 103.501611 
L 435.312547 84.815048 
L 437.160931 79.214551 
L 439.009314 83.107616 
L 440.857698 60.425367 
L 442.706082 52.173138 
L 444.554466 68.946003 
L 446.40285 51.802979 
L 448.251233 74.733911 
L 450.099617 69.475127 
L 451.948001 107.665374 
L 453.796385 110.501544 
L 455.644768 121.941555 
L 457.493152 89.305844 
L 459.341536 83.200618 
L 461.18992 70.175048 
L 461.18992 70.175048 
" clip-path="url(#p77d09b6714)" style="fill: none; stroke: #cbd5f5; stroke-width: 0.9; stroke-linecap: square"/>
   </g>
   <g id="line2d_32">
    <path d="M 82.271242 175.827086 
L 95.209928 195.895857 
L 108.148615 175.790926 
L 121.087301 198.992834 
L 134.025988 168.915101 
L 146.964675 185.06556 
L 159.903361 160.488515 
L 172.842048 175.612765 
L 185.780734 160.075496 
L 198.719421 168.653035 
L 211.658107 153.06232 
L 224.596794 163.796081 
L 237.535481 141.720755 
L 250.474167 152.899022 
L 263.412854 132.392064 
L 276.35154 156.483592 
L 289.290227 124.283995 
L 302.228913 135.629554 
L 315.1676 118.598345 
L 328.106287 122.859323 
L 341.044973 103.459906 
L 353.98366 121.081593 
L 366.922346 99.420922 
L 379.861033 113.606224 
L 392.799719 85.062524 
L 405.738406 100.845207 
L 418.677093 75.440869 
L 431.615779 84.903458 
L 444.554466 76.02619 
L 457.493152 89.346619 
L 470.431839 76.687833 
" clip-path="url(#p77d09b6714)" style="fill: none; stroke: #2563eb; stroke-width: 2; stroke-linecap: square"/>
    <defs>
     <path id="m9b27d9ffb6" d="M 0 4 
C 1.060812 4 2.078319 3.578535 2.828427 2.828427 
C 3.578535 2.078319 4 1.060812 4 0 
C 4 -1.060812 3.578535 -2.078319 2.828427 -2.828427 
C 2.078319 -3.578535 1.060812 -4 0 -4 
C -1.060812 -4 -2.078319 -3.578535 -2.828427 -2.828427 
C -3.578535 -2.078319 -4 -1.060812 -4 0 
C -4 1.060812 -3.578535 2.078319 -2.828427 2.828427 
C -2.078319 3.578535 -1.060812 4 0 4 
z
" style="stroke: #2563eb"/>
    </defs>
    <g clip-path="url(#p77d09b6714)">
     <use xlink:href="#m9b27d9ffb6" x="82.271242" y="175.827086" style="fill: #2563eb; stroke: #2563eb"/>
     <use xlink:href="#m9b27d9ffb6" x="95.209928" y="195.895857" style="fill: #2563eb; stroke: #2563eb"/>
     <use xlink:href="#m9b27d9ffb6" x="108.148615" y="175.790926" style="fill: #2563eb; stroke: #2563eb"/>
     <use xlink:href="#m9b27d9ffb6" x="121.087301" y="198.992834" style="fill: #2563eb; stroke: #2563eb"/>
     <use xlink:href="#m9b27d9ffb6" x="134.025988" y="168.915101" style="fill: #2563eb; stroke: #2563eb"/>
     <use xlink:href="#m9b27d9ffb6" x="146.964675" y="185.06556" style="fill: #2563eb; stroke: #2563eb"/>
     <use xlink:href="#m9b27d9ffb6" x="159.903361" y="160.488515" style="fill: #2563eb; stroke: #2563eb"/>
     <use xlink:href="#m9b27d9ffb6" x="172.842048" y="175.612765" style="fill: #2563eb; stroke: #2563eb"/>
     <use xlink:href="#m9b27d9ffb6" x="185.780734" y="160.075496" style="fill: #2563eb; stroke: #2563eb"/>
     <use xlink:href="#m9b27d9ffb6" x="198.719421" y="168.653035" style="fill: #2563eb; stroke: #2563eb"/>
     <use xlink:href="#m9b27d9ffb6" x="211.658107" y="153.06232" style="fill: #2563eb; stroke: #2563eb"/>
     <use xlink:href="#m9b27d9ffb6" x="224.596794" y="163.796081" style="fill: #2563eb; stroke: #2563eb"/>
     <use xlink:href="#m9b27d9ffb6" x="237.535481" y="141.720755" style="fill: #2563eb; stroke: #2563eb"/>
     <use xlink:href="#m9b27d9ffb6" x="250.474167" y="152.899022" style="fill: #2563eb; stroke: #2563eb"/>
     <use xlink:href="#m9b27d9ffb6" x="263.412854" y="132.392064" style="fill: #2563eb; stroke: #2563eb"/>
     <use xlink:href="#m9b27d9ffb6" x="276.35154" y="156.483592" style="fill: #2563eb; stroke: #2563eb"/>
     <use xlink:href="#m9b27d9ffb6" x="289.290227" y="124.283995" style="fill: #2563eb; stroke: #2563eb"/>
     <use xlink:href="#m9b27d9ffb6" x="302.228913" y="135.629554" style="fill: #2563eb; stroke: #2563eb"/>
     <use xlink:href="#m9b27d9ffb6" x="315.1676" y="118.598345" style="fill: #2563eb; stroke: #2563eb"/>
     <use xlink:href="#m9b27d9ffb6" x="328.106287" y="122.859323" style="fill: #2563eb; stroke: #2563eb"/>
     <use xlink:href="#m9b27d9ffb6" x="341.044973" y="103.459906" style="fill: #2563eb; stroke: #2563eb"/>
     <use xlink:href="#m9b27d9ffb6" x="353.98366" y="121.081593" style="fill: #2563eb; stroke: #2563eb"/>
     <use xlink:href="#m9b27d9ffb6" x="366.922346" y="99.420922" style="fill: #2563eb; stroke: #2563eb"/>
     <use xlink:href="#m9b27d9ffb6" x="379.861033" y="113.606224" style="fill: #2563eb; stroke: #2563eb"/>
     <use xlink:href="#m9b27d9ffb6" x="392.799719" y="85.062524" style="fill: #2563eb; stroke: #2563eb"/>
     <use xlink:href="#m9b27d9ffb6" x="405.738406" y="100.845207" style="fill: #2563eb; stroke: #2563eb"/>
     <use xlink:href="#m9b27d9ffb6" x="418.677093" y="75.440869" style="fill: #2563eb; stroke: #2563eb"/>
     <use xlink:href="#m9b27d9ffb6" x="431.615779" y="84.903458" style="fill: #2563eb; stroke: #2563eb"/>
     <use xlink:href="#m9b27d9ffb6" x="444.554466" y="76.02619" style="fill: #2563eb; stroke: #2563eb"/>
     <use xlink:href="#m9b27d9ffb6" x="457.493152" y="89.346619" style="fill: #2563eb; stroke: #2563eb"/>
     <use xlink:href="#m9b27d9ffb6" x="470.431839" y="76.687833" style="fill: #2563eb; stroke: #2563eb"/>
    </g>
   </g>
   <g id="text_18">
    <!-- 日次データを週次平均でならす -->
    <g transform="translate(151.694773 24.48) scale(0.1728 -0.1728)">
     <defs>
      <path id="IPAexGothic-6b21" d="M 3519 3750 
L 2950 3750 
Q 2678 3041 2231 2444 
L 1853 2772 
Q 2600 3756 2878 5184 
L 3353 5094 
Q 3241 4603 3103 4166 
L 5541 4166 
L 5841 3928 
Q 5406 2903 4906 2222 
L 4484 2481 
Q 4963 3072 5247 3750 
L 3994 3750 
L 3994 3263 
Q 3994 1384 6028 91 
L 5681 -353 
Q 4166 622 3794 2194 
Q 3669 1413 3391 922 
Q 2903 72 1931 -488 
L 1613 -72 
Q 3519 888 3519 3359 
L 3519 3750 
z
M 1438 3200 
Q 959 3884 509 4294 
L 881 4628 
Q 1413 4153 1841 3597 
L 1438 3200 
z
M 325 250 
Q 984 938 1600 2003 
L 1950 1656 
Q 1319 538 697 -184 
L 325 250 
z
" transform="scale(0.015625)"/>
      <path id="IPAexGothic-30c7" d="M 563 3072 
L 5741 3072 
L 5741 2613 
L 3578 2613 
Q 3538 1516 3134 872 
Q 2688 156 1663 -256 
L 1313 156 
Q 2338 538 2713 1166 
Q 3003 1644 3034 2613 
L 563 2613 
L 563 3072 
z
M 1406 4588 
L 4588 4588 
L 4588 4128 
L 1406 4128 
L 1406 4588 
z
M 6009 4469 
Q 5647 5009 5253 5338 
L 5553 5569 
Q 5938 5259 6328 4744 
L 6009 4469 
z
M 5413 4000 
Q 5125 4491 4678 4891 
L 4991 5131 
Q 5363 4825 5747 4275 
L 5413 4000 
z
" transform="scale(0.015625)"/>
      <path id="IPAexGothic-30fc" d="M 588 2688 
L 5809 2688 
L 5809 2175 
L 588 2175 
L 588 2688 
z
" transform="scale(0.015625)"/>
      <path id="IPAexGothic-30bf" d="M 4978 4263 
L 5313 3988 
Q 4797 2431 4056 1459 
Q 3191 325 1822 -300 
L 1466 109 
Q 2131 381 2613 738 
Q 3053 1066 3531 1600 
Q 2919 2225 2144 2791 
Q 1603 2203 1172 1875 
L 825 2234 
Q 2316 3328 2866 5031 
L 3359 4897 
Q 3325 4775 3109 4263 
L 4978 4263 
z
M 2894 3816 
Q 2709 3522 2438 3169 
Q 3194 2616 3841 2003 
Q 4366 2806 4747 3816 
L 2894 3816 
z
" transform="scale(0.015625)"/>
      <path id="IPAexGothic-3092" d="M 1094 4263 
Q 1544 4222 2359 4222 
Q 2581 4734 2700 5163 
L 3175 5028 
Q 2997 4538 2859 4256 
Q 3516 4284 4294 4459 
L 4356 4019 
Q 3603 3869 2656 3819 
Q 2391 3284 2059 2797 
Q 2531 3200 2963 3200 
Q 3638 3200 3859 2378 
Q 4556 2681 5338 2950 
L 5575 2528 
Q 4641 2253 3941 1956 
Q 3981 1678 3994 1028 
L 3513 991 
Q 3513 1456 3494 1753 
Q 2388 1194 2388 716 
Q 2388 428 2753 328 
Q 3066 241 3806 241 
Q 4394 241 5178 344 
L 5216 -128 
Q 4434 -213 3653 -213 
Q 2656 -213 2244 41 
Q 1913 244 1913 631 
Q 1913 1094 2344 1497 
Q 2709 1841 3428 2181 
Q 3266 2797 2878 2797 
Q 2238 2797 1209 1419 
L 838 1694 
Q 1625 2716 2163 3800 
Q 1522 3800 1088 3825 
L 1094 4263 
z
" transform="scale(0.015625)"/>
      <path id="IPAexGothic-9031" d="M 1703 728 
Q 1944 394 2356 247 
Q 2788 94 3891 94 
Q 4791 94 6119 172 
Q 6019 -84 5978 -300 
Q 4853 -341 4275 -341 
Q 2825 -341 2259 -153 
Q 1791 9 1519 391 
Q 1175 -28 647 -453 
L 366 13 
Q 916 350 1263 659 
L 1263 2303 
L 378 2303 
L 378 2731 
L 1703 2731 
L 1703 728 
z
M 4916 2509 
L 4916 1209 
L 3650 1209 
L 3650 891 
L 3253 891 
L 3253 2509 
L 4916 2509 
z
M 4519 2169 
L 3650 2169 
L 3650 1541 
L 4519 1541 
L 4519 2169 
z
M 5788 5056 
L 5788 863 
Q 5788 403 5294 403 
Q 4950 403 4616 441 
L 4544 878 
Q 4866 813 5159 813 
Q 5372 813 5372 997 
L 5372 4672 
L 2809 4672 
L 2809 3053 
Q 2809 1206 2375 403 
L 2009 716 
Q 2394 1438 2394 2753 
L 2394 5056 
L 5788 5056 
z
M 4269 4019 
L 5113 4019 
L 5113 3659 
L 4269 3659 
L 4269 3200 
L 5209 3200 
L 5209 2853 
L 2944 2853 
L 2944 3200 
L 3866 3200 
L 3866 3659 
L 3072 3659 
L 3072 4019 
L 3866 4019 
L 3866 4513 
L 4269 4513 
L 4269 4019 
z
M 1516 3775 
Q 1034 4359 563 4738 
L 878 5056 
Q 1484 4572 1856 4122 
L 1516 3775 
z
" transform="scale(0.015625)"/>
      <path id="IPAexGothic-5e73" d="M 3422 4428 
L 3422 1941 
L 6084 1941 
L 6084 1513 
L 3422 1513 
L 3422 -447 
L 2934 -447 
L 2934 1513 
L 322 1513 
L 322 1941 
L 2934 1941 
L 2934 4428 
L 641 4428 
L 641 4856 
L 5763 4856 
L 5763 4428 
L 3422 4428 
z
M 1728 2278 
Q 1488 3094 1081 3859 
L 1544 4038 
Q 1875 3422 2222 2472 
L 1728 2278 
z
M 4134 2425 
Q 4509 3138 4813 4128 
L 5306 3944 
Q 4984 3006 4569 2228 
L 4134 2425 
z
" transform="scale(0.015625)"/>
      <path id="IPAexGothic-5747" d="M 1206 3794 
L 1206 5144 
L 1659 5144 
L 1659 3794 
L 2369 3794 
L 2369 3372 
L 1659 3372 
L 1659 1325 
Q 2078 1513 2484 1722 
L 2566 1313 
Q 1556 775 559 397 
L 334 838 
Q 803 975 1206 1138 
L 1206 3372 
L 413 3372 
L 413 3794 
L 1206 3794 
z
M 3475 4244 
L 5844 4244 
Q 5834 1131 5619 184 
Q 5494 -366 4838 -366 
Q 4369 -366 3859 -306 
L 3769 184 
Q 4241 88 4731 88 
Q 5059 88 5147 306 
Q 5359 919 5369 3828 
L 3316 3828 
Q 3013 3119 2466 2472 
L 2150 2828 
Q 2944 3788 3259 5263 
L 3719 5147 
Q 3619 4663 3475 4244 
z
M 2975 2847 
L 4678 2847 
L 4678 2431 
L 2975 2431 
L 2975 2847 
z
M 2559 1044 
Q 3747 1338 4838 1797 
L 4891 1388 
Q 3831 891 2766 588 
L 2559 1044 
z
" transform="scale(0.015625)"/>
      <path id="IPAexGothic-3067" d="M 581 4034 
Q 2978 4363 5466 4556 
L 5509 4097 
Q 4388 4031 3750 3572 
Q 2797 2878 2797 1913 
Q 2797 1169 3291 819 
Q 3778 484 4869 416 
L 4906 -116 
Q 2278 0 2278 1850 
Q 2278 3125 3691 4000 
Q 2066 3784 684 3553 
L 581 4034 
z
M 5631 2522 
Q 5269 3063 4875 3391 
L 5175 3622 
Q 5559 3313 5950 2797 
L 5631 2522 
z
M 5034 2053 
Q 4747 2544 4300 2944 
L 4613 3184 
Q 4984 2878 5369 2328 
L 5034 2053 
z
" transform="scale(0.015625)"/>
      <path id="IPAexGothic-306a" d="M 3906 3147 
L 4372 3147 
Q 4381 2278 4444 1272 
Q 5244 1003 5838 631 
L 5556 222 
Q 4953 600 4463 813 
Q 4478 263 4234 22 
Q 3984 -225 3419 -225 
Q 2897 -225 2563 0 
Q 2216 231 2216 647 
Q 2216 1081 2656 1319 
Q 2959 1484 3297 1484 
Q 3638 1484 3969 1413 
Q 3916 2219 3906 3147 
z
M 3975 984 
Q 3631 1081 3297 1081 
Q 3031 1081 2856 978 
Q 2663 863 2663 653 
Q 2663 197 3400 197 
Q 3750 197 3875 378 
Q 3997 556 3975 984 
z
M 738 3928 
Q 1453 3884 1997 3938 
Q 2144 4381 2294 5125 
L 2784 5050 
Q 2684 4559 2516 3988 
Q 2969 4031 3559 4172 
L 3578 3713 
Q 2919 3575 2375 3531 
Q 1853 2028 1044 831 
L 603 1113 
Q 1325 2063 1856 3488 
Q 1063 3459 763 3475 
L 738 3928 
z
M 5538 2759 
Q 5000 3353 4263 3853 
L 4591 4191 
Q 5338 3728 5897 3128 
L 5538 2759 
z
" transform="scale(0.015625)"/>
      <path id="IPAexGothic-3089" d="M 3700 3928 
Q 2897 4478 2156 4750 
L 2381 5166 
Q 3147 4891 3956 4384 
L 3700 3928 
z
M 1344 1281 
Q 1450 2544 1747 4038 
L 2234 3928 
Q 1994 2856 1888 1844 
Q 2897 2688 3963 2688 
Q 4531 2688 4909 2450 
Q 5441 2122 5441 1516 
Q 5441 669 4569 213 
Q 3856 -169 2584 -238 
L 2363 250 
Q 3484 250 4213 588 
Q 4909 922 4909 1509 
Q 4909 1856 4647 2059 
Q 4366 2266 3897 2266 
Q 2853 2266 1766 1141 
L 1344 1281 
z
" transform="scale(0.015625)"/>
      <path id="IPAexGothic-3059" d="M 3322 5075 
L 3816 5075 
L 3816 4063 
Q 4131 4075 5756 4116 
L 5756 3669 
Q 5431 3672 3816 3653 
L 3816 2463 
Q 3956 2125 3956 1741 
Q 3956 922 3519 397 
Q 3128 -72 2309 -409 
L 1941 -31 
Q 3263 453 3488 1363 
Q 3250 1031 2809 1031 
Q 2441 1031 2150 1313 
Q 1875 1588 1875 2050 
Q 1875 2475 2166 2769 
Q 2431 3041 2822 3041 
Q 3088 3041 3322 2881 
L 3322 3641 
Q 3000 3634 609 3547 
L 609 3988 
Q 1197 4000 2106 4022 
Q 3066 4047 3322 4050 
L 3322 5075 
z
M 3372 2044 
Q 3372 2300 3194 2478 
Q 3050 2613 2869 2613 
Q 2622 2613 2463 2406 
Q 2344 2250 2344 2088 
Q 2344 1797 2484 1622 
Q 2625 1453 2859 1453 
Q 3372 1453 3372 2044 
z
" transform="scale(0.015625)"/>
     </defs>
     <use xlink:href="#IPAexGothic-65e5"/>
     <use xlink:href="#IPAexGothic-6b21" transform="translate(100 0)"/>
     <use xlink:href="#IPAexGothic-30c7" transform="translate(200 0)"/>
     <use xlink:href="#IPAexGothic-30fc" transform="translate(300 0)"/>
     <use xlink:href="#IPAexGothic-30bf" transform="translate(400 0)"/>
     <use xlink:href="#IPAexGothic-3092" transform="translate(500 0)"/>
     <use xlink:href="#IPAexGothic-9031" transform="translate(600 0)"/>
     <use xlink:href="#IPAexGothic-6b21" transform="translate(700 0)"/>
     <use xlink:href="#IPAexGothic-5e73" transform="translate(800 0)"/>
     <use xlink:href="#IPAexGothic-5747" transform="translate(900 0)"/>
     <use xlink:href="#IPAexGothic-3067" transform="translate(1000 0)"/>
     <use xlink:href="#IPAexGothic-306a" transform="translate(1100 0)"/>
     <use xlink:href="#IPAexGothic-3089" transform="translate(1200 0)"/>
     <use xlink:href="#IPAexGothic-3059" transform="translate(1300 0)"/>
    </g>
   </g>
   <g id="legend_1">
    <g id="patch_3">
     <path d="M 69.5 85.4175 
L 155.9 85.4175 
Q 158.3 85.4175 158.3 83.0175 
L 158.3 44.88 
Q 158.3 42.48 155.9 42.48 
L 69.5 42.48 
Q 67.1 42.48 67.1 44.88 
L 67.1 83.0175 
Q 67.1 85.4175 69.5 85.4175 
z
" style="fill: #ffffff; opacity: 0.8; stroke: #cccccc; stroke-linejoin: miter"/>
    </g>
    <g id="line2d_33">
     <path d="M 71.9 52.06875 
L 83.9 52.06875 
L 95.9 52.06875 
" style="fill: none; stroke: #cbd5f5; stroke-width: 0.9; stroke-linecap: square"/>
    </g>
    <g id="text_19">
     <!-- 日次 -->
     <g transform="translate(105.5 56.26875) scale(0.12 -0.12)">
      <use xlink:href="#IPAexGothic-65e5"/>
      <use xlink:href="#IPAexGothic-6b21" transform="translate(100 0)"/>
     </g>
    </g>
    <g id="line2d_34">
     <path d="M 71.9 74.1375 
L 83.9 74.1375 
L 95.9 74.1375 
" style="fill: none; stroke: #2563eb; stroke-width: 2; stroke-linecap: square"/>
     <defs>
      <path id="md009f38b82" d="M 0 8 
C 2.121625 8 4.156639 7.15707 5.656854 5.656854 
C 7.15707 4.156639 8 2.121625 8 0 
C 8 -2.121625 7.15707 -4.156639 5.656854 -5.656854 
C 4.156639 -7.15707 2.121625 -8 0 -8 
C -2.121625 -8 -4.156639 -7.15707 -5.656854 -5.656854 
C -7.15707 -4.156639 -8 -2.121625 -8 0 
C -8 2.121625 -7.15707 4.156639 -5.656854 5.656854 
C -4.156639 7.15707 -2.121625 8 0 8 
z
" style="stroke: #2563eb"/>
     </defs>
     <g>
      <use xlink:href="#md009f38b82" x="83.9" y="74.1375" style="fill: #2563eb; stroke: #2563eb"/>
     </g>
    </g>
    <g id="text_20">
     <!-- 週次平均 -->
     <g transform="translate(105.5 78.3375) scale(0.12 -0.12)">
      <use xlink:href="#IPAexGothic-9031"/>
      <use xlink:href="#IPAexGothic-6b21" transform="translate(100 0)"/>
      <use xlink:href="#IPAexGothic-5e73" transform="translate(200 0)"/>
      <use xlink:href="#IPAexGothic-5747" transform="translate(300 0)"/>
     </g>
    </g>
   </g>
  </g>
 </g>
 <defs>
  <clipPath id="p77d09b6714">
   <rect x="55.1" y="30.48" width="435.109545" height="211.96"/>
  </clipPath>
 </defs>
</svg>
