<?xml version="1.0" encoding="utf-8" standalone="no"?>
<!DOCTYPE svg PUBLIC "-//W3C//DTD SVG 1.1//EN"
  "http://www.w3.org/Graphics/SVG/1.1/DTD/svg11.dtd">
<svg xmlns:xlink="http://www.w3.org/1999/xlink" width="504pt" height="288pt" viewBox="0 0 504 288" xmlns="http://www.w3.org/2000/svg" version="1.1">
 <metadata>
  <rdf:RDF xmlns:dc="http://purl.org/dc/elements/1.1/" xmlns:cc="http://creativecommons.org/ns#" xmlns:rdf="http://www.w3.org/1999/02/22-rdf-syntax-ns#">
   <cc:Work>
    <dc:type rdf:resource="http://purl.org/dc/dcmitype/StillImage"/>
    <dc:date>2025-10-27T10:38:10.092137</dc:date>
    <dc:format>image/svg+xml</dc:format>
    <dc:creator>
     <cc:Agent>
      <dc:title>Matplotlib v3.10.7, https://matplotlib.org/</dc:title>
     </cc:Agent>
    </dc:creator>
   </cc:Work>
  </rdf:RDF>
 </metadata>
 <defs>
  <style type="text/css">*{stroke-linejoin: round; stroke-linecap: butt}</style>
 </defs>
 <g id="figure_1">
  <g id="patch_1">
   <path d="M 0 288 
L 504 288 
L 504 0 
L 0 0 
z
" style="fill: #ffffff"/>
  </g>
  <g id="axes_1">
   <g id="patch_2">
    <path d="M 55.1 242.44 
L 493.2 242.44 
L 493.2 30.48 
L 55.1 30.48 
z
" style="fill: #ffffff"/>
   </g>
   <g id="FillBetweenPolyCollection_1">
    <defs>
     <path id="m1c85c2a1d1" d="M 89.02323 -108.231463 
L 89.02323 -74.766033 
L 91.0246 -70.521572 
L 93.025971 -67.437188 
L 95.027341 -63.971649 
L 97.028712 -61.392917 
L 99.030082 -59.318423 
L 101.031453 -59.1421 
L 103.032823 -59.264249 
L 105.034194 -59.967098 
L 107.035564 -58.396234 
L 109.036935 -56.99435 
L 111.038305 -57.340836 
L 113.039676 -58.049584 
L 115.041046 -60.889587 
L 117.042417 -64.523019 
L 119.043787 -69.934147 
L 121.045158 -74.110133 
L 123.046528 -79.812609 
L 125.047899 -82.659144 
L 127.049269 -85.349214 
L 129.05064 -87.984531 
L 131.05201 -86.295856 
L 133.053381 -83.918203 
L 135.054751 -79.265572 
L 137.056122 -74.366986 
L 139.057492 -73.977052 
L 141.058862 -73.647779 
L 143.060233 -73.241216 
L 145.061603 -73.342448 
L 147.062974 -73.03284 
L 149.064344 -72.796832 
L 151.065715 -72.019247 
L 153.067085 -73.622554 
L 155.068456 -76.208944 
L 157.069826 -77.39104 
L 159.071197 -80.890687 
L 161.072567 -85.003226 
L 163.073938 -91.004536 
L 165.075308 -97.621047 
L 167.076679 -100.100417 
L 169.078049 -98.077053 
L 171.07942 -98.758359 
L 173.08079 -93.469556 
L 175.082161 -91.451747 
L 177.083531 -89.050328 
L 179.084902 -86.017009 
L 181.086272 -85.548464 
L 183.087643 -85.91657 
L 185.089013 -85.809267 
L 187.090384 -86.052249 
L 189.091754 -85.914292 
L 191.093125 -84.75896 
L 193.094495 -86.323196 
L 195.095866 -87.393694 
L 197.097236 -91.493996 
L 199.098607 -94.169539 
L 201.099977 -101.589281 
L 203.101348 -105.538995 
L 205.102718 -108.954633 
L 207.104089 -112.005355 
L 209.105459 -113.059027 
L 211.10683 -110.674022 
L 213.1082 -108.394431 
L 215.109571 -104.88763 
L 217.110941 -100.244145 
L 219.112312 -98.882571 
L 221.113682 -98.196221 
L 223.115053 -98.677181 
L 225.116423 -99.349983 
L 227.117794 -99.553099 
L 229.119164 -99.33214 
L 231.120534 -97.398694 
L 233.121905 -97.910925 
L 235.123275 -101.384141 
L 237.124646 -103.990778 
L 239.126016 -108.306291 
L 241.127387 -112.121465 
L 243.128757 -118.222782 
L 245.130128 -125.983241 
L 247.131498 -127.871755 
L 249.132869 -127.311554 
L 251.134239 -125.464576 
L 253.13561 -116.723723 
L 255.13698 -114.398445 
L 257.138351 -112.277251 
L 259.139721 -109.278575 
L 261.141092 -109.426595 
L 263.142462 -109.257007 
L 265.143833 -109.06917 
L 267.145203 -108.932435 
L 269.146574 -107.924209 
L 271.147944 -106.840154 
L 273.149315 -107.740818 
L 275.150685 -110.423701 
L 277.152056 -114.182803 
L 279.153426 -117.235222 
L 281.154797 -126.921913 
L 283.156167 -131.520128 
L 285.157538 -135.307867 
L 287.158908 -139.860095 
L 289.160279 -139.961307 
L 291.161649 -138.119128 
L 293.16302 -133.868944 
L 295.16439 -129.234119 
L 297.165761 -127.242202 
L 299.167131 -125.226085 
L 301.168502 -125.67776 
L 303.169872 -125.438298 
L 305.171243 -125.288099 
L 307.172613 -126.612188 
L 309.173984 -124.585751 
L 311.175354 -122.123489 
L 313.176725 -123.455844 
L 315.178095 -126.208773 
L 317.179466 -128.692251 
L 319.180836 -133.03421 
L 321.182206 -137.792508 
L 323.183577 -143.726991 
L 325.184947 -146.983741 
L 327.186318 -150.056604 
L 329.187688 -148.809681 
L 331.189059 -144.776784 
L 333.190429 -141.578441 
L 335.1918 -139.919487 
L 337.19317 -136.25099 
L 339.194541 -137.23366 
L 341.195911 -136.304963 
L 343.197282 -136.169538 
L 345.198652 -135.720748 
L 347.200023 -135.106117 
L 349.201393 -134.453863 
L 351.202764 -134.061092 
L 353.204134 -134.693604 
L 355.205505 -137.412442 
L 357.206875 -140.506308 
L 359.208246 -145.380968 
L 361.209616 -151.290469 
L 363.210987 -157.262223 
L 365.212357 -162.298426 
L 367.213728 -162.050995 
L 369.215098 -161.580146 
L 371.216469 -159.818735 
L 373.217839 -158.103785 
L 375.21921 -152.898505 
L 377.22058 -150.77385 
L 379.221951 -147.057735 
L 381.223321 -146.813185 
L 383.224692 -147.003573 
L 385.226062 -147.478831 
L 387.227433 -147.46956 
L 389.228803 -146.827514 
L 391.230174 -145.773835 
L 393.231544 -146.930168 
L 395.232915 -149.955611 
L 397.234285 -155.277121 
L 399.235656 -160.65562 
L 401.237026 -163.294058 
L 403.238397 -170.411528 
L 405.239767 -173.838027 
L 407.241138 -180.455361 
L 409.242508 -179.942298 
L 411.243878 -172.639942 
L 413.245249 -170.750475 
L 415.246619 -166.819848 
L 417.24799 -162.492196 
L 419.24936 -161.608549 
L 421.250731 -161.835233 
L 423.252101 -163.572084 
L 425.253472 -163.796298 
L 427.254842 -163.731378 
L 429.256213 -160.379259 
L 431.257583 -160.567622 
L 433.258954 -162.156264 
L 435.260324 -164.947344 
L 437.261695 -168.639512 
L 439.263065 -176.034593 
L 441.264436 -180.095158 
L 443.265806 -185.978874 
L 445.267177 -194.288044 
L 447.268547 -196.435464 
L 449.269918 -187.082939 
L 451.271288 -184.213247 
L 453.272659 -178.048151 
L 455.274029 -176.905827 
L 457.2754 -175.780891 
L 459.27677 -175.535639 
L 461.278141 -174.417249 
L 461.278141 -212.94806 
L 461.278141 -212.94806 
L 459.27677 -215.538627 
L 457.2754 -220.475987 
L 455.274029 -228.190318 
L 453.272659 -228.881366 
L 451.271288 -229.039471 
L 449.269918 -229.217218 
L 447.268547 -226.191724 
L 445.267177 -226.564514 
L 443.265806 -228.211568 
L 441.264436 -228.887635 
L 439.263065 -227.433428 
L 437.261695 -227.316478 
L 435.260324 -223.47281 
L 433.258954 -219.973379 
L 431.257583 -216.875536 
L 429.256213 -210.675141 
L 427.254842 -199.81698 
L 425.253472 -198.914616 
L 423.252101 -199.849344 
L 421.250731 -206.084282 
L 419.24936 -209.202267 
L 417.24799 -213.121042 
L 415.246619 -215.800098 
L 413.245249 -216.506786 
L 411.243878 -216.926421 
L 409.242508 -215.661479 
L 407.241138 -215.543521 
L 405.239767 -217.869907 
L 403.238397 -218.092254 
L 401.237026 -218.608925 
L 399.235656 -217.273768 
L 397.234285 -215.588903 
L 395.232915 -211.686166 
L 393.231544 -203.090217 
L 391.230174 -196.029639 
L 389.228803 -190.119444 
L 387.227433 -184.238419 
L 385.226062 -184.198723 
L 383.224692 -186.250556 
L 381.223321 -187.259855 
L 379.221951 -190.237307 
L 377.22058 -194.973741 
L 375.21921 -197.571929 
L 373.217839 -198.664632 
L 371.216469 -200.522948 
L 369.215098 -200.181173 
L 367.213728 -200.037902 
L 365.212357 -199.972854 
L 363.210987 -201.224567 
L 361.209616 -200.524789 
L 359.208246 -200.430795 
L 357.206875 -197.309701 
L 355.205505 -192.537206 
L 353.204134 -187.658441 
L 351.202764 -183.187988 
L 349.201393 -176.537825 
L 347.200023 -171.971049 
L 345.198652 -168.928319 
L 343.197282 -167.897591 
L 341.195911 -169.950143 
L 339.194541 -173.008522 
L 337.19317 -182.291388 
L 335.1918 -185.859035 
L 333.190429 -185.885944 
L 331.189059 -185.541729 
L 329.187688 -186.318778 
L 327.186318 -186.262098 
L 325.184947 -187.131167 
L 323.183577 -187.023235 
L 321.182206 -187.396205 
L 319.180836 -186.440469 
L 317.179466 -184.668344 
L 315.178095 -179.86458 
L 313.176725 -176.763939 
L 311.175354 -173.26469 
L 309.173984 -161.191427 
L 307.172613 -154.860972 
L 305.171243 -160.821909 
L 303.169872 -161.329114 
L 301.168502 -160.114433 
L 299.167131 -163.980468 
L 297.165761 -169.857238 
L 295.16439 -173.171689 
L 293.16302 -174.082285 
L 291.161649 -174.843195 
L 289.160279 -174.444837 
L 287.158908 -174.456067 
L 285.157538 -175.950338 
L 283.156167 -176.304507 
L 281.154797 -176.634184 
L 279.153426 -176.854591 
L 277.152056 -171.574469 
L 275.150685 -169.446431 
L 273.149315 -165.882942 
L 271.147944 -160.157774 
L 269.146574 -153.545873 
L 267.145203 -148.977808 
L 265.143833 -148.330064 
L 263.142462 -147.566638 
L 261.141092 -149.823255 
L 259.139721 -154.274423 
L 257.138351 -159.24825 
L 255.13698 -160.418913 
L 253.13561 -160.702569 
L 251.134239 -159.224426 
L 249.132869 -159.392416 
L 247.131498 -159.211167 
L 245.130128 -159.761352 
L 243.128757 -161.792525 
L 241.127387 -161.125955 
L 239.126016 -159.096867 
L 237.124646 -155.793104 
L 235.123275 -151.804043 
L 233.121905 -147.688398 
L 231.120534 -140.374276 
L 229.119164 -133.877325 
L 227.117794 -132.425052 
L 225.116423 -131.285952 
L 223.115053 -133.39998 
L 221.113682 -135.529903 
L 219.112312 -138.627642 
L 217.110941 -142.417274 
L 215.109571 -143.32688 
L 213.1082 -143.635706 
L 211.10683 -144.290559 
L 209.105459 -144.034916 
L 207.104089 -144.227066 
L 205.102718 -145.342969 
L 203.101348 -145.873511 
L 201.099977 -144.341125 
L 199.098607 -143.442248 
L 197.097236 -142.336464 
L 195.095866 -136.999015 
L 193.094495 -131.421373 
L 191.093125 -126.042258 
L 189.091754 -120.01358 
L 187.090384 -119.418917 
L 185.089013 -120.568594 
L 183.087643 -120.004802 
L 181.086272 -122.757414 
L 179.084902 -126.680105 
L 177.083531 -129.984455 
L 175.082161 -131.303087 
L 173.08079 -132.607716 
L 171.07942 -131.680769 
L 169.078049 -131.800477 
L 167.076679 -131.281223 
L 165.075308 -131.647634 
L 163.073938 -133.816667 
L 161.072567 -133.595576 
L 159.071197 -130.938846 
L 157.069826 -127.165021 
L 155.068456 -124.2852 
L 153.067085 -118.940399 
L 151.065715 -112.392529 
L 149.064344 -109.697366 
L 147.062974 -107.824422 
L 145.061603 -106.601003 
L 143.060233 -107.713325 
L 141.058862 -111.202554 
L 139.057492 -111.86773 
L 137.056122 -112.130512 
L 135.054751 -116.002531 
L 133.053381 -118.615412 
L 131.05201 -118.726937 
L 129.05064 -118.547901 
L 127.049269 -118.580811 
L 125.047899 -119.383514 
L 123.046528 -120.109841 
L 121.045158 -117.835709 
L 119.043787 -116.102592 
L 117.042417 -113.18383 
L 115.041046 -109.524526 
L 113.039676 -104.223822 
L 111.038305 -101.921888 
L 109.036935 -101.089406 
L 107.035564 -95.405486 
L 105.034194 -91.206229 
L 103.032823 -93.760663 
L 101.031453 -95.524329 
L 99.030082 -100.154328 
L 97.028712 -105.174892 
L 95.027341 -106.194849 
L 93.025971 -107.853877 
L 91.0246 -108.897427 
L 89.02323 -108.231463 
z
" style="stroke: #93c5fd; stroke-opacity: 0.35"/>
    </defs>
    <g clip-path="url(#p872051c8d8)">
     <use xlink:href="#m1c85c2a1d1" x="0" y="288" style="fill: #93c5fd; fill-opacity: 0.35; stroke: #93c5fd; stroke-opacity: 0.35"/>
    </g>
   </g>
   <g id="matplotlib.axis_1">
    <g id="xtick_1">
     <g id="line2d_1">
      <path d="M 75.013636 242.44 
L 75.013636 30.48 
" clip-path="url(#p872051c8d8)" style="fill: none; stroke: #000000; stroke-opacity: 0.3; stroke-width: 0.5; stroke-linecap: square"/>
     </g>
     <g id="line2d_2">
      <defs>
       <path id="mac1bd2a0ff" d="M 0 0 
L 0 3.5 
" style="stroke: #000000; stroke-width: 0.8"/>
      </defs>
      <g>
       <use xlink:href="#mac1bd2a0ff" x="75.013636" y="242.44" style="stroke: #000000; stroke-width: 0.8"/>
      </g>
     </g>
     <g id="text_1">
      <!-- 2021-01 -->
      <g transform="translate(54.32848 256.930625) scale(0.1 -0.1)">
       <defs>
        <path id="IPAexGothic-32" d="M 3659 63 
L 447 63 
L 447 594 
Q 825 1475 1894 2203 
L 2072 2322 
Q 2619 2697 2791 2906 
Q 2988 3153 2988 3444 
Q 2988 3772 2756 4003 
Q 2500 4259 2084 4259 
Q 1250 4259 991 3328 
L 497 3506 
Q 853 4725 2116 4725 
Q 2806 4725 3216 4316 
Q 3575 3947 3575 3425 
Q 3575 3038 3344 2722 
Q 3131 2416 2366 1938 
L 2231 1856 
Q 1256 1253 978 569 
L 3659 569 
L 3659 63 
z
" transform="scale(0.015625)"/>
        <path id="IPAexGothic-30" d="M 2038 4725 
Q 2881 4725 3334 3944 
Q 3694 3325 3694 2344 
Q 3694 1372 3334 741 
Q 2888 -31 2016 -31 
Q 1147 -31 700 741 
Q 341 1372 341 2350 
Q 341 3713 1000 4334 
Q 1419 4725 2038 4725 
z
M 2016 4266 
Q 1516 4266 1228 3759 
Q 934 3247 934 2344 
Q 934 1456 1222 947 
Q 1513 447 2016 447 
Q 2619 447 2909 1153 
Q 3100 1622 3100 2375 
Q 3100 3256 2806 3759 
Q 2509 4266 2016 4266 
z
" transform="scale(0.015625)"/>
        <path id="IPAexGothic-31" d="M 2463 63 
L 1900 63 
L 1900 4103 
Q 1372 3922 788 3797 
L 684 4231 
Q 1519 4441 2106 4731 
L 2463 4731 
L 2463 63 
z
" transform="scale(0.015625)"/>
        <path id="IPAexGothic-2d" d="M 1969 1703 
L 319 1703 
L 319 2203 
L 1969 2203 
L 1969 1703 
z
" transform="scale(0.015625)"/>
       </defs>
       <use xlink:href="#IPAexGothic-32"/>
       <use xlink:href="#IPAexGothic-30" transform="translate(62.988281 0)"/>
       <use xlink:href="#IPAexGothic-32" transform="translate(125.976562 0)"/>
       <use xlink:href="#IPAexGothic-31" transform="translate(188.964844 0)"/>
       <use xlink:href="#IPAexGothic-2d" transform="translate(251.953125 0)"/>
       <use xlink:href="#IPAexGothic-30" transform="translate(287.744141 0)"/>
       <use xlink:href="#IPAexGothic-31" transform="translate(350.732422 0)"/>
      </g>
     </g>
    </g>
    <g id="xtick_2">
     <g id="line2d_3">
      <path d="M 137.056122 242.44 
L 137.056122 30.48 
" clip-path="url(#p872051c8d8)" style="fill: none; stroke: #000000; stroke-opacity: 0.3; stroke-width: 0.5; stroke-linecap: square"/>
     </g>
     <g id="line2d_4">
      <g>
       <use xlink:href="#mac1bd2a0ff" x="137.056122" y="242.44" style="stroke: #000000; stroke-width: 0.8"/>
      </g>
     </g>
     <g id="text_2">
      <!-- 2021-02 -->
      <g transform="translate(116.370965 256.930625) scale(0.1 -0.1)">
       <use xlink:href="#IPAexGothic-32"/>
       <use xlink:href="#IPAexGothic-30" transform="translate(62.988281 0)"/>
       <use xlink:href="#IPAexGothic-32" transform="translate(125.976562 0)"/>
       <use xlink:href="#IPAexGothic-31" transform="translate(188.964844 0)"/>
       <use xlink:href="#IPAexGothic-2d" transform="translate(251.953125 0)"/>
       <use xlink:href="#IPAexGothic-30" transform="translate(287.744141 0)"/>
       <use xlink:href="#IPAexGothic-32" transform="translate(350.732422 0)"/>
      </g>
     </g>
    </g>
    <g id="xtick_3">
     <g id="line2d_5">
      <path d="M 193.094495 242.44 
L 193.094495 30.48 
" clip-path="url(#p872051c8d8)" style="fill: none; stroke: #000000; stroke-opacity: 0.3; stroke-width: 0.5; stroke-linecap: square"/>
     </g>
     <g id="line2d_6">
      <g>
       <use xlink:href="#mac1bd2a0ff" x="193.094495" y="242.44" style="stroke: #000000; stroke-width: 0.8"/>
      </g>
     </g>
     <g id="text_3">
      <!-- 2021-03 -->
      <g transform="translate(172.409339 256.930625) scale(0.1 -0.1)">
       <defs>
        <path id="IPAexGothic-33" d="M 2381 2419 
Q 3506 2216 3506 1278 
Q 3506 716 3128 356 
Q 2709 -31 1944 -31 
Q 797 -31 288 881 
L 756 1131 
Q 1109 441 1938 441 
Q 2425 441 2694 691 
Q 2950 928 2950 1291 
Q 2950 1719 2566 1978 
Q 2216 2213 1644 2213 
L 1363 2213 
L 1363 2669 
L 1656 2669 
Q 2231 2669 2534 2888 
Q 2859 3119 2859 3509 
Q 2859 3934 2494 4138 
Q 2259 4278 1931 4278 
Q 1238 4278 903 3578 
L 434 3803 
Q 897 4725 1938 4725 
Q 2597 4725 3006 4394 
Q 3416 4069 3416 3534 
Q 3416 3028 3019 2706 
Q 2763 2500 2381 2444 
L 2381 2419 
z
" transform="scale(0.015625)"/>
       </defs>
       <use xlink:href="#IPAexGothic-32"/>
       <use xlink:href="#IPAexGothic-30" transform="translate(62.988281 0)"/>
       <use xlink:href="#IPAexGothic-32" transform="translate(125.976562 0)"/>
       <use xlink:href="#IPAexGothic-31" transform="translate(188.964844 0)"/>
       <use xlink:href="#IPAexGothic-2d" transform="translate(251.953125 0)"/>
       <use xlink:href="#IPAexGothic-30" transform="translate(287.744141 0)"/>
       <use xlink:href="#IPAexGothic-33" transform="translate(350.732422 0)"/>
      </g>
     </g>
    </g>
    <g id="xtick_4">
     <g id="line2d_7">
      <path d="M 255.13698 242.44 
L 255.13698 30.48 
" clip-path="url(#p872051c8d8)" style="fill: none; stroke: #000000; stroke-opacity: 0.3; stroke-width: 0.5; stroke-linecap: square"/>
     </g>
     <g id="line2d_8">
      <g>
       <use xlink:href="#mac1bd2a0ff" x="255.13698" y="242.44" style="stroke: #000000; stroke-width: 0.8"/>
      </g>
     </g>
     <g id="text_4">
      <!-- 2021-04 -->
      <g transform="translate(234.451824 256.930625) scale(0.1 -0.1)">
       <defs>
        <path id="IPAexGothic-34" d="M 3813 1159 
L 3059 1159 
L 3059 63 
L 2547 63 
L 2547 1159 
L 197 1159 
L 197 1672 
L 2456 4678 
L 3059 4678 
L 3059 1634 
L 3813 1634 
L 3813 1159 
z
M 2578 4109 
L 2559 4109 
Q 2278 3656 2003 3284 
L 759 1634 
L 2547 1634 
L 2547 3144 
Q 2547 3481 2578 4109 
z
" transform="scale(0.015625)"/>
       </defs>
       <use xlink:href="#IPAexGothic-32"/>
       <use xlink:href="#IPAexGothic-30" transform="translate(62.988281 0)"/>
       <use xlink:href="#IPAexGothic-32" transform="translate(125.976562 0)"/>
       <use xlink:href="#IPAexGothic-31" transform="translate(188.964844 0)"/>
       <use xlink:href="#IPAexGothic-2d" transform="translate(251.953125 0)"/>
       <use xlink:href="#IPAexGothic-30" transform="translate(287.744141 0)"/>
       <use xlink:href="#IPAexGothic-34" transform="translate(350.732422 0)"/>
      </g>
     </g>
    </g>
    <g id="xtick_5">
     <g id="line2d_9">
      <path d="M 315.178095 242.44 
L 315.178095 30.48 
" clip-path="url(#p872051c8d8)" style="fill: none; stroke: #000000; stroke-opacity: 0.3; stroke-width: 0.5; stroke-linecap: square"/>
     </g>
     <g id="line2d_10">
      <g>
       <use xlink:href="#mac1bd2a0ff" x="315.178095" y="242.44" style="stroke: #000000; stroke-width: 0.8"/>
      </g>
     </g>
     <g id="text_5">
      <!-- 2021-05 -->
      <g transform="translate(294.492939 256.930625) scale(0.1 -0.1)">
       <defs>
        <path id="IPAexGothic-35" d="M 1178 2603 
Q 1634 2963 2172 2963 
Q 2816 2963 3241 2528 
Q 3638 2113 3638 1497 
Q 3638 938 3297 513 
Q 2869 -31 2031 -31 
Q 959 -31 469 784 
L 938 1028 
Q 1309 434 2013 434 
Q 2466 434 2769 716 
Q 3081 1013 3081 1503 
Q 3081 1966 2806 2241 
Q 2519 2528 2056 2528 
Q 1406 2528 1072 2028 
L 591 2091 
L 884 4634 
L 3406 4634 
L 3406 4153 
L 1341 4153 
L 1134 2603 
L 1178 2603 
z
" transform="scale(0.015625)"/>
       </defs>
       <use xlink:href="#IPAexGothic-32"/>
       <use xlink:href="#IPAexGothic-30" transform="translate(62.988281 0)"/>
       <use xlink:href="#IPAexGothic-32" transform="translate(125.976562 0)"/>
       <use xlink:href="#IPAexGothic-31" transform="translate(188.964844 0)"/>
       <use xlink:href="#IPAexGothic-2d" transform="translate(251.953125 0)"/>
       <use xlink:href="#IPAexGothic-30" transform="translate(287.744141 0)"/>
       <use xlink:href="#IPAexGothic-35" transform="translate(350.732422 0)"/>
      </g>
     </g>
    </g>
    <g id="xtick_6">
     <g id="line2d_11">
      <path d="M 377.22058 242.44 
L 377.22058 30.48 
" clip-path="url(#p872051c8d8)" style="fill: none; stroke: #000000; stroke-opacity: 0.3; stroke-width: 0.5; stroke-linecap: square"/>
     </g>
     <g id="line2d_12">
      <g>
       <use xlink:href="#mac1bd2a0ff" x="377.22058" y="242.44" style="stroke: #000000; stroke-width: 0.8"/>
      </g>
     </g>
     <g id="text_6">
      <!-- 2021-06 -->
      <g transform="translate(356.535424 256.930625) scale(0.1 -0.1)">
       <defs>
        <path id="IPAexGothic-36" d="M 1056 2328 
Q 1509 2981 2234 2981 
Q 2906 2981 3316 2513 
Q 3675 2106 3675 1522 
Q 3675 884 3272 434 
Q 2853 -31 2178 -31 
Q 1375 -31 922 581 
Q 481 1178 481 2228 
Q 481 3425 1013 4109 
Q 1494 4725 2272 4725 
Q 3191 4725 3609 4025 
L 3150 3775 
Q 2894 4266 2300 4266 
Q 1119 4266 1031 2328 
L 1056 2328 
z
M 2141 2547 
Q 1684 2547 1384 2206 
Q 1116 1900 1116 1541 
Q 1116 1156 1353 844 
Q 1672 428 2159 428 
Q 2669 428 2941 844 
Q 3125 1128 3125 1503 
Q 3125 1944 2881 2228 
Q 2600 2547 2141 2547 
z
" transform="scale(0.015625)"/>
       </defs>
       <use xlink:href="#IPAexGothic-32"/>
       <use xlink:href="#IPAexGothic-30" transform="translate(62.988281 0)"/>
       <use xlink:href="#IPAexGothic-32" transform="translate(125.976562 0)"/>
       <use xlink:href="#IPAexGothic-31" transform="translate(188.964844 0)"/>
       <use xlink:href="#IPAexGothic-2d" transform="translate(251.953125 0)"/>
       <use xlink:href="#IPAexGothic-30" transform="translate(287.744141 0)"/>
       <use xlink:href="#IPAexGothic-36" transform="translate(350.732422 0)"/>
      </g>
     </g>
    </g>
    <g id="xtick_7">
     <g id="line2d_13">
      <path d="M 437.261695 242.44 
L 437.261695 30.48 
" clip-path="url(#p872051c8d8)" style="fill: none; stroke: #000000; stroke-opacity: 0.3; stroke-width: 0.5; stroke-linecap: square"/>
     </g>
     <g id="line2d_14">
      <g>
       <use xlink:href="#mac1bd2a0ff" x="437.261695" y="242.44" style="stroke: #000000; stroke-width: 0.8"/>
      </g>
     </g>
     <g id="text_7">
      <!-- 2021-07 -->
      <g transform="translate(416.576539 256.930625) scale(0.1 -0.1)">
       <defs>
        <path id="IPAexGothic-37" d="M 3597 4263 
Q 2238 2106 1778 63 
L 1131 63 
Q 1581 1834 2950 4128 
L 428 4128 
L 428 4634 
L 3597 4634 
L 3597 4263 
z
" transform="scale(0.015625)"/>
       </defs>
       <use xlink:href="#IPAexGothic-32"/>
       <use xlink:href="#IPAexGothic-30" transform="translate(62.988281 0)"/>
       <use xlink:href="#IPAexGothic-32" transform="translate(125.976562 0)"/>
       <use xlink:href="#IPAexGothic-31" transform="translate(188.964844 0)"/>
       <use xlink:href="#IPAexGothic-2d" transform="translate(251.953125 0)"/>
       <use xlink:href="#IPAexGothic-30" transform="translate(287.744141 0)"/>
       <use xlink:href="#IPAexGothic-37" transform="translate(350.732422 0)"/>
      </g>
     </g>
    </g>
    <g id="text_8">
     <!-- 日付 -->
     <g transform="translate(259.75 273.617125) scale(0.144 -0.144)">
      <defs>
       <path id="IPAexGothic-65e5" d="M 5231 4800 
L 5231 -288 
L 4744 -288 
L 4744 128 
L 1647 128 
L 1647 -288 
L 1159 -288 
L 1159 4800 
L 5231 4800 
z
M 1647 4372 
L 1647 2731 
L 4744 2731 
L 4744 4372 
L 1647 4372 
z
M 1647 2297 
L 1647 556 
L 4744 556 
L 4744 2297 
L 1647 2297 
z
" transform="scale(0.015625)"/>
       <path id="IPAexGothic-4ed8" d="M 1681 3769 
L 1681 -447 
L 1213 -447 
L 1213 2822 
Q 913 2313 578 1863 
L 316 2253 
Q 1241 3463 1653 5184 
L 2128 5069 
Q 1928 4378 1719 3859 
L 1681 3769 
z
M 5084 3816 
L 5991 3816 
L 5991 3388 
L 5109 3388 
L 5109 213 
Q 5109 -78 5006 -191 
Q 4888 -319 4525 -319 
Q 4031 -319 3513 -266 
L 3431 238 
Q 3978 141 4403 141 
Q 4634 141 4634 384 
L 4634 3388 
L 2028 3388 
L 2028 3816 
L 4609 3816 
L 4609 5153 
L 5084 5153 
L 5084 3816 
z
M 3431 1172 
Q 3034 1994 2547 2566 
L 2931 2822 
Q 3428 2231 3853 1472 
L 3431 1172 
z
" transform="scale(0.015625)"/>
      </defs>
      <use xlink:href="#IPAexGothic-65e5"/>
      <use xlink:href="#IPAexGothic-4ed8" transform="translate(100 0)"/>
     </g>
    </g>
   </g>
   <g id="matplotlib.axis_2">
    <g id="ytick_1">
     <g id="line2d_15">
      <path d="M 55.1 238.604797 
L 493.2 238.604797 
" clip-path="url(#p872051c8d8)" style="fill: none; stroke: #000000; stroke-opacity: 0.3; stroke-width: 0.5; stroke-linecap: square"/>
     </g>
     <g id="line2d_16">
      <defs>
       <path id="md9ee961d82" d="M 0 0 
L -3.5 0 
" style="stroke: #000000; stroke-width: 0.8"/>
      </defs>
      <g>
       <use xlink:href="#md9ee961d82" x="55.1" y="238.604797" style="stroke: #000000; stroke-width: 0.8"/>
      </g>
     </g>
     <g id="text_9">
      <!-- 75 -->
      <g transform="translate(35.503125 242.35011) scale(0.1 -0.1)">
       <use xlink:href="#IPAexGothic-37"/>
       <use xlink:href="#IPAexGothic-35" transform="translate(62.988281 0)"/>
      </g>
     </g>
    </g>
    <g id="ytick_2">
     <g id="line2d_17">
      <path d="M 55.1 211.16924 
L 493.2 211.16924 
" clip-path="url(#p872051c8d8)" style="fill: none; stroke: #000000; stroke-opacity: 0.3; stroke-width: 0.5; stroke-linecap: square"/>
     </g>
     <g id="line2d_18">
      <g>
       <use xlink:href="#md9ee961d82" x="55.1" y="211.16924" style="stroke: #000000; stroke-width: 0.8"/>
      </g>
     </g>
     <g id="text_10">
      <!-- 80 -->
      <g transform="translate(35.503125 214.914553) scale(0.1 -0.1)">
       <defs>
        <path id="IPAexGothic-38" d="M 2541 2425 
Q 3700 2031 3700 1197 
Q 3700 541 3100 197 
Q 2663 -56 2016 -56 
Q 1366 -56 928 197 
Q 347 531 347 1178 
Q 347 1988 1409 2381 
L 1409 2400 
Q 481 2734 481 3509 
Q 481 4100 981 4456 
Q 1406 4756 2019 4756 
Q 2703 4756 3131 4403 
Q 3553 4069 3553 3566 
Q 3553 2706 2541 2444 
L 2541 2425 
z
M 2022 2625 
Q 2997 2856 2997 3528 
Q 2997 3916 2675 4150 
Q 2413 4347 2016 4347 
Q 1606 4347 1331 4128 
Q 1050 3897 1050 3522 
Q 1050 3150 1350 2925 
Q 1494 2809 1722 2722 
Q 1984 2616 2022 2625 
z
M 1978 2209 
Q 922 1931 922 1216 
Q 922 775 1313 556 
Q 1606 391 2009 391 
Q 2575 391 2881 697 
Q 3106 922 3106 1250 
Q 3106 1594 2794 1850 
Q 2609 1994 2350 2100 
Q 2047 2222 1978 2209 
z
" transform="scale(0.015625)"/>
       </defs>
       <use xlink:href="#IPAexGothic-38"/>
       <use xlink:href="#IPAexGothic-30" transform="translate(62.988281 0)"/>
      </g>
     </g>
    </g>
    <g id="ytick_3">
     <g id="line2d_19">
      <path d="M 55.1 183.733683 
L 493.2 183.733683 
" clip-path="url(#p872051c8d8)" style="fill: none; stroke: #000000; stroke-opacity: 0.3; stroke-width: 0.5; stroke-linecap: square"/>
     </g>
     <g id="line2d_20">
      <g>
       <use xlink:href="#md9ee961d82" x="55.1" y="183.733683" style="stroke: #000000; stroke-width: 0.8"/>
      </g>
     </g>
     <g id="text_11">
      <!-- 85 -->
      <g transform="translate(35.503125 187.478996) scale(0.1 -0.1)">
       <use xlink:href="#IPAexGothic-38"/>
       <use xlink:href="#IPAexGothic-35" transform="translate(62.988281 0)"/>
      </g>
     </g>
    </g>
    <g id="ytick_4">
     <g id="line2d_21">
      <path d="M 55.1 156.298127 
L 493.2 156.298127 
" clip-path="url(#p872051c8d8)" style="fill: none; stroke: #000000; stroke-opacity: 0.3; stroke-width: 0.5; stroke-linecap: square"/>
     </g>
     <g id="line2d_22">
      <g>
       <use xlink:href="#md9ee961d82" x="55.1" y="156.298127" style="stroke: #000000; stroke-width: 0.8"/>
      </g>
     </g>
     <g id="text_12">
      <!-- 90 -->
      <g transform="translate(35.503125 160.043439) scale(0.1 -0.1)">
       <defs>
        <path id="IPAexGothic-39" d="M 2984 2356 
Q 2544 1716 1813 1716 
Q 1253 1716 847 2056 
Q 366 2459 366 3163 
Q 366 3813 769 4266 
Q 1181 4725 1869 4725 
Q 2800 4725 3241 3950 
Q 3559 3378 3559 2472 
Q 3559 1250 3041 588 
Q 2553 -31 1769 -31 
Q 859 -31 391 703 
L 853 953 
Q 1156 428 1753 428 
Q 2922 428 3009 2356 
L 2984 2356 
z
M 1888 4278 
Q 1450 4278 1172 3950 
Q 922 3653 922 3200 
Q 922 2741 1159 2478 
Q 1434 2163 1906 2163 
Q 2431 2163 2728 2572 
Q 2925 2847 2925 3169 
Q 2925 3553 2694 3863 
Q 2375 4278 1888 4278 
z
" transform="scale(0.015625)"/>
       </defs>
       <use xlink:href="#IPAexGothic-39"/>
       <use xlink:href="#IPAexGothic-30" transform="translate(62.988281 0)"/>
      </g>
     </g>
    </g>
    <g id="ytick_5">
     <g id="line2d_23">
      <path d="M 55.1 128.86257 
L 493.2 128.86257 
" clip-path="url(#p872051c8d8)" style="fill: none; stroke: #000000; stroke-opacity: 0.3; stroke-width: 0.5; stroke-linecap: square"/>
     </g>
     <g id="line2d_24">
      <g>
       <use xlink:href="#md9ee961d82" x="55.1" y="128.86257" style="stroke: #000000; stroke-width: 0.8"/>
      </g>
     </g>
     <g id="text_13">
      <!-- 95 -->
      <g transform="translate(35.503125 132.607882) scale(0.1 -0.1)">
       <use xlink:href="#IPAexGothic-39"/>
       <use xlink:href="#IPAexGothic-35" transform="translate(62.988281 0)"/>
      </g>
     </g>
    </g>
    <g id="ytick_6">
     <g id="line2d_25">
      <path d="M 55.1 101.427013 
L 493.2 101.427013 
" clip-path="url(#p872051c8d8)" style="fill: none; stroke: #000000; stroke-opacity: 0.3; stroke-width: 0.5; stroke-linecap: square"/>
     </g>
     <g id="line2d_26">
      <g>
       <use xlink:href="#md9ee961d82" x="55.1" y="101.427013" style="stroke: #000000; stroke-width: 0.8"/>
      </g>
     </g>
     <g id="text_14">
      <!-- 100 -->
      <g transform="translate(29.204688 105.172326) scale(0.1 -0.1)">
       <use xlink:href="#IPAexGothic-31"/>
       <use xlink:href="#IPAexGothic-30" transform="translate(62.988281 0)"/>
       <use xlink:href="#IPAexGothic-30" transform="translate(125.976562 0)"/>
      </g>
     </g>
    </g>
    <g id="ytick_7">
     <g id="line2d_27">
      <path d="M 55.1 73.991456 
L 493.2 73.991456 
" clip-path="url(#p872051c8d8)" style="fill: none; stroke: #000000; stroke-opacity: 0.3; stroke-width: 0.5; stroke-linecap: square"/>
     </g>
     <g id="line2d_28">
      <g>
       <use xlink:href="#md9ee961d82" x="55.1" y="73.991456" style="stroke: #000000; stroke-width: 0.8"/>
      </g>
     </g>
     <g id="text_15">
      <!-- 105 -->
      <g transform="translate(29.204688 77.736769) scale(0.1 -0.1)">
       <use xlink:href="#IPAexGothic-31"/>
       <use xlink:href="#IPAexGothic-30" transform="translate(62.988281 0)"/>
       <use xlink:href="#IPAexGothic-35" transform="translate(125.976562 0)"/>
      </g>
     </g>
    </g>
    <g id="ytick_8">
     <g id="line2d_29">
      <path d="M 55.1 46.555899 
L 493.2 46.555899 
" clip-path="url(#p872051c8d8)" style="fill: none; stroke: #000000; stroke-opacity: 0.3; stroke-width: 0.5; stroke-linecap: square"/>
     </g>
     <g id="line2d_30">
      <g>
       <use xlink:href="#md9ee961d82" x="55.1" y="46.555899" style="stroke: #000000; stroke-width: 0.8"/>
      </g>
     </g>
     <g id="text_16">
      <!-- 110 -->
      <g transform="translate(29.204688 50.301212) scale(0.1 -0.1)">
       <use xlink:href="#IPAexGothic-31"/>
       <use xlink:href="#IPAexGothic-31" transform="translate(62.988281 0)"/>
       <use xlink:href="#IPAexGothic-30" transform="translate(125.976562 0)"/>
      </g>
     </g>
    </g>
    <g id="text_17">
     <!-- 値 -->
     <g transform="translate(22.468688 143.66) rotate(-90) scale(0.144 -0.144)">
      <defs>
       <path id="IPAexGothic-5024" d="M 4172 3675 
L 5453 3675 
L 5453 684 
L 3019 684 
L 3019 3675 
L 3750 3675 
Q 3788 3884 3825 4153 
L 2141 4153 
L 2141 4544 
L 3884 4544 
Q 3922 4844 3966 5325 
L 4434 5272 
L 4388 4953 
Q 4331 4578 4331 4544 
L 5863 4544 
L 5863 4153 
L 4269 4153 
Q 4200 3781 4172 3675 
z
M 5038 3316 
L 3434 3316 
L 3434 2803 
L 5038 2803 
L 5038 3316 
z
M 3434 2450 
L 3434 1941 
L 5038 1941 
L 5038 2450 
L 3434 2450 
z
M 3434 1588 
L 3434 1044 
L 5038 1044 
L 5038 1588 
L 3434 1588 
z
M 1509 3669 
L 1509 -447 
L 1069 -447 
L 1069 2725 
Q 856 2338 531 1875 
L 288 2266 
Q 1163 3531 1541 5325 
L 1975 5222 
Q 1791 4378 1509 3669 
z
M 2488 244 
L 6031 244 
L 6031 -153 
L 2488 -153 
L 2488 -447 
L 2059 -447 
L 2059 3213 
L 2488 3213 
L 2488 244 
z
" transform="scale(0.015625)"/>
      </defs>
      <use xlink:href="#IPAexGothic-5024"/>
     </g>
    </g>
   </g>
   <g id="line2d_31">
    <path d="M 75.013636 207.755974 
L 77.015007 193.917775 
L 79.016377 190.462457 
L 81.017748 199.869072 
L 83.019118 173.500643 
L 85.020489 176.032664 
L 87.021859 186.429135 
L 89.02323 178.624647 
L 93.025971 193.860019 
L 95.027341 204.303986 
L 97.028712 207.004532 
L 99.030082 226.667826 
L 101.031453 226.414207 
L 103.032823 232.805455 
L 105.034194 222.813312 
L 107.035564 226.334424 
L 109.036935 225.059902 
L 111.038305 223.166049 
L 113.039676 209.676916 
L 115.041046 197.919754 
L 117.042417 191.585741 
L 119.043787 167.775841 
L 121.045158 163.885766 
L 123.046528 196.051205 
L 125.047899 185.929756 
L 127.049269 169.682877 
L 129.05064 175.365058 
L 131.05201 174.496221 
L 133.053381 181.449594 
L 135.054751 170.498169 
L 137.056122 210.218447 
L 139.057492 209.954478 
L 141.058862 191.460063 
L 143.060233 208.487235 
L 145.061603 209.009985 
L 147.062974 218.634423 
L 149.064344 225.280007 
L 151.065715 200.620212 
L 153.067085 192.890902 
L 155.068456 196.953417 
L 159.071197 168.099544 
L 161.072567 169.991037 
L 163.073938 157.07512 
L 165.075308 153.160215 
L 167.076679 154.436142 
L 169.078049 163.026642 
L 171.07942 157.572932 
L 173.08079 161.625094 
L 175.082161 175.077617 
L 177.083531 194.147669 
L 179.084902 185.829497 
L 181.086272 203.419667 
L 183.087643 193.02223 
L 185.089013 212.975693 
L 187.090384 191.356607 
L 189.091754 196.031393 
L 191.093125 201.438805 
L 193.094495 183.898868 
L 195.095866 171.127681 
L 197.097236 159.831226 
L 199.098607 163.919792 
L 201.099977 158.428149 
L 203.101348 140.964203 
L 205.102718 145.544208 
L 207.104089 139.292511 
L 209.105459 137.35541 
L 211.10683 166.55294 
L 213.1082 154.745364 
L 215.109571 152.981911 
L 217.110941 175.835718 
L 219.112312 187.895068 
L 221.113682 177.868214 
L 223.115053 186.033216 
L 225.116423 180.372337 
L 227.117794 190.629176 
L 229.119164 197.299786 
L 231.120534 177.022648 
L 233.121905 172.032834 
L 235.123275 150.835253 
L 237.124646 147.443992 
L 239.126016 157.157421 
L 241.127387 146.126167 
L 243.128757 121.037385 
L 245.130128 121.051244 
L 247.131498 134.773042 
L 249.132869 131.698325 
L 251.134239 132.698288 
L 253.13561 139.462501 
L 255.13698 143.253968 
L 257.138351 157.19478 
L 259.139721 167.654347 
L 261.141092 174.6855 
L 263.142462 164.940028 
L 265.143833 198.282966 
L 267.145203 175.419953 
L 269.146574 169.16916 
L 271.147944 176.844914 
L 273.149315 151.173277 
L 275.150685 151.756477 
L 277.152056 127.669202 
L 279.153426 129.121229 
L 281.154797 114.543619 
L 283.156167 104.55905 
L 285.157538 110.813961 
L 287.158908 123.929742 
L 289.160279 133.475522 
L 291.161649 106.612236 
L 293.16302 132.018981 
L 295.16439 145.540189 
L 297.165761 145.134172 
L 299.167131 155.439211 
L 301.168502 150.543403 
L 303.169872 161.86322 
L 305.171243 162.746858 
L 307.172613 167.939177 
L 309.173984 151.688198 
L 311.175354 159.809254 
L 313.176725 134.714486 
L 315.178095 117.10321 
L 317.179466 138.07735 
L 319.180836 139.070168 
L 321.182206 101.890856 
L 323.183577 78.26318 
L 325.184947 111.312948 
L 327.186318 114.464224 
L 329.187688 99.532703 
L 331.189059 119.064633 
L 333.190429 122.748616 
L 335.1918 129.00859 
L 337.19317 128.135425 
L 339.194541 144.382703 
L 341.195911 143.046181 
L 343.197282 150.772838 
L 345.198652 158.056241 
L 347.200023 150.871208 
L 349.201393 152.543869 
L 351.202764 136.364545 
L 353.204134 139.222479 
L 355.205505 129.780069 
L 357.206875 95.459142 
L 359.208246 102.067937 
L 361.209616 95.346957 
L 363.210987 85.206848 
L 365.212357 92.414666 
L 367.213728 91.199482 
L 369.215098 87.981655 
L 371.216469 94.802562 
L 373.217839 116.031778 
L 375.21921 104.170477 
L 377.22058 126.052444 
L 379.221951 137.641226 
L 381.223321 141.51552 
L 383.224692 139.717526 
L 385.226062 120.472006 
L 387.227433 146.153814 
L 389.228803 128.406856 
L 391.230174 144.374689 
L 393.231544 114.968685 
L 395.232915 96.931864 
L 397.234285 99.017672 
L 399.235656 94.589593 
L 401.237026 79.358922 
L 403.238397 70.174864 
L 405.239767 68.534065 
L 407.241138 56.291486 
L 409.242508 76.945791 
L 411.243878 90.273976 
L 413.245249 92.65684 
L 415.246619 99.948222 
L 417.24799 105.977791 
L 419.24936 114.338056 
L 421.250731 117.734413 
L 423.252101 139.193773 
L 425.253472 115.181379 
L 427.254842 127.050798 
L 429.256213 128.405881 
L 431.257583 103.791816 
L 433.258954 88.773175 
L 435.260324 87.778094 
L 437.261695 81.91939 
L 439.263065 84.411866 
L 441.264436 40.114545 
L 443.265806 55.226918 
L 445.267177 73.172397 
L 447.268547 70.304478 
L 449.269918 64.983553 
L 451.271288 86.609561 
L 453.272659 76.577972 
L 455.274029 90.597259 
L 457.2754 81.771071 
L 459.27677 91.369401 
L 461.278141 133.062398 
L 463.279511 109.110165 
L 465.280882 126.181795 
L 467.282252 97.245473 
L 469.283623 101.989411 
L 471.284993 91.505199 
L 473.286364 99.135099 
L 473.286364 99.135099 
" clip-path="url(#p872051c8d8)" style="fill: none; stroke: #94a3b8; stroke-linecap: square"/>
   </g>
   <g id="line2d_32">
    <path d="M 89.02323 196.501252 
L 91.0246 198.2905 
L 93.025971 200.354467 
L 95.027341 202.916751 
L 97.028712 204.716096 
L 99.030082 208.263625 
L 101.031453 210.666786 
L 105.034194 212.413337 
L 107.035564 211.09914 
L 109.036935 208.958122 
L 111.038305 208.368638 
L 113.039676 206.863297 
L 115.041046 202.792943 
L 117.042417 199.146575 
L 119.043787 194.98163 
L 121.045158 192.027079 
L 123.046528 188.038775 
L 129.05064 184.733784 
L 131.05201 185.488604 
L 133.053381 186.733192 
L 135.054751 190.365948 
L 137.056122 194.751251 
L 139.057492 195.077609 
L 141.058862 195.574834 
L 143.060233 197.522729 
L 145.061603 198.028275 
L 147.062974 197.571369 
L 149.064344 196.752901 
L 151.065715 195.794112 
L 155.068456 187.752928 
L 157.069826 185.72197 
L 159.071197 182.085234 
L 161.072567 178.700599 
L 163.073938 175.589398 
L 165.075308 173.36566 
L 167.076679 172.30918 
L 169.078049 173.061235 
L 171.07942 172.780436 
L 173.08079 174.961364 
L 175.082161 176.622583 
L 177.083531 178.482608 
L 179.084902 181.651443 
L 181.086272 183.847061 
L 183.087643 185.039314 
L 185.089013 184.81107 
L 187.090384 185.264417 
L 189.091754 185.036064 
L 191.093125 182.599391 
L 195.095866 175.803645 
L 197.097236 171.08477 
L 199.098607 169.194106 
L 201.099977 165.034797 
L 203.101348 162.293747 
L 205.102718 160.851199 
L 207.104089 159.883789 
L 209.105459 159.453028 
L 211.10683 160.517709 
L 213.1082 161.984932 
L 215.109571 163.892745 
L 217.110941 166.66929 
L 219.112312 169.244893 
L 221.113682 171.136938 
L 225.116423 172.682033 
L 229.119164 171.395267 
L 231.120534 169.113515 
L 235.123275 161.405908 
L 237.124646 158.108059 
L 239.126016 154.298421 
L 241.127387 151.37629 
L 243.128757 147.992347 
L 245.130128 145.127703 
L 247.131498 144.458539 
L 249.132869 144.648015 
L 251.134239 145.655499 
L 253.13561 149.286854 
L 255.13698 150.591321 
L 257.138351 152.237249 
L 259.139721 156.223501 
L 261.141092 158.375075 
L 263.142462 159.588177 
L 267.145203 159.044879 
L 269.146574 157.264959 
L 271.147944 154.501036 
L 275.150685 148.064934 
L 277.152056 145.121364 
L 279.153426 140.955093 
L 281.154797 136.221952 
L 283.156167 134.087683 
L 285.157538 132.370898 
L 287.158908 130.841919 
L 289.160279 130.796928 
L 291.161649 131.518838 
L 293.16302 134.024385 
L 297.165761 139.45028 
L 299.167131 143.396723 
L 301.168502 145.103903 
L 303.169872 144.616294 
L 305.171243 144.944996 
L 307.172613 147.26342 
L 309.173984 145.111411 
L 311.175354 140.30591 
L 313.176725 137.890109 
L 315.178095 134.963324 
L 317.179466 131.319702 
L 321.182206 125.405643 
L 323.183577 122.624887 
L 325.184947 120.942546 
L 327.186318 119.840649 
L 329.187688 120.43577 
L 331.189059 122.840744 
L 333.190429 124.267808 
L 335.1918 125.110739 
L 337.19317 128.728811 
L 339.194541 132.878909 
L 341.195911 134.872447 
L 343.197282 135.966436 
L 345.198652 135.675467 
L 347.200023 134.461417 
L 349.201393 132.504156 
L 351.202764 129.37546 
L 353.204134 126.823977 
L 357.206875 119.091995 
L 359.208246 115.094119 
L 361.209616 112.092371 
L 363.210987 108.756605 
L 365.212357 106.86436 
L 369.215098 107.11934 
L 371.216469 107.829159 
L 373.217839 109.615792 
L 375.21921 112.764783 
L 377.22058 115.126204 
L 379.221951 119.352479 
L 381.223321 120.96348 
L 383.224692 121.372936 
L 385.226062 122.161223 
L 387.227433 122.146011 
L 389.228803 119.526521 
L 391.230174 117.098263 
L 393.231544 112.989807 
L 395.232915 107.179112 
L 397.234285 102.566988 
L 399.235656 99.035306 
L 401.237026 97.048508 
L 403.238397 93.748109 
L 405.239767 92.146033 
L 407.241138 90.000559 
L 409.242508 90.198111 
L 411.243878 93.216819 
L 413.245249 94.371369 
L 415.246619 96.690027 
L 417.24799 100.193381 
L 419.24936 102.594592 
L 421.250731 104.040243 
L 423.252101 106.289286 
L 425.253472 106.644543 
L 427.254842 106.225821 
L 429.256213 102.4728 
L 431.257583 99.278421 
L 433.258954 96.935179 
L 435.260324 93.789923 
L 439.263065 86.265989 
L 443.265806 80.904779 
L 445.267177 77.573721 
L 447.268547 76.686406 
L 449.269918 79.849922 
L 451.271288 81.373641 
L 453.272659 84.535241 
L 455.274029 85.451928 
L 457.2754 89.871561 
L 459.27677 92.462867 
L 461.278141 94.317345 
L 461.278141 94.317345 
" clip-path="url(#p872051c8d8)" style="fill: none; stroke: #2563eb; stroke-width: 2; stroke-linecap: square"/>
   </g>
   <g id="text_18">
    <!-- 移動平均と移動標準偏差 -->
    <g transform="translate(179.11 24.48) scale(0.1728 -0.1728)">
     <defs>
      <path id="IPAexGothic-79fb" d="M 4691 2419 
L 5844 2419 
L 6069 2188 
Q 5503 1156 4763 513 
Q 4081 -75 2975 -469 
L 2681 -97 
Q 3684 194 4384 728 
Q 4097 1056 3731 1356 
Q 3381 1053 2919 819 
L 2669 1150 
Q 3853 1772 4500 2878 
L 4909 2772 
Q 4772 2528 4691 2419 
z
M 4409 2034 
Q 4219 1803 4000 1588 
Q 4375 1341 4703 1009 
Q 5219 1488 5497 2034 
L 4409 2034 
z
M 1350 2328 
Q 1009 1334 513 659 
L 263 1081 
Q 966 2022 1266 3128 
L 366 3128 
L 366 3531 
L 1350 3531 
L 1350 4400 
Q 919 4322 575 4266 
L 366 4644 
Q 1506 4809 2378 5144 
L 2700 4747 
Q 2238 4600 1784 4491 
L 1784 3531 
L 2616 3531 
L 2616 3128 
L 1784 3128 
L 1784 2688 
Q 2306 2266 2719 1803 
L 2444 1356 
Q 2106 1838 1784 2181 
L 1784 -450 
L 1350 -450 
L 1350 2328 
z
M 4275 4800 
L 5491 4800 
L 5709 4609 
Q 4763 2809 2875 2047 
L 2606 2388 
Q 3534 2722 4134 3244 
Q 3869 3519 3450 3794 
Q 3184 3569 2859 3359 
L 2591 3666 
Q 3578 4259 4056 5288 
L 4481 5191 
Q 4406 5034 4275 4800 
z
M 4019 4416 
Q 3856 4194 3700 4038 
Q 4128 3759 4372 3553 
L 4416 3513 
Q 4884 3991 5119 4416 
L 4019 4416 
z
" transform="scale(0.015625)"/>
      <path id="IPAexGothic-52d5" d="M 1803 3425 
L 1803 3794 
L 372 3794 
L 372 4147 
L 1803 4147 
L 1803 4556 
Q 1250 4500 634 4466 
L 506 4819 
Q 1997 4903 3091 5159 
L 3378 4794 
Q 2803 4678 2219 4606 
L 2219 4147 
L 3538 4147 
L 3538 3794 
L 2219 3794 
L 2219 3425 
L 3378 3425 
L 3378 1569 
L 2219 1569 
L 2219 1178 
L 3447 1178 
L 3447 825 
L 2219 825 
L 2219 384 
Q 2934 459 3544 569 
L 3544 231 
Q 2569 22 416 -206 
L 294 197 
Q 791 238 1284 288 
L 1803 338 
L 1803 825 
L 581 825 
L 581 1178 
L 1803 1178 
L 1803 1569 
L 678 1569 
L 678 3425 
L 1803 3425 
z
M 1816 3100 
L 1075 3100 
L 1075 2669 
L 1816 2669 
L 1816 3100 
z
M 2206 3100 
L 2206 2669 
L 2981 2669 
L 2981 3100 
L 2206 3100 
z
M 1816 2350 
L 1075 2350 
L 1075 1894 
L 1816 1894 
L 1816 2350 
z
M 2206 2350 
L 2206 1894 
L 2981 1894 
L 2981 2350 
L 2206 2350 
z
M 4806 3469 
Q 4797 2084 4628 1338 
Q 4375 250 3572 -459 
L 3238 -141 
Q 3975 481 4225 1550 
Q 4378 2213 4378 3413 
L 3559 3413 
L 3559 3828 
L 4384 3828 
L 4384 5209 
L 4813 5209 
L 4813 3878 
L 5931 3878 
Q 5931 941 5766 128 
Q 5669 -347 5144 -347 
Q 4838 -347 4500 -294 
L 4422 197 
Q 4797 100 5069 100 
Q 5294 100 5344 369 
Q 5484 1053 5503 3200 
L 5503 3469 
L 4806 3469 
z
" transform="scale(0.015625)"/>
      <path id="IPAexGothic-5e73" d="M 3422 4428 
L 3422 1941 
L 6084 1941 
L 6084 1513 
L 3422 1513 
L 3422 -447 
L 2934 -447 
L 2934 1513 
L 322 1513 
L 322 1941 
L 2934 1941 
L 2934 4428 
L 641 4428 
L 641 4856 
L 5763 4856 
L 5763 4428 
L 3422 4428 
z
M 1728 2278 
Q 1488 3094 1081 3859 
L 1544 4038 
Q 1875 3422 2222 2472 
L 1728 2278 
z
M 4134 2425 
Q 4509 3138 4813 4128 
L 5306 3944 
Q 4984 3006 4569 2228 
L 4134 2425 
z
" transform="scale(0.015625)"/>
      <path id="IPAexGothic-5747" d="M 1206 3794 
L 1206 5144 
L 1659 5144 
L 1659 3794 
L 2369 3794 
L 2369 3372 
L 1659 3372 
L 1659 1325 
Q 2078 1513 2484 1722 
L 2566 1313 
Q 1556 775 559 397 
L 334 838 
Q 803 975 1206 1138 
L 1206 3372 
L 413 3372 
L 413 3794 
L 1206 3794 
z
M 3475 4244 
L 5844 4244 
Q 5834 1131 5619 184 
Q 5494 -366 4838 -366 
Q 4369 -366 3859 -306 
L 3769 184 
Q 4241 88 4731 88 
Q 5059 88 5147 306 
Q 5359 919 5369 3828 
L 3316 3828 
Q 3013 3119 2466 2472 
L 2150 2828 
Q 2944 3788 3259 5263 
L 3719 5147 
Q 3619 4663 3475 4244 
z
M 2975 2847 
L 4678 2847 
L 4678 2431 
L 2975 2431 
L 2975 2847 
z
M 2559 1044 
Q 3747 1338 4838 1797 
L 4891 1388 
Q 3831 891 2766 588 
L 2559 1044 
z
" transform="scale(0.015625)"/>
      <path id="IPAexGothic-3068" d="M 5222 56 
Q 4200 -72 3450 -72 
Q 2478 -72 1941 113 
Q 1184 372 1184 1038 
Q 1184 1584 1594 2009 
Q 1941 2369 2656 2725 
Q 2231 3734 1972 4878 
L 2491 4978 
Q 2706 3884 3078 2950 
Q 4250 3447 4756 3616 
L 4978 3150 
Q 3181 2575 2409 2078 
Q 1691 1613 1691 1113 
Q 1691 403 3322 403 
Q 4125 403 5134 563 
L 5222 56 
z
" transform="scale(0.015625)"/>
      <path id="IPAexGothic-6a19" d="M 1113 2534 
Q 813 1522 384 794 
L 153 1250 
Q 763 2228 1063 3547 
L 294 3547 
L 294 3956 
L 1113 3956 
L 1113 5306 
L 1522 5306 
L 1522 3956 
L 2144 3956 
L 2144 3547 
L 1522 3547 
L 1522 3009 
Q 1991 2634 2309 2288 
L 2059 1844 
Q 1813 2222 1522 2550 
L 1522 -447 
L 1113 -447 
L 1113 2534 
z
M 3353 4109 
L 3353 4641 
L 2100 4641 
L 2100 5019 
L 5997 5019 
L 5997 4641 
L 4753 4641 
L 4753 4109 
L 5778 4109 
L 5778 2769 
L 2356 2769 
L 2356 4109 
L 3353 4109 
z
M 3756 4109 
L 4350 4109 
L 4350 4641 
L 3756 4641 
L 3756 4109 
z
M 3359 3756 
L 2772 3756 
L 2772 3122 
L 3359 3122 
L 3359 3756 
z
M 3756 3756 
L 3756 3122 
L 4350 3122 
L 4350 3756 
L 3756 3756 
z
M 4741 3756 
L 4741 3122 
L 5363 3122 
L 5363 3756 
L 4741 3756 
z
M 4300 1191 
L 4300 19 
Q 4300 -409 3809 -409 
Q 3469 -409 3175 -372 
L 3097 78 
Q 3416 0 3675 0 
Q 3866 0 3866 184 
L 3866 1191 
L 2100 1191 
L 2100 1563 
L 6072 1563 
L 6072 1191 
L 4300 1191 
z
M 2481 2350 
L 5669 2350 
L 5669 1984 
L 2481 1984 
L 2481 2350 
z
M 1938 13 
Q 2534 406 2938 1069 
L 3322 891 
Q 2903 150 2272 -306 
L 1938 13 
z
M 5722 -191 
Q 5166 459 4666 838 
L 4978 1088 
Q 5572 681 6094 134 
L 5722 -191 
z
" transform="scale(0.015625)"/>
      <path id="IPAexGothic-6e96" d="M 4341 4141 
L 4341 3694 
L 5506 3694 
L 5506 3353 
L 4341 3353 
L 4341 2906 
L 5506 2906 
L 5506 2566 
L 4341 2566 
L 4341 2088 
L 5922 2088 
L 5922 1722 
L 3413 1722 
L 3413 1100 
L 6081 1100 
L 6081 703 
L 3413 703 
L 3413 -450 
L 2938 -450 
L 2938 703 
L 319 703 
L 319 1100 
L 2938 1100 
L 2938 1722 
L 2450 1722 
L 2450 3644 
Q 2288 3441 2047 3188 
L 1759 3528 
Q 2531 4259 2841 5288 
L 3297 5166 
Q 3156 4800 3003 4500 
L 3969 4500 
Q 4163 4869 4284 5269 
L 4756 5159 
Q 4572 4759 4409 4500 
L 5794 4500 
L 5794 4141 
L 4341 4141 
z
M 3931 4141 
L 2878 4141 
L 2878 3694 
L 3931 3694 
L 3931 4141 
z
M 2878 2088 
L 3931 2088 
L 3931 2566 
L 2878 2566 
L 2878 2088 
z
M 2878 2906 
L 3931 2906 
L 3931 3353 
L 2878 3353 
L 2878 2906 
z
M 497 1778 
Q 1053 2316 1625 3178 
L 1913 2897 
Q 1484 2128 875 1431 
L 497 1778 
z
M 1559 4134 
Q 1109 4519 678 4769 
L 941 5131 
Q 1494 4831 1834 4519 
L 1559 4134 
z
M 1297 3141 
Q 997 3388 397 3763 
L 631 4122 
Q 1153 3847 1547 3538 
L 1297 3141 
z
" transform="scale(0.015625)"/>
      <path id="IPAexGothic-504f" d="M 1503 3653 
L 1503 -447 
L 1063 -447 
L 1063 2700 
Q 816 2247 538 1863 
L 288 2253 
Q 1175 3556 1528 5325 
L 1963 5222 
Q 1800 4438 1503 3653 
z
M 5681 4116 
L 5681 2859 
L 2616 2859 
L 2616 2769 
Q 2616 2603 2609 2406 
L 5863 2406 
L 5863 13 
Q 5863 -213 5772 -300 
Q 5688 -384 5466 -384 
Q 5281 -384 5138 -359 
L 5081 72 
Q 5216 31 5338 31 
Q 5447 31 5447 191 
L 5447 916 
L 4856 916 
L 4856 -281 
L 4459 -281 
L 4459 916 
L 3922 916 
L 3922 -281 
L 3525 -281 
L 3525 916 
L 2988 916 
L 2988 -447 
L 2578 -447 
L 2578 1997 
L 2566 1997 
Q 2441 594 1881 -347 
L 1591 31 
Q 1981 672 2097 1466 
Q 2188 2072 2188 2950 
L 2188 4116 
L 5681 4116 
z
M 5253 3763 
L 2616 3763 
L 2616 3213 
L 5253 3213 
L 5253 3763 
z
M 2988 2053 
L 2988 1253 
L 3525 1253 
L 3525 2053 
L 2988 2053 
z
M 5447 1253 
L 5447 2053 
L 4856 2053 
L 4856 1253 
L 5447 1253 
z
M 3922 2053 
L 3922 1253 
L 4459 1253 
L 4459 2053 
L 3922 2053 
z
M 1997 4966 
L 5978 4966 
L 5978 4594 
L 1997 4594 
L 1997 4966 
z
" transform="scale(0.015625)"/>
      <path id="IPAexGothic-5dee" d="M 2188 4481 
Q 2013 4781 1766 5084 
L 2194 5275 
Q 2459 4913 2669 4481 
L 3659 4481 
Q 3931 4881 4100 5294 
L 4575 5122 
Q 4353 4766 4150 4481 
L 5725 4481 
L 5725 4103 
L 3403 4103 
L 3403 3519 
L 5431 3519 
L 5431 3147 
L 3403 3147 
L 3403 2534 
L 5975 2534 
L 5975 2138 
L 2341 2138 
Q 2225 1813 2041 1466 
L 5431 1466 
L 5431 1081 
L 3813 1081 
L 3813 103 
L 5913 103 
L 5913 -294 
L 1338 -294 
L 1338 103 
L 3344 103 
L 3344 1081 
L 1803 1081 
Q 1331 400 588 -172 
L 281 200 
Q 1394 966 1875 2138 
L 416 2138 
L 416 2534 
L 2950 2534 
L 2950 3147 
L 959 3147 
L 959 3519 
L 2950 3519 
L 2950 4103 
L 666 4103 
L 666 4481 
L 2188 4481 
z
" transform="scale(0.015625)"/>
     </defs>
     <use xlink:href="#IPAexGothic-79fb"/>
     <use xlink:href="#IPAexGothic-52d5" transform="translate(100 0)"/>
     <use xlink:href="#IPAexGothic-5e73" transform="translate(200 0)"/>
     <use xlink:href="#IPAexGothic-5747" transform="translate(300 0)"/>
     <use xlink:href="#IPAexGothic-3068" transform="translate(400 0)"/>
     <use xlink:href="#IPAexGothic-79fb" transform="translate(500 0)"/>
     <use xlink:href="#IPAexGothic-52d5" transform="translate(600 0)"/>
     <use xlink:href="#IPAexGothic-6a19" transform="translate(700 0)"/>
     <use xlink:href="#IPAexGothic-6e96" transform="translate(800 0)"/>
     <use xlink:href="#IPAexGothic-504f" transform="translate(900 0)"/>
     <use xlink:href="#IPAexGothic-5dee" transform="translate(1000 0)"/>
    </g>
   </g>
   <g id="legend_1">
    <g id="patch_3">
     <path d="M 69.5 107.48625 
L 183.01625 107.48625 
Q 185.41625 107.48625 185.41625 105.08625 
L 185.41625 44.88 
Q 185.41625 42.48 183.01625 42.48 
L 69.5 42.48 
Q 67.1 42.48 67.1 44.88 
L 67.1 105.08625 
Q 67.1 107.48625 69.5 107.48625 
z
" style="fill: #ffffff; opacity: 0.8; stroke: #cccccc; stroke-linejoin: miter"/>
    </g>
    <g id="line2d_33">
     <path d="M 71.9 52.06875 
L 83.9 52.06875 
L 95.9 52.06875 
" style="fill: none; stroke: #94a3b8; stroke-linecap: square"/>
    </g>
    <g id="text_19">
     <!-- 原系列 -->
     <g transform="translate(105.5 56.26875) scale(0.12 -0.12)">
      <defs>
       <path id="IPAexGothic-539f" d="M 3600 3816 
L 5359 3816 
L 5359 1575 
L 3944 1575 
L 3944 6 
Q 3944 -434 3459 -434 
Q 3059 -434 2722 -384 
L 2638 72 
Q 2991 0 3297 0 
Q 3491 0 3491 213 
L 3491 1575 
L 1941 1575 
L 1941 3816 
L 3156 3816 
Q 3259 4116 3331 4403 
L 1347 4403 
L 1347 3138 
Q 1347 1613 1206 872 
Q 1078 181 738 -453 
L 341 -97 
Q 872 900 872 2850 
L 872 4831 
L 5922 4831 
L 5922 4403 
L 3816 4403 
Q 3706 4066 3600 3816 
z
M 4919 3456 
L 2381 3456 
L 2381 2894 
L 4919 2894 
L 4919 3456 
z
M 2381 2528 
L 2381 1941 
L 4919 1941 
L 4919 2528 
L 2381 2528 
z
M 5575 -122 
Q 5006 622 4419 1100 
L 4775 1381 
Q 5447 847 5966 225 
L 5575 -122 
z
M 1353 84 
Q 1994 591 2422 1338 
L 2838 1125 
Q 2353 294 1716 -256 
L 1353 84 
z
" transform="scale(0.015625)"/>
       <path id="IPAexGothic-7cfb" d="M 3016 2547 
Q 3747 3259 4341 4013 
L 4769 3744 
Q 3978 2831 3259 2194 
Q 3303 2203 3406 2203 
Q 3681 2209 4988 2272 
Q 4756 2522 4469 2791 
L 4794 3041 
Q 5478 2466 6013 1813 
L 5628 1491 
Q 5484 1688 5275 1941 
Q 5238 1938 5116 1925 
Q 5022 1916 4963 1913 
L 4188 1863 
Q 3803 1838 3419 1806 
L 3419 -447 
L 2944 -447 
L 2944 1778 
L 2609 1759 
Q 1972 1728 684 1697 
L 513 2150 
Q 1878 2150 2553 2175 
L 2625 2175 
L 2694 2241 
Q 2084 2869 1222 3519 
L 1569 3847 
Q 2047 3456 2119 3391 
Q 2497 3819 2791 4325 
L 2675 4319 
Q 1919 4250 856 4197 
L 678 4616 
Q 3319 4750 5000 5094 
L 5397 4684 
Q 4234 4475 2963 4347 
L 3303 4197 
Q 2797 3484 2431 3109 
Q 2788 2778 3016 2547 
z
M 525 31 
Q 1366 641 1869 1403 
L 2291 1191 
Q 1731 313 934 -313 
L 525 31 
z
M 5544 -141 
Q 4738 722 4038 1241 
L 4409 1516 
Q 5225 956 5972 213 
L 5544 -141 
z
" transform="scale(0.015625)"/>
       <path id="IPAexGothic-5217" d="M 2334 1600 
Q 1944 1966 1306 2378 
Q 1038 1938 709 1541 
L 434 1906 
Q 1325 2934 1663 4550 
L 606 4550 
L 606 4953 
L 3781 4953 
L 3781 4550 
L 2097 4550 
Q 2091 4531 2078 4466 
Q 2000 4100 1900 3781 
L 3141 3781 
L 3409 3575 
Q 3156 2138 2656 1247 
Q 2097 269 1003 -500 
L 684 -128 
Q 1769 563 2334 1600 
z
M 2534 2009 
Q 2794 2656 2919 3384 
L 1766 3384 
Q 1638 3034 1478 2706 
Q 2181 2294 2534 2009 
z
M 3956 4416 
L 4409 4416 
L 4409 966 
L 3956 966 
L 3956 4416 
z
M 5306 5056 
L 5759 5056 
L 5759 197 
Q 5759 -138 5569 -263 
Q 5419 -353 5094 -353 
Q 4547 -353 3963 -294 
L 3878 191 
Q 4600 116 5038 116 
Q 5306 116 5306 359 
L 5306 5056 
z
" transform="scale(0.015625)"/>
      </defs>
      <use xlink:href="#IPAexGothic-539f"/>
      <use xlink:href="#IPAexGothic-7cfb" transform="translate(100 0)"/>
      <use xlink:href="#IPAexGothic-5217" transform="translate(200 0)"/>
     </g>
    </g>
    <g id="line2d_34">
     <path d="M 71.9 74.1375 
L 83.9 74.1375 
L 95.9 74.1375 
" style="fill: none; stroke: #2563eb; stroke-width: 2; stroke-linecap: square"/>
    </g>
    <g id="text_20">
     <!-- 14日移動平均 -->
     <g transform="translate(105.5 78.3375) scale(0.12 -0.12)">
      <use xlink:href="#IPAexGothic-31"/>
      <use xlink:href="#IPAexGothic-34" transform="translate(62.988281 0)"/>
      <use xlink:href="#IPAexGothic-65e5" transform="translate(125.976562 0)"/>
      <use xlink:href="#IPAexGothic-79fb" transform="translate(225.976562 0)"/>
      <use xlink:href="#IPAexGothic-52d5" transform="translate(325.976562 0)"/>
      <use xlink:href="#IPAexGothic-5e73" transform="translate(425.976562 0)"/>
      <use xlink:href="#IPAexGothic-5747" transform="translate(525.976562 0)"/>
     </g>
    </g>
    <g id="patch_4">
     <path d="M 71.9 100.40625 
L 95.9 100.40625 
L 95.9 92.00625 
L 71.9 92.00625 
z
" style="fill: #93c5fd; fill-opacity: 0.35; stroke: #93c5fd; stroke-opacity: 0.35; stroke-linejoin: miter"/>
    </g>
    <g id="text_21">
     <!-- ±1σ -->
     <g transform="translate(105.5 100.40625) scale(0.12 -0.12)">
      <defs>
       <path id="IPAexGothic-b1" d="M 416 819 
L 3922 819 
L 3922 453 
L 416 453 
L 416 819 
z
M 2369 2469 
L 2369 1125 
L 1984 1125 
L 1984 2469 
L 416 2469 
L 416 2828 
L 1984 2828 
L 1984 4094 
L 2369 4094 
L 2369 2828 
L 3925 2828 
L 3925 2469 
L 2369 2469 
z
" transform="scale(0.015625)"/>
       <path id="IPAexGothic-3c3" d="M 5050 3072 
L 4231 3072 
Q 4641 2756 4641 2175 
Q 4641 1403 4166 806 
Q 3675 197 2969 197 
Q 2484 197 2144 491 
Q 1722 856 1722 1497 
Q 1722 2488 2516 3109 
Q 2991 3488 3719 3488 
L 5209 3488 
L 5050 3072 
z
M 3413 3009 
Q 3009 3009 2681 2644 
Q 2259 2175 2259 1491 
Q 2259 678 2975 678 
Q 3431 678 3756 1100 
Q 4109 1550 4109 2184 
Q 4109 2575 3913 2791 
Q 3722 3009 3413 3009 
z
" transform="scale(0.015625)"/>
      </defs>
      <use xlink:href="#IPAexGothic-b1"/>
      <use xlink:href="#IPAexGothic-31" transform="translate(67.822266 0)"/>
      <use xlink:href="#IPAexGothic-3c3" transform="translate(130.810547 0)"/>
     </g>
    </g>
   </g>
  </g>
 </g>
 <defs>
  <clipPath id="p872051c8d8">
   <rect x="55.1" y="30.48" width="438.1" height="211.96"/>
  </clipPath>
 </defs>
</svg>
