<?xml version="1.0" encoding="utf-8" standalone="no"?>
<!DOCTYPE svg PUBLIC "-//W3C//DTD SVG 1.1//EN"
  "http://www.w3.org/Graphics/SVG/1.1/DTD/svg11.dtd">
<svg xmlns:xlink="http://www.w3.org/1999/xlink" width="504pt" height="360pt" viewBox="0 0 504 360" xmlns="http://www.w3.org/2000/svg" version="1.1">
 <metadata>
  <rdf:RDF xmlns:dc="http://purl.org/dc/elements/1.1/" xmlns:cc="http://creativecommons.org/ns#" xmlns:rdf="http://www.w3.org/1999/02/22-rdf-syntax-ns#">
   <cc:Work>
    <dc:type rdf:resource="http://purl.org/dc/dcmitype/StillImage"/>
    <dc:date>2025-10-27T10:38:09.833157</dc:date>
    <dc:format>image/svg+xml</dc:format>
    <dc:creator>
     <cc:Agent>
      <dc:title>Matplotlib v3.10.7, https://matplotlib.org/</dc:title>
     </cc:Agent>
    </dc:creator>
   </cc:Work>
  </rdf:RDF>
 </metadata>
 <defs>
  <style type="text/css">*{stroke-linejoin: round; stroke-linecap: butt}</style>
 </defs>
 <g id="figure_1">
  <g id="patch_1">
   <path d="M 0 360 
L 504 360 
L 504 0 
L 0 0 
z
" style="fill: #ffffff"/>
  </g>
  <g id="axes_1">
   <g id="patch_2">
    <path d="M 58.25 156.658178 
L 493.2 156.658178 
L 493.2 30.48 
L 58.25 30.48 
z
" style="fill: #ffffff"/>
   </g>
   <g id="matplotlib.axis_1">
    <g id="xtick_1">
     <g id="line2d_1">
      <path d="M 78.020455 156.658178 
L 78.020455 30.48 
" clip-path="url(#p3eced6d0f7)" style="fill: none; stroke: #000000; stroke-opacity: 0.3; stroke-width: 0.5; stroke-linecap: square"/>
     </g>
     <g id="line2d_2">
      <defs>
       <path id="md45477229c" d="M 0 0 
L 0 3.5 
" style="stroke: #000000; stroke-width: 0.8"/>
      </defs>
      <g>
       <use xlink:href="#md45477229c" x="78.020455" y="156.658178" style="stroke: #000000; stroke-width: 0.8"/>
      </g>
     </g>
    </g>
    <g id="xtick_2">
     <g id="line2d_3">
      <path d="M 125.347411 156.658178 
L 125.347411 30.48 
" clip-path="url(#p3eced6d0f7)" style="fill: none; stroke: #000000; stroke-opacity: 0.3; stroke-width: 0.5; stroke-linecap: square"/>
     </g>
     <g id="line2d_4">
      <g>
       <use xlink:href="#md45477229c" x="125.347411" y="156.658178" style="stroke: #000000; stroke-width: 0.8"/>
      </g>
     </g>
    </g>
    <g id="xtick_3">
     <g id="line2d_5">
      <path d="M 168.09434 156.658178 
L 168.09434 30.48 
" clip-path="url(#p3eced6d0f7)" style="fill: none; stroke: #000000; stroke-opacity: 0.3; stroke-width: 0.5; stroke-linecap: square"/>
     </g>
     <g id="line2d_6">
      <g>
       <use xlink:href="#md45477229c" x="168.09434" y="156.658178" style="stroke: #000000; stroke-width: 0.8"/>
      </g>
     </g>
    </g>
    <g id="xtick_4">
     <g id="line2d_7">
      <path d="M 215.421297 156.658178 
L 215.421297 30.48 
" clip-path="url(#p3eced6d0f7)" style="fill: none; stroke: #000000; stroke-opacity: 0.3; stroke-width: 0.5; stroke-linecap: square"/>
     </g>
     <g id="line2d_8">
      <g>
       <use xlink:href="#md45477229c" x="215.421297" y="156.658178" style="stroke: #000000; stroke-width: 0.8"/>
      </g>
     </g>
    </g>
    <g id="xtick_5">
     <g id="line2d_9">
      <path d="M 261.221578 156.658178 
L 261.221578 30.48 
" clip-path="url(#p3eced6d0f7)" style="fill: none; stroke: #000000; stroke-opacity: 0.3; stroke-width: 0.5; stroke-linecap: square"/>
     </g>
     <g id="line2d_10">
      <g>
       <use xlink:href="#md45477229c" x="261.221578" y="156.658178" style="stroke: #000000; stroke-width: 0.8"/>
      </g>
     </g>
    </g>
    <g id="xtick_6">
     <g id="line2d_11">
      <path d="M 308.548535 156.658178 
L 308.548535 30.48 
" clip-path="url(#p3eced6d0f7)" style="fill: none; stroke: #000000; stroke-opacity: 0.3; stroke-width: 0.5; stroke-linecap: square"/>
     </g>
     <g id="line2d_12">
      <g>
       <use xlink:href="#md45477229c" x="308.548535" y="156.658178" style="stroke: #000000; stroke-width: 0.8"/>
      </g>
     </g>
    </g>
    <g id="xtick_7">
     <g id="line2d_13">
      <path d="M 354.348815 156.658178 
L 354.348815 30.48 
" clip-path="url(#p3eced6d0f7)" style="fill: none; stroke: #000000; stroke-opacity: 0.3; stroke-width: 0.5; stroke-linecap: square"/>
     </g>
     <g id="line2d_14">
      <g>
       <use xlink:href="#md45477229c" x="354.348815" y="156.658178" style="stroke: #000000; stroke-width: 0.8"/>
      </g>
     </g>
    </g>
    <g id="xtick_8">
     <g id="line2d_15">
      <path d="M 401.675772 156.658178 
L 401.675772 30.48 
" clip-path="url(#p3eced6d0f7)" style="fill: none; stroke: #000000; stroke-opacity: 0.3; stroke-width: 0.5; stroke-linecap: square"/>
     </g>
     <g id="line2d_16">
      <g>
       <use xlink:href="#md45477229c" x="401.675772" y="156.658178" style="stroke: #000000; stroke-width: 0.8"/>
      </g>
     </g>
    </g>
    <g id="xtick_9">
     <g id="line2d_17">
      <path d="M 449.002729 156.658178 
L 449.002729 30.48 
" clip-path="url(#p3eced6d0f7)" style="fill: none; stroke: #000000; stroke-opacity: 0.3; stroke-width: 0.5; stroke-linecap: square"/>
     </g>
     <g id="line2d_18">
      <g>
       <use xlink:href="#md45477229c" x="449.002729" y="156.658178" style="stroke: #000000; stroke-width: 0.8"/>
      </g>
     </g>
    </g>
   </g>
   <g id="matplotlib.axis_2">
    <g id="ytick_1">
     <g id="line2d_19">
      <path d="M 58.25 152.015265 
L 493.2 152.015265 
" clip-path="url(#p3eced6d0f7)" style="fill: none; stroke: #000000; stroke-opacity: 0.3; stroke-width: 0.5; stroke-linecap: square"/>
     </g>
     <g id="line2d_20">
      <defs>
       <path id="m59605a16ca" d="M 0 0 
L -3.5 0 
" style="stroke: #000000; stroke-width: 0.8"/>
      </defs>
      <g>
       <use xlink:href="#m59605a16ca" x="58.25" y="152.015265" style="stroke: #000000; stroke-width: 0.8"/>
      </g>
     </g>
     <g id="text_1">
      <!-- 90 -->
      <g transform="translate(38.653125 155.760578) scale(0.1 -0.1)">
       <defs>
        <path id="IPAexGothic-39" d="M 2984 2356 
Q 2544 1716 1813 1716 
Q 1253 1716 847 2056 
Q 366 2459 366 3163 
Q 366 3813 769 4266 
Q 1181 4725 1869 4725 
Q 2800 4725 3241 3950 
Q 3559 3378 3559 2472 
Q 3559 1250 3041 588 
Q 2553 -31 1769 -31 
Q 859 -31 391 703 
L 853 953 
Q 1156 428 1753 428 
Q 2922 428 3009 2356 
L 2984 2356 
z
M 1888 4278 
Q 1450 4278 1172 3950 
Q 922 3653 922 3200 
Q 922 2741 1159 2478 
Q 1434 2163 1906 2163 
Q 2431 2163 2728 2572 
Q 2925 2847 2925 3169 
Q 2925 3553 2694 3863 
Q 2375 4278 1888 4278 
z
" transform="scale(0.015625)"/>
        <path id="IPAexGothic-30" d="M 2038 4725 
Q 2881 4725 3334 3944 
Q 3694 3325 3694 2344 
Q 3694 1372 3334 741 
Q 2888 -31 2016 -31 
Q 1147 -31 700 741 
Q 341 1372 341 2350 
Q 341 3713 1000 4334 
Q 1419 4725 2038 4725 
z
M 2016 4266 
Q 1516 4266 1228 3759 
Q 934 3247 934 2344 
Q 934 1456 1222 947 
Q 1513 447 2016 447 
Q 2619 447 2909 1153 
Q 3100 1622 3100 2375 
Q 3100 3256 2806 3759 
Q 2509 4266 2016 4266 
z
" transform="scale(0.015625)"/>
       </defs>
       <use xlink:href="#IPAexGothic-39"/>
       <use xlink:href="#IPAexGothic-30" transform="translate(62.988281 0)"/>
      </g>
     </g>
    </g>
    <g id="ytick_2">
     <g id="line2d_21">
      <path d="M 58.25 124.924339 
L 493.2 124.924339 
" clip-path="url(#p3eced6d0f7)" style="fill: none; stroke: #000000; stroke-opacity: 0.3; stroke-width: 0.5; stroke-linecap: square"/>
     </g>
     <g id="line2d_22">
      <g>
       <use xlink:href="#m59605a16ca" x="58.25" y="124.924339" style="stroke: #000000; stroke-width: 0.8"/>
      </g>
     </g>
     <g id="text_2">
      <!-- 100 -->
      <g transform="translate(32.354688 128.669652) scale(0.1 -0.1)">
       <defs>
        <path id="IPAexGothic-31" d="M 2463 63 
L 1900 63 
L 1900 4103 
Q 1372 3922 788 3797 
L 684 4231 
Q 1519 4441 2106 4731 
L 2463 4731 
L 2463 63 
z
" transform="scale(0.015625)"/>
       </defs>
       <use xlink:href="#IPAexGothic-31"/>
       <use xlink:href="#IPAexGothic-30" transform="translate(62.988281 0)"/>
       <use xlink:href="#IPAexGothic-30" transform="translate(125.976562 0)"/>
      </g>
     </g>
    </g>
    <g id="ytick_3">
     <g id="line2d_23">
      <path d="M 58.25 97.833413 
L 493.2 97.833413 
" clip-path="url(#p3eced6d0f7)" style="fill: none; stroke: #000000; stroke-opacity: 0.3; stroke-width: 0.5; stroke-linecap: square"/>
     </g>
     <g id="line2d_24">
      <g>
       <use xlink:href="#m59605a16ca" x="58.25" y="97.833413" style="stroke: #000000; stroke-width: 0.8"/>
      </g>
     </g>
     <g id="text_3">
      <!-- 110 -->
      <g transform="translate(32.354688 101.578726) scale(0.1 -0.1)">
       <use xlink:href="#IPAexGothic-31"/>
       <use xlink:href="#IPAexGothic-31" transform="translate(62.988281 0)"/>
       <use xlink:href="#IPAexGothic-30" transform="translate(125.976562 0)"/>
      </g>
     </g>
    </g>
    <g id="ytick_4">
     <g id="line2d_25">
      <path d="M 58.25 70.742487 
L 493.2 70.742487 
" clip-path="url(#p3eced6d0f7)" style="fill: none; stroke: #000000; stroke-opacity: 0.3; stroke-width: 0.5; stroke-linecap: square"/>
     </g>
     <g id="line2d_26">
      <g>
       <use xlink:href="#m59605a16ca" x="58.25" y="70.742487" style="stroke: #000000; stroke-width: 0.8"/>
      </g>
     </g>
     <g id="text_4">
      <!-- 120 -->
      <g transform="translate(32.354688 74.4878) scale(0.1 -0.1)">
       <defs>
        <path id="IPAexGothic-32" d="M 3659 63 
L 447 63 
L 447 594 
Q 825 1475 1894 2203 
L 2072 2322 
Q 2619 2697 2791 2906 
Q 2988 3153 2988 3444 
Q 2988 3772 2756 4003 
Q 2500 4259 2084 4259 
Q 1250 4259 991 3328 
L 497 3506 
Q 853 4725 2116 4725 
Q 2806 4725 3216 4316 
Q 3575 3947 3575 3425 
Q 3575 3038 3344 2722 
Q 3131 2416 2366 1938 
L 2231 1856 
Q 1256 1253 978 569 
L 3659 569 
L 3659 63 
z
" transform="scale(0.015625)"/>
       </defs>
       <use xlink:href="#IPAexGothic-31"/>
       <use xlink:href="#IPAexGothic-32" transform="translate(62.988281 0)"/>
       <use xlink:href="#IPAexGothic-30" transform="translate(125.976562 0)"/>
      </g>
     </g>
    </g>
    <g id="ytick_5">
     <g id="line2d_27">
      <path d="M 58.25 43.651561 
L 493.2 43.651561 
" clip-path="url(#p3eced6d0f7)" style="fill: none; stroke: #000000; stroke-opacity: 0.3; stroke-width: 0.5; stroke-linecap: square"/>
     </g>
     <g id="line2d_28">
      <g>
       <use xlink:href="#m59605a16ca" x="58.25" y="43.651561" style="stroke: #000000; stroke-width: 0.8"/>
      </g>
     </g>
     <g id="text_5">
      <!-- 130 -->
      <g transform="translate(32.354688 47.396874) scale(0.1 -0.1)">
       <defs>
        <path id="IPAexGothic-33" d="M 2381 2419 
Q 3506 2216 3506 1278 
Q 3506 716 3128 356 
Q 2709 -31 1944 -31 
Q 797 -31 288 881 
L 756 1131 
Q 1109 441 1938 441 
Q 2425 441 2694 691 
Q 2950 928 2950 1291 
Q 2950 1719 2566 1978 
Q 2216 2213 1644 2213 
L 1363 2213 
L 1363 2669 
L 1656 2669 
Q 2231 2669 2534 2888 
Q 2859 3119 2859 3509 
Q 2859 3934 2494 4138 
Q 2259 4278 1931 4278 
Q 1238 4278 903 3578 
L 434 3803 
Q 897 4725 1938 4725 
Q 2597 4725 3006 4394 
Q 3416 4069 3416 3534 
Q 3416 3028 3019 2706 
Q 2763 2500 2381 2444 
L 2381 2419 
z
" transform="scale(0.015625)"/>
       </defs>
       <use xlink:href="#IPAexGothic-31"/>
       <use xlink:href="#IPAexGothic-33" transform="translate(62.988281 0)"/>
       <use xlink:href="#IPAexGothic-30" transform="translate(125.976562 0)"/>
      </g>
     </g>
    </g>
    <g id="text_6">
     <!-- 値 -->
     <g transform="translate(25.618688 100.769089) rotate(-90) scale(0.144 -0.144)">
      <defs>
       <path id="IPAexGothic-5024" d="M 4172 3675 
L 5453 3675 
L 5453 684 
L 3019 684 
L 3019 3675 
L 3750 3675 
Q 3788 3884 3825 4153 
L 2141 4153 
L 2141 4544 
L 3884 4544 
Q 3922 4844 3966 5325 
L 4434 5272 
L 4388 4953 
Q 4331 4578 4331 4544 
L 5863 4544 
L 5863 4153 
L 4269 4153 
Q 4200 3781 4172 3675 
z
M 5038 3316 
L 3434 3316 
L 3434 2803 
L 5038 2803 
L 5038 3316 
z
M 3434 2450 
L 3434 1941 
L 5038 1941 
L 5038 2450 
L 3434 2450 
z
M 3434 1588 
L 3434 1044 
L 5038 1044 
L 5038 1588 
L 3434 1588 
z
M 1509 3669 
L 1509 -447 
L 1069 -447 
L 1069 2725 
Q 856 2338 531 1875 
L 288 2266 
Q 1163 3531 1541 5325 
L 1975 5222 
Q 1791 4378 1509 3669 
z
M 2488 244 
L 6031 244 
L 6031 -153 
L 2488 -153 
L 2488 -447 
L 2059 -447 
L 2059 3213 
L 2488 3213 
L 2488 244 
z
" transform="scale(0.015625)"/>
      </defs>
      <use xlink:href="#IPAexGothic-5024"/>
     </g>
    </g>
   </g>
   <g id="line2d_29">
    <path d="M 78.020455 69.718161 
L 79.547131 70.558573 
L 81.073807 67.006725 
L 82.600483 75.155712 
L 84.127159 49.506536 
L 85.653835 50.612215 
L 87.180511 56.399703 
L 88.707187 48.582343 
L 90.233863 49.739505 
L 91.760539 53.131201 
L 93.287215 44.102363 
L 94.813891 50.765602 
L 96.340567 50.970101 
L 97.867243 54.005517 
L 99.393919 48.182825 
L 100.920595 52.510817 
L 102.447271 50.709659 
L 103.973947 58.977181 
L 105.500623 57.316393 
L 107.027299 65.402258 
L 108.553975 58.77076 
L 110.080651 65.217662 
L 111.607327 67.439578 
L 113.134003 70.030115 
L 114.660679 80.724975 
L 116.187355 73.911581 
L 117.714031 69.773626 
L 119.240707 92.35879 
L 120.767383 95.16791 
L 122.294059 95.974295 
L 123.820735 84.952451 
L 125.347411 90.139697 
L 126.874087 85.928796 
L 128.400763 88.382238 
L 129.927439 91.261108 
L 131.454115 90.546999 
L 132.980792 92.274282 
L 134.507468 85.516339 
L 136.034144 94.831014 
L 139.087496 83.357169 
L 140.614172 72.466858 
L 142.140848 83.699593 
L 143.667524 82.562854 
L 145.1942 76.810744 
L 146.720876 65.490791 
L 148.247552 68.999528 
L 149.774228 57.593113 
L 151.300904 72.073101 
L 152.82758 53.143137 
L 154.354256 51.204421 
L 155.880932 62.323095 
L 157.407608 51.942836 
L 158.934284 44.675957 
L 160.46096 49.654124 
L 161.987636 43.982437 
L 163.514312 36.215372 
L 165.040988 47.704256 
L 168.09434 54.825575 
L 169.621016 48.462009 
L 171.147692 54.730054 
L 174.201044 58.573887 
L 175.72772 57.046638 
L 177.254396 69.107599 
L 178.781072 74.525625 
L 180.307748 82.417868 
L 181.834424 65.75968 
L 183.3611 74.848677 
L 184.887776 69.972894 
L 186.414452 80.96575 
L 187.941128 87.50254 
L 189.467804 83.208129 
L 190.994481 88.23581 
L 192.521157 96.307047 
L 194.047833 95.632557 
L 195.574509 82.198717 
L 197.101185 90.376565 
L 198.627861 90.145966 
L 200.154537 93.584379 
L 201.681213 95.091517 
L 203.207889 85.390661 
L 204.734565 89.276889 
L 206.261241 90.961461 
L 207.787917 85.40019 
L 209.314593 87.134031 
L 210.841269 78.527881 
L 212.367945 70.59794 
L 213.894621 78.288814 
L 215.421297 63.002371 
L 216.947973 71.343513 
L 218.474649 63.937455 
L 220.001325 66.459086 
L 221.528001 60.461796 
L 223.054677 56.554672 
L 224.581353 56.991706 
L 226.108029 56.583348 
L 227.634705 54.93607 
L 229.161381 54.579683 
L 230.688057 57.905988 
L 232.214733 50.507767 
L 233.741409 47.014922 
L 235.268085 44.79163 
L 236.794761 47.141749 
L 238.321437 38.659039 
L 239.848113 51.937458 
L 241.374789 58.159838 
L 242.901465 47.862707 
L 244.428141 66.241773 
L 245.954817 58.082582 
L 247.481494 71.411622 
L 249.00817 67.312031 
L 250.534846 82.919439 
L 252.061522 70.376072 
L 253.588198 79.012416 
L 255.114874 86.1603 
L 256.64155 74.387419 
L 258.168226 81.650805 
L 261.221578 93.550582 
L 262.748254 91.072049 
L 264.27493 92.659651 
L 265.801606 88.369529 
L 267.328282 88.077906 
L 268.854958 95.703998 
L 271.90831 93.104646 
L 273.434986 96.020854 
L 274.961662 90.053735 
L 276.488338 85.17414 
L 278.015014 78.483584 
L 279.54169 72.403524 
L 281.068366 81.096072 
L 282.595042 70.773457 
L 284.121718 73.150637 
L 285.648394 56.482473 
L 287.17507 65.032663 
L 288.701746 59.206772 
L 290.228422 64.329984 
L 291.755098 61.203984 
L 293.281774 53.54368 
L 294.80845 54.855849 
L 296.335126 49.348974 
L 297.861802 58.592738 
L 299.388478 45.812139 
L 300.915154 53.9565 
L 302.44183 39.856063 
L 303.968506 51.276488 
L 305.495183 44.702687 
L 307.021859 59.531621 
L 308.548535 51.340024 
L 310.075211 60.498846 
L 311.601887 60.641625 
L 313.128563 60.434484 
L 314.655239 65.047944 
L 316.181915 64.804685 
L 317.708591 65.179738 
L 319.235267 68.717407 
L 320.761943 75.722494 
L 322.288619 85.54232 
L 323.815295 85.276944 
L 325.341971 84.542048 
L 326.868647 97.294084 
L 328.395323 83.745928 
L 329.921999 90.810035 
L 331.448675 92.198797 
L 332.975351 86.632977 
L 334.502027 88.67764 
L 336.028703 91.204601 
L 337.555379 97.511381 
L 339.082055 89.672567 
L 340.608731 88.346164 
L 342.135407 93.503869 
L 343.662083 81.195616 
L 345.188759 81.92163 
L 346.715435 92.89908 
L 348.242111 78.89684 
L 349.768787 83.568672 
L 351.295463 67.601984 
L 352.822139 66.36986 
L 354.348815 73.705684 
L 355.875491 69.563074 
L 357.402167 61.375529 
L 358.928843 60.551606 
L 360.455519 48.547685 
L 361.982196 50.621769 
L 363.508872 54.305214 
L 365.035548 48.134719 
L 366.562224 61.141752 
L 368.0889 47.7201 
L 369.615576 44.388595 
L 371.142252 50.15807 
L 372.668928 53.561591 
L 375.72228 41.361206 
L 377.248956 52.554117 
L 378.775632 61.759376 
L 380.302308 50.169932 
L 381.828984 70.74607 
L 383.35566 60.603516 
L 384.882336 69.389609 
L 386.409012 64.188519 
L 387.935688 76.856911 
L 389.462364 68.075651 
L 390.98904 76.528066 
L 392.515716 90.273565 
L 394.042392 94.175889 
L 397.095744 80.808562 
L 398.62242 88.823359 
L 400.149096 90.47343 
L 401.675772 93.049626 
L 403.202448 88.298423 
L 404.729124 90.357599 
L 406.2558 90.567005 
L 407.782476 96.6899 
L 409.309152 83.785808 
L 410.835828 81.324582 
L 412.362504 93.899447 
L 413.88918 72.20353 
L 415.415856 78.312616 
L 416.942532 82.201692 
L 418.469208 87.034457 
L 419.995885 70.199834 
L 421.522561 67.721787 
L 423.049237 70.953468 
L 424.575913 74.470219 
L 426.102589 55.834766 
L 427.629265 62.445305 
L 429.155941 59.36752 
L 430.682617 39.21827 
L 432.209293 41.245223 
L 433.735969 46.095635 
L 435.262645 52.598041 
L 436.789321 45.880103 
L 438.315997 61.444375 
L 439.842673 48.611258 
L 441.369349 53.830356 
L 442.896025 57.613519 
L 444.422701 60.549271 
L 445.949377 50.81882 
L 447.476053 55.20349 
L 449.002729 57.138157 
L 450.529405 56.003602 
L 452.056081 67.914212 
L 453.582757 72.931096 
L 455.109433 78.85535 
L 456.636109 74.070458 
L 458.162785 71.129836 
L 459.689461 78.964605 
L 461.216137 77.443471 
L 462.742813 89.880572 
L 464.269489 88.339424 
L 465.796165 91.970827 
L 467.322841 96.275573 
L 468.849517 80.762131 
L 470.376193 87.154398 
L 471.902869 96.424079 
L 473.429545 96.552449 
L 473.429545 96.552449 
" clip-path="url(#p3eced6d0f7)" style="fill: none; stroke: #2563eb; stroke-width: 1.2; stroke-linecap: square"/>
   </g>
   <g id="line2d_30">
    <path d="M 78.020455 125.265233 
L 79.547131 131.256789 
L 81.073807 117.846445 
L 82.600483 126.026684 
L 84.127159 118.518519 
L 85.653835 120.584059 
L 87.180511 115.704748 
L 88.707187 119.382404 
L 90.233863 119.688867 
L 91.760539 115.223541 
L 93.287215 112.969588 
L 94.813891 110.437228 
L 96.340567 108.347685 
L 97.867243 100.052307 
L 99.393919 105.012354 
L 100.920595 112.354761 
L 102.447271 107.789099 
L 103.973947 117.738806 
L 105.500623 106.737137 
L 107.027299 114.018403 
L 108.553975 127.445761 
L 110.080651 117.042727 
L 111.607327 118.926565 
L 113.134003 142.064358 
L 114.660679 132.7625 
L 116.187355 133.307709 
L 117.714031 144.049331 
L 119.240707 140.838909 
L 120.767383 141.867921 
L 122.294059 134.710811 
L 123.820735 137.210436 
L 125.347411 124.343295 
L 126.874087 143.045853 
L 128.400763 134.21659 
L 129.927439 140.699068 
L 131.454115 139.317233 
L 132.980792 147.294738 
L 134.507468 150.922807 
L 136.034144 142.972183 
L 137.56082 132.461301 
L 139.087496 125.939039 
L 140.614172 129.938152 
L 142.140848 128.565906 
L 143.667524 134.403755 
L 145.1942 118.042139 
L 146.720876 116.915249 
L 148.247552 125.825906 
L 149.774228 120.720346 
L 151.300904 124.249489 
L 152.82758 107.566179 
L 154.354256 112.05424 
L 155.880932 113.411436 
L 157.407608 109.023576 
L 158.934284 107.688731 
L 161.987636 116.31646 
L 163.514312 116.330813 
L 165.040988 119.119499 
L 166.567664 106.403544 
L 168.09434 96.63086 
L 169.621016 120.97394 
L 171.147692 111.291381 
L 172.674368 111.18351 
L 174.201044 121.238524 
L 175.72772 116.074909 
L 177.254396 125.902702 
L 178.781072 114.390426 
L 180.307748 127.332205 
L 181.834424 125.458859 
L 183.3611 124.225769 
L 184.887776 133.04545 
L 186.414452 143.231133 
L 189.467804 131.668248 
L 190.994481 138.236919 
L 192.521157 137.631653 
L 194.047833 146.434499 
L 195.574509 139.842456 
L 197.101185 136.749973 
L 198.627861 140.951763 
L 200.154537 129.560177 
L 201.681213 141.621791 
L 203.207889 145.740288 
L 204.734565 148.041232 
L 206.261241 130.137869 
L 207.787917 135.724315 
L 209.314593 127.508672 
L 210.841269 128.807954 
L 212.367945 119.719193 
L 213.894621 119.640531 
L 215.421297 127.174566 
L 216.947973 121.029787 
L 218.474649 113.975155 
L 220.001325 125.680028 
L 221.528001 107.663392 
L 223.054677 107.252627 
L 224.581353 106.986609 
L 226.108029 112.646258 
L 227.634705 108.51408 
L 229.161381 116.124088 
L 230.688057 108.57132 
L 232.214733 112.18047 
L 233.741409 108.242906 
L 235.268085 112.100588 
L 236.794761 108.161908 
L 238.321437 103.818657 
L 239.848113 119.920814 
L 241.374789 108.117643 
L 242.901465 127.241361 
L 244.428141 130.173054 
L 245.954817 120.076391 
L 247.481494 121.50472 
L 249.00817 121.151384 
L 250.534846 135.876622 
L 252.061522 128.661086 
L 253.588198 129.729637 
L 255.114874 125.074364 
L 256.64155 135.097412 
L 258.168226 133.062909 
L 259.694902 143.558564 
L 261.221578 140.119024 
L 262.748254 142.650693 
L 264.27493 136.504368 
L 265.801606 146.983217 
L 267.328282 146.141558 
L 268.854958 137.49906 
L 270.381634 129.718291 
L 271.90831 137.252924 
L 273.434986 136.590756 
L 274.961662 139.066838 
L 276.488338 128.885548 
L 278.015014 130.320034 
L 279.54169 121.205828 
L 281.068366 127.43366 
L 282.595042 132.840654 
L 284.121718 128.321193 
L 285.648394 128.547077 
L 287.17507 127.898874 
L 288.701746 110.781255 
L 290.228422 111.499006 
L 291.755098 121.858437 
L 293.281774 102.228172 
L 294.80845 109.991119 
L 296.335126 116.017921 
L 297.861802 107.163454 
L 299.388478 109.329125 
L 300.915154 113.284711 
L 302.44183 120.338723 
L 303.968506 108.933763 
L 305.495183 108.113081 
L 307.021859 126.218792 
L 308.548535 108.808325 
L 310.075211 109.951879 
L 311.601887 118.170135 
L 313.128563 116.625034 
L 314.655239 121.037677 
L 316.181915 126.533961 
L 317.708591 125.936408 
L 319.235267 118.002636 
L 320.761943 136.949535 
L 322.288619 129.070058 
L 323.815295 131.458048 
L 325.341971 138.696006 
L 326.868647 138.840126 
L 328.395323 146.079573 
L 329.921999 144.078895 
L 331.448675 139.906188 
L 332.975351 138.748837 
L 334.502027 146.44418 
L 336.028703 122.953181 
L 337.555379 144.331207 
L 339.082055 139.624453 
L 340.608731 140.908095 
L 342.135407 140.782665 
L 343.662083 129.249452 
L 345.188759 138.226284 
L 346.715435 125.584979 
L 348.242111 124.730433 
L 349.768787 135.63687 
L 351.295463 121.014991 
L 352.822139 128.800595 
L 354.348815 106.352838 
L 355.875491 122.743527 
L 357.402167 123.92094 
L 358.928843 127.700759 
L 361.982196 116.30552 
L 363.508872 117.396951 
L 365.035548 117.63782 
L 366.562224 113.609566 
L 368.0889 110.147752 
L 369.615576 100.04157 
L 371.142252 118.910472 
L 372.668928 112.440396 
L 374.195604 115.538587 
L 375.72228 119.877768 
L 377.248956 119.661754 
L 378.775632 119.031159 
L 380.302308 111.09657 
L 381.828984 118.448936 
L 383.35566 122.571347 
L 384.882336 117.901526 
L 386.409012 122.117091 
L 387.935688 127.38924 
L 389.462364 126.013506 
L 390.98904 135.4207 
L 392.515716 128.816196 
L 394.042392 131.695653 
L 395.569068 138.673037 
L 397.095744 145.001186 
L 398.62242 129.941608 
L 400.149096 139.433862 
L 401.675772 122.510514 
L 403.202448 144.984171 
L 404.729124 136.086045 
L 406.2558 143.519899 
L 409.309152 134.566822 
L 410.835828 143.163854 
L 412.362504 137.600368 
L 413.88918 134.413354 
L 415.415856 132.861599 
L 418.469208 123.292342 
L 419.995885 122.218108 
L 421.522561 123.356783 
L 423.049237 124.732486 
L 424.575913 127.176895 
L 426.102589 122.696589 
L 427.629265 119.46089 
L 429.155941 110.407134 
L 430.682617 115.011968 
L 432.209293 118.853046 
L 433.735969 106.58181 
L 435.262645 114.252715 
L 436.789321 113.481068 
L 438.315997 110.028264 
L 439.842673 105.938686 
L 441.369349 123.535196 
L 444.422701 109.800969 
L 447.476053 118.785665 
L 449.002729 118.597212 
L 450.529405 109.037168 
L 452.056081 122.081096 
L 453.582757 117.297341 
L 455.109433 119.070936 
L 456.636109 128.741519 
L 458.162785 125.660953 
L 459.689461 133.167142 
L 461.216137 136.193481 
L 462.742813 141.189458 
L 464.269489 131.00096 
L 465.796165 140.106135 
L 467.322841 142.291968 
L 468.849517 146.714877 
L 470.376193 129.915342 
L 471.902869 136.668686 
L 473.429545 141.960508 
L 473.429545 141.960508 
" clip-path="url(#p3eced6d0f7)" style="fill: none; stroke: #f97316; stroke-opacity: 0.85; stroke-width: 1.2; stroke-linecap: square"/>
   </g>
   <g id="text_7">
    <!-- 系列Aと系列Bの推移 -->
    <g transform="translate(195.40405 24.48) scale(0.1728 -0.1728)">
     <defs>
      <path id="IPAexGothic-7cfb" d="M 3016 2547 
Q 3747 3259 4341 4013 
L 4769 3744 
Q 3978 2831 3259 2194 
Q 3303 2203 3406 2203 
Q 3681 2209 4988 2272 
Q 4756 2522 4469 2791 
L 4794 3041 
Q 5478 2466 6013 1813 
L 5628 1491 
Q 5484 1688 5275 1941 
Q 5238 1938 5116 1925 
Q 5022 1916 4963 1913 
L 4188 1863 
Q 3803 1838 3419 1806 
L 3419 -447 
L 2944 -447 
L 2944 1778 
L 2609 1759 
Q 1972 1728 684 1697 
L 513 2150 
Q 1878 2150 2553 2175 
L 2625 2175 
L 2694 2241 
Q 2084 2869 1222 3519 
L 1569 3847 
Q 2047 3456 2119 3391 
Q 2497 3819 2791 4325 
L 2675 4319 
Q 1919 4250 856 4197 
L 678 4616 
Q 3319 4750 5000 5094 
L 5397 4684 
Q 4234 4475 2963 4347 
L 3303 4197 
Q 2797 3484 2431 3109 
Q 2788 2778 3016 2547 
z
M 525 31 
Q 1366 641 1869 1403 
L 2291 1191 
Q 1731 313 934 -313 
L 525 31 
z
M 5544 -141 
Q 4738 722 4038 1241 
L 4409 1516 
Q 5225 956 5972 213 
L 5544 -141 
z
" transform="scale(0.015625)"/>
      <path id="IPAexGothic-5217" d="M 2334 1600 
Q 1944 1966 1306 2378 
Q 1038 1938 709 1541 
L 434 1906 
Q 1325 2934 1663 4550 
L 606 4550 
L 606 4953 
L 3781 4953 
L 3781 4550 
L 2097 4550 
Q 2091 4531 2078 4466 
Q 2000 4100 1900 3781 
L 3141 3781 
L 3409 3575 
Q 3156 2138 2656 1247 
Q 2097 269 1003 -500 
L 684 -128 
Q 1769 563 2334 1600 
z
M 2534 2009 
Q 2794 2656 2919 3384 
L 1766 3384 
Q 1638 3034 1478 2706 
Q 2181 2294 2534 2009 
z
M 3956 4416 
L 4409 4416 
L 4409 966 
L 3956 966 
L 3956 4416 
z
M 5306 5056 
L 5759 5056 
L 5759 197 
Q 5759 -138 5569 -263 
Q 5419 -353 5094 -353 
Q 4547 -353 3963 -294 
L 3878 191 
Q 4600 116 5038 116 
Q 5306 116 5306 359 
L 5306 5056 
z
" transform="scale(0.015625)"/>
      <path id="IPAexGothic-41" d="M 4056 63 
L 3444 63 
L 2938 1409 
L 1100 1409 
L 603 63 
L -6 63 
L 1806 4666 
L 2259 4666 
L 4056 63 
z
M 2778 1863 
L 2316 3078 
Q 2125 3588 2028 4000 
L 2009 4000 
Q 1897 3563 1716 3078 
L 1263 1863 
L 2778 1863 
z
" transform="scale(0.015625)"/>
      <path id="IPAexGothic-3068" d="M 5222 56 
Q 4200 -72 3450 -72 
Q 2478 -72 1941 113 
Q 1184 372 1184 1038 
Q 1184 1584 1594 2009 
Q 1941 2369 2656 2725 
Q 2231 3734 1972 4878 
L 2491 4978 
Q 2706 3884 3078 2950 
Q 4250 3447 4756 3616 
L 4978 3150 
Q 3181 2575 2409 2078 
Q 1691 1613 1691 1113 
Q 1691 403 3322 403 
Q 4125 403 5134 563 
L 5222 56 
z
" transform="scale(0.015625)"/>
      <path id="IPAexGothic-42" d="M 2688 2425 
Q 3816 2225 3816 1338 
Q 3816 556 3041 222 
Q 2672 63 2094 63 
L 609 63 
L 609 4634 
L 1916 4634 
Q 2494 4634 2869 4500 
Q 3644 4222 3644 3491 
Q 3644 2609 2688 2447 
L 2688 2425 
z
M 1159 2656 
L 1844 2656 
Q 3063 2656 3063 3431 
Q 3063 4181 1881 4181 
L 1159 4181 
L 1159 2656 
z
M 1159 522 
L 2016 522 
Q 3222 522 3222 1369 
Q 3222 1897 2625 2100 
Q 2278 2222 1875 2222 
L 1159 2222 
L 1159 522 
z
" transform="scale(0.015625)"/>
      <path id="IPAexGothic-306e" d="M 3119 469 
Q 5275 766 5275 2425 
Q 5275 3453 4413 3925 
Q 4041 4116 3547 4159 
Q 3394 2525 2850 1400 
Q 2322 306 1722 306 
Q 1384 306 1084 666 
Q 609 1244 609 2003 
Q 609 3025 1397 3794 
Q 2184 4563 3431 4563 
Q 4306 4563 4928 4122 
Q 5813 3506 5813 2425 
Q 5813 438 3431 6 
L 3119 469 
z
M 3053 4147 
Q 2378 4044 1891 3641 
Q 1097 2981 1097 1991 
Q 1097 1366 1434 978 
Q 1581 813 1719 813 
Q 2022 813 2416 1625 
Q 2909 2638 3053 4147 
z
" transform="scale(0.015625)"/>
      <path id="IPAexGothic-63a8" d="M 3244 4063 
L 4244 4063 
Q 4481 4578 4653 5228 
L 5125 5100 
Q 4913 4484 4691 4063 
L 5906 4063 
L 5906 3666 
L 4647 3666 
L 4647 2822 
L 5747 2822 
L 5747 2438 
L 4647 2438 
L 4647 1594 
L 5747 1594 
L 5747 1216 
L 4647 1216 
L 4647 319 
L 6047 319 
L 6047 -91 
L 3244 -91 
L 3244 -481 
L 2816 -481 
L 2816 3188 
L 2791 3128 
Q 2581 2744 2366 2463 
L 2084 2797 
Q 2813 3728 3166 5284 
L 3616 5144 
Q 3431 4500 3244 4063 
z
M 3244 319 
L 4231 319 
L 4231 1216 
L 3244 1216 
L 3244 319 
z
M 3244 1594 
L 4231 1594 
L 4231 2438 
L 3244 2438 
L 3244 1594 
z
M 3244 2822 
L 4231 2822 
L 4231 3666 
L 3244 3666 
L 3244 2822 
z
M 1184 4084 
L 1184 5313 
L 1613 5313 
L 1613 4084 
L 2328 4084 
L 2328 3669 
L 1613 3669 
L 1613 2241 
Q 1997 2341 2334 2453 
L 2359 2069 
Q 1809 1884 1631 1831 
L 1613 1825 
L 1613 44 
Q 1613 -197 1522 -294 
Q 1413 -403 1081 -403 
Q 738 -403 519 -366 
L 441 97 
Q 741 38 978 38 
Q 1184 38 1184 219 
L 1184 1703 
L 1147 1697 
Q 734 1581 409 1509 
L 275 1941 
Q 722 2022 1138 2119 
Q 1147 2122 1166 2125 
Q 1178 2128 1184 2131 
L 1184 3669 
L 372 3669 
L 372 4084 
L 1184 4084 
z
" transform="scale(0.015625)"/>
      <path id="IPAexGothic-79fb" d="M 4691 2419 
L 5844 2419 
L 6069 2188 
Q 5503 1156 4763 513 
Q 4081 -75 2975 -469 
L 2681 -97 
Q 3684 194 4384 728 
Q 4097 1056 3731 1356 
Q 3381 1053 2919 819 
L 2669 1150 
Q 3853 1772 4500 2878 
L 4909 2772 
Q 4772 2528 4691 2419 
z
M 4409 2034 
Q 4219 1803 4000 1588 
Q 4375 1341 4703 1009 
Q 5219 1488 5497 2034 
L 4409 2034 
z
M 1350 2328 
Q 1009 1334 513 659 
L 263 1081 
Q 966 2022 1266 3128 
L 366 3128 
L 366 3531 
L 1350 3531 
L 1350 4400 
Q 919 4322 575 4266 
L 366 4644 
Q 1506 4809 2378 5144 
L 2700 4747 
Q 2238 4600 1784 4491 
L 1784 3531 
L 2616 3531 
L 2616 3128 
L 1784 3128 
L 1784 2688 
Q 2306 2266 2719 1803 
L 2444 1356 
Q 2106 1838 1784 2181 
L 1784 -450 
L 1350 -450 
L 1350 2328 
z
M 4275 4800 
L 5491 4800 
L 5709 4609 
Q 4763 2809 2875 2047 
L 2606 2388 
Q 3534 2722 4134 3244 
Q 3869 3519 3450 3794 
Q 3184 3569 2859 3359 
L 2591 3666 
Q 3578 4259 4056 5288 
L 4481 5191 
Q 4406 5034 4275 4800 
z
M 4019 4416 
Q 3856 4194 3700 4038 
Q 4128 3759 4372 3553 
L 4416 3513 
Q 4884 3991 5119 4416 
L 4019 4416 
z
" transform="scale(0.015625)"/>
     </defs>
     <use xlink:href="#IPAexGothic-7cfb"/>
     <use xlink:href="#IPAexGothic-5217" transform="translate(100 0)"/>
     <use xlink:href="#IPAexGothic-41" transform="translate(200 0)"/>
     <use xlink:href="#IPAexGothic-3068" transform="translate(263.720703 0)"/>
     <use xlink:href="#IPAexGothic-7cfb" transform="translate(363.720703 0)"/>
     <use xlink:href="#IPAexGothic-5217" transform="translate(463.720703 0)"/>
     <use xlink:href="#IPAexGothic-42" transform="translate(563.720703 0)"/>
     <use xlink:href="#IPAexGothic-306e" transform="translate(629.638672 0)"/>
     <use xlink:href="#IPAexGothic-63a8" transform="translate(729.638672 0)"/>
     <use xlink:href="#IPAexGothic-79fb" transform="translate(829.638672 0)"/>
    </g>
   </g>
   <g id="legend_1">
    <g id="patch_3">
     <path d="M 72.65 85.4175 
L 142.960625 85.4175 
Q 145.360625 85.4175 145.360625 83.0175 
L 145.360625 44.88 
Q 145.360625 42.48 142.960625 42.48 
L 72.65 42.48 
Q 70.25 42.48 70.25 44.88 
L 70.25 83.0175 
Q 70.25 85.4175 72.65 85.4175 
z
" style="fill: #ffffff; opacity: 0.8; stroke: #cccccc; stroke-linejoin: miter"/>
    </g>
    <g id="line2d_31">
     <path d="M 75.05 52.06875 
L 87.05 52.06875 
L 99.05 52.06875 
" style="fill: none; stroke: #2563eb; stroke-width: 1.2; stroke-linecap: square"/>
    </g>
    <g id="text_8">
     <!-- 系列A -->
     <g transform="translate(108.65 56.26875) scale(0.12 -0.12)">
      <use xlink:href="#IPAexGothic-7cfb"/>
      <use xlink:href="#IPAexGothic-5217" transform="translate(100 0)"/>
      <use xlink:href="#IPAexGothic-41" transform="translate(200 0)"/>
     </g>
    </g>
    <g id="line2d_32">
     <path d="M 75.05 74.1375 
L 87.05 74.1375 
L 99.05 74.1375 
" style="fill: none; stroke: #f97316; stroke-opacity: 0.85; stroke-width: 1.2; stroke-linecap: square"/>
    </g>
    <g id="text_9">
     <!-- 系列B -->
     <g transform="translate(108.65 78.3375) scale(0.12 -0.12)">
      <use xlink:href="#IPAexGothic-7cfb"/>
      <use xlink:href="#IPAexGothic-5217" transform="translate(100 0)"/>
      <use xlink:href="#IPAexGothic-42" transform="translate(200 0)"/>
     </g>
    </g>
   </g>
  </g>
  <g id="axes_2">
   <g id="patch_4">
    <path d="M 58.25 314.44 
L 493.2 314.44 
L 493.2 188.261822 
L 58.25 188.261822 
z
" style="fill: #ffffff"/>
   </g>
   <g id="matplotlib.axis_3">
    <g id="xtick_10">
     <g id="line2d_33">
      <path d="M 78.020455 314.44 
L 78.020455 188.261822 
" clip-path="url(#pe6b68d3c15)" style="fill: none; stroke: #000000; stroke-opacity: 0.3; stroke-width: 0.5; stroke-linecap: square"/>
     </g>
     <g id="line2d_34">
      <g>
       <use xlink:href="#md45477229c" x="78.020455" y="314.44" style="stroke: #000000; stroke-width: 0.8"/>
      </g>
     </g>
     <g id="text_10">
      <!-- 2021-01 -->
      <g transform="translate(57.335298 328.930625) scale(0.1 -0.1)">
       <defs>
        <path id="IPAexGothic-2d" d="M 1969 1703 
L 319 1703 
L 319 2203 
L 1969 2203 
L 1969 1703 
z
" transform="scale(0.015625)"/>
       </defs>
       <use xlink:href="#IPAexGothic-32"/>
       <use xlink:href="#IPAexGothic-30" transform="translate(62.988281 0)"/>
       <use xlink:href="#IPAexGothic-32" transform="translate(125.976562 0)"/>
       <use xlink:href="#IPAexGothic-31" transform="translate(188.964844 0)"/>
       <use xlink:href="#IPAexGothic-2d" transform="translate(251.953125 0)"/>
       <use xlink:href="#IPAexGothic-30" transform="translate(287.744141 0)"/>
       <use xlink:href="#IPAexGothic-31" transform="translate(350.732422 0)"/>
      </g>
     </g>
    </g>
    <g id="xtick_11">
     <g id="line2d_35">
      <path d="M 125.347411 314.44 
L 125.347411 188.261822 
" clip-path="url(#pe6b68d3c15)" style="fill: none; stroke: #000000; stroke-opacity: 0.3; stroke-width: 0.5; stroke-linecap: square"/>
     </g>
     <g id="line2d_36">
      <g>
       <use xlink:href="#md45477229c" x="125.347411" y="314.44" style="stroke: #000000; stroke-width: 0.8"/>
      </g>
     </g>
     <g id="text_11">
      <!-- 2021-02 -->
      <g transform="translate(104.662255 328.930625) scale(0.1 -0.1)">
       <use xlink:href="#IPAexGothic-32"/>
       <use xlink:href="#IPAexGothic-30" transform="translate(62.988281 0)"/>
       <use xlink:href="#IPAexGothic-32" transform="translate(125.976562 0)"/>
       <use xlink:href="#IPAexGothic-31" transform="translate(188.964844 0)"/>
       <use xlink:href="#IPAexGothic-2d" transform="translate(251.953125 0)"/>
       <use xlink:href="#IPAexGothic-30" transform="translate(287.744141 0)"/>
       <use xlink:href="#IPAexGothic-32" transform="translate(350.732422 0)"/>
      </g>
     </g>
    </g>
    <g id="xtick_12">
     <g id="line2d_37">
      <path d="M 168.09434 314.44 
L 168.09434 188.261822 
" clip-path="url(#pe6b68d3c15)" style="fill: none; stroke: #000000; stroke-opacity: 0.3; stroke-width: 0.5; stroke-linecap: square"/>
     </g>
     <g id="line2d_38">
      <g>
       <use xlink:href="#md45477229c" x="168.09434" y="314.44" style="stroke: #000000; stroke-width: 0.8"/>
      </g>
     </g>
     <g id="text_12">
      <!-- 2021-03 -->
      <g transform="translate(147.409184 328.930625) scale(0.1 -0.1)">
       <use xlink:href="#IPAexGothic-32"/>
       <use xlink:href="#IPAexGothic-30" transform="translate(62.988281 0)"/>
       <use xlink:href="#IPAexGothic-32" transform="translate(125.976562 0)"/>
       <use xlink:href="#IPAexGothic-31" transform="translate(188.964844 0)"/>
       <use xlink:href="#IPAexGothic-2d" transform="translate(251.953125 0)"/>
       <use xlink:href="#IPAexGothic-30" transform="translate(287.744141 0)"/>
       <use xlink:href="#IPAexGothic-33" transform="translate(350.732422 0)"/>
      </g>
     </g>
    </g>
    <g id="xtick_13">
     <g id="line2d_39">
      <path d="M 215.421297 314.44 
L 215.421297 188.261822 
" clip-path="url(#pe6b68d3c15)" style="fill: none; stroke: #000000; stroke-opacity: 0.3; stroke-width: 0.5; stroke-linecap: square"/>
     </g>
     <g id="line2d_40">
      <g>
       <use xlink:href="#md45477229c" x="215.421297" y="314.44" style="stroke: #000000; stroke-width: 0.8"/>
      </g>
     </g>
     <g id="text_13">
      <!-- 2021-04 -->
      <g transform="translate(194.736141 328.930625) scale(0.1 -0.1)">
       <defs>
        <path id="IPAexGothic-34" d="M 3813 1159 
L 3059 1159 
L 3059 63 
L 2547 63 
L 2547 1159 
L 197 1159 
L 197 1672 
L 2456 4678 
L 3059 4678 
L 3059 1634 
L 3813 1634 
L 3813 1159 
z
M 2578 4109 
L 2559 4109 
Q 2278 3656 2003 3284 
L 759 1634 
L 2547 1634 
L 2547 3144 
Q 2547 3481 2578 4109 
z
" transform="scale(0.015625)"/>
       </defs>
       <use xlink:href="#IPAexGothic-32"/>
       <use xlink:href="#IPAexGothic-30" transform="translate(62.988281 0)"/>
       <use xlink:href="#IPAexGothic-32" transform="translate(125.976562 0)"/>
       <use xlink:href="#IPAexGothic-31" transform="translate(188.964844 0)"/>
       <use xlink:href="#IPAexGothic-2d" transform="translate(251.953125 0)"/>
       <use xlink:href="#IPAexGothic-30" transform="translate(287.744141 0)"/>
       <use xlink:href="#IPAexGothic-34" transform="translate(350.732422 0)"/>
      </g>
     </g>
    </g>
    <g id="xtick_14">
     <g id="line2d_41">
      <path d="M 261.221578 314.44 
L 261.221578 188.261822 
" clip-path="url(#pe6b68d3c15)" style="fill: none; stroke: #000000; stroke-opacity: 0.3; stroke-width: 0.5; stroke-linecap: square"/>
     </g>
     <g id="line2d_42">
      <g>
       <use xlink:href="#md45477229c" x="261.221578" y="314.44" style="stroke: #000000; stroke-width: 0.8"/>
      </g>
     </g>
     <g id="text_14">
      <!-- 2021-05 -->
      <g transform="translate(240.536421 328.930625) scale(0.1 -0.1)">
       <defs>
        <path id="IPAexGothic-35" d="M 1178 2603 
Q 1634 2963 2172 2963 
Q 2816 2963 3241 2528 
Q 3638 2113 3638 1497 
Q 3638 938 3297 513 
Q 2869 -31 2031 -31 
Q 959 -31 469 784 
L 938 1028 
Q 1309 434 2013 434 
Q 2466 434 2769 716 
Q 3081 1013 3081 1503 
Q 3081 1966 2806 2241 
Q 2519 2528 2056 2528 
Q 1406 2528 1072 2028 
L 591 2091 
L 884 4634 
L 3406 4634 
L 3406 4153 
L 1341 4153 
L 1134 2603 
L 1178 2603 
z
" transform="scale(0.015625)"/>
       </defs>
       <use xlink:href="#IPAexGothic-32"/>
       <use xlink:href="#IPAexGothic-30" transform="translate(62.988281 0)"/>
       <use xlink:href="#IPAexGothic-32" transform="translate(125.976562 0)"/>
       <use xlink:href="#IPAexGothic-31" transform="translate(188.964844 0)"/>
       <use xlink:href="#IPAexGothic-2d" transform="translate(251.953125 0)"/>
       <use xlink:href="#IPAexGothic-30" transform="translate(287.744141 0)"/>
       <use xlink:href="#IPAexGothic-35" transform="translate(350.732422 0)"/>
      </g>
     </g>
    </g>
    <g id="xtick_15">
     <g id="line2d_43">
      <path d="M 308.548535 314.44 
L 308.548535 188.261822 
" clip-path="url(#pe6b68d3c15)" style="fill: none; stroke: #000000; stroke-opacity: 0.3; stroke-width: 0.5; stroke-linecap: square"/>
     </g>
     <g id="line2d_44">
      <g>
       <use xlink:href="#md45477229c" x="308.548535" y="314.44" style="stroke: #000000; stroke-width: 0.8"/>
      </g>
     </g>
     <g id="text_15">
      <!-- 2021-06 -->
      <g transform="translate(287.863378 328.930625) scale(0.1 -0.1)">
       <defs>
        <path id="IPAexGothic-36" d="M 1056 2328 
Q 1509 2981 2234 2981 
Q 2906 2981 3316 2513 
Q 3675 2106 3675 1522 
Q 3675 884 3272 434 
Q 2853 -31 2178 -31 
Q 1375 -31 922 581 
Q 481 1178 481 2228 
Q 481 3425 1013 4109 
Q 1494 4725 2272 4725 
Q 3191 4725 3609 4025 
L 3150 3775 
Q 2894 4266 2300 4266 
Q 1119 4266 1031 2328 
L 1056 2328 
z
M 2141 2547 
Q 1684 2547 1384 2206 
Q 1116 1900 1116 1541 
Q 1116 1156 1353 844 
Q 1672 428 2159 428 
Q 2669 428 2941 844 
Q 3125 1128 3125 1503 
Q 3125 1944 2881 2228 
Q 2600 2547 2141 2547 
z
" transform="scale(0.015625)"/>
       </defs>
       <use xlink:href="#IPAexGothic-32"/>
       <use xlink:href="#IPAexGothic-30" transform="translate(62.988281 0)"/>
       <use xlink:href="#IPAexGothic-32" transform="translate(125.976562 0)"/>
       <use xlink:href="#IPAexGothic-31" transform="translate(188.964844 0)"/>
       <use xlink:href="#IPAexGothic-2d" transform="translate(251.953125 0)"/>
       <use xlink:href="#IPAexGothic-30" transform="translate(287.744141 0)"/>
       <use xlink:href="#IPAexGothic-36" transform="translate(350.732422 0)"/>
      </g>
     </g>
    </g>
    <g id="xtick_16">
     <g id="line2d_45">
      <path d="M 354.348815 314.44 
L 354.348815 188.261822 
" clip-path="url(#pe6b68d3c15)" style="fill: none; stroke: #000000; stroke-opacity: 0.3; stroke-width: 0.5; stroke-linecap: square"/>
     </g>
     <g id="line2d_46">
      <g>
       <use xlink:href="#md45477229c" x="354.348815" y="314.44" style="stroke: #000000; stroke-width: 0.8"/>
      </g>
     </g>
     <g id="text_16">
      <!-- 2021-07 -->
      <g transform="translate(333.663659 328.930625) scale(0.1 -0.1)">
       <defs>
        <path id="IPAexGothic-37" d="M 3597 4263 
Q 2238 2106 1778 63 
L 1131 63 
Q 1581 1834 2950 4128 
L 428 4128 
L 428 4634 
L 3597 4634 
L 3597 4263 
z
" transform="scale(0.015625)"/>
       </defs>
       <use xlink:href="#IPAexGothic-32"/>
       <use xlink:href="#IPAexGothic-30" transform="translate(62.988281 0)"/>
       <use xlink:href="#IPAexGothic-32" transform="translate(125.976562 0)"/>
       <use xlink:href="#IPAexGothic-31" transform="translate(188.964844 0)"/>
       <use xlink:href="#IPAexGothic-2d" transform="translate(251.953125 0)"/>
       <use xlink:href="#IPAexGothic-30" transform="translate(287.744141 0)"/>
       <use xlink:href="#IPAexGothic-37" transform="translate(350.732422 0)"/>
      </g>
     </g>
    </g>
    <g id="xtick_17">
     <g id="line2d_47">
      <path d="M 401.675772 314.44 
L 401.675772 188.261822 
" clip-path="url(#pe6b68d3c15)" style="fill: none; stroke: #000000; stroke-opacity: 0.3; stroke-width: 0.5; stroke-linecap: square"/>
     </g>
     <g id="line2d_48">
      <g>
       <use xlink:href="#md45477229c" x="401.675772" y="314.44" style="stroke: #000000; stroke-width: 0.8"/>
      </g>
     </g>
     <g id="text_17">
      <!-- 2021-08 -->
      <g transform="translate(380.990616 328.930625) scale(0.1 -0.1)">
       <defs>
        <path id="IPAexGothic-38" d="M 2541 2425 
Q 3700 2031 3700 1197 
Q 3700 541 3100 197 
Q 2663 -56 2016 -56 
Q 1366 -56 928 197 
Q 347 531 347 1178 
Q 347 1988 1409 2381 
L 1409 2400 
Q 481 2734 481 3509 
Q 481 4100 981 4456 
Q 1406 4756 2019 4756 
Q 2703 4756 3131 4403 
Q 3553 4069 3553 3566 
Q 3553 2706 2541 2444 
L 2541 2425 
z
M 2022 2625 
Q 2997 2856 2997 3528 
Q 2997 3916 2675 4150 
Q 2413 4347 2016 4347 
Q 1606 4347 1331 4128 
Q 1050 3897 1050 3522 
Q 1050 3150 1350 2925 
Q 1494 2809 1722 2722 
Q 1984 2616 2022 2625 
z
M 1978 2209 
Q 922 1931 922 1216 
Q 922 775 1313 556 
Q 1606 391 2009 391 
Q 2575 391 2881 697 
Q 3106 922 3106 1250 
Q 3106 1594 2794 1850 
Q 2609 1994 2350 2100 
Q 2047 2222 1978 2209 
z
" transform="scale(0.015625)"/>
       </defs>
       <use xlink:href="#IPAexGothic-32"/>
       <use xlink:href="#IPAexGothic-30" transform="translate(62.988281 0)"/>
       <use xlink:href="#IPAexGothic-32" transform="translate(125.976562 0)"/>
       <use xlink:href="#IPAexGothic-31" transform="translate(188.964844 0)"/>
       <use xlink:href="#IPAexGothic-2d" transform="translate(251.953125 0)"/>
       <use xlink:href="#IPAexGothic-30" transform="translate(287.744141 0)"/>
       <use xlink:href="#IPAexGothic-38" transform="translate(350.732422 0)"/>
      </g>
     </g>
    </g>
    <g id="xtick_18">
     <g id="line2d_49">
      <path d="M 449.002729 314.44 
L 449.002729 188.261822 
" clip-path="url(#pe6b68d3c15)" style="fill: none; stroke: #000000; stroke-opacity: 0.3; stroke-width: 0.5; stroke-linecap: square"/>
     </g>
     <g id="line2d_50">
      <g>
       <use xlink:href="#md45477229c" x="449.002729" y="314.44" style="stroke: #000000; stroke-width: 0.8"/>
      </g>
     </g>
     <g id="text_18">
      <!-- 2021-09 -->
      <g transform="translate(428.317573 328.930625) scale(0.1 -0.1)">
       <use xlink:href="#IPAexGothic-32"/>
       <use xlink:href="#IPAexGothic-30" transform="translate(62.988281 0)"/>
       <use xlink:href="#IPAexGothic-32" transform="translate(125.976562 0)"/>
       <use xlink:href="#IPAexGothic-31" transform="translate(188.964844 0)"/>
       <use xlink:href="#IPAexGothic-2d" transform="translate(251.953125 0)"/>
       <use xlink:href="#IPAexGothic-30" transform="translate(287.744141 0)"/>
       <use xlink:href="#IPAexGothic-39" transform="translate(350.732422 0)"/>
      </g>
     </g>
    </g>
    <g id="text_19">
     <!-- 日付 -->
     <g transform="translate(261.325 345.617125) scale(0.144 -0.144)">
      <defs>
       <path id="IPAexGothic-65e5" d="M 5231 4800 
L 5231 -288 
L 4744 -288 
L 4744 128 
L 1647 128 
L 1647 -288 
L 1159 -288 
L 1159 4800 
L 5231 4800 
z
M 1647 4372 
L 1647 2731 
L 4744 2731 
L 4744 4372 
L 1647 4372 
z
M 1647 2297 
L 1647 556 
L 4744 556 
L 4744 2297 
L 1647 2297 
z
" transform="scale(0.015625)"/>
       <path id="IPAexGothic-4ed8" d="M 1681 3769 
L 1681 -447 
L 1213 -447 
L 1213 2822 
Q 913 2313 578 1863 
L 316 2253 
Q 1241 3463 1653 5184 
L 2128 5069 
Q 1928 4378 1719 3859 
L 1681 3769 
z
M 5084 3816 
L 5991 3816 
L 5991 3388 
L 5109 3388 
L 5109 213 
Q 5109 -78 5006 -191 
Q 4888 -319 4525 -319 
Q 4031 -319 3513 -266 
L 3431 238 
Q 3978 141 4403 141 
Q 4634 141 4634 384 
L 4634 3388 
L 2028 3388 
L 2028 3816 
L 4609 3816 
L 4609 5153 
L 5084 5153 
L 5084 3816 
z
M 3431 1172 
Q 3034 1994 2547 2566 
L 2931 2822 
Q 3428 2231 3853 1472 
L 3431 1172 
z
" transform="scale(0.015625)"/>
      </defs>
      <use xlink:href="#IPAexGothic-65e5"/>
      <use xlink:href="#IPAexGothic-4ed8" transform="translate(100 0)"/>
     </g>
    </g>
   </g>
   <g id="matplotlib.axis_4">
    <g id="ytick_6">
     <g id="line2d_51">
      <path d="M 58.25 308.704628 
L 493.2 308.704628 
" clip-path="url(#pe6b68d3c15)" style="fill: none; stroke: #000000; stroke-opacity: 0.3; stroke-width: 0.5; stroke-linecap: square"/>
     </g>
     <g id="line2d_52">
      <g>
       <use xlink:href="#m59605a16ca" x="58.25" y="308.704628" style="stroke: #000000; stroke-width: 0.8"/>
      </g>
     </g>
     <g id="text_20">
      <!-- −0.5 -->
      <g transform="translate(29.228125 312.449941) scale(0.1 -0.1)">
       <defs>
        <path id="IPAexGothic-2212" d="M 416 2222 
L 3922 2222 
L 3922 1856 
L 416 1856 
L 416 2222 
z
" transform="scale(0.015625)"/>
        <path id="IPAexGothic-2e" d="M 1184 63 
L 494 63 
L 494 753 
L 1184 753 
L 1184 63 
z
" transform="scale(0.015625)"/>
       </defs>
       <use xlink:href="#IPAexGothic-2212"/>
       <use xlink:href="#IPAexGothic-30" transform="translate(67.822266 0)"/>
       <use xlink:href="#IPAexGothic-2e" transform="translate(130.810547 0)"/>
       <use xlink:href="#IPAexGothic-35" transform="translate(157.226562 0)"/>
      </g>
     </g>
    </g>
    <g id="ytick_7">
     <g id="line2d_53">
      <path d="M 58.25 267.537014 
L 493.2 267.537014 
" clip-path="url(#pe6b68d3c15)" style="fill: none; stroke: #000000; stroke-opacity: 0.3; stroke-width: 0.5; stroke-linecap: square"/>
     </g>
     <g id="line2d_54">
      <g>
       <use xlink:href="#m59605a16ca" x="58.25" y="267.537014" style="stroke: #000000; stroke-width: 0.8"/>
      </g>
     </g>
     <g id="text_21">
      <!-- 0.0 -->
      <g transform="translate(36.010938 271.282326) scale(0.1 -0.1)">
       <use xlink:href="#IPAexGothic-30"/>
       <use xlink:href="#IPAexGothic-2e" transform="translate(62.988281 0)"/>
       <use xlink:href="#IPAexGothic-30" transform="translate(89.404297 0)"/>
      </g>
     </g>
    </g>
    <g id="ytick_8">
     <g id="line2d_55">
      <path d="M 58.25 226.369399 
L 493.2 226.369399 
" clip-path="url(#pe6b68d3c15)" style="fill: none; stroke: #000000; stroke-opacity: 0.3; stroke-width: 0.5; stroke-linecap: square"/>
     </g>
     <g id="line2d_56">
      <g>
       <use xlink:href="#m59605a16ca" x="58.25" y="226.369399" style="stroke: #000000; stroke-width: 0.8"/>
      </g>
     </g>
     <g id="text_22">
      <!-- 0.5 -->
      <g transform="translate(36.010938 230.114712) scale(0.1 -0.1)">
       <use xlink:href="#IPAexGothic-30"/>
       <use xlink:href="#IPAexGothic-2e" transform="translate(62.988281 0)"/>
       <use xlink:href="#IPAexGothic-35" transform="translate(89.404297 0)"/>
      </g>
     </g>
    </g>
    <g id="text_23">
     <!-- 相関 -->
     <g transform="translate(22.492125 265.750911) rotate(-90) scale(0.144 -0.144)">
      <defs>
       <path id="IPAexGothic-76f8" d="M 1388 2691 
L 1369 2631 
Q 1075 1622 556 781 
L 275 1250 
Q 1006 2284 1316 3541 
L 409 3541 
L 409 3956 
L 1388 3956 
L 1388 5300 
L 1828 5300 
L 1828 3956 
L 2725 3956 
L 2725 3541 
L 1828 3541 
L 1828 2925 
Q 2456 2400 2819 1978 
L 2550 1519 
Q 2238 1963 1828 2422 
L 1828 -447 
L 1388 -447 
L 1388 2691 
z
M 5803 4884 
L 5803 -331 
L 5369 -331 
L 5369 116 
L 3409 116 
L 3409 -331 
L 2981 -331 
L 2981 4884 
L 5803 4884 
z
M 3409 4488 
L 3409 3450 
L 5369 3450 
L 5369 4488 
L 3409 4488 
z
M 3409 3066 
L 3409 2022 
L 5369 2022 
L 5369 3066 
L 3409 3066 
z
M 3409 1638 
L 3409 506 
L 5369 506 
L 5369 1638 
L 3409 1638 
z
" transform="scale(0.015625)"/>
       <path id="IPAexGothic-95a2" d="M 2919 5063 
L 2919 3288 
L 1016 3288 
L 1016 -450 
L 569 -450 
L 569 5063 
L 2919 5063 
z
M 1016 4709 
L 1016 4331 
L 2509 4331 
L 2509 4709 
L 1016 4709 
z
M 1016 4019 
L 1016 3628 
L 2509 3628 
L 2509 4019 
L 1016 4019 
z
M 5822 5063 
L 5822 44 
Q 5822 -409 5297 -409 
Q 4956 -409 4672 -366 
L 4594 97 
Q 4841 31 5156 31 
Q 5369 31 5369 244 
L 5369 3288 
L 3422 3288 
L 3422 5063 
L 5822 5063 
z
M 3831 4709 
L 3831 4331 
L 5369 4331 
L 5369 4709 
L 3831 4709 
z
M 3831 4019 
L 3831 3628 
L 5369 3628 
L 5369 4019 
L 3831 4019 
z
M 2425 2478 
Q 2328 2713 2150 2975 
L 2559 3122 
Q 2709 2866 2859 2478 
L 3525 2478 
Q 3716 2847 3806 3147 
L 4256 3022 
Q 4084 2669 3953 2478 
L 4766 2478 
L 4766 2113 
L 3391 2113 
L 3391 1672 
L 4928 1672 
L 4928 1300 
L 3366 1300 
Q 3363 1263 3334 1141 
Q 4016 863 4734 409 
L 4428 34 
Q 3888 441 3281 763 
Q 3278 766 3241 788 
Q 3225 797 3219 800 
Q 2881 100 1875 -256 
L 1588 122 
Q 2769 409 2931 1300 
L 1466 1300 
L 1466 1672 
L 2963 1672 
L 2963 2113 
L 1625 2113 
L 1625 2478 
L 2425 2478 
z
" transform="scale(0.015625)"/>
      </defs>
      <use xlink:href="#IPAexGothic-76f8"/>
      <use xlink:href="#IPAexGothic-95a2" transform="translate(100 0)"/>
     </g>
    </g>
   </g>
   <g id="line2d_57">
    <path d="M 107.027299 220.427544 
L 108.553975 221.431867 
L 110.080651 221.995809 
L 111.607327 221.915848 
L 113.134003 217.925879 
L 114.660679 213.410622 
L 116.187355 210.794212 
L 117.714031 210.553793 
L 119.240707 206.7572 
L 120.767383 203.935336 
L 122.294059 203.932398 
L 123.820735 202.826179 
L 125.347411 205.10717 
L 126.874087 203.446703 
L 128.400763 202.899857 
L 131.454115 200.079344 
L 132.980792 199.270345 
L 134.507468 198.876478 
L 136.034144 197.784469 
L 137.56082 198.315698 
L 139.087496 198.970373 
L 140.614172 199.861716 
L 142.140848 201.378394 
L 143.667524 202.684863 
L 145.1942 206.426049 
L 146.720876 207.697687 
L 148.247552 211.269332 
L 149.774228 212.032583 
L 151.300904 215.74606 
L 152.82758 212.303137 
L 154.354256 208.020515 
L 155.880932 207.519937 
L 157.407608 205.315374 
L 158.934284 199.974278 
L 160.46096 198.95031 
L 161.987636 198.912746 
L 163.514312 197.021762 
L 165.040988 197.80503 
L 166.567664 197.921318 
L 168.09434 198.949129 
L 169.621016 200.189727 
L 171.147692 198.355436 
L 172.674368 198.69458 
L 174.201044 199.225684 
L 175.72772 200.251498 
L 177.254396 201.442617 
L 178.781072 205.615627 
L 180.307748 205.750553 
L 181.834424 210.304131 
L 183.3611 212.669829 
L 184.887776 213.617738 
L 186.414452 211.911208 
L 187.941128 209.605763 
L 189.467804 210.03471 
L 190.994481 205.647775 
L 192.521157 203.338308 
L 194.047833 200.819671 
L 198.627861 198.516652 
L 200.154537 199.715422 
L 201.681213 198.65095 
L 203.207889 199.105798 
L 204.734565 199.76354 
L 206.261241 201.195666 
L 207.787917 201.120913 
L 209.314593 200.814153 
L 210.841269 200.165715 
L 212.367945 201.887315 
L 213.894621 204.147568 
L 215.421297 203.920933 
L 216.947973 206.196111 
L 218.474649 207.545704 
L 220.001325 208.129941 
L 221.528001 207.149118 
L 223.054677 203.863625 
L 224.581353 200.882956 
L 226.108029 199.36929 
L 227.634705 197.616392 
L 229.161381 197.48323 
L 230.688057 195.665834 
L 232.214733 194.534122 
L 233.741409 194.228684 
L 235.268085 194.549794 
L 236.794761 194.366486 
L 238.321437 193.997193 
L 239.848113 195.559787 
L 241.374789 195.575568 
L 242.901465 199.702903 
L 244.428141 201.577469 
L 245.954817 201.322538 
L 247.481494 203.64049 
L 249.00817 205.289616 
L 252.061522 207.453057 
L 253.588198 208.980159 
L 255.114874 209.936802 
L 256.64155 210.332272 
L 258.168226 207.99647 
L 259.694902 203.273794 
L 261.221578 200.441355 
L 262.748254 198.436731 
L 264.27493 197.432373 
L 265.801606 196.590138 
L 267.328282 195.396873 
L 268.854958 195.150999 
L 270.381634 196.112784 
L 271.90831 196.043955 
L 273.434986 196.159009 
L 274.961662 196.125098 
L 276.488338 196.36763 
L 278.015014 197.059218 
L 281.068366 200.106602 
L 282.595042 202.908944 
L 284.121718 208.412003 
L 285.648394 211.580815 
L 287.17507 214.230095 
L 288.701746 209.06383 
L 290.228422 206.990731 
L 291.755098 207.390702 
L 293.281774 204.099091 
L 294.80845 202.374766 
L 296.335126 201.686448 
L 297.861802 200.552732 
L 299.388478 199.168038 
L 300.915154 197.464361 
L 302.44183 199.184986 
L 305.495183 197.811653 
L 307.021859 199.122331 
L 308.548535 199.335488 
L 310.075211 200.131204 
L 313.128563 201.153624 
L 314.655239 202.821129 
L 316.181915 203.032497 
L 317.708591 205.458789 
L 319.235267 208.753342 
L 320.761943 211.771796 
L 322.288619 211.726657 
L 323.815295 211.29879 
L 325.341971 207.705333 
L 326.868647 205.013262 
L 328.395323 203.432535 
L 329.921999 201.378677 
L 331.448675 198.364584 
L 332.975351 197.209432 
L 334.502027 196.332361 
L 336.028703 198.415683 
L 337.555379 197.244939 
L 339.082055 196.621053 
L 340.608731 196.50291 
L 342.135407 196.186735 
L 343.662083 196.096212 
L 345.188759 197.041874 
L 346.715435 200.069928 
L 348.242111 198.484258 
L 349.768787 199.952794 
L 351.295463 202.10155 
L 352.822139 201.775357 
L 354.348815 207.585675 
L 355.875491 209.656 
L 357.402167 211.221197 
L 358.928843 214.751828 
L 360.455519 215.893778 
L 361.982196 213.032852 
L 363.508872 211.1744 
L 365.035548 209.80986 
L 366.562224 207.939821 
L 369.615576 202.269186 
L 371.142252 202.33758 
L 372.668928 201.985313 
L 374.195604 201.278263 
L 375.72228 203.09629 
L 377.248956 204.079862 
L 378.775632 204.803356 
L 380.302308 205.094035 
L 381.828984 203.376631 
L 386.409012 212.305577 
L 387.935688 216.899968 
L 389.462364 218.368938 
L 390.98904 220.07489 
L 394.042392 215.044048 
L 395.569068 213.856522 
L 397.095744 212.224006 
L 398.62242 211.265017 
L 400.149096 202.612358 
L 401.675772 205.939143 
L 403.202448 204.454525 
L 404.729124 202.689518 
L 406.2558 200.717281 
L 407.782476 200.055136 
L 409.309152 199.995968 
L 410.835828 200.597561 
L 412.362504 200.20461 
L 413.88918 201.899464 
L 415.415856 203.871949 
L 416.942532 204.934007 
L 418.469208 208.874565 
L 419.995885 210.975255 
L 421.522561 210.520871 
L 423.049237 211.394506 
L 424.575913 212.972909 
L 426.102589 218.399334 
L 427.629265 216.924659 
L 429.155941 214.066137 
L 430.682617 211.485685 
L 432.209293 211.038446 
L 433.735969 207.139505 
L 435.262645 205.644195 
L 436.789321 203.697255 
L 438.315997 203.057418 
L 439.842673 201.252626 
L 441.369349 202.260412 
L 442.896025 200.992831 
L 444.422701 201.085171 
L 445.949377 201.484331 
L 447.476053 198.407549 
L 449.002729 198.960058 
L 450.529405 199.971918 
L 452.056081 201.629219 
L 455.109433 208.672015 
L 456.636109 208.952713 
L 458.162785 213.527888 
L 459.689461 211.438631 
L 461.216137 211.914469 
L 462.742813 208.535968 
L 465.796165 202.492335 
L 467.322841 199.912001 
L 468.849517 200.701562 
L 470.376193 200.841421 
L 473.429545 198.281002 
L 473.429545 198.281002 
" clip-path="url(#pe6b68d3c15)" style="fill: none; stroke: #10b981; stroke-width: 1.8; stroke-linecap: square"/>
   </g>
   <g id="line2d_58">
    <path d="M 58.25 267.537014 
L 493.2 267.537014 
" clip-path="url(#pe6b68d3c15)" style="fill: none; stroke-dasharray: 1,1.65; stroke-dashoffset: 0; stroke: #475569"/>
   </g>
   <g id="line2d_59">
    <path d="M 58.25 226.369399 
L 493.2 226.369399 
" clip-path="url(#pe6b68d3c15)" style="fill: none; stroke-dasharray: 3.7,1.6; stroke-dashoffset: 0; stroke: #94a3b8"/>
   </g>
   <g id="line2d_60">
    <path d="M 58.25 308.704628 
L 493.2 308.704628 
" clip-path="url(#pe6b68d3c15)" style="fill: none; stroke-dasharray: 3.7,1.6; stroke-dashoffset: 0; stroke: #94a3b8"/>
   </g>
   <g id="text_24">
    <!-- ローリング相関（30日窓） -->
    <g transform="translate(169.8013 182.261822) scale(0.1728 -0.1728)">
     <defs>
      <path id="IPAexGothic-30ed" d="M 1147 4269 
L 5250 4269 
L 5250 172 
L 4725 172 
L 4725 569 
L 1672 569 
L 1672 172 
L 1147 172 
L 1147 4269 
z
M 1672 3781 
L 1672 1063 
L 4725 1063 
L 4725 3781 
L 1672 3781 
z
" transform="scale(0.015625)"/>
      <path id="IPAexGothic-30fc" d="M 588 2688 
L 5809 2688 
L 5809 2175 
L 588 2175 
L 588 2688 
z
" transform="scale(0.015625)"/>
      <path id="IPAexGothic-30ea" d="M 1678 4788 
L 2222 4788 
L 2222 1900 
L 1678 1900 
L 1678 4788 
z
M 4084 4909 
L 4628 4909 
L 4628 2753 
Q 4628 1563 4150 794 
Q 3725 119 2772 -353 
L 2394 78 
Q 3334 494 3706 1094 
Q 4084 1703 4084 2725 
L 4084 4909 
z
" transform="scale(0.015625)"/>
      <path id="IPAexGothic-30f3" d="M 2444 3084 
Q 1816 3656 1056 4084 
L 1381 4519 
Q 2063 4191 2816 3559 
L 2444 3084 
z
M 1100 609 
Q 3984 1106 5216 3828 
L 5619 3469 
Q 4413 794 1434 103 
L 1100 609 
z
" transform="scale(0.015625)"/>
      <path id="IPAexGothic-30b0" d="M 4769 4128 
L 5106 3878 
Q 4728 2272 3866 1238 
Q 3106 328 1863 -288 
L 1491 122 
Q 2709 628 3475 1563 
Q 4238 2491 4525 3669 
L 2738 3669 
Q 2022 2591 1191 1897 
L 813 2247 
Q 2163 3338 2766 4959 
L 3256 4819 
Q 3197 4609 2975 4128 
L 4769 4128 
z
M 6009 4422 
Q 5647 4966 5253 5294 
L 5556 5522 
Q 5941 5213 6328 4697 
L 6009 4422 
z
M 5416 3956 
Q 5125 4447 4678 4844 
L 4991 5088 
Q 5363 4781 5747 4231 
L 5416 3956 
z
" transform="scale(0.015625)"/>
      <path id="IPAexGothic-ff08" d="M 5419 -434 
Q 4197 769 4197 2438 
Q 4197 4097 5419 5300 
L 5919 5300 
Q 4678 4078 4678 2425 
Q 4678 788 5919 -434 
L 5419 -434 
z
" transform="scale(0.015625)"/>
      <path id="IPAexGothic-7a93" d="M 5538 3622 
Q 5497 3284 5319 3181 
Q 5150 3091 4447 3091 
Q 3838 3091 3700 3194 
Q 3584 3278 3584 3544 
L 3584 4281 
L 1013 4281 
L 1013 3553 
L 544 3553 
L 544 4666 
L 2938 4666 
L 2938 5300 
L 3413 5300 
L 3413 4666 
L 5844 4666 
L 5844 3622 
L 5538 3622 
z
M 5381 3884 
L 5381 4281 
L 4031 4281 
L 4031 3659 
Q 4031 3544 4088 3513 
Q 4169 3469 4488 3469 
Q 4988 3469 5069 3559 
Q 5131 3638 5141 3956 
L 5381 3884 
z
M 1856 2138 
Q 2281 2675 2706 3456 
L 3141 3309 
Q 2797 2706 2359 2163 
L 2516 2169 
Q 3128 2197 4378 2284 
Q 4034 2544 3672 2766 
L 4019 2975 
Q 4900 2441 5722 1759 
L 5350 1478 
Q 5063 1747 4753 1997 
L 4575 1972 
Q 3319 1819 1016 1691 
L 863 2106 
Q 1100 2109 1856 2138 
z
M 428 13 
Q 919 578 1178 1356 
L 1600 1191 
Q 1303 306 806 -319 
L 428 13 
z
M 2016 1441 
L 2475 1441 
L 2475 341 
Q 2475 163 2597 134 
Q 2738 103 3372 103 
Q 4013 103 4178 159 
Q 4359 228 4369 806 
L 4819 659 
Q 4788 97 4656 -88 
Q 4563 -231 4313 -281 
Q 4013 -331 3409 -331 
Q 2472 -331 2272 -256 
Q 2016 -159 2016 184 
L 2016 1441 
z
M 672 3059 
Q 1294 3206 1638 3431 
Q 2072 3703 2334 4250 
L 2725 4091 
Q 2234 3050 922 2694 
L 672 3059 
z
M 3525 481 
Q 3206 1038 2866 1409 
L 3231 1606 
Q 3600 1247 3922 716 
L 3525 481 
z
M 5625 -103 
Q 5153 666 4519 1294 
L 4888 1522 
Q 5550 909 6034 219 
L 5625 -103 
z
" transform="scale(0.015625)"/>
      <path id="IPAexGothic-ff09" d="M 481 -434 
Q 1722 788 1722 2431 
Q 1722 4066 481 5300 
L 981 5300 
Q 2203 4097 2203 2431 
Q 2203 769 981 -434 
L 481 -434 
z
" transform="scale(0.015625)"/>
     </defs>
     <use xlink:href="#IPAexGothic-30ed"/>
     <use xlink:href="#IPAexGothic-30fc" transform="translate(100 0)"/>
     <use xlink:href="#IPAexGothic-30ea" transform="translate(200 0)"/>
     <use xlink:href="#IPAexGothic-30f3" transform="translate(300 0)"/>
     <use xlink:href="#IPAexGothic-30b0" transform="translate(400 0)"/>
     <use xlink:href="#IPAexGothic-76f8" transform="translate(500 0)"/>
     <use xlink:href="#IPAexGothic-95a2" transform="translate(600 0)"/>
     <use xlink:href="#IPAexGothic-ff08" transform="translate(700 0)"/>
     <use xlink:href="#IPAexGothic-33" transform="translate(800 0)"/>
     <use xlink:href="#IPAexGothic-30" transform="translate(862.988281 0)"/>
     <use xlink:href="#IPAexGothic-65e5" transform="translate(925.976562 0)"/>
     <use xlink:href="#IPAexGothic-7a93" transform="translate(1025.976562 0)"/>
     <use xlink:href="#IPAexGothic-ff09" transform="translate(1125.976562 0)"/>
    </g>
   </g>
  </g>
 </g>
 <defs>
  <clipPath id="p3eced6d0f7">
   <rect x="58.25" y="30.48" width="434.95" height="126.178178"/>
  </clipPath>
  <clipPath id="pe6b68d3c15">
   <rect x="58.25" y="188.261822" width="434.95" height="126.178178"/>
  </clipPath>
 </defs>
</svg>
