<?xml version="1.0" encoding="utf-8" standalone="no"?>
<!DOCTYPE svg PUBLIC "-//W3C//DTD SVG 1.1//EN"
  "http://www.w3.org/Graphics/SVG/1.1/DTD/svg11.dtd">
<svg xmlns:xlink="http://www.w3.org/1999/xlink" width="432pt" height="432pt" viewBox="0 0 432 432" xmlns="http://www.w3.org/2000/svg" version="1.1">
 <metadata>
  <rdf:RDF xmlns:dc="http://purl.org/dc/elements/1.1/" xmlns:cc="http://creativecommons.org/ns#" xmlns:rdf="http://www.w3.org/1999/02/22-rdf-syntax-ns#">
   <cc:Work>
    <dc:type rdf:resource="http://purl.org/dc/dcmitype/StillImage"/>
    <dc:date>2025-10-27T10:38:18.196891</dc:date>
    <dc:format>image/svg+xml</dc:format>
    <dc:creator>
     <cc:Agent>
      <dc:title>Matplotlib v3.10.7, https://matplotlib.org/</dc:title>
     </cc:Agent>
    </dc:creator>
   </cc:Work>
  </rdf:RDF>
 </metadata>
 <defs>
  <style type="text/css">*{stroke-linejoin: round; stroke-linecap: butt}</style>
 </defs>
 <g id="figure_1">
  <g id="patch_1">
   <path d="M 0 432 
L 432 432 
L 432 0 
L 0 0 
z
" style="fill: #ffffff"/>
  </g>
  <g id="axes_1">
   <g id="patch_2">
    <path d="M 392.68 225.84 
C 392.68 202.638595 388.109829 179.662794 379.231036 158.227491 
C 370.352242 136.792188 357.337497 117.314245 340.931626 100.908374 
C 324.525755 84.502503 305.047812 71.487758 283.612509 62.608964 
C 262.177206 53.730171 239.201405 49.16 216 49.16 
C 192.798595 49.16 169.822794 53.730171 148.387491 62.608964 
C 126.952188 71.487758 107.474245 84.502503 91.068374 100.908374 
C 74.662503 117.314245 61.647758 136.792188 52.768964 158.227491 
C 43.890171 179.662794 39.32 202.638595 39.32 225.84 
C 39.32 249.041405 43.890171 272.017206 52.768964 293.452509 
C 61.647758 314.887812 74.662503 334.365755 91.068374 350.771626 
C 107.474245 367.177497 126.952188 380.192242 148.387491 389.071036 
C 169.822794 397.949829 192.798595 402.52 216 402.52 
C 239.201405 402.52 262.177206 397.949829 283.612509 389.071036 
C 305.047812 380.192242 324.525755 367.177497 340.931626 350.771626 
C 357.337497 334.365755 370.352242 314.887812 379.231036 293.452509 
C 388.109829 272.017206 392.68 249.041405 392.68 225.84 
M 216 225.84 
C 216 225.84 216 225.84 216 225.84 
C 216 225.84 216 225.84 216 225.84 
C 216 225.84 216 225.84 216 225.84 
C 216 225.84 216 225.84 216 225.84 
C 216 225.84 216 225.84 216 225.84 
C 216 225.84 216 225.84 216 225.84 
C 216 225.84 216 225.84 216 225.84 
C 216 225.84 216 225.84 216 225.84 
C 216 225.84 216 225.84 216 225.84 
C 216 225.84 216 225.84 216 225.84 
C 216 225.84 216 225.84 216 225.84 
C 216 225.84 216 225.84 216 225.84 
C 216 225.84 216 225.84 216 225.84 
C 216 225.84 216 225.84 216 225.84 
C 216 225.84 216 225.84 216 225.84 
C 216 225.84 216 225.84 216 225.84 
z
" style="fill: #ffffff"/>
   </g>
   <g id="patch_3">
    <path d="M 372.765421 225.84 
L 359.387182 143.055372 
L 301.93995 76.987641 
L 216 50.69536 
L 130.256925 77.328638 
L 73.975598 143.842173 
L 60.430829 225.84 
L 88.564605 299.41486 
L 143.78128 350.926493 
L 216 371.229955 
L 292.32566 358.03992 
L 356.876054 307.174828 
L 372.765421 225.84 
z
" clip-path="url(#p04c71cf483)" style="fill: #93c5fd; opacity: 0.4; stroke: #93c5fd; stroke-linejoin: miter"/>
   </g>
   <g id="matplotlib.axis_1">
    <g id="xtick_1">
     <g id="line2d_1">
      <path d="M 216 225.84 
L 392.68 225.84 
" clip-path="url(#p04c71cf483)" style="fill: none; stroke: #000000; stroke-opacity: 0.3; stroke-width: 0.5; stroke-linecap: square"/>
     </g>
     <g id="text_1">
      <!-- 1月 -->
      <g transform="translate(398.530781 228.635313) scale(0.1 -0.1)">
       <defs>
        <path id="IPAexGothic-31" d="M 2463 63 
L 1900 63 
L 1900 4103 
Q 1372 3922 788 3797 
L 684 4231 
Q 1519 4441 2106 4731 
L 2463 4731 
L 2463 63 
z
" transform="scale(0.015625)"/>
        <path id="IPAexGothic-6708" d="M 5044 4984 
L 5044 256 
Q 5044 -78 4869 -203 
Q 4734 -300 4403 -300 
Q 3894 -300 3253 -247 
L 3169 244 
Q 3750 159 4294 159 
Q 4503 159 4547 263 
Q 4569 313 4569 438 
L 4569 1672 
L 1953 1672 
Q 1906 956 1716 475 
Q 1538 6 1116 -472 
L 744 -63 
Q 1259 475 1403 1244 
Q 1500 1772 1500 2650 
L 1500 4984 
L 5044 4984 
z
M 1981 4569 
L 1981 3541 
L 4569 3541 
L 4569 4569 
L 1981 4569 
z
M 1981 3144 
L 1981 2556 
Q 1981 2288 1975 2147 
L 1975 2069 
L 4569 2069 
L 4569 3144 
L 1981 3144 
z
" transform="scale(0.015625)"/>
       </defs>
       <use xlink:href="#IPAexGothic-31"/>
       <use xlink:href="#IPAexGothic-6708" transform="translate(62.988281 0)"/>
      </g>
     </g>
    </g>
    <g id="xtick_2">
     <g id="line2d_2">
      <path d="M 216 225.84 
L 369.009368 137.5 
" clip-path="url(#p04c71cf483)" style="fill: none; stroke: #000000; stroke-opacity: 0.3; stroke-width: 0.5; stroke-linecap: square"/>
     </g>
     <g id="text_2">
      <!-- 2月 -->
      <g transform="translate(372.984505 133.295313) scale(0.1 -0.1)">
       <defs>
        <path id="IPAexGothic-32" d="M 3659 63 
L 447 63 
L 447 594 
Q 825 1475 1894 2203 
L 2072 2322 
Q 2619 2697 2791 2906 
Q 2988 3153 2988 3444 
Q 2988 3772 2756 4003 
Q 2500 4259 2084 4259 
Q 1250 4259 991 3328 
L 497 3506 
Q 853 4725 2116 4725 
Q 2806 4725 3216 4316 
Q 3575 3947 3575 3425 
Q 3575 3038 3344 2722 
Q 3131 2416 2366 1938 
L 2231 1856 
Q 1256 1253 978 569 
L 3659 569 
L 3659 63 
z
" transform="scale(0.015625)"/>
       </defs>
       <use xlink:href="#IPAexGothic-32"/>
       <use xlink:href="#IPAexGothic-6708" transform="translate(62.988281 0)"/>
      </g>
     </g>
    </g>
    <g id="xtick_3">
     <g id="line2d_3">
      <path d="M 216 225.84 
L 304.34 72.830632 
" clip-path="url(#p04c71cf483)" style="fill: none; stroke: #000000; stroke-opacity: 0.3; stroke-width: 0.5; stroke-linecap: square"/>
     </g>
     <g id="text_3">
      <!-- 3月 -->
      <g transform="translate(303.190781 63.501589) scale(0.1 -0.1)">
       <defs>
        <path id="IPAexGothic-33" d="M 2381 2419 
Q 3506 2216 3506 1278 
Q 3506 716 3128 356 
Q 2709 -31 1944 -31 
Q 797 -31 288 881 
L 756 1131 
Q 1109 441 1938 441 
Q 2425 441 2694 691 
Q 2950 928 2950 1291 
Q 2950 1719 2566 1978 
Q 2216 2213 1644 2213 
L 1363 2213 
L 1363 2669 
L 1656 2669 
Q 2231 2669 2534 2888 
Q 2859 3119 2859 3509 
Q 2859 3934 2494 4138 
Q 2259 4278 1931 4278 
Q 1238 4278 903 3578 
L 434 3803 
Q 897 4725 1938 4725 
Q 2597 4725 3006 4394 
Q 3416 4069 3416 3534 
Q 3416 3028 3019 2706 
Q 2763 2500 2381 2444 
L 2381 2419 
z
" transform="scale(0.015625)"/>
       </defs>
       <use xlink:href="#IPAexGothic-33"/>
       <use xlink:href="#IPAexGothic-6708" transform="translate(62.988281 0)"/>
      </g>
     </g>
    </g>
    <g id="xtick_4">
     <g id="line2d_4">
      <path d="M 216 225.84 
L 216 49.16 
" clip-path="url(#p04c71cf483)" style="fill: none; stroke: #000000; stroke-opacity: 0.3; stroke-width: 0.5; stroke-linecap: square"/>
     </g>
     <g id="text_4">
      <!-- 4月 -->
      <g transform="translate(207.850781 37.955313) scale(0.1 -0.1)">
       <defs>
        <path id="IPAexGothic-34" d="M 3813 1159 
L 3059 1159 
L 3059 63 
L 2547 63 
L 2547 1159 
L 197 1159 
L 197 1672 
L 2456 4678 
L 3059 4678 
L 3059 1634 
L 3813 1634 
L 3813 1159 
z
M 2578 4109 
L 2559 4109 
Q 2278 3656 2003 3284 
L 759 1634 
L 2547 1634 
L 2547 3144 
Q 2547 3481 2578 4109 
z
" transform="scale(0.015625)"/>
       </defs>
       <use xlink:href="#IPAexGothic-34"/>
       <use xlink:href="#IPAexGothic-6708" transform="translate(62.988281 0)"/>
      </g>
     </g>
    </g>
    <g id="xtick_5">
     <g id="line2d_5">
      <path d="M 216 225.84 
L 127.66 72.830632 
" clip-path="url(#p04c71cf483)" style="fill: none; stroke: #000000; stroke-opacity: 0.3; stroke-width: 0.5; stroke-linecap: square"/>
     </g>
     <g id="text_5">
      <!-- 5月 -->
      <g transform="translate(112.510781 63.501589) scale(0.1 -0.1)">
       <defs>
        <path id="IPAexGothic-35" d="M 1178 2603 
Q 1634 2963 2172 2963 
Q 2816 2963 3241 2528 
Q 3638 2113 3638 1497 
Q 3638 938 3297 513 
Q 2869 -31 2031 -31 
Q 959 -31 469 784 
L 938 1028 
Q 1309 434 2013 434 
Q 2466 434 2769 716 
Q 3081 1013 3081 1503 
Q 3081 1966 2806 2241 
Q 2519 2528 2056 2528 
Q 1406 2528 1072 2028 
L 591 2091 
L 884 4634 
L 3406 4634 
L 3406 4153 
L 1341 4153 
L 1134 2603 
L 1178 2603 
z
" transform="scale(0.015625)"/>
       </defs>
       <use xlink:href="#IPAexGothic-35"/>
       <use xlink:href="#IPAexGothic-6708" transform="translate(62.988281 0)"/>
      </g>
     </g>
    </g>
    <g id="xtick_6">
     <g id="line2d_6">
      <path d="M 216 225.84 
L 62.990632 137.5 
" clip-path="url(#p04c71cf483)" style="fill: none; stroke: #000000; stroke-opacity: 0.3; stroke-width: 0.5; stroke-linecap: square"/>
     </g>
     <g id="text_6">
      <!-- 6月 -->
      <g transform="translate(42.717057 133.295313) scale(0.1 -0.1)">
       <defs>
        <path id="IPAexGothic-36" d="M 1056 2328 
Q 1509 2981 2234 2981 
Q 2906 2981 3316 2513 
Q 3675 2106 3675 1522 
Q 3675 884 3272 434 
Q 2853 -31 2178 -31 
Q 1375 -31 922 581 
Q 481 1178 481 2228 
Q 481 3425 1013 4109 
Q 1494 4725 2272 4725 
Q 3191 4725 3609 4025 
L 3150 3775 
Q 2894 4266 2300 4266 
Q 1119 4266 1031 2328 
L 1056 2328 
z
M 2141 2547 
Q 1684 2547 1384 2206 
Q 1116 1900 1116 1541 
Q 1116 1156 1353 844 
Q 1672 428 2159 428 
Q 2669 428 2941 844 
Q 3125 1128 3125 1503 
Q 3125 1944 2881 2228 
Q 2600 2547 2141 2547 
z
" transform="scale(0.015625)"/>
       </defs>
       <use xlink:href="#IPAexGothic-36"/>
       <use xlink:href="#IPAexGothic-6708" transform="translate(62.988281 0)"/>
      </g>
     </g>
    </g>
    <g id="xtick_7">
     <g id="line2d_7">
      <path d="M 216 225.84 
L 39.32 225.84 
" clip-path="url(#p04c71cf483)" style="fill: none; stroke: #000000; stroke-opacity: 0.3; stroke-width: 0.5; stroke-linecap: square"/>
     </g>
     <g id="text_7">
      <!-- 7月 -->
      <g transform="translate(17.170781 228.635313) scale(0.1 -0.1)">
       <defs>
        <path id="IPAexGothic-37" d="M 3597 4263 
Q 2238 2106 1778 63 
L 1131 63 
Q 1581 1834 2950 4128 
L 428 4128 
L 428 4634 
L 3597 4634 
L 3597 4263 
z
" transform="scale(0.015625)"/>
       </defs>
       <use xlink:href="#IPAexGothic-37"/>
       <use xlink:href="#IPAexGothic-6708" transform="translate(62.988281 0)"/>
      </g>
     </g>
    </g>
    <g id="xtick_8">
     <g id="line2d_8">
      <path d="M 216 225.84 
L 62.990632 314.18 
" clip-path="url(#p04c71cf483)" style="fill: none; stroke: #000000; stroke-opacity: 0.3; stroke-width: 0.5; stroke-linecap: square"/>
     </g>
     <g id="text_8">
      <!-- 8月 -->
      <g transform="translate(42.717057 323.975312) scale(0.1 -0.1)">
       <defs>
        <path id="IPAexGothic-38" d="M 2541 2425 
Q 3700 2031 3700 1197 
Q 3700 541 3100 197 
Q 2663 -56 2016 -56 
Q 1366 -56 928 197 
Q 347 531 347 1178 
Q 347 1988 1409 2381 
L 1409 2400 
Q 481 2734 481 3509 
Q 481 4100 981 4456 
Q 1406 4756 2019 4756 
Q 2703 4756 3131 4403 
Q 3553 4069 3553 3566 
Q 3553 2706 2541 2444 
L 2541 2425 
z
M 2022 2625 
Q 2997 2856 2997 3528 
Q 2997 3916 2675 4150 
Q 2413 4347 2016 4347 
Q 1606 4347 1331 4128 
Q 1050 3897 1050 3522 
Q 1050 3150 1350 2925 
Q 1494 2809 1722 2722 
Q 1984 2616 2022 2625 
z
M 1978 2209 
Q 922 1931 922 1216 
Q 922 775 1313 556 
Q 1606 391 2009 391 
Q 2575 391 2881 697 
Q 3106 922 3106 1250 
Q 3106 1594 2794 1850 
Q 2609 1994 2350 2100 
Q 2047 2222 1978 2209 
z
" transform="scale(0.015625)"/>
       </defs>
       <use xlink:href="#IPAexGothic-38"/>
       <use xlink:href="#IPAexGothic-6708" transform="translate(62.988281 0)"/>
      </g>
     </g>
    </g>
    <g id="xtick_9">
     <g id="line2d_9">
      <path d="M 216 225.84 
L 127.66 378.849368 
" clip-path="url(#p04c71cf483)" style="fill: none; stroke: #000000; stroke-opacity: 0.3; stroke-width: 0.5; stroke-linecap: square"/>
     </g>
     <g id="text_9">
      <!-- 9月 -->
      <g transform="translate(112.510781 393.769036) scale(0.1 -0.1)">
       <defs>
        <path id="IPAexGothic-39" d="M 2984 2356 
Q 2544 1716 1813 1716 
Q 1253 1716 847 2056 
Q 366 2459 366 3163 
Q 366 3813 769 4266 
Q 1181 4725 1869 4725 
Q 2800 4725 3241 3950 
Q 3559 3378 3559 2472 
Q 3559 1250 3041 588 
Q 2553 -31 1769 -31 
Q 859 -31 391 703 
L 853 953 
Q 1156 428 1753 428 
Q 2922 428 3009 2356 
L 2984 2356 
z
M 1888 4278 
Q 1450 4278 1172 3950 
Q 922 3653 922 3200 
Q 922 2741 1159 2478 
Q 1434 2163 1906 2163 
Q 2431 2163 2728 2572 
Q 2925 2847 2925 3169 
Q 2925 3553 2694 3863 
Q 2375 4278 1888 4278 
z
" transform="scale(0.015625)"/>
       </defs>
       <use xlink:href="#IPAexGothic-39"/>
       <use xlink:href="#IPAexGothic-6708" transform="translate(62.988281 0)"/>
      </g>
     </g>
    </g>
    <g id="xtick_10">
     <g id="line2d_10">
      <path d="M 216 225.84 
L 216 402.52 
" clip-path="url(#p04c71cf483)" style="fill: none; stroke: #000000; stroke-opacity: 0.3; stroke-width: 0.5; stroke-linecap: square"/>
     </g>
     <g id="text_10">
      <!-- 10月 -->
      <g transform="translate(204.701562 419.315313) scale(0.1 -0.1)">
       <defs>
        <path id="IPAexGothic-30" d="M 2038 4725 
Q 2881 4725 3334 3944 
Q 3694 3325 3694 2344 
Q 3694 1372 3334 741 
Q 2888 -31 2016 -31 
Q 1147 -31 700 741 
Q 341 1372 341 2350 
Q 341 3713 1000 4334 
Q 1419 4725 2038 4725 
z
M 2016 4266 
Q 1516 4266 1228 3759 
Q 934 3247 934 2344 
Q 934 1456 1222 947 
Q 1513 447 2016 447 
Q 2619 447 2909 1153 
Q 3100 1622 3100 2375 
Q 3100 3256 2806 3759 
Q 2509 4266 2016 4266 
z
" transform="scale(0.015625)"/>
       </defs>
       <use xlink:href="#IPAexGothic-31"/>
       <use xlink:href="#IPAexGothic-30" transform="translate(62.988281 0)"/>
       <use xlink:href="#IPAexGothic-6708" transform="translate(125.976562 0)"/>
      </g>
     </g>
    </g>
    <g id="xtick_11">
     <g id="line2d_11">
      <path d="M 216 225.84 
L 304.34 378.849368 
" clip-path="url(#p04c71cf483)" style="fill: none; stroke: #000000; stroke-opacity: 0.3; stroke-width: 0.5; stroke-linecap: square"/>
     </g>
     <g id="text_11">
      <!-- 11月 -->
      <g transform="translate(300.041562 393.769036) scale(0.1 -0.1)">
       <use xlink:href="#IPAexGothic-31"/>
       <use xlink:href="#IPAexGothic-31" transform="translate(62.988281 0)"/>
       <use xlink:href="#IPAexGothic-6708" transform="translate(125.976562 0)"/>
      </g>
     </g>
    </g>
    <g id="xtick_12">
     <g id="line2d_12">
      <path d="M 216 225.84 
L 369.009368 314.18 
" clip-path="url(#p04c71cf483)" style="fill: none; stroke: #000000; stroke-opacity: 0.3; stroke-width: 0.5; stroke-linecap: square"/>
     </g>
     <g id="text_12">
      <!-- 12月 -->
      <g transform="translate(369.835286 323.975313) scale(0.1 -0.1)">
       <use xlink:href="#IPAexGothic-31"/>
       <use xlink:href="#IPAexGothic-32" transform="translate(62.988281 0)"/>
       <use xlink:href="#IPAexGothic-6708" transform="translate(125.976562 0)"/>
      </g>
     </g>
    </g>
   </g>
   <g id="matplotlib.axis_2">
    <g id="ytick_1">
     <g id="line2d_13">
      <path d="M 249.049718 225.84 
C 249.049718 221.499951 248.194823 217.202103 246.533958 213.192421 
C 244.873093 209.182738 242.438558 205.539199 239.36968 202.47032 
C 236.300801 199.401442 232.657262 196.966907 228.647579 195.306042 
C 224.637897 193.645177 220.340049 192.790282 216 192.790282 
C 211.659951 192.790282 207.362103 193.645177 203.352421 195.306042 
C 199.342738 196.966907 195.699199 199.401442 192.63032 202.47032 
C 189.561442 205.539199 187.126907 209.182738 185.466042 213.192421 
C 183.805177 217.202103 182.950282 221.499951 182.950282 225.84 
C 182.950282 230.180049 183.805177 234.477897 185.466042 238.487579 
C 187.126907 242.497262 189.561442 246.140801 192.63032 249.20968 
C 195.699199 252.278558 199.342738 254.713093 203.352421 256.373958 
C 207.362103 258.034823 211.659951 258.889718 216 258.889718 
C 220.340049 258.889718 224.637897 258.034823 228.647579 256.373958 
C 232.657262 254.713093 236.300801 252.278558 239.36968 249.20968 
C 242.438558 246.140801 244.873093 242.497262 246.533958 238.487579 
C 248.194823 234.477897 249.049718 230.180049 249.049718 225.84 
" clip-path="url(#p04c71cf483)" style="fill: none; stroke: #000000; stroke-opacity: 0.3; stroke-width: 0.5; stroke-linecap: square"/>
     </g>
     <g id="text_13">
      <!-- 20 -->
      <g transform="translate(216 190.890282) scale(0.1 -0.1)">
       <use xlink:href="#IPAexGothic-32"/>
       <use xlink:href="#IPAexGothic-30" transform="translate(62.988281 0)"/>
      </g>
     </g>
    </g>
    <g id="ytick_2">
     <g id="line2d_14">
      <path d="M 282.099435 225.84 
C 282.099435 217.159902 280.389645 208.564206 277.067916 200.544841 
C 273.746186 192.525476 268.877115 185.238397 262.739359 179.100641 
C 256.601603 172.962885 249.314524 168.093814 241.295159 164.772084 
C 233.275794 161.450355 224.680098 159.740565 216 159.740565 
C 207.319902 159.740565 198.724206 161.450355 190.704841 164.772084 
C 182.685476 168.093814 175.398397 172.962885 169.260641 179.100641 
C 163.122885 185.238397 158.253814 192.525476 154.932084 200.544841 
C 151.610355 208.564206 149.900565 217.159902 149.900565 225.84 
C 149.900565 234.520098 151.610355 243.115794 154.932084 251.135159 
C 158.253814 259.154524 163.122885 266.441603 169.260641 272.579359 
C 175.398397 278.717115 182.685476 283.586186 190.704841 286.907916 
C 198.724206 290.229645 207.319902 291.939435 216 291.939435 
C 224.680098 291.939435 233.275794 290.229645 241.295159 286.907916 
C 249.314524 283.586186 256.601603 278.717115 262.739359 272.579359 
C 268.877115 266.441603 273.746186 259.154524 277.067916 251.135159 
C 280.389645 243.115794 282.099435 234.520098 282.099435 225.84 
" clip-path="url(#p04c71cf483)" style="fill: none; stroke: #000000; stroke-opacity: 0.3; stroke-width: 0.5; stroke-linecap: square"/>
     </g>
     <g id="text_14">
      <!-- 40 -->
      <g transform="translate(216 157.840565) scale(0.1 -0.1)">
       <use xlink:href="#IPAexGothic-34"/>
       <use xlink:href="#IPAexGothic-30" transform="translate(62.988281 0)"/>
      </g>
     </g>
    </g>
    <g id="ytick_3">
     <g id="line2d_15">
      <path d="M 315.149153 225.84 
C 315.149153 212.819852 312.584468 199.92631 307.601873 187.897262 
C 302.619279 175.868214 295.315673 164.937596 286.109039 155.730961 
C 276.902404 146.524327 265.971786 139.220721 253.942738 134.238127 
C 241.91369 129.255532 229.020148 126.690847 216 126.690847 
C 202.979852 126.690847 190.08631 129.255532 178.057262 134.238127 
C 166.028214 139.220721 155.097596 146.524327 145.890961 155.730961 
C 136.684327 164.937596 129.380721 175.868214 124.398127 187.897262 
C 119.415532 199.92631 116.850847 212.819852 116.850847 225.84 
C 116.850847 238.860148 119.415532 251.75369 124.398127 263.782738 
C 129.380721 275.811786 136.684327 286.742404 145.890961 295.949039 
C 155.097596 305.155673 166.028214 312.459279 178.057262 317.441873 
C 190.08631 322.424468 202.979852 324.989153 216 324.989153 
C 229.020148 324.989153 241.91369 322.424468 253.942738 317.441873 
C 265.971786 312.459279 276.902404 305.155673 286.109039 295.949039 
C 295.315673 286.742404 302.619279 275.811786 307.601873 263.782738 
C 312.584468 251.75369 315.149153 238.860148 315.149153 225.84 
" clip-path="url(#p04c71cf483)" style="fill: none; stroke: #000000; stroke-opacity: 0.3; stroke-width: 0.5; stroke-linecap: square"/>
     </g>
     <g id="text_15">
      <!-- 60 -->
      <g transform="translate(216 124.790847) scale(0.1 -0.1)">
       <use xlink:href="#IPAexGothic-36"/>
       <use xlink:href="#IPAexGothic-30" transform="translate(62.988281 0)"/>
      </g>
     </g>
    </g>
    <g id="ytick_4">
     <g id="line2d_16">
      <path d="M 348.198871 225.84 
C 348.198871 208.479803 344.779291 191.288413 338.135831 175.249682 
C 331.492371 159.210952 321.754231 144.636795 309.478718 132.361282 
C 297.203205 120.085769 282.629048 110.347629 266.590318 103.704169 
C 250.551587 97.060709 233.360197 93.641129 216 93.641129 
C 198.639803 93.641129 181.448413 97.060709 165.409682 103.704169 
C 149.370952 110.347629 134.796795 120.085769 122.521282 132.361282 
C 110.245769 144.636795 100.507629 159.210952 93.864169 175.249682 
C 87.220709 191.288413 83.801129 208.479803 83.801129 225.84 
C 83.801129 243.200197 87.220709 260.391587 93.864169 276.430318 
C 100.507629 292.469048 110.245769 307.043205 122.521282 319.318718 
C 134.796795 331.594231 149.370952 341.332371 165.409682 347.975831 
C 181.448413 354.619291 198.639803 358.038871 216 358.038871 
C 233.360197 358.038871 250.551587 354.619291 266.590318 347.975831 
C 282.629048 341.332371 297.203205 331.594231 309.478718 319.318718 
C 321.754231 307.043205 331.492371 292.469048 338.135831 276.430318 
C 344.779291 260.391587 348.198871 243.200197 348.198871 225.84 
" clip-path="url(#p04c71cf483)" style="fill: none; stroke: #000000; stroke-opacity: 0.3; stroke-width: 0.5; stroke-linecap: square"/>
     </g>
     <g id="text_16">
      <!-- 80 -->
      <g transform="translate(216 91.741129) scale(0.1 -0.1)">
       <use xlink:href="#IPAexGothic-38"/>
       <use xlink:href="#IPAexGothic-30" transform="translate(62.988281 0)"/>
      </g>
     </g>
    </g>
    <g id="ytick_5">
     <g id="line2d_17">
      <path d="M 381.248589 225.84 
C 381.248589 204.139754 376.974113 182.650516 368.669789 162.602103 
C 360.365464 142.55369 348.192789 124.335993 332.848398 108.991602 
C 317.504007 93.647211 299.28631 81.474536 279.237897 73.170211 
C 259.189484 64.865887 237.700246 60.591411 216 60.591411 
C 194.299754 60.591411 172.810516 64.865887 152.762103 73.170211 
C 132.71369 81.474536 114.495993 93.647211 99.151602 108.991602 
C 83.807211 124.335993 71.634536 142.55369 63.330211 162.602103 
C 55.025887 182.650516 50.751411 204.139754 50.751411 225.84 
C 50.751411 247.540246 55.025887 269.029484 63.330211 289.077897 
C 71.634536 309.12631 83.807211 327.344007 99.151602 342.688398 
C 114.495993 358.032789 132.71369 370.205464 152.762103 378.509789 
C 172.810516 386.814113 194.299754 391.088589 216 391.088589 
C 237.700246 391.088589 259.189484 386.814113 279.237897 378.509789 
C 299.28631 370.205464 317.504007 358.032789 332.848398 342.688398 
C 348.192789 327.344007 360.365464 309.12631 368.669789 289.077897 
C 376.974113 269.029484 381.248589 247.540246 381.248589 225.84 
" clip-path="url(#p04c71cf483)" style="fill: none; stroke: #000000; stroke-opacity: 0.3; stroke-width: 0.5; stroke-linecap: square"/>
     </g>
     <g id="text_17">
      <!-- 100 -->
      <g transform="translate(216 58.691411) scale(0.1 -0.1)">
       <use xlink:href="#IPAexGothic-31"/>
       <use xlink:href="#IPAexGothic-30" transform="translate(62.988281 0)"/>
       <use xlink:href="#IPAexGothic-30" transform="translate(125.976562 0)"/>
      </g>
     </g>
    </g>
   </g>
   <g id="line2d_18">
    <path d="M 372.765421 225.84 
L 359.387182 143.055372 
L 301.93995 76.987641 
L 216 50.69536 
L 130.256925 77.328638 
L 73.975598 143.842173 
L 60.430829 225.84 
L 88.564605 299.41486 
L 143.78128 350.926493 
L 216 371.229955 
L 292.32566 358.03992 
L 356.876054 307.174828 
L 372.765421 225.84 
" clip-path="url(#p04c71cf483)" style="fill: none; stroke: #2563eb; stroke-width: 2; stroke-linecap: square"/>
   </g>
   <g id="patch_4">
    <path d="M 392.68 225.84 
C 392.68 202.638595 388.109829 179.662794 379.231036 158.227491 
C 370.352242 136.792188 357.337497 117.314245 340.931626 100.908374 
C 324.525755 84.502503 305.047812 71.487758 283.612509 62.608964 
C 262.177206 53.730171 239.201405 49.16 216 49.16 
C 192.798595 49.16 169.822794 53.730171 148.387491 62.608964 
C 126.952188 71.487758 107.474245 84.502503 91.068374 100.908374 
C 74.662503 117.314245 61.647758 136.792188 52.768964 158.227491 
C 43.890171 179.662794 39.32 202.638595 39.32 225.84 
C 39.32 249.041405 43.890171 272.017206 52.768964 293.452509 
C 61.647758 314.887812 74.662503 334.365755 91.068374 350.771626 
C 107.474245 367.177497 126.952188 380.192242 148.387491 389.071036 
C 169.822794 397.949829 192.798595 402.52 216 402.52 
C 239.201405 402.52 262.177206 397.949829 283.612509 389.071036 
C 305.047812 380.192242 324.525755 367.177497 340.931626 350.771626 
C 357.337497 334.365755 370.352242 314.887812 379.231036 293.452509 
C 388.109829 272.017206 392.68 249.041405 392.68 225.84 
" style="fill: none; stroke: #000000; stroke-width: 0.8; stroke-linejoin: miter; stroke-linecap: square"/>
   </g>
   <g id="text_18">
    <!-- 月別平均値を極座標で表示 -->
    <g transform="translate(112.32 24.464688) scale(0.1728 -0.1728)">
     <defs>
      <path id="IPAexGothic-5225" d="M 1922 2963 
Q 1906 2453 1894 2209 
L 3341 2209 
Q 3313 550 3175 63 
Q 3059 -366 2413 -366 
Q 2072 -366 1753 -313 
L 1691 134 
Q 2084 63 2413 63 
Q 2694 63 2759 319 
Q 2856 722 2888 1753 
Q 2888 1800 2894 1819 
L 1863 1819 
Q 1709 350 700 -481 
L 353 -147 
Q 1075 403 1306 1256 
Q 1450 1822 1478 2963 
L 700 2963 
L 700 4984 
L 3278 4984 
L 3278 2963 
L 1922 2963 
z
M 1141 4588 
L 1141 3353 
L 2838 3353 
L 2838 4588 
L 1141 4588 
z
M 3972 4597 
L 4425 4597 
L 4425 1159 
L 3972 1159 
L 3972 4597 
z
M 5309 5044 
L 5763 5044 
L 5763 191 
Q 5763 -141 5581 -263 
Q 5438 -359 5116 -359 
Q 4688 -359 4253 -313 
L 4156 178 
Q 4625 116 5072 116 
Q 5309 116 5309 353 
L 5309 5044 
z
" transform="scale(0.015625)"/>
      <path id="IPAexGothic-5e73" d="M 3422 4428 
L 3422 1941 
L 6084 1941 
L 6084 1513 
L 3422 1513 
L 3422 -447 
L 2934 -447 
L 2934 1513 
L 322 1513 
L 322 1941 
L 2934 1941 
L 2934 4428 
L 641 4428 
L 641 4856 
L 5763 4856 
L 5763 4428 
L 3422 4428 
z
M 1728 2278 
Q 1488 3094 1081 3859 
L 1544 4038 
Q 1875 3422 2222 2472 
L 1728 2278 
z
M 4134 2425 
Q 4509 3138 4813 4128 
L 5306 3944 
Q 4984 3006 4569 2228 
L 4134 2425 
z
" transform="scale(0.015625)"/>
      <path id="IPAexGothic-5747" d="M 1206 3794 
L 1206 5144 
L 1659 5144 
L 1659 3794 
L 2369 3794 
L 2369 3372 
L 1659 3372 
L 1659 1325 
Q 2078 1513 2484 1722 
L 2566 1313 
Q 1556 775 559 397 
L 334 838 
Q 803 975 1206 1138 
L 1206 3372 
L 413 3372 
L 413 3794 
L 1206 3794 
z
M 3475 4244 
L 5844 4244 
Q 5834 1131 5619 184 
Q 5494 -366 4838 -366 
Q 4369 -366 3859 -306 
L 3769 184 
Q 4241 88 4731 88 
Q 5059 88 5147 306 
Q 5359 919 5369 3828 
L 3316 3828 
Q 3013 3119 2466 2472 
L 2150 2828 
Q 2944 3788 3259 5263 
L 3719 5147 
Q 3619 4663 3475 4244 
z
M 2975 2847 
L 4678 2847 
L 4678 2431 
L 2975 2431 
L 2975 2847 
z
M 2559 1044 
Q 3747 1338 4838 1797 
L 4891 1388 
Q 3831 891 2766 588 
L 2559 1044 
z
" transform="scale(0.015625)"/>
      <path id="IPAexGothic-5024" d="M 4172 3675 
L 5453 3675 
L 5453 684 
L 3019 684 
L 3019 3675 
L 3750 3675 
Q 3788 3884 3825 4153 
L 2141 4153 
L 2141 4544 
L 3884 4544 
Q 3922 4844 3966 5325 
L 4434 5272 
L 4388 4953 
Q 4331 4578 4331 4544 
L 5863 4544 
L 5863 4153 
L 4269 4153 
Q 4200 3781 4172 3675 
z
M 5038 3316 
L 3434 3316 
L 3434 2803 
L 5038 2803 
L 5038 3316 
z
M 3434 2450 
L 3434 1941 
L 5038 1941 
L 5038 2450 
L 3434 2450 
z
M 3434 1588 
L 3434 1044 
L 5038 1044 
L 5038 1588 
L 3434 1588 
z
M 1509 3669 
L 1509 -447 
L 1069 -447 
L 1069 2725 
Q 856 2338 531 1875 
L 288 2266 
Q 1163 3531 1541 5325 
L 1975 5222 
Q 1791 4378 1509 3669 
z
M 2488 244 
L 6031 244 
L 6031 -153 
L 2488 -153 
L 2488 -447 
L 2059 -447 
L 2059 3213 
L 2488 3213 
L 2488 244 
z
" transform="scale(0.015625)"/>
      <path id="IPAexGothic-3092" d="M 1094 4263 
Q 1544 4222 2359 4222 
Q 2581 4734 2700 5163 
L 3175 5028 
Q 2997 4538 2859 4256 
Q 3516 4284 4294 4459 
L 4356 4019 
Q 3603 3869 2656 3819 
Q 2391 3284 2059 2797 
Q 2531 3200 2963 3200 
Q 3638 3200 3859 2378 
Q 4556 2681 5338 2950 
L 5575 2528 
Q 4641 2253 3941 1956 
Q 3981 1678 3994 1028 
L 3513 991 
Q 3513 1456 3494 1753 
Q 2388 1194 2388 716 
Q 2388 428 2753 328 
Q 3066 241 3806 241 
Q 4394 241 5178 344 
L 5216 -128 
Q 4434 -213 3653 -213 
Q 2656 -213 2244 41 
Q 1913 244 1913 631 
Q 1913 1094 2344 1497 
Q 2709 1841 3428 2181 
Q 3266 2797 2878 2797 
Q 2238 2797 1209 1419 
L 838 1694 
Q 1625 2716 2163 3800 
Q 1522 3800 1088 3825 
L 1094 4263 
z
" transform="scale(0.015625)"/>
      <path id="IPAexGothic-6975" d="M 1106 2556 
Q 797 1497 378 800 
L 153 1250 
Q 763 2266 1050 3553 
L 294 3553 
L 294 3956 
L 1106 3956 
L 1106 5306 
L 1516 5306 
L 1516 3956 
L 2225 3956 
L 2225 3553 
L 1516 3553 
L 1516 2881 
Q 1966 2491 2250 2094 
L 2016 1691 
Q 1794 2047 1516 2381 
L 1516 -447 
L 1106 -447 
L 1106 2556 
z
M 4281 3931 
L 4281 853 
Q 4281 550 4141 456 
Q 4031 384 3763 384 
Q 3494 384 3116 434 
L 3066 853 
Q 3391 775 3672 775 
Q 3878 775 3878 978 
L 3878 3584 
L 3219 3584 
Q 3391 4178 3469 4519 
L 2213 4519 
L 2213 4903 
L 5850 4903 
L 5850 4519 
L 3884 4519 
Q 3841 4259 3750 3931 
L 4281 3931 
z
M 3550 3309 
L 3550 1313 
L 2706 1313 
L 2706 928 
L 2341 928 
L 2341 3309 
L 3550 3309 
z
M 2706 2950 
L 2706 1663 
L 3178 1663 
L 3178 2950 
L 2706 2950 
z
M 5428 1972 
Q 5684 1613 5959 1172 
L 5691 794 
Q 5494 1147 5253 1516 
L 5216 1441 
Q 5009 978 4606 478 
L 4331 806 
Q 4756 1272 4991 1906 
Q 4688 2331 4428 2638 
L 4659 2897 
Q 4919 2638 5138 2353 
Q 5238 2725 5319 3244 
L 4416 3244 
L 4416 3622 
L 5528 3622 
L 5741 3438 
Q 5613 2559 5428 1972 
z
M 2078 147 
L 6041 147 
L 6041 -263 
L 2078 -263 
L 2078 147 
z
" transform="scale(0.015625)"/>
      <path id="IPAexGothic-5ea7" d="M 3719 172 
L 6047 172 
L 6047 -238 
L 1231 -238 
L 1231 172 
L 3284 172 
L 3284 941 
L 1634 941 
L 1634 1338 
L 3284 1338 
L 3284 3878 
L 3719 3878 
L 3719 1338 
L 5625 1338 
L 5625 941 
L 3719 941 
L 3719 172 
z
M 3759 4500 
L 6013 4500 
L 6013 4084 
L 1359 4084 
L 1359 2869 
Q 1359 1638 1231 909 
Q 1106 197 744 -403 
L 353 -38 
Q 738 625 834 1422 
Q 891 1950 891 2875 
L 891 4500 
L 3272 4500 
L 3272 5300 
L 3759 5300 
L 3759 4500 
z
M 2428 2894 
Q 2828 2591 3234 2119 
L 2931 1778 
Q 2597 2228 2284 2522 
Q 2072 2031 1684 1631 
L 1378 1941 
Q 2031 2556 2197 3763 
L 2613 3675 
Q 2541 3222 2428 2894 
z
M 4872 2944 
Q 5419 2594 5903 2119 
L 5588 1772 
Q 5156 2263 4725 2597 
Q 4466 2041 4072 1638 
L 3766 1953 
Q 4447 2644 4647 3781 
L 5075 3675 
Q 4994 3281 4872 2944 
z
" transform="scale(0.015625)"/>
      <path id="IPAexGothic-6a19" d="M 1113 2534 
Q 813 1522 384 794 
L 153 1250 
Q 763 2228 1063 3547 
L 294 3547 
L 294 3956 
L 1113 3956 
L 1113 5306 
L 1522 5306 
L 1522 3956 
L 2144 3956 
L 2144 3547 
L 1522 3547 
L 1522 3009 
Q 1991 2634 2309 2288 
L 2059 1844 
Q 1813 2222 1522 2550 
L 1522 -447 
L 1113 -447 
L 1113 2534 
z
M 3353 4109 
L 3353 4641 
L 2100 4641 
L 2100 5019 
L 5997 5019 
L 5997 4641 
L 4753 4641 
L 4753 4109 
L 5778 4109 
L 5778 2769 
L 2356 2769 
L 2356 4109 
L 3353 4109 
z
M 3756 4109 
L 4350 4109 
L 4350 4641 
L 3756 4641 
L 3756 4109 
z
M 3359 3756 
L 2772 3756 
L 2772 3122 
L 3359 3122 
L 3359 3756 
z
M 3756 3756 
L 3756 3122 
L 4350 3122 
L 4350 3756 
L 3756 3756 
z
M 4741 3756 
L 4741 3122 
L 5363 3122 
L 5363 3756 
L 4741 3756 
z
M 4300 1191 
L 4300 19 
Q 4300 -409 3809 -409 
Q 3469 -409 3175 -372 
L 3097 78 
Q 3416 0 3675 0 
Q 3866 0 3866 184 
L 3866 1191 
L 2100 1191 
L 2100 1563 
L 6072 1563 
L 6072 1191 
L 4300 1191 
z
M 2481 2350 
L 5669 2350 
L 5669 1984 
L 2481 1984 
L 2481 2350 
z
M 1938 13 
Q 2534 406 2938 1069 
L 3322 891 
Q 2903 150 2272 -306 
L 1938 13 
z
M 5722 -191 
Q 5166 459 4666 838 
L 4978 1088 
Q 5572 681 6094 134 
L 5722 -191 
z
" transform="scale(0.015625)"/>
      <path id="IPAexGothic-3067" d="M 581 4034 
Q 2978 4363 5466 4556 
L 5509 4097 
Q 4388 4031 3750 3572 
Q 2797 2878 2797 1913 
Q 2797 1169 3291 819 
Q 3778 484 4869 416 
L 4906 -116 
Q 2278 0 2278 1850 
Q 2278 3125 3691 4000 
Q 2066 3784 684 3553 
L 581 4034 
z
M 5631 2522 
Q 5269 3063 4875 3391 
L 5175 3622 
Q 5559 3313 5950 2797 
L 5631 2522 
z
M 5034 2053 
Q 4747 2544 4300 2944 
L 4613 3184 
Q 4984 2878 5369 2328 
L 5034 2053 
z
" transform="scale(0.015625)"/>
      <path id="IPAexGothic-8868" d="M 3209 2350 
Q 2856 1944 2328 1563 
L 2328 288 
Q 2975 438 3756 691 
L 3763 275 
Q 2534 -163 1184 -447 
L 978 13 
Q 1566 119 1819 175 
L 1875 188 
L 1875 1275 
Q 1306 941 506 666 
L 219 1056 
Q 1813 1509 2675 2356 
L 384 2356 
L 384 2753 
L 2978 2753 
L 2978 3309 
L 959 3309 
L 959 3694 
L 2978 3694 
L 2978 4219 
L 641 4219 
L 641 4603 
L 2978 4603 
L 2978 5313 
L 3431 5313 
L 3431 4603 
L 5759 4603 
L 5759 4219 
L 3431 4219 
L 3431 3694 
L 5434 3694 
L 5434 3309 
L 3431 3309 
L 3431 2753 
L 6016 2753 
L 6016 2356 
L 3634 2356 
Q 3863 1838 4244 1356 
Q 4781 1756 5166 2191 
L 5588 1894 
Q 5084 1419 4525 1056 
Q 5150 459 6106 66 
L 5734 -356 
Q 3850 575 3209 2350 
z
" transform="scale(0.015625)"/>
      <path id="IPAexGothic-793a" d="M 3488 2822 
L 3488 153 
Q 3488 -144 3334 -247 
Q 3213 -331 2872 -331 
Q 2425 -331 1950 -294 
L 1859 213 
Q 2350 128 2775 128 
Q 3000 128 3000 353 
L 3000 2822 
L 447 2822 
L 447 3250 
L 5950 3250 
L 5950 2822 
L 3488 2822 
z
M 1125 4813 
L 5266 4813 
L 5266 4384 
L 1125 4384 
L 1125 4813 
z
M 5581 244 
Q 4966 1263 4206 2081 
L 4563 2369 
Q 5319 1575 6009 622 
L 5581 244 
z
M 403 616 
Q 1184 1238 1741 2259 
L 2163 2053 
Q 1631 975 763 238 
L 403 616 
z
" transform="scale(0.015625)"/>
     </defs>
     <use xlink:href="#IPAexGothic-6708"/>
     <use xlink:href="#IPAexGothic-5225" transform="translate(100 0)"/>
     <use xlink:href="#IPAexGothic-5e73" transform="translate(200 0)"/>
     <use xlink:href="#IPAexGothic-5747" transform="translate(300 0)"/>
     <use xlink:href="#IPAexGothic-5024" transform="translate(400 0)"/>
     <use xlink:href="#IPAexGothic-3092" transform="translate(500 0)"/>
     <use xlink:href="#IPAexGothic-6975" transform="translate(600 0)"/>
     <use xlink:href="#IPAexGothic-5ea7" transform="translate(700 0)"/>
     <use xlink:href="#IPAexGothic-6a19" transform="translate(800 0)"/>
     <use xlink:href="#IPAexGothic-3067" transform="translate(900 0)"/>
     <use xlink:href="#IPAexGothic-8868" transform="translate(1000 0)"/>
     <use xlink:href="#IPAexGothic-793a" transform="translate(1100 0)"/>
    </g>
   </g>
  </g>
 </g>
 <defs>
  <clipPath id="p04c71cf483">
   <path d="M 392.68 225.84 
C 392.68 202.638595 388.109829 179.662794 379.231036 158.227491 
C 370.352242 136.792188 357.337497 117.314245 340.931626 100.908374 
C 324.525755 84.502503 305.047812 71.487758 283.612509 62.608964 
C 262.177206 53.730171 239.201405 49.16 216 49.16 
C 192.798595 49.16 169.822794 53.730171 148.387491 62.608964 
C 126.952188 71.487758 107.474245 84.502503 91.068374 100.908374 
C 74.662503 117.314245 61.647758 136.792188 52.768964 158.227491 
C 43.890171 179.662794 39.32 202.638595 39.32 225.84 
C 39.32 249.041405 43.890171 272.017206 52.768964 293.452509 
C 61.647758 314.887812 74.662503 334.365755 91.068374 350.771626 
C 107.474245 367.177497 126.952188 380.192242 148.387491 389.071036 
C 169.822794 397.949829 192.798595 402.52 216 402.52 
C 239.201405 402.52 262.177206 397.949829 283.612509 389.071036 
C 305.047812 380.192242 324.525755 367.177497 340.931626 350.771626 
C 357.337497 334.365755 370.352242 314.887812 379.231036 293.452509 
C 388.109829 272.017206 392.68 249.041405 392.68 225.84 
M 216 225.84 
C 216 225.84 216 225.84 216 225.84 
C 216 225.84 216 225.84 216 225.84 
C 216 225.84 216 225.84 216 225.84 
C 216 225.84 216 225.84 216 225.84 
C 216 225.84 216 225.84 216 225.84 
C 216 225.84 216 225.84 216 225.84 
C 216 225.84 216 225.84 216 225.84 
C 216 225.84 216 225.84 216 225.84 
C 216 225.84 216 225.84 216 225.84 
C 216 225.84 216 225.84 216 225.84 
C 216 225.84 216 225.84 216 225.84 
C 216 225.84 216 225.84 216 225.84 
C 216 225.84 216 225.84 216 225.84 
C 216 225.84 216 225.84 216 225.84 
C 216 225.84 216 225.84 216 225.84 
C 216 225.84 216 225.84 216 225.84 
z
"/>
  </clipPath>
 </defs>
</svg>
