<?xml version="1.0" encoding="utf-8" standalone="no"?>
<!DOCTYPE svg PUBLIC "-//W3C//DTD SVG 1.1//EN"
  "http://www.w3.org/Graphics/SVG/1.1/DTD/svg11.dtd">
<svg xmlns:xlink="http://www.w3.org/1999/xlink" width="504pt" height="288pt" viewBox="0 0 504 288" xmlns="http://www.w3.org/2000/svg" version="1.1">
 <metadata>
  <rdf:RDF xmlns:dc="http://purl.org/dc/elements/1.1/" xmlns:cc="http://creativecommons.org/ns#" xmlns:rdf="http://www.w3.org/1999/02/22-rdf-syntax-ns#">
   <cc:Work>
    <dc:type rdf:resource="http://purl.org/dc/dcmitype/StillImage"/>
    <dc:date>2025-10-27T10:38:18.403486</dc:date>
    <dc:format>image/svg+xml</dc:format>
    <dc:creator>
     <cc:Agent>
      <dc:title>Matplotlib v3.10.7, https://matplotlib.org/</dc:title>
     </cc:Agent>
    </dc:creator>
   </cc:Work>
  </rdf:RDF>
 </metadata>
 <defs>
  <style type="text/css">*{stroke-linejoin: round; stroke-linecap: butt}</style>
 </defs>
 <g id="figure_1">
  <g id="patch_1">
   <path d="M 0 288 
L 504 288 
L 504 0 
L 0 0 
z
" style="fill: #ffffff"/>
  </g>
  <g id="axes_1">
   <g id="patch_2">
    <path d="M 55.1 242.44 
L 493.2 242.44 
L 493.2 30.48 
L 55.1 30.48 
z
" style="fill: #ffffff"/>
   </g>
   <g id="FillBetweenPolyCollection_1">
    <defs>
     <path id="mdd71964478" d="M 399.178792 -212.295635 
L 399.178792 -174.763166 
L 405.391403 -197.064464 
L 412.269651 -200.942501 
L 418.926019 -199.706401 
L 425.804267 -202.875332 
L 432.460636 -196.311882 
L 439.338883 -188.839915 
L 446.217131 -152.398474 
L 452.8735 -143.819777 
L 459.751747 -144.616402 
L 466.408116 -139.990337 
L 473.286364 -163.887682 
L 473.286364 -201.420152 
L 473.286364 -201.420152 
L 466.408116 -177.522807 
L 459.751747 -182.148872 
L 452.8735 -181.352247 
L 446.217131 -189.930944 
L 439.338883 -226.372385 
L 432.460636 -233.844351 
L 425.804267 -240.407802 
L 418.926019 -237.238871 
L 412.269651 -238.474971 
L 405.391403 -234.596934 
L 399.178792 -212.295635 
z
" style="stroke: #fecaca; stroke-opacity: 0.4"/>
    </defs>
    <g clip-path="url(#pe8bde6ba06)">
     <use xlink:href="#mdd71964478" x="0" y="288" style="fill: #fecaca; fill-opacity: 0.4; stroke: #fecaca; stroke-opacity: 0.4"/>
    </g>
   </g>
   <g id="matplotlib.axis_1">
    <g id="xtick_1">
     <g id="line2d_1">
      <path d="M 68.357268 242.44 
L 68.357268 30.48 
" clip-path="url(#pe8bde6ba06)" style="fill: none; stroke: #000000; stroke-opacity: 0.3; stroke-width: 0.5; stroke-linecap: square"/>
     </g>
     <g id="line2d_2">
      <defs>
       <path id="m14b33aa9b6" d="M 0 0 
L 0 3.5 
" style="stroke: #000000; stroke-width: 0.8"/>
      </defs>
      <g>
       <use xlink:href="#m14b33aa9b6" x="68.357268" y="242.44" style="stroke: #000000; stroke-width: 0.8"/>
      </g>
     </g>
     <g id="text_1">
      <!-- 2018 -->
      <g transform="translate(55.760393 256.930625) scale(0.1 -0.1)">
       <defs>
        <path id="IPAexGothic-32" d="M 3659 63 
L 447 63 
L 447 594 
Q 825 1475 1894 2203 
L 2072 2322 
Q 2619 2697 2791 2906 
Q 2988 3153 2988 3444 
Q 2988 3772 2756 4003 
Q 2500 4259 2084 4259 
Q 1250 4259 991 3328 
L 497 3506 
Q 853 4725 2116 4725 
Q 2806 4725 3216 4316 
Q 3575 3947 3575 3425 
Q 3575 3038 3344 2722 
Q 3131 2416 2366 1938 
L 2231 1856 
Q 1256 1253 978 569 
L 3659 569 
L 3659 63 
z
" transform="scale(0.015625)"/>
        <path id="IPAexGothic-30" d="M 2038 4725 
Q 2881 4725 3334 3944 
Q 3694 3325 3694 2344 
Q 3694 1372 3334 741 
Q 2888 -31 2016 -31 
Q 1147 -31 700 741 
Q 341 1372 341 2350 
Q 341 3713 1000 4334 
Q 1419 4725 2038 4725 
z
M 2016 4266 
Q 1516 4266 1228 3759 
Q 934 3247 934 2344 
Q 934 1456 1222 947 
Q 1513 447 2016 447 
Q 2619 447 2909 1153 
Q 3100 1622 3100 2375 
Q 3100 3256 2806 3759 
Q 2509 4266 2016 4266 
z
" transform="scale(0.015625)"/>
        <path id="IPAexGothic-31" d="M 2463 63 
L 1900 63 
L 1900 4103 
Q 1372 3922 788 3797 
L 684 4231 
Q 1519 4441 2106 4731 
L 2463 4731 
L 2463 63 
z
" transform="scale(0.015625)"/>
        <path id="IPAexGothic-38" d="M 2541 2425 
Q 3700 2031 3700 1197 
Q 3700 541 3100 197 
Q 2663 -56 2016 -56 
Q 1366 -56 928 197 
Q 347 531 347 1178 
Q 347 1988 1409 2381 
L 1409 2400 
Q 481 2734 481 3509 
Q 481 4100 981 4456 
Q 1406 4756 2019 4756 
Q 2703 4756 3131 4403 
Q 3553 4069 3553 3566 
Q 3553 2706 2541 2444 
L 2541 2425 
z
M 2022 2625 
Q 2997 2856 2997 3528 
Q 2997 3916 2675 4150 
Q 2413 4347 2016 4347 
Q 1606 4347 1331 4128 
Q 1050 3897 1050 3522 
Q 1050 3150 1350 2925 
Q 1494 2809 1722 2722 
Q 1984 2616 2022 2625 
z
M 1978 2209 
Q 922 1931 922 1216 
Q 922 775 1313 556 
Q 1606 391 2009 391 
Q 2575 391 2881 697 
Q 3106 922 3106 1250 
Q 3106 1594 2794 1850 
Q 2609 1994 2350 2100 
Q 2047 2222 1978 2209 
z
" transform="scale(0.015625)"/>
       </defs>
       <use xlink:href="#IPAexGothic-32"/>
       <use xlink:href="#IPAexGothic-30" transform="translate(62.988281 0)"/>
       <use xlink:href="#IPAexGothic-31" transform="translate(125.976562 0)"/>
       <use xlink:href="#IPAexGothic-38" transform="translate(188.964844 0)"/>
      </g>
     </g>
    </g>
    <g id="xtick_2">
     <g id="line2d_3">
      <path d="M 149.343087 242.44 
L 149.343087 30.48 
" clip-path="url(#pe8bde6ba06)" style="fill: none; stroke: #000000; stroke-opacity: 0.3; stroke-width: 0.5; stroke-linecap: square"/>
     </g>
     <g id="line2d_4">
      <g>
       <use xlink:href="#m14b33aa9b6" x="149.343087" y="242.44" style="stroke: #000000; stroke-width: 0.8"/>
      </g>
     </g>
     <g id="text_2">
      <!-- 2019 -->
      <g transform="translate(136.746212 256.930625) scale(0.1 -0.1)">
       <defs>
        <path id="IPAexGothic-39" d="M 2984 2356 
Q 2544 1716 1813 1716 
Q 1253 1716 847 2056 
Q 366 2459 366 3163 
Q 366 3813 769 4266 
Q 1181 4725 1869 4725 
Q 2800 4725 3241 3950 
Q 3559 3378 3559 2472 
Q 3559 1250 3041 588 
Q 2553 -31 1769 -31 
Q 859 -31 391 703 
L 853 953 
Q 1156 428 1753 428 
Q 2922 428 3009 2356 
L 2984 2356 
z
M 1888 4278 
Q 1450 4278 1172 3950 
Q 922 3653 922 3200 
Q 922 2741 1159 2478 
Q 1434 2163 1906 2163 
Q 2431 2163 2728 2572 
Q 2925 2847 2925 3169 
Q 2925 3553 2694 3863 
Q 2375 4278 1888 4278 
z
" transform="scale(0.015625)"/>
       </defs>
       <use xlink:href="#IPAexGothic-32"/>
       <use xlink:href="#IPAexGothic-30" transform="translate(62.988281 0)"/>
       <use xlink:href="#IPAexGothic-31" transform="translate(125.976562 0)"/>
       <use xlink:href="#IPAexGothic-39" transform="translate(188.964844 0)"/>
      </g>
     </g>
    </g>
    <g id="xtick_3">
     <g id="line2d_5">
      <path d="M 230.328906 242.44 
L 230.328906 30.48 
" clip-path="url(#pe8bde6ba06)" style="fill: none; stroke: #000000; stroke-opacity: 0.3; stroke-width: 0.5; stroke-linecap: square"/>
     </g>
     <g id="line2d_6">
      <g>
       <use xlink:href="#m14b33aa9b6" x="230.328906" y="242.44" style="stroke: #000000; stroke-width: 0.8"/>
      </g>
     </g>
     <g id="text_3">
      <!-- 2020 -->
      <g transform="translate(217.732031 256.930625) scale(0.1 -0.1)">
       <use xlink:href="#IPAexGothic-32"/>
       <use xlink:href="#IPAexGothic-30" transform="translate(62.988281 0)"/>
       <use xlink:href="#IPAexGothic-32" transform="translate(125.976562 0)"/>
       <use xlink:href="#IPAexGothic-30" transform="translate(188.964844 0)"/>
      </g>
     </g>
    </g>
    <g id="xtick_4">
     <g id="line2d_7">
      <path d="M 311.536604 242.44 
L 311.536604 30.48 
" clip-path="url(#pe8bde6ba06)" style="fill: none; stroke: #000000; stroke-opacity: 0.3; stroke-width: 0.5; stroke-linecap: square"/>
     </g>
     <g id="line2d_8">
      <g>
       <use xlink:href="#m14b33aa9b6" x="311.536604" y="242.44" style="stroke: #000000; stroke-width: 0.8"/>
      </g>
     </g>
     <g id="text_4">
      <!-- 2021 -->
      <g transform="translate(298.939729 256.930625) scale(0.1 -0.1)">
       <use xlink:href="#IPAexGothic-32"/>
       <use xlink:href="#IPAexGothic-30" transform="translate(62.988281 0)"/>
       <use xlink:href="#IPAexGothic-32" transform="translate(125.976562 0)"/>
       <use xlink:href="#IPAexGothic-31" transform="translate(188.964844 0)"/>
      </g>
     </g>
    </g>
    <g id="xtick_5">
     <g id="line2d_9">
      <path d="M 392.522423 242.44 
L 392.522423 30.48 
" clip-path="url(#pe8bde6ba06)" style="fill: none; stroke: #000000; stroke-opacity: 0.3; stroke-width: 0.5; stroke-linecap: square"/>
     </g>
     <g id="line2d_10">
      <g>
       <use xlink:href="#m14b33aa9b6" x="392.522423" y="242.44" style="stroke: #000000; stroke-width: 0.8"/>
      </g>
     </g>
     <g id="text_5">
      <!-- 2022 -->
      <g transform="translate(379.925548 256.930625) scale(0.1 -0.1)">
       <use xlink:href="#IPAexGothic-32"/>
       <use xlink:href="#IPAexGothic-30" transform="translate(62.988281 0)"/>
       <use xlink:href="#IPAexGothic-32" transform="translate(125.976562 0)"/>
       <use xlink:href="#IPAexGothic-32" transform="translate(188.964844 0)"/>
      </g>
     </g>
    </g>
    <g id="xtick_6">
     <g id="line2d_11">
      <path d="M 473.508243 242.44 
L 473.508243 30.48 
" clip-path="url(#pe8bde6ba06)" style="fill: none; stroke: #000000; stroke-opacity: 0.3; stroke-width: 0.5; stroke-linecap: square"/>
     </g>
     <g id="line2d_12">
      <g>
       <use xlink:href="#m14b33aa9b6" x="473.508243" y="242.44" style="stroke: #000000; stroke-width: 0.8"/>
      </g>
     </g>
     <g id="text_6">
      <!-- 2023 -->
      <g transform="translate(460.911368 256.930625) scale(0.1 -0.1)">
       <defs>
        <path id="IPAexGothic-33" d="M 2381 2419 
Q 3506 2216 3506 1278 
Q 3506 716 3128 356 
Q 2709 -31 1944 -31 
Q 797 -31 288 881 
L 756 1131 
Q 1109 441 1938 441 
Q 2425 441 2694 691 
Q 2950 928 2950 1291 
Q 2950 1719 2566 1978 
Q 2216 2213 1644 2213 
L 1363 2213 
L 1363 2669 
L 1656 2669 
Q 2231 2669 2534 2888 
Q 2859 3119 2859 3509 
Q 2859 3934 2494 4138 
Q 2259 4278 1931 4278 
Q 1238 4278 903 3578 
L 434 3803 
Q 897 4725 1938 4725 
Q 2597 4725 3006 4394 
Q 3416 4069 3416 3534 
Q 3416 3028 3019 2706 
Q 2763 2500 2381 2444 
L 2381 2419 
z
" transform="scale(0.015625)"/>
       </defs>
       <use xlink:href="#IPAexGothic-32"/>
       <use xlink:href="#IPAexGothic-30" transform="translate(62.988281 0)"/>
       <use xlink:href="#IPAexGothic-32" transform="translate(125.976562 0)"/>
       <use xlink:href="#IPAexGothic-33" transform="translate(188.964844 0)"/>
      </g>
     </g>
    </g>
    <g id="text_7">
     <!-- 年月 -->
     <g transform="translate(259.75 273.617125) scale(0.144 -0.144)">
      <defs>
       <path id="IPAexGothic-5e74" d="M 1772 4159 
Q 1444 3422 875 2803 
L 528 3166 
Q 1322 3941 1631 5259 
L 2109 5156 
Q 1994 4759 1931 4563 
L 5694 4563 
L 5694 4159 
L 3756 4159 
L 3756 3128 
L 5434 3128 
L 5434 2725 
L 3756 2725 
L 3756 1509 
L 6078 1509 
L 6078 1094 
L 3756 1094 
L 3756 -450 
L 3275 -450 
L 3275 1094 
L 447 1094 
L 447 1509 
L 1534 1509 
L 1534 3128 
L 3275 3128 
L 3275 4159 
L 1772 4159 
z
M 3275 2725 
L 1994 2725 
L 1994 1509 
L 3275 1509 
L 3275 2725 
z
" transform="scale(0.015625)"/>
       <path id="IPAexGothic-6708" d="M 5044 4984 
L 5044 256 
Q 5044 -78 4869 -203 
Q 4734 -300 4403 -300 
Q 3894 -300 3253 -247 
L 3169 244 
Q 3750 159 4294 159 
Q 4503 159 4547 263 
Q 4569 313 4569 438 
L 4569 1672 
L 1953 1672 
Q 1906 956 1716 475 
Q 1538 6 1116 -472 
L 744 -63 
Q 1259 475 1403 1244 
Q 1500 1772 1500 2650 
L 1500 4984 
L 5044 4984 
z
M 1981 4569 
L 1981 3541 
L 4569 3541 
L 4569 4569 
L 1981 4569 
z
M 1981 3144 
L 1981 2556 
Q 1981 2288 1975 2147 
L 1975 2069 
L 4569 2069 
L 4569 3144 
L 1981 3144 
z
" transform="scale(0.015625)"/>
      </defs>
      <use xlink:href="#IPAexGothic-5e74"/>
      <use xlink:href="#IPAexGothic-6708" transform="translate(100 0)"/>
     </g>
    </g>
   </g>
   <g id="matplotlib.axis_2">
    <g id="ytick_1">
     <g id="line2d_13">
      <path d="M 55.1 237.991271 
L 493.2 237.991271 
" clip-path="url(#pe8bde6ba06)" style="fill: none; stroke: #000000; stroke-opacity: 0.3; stroke-width: 0.5; stroke-linecap: square"/>
     </g>
     <g id="line2d_14">
      <defs>
       <path id="m64257178d7" d="M 0 0 
L -3.5 0 
" style="stroke: #000000; stroke-width: 0.8"/>
      </defs>
      <g>
       <use xlink:href="#m64257178d7" x="55.1" y="237.991271" style="stroke: #000000; stroke-width: 0.8"/>
      </g>
     </g>
     <g id="text_8">
      <!-- 90 -->
      <g transform="translate(35.503125 241.736583) scale(0.1 -0.1)">
       <use xlink:href="#IPAexGothic-39"/>
       <use xlink:href="#IPAexGothic-30" transform="translate(62.988281 0)"/>
      </g>
     </g>
    </g>
    <g id="ytick_2">
     <g id="line2d_15">
      <path d="M 55.1 206.714213 
L 493.2 206.714213 
" clip-path="url(#pe8bde6ba06)" style="fill: none; stroke: #000000; stroke-opacity: 0.3; stroke-width: 0.5; stroke-linecap: square"/>
     </g>
     <g id="line2d_16">
      <g>
       <use xlink:href="#m64257178d7" x="55.1" y="206.714213" style="stroke: #000000; stroke-width: 0.8"/>
      </g>
     </g>
     <g id="text_9">
      <!-- 100 -->
      <g transform="translate(29.204688 210.459525) scale(0.1 -0.1)">
       <use xlink:href="#IPAexGothic-31"/>
       <use xlink:href="#IPAexGothic-30" transform="translate(62.988281 0)"/>
       <use xlink:href="#IPAexGothic-30" transform="translate(125.976562 0)"/>
      </g>
     </g>
    </g>
    <g id="ytick_3">
     <g id="line2d_17">
      <path d="M 55.1 175.437155 
L 493.2 175.437155 
" clip-path="url(#pe8bde6ba06)" style="fill: none; stroke: #000000; stroke-opacity: 0.3; stroke-width: 0.5; stroke-linecap: square"/>
     </g>
     <g id="line2d_18">
      <g>
       <use xlink:href="#m64257178d7" x="55.1" y="175.437155" style="stroke: #000000; stroke-width: 0.8"/>
      </g>
     </g>
     <g id="text_10">
      <!-- 110 -->
      <g transform="translate(29.204688 179.182467) scale(0.1 -0.1)">
       <use xlink:href="#IPAexGothic-31"/>
       <use xlink:href="#IPAexGothic-31" transform="translate(62.988281 0)"/>
       <use xlink:href="#IPAexGothic-30" transform="translate(125.976562 0)"/>
      </g>
     </g>
    </g>
    <g id="ytick_4">
     <g id="line2d_19">
      <path d="M 55.1 144.160097 
L 493.2 144.160097 
" clip-path="url(#pe8bde6ba06)" style="fill: none; stroke: #000000; stroke-opacity: 0.3; stroke-width: 0.5; stroke-linecap: square"/>
     </g>
     <g id="line2d_20">
      <g>
       <use xlink:href="#m64257178d7" x="55.1" y="144.160097" style="stroke: #000000; stroke-width: 0.8"/>
      </g>
     </g>
     <g id="text_11">
      <!-- 120 -->
      <g transform="translate(29.204688 147.905409) scale(0.1 -0.1)">
       <use xlink:href="#IPAexGothic-31"/>
       <use xlink:href="#IPAexGothic-32" transform="translate(62.988281 0)"/>
       <use xlink:href="#IPAexGothic-30" transform="translate(125.976562 0)"/>
      </g>
     </g>
    </g>
    <g id="ytick_5">
     <g id="line2d_21">
      <path d="M 55.1 112.883039 
L 493.2 112.883039 
" clip-path="url(#pe8bde6ba06)" style="fill: none; stroke: #000000; stroke-opacity: 0.3; stroke-width: 0.5; stroke-linecap: square"/>
     </g>
     <g id="line2d_22">
      <g>
       <use xlink:href="#m64257178d7" x="55.1" y="112.883039" style="stroke: #000000; stroke-width: 0.8"/>
      </g>
     </g>
     <g id="text_12">
      <!-- 130 -->
      <g transform="translate(29.204688 116.628351) scale(0.1 -0.1)">
       <use xlink:href="#IPAexGothic-31"/>
       <use xlink:href="#IPAexGothic-33" transform="translate(62.988281 0)"/>
       <use xlink:href="#IPAexGothic-30" transform="translate(125.976562 0)"/>
      </g>
     </g>
    </g>
    <g id="ytick_6">
     <g id="line2d_23">
      <path d="M 55.1 81.605981 
L 493.2 81.605981 
" clip-path="url(#pe8bde6ba06)" style="fill: none; stroke: #000000; stroke-opacity: 0.3; stroke-width: 0.5; stroke-linecap: square"/>
     </g>
     <g id="line2d_24">
      <g>
       <use xlink:href="#m64257178d7" x="55.1" y="81.605981" style="stroke: #000000; stroke-width: 0.8"/>
      </g>
     </g>
     <g id="text_13">
      <!-- 140 -->
      <g transform="translate(29.204688 85.351293) scale(0.1 -0.1)">
       <defs>
        <path id="IPAexGothic-34" d="M 3813 1159 
L 3059 1159 
L 3059 63 
L 2547 63 
L 2547 1159 
L 197 1159 
L 197 1672 
L 2456 4678 
L 3059 4678 
L 3059 1634 
L 3813 1634 
L 3813 1159 
z
M 2578 4109 
L 2559 4109 
Q 2278 3656 2003 3284 
L 759 1634 
L 2547 1634 
L 2547 3144 
Q 2547 3481 2578 4109 
z
" transform="scale(0.015625)"/>
       </defs>
       <use xlink:href="#IPAexGothic-31"/>
       <use xlink:href="#IPAexGothic-34" transform="translate(62.988281 0)"/>
       <use xlink:href="#IPAexGothic-30" transform="translate(125.976562 0)"/>
      </g>
     </g>
    </g>
    <g id="ytick_7">
     <g id="line2d_25">
      <path d="M 55.1 50.328923 
L 493.2 50.328923 
" clip-path="url(#pe8bde6ba06)" style="fill: none; stroke: #000000; stroke-opacity: 0.3; stroke-width: 0.5; stroke-linecap: square"/>
     </g>
     <g id="line2d_26">
      <g>
       <use xlink:href="#m64257178d7" x="55.1" y="50.328923" style="stroke: #000000; stroke-width: 0.8"/>
      </g>
     </g>
     <g id="text_14">
      <!-- 150 -->
      <g transform="translate(29.204688 54.074235) scale(0.1 -0.1)">
       <defs>
        <path id="IPAexGothic-35" d="M 1178 2603 
Q 1634 2963 2172 2963 
Q 2816 2963 3241 2528 
Q 3638 2113 3638 1497 
Q 3638 938 3297 513 
Q 2869 -31 2031 -31 
Q 959 -31 469 784 
L 938 1028 
Q 1309 434 2013 434 
Q 2466 434 2769 716 
Q 3081 1013 3081 1503 
Q 3081 1966 2806 2241 
Q 2519 2528 2056 2528 
Q 1406 2528 1072 2028 
L 591 2091 
L 884 4634 
L 3406 4634 
L 3406 4153 
L 1341 4153 
L 1134 2603 
L 1178 2603 
z
" transform="scale(0.015625)"/>
       </defs>
       <use xlink:href="#IPAexGothic-31"/>
       <use xlink:href="#IPAexGothic-35" transform="translate(62.988281 0)"/>
       <use xlink:href="#IPAexGothic-30" transform="translate(125.976562 0)"/>
      </g>
     </g>
    </g>
    <g id="text_15">
     <!-- 値 -->
     <g transform="translate(22.468688 143.66) rotate(-90) scale(0.144 -0.144)">
      <defs>
       <path id="IPAexGothic-5024" d="M 4172 3675 
L 5453 3675 
L 5453 684 
L 3019 684 
L 3019 3675 
L 3750 3675 
Q 3788 3884 3825 4153 
L 2141 4153 
L 2141 4544 
L 3884 4544 
Q 3922 4844 3966 5325 
L 4434 5272 
L 4388 4953 
Q 4331 4578 4331 4544 
L 5863 4544 
L 5863 4153 
L 4269 4153 
Q 4200 3781 4172 3675 
z
M 5038 3316 
L 3434 3316 
L 3434 2803 
L 5038 2803 
L 5038 3316 
z
M 3434 2450 
L 3434 1941 
L 5038 1941 
L 5038 2450 
L 3434 2450 
z
M 3434 1588 
L 3434 1044 
L 5038 1044 
L 5038 1588 
L 3434 1588 
z
M 1509 3669 
L 1509 -447 
L 1069 -447 
L 1069 2725 
Q 856 2338 531 1875 
L 288 2266 
Q 1163 3531 1541 5325 
L 1975 5222 
Q 1791 4378 1509 3669 
z
M 2488 244 
L 6031 244 
L 6031 -153 
L 2488 -153 
L 2488 -447 
L 2059 -447 
L 2059 3213 
L 2488 3213 
L 2488 244 
z
" transform="scale(0.015625)"/>
      </defs>
      <use xlink:href="#IPAexGothic-5024"/>
     </g>
    </g>
   </g>
   <g id="line2d_27">
    <path d="M 75.013636 206.393378 
L 81.226247 175.814848 
L 88.104495 163.131455 
L 94.760864 172.718932 
L 101.639111 172.41471 
L 108.29548 183.513368 
L 115.173728 186.355416 
L 122.051975 205.363649 
L 128.708344 206.775507 
L 135.586592 232.805455 
L 142.24296 194.080182 
L 149.121208 195.733765 
L 155.999456 170.304166 
L 162.212066 159.828961 
L 169.090314 148.154307 
L 175.746683 133.559268 
L 182.62493 131.856344 
L 189.281299 150.439246 
L 196.159547 163.10886 
L 203.037794 168.377623 
L 209.694163 191.924155 
L 216.572411 199.655452 
L 223.228779 175.047156 
L 230.107027 171.094953 
L 236.985275 164.681043 
L 243.419764 136.159929 
L 250.298012 118.958728 
L 256.954381 119.074668 
L 263.832629 123.57084 
L 270.488997 118.169132 
L 277.367245 123.230278 
L 284.245493 146.973144 
L 290.901861 160.70892 
L 297.780109 151.807396 
L 304.436478 141.997434 
L 311.314725 137.592014 
L 318.192973 111.525604 
L 324.405584 88.710169 
L 331.283831 86.487126 
L 337.9402 85.486046 
L 344.818448 76.278854 
L 351.474816 86.164183 
L 358.353064 91.313009 
L 365.231312 126.813034 
L 371.88768 129.913687 
L 378.765928 133.258481 
L 385.422297 134.971831 
L 392.300544 103.564653 
L 399.178792 81.657861 
L 405.391403 75.40177 
L 412.269651 41.517565 
L 418.926019 40.114545 
L 425.804267 43.628177 
L 432.460636 54.691693 
L 439.338883 62.630162 
L 446.217131 97.23181 
L 452.8735 87.919146 
L 459.751747 89.71196 
L 466.408116 105.262101 
L 473.286364 71.468804 
" clip-path="url(#pe8bde6ba06)" style="fill: none; stroke: #94a3b8; stroke-width: 1.2; stroke-linecap: square"/>
   </g>
   <g id="line2d_28">
    <path d="M 75.013636 206.393378 
L 81.226247 175.814848 
L 88.104495 163.131455 
L 94.760864 172.718932 
L 101.639111 172.41471 
L 108.29548 183.513368 
L 115.173728 186.355416 
L 122.051975 205.363649 
L 128.708344 206.775507 
L 135.586592 232.805455 
L 142.24296 194.080182 
L 149.121208 195.733765 
L 155.999456 170.304166 
L 162.212066 159.828961 
L 169.090314 148.154307 
L 175.746683 133.559268 
L 182.62493 131.856344 
L 189.281299 150.439246 
L 196.159547 163.10886 
L 203.037794 168.377623 
L 209.694163 191.924155 
L 216.572411 199.655452 
L 223.228779 175.047156 
L 230.107027 171.094953 
L 236.985275 164.681043 
L 243.419764 136.159929 
L 250.298012 118.958728 
L 256.954381 119.074668 
L 263.832629 123.57084 
L 270.488997 118.169132 
L 277.367245 123.230278 
L 284.245493 146.973144 
L 290.901861 160.70892 
L 297.780109 151.807396 
L 304.436478 141.997434 
L 311.314725 137.592014 
L 318.192973 111.525604 
L 324.405584 88.710169 
L 331.283831 86.487126 
L 337.9402 85.486046 
L 344.818448 76.278854 
L 351.474816 86.164183 
L 358.353064 91.313009 
L 365.231312 126.813034 
L 371.88768 129.913687 
L 378.765928 133.258481 
L 385.422297 134.971831 
L 392.300544 103.564653 
" clip-path="url(#pe8bde6ba06)" style="fill: none; stroke: #2563eb; stroke-width: 1.4; stroke-linecap: square"/>
   </g>
   <g id="line2d_29">
    <path d="M 399.178792 94.4706 
L 405.391403 72.169301 
L 412.269651 68.291264 
L 418.926019 69.527364 
L 425.804267 66.358433 
L 432.460636 72.921883 
L 439.338883 80.39385 
L 446.217131 116.835291 
L 452.8735 125.413988 
L 459.751747 124.617363 
L 466.408116 129.243428 
L 473.286364 105.346083 
" clip-path="url(#pe8bde6ba06)" style="fill: none; stroke: #ef4444; stroke-width: 1.6; stroke-linecap: square"/>
   </g>
   <g id="text_16">
    <!-- STLForecast による季節調整と予測 -->
    <g transform="translate(135.93835 24.48) scale(0.1728 -0.1728)">
     <defs>
      <path id="IPAexGothic-53" d="M 2919 3641 
Q 2563 4259 1853 4259 
Q 1453 4259 1213 4009 
Q 1028 3803 1028 3534 
Q 1028 3238 1266 3047 
Q 1444 2913 1984 2688 
L 2200 2597 
Q 2925 2306 3191 1953 
Q 3422 1644 3422 1259 
Q 3422 644 2969 288 
Q 2559 -31 1931 -31 
Q 881 -31 313 766 
L 753 1100 
Q 1203 459 1938 459 
Q 2288 459 2534 625 
Q 2841 847 2841 1216 
Q 2841 1503 2616 1728 
Q 2375 1959 1728 2206 
L 1541 2278 
Q 453 2694 453 3481 
Q 453 4006 806 4347 
Q 1203 4725 1863 4725 
Q 2841 4725 3359 3956 
L 2919 3641 
z
" transform="scale(0.015625)"/>
      <path id="IPAexGothic-54" d="M 3866 4141 
L 2175 4141 
L 2175 63 
L 1606 63 
L 1606 4141 
L -31 4141 
L -31 4634 
L 3866 4634 
L 3866 4141 
z
" transform="scale(0.015625)"/>
      <path id="IPAexGothic-4c" d="M 3347 63 
L 609 63 
L 609 4634 
L 1178 4634 
L 1178 563 
L 3347 563 
L 3347 63 
z
" transform="scale(0.015625)"/>
      <path id="IPAexGothic-46" d="M 3469 4141 
L 1172 4141 
L 1172 2656 
L 3206 2656 
L 3206 2188 
L 1172 2188 
L 1172 63 
L 609 63 
L 609 4634 
L 3469 4634 
L 3469 4141 
z
" transform="scale(0.015625)"/>
      <path id="IPAexGothic-6f" d="M 1919 3341 
Q 2594 3341 3056 2888 
Q 3531 2413 3531 1638 
Q 3531 888 3066 422 
Q 2609 -31 1919 -31 
Q 1228 -31 781 416 
Q 313 881 313 1656 
Q 313 2413 788 2888 
Q 1241 3341 1919 3341 
z
M 1919 2919 
Q 1519 2919 1241 2631 
Q 888 2278 888 1650 
Q 888 1031 1234 684 
Q 1516 403 1919 403 
Q 2331 403 2609 691 
Q 2956 1038 2956 1672 
Q 2956 2269 2603 2631 
Q 2316 2919 1919 2919 
z
" transform="scale(0.015625)"/>
      <path id="IPAexGothic-72" d="M 2309 3316 
L 2213 2769 
Q 2106 2791 2022 2791 
Q 1653 2791 1413 2444 
Q 1113 2006 1113 1675 
L 1113 63 
L 563 63 
L 563 3250 
L 1081 3250 
L 1056 2303 
L 1069 2303 
Q 1422 3341 2097 3341 
Q 2206 3341 2309 3316 
z
" transform="scale(0.015625)"/>
      <path id="IPAexGothic-65" d="M 863 1594 
Q 891 1041 1209 722 
Q 1534 397 1997 397 
Q 2606 397 2963 966 
L 3322 728 
Q 2869 -31 1931 -31 
Q 1222 -31 766 422 
Q 306 884 306 1641 
Q 306 2444 788 2925 
Q 1216 3353 1856 3353 
Q 2459 3353 2866 2956 
Q 3322 2494 3322 1722 
L 3322 1594 
L 863 1594 
z
M 2756 1997 
Q 2709 2431 2450 2681 
Q 2194 2938 1844 2938 
Q 1438 2938 1150 2591 
Q 953 2356 894 1997 
L 2756 1997 
z
" transform="scale(0.015625)"/>
      <path id="IPAexGothic-63" d="M 3269 784 
Q 2834 -31 1900 -31 
Q 1228 -31 788 409 
Q 313 891 313 1663 
Q 313 2428 788 2913 
Q 1222 3347 1881 3347 
Q 2813 3347 3206 2541 
L 2763 2309 
Q 2484 2900 1900 2900 
Q 1516 2900 1234 2619 
Q 881 2266 881 1650 
Q 881 1069 1222 728 
Q 1522 428 1956 428 
Q 2547 428 2847 1016 
L 3269 784 
z
" transform="scale(0.015625)"/>
      <path id="IPAexGothic-61" d="M 3156 63 
L 2672 63 
Q 2559 303 2531 556 
L 2509 556 
Q 2147 -25 1428 -25 
Q 934 -25 622 288 
Q 347 563 347 959 
Q 347 1947 2050 1997 
L 2478 2009 
L 2478 2175 
Q 2478 2509 2288 2700 
Q 2088 2900 1775 2900 
Q 1238 2900 969 2378 
L 494 2597 
Q 938 3328 1788 3328 
Q 2375 3328 2691 3000 
Q 2984 2706 2984 2169 
L 2984 997 
Q 2984 400 3156 63 
z
M 2491 1625 
L 2141 1619 
Q 903 1591 903 953 
Q 903 728 1050 581 
Q 1231 403 1525 403 
Q 1934 403 2234 703 
Q 2491 969 2491 1344 
L 2491 1625 
z
" transform="scale(0.015625)"/>
      <path id="IPAexGothic-73" d="M 2234 2547 
Q 1938 2931 1484 2931 
Q 891 2931 891 2475 
Q 891 2153 1531 1944 
L 1741 1875 
Q 2650 1578 2650 894 
Q 2650 434 2272 172 
Q 1972 -31 1497 -31 
Q 766 -31 256 503 
L 603 819 
Q 997 397 1516 397 
Q 2131 397 2131 875 
Q 2131 1238 1453 1478 
L 1234 1553 
Q 378 1853 378 2431 
Q 378 2797 628 3047 
Q 928 3347 1453 3347 
Q 2156 3347 2606 2859 
L 2234 2547 
z
" transform="scale(0.015625)"/>
      <path id="IPAexGothic-74" d="M 2125 241 
Q 1769 -6 1397 -6 
Q 653 -6 653 831 
L 653 2859 
L 219 2859 
L 219 3250 
L 653 3250 
L 653 3966 
L 1178 4228 
L 1178 3250 
L 2063 3250 
L 2063 2859 
L 1178 2859 
L 1178 906 
Q 1178 416 1513 416 
Q 1738 416 1941 588 
L 2125 241 
z
" transform="scale(0.015625)"/>
      <path id="IPAexGothic-20" transform="scale(0.015625)"/>
      <path id="IPAexGothic-306b" d="M 1088 -38 
Q 922 1003 922 2081 
Q 922 3222 1331 4794 
L 1813 4684 
Q 1391 3113 1391 2003 
Q 1391 1441 1422 1147 
Q 1434 1181 1813 2016 
L 2125 1797 
Q 1800 1081 1691 763 
Q 1581 453 1581 269 
Q 1581 78 1588 6 
L 1088 -38 
z
M 2834 4038 
Q 3969 4213 5313 4172 
L 5338 3681 
Q 3959 3728 2869 3547 
L 2834 4038 
z
M 5650 256 
Q 5044 172 4372 172 
Q 3463 172 3047 434 
Q 2784 594 2675 841 
Q 2572 1075 2572 1447 
Q 2572 1563 2578 1656 
L 3053 1684 
Q 3050 1613 3044 1528 
Q 3041 1481 3041 1466 
Q 3041 1200 3119 1053 
Q 3178 944 3309 850 
Q 3569 678 4275 678 
Q 4891 678 5588 763 
L 5650 256 
z
" transform="scale(0.015625)"/>
      <path id="IPAexGothic-3088" d="M 2784 5019 
L 3272 5019 
Q 3247 4378 3272 3647 
Q 4184 3719 4850 3903 
L 4997 3431 
Q 4369 3291 3272 3200 
Q 3288 2366 3378 1550 
Q 4134 1353 5344 647 
L 5031 213 
Q 4244 759 3406 1044 
L 3413 891 
Q 3434 359 3122 84 
Q 2863 -141 2272 -141 
Q 1641 -141 1272 116 
Q 934 350 934 738 
Q 934 1294 1500 1534 
Q 1841 1678 2278 1678 
Q 2581 1678 2906 1631 
Q 2813 2559 2784 5019 
z
M 2931 1178 
Q 2613 1244 2369 1244 
Q 1422 1244 1422 794 
Q 1422 300 2278 300 
Q 2956 300 2938 934 
L 2931 1178 
z
" transform="scale(0.015625)"/>
      <path id="IPAexGothic-308b" d="M 4391 4397 
L 2613 2588 
Q 3225 2809 3759 2809 
Q 4263 2809 4659 2625 
Q 5391 2269 5391 1484 
Q 5391 756 4706 275 
Q 4072 -166 3053 -166 
Q 2559 -166 2247 19 
Q 1863 250 1863 666 
Q 1863 934 2069 1141 
Q 2331 1403 2741 1403 
Q 3509 1403 4019 428 
Q 4872 784 4872 1491 
Q 4872 1981 4469 2222 
Q 4166 2406 3681 2406 
Q 2425 2406 1238 1209 
L 891 1581 
Q 2438 2934 3578 4281 
Q 2594 4125 1588 4066 
L 1478 4550 
Q 2594 4581 4109 4763 
L 4391 4397 
z
M 3591 303 
Q 3244 1025 2731 1025 
Q 2553 1025 2434 934 
Q 2316 844 2316 700 
Q 2316 250 3034 250 
Q 3275 250 3591 303 
z
" transform="scale(0.015625)"/>
      <path id="IPAexGothic-5b63" d="M 3800 3559 
Q 4759 2959 6097 2566 
L 5816 2181 
Q 4363 2653 3406 3413 
L 3406 2444 
L 4547 2444 
L 4741 2238 
Q 4091 1728 3488 1397 
L 3488 1281 
L 6084 1281 
L 6084 884 
L 3513 884 
L 3513 72 
Q 3513 -238 3381 -350 
Q 3250 -459 2894 -459 
Q 2516 -459 2075 -409 
L 1972 44 
Q 2559 -38 2825 -38 
Q 3053 -38 3053 172 
L 3053 884 
L 328 884 
L 328 1281 
L 3028 1281 
L 3028 1581 
Q 3478 1781 3869 2059 
L 1653 2059 
L 1653 2444 
L 2953 2444 
L 2953 3394 
Q 2069 2506 591 2072 
L 322 2444 
Q 1681 2778 2594 3559 
L 406 3559 
L 406 3956 
L 2953 3956 
L 2953 4494 
Q 1978 4422 1091 4384 
L 872 4769 
Q 3144 4834 4803 5147 
L 5222 4763 
Q 4363 4619 3544 4538 
L 3406 4525 
L 3406 3956 
L 6006 3956 
L 6006 3559 
L 3800 3559 
z
" transform="scale(0.015625)"/>
      <path id="IPAexGothic-7bc0" d="M 1278 1331 
L 1278 313 
Q 2053 475 2478 588 
Q 2297 875 2138 1094 
L 2491 1281 
Q 2916 769 3322 19 
L 2925 -231 
Q 2806 25 2663 281 
Q 1788 -6 497 -263 
L 306 153 
Q 816 231 844 238 
L 844 3309 
L 3041 3309 
L 3041 1331 
L 1278 1331 
z
M 1278 1684 
L 2619 1684 
L 2619 2163 
L 1278 2163 
L 1278 1684 
z
M 1278 2503 
L 2619 2503 
L 2619 2956 
L 1278 2956 
L 1278 2503 
z
M 1522 4659 
L 3206 4659 
L 3206 4288 
L 2278 4288 
Q 2309 4231 2334 4172 
Q 2456 3931 2584 3572 
L 2156 3403 
Q 2034 3856 1838 4288 
L 1356 4288 
Q 1053 3697 634 3269 
L 294 3563 
Q 959 4241 1278 5306 
L 1703 5197 
Q 1600 4838 1522 4659 
z
M 3981 4659 
L 6072 4659 
L 6072 4288 
L 4697 4288 
Q 4853 4041 5056 3616 
L 4634 3441 
Q 4469 3884 4231 4288 
L 3841 4288 
Q 3622 3766 3303 3341 
L 2950 3616 
Q 3438 4275 3700 5294 
L 4134 5203 
Q 4069 4916 3981 4659 
z
M 3566 3309 
L 5716 3309 
L 5716 575 
Q 5716 116 5197 116 
Q 4822 116 4506 159 
L 4422 588 
Q 4797 531 5116 531 
Q 5288 531 5288 703 
L 5288 2913 
L 4013 2913 
L 4013 -447 
L 3566 -447 
L 3566 3309 
z
" transform="scale(0.015625)"/>
      <path id="IPAexGothic-8abf" d="M 5081 2247 
L 5081 775 
L 3806 775 
L 3806 428 
L 3422 428 
L 3422 2247 
L 5081 2247 
z
M 3806 1906 
L 3806 1116 
L 4697 1116 
L 4697 1906 
L 3806 1906 
z
M 2175 1684 
L 2175 -72 
L 894 -72 
L 894 -450 
L 484 -450 
L 484 1684 
L 2175 1684 
z
M 894 1313 
L 894 300 
L 1772 300 
L 1772 1313 
L 894 1313 
z
M 5875 4984 
L 5875 128 
Q 5875 -353 5397 -353 
Q 5084 -353 4672 -313 
L 4603 128 
Q 4966 69 5241 69 
Q 5453 69 5453 281 
L 5453 4600 
L 3078 4600 
L 3078 3025 
Q 3078 1475 3000 831 
Q 2913 59 2606 -513 
L 2241 -213 
Q 2528 366 2606 1203 
Q 2663 1778 2663 2803 
L 2663 4984 
L 5875 4984 
z
M 4044 3897 
L 4044 4428 
L 4441 4428 
L 4441 3897 
L 5150 3897 
L 5150 3544 
L 4441 3544 
L 4441 3009 
L 5266 3009 
L 5266 2663 
L 3269 2663 
L 3269 3009 
L 4044 3009 
L 4044 3544 
L 3378 3544 
L 3378 3897 
L 4044 3897 
z
M 569 5044 
L 2097 5044 
L 2097 4659 
L 569 4659 
L 569 5044 
z
M 313 4206 
L 2366 4206 
L 2366 3816 
L 313 3816 
L 313 4206 
z
M 569 3359 
L 2097 3359 
L 2097 2975 
L 569 2975 
L 569 3359 
z
M 569 2522 
L 2097 2522 
L 2097 2138 
L 569 2138 
L 569 2522 
z
" transform="scale(0.015625)"/>
      <path id="IPAexGothic-6574" d="M 1694 2891 
Q 1297 2363 644 1997 
L 356 2328 
Q 1028 2625 1469 3097 
L 644 3097 
L 644 4191 
L 1694 4191 
L 1694 4497 
L 413 4497 
L 413 4838 
L 1694 4838 
L 1694 5313 
L 2109 5313 
L 2109 4838 
L 3372 4838 
L 3372 4497 
L 2109 4497 
L 2109 4191 
L 3181 4191 
L 3181 3097 
L 2109 3097 
L 2109 2963 
Q 2619 2838 3188 2559 
L 2913 2206 
Q 2616 2434 2109 2669 
L 2109 1972 
L 1694 1972 
L 1694 2891 
z
M 1706 3884 
L 1041 3884 
L 1041 3397 
L 1706 3397 
L 1706 3884 
z
M 2097 3884 
L 2097 3397 
L 2784 3397 
L 2784 3884 
L 2097 3884 
z
M 4453 3016 
Q 4150 3356 3909 3828 
Q 3791 3631 3591 3397 
L 3316 3719 
Q 3866 4425 4075 5363 
L 4509 5269 
Q 4422 4888 4313 4634 
L 5997 4634 
L 5997 4269 
L 5522 4269 
Q 5366 3559 4984 3034 
Q 5434 2663 6072 2419 
L 5797 2047 
Q 5184 2325 4728 2731 
Q 4266 2259 3525 1953 
L 3256 2297 
Q 3981 2534 4453 3016 
z
M 4691 3309 
Q 4978 3719 5106 4269 
L 4147 4269 
L 4116 4191 
Q 4316 3722 4691 3309 
z
M 3428 91 
L 6078 91 
L 6078 -288 
L 313 -288 
L 313 91 
L 1553 91 
L 1553 1088 
L 1994 1088 
L 1994 91 
L 2988 91 
L 2988 1413 
L 638 1413 
L 638 1784 
L 5759 1784 
L 5759 1413 
L 3428 1413 
L 3428 959 
L 5272 959 
L 5272 588 
L 3428 588 
L 3428 91 
z
" transform="scale(0.015625)"/>
      <path id="IPAexGothic-3068" d="M 5222 56 
Q 4200 -72 3450 -72 
Q 2478 -72 1941 113 
Q 1184 372 1184 1038 
Q 1184 1584 1594 2009 
Q 1941 2369 2656 2725 
Q 2231 3734 1972 4878 
L 2491 4978 
Q 2706 3884 3078 2950 
Q 4250 3447 4756 3616 
L 4978 3150 
Q 3181 2575 2409 2078 
Q 1691 1613 1691 1113 
Q 1691 403 3322 403 
Q 4125 403 5134 563 
L 5222 56 
z
" transform="scale(0.015625)"/>
      <path id="IPAexGothic-4e88" d="M 3541 3491 
Q 3644 3419 3816 3300 
Q 3944 3213 3997 3175 
L 3663 2894 
L 5603 2894 
L 5872 2625 
Q 5181 1709 4463 1069 
L 4066 1378 
Q 4722 1878 5153 2466 
L 3509 2466 
L 3509 147 
Q 3509 -150 3388 -263 
Q 3266 -384 2822 -384 
Q 2341 -384 1863 -331 
L 1766 172 
Q 2416 84 2766 84 
Q 3022 84 3022 334 
L 3022 2466 
L 513 2466 
L 513 2894 
L 3553 2894 
Q 2809 3488 1947 3963 
L 2247 4291 
Q 2741 4009 3181 3725 
Q 3941 4191 4400 4591 
L 1159 4591 
L 1159 5006 
L 4975 5006 
L 5250 4725 
Q 4428 4044 3541 3491 
z
" transform="scale(0.015625)"/>
      <path id="IPAexGothic-6e2c" d="M 3856 4884 
L 3856 1081 
L 2059 1081 
L 2059 4884 
L 3856 4884 
z
M 2456 4494 
L 2456 3756 
L 3459 3756 
L 3459 4494 
L 2456 4494 
z
M 2456 3384 
L 2456 2656 
L 3459 2656 
L 3459 3384 
L 2456 3384 
z
M 2456 2284 
L 2456 1478 
L 3459 1478 
L 3459 2284 
L 2456 2284 
z
M 1413 3891 
Q 1000 4428 556 4763 
L 856 5100 
Q 1309 4753 1734 4269 
L 1413 3891 
z
M 1222 2394 
Q 816 2878 325 3256 
L 625 3591 
Q 1141 3231 1528 2778 
L 1222 2394 
z
M 375 -78 
Q 916 800 1297 1906 
L 1669 1619 
Q 1284 478 759 -428 
L 375 -78 
z
M 3819 -256 
Q 3478 319 3128 716 
L 3469 966 
Q 3834 581 4172 63 
L 3819 -256 
z
M 4378 4513 
L 4806 4513 
L 4806 959 
L 4378 959 
L 4378 4513 
z
M 1638 -109 
Q 2103 300 2450 984 
L 2828 763 
Q 2425 -6 1944 -488 
L 1638 -109 
z
M 5419 5081 
L 5853 5081 
L 5853 109 
Q 5853 -391 5297 -391 
Q 4919 -391 4541 -359 
L 4441 109 
Q 4928 50 5219 50 
Q 5419 50 5419 244 
L 5419 5081 
z
" transform="scale(0.015625)"/>
     </defs>
     <use xlink:href="#IPAexGothic-53"/>
     <use xlink:href="#IPAexGothic-54" transform="translate(58.496094 0)"/>
     <use xlink:href="#IPAexGothic-4c" transform="translate(118.408203 0)"/>
     <use xlink:href="#IPAexGothic-46" transform="translate(170.996094 0)"/>
     <use xlink:href="#IPAexGothic-6f" transform="translate(228.173828 0)"/>
     <use xlink:href="#IPAexGothic-72" transform="translate(288.574219 0)"/>
     <use xlink:href="#IPAexGothic-65" transform="translate(325.585938 0)"/>
     <use xlink:href="#IPAexGothic-63" transform="translate(382.470703 0)"/>
     <use xlink:href="#IPAexGothic-61" transform="translate(436.865234 0)"/>
     <use xlink:href="#IPAexGothic-73" transform="translate(491.845703 0)"/>
     <use xlink:href="#IPAexGothic-74" transform="translate(538.037109 0)"/>
     <use xlink:href="#IPAexGothic-20" transform="translate(572.65625 0)"/>
     <use xlink:href="#IPAexGothic-306b" transform="translate(599.658203 0)"/>
     <use xlink:href="#IPAexGothic-3088" transform="translate(699.658203 0)"/>
     <use xlink:href="#IPAexGothic-308b" transform="translate(799.658203 0)"/>
     <use xlink:href="#IPAexGothic-5b63" transform="translate(899.658203 0)"/>
     <use xlink:href="#IPAexGothic-7bc0" transform="translate(999.658203 0)"/>
     <use xlink:href="#IPAexGothic-8abf" transform="translate(1099.658203 0)"/>
     <use xlink:href="#IPAexGothic-6574" transform="translate(1199.658203 0)"/>
     <use xlink:href="#IPAexGothic-3068" transform="translate(1299.658203 0)"/>
     <use xlink:href="#IPAexGothic-4e88" transform="translate(1399.658203 0)"/>
     <use xlink:href="#IPAexGothic-6e2c" transform="translate(1499.658203 0)"/>
    </g>
   </g>
   <g id="legend_1">
    <g id="patch_3">
     <path d="M 69.5 129.555 
L 203.860625 129.555 
Q 206.260625 129.555 206.260625 127.155 
L 206.260625 44.88 
Q 206.260625 42.48 203.860625 42.48 
L 69.5 42.48 
Q 67.1 42.48 67.1 44.88 
L 67.1 127.155 
Q 67.1 129.555 69.5 129.555 
z
" style="fill: #ffffff; opacity: 0.8; stroke: #cccccc; stroke-linejoin: miter"/>
    </g>
    <g id="line2d_30">
     <path d="M 71.9 52.06875 
L 83.9 52.06875 
L 95.9 52.06875 
" style="fill: none; stroke: #94a3b8; stroke-width: 1.2; stroke-linecap: square"/>
    </g>
    <g id="text_17">
     <!-- 実測値 -->
     <g transform="translate(105.5 56.26875) scale(0.12 -0.12)">
      <defs>
       <path id="IPAexGothic-5b9f" d="M 3525 1275 
Q 4288 350 6022 91 
L 5738 -375 
Q 3953 -41 3219 1050 
Q 2731 -144 728 -472 
L 466 -44 
Q 2422 150 2872 1275 
L 384 1275 
L 384 1659 
L 2950 1659 
L 2950 2144 
L 966 2144 
L 966 2509 
L 2950 2509 
L 2950 2969 
L 1266 2969 
L 1266 3341 
L 2950 3341 
L 2950 3988 
L 3403 3988 
L 3403 3341 
L 5125 3341 
L 5125 2969 
L 3403 2969 
L 3403 2509 
L 5444 2509 
L 5444 2144 
L 3403 2144 
L 3403 1659 
L 6016 1659 
L 6016 1275 
L 3525 1275 
z
M 3413 4544 
L 5778 4544 
L 5778 3269 
L 5309 3269 
L 5309 4147 
L 1084 4147 
L 1084 3269 
L 616 3269 
L 616 4544 
L 2938 4544 
L 2938 5313 
L 3413 5313 
L 3413 4544 
z
" transform="scale(0.015625)"/>
      </defs>
      <use xlink:href="#IPAexGothic-5b9f"/>
      <use xlink:href="#IPAexGothic-6e2c" transform="translate(100 0)"/>
      <use xlink:href="#IPAexGothic-5024" transform="translate(200 0)"/>
     </g>
    </g>
    <g id="line2d_31">
     <path d="M 71.9 74.1375 
L 83.9 74.1375 
L 95.9 74.1375 
" style="fill: none; stroke: #2563eb; stroke-width: 1.4; stroke-linecap: square"/>
    </g>
    <g id="text_18">
     <!-- 学習区間 -->
     <g transform="translate(105.5 78.3375) scale(0.12 -0.12)">
      <defs>
       <path id="IPAexGothic-5b66" d="M 1706 4050 
L 1688 4088 
Q 1525 4513 1244 4959 
L 1681 5150 
Q 1947 4791 2200 4216 
L 1763 4050 
L 3941 4050 
Q 4359 4628 4653 5234 
L 5138 5016 
Q 4822 4488 4472 4050 
L 5797 4050 
L 5797 2675 
L 5338 2675 
L 5338 3653 
L 1072 3653 
L 1072 2675 
L 613 2675 
L 613 4050 
L 1706 4050 
z
M 3444 1888 
L 3444 1650 
L 6078 1650 
L 6078 1241 
L 3475 1241 
L 3475 91 
Q 3475 -428 2834 -428 
Q 2319 -428 1875 -366 
L 1784 128 
Q 2278 25 2744 25 
Q 2994 25 2994 263 
L 2994 1241 
L 319 1241 
L 319 1650 
L 2969 1650 
L 2969 2113 
L 3000 2125 
Q 3559 2338 4116 2675 
L 1466 2675 
L 1466 3078 
L 4756 3078 
L 5019 2822 
Q 4338 2309 3444 1888 
z
M 3019 4072 
Q 2831 4609 2572 5044 
L 3006 5228 
Q 3275 4822 3500 4250 
L 3019 4072 
z
" transform="scale(0.015625)"/>
       <path id="IPAexGothic-7fd2" d="M 3006 5063 
L 3006 3047 
Q 3006 2781 2878 2675 
Q 2769 2584 2481 2584 
Q 2078 2584 1772 2631 
L 1716 3072 
Q 2159 2988 2347 2988 
Q 2566 2988 2566 3219 
L 2566 4678 
L 466 4678 
L 466 5063 
L 3006 5063 
z
M 5778 5063 
L 5778 3041 
Q 5778 2584 5288 2584 
Q 4916 2584 4519 2631 
L 4441 3066 
Q 4856 2988 5131 2988 
Q 5338 2988 5338 3206 
L 5338 4678 
L 3238 4678 
L 3238 5063 
L 5778 5063 
z
M 2866 2119 
Q 2950 2356 3013 2669 
L 3500 2572 
Q 3409 2322 3306 2119 
L 5325 2119 
L 5325 -447 
L 4856 -447 
L 4856 -172 
L 1619 -172 
L 1619 -447 
L 1150 -447 
L 1150 2119 
L 2866 2119 
z
M 1619 1747 
L 1619 1197 
L 4856 1197 
L 4856 1747 
L 1619 1747 
z
M 1619 831 
L 1619 206 
L 4856 206 
L 4856 831 
L 1619 831 
z
M 1594 3681 
Q 1219 4044 778 4341 
L 1056 4609 
Q 1525 4325 1869 3981 
L 1594 3681 
z
M 4269 3694 
Q 3816 4066 3403 4341 
L 3684 4622 
Q 4203 4294 4556 3994 
L 4269 3694 
z
M 447 2950 
Q 1328 3347 2225 3969 
L 2353 3622 
Q 1581 3056 691 2606 
L 447 2950 
z
M 3231 3059 
Q 4138 3444 4978 4031 
L 5113 3675 
Q 4281 3066 3463 2700 
L 3231 3059 
z
" transform="scale(0.015625)"/>
       <path id="IPAexGothic-533a" d="M 1294 4391 
L 1294 403 
L 5838 403 
L 5838 -25 
L 1294 -25 
L 1294 -447 
L 806 -447 
L 806 4819 
L 5678 4819 
L 5678 4391 
L 1294 4391 
z
M 3278 2375 
Q 2669 2909 1819 3500 
L 2125 3794 
Q 2881 3281 3547 2725 
Q 3959 3319 4306 4172 
L 4744 4000 
Q 4322 3038 3891 2431 
Q 4438 1959 5203 1216 
L 4850 856 
Q 4206 1534 3616 2075 
Q 2963 1284 1856 659 
L 1534 1013 
Q 2569 1553 3278 2375 
z
" transform="scale(0.015625)"/>
       <path id="IPAexGothic-9593" d="M 4450 2566 
L 4450 353 
L 2375 353 
L 2375 -25 
L 1953 -25 
L 1953 2566 
L 4450 2566 
z
M 4028 2200 
L 2375 2200 
L 2375 1653 
L 4028 1653 
L 4028 2200 
z
M 4028 1300 
L 2375 1300 
L 2375 719 
L 4028 719 
L 4028 1300 
z
M 2913 5019 
L 2913 3059 
L 1056 3059 
L 1056 -447 
L 609 -447 
L 609 5019 
L 2913 5019 
z
M 1056 4659 
L 1056 4206 
L 2497 4206 
L 2497 4659 
L 1056 4659 
z
M 1056 3881 
L 1056 3413 
L 2497 3413 
L 2497 3881 
L 1056 3881 
z
M 5788 5019 
L 5788 91 
Q 5788 -225 5641 -331 
Q 5525 -409 5231 -409 
Q 4803 -409 4481 -366 
L 4419 97 
Q 4853 38 5128 38 
Q 5341 38 5341 244 
L 5341 3059 
L 3438 3059 
L 3438 5019 
L 5788 5019 
z
M 3853 4659 
L 3853 4206 
L 5341 4206 
L 5341 4659 
L 3853 4659 
z
M 3853 3881 
L 3853 3413 
L 5341 3413 
L 5341 3881 
L 3853 3881 
z
" transform="scale(0.015625)"/>
      </defs>
      <use xlink:href="#IPAexGothic-5b66"/>
      <use xlink:href="#IPAexGothic-7fd2" transform="translate(100 0)"/>
      <use xlink:href="#IPAexGothic-533a" transform="translate(200 0)"/>
      <use xlink:href="#IPAexGothic-9593" transform="translate(300 0)"/>
     </g>
    </g>
    <g id="line2d_32">
     <path d="M 71.9 96.20625 
L 83.9 96.20625 
L 95.9 96.20625 
" style="fill: none; stroke: #ef4444; stroke-width: 1.6; stroke-linecap: square"/>
    </g>
    <g id="text_19">
     <!-- STLForecast 予測 -->
     <g transform="translate(105.5 100.40625) scale(0.12 -0.12)">
      <use xlink:href="#IPAexGothic-53"/>
      <use xlink:href="#IPAexGothic-54" transform="translate(58.496094 0)"/>
      <use xlink:href="#IPAexGothic-4c" transform="translate(118.408203 0)"/>
      <use xlink:href="#IPAexGothic-46" transform="translate(170.996094 0)"/>
      <use xlink:href="#IPAexGothic-6f" transform="translate(228.173828 0)"/>
      <use xlink:href="#IPAexGothic-72" transform="translate(288.574219 0)"/>
      <use xlink:href="#IPAexGothic-65" transform="translate(325.585938 0)"/>
      <use xlink:href="#IPAexGothic-63" transform="translate(382.470703 0)"/>
      <use xlink:href="#IPAexGothic-61" transform="translate(436.865234 0)"/>
      <use xlink:href="#IPAexGothic-73" transform="translate(491.845703 0)"/>
      <use xlink:href="#IPAexGothic-74" transform="translate(538.037109 0)"/>
      <use xlink:href="#IPAexGothic-20" transform="translate(572.65625 0)"/>
      <use xlink:href="#IPAexGothic-4e88" transform="translate(599.658203 0)"/>
      <use xlink:href="#IPAexGothic-6e2c" transform="translate(699.658203 0)"/>
     </g>
    </g>
    <g id="patch_4">
     <path d="M 71.9 122.475 
L 95.9 122.475 
L 95.9 114.075 
L 71.9 114.075 
z
" style="fill: #fecaca; fill-opacity: 0.4; stroke: #fecaca; stroke-opacity: 0.4; stroke-linejoin: miter"/>
    </g>
    <g id="text_20">
     <!-- ±6の目安 -->
     <g transform="translate(105.5 122.475) scale(0.12 -0.12)">
      <defs>
       <path id="IPAexGothic-b1" d="M 416 819 
L 3922 819 
L 3922 453 
L 416 453 
L 416 819 
z
M 2369 2469 
L 2369 1125 
L 1984 1125 
L 1984 2469 
L 416 2469 
L 416 2828 
L 1984 2828 
L 1984 4094 
L 2369 4094 
L 2369 2828 
L 3925 2828 
L 3925 2469 
L 2369 2469 
z
" transform="scale(0.015625)"/>
       <path id="IPAexGothic-36" d="M 1056 2328 
Q 1509 2981 2234 2981 
Q 2906 2981 3316 2513 
Q 3675 2106 3675 1522 
Q 3675 884 3272 434 
Q 2853 -31 2178 -31 
Q 1375 -31 922 581 
Q 481 1178 481 2228 
Q 481 3425 1013 4109 
Q 1494 4725 2272 4725 
Q 3191 4725 3609 4025 
L 3150 3775 
Q 2894 4266 2300 4266 
Q 1119 4266 1031 2328 
L 1056 2328 
z
M 2141 2547 
Q 1684 2547 1384 2206 
Q 1116 1900 1116 1541 
Q 1116 1156 1353 844 
Q 1672 428 2159 428 
Q 2669 428 2941 844 
Q 3125 1128 3125 1503 
Q 3125 1944 2881 2228 
Q 2600 2547 2141 2547 
z
" transform="scale(0.015625)"/>
       <path id="IPAexGothic-306e" d="M 3119 469 
Q 5275 766 5275 2425 
Q 5275 3453 4413 3925 
Q 4041 4116 3547 4159 
Q 3394 2525 2850 1400 
Q 2322 306 1722 306 
Q 1384 306 1084 666 
Q 609 1244 609 2003 
Q 609 3025 1397 3794 
Q 2184 4563 3431 4563 
Q 4306 4563 4928 4122 
Q 5813 3506 5813 2425 
Q 5813 438 3431 6 
L 3119 469 
z
M 3053 4147 
Q 2378 4044 1891 3641 
Q 1097 2981 1097 1991 
Q 1097 1366 1434 978 
Q 1581 813 1719 813 
Q 2022 813 2416 1625 
Q 2909 2638 3053 4147 
z
" transform="scale(0.015625)"/>
       <path id="IPAexGothic-76ee" d="M 5266 4819 
L 5266 -384 
L 4791 -384 
L 4791 38 
L 1600 38 
L 1600 -384 
L 1125 -384 
L 1125 4819 
L 5266 4819 
z
M 1600 4416 
L 1600 3384 
L 4791 3384 
L 4791 4416 
L 1600 4416 
z
M 1600 2988 
L 1600 1966 
L 4791 1966 
L 4791 2988 
L 1600 2988 
z
M 1600 1563 
L 1600 447 
L 4791 447 
L 4791 1563 
L 1600 1563 
z
" transform="scale(0.015625)"/>
       <path id="IPAexGothic-5b89" d="M 4728 2381 
Q 4484 1484 3969 872 
Q 5034 406 5778 31 
L 5394 -353 
Q 4466 163 3616 538 
Q 2703 -194 838 -403 
L 550 31 
Q 2269 166 3147 738 
Q 2625 963 1925 1216 
Q 1863 1119 1663 831 
L 1259 1050 
Q 1688 1653 2088 2381 
L 416 2381 
L 416 2784 
L 2284 2784 
Q 2559 3388 2713 3828 
L 3169 3706 
Q 2969 3178 2791 2784 
L 5984 2784 
L 5984 2381 
L 4728 2381 
z
M 4244 2381 
L 2597 2381 
Q 2459 2097 2206 1659 
L 2150 1563 
Q 2750 1359 3366 1113 
L 3525 1050 
Q 4019 1572 4244 2381 
z
M 3419 4428 
L 5753 4428 
L 5753 3159 
L 5278 3159 
L 5278 4025 
L 1116 4025 
L 1116 3159 
L 641 3159 
L 641 4428 
L 2931 4428 
L 2931 5313 
L 3419 5313 
L 3419 4428 
z
" transform="scale(0.015625)"/>
      </defs>
      <use xlink:href="#IPAexGothic-b1"/>
      <use xlink:href="#IPAexGothic-36" transform="translate(67.822266 0)"/>
      <use xlink:href="#IPAexGothic-306e" transform="translate(130.810547 0)"/>
      <use xlink:href="#IPAexGothic-76ee" transform="translate(230.810547 0)"/>
      <use xlink:href="#IPAexGothic-5b89" transform="translate(330.810547 0)"/>
     </g>
    </g>
   </g>
  </g>
 </g>
 <defs>
  <clipPath id="pe8bde6ba06">
   <rect x="55.1" y="30.48" width="438.1" height="211.96"/>
  </clipPath>
 </defs>
</svg>
