<?xml version="1.0" encoding="utf-8" standalone="no"?>
<!DOCTYPE svg PUBLIC "-//W3C//DTD SVG 1.1//EN"
  "http://www.w3.org/Graphics/SVG/1.1/DTD/svg11.dtd">
<svg xmlns:xlink="http://www.w3.org/1999/xlink" width="504pt" height="288pt" viewBox="0 0 504 288" xmlns="http://www.w3.org/2000/svg" version="1.1">
 <metadata>
  <rdf:RDF xmlns:dc="http://purl.org/dc/elements/1.1/" xmlns:cc="http://creativecommons.org/ns#" xmlns:rdf="http://www.w3.org/1999/02/22-rdf-syntax-ns#">
   <cc:Work>
    <dc:type rdf:resource="http://purl.org/dc/dcmitype/StillImage"/>
    <dc:date>2025-10-27T10:38:19.106776</dc:date>
    <dc:format>image/svg+xml</dc:format>
    <dc:creator>
     <cc:Agent>
      <dc:title>Matplotlib v3.10.7, https://matplotlib.org/</dc:title>
     </cc:Agent>
    </dc:creator>
   </cc:Work>
  </rdf:RDF>
 </metadata>
 <defs>
  <style type="text/css">*{stroke-linejoin: round; stroke-linecap: butt}</style>
 </defs>
 <g id="figure_1">
  <g id="patch_1">
   <path d="M 0 288 
L 504 288 
L 504 0 
L 0 0 
z
" style="fill: #ffffff"/>
  </g>
  <g id="axes_1">
   <g id="patch_2">
    <path d="M 48.8 242.44 
L 493.2 242.44 
L 493.2 30.48 
L 48.8 30.48 
z
" style="fill: #ffffff"/>
   </g>
   <g id="patch_3">
    <path d="M 69 242.44 
L 116.529412 242.44 
L 116.529412 56.157361 
L 69 56.157361 
z
" clip-path="url(#p85e287b409)" style="fill: #2563eb; opacity: 0.8"/>
   </g>
   <g id="patch_4">
    <path d="M 128.411765 242.44 
L 175.941176 242.44 
L 175.941176 63.272266 
L 128.411765 63.272266 
z
" clip-path="url(#p85e287b409)" style="fill: #2563eb; opacity: 0.8"/>
   </g>
   <g id="patch_5">
    <path d="M 187.823529 242.44 
L 235.352941 242.44 
L 235.352941 64.133402 
L 187.823529 64.133402 
z
" clip-path="url(#p85e287b409)" style="fill: #2563eb; opacity: 0.8"/>
   </g>
   <g id="patch_6">
    <path d="M 247.235294 242.44 
L 294.764706 242.44 
L 294.764706 66.184287 
L 247.235294 66.184287 
z
" clip-path="url(#p85e287b409)" style="fill: #2563eb; opacity: 0.8"/>
   </g>
   <g id="patch_7">
    <path d="M 306.647059 242.44 
L 354.176471 242.44 
L 354.176471 60.884143 
L 306.647059 60.884143 
z
" clip-path="url(#p85e287b409)" style="fill: #2563eb; opacity: 0.8"/>
   </g>
   <g id="patch_8">
    <path d="M 366.058824 242.44 
L 413.588235 242.44 
L 413.588235 48.027862 
L 366.058824 48.027862 
z
" clip-path="url(#p85e287b409)" style="fill: #2563eb; opacity: 0.8"/>
   </g>
   <g id="patch_9">
    <path d="M 425.470588 242.44 
L 473 242.44 
L 473 68.558789 
L 425.470588 68.558789 
z
" clip-path="url(#p85e287b409)" style="fill: #2563eb; opacity: 0.8"/>
   </g>
   <g id="matplotlib.axis_1">
    <g id="xtick_1">
     <g id="line2d_1">
      <defs>
       <path id="m3aa41c5079" d="M 0 0 
L 0 3.5 
" style="stroke: #000000; stroke-width: 0.8"/>
      </defs>
      <g>
       <use xlink:href="#m3aa41c5079" x="92.764706" y="242.44" style="stroke: #000000; stroke-width: 0.8"/>
      </g>
     </g>
     <g id="text_1">
      <!-- 月 -->
      <g transform="translate(87.764706 256.930625) scale(0.1 -0.1)">
       <defs>
        <path id="IPAexGothic-6708" d="M 5044 4984 
L 5044 256 
Q 5044 -78 4869 -203 
Q 4734 -300 4403 -300 
Q 3894 -300 3253 -247 
L 3169 244 
Q 3750 159 4294 159 
Q 4503 159 4547 263 
Q 4569 313 4569 438 
L 4569 1672 
L 1953 1672 
Q 1906 956 1716 475 
Q 1538 6 1116 -472 
L 744 -63 
Q 1259 475 1403 1244 
Q 1500 1772 1500 2650 
L 1500 4984 
L 5044 4984 
z
M 1981 4569 
L 1981 3541 
L 4569 3541 
L 4569 4569 
L 1981 4569 
z
M 1981 3144 
L 1981 2556 
Q 1981 2288 1975 2147 
L 1975 2069 
L 4569 2069 
L 4569 3144 
L 1981 3144 
z
" transform="scale(0.015625)"/>
       </defs>
       <use xlink:href="#IPAexGothic-6708"/>
      </g>
     </g>
    </g>
    <g id="xtick_2">
     <g id="line2d_2">
      <g>
       <use xlink:href="#m3aa41c5079" x="152.176471" y="242.44" style="stroke: #000000; stroke-width: 0.8"/>
      </g>
     </g>
     <g id="text_2">
      <!-- 火 -->
      <g transform="translate(147.176471 256.930625) scale(0.1 -0.1)">
       <defs>
        <path id="IPAexGothic-706b" d="M 3425 5147 
L 3425 4044 
Q 3425 1303 5978 197 
L 5600 -244 
Q 3691 725 3219 2584 
Q 2903 363 819 -378 
L 475 44 
Q 1847 438 2394 1447 
Q 2925 2422 2925 3969 
L 2925 5147 
L 3425 5147 
z
M 794 2144 
Q 1325 2953 1525 3938 
L 2025 3834 
Q 1728 2644 1244 1856 
L 794 2144 
z
M 4169 2344 
Q 4778 3203 5178 4159 
L 5691 3938 
Q 5191 2906 4578 2119 
L 4169 2344 
z
" transform="scale(0.015625)"/>
       </defs>
       <use xlink:href="#IPAexGothic-706b"/>
      </g>
     </g>
    </g>
    <g id="xtick_3">
     <g id="line2d_3">
      <g>
       <use xlink:href="#m3aa41c5079" x="211.588235" y="242.44" style="stroke: #000000; stroke-width: 0.8"/>
      </g>
     </g>
     <g id="text_3">
      <!-- 水 -->
      <g transform="translate(206.588235 256.930625) scale(0.1 -0.1)">
       <defs>
        <path id="IPAexGothic-6c34" d="M 3469 4219 
Q 3594 3556 3853 3028 
Q 4581 3613 5184 4359 
L 5594 4044 
Q 4944 3297 4056 2650 
Q 4800 1447 6059 728 
L 5728 275 
Q 4016 1394 3469 2994 
L 3469 63 
Q 3469 -391 2872 -391 
Q 2484 -391 2059 -347 
L 1969 153 
Q 2459 78 2816 78 
Q 3000 78 3000 263 
L 3000 5228 
L 3469 5228 
L 3469 4219 
z
M 563 3794 
L 2438 3794 
L 2647 3569 
Q 2475 2638 2181 2003 
Q 1706 984 697 109 
L 319 475 
Q 1809 1578 2156 3366 
L 563 3366 
L 563 3794 
z
" transform="scale(0.015625)"/>
       </defs>
       <use xlink:href="#IPAexGothic-6c34"/>
      </g>
     </g>
    </g>
    <g id="xtick_4">
     <g id="line2d_4">
      <g>
       <use xlink:href="#m3aa41c5079" x="271" y="242.44" style="stroke: #000000; stroke-width: 0.8"/>
      </g>
     </g>
     <g id="text_4">
      <!-- 木 -->
      <g transform="translate(266 256.930625) scale(0.1 -0.1)">
       <defs>
        <path id="IPAexGothic-6728" d="M 3547 3328 
Q 4384 1728 6088 838 
L 5728 353 
Q 4134 1459 3425 2797 
L 3425 -384 
L 2931 -384 
L 2931 2731 
Q 2272 1253 731 191 
L 372 594 
Q 2013 1584 2803 3328 
L 481 3328 
L 481 3769 
L 2931 3769 
L 2931 5150 
L 3425 5150 
L 3425 3769 
L 5922 3769 
L 5922 3328 
L 3547 3328 
z
" transform="scale(0.015625)"/>
       </defs>
       <use xlink:href="#IPAexGothic-6728"/>
      </g>
     </g>
    </g>
    <g id="xtick_5">
     <g id="line2d_5">
      <g>
       <use xlink:href="#m3aa41c5079" x="330.411765" y="242.44" style="stroke: #000000; stroke-width: 0.8"/>
      </g>
     </g>
     <g id="text_5">
      <!-- 金 -->
      <g transform="translate(325.411765 256.930625) scale(0.1 -0.1)">
       <defs>
        <path id="IPAexGothic-91d1" d="M 3422 2969 
L 3422 2209 
L 5603 2209 
L 5603 1800 
L 3422 1800 
L 3422 191 
L 5922 191 
L 5922 -225 
L 481 -225 
L 481 191 
L 2947 191 
L 2947 1800 
L 803 1800 
L 803 2209 
L 2947 2209 
L 2947 2969 
L 1819 2969 
L 1819 3244 
Q 1263 2809 634 2466 
L 334 2853 
Q 2006 3647 2881 5234 
L 3441 5234 
Q 4503 3791 6109 3059 
L 5775 2613 
Q 5219 2934 4713 3294 
L 4713 2969 
L 3422 2969 
z
M 4609 3372 
Q 3781 3994 3172 4806 
Q 2741 4041 1972 3372 
L 4609 3372 
z
M 1838 300 
Q 1669 878 1344 1459 
L 1784 1644 
Q 2044 1228 2338 481 
L 1838 300 
z
M 4044 441 
Q 4403 1050 4622 1697 
L 5113 1509 
Q 4859 906 4488 288 
L 4044 441 
z
" transform="scale(0.015625)"/>
       </defs>
       <use xlink:href="#IPAexGothic-91d1"/>
      </g>
     </g>
    </g>
    <g id="xtick_6">
     <g id="line2d_6">
      <g>
       <use xlink:href="#m3aa41c5079" x="389.823529" y="242.44" style="stroke: #000000; stroke-width: 0.8"/>
      </g>
     </g>
     <g id="text_6">
      <!-- 土 -->
      <g transform="translate(384.823529 256.930625) scale(0.1 -0.1)">
       <defs>
        <path id="IPAexGothic-571f" d="M 2919 3506 
L 2919 5131 
L 3431 5131 
L 3431 3506 
L 5484 3506 
L 5484 3066 
L 3431 3066 
L 3431 434 
L 5909 434 
L 5909 0 
L 488 0 
L 488 434 
L 2919 434 
L 2919 3066 
L 903 3066 
L 903 3506 
L 2919 3506 
z
" transform="scale(0.015625)"/>
       </defs>
       <use xlink:href="#IPAexGothic-571f"/>
      </g>
     </g>
    </g>
    <g id="xtick_7">
     <g id="line2d_7">
      <g>
       <use xlink:href="#m3aa41c5079" x="449.235294" y="242.44" style="stroke: #000000; stroke-width: 0.8"/>
      </g>
     </g>
     <g id="text_7">
      <!-- 日 -->
      <g transform="translate(444.235294 256.930625) scale(0.1 -0.1)">
       <defs>
        <path id="IPAexGothic-65e5" d="M 5231 4800 
L 5231 -288 
L 4744 -288 
L 4744 128 
L 1647 128 
L 1647 -288 
L 1159 -288 
L 1159 4800 
L 5231 4800 
z
M 1647 4372 
L 1647 2731 
L 4744 2731 
L 4744 4372 
L 1647 4372 
z
M 1647 2297 
L 1647 556 
L 4744 556 
L 4744 2297 
L 1647 2297 
z
" transform="scale(0.015625)"/>
       </defs>
       <use xlink:href="#IPAexGothic-65e5"/>
      </g>
     </g>
    </g>
    <g id="text_8">
     <!-- 曜日 -->
     <g transform="translate(256.6 273.617125) scale(0.144 -0.144)">
      <defs>
       <path id="IPAexGothic-66dc" d="M 3259 2597 
L 4169 2597 
Q 4322 2934 4394 3175 
L 4809 3066 
Q 4697 2822 4572 2597 
L 5969 2597 
L 5969 2244 
L 4522 2244 
L 4522 1791 
L 5769 1791 
L 5769 1450 
L 4522 1450 
L 4522 991 
L 5769 991 
L 5769 659 
L 4522 659 
L 4522 175 
L 6050 175 
L 6050 -191 
L 3094 -191 
L 3094 -447 
L 2691 -447 
L 2691 1656 
Q 2519 1419 2244 1131 
L 2019 1419 
L 2019 616 
L 866 616 
L 866 109 
L 469 109 
L 469 4781 
L 2019 4781 
L 2019 1475 
Q 2703 2181 3075 3181 
L 3459 3059 
Q 3341 2763 3259 2597 
z
M 3094 2244 
L 3094 1791 
L 4131 1791 
L 4131 2244 
L 3094 2244 
z
M 3094 1450 
L 3094 991 
L 4131 991 
L 4131 1450 
L 3094 1450 
z
M 3094 659 
L 3094 175 
L 4131 175 
L 4131 659 
L 3094 659 
z
M 866 4384 
L 866 2925 
L 1622 2925 
L 1622 4384 
L 866 4384 
z
M 866 2541 
L 866 1013 
L 1622 1013 
L 1622 2541 
L 866 2541 
z
M 3981 5081 
L 3981 3206 
L 2425 3206 
L 2425 3547 
L 3584 3547 
L 3584 3988 
L 2522 3988 
L 2522 4313 
L 3584 4313 
L 3584 4741 
L 2425 4741 
L 2425 5081 
L 3981 5081 
z
M 5794 5081 
L 5794 3206 
L 4244 3206 
L 4244 3547 
L 5397 3547 
L 5397 3988 
L 4328 3988 
L 4328 4313 
L 5397 4313 
L 5397 4741 
L 4244 4741 
L 4244 5081 
L 5794 5081 
z
" transform="scale(0.015625)"/>
      </defs>
      <use xlink:href="#IPAexGothic-66dc"/>
      <use xlink:href="#IPAexGothic-65e5" transform="translate(100 0)"/>
     </g>
    </g>
   </g>
   <g id="matplotlib.axis_2">
    <g id="ytick_1">
     <g id="line2d_8">
      <path d="M 48.8 242.44 
L 493.2 242.44 
" clip-path="url(#p85e287b409)" style="fill: none; stroke: #000000; stroke-opacity: 0.3; stroke-width: 0.5; stroke-linecap: square"/>
     </g>
     <g id="line2d_9">
      <defs>
       <path id="m4cf501f2c1" d="M 0 0 
L -3.5 0 
" style="stroke: #000000; stroke-width: 0.8"/>
      </defs>
      <g>
       <use xlink:href="#m4cf501f2c1" x="48.8" y="242.44" style="stroke: #000000; stroke-width: 0.8"/>
      </g>
     </g>
     <g id="text_9">
      <!-- 0 -->
      <g transform="translate(35.501563 246.185312) scale(0.1 -0.1)">
       <defs>
        <path id="IPAexGothic-30" d="M 2038 4725 
Q 2881 4725 3334 3944 
Q 3694 3325 3694 2344 
Q 3694 1372 3334 741 
Q 2888 -31 2016 -31 
Q 1147 -31 700 741 
Q 341 1372 341 2350 
Q 341 3713 1000 4334 
Q 1419 4725 2038 4725 
z
M 2016 4266 
Q 1516 4266 1228 3759 
Q 934 3247 934 2344 
Q 934 1456 1222 947 
Q 1513 447 2016 447 
Q 2619 447 2909 1153 
Q 3100 1622 3100 2375 
Q 3100 3256 2806 3759 
Q 2509 4266 2016 4266 
z
" transform="scale(0.015625)"/>
       </defs>
       <use xlink:href="#IPAexGothic-30"/>
      </g>
     </g>
    </g>
    <g id="ytick_2">
     <g id="line2d_10">
      <path d="M 48.8 218.751021 
L 493.2 218.751021 
" clip-path="url(#p85e287b409)" style="fill: none; stroke: #000000; stroke-opacity: 0.3; stroke-width: 0.5; stroke-linecap: square"/>
     </g>
     <g id="line2d_11">
      <g>
       <use xlink:href="#m4cf501f2c1" x="48.8" y="218.751021" style="stroke: #000000; stroke-width: 0.8"/>
      </g>
     </g>
     <g id="text_10">
      <!-- 10 -->
      <g transform="translate(29.203125 222.496334) scale(0.1 -0.1)">
       <defs>
        <path id="IPAexGothic-31" d="M 2463 63 
L 1900 63 
L 1900 4103 
Q 1372 3922 788 3797 
L 684 4231 
Q 1519 4441 2106 4731 
L 2463 4731 
L 2463 63 
z
" transform="scale(0.015625)"/>
       </defs>
       <use xlink:href="#IPAexGothic-31"/>
       <use xlink:href="#IPAexGothic-30" transform="translate(62.988281 0)"/>
      </g>
     </g>
    </g>
    <g id="ytick_3">
     <g id="line2d_12">
      <path d="M 48.8 195.062042 
L 493.2 195.062042 
" clip-path="url(#p85e287b409)" style="fill: none; stroke: #000000; stroke-opacity: 0.3; stroke-width: 0.5; stroke-linecap: square"/>
     </g>
     <g id="line2d_13">
      <g>
       <use xlink:href="#m4cf501f2c1" x="48.8" y="195.062042" style="stroke: #000000; stroke-width: 0.8"/>
      </g>
     </g>
     <g id="text_11">
      <!-- 20 -->
      <g transform="translate(29.203125 198.807355) scale(0.1 -0.1)">
       <defs>
        <path id="IPAexGothic-32" d="M 3659 63 
L 447 63 
L 447 594 
Q 825 1475 1894 2203 
L 2072 2322 
Q 2619 2697 2791 2906 
Q 2988 3153 2988 3444 
Q 2988 3772 2756 4003 
Q 2500 4259 2084 4259 
Q 1250 4259 991 3328 
L 497 3506 
Q 853 4725 2116 4725 
Q 2806 4725 3216 4316 
Q 3575 3947 3575 3425 
Q 3575 3038 3344 2722 
Q 3131 2416 2366 1938 
L 2231 1856 
Q 1256 1253 978 569 
L 3659 569 
L 3659 63 
z
" transform="scale(0.015625)"/>
       </defs>
       <use xlink:href="#IPAexGothic-32"/>
       <use xlink:href="#IPAexGothic-30" transform="translate(62.988281 0)"/>
      </g>
     </g>
    </g>
    <g id="ytick_4">
     <g id="line2d_14">
      <path d="M 48.8 171.373063 
L 493.2 171.373063 
" clip-path="url(#p85e287b409)" style="fill: none; stroke: #000000; stroke-opacity: 0.3; stroke-width: 0.5; stroke-linecap: square"/>
     </g>
     <g id="line2d_15">
      <g>
       <use xlink:href="#m4cf501f2c1" x="48.8" y="171.373063" style="stroke: #000000; stroke-width: 0.8"/>
      </g>
     </g>
     <g id="text_12">
      <!-- 30 -->
      <g transform="translate(29.203125 175.118376) scale(0.1 -0.1)">
       <defs>
        <path id="IPAexGothic-33" d="M 2381 2419 
Q 3506 2216 3506 1278 
Q 3506 716 3128 356 
Q 2709 -31 1944 -31 
Q 797 -31 288 881 
L 756 1131 
Q 1109 441 1938 441 
Q 2425 441 2694 691 
Q 2950 928 2950 1291 
Q 2950 1719 2566 1978 
Q 2216 2213 1644 2213 
L 1363 2213 
L 1363 2669 
L 1656 2669 
Q 2231 2669 2534 2888 
Q 2859 3119 2859 3509 
Q 2859 3934 2494 4138 
Q 2259 4278 1931 4278 
Q 1238 4278 903 3578 
L 434 3803 
Q 897 4725 1938 4725 
Q 2597 4725 3006 4394 
Q 3416 4069 3416 3534 
Q 3416 3028 3019 2706 
Q 2763 2500 2381 2444 
L 2381 2419 
z
" transform="scale(0.015625)"/>
       </defs>
       <use xlink:href="#IPAexGothic-33"/>
       <use xlink:href="#IPAexGothic-30" transform="translate(62.988281 0)"/>
      </g>
     </g>
    </g>
    <g id="ytick_5">
     <g id="line2d_16">
      <path d="M 48.8 147.684084 
L 493.2 147.684084 
" clip-path="url(#p85e287b409)" style="fill: none; stroke: #000000; stroke-opacity: 0.3; stroke-width: 0.5; stroke-linecap: square"/>
     </g>
     <g id="line2d_17">
      <g>
       <use xlink:href="#m4cf501f2c1" x="48.8" y="147.684084" style="stroke: #000000; stroke-width: 0.8"/>
      </g>
     </g>
     <g id="text_13">
      <!-- 40 -->
      <g transform="translate(29.203125 151.429397) scale(0.1 -0.1)">
       <defs>
        <path id="IPAexGothic-34" d="M 3813 1159 
L 3059 1159 
L 3059 63 
L 2547 63 
L 2547 1159 
L 197 1159 
L 197 1672 
L 2456 4678 
L 3059 4678 
L 3059 1634 
L 3813 1634 
L 3813 1159 
z
M 2578 4109 
L 2559 4109 
Q 2278 3656 2003 3284 
L 759 1634 
L 2547 1634 
L 2547 3144 
Q 2547 3481 2578 4109 
z
" transform="scale(0.015625)"/>
       </defs>
       <use xlink:href="#IPAexGothic-34"/>
       <use xlink:href="#IPAexGothic-30" transform="translate(62.988281 0)"/>
      </g>
     </g>
    </g>
    <g id="ytick_6">
     <g id="line2d_18">
      <path d="M 48.8 123.995105 
L 493.2 123.995105 
" clip-path="url(#p85e287b409)" style="fill: none; stroke: #000000; stroke-opacity: 0.3; stroke-width: 0.5; stroke-linecap: square"/>
     </g>
     <g id="line2d_19">
      <g>
       <use xlink:href="#m4cf501f2c1" x="48.8" y="123.995105" style="stroke: #000000; stroke-width: 0.8"/>
      </g>
     </g>
     <g id="text_14">
      <!-- 50 -->
      <g transform="translate(29.203125 127.740418) scale(0.1 -0.1)">
       <defs>
        <path id="IPAexGothic-35" d="M 1178 2603 
Q 1634 2963 2172 2963 
Q 2816 2963 3241 2528 
Q 3638 2113 3638 1497 
Q 3638 938 3297 513 
Q 2869 -31 2031 -31 
Q 959 -31 469 784 
L 938 1028 
Q 1309 434 2013 434 
Q 2466 434 2769 716 
Q 3081 1013 3081 1503 
Q 3081 1966 2806 2241 
Q 2519 2528 2056 2528 
Q 1406 2528 1072 2028 
L 591 2091 
L 884 4634 
L 3406 4634 
L 3406 4153 
L 1341 4153 
L 1134 2603 
L 1178 2603 
z
" transform="scale(0.015625)"/>
       </defs>
       <use xlink:href="#IPAexGothic-35"/>
       <use xlink:href="#IPAexGothic-30" transform="translate(62.988281 0)"/>
      </g>
     </g>
    </g>
    <g id="ytick_7">
     <g id="line2d_20">
      <path d="M 48.8 100.306126 
L 493.2 100.306126 
" clip-path="url(#p85e287b409)" style="fill: none; stroke: #000000; stroke-opacity: 0.3; stroke-width: 0.5; stroke-linecap: square"/>
     </g>
     <g id="line2d_21">
      <g>
       <use xlink:href="#m4cf501f2c1" x="48.8" y="100.306126" style="stroke: #000000; stroke-width: 0.8"/>
      </g>
     </g>
     <g id="text_15">
      <!-- 60 -->
      <g transform="translate(29.203125 104.051439) scale(0.1 -0.1)">
       <defs>
        <path id="IPAexGothic-36" d="M 1056 2328 
Q 1509 2981 2234 2981 
Q 2906 2981 3316 2513 
Q 3675 2106 3675 1522 
Q 3675 884 3272 434 
Q 2853 -31 2178 -31 
Q 1375 -31 922 581 
Q 481 1178 481 2228 
Q 481 3425 1013 4109 
Q 1494 4725 2272 4725 
Q 3191 4725 3609 4025 
L 3150 3775 
Q 2894 4266 2300 4266 
Q 1119 4266 1031 2328 
L 1056 2328 
z
M 2141 2547 
Q 1684 2547 1384 2206 
Q 1116 1900 1116 1541 
Q 1116 1156 1353 844 
Q 1672 428 2159 428 
Q 2669 428 2941 844 
Q 3125 1128 3125 1503 
Q 3125 1944 2881 2228 
Q 2600 2547 2141 2547 
z
" transform="scale(0.015625)"/>
       </defs>
       <use xlink:href="#IPAexGothic-36"/>
       <use xlink:href="#IPAexGothic-30" transform="translate(62.988281 0)"/>
      </g>
     </g>
    </g>
    <g id="ytick_8">
     <g id="line2d_22">
      <path d="M 48.8 76.617147 
L 493.2 76.617147 
" clip-path="url(#p85e287b409)" style="fill: none; stroke: #000000; stroke-opacity: 0.3; stroke-width: 0.5; stroke-linecap: square"/>
     </g>
     <g id="line2d_23">
      <g>
       <use xlink:href="#m4cf501f2c1" x="48.8" y="76.617147" style="stroke: #000000; stroke-width: 0.8"/>
      </g>
     </g>
     <g id="text_16">
      <!-- 70 -->
      <g transform="translate(29.203125 80.36246) scale(0.1 -0.1)">
       <defs>
        <path id="IPAexGothic-37" d="M 3597 4263 
Q 2238 2106 1778 63 
L 1131 63 
Q 1581 1834 2950 4128 
L 428 4128 
L 428 4634 
L 3597 4634 
L 3597 4263 
z
" transform="scale(0.015625)"/>
       </defs>
       <use xlink:href="#IPAexGothic-37"/>
       <use xlink:href="#IPAexGothic-30" transform="translate(62.988281 0)"/>
      </g>
     </g>
    </g>
    <g id="ytick_9">
     <g id="line2d_24">
      <path d="M 48.8 52.928168 
L 493.2 52.928168 
" clip-path="url(#p85e287b409)" style="fill: none; stroke: #000000; stroke-opacity: 0.3; stroke-width: 0.5; stroke-linecap: square"/>
     </g>
     <g id="line2d_25">
      <g>
       <use xlink:href="#m4cf501f2c1" x="48.8" y="52.928168" style="stroke: #000000; stroke-width: 0.8"/>
      </g>
     </g>
     <g id="text_17">
      <!-- 80 -->
      <g transform="translate(29.203125 56.673481) scale(0.1 -0.1)">
       <defs>
        <path id="IPAexGothic-38" d="M 2541 2425 
Q 3700 2031 3700 1197 
Q 3700 541 3100 197 
Q 2663 -56 2016 -56 
Q 1366 -56 928 197 
Q 347 531 347 1178 
Q 347 1988 1409 2381 
L 1409 2400 
Q 481 2734 481 3509 
Q 481 4100 981 4456 
Q 1406 4756 2019 4756 
Q 2703 4756 3131 4403 
Q 3553 4069 3553 3566 
Q 3553 2706 2541 2444 
L 2541 2425 
z
M 2022 2625 
Q 2997 2856 2997 3528 
Q 2997 3916 2675 4150 
Q 2413 4347 2016 4347 
Q 1606 4347 1331 4128 
Q 1050 3897 1050 3522 
Q 1050 3150 1350 2925 
Q 1494 2809 1722 2722 
Q 1984 2616 2022 2625 
z
M 1978 2209 
Q 922 1931 922 1216 
Q 922 775 1313 556 
Q 1606 391 2009 391 
Q 2575 391 2881 697 
Q 3106 922 3106 1250 
Q 3106 1594 2794 1850 
Q 2609 1994 2350 2100 
Q 2047 2222 1978 2209 
z
" transform="scale(0.015625)"/>
       </defs>
       <use xlink:href="#IPAexGothic-38"/>
       <use xlink:href="#IPAexGothic-30" transform="translate(62.988281 0)"/>
      </g>
     </g>
    </g>
    <g id="text_18">
     <!-- 平均値 -->
     <g transform="translate(22.467125 158.06) rotate(-90) scale(0.144 -0.144)">
      <defs>
       <path id="IPAexGothic-5e73" d="M 3422 4428 
L 3422 1941 
L 6084 1941 
L 6084 1513 
L 3422 1513 
L 3422 -447 
L 2934 -447 
L 2934 1513 
L 322 1513 
L 322 1941 
L 2934 1941 
L 2934 4428 
L 641 4428 
L 641 4856 
L 5763 4856 
L 5763 4428 
L 3422 4428 
z
M 1728 2278 
Q 1488 3094 1081 3859 
L 1544 4038 
Q 1875 3422 2222 2472 
L 1728 2278 
z
M 4134 2425 
Q 4509 3138 4813 4128 
L 5306 3944 
Q 4984 3006 4569 2228 
L 4134 2425 
z
" transform="scale(0.015625)"/>
       <path id="IPAexGothic-5747" d="M 1206 3794 
L 1206 5144 
L 1659 5144 
L 1659 3794 
L 2369 3794 
L 2369 3372 
L 1659 3372 
L 1659 1325 
Q 2078 1513 2484 1722 
L 2566 1313 
Q 1556 775 559 397 
L 334 838 
Q 803 975 1206 1138 
L 1206 3372 
L 413 3372 
L 413 3794 
L 1206 3794 
z
M 3475 4244 
L 5844 4244 
Q 5834 1131 5619 184 
Q 5494 -366 4838 -366 
Q 4369 -366 3859 -306 
L 3769 184 
Q 4241 88 4731 88 
Q 5059 88 5147 306 
Q 5359 919 5369 3828 
L 3316 3828 
Q 3013 3119 2466 2472 
L 2150 2828 
Q 2944 3788 3259 5263 
L 3719 5147 
Q 3619 4663 3475 4244 
z
M 2975 2847 
L 4678 2847 
L 4678 2431 
L 2975 2431 
L 2975 2847 
z
M 2559 1044 
Q 3747 1338 4838 1797 
L 4891 1388 
Q 3831 891 2766 588 
L 2559 1044 
z
" transform="scale(0.015625)"/>
       <path id="IPAexGothic-5024" d="M 4172 3675 
L 5453 3675 
L 5453 684 
L 3019 684 
L 3019 3675 
L 3750 3675 
Q 3788 3884 3825 4153 
L 2141 4153 
L 2141 4544 
L 3884 4544 
Q 3922 4844 3966 5325 
L 4434 5272 
L 4388 4953 
Q 4331 4578 4331 4544 
L 5863 4544 
L 5863 4153 
L 4269 4153 
Q 4200 3781 4172 3675 
z
M 5038 3316 
L 3434 3316 
L 3434 2803 
L 5038 2803 
L 5038 3316 
z
M 3434 2450 
L 3434 1941 
L 5038 1941 
L 5038 2450 
L 3434 2450 
z
M 3434 1588 
L 3434 1044 
L 5038 1044 
L 5038 1588 
L 3434 1588 
z
M 1509 3669 
L 1509 -447 
L 1069 -447 
L 1069 2725 
Q 856 2338 531 1875 
L 288 2266 
Q 1163 3531 1541 5325 
L 1975 5222 
Q 1791 4378 1509 3669 
z
M 2488 244 
L 6031 244 
L 6031 -153 
L 2488 -153 
L 2488 -447 
L 2059 -447 
L 2059 3213 
L 2488 3213 
L 2488 244 
z
" transform="scale(0.015625)"/>
      </defs>
      <use xlink:href="#IPAexGothic-5e73"/>
      <use xlink:href="#IPAexGothic-5747" transform="translate(100 0)"/>
      <use xlink:href="#IPAexGothic-5024" transform="translate(200 0)"/>
     </g>
    </g>
   </g>
   <g id="LineCollection_1">
    <path d="M 92.764706 61.65287 
L 92.764706 50.661851 
" clip-path="url(#p85e287b409)" style="fill: none; stroke: #000000; stroke-width: 1.2"/>
    <path d="M 152.176471 69.766367 
L 152.176471 56.778166 
" clip-path="url(#p85e287b409)" style="fill: none; stroke: #000000; stroke-width: 1.2"/>
    <path d="M 211.588235 71.08166 
L 211.588235 57.185145 
" clip-path="url(#p85e287b409)" style="fill: none; stroke: #000000; stroke-width: 1.2"/>
    <path d="M 271 72.650178 
L 271 59.718396 
" clip-path="url(#p85e287b409)" style="fill: none; stroke: #000000; stroke-width: 1.2"/>
    <path d="M 330.411765 66.75065 
L 330.411765 55.017637 
" clip-path="url(#p85e287b409)" style="fill: none; stroke: #000000; stroke-width: 1.2"/>
    <path d="M 389.823529 55.482391 
L 389.823529 40.573333 
" clip-path="url(#p85e287b409)" style="fill: none; stroke: #000000; stroke-width: 1.2"/>
    <path d="M 449.235294 75.118841 
L 449.235294 61.998737 
" clip-path="url(#p85e287b409)" style="fill: none; stroke: #000000; stroke-width: 1.2"/>
   </g>
   <g id="line2d_26">
    <defs>
     <path id="m7a5d178cae" d="M 5 0 
L -5 -0 
" style="stroke: #000000"/>
    </defs>
    <g clip-path="url(#p85e287b409)">
     <use xlink:href="#m7a5d178cae" x="92.764706" y="61.65287" style="fill: #264653; stroke: #000000"/>
     <use xlink:href="#m7a5d178cae" x="152.176471" y="69.766367" style="fill: #264653; stroke: #000000"/>
     <use xlink:href="#m7a5d178cae" x="211.588235" y="71.08166" style="fill: #264653; stroke: #000000"/>
     <use xlink:href="#m7a5d178cae" x="271" y="72.650178" style="fill: #264653; stroke: #000000"/>
     <use xlink:href="#m7a5d178cae" x="330.411765" y="66.75065" style="fill: #264653; stroke: #000000"/>
     <use xlink:href="#m7a5d178cae" x="389.823529" y="55.482391" style="fill: #264653; stroke: #000000"/>
     <use xlink:href="#m7a5d178cae" x="449.235294" y="75.118841" style="fill: #264653; stroke: #000000"/>
    </g>
   </g>
   <g id="line2d_27">
    <g clip-path="url(#p85e287b409)">
     <use xlink:href="#m7a5d178cae" x="92.764706" y="50.661851" style="fill: #264653; stroke: #000000"/>
     <use xlink:href="#m7a5d178cae" x="152.176471" y="56.778166" style="fill: #264653; stroke: #000000"/>
     <use xlink:href="#m7a5d178cae" x="211.588235" y="57.185145" style="fill: #264653; stroke: #000000"/>
     <use xlink:href="#m7a5d178cae" x="271" y="59.718396" style="fill: #264653; stroke: #000000"/>
     <use xlink:href="#m7a5d178cae" x="330.411765" y="55.017637" style="fill: #264653; stroke: #000000"/>
     <use xlink:href="#m7a5d178cae" x="389.823529" y="40.573333" style="fill: #264653; stroke: #000000"/>
     <use xlink:href="#m7a5d178cae" x="449.235294" y="61.998737" style="fill: #264653; stroke: #000000"/>
    </g>
   </g>
   <g id="text_19">
    <!-- 曜日別平均と標準偏差 -->
    <g transform="translate(184.6 24.48) scale(0.1728 -0.1728)">
     <defs>
      <path id="IPAexGothic-5225" d="M 1922 2963 
Q 1906 2453 1894 2209 
L 3341 2209 
Q 3313 550 3175 63 
Q 3059 -366 2413 -366 
Q 2072 -366 1753 -313 
L 1691 134 
Q 2084 63 2413 63 
Q 2694 63 2759 319 
Q 2856 722 2888 1753 
Q 2888 1800 2894 1819 
L 1863 1819 
Q 1709 350 700 -481 
L 353 -147 
Q 1075 403 1306 1256 
Q 1450 1822 1478 2963 
L 700 2963 
L 700 4984 
L 3278 4984 
L 3278 2963 
L 1922 2963 
z
M 1141 4588 
L 1141 3353 
L 2838 3353 
L 2838 4588 
L 1141 4588 
z
M 3972 4597 
L 4425 4597 
L 4425 1159 
L 3972 1159 
L 3972 4597 
z
M 5309 5044 
L 5763 5044 
L 5763 191 
Q 5763 -141 5581 -263 
Q 5438 -359 5116 -359 
Q 4688 -359 4253 -313 
L 4156 178 
Q 4625 116 5072 116 
Q 5309 116 5309 353 
L 5309 5044 
z
" transform="scale(0.015625)"/>
      <path id="IPAexGothic-3068" d="M 5222 56 
Q 4200 -72 3450 -72 
Q 2478 -72 1941 113 
Q 1184 372 1184 1038 
Q 1184 1584 1594 2009 
Q 1941 2369 2656 2725 
Q 2231 3734 1972 4878 
L 2491 4978 
Q 2706 3884 3078 2950 
Q 4250 3447 4756 3616 
L 4978 3150 
Q 3181 2575 2409 2078 
Q 1691 1613 1691 1113 
Q 1691 403 3322 403 
Q 4125 403 5134 563 
L 5222 56 
z
" transform="scale(0.015625)"/>
      <path id="IPAexGothic-6a19" d="M 1113 2534 
Q 813 1522 384 794 
L 153 1250 
Q 763 2228 1063 3547 
L 294 3547 
L 294 3956 
L 1113 3956 
L 1113 5306 
L 1522 5306 
L 1522 3956 
L 2144 3956 
L 2144 3547 
L 1522 3547 
L 1522 3009 
Q 1991 2634 2309 2288 
L 2059 1844 
Q 1813 2222 1522 2550 
L 1522 -447 
L 1113 -447 
L 1113 2534 
z
M 3353 4109 
L 3353 4641 
L 2100 4641 
L 2100 5019 
L 5997 5019 
L 5997 4641 
L 4753 4641 
L 4753 4109 
L 5778 4109 
L 5778 2769 
L 2356 2769 
L 2356 4109 
L 3353 4109 
z
M 3756 4109 
L 4350 4109 
L 4350 4641 
L 3756 4641 
L 3756 4109 
z
M 3359 3756 
L 2772 3756 
L 2772 3122 
L 3359 3122 
L 3359 3756 
z
M 3756 3756 
L 3756 3122 
L 4350 3122 
L 4350 3756 
L 3756 3756 
z
M 4741 3756 
L 4741 3122 
L 5363 3122 
L 5363 3756 
L 4741 3756 
z
M 4300 1191 
L 4300 19 
Q 4300 -409 3809 -409 
Q 3469 -409 3175 -372 
L 3097 78 
Q 3416 0 3675 0 
Q 3866 0 3866 184 
L 3866 1191 
L 2100 1191 
L 2100 1563 
L 6072 1563 
L 6072 1191 
L 4300 1191 
z
M 2481 2350 
L 5669 2350 
L 5669 1984 
L 2481 1984 
L 2481 2350 
z
M 1938 13 
Q 2534 406 2938 1069 
L 3322 891 
Q 2903 150 2272 -306 
L 1938 13 
z
M 5722 -191 
Q 5166 459 4666 838 
L 4978 1088 
Q 5572 681 6094 134 
L 5722 -191 
z
" transform="scale(0.015625)"/>
      <path id="IPAexGothic-6e96" d="M 4341 4141 
L 4341 3694 
L 5506 3694 
L 5506 3353 
L 4341 3353 
L 4341 2906 
L 5506 2906 
L 5506 2566 
L 4341 2566 
L 4341 2088 
L 5922 2088 
L 5922 1722 
L 3413 1722 
L 3413 1100 
L 6081 1100 
L 6081 703 
L 3413 703 
L 3413 -450 
L 2938 -450 
L 2938 703 
L 319 703 
L 319 1100 
L 2938 1100 
L 2938 1722 
L 2450 1722 
L 2450 3644 
Q 2288 3441 2047 3188 
L 1759 3528 
Q 2531 4259 2841 5288 
L 3297 5166 
Q 3156 4800 3003 4500 
L 3969 4500 
Q 4163 4869 4284 5269 
L 4756 5159 
Q 4572 4759 4409 4500 
L 5794 4500 
L 5794 4141 
L 4341 4141 
z
M 3931 4141 
L 2878 4141 
L 2878 3694 
L 3931 3694 
L 3931 4141 
z
M 2878 2088 
L 3931 2088 
L 3931 2566 
L 2878 2566 
L 2878 2088 
z
M 2878 2906 
L 3931 2906 
L 3931 3353 
L 2878 3353 
L 2878 2906 
z
M 497 1778 
Q 1053 2316 1625 3178 
L 1913 2897 
Q 1484 2128 875 1431 
L 497 1778 
z
M 1559 4134 
Q 1109 4519 678 4769 
L 941 5131 
Q 1494 4831 1834 4519 
L 1559 4134 
z
M 1297 3141 
Q 997 3388 397 3763 
L 631 4122 
Q 1153 3847 1547 3538 
L 1297 3141 
z
" transform="scale(0.015625)"/>
      <path id="IPAexGothic-504f" d="M 1503 3653 
L 1503 -447 
L 1063 -447 
L 1063 2700 
Q 816 2247 538 1863 
L 288 2253 
Q 1175 3556 1528 5325 
L 1963 5222 
Q 1800 4438 1503 3653 
z
M 5681 4116 
L 5681 2859 
L 2616 2859 
L 2616 2769 
Q 2616 2603 2609 2406 
L 5863 2406 
L 5863 13 
Q 5863 -213 5772 -300 
Q 5688 -384 5466 -384 
Q 5281 -384 5138 -359 
L 5081 72 
Q 5216 31 5338 31 
Q 5447 31 5447 191 
L 5447 916 
L 4856 916 
L 4856 -281 
L 4459 -281 
L 4459 916 
L 3922 916 
L 3922 -281 
L 3525 -281 
L 3525 916 
L 2988 916 
L 2988 -447 
L 2578 -447 
L 2578 1997 
L 2566 1997 
Q 2441 594 1881 -347 
L 1591 31 
Q 1981 672 2097 1466 
Q 2188 2072 2188 2950 
L 2188 4116 
L 5681 4116 
z
M 5253 3763 
L 2616 3763 
L 2616 3213 
L 5253 3213 
L 5253 3763 
z
M 2988 2053 
L 2988 1253 
L 3525 1253 
L 3525 2053 
L 2988 2053 
z
M 5447 1253 
L 5447 2053 
L 4856 2053 
L 4856 1253 
L 5447 1253 
z
M 3922 2053 
L 3922 1253 
L 4459 1253 
L 4459 2053 
L 3922 2053 
z
M 1997 4966 
L 5978 4966 
L 5978 4594 
L 1997 4594 
L 1997 4966 
z
" transform="scale(0.015625)"/>
      <path id="IPAexGothic-5dee" d="M 2188 4481 
Q 2013 4781 1766 5084 
L 2194 5275 
Q 2459 4913 2669 4481 
L 3659 4481 
Q 3931 4881 4100 5294 
L 4575 5122 
Q 4353 4766 4150 4481 
L 5725 4481 
L 5725 4103 
L 3403 4103 
L 3403 3519 
L 5431 3519 
L 5431 3147 
L 3403 3147 
L 3403 2534 
L 5975 2534 
L 5975 2138 
L 2341 2138 
Q 2225 1813 2041 1466 
L 5431 1466 
L 5431 1081 
L 3813 1081 
L 3813 103 
L 5913 103 
L 5913 -294 
L 1338 -294 
L 1338 103 
L 3344 103 
L 3344 1081 
L 1803 1081 
Q 1331 400 588 -172 
L 281 200 
Q 1394 966 1875 2138 
L 416 2138 
L 416 2534 
L 2950 2534 
L 2950 3147 
L 959 3147 
L 959 3519 
L 2950 3519 
L 2950 4103 
L 666 4103 
L 666 4481 
L 2188 4481 
z
" transform="scale(0.015625)"/>
     </defs>
     <use xlink:href="#IPAexGothic-66dc"/>
     <use xlink:href="#IPAexGothic-65e5" transform="translate(100 0)"/>
     <use xlink:href="#IPAexGothic-5225" transform="translate(200 0)"/>
     <use xlink:href="#IPAexGothic-5e73" transform="translate(300 0)"/>
     <use xlink:href="#IPAexGothic-5747" transform="translate(400 0)"/>
     <use xlink:href="#IPAexGothic-3068" transform="translate(500 0)"/>
     <use xlink:href="#IPAexGothic-6a19" transform="translate(600 0)"/>
     <use xlink:href="#IPAexGothic-6e96" transform="translate(700 0)"/>
     <use xlink:href="#IPAexGothic-504f" transform="translate(800 0)"/>
     <use xlink:href="#IPAexGothic-5dee" transform="translate(900 0)"/>
    </g>
   </g>
  </g>
 </g>
 <defs>
  <clipPath id="p85e287b409">
   <rect x="48.8" y="30.48" width="444.4" height="211.96"/>
  </clipPath>
 </defs>
</svg>
