<svg xmlns="http://www.w3.org/2000/svg" version="1.1" viewBox="0 0 1 1"><path fill="#2d1e2f" d="M0.864746,0.316384 L0.848647,0.323327 L0.842581,0.317391 L0.847069,0.329467 L0.830407,0.336017 L0.824549,0.35454 L0.83236,0.355973 L0.825297,0.362522 L0.828288,0.373984 L0.789065,0.440914 L0.786406,0.470592 L0.797915,0.472639 L0.795422,0.490548 L0.78811,0.498838 L0.827873,0.506922 L0.837221,0.521352 L0.886333,0.542229 L0.889574,0.552156 L0.894144,0.542946 L0.899379,0.557989 L0.909434,0.555943 L0.905778,0.565051 L0.912177,0.566791 L0.910099,0.575796 L0.922024,0.564232 L0.927592,0.581937 L0.920985,0.589203 L0.922315,0.598004 L0.913922,0.591557 L0.903368,0.603735 L0.887662,0.602404 L0.892067,0.608135 L0.905279,0.603633 L0.906526,0.612536 L0.920445,0.603018 L0.909975,0.616015 L0.917276,0.640018 L0.899959,0.653275 L0.871155,0.647564 L0.866007,0.643424 L0.872495,0.639966 L0.884578,0.640542 L0.886982,0.646359 L0.893279,0.642953 L0.893705,0.648192 L0.903453,0.645146 L0.902474,0.63891 L0.895028,0.643207 L0.89322,0.637286 L0.906537,0.636343 L0.892433,0.630422 L0.900006,0.624763 L0.887987,0.628955 L0.891348,0.624658 L0.885051,0.624606 L0.885349,0.618999 L0.8822,0.627959 L0.887008,0.631784 L0.880903,0.636029 L0.874308,0.632518 L0.873925,0.624606 L0.869202,0.625287 L0.870075,0.633828 L0.85529,0.629479 L0.844057,0.638124 L0.84627,0.622196 L0.858268,0.616275 L0.846716,0.610406 L0.842377,0.621148 L0.844972,0.611978 L0.835527,0.612292 L0.838803,0.620571 L0.8264,0.626545 L0.83976,0.626073 L0.814955,0.649023 L0.803149,0.641949 L0.81136,0.639592 L0.81119,0.632989 L0.796006,0.638871 L0.799011,0.645159 L0.794756,0.652494 L0.793161,0.640836 L0.78864,0.648303 L0.789651,0.642801 L0.779067,0.640639 L0.785688,0.656162 L0.776913,0.649089 L0.780423,0.655573 L0.773882,0.656817 L0.782444,0.659961 L0.77803,0.663367 L0.766409,0.659765 L0.76992,0.652887 L0.766303,0.649678 L0.758166,0.653542 L0.763431,0.655376 L0.764282,0.664742 L0.74479,0.672798 L0.741121,0.666118 L0.731893,0.678366 L0.726947,0.676008 L0.72966,0.67031 L0.717481,0.67568 L0.722427,0.675353 L0.721762,0.681837 L0.701792,0.690745 L0.703733,0.70856 L0.714369,0.70987 L0.708838,0.721987 L0.70602,0.717598 L0.698787,0.724148 L0.69987,0.715486 L0.692757,0.720398 L0.698674,0.704761 L0.68478,0.714585 L0.687738,0.72179 L0.674708,0.726948 L0.692491,0.732433 L0.690231,0.742094 L0.70346,0.749544 L0.693954,0.75462 L0.70017,0.757486 L0.695317,0.760843 L0.699704,0.77034 L0.687904,0.772304 L0.692491,0.765591 L0.678398,0.759451 L0.679794,0.766328 L0.671949,0.772059 L0.681788,0.770012 L0.685112,0.782047 L0.678132,0.789006 L0.667794,0.785895 L0.673844,0.788842 L0.668259,0.796211 L0.656193,0.789088 L0.656393,0.803088 L0.637878,0.809965 L0.606641,0.874387 L0.606641,0.874387 L0.597314,0.871177 L0.593349,0.87606 L0.57297,0.857246 L0.567839,0.844608 L0.556382,0.836924 L0.55644,0.813793 L0.55644,0.813793 L0.560914,0.81914 L0.56464,0.79885 L0.57,0.800151 L0.611933,0.744135 L0.640403,0.746848 L0.636548,0.736675 L0.63776,0.722569 L0.645029,0.723383 L0.640844,0.70887 L0.644203,0.687983 L0.637099,0.676997 L0.651086,0.652311 L0.637815,0.629932 L0.648718,0.623557 L0.629004,0.590327 L0.637264,0.573644 L0.676031,0.567134 L0.683961,0.548959 L0.678785,0.533226 L0.663476,0.536888 L0.658795,0.520341 L0.644368,0.525359 L0.62124,0.510575 L0.630216,0.48711 L0.618982,0.477616 L0.629555,0.479108 L0.634401,0.470834 L0.631427,0.461205 L0.623938,0.459441 L0.628509,0.452388 L0.623502,0.444365 L0.623502,0.444365 L0.612853,0.421534 L0.612853,0.421534 L0.637055,0.411391 L0.635197,0.401988 L0.648457,0.390424 L0.633908,0.384578 L0.643091,0.374158 L0.649798,0.381655 L0.665998,0.380512 L0.691202,0.392157 L0.731057,0.373364 L0.736603,0.353984 L0.749373,0.339847 L0.750082,0.311731 L0.758337,0.302677 L0.757473,0.274657 L0.762426,0.263855 L0.747361,0.251783 L0.747811,0.238562 L0.747811,0.238562 L0.779606,0.231904 L0.78748,0.223552 L0.81871,0.268955 L0.827285,0.269868 L0.828132,0.262176 L0.837122,0.274086 L0.837122,0.274086 L0.86393,0.297727 L0.864746,0.316384 Z"/><path fill="#f7b32b" d="M0.612853,0.421534 L0.608266,0.417999 L0.613838,0.408341 L0.605944,0.405292 L0.605738,0.399065 L0.587009,0.394744 L0.58443,0.378224 L0.56823,0.386611 L0.556879,0.374666 L0.56209,0.35408 L0.546818,0.334764 L0.541401,0.313034 L0.547799,0.307697 L0.555022,0.266651 L0.546303,0.238567 L0.556879,0.211373 L0.546251,0.213279 L0.52449,0.18144 L0.52449,0.18144 L0.538306,0.167532 L0.540679,0.15584 L0.552648,0.156222 L0.557292,0.163846 L0.567146,0.159526 L0.584481,0.110601 L0.599547,0.12458 L0.606924,0.122546 L0.614663,0.105645 L0.629625,0.107551 L0.633959,0.101833 L0.641389,0.106281 L0.643968,0.0845506 L0.664296,0.090142 L0.664038,0.0727325 L0.652171,0.0468089 L0.658053,0.0343554 L0.671158,0.0332117 L0.702268,0.0498587 L0.702268,0.0498587 L0.703816,0.0651079 L0.716198,0.0687931 L0.715012,0.0981478 L0.725021,0.103358 L0.733688,0.0942084 L0.744213,0.108695 L0.738796,0.122801 L0.750663,0.134365 L0.74896,0.155078 L0.759072,0.16588 L0.748031,0.175283 L0.75154,0.185322 L0.741221,0.208323 L0.741943,0.223953 L0.736578,0.227893 L0.747811,0.238562 L0.747811,0.238562 L0.747361,0.251783 L0.762426,0.263855 L0.757473,0.274657 L0.758337,0.302677 L0.750082,0.311731 L0.749373,0.339847 L0.736603,0.353984 L0.731057,0.373364 L0.691202,0.392157 L0.665998,0.380512 L0.649798,0.381655 L0.643091,0.374158 L0.633908,0.384578 L0.648457,0.390424 L0.635197,0.401988 L0.637055,0.411391 L0.612853,0.421534 Z"/><path fill="#a9e5bb" d="M0.612853,0.421534 L0.623502,0.444365 L0.623502,0.444365 L0.611988,0.457 L0.600865,0.453609 L0.59646,0.443165 L0.580215,0.443708 L0.579444,0.436519 L0.566778,0.454423 L0.542549,0.454965 L0.520687,0.447777 L0.511656,0.425793 L0.511656,0.425793 L0.514704,0.413691 L0.498573,0.396478 L0.491503,0.37416 L0.477648,0.360449 L0.46814,0.363752 L0.470984,0.345838 L0.45851,0.343336 L0.452172,0.358248 L0.458673,0.358848 L0.459567,0.365353 L0.445914,0.367855 L0.426777,0.355346 L0.427549,0.336631 L0.391143,0.327724 L0.386786,0.312734 L0.386786,0.312734 L0.397828,0.296889 L0.393521,0.27716 L0.377944,0.274363 L0.37576,0.26855 L0.356702,0.270766 L0.359947,0.263209 L0.35446,0.257395 L0.328852,0.26201 L0.32419,0.257141 L0.328262,0.246932 L0.313275,0.236032 L0.313098,0.220954 L0.296517,0.219537 L0.282356,0.230618 L0.277695,0.220808 L0.231848,0.198355 L0.235035,0.158752 L0.256748,0.167581 L0.275748,0.157008 L0.273447,0.111592 L0.268785,0.102799 L0.232497,0.112754 L0.22878,0.100728 L0.207834,0.0811085 L0.21425,0.0664937 L0.211736,0.0513997 L0.211736,0.0513997 L0.236767,0.0553331 L0.254593,0.0368888 L0.26786,0.0378243 L0.280124,0.0301392 L0.288996,0.0165064 L0.331241,0.00634861 L0.33607,0 L0.354384,0.0161054 L0.357857,0.0318099 L0.365644,0.0369556 L0.363528,0.0501874 L0.354194,0.0463783 L0.346136,0.0557341 L0.343477,0.0680972 L0.323888,0.0918878 L0.324919,0.101979 L0.347086,0.0769184 L0.345458,0.0888137 L0.353706,0.0938258 L0.342853,0.0932911 L0.34109,0.100709 L0.358969,0.112738 L0.370528,0.10826 L0.374326,0.117282 L0.369198,0.140137 L0.378749,0.122027 L0.389683,0.12343 L0.390985,0.130113 L0.397931,0.121091 L0.395706,0.112203 L0.390768,0.118552 L0.377528,0.117817 L0.376198,0.0974344 L0.379346,0.101177 L0.406342,0.0904844 L0.418361,0.0750472 L0.415105,0.0894151 L0.425735,0.0951674 L0.425735,0.0951674 L0.414427,0.107325 L0.423462,0.122628 L0.417466,0.133454 L0.431113,0.151899 L0.440827,0.153904 L0.441885,0.170477 L0.502579,0.185847 L0.52449,0.18144 L0.52449,0.18144 L0.546251,0.213279 L0.556879,0.211373 L0.546303,0.238567 L0.555022,0.266651 L0.547799,0.307697 L0.541401,0.313034 L0.546818,0.334764 L0.56209,0.35408 L0.556879,0.374666 L0.56823,0.386611 L0.58443,0.378224 L0.587009,0.394744 L0.605738,0.399065 L0.605944,0.405292 L0.613838,0.408341 L0.608266,0.417999 L0.612853,0.421534 Z"/><path fill="#e3170a" d="M0.386786,0.312734 L0.391143,0.327724 L0.427549,0.336631 L0.426777,0.355346 L0.445914,0.367855 L0.459567,0.365353 L0.458673,0.358848 L0.452172,0.358248 L0.45851,0.343336 L0.470984,0.345838 L0.46814,0.363752 L0.477648,0.360449 L0.491503,0.37416 L0.498573,0.396478 L0.514704,0.413691 L0.511656,0.425793 L0.511656,0.425793 L0.503814,0.426101 L0.501173,0.45092 L0.491219,0.458125 L0.493656,0.469634 L0.484108,0.499658 L0.493453,0.506263 L0.48618,0.521575 L0.49321,0.536887 L0.495688,0.564208 L0.489553,0.57912 L0.492884,0.585524 L0.484219,0.595217 L0.484219,0.595217 L0.458023,0.598735 L0.435147,0.615148 L0.425802,0.60494 L0.391671,0.61845 L0.375419,0.615548 L0.362335,0.630059 L0.331008,0.627757 L0.321053,0.639867 L0.297325,0.642769 L0.290539,0.625956 L0.290539,0.625956 L0.335925,0.610544 L0.387262,0.559368 L0.387444,0.54374 L0.397482,0.541498 L0.395479,0.531699 L0.399068,0.541242 L0.407961,0.532019 L0.41272,0.521387 L0.400602,0.520042 L0.397976,0.503517 L0.404477,0.515686 L0.406713,0.507936 L0.414982,0.518056 L0.418753,0.507039 L0.409912,0.507872 L0.405387,0.501403 L0.423486,0.503325 L0.405127,0.495062 L0.42242,0.49186 L0.42502,0.484046 L0.415554,0.49186 L0.418935,0.479946 L0.406141,0.481355 L0.41584,0.471043 L0.40237,0.480843 L0.403254,0.472773 L0.412564,0.468161 L0.400862,0.470403 L0.430325,0.451893 L0.405465,0.465535 L0.398833,0.460916 L0.398833,0.460916 L0.418775,0.442003 L0.404732,0.405524 L0.412402,0.377185 L0.405499,0.370427 L0.420427,0.36396 L0.380422,0.348409 L0.381956,0.323884 L0.374049,0.316109 L0.386786,0.312734 Z"/><path fill="#fcf6b1" d="M0.0501184,0.229133 L0.0638858,0.234384 L0.0909099,0.21451 L0.0903199,0.181011 L0.0764538,0.171782 L0.078519,0.1506 L0.065715,0.143515 L0.0619387,0.116956 L0.0568053,0.112233 L0.0592835,0.0935213 L0.0506098,0.0775711 L0.0417591,0.0736472 L0.0417591,0.0736472 L0.0991233,0.0462087 L0.10677,0.0544053 L0.123244,0.052516 L0.127445,0.0596954 L0.14222,0.0475166 L0.141418,0.0548413 L0.152133,0.0484758 L0.15657,0.052952 L0.188244,0.0464702 L0.202471,0.0531613 L0.196769,0.0681595 L0.200092,0.0572771 L0.211736,0.0513997 L0.211736,0.0513997 L0.21425,0.0664937 L0.207834,0.0811085 L0.22878,0.100728 L0.232497,0.112754 L0.268785,0.102799 L0.273447,0.111592 L0.275748,0.157008 L0.256748,0.167581 L0.235035,0.158752 L0.231848,0.198355 L0.277695,0.220808 L0.282356,0.230618 L0.296517,0.219537 L0.313098,0.220954 L0.313275,0.236032 L0.328262,0.246932 L0.32419,0.257141 L0.328852,0.26201 L0.35446,0.257395 L0.359947,0.263209 L0.356702,0.270766 L0.37576,0.26855 L0.377944,0.274363 L0.393521,0.27716 L0.397828,0.296889 L0.386786,0.312734 L0.386786,0.312734 L0.374049,0.316109 L0.381956,0.323884 L0.380422,0.348409 L0.420427,0.36396 L0.405499,0.370427 L0.412402,0.377185 L0.404732,0.405524 L0.418775,0.442003 L0.398833,0.460916 L0.398833,0.460916 L0.388116,0.468714 L0.390807,0.458483 L0.385237,0.465226 L0.378987,0.451333 L0.362787,0.4521 L0.358897,0.459076 L0.332614,0.465029 L0.329971,0.46947 L0.335937,0.468214 L0.33892,0.474725 L0.331179,0.478678 L0.324759,0.467982 L0.322607,0.481771 L0.275214,0.492584 L0.247799,0.484515 L0.216644,0.461308 L0.216418,0.46661 L0.209922,0.464075 L0.211773,0.457704 L0.203314,0.462215 L0.208752,0.455704 L0.193722,0.45396 L0.193344,0.439195 L0.190663,0.446729 L0.179146,0.439799 L0.183564,0.433102 L0.176804,0.440102 L0.177408,0.435079 L0.153243,0.425309 L0.152992,0.430592 L0.146334,0.429563 L0.148702,0.424657 L0.138339,0.428723 L0.139537,0.422822 L0.135303,0.432102 L0.131096,0.431862 L0.134467,0.424794 L0.126834,0.425017 L0.127531,0.430438 L0.11324,0.428534 L0.109702,0.435893 L0.109535,0.428963 L0.107251,0.434212 L0.0946312,0.42524 L0.0759391,0.436613 L0.0718441,0.416046 L0.0724848,0.432891 L0.0682505,0.437437 L0.0691419,0.431296 L0.0611748,0.432599 L0.0622612,0.440198 L0.0547398,0.448449 L0.0476084,0.443234 L0.0431512,0.447883 L0.0362148,0.436768 L0.0370505,0.442668 L0.0221872,0.448198 L0.0221872,0.448198 L0.0267693,0.430442 L0.0215733,0.416834 L0.00322284,0.404968 L0,0.395693 L0.00342016,0.381802 L0.0134833,0.372163 L0,0.357542 L0.00980006,0.333525 L0.00282821,0.325871 L0.0211787,0.313275 L0.0220337,0.29744 L0.0322942,0.293633 L0.0387398,0.270467 L0.0528151,0.269171 L0.0542621,0.253376 L0.0447909,0.249204 L0.0431466,0.241347 L0.0501184,0.229133 Z"/><path fill="#e3170a" d="M0.511656,0.425793 L0.520687,0.447777 L0.542549,0.454965 L0.566778,0.454423 L0.579444,0.436519 L0.580215,0.443708 L0.59646,0.443165 L0.600865,0.453609 L0.611988,0.457 L0.623502,0.444365 L0.623502,0.444365 L0.628509,0.452388 L0.623938,0.459441 L0.631427,0.461205 L0.634401,0.470834 L0.629555,0.479108 L0.618982,0.477616 L0.630216,0.48711 L0.62124,0.510575 L0.644368,0.525359 L0.658795,0.520341 L0.663476,0.536888 L0.678785,0.533226 L0.683961,0.548959 L0.676031,0.567134 L0.637264,0.573644 L0.629004,0.590327 L0.648718,0.623557 L0.637815,0.629932 L0.651086,0.652311 L0.637099,0.676997 L0.644203,0.687983 L0.640844,0.70887 L0.645029,0.723383 L0.63776,0.722569 L0.636548,0.736675 L0.640403,0.746848 L0.611933,0.744135 L0.57,0.800151 L0.56464,0.79885 L0.560914,0.81914 L0.55644,0.813793 L0.55644,0.813793 L0.552929,0.805238 L0.540333,0.799134 L0.519269,0.807103 L0.487675,0.801508 L0.483545,0.811002 L0.473633,0.813545 L0.474183,0.805068 L0.46551,0.800491 L0.471843,0.781163 L0.478589,0.778281 L0.478589,0.764378 L0.474527,0.755223 L0.464065,0.753189 L0.460898,0.736404 L0.446856,0.726231 L0.463858,0.696053 L0.474459,0.691815 L0.48,0.669096 L0.490153,0.663162 L0.504608,0.669096 L0.510975,0.660831 L0.503403,0.642817 L0.491529,0.64091 L0.484219,0.595217 L0.484219,0.595217 L0.492884,0.585524 L0.489553,0.57912 L0.495688,0.564208 L0.49321,0.536887 L0.48618,0.521575 L0.493453,0.506263 L0.484108,0.499658 L0.493656,0.469634 L0.491219,0.458125 L0.501173,0.45092 L0.503814,0.426101 L0.511656,0.425793 Z"/><path fill="#e3170a" d="M0.55644,0.813793 L0.556382,0.836924 L0.567839,0.844608 L0.57297,0.857246 L0.593349,0.87606 L0.597314,0.871177 L0.606641,0.874387 L0.606641,0.874387 L0.595856,0.89832 L0.600929,0.905357 L0.583057,0.911533 L0.589556,0.920266 L0.586784,0.917071 L0.580055,0.925679 L0.581396,0.931208 L0.587401,0.927977 L0.591891,0.93724 L0.579734,0.938892 L0.567431,0.948083 L0.579384,0.946719 L0.56367,0.960075 L0.535915,0.973072 L0.530609,0.983987 L0.531892,0.998707 L0.519648,1 L0.518831,0.993753 L0.527636,0.988798 L0.521834,0.979678 L0.503963,0.981904 L0.501397,0.975657 L0.476879,0.969841 L0.463147,0.973575 L0.456442,0.966107 L0.436879,0.963091 L0.427929,0.951961 L0.413469,0.95153 L0.417784,0.939969 L0.412244,0.946216 L0.399183,0.94004 L0.39207,0.929341 L0.393498,0.911461 L0.372362,0.900762 L0.37691,0.895807 L0.373644,0.890349 L0.388047,0.894514 L0.395532,0.878268 L0.379971,0.875844 L0.380627,0.869202 L0.371589,0.869561 L0.36758,0.85888 L0.339884,0.852866 L0.339738,0.845506 L0.323194,0.836799 L0.303879,0.80655 L0.277932,0.809243 L0.278005,0.800267 L0.286095,0.798651 L0.281649,0.788777 L0.297939,0.777647 L0.284528,0.778006 L0.287371,0.773159 L0.28154,0.76903 L0.310074,0.756284 L0.306138,0.751168 L0.318274,0.745244 L0.305628,0.731421 L0.285876,0.727112 L0.300016,0.723702 L0.29178,0.722265 L0.298777,0.707724 L0.30858,0.711763 L0.302895,0.700544 L0.331174,0.695337 L0.323011,0.695966 L0.320825,0.67954 L0.320898,0.686541 L0.316415,0.679091 L0.307378,0.678911 L0.311022,0.664281 L0.298012,0.662755 L0.304717,0.661049 L0.29998,0.654587 L0.280738,0.646867 L0.282925,0.632147 L0.290539,0.625956 L0.290539,0.625956 L0.297325,0.642769 L0.321053,0.639867 L0.331008,0.627757 L0.362335,0.630059 L0.375419,0.615548 L0.391671,0.61845 L0.425802,0.60494 L0.435147,0.615148 L0.458023,0.598735 L0.484219,0.595217 L0.484219,0.595217 L0.491529,0.64091 L0.503403,0.642817 L0.510975,0.660831 L0.504608,0.669096 L0.490153,0.663162 L0.48,0.669096 L0.474459,0.691815 L0.463858,0.696053 L0.446856,0.726231 L0.460898,0.736404 L0.464065,0.753189 L0.474527,0.755223 L0.478589,0.764378 L0.478589,0.778281 L0.471843,0.781163 L0.46551,0.800491 L0.474183,0.805068 L0.473633,0.813545 L0.483545,0.811002 L0.487675,0.801508 L0.519269,0.807103 L0.540333,0.799134 L0.552929,0.805238 L0.55644,0.813793 Z"/></svg>