<?xml version="1.0" encoding="utf-8" standalone="no"?>
<!DOCTYPE svg PUBLIC "-//W3C//DTD SVG 1.1//EN"
  "http://www.w3.org/Graphics/SVG/1.1/DTD/svg11.dtd">
<svg xmlns:xlink="http://www.w3.org/1999/xlink" width="498.546117pt" height="292.325938pt" viewBox="0 0 498.546117 292.325938" xmlns="http://www.w3.org/2000/svg" version="1.1">
 <metadata>
  <rdf:RDF xmlns:dc="http://purl.org/dc/elements/1.1/" xmlns:cc="http://creativecommons.org/ns#" xmlns:rdf="http://www.w3.org/1999/02/22-rdf-syntax-ns#">
   <cc:Work>
    <dc:type rdf:resource="http://purl.org/dc/dcmitype/StillImage"/>
    <dc:date>2025-10-29T22:59:17.949971</dc:date>
    <dc:format>image/svg+xml</dc:format>
    <dc:creator>
     <cc:Agent>
      <dc:title>Matplotlib v3.10.7, https://matplotlib.org/</dc:title>
     </cc:Agent>
    </dc:creator>
   </cc:Work>
  </rdf:RDF>
 </metadata>
 <defs>
  <style type="text/css">*{stroke-linejoin: round; stroke-linecap: butt}</style>
 </defs>
 <g id="figure_1">
  <g id="patch_1">
   <path d="M 0 292.325938 
L 498.546117 292.325938 
L 498.546117 0 
L 0 0 
z
" style="fill: #ffffff"/>
  </g>
  <g id="axes_1">
   <g id="patch_2">
    <path d="M 44.319375 247.9038 
L 490.719375 247.9038 
L 490.719375 26.1438 
L 44.319375 26.1438 
z
" style="fill: #ffffff"/>
   </g>
   <g id="matplotlib.axis_1">
    <g id="xtick_1">
     <g id="text_1">
      <!-- 45 -->
      <g transform="translate(48.060785 266.267006) rotate(-45) scale(0.08 -0.08)">
       <defs>
        <path id="IPAexGothic-34" d="M 3813 1159 
L 3059 1159 
L 3059 63 
L 2547 63 
L 2547 1159 
L 197 1159 
L 197 1672 
L 2456 4678 
L 3059 4678 
L 3059 1634 
L 3813 1634 
L 3813 1159 
z
M 2578 4109 
L 2559 4109 
Q 2278 3656 2003 3284 
L 759 1634 
L 2547 1634 
L 2547 3144 
Q 2547 3481 2578 4109 
z
" transform="scale(0.015625)"/>
        <path id="IPAexGothic-35" d="M 1178 2603 
Q 1634 2963 2172 2963 
Q 2816 2963 3241 2528 
Q 3638 2113 3638 1497 
Q 3638 938 3297 513 
Q 2869 -31 2031 -31 
Q 959 -31 469 784 
L 938 1028 
Q 1309 434 2013 434 
Q 2466 434 2769 716 
Q 3081 1013 3081 1503 
Q 3081 1966 2806 2241 
Q 2519 2528 2056 2528 
Q 1406 2528 1072 2028 
L 591 2091 
L 884 4634 
L 3406 4634 
L 3406 4153 
L 1341 4153 
L 1134 2603 
L 1178 2603 
z
" transform="scale(0.015625)"/>
       </defs>
       <use xlink:href="#IPAexGothic-34"/>
       <use xlink:href="#IPAexGothic-35" transform="translate(62.988281 0)"/>
      </g>
     </g>
    </g>
    <g id="xtick_2">
     <g id="text_2">
      <!-- 36 -->
      <g transform="translate(59.506939 266.267006) rotate(-45) scale(0.08 -0.08)">
       <defs>
        <path id="IPAexGothic-33" d="M 2381 2419 
Q 3506 2216 3506 1278 
Q 3506 716 3128 356 
Q 2709 -31 1944 -31 
Q 797 -31 288 881 
L 756 1131 
Q 1109 441 1938 441 
Q 2425 441 2694 691 
Q 2950 928 2950 1291 
Q 2950 1719 2566 1978 
Q 2216 2213 1644 2213 
L 1363 2213 
L 1363 2669 
L 1656 2669 
Q 2231 2669 2534 2888 
Q 2859 3119 2859 3509 
Q 2859 3934 2494 4138 
Q 2259 4278 1931 4278 
Q 1238 4278 903 3578 
L 434 3803 
Q 897 4725 1938 4725 
Q 2597 4725 3006 4394 
Q 3416 4069 3416 3534 
Q 3416 3028 3019 2706 
Q 2763 2500 2381 2444 
L 2381 2419 
z
" transform="scale(0.015625)"/>
        <path id="IPAexGothic-36" d="M 1056 2328 
Q 1509 2981 2234 2981 
Q 2906 2981 3316 2513 
Q 3675 2106 3675 1522 
Q 3675 884 3272 434 
Q 2853 -31 2178 -31 
Q 1375 -31 922 581 
Q 481 1178 481 2228 
Q 481 3425 1013 4109 
Q 1494 4725 2272 4725 
Q 3191 4725 3609 4025 
L 3150 3775 
Q 2894 4266 2300 4266 
Q 1119 4266 1031 2328 
L 1056 2328 
z
M 2141 2547 
Q 1684 2547 1384 2206 
Q 1116 1900 1116 1541 
Q 1116 1156 1353 844 
Q 1672 428 2159 428 
Q 2669 428 2941 844 
Q 3125 1128 3125 1503 
Q 3125 1944 2881 2228 
Q 2600 2547 2141 2547 
z
" transform="scale(0.015625)"/>
       </defs>
       <use xlink:href="#IPAexGothic-33"/>
       <use xlink:href="#IPAexGothic-36" transform="translate(62.988281 0)"/>
      </g>
     </g>
    </g>
    <g id="xtick_3">
     <g id="text_3">
      <!-- 21 -->
      <g transform="translate(70.953093 266.267006) rotate(-45) scale(0.08 -0.08)">
       <defs>
        <path id="IPAexGothic-32" d="M 3659 63 
L 447 63 
L 447 594 
Q 825 1475 1894 2203 
L 2072 2322 
Q 2619 2697 2791 2906 
Q 2988 3153 2988 3444 
Q 2988 3772 2756 4003 
Q 2500 4259 2084 4259 
Q 1250 4259 991 3328 
L 497 3506 
Q 853 4725 2116 4725 
Q 2806 4725 3216 4316 
Q 3575 3947 3575 3425 
Q 3575 3038 3344 2722 
Q 3131 2416 2366 1938 
L 2231 1856 
Q 1256 1253 978 569 
L 3659 569 
L 3659 63 
z
" transform="scale(0.015625)"/>
        <path id="IPAexGothic-31" d="M 2463 63 
L 1900 63 
L 1900 4103 
Q 1372 3922 788 3797 
L 684 4231 
Q 1519 4441 2106 4731 
L 2463 4731 
L 2463 63 
z
" transform="scale(0.015625)"/>
       </defs>
       <use xlink:href="#IPAexGothic-32"/>
       <use xlink:href="#IPAexGothic-31" transform="translate(62.988281 0)"/>
      </g>
     </g>
    </g>
    <g id="xtick_4">
     <g id="text_4">
      <!-- (2) -->
      <g transform="translate(82.325884 266.528635) rotate(-45) scale(0.08 -0.08)">
       <defs>
        <path id="IPAexGothic-28" d="M 1928 -1016 
L 1653 -1166 
Q 488 69 488 1875 
Q 488 3678 1653 4909 
L 1928 4763 
Q 1006 3522 1006 1881 
Q 1006 203 1928 -1016 
z
" transform="scale(0.015625)"/>
        <path id="IPAexGothic-29" d="M 466 4909 
Q 1638 3672 1638 1875 
Q 1638 75 466 -1166 
L 191 -1016 
Q 1119 216 1119 1881 
Q 1119 3509 191 4763 
L 466 4909 
z
" transform="scale(0.015625)"/>
       </defs>
       <use xlink:href="#IPAexGothic-28"/>
       <use xlink:href="#IPAexGothic-32" transform="translate(33.300781 0)"/>
       <use xlink:href="#IPAexGothic-29" transform="translate(96.289062 0)"/>
      </g>
     </g>
    </g>
    <g id="xtick_5">
     <g id="text_5">
      <!-- 17 -->
      <g transform="translate(93.845401 266.267006) rotate(-45) scale(0.08 -0.08)">
       <defs>
        <path id="IPAexGothic-37" d="M 3597 4263 
Q 2238 2106 1778 63 
L 1131 63 
Q 1581 1834 2950 4128 
L 428 4128 
L 428 4634 
L 3597 4634 
L 3597 4263 
z
" transform="scale(0.015625)"/>
       </defs>
       <use xlink:href="#IPAexGothic-31"/>
       <use xlink:href="#IPAexGothic-37" transform="translate(62.988281 0)"/>
      </g>
     </g>
    </g>
    <g id="xtick_6">
     <g id="text_6">
      <!-- 28 -->
      <g transform="translate(105.291554 266.267006) rotate(-45) scale(0.08 -0.08)">
       <defs>
        <path id="IPAexGothic-38" d="M 2541 2425 
Q 3700 2031 3700 1197 
Q 3700 541 3100 197 
Q 2663 -56 2016 -56 
Q 1366 -56 928 197 
Q 347 531 347 1178 
Q 347 1988 1409 2381 
L 1409 2400 
Q 481 2734 481 3509 
Q 481 4100 981 4456 
Q 1406 4756 2019 4756 
Q 2703 4756 3131 4403 
Q 3553 4069 3553 3566 
Q 3553 2706 2541 2444 
L 2541 2425 
z
M 2022 2625 
Q 2997 2856 2997 3528 
Q 2997 3916 2675 4150 
Q 2413 4347 2016 4347 
Q 1606 4347 1331 4128 
Q 1050 3897 1050 3522 
Q 1050 3150 1350 2925 
Q 1494 2809 1722 2722 
Q 1984 2616 2022 2625 
z
M 1978 2209 
Q 922 1931 922 1216 
Q 922 775 1313 556 
Q 1606 391 2009 391 
Q 2575 391 2881 697 
Q 3106 922 3106 1250 
Q 3106 1594 2794 1850 
Q 2609 1994 2350 2100 
Q 2047 2222 1978 2209 
z
" transform="scale(0.015625)"/>
       </defs>
       <use xlink:href="#IPAexGothic-32"/>
       <use xlink:href="#IPAexGothic-38" transform="translate(62.988281 0)"/>
      </g>
     </g>
    </g>
    <g id="xtick_7">
     <g id="text_7">
      <!-- 23 -->
      <g transform="translate(116.737708 266.267006) rotate(-45) scale(0.08 -0.08)">
       <use xlink:href="#IPAexGothic-32"/>
       <use xlink:href="#IPAexGothic-33" transform="translate(62.988281 0)"/>
      </g>
     </g>
    </g>
    <g id="xtick_8">
     <g id="text_8">
      <!-- 47 -->
      <g transform="translate(128.183862 266.267006) rotate(-45) scale(0.08 -0.08)">
       <use xlink:href="#IPAexGothic-34"/>
       <use xlink:href="#IPAexGothic-37" transform="translate(62.988281 0)"/>
      </g>
     </g>
    </g>
    <g id="xtick_9">
     <g id="text_9">
      <!-- 3 -->
      <g transform="translate(141.411483 262.704072) rotate(-45) scale(0.08 -0.08)">
       <use xlink:href="#IPAexGothic-33"/>
      </g>
     </g>
    </g>
    <g id="xtick_10">
     <g id="text_10">
      <!-- 40 -->
      <g transform="translate(151.07617 266.267006) rotate(-45) scale(0.08 -0.08)">
       <defs>
        <path id="IPAexGothic-30" d="M 2038 4725 
Q 2881 4725 3334 3944 
Q 3694 3325 3694 2344 
Q 3694 1372 3334 741 
Q 2888 -31 2016 -31 
Q 1147 -31 700 741 
Q 341 1372 341 2350 
Q 341 3713 1000 4334 
Q 1419 4725 2038 4725 
z
M 2016 4266 
Q 1516 4266 1228 3759 
Q 934 3247 934 2344 
Q 934 1456 1222 947 
Q 1513 447 2016 447 
Q 2619 447 2909 1153 
Q 3100 1622 3100 2375 
Q 3100 3256 2806 3759 
Q 2509 4266 2016 4266 
z
" transform="scale(0.015625)"/>
       </defs>
       <use xlink:href="#IPAexGothic-34"/>
       <use xlink:href="#IPAexGothic-30" transform="translate(62.988281 0)"/>
      </g>
     </g>
    </g>
    <g id="xtick_11">
     <g id="text_11">
      <!-- 42 -->
      <g transform="translate(162.522324 266.267006) rotate(-45) scale(0.08 -0.08)">
       <use xlink:href="#IPAexGothic-34"/>
       <use xlink:href="#IPAexGothic-32" transform="translate(62.988281 0)"/>
      </g>
     </g>
    </g>
    <g id="xtick_12">
     <g id="text_12">
      <!-- 39 -->
      <g transform="translate(173.968477 266.267006) rotate(-45) scale(0.08 -0.08)">
       <defs>
        <path id="IPAexGothic-39" d="M 2984 2356 
Q 2544 1716 1813 1716 
Q 1253 1716 847 2056 
Q 366 2459 366 3163 
Q 366 3813 769 4266 
Q 1181 4725 1869 4725 
Q 2800 4725 3241 3950 
Q 3559 3378 3559 2472 
Q 3559 1250 3041 588 
Q 2553 -31 1769 -31 
Q 859 -31 391 703 
L 853 953 
Q 1156 428 1753 428 
Q 2922 428 3009 2356 
L 2984 2356 
z
M 1888 4278 
Q 1450 4278 1172 3950 
Q 922 3653 922 3200 
Q 922 2741 1159 2478 
Q 1434 2163 1906 2163 
Q 2431 2163 2728 2572 
Q 2925 2847 2925 3169 
Q 2925 3553 2694 3863 
Q 2375 4278 1888 4278 
z
" transform="scale(0.015625)"/>
       </defs>
       <use xlink:href="#IPAexGothic-33"/>
       <use xlink:href="#IPAexGothic-39" transform="translate(62.988281 0)"/>
      </g>
     </g>
    </g>
    <g id="xtick_13">
     <g id="text_13">
      <!-- 16 -->
      <g transform="translate(185.414631 266.267006) rotate(-45) scale(0.08 -0.08)">
       <use xlink:href="#IPAexGothic-31"/>
       <use xlink:href="#IPAexGothic-36" transform="translate(62.988281 0)"/>
      </g>
     </g>
    </g>
    <g id="xtick_14">
     <g id="text_14">
      <!-- (2) -->
      <g transform="translate(196.787423 266.528635) rotate(-45) scale(0.08 -0.08)">
       <use xlink:href="#IPAexGothic-28"/>
       <use xlink:href="#IPAexGothic-32" transform="translate(33.300781 0)"/>
       <use xlink:href="#IPAexGothic-29" transform="translate(96.289062 0)"/>
      </g>
     </g>
    </g>
    <g id="xtick_15">
     <g id="text_15">
      <!-- 48 -->
      <g transform="translate(208.306939 266.267006) rotate(-45) scale(0.08 -0.08)">
       <use xlink:href="#IPAexGothic-34"/>
       <use xlink:href="#IPAexGothic-38" transform="translate(62.988281 0)"/>
      </g>
     </g>
    </g>
    <g id="xtick_16">
     <g id="text_16">
      <!-- 18 -->
      <g transform="translate(219.753093 266.267006) rotate(-45) scale(0.08 -0.08)">
       <use xlink:href="#IPAexGothic-31"/>
       <use xlink:href="#IPAexGothic-38" transform="translate(62.988281 0)"/>
      </g>
     </g>
    </g>
    <g id="xtick_17">
     <g id="text_17">
      <!-- 29 -->
      <g transform="translate(231.199247 266.267006) rotate(-45) scale(0.08 -0.08)">
       <use xlink:href="#IPAexGothic-32"/>
       <use xlink:href="#IPAexGothic-39" transform="translate(62.988281 0)"/>
      </g>
     </g>
    </g>
    <g id="xtick_18">
     <g id="text_18">
      <!-- 8 -->
      <g transform="translate(244.426868 262.704072) rotate(-45) scale(0.08 -0.08)">
       <use xlink:href="#IPAexGothic-38"/>
      </g>
     </g>
    </g>
    <g id="xtick_19">
     <g id="text_19">
      <!-- 31 -->
      <g transform="translate(254.091554 266.267006) rotate(-45) scale(0.08 -0.08)">
       <use xlink:href="#IPAexGothic-33"/>
       <use xlink:href="#IPAexGothic-31" transform="translate(62.988281 0)"/>
      </g>
     </g>
    </g>
    <g id="xtick_20">
     <g id="text_20">
      <!-- 20 -->
      <g transform="translate(265.537708 266.267006) rotate(-45) scale(0.08 -0.08)">
       <use xlink:href="#IPAexGothic-32"/>
       <use xlink:href="#IPAexGothic-30" transform="translate(62.988281 0)"/>
      </g>
     </g>
    </g>
    <g id="xtick_21">
     <g id="text_21">
      <!-- (2) -->
      <g transform="translate(276.9105 266.528635) rotate(-45) scale(0.08 -0.08)">
       <use xlink:href="#IPAexGothic-28"/>
       <use xlink:href="#IPAexGothic-32" transform="translate(33.300781 0)"/>
       <use xlink:href="#IPAexGothic-29" transform="translate(96.289062 0)"/>
      </g>
     </g>
    </g>
    <g id="xtick_22">
     <g id="text_22">
      <!-- 27 -->
      <g transform="translate(288.430016 266.267006) rotate(-45) scale(0.08 -0.08)">
       <use xlink:href="#IPAexGothic-32"/>
       <use xlink:href="#IPAexGothic-37" transform="translate(62.988281 0)"/>
      </g>
     </g>
    </g>
    <g id="xtick_23">
     <g id="text_23">
      <!-- 38 -->
      <g transform="translate(299.87617 266.267006) rotate(-45) scale(0.08 -0.08)">
       <use xlink:href="#IPAexGothic-33"/>
       <use xlink:href="#IPAexGothic-38" transform="translate(62.988281 0)"/>
      </g>
     </g>
    </g>
    <g id="xtick_24">
     <g id="text_24">
      <!-- 2 -->
      <g transform="translate(313.103791 262.704072) rotate(-45) scale(0.08 -0.08)">
       <use xlink:href="#IPAexGothic-32"/>
      </g>
     </g>
    </g>
    <g id="xtick_25">
     <g id="text_25">
      <!-- 12 -->
      <g transform="translate(322.768477 266.267006) rotate(-45) scale(0.08 -0.08)">
       <use xlink:href="#IPAexGothic-31"/>
       <use xlink:href="#IPAexGothic-32" transform="translate(62.988281 0)"/>
      </g>
     </g>
    </g>
    <g id="xtick_26">
     <g id="text_26">
      <!-- 11 -->
      <g transform="translate(334.214631 266.267006) rotate(-45) scale(0.08 -0.08)">
       <use xlink:href="#IPAexGothic-31"/>
       <use xlink:href="#IPAexGothic-31" transform="translate(62.988281 0)"/>
      </g>
     </g>
    </g>
    <g id="xtick_27">
     <g id="text_27">
      <!-- 10 -->
      <g transform="translate(345.660785 266.267006) rotate(-45) scale(0.08 -0.08)">
       <use xlink:href="#IPAexGothic-31"/>
       <use xlink:href="#IPAexGothic-30" transform="translate(62.988281 0)"/>
      </g>
     </g>
    </g>
    <g id="xtick_28">
     <g id="text_28">
      <!-- (3) -->
      <g transform="translate(357.033577 266.528635) rotate(-45) scale(0.08 -0.08)">
       <use xlink:href="#IPAexGothic-28"/>
       <use xlink:href="#IPAexGothic-33" transform="translate(33.300781 0)"/>
       <use xlink:href="#IPAexGothic-29" transform="translate(96.289062 0)"/>
      </g>
     </g>
    </g>
    <g id="xtick_29">
     <g id="text_29">
      <!-- 0 -->
      <g transform="translate(370.33456 262.704072) rotate(-45) scale(0.08 -0.08)">
       <use xlink:href="#IPAexGothic-30"/>
      </g>
     </g>
    </g>
    <g id="xtick_30">
     <g id="text_30">
      <!-- 4 -->
      <g transform="translate(381.780714 262.704072) rotate(-45) scale(0.08 -0.08)">
       <use xlink:href="#IPAexGothic-34"/>
      </g>
     </g>
    </g>
    <g id="xtick_31">
     <g id="text_31">
      <!-- 19 -->
      <g transform="translate(391.445401 266.267006) rotate(-45) scale(0.08 -0.08)">
       <use xlink:href="#IPAexGothic-31"/>
       <use xlink:href="#IPAexGothic-39" transform="translate(62.988281 0)"/>
      </g>
     </g>
    </g>
    <g id="xtick_32">
     <g id="text_32">
      <!-- (3) -->
      <g transform="translate(402.818192 266.528635) rotate(-45) scale(0.08 -0.08)">
       <use xlink:href="#IPAexGothic-28"/>
       <use xlink:href="#IPAexGothic-33" transform="translate(33.300781 0)"/>
       <use xlink:href="#IPAexGothic-29" transform="translate(96.289062 0)"/>
      </g>
     </g>
    </g>
    <g id="xtick_33">
     <g id="text_33">
      <!-- (4) -->
      <g transform="translate(414.264346 266.528635) rotate(-45) scale(0.08 -0.08)">
       <use xlink:href="#IPAexGothic-28"/>
       <use xlink:href="#IPAexGothic-34" transform="translate(33.300781 0)"/>
       <use xlink:href="#IPAexGothic-29" transform="translate(96.289062 0)"/>
      </g>
     </g>
    </g>
    <g id="xtick_34">
     <g id="text_34">
      <!-- 5 -->
      <g transform="translate(427.565329 262.704072) rotate(-45) scale(0.08 -0.08)">
       <use xlink:href="#IPAexGothic-35"/>
      </g>
     </g>
    </g>
    <g id="xtick_35">
     <g id="text_35">
      <!-- 33 -->
      <g transform="translate(437.230016 266.267006) rotate(-45) scale(0.08 -0.08)">
       <use xlink:href="#IPAexGothic-33"/>
       <use xlink:href="#IPAexGothic-33" transform="translate(62.988281 0)"/>
      </g>
     </g>
    </g>
    <g id="xtick_36">
     <g id="text_36">
      <!-- 1 -->
      <g transform="translate(450.457637 262.704072) rotate(-45) scale(0.08 -0.08)">
       <use xlink:href="#IPAexGothic-31"/>
      </g>
     </g>
    </g>
    <g id="xtick_37">
     <g id="text_37">
      <!-- 24 -->
      <g transform="translate(460.122324 266.267006) rotate(-45) scale(0.08 -0.08)">
       <use xlink:href="#IPAexGothic-32"/>
       <use xlink:href="#IPAexGothic-34" transform="translate(62.988281 0)"/>
      </g>
     </g>
    </g>
    <g id="xtick_38">
     <g id="text_38">
      <!-- 15 -->
      <g transform="translate(471.568477 266.267006) rotate(-45) scale(0.08 -0.08)">
       <use xlink:href="#IPAexGothic-31"/>
       <use xlink:href="#IPAexGothic-35" transform="translate(62.988281 0)"/>
      </g>
     </g>
    </g>
    <g id="xtick_39">
     <g id="text_39">
      <!-- (2) -->
      <g transform="translate(482.941269 266.528635) rotate(-45) scale(0.08 -0.08)">
       <use xlink:href="#IPAexGothic-28"/>
       <use xlink:href="#IPAexGothic-32" transform="translate(33.300781 0)"/>
       <use xlink:href="#IPAexGothic-29" transform="translate(96.289062 0)"/>
      </g>
     </g>
    </g>
    <g id="text_40">
     <!-- サンプル -->
     <g transform="translate(238.719375 282.389938) scale(0.144 -0.144)">
      <defs>
       <path id="IPAexGothic-30b5" d="M 3994 4919 
L 4506 4919 
L 4506 3531 
L 5888 3531 
L 5888 3072 
L 4506 3072 
Q 4488 1719 4153 1063 
Q 3728 222 2644 -325 
L 2266 38 
Q 3325 525 3713 1319 
Q 3975 1853 3994 3072 
L 2331 3072 
L 2331 1575 
L 1819 1575 
L 1819 3072 
L 513 3072 
L 513 3531 
L 1819 3531 
L 1819 4797 
L 2331 4797 
L 2331 3531 
L 3994 3531 
L 3994 4919 
z
" transform="scale(0.015625)"/>
       <path id="IPAexGothic-30f3" d="M 2444 3084 
Q 1816 3656 1056 4084 
L 1381 4519 
Q 2063 4191 2816 3559 
L 2444 3084 
z
M 1100 609 
Q 3984 1106 5216 3828 
L 5619 3469 
Q 4413 794 1434 103 
L 1100 609 
z
" transform="scale(0.015625)"/>
       <path id="IPAexGothic-30d7" d="M 4825 4275 
L 5125 4000 
Q 4884 2378 4081 1381 
Q 3294 413 1888 -116 
L 1522 331 
Q 4069 1113 4550 3803 
L 966 3738 
L 966 4225 
L 4825 4275 
z
M 5597 5509 
Q 5906 5509 6119 5275 
Q 6303 5075 6303 4806 
Q 6303 4494 6069 4281 
Q 5866 4097 5597 4097 
Q 5284 4097 5072 4331 
Q 4888 4534 4888 4806 
Q 4888 5116 5122 5328 
Q 5328 5509 5597 5509 
z
M 5597 5228 
Q 5409 5228 5278 5088 
Q 5169 4966 5169 4806 
Q 5169 4616 5309 4488 
Q 5434 4378 5597 4378 
Q 5784 4378 5913 4519 
Q 6022 4641 6022 4806 
Q 6022 4991 5881 5119 
Q 5759 5228 5597 5228 
z
" transform="scale(0.015625)"/>
       <path id="IPAexGothic-30eb" d="M 353 331 
Q 1313 994 1544 2022 
Q 1684 2650 1684 4397 
L 2203 4397 
L 2203 4153 
L 2203 4116 
Q 2203 2259 1934 1491 
Q 1619 588 744 -38 
L 353 331 
z
M 3125 4666 
L 3650 4666 
L 3650 769 
Q 4875 1488 5672 2734 
L 6000 2278 
Q 5075 966 3516 63 
L 3125 359 
L 3125 4666 
z
" transform="scale(0.015625)"/>
      </defs>
      <use xlink:href="#IPAexGothic-30b5"/>
      <use xlink:href="#IPAexGothic-30f3" transform="translate(100 0)"/>
      <use xlink:href="#IPAexGothic-30d7" transform="translate(200 0)"/>
      <use xlink:href="#IPAexGothic-30eb" transform="translate(300 0)"/>
     </g>
    </g>
   </g>
   <g id="matplotlib.axis_2">
    <g id="ytick_1">
     <g id="line2d_1">
      <defs>
       <path id="m82f2b92e01" d="M 0 0 
L -3.5 0 
" style="stroke: #000000; stroke-width: 0.8"/>
      </defs>
      <g>
       <use xlink:href="#m82f2b92e01" x="44.319375" y="247.9038" style="stroke: #000000; stroke-width: 0.8"/>
      </g>
     </g>
     <g id="text_41">
      <!-- 0 -->
      <g transform="translate(31.020938 251.649113) scale(0.1 -0.1)">
       <use xlink:href="#IPAexGothic-30"/>
      </g>
     </g>
    </g>
    <g id="ytick_2">
     <g id="line2d_2">
      <g>
       <use xlink:href="#m82f2b92e01" x="44.319375" y="217.322986" style="stroke: #000000; stroke-width: 0.8"/>
      </g>
     </g>
     <g id="text_42">
      <!-- 10 -->
      <g transform="translate(24.7225 221.068298) scale(0.1 -0.1)">
       <use xlink:href="#IPAexGothic-31"/>
       <use xlink:href="#IPAexGothic-30" transform="translate(62.988281 0)"/>
      </g>
     </g>
    </g>
    <g id="ytick_3">
     <g id="line2d_3">
      <g>
       <use xlink:href="#m82f2b92e01" x="44.319375" y="186.742172" style="stroke: #000000; stroke-width: 0.8"/>
      </g>
     </g>
     <g id="text_43">
      <!-- 20 -->
      <g transform="translate(24.7225 190.487484) scale(0.1 -0.1)">
       <use xlink:href="#IPAexGothic-32"/>
       <use xlink:href="#IPAexGothic-30" transform="translate(62.988281 0)"/>
      </g>
     </g>
    </g>
    <g id="ytick_4">
     <g id="line2d_4">
      <g>
       <use xlink:href="#m82f2b92e01" x="44.319375" y="156.161357" style="stroke: #000000; stroke-width: 0.8"/>
      </g>
     </g>
     <g id="text_44">
      <!-- 30 -->
      <g transform="translate(24.7225 159.90667) scale(0.1 -0.1)">
       <use xlink:href="#IPAexGothic-33"/>
       <use xlink:href="#IPAexGothic-30" transform="translate(62.988281 0)"/>
      </g>
     </g>
    </g>
    <g id="ytick_5">
     <g id="line2d_5">
      <g>
       <use xlink:href="#m82f2b92e01" x="44.319375" y="125.580543" style="stroke: #000000; stroke-width: 0.8"/>
      </g>
     </g>
     <g id="text_45">
      <!-- 40 -->
      <g transform="translate(24.7225 129.325856) scale(0.1 -0.1)">
       <use xlink:href="#IPAexGothic-34"/>
       <use xlink:href="#IPAexGothic-30" transform="translate(62.988281 0)"/>
      </g>
     </g>
    </g>
    <g id="ytick_6">
     <g id="line2d_6">
      <g>
       <use xlink:href="#m82f2b92e01" x="44.319375" y="94.999729" style="stroke: #000000; stroke-width: 0.8"/>
      </g>
     </g>
     <g id="text_46">
      <!-- 50 -->
      <g transform="translate(24.7225 98.745041) scale(0.1 -0.1)">
       <use xlink:href="#IPAexGothic-35"/>
       <use xlink:href="#IPAexGothic-30" transform="translate(62.988281 0)"/>
      </g>
     </g>
    </g>
    <g id="ytick_7">
     <g id="line2d_7">
      <g>
       <use xlink:href="#m82f2b92e01" x="44.319375" y="64.418915" style="stroke: #000000; stroke-width: 0.8"/>
      </g>
     </g>
     <g id="text_47">
      <!-- 60 -->
      <g transform="translate(24.7225 68.164227) scale(0.1 -0.1)">
       <use xlink:href="#IPAexGothic-36"/>
       <use xlink:href="#IPAexGothic-30" transform="translate(62.988281 0)"/>
      </g>
     </g>
    </g>
    <g id="ytick_8">
     <g id="line2d_8">
      <g>
       <use xlink:href="#m82f2b92e01" x="44.319375" y="33.8381" style="stroke: #000000; stroke-width: 0.8"/>
      </g>
     </g>
     <g id="text_48">
      <!-- 70 -->
      <g transform="translate(24.7225 37.583413) scale(0.1 -0.1)">
       <use xlink:href="#IPAexGothic-37"/>
       <use xlink:href="#IPAexGothic-30" transform="translate(62.988281 0)"/>
      </g>
     </g>
    </g>
    <g id="text_49">
     <!-- 距離 -->
     <g transform="translate(17.9865 151.4238) rotate(-90) scale(0.144 -0.144)">
      <defs>
       <path id="IPAexGothic-8ddd" d="M 2741 4984 
L 2741 3047 
L 1997 3047 
L 1997 2125 
L 2919 2125 
L 2919 1741 
L 1997 1741 
L 1997 441 
Q 2469 566 3016 728 
L 3041 347 
Q 1966 -28 525 -372 
L 353 72 
Q 519 97 634 128 
Q 659 128 678 134 
L 678 2522 
L 1094 2522 
L 1094 225 
Q 1316 272 1497 319 
L 1581 341 
L 1581 3047 
L 616 3047 
L 616 4984 
L 2741 4984 
z
M 1044 4600 
L 1044 3431 
L 2313 3431 
L 2313 4600 
L 1044 4600 
z
M 3725 4506 
L 3725 3425 
L 5775 3425 
L 5775 1134 
L 5347 1134 
L 5347 1575 
L 3725 1575 
L 3725 378 
L 6113 378 
L 6113 -25 
L 3725 -25 
L 3725 -447 
L 3291 -447 
L 3291 4916 
L 5959 4916 
L 5959 4506 
L 3725 4506 
z
M 5347 3034 
L 3725 3034 
L 3725 1972 
L 5347 1972 
L 5347 3034 
z
" transform="scale(0.015625)"/>
       <path id="IPAexGothic-96e2" d="M 2219 881 
Q 2134 1103 1972 1381 
L 2291 1497 
Q 2578 1041 2756 488 
L 2413 300 
Q 2381 416 2322 613 
Q 1750 481 1003 384 
L 894 769 
Q 1128 778 1209 788 
Q 1297 1072 1425 1656 
L 838 1656 
L 838 -447 
L 428 -447 
L 428 2009 
L 1497 2009 
Q 1516 2116 1559 2419 
L 588 2419 
L 588 4109 
L 984 4109 
L 984 2772 
L 2656 2772 
L 2656 4109 
L 3053 4109 
L 3053 2419 
L 1972 2419 
Q 1925 2106 1906 2009 
L 3225 2009 
L 3225 56 
Q 3225 -219 3103 -300 
Q 3003 -384 2725 -384 
Q 2381 -384 2169 -359 
L 2119 56 
Q 2416 0 2631 0 
Q 2816 0 2816 197 
L 2816 1656 
L 1816 1656 
Q 1809 1616 1788 1525 
Q 1775 1469 1772 1444 
Q 1681 1081 1594 819 
L 1809 838 
Q 2084 859 2219 881 
z
M 5125 2419 
L 5125 1556 
L 5919 1556 
L 5919 1184 
L 5125 1184 
L 5125 275 
L 6103 275 
L 6103 -122 
L 4044 -122 
L 4044 -447 
L 3641 -447 
L 3641 3066 
Q 3466 2653 3306 2400 
L 3056 2725 
Q 3653 3759 3909 5259 
L 4319 5172 
Q 4181 4553 4038 4109 
L 4019 4044 
L 4747 4044 
Q 4947 4572 5066 5222 
L 5491 5113 
Q 5297 4428 5138 4044 
L 6041 4044 
L 6041 3659 
L 5125 3659 
L 5125 2791 
L 5919 2791 
L 5919 2419 
L 5125 2419 
z
M 4728 3659 
L 4044 3659 
L 4044 2791 
L 4728 2791 
L 4728 3659 
z
M 4728 2419 
L 4044 2419 
L 4044 1556 
L 4728 1556 
L 4728 2419 
z
M 4728 1184 
L 4044 1184 
L 4044 275 
L 4728 275 
L 4728 1184 
z
M 2022 4697 
L 3378 4697 
L 3378 4325 
L 281 4325 
L 281 4697 
L 1594 4697 
L 1594 5313 
L 2022 5313 
L 2022 4697 
z
M 1625 3481 
Q 1419 3625 1056 3834 
L 1291 4084 
Q 1541 3944 1863 3731 
Q 2025 3916 2181 4172 
L 2509 4000 
Q 2316 3728 2138 3531 
Q 2500 3238 2591 3163 
L 2353 2881 
Q 2094 3119 1894 3284 
Q 1634 3031 1297 2834 
L 1063 3097 
Q 1375 3259 1625 3481 
z
" transform="scale(0.015625)"/>
      </defs>
      <use xlink:href="#IPAexGothic-8ddd"/>
      <use xlink:href="#IPAexGothic-96e2" transform="translate(100 0)"/>
     </g>
    </g>
   </g>
   <g id="LineCollection_1">
    <path d="M 72.93476 247.9038 
L 72.93476 247.003307 
L 84.380913 247.003307 
L 84.380913 247.9038 
" clip-path="url(#p890fba235c)" style="fill: none; stroke: #2a9d8f; stroke-width: 1.2"/>
    <path d="M 61.488606 247.9038 
L 61.488606 246.132848 
L 78.657837 246.132848 
L 78.657837 247.003307 
" clip-path="url(#p890fba235c)" style="fill: none; stroke: #2a9d8f; stroke-width: 1.2"/>
    <path d="M 95.827067 247.9038 
L 95.827067 247.680688 
L 107.273221 247.680688 
L 107.273221 247.9038 
" clip-path="url(#p890fba235c)" style="fill: none; stroke: #2a9d8f; stroke-width: 1.2"/>
    <path d="M 118.719375 247.9038 
L 118.719375 246.570233 
L 130.165529 246.570233 
L 130.165529 247.9038 
" clip-path="url(#p890fba235c)" style="fill: none; stroke: #2a9d8f; stroke-width: 1.2"/>
    <path d="M 101.550144 247.680688 
L 101.550144 245.503303 
L 124.442452 245.503303 
L 124.442452 246.570233 
" clip-path="url(#p890fba235c)" style="fill: none; stroke: #2a9d8f; stroke-width: 1.2"/>
    <path d="M 70.073221 246.132848 
L 70.073221 244.645809 
L 112.996298 244.645809 
L 112.996298 245.503303 
" clip-path="url(#p890fba235c)" style="fill: none; stroke: #2a9d8f; stroke-width: 1.2"/>
    <path d="M 50.042452 247.9038 
L 50.042452 243.252238 
L 91.53476 243.252238 
L 91.53476 244.645809 
" clip-path="url(#p890fba235c)" style="fill: none; stroke: #2a9d8f; stroke-width: 1.2"/>
    <path d="M 153.057837 247.9038 
L 153.057837 246.376922 
L 164.50399 246.376922 
L 164.50399 247.9038 
" clip-path="url(#p890fba235c)" style="fill: none; stroke: #2a9d8f; stroke-width: 1.2"/>
    <path d="M 187.396298 247.9038 
L 187.396298 246.504626 
L 198.842452 246.504626 
L 198.842452 247.9038 
" clip-path="url(#p890fba235c)" style="fill: none; stroke: #2a9d8f; stroke-width: 1.2"/>
    <path d="M 175.950144 247.9038 
L 175.950144 245.787821 
L 193.119375 245.787821 
L 193.119375 246.504626 
" clip-path="url(#p890fba235c)" style="fill: none; stroke: #2a9d8f; stroke-width: 1.2"/>
    <path d="M 158.780913 246.376922 
L 158.780913 243.06646 
L 184.53476 243.06646 
L 184.53476 245.787821 
" clip-path="url(#p890fba235c)" style="fill: none; stroke: #2a9d8f; stroke-width: 1.2"/>
    <path d="M 141.611683 247.9038 
L 141.611683 240.422488 
L 171.657837 240.422488 
L 171.657837 243.06646 
" clip-path="url(#p890fba235c)" style="fill: none; stroke: #2a9d8f; stroke-width: 1.2"/>
    <path d="M 70.788606 243.252238 
L 70.788606 239.478238 
L 156.63476 239.478238 
L 156.63476 240.422488 
" clip-path="url(#p890fba235c)" style="fill: none; stroke: #2a9d8f; stroke-width: 1.2"/>
   </g>
   <g id="LineCollection_2">
    <path d="M 221.73476 247.9038 
L 221.73476 247.064007 
L 233.180913 247.064007 
L 233.180913 247.9038 
" clip-path="url(#p890fba235c)" style="fill: none; stroke: #e9c46a; stroke-width: 1.2"/>
    <path d="M 210.288606 247.9038 
L 210.288606 246.454338 
L 227.457837 246.454338 
L 227.457837 247.064007 
" clip-path="url(#p890fba235c)" style="fill: none; stroke: #e9c46a; stroke-width: 1.2"/>
    <path d="M 244.627067 247.9038 
L 244.627067 246.880929 
L 256.073221 246.880929 
L 256.073221 247.9038 
" clip-path="url(#p890fba235c)" style="fill: none; stroke: #e9c46a; stroke-width: 1.2"/>
    <path d="M 267.519375 247.9038 
L 267.519375 246.420864 
L 278.965529 246.420864 
L 278.965529 247.9038 
" clip-path="url(#p890fba235c)" style="fill: none; stroke: #e9c46a; stroke-width: 1.2"/>
    <path d="M 250.350144 246.880929 
L 250.350144 245.4658 
L 273.242452 245.4658 
L 273.242452 246.420864 
" clip-path="url(#p890fba235c)" style="fill: none; stroke: #e9c46a; stroke-width: 1.2"/>
    <path d="M 218.873221 246.454338 
L 218.873221 243.837769 
L 261.796298 243.837769 
L 261.796298 245.4658 
" clip-path="url(#p890fba235c)" style="fill: none; stroke: #e9c46a; stroke-width: 1.2"/>
    <path d="M 290.411683 247.9038 
L 290.411683 247.088953 
L 301.857837 247.088953 
L 301.857837 247.9038 
" clip-path="url(#p890fba235c)" style="fill: none; stroke: #e9c46a; stroke-width: 1.2"/>
    <path d="M 313.30399 247.9038 
L 313.30399 246.60973 
L 324.750144 246.60973 
L 324.750144 247.9038 
" clip-path="url(#p890fba235c)" style="fill: none; stroke: #e9c46a; stroke-width: 1.2"/>
    <path d="M 296.13476 247.088953 
L 296.13476 245.022375 
L 319.027067 245.022375 
L 319.027067 246.60973 
" clip-path="url(#p890fba235c)" style="fill: none; stroke: #e9c46a; stroke-width: 1.2"/>
    <path d="M 347.642452 247.9038 
L 347.642452 245.743142 
L 359.088606 245.743142 
L 359.088606 247.9038 
" clip-path="url(#p890fba235c)" style="fill: none; stroke: #e9c46a; stroke-width: 1.2"/>
    <path d="M 336.196298 247.9038 
L 336.196298 243.914897 
L 353.365529 243.914897 
L 353.365529 245.743142 
" clip-path="url(#p890fba235c)" style="fill: none; stroke: #e9c46a; stroke-width: 1.2"/>
    <path d="M 307.580913 245.022375 
L 307.580913 242.008284 
L 344.780913 242.008284 
L 344.780913 243.914897 
" clip-path="url(#p890fba235c)" style="fill: none; stroke: #e9c46a; stroke-width: 1.2"/>
    <path d="M 240.33476 243.837769 
L 240.33476 236.870806 
L 326.180913 236.870806 
L 326.180913 242.008284 
" clip-path="url(#p890fba235c)" style="fill: none; stroke: #e9c46a; stroke-width: 1.2"/>
    <path d="M 381.980913 247.9038 
L 381.980913 245.380145 
L 393.427067 245.380145 
L 393.427067 247.9038 
" clip-path="url(#p890fba235c)" style="fill: none; stroke: #e9c46a; stroke-width: 1.2"/>
    <path d="M 404.873221 247.9038 
L 404.873221 245.04873 
L 416.319375 245.04873 
L 416.319375 247.9038 
" clip-path="url(#p890fba235c)" style="fill: none; stroke: #e9c46a; stroke-width: 1.2"/>
    <path d="M 387.70399 245.380145 
L 387.70399 243.311481 
L 410.596298 243.311481 
L 410.596298 245.04873 
" clip-path="url(#p890fba235c)" style="fill: none; stroke: #e9c46a; stroke-width: 1.2"/>
    <path d="M 370.53476 247.9038 
L 370.53476 242.134789 
L 399.150144 242.134789 
L 399.150144 243.311481 
" clip-path="url(#p890fba235c)" style="fill: none; stroke: #e9c46a; stroke-width: 1.2"/>
    <path d="M 427.765529 247.9038 
L 427.765529 245.763823 
L 439.211683 245.763823 
L 439.211683 247.9038 
" clip-path="url(#p890fba235c)" style="fill: none; stroke: #e9c46a; stroke-width: 1.2"/>
    <path d="M 450.657837 247.9038 
L 450.657837 247.78181 
L 462.10399 247.78181 
L 462.10399 247.9038 
" clip-path="url(#p890fba235c)" style="fill: none; stroke: #e9c46a; stroke-width: 1.2"/>
    <path d="M 473.550144 247.9038 
L 473.550144 245.936751 
L 484.996298 245.936751 
L 484.996298 247.9038 
" clip-path="url(#p890fba235c)" style="fill: none; stroke: #e9c46a; stroke-width: 1.2"/>
    <path d="M 456.380913 247.78181 
L 456.380913 245.565119 
L 479.273221 245.565119 
L 479.273221 245.936751 
" clip-path="url(#p890fba235c)" style="fill: none; stroke: #e9c46a; stroke-width: 1.2"/>
    <path d="M 433.488606 245.763823 
L 433.488606 240.001154 
L 467.827067 240.001154 
L 467.827067 245.565119 
" clip-path="url(#p890fba235c)" style="fill: none; stroke: #e9c46a; stroke-width: 1.2"/>
    <path d="M 384.842452 242.134789 
L 384.842452 236.556104 
L 450.657837 236.556104 
L 450.657837 240.001154 
" clip-path="url(#p890fba235c)" style="fill: none; stroke: #e9c46a; stroke-width: 1.2"/>
    <path d="M 283.257837 236.870806 
L 283.257837 123.670729 
L 417.750144 123.670729 
L 417.750144 236.556104 
" clip-path="url(#p890fba235c)" style="fill: none; stroke: #e9c46a; stroke-width: 1.2"/>
   </g>
   <g id="LineCollection_3">
    <path d="M 113.711683 239.478238 
L 113.711683 36.7038 
L 350.50399 36.7038 
L 350.50399 123.670729 
" clip-path="url(#p890fba235c)" style="fill: none; stroke: #264653; stroke-width: 1.2"/>
   </g>
   <g id="text_50">
    <!-- 階層的クラスタリング（Ward） -->
    <g transform="translate(142.478325 20.1438) scale(0.1728 -0.1728)">
     <defs>
      <path id="IPAexGothic-968e" d="M 2575 3150 
L 2575 5209 
L 2978 5209 
L 2978 4384 
L 3981 4384 
L 3981 4000 
L 2978 4000 
L 2978 3213 
Q 3478 3291 4009 3406 
L 4034 3053 
Q 3066 2797 2184 2675 
L 2044 3078 
Q 2113 3088 2244 3103 
Q 2391 3122 2447 3128 
L 2575 3150 
z
M 1588 3059 
Q 2191 2303 2191 1413 
Q 2191 1100 2122 919 
Q 2003 650 1613 650 
Q 1372 650 1122 691 
L 1050 1144 
Q 1309 1084 1538 1084 
Q 1763 1084 1763 1463 
Q 1763 2244 1159 3038 
Q 1519 3806 1691 4588 
L 909 4588 
L 909 -450 
L 488 -450 
L 488 4991 
L 1984 4991 
L 2209 4800 
Q 1931 3772 1588 3059 
z
M 4591 4275 
Q 5175 4438 5666 4716 
L 5959 4369 
Q 5338 4084 4591 3916 
L 4591 3378 
Q 4591 3128 5031 3128 
Q 5497 3128 5563 3225 
Q 5644 3322 5653 3866 
L 6075 3744 
Q 6047 3131 5941 2950 
Q 5794 2725 5072 2725 
Q 4594 2725 4413 2797 
Q 4188 2884 4188 3194 
L 4188 5209 
L 4591 5209 
L 4591 4275 
z
M 3619 2259 
Q 3672 2441 3728 2766 
L 4206 2681 
Q 4109 2403 4053 2259 
L 5666 2259 
L 5666 -447 
L 5238 -447 
L 5238 -122 
L 2984 -122 
L 2984 -447 
L 2556 -447 
L 2556 2259 
L 3619 2259 
z
M 2984 1888 
L 2984 1275 
L 5238 1275 
L 5238 1888 
L 2984 1888 
z
M 2984 916 
L 2984 250 
L 5238 250 
L 5238 916 
L 2984 916 
z
" transform="scale(0.015625)"/>
      <path id="IPAexGothic-5c64" d="M 4856 3891 
Q 4738 3663 4613 3481 
L 5688 3481 
L 5688 1788 
L 1588 1788 
L 1588 3481 
L 2559 3481 
Q 2456 3700 2322 3891 
L 1291 3891 
L 1291 2809 
Q 1291 1581 1150 872 
Q 1016 150 672 -453 
L 313 -100 
Q 691 559 788 1441 
Q 850 1953 850 2900 
L 850 5050 
L 5706 5050 
L 5706 3891 
L 4856 3891 
z
M 4375 3891 
L 2809 3891 
Q 2928 3694 3019 3481 
L 4178 3481 
Q 4278 3653 4375 3891 
z
M 5272 4697 
L 1291 4697 
L 1291 4231 
L 5272 4231 
L 5272 4697 
z
M 2003 3169 
L 2003 2803 
L 3409 2803 
L 3409 3169 
L 2003 3169 
z
M 2003 2497 
L 2003 2106 
L 3409 2106 
L 3409 2497 
L 2003 2497 
z
M 5272 2106 
L 5272 2497 
L 3813 2497 
L 3813 2106 
L 5272 2106 
z
M 5272 2803 
L 5272 3169 
L 3813 3169 
L 3813 2803 
L 5272 2803 
z
M 5375 1497 
L 5375 -450 
L 4947 -450 
L 4947 -225 
L 2334 -225 
L 2334 -450 
L 1906 -450 
L 1906 1497 
L 5375 1497 
z
M 2334 1172 
L 2334 819 
L 4947 819 
L 4947 1172 
L 2334 1172 
z
M 2334 500 
L 2334 128 
L 4947 128 
L 4947 500 
L 2334 500 
z
" transform="scale(0.015625)"/>
      <path id="IPAexGothic-7684" d="M 5925 4141 
Q 5859 888 5656 91 
Q 5581 -219 5350 -325 
Q 5178 -397 4856 -397 
Q 4428 -397 4044 -353 
L 3953 134 
Q 4444 56 4838 56 
Q 5128 56 5203 234 
Q 5400 706 5459 3438 
L 5466 3719 
L 3838 3719 
Q 3550 3031 3116 2503 
L 2809 2856 
Q 3469 3659 3788 5172 
L 4250 5050 
Q 4144 4559 4000 4141 
L 5925 4141 
z
M 1316 4244 
L 1394 4475 
Q 1500 4806 1566 5209 
L 2053 5141 
Q 1872 4525 1753 4244 
L 2756 4244 
L 2756 366 
L 1022 366 
L 1022 -91 
L 581 -91 
L 581 4244 
L 1316 4244 
z
M 1022 3847 
L 1022 2553 
L 2316 2553 
L 2316 3847 
L 1022 3847 
z
M 1022 2169 
L 1022 763 
L 2316 763 
L 2316 2169 
L 1022 2169 
z
M 4384 1288 
Q 3975 2069 3531 2578 
L 3859 2834 
Q 4375 2259 4753 1569 
L 4384 1288 
z
" transform="scale(0.015625)"/>
      <path id="IPAexGothic-30af" d="M 4934 4191 
L 5272 3941 
Q 4894 2334 4031 1300 
Q 3275 391 2028 -225 
L 1656 184 
Q 2875 691 3641 1625 
Q 4403 2553 4691 3731 
L 2903 3731 
Q 2188 2653 1356 1959 
L 978 2309 
Q 2328 3400 2931 5022 
L 3422 4881 
Q 3363 4672 3141 4191 
L 4934 4191 
z
" transform="scale(0.015625)"/>
      <path id="IPAexGothic-30e9" d="M 1447 4709 
L 4922 4709 
L 4922 4234 
L 1447 4234 
L 1447 4709 
z
M 897 3303 
L 5172 3303 
L 5478 3013 
Q 5069 1669 4219 875 
Q 3475 181 2306 -181 
L 1972 294 
Q 4150 784 4834 2828 
L 897 2828 
L 897 3303 
z
" transform="scale(0.015625)"/>
      <path id="IPAexGothic-30b9" d="M 4359 4481 
L 4716 4147 
Q 4328 3072 3647 2150 
Q 4659 1434 5659 453 
L 5234 19 
Q 4256 1088 3353 1778 
Q 2372 597 1044 -31 
L 653 403 
Q 3128 1453 4097 4000 
L 1241 3963 
L 1228 4453 
L 4359 4481 
z
" transform="scale(0.015625)"/>
      <path id="IPAexGothic-30bf" d="M 4978 4263 
L 5313 3988 
Q 4797 2431 4056 1459 
Q 3191 325 1822 -300 
L 1466 109 
Q 2131 381 2613 738 
Q 3053 1066 3531 1600 
Q 2919 2225 2144 2791 
Q 1603 2203 1172 1875 
L 825 2234 
Q 2316 3328 2866 5031 
L 3359 4897 
Q 3325 4775 3109 4263 
L 4978 4263 
z
M 2894 3816 
Q 2709 3522 2438 3169 
Q 3194 2616 3841 2003 
Q 4366 2806 4747 3816 
L 2894 3816 
z
" transform="scale(0.015625)"/>
      <path id="IPAexGothic-30ea" d="M 1678 4788 
L 2222 4788 
L 2222 1900 
L 1678 1900 
L 1678 4788 
z
M 4084 4909 
L 4628 4909 
L 4628 2753 
Q 4628 1563 4150 794 
Q 3725 119 2772 -353 
L 2394 78 
Q 3334 494 3706 1094 
Q 4084 1703 4084 2725 
L 4084 4909 
z
" transform="scale(0.015625)"/>
      <path id="IPAexGothic-30b0" d="M 4769 4128 
L 5106 3878 
Q 4728 2272 3866 1238 
Q 3106 328 1863 -288 
L 1491 122 
Q 2709 628 3475 1563 
Q 4238 2491 4525 3669 
L 2738 3669 
Q 2022 2591 1191 1897 
L 813 2247 
Q 2163 3338 2766 4959 
L 3256 4819 
Q 3197 4609 2975 4128 
L 4769 4128 
z
M 6009 4422 
Q 5647 4966 5253 5294 
L 5556 5522 
Q 5941 5213 6328 4697 
L 6009 4422 
z
M 5416 3956 
Q 5125 4447 4678 4844 
L 4991 5088 
Q 5363 4781 5747 4231 
L 5416 3956 
z
" transform="scale(0.015625)"/>
      <path id="IPAexGothic-ff08" d="M 5419 -434 
Q 4197 769 4197 2438 
Q 4197 4097 5419 5300 
L 5919 5300 
Q 4678 4078 4678 2425 
Q 4678 788 5919 -434 
L 5419 -434 
z
" transform="scale(0.015625)"/>
      <path id="IPAexGothic-57" d="M 5888 4634 
L 4466 0 
L 4038 0 
L 3219 2759 
Q 3084 3209 2981 3738 
L 2963 3738 
Q 2866 3288 2713 2759 
L 1888 0 
L 1453 0 
L 44 4634 
L 672 4634 
L 1406 2041 
Q 1572 1444 1694 928 
L 1716 928 
Q 1819 1406 2003 2041 
L 2725 4556 
L 3213 4556 
L 3972 2041 
Q 4128 1541 4269 922 
L 4288 922 
Q 4441 1603 4563 2041 
L 5291 4634 
L 5888 4634 
z
" transform="scale(0.015625)"/>
      <path id="IPAexGothic-61" d="M 3156 63 
L 2672 63 
Q 2559 303 2531 556 
L 2509 556 
Q 2147 -25 1428 -25 
Q 934 -25 622 288 
Q 347 563 347 959 
Q 347 1947 2050 1997 
L 2478 2009 
L 2478 2175 
Q 2478 2509 2288 2700 
Q 2088 2900 1775 2900 
Q 1238 2900 969 2378 
L 494 2597 
Q 938 3328 1788 3328 
Q 2375 3328 2691 3000 
Q 2984 2706 2984 2169 
L 2984 997 
Q 2984 400 3156 63 
z
M 2491 1625 
L 2141 1619 
Q 903 1591 903 953 
Q 903 728 1050 581 
Q 1231 403 1525 403 
Q 1934 403 2234 703 
Q 2491 969 2491 1344 
L 2491 1625 
z
" transform="scale(0.015625)"/>
      <path id="IPAexGothic-72" d="M 2309 3316 
L 2213 2769 
Q 2106 2791 2022 2791 
Q 1653 2791 1413 2444 
Q 1113 2006 1113 1675 
L 1113 63 
L 563 63 
L 563 3250 
L 1081 3250 
L 1056 2303 
L 1069 2303 
Q 1422 3341 2097 3341 
Q 2206 3341 2309 3316 
z
" transform="scale(0.015625)"/>
      <path id="IPAexGothic-64" d="M 3391 63 
L 2891 63 
L 2891 619 
Q 2441 -31 1753 -31 
Q 1181 -31 788 372 
Q 313 844 313 1663 
Q 313 2466 772 2938 
Q 1169 3341 1753 3341 
Q 2384 3341 2847 2809 
L 2847 4794 
L 3391 4794 
L 3391 63 
z
M 2847 1303 
L 2847 2097 
Q 2847 2413 2456 2706 
Q 2181 2906 1853 2906 
Q 1484 2906 1228 2650 
Q 888 2309 888 1678 
Q 888 1109 1169 750 
Q 1441 409 1847 409 
Q 2322 409 2656 875 
Q 2847 1134 2847 1303 
z
" transform="scale(0.015625)"/>
      <path id="IPAexGothic-ff09" d="M 481 -434 
Q 1722 788 1722 2431 
Q 1722 4066 481 5300 
L 981 5300 
Q 2203 4097 2203 2431 
Q 2203 769 981 -434 
L 481 -434 
z
" transform="scale(0.015625)"/>
     </defs>
     <use xlink:href="#IPAexGothic-968e"/>
     <use xlink:href="#IPAexGothic-5c64" transform="translate(100 0)"/>
     <use xlink:href="#IPAexGothic-7684" transform="translate(200 0)"/>
     <use xlink:href="#IPAexGothic-30af" transform="translate(300 0)"/>
     <use xlink:href="#IPAexGothic-30e9" transform="translate(400 0)"/>
     <use xlink:href="#IPAexGothic-30b9" transform="translate(500 0)"/>
     <use xlink:href="#IPAexGothic-30bf" transform="translate(600 0)"/>
     <use xlink:href="#IPAexGothic-30ea" transform="translate(700 0)"/>
     <use xlink:href="#IPAexGothic-30f3" transform="translate(800 0)"/>
     <use xlink:href="#IPAexGothic-30b0" transform="translate(900 0)"/>
     <use xlink:href="#IPAexGothic-ff08" transform="translate(1000 0)"/>
     <use xlink:href="#IPAexGothic-57" transform="translate(1100 0)"/>
     <use xlink:href="#IPAexGothic-61" transform="translate(1192.822266 0)"/>
     <use xlink:href="#IPAexGothic-72" transform="translate(1247.802734 0)"/>
     <use xlink:href="#IPAexGothic-64" transform="translate(1284.814453 0)"/>
     <use xlink:href="#IPAexGothic-ff09" transform="translate(1347.216797 0)"/>
    </g>
   </g>
  </g>
 </g>
 <defs>
  <clipPath id="p890fba235c">
   <rect x="44.319375" y="26.1438" width="446.4" height="221.76"/>
  </clipPath>
 </defs>
</svg>
