<?xml version="1.0" encoding="utf-8" standalone="no"?>
<!DOCTYPE svg PUBLIC "-//W3C//DTD SVG 1.1//EN"
  "http://www.w3.org/Graphics/SVG/1.1/DTD/svg11.dtd">
<svg xmlns:xlink="http://www.w3.org/1999/xlink" width="612.161562pt" height="270.073125pt" viewBox="0 0 612.161562 270.073125" xmlns="http://www.w3.org/2000/svg" version="1.1">
 <metadata>
  <rdf:RDF xmlns:dc="http://purl.org/dc/elements/1.1/" xmlns:cc="http://creativecommons.org/ns#" xmlns:rdf="http://www.w3.org/1999/02/22-rdf-syntax-ns#">
   <cc:Work>
    <dc:type rdf:resource="http://purl.org/dc/dcmitype/StillImage"/>
    <dc:date>2025-10-30T19:32:28.512932</dc:date>
    <dc:format>image/svg+xml</dc:format>
    <dc:creator>
     <cc:Agent>
      <dc:title>Matplotlib v3.10.7, https://matplotlib.org/</dc:title>
     </cc:Agent>
    </dc:creator>
   </cc:Work>
  </rdf:RDF>
 </metadata>
 <defs>
  <style type="text/css">*{stroke-linejoin: round; stroke-linecap: butt}</style>
 </defs>
 <g id="figure_1">
  <g id="patch_1">
   <path d="M 0 270.073125 
L 612.161562 270.073125 
L 612.161562 0 
L 0 0 
z
" style="fill: #ffffff"/>
  </g>
  <g id="axes_1">
   <g id="patch_2">
    <path d="M 46.961563 228.96 
L 604.961563 228.96 
L 604.961563 7.2 
L 46.961563 7.2 
z
" style="fill: #ffffff"/>
   </g>
   <g id="patch_3">
    <path d="M 72.325199 228.96 
L 109.900956 228.96 
L 109.900956 48.612332 
L 72.325199 48.612332 
z
" clip-path="url(#p26feda78dc)" style="fill: #264653"/>
   </g>
   <g id="patch_4">
    <path d="M 119.294896 228.96 
L 156.870653 228.96 
L 156.870653 58.939615 
L 119.294896 58.939615 
z
" clip-path="url(#p26feda78dc)" style="fill: #264653"/>
   </g>
   <g id="patch_5">
    <path d="M 166.264593 228.96 
L 203.84035 228.96 
L 203.84035 45.401007 
L 166.264593 45.401007 
z
" clip-path="url(#p26feda78dc)" style="fill: #264653"/>
   </g>
   <g id="patch_6">
    <path d="M 213.23429 228.96 
L 250.810047 228.96 
L 250.810047 62.073228 
L 213.23429 62.073228 
z
" clip-path="url(#p26feda78dc)" style="fill: #264653"/>
   </g>
   <g id="patch_7">
    <path d="M 260.203987 228.96 
L 297.779744 228.96 
L 297.779744 50.096474 
L 260.203987 50.096474 
z
" clip-path="url(#p26feda78dc)" style="fill: #264653"/>
   </g>
   <g id="patch_8">
    <path d="M 307.173684 228.96 
L 344.749441 228.96 
L 344.749441 50.108664 
L 307.173684 50.108664 
z
" clip-path="url(#p26feda78dc)" style="fill: #264653"/>
   </g>
   <g id="patch_9">
    <path d="M 354.143381 228.96 
L 391.719138 228.96 
L 391.719138 52.028602 
L 354.143381 52.028602 
z
" clip-path="url(#p26feda78dc)" style="fill: #264653"/>
   </g>
   <g id="patch_10">
    <path d="M 401.113078 228.96 
L 438.688835 228.96 
L 438.688835 41.315807 
L 401.113078 41.315807 
z
" clip-path="url(#p26feda78dc)" style="fill: #264653"/>
   </g>
   <g id="patch_11">
    <path d="M 448.082775 228.96 
L 485.658532 228.96 
L 485.658532 36.965472 
L 448.082775 36.965472 
z
" clip-path="url(#p26feda78dc)" style="fill: #264653"/>
   </g>
   <g id="patch_12">
    <path d="M 495.052472 228.96 
L 532.628229 228.96 
L 532.628229 45.39796 
L 495.052472 45.39796 
z
" clip-path="url(#p26feda78dc)" style="fill: #264653"/>
   </g>
   <g id="patch_13">
    <path d="M 542.022169 228.96 
L 579.597926 228.96 
L 579.597926 17.76 
L 542.022169 17.76 
z
" clip-path="url(#p26feda78dc)" style="fill: #2a9d8f"/>
   </g>
   <g id="matplotlib.axis_1">
    <g id="xtick_1">
     <g id="line2d_1">
      <defs>
       <path id="m0adad59138" d="M 0 0 
L 0 3.5 
" style="stroke: #000000; stroke-width: 0.8"/>
      </defs>
      <g>
       <use xlink:href="#m0adad59138" x="91.113078" y="228.96" style="stroke: #000000; stroke-width: 0.8"/>
      </g>
     </g>
     <g id="text_1">
      <!-- 0 -->
      <g transform="translate(87.963859 243.450625) scale(0.1 -0.1)">
       <defs>
        <path id="IPAexGothic-30" d="M 2038 4725 
Q 2881 4725 3334 3944 
Q 3694 3325 3694 2344 
Q 3694 1372 3334 741 
Q 2888 -31 2016 -31 
Q 1147 -31 700 741 
Q 341 1372 341 2350 
Q 341 3713 1000 4334 
Q 1419 4725 2038 4725 
z
M 2016 4266 
Q 1516 4266 1228 3759 
Q 934 3247 934 2344 
Q 934 1456 1222 947 
Q 1513 447 2016 447 
Q 2619 447 2909 1153 
Q 3100 1622 3100 2375 
Q 3100 3256 2806 3759 
Q 2509 4266 2016 4266 
z
" transform="scale(0.015625)"/>
       </defs>
       <use xlink:href="#IPAexGothic-30"/>
      </g>
     </g>
    </g>
    <g id="xtick_2">
     <g id="line2d_2">
      <g>
       <use xlink:href="#m0adad59138" x="138.082775" y="228.96" style="stroke: #000000; stroke-width: 0.8"/>
      </g>
     </g>
     <g id="text_2">
      <!-- 1 -->
      <g transform="translate(134.933556 243.450625) scale(0.1 -0.1)">
       <defs>
        <path id="IPAexGothic-31" d="M 2463 63 
L 1900 63 
L 1900 4103 
Q 1372 3922 788 3797 
L 684 4231 
Q 1519 4441 2106 4731 
L 2463 4731 
L 2463 63 
z
" transform="scale(0.015625)"/>
       </defs>
       <use xlink:href="#IPAexGothic-31"/>
      </g>
     </g>
    </g>
    <g id="xtick_3">
     <g id="line2d_3">
      <g>
       <use xlink:href="#m0adad59138" x="185.052472" y="228.96" style="stroke: #000000; stroke-width: 0.8"/>
      </g>
     </g>
     <g id="text_3">
      <!-- 2 -->
      <g transform="translate(181.903253 243.450625) scale(0.1 -0.1)">
       <defs>
        <path id="IPAexGothic-32" d="M 3659 63 
L 447 63 
L 447 594 
Q 825 1475 1894 2203 
L 2072 2322 
Q 2619 2697 2791 2906 
Q 2988 3153 2988 3444 
Q 2988 3772 2756 4003 
Q 2500 4259 2084 4259 
Q 1250 4259 991 3328 
L 497 3506 
Q 853 4725 2116 4725 
Q 2806 4725 3216 4316 
Q 3575 3947 3575 3425 
Q 3575 3038 3344 2722 
Q 3131 2416 2366 1938 
L 2231 1856 
Q 1256 1253 978 569 
L 3659 569 
L 3659 63 
z
" transform="scale(0.015625)"/>
       </defs>
       <use xlink:href="#IPAexGothic-32"/>
      </g>
     </g>
    </g>
    <g id="xtick_4">
     <g id="line2d_4">
      <g>
       <use xlink:href="#m0adad59138" x="232.022169" y="228.96" style="stroke: #000000; stroke-width: 0.8"/>
      </g>
     </g>
     <g id="text_4">
      <!-- 3 -->
      <g transform="translate(228.87295 243.450625) scale(0.1 -0.1)">
       <defs>
        <path id="IPAexGothic-33" d="M 2381 2419 
Q 3506 2216 3506 1278 
Q 3506 716 3128 356 
Q 2709 -31 1944 -31 
Q 797 -31 288 881 
L 756 1131 
Q 1109 441 1938 441 
Q 2425 441 2694 691 
Q 2950 928 2950 1291 
Q 2950 1719 2566 1978 
Q 2216 2213 1644 2213 
L 1363 2213 
L 1363 2669 
L 1656 2669 
Q 2231 2669 2534 2888 
Q 2859 3119 2859 3509 
Q 2859 3934 2494 4138 
Q 2259 4278 1931 4278 
Q 1238 4278 903 3578 
L 434 3803 
Q 897 4725 1938 4725 
Q 2597 4725 3006 4394 
Q 3416 4069 3416 3534 
Q 3416 3028 3019 2706 
Q 2763 2500 2381 2444 
L 2381 2419 
z
" transform="scale(0.015625)"/>
       </defs>
       <use xlink:href="#IPAexGothic-33"/>
      </g>
     </g>
    </g>
    <g id="xtick_5">
     <g id="line2d_5">
      <g>
       <use xlink:href="#m0adad59138" x="278.991866" y="228.96" style="stroke: #000000; stroke-width: 0.8"/>
      </g>
     </g>
     <g id="text_5">
      <!-- 4 -->
      <g transform="translate(275.842647 243.450625) scale(0.1 -0.1)">
       <defs>
        <path id="IPAexGothic-34" d="M 3813 1159 
L 3059 1159 
L 3059 63 
L 2547 63 
L 2547 1159 
L 197 1159 
L 197 1672 
L 2456 4678 
L 3059 4678 
L 3059 1634 
L 3813 1634 
L 3813 1159 
z
M 2578 4109 
L 2559 4109 
Q 2278 3656 2003 3284 
L 759 1634 
L 2547 1634 
L 2547 3144 
Q 2547 3481 2578 4109 
z
" transform="scale(0.015625)"/>
       </defs>
       <use xlink:href="#IPAexGothic-34"/>
      </g>
     </g>
    </g>
    <g id="xtick_6">
     <g id="line2d_6">
      <g>
       <use xlink:href="#m0adad59138" x="325.961562" y="228.96" style="stroke: #000000; stroke-width: 0.8"/>
      </g>
     </g>
     <g id="text_6">
      <!-- 5 -->
      <g transform="translate(322.812344 243.450625) scale(0.1 -0.1)">
       <defs>
        <path id="IPAexGothic-35" d="M 1178 2603 
Q 1634 2963 2172 2963 
Q 2816 2963 3241 2528 
Q 3638 2113 3638 1497 
Q 3638 938 3297 513 
Q 2869 -31 2031 -31 
Q 959 -31 469 784 
L 938 1028 
Q 1309 434 2013 434 
Q 2466 434 2769 716 
Q 3081 1013 3081 1503 
Q 3081 1966 2806 2241 
Q 2519 2528 2056 2528 
Q 1406 2528 1072 2028 
L 591 2091 
L 884 4634 
L 3406 4634 
L 3406 4153 
L 1341 4153 
L 1134 2603 
L 1178 2603 
z
" transform="scale(0.015625)"/>
       </defs>
       <use xlink:href="#IPAexGothic-35"/>
      </g>
     </g>
    </g>
    <g id="xtick_7">
     <g id="line2d_7">
      <g>
       <use xlink:href="#m0adad59138" x="372.931259" y="228.96" style="stroke: #000000; stroke-width: 0.8"/>
      </g>
     </g>
     <g id="text_7">
      <!-- 6 -->
      <g transform="translate(369.782041 243.450625) scale(0.1 -0.1)">
       <defs>
        <path id="IPAexGothic-36" d="M 1056 2328 
Q 1509 2981 2234 2981 
Q 2906 2981 3316 2513 
Q 3675 2106 3675 1522 
Q 3675 884 3272 434 
Q 2853 -31 2178 -31 
Q 1375 -31 922 581 
Q 481 1178 481 2228 
Q 481 3425 1013 4109 
Q 1494 4725 2272 4725 
Q 3191 4725 3609 4025 
L 3150 3775 
Q 2894 4266 2300 4266 
Q 1119 4266 1031 2328 
L 1056 2328 
z
M 2141 2547 
Q 1684 2547 1384 2206 
Q 1116 1900 1116 1541 
Q 1116 1156 1353 844 
Q 1672 428 2159 428 
Q 2669 428 2941 844 
Q 3125 1128 3125 1503 
Q 3125 1944 2881 2228 
Q 2600 2547 2141 2547 
z
" transform="scale(0.015625)"/>
       </defs>
       <use xlink:href="#IPAexGothic-36"/>
      </g>
     </g>
    </g>
    <g id="xtick_8">
     <g id="line2d_8">
      <g>
       <use xlink:href="#m0adad59138" x="419.900956" y="228.96" style="stroke: #000000; stroke-width: 0.8"/>
      </g>
     </g>
     <g id="text_8">
      <!-- 7 -->
      <g transform="translate(416.751738 243.450625) scale(0.1 -0.1)">
       <defs>
        <path id="IPAexGothic-37" d="M 3597 4263 
Q 2238 2106 1778 63 
L 1131 63 
Q 1581 1834 2950 4128 
L 428 4128 
L 428 4634 
L 3597 4634 
L 3597 4263 
z
" transform="scale(0.015625)"/>
       </defs>
       <use xlink:href="#IPAexGothic-37"/>
      </g>
     </g>
    </g>
    <g id="xtick_9">
     <g id="line2d_9">
      <g>
       <use xlink:href="#m0adad59138" x="466.870653" y="228.96" style="stroke: #000000; stroke-width: 0.8"/>
      </g>
     </g>
     <g id="text_9">
      <!-- 8 -->
      <g transform="translate(463.721435 243.450625) scale(0.1 -0.1)">
       <defs>
        <path id="IPAexGothic-38" d="M 2541 2425 
Q 3700 2031 3700 1197 
Q 3700 541 3100 197 
Q 2663 -56 2016 -56 
Q 1366 -56 928 197 
Q 347 531 347 1178 
Q 347 1988 1409 2381 
L 1409 2400 
Q 481 2734 481 3509 
Q 481 4100 981 4456 
Q 1406 4756 2019 4756 
Q 2703 4756 3131 4403 
Q 3553 4069 3553 3566 
Q 3553 2706 2541 2444 
L 2541 2425 
z
M 2022 2625 
Q 2997 2856 2997 3528 
Q 2997 3916 2675 4150 
Q 2413 4347 2016 4347 
Q 1606 4347 1331 4128 
Q 1050 3897 1050 3522 
Q 1050 3150 1350 2925 
Q 1494 2809 1722 2722 
Q 1984 2616 2022 2625 
z
M 1978 2209 
Q 922 1931 922 1216 
Q 922 775 1313 556 
Q 1606 391 2009 391 
Q 2575 391 2881 697 
Q 3106 922 3106 1250 
Q 3106 1594 2794 1850 
Q 2609 1994 2350 2100 
Q 2047 2222 1978 2209 
z
" transform="scale(0.015625)"/>
       </defs>
       <use xlink:href="#IPAexGothic-38"/>
      </g>
     </g>
    </g>
    <g id="xtick_10">
     <g id="line2d_10">
      <g>
       <use xlink:href="#m0adad59138" x="513.84035" y="228.96" style="stroke: #000000; stroke-width: 0.8"/>
      </g>
     </g>
     <g id="text_10">
      <!-- 9 -->
      <g transform="translate(510.691132 243.450625) scale(0.1 -0.1)">
       <defs>
        <path id="IPAexGothic-39" d="M 2984 2356 
Q 2544 1716 1813 1716 
Q 1253 1716 847 2056 
Q 366 2459 366 3163 
Q 366 3813 769 4266 
Q 1181 4725 1869 4725 
Q 2800 4725 3241 3950 
Q 3559 3378 3559 2472 
Q 3559 1250 3041 588 
Q 2553 -31 1769 -31 
Q 859 -31 391 703 
L 853 953 
Q 1156 428 1753 428 
Q 2922 428 3009 2356 
L 2984 2356 
z
M 1888 4278 
Q 1450 4278 1172 3950 
Q 922 3653 922 3200 
Q 922 2741 1159 2478 
Q 1434 2163 1906 2163 
Q 2431 2163 2728 2572 
Q 2925 2847 2925 3169 
Q 2925 3553 2694 3863 
Q 2375 4278 1888 4278 
z
" transform="scale(0.015625)"/>
       </defs>
       <use xlink:href="#IPAexGothic-39"/>
      </g>
     </g>
    </g>
    <g id="xtick_11">
     <g id="line2d_11">
      <g>
       <use xlink:href="#m0adad59138" x="560.810047" y="228.96" style="stroke: #000000; stroke-width: 0.8"/>
      </g>
     </g>
     <g id="text_11">
      <!-- RF -->
      <g transform="translate(554.71161 243.450625) scale(0.1 -0.1)">
       <defs>
        <path id="IPAexGothic-52" d="M 4072 63 
L 3394 63 
Q 3138 641 2828 1197 
Q 2584 1641 2344 1825 
Q 2050 2044 1625 2044 
L 1172 2044 
L 1172 63 
L 609 63 
L 609 4634 
L 2009 4634 
Q 2713 4634 3131 4378 
Q 3688 4044 3688 3381 
Q 3688 2784 3181 2459 
Q 2906 2272 2522 2216 
L 2522 2197 
Q 2941 2050 3247 1581 
Q 3516 1166 4072 63 
z
M 1172 2478 
L 1869 2478 
Q 3106 2478 3106 3369 
Q 3106 4181 1928 4181 
L 1172 4181 
L 1172 2478 
z
" transform="scale(0.015625)"/>
        <path id="IPAexGothic-46" d="M 3469 4141 
L 1172 4141 
L 1172 2656 
L 3206 2656 
L 3206 2188 
L 1172 2188 
L 1172 63 
L 609 63 
L 609 4634 
L 3469 4634 
L 3469 4141 
z
" transform="scale(0.015625)"/>
       </defs>
       <use xlink:href="#IPAexGothic-52"/>
       <use xlink:href="#IPAexGothic-46" transform="translate(64.794922 0)"/>
      </g>
     </g>
    </g>
    <g id="text_12">
     <!-- インデックス -->
     <g transform="translate(282.761563 260.137125) scale(0.144 -0.144)">
      <defs>
       <path id="IPAexGothic-30a4" d="M 3131 -231 
L 3131 2875 
Q 2091 2088 1106 1656 
L 781 2059 
Q 3016 3000 4469 4916 
L 4916 4641 
Q 4384 3938 3675 3316 
L 3675 -231 
L 3131 -231 
z
" transform="scale(0.015625)"/>
       <path id="IPAexGothic-30f3" d="M 2444 3084 
Q 1816 3656 1056 4084 
L 1381 4519 
Q 2063 4191 2816 3559 
L 2444 3084 
z
M 1100 609 
Q 3984 1106 5216 3828 
L 5619 3469 
Q 4413 794 1434 103 
L 1100 609 
z
" transform="scale(0.015625)"/>
       <path id="IPAexGothic-30c7" d="M 563 3072 
L 5741 3072 
L 5741 2613 
L 3578 2613 
Q 3538 1516 3134 872 
Q 2688 156 1663 -256 
L 1313 156 
Q 2338 538 2713 1166 
Q 3003 1644 3034 2613 
L 563 2613 
L 563 3072 
z
M 1406 4588 
L 4588 4588 
L 4588 4128 
L 1406 4128 
L 1406 4588 
z
M 6009 4469 
Q 5647 5009 5253 5338 
L 5553 5569 
Q 5938 5259 6328 4744 
L 6009 4469 
z
M 5413 4000 
Q 5125 4491 4678 4891 
L 4991 5131 
Q 5363 4825 5747 4275 
L 5413 4000 
z
" transform="scale(0.015625)"/>
       <path id="IPAexGothic-30c3" d="M 1775 1984 
Q 1553 2666 1275 3175 
L 1716 3391 
Q 2034 2866 2247 2209 
L 1775 1984 
z
M 3003 2297 
Q 2813 2978 2522 3469 
L 2978 3681 
Q 3291 3166 3484 2522 
L 3003 2297 
z
M 1928 372 
Q 3094 744 3731 1569 
Q 4275 2263 4469 3525 
L 4975 3406 
Q 4734 1975 4016 1119 
Q 3406 391 2266 -44 
L 1928 372 
z
" transform="scale(0.015625)"/>
       <path id="IPAexGothic-30af" d="M 4934 4191 
L 5272 3941 
Q 4894 2334 4031 1300 
Q 3275 391 2028 -225 
L 1656 184 
Q 2875 691 3641 1625 
Q 4403 2553 4691 3731 
L 2903 3731 
Q 2188 2653 1356 1959 
L 978 2309 
Q 2328 3400 2931 5022 
L 3422 4881 
Q 3363 4672 3141 4191 
L 4934 4191 
z
" transform="scale(0.015625)"/>
       <path id="IPAexGothic-30b9" d="M 4359 4481 
L 4716 4147 
Q 4328 3072 3647 2150 
Q 4659 1434 5659 453 
L 5234 19 
Q 4256 1088 3353 1778 
Q 2372 597 1044 -31 
L 653 403 
Q 3128 1453 4097 4000 
L 1241 3963 
L 1228 4453 
L 4359 4481 
z
" transform="scale(0.015625)"/>
      </defs>
      <use xlink:href="#IPAexGothic-30a4"/>
      <use xlink:href="#IPAexGothic-30f3" transform="translate(100 0)"/>
      <use xlink:href="#IPAexGothic-30c7" transform="translate(200 0)"/>
      <use xlink:href="#IPAexGothic-30c3" transform="translate(300 0)"/>
      <use xlink:href="#IPAexGothic-30af" transform="translate(400 0)"/>
      <use xlink:href="#IPAexGothic-30b9" transform="translate(500 0)"/>
     </g>
    </g>
   </g>
   <g id="matplotlib.axis_2">
    <g id="ytick_1">
     <g id="line2d_12">
      <defs>
       <path id="m1331ab44bb" d="M 0 0 
L -3.5 0 
" style="stroke: #000000; stroke-width: 0.8"/>
      </defs>
      <g>
       <use xlink:href="#m1331ab44bb" x="46.961563" y="228.96" style="stroke: #000000; stroke-width: 0.8"/>
      </g>
     </g>
     <g id="text_13">
      <!-- 0.0 -->
      <g transform="translate(24.7225 232.705312) scale(0.1 -0.1)">
       <defs>
        <path id="IPAexGothic-2e" d="M 1184 63 
L 494 63 
L 494 753 
L 1184 753 
L 1184 63 
z
" transform="scale(0.015625)"/>
       </defs>
       <use xlink:href="#IPAexGothic-30"/>
       <use xlink:href="#IPAexGothic-2e" transform="translate(62.988281 0)"/>
       <use xlink:href="#IPAexGothic-30" transform="translate(89.404297 0)"/>
      </g>
     </g>
    </g>
    <g id="ytick_2">
     <g id="line2d_13">
      <g>
       <use xlink:href="#m1331ab44bb" x="46.961563" y="203.032308" style="stroke: #000000; stroke-width: 0.8"/>
      </g>
     </g>
     <g id="text_14">
      <!-- 0.1 -->
      <g transform="translate(24.7225 206.777621) scale(0.1 -0.1)">
       <use xlink:href="#IPAexGothic-30"/>
       <use xlink:href="#IPAexGothic-2e" transform="translate(62.988281 0)"/>
       <use xlink:href="#IPAexGothic-31" transform="translate(89.404297 0)"/>
      </g>
     </g>
    </g>
    <g id="ytick_3">
     <g id="line2d_14">
      <g>
       <use xlink:href="#m1331ab44bb" x="46.961563" y="177.104617" style="stroke: #000000; stroke-width: 0.8"/>
      </g>
     </g>
     <g id="text_15">
      <!-- 0.2 -->
      <g transform="translate(24.7225 180.849929) scale(0.1 -0.1)">
       <use xlink:href="#IPAexGothic-30"/>
       <use xlink:href="#IPAexGothic-2e" transform="translate(62.988281 0)"/>
       <use xlink:href="#IPAexGothic-32" transform="translate(89.404297 0)"/>
      </g>
     </g>
    </g>
    <g id="ytick_4">
     <g id="line2d_15">
      <g>
       <use xlink:href="#m1331ab44bb" x="46.961563" y="151.176925" style="stroke: #000000; stroke-width: 0.8"/>
      </g>
     </g>
     <g id="text_16">
      <!-- 0.3 -->
      <g transform="translate(24.7225 154.922238) scale(0.1 -0.1)">
       <use xlink:href="#IPAexGothic-30"/>
       <use xlink:href="#IPAexGothic-2e" transform="translate(62.988281 0)"/>
       <use xlink:href="#IPAexGothic-33" transform="translate(89.404297 0)"/>
      </g>
     </g>
    </g>
    <g id="ytick_5">
     <g id="line2d_16">
      <g>
       <use xlink:href="#m1331ab44bb" x="46.961563" y="125.249234" style="stroke: #000000; stroke-width: 0.8"/>
      </g>
     </g>
     <g id="text_17">
      <!-- 0.4 -->
      <g transform="translate(24.7225 128.994546) scale(0.1 -0.1)">
       <use xlink:href="#IPAexGothic-30"/>
       <use xlink:href="#IPAexGothic-2e" transform="translate(62.988281 0)"/>
       <use xlink:href="#IPAexGothic-34" transform="translate(89.404297 0)"/>
      </g>
     </g>
    </g>
    <g id="ytick_6">
     <g id="line2d_17">
      <g>
       <use xlink:href="#m1331ab44bb" x="46.961563" y="99.321542" style="stroke: #000000; stroke-width: 0.8"/>
      </g>
     </g>
     <g id="text_18">
      <!-- 0.5 -->
      <g transform="translate(24.7225 103.066855) scale(0.1 -0.1)">
       <use xlink:href="#IPAexGothic-30"/>
       <use xlink:href="#IPAexGothic-2e" transform="translate(62.988281 0)"/>
       <use xlink:href="#IPAexGothic-35" transform="translate(89.404297 0)"/>
      </g>
     </g>
    </g>
    <g id="ytick_7">
     <g id="line2d_18">
      <g>
       <use xlink:href="#m1331ab44bb" x="46.961563" y="73.393851" style="stroke: #000000; stroke-width: 0.8"/>
      </g>
     </g>
     <g id="text_19">
      <!-- 0.6 -->
      <g transform="translate(24.7225 77.139163) scale(0.1 -0.1)">
       <use xlink:href="#IPAexGothic-30"/>
       <use xlink:href="#IPAexGothic-2e" transform="translate(62.988281 0)"/>
       <use xlink:href="#IPAexGothic-36" transform="translate(89.404297 0)"/>
      </g>
     </g>
    </g>
    <g id="ytick_8">
     <g id="line2d_19">
      <g>
       <use xlink:href="#m1331ab44bb" x="46.961563" y="47.466159" style="stroke: #000000; stroke-width: 0.8"/>
      </g>
     </g>
     <g id="text_20">
      <!-- 0.7 -->
      <g transform="translate(24.7225 51.211472) scale(0.1 -0.1)">
       <use xlink:href="#IPAexGothic-30"/>
       <use xlink:href="#IPAexGothic-2e" transform="translate(62.988281 0)"/>
       <use xlink:href="#IPAexGothic-37" transform="translate(89.404297 0)"/>
      </g>
     </g>
    </g>
    <g id="ytick_9">
     <g id="line2d_20">
      <g>
       <use xlink:href="#m1331ab44bb" x="46.961563" y="21.538468" style="stroke: #000000; stroke-width: 0.8"/>
      </g>
     </g>
     <g id="text_21">
      <!-- 0.8 -->
      <g transform="translate(24.7225 25.28378) scale(0.1 -0.1)">
       <use xlink:href="#IPAexGothic-30"/>
       <use xlink:href="#IPAexGothic-2e" transform="translate(62.988281 0)"/>
       <use xlink:href="#IPAexGothic-38" transform="translate(89.404297 0)"/>
      </g>
     </g>
    </g>
    <g id="text_22">
     <!-- ROC-AUC -->
     <g transform="translate(17.9865 151.468875) rotate(-90) scale(0.144 -0.144)">
      <defs>
       <path id="IPAexGothic-4f" d="M 2541 4725 
Q 3456 4725 4044 4138 
Q 4709 3472 4709 2331 
Q 4709 1219 4031 550 
Q 3450 -31 2541 -31 
Q 1638 -31 1056 550 
Q 378 1219 378 2356 
Q 378 3469 1044 4138 
Q 1631 4725 2541 4725 
z
M 2541 4266 
Q 1953 4266 1531 3844 
Q 994 3303 994 2350 
Q 994 1391 1531 863 
Q 1947 447 2541 447 
Q 3131 447 3556 863 
Q 4094 1400 4094 2375 
Q 4094 3297 3550 3844 
Q 3138 4266 2541 4266 
z
" transform="scale(0.015625)"/>
       <path id="IPAexGothic-43" d="M 4353 1088 
Q 4181 694 3859 428 
Q 3313 -31 2559 -31 
Q 1588 -31 959 653 
Q 378 1294 378 2331 
Q 378 3406 1013 4078 
Q 1619 4725 2534 4725 
Q 3813 4725 4322 3628 
L 3809 3391 
Q 3425 4238 2541 4238 
Q 1891 4238 1453 3744 
Q 994 3216 994 2322 
Q 994 1550 1384 1056 
Q 1841 472 2563 472 
Q 3456 472 3878 1319 
L 4353 1088 
z
" transform="scale(0.015625)"/>
       <path id="IPAexGothic-2d" d="M 1969 1703 
L 319 1703 
L 319 2203 
L 1969 2203 
L 1969 1703 
z
" transform="scale(0.015625)"/>
       <path id="IPAexGothic-41" d="M 4056 63 
L 3444 63 
L 2938 1409 
L 1100 1409 
L 603 63 
L -6 63 
L 1806 4666 
L 2259 4666 
L 4056 63 
z
M 2778 1863 
L 2316 3078 
Q 2125 3588 2028 4000 
L 2009 4000 
Q 1897 3563 1716 3078 
L 1263 1863 
L 2778 1863 
z
" transform="scale(0.015625)"/>
       <path id="IPAexGothic-55" d="M 4219 4634 
L 4219 1631 
Q 4219 994 3906 594 
Q 3400 -63 2388 -63 
Q 1372 -63 856 594 
Q 550 988 550 1631 
L 550 4634 
L 1113 4634 
L 1113 1700 
Q 1113 1134 1388 831 
Q 1753 428 2388 428 
Q 3031 428 3388 831 
Q 3663 1144 3663 1700 
L 3663 4634 
L 4219 4634 
z
" transform="scale(0.015625)"/>
      </defs>
      <use xlink:href="#IPAexGothic-52"/>
      <use xlink:href="#IPAexGothic-4f" transform="translate(64.794922 0)"/>
      <use xlink:href="#IPAexGothic-43" transform="translate(144.482422 0)"/>
      <use xlink:href="#IPAexGothic-2d" transform="translate(216.992188 0)"/>
      <use xlink:href="#IPAexGothic-41" transform="translate(252.783203 0)"/>
      <use xlink:href="#IPAexGothic-55" transform="translate(316.503906 0)"/>
      <use xlink:href="#IPAexGothic-43" transform="translate(391.210938 0)"/>
     </g>
    </g>
   </g>
   <g id="legend_1">
    <g id="patch_14">
     <path d="M 444.161562 62.1375 
L 590.561563 62.1375 
Q 592.961563 62.1375 592.961563 59.7375 
L 592.961563 21.6 
Q 592.961563 19.2 590.561563 19.2 
L 444.161562 19.2 
Q 441.761562 19.2 441.761562 21.6 
L 441.761562 59.7375 
Q 441.761562 62.1375 444.161562 62.1375 
z
" style="fill: #ffffff; opacity: 0.8; stroke: #cccccc; stroke-linejoin: miter"/>
    </g>
    <g id="patch_15">
     <path d="M 446.561562 32.98875 
L 470.561562 32.98875 
L 470.561562 24.58875 
L 446.561562 24.58875 
z
" style="fill: #264653"/>
    </g>
    <g id="text_23">
     <!-- 各決定木 -->
     <g transform="translate(480.161563 32.98875) scale(0.12 -0.12)">
      <defs>
       <path id="IPAexGothic-5404" d="M 4991 1906 
L 4991 -447 
L 4522 -447 
L 4522 -122 
L 1925 -122 
L 1925 -447 
L 1456 -447 
L 1456 1778 
Q 1116 1631 619 1453 
L 325 1850 
Q 1703 2213 2903 3078 
Q 2422 3500 2047 3969 
Q 1594 3431 906 2956 
L 619 3309 
Q 1734 4053 2450 5338 
L 2922 5228 
Q 2734 4913 2666 4813 
L 4663 4813 
L 4900 4581 
Q 4313 3738 3588 3091 
Q 4509 2459 6034 2144 
L 5753 1709 
Q 4188 2138 3244 2809 
Q 2572 2300 1747 1906 
L 4991 1906 
z
M 1925 1509 
L 1925 269 
L 4522 269 
L 4522 1509 
L 1925 1509 
z
M 3244 3347 
Q 3809 3813 4253 4422 
L 2403 4422 
Q 2328 4319 2297 4275 
Q 2759 3722 3244 3347 
z
" transform="scale(0.015625)"/>
       <path id="IPAexGothic-6c7a" d="M 4116 2081 
Q 4659 809 6003 84 
L 5656 -338 
Q 4281 500 3775 1884 
Q 3766 1853 3756 1806 
Q 3497 394 2078 -441 
L 1738 -38 
Q 3138 625 3391 2081 
L 1969 2081 
L 1969 2497 
L 3422 2497 
L 3422 3750 
L 2322 3750 
L 2322 4153 
L 3422 4153 
L 3422 5313 
L 3891 5313 
L 3891 4153 
L 5234 4153 
L 5234 2497 
L 6003 2497 
L 6003 2081 
L 4116 2081 
z
M 4788 3750 
L 3891 3750 
L 3891 2497 
L 4788 2497 
L 4788 3750 
z
M 1691 3769 
Q 1203 4344 703 4709 
L 1025 5044 
Q 1544 4675 2022 4147 
L 1691 3769 
z
M 1453 2278 
Q 1016 2772 441 3206 
L 756 3547 
Q 1278 3188 1778 2656 
L 1453 2278 
z
M 391 19 
Q 1063 800 1613 1966 
L 1966 1656 
Q 1394 428 750 -397 
L 391 19 
z
" transform="scale(0.015625)"/>
       <path id="IPAexGothic-5b9a" d="M 3431 303 
Q 3931 225 4709 225 
Q 5191 225 6053 263 
Q 5963 59 5888 -228 
Q 5234 -250 4844 -250 
Q 3569 -250 3003 -78 
Q 2259 153 1750 903 
Q 1441 163 806 -459 
L 475 -75 
Q 1416 759 1684 2419 
L 2125 2303 
Q 2031 1756 1909 1356 
Q 2338 678 2972 416 
L 2972 2944 
L 1434 2944 
L 1434 3353 
L 4959 3353 
L 4959 2944 
L 3431 2944 
L 3431 1984 
L 5397 1984 
L 5397 1569 
L 3431 1569 
L 3431 303 
z
M 3419 4428 
L 5750 4428 
L 5750 3166 
L 5275 3166 
L 5275 4025 
L 1122 4025 
L 1122 3166 
L 647 3166 
L 647 4428 
L 2938 4428 
L 2938 5313 
L 3419 5313 
L 3419 4428 
z
" transform="scale(0.015625)"/>
       <path id="IPAexGothic-6728" d="M 3547 3328 
Q 4384 1728 6088 838 
L 5728 353 
Q 4134 1459 3425 2797 
L 3425 -384 
L 2931 -384 
L 2931 2731 
Q 2272 1253 731 191 
L 372 594 
Q 2013 1584 2803 3328 
L 481 3328 
L 481 3769 
L 2931 3769 
L 2931 5150 
L 3425 5150 
L 3425 3769 
L 5922 3769 
L 5922 3328 
L 3547 3328 
z
" transform="scale(0.015625)"/>
      </defs>
      <use xlink:href="#IPAexGothic-5404"/>
      <use xlink:href="#IPAexGothic-6c7a" transform="translate(100 0)"/>
      <use xlink:href="#IPAexGothic-5b9a" transform="translate(200 0)"/>
      <use xlink:href="#IPAexGothic-6728" transform="translate(300 0)"/>
     </g>
    </g>
    <g id="patch_16">
     <path d="M 446.561562 55.0575 
L 470.561562 55.0575 
L 470.561562 46.6575 
L 446.561562 46.6575 
z
" style="fill: #2a9d8f"/>
    </g>
    <g id="text_24">
     <!-- ランダムフォレスト -->
     <g transform="translate(480.161563 55.0575) scale(0.12 -0.12)">
      <defs>
       <path id="IPAexGothic-30e9" d="M 1447 4709 
L 4922 4709 
L 4922 4234 
L 1447 4234 
L 1447 4709 
z
M 897 3303 
L 5172 3303 
L 5478 3013 
Q 5069 1669 4219 875 
Q 3475 181 2306 -181 
L 1972 294 
Q 4150 784 4834 2828 
L 897 2828 
L 897 3303 
z
" transform="scale(0.015625)"/>
       <path id="IPAexGothic-30c0" d="M 4806 4219 
L 5141 3944 
Q 4625 2388 3884 1416 
Q 3019 281 1650 -344 
L 1294 66 
Q 1959 338 2441 694 
Q 2881 1022 3359 1556 
Q 2747 2181 1972 2747 
Q 1431 2159 1000 1831 
L 653 2191 
Q 2144 3284 2694 4988 
L 3188 4853 
Q 3153 4731 2938 4219 
L 4806 4219 
z
M 2722 3772 
Q 2538 3478 2266 3125 
Q 3022 2572 3669 1959 
Q 4194 2763 4575 3772 
L 2722 3772 
z
M 6009 4469 
Q 5647 5009 5256 5338 
L 5556 5569 
Q 5941 5259 6331 4744 
L 6009 4469 
z
M 5397 4031 
Q 5106 4522 4659 4922 
L 4972 5166 
Q 5344 4856 5728 4306 
L 5397 4031 
z
" transform="scale(0.015625)"/>
       <path id="IPAexGothic-30e0" d="M 609 891 
L 719 897 
L 884 903 
Q 1053 916 1263 925 
Q 1413 931 1447 934 
Q 2291 2888 2856 4706 
L 3394 4525 
Q 2841 2859 2019 981 
Q 3553 1109 4659 1275 
Q 4200 1950 3669 2588 
L 4122 2838 
Q 5075 1700 5788 513 
L 5319 194 
Q 5038 691 4922 866 
Q 2919 509 822 328 
L 609 891 
z
" transform="scale(0.015625)"/>
       <path id="IPAexGothic-30d5" d="M 4966 4294 
L 5263 4019 
Q 4819 894 1966 -97 
L 1600 353 
Q 4234 1156 4684 3822 
L 1044 3756 
L 1044 4244 
L 4966 4294 
z
" transform="scale(0.015625)"/>
       <path id="IPAexGothic-30a9" d="M 3506 3975 
L 3975 3975 
L 3975 3016 
L 5113 3016 
L 5113 2588 
L 3994 2588 
L 3994 378 
Q 3994 -128 3409 -128 
Q 3075 -128 2738 -72 
L 2641 409 
Q 3069 325 3334 325 
Q 3525 325 3525 531 
L 3525 2259 
Q 2753 1003 1425 288 
L 1075 647 
Q 2481 1350 3263 2553 
L 1325 2553 
L 1325 2981 
L 3506 2981 
L 3506 3975 
z
" transform="scale(0.015625)"/>
       <path id="IPAexGothic-30ec" d="M 1538 4706 
L 2075 4706 
L 2075 622 
Q 4059 1375 5172 2894 
L 5481 2431 
Q 4922 1678 3931 1019 
Q 2919 334 1928 -31 
L 1538 269 
L 1538 4706 
z
" transform="scale(0.015625)"/>
       <path id="IPAexGothic-30c8" d="M 2284 4997 
L 2803 4997 
L 2803 3206 
Q 4088 2619 5216 1888 
L 4878 1369 
Q 3819 2175 2803 2688 
L 2803 -184 
L 2284 -184 
L 2284 4997 
z
" transform="scale(0.015625)"/>
      </defs>
      <use xlink:href="#IPAexGothic-30e9"/>
      <use xlink:href="#IPAexGothic-30f3" transform="translate(100 0)"/>
      <use xlink:href="#IPAexGothic-30c0" transform="translate(200 0)"/>
      <use xlink:href="#IPAexGothic-30e0" transform="translate(300 0)"/>
      <use xlink:href="#IPAexGothic-30d5" transform="translate(400 0)"/>
      <use xlink:href="#IPAexGothic-30a9" transform="translate(500 0)"/>
      <use xlink:href="#IPAexGothic-30ec" transform="translate(600 0)"/>
      <use xlink:href="#IPAexGothic-30b9" transform="translate(700 0)"/>
      <use xlink:href="#IPAexGothic-30c8" transform="translate(800 0)"/>
     </g>
    </g>
   </g>
  </g>
 </g>
 <defs>
  <clipPath id="p26feda78dc">
   <rect x="46.961563" y="7.2" width="558" height="221.76"/>
  </clipPath>
 </defs>
</svg>
