<?xml version="1.0" encoding="utf-8" standalone="no"?>
<!DOCTYPE svg PUBLIC "-//W3C//DTD SVG 1.1//EN"
  "http://www.w3.org/Graphics/SVG/1.1/DTD/svg11.dtd">
<svg xmlns:xlink="http://www.w3.org/1999/xlink" width="619.237014pt" height="270.205875pt" viewBox="0 0 619.237014 270.205875" xmlns="http://www.w3.org/2000/svg" version="1.1">
 <metadata>
  <rdf:RDF xmlns:dc="http://purl.org/dc/elements/1.1/" xmlns:cc="http://creativecommons.org/ns#" xmlns:rdf="http://www.w3.org/1999/02/22-rdf-syntax-ns#">
   <cc:Work>
    <dc:type rdf:resource="http://purl.org/dc/dcmitype/StillImage"/>
    <dc:date>2025-10-29T22:59:45.033096</dc:date>
    <dc:format>image/svg+xml</dc:format>
    <dc:creator>
     <cc:Agent>
      <dc:title>Matplotlib v3.10.7, https://matplotlib.org/</dc:title>
     </cc:Agent>
    </dc:creator>
   </cc:Work>
  </rdf:RDF>
 </metadata>
 <defs>
  <style type="text/css">*{stroke-linejoin: round; stroke-linecap: butt}</style>
 </defs>
 <g id="figure_1">
  <g id="patch_1">
   <path d="M 0 270.205875 
L 619.237014 270.205875 
L 619.237014 0 
L 0 0 
z
" style="fill: #ffffff"/>
  </g>
  <g id="axes_1">
   <g id="patch_2">
    <path d="M 53.26 228.96 
L 611.26 228.96 
L 611.26 7.2 
L 53.26 7.2 
z
" style="fill: #ffffff"/>
   </g>
   <g id="patch_3">
    <path d="M 78.623636 217.038343 
L 99.119504 217.038343 
L 99.119504 218.88 
L 78.623636 218.88 
z
" clip-path="url(#p4a34a04d4e)" style="fill: #264653"/>
   </g>
   <g id="patch_4">
    <path d="M 104.243471 217.038343 
L 124.739339 217.038343 
L 124.739339 65.163069 
L 104.243471 65.163069 
z
" clip-path="url(#p4a34a04d4e)" style="fill: #264653"/>
   </g>
   <g id="patch_5">
    <path d="M 129.863306 217.038343 
L 150.359174 217.038343 
L 150.359174 216.424458 
L 129.863306 216.424458 
z
" clip-path="url(#p4a34a04d4e)" style="fill: #264653"/>
   </g>
   <g id="patch_6">
    <path d="M 155.48314 217.038343 
L 175.979008 217.038343 
L 175.979008 216.424458 
L 155.48314 216.424458 
z
" clip-path="url(#p4a34a04d4e)" style="fill: #264653"/>
   </g>
   <g id="patch_7">
    <path d="M 181.102975 217.038343 
L 201.598843 217.038343 
L 201.598843 218.634446 
L 181.102975 218.634446 
z
" clip-path="url(#p4a34a04d4e)" style="fill: #264653"/>
   </g>
   <g id="patch_8">
    <path d="M 206.72281 217.038343 
L 227.218678 217.038343 
L 227.218678 205.128965 
L 206.72281 205.128965 
z
" clip-path="url(#p4a34a04d4e)" style="fill: #264653"/>
   </g>
   <g id="patch_9">
    <path d="M 232.342645 217.038343 
L 252.838512 217.038343 
L 252.838512 215.687795 
L 232.342645 215.687795 
z
" clip-path="url(#p4a34a04d4e)" style="fill: #264653"/>
   </g>
   <g id="patch_10">
    <path d="M 257.962479 217.038343 
L 278.458347 217.038343 
L 278.458347 57.305335 
L 257.962479 57.305335 
z
" clip-path="url(#p4a34a04d4e)" style="fill: #264653"/>
   </g>
   <g id="patch_11">
    <path d="M 283.582314 217.038343 
L 304.078182 217.038343 
L 304.078182 203.655639 
L 283.582314 203.655639 
z
" clip-path="url(#p4a34a04d4e)" style="fill: #264653"/>
   </g>
   <g id="patch_12">
    <path d="M 309.202149 217.038343 
L 329.698017 217.038343 
L 329.698017 215.93335 
L 309.202149 215.93335 
z
" clip-path="url(#p4a34a04d4e)" style="fill: #264653"/>
   </g>
   <g id="patch_13">
    <path d="M 334.821983 217.038343 
L 355.317851 217.038343 
L 355.317851 214.951133 
L 334.821983 214.951133 
z
" clip-path="url(#p4a34a04d4e)" style="fill: #264653"/>
   </g>
   <g id="patch_14">
    <path d="M 360.441818 217.038343 
L 380.937686 217.038343 
L 380.937686 215.07391 
L 360.441818 215.07391 
z
" clip-path="url(#p4a34a04d4e)" style="fill: #264653"/>
   </g>
   <g id="patch_15">
    <path d="M 386.061653 217.038343 
L 406.557521 217.038343 
L 406.557521 215.565018 
L 386.061653 215.565018 
z
" clip-path="url(#p4a34a04d4e)" style="fill: #264653"/>
   </g>
   <g id="patch_16">
    <path d="M 411.681488 217.038343 
L 432.177355 217.038343 
L 432.177355 207.584507 
L 411.681488 207.584507 
z
" clip-path="url(#p4a34a04d4e)" style="fill: #264653"/>
   </g>
   <g id="patch_17">
    <path d="M 437.301322 217.038343 
L 457.79719 217.038343 
L 457.79719 214.091693 
L 437.301322 214.091693 
z
" clip-path="url(#p4a34a04d4e)" style="fill: #264653"/>
   </g>
   <g id="patch_18">
    <path d="M 462.921157 217.038343 
L 483.417025 217.038343 
L 483.417025 187.571839 
L 462.921157 187.571839 
z
" clip-path="url(#p4a34a04d4e)" style="fill: #264653"/>
   </g>
   <g id="patch_19">
    <path d="M 488.540992 217.038343 
L 509.03686 217.038343 
L 509.03686 17.28 
L 488.540992 17.28 
z
" clip-path="url(#p4a34a04d4e)" style="fill: #264653"/>
   </g>
   <g id="patch_20">
    <path d="M 514.160826 217.038343 
L 534.656694 217.038343 
L 534.656694 182.783532 
L 514.160826 182.783532 
z
" clip-path="url(#p4a34a04d4e)" style="fill: #264653"/>
   </g>
   <g id="patch_21">
    <path d="M 539.780661 217.038343 
L 560.276529 217.038343 
L 560.276529 208.935055 
L 539.780661 208.935055 
z
" clip-path="url(#p4a34a04d4e)" style="fill: #264653"/>
   </g>
   <g id="patch_22">
    <path d="M 565.400496 217.038343 
L 585.896364 217.038343 
L 585.896364 166.331401 
L 565.400496 166.331401 
z
" clip-path="url(#p4a34a04d4e)" style="fill: #264653"/>
   </g>
   <g id="matplotlib.axis_1">
    <g id="xtick_1">
     <g id="line2d_1">
      <defs>
       <path id="m3a0172ccd3" d="M 0 0 
L 0 3.5 
" style="stroke: #000000; stroke-width: 0.8"/>
      </defs>
      <g>
       <use xlink:href="#m3a0172ccd3" x="88.87157" y="228.96" style="stroke: #000000; stroke-width: 0.8"/>
      </g>
     </g>
     <g id="text_1">
      <!-- 0.0 -->
      <g transform="translate(81.252039 243.450625) scale(0.1 -0.1)">
       <defs>
        <path id="IPAexGothic-30" d="M 2038 4725 
Q 2881 4725 3334 3944 
Q 3694 3325 3694 2344 
Q 3694 1372 3334 741 
Q 2888 -31 2016 -31 
Q 1147 -31 700 741 
Q 341 1372 341 2350 
Q 341 3713 1000 4334 
Q 1419 4725 2038 4725 
z
M 2016 4266 
Q 1516 4266 1228 3759 
Q 934 3247 934 2344 
Q 934 1456 1222 947 
Q 1513 447 2016 447 
Q 2619 447 2909 1153 
Q 3100 1622 3100 2375 
Q 3100 3256 2806 3759 
Q 2509 4266 2016 4266 
z
" transform="scale(0.015625)"/>
        <path id="IPAexGothic-2e" d="M 1184 63 
L 494 63 
L 494 753 
L 1184 753 
L 1184 63 
z
" transform="scale(0.015625)"/>
       </defs>
       <use xlink:href="#IPAexGothic-30"/>
       <use xlink:href="#IPAexGothic-2e" transform="translate(62.988281 0)"/>
       <use xlink:href="#IPAexGothic-30" transform="translate(89.404297 0)"/>
      </g>
     </g>
    </g>
    <g id="xtick_2">
     <g id="line2d_2">
      <g>
       <use xlink:href="#m3a0172ccd3" x="152.921157" y="228.96" style="stroke: #000000; stroke-width: 0.8"/>
      </g>
     </g>
     <g id="text_2">
      <!-- 2.5 -->
      <g transform="translate(145.301626 243.450625) scale(0.1 -0.1)">
       <defs>
        <path id="IPAexGothic-32" d="M 3659 63 
L 447 63 
L 447 594 
Q 825 1475 1894 2203 
L 2072 2322 
Q 2619 2697 2791 2906 
Q 2988 3153 2988 3444 
Q 2988 3772 2756 4003 
Q 2500 4259 2084 4259 
Q 1250 4259 991 3328 
L 497 3506 
Q 853 4725 2116 4725 
Q 2806 4725 3216 4316 
Q 3575 3947 3575 3425 
Q 3575 3038 3344 2722 
Q 3131 2416 2366 1938 
L 2231 1856 
Q 1256 1253 978 569 
L 3659 569 
L 3659 63 
z
" transform="scale(0.015625)"/>
        <path id="IPAexGothic-35" d="M 1178 2603 
Q 1634 2963 2172 2963 
Q 2816 2963 3241 2528 
Q 3638 2113 3638 1497 
Q 3638 938 3297 513 
Q 2869 -31 2031 -31 
Q 959 -31 469 784 
L 938 1028 
Q 1309 434 2013 434 
Q 2466 434 2769 716 
Q 3081 1013 3081 1503 
Q 3081 1966 2806 2241 
Q 2519 2528 2056 2528 
Q 1406 2528 1072 2028 
L 591 2091 
L 884 4634 
L 3406 4634 
L 3406 4153 
L 1341 4153 
L 1134 2603 
L 1178 2603 
z
" transform="scale(0.015625)"/>
       </defs>
       <use xlink:href="#IPAexGothic-32"/>
       <use xlink:href="#IPAexGothic-2e" transform="translate(62.988281 0)"/>
       <use xlink:href="#IPAexGothic-35" transform="translate(89.404297 0)"/>
      </g>
     </g>
    </g>
    <g id="xtick_3">
     <g id="line2d_3">
      <g>
       <use xlink:href="#m3a0172ccd3" x="216.970744" y="228.96" style="stroke: #000000; stroke-width: 0.8"/>
      </g>
     </g>
     <g id="text_3">
      <!-- 5.0 -->
      <g transform="translate(209.351213 243.450625) scale(0.1 -0.1)">
       <use xlink:href="#IPAexGothic-35"/>
       <use xlink:href="#IPAexGothic-2e" transform="translate(62.988281 0)"/>
       <use xlink:href="#IPAexGothic-30" transform="translate(89.404297 0)"/>
      </g>
     </g>
    </g>
    <g id="xtick_4">
     <g id="line2d_4">
      <g>
       <use xlink:href="#m3a0172ccd3" x="281.020331" y="228.96" style="stroke: #000000; stroke-width: 0.8"/>
      </g>
     </g>
     <g id="text_4">
      <!-- 7.5 -->
      <g transform="translate(273.400799 243.450625) scale(0.1 -0.1)">
       <defs>
        <path id="IPAexGothic-37" d="M 3597 4263 
Q 2238 2106 1778 63 
L 1131 63 
Q 1581 1834 2950 4128 
L 428 4128 
L 428 4634 
L 3597 4634 
L 3597 4263 
z
" transform="scale(0.015625)"/>
       </defs>
       <use xlink:href="#IPAexGothic-37"/>
       <use xlink:href="#IPAexGothic-2e" transform="translate(62.988281 0)"/>
       <use xlink:href="#IPAexGothic-35" transform="translate(89.404297 0)"/>
      </g>
     </g>
    </g>
    <g id="xtick_5">
     <g id="line2d_5">
      <g>
       <use xlink:href="#m3a0172ccd3" x="345.069917" y="228.96" style="stroke: #000000; stroke-width: 0.8"/>
      </g>
     </g>
     <g id="text_5">
      <!-- 10.0 -->
      <g transform="translate(334.301167 243.450625) scale(0.1 -0.1)">
       <defs>
        <path id="IPAexGothic-31" d="M 2463 63 
L 1900 63 
L 1900 4103 
Q 1372 3922 788 3797 
L 684 4231 
Q 1519 4441 2106 4731 
L 2463 4731 
L 2463 63 
z
" transform="scale(0.015625)"/>
       </defs>
       <use xlink:href="#IPAexGothic-31"/>
       <use xlink:href="#IPAexGothic-30" transform="translate(62.988281 0)"/>
       <use xlink:href="#IPAexGothic-2e" transform="translate(125.976562 0)"/>
       <use xlink:href="#IPAexGothic-30" transform="translate(152.392578 0)"/>
      </g>
     </g>
    </g>
    <g id="xtick_6">
     <g id="line2d_6">
      <g>
       <use xlink:href="#m3a0172ccd3" x="409.119504" y="228.96" style="stroke: #000000; stroke-width: 0.8"/>
      </g>
     </g>
     <g id="text_6">
      <!-- 12.5 -->
      <g transform="translate(398.350754 243.450625) scale(0.1 -0.1)">
       <use xlink:href="#IPAexGothic-31"/>
       <use xlink:href="#IPAexGothic-32" transform="translate(62.988281 0)"/>
       <use xlink:href="#IPAexGothic-2e" transform="translate(125.976562 0)"/>
       <use xlink:href="#IPAexGothic-35" transform="translate(152.392578 0)"/>
      </g>
     </g>
    </g>
    <g id="xtick_7">
     <g id="line2d_7">
      <g>
       <use xlink:href="#m3a0172ccd3" x="473.169091" y="228.96" style="stroke: #000000; stroke-width: 0.8"/>
      </g>
     </g>
     <g id="text_7">
      <!-- 15.0 -->
      <g transform="translate(462.400341 243.450625) scale(0.1 -0.1)">
       <use xlink:href="#IPAexGothic-31"/>
       <use xlink:href="#IPAexGothic-35" transform="translate(62.988281 0)"/>
       <use xlink:href="#IPAexGothic-2e" transform="translate(125.976562 0)"/>
       <use xlink:href="#IPAexGothic-30" transform="translate(152.392578 0)"/>
      </g>
     </g>
    </g>
    <g id="xtick_8">
     <g id="line2d_8">
      <g>
       <use xlink:href="#m3a0172ccd3" x="537.218678" y="228.96" style="stroke: #000000; stroke-width: 0.8"/>
      </g>
     </g>
     <g id="text_8">
      <!-- 17.5 -->
      <g transform="translate(526.449928 243.450625) scale(0.1 -0.1)">
       <use xlink:href="#IPAexGothic-31"/>
       <use xlink:href="#IPAexGothic-37" transform="translate(62.988281 0)"/>
       <use xlink:href="#IPAexGothic-2e" transform="translate(125.976562 0)"/>
       <use xlink:href="#IPAexGothic-35" transform="translate(152.392578 0)"/>
      </g>
     </g>
    </g>
    <g id="xtick_9">
     <g id="line2d_9">
      <g>
       <use xlink:href="#m3a0172ccd3" x="601.268264" y="228.96" style="stroke: #000000; stroke-width: 0.8"/>
      </g>
     </g>
     <g id="text_9">
      <!-- 20.0 -->
      <g transform="translate(590.499514 243.450625) scale(0.1 -0.1)">
       <use xlink:href="#IPAexGothic-32"/>
       <use xlink:href="#IPAexGothic-30" transform="translate(62.988281 0)"/>
       <use xlink:href="#IPAexGothic-2e" transform="translate(125.976562 0)"/>
       <use xlink:href="#IPAexGothic-30" transform="translate(152.392578 0)"/>
      </g>
     </g>
    </g>
    <g id="text_10">
     <!-- 特徴のインデックス -->
     <g transform="translate(267.46 260.269875) scale(0.144 -0.144)">
      <defs>
       <path id="IPAexGothic-7279" d="M 1025 3950 
L 1434 3950 
L 1434 5313 
L 1875 5313 
L 1875 3950 
L 2534 3950 
L 2534 3547 
L 1875 3547 
L 1875 2216 
Q 2084 2313 2494 2516 
L 2547 2106 
Q 2281 1963 1856 1750 
L 1856 -447 
L 1416 -447 
L 1416 1538 
Q 1028 1359 538 1153 
L 313 1581 
Q 778 1744 1434 2019 
L 1434 3547 
L 947 3547 
Q 828 3013 647 2556 
L 275 2803 
Q 584 3600 691 4744 
L 1131 4688 
Q 1091 4291 1025 3950 
z
M 3872 4372 
L 3872 5313 
L 4313 5313 
L 4313 4372 
L 5738 4372 
L 5738 3981 
L 4313 3981 
L 4313 3200 
L 6072 3200 
L 6072 2803 
L 5106 2803 
L 5106 2047 
L 5956 2047 
L 5956 1650 
L 5125 1650 
L 5125 38 
Q 5125 -447 4594 -447 
Q 4288 -447 3788 -391 
L 3691 78 
Q 4181 0 4491 0 
Q 4684 0 4684 172 
L 4684 1650 
L 2609 1650 
L 2609 2047 
L 4666 2047 
L 4666 2803 
L 2400 2803 
L 2400 3200 
L 3872 3200 
L 3872 3981 
L 2653 3981 
L 2653 4372 
L 3872 4372 
z
M 3550 384 
Q 3216 959 2834 1331 
L 3172 1575 
Q 3641 1116 3916 672 
L 3550 384 
z
" transform="scale(0.015625)"/>
       <path id="IPAexGothic-5fb4" d="M 5656 3775 
L 5656 3697 
Q 5597 2178 5228 1188 
Q 5678 478 6181 31 
L 5900 -419 
Q 5375 125 5016 741 
Q 4591 -3 3941 -500 
L 3616 -138 
Q 4372 331 4788 1163 
Q 4441 1838 4269 2759 
Q 4131 2388 3953 2078 
L 3697 2413 
L 3072 2413 
L 3072 1784 
L 3788 1784 
L 3788 1425 
L 3072 1425 
L 3072 747 
Q 3600 866 4063 1003 
L 4081 625 
Q 3147 297 1784 25 
L 1631 459 
Q 2194 553 2656 650 
L 2656 1425 
L 1856 1425 
L 1856 1784 
L 2656 1784 
L 2656 2413 
L 1663 2413 
L 1663 2784 
L 3838 2784 
Q 4222 3697 4422 5259 
L 4844 5197 
Q 4775 4688 4672 4178 
L 6059 4178 
L 6059 3775 
L 5656 3775 
z
M 5253 3775 
L 4575 3775 
Q 4516 3525 4497 3463 
L 4509 3391 
Q 4638 2475 4966 1700 
Q 5188 2516 5253 3775 
z
M 1372 2950 
L 1372 -447 
L 950 -447 
L 950 2328 
Q 728 2038 419 1716 
L 194 2088 
Q 944 2819 1453 3981 
L 1825 3803 
Q 1631 3384 1372 2950 
z
M 3088 3700 
L 3484 3700 
L 3484 4819 
L 3875 4819 
L 3875 3334 
L 1916 3334 
L 1916 4819 
L 2306 4819 
L 2306 3700 
L 2684 3700 
L 2684 5313 
L 3088 5313 
L 3088 3700 
z
M 256 3884 
Q 916 4419 1350 5203 
L 1716 5013 
Q 1300 4234 513 3547 
L 256 3884 
z
" transform="scale(0.015625)"/>
       <path id="IPAexGothic-306e" d="M 3119 469 
Q 5275 766 5275 2425 
Q 5275 3453 4413 3925 
Q 4041 4116 3547 4159 
Q 3394 2525 2850 1400 
Q 2322 306 1722 306 
Q 1384 306 1084 666 
Q 609 1244 609 2003 
Q 609 3025 1397 3794 
Q 2184 4563 3431 4563 
Q 4306 4563 4928 4122 
Q 5813 3506 5813 2425 
Q 5813 438 3431 6 
L 3119 469 
z
M 3053 4147 
Q 2378 4044 1891 3641 
Q 1097 2981 1097 1991 
Q 1097 1366 1434 978 
Q 1581 813 1719 813 
Q 2022 813 2416 1625 
Q 2909 2638 3053 4147 
z
" transform="scale(0.015625)"/>
       <path id="IPAexGothic-30a4" d="M 3131 -231 
L 3131 2875 
Q 2091 2088 1106 1656 
L 781 2059 
Q 3016 3000 4469 4916 
L 4916 4641 
Q 4384 3938 3675 3316 
L 3675 -231 
L 3131 -231 
z
" transform="scale(0.015625)"/>
       <path id="IPAexGothic-30f3" d="M 2444 3084 
Q 1816 3656 1056 4084 
L 1381 4519 
Q 2063 4191 2816 3559 
L 2444 3084 
z
M 1100 609 
Q 3984 1106 5216 3828 
L 5619 3469 
Q 4413 794 1434 103 
L 1100 609 
z
" transform="scale(0.015625)"/>
       <path id="IPAexGothic-30c7" d="M 563 3072 
L 5741 3072 
L 5741 2613 
L 3578 2613 
Q 3538 1516 3134 872 
Q 2688 156 1663 -256 
L 1313 156 
Q 2338 538 2713 1166 
Q 3003 1644 3034 2613 
L 563 2613 
L 563 3072 
z
M 1406 4588 
L 4588 4588 
L 4588 4128 
L 1406 4128 
L 1406 4588 
z
M 6009 4469 
Q 5647 5009 5253 5338 
L 5553 5569 
Q 5938 5259 6328 4744 
L 6009 4469 
z
M 5413 4000 
Q 5125 4491 4678 4891 
L 4991 5131 
Q 5363 4825 5747 4275 
L 5413 4000 
z
" transform="scale(0.015625)"/>
       <path id="IPAexGothic-30c3" d="M 1775 1984 
Q 1553 2666 1275 3175 
L 1716 3391 
Q 2034 2866 2247 2209 
L 1775 1984 
z
M 3003 2297 
Q 2813 2978 2522 3469 
L 2978 3681 
Q 3291 3166 3484 2522 
L 3003 2297 
z
M 1928 372 
Q 3094 744 3731 1569 
Q 4275 2263 4469 3525 
L 4975 3406 
Q 4734 1975 4016 1119 
Q 3406 391 2266 -44 
L 1928 372 
z
" transform="scale(0.015625)"/>
       <path id="IPAexGothic-30af" d="M 4934 4191 
L 5272 3941 
Q 4894 2334 4031 1300 
Q 3275 391 2028 -225 
L 1656 184 
Q 2875 691 3641 1625 
Q 4403 2553 4691 3731 
L 2903 3731 
Q 2188 2653 1356 1959 
L 978 2309 
Q 2328 3400 2931 5022 
L 3422 4881 
Q 3363 4672 3141 4191 
L 4934 4191 
z
" transform="scale(0.015625)"/>
       <path id="IPAexGothic-30b9" d="M 4359 4481 
L 4716 4147 
Q 4328 3072 3647 2150 
Q 4659 1434 5659 453 
L 5234 19 
Q 4256 1088 3353 1778 
Q 2372 597 1044 -31 
L 653 403 
Q 3128 1453 4097 4000 
L 1241 3963 
L 1228 4453 
L 4359 4481 
z
" transform="scale(0.015625)"/>
      </defs>
      <use xlink:href="#IPAexGothic-7279"/>
      <use xlink:href="#IPAexGothic-5fb4" transform="translate(100 0)"/>
      <use xlink:href="#IPAexGothic-306e" transform="translate(200 0)"/>
      <use xlink:href="#IPAexGothic-30a4" transform="translate(300 0)"/>
      <use xlink:href="#IPAexGothic-30f3" transform="translate(400 0)"/>
      <use xlink:href="#IPAexGothic-30c7" transform="translate(500 0)"/>
      <use xlink:href="#IPAexGothic-30c3" transform="translate(600 0)"/>
      <use xlink:href="#IPAexGothic-30af" transform="translate(700 0)"/>
      <use xlink:href="#IPAexGothic-30b9" transform="translate(800 0)"/>
     </g>
    </g>
   </g>
   <g id="matplotlib.axis_2">
    <g id="ytick_1">
     <g id="line2d_10">
      <defs>
       <path id="md52e49a170" d="M 0 0 
L -3.5 0 
" style="stroke: #000000; stroke-width: 0.8"/>
      </defs>
      <g>
       <use xlink:href="#md52e49a170" x="53.26" y="217.038343" style="stroke: #000000; stroke-width: 0.8"/>
      </g>
     </g>
     <g id="text_11">
      <!-- 0.00 -->
      <g transform="translate(24.7225 220.783656) scale(0.1 -0.1)">
       <use xlink:href="#IPAexGothic-30"/>
       <use xlink:href="#IPAexGothic-2e" transform="translate(62.988281 0)"/>
       <use xlink:href="#IPAexGothic-30" transform="translate(89.404297 0)"/>
       <use xlink:href="#IPAexGothic-30" transform="translate(152.392578 0)"/>
      </g>
     </g>
    </g>
    <g id="ytick_2">
     <g id="line2d_11">
      <g>
       <use xlink:href="#md52e49a170" x="53.26" y="175.908015" style="stroke: #000000; stroke-width: 0.8"/>
      </g>
     </g>
     <g id="text_12">
      <!-- 0.02 -->
      <g transform="translate(24.7225 179.653327) scale(0.1 -0.1)">
       <use xlink:href="#IPAexGothic-30"/>
       <use xlink:href="#IPAexGothic-2e" transform="translate(62.988281 0)"/>
       <use xlink:href="#IPAexGothic-30" transform="translate(89.404297 0)"/>
       <use xlink:href="#IPAexGothic-32" transform="translate(152.392578 0)"/>
      </g>
     </g>
    </g>
    <g id="ytick_3">
     <g id="line2d_12">
      <g>
       <use xlink:href="#md52e49a170" x="53.26" y="134.777686" style="stroke: #000000; stroke-width: 0.8"/>
      </g>
     </g>
     <g id="text_13">
      <!-- 0.04 -->
      <g transform="translate(24.7225 138.522998) scale(0.1 -0.1)">
       <defs>
        <path id="IPAexGothic-34" d="M 3813 1159 
L 3059 1159 
L 3059 63 
L 2547 63 
L 2547 1159 
L 197 1159 
L 197 1672 
L 2456 4678 
L 3059 4678 
L 3059 1634 
L 3813 1634 
L 3813 1159 
z
M 2578 4109 
L 2559 4109 
Q 2278 3656 2003 3284 
L 759 1634 
L 2547 1634 
L 2547 3144 
Q 2547 3481 2578 4109 
z
" transform="scale(0.015625)"/>
       </defs>
       <use xlink:href="#IPAexGothic-30"/>
       <use xlink:href="#IPAexGothic-2e" transform="translate(62.988281 0)"/>
       <use xlink:href="#IPAexGothic-30" transform="translate(89.404297 0)"/>
       <use xlink:href="#IPAexGothic-34" transform="translate(152.392578 0)"/>
      </g>
     </g>
    </g>
    <g id="ytick_4">
     <g id="line2d_13">
      <g>
       <use xlink:href="#md52e49a170" x="53.26" y="93.647357" style="stroke: #000000; stroke-width: 0.8"/>
      </g>
     </g>
     <g id="text_14">
      <!-- 0.06 -->
      <g transform="translate(24.7225 97.392669) scale(0.1 -0.1)">
       <defs>
        <path id="IPAexGothic-36" d="M 1056 2328 
Q 1509 2981 2234 2981 
Q 2906 2981 3316 2513 
Q 3675 2106 3675 1522 
Q 3675 884 3272 434 
Q 2853 -31 2178 -31 
Q 1375 -31 922 581 
Q 481 1178 481 2228 
Q 481 3425 1013 4109 
Q 1494 4725 2272 4725 
Q 3191 4725 3609 4025 
L 3150 3775 
Q 2894 4266 2300 4266 
Q 1119 4266 1031 2328 
L 1056 2328 
z
M 2141 2547 
Q 1684 2547 1384 2206 
Q 1116 1900 1116 1541 
Q 1116 1156 1353 844 
Q 1672 428 2159 428 
Q 2669 428 2941 844 
Q 3125 1128 3125 1503 
Q 3125 1944 2881 2228 
Q 2600 2547 2141 2547 
z
" transform="scale(0.015625)"/>
       </defs>
       <use xlink:href="#IPAexGothic-30"/>
       <use xlink:href="#IPAexGothic-2e" transform="translate(62.988281 0)"/>
       <use xlink:href="#IPAexGothic-30" transform="translate(89.404297 0)"/>
       <use xlink:href="#IPAexGothic-36" transform="translate(152.392578 0)"/>
      </g>
     </g>
    </g>
    <g id="ytick_5">
     <g id="line2d_14">
      <g>
       <use xlink:href="#md52e49a170" x="53.26" y="52.517028" style="stroke: #000000; stroke-width: 0.8"/>
      </g>
     </g>
     <g id="text_15">
      <!-- 0.08 -->
      <g transform="translate(24.7225 56.262341) scale(0.1 -0.1)">
       <defs>
        <path id="IPAexGothic-38" d="M 2541 2425 
Q 3700 2031 3700 1197 
Q 3700 541 3100 197 
Q 2663 -56 2016 -56 
Q 1366 -56 928 197 
Q 347 531 347 1178 
Q 347 1988 1409 2381 
L 1409 2400 
Q 481 2734 481 3509 
Q 481 4100 981 4456 
Q 1406 4756 2019 4756 
Q 2703 4756 3131 4403 
Q 3553 4069 3553 3566 
Q 3553 2706 2541 2444 
L 2541 2425 
z
M 2022 2625 
Q 2997 2856 2997 3528 
Q 2997 3916 2675 4150 
Q 2413 4347 2016 4347 
Q 1606 4347 1331 4128 
Q 1050 3897 1050 3522 
Q 1050 3150 1350 2925 
Q 1494 2809 1722 2722 
Q 1984 2616 2022 2625 
z
M 1978 2209 
Q 922 1931 922 1216 
Q 922 775 1313 556 
Q 1606 391 2009 391 
Q 2575 391 2881 697 
Q 3106 922 3106 1250 
Q 3106 1594 2794 1850 
Q 2609 1994 2350 2100 
Q 2047 2222 1978 2209 
z
" transform="scale(0.015625)"/>
       </defs>
       <use xlink:href="#IPAexGothic-30"/>
       <use xlink:href="#IPAexGothic-2e" transform="translate(62.988281 0)"/>
       <use xlink:href="#IPAexGothic-30" transform="translate(89.404297 0)"/>
       <use xlink:href="#IPAexGothic-38" transform="translate(152.392578 0)"/>
      </g>
     </g>
    </g>
    <g id="ytick_6">
     <g id="line2d_15">
      <g>
       <use xlink:href="#md52e49a170" x="53.26" y="11.386699" style="stroke: #000000; stroke-width: 0.8"/>
      </g>
     </g>
     <g id="text_16">
      <!-- 0.10 -->
      <g transform="translate(24.7225 15.132012) scale(0.1 -0.1)">
       <use xlink:href="#IPAexGothic-30"/>
       <use xlink:href="#IPAexGothic-2e" transform="translate(62.988281 0)"/>
       <use xlink:href="#IPAexGothic-31" transform="translate(89.404297 0)"/>
       <use xlink:href="#IPAexGothic-30" transform="translate(152.392578 0)"/>
      </g>
     </g>
    </g>
    <g id="text_17">
     <!-- 特徴の重要度 -->
     <g transform="translate(17.9865 161.28) rotate(-90) scale(0.144 -0.144)">
      <defs>
       <path id="IPAexGothic-91cd" d="M 2950 3284 
L 2950 3684 
L 481 3684 
L 481 4063 
L 2950 4063 
L 2950 4491 
L 2747 4478 
Q 2100 4431 1241 4400 
L 1038 4791 
Q 3488 4878 4903 5113 
L 5234 4734 
Q 4388 4600 3406 4522 
L 3406 4063 
L 5913 4063 
L 5913 3684 
L 3406 3684 
L 3406 3284 
L 5269 3284 
L 5269 1313 
L 3406 1313 
L 3406 884 
L 5594 884 
L 5594 519 
L 3406 519 
L 3406 84 
L 6009 84 
L 6009 -294 
L 384 -294 
L 384 84 
L 2950 84 
L 2950 519 
L 800 519 
L 800 884 
L 2950 884 
L 2950 1313 
L 1128 1313 
L 1128 3284 
L 2950 3284 
z
M 2963 2931 
L 1569 2931 
L 1569 2472 
L 2963 2472 
L 2963 2931 
z
M 3394 2931 
L 3394 2472 
L 4825 2472 
L 4825 2931 
L 3394 2931 
z
M 2963 2147 
L 1569 2147 
L 1569 1659 
L 2963 1659 
L 2963 2147 
z
M 3394 2147 
L 3394 1659 
L 4825 1659 
L 4825 2147 
L 3394 2147 
z
" transform="scale(0.015625)"/>
       <path id="IPAexGothic-8981" d="M 2278 4025 
L 2278 4581 
L 528 4581 
L 528 4978 
L 5856 4978 
L 5856 4581 
L 4081 4581 
L 4081 4025 
L 5522 4025 
L 5522 2547 
L 863 2547 
L 863 4025 
L 2278 4025 
z
M 2694 4025 
L 3659 4025 
L 3659 4581 
L 2694 4581 
L 2694 4025 
z
M 2278 3666 
L 1316 3666 
L 1316 2906 
L 2278 2906 
L 2278 3666 
z
M 2694 3666 
L 2694 2906 
L 3659 2906 
L 3659 3666 
L 2694 3666 
z
M 4081 3666 
L 4081 2906 
L 5075 2906 
L 5075 3666 
L 4081 3666 
z
M 3066 338 
Q 2547 503 1694 722 
L 1503 775 
Q 1816 1141 2066 1503 
L 447 1503 
L 447 1900 
L 2316 1900 
Q 2497 2225 2641 2516 
L 3084 2366 
Q 2984 2172 2834 1900 
L 5950 1900 
L 5950 1503 
L 4619 1503 
Q 4369 878 3988 484 
Q 4750 263 5797 -91 
L 5413 -488 
Q 4441 -100 3597 172 
Q 2706 -406 869 -531 
L 625 -97 
Q 2122 -28 3066 338 
z
M 3513 619 
Q 3934 1025 4134 1503 
L 2597 1503 
Q 2413 1213 2238 984 
L 2213 953 
Q 2656 853 3513 619 
z
" transform="scale(0.015625)"/>
       <path id="IPAexGothic-5ea6" d="M 3516 4622 
L 5794 4622 
L 5794 4231 
L 1278 4231 
L 1278 3547 
L 2328 3547 
L 2328 4041 
L 2759 4041 
L 2759 3547 
L 4097 3547 
L 4097 4041 
L 4525 4041 
L 4525 3547 
L 5825 3547 
L 5825 3163 
L 4525 3163 
L 4525 2266 
L 2328 2266 
L 2328 3163 
L 1278 3163 
L 1278 2747 
Q 1278 1434 1131 775 
Q 1006 203 606 -441 
L 269 -50 
Q 653 541 763 1381 
Q 825 1869 825 2747 
L 825 4622 
L 3034 4622 
L 3034 5313 
L 3516 5313 
L 3516 4622 
z
M 2759 3163 
L 2759 2619 
L 4097 2619 
L 4097 3163 
L 2759 3163 
z
M 3609 263 
Q 2784 -231 1472 -494 
L 1222 -97 
Q 2444 63 3213 491 
Q 2544 909 2119 1522 
L 1575 1522 
L 1575 1900 
L 4897 1900 
L 5125 1700 
Q 4628 994 3994 516 
Q 4769 200 5925 56 
L 5638 -397 
Q 4434 -163 3609 263 
z
M 2606 1522 
Q 2984 1044 3578 716 
Q 4163 1119 4422 1522 
L 2606 1522 
z
" transform="scale(0.015625)"/>
      </defs>
      <use xlink:href="#IPAexGothic-7279"/>
      <use xlink:href="#IPAexGothic-5fb4" transform="translate(100 0)"/>
      <use xlink:href="#IPAexGothic-306e" transform="translate(200 0)"/>
      <use xlink:href="#IPAexGothic-91cd" transform="translate(300 0)"/>
      <use xlink:href="#IPAexGothic-8981" transform="translate(400 0)"/>
      <use xlink:href="#IPAexGothic-5ea6" transform="translate(500 0)"/>
     </g>
    </g>
   </g>
  </g>
 </g>
 <defs>
  <clipPath id="p4a34a04d4e">
   <rect x="53.26" y="7.2" width="558" height="221.76"/>
  </clipPath>
 </defs>
</svg>
