<?xml version="1.0" encoding="utf-8" standalone="no"?>
<!DOCTYPE svg PUBLIC "-//W3C//DTD SVG 1.1//EN"
  "http://www.w3.org/Graphics/SVG/1.1/DTD/svg11.dtd">
<svg xmlns:xlink="http://www.w3.org/1999/xlink" width="619.237014pt" height="270.205875pt" viewBox="0 0 619.237014 270.205875" xmlns="http://www.w3.org/2000/svg" version="1.1">
 <metadata>
  <rdf:RDF xmlns:dc="http://purl.org/dc/elements/1.1/" xmlns:cc="http://creativecommons.org/ns#" xmlns:rdf="http://www.w3.org/1999/02/22-rdf-syntax-ns#">
   <cc:Work>
    <dc:type rdf:resource="http://purl.org/dc/dcmitype/StillImage"/>
    <dc:date>2025-10-30T19:32:29.649301</dc:date>
    <dc:format>image/svg+xml</dc:format>
    <dc:creator>
     <cc:Agent>
      <dc:title>Matplotlib v3.10.7, https://matplotlib.org/</dc:title>
     </cc:Agent>
    </dc:creator>
   </cc:Work>
  </rdf:RDF>
 </metadata>
 <defs>
  <style type="text/css">*{stroke-linejoin: round; stroke-linecap: butt}</style>
 </defs>
 <g id="figure_1">
  <g id="patch_1">
   <path d="M 0 270.205875 
L 619.237014 270.205875 
L 619.237014 0 
L 0 0 
z
" style="fill: #ffffff"/>
  </g>
  <g id="axes_1">
   <g id="patch_2">
    <path d="M 53.26 228.96 
L 611.26 228.96 
L 611.26 7.2 
L 53.26 7.2 
z
" style="fill: #ffffff"/>
   </g>
   <g id="patch_3">
    <path d="M 78.623636 217.038343 
L 99.119504 217.038343 
L 99.119504 218.88 
L 78.623636 218.88 
z
" clip-path="url(#p47a3631284)" style="fill: #264653"/>
   </g>
   <g id="patch_4">
    <path d="M 104.243471 217.038343 
L 124.739339 217.038343 
L 124.739339 65.163069 
L 104.243471 65.163069 
z
" clip-path="url(#p47a3631284)" style="fill: #264653"/>
   </g>
   <g id="patch_5">
    <path d="M 129.863306 217.038343 
L 150.359174 217.038343 
L 150.359174 216.424458 
L 129.863306 216.424458 
z
" clip-path="url(#p47a3631284)" style="fill: #264653"/>
   </g>
   <g id="patch_6">
    <path d="M 155.48314 217.038343 
L 175.979008 217.038343 
L 175.979008 216.424458 
L 155.48314 216.424458 
z
" clip-path="url(#p47a3631284)" style="fill: #264653"/>
   </g>
   <g id="patch_7">
    <path d="M 181.102975 217.038343 
L 201.598843 217.038343 
L 201.598843 218.634446 
L 181.102975 218.634446 
z
" clip-path="url(#p47a3631284)" style="fill: #264653"/>
   </g>
   <g id="patch_8">
    <path d="M 206.72281 217.038343 
L 227.218678 217.038343 
L 227.218678 205.128965 
L 206.72281 205.128965 
z
" clip-path="url(#p47a3631284)" style="fill: #264653"/>
   </g>
   <g id="patch_9">
    <path d="M 232.342645 217.038343 
L 252.838512 217.038343 
L 252.838512 215.687795 
L 232.342645 215.687795 
z
" clip-path="url(#p47a3631284)" style="fill: #264653"/>
   </g>
   <g id="patch_10">
    <path d="M 257.962479 217.038343 
L 278.458347 217.038343 
L 278.458347 57.305335 
L 257.962479 57.305335 
z
" clip-path="url(#p47a3631284)" style="fill: #264653"/>
   </g>
   <g id="patch_11">
    <path d="M 283.582314 217.038343 
L 304.078182 217.038343 
L 304.078182 203.655639 
L 283.582314 203.655639 
z
" clip-path="url(#p47a3631284)" style="fill: #264653"/>
   </g>
   <g id="patch_12">
    <path d="M 309.202149 217.038343 
L 329.698017 217.038343 
L 329.698017 215.93335 
L 309.202149 215.93335 
z
" clip-path="url(#p47a3631284)" style="fill: #264653"/>
   </g>
   <g id="patch_13">
    <path d="M 334.821983 217.038343 
L 355.317851 217.038343 
L 355.317851 214.951133 
L 334.821983 214.951133 
z
" clip-path="url(#p47a3631284)" style="fill: #264653"/>
   </g>
   <g id="patch_14">
    <path d="M 360.441818 217.038343 
L 380.937686 217.038343 
L 380.937686 215.07391 
L 360.441818 215.07391 
z
" clip-path="url(#p47a3631284)" style="fill: #264653"/>
   </g>
   <g id="patch_15">
    <path d="M 386.061653 217.038343 
L 406.557521 217.038343 
L 406.557521 215.565018 
L 386.061653 215.565018 
z
" clip-path="url(#p47a3631284)" style="fill: #264653"/>
   </g>
   <g id="patch_16">
    <path d="M 411.681488 217.038343 
L 432.177355 217.038343 
L 432.177355 207.584507 
L 411.681488 207.584507 
z
" clip-path="url(#p47a3631284)" style="fill: #264653"/>
   </g>
   <g id="patch_17">
    <path d="M 437.301322 217.038343 
L 457.79719 217.038343 
L 457.79719 214.091693 
L 437.301322 214.091693 
z
" clip-path="url(#p47a3631284)" style="fill: #264653"/>
   </g>
   <g id="patch_18">
    <path d="M 462.921157 217.038343 
L 483.417025 217.038343 
L 483.417025 187.571839 
L 462.921157 187.571839 
z
" clip-path="url(#p47a3631284)" style="fill: #264653"/>
   </g>
   <g id="patch_19">
    <path d="M 488.540992 217.038343 
L 509.03686 217.038343 
L 509.03686 17.28 
L 488.540992 17.28 
z
" clip-path="url(#p47a3631284)" style="fill: #264653"/>
   </g>
   <g id="patch_20">
    <path d="M 514.160826 217.038343 
L 534.656694 217.038343 
L 534.656694 182.783532 
L 514.160826 182.783532 
z
" clip-path="url(#p47a3631284)" style="fill: #264653"/>
   </g>
   <g id="patch_21">
    <path d="M 539.780661 217.038343 
L 560.276529 217.038343 
L 560.276529 208.935055 
L 539.780661 208.935055 
z
" clip-path="url(#p47a3631284)" style="fill: #264653"/>
   </g>
   <g id="patch_22">
    <path d="M 565.400496 217.038343 
L 585.896364 217.038343 
L 585.896364 166.331401 
L 565.400496 166.331401 
z
" clip-path="url(#p47a3631284)" style="fill: #264653"/>
   </g>
   <g id="matplotlib.axis_1">
    <g id="xtick_1">
     <g id="line2d_1">
      <defs>
       <path id="mc3452eea46" d="M 0 0 
L 0 3.5 
" style="stroke: #000000; stroke-width: 0.8"/>
      </defs>
      <g>
       <use xlink:href="#mc3452eea46" x="88.87157" y="228.96" style="stroke: #000000; stroke-width: 0.8"/>
      </g>
     </g>
     <g id="text_1">
      <!-- 0.0 -->
      <g transform="translate(81.252039 243.450625) scale(0.1 -0.1)">
       <defs>
        <path id="IPAexGothic-30" d="M 2038 4725 
Q 2881 4725 3334 3944 
Q 3694 3325 3694 2344 
Q 3694 1372 3334 741 
Q 2888 -31 2016 -31 
Q 1147 -31 700 741 
Q 341 1372 341 2350 
Q 341 3713 1000 4334 
Q 1419 4725 2038 4725 
z
M 2016 4266 
Q 1516 4266 1228 3759 
Q 934 3247 934 2344 
Q 934 1456 1222 947 
Q 1513 447 2016 447 
Q 2619 447 2909 1153 
Q 3100 1622 3100 2375 
Q 3100 3256 2806 3759 
Q 2509 4266 2016 4266 
z
" transform="scale(0.015625)"/>
        <path id="IPAexGothic-2e" d="M 1184 63 
L 494 63 
L 494 753 
L 1184 753 
L 1184 63 
z
" transform="scale(0.015625)"/>
       </defs>
       <use xlink:href="#IPAexGothic-30"/>
       <use xlink:href="#IPAexGothic-2e" transform="translate(62.988281 0)"/>
       <use xlink:href="#IPAexGothic-30" transform="translate(89.404297 0)"/>
      </g>
     </g>
    </g>
    <g id="xtick_2">
     <g id="line2d_2">
      <g>
       <use xlink:href="#mc3452eea46" x="152.921157" y="228.96" style="stroke: #000000; stroke-width: 0.8"/>
      </g>
     </g>
     <g id="text_2">
      <!-- 2.5 -->
      <g transform="translate(145.301626 243.450625) scale(0.1 -0.1)">
       <defs>
        <path id="IPAexGothic-32" d="M 3659 63 
L 447 63 
L 447 594 
Q 825 1475 1894 2203 
L 2072 2322 
Q 2619 2697 2791 2906 
Q 2988 3153 2988 3444 
Q 2988 3772 2756 4003 
Q 2500 4259 2084 4259 
Q 1250 4259 991 3328 
L 497 3506 
Q 853 4725 2116 4725 
Q 2806 4725 3216 4316 
Q 3575 3947 3575 3425 
Q 3575 3038 3344 2722 
Q 3131 2416 2366 1938 
L 2231 1856 
Q 1256 1253 978 569 
L 3659 569 
L 3659 63 
z
" transform="scale(0.015625)"/>
        <path id="IPAexGothic-35" d="M 1178 2603 
Q 1634 2963 2172 2963 
Q 2816 2963 3241 2528 
Q 3638 2113 3638 1497 
Q 3638 938 3297 513 
Q 2869 -31 2031 -31 
Q 959 -31 469 784 
L 938 1028 
Q 1309 434 2013 434 
Q 2466 434 2769 716 
Q 3081 1013 3081 1503 
Q 3081 1966 2806 2241 
Q 2519 2528 2056 2528 
Q 1406 2528 1072 2028 
L 591 2091 
L 884 4634 
L 3406 4634 
L 3406 4153 
L 1341 4153 
L 1134 2603 
L 1178 2603 
z
" transform="scale(0.015625)"/>
       </defs>
       <use xlink:href="#IPAexGothic-32"/>
       <use xlink:href="#IPAexGothic-2e" transform="translate(62.988281 0)"/>
       <use xlink:href="#IPAexGothic-35" transform="translate(89.404297 0)"/>
      </g>
     </g>
    </g>
    <g id="xtick_3">
     <g id="line2d_3">
      <g>
       <use xlink:href="#mc3452eea46" x="216.970744" y="228.96" style="stroke: #000000; stroke-width: 0.8"/>
      </g>
     </g>
     <g id="text_3">
      <!-- 5.0 -->
      <g transform="translate(209.351213 243.450625) scale(0.1 -0.1)">
       <use xlink:href="#IPAexGothic-35"/>
       <use xlink:href="#IPAexGothic-2e" transform="translate(62.988281 0)"/>
       <use xlink:href="#IPAexGothic-30" transform="translate(89.404297 0)"/>
      </g>
     </g>
    </g>
    <g id="xtick_4">
     <g id="line2d_4">
      <g>
       <use xlink:href="#mc3452eea46" x="281.020331" y="228.96" style="stroke: #000000; stroke-width: 0.8"/>
      </g>
     </g>
     <g id="text_4">
      <!-- 7.5 -->
      <g transform="translate(273.400799 243.450625) scale(0.1 -0.1)">
       <defs>
        <path id="IPAexGothic-37" d="M 3597 4263 
Q 2238 2106 1778 63 
L 1131 63 
Q 1581 1834 2950 4128 
L 428 4128 
L 428 4634 
L 3597 4634 
L 3597 4263 
z
" transform="scale(0.015625)"/>
       </defs>
       <use xlink:href="#IPAexGothic-37"/>
       <use xlink:href="#IPAexGothic-2e" transform="translate(62.988281 0)"/>
       <use xlink:href="#IPAexGothic-35" transform="translate(89.404297 0)"/>
      </g>
     </g>
    </g>
    <g id="xtick_5">
     <g id="line2d_5">
      <g>
       <use xlink:href="#mc3452eea46" x="345.069917" y="228.96" style="stroke: #000000; stroke-width: 0.8"/>
      </g>
     </g>
     <g id="text_5">
      <!-- 10.0 -->
      <g transform="translate(334.301167 243.450625) scale(0.1 -0.1)">
       <defs>
        <path id="IPAexGothic-31" d="M 2463 63 
L 1900 63 
L 1900 4103 
Q 1372 3922 788 3797 
L 684 4231 
Q 1519 4441 2106 4731 
L 2463 4731 
L 2463 63 
z
" transform="scale(0.015625)"/>
       </defs>
       <use xlink:href="#IPAexGothic-31"/>
       <use xlink:href="#IPAexGothic-30" transform="translate(62.988281 0)"/>
       <use xlink:href="#IPAexGothic-2e" transform="translate(125.976562 0)"/>
       <use xlink:href="#IPAexGothic-30" transform="translate(152.392578 0)"/>
      </g>
     </g>
    </g>
    <g id="xtick_6">
     <g id="line2d_6">
      <g>
       <use xlink:href="#mc3452eea46" x="409.119504" y="228.96" style="stroke: #000000; stroke-width: 0.8"/>
      </g>
     </g>
     <g id="text_6">
      <!-- 12.5 -->
      <g transform="translate(398.350754 243.450625) scale(0.1 -0.1)">
       <use xlink:href="#IPAexGothic-31"/>
       <use xlink:href="#IPAexGothic-32" transform="translate(62.988281 0)"/>
       <use xlink:href="#IPAexGothic-2e" transform="translate(125.976562 0)"/>
       <use xlink:href="#IPAexGothic-35" transform="translate(152.392578 0)"/>
      </g>
     </g>
    </g>
    <g id="xtick_7">
     <g id="line2d_7">
      <g>
       <use xlink:href="#mc3452eea46" x="473.169091" y="228.96" style="stroke: #000000; stroke-width: 0.8"/>
      </g>
     </g>
     <g id="text_7">
      <!-- 15.0 -->
      <g transform="translate(462.400341 243.450625) scale(0.1 -0.1)">
       <use xlink:href="#IPAexGothic-31"/>
       <use xlink:href="#IPAexGothic-35" transform="translate(62.988281 0)"/>
       <use xlink:href="#IPAexGothic-2e" transform="translate(125.976562 0)"/>
       <use xlink:href="#IPAexGothic-30" transform="translate(152.392578 0)"/>
      </g>
     </g>
    </g>
    <g id="xtick_8">
     <g id="line2d_8">
      <g>
       <use xlink:href="#mc3452eea46" x="537.218678" y="228.96" style="stroke: #000000; stroke-width: 0.8"/>
      </g>
     </g>
     <g id="text_8">
      <!-- 17.5 -->
      <g transform="translate(526.449928 243.450625) scale(0.1 -0.1)">
       <use xlink:href="#IPAexGothic-31"/>
       <use xlink:href="#IPAexGothic-37" transform="translate(62.988281 0)"/>
       <use xlink:href="#IPAexGothic-2e" transform="translate(125.976562 0)"/>
       <use xlink:href="#IPAexGothic-35" transform="translate(152.392578 0)"/>
      </g>
     </g>
    </g>
    <g id="xtick_9">
     <g id="line2d_9">
      <g>
       <use xlink:href="#mc3452eea46" x="601.268264" y="228.96" style="stroke: #000000; stroke-width: 0.8"/>
      </g>
     </g>
     <g id="text_9">
      <!-- 20.0 -->
      <g transform="translate(590.499514 243.450625) scale(0.1 -0.1)">
       <use xlink:href="#IPAexGothic-32"/>
       <use xlink:href="#IPAexGothic-30" transform="translate(62.988281 0)"/>
       <use xlink:href="#IPAexGothic-2e" transform="translate(125.976562 0)"/>
       <use xlink:href="#IPAexGothic-30" transform="translate(152.392578 0)"/>
      </g>
     </g>
    </g>
    <g id="text_10">
     <!-- 特徴量インデックス -->
     <g transform="translate(267.46 260.269875) scale(0.144 -0.144)">
      <defs>
       <path id="IPAexGothic-7279" d="M 1025 3950 
L 1434 3950 
L 1434 5313 
L 1875 5313 
L 1875 3950 
L 2534 3950 
L 2534 3547 
L 1875 3547 
L 1875 2216 
Q 2084 2313 2494 2516 
L 2547 2106 
Q 2281 1963 1856 1750 
L 1856 -447 
L 1416 -447 
L 1416 1538 
Q 1028 1359 538 1153 
L 313 1581 
Q 778 1744 1434 2019 
L 1434 3547 
L 947 3547 
Q 828 3013 647 2556 
L 275 2803 
Q 584 3600 691 4744 
L 1131 4688 
Q 1091 4291 1025 3950 
z
M 3872 4372 
L 3872 5313 
L 4313 5313 
L 4313 4372 
L 5738 4372 
L 5738 3981 
L 4313 3981 
L 4313 3200 
L 6072 3200 
L 6072 2803 
L 5106 2803 
L 5106 2047 
L 5956 2047 
L 5956 1650 
L 5125 1650 
L 5125 38 
Q 5125 -447 4594 -447 
Q 4288 -447 3788 -391 
L 3691 78 
Q 4181 0 4491 0 
Q 4684 0 4684 172 
L 4684 1650 
L 2609 1650 
L 2609 2047 
L 4666 2047 
L 4666 2803 
L 2400 2803 
L 2400 3200 
L 3872 3200 
L 3872 3981 
L 2653 3981 
L 2653 4372 
L 3872 4372 
z
M 3550 384 
Q 3216 959 2834 1331 
L 3172 1575 
Q 3641 1116 3916 672 
L 3550 384 
z
" transform="scale(0.015625)"/>
       <path id="IPAexGothic-5fb4" d="M 5656 3775 
L 5656 3697 
Q 5597 2178 5228 1188 
Q 5678 478 6181 31 
L 5900 -419 
Q 5375 125 5016 741 
Q 4591 -3 3941 -500 
L 3616 -138 
Q 4372 331 4788 1163 
Q 4441 1838 4269 2759 
Q 4131 2388 3953 2078 
L 3697 2413 
L 3072 2413 
L 3072 1784 
L 3788 1784 
L 3788 1425 
L 3072 1425 
L 3072 747 
Q 3600 866 4063 1003 
L 4081 625 
Q 3147 297 1784 25 
L 1631 459 
Q 2194 553 2656 650 
L 2656 1425 
L 1856 1425 
L 1856 1784 
L 2656 1784 
L 2656 2413 
L 1663 2413 
L 1663 2784 
L 3838 2784 
Q 4222 3697 4422 5259 
L 4844 5197 
Q 4775 4688 4672 4178 
L 6059 4178 
L 6059 3775 
L 5656 3775 
z
M 5253 3775 
L 4575 3775 
Q 4516 3525 4497 3463 
L 4509 3391 
Q 4638 2475 4966 1700 
Q 5188 2516 5253 3775 
z
M 1372 2950 
L 1372 -447 
L 950 -447 
L 950 2328 
Q 728 2038 419 1716 
L 194 2088 
Q 944 2819 1453 3981 
L 1825 3803 
Q 1631 3384 1372 2950 
z
M 3088 3700 
L 3484 3700 
L 3484 4819 
L 3875 4819 
L 3875 3334 
L 1916 3334 
L 1916 4819 
L 2306 4819 
L 2306 3700 
L 2684 3700 
L 2684 5313 
L 3088 5313 
L 3088 3700 
z
M 256 3884 
Q 916 4419 1350 5203 
L 1716 5013 
Q 1300 4234 513 3547 
L 256 3884 
z
" transform="scale(0.015625)"/>
       <path id="IPAexGothic-91cf" d="M 5081 5159 
L 5081 3497 
L 1275 3497 
L 1275 5159 
L 5081 5159 
z
M 1716 4819 
L 1716 4475 
L 4647 4475 
L 4647 4819 
L 1716 4819 
z
M 1716 4175 
L 1716 3816 
L 4647 3816 
L 4647 4175 
L 1716 4175 
z
M 5238 2625 
L 5238 997 
L 3388 997 
L 3388 694 
L 5428 694 
L 5428 353 
L 3388 353 
L 3388 34 
L 6044 34 
L 6044 -331 
L 353 -331 
L 353 34 
L 2972 34 
L 2972 353 
L 969 353 
L 969 694 
L 2972 694 
L 2972 997 
L 1159 997 
L 1159 2625 
L 5238 2625 
z
M 1588 2325 
L 1588 1972 
L 2972 1972 
L 2972 2325 
L 1588 2325 
z
M 1588 1672 
L 1588 1303 
L 2972 1303 
L 2972 1672 
L 1588 1672 
z
M 4809 1303 
L 4809 1672 
L 3388 1672 
L 3388 1303 
L 4809 1303 
z
M 4809 1972 
L 4809 2325 
L 3388 2325 
L 3388 1972 
L 4809 1972 
z
M 384 3231 
L 6009 3231 
L 6009 2884 
L 384 2884 
L 384 3231 
z
" transform="scale(0.015625)"/>
       <path id="IPAexGothic-30a4" d="M 3131 -231 
L 3131 2875 
Q 2091 2088 1106 1656 
L 781 2059 
Q 3016 3000 4469 4916 
L 4916 4641 
Q 4384 3938 3675 3316 
L 3675 -231 
L 3131 -231 
z
" transform="scale(0.015625)"/>
       <path id="IPAexGothic-30f3" d="M 2444 3084 
Q 1816 3656 1056 4084 
L 1381 4519 
Q 2063 4191 2816 3559 
L 2444 3084 
z
M 1100 609 
Q 3984 1106 5216 3828 
L 5619 3469 
Q 4413 794 1434 103 
L 1100 609 
z
" transform="scale(0.015625)"/>
       <path id="IPAexGothic-30c7" d="M 563 3072 
L 5741 3072 
L 5741 2613 
L 3578 2613 
Q 3538 1516 3134 872 
Q 2688 156 1663 -256 
L 1313 156 
Q 2338 538 2713 1166 
Q 3003 1644 3034 2613 
L 563 2613 
L 563 3072 
z
M 1406 4588 
L 4588 4588 
L 4588 4128 
L 1406 4128 
L 1406 4588 
z
M 6009 4469 
Q 5647 5009 5253 5338 
L 5553 5569 
Q 5938 5259 6328 4744 
L 6009 4469 
z
M 5413 4000 
Q 5125 4491 4678 4891 
L 4991 5131 
Q 5363 4825 5747 4275 
L 5413 4000 
z
" transform="scale(0.015625)"/>
       <path id="IPAexGothic-30c3" d="M 1775 1984 
Q 1553 2666 1275 3175 
L 1716 3391 
Q 2034 2866 2247 2209 
L 1775 1984 
z
M 3003 2297 
Q 2813 2978 2522 3469 
L 2978 3681 
Q 3291 3166 3484 2522 
L 3003 2297 
z
M 1928 372 
Q 3094 744 3731 1569 
Q 4275 2263 4469 3525 
L 4975 3406 
Q 4734 1975 4016 1119 
Q 3406 391 2266 -44 
L 1928 372 
z
" transform="scale(0.015625)"/>
       <path id="IPAexGothic-30af" d="M 4934 4191 
L 5272 3941 
Q 4894 2334 4031 1300 
Q 3275 391 2028 -225 
L 1656 184 
Q 2875 691 3641 1625 
Q 4403 2553 4691 3731 
L 2903 3731 
Q 2188 2653 1356 1959 
L 978 2309 
Q 2328 3400 2931 5022 
L 3422 4881 
Q 3363 4672 3141 4191 
L 4934 4191 
z
" transform="scale(0.015625)"/>
       <path id="IPAexGothic-30b9" d="M 4359 4481 
L 4716 4147 
Q 4328 3072 3647 2150 
Q 4659 1434 5659 453 
L 5234 19 
Q 4256 1088 3353 1778 
Q 2372 597 1044 -31 
L 653 403 
Q 3128 1453 4097 4000 
L 1241 3963 
L 1228 4453 
L 4359 4481 
z
" transform="scale(0.015625)"/>
      </defs>
      <use xlink:href="#IPAexGothic-7279"/>
      <use xlink:href="#IPAexGothic-5fb4" transform="translate(100 0)"/>
      <use xlink:href="#IPAexGothic-91cf" transform="translate(200 0)"/>
      <use xlink:href="#IPAexGothic-30a4" transform="translate(300 0)"/>
      <use xlink:href="#IPAexGothic-30f3" transform="translate(400 0)"/>
      <use xlink:href="#IPAexGothic-30c7" transform="translate(500 0)"/>
      <use xlink:href="#IPAexGothic-30c3" transform="translate(600 0)"/>
      <use xlink:href="#IPAexGothic-30af" transform="translate(700 0)"/>
      <use xlink:href="#IPAexGothic-30b9" transform="translate(800 0)"/>
     </g>
    </g>
   </g>
   <g id="matplotlib.axis_2">
    <g id="ytick_1">
     <g id="line2d_10">
      <defs>
       <path id="m1c2396f8ef" d="M 0 0 
L -3.5 0 
" style="stroke: #000000; stroke-width: 0.8"/>
      </defs>
      <g>
       <use xlink:href="#m1c2396f8ef" x="53.26" y="217.038343" style="stroke: #000000; stroke-width: 0.8"/>
      </g>
     </g>
     <g id="text_11">
      <!-- 0.00 -->
      <g transform="translate(24.7225 220.783656) scale(0.1 -0.1)">
       <use xlink:href="#IPAexGothic-30"/>
       <use xlink:href="#IPAexGothic-2e" transform="translate(62.988281 0)"/>
       <use xlink:href="#IPAexGothic-30" transform="translate(89.404297 0)"/>
       <use xlink:href="#IPAexGothic-30" transform="translate(152.392578 0)"/>
      </g>
     </g>
    </g>
    <g id="ytick_2">
     <g id="line2d_11">
      <g>
       <use xlink:href="#m1c2396f8ef" x="53.26" y="175.908015" style="stroke: #000000; stroke-width: 0.8"/>
      </g>
     </g>
     <g id="text_12">
      <!-- 0.02 -->
      <g transform="translate(24.7225 179.653327) scale(0.1 -0.1)">
       <use xlink:href="#IPAexGothic-30"/>
       <use xlink:href="#IPAexGothic-2e" transform="translate(62.988281 0)"/>
       <use xlink:href="#IPAexGothic-30" transform="translate(89.404297 0)"/>
       <use xlink:href="#IPAexGothic-32" transform="translate(152.392578 0)"/>
      </g>
     </g>
    </g>
    <g id="ytick_3">
     <g id="line2d_12">
      <g>
       <use xlink:href="#m1c2396f8ef" x="53.26" y="134.777686" style="stroke: #000000; stroke-width: 0.8"/>
      </g>
     </g>
     <g id="text_13">
      <!-- 0.04 -->
      <g transform="translate(24.7225 138.522998) scale(0.1 -0.1)">
       <defs>
        <path id="IPAexGothic-34" d="M 3813 1159 
L 3059 1159 
L 3059 63 
L 2547 63 
L 2547 1159 
L 197 1159 
L 197 1672 
L 2456 4678 
L 3059 4678 
L 3059 1634 
L 3813 1634 
L 3813 1159 
z
M 2578 4109 
L 2559 4109 
Q 2278 3656 2003 3284 
L 759 1634 
L 2547 1634 
L 2547 3144 
Q 2547 3481 2578 4109 
z
" transform="scale(0.015625)"/>
       </defs>
       <use xlink:href="#IPAexGothic-30"/>
       <use xlink:href="#IPAexGothic-2e" transform="translate(62.988281 0)"/>
       <use xlink:href="#IPAexGothic-30" transform="translate(89.404297 0)"/>
       <use xlink:href="#IPAexGothic-34" transform="translate(152.392578 0)"/>
      </g>
     </g>
    </g>
    <g id="ytick_4">
     <g id="line2d_13">
      <g>
       <use xlink:href="#m1c2396f8ef" x="53.26" y="93.647357" style="stroke: #000000; stroke-width: 0.8"/>
      </g>
     </g>
     <g id="text_14">
      <!-- 0.06 -->
      <g transform="translate(24.7225 97.392669) scale(0.1 -0.1)">
       <defs>
        <path id="IPAexGothic-36" d="M 1056 2328 
Q 1509 2981 2234 2981 
Q 2906 2981 3316 2513 
Q 3675 2106 3675 1522 
Q 3675 884 3272 434 
Q 2853 -31 2178 -31 
Q 1375 -31 922 581 
Q 481 1178 481 2228 
Q 481 3425 1013 4109 
Q 1494 4725 2272 4725 
Q 3191 4725 3609 4025 
L 3150 3775 
Q 2894 4266 2300 4266 
Q 1119 4266 1031 2328 
L 1056 2328 
z
M 2141 2547 
Q 1684 2547 1384 2206 
Q 1116 1900 1116 1541 
Q 1116 1156 1353 844 
Q 1672 428 2159 428 
Q 2669 428 2941 844 
Q 3125 1128 3125 1503 
Q 3125 1944 2881 2228 
Q 2600 2547 2141 2547 
z
" transform="scale(0.015625)"/>
       </defs>
       <use xlink:href="#IPAexGothic-30"/>
       <use xlink:href="#IPAexGothic-2e" transform="translate(62.988281 0)"/>
       <use xlink:href="#IPAexGothic-30" transform="translate(89.404297 0)"/>
       <use xlink:href="#IPAexGothic-36" transform="translate(152.392578 0)"/>
      </g>
     </g>
    </g>
    <g id="ytick_5">
     <g id="line2d_14">
      <g>
       <use xlink:href="#m1c2396f8ef" x="53.26" y="52.517028" style="stroke: #000000; stroke-width: 0.8"/>
      </g>
     </g>
     <g id="text_15">
      <!-- 0.08 -->
      <g transform="translate(24.7225 56.262341) scale(0.1 -0.1)">
       <defs>
        <path id="IPAexGothic-38" d="M 2541 2425 
Q 3700 2031 3700 1197 
Q 3700 541 3100 197 
Q 2663 -56 2016 -56 
Q 1366 -56 928 197 
Q 347 531 347 1178 
Q 347 1988 1409 2381 
L 1409 2400 
Q 481 2734 481 3509 
Q 481 4100 981 4456 
Q 1406 4756 2019 4756 
Q 2703 4756 3131 4403 
Q 3553 4069 3553 3566 
Q 3553 2706 2541 2444 
L 2541 2425 
z
M 2022 2625 
Q 2997 2856 2997 3528 
Q 2997 3916 2675 4150 
Q 2413 4347 2016 4347 
Q 1606 4347 1331 4128 
Q 1050 3897 1050 3522 
Q 1050 3150 1350 2925 
Q 1494 2809 1722 2722 
Q 1984 2616 2022 2625 
z
M 1978 2209 
Q 922 1931 922 1216 
Q 922 775 1313 556 
Q 1606 391 2009 391 
Q 2575 391 2881 697 
Q 3106 922 3106 1250 
Q 3106 1594 2794 1850 
Q 2609 1994 2350 2100 
Q 2047 2222 1978 2209 
z
" transform="scale(0.015625)"/>
       </defs>
       <use xlink:href="#IPAexGothic-30"/>
       <use xlink:href="#IPAexGothic-2e" transform="translate(62.988281 0)"/>
       <use xlink:href="#IPAexGothic-30" transform="translate(89.404297 0)"/>
       <use xlink:href="#IPAexGothic-38" transform="translate(152.392578 0)"/>
      </g>
     </g>
    </g>
    <g id="ytick_6">
     <g id="line2d_15">
      <g>
       <use xlink:href="#m1c2396f8ef" x="53.26" y="11.386699" style="stroke: #000000; stroke-width: 0.8"/>
      </g>
     </g>
     <g id="text_16">
      <!-- 0.10 -->
      <g transform="translate(24.7225 15.132012) scale(0.1 -0.1)">
       <use xlink:href="#IPAexGothic-30"/>
       <use xlink:href="#IPAexGothic-2e" transform="translate(62.988281 0)"/>
       <use xlink:href="#IPAexGothic-31" transform="translate(89.404297 0)"/>
       <use xlink:href="#IPAexGothic-30" transform="translate(152.392578 0)"/>
      </g>
     </g>
    </g>
    <g id="text_17">
     <!-- Permutation importance -->
     <g transform="translate(17.9865 199.981125) rotate(-90) scale(0.144 -0.144)">
      <defs>
       <path id="IPAexGothic-50" d="M 609 4634 
L 1941 4634 
Q 3688 4634 3688 3322 
Q 3688 1934 1906 1934 
L 1172 1934 
L 1172 63 
L 609 63 
L 609 4634 
z
M 1172 2381 
L 1800 2381 
Q 3100 2381 3100 3316 
Q 3100 4181 1894 4181 
L 1172 4181 
L 1172 2381 
z
" transform="scale(0.015625)"/>
       <path id="IPAexGothic-65" d="M 863 1594 
Q 891 1041 1209 722 
Q 1534 397 1997 397 
Q 2606 397 2963 966 
L 3322 728 
Q 2869 -31 1931 -31 
Q 1222 -31 766 422 
Q 306 884 306 1641 
Q 306 2444 788 2925 
Q 1216 3353 1856 3353 
Q 2459 3353 2866 2956 
Q 3322 2494 3322 1722 
L 3322 1594 
L 863 1594 
z
M 2756 1997 
Q 2709 2431 2450 2681 
Q 2194 2938 1844 2938 
Q 1438 2938 1150 2591 
Q 953 2356 894 1997 
L 2756 1997 
z
" transform="scale(0.015625)"/>
       <path id="IPAexGothic-72" d="M 2309 3316 
L 2213 2769 
Q 2106 2791 2022 2791 
Q 1653 2791 1413 2444 
Q 1113 2006 1113 1675 
L 1113 63 
L 563 63 
L 563 3250 
L 1081 3250 
L 1056 2303 
L 1069 2303 
Q 1422 3341 2097 3341 
Q 2206 3341 2309 3316 
z
" transform="scale(0.015625)"/>
       <path id="IPAexGothic-6d" d="M 5022 63 
L 4472 63 
L 4472 2059 
Q 4472 2869 3847 2869 
Q 3550 2869 3303 2594 
Q 3128 2397 3059 2103 
L 3059 63 
L 2509 63 
L 2509 2066 
Q 2509 2869 1919 2869 
Q 1606 2869 1369 2594 
Q 1113 2306 1113 2041 
L 1113 63 
L 563 63 
L 563 3250 
L 1075 3250 
L 1075 2700 
Q 1391 3316 2028 3316 
Q 2725 3316 2956 2647 
Q 3303 3316 3953 3316 
Q 4478 3316 4772 2944 
Q 5022 2638 5022 2072 
L 5022 63 
z
" transform="scale(0.015625)"/>
       <path id="IPAexGothic-75" d="M 3284 63 
L 2772 63 
L 2772 644 
Q 2300 0 1625 0 
Q 1072 0 763 375 
Q 519 678 519 1241 
L 519 3250 
L 1069 3250 
L 1069 1259 
Q 1069 466 1734 466 
Q 2406 466 2734 1291 
L 2734 3250 
L 3284 3250 
L 3284 63 
z
" transform="scale(0.015625)"/>
       <path id="IPAexGothic-74" d="M 2125 241 
Q 1769 -6 1397 -6 
Q 653 -6 653 831 
L 653 2859 
L 219 2859 
L 219 3250 
L 653 3250 
L 653 3966 
L 1178 4228 
L 1178 3250 
L 2063 3250 
L 2063 2859 
L 1178 2859 
L 1178 906 
Q 1178 416 1513 416 
Q 1738 416 1941 588 
L 2125 241 
z
" transform="scale(0.015625)"/>
       <path id="IPAexGothic-61" d="M 3156 63 
L 2672 63 
Q 2559 303 2531 556 
L 2509 556 
Q 2147 -25 1428 -25 
Q 934 -25 622 288 
Q 347 563 347 959 
Q 347 1947 2050 1997 
L 2478 2009 
L 2478 2175 
Q 2478 2509 2288 2700 
Q 2088 2900 1775 2900 
Q 1238 2900 969 2378 
L 494 2597 
Q 938 3328 1788 3328 
Q 2375 3328 2691 3000 
Q 2984 2706 2984 2169 
L 2984 997 
Q 2984 400 3156 63 
z
M 2491 1625 
L 2141 1619 
Q 903 1591 903 953 
Q 903 728 1050 581 
Q 1231 403 1525 403 
Q 1934 403 2234 703 
Q 2491 969 2491 1344 
L 2491 1625 
z
" transform="scale(0.015625)"/>
       <path id="IPAexGothic-69" d="M 1178 3928 
L 550 3928 
L 550 4569 
L 1178 4569 
L 1178 3928 
z
M 1138 63 
L 588 63 
L 588 3250 
L 1138 3250 
L 1138 63 
z
" transform="scale(0.015625)"/>
       <path id="IPAexGothic-6f" d="M 1919 3341 
Q 2594 3341 3056 2888 
Q 3531 2413 3531 1638 
Q 3531 888 3066 422 
Q 2609 -31 1919 -31 
Q 1228 -31 781 416 
Q 313 881 313 1656 
Q 313 2413 788 2888 
Q 1241 3341 1919 3341 
z
M 1919 2919 
Q 1519 2919 1241 2631 
Q 888 2278 888 1650 
Q 888 1031 1234 684 
Q 1516 403 1919 403 
Q 2331 403 2609 691 
Q 2956 1038 2956 1672 
Q 2956 2269 2603 2631 
Q 2316 2919 1919 2919 
z
" transform="scale(0.015625)"/>
       <path id="IPAexGothic-6e" d="M 3328 63 
L 2778 63 
L 2778 2041 
Q 2778 2853 2106 2853 
Q 1428 2853 1113 2041 
L 1113 63 
L 563 63 
L 563 3250 
L 1075 3250 
L 1075 2675 
Q 1525 3316 2222 3316 
Q 3328 3316 3328 2072 
L 3328 63 
z
" transform="scale(0.015625)"/>
       <path id="IPAexGothic-20" transform="scale(0.015625)"/>
       <path id="IPAexGothic-70" d="M 1075 2688 
Q 1525 3341 2206 3341 
Q 2769 3341 3172 2938 
Q 3641 2469 3641 1644 
Q 3641 841 3178 372 
Q 2775 -31 2200 -31 
Q 1569 -31 1106 497 
L 1106 -1216 
L 563 -1216 
L 563 3250 
L 1075 3250 
L 1075 2688 
z
M 1106 1950 
L 1106 1291 
Q 1106 897 1516 600 
Q 1791 403 2106 403 
Q 2469 403 2725 659 
Q 3066 997 3066 1631 
Q 3066 2200 2784 2559 
Q 2503 2900 2100 2900 
Q 1656 2900 1338 2484 
Q 1106 2184 1106 1950 
z
" transform="scale(0.015625)"/>
       <path id="IPAexGothic-63" d="M 3269 784 
Q 2834 -31 1900 -31 
Q 1228 -31 788 409 
Q 313 891 313 1663 
Q 313 2428 788 2913 
Q 1222 3347 1881 3347 
Q 2813 3347 3206 2541 
L 2763 2309 
Q 2484 2900 1900 2900 
Q 1516 2900 1234 2619 
Q 881 2266 881 1650 
Q 881 1069 1222 728 
Q 1522 428 1956 428 
Q 2547 428 2847 1016 
L 3269 784 
z
" transform="scale(0.015625)"/>
      </defs>
      <use xlink:href="#IPAexGothic-50"/>
      <use xlink:href="#IPAexGothic-65" transform="translate(62.109375 0)"/>
      <use xlink:href="#IPAexGothic-72" transform="translate(118.994141 0)"/>
      <use xlink:href="#IPAexGothic-6d" transform="translate(156.005859 0)"/>
      <use xlink:href="#IPAexGothic-75" transform="translate(243.115234 0)"/>
      <use xlink:href="#IPAexGothic-74" transform="translate(303.515625 0)"/>
      <use xlink:href="#IPAexGothic-61" transform="translate(338.134766 0)"/>
      <use xlink:href="#IPAexGothic-74" transform="translate(393.115234 0)"/>
      <use xlink:href="#IPAexGothic-69" transform="translate(427.734375 0)"/>
      <use xlink:href="#IPAexGothic-6f" transform="translate(454.736328 0)"/>
      <use xlink:href="#IPAexGothic-6e" transform="translate(515.136719 0)"/>
      <use xlink:href="#IPAexGothic-20" transform="translate(575.537109 0)"/>
      <use xlink:href="#IPAexGothic-69" transform="translate(602.539062 0)"/>
      <use xlink:href="#IPAexGothic-6d" transform="translate(629.541016 0)"/>
      <use xlink:href="#IPAexGothic-70" transform="translate(716.650391 0)"/>
      <use xlink:href="#IPAexGothic-6f" transform="translate(778.759766 0)"/>
      <use xlink:href="#IPAexGothic-72" transform="translate(839.160156 0)"/>
      <use xlink:href="#IPAexGothic-74" transform="translate(876.171875 0)"/>
      <use xlink:href="#IPAexGothic-61" transform="translate(910.791016 0)"/>
      <use xlink:href="#IPAexGothic-6e" transform="translate(965.771484 0)"/>
      <use xlink:href="#IPAexGothic-63" transform="translate(1026.171875 0)"/>
      <use xlink:href="#IPAexGothic-65" transform="translate(1080.566406 0)"/>
     </g>
    </g>
   </g>
  </g>
 </g>
 <defs>
  <clipPath id="p47a3631284">
   <rect x="53.26" y="7.2" width="558" height="221.76"/>
  </clipPath>
 </defs>
</svg>
