<?xml version="1.0" encoding="utf-8" standalone="no"?>
<!DOCTYPE svg PUBLIC "-//W3C//DTD SVG 1.1//EN"
  "http://www.w3.org/Graphics/SVG/1.1/DTD/svg11.dtd">
<svg xmlns:xlink="http://www.w3.org/1999/xlink" width="468pt" height="288pt" viewBox="0 0 468 288" xmlns="http://www.w3.org/2000/svg" version="1.1">
 <metadata>
  <rdf:RDF xmlns:dc="http://purl.org/dc/elements/1.1/" xmlns:cc="http://creativecommons.org/ns#" xmlns:rdf="http://www.w3.org/1999/02/22-rdf-syntax-ns#">
   <cc:Work>
    <dc:type rdf:resource="http://purl.org/dc/dcmitype/StillImage"/>
    <dc:date>2025-10-29T09:07:47.834980</dc:date>
    <dc:format>image/svg+xml</dc:format>
    <dc:creator>
     <cc:Agent>
      <dc:title>Matplotlib v3.10.7, https://matplotlib.org/</dc:title>
     </cc:Agent>
    </dc:creator>
   </cc:Work>
  </rdf:RDF>
 </metadata>
 <defs>
  <style type="text/css">*{stroke-linejoin: round; stroke-linecap: butt}</style>
 </defs>
 <g id="figure_1">
  <g id="patch_1">
   <path d="M 0 288 
L 468 288 
L 468 0 
L 0 0 
z
" style="fill: #ffffff"/>
  </g>
  <g id="axes_1">
   <g id="patch_2">
    <path d="M 58.68 239.94 
L 455.04 239.94 
L 455.04 28.32 
L 58.68 28.32 
z
" style="fill: #ffffff"/>
   </g>
   <g id="matplotlib.axis_1">
    <g id="xtick_1">
     <g id="line2d_1">
      <path d="M 76.696364 239.94 
L 76.696364 28.32 
" clip-path="url(#pbddd021844)" style="fill: none; stroke: #cccccc; stroke-opacity: 0.3; stroke-linecap: round"/>
     </g>
     <g id="text_1">
      <!-- 1 -->
      <g style="fill: #262626" transform="translate(73.232223 257.679688) scale(0.11 -0.11)">
       <defs>
        <path id="IPAexGothic-31" d="M 2463 63 
L 1900 63 
L 1900 4103 
Q 1372 3922 788 3797 
L 684 4231 
Q 1519 4441 2106 4731 
L 2463 4731 
L 2463 63 
z
" transform="scale(0.015625)"/>
       </defs>
       <use xlink:href="#IPAexGothic-31"/>
      </g>
     </g>
    </g>
    <g id="xtick_2">
     <g id="line2d_2">
      <path d="M 109.453388 239.94 
L 109.453388 28.32 
" clip-path="url(#pbddd021844)" style="fill: none; stroke: #cccccc; stroke-opacity: 0.3; stroke-linecap: round"/>
     </g>
     <g id="text_2">
      <!-- 2 -->
      <g style="fill: #262626" transform="translate(105.989248 257.679688) scale(0.11 -0.11)">
       <defs>
        <path id="IPAexGothic-32" d="M 3659 63 
L 447 63 
L 447 594 
Q 825 1475 1894 2203 
L 2072 2322 
Q 2619 2697 2791 2906 
Q 2988 3153 2988 3444 
Q 2988 3772 2756 4003 
Q 2500 4259 2084 4259 
Q 1250 4259 991 3328 
L 497 3506 
Q 853 4725 2116 4725 
Q 2806 4725 3216 4316 
Q 3575 3947 3575 3425 
Q 3575 3038 3344 2722 
Q 3131 2416 2366 1938 
L 2231 1856 
Q 1256 1253 978 569 
L 3659 569 
L 3659 63 
z
" transform="scale(0.015625)"/>
       </defs>
       <use xlink:href="#IPAexGothic-32"/>
      </g>
     </g>
    </g>
    <g id="xtick_3">
     <g id="line2d_3">
      <path d="M 142.210413 239.94 
L 142.210413 28.32 
" clip-path="url(#pbddd021844)" style="fill: none; stroke: #cccccc; stroke-opacity: 0.3; stroke-linecap: round"/>
     </g>
     <g id="text_3">
      <!-- 3 -->
      <g style="fill: #262626" transform="translate(138.746273 257.679688) scale(0.11 -0.11)">
       <defs>
        <path id="IPAexGothic-33" d="M 2381 2419 
Q 3506 2216 3506 1278 
Q 3506 716 3128 356 
Q 2709 -31 1944 -31 
Q 797 -31 288 881 
L 756 1131 
Q 1109 441 1938 441 
Q 2425 441 2694 691 
Q 2950 928 2950 1291 
Q 2950 1719 2566 1978 
Q 2216 2213 1644 2213 
L 1363 2213 
L 1363 2669 
L 1656 2669 
Q 2231 2669 2534 2888 
Q 2859 3119 2859 3509 
Q 2859 3934 2494 4138 
Q 2259 4278 1931 4278 
Q 1238 4278 903 3578 
L 434 3803 
Q 897 4725 1938 4725 
Q 2597 4725 3006 4394 
Q 3416 4069 3416 3534 
Q 3416 3028 3019 2706 
Q 2763 2500 2381 2444 
L 2381 2419 
z
" transform="scale(0.015625)"/>
       </defs>
       <use xlink:href="#IPAexGothic-33"/>
      </g>
     </g>
    </g>
    <g id="xtick_4">
     <g id="line2d_4">
      <path d="M 174.967438 239.94 
L 174.967438 28.32 
" clip-path="url(#pbddd021844)" style="fill: none; stroke: #cccccc; stroke-opacity: 0.3; stroke-linecap: round"/>
     </g>
     <g id="text_4">
      <!-- 4 -->
      <g style="fill: #262626" transform="translate(171.503297 257.679688) scale(0.11 -0.11)">
       <defs>
        <path id="IPAexGothic-34" d="M 3813 1159 
L 3059 1159 
L 3059 63 
L 2547 63 
L 2547 1159 
L 197 1159 
L 197 1672 
L 2456 4678 
L 3059 4678 
L 3059 1634 
L 3813 1634 
L 3813 1159 
z
M 2578 4109 
L 2559 4109 
Q 2278 3656 2003 3284 
L 759 1634 
L 2547 1634 
L 2547 3144 
Q 2547 3481 2578 4109 
z
" transform="scale(0.015625)"/>
       </defs>
       <use xlink:href="#IPAexGothic-34"/>
      </g>
     </g>
    </g>
    <g id="xtick_5">
     <g id="line2d_5">
      <path d="M 207.724463 239.94 
L 207.724463 28.32 
" clip-path="url(#pbddd021844)" style="fill: none; stroke: #cccccc; stroke-opacity: 0.3; stroke-linecap: round"/>
     </g>
     <g id="text_5">
      <!-- 5 -->
      <g style="fill: #262626" transform="translate(204.260322 257.679688) scale(0.11 -0.11)">
       <defs>
        <path id="IPAexGothic-35" d="M 1178 2603 
Q 1634 2963 2172 2963 
Q 2816 2963 3241 2528 
Q 3638 2113 3638 1497 
Q 3638 938 3297 513 
Q 2869 -31 2031 -31 
Q 959 -31 469 784 
L 938 1028 
Q 1309 434 2013 434 
Q 2466 434 2769 716 
Q 3081 1013 3081 1503 
Q 3081 1966 2806 2241 
Q 2519 2528 2056 2528 
Q 1406 2528 1072 2028 
L 591 2091 
L 884 4634 
L 3406 4634 
L 3406 4153 
L 1341 4153 
L 1134 2603 
L 1178 2603 
z
" transform="scale(0.015625)"/>
       </defs>
       <use xlink:href="#IPAexGothic-35"/>
      </g>
     </g>
    </g>
    <g id="xtick_6">
     <g id="line2d_6">
      <path d="M 240.481488 239.94 
L 240.481488 28.32 
" clip-path="url(#pbddd021844)" style="fill: none; stroke: #cccccc; stroke-opacity: 0.3; stroke-linecap: round"/>
     </g>
     <g id="text_6">
      <!-- 6 -->
      <g style="fill: #262626" transform="translate(237.017347 257.679688) scale(0.11 -0.11)">
       <defs>
        <path id="IPAexGothic-36" d="M 1056 2328 
Q 1509 2981 2234 2981 
Q 2906 2981 3316 2513 
Q 3675 2106 3675 1522 
Q 3675 884 3272 434 
Q 2853 -31 2178 -31 
Q 1375 -31 922 581 
Q 481 1178 481 2228 
Q 481 3425 1013 4109 
Q 1494 4725 2272 4725 
Q 3191 4725 3609 4025 
L 3150 3775 
Q 2894 4266 2300 4266 
Q 1119 4266 1031 2328 
L 1056 2328 
z
M 2141 2547 
Q 1684 2547 1384 2206 
Q 1116 1900 1116 1541 
Q 1116 1156 1353 844 
Q 1672 428 2159 428 
Q 2669 428 2941 844 
Q 3125 1128 3125 1503 
Q 3125 1944 2881 2228 
Q 2600 2547 2141 2547 
z
" transform="scale(0.015625)"/>
       </defs>
       <use xlink:href="#IPAexGothic-36"/>
      </g>
     </g>
    </g>
    <g id="xtick_7">
     <g id="line2d_7">
      <path d="M 273.238512 239.94 
L 273.238512 28.32 
" clip-path="url(#pbddd021844)" style="fill: none; stroke: #cccccc; stroke-opacity: 0.3; stroke-linecap: round"/>
     </g>
     <g id="text_7">
      <!-- 7 -->
      <g style="fill: #262626" transform="translate(269.774372 257.679688) scale(0.11 -0.11)">
       <defs>
        <path id="IPAexGothic-37" d="M 3597 4263 
Q 2238 2106 1778 63 
L 1131 63 
Q 1581 1834 2950 4128 
L 428 4128 
L 428 4634 
L 3597 4634 
L 3597 4263 
z
" transform="scale(0.015625)"/>
       </defs>
       <use xlink:href="#IPAexGothic-37"/>
      </g>
     </g>
    </g>
    <g id="xtick_8">
     <g id="line2d_8">
      <path d="M 305.995537 239.94 
L 305.995537 28.32 
" clip-path="url(#pbddd021844)" style="fill: none; stroke: #cccccc; stroke-opacity: 0.3; stroke-linecap: round"/>
     </g>
     <g id="text_8">
      <!-- 8 -->
      <g style="fill: #262626" transform="translate(302.531397 257.679688) scale(0.11 -0.11)">
       <defs>
        <path id="IPAexGothic-38" d="M 2541 2425 
Q 3700 2031 3700 1197 
Q 3700 541 3100 197 
Q 2663 -56 2016 -56 
Q 1366 -56 928 197 
Q 347 531 347 1178 
Q 347 1988 1409 2381 
L 1409 2400 
Q 481 2734 481 3509 
Q 481 4100 981 4456 
Q 1406 4756 2019 4756 
Q 2703 4756 3131 4403 
Q 3553 4069 3553 3566 
Q 3553 2706 2541 2444 
L 2541 2425 
z
M 2022 2625 
Q 2997 2856 2997 3528 
Q 2997 3916 2675 4150 
Q 2413 4347 2016 4347 
Q 1606 4347 1331 4128 
Q 1050 3897 1050 3522 
Q 1050 3150 1350 2925 
Q 1494 2809 1722 2722 
Q 1984 2616 2022 2625 
z
M 1978 2209 
Q 922 1931 922 1216 
Q 922 775 1313 556 
Q 1606 391 2009 391 
Q 2575 391 2881 697 
Q 3106 922 3106 1250 
Q 3106 1594 2794 1850 
Q 2609 1994 2350 2100 
Q 2047 2222 1978 2209 
z
" transform="scale(0.015625)"/>
       </defs>
       <use xlink:href="#IPAexGothic-38"/>
      </g>
     </g>
    </g>
    <g id="xtick_9">
     <g id="line2d_9">
      <path d="M 338.752562 239.94 
L 338.752562 28.32 
" clip-path="url(#pbddd021844)" style="fill: none; stroke: #cccccc; stroke-opacity: 0.3; stroke-linecap: round"/>
     </g>
     <g id="text_9">
      <!-- 9 -->
      <g style="fill: #262626" transform="translate(335.288421 257.679688) scale(0.11 -0.11)">
       <defs>
        <path id="IPAexGothic-39" d="M 2984 2356 
Q 2544 1716 1813 1716 
Q 1253 1716 847 2056 
Q 366 2459 366 3163 
Q 366 3813 769 4266 
Q 1181 4725 1869 4725 
Q 2800 4725 3241 3950 
Q 3559 3378 3559 2472 
Q 3559 1250 3041 588 
Q 2553 -31 1769 -31 
Q 859 -31 391 703 
L 853 953 
Q 1156 428 1753 428 
Q 2922 428 3009 2356 
L 2984 2356 
z
M 1888 4278 
Q 1450 4278 1172 3950 
Q 922 3653 922 3200 
Q 922 2741 1159 2478 
Q 1434 2163 1906 2163 
Q 2431 2163 2728 2572 
Q 2925 2847 2925 3169 
Q 2925 3553 2694 3863 
Q 2375 4278 1888 4278 
z
" transform="scale(0.015625)"/>
       </defs>
       <use xlink:href="#IPAexGothic-39"/>
      </g>
     </g>
    </g>
    <g id="xtick_10">
     <g id="line2d_10">
      <path d="M 371.509587 239.94 
L 371.509587 28.32 
" clip-path="url(#pbddd021844)" style="fill: none; stroke: #cccccc; stroke-opacity: 0.3; stroke-linecap: round"/>
     </g>
     <g id="text_10">
      <!-- 10 -->
      <g style="fill: #262626" transform="translate(364.581306 257.679688) scale(0.11 -0.11)">
       <defs>
        <path id="IPAexGothic-30" d="M 2038 4725 
Q 2881 4725 3334 3944 
Q 3694 3325 3694 2344 
Q 3694 1372 3334 741 
Q 2888 -31 2016 -31 
Q 1147 -31 700 741 
Q 341 1372 341 2350 
Q 341 3713 1000 4334 
Q 1419 4725 2038 4725 
z
M 2016 4266 
Q 1516 4266 1228 3759 
Q 934 3247 934 2344 
Q 934 1456 1222 947 
Q 1513 447 2016 447 
Q 2619 447 2909 1153 
Q 3100 1622 3100 2375 
Q 3100 3256 2806 3759 
Q 2509 4266 2016 4266 
z
" transform="scale(0.015625)"/>
       </defs>
       <use xlink:href="#IPAexGothic-31"/>
       <use xlink:href="#IPAexGothic-30" transform="translate(62.988281 0)"/>
      </g>
     </g>
    </g>
    <g id="xtick_11">
     <g id="line2d_11">
      <path d="M 404.266612 239.94 
L 404.266612 28.32 
" clip-path="url(#pbddd021844)" style="fill: none; stroke: #cccccc; stroke-opacity: 0.3; stroke-linecap: round"/>
     </g>
     <g id="text_11">
      <!-- 11 -->
      <g style="fill: #262626" transform="translate(397.33833 257.679688) scale(0.11 -0.11)">
       <use xlink:href="#IPAexGothic-31"/>
       <use xlink:href="#IPAexGothic-31" transform="translate(62.988281 0)"/>
      </g>
     </g>
    </g>
    <g id="xtick_12">
     <g id="line2d_12">
      <path d="M 437.023636 239.94 
L 437.023636 28.32 
" clip-path="url(#pbddd021844)" style="fill: none; stroke: #cccccc; stroke-opacity: 0.3; stroke-linecap: round"/>
     </g>
     <g id="text_12">
      <!-- 12 -->
      <g style="fill: #262626" transform="translate(430.095355 257.679688) scale(0.11 -0.11)">
       <use xlink:href="#IPAexGothic-31"/>
       <use xlink:href="#IPAexGothic-32" transform="translate(62.988281 0)"/>
      </g>
     </g>
    </g>
    <g id="text_13">
     <!-- 月 -->
     <g style="fill: #262626" transform="translate(250.86 272.758438) scale(0.12 -0.12)">
      <defs>
       <path id="IPAexGothic-6708" d="M 5044 4984 
L 5044 256 
Q 5044 -78 4869 -203 
Q 4734 -300 4403 -300 
Q 3894 -300 3253 -247 
L 3169 244 
Q 3750 159 4294 159 
Q 4503 159 4547 263 
Q 4569 313 4569 438 
L 4569 1672 
L 1953 1672 
Q 1906 956 1716 475 
Q 1538 6 1116 -472 
L 744 -63 
Q 1259 475 1403 1244 
Q 1500 1772 1500 2650 
L 1500 4984 
L 5044 4984 
z
M 1981 4569 
L 1981 3541 
L 4569 3541 
L 4569 4569 
L 1981 4569 
z
M 1981 3144 
L 1981 2556 
Q 1981 2288 1975 2147 
L 1975 2069 
L 4569 2069 
L 4569 3144 
L 1981 3144 
z
" transform="scale(0.015625)"/>
      </defs>
      <use xlink:href="#IPAexGothic-6708"/>
     </g>
    </g>
   </g>
   <g id="matplotlib.axis_2">
    <g id="ytick_1">
     <g id="line2d_13">
      <path d="M 58.68 225.893371 
L 455.04 225.893371 
" clip-path="url(#pbddd021844)" style="fill: none; stroke: #cccccc; stroke-opacity: 0.3; stroke-linecap: round"/>
     </g>
     <g id="text_14">
      <!-- 80 -->
      <g style="fill: #262626" transform="translate(35.323437 230.013215) scale(0.11 -0.11)">
       <use xlink:href="#IPAexGothic-38"/>
       <use xlink:href="#IPAexGothic-30" transform="translate(62.988281 0)"/>
      </g>
     </g>
    </g>
    <g id="ytick_2">
     <g id="line2d_14">
      <path d="M 58.68 195.170368 
L 455.04 195.170368 
" clip-path="url(#pbddd021844)" style="fill: none; stroke: #cccccc; stroke-opacity: 0.3; stroke-linecap: round"/>
     </g>
     <g id="text_15">
      <!-- 90 -->
      <g style="fill: #262626" transform="translate(35.323437 199.290211) scale(0.11 -0.11)">
       <use xlink:href="#IPAexGothic-39"/>
       <use xlink:href="#IPAexGothic-30" transform="translate(62.988281 0)"/>
      </g>
     </g>
    </g>
    <g id="ytick_3">
     <g id="line2d_15">
      <path d="M 58.68 164.447364 
L 455.04 164.447364 
" clip-path="url(#pbddd021844)" style="fill: none; stroke: #cccccc; stroke-opacity: 0.3; stroke-linecap: round"/>
     </g>
     <g id="text_16">
      <!-- 100 -->
      <g style="fill: #262626" transform="translate(28.395156 168.567208) scale(0.11 -0.11)">
       <use xlink:href="#IPAexGothic-31"/>
       <use xlink:href="#IPAexGothic-30" transform="translate(62.988281 0)"/>
       <use xlink:href="#IPAexGothic-30" transform="translate(125.976562 0)"/>
      </g>
     </g>
    </g>
    <g id="ytick_4">
     <g id="line2d_16">
      <path d="M 58.68 133.72436 
L 455.04 133.72436 
" clip-path="url(#pbddd021844)" style="fill: none; stroke: #cccccc; stroke-opacity: 0.3; stroke-linecap: round"/>
     </g>
     <g id="text_17">
      <!-- 110 -->
      <g style="fill: #262626" transform="translate(28.395156 137.844204) scale(0.11 -0.11)">
       <use xlink:href="#IPAexGothic-31"/>
       <use xlink:href="#IPAexGothic-31" transform="translate(62.988281 0)"/>
       <use xlink:href="#IPAexGothic-30" transform="translate(125.976562 0)"/>
      </g>
     </g>
    </g>
    <g id="ytick_5">
     <g id="line2d_17">
      <path d="M 58.68 103.001356 
L 455.04 103.001356 
" clip-path="url(#pbddd021844)" style="fill: none; stroke: #cccccc; stroke-opacity: 0.3; stroke-linecap: round"/>
     </g>
     <g id="text_18">
      <!-- 120 -->
      <g style="fill: #262626" transform="translate(28.395156 107.1212) scale(0.11 -0.11)">
       <use xlink:href="#IPAexGothic-31"/>
       <use xlink:href="#IPAexGothic-32" transform="translate(62.988281 0)"/>
       <use xlink:href="#IPAexGothic-30" transform="translate(125.976562 0)"/>
      </g>
     </g>
    </g>
    <g id="ytick_6">
     <g id="line2d_18">
      <path d="M 58.68 72.278353 
L 455.04 72.278353 
" clip-path="url(#pbddd021844)" style="fill: none; stroke: #cccccc; stroke-opacity: 0.3; stroke-linecap: round"/>
     </g>
     <g id="text_19">
      <!-- 130 -->
      <g style="fill: #262626" transform="translate(28.395156 76.398197) scale(0.11 -0.11)">
       <use xlink:href="#IPAexGothic-31"/>
       <use xlink:href="#IPAexGothic-33" transform="translate(62.988281 0)"/>
       <use xlink:href="#IPAexGothic-30" transform="translate(125.976562 0)"/>
      </g>
     </g>
    </g>
    <g id="ytick_7">
     <g id="line2d_19">
      <path d="M 58.68 41.555349 
L 455.04 41.555349 
" clip-path="url(#pbddd021844)" style="fill: none; stroke: #cccccc; stroke-opacity: 0.3; stroke-linecap: round"/>
     </g>
     <g id="text_20">
      <!-- 140 -->
      <g style="fill: #262626" transform="translate(28.395156 45.675193) scale(0.11 -0.11)">
       <use xlink:href="#IPAexGothic-31"/>
       <use xlink:href="#IPAexGothic-34" transform="translate(62.988281 0)"/>
       <use xlink:href="#IPAexGothic-30" transform="translate(125.976562 0)"/>
      </g>
     </g>
    </g>
    <g id="text_21">
     <!-- 売上予測（百万円） -->
     <g style="fill: #262626" transform="translate(22.115156 188.13) rotate(-90) scale(0.12 -0.12)">
      <defs>
       <path id="IPAexGothic-58f2" d="M 2938 4544 
L 2938 5313 
L 3419 5313 
L 3419 4544 
L 5781 4544 
L 5781 4147 
L 3419 4147 
L 3419 3559 
L 5306 3559 
L 5306 3163 
L 1088 3163 
L 1088 3559 
L 2938 3559 
L 2938 4147 
L 609 4147 
L 609 4544 
L 2938 4544 
z
M 5684 2706 
L 5684 1522 
L 5216 1522 
L 5216 2316 
L 1178 2316 
L 1178 1478 
L 709 1478 
L 709 2706 
L 5684 2706 
z
M 531 -84 
Q 1494 91 1894 556 
Q 2213 913 2222 1972 
L 2688 1972 
Q 2678 756 2216 225 
Q 1794 -256 819 -506 
L 531 -84 
z
M 3622 1972 
L 4091 1972 
L 4091 353 
Q 4091 191 4181 153 
Q 4313 100 4684 100 
Q 5169 100 5294 159 
Q 5503 256 5513 1006 
L 5972 863 
Q 5944 -22 5691 -206 
Q 5503 -347 4659 -347 
Q 3981 -347 3809 -250 
Q 3622 -144 3622 178 
L 3622 1972 
z
" transform="scale(0.015625)"/>
       <path id="IPAexGothic-4e0a" d="M 3259 3366 
L 5475 3366 
L 5475 2913 
L 3259 2913 
L 3259 556 
L 5991 556 
L 5991 103 
L 391 103 
L 391 556 
L 2772 556 
L 2772 5050 
L 3259 5050 
L 3259 3366 
z
" transform="scale(0.015625)"/>
       <path id="IPAexGothic-4e88" d="M 3541 3491 
Q 3644 3419 3816 3300 
Q 3944 3213 3997 3175 
L 3663 2894 
L 5603 2894 
L 5872 2625 
Q 5181 1709 4463 1069 
L 4066 1378 
Q 4722 1878 5153 2466 
L 3509 2466 
L 3509 147 
Q 3509 -150 3388 -263 
Q 3266 -384 2822 -384 
Q 2341 -384 1863 -331 
L 1766 172 
Q 2416 84 2766 84 
Q 3022 84 3022 334 
L 3022 2466 
L 513 2466 
L 513 2894 
L 3553 2894 
Q 2809 3488 1947 3963 
L 2247 4291 
Q 2741 4009 3181 3725 
Q 3941 4191 4400 4591 
L 1159 4591 
L 1159 5006 
L 4975 5006 
L 5250 4725 
Q 4428 4044 3541 3491 
z
" transform="scale(0.015625)"/>
       <path id="IPAexGothic-6e2c" d="M 3856 4884 
L 3856 1081 
L 2059 1081 
L 2059 4884 
L 3856 4884 
z
M 2456 4494 
L 2456 3756 
L 3459 3756 
L 3459 4494 
L 2456 4494 
z
M 2456 3384 
L 2456 2656 
L 3459 2656 
L 3459 3384 
L 2456 3384 
z
M 2456 2284 
L 2456 1478 
L 3459 1478 
L 3459 2284 
L 2456 2284 
z
M 1413 3891 
Q 1000 4428 556 4763 
L 856 5100 
Q 1309 4753 1734 4269 
L 1413 3891 
z
M 1222 2394 
Q 816 2878 325 3256 
L 625 3591 
Q 1141 3231 1528 2778 
L 1222 2394 
z
M 375 -78 
Q 916 800 1297 1906 
L 1669 1619 
Q 1284 478 759 -428 
L 375 -78 
z
M 3819 -256 
Q 3478 319 3128 716 
L 3469 966 
Q 3834 581 4172 63 
L 3819 -256 
z
M 4378 4513 
L 4806 4513 
L 4806 959 
L 4378 959 
L 4378 4513 
z
M 1638 -109 
Q 2103 300 2450 984 
L 2828 763 
Q 2425 -6 1944 -488 
L 1638 -109 
z
M 5419 5081 
L 5853 5081 
L 5853 109 
Q 5853 -391 5297 -391 
Q 4919 -391 4541 -359 
L 4441 109 
Q 4928 50 5219 50 
Q 5419 50 5419 244 
L 5419 5081 
z
" transform="scale(0.015625)"/>
       <path id="IPAexGothic-ff08" d="M 5419 -434 
Q 4197 769 4197 2438 
Q 4197 4097 5419 5300 
L 5919 5300 
Q 4678 4078 4678 2425 
Q 4678 788 5919 -434 
L 5419 -434 
z
" transform="scale(0.015625)"/>
       <path id="IPAexGothic-767e" d="M 3119 3431 
L 5263 3431 
L 5263 -447 
L 4781 -447 
L 4781 -31 
L 1616 -31 
L 1616 -447 
L 1134 -447 
L 1134 3431 
L 2638 3431 
Q 2747 3838 2819 4403 
L 481 4403 
L 481 4825 
L 5916 4825 
L 5916 4403 
L 3350 4403 
Q 3250 3881 3144 3522 
L 3119 3431 
z
M 4781 3022 
L 1616 3022 
L 1616 1947 
L 4781 1947 
L 4781 3022 
z
M 1616 1550 
L 1616 372 
L 4781 372 
L 4781 1550 
L 1616 1550 
z
" transform="scale(0.015625)"/>
       <path id="IPAexGothic-4e07" d="M 2888 4316 
Q 2878 3816 2828 3128 
L 5369 3128 
Q 5284 984 5056 300 
Q 4950 -22 4750 -134 
Q 4556 -250 4181 -250 
Q 3659 -250 3091 -159 
L 3028 363 
Q 3638 225 4103 225 
Q 4456 225 4569 463 
Q 4797 906 4866 2700 
L 2784 2700 
Q 2534 575 934 -391 
L 591 -6 
Q 1900 716 2216 2200 
Q 2394 3041 2394 4316 
L 506 4316 
L 506 4756 
L 5888 4756 
L 5888 4316 
L 2888 4316 
z
" transform="scale(0.015625)"/>
       <path id="IPAexGothic-5186" d="M 5594 4806 
L 5594 322 
Q 5594 34 5491 -97 
Q 5366 -269 4959 -269 
Q 4469 -269 3897 -225 
L 3809 275 
Q 4378 206 4844 206 
Q 5106 206 5106 434 
L 5106 2119 
L 1281 2119 
L 1281 -359 
L 794 -359 
L 794 4806 
L 5594 4806 
z
M 1281 4366 
L 1281 2547 
L 2944 2547 
L 2944 4366 
L 1281 4366 
z
M 5106 2547 
L 5106 4366 
L 3413 4366 
L 3413 2547 
L 5106 2547 
z
" transform="scale(0.015625)"/>
       <path id="IPAexGothic-ff09" d="M 481 -434 
Q 1722 788 1722 2431 
Q 1722 4066 481 5300 
L 981 5300 
Q 2203 4097 2203 2431 
Q 2203 769 981 -434 
L 481 -434 
z
" transform="scale(0.015625)"/>
      </defs>
      <use xlink:href="#IPAexGothic-58f2"/>
      <use xlink:href="#IPAexGothic-4e0a" transform="translate(100 0)"/>
      <use xlink:href="#IPAexGothic-4e88" transform="translate(200 0)"/>
      <use xlink:href="#IPAexGothic-6e2c" transform="translate(300 0)"/>
      <use xlink:href="#IPAexGothic-ff08" transform="translate(400 0)"/>
      <use xlink:href="#IPAexGothic-767e" transform="translate(500 0)"/>
      <use xlink:href="#IPAexGothic-4e07" transform="translate(600 0)"/>
      <use xlink:href="#IPAexGothic-5186" transform="translate(700 0)"/>
      <use xlink:href="#IPAexGothic-ff09" transform="translate(800 0)"/>
     </g>
    </g>
   </g>
   <g id="FillBetweenPolyCollection_1">
    <defs>
     <path id="md76614f31d" d="M 76.696364 -96.295425 
L 76.696364 -57.679091 
L 109.453388 -59.939032 
L 142.210413 -78.871808 
L 174.967438 -97.356082 
L 207.724463 -89.115702 
L 240.481488 -98.100931 
L 273.238512 -125.496156 
L 305.995537 -142.301252 
L 338.752562 -149.29457 
L 371.509587 -167.064624 
L 404.266612 -170.085609 
L 437.023636 -206.150728 
L 437.023636 -250.060909 
L 437.023636 -250.060909 
L 404.266612 -215.556262 
L 371.509587 -208.461445 
L 338.752562 -191.290371 
L 305.995537 -177.867584 
L 273.238512 -165.655458 
L 240.481488 -141.389641 
L 207.724463 -131.672866 
L 174.967438 -135.080263 
L 142.210413 -110.645379 
L 109.453388 -104.813198 
L 76.696364 -96.295425 
z
" style="stroke: #93c5fd; stroke-opacity: 0.4"/>
    </defs>
    <g clip-path="url(#pbddd021844)">
     <use xlink:href="#md76614f31d" x="0" y="288" style="fill: #93c5fd; fill-opacity: 0.4; stroke: #93c5fd; stroke-opacity: 0.4"/>
    </g>
   </g>
   <g id="line2d_20">
    <path d="M 76.696364 214.288388 
L 109.453388 205.170357 
L 142.210413 193.478055 
L 174.967438 174.945399 
L 207.724463 180.537795 
L 240.481488 165.980777 
L 273.238512 142.32634 
L 305.995537 130.299776 
L 338.752562 117.732372 
L 371.509587 96.729182 
L 404.266612 94.859567 
L 437.023636 61.791708 
" clip-path="url(#pbddd021844)" style="fill: none; stroke: #2563eb; stroke-width: 2.5; stroke-linecap: round"/>
   </g>
   <g id="patch_3">
    <path d="M 58.68 239.94 
L 58.68 28.32 
" style="fill: none; stroke: #262626; stroke-width: 1.25; stroke-linejoin: miter; stroke-linecap: square"/>
   </g>
   <g id="patch_4">
    <path d="M 455.04 239.94 
L 455.04 28.32 
" style="fill: none; stroke: #262626; stroke-width: 1.25; stroke-linejoin: miter; stroke-linecap: square"/>
   </g>
   <g id="patch_5">
    <path d="M 58.68 239.94 
L 455.04 239.94 
" style="fill: none; stroke: #262626; stroke-width: 1.25; stroke-linejoin: miter; stroke-linecap: square"/>
   </g>
   <g id="patch_6">
    <path d="M 58.68 28.32 
L 455.04 28.32 
" style="fill: none; stroke: #262626; stroke-width: 1.25; stroke-linejoin: miter; stroke-linecap: square"/>
   </g>
   <g id="text_22">
    <!-- 売上予測と信頼区間 -->
    <g style="fill: #262626" transform="translate(202.86 22.32) scale(0.12 -0.12)">
     <defs>
      <path id="IPAexGothic-3068" d="M 5222 56 
Q 4200 -72 3450 -72 
Q 2478 -72 1941 113 
Q 1184 372 1184 1038 
Q 1184 1584 1594 2009 
Q 1941 2369 2656 2725 
Q 2231 3734 1972 4878 
L 2491 4978 
Q 2706 3884 3078 2950 
Q 4250 3447 4756 3616 
L 4978 3150 
Q 3181 2575 2409 2078 
Q 1691 1613 1691 1113 
Q 1691 403 3322 403 
Q 4125 403 5134 563 
L 5222 56 
z
" transform="scale(0.015625)"/>
      <path id="IPAexGothic-4fe1" d="M 1572 3809 
L 1572 -447 
L 1119 -447 
L 1119 2847 
Q 856 2372 550 1972 
L 300 2363 
Q 1172 3550 1566 5253 
L 2013 5147 
Q 1819 4428 1572 3809 
z
M 5534 1619 
L 5534 -447 
L 5081 -447 
L 5081 -116 
L 2763 -116 
L 2763 -447 
L 2316 -447 
L 2316 1619 
L 5534 1619 
z
M 2763 1234 
L 2763 269 
L 5081 269 
L 5081 1234 
L 2763 1234 
z
M 2475 4984 
L 5375 4984 
L 5375 4588 
L 2475 4588 
L 2475 4984 
z
M 2475 3297 
L 5375 3297 
L 5375 2906 
L 2475 2906 
L 2475 3297 
z
M 2475 2456 
L 5375 2456 
L 5375 2066 
L 2475 2066 
L 2475 2456 
z
M 1894 4147 
L 6003 4147 
L 6003 3738 
L 1894 3738 
L 1894 4147 
z
" transform="scale(0.015625)"/>
      <path id="IPAexGothic-983c" d="M 1513 1466 
Q 1109 591 494 -13 
L 219 344 
Q 953 994 1434 2016 
L 525 2016 
L 525 3578 
L 1513 3578 
L 1513 4134 
L 313 4134 
L 313 4531 
L 1513 4531 
L 1513 5313 
L 1922 5313 
L 1922 4531 
L 3109 4531 
L 3109 4134 
L 1922 4134 
L 1922 3578 
L 2925 3578 
L 2925 2016 
L 1922 2016 
L 1922 1734 
Q 2400 1369 2900 856 
L 2613 494 
Q 2288 919 1922 1288 
L 1922 -447 
L 1513 -447 
L 1513 1466 
z
M 1525 3200 
L 909 3200 
L 909 2388 
L 1525 2388 
L 1525 3200 
z
M 1909 3200 
L 1909 2388 
L 2541 2388 
L 2541 3200 
L 1909 3200 
z
M 4622 4025 
L 5709 4025 
L 5709 794 
L 3400 794 
L 3400 4025 
L 4225 4025 
Q 4309 4319 4359 4653 
L 3034 4653 
L 3034 5050 
L 6022 5050 
L 6022 4653 
L 4806 4653 
Q 4716 4288 4622 4025 
z
M 5300 3647 
L 3809 3647 
L 3809 3072 
L 5300 3072 
L 5300 3647 
z
M 3809 2713 
L 3809 2131 
L 5300 2131 
L 5300 2713 
L 3809 2713 
z
M 3809 1778 
L 3809 1166 
L 5300 1166 
L 5300 1778 
L 3809 1778 
z
M 5763 -434 
Q 5328 59 4713 519 
L 5038 763 
Q 5459 500 6138 -122 
L 5763 -434 
z
M 2791 -184 
Q 3566 234 3969 744 
L 4328 506 
Q 3772 -116 3113 -500 
L 2791 -184 
z
" transform="scale(0.015625)"/>
      <path id="IPAexGothic-533a" d="M 1294 4391 
L 1294 403 
L 5838 403 
L 5838 -25 
L 1294 -25 
L 1294 -447 
L 806 -447 
L 806 4819 
L 5678 4819 
L 5678 4391 
L 1294 4391 
z
M 3278 2375 
Q 2669 2909 1819 3500 
L 2125 3794 
Q 2881 3281 3547 2725 
Q 3959 3319 4306 4172 
L 4744 4000 
Q 4322 3038 3891 2431 
Q 4438 1959 5203 1216 
L 4850 856 
Q 4206 1534 3616 2075 
Q 2963 1284 1856 659 
L 1534 1013 
Q 2569 1553 3278 2375 
z
" transform="scale(0.015625)"/>
      <path id="IPAexGothic-9593" d="M 4450 2566 
L 4450 353 
L 2375 353 
L 2375 -25 
L 1953 -25 
L 1953 2566 
L 4450 2566 
z
M 4028 2200 
L 2375 2200 
L 2375 1653 
L 4028 1653 
L 4028 2200 
z
M 4028 1300 
L 2375 1300 
L 2375 719 
L 4028 719 
L 4028 1300 
z
M 2913 5019 
L 2913 3059 
L 1056 3059 
L 1056 -447 
L 609 -447 
L 609 5019 
L 2913 5019 
z
M 1056 4659 
L 1056 4206 
L 2497 4206 
L 2497 4659 
L 1056 4659 
z
M 1056 3881 
L 1056 3413 
L 2497 3413 
L 2497 3881 
L 1056 3881 
z
M 5788 5019 
L 5788 91 
Q 5788 -225 5641 -331 
Q 5525 -409 5231 -409 
Q 4803 -409 4481 -366 
L 4419 97 
Q 4853 38 5128 38 
Q 5341 38 5341 244 
L 5341 3059 
L 3438 3059 
L 3438 5019 
L 5788 5019 
z
M 3853 4659 
L 3853 4206 
L 5341 4206 
L 5341 4659 
L 3853 4659 
z
M 3853 3881 
L 3853 3413 
L 5341 3413 
L 5341 3881 
L 3853 3881 
z
" transform="scale(0.015625)"/>
     </defs>
     <use xlink:href="#IPAexGothic-58f2"/>
     <use xlink:href="#IPAexGothic-4e0a" transform="translate(100 0)"/>
     <use xlink:href="#IPAexGothic-4e88" transform="translate(200 0)"/>
     <use xlink:href="#IPAexGothic-6e2c" transform="translate(300 0)"/>
     <use xlink:href="#IPAexGothic-3068" transform="translate(400 0)"/>
     <use xlink:href="#IPAexGothic-4fe1" transform="translate(500 0)"/>
     <use xlink:href="#IPAexGothic-983c" transform="translate(600 0)"/>
     <use xlink:href="#IPAexGothic-533a" transform="translate(700 0)"/>
     <use xlink:href="#IPAexGothic-9593" transform="translate(800 0)"/>
    </g>
   </g>
   <g id="legend_1">
    <g id="patch_7">
     <path d="M 71.88 79.119375 
L 184.583594 79.119375 
Q 186.783594 79.119375 186.783594 76.919375 
L 186.783594 41.52 
Q 186.783594 39.32 184.583594 39.32 
L 71.88 39.32 
Q 69.68 39.32 69.68 41.52 
L 69.68 76.919375 
Q 69.68 79.119375 71.88 79.119375 
z
" style="fill: #ffffff; opacity: 0.8; stroke: #cccccc; stroke-linejoin: miter"/>
    </g>
    <g id="line2d_21">
     <path d="M 74.08 48.109687 
L 85.08 48.109687 
L 96.08 48.109687 
" style="fill: none; stroke: #2563eb; stroke-width: 2.5; stroke-linecap: round"/>
    </g>
    <g id="text_23">
     <!-- 予測値 -->
     <g style="fill: #262626" transform="translate(104.88 51.959687) scale(0.11 -0.11)">
      <defs>
       <path id="IPAexGothic-5024" d="M 4172 3675 
L 5453 3675 
L 5453 684 
L 3019 684 
L 3019 3675 
L 3750 3675 
Q 3788 3884 3825 4153 
L 2141 4153 
L 2141 4544 
L 3884 4544 
Q 3922 4844 3966 5325 
L 4434 5272 
L 4388 4953 
Q 4331 4578 4331 4544 
L 5863 4544 
L 5863 4153 
L 4269 4153 
Q 4200 3781 4172 3675 
z
M 5038 3316 
L 3434 3316 
L 3434 2803 
L 5038 2803 
L 5038 3316 
z
M 3434 2450 
L 3434 1941 
L 5038 1941 
L 5038 2450 
L 3434 2450 
z
M 3434 1588 
L 3434 1044 
L 5038 1044 
L 5038 1588 
L 3434 1588 
z
M 1509 3669 
L 1509 -447 
L 1069 -447 
L 1069 2725 
Q 856 2338 531 1875 
L 288 2266 
Q 1163 3531 1541 5325 
L 1975 5222 
Q 1791 4378 1509 3669 
z
M 2488 244 
L 6031 244 
L 6031 -153 
L 2488 -153 
L 2488 -447 
L 2059 -447 
L 2059 3213 
L 2488 3213 
L 2488 244 
z
" transform="scale(0.015625)"/>
      </defs>
      <use xlink:href="#IPAexGothic-4e88"/>
      <use xlink:href="#IPAexGothic-6e2c" transform="translate(100 0)"/>
      <use xlink:href="#IPAexGothic-5024" transform="translate(200 0)"/>
     </g>
    </g>
    <g id="patch_8">
     <path d="M 74.08 72.629375 
L 96.08 72.629375 
L 96.08 64.929375 
L 74.08 64.929375 
z
" style="fill: #93c5fd; fill-opacity: 0.4; stroke: #93c5fd; stroke-opacity: 0.4; stroke-linejoin: miter"/>
    </g>
    <g id="text_24">
     <!-- 予測区間 (80%) -->
     <g style="fill: #262626" transform="translate(104.88 72.629375) scale(0.11 -0.11)">
      <defs>
       <path id="IPAexGothic-20" transform="scale(0.015625)"/>
       <path id="IPAexGothic-28" d="M 1928 -1016 
L 1653 -1166 
Q 488 69 488 1875 
Q 488 3678 1653 4909 
L 1928 4763 
Q 1006 3522 1006 1881 
Q 1006 203 1928 -1016 
z
" transform="scale(0.015625)"/>
       <path id="IPAexGothic-25" d="M 4088 2481 
Q 4528 2481 4800 2181 
Q 5094 1847 5094 1203 
Q 5094 534 4728 197 
Q 4472 -38 4088 -38 
Q 3647 -38 3378 269 
Q 3084 600 3084 1222 
Q 3084 1906 3444 2244 
Q 3697 2481 4088 2481 
z
M 4081 2097 
Q 3566 2097 3566 1234 
Q 3566 356 4097 356 
Q 4613 356 4613 1241 
Q 4613 2097 4081 2097 
z
M 1331 4731 
Q 1769 4731 2041 4431 
Q 2334 4097 2334 3450 
Q 2334 2781 1969 2447 
Q 1713 2209 1331 2209 
Q 888 2209 619 2516 
Q 325 2850 325 3472 
Q 325 4156 684 4494 
Q 941 4731 1331 4731 
z
M 1322 4347 
Q 806 4347 806 3484 
Q 806 2606 1338 2606 
Q 1859 2606 1859 3484 
Q 1859 3859 1725 4091 
Q 1584 4347 1322 4347 
z
M 4569 4603 
L 1106 -134 
L 856 78 
L 4313 4813 
L 4569 4603 
z
" transform="scale(0.015625)"/>
       <path id="IPAexGothic-29" d="M 466 4909 
Q 1638 3672 1638 1875 
Q 1638 75 466 -1166 
L 191 -1016 
Q 1119 216 1119 1881 
Q 1119 3509 191 4763 
L 466 4909 
z
" transform="scale(0.015625)"/>
      </defs>
      <use xlink:href="#IPAexGothic-4e88"/>
      <use xlink:href="#IPAexGothic-6e2c" transform="translate(100 0)"/>
      <use xlink:href="#IPAexGothic-533a" transform="translate(200 0)"/>
      <use xlink:href="#IPAexGothic-9593" transform="translate(300 0)"/>
      <use xlink:href="#IPAexGothic-20" transform="translate(400 0)"/>
      <use xlink:href="#IPAexGothic-28" transform="translate(427.001953 0)"/>
      <use xlink:href="#IPAexGothic-38" transform="translate(460.302734 0)"/>
      <use xlink:href="#IPAexGothic-30" transform="translate(523.291016 0)"/>
      <use xlink:href="#IPAexGothic-25" transform="translate(586.279297 0)"/>
      <use xlink:href="#IPAexGothic-29" transform="translate(671.289062 0)"/>
     </g>
    </g>
   </g>
  </g>
 </g>
 <defs>
  <clipPath id="pbddd021844">
   <rect x="58.68" y="28.32" width="396.36" height="211.62"/>
  </clipPath>
 </defs>
</svg>
