<?xml version="1.0" encoding="utf-8" standalone="no"?>
<!DOCTYPE svg PUBLIC "-//W3C//DTD SVG 1.1//EN"
  "http://www.w3.org/Graphics/SVG/1.1/DTD/svg11.dtd">
<svg xmlns:xlink="http://www.w3.org/1999/xlink" width="504pt" height="288pt" viewBox="0 0 504 288" xmlns="http://www.w3.org/2000/svg" version="1.1">
 <metadata>
  <rdf:RDF xmlns:dc="http://purl.org/dc/elements/1.1/" xmlns:cc="http://creativecommons.org/ns#" xmlns:rdf="http://www.w3.org/1999/02/22-rdf-syntax-ns#">
   <cc:Work>
    <dc:type rdf:resource="http://purl.org/dc/dcmitype/StillImage"/>
    <dc:date>2025-10-27T02:36:18.041484</dc:date>
    <dc:format>image/svg+xml</dc:format>
    <dc:creator>
     <cc:Agent>
      <dc:title>Matplotlib v3.10.7, https://matplotlib.org/</dc:title>
     </cc:Agent>
    </dc:creator>
   </cc:Work>
  </rdf:RDF>
 </metadata>
 <defs>
  <style type="text/css">*{stroke-linejoin: round; stroke-linecap: butt}</style>
 </defs>
 <g id="figure_1">
  <g id="patch_1">
   <path d="M 0 288 
L 504 288 
L 504 0 
L 0 0 
z
" style="fill: #ffffff"/>
  </g>
  <g id="axes_1">
   <g id="patch_2">
    <path d="M 58.68 255.46 
L 465.095031 255.46 
L 465.095031 28.32 
L 58.68 28.32 
z
" style="fill: #eaeaf2"/>
   </g>
   <g id="matplotlib.axis_1">
    <g id="xtick_1">
     <g id="line2d_1">
      <path d="M 77.153411 255.46 
L 77.153411 28.32 
" clip-path="url(#pe6a8dda607)" style="fill: none; stroke: #ffffff; stroke-opacity: 0.3; stroke-linecap: round"/>
     </g>
     <g id="text_1">
      <!-- 2024-04-01 -->
      <g style="fill: #262626" transform="translate(45.502629 273.199687) scale(0.11 -0.11)">
       <defs>
        <path id="IPAexGothic-32" d="M 3659 63 
L 447 63 
L 447 594 
Q 825 1475 1894 2203 
L 2072 2322 
Q 2619 2697 2791 2906 
Q 2988 3153 2988 3444 
Q 2988 3772 2756 4003 
Q 2500 4259 2084 4259 
Q 1250 4259 991 3328 
L 497 3506 
Q 853 4725 2116 4725 
Q 2806 4725 3216 4316 
Q 3575 3947 3575 3425 
Q 3575 3038 3344 2722 
Q 3131 2416 2366 1938 
L 2231 1856 
Q 1256 1253 978 569 
L 3659 569 
L 3659 63 
z
" transform="scale(0.015625)"/>
        <path id="IPAexGothic-30" d="M 2038 4725 
Q 2881 4725 3334 3944 
Q 3694 3325 3694 2344 
Q 3694 1372 3334 741 
Q 2888 -31 2016 -31 
Q 1147 -31 700 741 
Q 341 1372 341 2350 
Q 341 3713 1000 4334 
Q 1419 4725 2038 4725 
z
M 2016 4266 
Q 1516 4266 1228 3759 
Q 934 3247 934 2344 
Q 934 1456 1222 947 
Q 1513 447 2016 447 
Q 2619 447 2909 1153 
Q 3100 1622 3100 2375 
Q 3100 3256 2806 3759 
Q 2509 4266 2016 4266 
z
" transform="scale(0.015625)"/>
        <path id="IPAexGothic-34" d="M 3813 1159 
L 3059 1159 
L 3059 63 
L 2547 63 
L 2547 1159 
L 197 1159 
L 197 1672 
L 2456 4678 
L 3059 4678 
L 3059 1634 
L 3813 1634 
L 3813 1159 
z
M 2578 4109 
L 2559 4109 
Q 2278 3656 2003 3284 
L 759 1634 
L 2547 1634 
L 2547 3144 
Q 2547 3481 2578 4109 
z
" transform="scale(0.015625)"/>
        <path id="IPAexGothic-2d" d="M 1969 1703 
L 319 1703 
L 319 2203 
L 1969 2203 
L 1969 1703 
z
" transform="scale(0.015625)"/>
        <path id="IPAexGothic-31" d="M 2463 63 
L 1900 63 
L 1900 4103 
Q 1372 3922 788 3797 
L 684 4231 
Q 1519 4441 2106 4731 
L 2463 4731 
L 2463 63 
z
" transform="scale(0.015625)"/>
       </defs>
       <use xlink:href="#IPAexGothic-32"/>
       <use xlink:href="#IPAexGothic-30" transform="translate(62.988281 0)"/>
       <use xlink:href="#IPAexGothic-32" transform="translate(125.976562 0)"/>
       <use xlink:href="#IPAexGothic-34" transform="translate(188.964844 0)"/>
       <use xlink:href="#IPAexGothic-2d" transform="translate(251.953125 0)"/>
       <use xlink:href="#IPAexGothic-30" transform="translate(287.744141 0)"/>
       <use xlink:href="#IPAexGothic-34" transform="translate(350.732422 0)"/>
       <use xlink:href="#IPAexGothic-2d" transform="translate(413.720703 0)"/>
       <use xlink:href="#IPAexGothic-30" transform="translate(449.511719 0)"/>
       <use xlink:href="#IPAexGothic-31" transform="translate(512.5 0)"/>
      </g>
     </g>
    </g>
    <g id="xtick_2">
     <g id="line2d_2">
      <path d="M 128.114543 255.46 
L 128.114543 28.32 
" clip-path="url(#pe6a8dda607)" style="fill: none; stroke: #ffffff; stroke-opacity: 0.3; stroke-linecap: round"/>
     </g>
     <g id="text_2">
      <!-- 2024-04-05 -->
      <g style="fill: #262626" transform="translate(96.463762 273.199687) scale(0.11 -0.11)">
       <defs>
        <path id="IPAexGothic-35" d="M 1178 2603 
Q 1634 2963 2172 2963 
Q 2816 2963 3241 2528 
Q 3638 2113 3638 1497 
Q 3638 938 3297 513 
Q 2869 -31 2031 -31 
Q 959 -31 469 784 
L 938 1028 
Q 1309 434 2013 434 
Q 2466 434 2769 716 
Q 3081 1013 3081 1503 
Q 3081 1966 2806 2241 
Q 2519 2528 2056 2528 
Q 1406 2528 1072 2028 
L 591 2091 
L 884 4634 
L 3406 4634 
L 3406 4153 
L 1341 4153 
L 1134 2603 
L 1178 2603 
z
" transform="scale(0.015625)"/>
       </defs>
       <use xlink:href="#IPAexGothic-32"/>
       <use xlink:href="#IPAexGothic-30" transform="translate(62.988281 0)"/>
       <use xlink:href="#IPAexGothic-32" transform="translate(125.976562 0)"/>
       <use xlink:href="#IPAexGothic-34" transform="translate(188.964844 0)"/>
       <use xlink:href="#IPAexGothic-2d" transform="translate(251.953125 0)"/>
       <use xlink:href="#IPAexGothic-30" transform="translate(287.744141 0)"/>
       <use xlink:href="#IPAexGothic-34" transform="translate(350.732422 0)"/>
       <use xlink:href="#IPAexGothic-2d" transform="translate(413.720703 0)"/>
       <use xlink:href="#IPAexGothic-30" transform="translate(449.511719 0)"/>
       <use xlink:href="#IPAexGothic-35" transform="translate(512.5 0)"/>
      </g>
     </g>
    </g>
    <g id="xtick_3">
     <g id="line2d_3">
      <path d="M 179.075675 255.46 
L 179.075675 28.32 
" clip-path="url(#pe6a8dda607)" style="fill: none; stroke: #ffffff; stroke-opacity: 0.3; stroke-linecap: round"/>
     </g>
     <g id="text_3">
      <!-- 2024-04-09 -->
      <g style="fill: #262626" transform="translate(147.424894 273.199687) scale(0.11 -0.11)">
       <defs>
        <path id="IPAexGothic-39" d="M 2984 2356 
Q 2544 1716 1813 1716 
Q 1253 1716 847 2056 
Q 366 2459 366 3163 
Q 366 3813 769 4266 
Q 1181 4725 1869 4725 
Q 2800 4725 3241 3950 
Q 3559 3378 3559 2472 
Q 3559 1250 3041 588 
Q 2553 -31 1769 -31 
Q 859 -31 391 703 
L 853 953 
Q 1156 428 1753 428 
Q 2922 428 3009 2356 
L 2984 2356 
z
M 1888 4278 
Q 1450 4278 1172 3950 
Q 922 3653 922 3200 
Q 922 2741 1159 2478 
Q 1434 2163 1906 2163 
Q 2431 2163 2728 2572 
Q 2925 2847 2925 3169 
Q 2925 3553 2694 3863 
Q 2375 4278 1888 4278 
z
" transform="scale(0.015625)"/>
       </defs>
       <use xlink:href="#IPAexGothic-32"/>
       <use xlink:href="#IPAexGothic-30" transform="translate(62.988281 0)"/>
       <use xlink:href="#IPAexGothic-32" transform="translate(125.976562 0)"/>
       <use xlink:href="#IPAexGothic-34" transform="translate(188.964844 0)"/>
       <use xlink:href="#IPAexGothic-2d" transform="translate(251.953125 0)"/>
       <use xlink:href="#IPAexGothic-30" transform="translate(287.744141 0)"/>
       <use xlink:href="#IPAexGothic-34" transform="translate(350.732422 0)"/>
       <use xlink:href="#IPAexGothic-2d" transform="translate(413.720703 0)"/>
       <use xlink:href="#IPAexGothic-30" transform="translate(449.511719 0)"/>
       <use xlink:href="#IPAexGothic-39" transform="translate(512.5 0)"/>
      </g>
     </g>
    </g>
    <g id="xtick_4">
     <g id="line2d_4">
      <path d="M 230.036808 255.46 
L 230.036808 28.32 
" clip-path="url(#pe6a8dda607)" style="fill: none; stroke: #ffffff; stroke-opacity: 0.3; stroke-linecap: round"/>
     </g>
     <g id="text_4">
      <!-- 2024-04-13 -->
      <g style="fill: #262626" transform="translate(198.386027 273.199687) scale(0.11 -0.11)">
       <defs>
        <path id="IPAexGothic-33" d="M 2381 2419 
Q 3506 2216 3506 1278 
Q 3506 716 3128 356 
Q 2709 -31 1944 -31 
Q 797 -31 288 881 
L 756 1131 
Q 1109 441 1938 441 
Q 2425 441 2694 691 
Q 2950 928 2950 1291 
Q 2950 1719 2566 1978 
Q 2216 2213 1644 2213 
L 1363 2213 
L 1363 2669 
L 1656 2669 
Q 2231 2669 2534 2888 
Q 2859 3119 2859 3509 
Q 2859 3934 2494 4138 
Q 2259 4278 1931 4278 
Q 1238 4278 903 3578 
L 434 3803 
Q 897 4725 1938 4725 
Q 2597 4725 3006 4394 
Q 3416 4069 3416 3534 
Q 3416 3028 3019 2706 
Q 2763 2500 2381 2444 
L 2381 2419 
z
" transform="scale(0.015625)"/>
       </defs>
       <use xlink:href="#IPAexGothic-32"/>
       <use xlink:href="#IPAexGothic-30" transform="translate(62.988281 0)"/>
       <use xlink:href="#IPAexGothic-32" transform="translate(125.976562 0)"/>
       <use xlink:href="#IPAexGothic-34" transform="translate(188.964844 0)"/>
       <use xlink:href="#IPAexGothic-2d" transform="translate(251.953125 0)"/>
       <use xlink:href="#IPAexGothic-30" transform="translate(287.744141 0)"/>
       <use xlink:href="#IPAexGothic-34" transform="translate(350.732422 0)"/>
       <use xlink:href="#IPAexGothic-2d" transform="translate(413.720703 0)"/>
       <use xlink:href="#IPAexGothic-31" transform="translate(449.511719 0)"/>
       <use xlink:href="#IPAexGothic-33" transform="translate(512.5 0)"/>
      </g>
     </g>
    </g>
    <g id="xtick_5">
     <g id="line2d_5">
      <path d="M 280.99794 255.46 
L 280.99794 28.32 
" clip-path="url(#pe6a8dda607)" style="fill: none; stroke: #ffffff; stroke-opacity: 0.3; stroke-linecap: round"/>
     </g>
     <g id="text_5">
      <!-- 2024-04-17 -->
      <g style="fill: #262626" transform="translate(249.347159 273.199687) scale(0.11 -0.11)">
       <defs>
        <path id="IPAexGothic-37" d="M 3597 4263 
Q 2238 2106 1778 63 
L 1131 63 
Q 1581 1834 2950 4128 
L 428 4128 
L 428 4634 
L 3597 4634 
L 3597 4263 
z
" transform="scale(0.015625)"/>
       </defs>
       <use xlink:href="#IPAexGothic-32"/>
       <use xlink:href="#IPAexGothic-30" transform="translate(62.988281 0)"/>
       <use xlink:href="#IPAexGothic-32" transform="translate(125.976562 0)"/>
       <use xlink:href="#IPAexGothic-34" transform="translate(188.964844 0)"/>
       <use xlink:href="#IPAexGothic-2d" transform="translate(251.953125 0)"/>
       <use xlink:href="#IPAexGothic-30" transform="translate(287.744141 0)"/>
       <use xlink:href="#IPAexGothic-34" transform="translate(350.732422 0)"/>
       <use xlink:href="#IPAexGothic-2d" transform="translate(413.720703 0)"/>
       <use xlink:href="#IPAexGothic-31" transform="translate(449.511719 0)"/>
       <use xlink:href="#IPAexGothic-37" transform="translate(512.5 0)"/>
      </g>
     </g>
    </g>
    <g id="xtick_6">
     <g id="line2d_6">
      <path d="M 331.959073 255.46 
L 331.959073 28.32 
" clip-path="url(#pe6a8dda607)" style="fill: none; stroke: #ffffff; stroke-opacity: 0.3; stroke-linecap: round"/>
     </g>
     <g id="text_6">
      <!-- 2024-04-21 -->
      <g style="fill: #262626" transform="translate(300.308292 273.199687) scale(0.11 -0.11)">
       <use xlink:href="#IPAexGothic-32"/>
       <use xlink:href="#IPAexGothic-30" transform="translate(62.988281 0)"/>
       <use xlink:href="#IPAexGothic-32" transform="translate(125.976562 0)"/>
       <use xlink:href="#IPAexGothic-34" transform="translate(188.964844 0)"/>
       <use xlink:href="#IPAexGothic-2d" transform="translate(251.953125 0)"/>
       <use xlink:href="#IPAexGothic-30" transform="translate(287.744141 0)"/>
       <use xlink:href="#IPAexGothic-34" transform="translate(350.732422 0)"/>
       <use xlink:href="#IPAexGothic-2d" transform="translate(413.720703 0)"/>
       <use xlink:href="#IPAexGothic-32" transform="translate(449.511719 0)"/>
       <use xlink:href="#IPAexGothic-31" transform="translate(512.5 0)"/>
      </g>
     </g>
    </g>
    <g id="xtick_7">
     <g id="line2d_7">
      <path d="M 382.920205 255.46 
L 382.920205 28.32 
" clip-path="url(#pe6a8dda607)" style="fill: none; stroke: #ffffff; stroke-opacity: 0.3; stroke-linecap: round"/>
     </g>
     <g id="text_7">
      <!-- 2024-04-25 -->
      <g style="fill: #262626" transform="translate(351.269424 273.199687) scale(0.11 -0.11)">
       <use xlink:href="#IPAexGothic-32"/>
       <use xlink:href="#IPAexGothic-30" transform="translate(62.988281 0)"/>
       <use xlink:href="#IPAexGothic-32" transform="translate(125.976562 0)"/>
       <use xlink:href="#IPAexGothic-34" transform="translate(188.964844 0)"/>
       <use xlink:href="#IPAexGothic-2d" transform="translate(251.953125 0)"/>
       <use xlink:href="#IPAexGothic-30" transform="translate(287.744141 0)"/>
       <use xlink:href="#IPAexGothic-34" transform="translate(350.732422 0)"/>
       <use xlink:href="#IPAexGothic-2d" transform="translate(413.720703 0)"/>
       <use xlink:href="#IPAexGothic-32" transform="translate(449.511719 0)"/>
       <use xlink:href="#IPAexGothic-35" transform="translate(512.5 0)"/>
      </g>
     </g>
    </g>
    <g id="xtick_8">
     <g id="line2d_8">
      <path d="M 433.881338 255.46 
L 433.881338 28.32 
" clip-path="url(#pe6a8dda607)" style="fill: none; stroke: #ffffff; stroke-opacity: 0.3; stroke-linecap: round"/>
     </g>
     <g id="text_8">
      <!-- 2024-04-29 -->
      <g style="fill: #262626" transform="translate(402.230556 273.199687) scale(0.11 -0.11)">
       <use xlink:href="#IPAexGothic-32"/>
       <use xlink:href="#IPAexGothic-30" transform="translate(62.988281 0)"/>
       <use xlink:href="#IPAexGothic-32" transform="translate(125.976562 0)"/>
       <use xlink:href="#IPAexGothic-34" transform="translate(188.964844 0)"/>
       <use xlink:href="#IPAexGothic-2d" transform="translate(251.953125 0)"/>
       <use xlink:href="#IPAexGothic-30" transform="translate(287.744141 0)"/>
       <use xlink:href="#IPAexGothic-34" transform="translate(350.732422 0)"/>
       <use xlink:href="#IPAexGothic-2d" transform="translate(413.720703 0)"/>
       <use xlink:href="#IPAexGothic-32" transform="translate(449.511719 0)"/>
       <use xlink:href="#IPAexGothic-39" transform="translate(512.5 0)"/>
      </g>
     </g>
    </g>
    <g id="xtick_9">
     <g id="line2d_9">
      <path d="M 459.361904 255.46 
L 459.361904 28.32 
" clip-path="url(#pe6a8dda607)" style="fill: none; stroke: #ffffff; stroke-opacity: 0.3; stroke-linecap: round"/>
     </g>
     <g id="text_9">
      <!-- 2024-05-01 -->
      <g style="fill: #262626" transform="translate(427.711123 273.199687) scale(0.11 -0.11)">
       <use xlink:href="#IPAexGothic-32"/>
       <use xlink:href="#IPAexGothic-30" transform="translate(62.988281 0)"/>
       <use xlink:href="#IPAexGothic-32" transform="translate(125.976562 0)"/>
       <use xlink:href="#IPAexGothic-34" transform="translate(188.964844 0)"/>
       <use xlink:href="#IPAexGothic-2d" transform="translate(251.953125 0)"/>
       <use xlink:href="#IPAexGothic-30" transform="translate(287.744141 0)"/>
       <use xlink:href="#IPAexGothic-35" transform="translate(350.732422 0)"/>
       <use xlink:href="#IPAexGothic-2d" transform="translate(413.720703 0)"/>
       <use xlink:href="#IPAexGothic-30" transform="translate(449.511719 0)"/>
       <use xlink:href="#IPAexGothic-31" transform="translate(512.5 0)"/>
      </g>
     </g>
    </g>
   </g>
   <g id="matplotlib.axis_2">
    <g id="ytick_1">
     <g id="line2d_10">
      <path d="M 58.68 226.660259 
L 465.095031 226.660259 
" clip-path="url(#pe6a8dda607)" style="fill: none; stroke: #ffffff; stroke-opacity: 0.3; stroke-linecap: round"/>
     </g>
     <g id="text_10">
      <!-- 500 -->
      <g style="fill: #262626" transform="translate(28.395156 230.780103) scale(0.11 -0.11)">
       <use xlink:href="#IPAexGothic-35"/>
       <use xlink:href="#IPAexGothic-30" transform="translate(62.988281 0)"/>
       <use xlink:href="#IPAexGothic-30" transform="translate(125.976562 0)"/>
      </g>
     </g>
    </g>
    <g id="ytick_2">
     <g id="line2d_11">
      <path d="M 58.68 192.857062 
L 465.095031 192.857062 
" clip-path="url(#pe6a8dda607)" style="fill: none; stroke: #ffffff; stroke-opacity: 0.3; stroke-linecap: round"/>
     </g>
     <g id="text_11">
      <!-- 520 -->
      <g style="fill: #262626" transform="translate(28.395156 196.976906) scale(0.11 -0.11)">
       <use xlink:href="#IPAexGothic-35"/>
       <use xlink:href="#IPAexGothic-32" transform="translate(62.988281 0)"/>
       <use xlink:href="#IPAexGothic-30" transform="translate(125.976562 0)"/>
      </g>
     </g>
    </g>
    <g id="ytick_3">
     <g id="line2d_12">
      <path d="M 58.68 159.053865 
L 465.095031 159.053865 
" clip-path="url(#pe6a8dda607)" style="fill: none; stroke: #ffffff; stroke-opacity: 0.3; stroke-linecap: round"/>
     </g>
     <g id="text_12">
      <!-- 540 -->
      <g style="fill: #262626" transform="translate(28.395156 163.173708) scale(0.11 -0.11)">
       <use xlink:href="#IPAexGothic-35"/>
       <use xlink:href="#IPAexGothic-34" transform="translate(62.988281 0)"/>
       <use xlink:href="#IPAexGothic-30" transform="translate(125.976562 0)"/>
      </g>
     </g>
    </g>
    <g id="ytick_4">
     <g id="line2d_13">
      <path d="M 58.68 125.250668 
L 465.095031 125.250668 
" clip-path="url(#pe6a8dda607)" style="fill: none; stroke: #ffffff; stroke-opacity: 0.3; stroke-linecap: round"/>
     </g>
     <g id="text_13">
      <!-- 560 -->
      <g style="fill: #262626" transform="translate(28.395156 129.370511) scale(0.11 -0.11)">
       <defs>
        <path id="IPAexGothic-36" d="M 1056 2328 
Q 1509 2981 2234 2981 
Q 2906 2981 3316 2513 
Q 3675 2106 3675 1522 
Q 3675 884 3272 434 
Q 2853 -31 2178 -31 
Q 1375 -31 922 581 
Q 481 1178 481 2228 
Q 481 3425 1013 4109 
Q 1494 4725 2272 4725 
Q 3191 4725 3609 4025 
L 3150 3775 
Q 2894 4266 2300 4266 
Q 1119 4266 1031 2328 
L 1056 2328 
z
M 2141 2547 
Q 1684 2547 1384 2206 
Q 1116 1900 1116 1541 
Q 1116 1156 1353 844 
Q 1672 428 2159 428 
Q 2669 428 2941 844 
Q 3125 1128 3125 1503 
Q 3125 1944 2881 2228 
Q 2600 2547 2141 2547 
z
" transform="scale(0.015625)"/>
       </defs>
       <use xlink:href="#IPAexGothic-35"/>
       <use xlink:href="#IPAexGothic-36" transform="translate(62.988281 0)"/>
       <use xlink:href="#IPAexGothic-30" transform="translate(125.976562 0)"/>
      </g>
     </g>
    </g>
    <g id="ytick_5">
     <g id="line2d_14">
      <path d="M 58.68 91.447471 
L 465.095031 91.447471 
" clip-path="url(#pe6a8dda607)" style="fill: none; stroke: #ffffff; stroke-opacity: 0.3; stroke-linecap: round"/>
     </g>
     <g id="text_14">
      <!-- 580 -->
      <g style="fill: #262626" transform="translate(28.395156 95.567314) scale(0.11 -0.11)">
       <defs>
        <path id="IPAexGothic-38" d="M 2541 2425 
Q 3700 2031 3700 1197 
Q 3700 541 3100 197 
Q 2663 -56 2016 -56 
Q 1366 -56 928 197 
Q 347 531 347 1178 
Q 347 1988 1409 2381 
L 1409 2400 
Q 481 2734 481 3509 
Q 481 4100 981 4456 
Q 1406 4756 2019 4756 
Q 2703 4756 3131 4403 
Q 3553 4069 3553 3566 
Q 3553 2706 2541 2444 
L 2541 2425 
z
M 2022 2625 
Q 2997 2856 2997 3528 
Q 2997 3916 2675 4150 
Q 2413 4347 2016 4347 
Q 1606 4347 1331 4128 
Q 1050 3897 1050 3522 
Q 1050 3150 1350 2925 
Q 1494 2809 1722 2722 
Q 1984 2616 2022 2625 
z
M 1978 2209 
Q 922 1931 922 1216 
Q 922 775 1313 556 
Q 1606 391 2009 391 
Q 2575 391 2881 697 
Q 3106 922 3106 1250 
Q 3106 1594 2794 1850 
Q 2609 1994 2350 2100 
Q 2047 2222 1978 2209 
z
" transform="scale(0.015625)"/>
       </defs>
       <use xlink:href="#IPAexGothic-35"/>
       <use xlink:href="#IPAexGothic-38" transform="translate(62.988281 0)"/>
       <use xlink:href="#IPAexGothic-30" transform="translate(125.976562 0)"/>
      </g>
     </g>
    </g>
    <g id="ytick_6">
     <g id="line2d_15">
      <path d="M 58.68 57.644273 
L 465.095031 57.644273 
" clip-path="url(#pe6a8dda607)" style="fill: none; stroke: #ffffff; stroke-opacity: 0.3; stroke-linecap: round"/>
     </g>
     <g id="text_15">
      <!-- 600 -->
      <g style="fill: #262626" transform="translate(28.395156 61.764117) scale(0.11 -0.11)">
       <use xlink:href="#IPAexGothic-36"/>
       <use xlink:href="#IPAexGothic-30" transform="translate(62.988281 0)"/>
       <use xlink:href="#IPAexGothic-30" transform="translate(125.976562 0)"/>
      </g>
     </g>
    </g>
    <g id="text_16">
     <!-- セッション数 -->
     <g style="fill: #262626" transform="translate(22.115156 177.89) rotate(-90) scale(0.12 -0.12)">
      <defs>
       <path id="IPAexGothic-30bb" d="M 2059 4878 
L 2584 4878 
L 2584 3397 
L 5291 3731 
L 5606 3444 
Q 4838 2313 4006 1556 
L 3569 1875 
Q 4297 2459 4844 3231 
L 2584 2931 
L 2584 978 
Q 2584 734 2738 669 
Q 2922 584 3616 584 
Q 4419 584 5425 697 
L 5444 172 
Q 4563 103 3844 103 
Q 2678 103 2359 256 
Q 2059 403 2059 863 
L 2059 2859 
L 638 2675 
L 588 3150 
L 2059 3334 
L 2059 4878 
z
" transform="scale(0.015625)"/>
       <path id="IPAexGothic-30c3" d="M 1775 1984 
Q 1553 2666 1275 3175 
L 1716 3391 
Q 2034 2866 2247 2209 
L 1775 1984 
z
M 3003 2297 
Q 2813 2978 2522 3469 
L 2978 3681 
Q 3291 3166 3484 2522 
L 3003 2297 
z
M 1928 372 
Q 3094 744 3731 1569 
Q 4275 2263 4469 3525 
L 4975 3406 
Q 4734 1975 4016 1119 
Q 3406 391 2266 -44 
L 1928 372 
z
" transform="scale(0.015625)"/>
       <path id="IPAexGothic-30b7" d="M 2828 3531 
Q 2219 4056 1613 4359 
L 1913 4781 
Q 2503 4491 3169 3981 
L 2828 3531 
z
M 1163 500 
Q 3944 1094 5338 3525 
L 5688 3128 
Q 4297 700 1484 0 
L 1163 500 
z
M 2072 2278 
Q 1466 2800 831 3109 
L 1131 3541 
Q 1806 3213 2406 2725 
L 2072 2278 
z
" transform="scale(0.015625)"/>
       <path id="IPAexGothic-30e7" d="M 1625 3469 
L 4653 3469 
L 4653 0 
L 4172 0 
L 4172 294 
L 1553 294 
L 1553 753 
L 4172 753 
L 4172 1734 
L 1766 1734 
L 1766 2169 
L 4172 2169 
L 4172 3028 
L 1625 3028 
L 1625 3469 
z
" transform="scale(0.015625)"/>
       <path id="IPAexGothic-30f3" d="M 2444 3084 
Q 1816 3656 1056 4084 
L 1381 4519 
Q 2063 4191 2816 3559 
L 2444 3084 
z
M 1100 609 
Q 3984 1106 5216 3828 
L 5619 3469 
Q 4413 794 1434 103 
L 1100 609 
z
" transform="scale(0.015625)"/>
       <path id="IPAexGothic-6570" d="M 2847 1553 
Q 2741 1006 2425 534 
Q 2625 441 3091 203 
L 2809 -188 
Q 2541 0 2144 209 
Q 1569 -291 703 -500 
L 422 -125 
Q 1263 19 1747 406 
Q 1222 650 734 816 
Q 975 1172 1147 1503 
L 1172 1553 
L 359 1553 
L 359 1925 
L 1344 1925 
Q 1406 2066 1569 2475 
L 1691 2450 
L 1691 3372 
Q 1250 2738 550 2303 
L 275 2663 
Q 1019 3013 1528 3641 
L 378 3641 
L 378 4006 
L 1691 4006 
L 1691 5313 
L 2113 5313 
L 2113 4006 
L 3297 4006 
L 3297 3641 
L 2113 3641 
L 2113 3513 
Q 2659 3291 3175 2963 
L 2956 2584 
Q 2553 2922 2113 3159 
L 2113 2372 
L 1966 2372 
Q 1928 2288 1872 2141 
Q 1806 1975 1784 1925 
L 3378 1925 
L 3378 1553 
L 2847 1553 
z
M 2419 1553 
L 1613 1553 
Q 1478 1269 1313 997 
Q 1559 909 2047 703 
Q 2313 1047 2419 1553 
z
M 4363 1163 
Q 3953 1781 3738 2638 
Q 3575 2281 3428 2016 
L 3103 2406 
Q 3675 3444 3916 5291 
L 4363 5200 
Q 4284 4666 4197 4197 
L 6009 4197 
L 6009 3775 
L 5503 3775 
Q 5397 2275 4869 1191 
Q 5419 503 6144 75 
L 5822 -378 
Q 5188 106 4631 788 
Q 4113 34 3341 -463 
L 3031 -78 
Q 3888 406 4363 1163 
z
M 4588 1594 
Q 4938 2388 5059 3775 
L 4100 3775 
Q 4041 3519 3972 3288 
Q 3981 3250 3991 3194 
Q 4175 2256 4588 1594 
z
M 1003 4116 
Q 878 4544 638 4934 
L 1053 5094 
Q 1247 4788 1438 4269 
L 1003 4116 
z
M 2316 4269 
Q 2550 4688 2688 5131 
L 3128 4997 
Q 2966 4588 2675 4128 
L 2316 4269 
z
" transform="scale(0.015625)"/>
      </defs>
      <use xlink:href="#IPAexGothic-30bb"/>
      <use xlink:href="#IPAexGothic-30c3" transform="translate(100 0)"/>
      <use xlink:href="#IPAexGothic-30b7" transform="translate(200 0)"/>
      <use xlink:href="#IPAexGothic-30e7" transform="translate(300 0)"/>
      <use xlink:href="#IPAexGothic-30f3" transform="translate(400 0)"/>
      <use xlink:href="#IPAexGothic-6570" transform="translate(500 0)"/>
     </g>
    </g>
   </g>
   <g id="patch_3">
    <path d="M 191.815959 255.46 
L 293.738223 255.46 
L 293.738223 28.32 
L 191.815959 28.32 
z
" clip-path="url(#pe6a8dda607)" style="fill: #fbbf24; opacity: 0.2; stroke: #fbbf24; stroke-linejoin: miter"/>
   </g>
   <g id="line2d_16">
    <path d="M 77.153411 196.237382 
L 89.893694 230.448548 
L 102.633977 188.602521 
L 115.37426 189.010491 
L 128.114543 240.123256 
L 140.854826 112.079077 
L 153.595109 200.375359 
L 166.335392 205.853808 
L 179.075675 245.135455 
L 191.815959 243.853264 
L 204.556242 185.105639 
L 217.296525 150.020252 
L 230.036808 184.231418 
L 242.777091 115.342834 
L 255.517374 134.342562 
L 268.257657 171.934048 
L 280.99794 130.088022 
L 293.738223 128.805831 
L 306.478507 115.692522 
L 319.21879 170.185607 
L 331.959073 153.691978 
L 344.699356 135.50819 
L 357.439639 125.7752 
L 370.179922 65.337415 
L 382.920205 106.309221 
L 395.660488 123.618789 
L 408.400771 117.266119 
L 421.141055 105.84297 
L 433.881338 38.644545 
L 446.621621 84.686831 
" clip-path="url(#pe6a8dda607)" style="fill: none; stroke: #6366f1; stroke-width: 2; stroke-linecap: round"/>
   </g>
   <g id="patch_4">
    <path d="M 58.68 255.46 
L 58.68 28.32 
" style="fill: none; stroke: #ffffff; stroke-width: 1.25; stroke-linejoin: miter; stroke-linecap: square"/>
   </g>
   <g id="patch_5">
    <path d="M 465.095031 255.46 
L 465.095031 28.32 
" style="fill: none; stroke: #ffffff; stroke-width: 1.25; stroke-linejoin: miter; stroke-linecap: square"/>
   </g>
   <g id="patch_6">
    <path d="M 58.68 255.46 
L 465.095031 255.46 
" style="fill: none; stroke: #ffffff; stroke-width: 1.25; stroke-linejoin: miter; stroke-linecap: square"/>
   </g>
   <g id="patch_7">
    <path d="M 58.68 28.32 
L 465.095031 28.32 
" style="fill: none; stroke: #ffffff; stroke-width: 1.25; stroke-linejoin: miter; stroke-linecap: square"/>
   </g>
   <g id="text_17">
    <!-- 日次セッションとキャンペーン期間 -->
    <g style="fill: #262626" transform="translate(165.887516 22.32) scale(0.12 -0.12)">
     <defs>
      <path id="IPAexGothic-65e5" d="M 5231 4800 
L 5231 -288 
L 4744 -288 
L 4744 128 
L 1647 128 
L 1647 -288 
L 1159 -288 
L 1159 4800 
L 5231 4800 
z
M 1647 4372 
L 1647 2731 
L 4744 2731 
L 4744 4372 
L 1647 4372 
z
M 1647 2297 
L 1647 556 
L 4744 556 
L 4744 2297 
L 1647 2297 
z
" transform="scale(0.015625)"/>
      <path id="IPAexGothic-6b21" d="M 3519 3750 
L 2950 3750 
Q 2678 3041 2231 2444 
L 1853 2772 
Q 2600 3756 2878 5184 
L 3353 5094 
Q 3241 4603 3103 4166 
L 5541 4166 
L 5841 3928 
Q 5406 2903 4906 2222 
L 4484 2481 
Q 4963 3072 5247 3750 
L 3994 3750 
L 3994 3263 
Q 3994 1384 6028 91 
L 5681 -353 
Q 4166 622 3794 2194 
Q 3669 1413 3391 922 
Q 2903 72 1931 -488 
L 1613 -72 
Q 3519 888 3519 3359 
L 3519 3750 
z
M 1438 3200 
Q 959 3884 509 4294 
L 881 4628 
Q 1413 4153 1841 3597 
L 1438 3200 
z
M 325 250 
Q 984 938 1600 2003 
L 1950 1656 
Q 1319 538 697 -184 
L 325 250 
z
" transform="scale(0.015625)"/>
      <path id="IPAexGothic-3068" d="M 5222 56 
Q 4200 -72 3450 -72 
Q 2478 -72 1941 113 
Q 1184 372 1184 1038 
Q 1184 1584 1594 2009 
Q 1941 2369 2656 2725 
Q 2231 3734 1972 4878 
L 2491 4978 
Q 2706 3884 3078 2950 
Q 4250 3447 4756 3616 
L 4978 3150 
Q 3181 2575 2409 2078 
Q 1691 1613 1691 1113 
Q 1691 403 3322 403 
Q 4125 403 5134 563 
L 5222 56 
z
" transform="scale(0.015625)"/>
      <path id="IPAexGothic-30ad" d="M 2919 5056 
L 3169 3834 
L 4916 4134 
L 5000 3688 
L 3253 3397 
L 3475 2284 
L 5634 2656 
L 5722 2194 
L 3566 1844 
L 3969 -147 
L 3475 -263 
L 3072 1759 
L 834 1388 
L 744 1856 
L 2984 2203 
L 2759 3322 
L 1019 3034 
L 941 3488 
L 2669 3750 
L 2428 4959 
L 2919 5056 
z
" transform="scale(0.015625)"/>
      <path id="IPAexGothic-30e3" d="M 2559 3903 
L 2803 2816 
L 4863 3169 
L 5191 2894 
Q 4672 1875 4103 1203 
L 3666 1447 
Q 4175 2013 4525 2688 
L 2900 2388 
L 3450 -116 
L 2969 -231 
L 2419 2297 
L 1172 2069 
L 1075 2516 
L 2328 2731 
L 2094 3809 
L 2559 3903 
z
" transform="scale(0.015625)"/>
      <path id="IPAexGothic-30da" d="M 428 1938 
Q 1119 2494 2100 3628 
Q 2356 3922 2566 3922 
Q 2772 3922 3181 3531 
Q 4325 2425 5950 1303 
L 5600 813 
Q 3991 2028 2816 3188 
Q 2653 3341 2584 3341 
Q 2513 3341 2291 3072 
Q 1703 2331 775 1478 
L 428 1938 
z
M 4750 4756 
Q 5059 4756 5269 4522 
Q 5453 4319 5453 4053 
Q 5453 3738 5219 3525 
Q 5016 3341 4750 3341 
Q 4434 3341 4222 3575 
Q 4038 3778 4038 4053 
Q 4038 4363 4272 4572 
Q 4478 4756 4750 4756 
z
M 4750 4475 
Q 4559 4475 4428 4334 
Q 4319 4213 4319 4053 
Q 4319 3859 4459 3731 
Q 4584 3622 4750 3622 
Q 4934 3622 5063 3763 
Q 5172 3888 5172 4053 
Q 5172 4238 5031 4366 
Q 4909 4475 4750 4475 
z
" transform="scale(0.015625)"/>
      <path id="IPAexGothic-30fc" d="M 588 2688 
L 5809 2688 
L 5809 2175 
L 588 2175 
L 588 2688 
z
" transform="scale(0.015625)"/>
      <path id="IPAexGothic-671f" d="M 1009 4469 
L 1009 5313 
L 1431 5313 
L 1431 4469 
L 2513 4469 
L 2513 5313 
L 2928 5313 
L 2928 4469 
L 3434 4469 
L 3434 4084 
L 2928 4084 
L 2928 1522 
L 3503 1522 
L 3503 1125 
L 319 1125 
L 319 1522 
L 1009 1522 
L 1009 4084 
L 441 4084 
L 441 4469 
L 1009 4469 
z
M 2513 4084 
L 1431 4084 
L 1431 3481 
L 2513 3481 
L 2513 4084 
z
M 2513 3116 
L 1431 3116 
L 1431 2516 
L 2513 2516 
L 2513 3116 
z
M 2513 2156 
L 1431 2156 
L 1431 1522 
L 2513 1522 
L 2513 2156 
z
M 5747 4984 
L 5747 72 
Q 5747 -391 5216 -391 
Q 4766 -391 4419 -347 
L 4350 109 
Q 4763 38 5138 38 
Q 5331 38 5331 225 
L 5331 1703 
L 4113 1703 
Q 4094 1028 3997 597 
Q 3875 -16 3478 -544 
L 3122 -206 
Q 3691 491 3691 1997 
L 3691 4984 
L 5747 4984 
z
M 5331 4594 
L 4113 4594 
L 4113 3547 
L 5331 3547 
L 5331 4594 
z
M 5331 3163 
L 4113 3163 
L 4113 2088 
L 5331 2088 
L 5331 3163 
z
M 434 -109 
Q 978 328 1331 984 
L 1728 769 
Q 1322 22 766 -475 
L 434 -109 
z
M 2853 -97 
Q 2559 453 2194 819 
L 2547 1038 
Q 2866 747 3231 219 
L 2853 -97 
z
" transform="scale(0.015625)"/>
      <path id="IPAexGothic-9593" d="M 4450 2566 
L 4450 353 
L 2375 353 
L 2375 -25 
L 1953 -25 
L 1953 2566 
L 4450 2566 
z
M 4028 2200 
L 2375 2200 
L 2375 1653 
L 4028 1653 
L 4028 2200 
z
M 4028 1300 
L 2375 1300 
L 2375 719 
L 4028 719 
L 4028 1300 
z
M 2913 5019 
L 2913 3059 
L 1056 3059 
L 1056 -447 
L 609 -447 
L 609 5019 
L 2913 5019 
z
M 1056 4659 
L 1056 4206 
L 2497 4206 
L 2497 4659 
L 1056 4659 
z
M 1056 3881 
L 1056 3413 
L 2497 3413 
L 2497 3881 
L 1056 3881 
z
M 5788 5019 
L 5788 91 
Q 5788 -225 5641 -331 
Q 5525 -409 5231 -409 
Q 4803 -409 4481 -366 
L 4419 97 
Q 4853 38 5128 38 
Q 5341 38 5341 244 
L 5341 3059 
L 3438 3059 
L 3438 5019 
L 5788 5019 
z
M 3853 4659 
L 3853 4206 
L 5341 4206 
L 5341 4659 
L 3853 4659 
z
M 3853 3881 
L 3853 3413 
L 5341 3413 
L 5341 3881 
L 3853 3881 
z
" transform="scale(0.015625)"/>
     </defs>
     <use xlink:href="#IPAexGothic-65e5"/>
     <use xlink:href="#IPAexGothic-6b21" transform="translate(100 0)"/>
     <use xlink:href="#IPAexGothic-30bb" transform="translate(200 0)"/>
     <use xlink:href="#IPAexGothic-30c3" transform="translate(300 0)"/>
     <use xlink:href="#IPAexGothic-30b7" transform="translate(400 0)"/>
     <use xlink:href="#IPAexGothic-30e7" transform="translate(500 0)"/>
     <use xlink:href="#IPAexGothic-30f3" transform="translate(600 0)"/>
     <use xlink:href="#IPAexGothic-3068" transform="translate(700 0)"/>
     <use xlink:href="#IPAexGothic-30ad" transform="translate(800 0)"/>
     <use xlink:href="#IPAexGothic-30e3" transform="translate(900 0)"/>
     <use xlink:href="#IPAexGothic-30f3" transform="translate(1000 0)"/>
     <use xlink:href="#IPAexGothic-30da" transform="translate(1100 0)"/>
     <use xlink:href="#IPAexGothic-30fc" transform="translate(1200 0)"/>
     <use xlink:href="#IPAexGothic-30f3" transform="translate(1300 0)"/>
     <use xlink:href="#IPAexGothic-671f" transform="translate(1400 0)"/>
     <use xlink:href="#IPAexGothic-9593" transform="translate(1500 0)"/>
    </g>
   </g>
   <g id="legend_1">
    <g id="patch_8">
     <path d="M 71.88 58.449687 
L 173.08 58.449687 
Q 175.28 58.449687 175.28 56.249687 
L 175.28 41.52 
Q 175.28 39.32 173.08 39.32 
L 71.88 39.32 
Q 69.68 39.32 69.68 41.52 
L 69.68 56.249687 
Q 69.68 58.449687 71.88 58.449687 
z
" style="fill: #eaeaf2; opacity: 0.8; stroke: #cccccc; stroke-linejoin: miter"/>
    </g>
    <g id="patch_9">
     <path d="M 74.08 51.959687 
L 96.08 51.959687 
L 96.08 44.259687 
L 74.08 44.259687 
z
" style="fill: #fbbf24; opacity: 0.2; stroke: #fbbf24; stroke-linejoin: miter"/>
    </g>
    <g id="text_18">
     <!-- キャンペーン -->
     <g style="fill: #262626" transform="translate(104.88 51.959687) scale(0.11 -0.11)">
      <use xlink:href="#IPAexGothic-30ad"/>
      <use xlink:href="#IPAexGothic-30e3" transform="translate(100 0)"/>
      <use xlink:href="#IPAexGothic-30f3" transform="translate(200 0)"/>
      <use xlink:href="#IPAexGothic-30da" transform="translate(300 0)"/>
      <use xlink:href="#IPAexGothic-30fc" transform="translate(400 0)"/>
      <use xlink:href="#IPAexGothic-30f3" transform="translate(500 0)"/>
     </g>
    </g>
   </g>
  </g>
 </g>
 <defs>
  <clipPath id="pe6a8dda607">
   <rect x="58.68" y="28.32" width="406.415031" height="227.14"/>
  </clipPath>
 </defs>
</svg>
