<?xml version="1.0" encoding="utf-8" standalone="no"?>
<!DOCTYPE svg PUBLIC "-//W3C//DTD SVG 1.1//EN"
  "http://www.w3.org/Graphics/SVG/1.1/DTD/svg11.dtd">
<svg xmlns:xlink="http://www.w3.org/1999/xlink" width="504pt" height="288pt" viewBox="0 0 504 288" xmlns="http://www.w3.org/2000/svg" version="1.1">
 <metadata>
  <rdf:RDF xmlns:dc="http://purl.org/dc/elements/1.1/" xmlns:cc="http://creativecommons.org/ns#" xmlns:rdf="http://www.w3.org/1999/02/22-rdf-syntax-ns#">
   <cc:Work>
    <dc:type rdf:resource="http://purl.org/dc/dcmitype/StillImage"/>
    <dc:date>2025-10-29T09:07:47.927812</dc:date>
    <dc:format>image/svg+xml</dc:format>
    <dc:creator>
     <cc:Agent>
      <dc:title>Matplotlib v3.10.7, https://matplotlib.org/</dc:title>
     </cc:Agent>
    </dc:creator>
   </cc:Work>
  </rdf:RDF>
 </metadata>
 <defs>
  <style type="text/css">*{stroke-linejoin: round; stroke-linecap: butt}</style>
 </defs>
 <g id="figure_1">
  <g id="patch_1">
   <path d="M 0 288 
L 504 288 
L 504 0 
L 0 0 
z
" style="fill: #ffffff"/>
  </g>
  <g id="axes_1">
   <g id="patch_2">
    <path d="M 58.77 255.46 
L 465.095031 255.46 
L 465.095031 28.32 
L 58.77 28.32 
z
" style="fill: #ffffff"/>
   </g>
   <g id="matplotlib.axis_1">
    <g id="xtick_1">
     <g id="line2d_1">
      <path d="M 77.23932 255.46 
L 77.23932 28.32 
" clip-path="url(#pf6997ef265)" style="fill: none; stroke: #cccccc; stroke-opacity: 0.3; stroke-linecap: round"/>
     </g>
     <g id="text_1">
      <!-- 2024-04-01 -->
      <g style="fill: #262626" transform="translate(45.588538 273.199687) scale(0.11 -0.11)">
       <defs>
        <path id="IPAexGothic-32" d="M 3659 63 
L 447 63 
L 447 594 
Q 825 1475 1894 2203 
L 2072 2322 
Q 2619 2697 2791 2906 
Q 2988 3153 2988 3444 
Q 2988 3772 2756 4003 
Q 2500 4259 2084 4259 
Q 1250 4259 991 3328 
L 497 3506 
Q 853 4725 2116 4725 
Q 2806 4725 3216 4316 
Q 3575 3947 3575 3425 
Q 3575 3038 3344 2722 
Q 3131 2416 2366 1938 
L 2231 1856 
Q 1256 1253 978 569 
L 3659 569 
L 3659 63 
z
" transform="scale(0.015625)"/>
        <path id="IPAexGothic-30" d="M 2038 4725 
Q 2881 4725 3334 3944 
Q 3694 3325 3694 2344 
Q 3694 1372 3334 741 
Q 2888 -31 2016 -31 
Q 1147 -31 700 741 
Q 341 1372 341 2350 
Q 341 3713 1000 4334 
Q 1419 4725 2038 4725 
z
M 2016 4266 
Q 1516 4266 1228 3759 
Q 934 3247 934 2344 
Q 934 1456 1222 947 
Q 1513 447 2016 447 
Q 2619 447 2909 1153 
Q 3100 1622 3100 2375 
Q 3100 3256 2806 3759 
Q 2509 4266 2016 4266 
z
" transform="scale(0.015625)"/>
        <path id="IPAexGothic-34" d="M 3813 1159 
L 3059 1159 
L 3059 63 
L 2547 63 
L 2547 1159 
L 197 1159 
L 197 1672 
L 2456 4678 
L 3059 4678 
L 3059 1634 
L 3813 1634 
L 3813 1159 
z
M 2578 4109 
L 2559 4109 
Q 2278 3656 2003 3284 
L 759 1634 
L 2547 1634 
L 2547 3144 
Q 2547 3481 2578 4109 
z
" transform="scale(0.015625)"/>
        <path id="IPAexGothic-2d" d="M 1969 1703 
L 319 1703 
L 319 2203 
L 1969 2203 
L 1969 1703 
z
" transform="scale(0.015625)"/>
        <path id="IPAexGothic-31" d="M 2463 63 
L 1900 63 
L 1900 4103 
Q 1372 3922 788 3797 
L 684 4231 
Q 1519 4441 2106 4731 
L 2463 4731 
L 2463 63 
z
" transform="scale(0.015625)"/>
       </defs>
       <use xlink:href="#IPAexGothic-32"/>
       <use xlink:href="#IPAexGothic-30" transform="translate(62.988281 0)"/>
       <use xlink:href="#IPAexGothic-32" transform="translate(125.976562 0)"/>
       <use xlink:href="#IPAexGothic-34" transform="translate(188.964844 0)"/>
       <use xlink:href="#IPAexGothic-2d" transform="translate(251.953125 0)"/>
       <use xlink:href="#IPAexGothic-30" transform="translate(287.744141 0)"/>
       <use xlink:href="#IPAexGothic-34" transform="translate(350.732422 0)"/>
       <use xlink:href="#IPAexGothic-2d" transform="translate(413.720703 0)"/>
       <use xlink:href="#IPAexGothic-30" transform="translate(449.511719 0)"/>
       <use xlink:href="#IPAexGothic-31" transform="translate(512.5 0)"/>
      </g>
     </g>
    </g>
    <g id="xtick_2">
     <g id="line2d_2">
      <path d="M 128.189167 255.46 
L 128.189167 28.32 
" clip-path="url(#pf6997ef265)" style="fill: none; stroke: #cccccc; stroke-opacity: 0.3; stroke-linecap: round"/>
     </g>
     <g id="text_2">
      <!-- 2024-04-05 -->
      <g style="fill: #262626" transform="translate(96.538386 273.199687) scale(0.11 -0.11)">
       <defs>
        <path id="IPAexGothic-35" d="M 1178 2603 
Q 1634 2963 2172 2963 
Q 2816 2963 3241 2528 
Q 3638 2113 3638 1497 
Q 3638 938 3297 513 
Q 2869 -31 2031 -31 
Q 959 -31 469 784 
L 938 1028 
Q 1309 434 2013 434 
Q 2466 434 2769 716 
Q 3081 1013 3081 1503 
Q 3081 1966 2806 2241 
Q 2519 2528 2056 2528 
Q 1406 2528 1072 2028 
L 591 2091 
L 884 4634 
L 3406 4634 
L 3406 4153 
L 1341 4153 
L 1134 2603 
L 1178 2603 
z
" transform="scale(0.015625)"/>
       </defs>
       <use xlink:href="#IPAexGothic-32"/>
       <use xlink:href="#IPAexGothic-30" transform="translate(62.988281 0)"/>
       <use xlink:href="#IPAexGothic-32" transform="translate(125.976562 0)"/>
       <use xlink:href="#IPAexGothic-34" transform="translate(188.964844 0)"/>
       <use xlink:href="#IPAexGothic-2d" transform="translate(251.953125 0)"/>
       <use xlink:href="#IPAexGothic-30" transform="translate(287.744141 0)"/>
       <use xlink:href="#IPAexGothic-34" transform="translate(350.732422 0)"/>
       <use xlink:href="#IPAexGothic-2d" transform="translate(413.720703 0)"/>
       <use xlink:href="#IPAexGothic-30" transform="translate(449.511719 0)"/>
       <use xlink:href="#IPAexGothic-35" transform="translate(512.5 0)"/>
      </g>
     </g>
    </g>
    <g id="xtick_3">
     <g id="line2d_3">
      <path d="M 179.139014 255.46 
L 179.139014 28.32 
" clip-path="url(#pf6997ef265)" style="fill: none; stroke: #cccccc; stroke-opacity: 0.3; stroke-linecap: round"/>
     </g>
     <g id="text_3">
      <!-- 2024-04-09 -->
      <g style="fill: #262626" transform="translate(147.488233 273.199687) scale(0.11 -0.11)">
       <defs>
        <path id="IPAexGothic-39" d="M 2984 2356 
Q 2544 1716 1813 1716 
Q 1253 1716 847 2056 
Q 366 2459 366 3163 
Q 366 3813 769 4266 
Q 1181 4725 1869 4725 
Q 2800 4725 3241 3950 
Q 3559 3378 3559 2472 
Q 3559 1250 3041 588 
Q 2553 -31 1769 -31 
Q 859 -31 391 703 
L 853 953 
Q 1156 428 1753 428 
Q 2922 428 3009 2356 
L 2984 2356 
z
M 1888 4278 
Q 1450 4278 1172 3950 
Q 922 3653 922 3200 
Q 922 2741 1159 2478 
Q 1434 2163 1906 2163 
Q 2431 2163 2728 2572 
Q 2925 2847 2925 3169 
Q 2925 3553 2694 3863 
Q 2375 4278 1888 4278 
z
" transform="scale(0.015625)"/>
       </defs>
       <use xlink:href="#IPAexGothic-32"/>
       <use xlink:href="#IPAexGothic-30" transform="translate(62.988281 0)"/>
       <use xlink:href="#IPAexGothic-32" transform="translate(125.976562 0)"/>
       <use xlink:href="#IPAexGothic-34" transform="translate(188.964844 0)"/>
       <use xlink:href="#IPAexGothic-2d" transform="translate(251.953125 0)"/>
       <use xlink:href="#IPAexGothic-30" transform="translate(287.744141 0)"/>
       <use xlink:href="#IPAexGothic-34" transform="translate(350.732422 0)"/>
       <use xlink:href="#IPAexGothic-2d" transform="translate(413.720703 0)"/>
       <use xlink:href="#IPAexGothic-30" transform="translate(449.511719 0)"/>
       <use xlink:href="#IPAexGothic-39" transform="translate(512.5 0)"/>
      </g>
     </g>
    </g>
    <g id="xtick_4">
     <g id="line2d_4">
      <path d="M 230.088861 255.46 
L 230.088861 28.32 
" clip-path="url(#pf6997ef265)" style="fill: none; stroke: #cccccc; stroke-opacity: 0.3; stroke-linecap: round"/>
     </g>
     <g id="text_4">
      <!-- 2024-04-13 -->
      <g style="fill: #262626" transform="translate(198.43808 273.199687) scale(0.11 -0.11)">
       <defs>
        <path id="IPAexGothic-33" d="M 2381 2419 
Q 3506 2216 3506 1278 
Q 3506 716 3128 356 
Q 2709 -31 1944 -31 
Q 797 -31 288 881 
L 756 1131 
Q 1109 441 1938 441 
Q 2425 441 2694 691 
Q 2950 928 2950 1291 
Q 2950 1719 2566 1978 
Q 2216 2213 1644 2213 
L 1363 2213 
L 1363 2669 
L 1656 2669 
Q 2231 2669 2534 2888 
Q 2859 3119 2859 3509 
Q 2859 3934 2494 4138 
Q 2259 4278 1931 4278 
Q 1238 4278 903 3578 
L 434 3803 
Q 897 4725 1938 4725 
Q 2597 4725 3006 4394 
Q 3416 4069 3416 3534 
Q 3416 3028 3019 2706 
Q 2763 2500 2381 2444 
L 2381 2419 
z
" transform="scale(0.015625)"/>
       </defs>
       <use xlink:href="#IPAexGothic-32"/>
       <use xlink:href="#IPAexGothic-30" transform="translate(62.988281 0)"/>
       <use xlink:href="#IPAexGothic-32" transform="translate(125.976562 0)"/>
       <use xlink:href="#IPAexGothic-34" transform="translate(188.964844 0)"/>
       <use xlink:href="#IPAexGothic-2d" transform="translate(251.953125 0)"/>
       <use xlink:href="#IPAexGothic-30" transform="translate(287.744141 0)"/>
       <use xlink:href="#IPAexGothic-34" transform="translate(350.732422 0)"/>
       <use xlink:href="#IPAexGothic-2d" transform="translate(413.720703 0)"/>
       <use xlink:href="#IPAexGothic-31" transform="translate(449.511719 0)"/>
       <use xlink:href="#IPAexGothic-33" transform="translate(512.5 0)"/>
      </g>
     </g>
    </g>
    <g id="xtick_5">
     <g id="line2d_5">
      <path d="M 281.038708 255.46 
L 281.038708 28.32 
" clip-path="url(#pf6997ef265)" style="fill: none; stroke: #cccccc; stroke-opacity: 0.3; stroke-linecap: round"/>
     </g>
     <g id="text_5">
      <!-- 2024-04-17 -->
      <g style="fill: #262626" transform="translate(249.387927 273.199687) scale(0.11 -0.11)">
       <defs>
        <path id="IPAexGothic-37" d="M 3597 4263 
Q 2238 2106 1778 63 
L 1131 63 
Q 1581 1834 2950 4128 
L 428 4128 
L 428 4634 
L 3597 4634 
L 3597 4263 
z
" transform="scale(0.015625)"/>
       </defs>
       <use xlink:href="#IPAexGothic-32"/>
       <use xlink:href="#IPAexGothic-30" transform="translate(62.988281 0)"/>
       <use xlink:href="#IPAexGothic-32" transform="translate(125.976562 0)"/>
       <use xlink:href="#IPAexGothic-34" transform="translate(188.964844 0)"/>
       <use xlink:href="#IPAexGothic-2d" transform="translate(251.953125 0)"/>
       <use xlink:href="#IPAexGothic-30" transform="translate(287.744141 0)"/>
       <use xlink:href="#IPAexGothic-34" transform="translate(350.732422 0)"/>
       <use xlink:href="#IPAexGothic-2d" transform="translate(413.720703 0)"/>
       <use xlink:href="#IPAexGothic-31" transform="translate(449.511719 0)"/>
       <use xlink:href="#IPAexGothic-37" transform="translate(512.5 0)"/>
      </g>
     </g>
    </g>
    <g id="xtick_6">
     <g id="line2d_6">
      <path d="M 331.988556 255.46 
L 331.988556 28.32 
" clip-path="url(#pf6997ef265)" style="fill: none; stroke: #cccccc; stroke-opacity: 0.3; stroke-linecap: round"/>
     </g>
     <g id="text_6">
      <!-- 2024-04-21 -->
      <g style="fill: #262626" transform="translate(300.337774 273.199687) scale(0.11 -0.11)">
       <use xlink:href="#IPAexGothic-32"/>
       <use xlink:href="#IPAexGothic-30" transform="translate(62.988281 0)"/>
       <use xlink:href="#IPAexGothic-32" transform="translate(125.976562 0)"/>
       <use xlink:href="#IPAexGothic-34" transform="translate(188.964844 0)"/>
       <use xlink:href="#IPAexGothic-2d" transform="translate(251.953125 0)"/>
       <use xlink:href="#IPAexGothic-30" transform="translate(287.744141 0)"/>
       <use xlink:href="#IPAexGothic-34" transform="translate(350.732422 0)"/>
       <use xlink:href="#IPAexGothic-2d" transform="translate(413.720703 0)"/>
       <use xlink:href="#IPAexGothic-32" transform="translate(449.511719 0)"/>
       <use xlink:href="#IPAexGothic-31" transform="translate(512.5 0)"/>
      </g>
     </g>
    </g>
    <g id="xtick_7">
     <g id="line2d_7">
      <path d="M 382.938403 255.46 
L 382.938403 28.32 
" clip-path="url(#pf6997ef265)" style="fill: none; stroke: #cccccc; stroke-opacity: 0.3; stroke-linecap: round"/>
     </g>
     <g id="text_7">
      <!-- 2024-04-25 -->
      <g style="fill: #262626" transform="translate(351.287622 273.199687) scale(0.11 -0.11)">
       <use xlink:href="#IPAexGothic-32"/>
       <use xlink:href="#IPAexGothic-30" transform="translate(62.988281 0)"/>
       <use xlink:href="#IPAexGothic-32" transform="translate(125.976562 0)"/>
       <use xlink:href="#IPAexGothic-34" transform="translate(188.964844 0)"/>
       <use xlink:href="#IPAexGothic-2d" transform="translate(251.953125 0)"/>
       <use xlink:href="#IPAexGothic-30" transform="translate(287.744141 0)"/>
       <use xlink:href="#IPAexGothic-34" transform="translate(350.732422 0)"/>
       <use xlink:href="#IPAexGothic-2d" transform="translate(413.720703 0)"/>
       <use xlink:href="#IPAexGothic-32" transform="translate(449.511719 0)"/>
       <use xlink:href="#IPAexGothic-35" transform="translate(512.5 0)"/>
      </g>
     </g>
    </g>
    <g id="xtick_8">
     <g id="line2d_8">
      <path d="M 433.88825 255.46 
L 433.88825 28.32 
" clip-path="url(#pf6997ef265)" style="fill: none; stroke: #cccccc; stroke-opacity: 0.3; stroke-linecap: round"/>
     </g>
     <g id="text_8">
      <!-- 2024-04-29 -->
      <g style="fill: #262626" transform="translate(402.237469 273.199687) scale(0.11 -0.11)">
       <use xlink:href="#IPAexGothic-32"/>
       <use xlink:href="#IPAexGothic-30" transform="translate(62.988281 0)"/>
       <use xlink:href="#IPAexGothic-32" transform="translate(125.976562 0)"/>
       <use xlink:href="#IPAexGothic-34" transform="translate(188.964844 0)"/>
       <use xlink:href="#IPAexGothic-2d" transform="translate(251.953125 0)"/>
       <use xlink:href="#IPAexGothic-30" transform="translate(287.744141 0)"/>
       <use xlink:href="#IPAexGothic-34" transform="translate(350.732422 0)"/>
       <use xlink:href="#IPAexGothic-2d" transform="translate(413.720703 0)"/>
       <use xlink:href="#IPAexGothic-32" transform="translate(449.511719 0)"/>
       <use xlink:href="#IPAexGothic-39" transform="translate(512.5 0)"/>
      </g>
     </g>
    </g>
    <g id="xtick_9">
     <g id="line2d_9">
      <path d="M 459.363174 255.46 
L 459.363174 28.32 
" clip-path="url(#pf6997ef265)" style="fill: none; stroke: #cccccc; stroke-opacity: 0.3; stroke-linecap: round"/>
     </g>
     <g id="text_9">
      <!-- 2024-05-01 -->
      <g style="fill: #262626" transform="translate(427.712392 273.199687) scale(0.11 -0.11)">
       <use xlink:href="#IPAexGothic-32"/>
       <use xlink:href="#IPAexGothic-30" transform="translate(62.988281 0)"/>
       <use xlink:href="#IPAexGothic-32" transform="translate(125.976562 0)"/>
       <use xlink:href="#IPAexGothic-34" transform="translate(188.964844 0)"/>
       <use xlink:href="#IPAexGothic-2d" transform="translate(251.953125 0)"/>
       <use xlink:href="#IPAexGothic-30" transform="translate(287.744141 0)"/>
       <use xlink:href="#IPAexGothic-35" transform="translate(350.732422 0)"/>
       <use xlink:href="#IPAexGothic-2d" transform="translate(413.720703 0)"/>
       <use xlink:href="#IPAexGothic-30" transform="translate(449.511719 0)"/>
       <use xlink:href="#IPAexGothic-31" transform="translate(512.5 0)"/>
      </g>
     </g>
    </g>
   </g>
   <g id="matplotlib.axis_2">
    <g id="ytick_1">
     <g id="line2d_10">
      <path d="M 58.77 229.465303 
L 465.095031 229.465303 
" clip-path="url(#pf6997ef265)" style="fill: none; stroke: #cccccc; stroke-opacity: 0.3; stroke-linecap: round"/>
     </g>
     <g id="text_10">
      <!-- 475 -->
      <g style="fill: #262626" transform="translate(28.485156 233.585147) scale(0.11 -0.11)">
       <use xlink:href="#IPAexGothic-34"/>
       <use xlink:href="#IPAexGothic-37" transform="translate(62.988281 0)"/>
       <use xlink:href="#IPAexGothic-35" transform="translate(125.976562 0)"/>
      </g>
     </g>
    </g>
    <g id="ytick_2">
     <g id="line2d_11">
      <path d="M 58.77 201.48289 
L 465.095031 201.48289 
" clip-path="url(#pf6997ef265)" style="fill: none; stroke: #cccccc; stroke-opacity: 0.3; stroke-linecap: round"/>
     </g>
     <g id="text_11">
      <!-- 500 -->
      <g style="fill: #262626" transform="translate(28.485156 205.602734) scale(0.11 -0.11)">
       <use xlink:href="#IPAexGothic-35"/>
       <use xlink:href="#IPAexGothic-30" transform="translate(62.988281 0)"/>
       <use xlink:href="#IPAexGothic-30" transform="translate(125.976562 0)"/>
      </g>
     </g>
    </g>
    <g id="ytick_3">
     <g id="line2d_12">
      <path d="M 58.77 173.500477 
L 465.095031 173.500477 
" clip-path="url(#pf6997ef265)" style="fill: none; stroke: #cccccc; stroke-opacity: 0.3; stroke-linecap: round"/>
     </g>
     <g id="text_12">
      <!-- 525 -->
      <g style="fill: #262626" transform="translate(28.485156 177.620321) scale(0.11 -0.11)">
       <use xlink:href="#IPAexGothic-35"/>
       <use xlink:href="#IPAexGothic-32" transform="translate(62.988281 0)"/>
       <use xlink:href="#IPAexGothic-35" transform="translate(125.976562 0)"/>
      </g>
     </g>
    </g>
    <g id="ytick_4">
     <g id="line2d_13">
      <path d="M 58.77 145.518065 
L 465.095031 145.518065 
" clip-path="url(#pf6997ef265)" style="fill: none; stroke: #cccccc; stroke-opacity: 0.3; stroke-linecap: round"/>
     </g>
     <g id="text_13">
      <!-- 550 -->
      <g style="fill: #262626" transform="translate(28.485156 149.637908) scale(0.11 -0.11)">
       <use xlink:href="#IPAexGothic-35"/>
       <use xlink:href="#IPAexGothic-35" transform="translate(62.988281 0)"/>
       <use xlink:href="#IPAexGothic-30" transform="translate(125.976562 0)"/>
      </g>
     </g>
    </g>
    <g id="ytick_5">
     <g id="line2d_14">
      <path d="M 58.77 117.535652 
L 465.095031 117.535652 
" clip-path="url(#pf6997ef265)" style="fill: none; stroke: #cccccc; stroke-opacity: 0.3; stroke-linecap: round"/>
     </g>
     <g id="text_14">
      <!-- 575 -->
      <g style="fill: #262626" transform="translate(28.485156 121.655495) scale(0.11 -0.11)">
       <use xlink:href="#IPAexGothic-35"/>
       <use xlink:href="#IPAexGothic-37" transform="translate(62.988281 0)"/>
       <use xlink:href="#IPAexGothic-35" transform="translate(125.976562 0)"/>
      </g>
     </g>
    </g>
    <g id="ytick_6">
     <g id="line2d_15">
      <path d="M 58.77 89.553239 
L 465.095031 89.553239 
" clip-path="url(#pf6997ef265)" style="fill: none; stroke: #cccccc; stroke-opacity: 0.3; stroke-linecap: round"/>
     </g>
     <g id="text_15">
      <!-- 600 -->
      <g style="fill: #262626" transform="translate(28.485156 93.673082) scale(0.11 -0.11)">
       <defs>
        <path id="IPAexGothic-36" d="M 1056 2328 
Q 1509 2981 2234 2981 
Q 2906 2981 3316 2513 
Q 3675 2106 3675 1522 
Q 3675 884 3272 434 
Q 2853 -31 2178 -31 
Q 1375 -31 922 581 
Q 481 1178 481 2228 
Q 481 3425 1013 4109 
Q 1494 4725 2272 4725 
Q 3191 4725 3609 4025 
L 3150 3775 
Q 2894 4266 2300 4266 
Q 1119 4266 1031 2328 
L 1056 2328 
z
M 2141 2547 
Q 1684 2547 1384 2206 
Q 1116 1900 1116 1541 
Q 1116 1156 1353 844 
Q 1672 428 2159 428 
Q 2669 428 2941 844 
Q 3125 1128 3125 1503 
Q 3125 1944 2881 2228 
Q 2600 2547 2141 2547 
z
" transform="scale(0.015625)"/>
       </defs>
       <use xlink:href="#IPAexGothic-36"/>
       <use xlink:href="#IPAexGothic-30" transform="translate(62.988281 0)"/>
       <use xlink:href="#IPAexGothic-30" transform="translate(125.976562 0)"/>
      </g>
     </g>
    </g>
    <g id="ytick_7">
     <g id="line2d_16">
      <path d="M 58.77 61.570826 
L 465.095031 61.570826 
" clip-path="url(#pf6997ef265)" style="fill: none; stroke: #cccccc; stroke-opacity: 0.3; stroke-linecap: round"/>
     </g>
     <g id="text_16">
      <!-- 625 -->
      <g style="fill: #262626" transform="translate(28.485156 65.69067) scale(0.11 -0.11)">
       <use xlink:href="#IPAexGothic-36"/>
       <use xlink:href="#IPAexGothic-32" transform="translate(62.988281 0)"/>
       <use xlink:href="#IPAexGothic-35" transform="translate(125.976562 0)"/>
      </g>
     </g>
    </g>
    <g id="ytick_8">
     <g id="line2d_17">
      <path d="M 58.77 33.588413 
L 465.095031 33.588413 
" clip-path="url(#pf6997ef265)" style="fill: none; stroke: #cccccc; stroke-opacity: 0.3; stroke-linecap: round"/>
     </g>
     <g id="text_17">
      <!-- 650 -->
      <g style="fill: #262626" transform="translate(28.485156 37.708257) scale(0.11 -0.11)">
       <use xlink:href="#IPAexGothic-36"/>
       <use xlink:href="#IPAexGothic-35" transform="translate(62.988281 0)"/>
       <use xlink:href="#IPAexGothic-30" transform="translate(125.976562 0)"/>
      </g>
     </g>
    </g>
    <g id="text_18">
     <!-- セッション数 -->
     <g style="fill: #262626" transform="translate(22.205156 177.89) rotate(-90) scale(0.12 -0.12)">
      <defs>
       <path id="IPAexGothic-30bb" d="M 2059 4878 
L 2584 4878 
L 2584 3397 
L 5291 3731 
L 5606 3444 
Q 4838 2313 4006 1556 
L 3569 1875 
Q 4297 2459 4844 3231 
L 2584 2931 
L 2584 978 
Q 2584 734 2738 669 
Q 2922 584 3616 584 
Q 4419 584 5425 697 
L 5444 172 
Q 4563 103 3844 103 
Q 2678 103 2359 256 
Q 2059 403 2059 863 
L 2059 2859 
L 638 2675 
L 588 3150 
L 2059 3334 
L 2059 4878 
z
" transform="scale(0.015625)"/>
       <path id="IPAexGothic-30c3" d="M 1775 1984 
Q 1553 2666 1275 3175 
L 1716 3391 
Q 2034 2866 2247 2209 
L 1775 1984 
z
M 3003 2297 
Q 2813 2978 2522 3469 
L 2978 3681 
Q 3291 3166 3484 2522 
L 3003 2297 
z
M 1928 372 
Q 3094 744 3731 1569 
Q 4275 2263 4469 3525 
L 4975 3406 
Q 4734 1975 4016 1119 
Q 3406 391 2266 -44 
L 1928 372 
z
" transform="scale(0.015625)"/>
       <path id="IPAexGothic-30b7" d="M 2828 3531 
Q 2219 4056 1613 4359 
L 1913 4781 
Q 2503 4491 3169 3981 
L 2828 3531 
z
M 1163 500 
Q 3944 1094 5338 3525 
L 5688 3128 
Q 4297 700 1484 0 
L 1163 500 
z
M 2072 2278 
Q 1466 2800 831 3109 
L 1131 3541 
Q 1806 3213 2406 2725 
L 2072 2278 
z
" transform="scale(0.015625)"/>
       <path id="IPAexGothic-30e7" d="M 1625 3469 
L 4653 3469 
L 4653 0 
L 4172 0 
L 4172 294 
L 1553 294 
L 1553 753 
L 4172 753 
L 4172 1734 
L 1766 1734 
L 1766 2169 
L 4172 2169 
L 4172 3028 
L 1625 3028 
L 1625 3469 
z
" transform="scale(0.015625)"/>
       <path id="IPAexGothic-30f3" d="M 2444 3084 
Q 1816 3656 1056 4084 
L 1381 4519 
Q 2063 4191 2816 3559 
L 2444 3084 
z
M 1100 609 
Q 3984 1106 5216 3828 
L 5619 3469 
Q 4413 794 1434 103 
L 1100 609 
z
" transform="scale(0.015625)"/>
       <path id="IPAexGothic-6570" d="M 2847 1553 
Q 2741 1006 2425 534 
Q 2625 441 3091 203 
L 2809 -188 
Q 2541 0 2144 209 
Q 1569 -291 703 -500 
L 422 -125 
Q 1263 19 1747 406 
Q 1222 650 734 816 
Q 975 1172 1147 1503 
L 1172 1553 
L 359 1553 
L 359 1925 
L 1344 1925 
Q 1406 2066 1569 2475 
L 1691 2450 
L 1691 3372 
Q 1250 2738 550 2303 
L 275 2663 
Q 1019 3013 1528 3641 
L 378 3641 
L 378 4006 
L 1691 4006 
L 1691 5313 
L 2113 5313 
L 2113 4006 
L 3297 4006 
L 3297 3641 
L 2113 3641 
L 2113 3513 
Q 2659 3291 3175 2963 
L 2956 2584 
Q 2553 2922 2113 3159 
L 2113 2372 
L 1966 2372 
Q 1928 2288 1872 2141 
Q 1806 1975 1784 1925 
L 3378 1925 
L 3378 1553 
L 2847 1553 
z
M 2419 1553 
L 1613 1553 
Q 1478 1269 1313 997 
Q 1559 909 2047 703 
Q 2313 1047 2419 1553 
z
M 4363 1163 
Q 3953 1781 3738 2638 
Q 3575 2281 3428 2016 
L 3103 2406 
Q 3675 3444 3916 5291 
L 4363 5200 
Q 4284 4666 4197 4197 
L 6009 4197 
L 6009 3775 
L 5503 3775 
Q 5397 2275 4869 1191 
Q 5419 503 6144 75 
L 5822 -378 
Q 5188 106 4631 788 
Q 4113 34 3341 -463 
L 3031 -78 
Q 3888 406 4363 1163 
z
M 4588 1594 
Q 4938 2388 5059 3775 
L 4100 3775 
Q 4041 3519 3972 3288 
Q 3981 3250 3991 3194 
Q 4175 2256 4588 1594 
z
M 1003 4116 
Q 878 4544 638 4934 
L 1053 5094 
Q 1247 4788 1438 4269 
L 1003 4116 
z
M 2316 4269 
Q 2550 4688 2688 5131 
L 3128 4997 
Q 2966 4588 2675 4128 
L 2316 4269 
z
" transform="scale(0.015625)"/>
      </defs>
      <use xlink:href="#IPAexGothic-30bb"/>
      <use xlink:href="#IPAexGothic-30c3" transform="translate(100 0)"/>
      <use xlink:href="#IPAexGothic-30b7" transform="translate(200 0)"/>
      <use xlink:href="#IPAexGothic-30e7" transform="translate(300 0)"/>
      <use xlink:href="#IPAexGothic-30f3" transform="translate(400 0)"/>
      <use xlink:href="#IPAexGothic-6570" transform="translate(500 0)"/>
     </g>
    </g>
   </g>
   <g id="patch_3">
    <path d="M 191.876476 255.46 
L 293.77617 255.46 
L 293.77617 28.32 
L 191.876476 28.32 
z
" clip-path="url(#pf6997ef265)" style="fill: #fbbf24; opacity: 0.2; stroke: #fbbf24; stroke-linejoin: miter"/>
   </g>
   <g id="line2d_18">
    <path d="M 77.23932 245.135455 
L 89.976781 187.202211 
L 102.714243 219.931985 
L 115.451705 173.191706 
L 128.189167 152.195247 
L 140.926629 244.247737 
L 153.66409 236.682836 
L 166.401552 165.318034 
L 179.139014 186.854843 
L 191.876476 209.510948 
L 204.613938 168.367152 
L 217.351399 142.893507 
L 230.088861 145.402275 
L 242.826323 157.984712 
L 255.563785 172.805742 
L 268.301247 142.854911 
L 281.038708 157.675941 
L 293.77617 145.633854 
L 306.513632 140.307546 
L 319.251094 114.833901 
L 331.988556 117.342669 
L 344.726017 139.998775 
L 357.463479 155.939101 
L 370.200941 123.749677 
L 382.938403 174.388195 
L 395.675865 92.949725 
L 408.413326 62.998894 
L 421.150788 38.644545 
L 433.88825 137.412814 
L 446.625712 165.665402 
" clip-path="url(#pf6997ef265)" style="fill: none; stroke: #6366f1; stroke-width: 2; stroke-linecap: round"/>
   </g>
   <g id="patch_4">
    <path d="M 58.77 255.46 
L 58.77 28.32 
" style="fill: none; stroke: #262626; stroke-width: 1.25; stroke-linejoin: miter; stroke-linecap: square"/>
   </g>
   <g id="patch_5">
    <path d="M 465.095031 255.46 
L 465.095031 28.32 
" style="fill: none; stroke: #262626; stroke-width: 1.25; stroke-linejoin: miter; stroke-linecap: square"/>
   </g>
   <g id="patch_6">
    <path d="M 58.77 255.46 
L 465.095031 255.46 
" style="fill: none; stroke: #262626; stroke-width: 1.25; stroke-linejoin: miter; stroke-linecap: square"/>
   </g>
   <g id="patch_7">
    <path d="M 58.77 28.32 
L 465.095031 28.32 
" style="fill: none; stroke: #262626; stroke-width: 1.25; stroke-linejoin: miter; stroke-linecap: square"/>
   </g>
   <g id="text_19">
    <!-- 日次セッションとキャンペーン期間 -->
    <g style="fill: #262626" transform="translate(165.932516 22.32) scale(0.12 -0.12)">
     <defs>
      <path id="IPAexGothic-65e5" d="M 5231 4800 
L 5231 -288 
L 4744 -288 
L 4744 128 
L 1647 128 
L 1647 -288 
L 1159 -288 
L 1159 4800 
L 5231 4800 
z
M 1647 4372 
L 1647 2731 
L 4744 2731 
L 4744 4372 
L 1647 4372 
z
M 1647 2297 
L 1647 556 
L 4744 556 
L 4744 2297 
L 1647 2297 
z
" transform="scale(0.015625)"/>
      <path id="IPAexGothic-6b21" d="M 3519 3750 
L 2950 3750 
Q 2678 3041 2231 2444 
L 1853 2772 
Q 2600 3756 2878 5184 
L 3353 5094 
Q 3241 4603 3103 4166 
L 5541 4166 
L 5841 3928 
Q 5406 2903 4906 2222 
L 4484 2481 
Q 4963 3072 5247 3750 
L 3994 3750 
L 3994 3263 
Q 3994 1384 6028 91 
L 5681 -353 
Q 4166 622 3794 2194 
Q 3669 1413 3391 922 
Q 2903 72 1931 -488 
L 1613 -72 
Q 3519 888 3519 3359 
L 3519 3750 
z
M 1438 3200 
Q 959 3884 509 4294 
L 881 4628 
Q 1413 4153 1841 3597 
L 1438 3200 
z
M 325 250 
Q 984 938 1600 2003 
L 1950 1656 
Q 1319 538 697 -184 
L 325 250 
z
" transform="scale(0.015625)"/>
      <path id="IPAexGothic-3068" d="M 5222 56 
Q 4200 -72 3450 -72 
Q 2478 -72 1941 113 
Q 1184 372 1184 1038 
Q 1184 1584 1594 2009 
Q 1941 2369 2656 2725 
Q 2231 3734 1972 4878 
L 2491 4978 
Q 2706 3884 3078 2950 
Q 4250 3447 4756 3616 
L 4978 3150 
Q 3181 2575 2409 2078 
Q 1691 1613 1691 1113 
Q 1691 403 3322 403 
Q 4125 403 5134 563 
L 5222 56 
z
" transform="scale(0.015625)"/>
      <path id="IPAexGothic-30ad" d="M 2919 5056 
L 3169 3834 
L 4916 4134 
L 5000 3688 
L 3253 3397 
L 3475 2284 
L 5634 2656 
L 5722 2194 
L 3566 1844 
L 3969 -147 
L 3475 -263 
L 3072 1759 
L 834 1388 
L 744 1856 
L 2984 2203 
L 2759 3322 
L 1019 3034 
L 941 3488 
L 2669 3750 
L 2428 4959 
L 2919 5056 
z
" transform="scale(0.015625)"/>
      <path id="IPAexGothic-30e3" d="M 2559 3903 
L 2803 2816 
L 4863 3169 
L 5191 2894 
Q 4672 1875 4103 1203 
L 3666 1447 
Q 4175 2013 4525 2688 
L 2900 2388 
L 3450 -116 
L 2969 -231 
L 2419 2297 
L 1172 2069 
L 1075 2516 
L 2328 2731 
L 2094 3809 
L 2559 3903 
z
" transform="scale(0.015625)"/>
      <path id="IPAexGothic-30da" d="M 428 1938 
Q 1119 2494 2100 3628 
Q 2356 3922 2566 3922 
Q 2772 3922 3181 3531 
Q 4325 2425 5950 1303 
L 5600 813 
Q 3991 2028 2816 3188 
Q 2653 3341 2584 3341 
Q 2513 3341 2291 3072 
Q 1703 2331 775 1478 
L 428 1938 
z
M 4750 4756 
Q 5059 4756 5269 4522 
Q 5453 4319 5453 4053 
Q 5453 3738 5219 3525 
Q 5016 3341 4750 3341 
Q 4434 3341 4222 3575 
Q 4038 3778 4038 4053 
Q 4038 4363 4272 4572 
Q 4478 4756 4750 4756 
z
M 4750 4475 
Q 4559 4475 4428 4334 
Q 4319 4213 4319 4053 
Q 4319 3859 4459 3731 
Q 4584 3622 4750 3622 
Q 4934 3622 5063 3763 
Q 5172 3888 5172 4053 
Q 5172 4238 5031 4366 
Q 4909 4475 4750 4475 
z
" transform="scale(0.015625)"/>
      <path id="IPAexGothic-30fc" d="M 588 2688 
L 5809 2688 
L 5809 2175 
L 588 2175 
L 588 2688 
z
" transform="scale(0.015625)"/>
      <path id="IPAexGothic-671f" d="M 1009 4469 
L 1009 5313 
L 1431 5313 
L 1431 4469 
L 2513 4469 
L 2513 5313 
L 2928 5313 
L 2928 4469 
L 3434 4469 
L 3434 4084 
L 2928 4084 
L 2928 1522 
L 3503 1522 
L 3503 1125 
L 319 1125 
L 319 1522 
L 1009 1522 
L 1009 4084 
L 441 4084 
L 441 4469 
L 1009 4469 
z
M 2513 4084 
L 1431 4084 
L 1431 3481 
L 2513 3481 
L 2513 4084 
z
M 2513 3116 
L 1431 3116 
L 1431 2516 
L 2513 2516 
L 2513 3116 
z
M 2513 2156 
L 1431 2156 
L 1431 1522 
L 2513 1522 
L 2513 2156 
z
M 5747 4984 
L 5747 72 
Q 5747 -391 5216 -391 
Q 4766 -391 4419 -347 
L 4350 109 
Q 4763 38 5138 38 
Q 5331 38 5331 225 
L 5331 1703 
L 4113 1703 
Q 4094 1028 3997 597 
Q 3875 -16 3478 -544 
L 3122 -206 
Q 3691 491 3691 1997 
L 3691 4984 
L 5747 4984 
z
M 5331 4594 
L 4113 4594 
L 4113 3547 
L 5331 3547 
L 5331 4594 
z
M 5331 3163 
L 4113 3163 
L 4113 2088 
L 5331 2088 
L 5331 3163 
z
M 434 -109 
Q 978 328 1331 984 
L 1728 769 
Q 1322 22 766 -475 
L 434 -109 
z
M 2853 -97 
Q 2559 453 2194 819 
L 2547 1038 
Q 2866 747 3231 219 
L 2853 -97 
z
" transform="scale(0.015625)"/>
      <path id="IPAexGothic-9593" d="M 4450 2566 
L 4450 353 
L 2375 353 
L 2375 -25 
L 1953 -25 
L 1953 2566 
L 4450 2566 
z
M 4028 2200 
L 2375 2200 
L 2375 1653 
L 4028 1653 
L 4028 2200 
z
M 4028 1300 
L 2375 1300 
L 2375 719 
L 4028 719 
L 4028 1300 
z
M 2913 5019 
L 2913 3059 
L 1056 3059 
L 1056 -447 
L 609 -447 
L 609 5019 
L 2913 5019 
z
M 1056 4659 
L 1056 4206 
L 2497 4206 
L 2497 4659 
L 1056 4659 
z
M 1056 3881 
L 1056 3413 
L 2497 3413 
L 2497 3881 
L 1056 3881 
z
M 5788 5019 
L 5788 91 
Q 5788 -225 5641 -331 
Q 5525 -409 5231 -409 
Q 4803 -409 4481 -366 
L 4419 97 
Q 4853 38 5128 38 
Q 5341 38 5341 244 
L 5341 3059 
L 3438 3059 
L 3438 5019 
L 5788 5019 
z
M 3853 4659 
L 3853 4206 
L 5341 4206 
L 5341 4659 
L 3853 4659 
z
M 3853 3881 
L 3853 3413 
L 5341 3413 
L 5341 3881 
L 3853 3881 
z
" transform="scale(0.015625)"/>
     </defs>
     <use xlink:href="#IPAexGothic-65e5"/>
     <use xlink:href="#IPAexGothic-6b21" transform="translate(100 0)"/>
     <use xlink:href="#IPAexGothic-30bb" transform="translate(200 0)"/>
     <use xlink:href="#IPAexGothic-30c3" transform="translate(300 0)"/>
     <use xlink:href="#IPAexGothic-30b7" transform="translate(400 0)"/>
     <use xlink:href="#IPAexGothic-30e7" transform="translate(500 0)"/>
     <use xlink:href="#IPAexGothic-30f3" transform="translate(600 0)"/>
     <use xlink:href="#IPAexGothic-3068" transform="translate(700 0)"/>
     <use xlink:href="#IPAexGothic-30ad" transform="translate(800 0)"/>
     <use xlink:href="#IPAexGothic-30e3" transform="translate(900 0)"/>
     <use xlink:href="#IPAexGothic-30f3" transform="translate(1000 0)"/>
     <use xlink:href="#IPAexGothic-30da" transform="translate(1100 0)"/>
     <use xlink:href="#IPAexGothic-30fc" transform="translate(1200 0)"/>
     <use xlink:href="#IPAexGothic-30f3" transform="translate(1300 0)"/>
     <use xlink:href="#IPAexGothic-671f" transform="translate(1400 0)"/>
     <use xlink:href="#IPAexGothic-9593" transform="translate(1500 0)"/>
    </g>
   </g>
   <g id="legend_1">
    <g id="patch_8">
     <path d="M 71.97 58.449687 
L 173.17 58.449687 
Q 175.37 58.449687 175.37 56.249687 
L 175.37 41.52 
Q 175.37 39.32 173.17 39.32 
L 71.97 39.32 
Q 69.77 39.32 69.77 41.52 
L 69.77 56.249687 
Q 69.77 58.449687 71.97 58.449687 
z
" style="fill: #ffffff; opacity: 0.8; stroke: #cccccc; stroke-linejoin: miter"/>
    </g>
    <g id="patch_9">
     <path d="M 74.17 51.959687 
L 96.17 51.959687 
L 96.17 44.259687 
L 74.17 44.259687 
z
" style="fill: #fbbf24; opacity: 0.2; stroke: #fbbf24; stroke-linejoin: miter"/>
    </g>
    <g id="text_20">
     <!-- キャンペーン -->
     <g style="fill: #262626" transform="translate(104.97 51.959687) scale(0.11 -0.11)">
      <use xlink:href="#IPAexGothic-30ad"/>
      <use xlink:href="#IPAexGothic-30e3" transform="translate(100 0)"/>
      <use xlink:href="#IPAexGothic-30f3" transform="translate(200 0)"/>
      <use xlink:href="#IPAexGothic-30da" transform="translate(300 0)"/>
      <use xlink:href="#IPAexGothic-30fc" transform="translate(400 0)"/>
      <use xlink:href="#IPAexGothic-30f3" transform="translate(500 0)"/>
     </g>
    </g>
   </g>
  </g>
 </g>
 <defs>
  <clipPath id="pf6997ef265">
   <rect x="58.77" y="28.32" width="406.325031" height="227.14"/>
  </clipPath>
 </defs>
</svg>
