<?xml version="1.0" encoding="utf-8" standalone="no"?>
<!DOCTYPE svg PUBLIC "-//W3C//DTD SVG 1.1//EN"
  "http://www.w3.org/Graphics/SVG/1.1/DTD/svg11.dtd">
<svg xmlns:xlink="http://www.w3.org/1999/xlink" width="432pt" height="288pt" viewBox="0 0 432 288" xmlns="http://www.w3.org/2000/svg" version="1.1">
 <metadata>
  <rdf:RDF xmlns:dc="http://purl.org/dc/elements/1.1/" xmlns:cc="http://creativecommons.org/ns#" xmlns:rdf="http://www.w3.org/1999/02/22-rdf-syntax-ns#">
   <cc:Work>
    <dc:type rdf:resource="http://purl.org/dc/dcmitype/StillImage"/>
    <dc:date>2025-10-27T02:36:18.389461</dc:date>
    <dc:format>image/svg+xml</dc:format>
    <dc:creator>
     <cc:Agent>
      <dc:title>Matplotlib v3.10.7, https://matplotlib.org/</dc:title>
     </cc:Agent>
    </dc:creator>
   </cc:Work>
  </rdf:RDF>
 </metadata>
 <defs>
  <style type="text/css">*{stroke-linejoin: round; stroke-linecap: butt}</style>
 </defs>
 <g id="figure_1">
  <g id="patch_1">
   <path d="M 0 288 
L 432 288 
L 432 0 
L 0 0 
z
" style="fill: #ffffff"/>
  </g>
  <g id="axes_1">
   <g id="patch_2">
    <path d="M 58.68 255.46 
L 419.04 255.46 
L 419.04 28.32 
L 58.68 28.32 
z
" style="fill: #eaeaf2"/>
   </g>
   <g id="matplotlib.axis_1">
    <g id="xtick_1">
     <g id="line2d_1">
      <path d="M 75.06 255.46 
L 75.06 28.32 
" clip-path="url(#p65d16414b3)" style="fill: none; stroke: #ffffff; stroke-opacity: 0.5; stroke-linecap: round"/>
     </g>
     <g id="text_1">
      <!-- W1 -->
      <g style="fill: #262626" transform="translate(66.490313 273.199687) scale(0.11 -0.11)">
       <defs>
        <path id="IPAexGothic-57" d="M 5888 4634 
L 4466 0 
L 4038 0 
L 3219 2759 
Q 3084 3209 2981 3738 
L 2963 3738 
Q 2866 3288 2713 2759 
L 1888 0 
L 1453 0 
L 44 4634 
L 672 4634 
L 1406 2041 
Q 1572 1444 1694 928 
L 1716 928 
Q 1819 1406 2003 2041 
L 2725 4556 
L 3213 4556 
L 3972 2041 
Q 4128 1541 4269 922 
L 4288 922 
Q 4441 1603 4563 2041 
L 5291 4634 
L 5888 4634 
z
" transform="scale(0.015625)"/>
        <path id="IPAexGothic-31" d="M 2463 63 
L 1900 63 
L 1900 4103 
Q 1372 3922 788 3797 
L 684 4231 
Q 1519 4441 2106 4731 
L 2463 4731 
L 2463 63 
z
" transform="scale(0.015625)"/>
       </defs>
       <use xlink:href="#IPAexGothic-57"/>
       <use xlink:href="#IPAexGothic-31" transform="translate(92.822266 0)"/>
      </g>
     </g>
    </g>
    <g id="xtick_2">
     <g id="line2d_2">
      <path d="M 156.96 255.46 
L 156.96 28.32 
" clip-path="url(#p65d16414b3)" style="fill: none; stroke: #ffffff; stroke-opacity: 0.5; stroke-linecap: round"/>
     </g>
     <g id="text_2">
      <!-- W2 -->
      <g style="fill: #262626" transform="translate(148.390312 273.199687) scale(0.11 -0.11)">
       <defs>
        <path id="IPAexGothic-32" d="M 3659 63 
L 447 63 
L 447 594 
Q 825 1475 1894 2203 
L 2072 2322 
Q 2619 2697 2791 2906 
Q 2988 3153 2988 3444 
Q 2988 3772 2756 4003 
Q 2500 4259 2084 4259 
Q 1250 4259 991 3328 
L 497 3506 
Q 853 4725 2116 4725 
Q 2806 4725 3216 4316 
Q 3575 3947 3575 3425 
Q 3575 3038 3344 2722 
Q 3131 2416 2366 1938 
L 2231 1856 
Q 1256 1253 978 569 
L 3659 569 
L 3659 63 
z
" transform="scale(0.015625)"/>
       </defs>
       <use xlink:href="#IPAexGothic-57"/>
       <use xlink:href="#IPAexGothic-32" transform="translate(92.822266 0)"/>
      </g>
     </g>
    </g>
    <g id="xtick_3">
     <g id="line2d_3">
      <path d="M 238.86 255.46 
L 238.86 28.32 
" clip-path="url(#p65d16414b3)" style="fill: none; stroke: #ffffff; stroke-opacity: 0.5; stroke-linecap: round"/>
     </g>
     <g id="text_3">
      <!-- W3 -->
      <g style="fill: #262626" transform="translate(230.290312 273.199687) scale(0.11 -0.11)">
       <defs>
        <path id="IPAexGothic-33" d="M 2381 2419 
Q 3506 2216 3506 1278 
Q 3506 716 3128 356 
Q 2709 -31 1944 -31 
Q 797 -31 288 881 
L 756 1131 
Q 1109 441 1938 441 
Q 2425 441 2694 691 
Q 2950 928 2950 1291 
Q 2950 1719 2566 1978 
Q 2216 2213 1644 2213 
L 1363 2213 
L 1363 2669 
L 1656 2669 
Q 2231 2669 2534 2888 
Q 2859 3119 2859 3509 
Q 2859 3934 2494 4138 
Q 2259 4278 1931 4278 
Q 1238 4278 903 3578 
L 434 3803 
Q 897 4725 1938 4725 
Q 2597 4725 3006 4394 
Q 3416 4069 3416 3534 
Q 3416 3028 3019 2706 
Q 2763 2500 2381 2444 
L 2381 2419 
z
" transform="scale(0.015625)"/>
       </defs>
       <use xlink:href="#IPAexGothic-57"/>
       <use xlink:href="#IPAexGothic-33" transform="translate(92.822266 0)"/>
      </g>
     </g>
    </g>
    <g id="xtick_4">
     <g id="line2d_4">
      <path d="M 320.76 255.46 
L 320.76 28.32 
" clip-path="url(#p65d16414b3)" style="fill: none; stroke: #ffffff; stroke-opacity: 0.5; stroke-linecap: round"/>
     </g>
     <g id="text_4">
      <!-- W4 -->
      <g style="fill: #262626" transform="translate(312.190313 273.199687) scale(0.11 -0.11)">
       <defs>
        <path id="IPAexGothic-34" d="M 3813 1159 
L 3059 1159 
L 3059 63 
L 2547 63 
L 2547 1159 
L 197 1159 
L 197 1672 
L 2456 4678 
L 3059 4678 
L 3059 1634 
L 3813 1634 
L 3813 1159 
z
M 2578 4109 
L 2559 4109 
Q 2278 3656 2003 3284 
L 759 1634 
L 2547 1634 
L 2547 3144 
Q 2547 3481 2578 4109 
z
" transform="scale(0.015625)"/>
       </defs>
       <use xlink:href="#IPAexGothic-57"/>
       <use xlink:href="#IPAexGothic-34" transform="translate(92.822266 0)"/>
      </g>
     </g>
    </g>
    <g id="xtick_5">
     <g id="line2d_5">
      <path d="M 402.66 255.46 
L 402.66 28.32 
" clip-path="url(#p65d16414b3)" style="fill: none; stroke: #ffffff; stroke-opacity: 0.5; stroke-linecap: round"/>
     </g>
     <g id="text_5">
      <!-- W5 -->
      <g style="fill: #262626" transform="translate(394.090312 273.199687) scale(0.11 -0.11)">
       <defs>
        <path id="IPAexGothic-35" d="M 1178 2603 
Q 1634 2963 2172 2963 
Q 2816 2963 3241 2528 
Q 3638 2113 3638 1497 
Q 3638 938 3297 513 
Q 2869 -31 2031 -31 
Q 959 -31 469 784 
L 938 1028 
Q 1309 434 2013 434 
Q 2466 434 2769 716 
Q 3081 1013 3081 1503 
Q 3081 1966 2806 2241 
Q 2519 2528 2056 2528 
Q 1406 2528 1072 2028 
L 591 2091 
L 884 4634 
L 3406 4634 
L 3406 4153 
L 1341 4153 
L 1134 2603 
L 1178 2603 
z
" transform="scale(0.015625)"/>
       </defs>
       <use xlink:href="#IPAexGothic-57"/>
       <use xlink:href="#IPAexGothic-35" transform="translate(92.822266 0)"/>
      </g>
     </g>
    </g>
   </g>
   <g id="matplotlib.axis_2">
    <g id="ytick_1">
     <g id="line2d_6">
      <path d="M 58.68 245.135455 
L 419.04 245.135455 
" clip-path="url(#p65d16414b3)" style="fill: none; stroke: #ffffff; stroke-opacity: 0.3; stroke-linecap: round"/>
     </g>
     <g id="text_6">
      <!-- 120 -->
      <g style="fill: #262626" transform="translate(28.395156 249.255298) scale(0.11 -0.11)">
       <defs>
        <path id="IPAexGothic-30" d="M 2038 4725 
Q 2881 4725 3334 3944 
Q 3694 3325 3694 2344 
Q 3694 1372 3334 741 
Q 2888 -31 2016 -31 
Q 1147 -31 700 741 
Q 341 1372 341 2350 
Q 341 3713 1000 4334 
Q 1419 4725 2038 4725 
z
M 2016 4266 
Q 1516 4266 1228 3759 
Q 934 3247 934 2344 
Q 934 1456 1222 947 
Q 1513 447 2016 447 
Q 2619 447 2909 1153 
Q 3100 1622 3100 2375 
Q 3100 3256 2806 3759 
Q 2509 4266 2016 4266 
z
" transform="scale(0.015625)"/>
       </defs>
       <use xlink:href="#IPAexGothic-31"/>
       <use xlink:href="#IPAexGothic-32" transform="translate(62.988281 0)"/>
       <use xlink:href="#IPAexGothic-30" transform="translate(125.976562 0)"/>
      </g>
     </g>
    </g>
    <g id="ytick_2">
     <g id="line2d_7">
      <path d="M 58.68 210.720303 
L 419.04 210.720303 
" clip-path="url(#p65d16414b3)" style="fill: none; stroke: #ffffff; stroke-opacity: 0.3; stroke-linecap: round"/>
     </g>
     <g id="text_7">
      <!-- 130 -->
      <g style="fill: #262626" transform="translate(28.395156 214.840147) scale(0.11 -0.11)">
       <use xlink:href="#IPAexGothic-31"/>
       <use xlink:href="#IPAexGothic-33" transform="translate(62.988281 0)"/>
       <use xlink:href="#IPAexGothic-30" transform="translate(125.976562 0)"/>
      </g>
     </g>
    </g>
    <g id="ytick_3">
     <g id="line2d_8">
      <path d="M 58.68 176.305152 
L 419.04 176.305152 
" clip-path="url(#p65d16414b3)" style="fill: none; stroke: #ffffff; stroke-opacity: 0.3; stroke-linecap: round"/>
     </g>
     <g id="text_8">
      <!-- 140 -->
      <g style="fill: #262626" transform="translate(28.395156 180.424995) scale(0.11 -0.11)">
       <use xlink:href="#IPAexGothic-31"/>
       <use xlink:href="#IPAexGothic-34" transform="translate(62.988281 0)"/>
       <use xlink:href="#IPAexGothic-30" transform="translate(125.976562 0)"/>
      </g>
     </g>
    </g>
    <g id="ytick_4">
     <g id="line2d_9">
      <path d="M 58.68 141.89 
L 419.04 141.89 
" clip-path="url(#p65d16414b3)" style="fill: none; stroke: #ffffff; stroke-opacity: 0.3; stroke-linecap: round"/>
     </g>
     <g id="text_9">
      <!-- 150 -->
      <g style="fill: #262626" transform="translate(28.395156 146.009844) scale(0.11 -0.11)">
       <use xlink:href="#IPAexGothic-31"/>
       <use xlink:href="#IPAexGothic-35" transform="translate(62.988281 0)"/>
       <use xlink:href="#IPAexGothic-30" transform="translate(125.976562 0)"/>
      </g>
     </g>
    </g>
    <g id="ytick_5">
     <g id="line2d_10">
      <path d="M 58.68 107.474848 
L 419.04 107.474848 
" clip-path="url(#p65d16414b3)" style="fill: none; stroke: #ffffff; stroke-opacity: 0.3; stroke-linecap: round"/>
     </g>
     <g id="text_10">
      <!-- 160 -->
      <g style="fill: #262626" transform="translate(28.395156 111.594692) scale(0.11 -0.11)">
       <defs>
        <path id="IPAexGothic-36" d="M 1056 2328 
Q 1509 2981 2234 2981 
Q 2906 2981 3316 2513 
Q 3675 2106 3675 1522 
Q 3675 884 3272 434 
Q 2853 -31 2178 -31 
Q 1375 -31 922 581 
Q 481 1178 481 2228 
Q 481 3425 1013 4109 
Q 1494 4725 2272 4725 
Q 3191 4725 3609 4025 
L 3150 3775 
Q 2894 4266 2300 4266 
Q 1119 4266 1031 2328 
L 1056 2328 
z
M 2141 2547 
Q 1684 2547 1384 2206 
Q 1116 1900 1116 1541 
Q 1116 1156 1353 844 
Q 1672 428 2159 428 
Q 2669 428 2941 844 
Q 3125 1128 3125 1503 
Q 3125 1944 2881 2228 
Q 2600 2547 2141 2547 
z
" transform="scale(0.015625)"/>
       </defs>
       <use xlink:href="#IPAexGothic-31"/>
       <use xlink:href="#IPAexGothic-36" transform="translate(62.988281 0)"/>
       <use xlink:href="#IPAexGothic-30" transform="translate(125.976562 0)"/>
      </g>
     </g>
    </g>
    <g id="ytick_6">
     <g id="line2d_11">
      <path d="M 58.68 73.059697 
L 419.04 73.059697 
" clip-path="url(#p65d16414b3)" style="fill: none; stroke: #ffffff; stroke-opacity: 0.3; stroke-linecap: round"/>
     </g>
     <g id="text_11">
      <!-- 170 -->
      <g style="fill: #262626" transform="translate(28.395156 77.179541) scale(0.11 -0.11)">
       <defs>
        <path id="IPAexGothic-37" d="M 3597 4263 
Q 2238 2106 1778 63 
L 1131 63 
Q 1581 1834 2950 4128 
L 428 4128 
L 428 4634 
L 3597 4634 
L 3597 4263 
z
" transform="scale(0.015625)"/>
       </defs>
       <use xlink:href="#IPAexGothic-31"/>
       <use xlink:href="#IPAexGothic-37" transform="translate(62.988281 0)"/>
       <use xlink:href="#IPAexGothic-30" transform="translate(125.976562 0)"/>
      </g>
     </g>
    </g>
    <g id="ytick_7">
     <g id="line2d_12">
      <path d="M 58.68 38.644545 
L 419.04 38.644545 
" clip-path="url(#p65d16414b3)" style="fill: none; stroke: #ffffff; stroke-opacity: 0.3; stroke-linecap: round"/>
     </g>
     <g id="text_12">
      <!-- 180 -->
      <g style="fill: #262626" transform="translate(28.395156 42.764389) scale(0.11 -0.11)">
       <defs>
        <path id="IPAexGothic-38" d="M 2541 2425 
Q 3700 2031 3700 1197 
Q 3700 541 3100 197 
Q 2663 -56 2016 -56 
Q 1366 -56 928 197 
Q 347 531 347 1178 
Q 347 1988 1409 2381 
L 1409 2400 
Q 481 2734 481 3509 
Q 481 4100 981 4456 
Q 1406 4756 2019 4756 
Q 2703 4756 3131 4403 
Q 3553 4069 3553 3566 
Q 3553 2706 2541 2444 
L 2541 2425 
z
M 2022 2625 
Q 2997 2856 2997 3528 
Q 2997 3916 2675 4150 
Q 2413 4347 2016 4347 
Q 1606 4347 1331 4128 
Q 1050 3897 1050 3522 
Q 1050 3150 1350 2925 
Q 1494 2809 1722 2722 
Q 1984 2616 2022 2625 
z
M 1978 2209 
Q 922 1931 922 1216 
Q 922 775 1313 556 
Q 1606 391 2009 391 
Q 2575 391 2881 697 
Q 3106 922 3106 1250 
Q 3106 1594 2794 1850 
Q 2609 1994 2350 2100 
Q 2047 2222 1978 2209 
z
" transform="scale(0.015625)"/>
       </defs>
       <use xlink:href="#IPAexGothic-31"/>
       <use xlink:href="#IPAexGothic-38" transform="translate(62.988281 0)"/>
       <use xlink:href="#IPAexGothic-30" transform="translate(125.976562 0)"/>
      </g>
     </g>
    </g>
    <g id="text_13">
     <!-- 売上（万円） -->
     <g style="fill: #262626" transform="translate(22.115156 177.89) rotate(-90) scale(0.12 -0.12)">
      <defs>
       <path id="IPAexGothic-58f2" d="M 2938 4544 
L 2938 5313 
L 3419 5313 
L 3419 4544 
L 5781 4544 
L 5781 4147 
L 3419 4147 
L 3419 3559 
L 5306 3559 
L 5306 3163 
L 1088 3163 
L 1088 3559 
L 2938 3559 
L 2938 4147 
L 609 4147 
L 609 4544 
L 2938 4544 
z
M 5684 2706 
L 5684 1522 
L 5216 1522 
L 5216 2316 
L 1178 2316 
L 1178 1478 
L 709 1478 
L 709 2706 
L 5684 2706 
z
M 531 -84 
Q 1494 91 1894 556 
Q 2213 913 2222 1972 
L 2688 1972 
Q 2678 756 2216 225 
Q 1794 -256 819 -506 
L 531 -84 
z
M 3622 1972 
L 4091 1972 
L 4091 353 
Q 4091 191 4181 153 
Q 4313 100 4684 100 
Q 5169 100 5294 159 
Q 5503 256 5513 1006 
L 5972 863 
Q 5944 -22 5691 -206 
Q 5503 -347 4659 -347 
Q 3981 -347 3809 -250 
Q 3622 -144 3622 178 
L 3622 1972 
z
" transform="scale(0.015625)"/>
       <path id="IPAexGothic-4e0a" d="M 3259 3366 
L 5475 3366 
L 5475 2913 
L 3259 2913 
L 3259 556 
L 5991 556 
L 5991 103 
L 391 103 
L 391 556 
L 2772 556 
L 2772 5050 
L 3259 5050 
L 3259 3366 
z
" transform="scale(0.015625)"/>
       <path id="IPAexGothic-ff08" d="M 5419 -434 
Q 4197 769 4197 2438 
Q 4197 4097 5419 5300 
L 5919 5300 
Q 4678 4078 4678 2425 
Q 4678 788 5919 -434 
L 5419 -434 
z
" transform="scale(0.015625)"/>
       <path id="IPAexGothic-4e07" d="M 2888 4316 
Q 2878 3816 2828 3128 
L 5369 3128 
Q 5284 984 5056 300 
Q 4950 -22 4750 -134 
Q 4556 -250 4181 -250 
Q 3659 -250 3091 -159 
L 3028 363 
Q 3638 225 4103 225 
Q 4456 225 4569 463 
Q 4797 906 4866 2700 
L 2784 2700 
Q 2534 575 934 -391 
L 591 -6 
Q 1900 716 2216 2200 
Q 2394 3041 2394 4316 
L 506 4316 
L 506 4756 
L 5888 4756 
L 5888 4316 
L 2888 4316 
z
" transform="scale(0.015625)"/>
       <path id="IPAexGothic-5186" d="M 5594 4806 
L 5594 322 
Q 5594 34 5491 -97 
Q 5366 -269 4959 -269 
Q 4469 -269 3897 -225 
L 3809 275 
Q 4378 206 4844 206 
Q 5106 206 5106 434 
L 5106 2119 
L 1281 2119 
L 1281 -359 
L 794 -359 
L 794 4806 
L 5594 4806 
z
M 1281 4366 
L 1281 2547 
L 2944 2547 
L 2944 4366 
L 1281 4366 
z
M 5106 2547 
L 5106 4366 
L 3413 4366 
L 3413 2547 
L 5106 2547 
z
" transform="scale(0.015625)"/>
       <path id="IPAexGothic-ff09" d="M 481 -434 
Q 1722 788 1722 2431 
Q 1722 4066 481 5300 
L 981 5300 
Q 2203 4097 2203 2431 
Q 2203 769 981 -434 
L 481 -434 
z
" transform="scale(0.015625)"/>
      </defs>
      <use xlink:href="#IPAexGothic-58f2"/>
      <use xlink:href="#IPAexGothic-4e0a" transform="translate(100 0)"/>
      <use xlink:href="#IPAexGothic-ff08" transform="translate(200 0)"/>
      <use xlink:href="#IPAexGothic-4e07" transform="translate(300 0)"/>
      <use xlink:href="#IPAexGothic-5186" transform="translate(400 0)"/>
      <use xlink:href="#IPAexGothic-ff09" transform="translate(500 0)"/>
     </g>
    </g>
   </g>
   <g id="line2d_13">
    <path d="M 75.06 38.644545 
L 156.96 141.89 
L 238.86 73.059697 
L 320.76 176.305152 
L 402.66 107.474848 
" clip-path="url(#p65d16414b3)" style="fill: none; stroke: #2563eb; stroke-width: 2.5; stroke-linecap: round"/>
    <defs>
     <path id="m00fec85c07" d="M 0 3 
C 0.795609 3 1.55874 2.683901 2.12132 2.12132 
C 2.683901 1.55874 3 0.795609 3 0 
C 3 -0.795609 2.683901 -1.55874 2.12132 -2.12132 
C 1.55874 -2.683901 0.795609 -3 0 -3 
C -0.795609 -3 -1.55874 -2.683901 -2.12132 -2.12132 
C -2.683901 -1.55874 -3 -0.795609 -3 0 
C -3 0.795609 -2.683901 1.55874 -2.12132 2.12132 
C -1.55874 2.683901 -0.795609 3 0 3 
z
" style="stroke: #2563eb"/>
    </defs>
    <g clip-path="url(#p65d16414b3)">
     <use xlink:href="#m00fec85c07" x="75.06" y="38.644545" style="fill: #2563eb; stroke: #2563eb"/>
     <use xlink:href="#m00fec85c07" x="156.96" y="141.89" style="fill: #2563eb; stroke: #2563eb"/>
     <use xlink:href="#m00fec85c07" x="238.86" y="73.059697" style="fill: #2563eb; stroke: #2563eb"/>
     <use xlink:href="#m00fec85c07" x="320.76" y="176.305152" style="fill: #2563eb; stroke: #2563eb"/>
     <use xlink:href="#m00fec85c07" x="402.66" y="107.474848" style="fill: #2563eb; stroke: #2563eb"/>
    </g>
   </g>
   <g id="line2d_14">
    <path d="M 75.06 245.135455 
L 156.96 210.720303 
L 238.86 176.305152 
L 320.76 227.927879 
L 402.66 193.512727 
" clip-path="url(#p65d16414b3)" style="fill: none; stroke: #10b981; stroke-width: 2.5; stroke-linecap: round"/>
    <defs>
     <path id="mc92d6e5313" d="M 0 3 
C 0.795609 3 1.55874 2.683901 2.12132 2.12132 
C 2.683901 1.55874 3 0.795609 3 0 
C 3 -0.795609 2.683901 -1.55874 2.12132 -2.12132 
C 1.55874 -2.683901 0.795609 -3 0 -3 
C -0.795609 -3 -1.55874 -2.683901 -2.12132 -2.12132 
C -2.683901 -1.55874 -3 -0.795609 -3 0 
C -3 0.795609 -2.683901 1.55874 -2.12132 2.12132 
C -1.55874 2.683901 -0.795609 3 0 3 
z
" style="stroke: #10b981"/>
    </defs>
    <g clip-path="url(#p65d16414b3)">
     <use xlink:href="#mc92d6e5313" x="75.06" y="245.135455" style="fill: #10b981; stroke: #10b981"/>
     <use xlink:href="#mc92d6e5313" x="156.96" y="210.720303" style="fill: #10b981; stroke: #10b981"/>
     <use xlink:href="#mc92d6e5313" x="238.86" y="176.305152" style="fill: #10b981; stroke: #10b981"/>
     <use xlink:href="#mc92d6e5313" x="320.76" y="227.927879" style="fill: #10b981; stroke: #10b981"/>
     <use xlink:href="#mc92d6e5313" x="402.66" y="193.512727" style="fill: #10b981; stroke: #10b981"/>
    </g>
   </g>
   <g id="patch_3">
    <path d="M 58.68 255.46 
L 58.68 28.32 
" style="fill: none; stroke: #ffffff; stroke-width: 1.25; stroke-linejoin: miter; stroke-linecap: square"/>
   </g>
   <g id="patch_4">
    <path d="M 419.04 255.46 
L 419.04 28.32 
" style="fill: none; stroke: #ffffff; stroke-width: 1.25; stroke-linejoin: miter; stroke-linecap: square"/>
   </g>
   <g id="patch_5">
    <path d="M 58.68 255.46 
L 419.04 255.46 
" style="fill: none; stroke: #ffffff; stroke-width: 1.25; stroke-linejoin: miter; stroke-linecap: square"/>
   </g>
   <g id="patch_6">
    <path d="M 58.68 28.32 
L 419.04 28.32 
" style="fill: none; stroke: #ffffff; stroke-width: 1.25; stroke-linejoin: miter; stroke-linecap: square"/>
   </g>
   <g id="text_14">
    <!-- 週別 売上推移 -->
    <g style="fill: #262626" transform="translate(201.24 22.32) scale(0.12 -0.12)">
     <defs>
      <path id="IPAexGothic-9031" d="M 1703 728 
Q 1944 394 2356 247 
Q 2788 94 3891 94 
Q 4791 94 6119 172 
Q 6019 -84 5978 -300 
Q 4853 -341 4275 -341 
Q 2825 -341 2259 -153 
Q 1791 9 1519 391 
Q 1175 -28 647 -453 
L 366 13 
Q 916 350 1263 659 
L 1263 2303 
L 378 2303 
L 378 2731 
L 1703 2731 
L 1703 728 
z
M 4916 2509 
L 4916 1209 
L 3650 1209 
L 3650 891 
L 3253 891 
L 3253 2509 
L 4916 2509 
z
M 4519 2169 
L 3650 2169 
L 3650 1541 
L 4519 1541 
L 4519 2169 
z
M 5788 5056 
L 5788 863 
Q 5788 403 5294 403 
Q 4950 403 4616 441 
L 4544 878 
Q 4866 813 5159 813 
Q 5372 813 5372 997 
L 5372 4672 
L 2809 4672 
L 2809 3053 
Q 2809 1206 2375 403 
L 2009 716 
Q 2394 1438 2394 2753 
L 2394 5056 
L 5788 5056 
z
M 4269 4019 
L 5113 4019 
L 5113 3659 
L 4269 3659 
L 4269 3200 
L 5209 3200 
L 5209 2853 
L 2944 2853 
L 2944 3200 
L 3866 3200 
L 3866 3659 
L 3072 3659 
L 3072 4019 
L 3866 4019 
L 3866 4513 
L 4269 4513 
L 4269 4019 
z
M 1516 3775 
Q 1034 4359 563 4738 
L 878 5056 
Q 1484 4572 1856 4122 
L 1516 3775 
z
" transform="scale(0.015625)"/>
      <path id="IPAexGothic-5225" d="M 1922 2963 
Q 1906 2453 1894 2209 
L 3341 2209 
Q 3313 550 3175 63 
Q 3059 -366 2413 -366 
Q 2072 -366 1753 -313 
L 1691 134 
Q 2084 63 2413 63 
Q 2694 63 2759 319 
Q 2856 722 2888 1753 
Q 2888 1800 2894 1819 
L 1863 1819 
Q 1709 350 700 -481 
L 353 -147 
Q 1075 403 1306 1256 
Q 1450 1822 1478 2963 
L 700 2963 
L 700 4984 
L 3278 4984 
L 3278 2963 
L 1922 2963 
z
M 1141 4588 
L 1141 3353 
L 2838 3353 
L 2838 4588 
L 1141 4588 
z
M 3972 4597 
L 4425 4597 
L 4425 1159 
L 3972 1159 
L 3972 4597 
z
M 5309 5044 
L 5763 5044 
L 5763 191 
Q 5763 -141 5581 -263 
Q 5438 -359 5116 -359 
Q 4688 -359 4253 -313 
L 4156 178 
Q 4625 116 5072 116 
Q 5309 116 5309 353 
L 5309 5044 
z
" transform="scale(0.015625)"/>
      <path id="IPAexGothic-20" transform="scale(0.015625)"/>
      <path id="IPAexGothic-63a8" d="M 3244 4063 
L 4244 4063 
Q 4481 4578 4653 5228 
L 5125 5100 
Q 4913 4484 4691 4063 
L 5906 4063 
L 5906 3666 
L 4647 3666 
L 4647 2822 
L 5747 2822 
L 5747 2438 
L 4647 2438 
L 4647 1594 
L 5747 1594 
L 5747 1216 
L 4647 1216 
L 4647 319 
L 6047 319 
L 6047 -91 
L 3244 -91 
L 3244 -481 
L 2816 -481 
L 2816 3188 
L 2791 3128 
Q 2581 2744 2366 2463 
L 2084 2797 
Q 2813 3728 3166 5284 
L 3616 5144 
Q 3431 4500 3244 4063 
z
M 3244 319 
L 4231 319 
L 4231 1216 
L 3244 1216 
L 3244 319 
z
M 3244 1594 
L 4231 1594 
L 4231 2438 
L 3244 2438 
L 3244 1594 
z
M 3244 2822 
L 4231 2822 
L 4231 3666 
L 3244 3666 
L 3244 2822 
z
M 1184 4084 
L 1184 5313 
L 1613 5313 
L 1613 4084 
L 2328 4084 
L 2328 3669 
L 1613 3669 
L 1613 2241 
Q 1997 2341 2334 2453 
L 2359 2069 
Q 1809 1884 1631 1831 
L 1613 1825 
L 1613 44 
Q 1613 -197 1522 -294 
Q 1413 -403 1081 -403 
Q 738 -403 519 -366 
L 441 97 
Q 741 38 978 38 
Q 1184 38 1184 219 
L 1184 1703 
L 1147 1697 
Q 734 1581 409 1509 
L 275 1941 
Q 722 2022 1138 2119 
Q 1147 2122 1166 2125 
Q 1178 2128 1184 2131 
L 1184 3669 
L 372 3669 
L 372 4084 
L 1184 4084 
z
" transform="scale(0.015625)"/>
      <path id="IPAexGothic-79fb" d="M 4691 2419 
L 5844 2419 
L 6069 2188 
Q 5503 1156 4763 513 
Q 4081 -75 2975 -469 
L 2681 -97 
Q 3684 194 4384 728 
Q 4097 1056 3731 1356 
Q 3381 1053 2919 819 
L 2669 1150 
Q 3853 1772 4500 2878 
L 4909 2772 
Q 4772 2528 4691 2419 
z
M 4409 2034 
Q 4219 1803 4000 1588 
Q 4375 1341 4703 1009 
Q 5219 1488 5497 2034 
L 4409 2034 
z
M 1350 2328 
Q 1009 1334 513 659 
L 263 1081 
Q 966 2022 1266 3128 
L 366 3128 
L 366 3531 
L 1350 3531 
L 1350 4400 
Q 919 4322 575 4266 
L 366 4644 
Q 1506 4809 2378 5144 
L 2700 4747 
Q 2238 4600 1784 4491 
L 1784 3531 
L 2616 3531 
L 2616 3128 
L 1784 3128 
L 1784 2688 
Q 2306 2266 2719 1803 
L 2444 1356 
Q 2106 1838 1784 2181 
L 1784 -450 
L 1350 -450 
L 1350 2328 
z
M 4275 4800 
L 5491 4800 
L 5709 4609 
Q 4763 2809 2875 2047 
L 2606 2388 
Q 3534 2722 4134 3244 
Q 3869 3519 3450 3794 
Q 3184 3569 2859 3359 
L 2591 3666 
Q 3578 4259 4056 5288 
L 4481 5191 
Q 4406 5034 4275 4800 
z
M 4019 4416 
Q 3856 4194 3700 4038 
Q 4128 3759 4372 3553 
L 4416 3513 
Q 4884 3991 5119 4416 
L 4019 4416 
z
" transform="scale(0.015625)"/>
     </defs>
     <use xlink:href="#IPAexGothic-9031"/>
     <use xlink:href="#IPAexGothic-5225" transform="translate(100 0)"/>
     <use xlink:href="#IPAexGothic-20" transform="translate(200 0)"/>
     <use xlink:href="#IPAexGothic-58f2" transform="translate(227.001953 0)"/>
     <use xlink:href="#IPAexGothic-4e0a" transform="translate(327.001953 0)"/>
     <use xlink:href="#IPAexGothic-63a8" transform="translate(427.001953 0)"/>
     <use xlink:href="#IPAexGothic-79fb" transform="translate(527.001953 0)"/>
    </g>
   </g>
   <g id="legend_1">
    <g id="line2d_15">
     <path d="M 328.84 213.890312 
L 339.84 213.890312 
L 350.84 213.890312 
" style="fill: none; stroke: #2563eb; stroke-width: 2.5; stroke-linecap: round"/>
     <defs>
      <path id="m5e32abc585" d="M 0 6 
C 1.591219 6 3.117479 5.367802 4.242641 4.242641 
C 5.367802 3.117479 6 1.591219 6 0 
C 6 -1.591219 5.367802 -3.117479 4.242641 -4.242641 
C 3.117479 -5.367802 1.591219 -6 0 -6 
C -1.591219 -6 -3.117479 -5.367802 -4.242641 -4.242641 
C -5.367802 -3.117479 -6 -1.591219 -6 0 
C -6 1.591219 -5.367802 3.117479 -4.242641 4.242641 
C -3.117479 5.367802 -1.591219 6 0 6 
z
" style="stroke: #2563eb"/>
     </defs>
     <g>
      <use xlink:href="#m5e32abc585" x="339.84" y="213.890312" style="fill: #2563eb; stroke: #2563eb"/>
     </g>
    </g>
    <g id="text_15">
     <!-- 東エリア -->
     <g style="fill: #262626" transform="translate(359.64 217.740312) scale(0.11 -0.11)">
      <defs>
       <path id="IPAexGothic-6771" d="M 3822 1631 
Q 4653 791 6088 300 
L 5788 -147 
Q 4269 463 3400 1553 
L 3400 -450 
L 2959 -450 
L 2959 1516 
Q 2200 403 634 -269 
L 328 147 
Q 1781 638 2575 1631 
L 1544 1631 
L 1544 1406 
L 1109 1406 
L 1109 3781 
L 2959 3781 
L 2959 4256 
L 419 4256 
L 419 4659 
L 2959 4659 
L 2959 5313 
L 3400 5313 
L 3400 4659 
L 5984 4659 
L 5984 4256 
L 3400 4256 
L 3400 3781 
L 5288 3781 
L 5288 1406 
L 4847 1406 
L 4847 1631 
L 3822 1631 
z
M 2966 3397 
L 1544 3397 
L 1544 2900 
L 2966 2900 
L 2966 3397 
z
M 3394 3397 
L 3394 2900 
L 4847 2900 
L 4847 3397 
L 3394 3397 
z
M 2966 2541 
L 1544 2541 
L 1544 2016 
L 2966 2016 
L 2966 2541 
z
M 3394 2541 
L 3394 2016 
L 4847 2016 
L 4847 2541 
L 3394 2541 
z
" transform="scale(0.015625)"/>
       <path id="IPAexGothic-30a8" d="M 1109 4063 
L 5294 4063 
L 5294 3594 
L 3444 3594 
L 3444 988 
L 5759 988 
L 5759 513 
L 641 513 
L 641 988 
L 2913 988 
L 2913 3594 
L 1109 3594 
L 1109 4063 
z
" transform="scale(0.015625)"/>
       <path id="IPAexGothic-30ea" d="M 1678 4788 
L 2222 4788 
L 2222 1900 
L 1678 1900 
L 1678 4788 
z
M 4084 4909 
L 4628 4909 
L 4628 2753 
Q 4628 1563 4150 794 
Q 3725 119 2772 -353 
L 2394 78 
Q 3334 494 3706 1094 
Q 4084 1703 4084 2725 
L 4084 4909 
z
" transform="scale(0.015625)"/>
       <path id="IPAexGothic-30a2" d="M 5388 4556 
L 5747 4200 
Q 5081 3022 4019 2191 
L 3647 2547 
Q 4519 3178 5081 4091 
L 850 4013 
L 850 4500 
L 5388 4556 
z
M 1216 256 
Q 2319 813 2616 1691 
Q 2797 2200 2797 3628 
L 3313 3628 
Q 3303 1981 3059 1356 
Q 2697 431 1594 -153 
L 1216 256 
z
" transform="scale(0.015625)"/>
      </defs>
      <use xlink:href="#IPAexGothic-6771"/>
      <use xlink:href="#IPAexGothic-30a8" transform="translate(100 0)"/>
      <use xlink:href="#IPAexGothic-30ea" transform="translate(200 0)"/>
      <use xlink:href="#IPAexGothic-30a2" transform="translate(300 0)"/>
     </g>
    </g>
    <g id="line2d_16">
     <path d="M 328.84 234.12 
L 339.84 234.12 
L 350.84 234.12 
" style="fill: none; stroke: #10b981; stroke-width: 2.5; stroke-linecap: round"/>
     <defs>
      <path id="md48af0e6d8" d="M 0 6 
C 1.591219 6 3.117479 5.367802 4.242641 4.242641 
C 5.367802 3.117479 6 1.591219 6 0 
C 6 -1.591219 5.367802 -3.117479 4.242641 -4.242641 
C 3.117479 -5.367802 1.591219 -6 0 -6 
C -1.591219 -6 -3.117479 -5.367802 -4.242641 -4.242641 
C -5.367802 -3.117479 -6 -1.591219 -6 0 
C -6 1.591219 -5.367802 3.117479 -4.242641 4.242641 
C -3.117479 5.367802 -1.591219 6 0 6 
z
" style="stroke: #10b981"/>
     </defs>
     <g>
      <use xlink:href="#md48af0e6d8" x="339.84" y="234.12" style="fill: #10b981; stroke: #10b981"/>
     </g>
    </g>
    <g id="text_16">
     <!-- 西エリア -->
     <g style="fill: #262626" transform="translate(359.64 237.97) scale(0.11 -0.11)">
      <defs>
       <path id="IPAexGothic-897f" d="M 2272 3444 
L 2272 4372 
L 416 4372 
L 416 4788 
L 5978 4788 
L 5978 4372 
L 3947 4372 
L 3947 3444 
L 5588 3444 
L 5588 -350 
L 5134 -350 
L 5134 103 
L 1259 103 
L 1259 -350 
L 806 -350 
L 806 3444 
L 2272 3444 
z
M 2706 3444 
L 3513 3444 
L 3513 4372 
L 2706 4372 
L 2706 3444 
z
M 2266 3053 
L 1259 3053 
L 1259 506 
L 5134 506 
L 5134 3053 
L 3947 3053 
L 3947 1913 
Q 3947 1709 4203 1709 
Q 4547 1709 4594 1766 
Q 4650 1828 4678 2169 
Q 4678 2234 4684 2266 
L 5044 2138 
Q 4978 1594 4903 1472 
Q 4788 1300 4197 1300 
Q 3513 1300 3513 1691 
L 3513 3053 
L 2700 3053 
Q 2672 2378 2444 1913 
Q 2219 1438 1625 1044 
L 1328 1375 
Q 1981 1756 2163 2375 
Q 2247 2650 2266 3053 
z
" transform="scale(0.015625)"/>
      </defs>
      <use xlink:href="#IPAexGothic-897f"/>
      <use xlink:href="#IPAexGothic-30a8" transform="translate(100 0)"/>
      <use xlink:href="#IPAexGothic-30ea" transform="translate(200 0)"/>
      <use xlink:href="#IPAexGothic-30a2" transform="translate(300 0)"/>
     </g>
    </g>
   </g>
  </g>
 </g>
 <defs>
  <clipPath id="p65d16414b3">
   <rect x="58.68" y="28.32" width="360.36" height="227.14"/>
  </clipPath>
 </defs>
</svg>
