<?xml version="1.0" encoding="utf-8" standalone="no"?>
<!DOCTYPE svg PUBLIC "-//W3C//DTD SVG 1.1//EN"
  "http://www.w3.org/Graphics/SVG/1.1/DTD/svg11.dtd">
<svg xmlns:xlink="http://www.w3.org/1999/xlink" width="504pt" height="288pt" viewBox="0 0 504 288" xmlns="http://www.w3.org/2000/svg" version="1.1">
 <metadata>
  <rdf:RDF xmlns:dc="http://purl.org/dc/elements/1.1/" xmlns:cc="http://creativecommons.org/ns#" xmlns:rdf="http://www.w3.org/1999/02/22-rdf-syntax-ns#">
   <cc:Work>
    <dc:type rdf:resource="http://purl.org/dc/dcmitype/StillImage"/>
    <dc:date>2025-10-27T02:36:18.200657</dc:date>
    <dc:format>image/svg+xml</dc:format>
    <dc:creator>
     <cc:Agent>
      <dc:title>Matplotlib v3.10.7, https://matplotlib.org/</dc:title>
     </cc:Agent>
    </dc:creator>
   </cc:Work>
  </rdf:RDF>
 </metadata>
 <defs>
  <style type="text/css">*{stroke-linejoin: round; stroke-linecap: butt}</style>
 </defs>
 <g id="figure_1">
  <g id="patch_1">
   <path d="M 0 288 
L 504 288 
L 504 0 
L 0 0 
z
" style="fill: #ffffff"/>
  </g>
  <g id="axes_1">
   <g id="patch_2">
    <path d="M 72.36 255.46 
L 471.321055 255.46 
L 471.321055 28.32 
L 72.36 28.32 
z
" style="fill: #eaeaf2"/>
   </g>
   <g id="matplotlib.axis_1">
    <g id="xtick_1">
     <g id="line2d_1">
      <path d="M 90.494593 255.46 
L 90.494593 28.32 
" clip-path="url(#pd382db01f2)" style="fill: none; stroke: #ffffff; stroke-opacity: 0.3; stroke-linecap: round"/>
     </g>
     <g id="text_1">
      <!-- 2024-01-01 -->
      <g style="fill: #262626" transform="translate(58.843812 273.199687) scale(0.11 -0.11)">
       <defs>
        <path id="IPAexGothic-32" d="M 3659 63 
L 447 63 
L 447 594 
Q 825 1475 1894 2203 
L 2072 2322 
Q 2619 2697 2791 2906 
Q 2988 3153 2988 3444 
Q 2988 3772 2756 4003 
Q 2500 4259 2084 4259 
Q 1250 4259 991 3328 
L 497 3506 
Q 853 4725 2116 4725 
Q 2806 4725 3216 4316 
Q 3575 3947 3575 3425 
Q 3575 3038 3344 2722 
Q 3131 2416 2366 1938 
L 2231 1856 
Q 1256 1253 978 569 
L 3659 569 
L 3659 63 
z
" transform="scale(0.015625)"/>
        <path id="IPAexGothic-30" d="M 2038 4725 
Q 2881 4725 3334 3944 
Q 3694 3325 3694 2344 
Q 3694 1372 3334 741 
Q 2888 -31 2016 -31 
Q 1147 -31 700 741 
Q 341 1372 341 2350 
Q 341 3713 1000 4334 
Q 1419 4725 2038 4725 
z
M 2016 4266 
Q 1516 4266 1228 3759 
Q 934 3247 934 2344 
Q 934 1456 1222 947 
Q 1513 447 2016 447 
Q 2619 447 2909 1153 
Q 3100 1622 3100 2375 
Q 3100 3256 2806 3759 
Q 2509 4266 2016 4266 
z
" transform="scale(0.015625)"/>
        <path id="IPAexGothic-34" d="M 3813 1159 
L 3059 1159 
L 3059 63 
L 2547 63 
L 2547 1159 
L 197 1159 
L 197 1672 
L 2456 4678 
L 3059 4678 
L 3059 1634 
L 3813 1634 
L 3813 1159 
z
M 2578 4109 
L 2559 4109 
Q 2278 3656 2003 3284 
L 759 1634 
L 2547 1634 
L 2547 3144 
Q 2547 3481 2578 4109 
z
" transform="scale(0.015625)"/>
        <path id="IPAexGothic-2d" d="M 1969 1703 
L 319 1703 
L 319 2203 
L 1969 2203 
L 1969 1703 
z
" transform="scale(0.015625)"/>
        <path id="IPAexGothic-31" d="M 2463 63 
L 1900 63 
L 1900 4103 
Q 1372 3922 788 3797 
L 684 4231 
Q 1519 4441 2106 4731 
L 2463 4731 
L 2463 63 
z
" transform="scale(0.015625)"/>
       </defs>
       <use xlink:href="#IPAexGothic-32"/>
       <use xlink:href="#IPAexGothic-30" transform="translate(62.988281 0)"/>
       <use xlink:href="#IPAexGothic-32" transform="translate(125.976562 0)"/>
       <use xlink:href="#IPAexGothic-34" transform="translate(188.964844 0)"/>
       <use xlink:href="#IPAexGothic-2d" transform="translate(251.953125 0)"/>
       <use xlink:href="#IPAexGothic-30" transform="translate(287.744141 0)"/>
       <use xlink:href="#IPAexGothic-31" transform="translate(350.732422 0)"/>
       <use xlink:href="#IPAexGothic-2d" transform="translate(413.720703 0)"/>
       <use xlink:href="#IPAexGothic-30" transform="translate(449.511719 0)"/>
       <use xlink:href="#IPAexGothic-31" transform="translate(512.5 0)"/>
      </g>
     </g>
    </g>
    <g id="xtick_2">
     <g id="line2d_2">
      <path d="M 133.525832 255.46 
L 133.525832 28.32 
" clip-path="url(#pd382db01f2)" style="fill: none; stroke: #ffffff; stroke-opacity: 0.3; stroke-linecap: round"/>
     </g>
     <g id="text_2">
      <!-- 2024-01-08 -->
      <g style="fill: #262626" transform="translate(101.875051 273.199687) scale(0.11 -0.11)">
       <defs>
        <path id="IPAexGothic-38" d="M 2541 2425 
Q 3700 2031 3700 1197 
Q 3700 541 3100 197 
Q 2663 -56 2016 -56 
Q 1366 -56 928 197 
Q 347 531 347 1178 
Q 347 1988 1409 2381 
L 1409 2400 
Q 481 2734 481 3509 
Q 481 4100 981 4456 
Q 1406 4756 2019 4756 
Q 2703 4756 3131 4403 
Q 3553 4069 3553 3566 
Q 3553 2706 2541 2444 
L 2541 2425 
z
M 2022 2625 
Q 2997 2856 2997 3528 
Q 2997 3916 2675 4150 
Q 2413 4347 2016 4347 
Q 1606 4347 1331 4128 
Q 1050 3897 1050 3522 
Q 1050 3150 1350 2925 
Q 1494 2809 1722 2722 
Q 1984 2616 2022 2625 
z
M 1978 2209 
Q 922 1931 922 1216 
Q 922 775 1313 556 
Q 1606 391 2009 391 
Q 2575 391 2881 697 
Q 3106 922 3106 1250 
Q 3106 1594 2794 1850 
Q 2609 1994 2350 2100 
Q 2047 2222 1978 2209 
z
" transform="scale(0.015625)"/>
       </defs>
       <use xlink:href="#IPAexGothic-32"/>
       <use xlink:href="#IPAexGothic-30" transform="translate(62.988281 0)"/>
       <use xlink:href="#IPAexGothic-32" transform="translate(125.976562 0)"/>
       <use xlink:href="#IPAexGothic-34" transform="translate(188.964844 0)"/>
       <use xlink:href="#IPAexGothic-2d" transform="translate(251.953125 0)"/>
       <use xlink:href="#IPAexGothic-30" transform="translate(287.744141 0)"/>
       <use xlink:href="#IPAexGothic-31" transform="translate(350.732422 0)"/>
       <use xlink:href="#IPAexGothic-2d" transform="translate(413.720703 0)"/>
       <use xlink:href="#IPAexGothic-30" transform="translate(449.511719 0)"/>
       <use xlink:href="#IPAexGothic-38" transform="translate(512.5 0)"/>
      </g>
     </g>
    </g>
    <g id="xtick_3">
     <g id="line2d_3">
      <path d="M 176.557071 255.46 
L 176.557071 28.32 
" clip-path="url(#pd382db01f2)" style="fill: none; stroke: #ffffff; stroke-opacity: 0.3; stroke-linecap: round"/>
     </g>
     <g id="text_3">
      <!-- 2024-01-15 -->
      <g style="fill: #262626" transform="translate(144.906289 273.199687) scale(0.11 -0.11)">
       <defs>
        <path id="IPAexGothic-35" d="M 1178 2603 
Q 1634 2963 2172 2963 
Q 2816 2963 3241 2528 
Q 3638 2113 3638 1497 
Q 3638 938 3297 513 
Q 2869 -31 2031 -31 
Q 959 -31 469 784 
L 938 1028 
Q 1309 434 2013 434 
Q 2466 434 2769 716 
Q 3081 1013 3081 1503 
Q 3081 1966 2806 2241 
Q 2519 2528 2056 2528 
Q 1406 2528 1072 2028 
L 591 2091 
L 884 4634 
L 3406 4634 
L 3406 4153 
L 1341 4153 
L 1134 2603 
L 1178 2603 
z
" transform="scale(0.015625)"/>
       </defs>
       <use xlink:href="#IPAexGothic-32"/>
       <use xlink:href="#IPAexGothic-30" transform="translate(62.988281 0)"/>
       <use xlink:href="#IPAexGothic-32" transform="translate(125.976562 0)"/>
       <use xlink:href="#IPAexGothic-34" transform="translate(188.964844 0)"/>
       <use xlink:href="#IPAexGothic-2d" transform="translate(251.953125 0)"/>
       <use xlink:href="#IPAexGothic-30" transform="translate(287.744141 0)"/>
       <use xlink:href="#IPAexGothic-31" transform="translate(350.732422 0)"/>
       <use xlink:href="#IPAexGothic-2d" transform="translate(413.720703 0)"/>
       <use xlink:href="#IPAexGothic-31" transform="translate(449.511719 0)"/>
       <use xlink:href="#IPAexGothic-35" transform="translate(512.5 0)"/>
      </g>
     </g>
    </g>
    <g id="xtick_4">
     <g id="line2d_4">
      <path d="M 219.588309 255.46 
L 219.588309 28.32 
" clip-path="url(#pd382db01f2)" style="fill: none; stroke: #ffffff; stroke-opacity: 0.3; stroke-linecap: round"/>
     </g>
     <g id="text_4">
      <!-- 2024-01-22 -->
      <g style="fill: #262626" transform="translate(187.937528 273.199687) scale(0.11 -0.11)">
       <use xlink:href="#IPAexGothic-32"/>
       <use xlink:href="#IPAexGothic-30" transform="translate(62.988281 0)"/>
       <use xlink:href="#IPAexGothic-32" transform="translate(125.976562 0)"/>
       <use xlink:href="#IPAexGothic-34" transform="translate(188.964844 0)"/>
       <use xlink:href="#IPAexGothic-2d" transform="translate(251.953125 0)"/>
       <use xlink:href="#IPAexGothic-30" transform="translate(287.744141 0)"/>
       <use xlink:href="#IPAexGothic-31" transform="translate(350.732422 0)"/>
       <use xlink:href="#IPAexGothic-2d" transform="translate(413.720703 0)"/>
       <use xlink:href="#IPAexGothic-32" transform="translate(449.511719 0)"/>
       <use xlink:href="#IPAexGothic-32" transform="translate(512.5 0)"/>
      </g>
     </g>
    </g>
    <g id="xtick_5">
     <g id="line2d_5">
      <path d="M 281.061507 255.46 
L 281.061507 28.32 
" clip-path="url(#pd382db01f2)" style="fill: none; stroke: #ffffff; stroke-opacity: 0.3; stroke-linecap: round"/>
     </g>
     <g id="text_5">
      <!-- 2024-02-01 -->
      <g style="fill: #262626" transform="translate(249.410726 273.199687) scale(0.11 -0.11)">
       <use xlink:href="#IPAexGothic-32"/>
       <use xlink:href="#IPAexGothic-30" transform="translate(62.988281 0)"/>
       <use xlink:href="#IPAexGothic-32" transform="translate(125.976562 0)"/>
       <use xlink:href="#IPAexGothic-34" transform="translate(188.964844 0)"/>
       <use xlink:href="#IPAexGothic-2d" transform="translate(251.953125 0)"/>
       <use xlink:href="#IPAexGothic-30" transform="translate(287.744141 0)"/>
       <use xlink:href="#IPAexGothic-32" transform="translate(350.732422 0)"/>
       <use xlink:href="#IPAexGothic-2d" transform="translate(413.720703 0)"/>
       <use xlink:href="#IPAexGothic-30" transform="translate(449.511719 0)"/>
       <use xlink:href="#IPAexGothic-31" transform="translate(512.5 0)"/>
      </g>
     </g>
    </g>
    <g id="xtick_6">
     <g id="line2d_6">
      <path d="M 324.092746 255.46 
L 324.092746 28.32 
" clip-path="url(#pd382db01f2)" style="fill: none; stroke: #ffffff; stroke-opacity: 0.3; stroke-linecap: round"/>
     </g>
     <g id="text_6">
      <!-- 2024-02-08 -->
      <g style="fill: #262626" transform="translate(292.441965 273.199687) scale(0.11 -0.11)">
       <use xlink:href="#IPAexGothic-32"/>
       <use xlink:href="#IPAexGothic-30" transform="translate(62.988281 0)"/>
       <use xlink:href="#IPAexGothic-32" transform="translate(125.976562 0)"/>
       <use xlink:href="#IPAexGothic-34" transform="translate(188.964844 0)"/>
       <use xlink:href="#IPAexGothic-2d" transform="translate(251.953125 0)"/>
       <use xlink:href="#IPAexGothic-30" transform="translate(287.744141 0)"/>
       <use xlink:href="#IPAexGothic-32" transform="translate(350.732422 0)"/>
       <use xlink:href="#IPAexGothic-2d" transform="translate(413.720703 0)"/>
       <use xlink:href="#IPAexGothic-30" transform="translate(449.511719 0)"/>
       <use xlink:href="#IPAexGothic-38" transform="translate(512.5 0)"/>
      </g>
     </g>
    </g>
    <g id="xtick_7">
     <g id="line2d_7">
      <path d="M 367.123985 255.46 
L 367.123985 28.32 
" clip-path="url(#pd382db01f2)" style="fill: none; stroke: #ffffff; stroke-opacity: 0.3; stroke-linecap: round"/>
     </g>
     <g id="text_7">
      <!-- 2024-02-15 -->
      <g style="fill: #262626" transform="translate(335.473203 273.199687) scale(0.11 -0.11)">
       <use xlink:href="#IPAexGothic-32"/>
       <use xlink:href="#IPAexGothic-30" transform="translate(62.988281 0)"/>
       <use xlink:href="#IPAexGothic-32" transform="translate(125.976562 0)"/>
       <use xlink:href="#IPAexGothic-34" transform="translate(188.964844 0)"/>
       <use xlink:href="#IPAexGothic-2d" transform="translate(251.953125 0)"/>
       <use xlink:href="#IPAexGothic-30" transform="translate(287.744141 0)"/>
       <use xlink:href="#IPAexGothic-32" transform="translate(350.732422 0)"/>
       <use xlink:href="#IPAexGothic-2d" transform="translate(413.720703 0)"/>
       <use xlink:href="#IPAexGothic-31" transform="translate(449.511719 0)"/>
       <use xlink:href="#IPAexGothic-35" transform="translate(512.5 0)"/>
      </g>
     </g>
    </g>
    <g id="xtick_8">
     <g id="line2d_8">
      <path d="M 410.155223 255.46 
L 410.155223 28.32 
" clip-path="url(#pd382db01f2)" style="fill: none; stroke: #ffffff; stroke-opacity: 0.3; stroke-linecap: round"/>
     </g>
     <g id="text_8">
      <!-- 2024-02-22 -->
      <g style="fill: #262626" transform="translate(378.504442 273.199687) scale(0.11 -0.11)">
       <use xlink:href="#IPAexGothic-32"/>
       <use xlink:href="#IPAexGothic-30" transform="translate(62.988281 0)"/>
       <use xlink:href="#IPAexGothic-32" transform="translate(125.976562 0)"/>
       <use xlink:href="#IPAexGothic-34" transform="translate(188.964844 0)"/>
       <use xlink:href="#IPAexGothic-2d" transform="translate(251.953125 0)"/>
       <use xlink:href="#IPAexGothic-30" transform="translate(287.744141 0)"/>
       <use xlink:href="#IPAexGothic-32" transform="translate(350.732422 0)"/>
       <use xlink:href="#IPAexGothic-2d" transform="translate(413.720703 0)"/>
       <use xlink:href="#IPAexGothic-32" transform="translate(449.511719 0)"/>
       <use xlink:href="#IPAexGothic-32" transform="translate(512.5 0)"/>
      </g>
     </g>
    </g>
    <g id="xtick_9">
     <g id="line2d_9">
      <path d="M 459.333782 255.46 
L 459.333782 28.32 
" clip-path="url(#pd382db01f2)" style="fill: none; stroke: #ffffff; stroke-opacity: 0.3; stroke-linecap: round"/>
     </g>
     <g id="text_9">
      <!-- 2024-03-01 -->
      <g style="fill: #262626" transform="translate(427.683001 273.199687) scale(0.11 -0.11)">
       <defs>
        <path id="IPAexGothic-33" d="M 2381 2419 
Q 3506 2216 3506 1278 
Q 3506 716 3128 356 
Q 2709 -31 1944 -31 
Q 797 -31 288 881 
L 756 1131 
Q 1109 441 1938 441 
Q 2425 441 2694 691 
Q 2950 928 2950 1291 
Q 2950 1719 2566 1978 
Q 2216 2213 1644 2213 
L 1363 2213 
L 1363 2669 
L 1656 2669 
Q 2231 2669 2534 2888 
Q 2859 3119 2859 3509 
Q 2859 3934 2494 4138 
Q 2259 4278 1931 4278 
Q 1238 4278 903 3578 
L 434 3803 
Q 897 4725 1938 4725 
Q 2597 4725 3006 4394 
Q 3416 4069 3416 3534 
Q 3416 3028 3019 2706 
Q 2763 2500 2381 2444 
L 2381 2419 
z
" transform="scale(0.015625)"/>
       </defs>
       <use xlink:href="#IPAexGothic-32"/>
       <use xlink:href="#IPAexGothic-30" transform="translate(62.988281 0)"/>
       <use xlink:href="#IPAexGothic-32" transform="translate(125.976562 0)"/>
       <use xlink:href="#IPAexGothic-34" transform="translate(188.964844 0)"/>
       <use xlink:href="#IPAexGothic-2d" transform="translate(251.953125 0)"/>
       <use xlink:href="#IPAexGothic-30" transform="translate(287.744141 0)"/>
       <use xlink:href="#IPAexGothic-33" transform="translate(350.732422 0)"/>
       <use xlink:href="#IPAexGothic-2d" transform="translate(413.720703 0)"/>
       <use xlink:href="#IPAexGothic-30" transform="translate(449.511719 0)"/>
       <use xlink:href="#IPAexGothic-31" transform="translate(512.5 0)"/>
      </g>
     </g>
    </g>
   </g>
   <g id="matplotlib.axis_2">
    <g id="ytick_1">
     <g id="line2d_10">
      <path d="M 72.36 222.546959 
L 471.321055 222.546959 
" clip-path="url(#pd382db01f2)" style="fill: none; stroke: #ffffff; stroke-opacity: 0.3; stroke-linecap: round"/>
     </g>
     <g id="text_10">
      <!-- 2000 -->
      <g style="fill: #262626" transform="translate(35.146875 226.666803) scale(0.11 -0.11)">
       <use xlink:href="#IPAexGothic-32"/>
       <use xlink:href="#IPAexGothic-30" transform="translate(62.988281 0)"/>
       <use xlink:href="#IPAexGothic-30" transform="translate(125.976562 0)"/>
       <use xlink:href="#IPAexGothic-30" transform="translate(188.964844 0)"/>
      </g>
     </g>
    </g>
    <g id="ytick_2">
     <g id="line2d_11">
      <path d="M 72.36 188.849442 
L 471.321055 188.849442 
" clip-path="url(#pd382db01f2)" style="fill: none; stroke: #ffffff; stroke-opacity: 0.3; stroke-linecap: round"/>
     </g>
     <g id="text_11">
      <!-- 4000 -->
      <g style="fill: #262626" transform="translate(35.146875 192.969285) scale(0.11 -0.11)">
       <use xlink:href="#IPAexGothic-34"/>
       <use xlink:href="#IPAexGothic-30" transform="translate(62.988281 0)"/>
       <use xlink:href="#IPAexGothic-30" transform="translate(125.976562 0)"/>
       <use xlink:href="#IPAexGothic-30" transform="translate(188.964844 0)"/>
      </g>
     </g>
    </g>
    <g id="ytick_3">
     <g id="line2d_12">
      <path d="M 72.36 155.151924 
L 471.321055 155.151924 
" clip-path="url(#pd382db01f2)" style="fill: none; stroke: #ffffff; stroke-opacity: 0.3; stroke-linecap: round"/>
     </g>
     <g id="text_12">
      <!-- 6000 -->
      <g style="fill: #262626" transform="translate(35.146875 159.271768) scale(0.11 -0.11)">
       <defs>
        <path id="IPAexGothic-36" d="M 1056 2328 
Q 1509 2981 2234 2981 
Q 2906 2981 3316 2513 
Q 3675 2106 3675 1522 
Q 3675 884 3272 434 
Q 2853 -31 2178 -31 
Q 1375 -31 922 581 
Q 481 1178 481 2228 
Q 481 3425 1013 4109 
Q 1494 4725 2272 4725 
Q 3191 4725 3609 4025 
L 3150 3775 
Q 2894 4266 2300 4266 
Q 1119 4266 1031 2328 
L 1056 2328 
z
M 2141 2547 
Q 1684 2547 1384 2206 
Q 1116 1900 1116 1541 
Q 1116 1156 1353 844 
Q 1672 428 2159 428 
Q 2669 428 2941 844 
Q 3125 1128 3125 1503 
Q 3125 1944 2881 2228 
Q 2600 2547 2141 2547 
z
" transform="scale(0.015625)"/>
       </defs>
       <use xlink:href="#IPAexGothic-36"/>
       <use xlink:href="#IPAexGothic-30" transform="translate(62.988281 0)"/>
       <use xlink:href="#IPAexGothic-30" transform="translate(125.976562 0)"/>
       <use xlink:href="#IPAexGothic-30" transform="translate(188.964844 0)"/>
      </g>
     </g>
    </g>
    <g id="ytick_4">
     <g id="line2d_13">
      <path d="M 72.36 121.454407 
L 471.321055 121.454407 
" clip-path="url(#pd382db01f2)" style="fill: none; stroke: #ffffff; stroke-opacity: 0.3; stroke-linecap: round"/>
     </g>
     <g id="text_13">
      <!-- 8000 -->
      <g style="fill: #262626" transform="translate(35.146875 125.574251) scale(0.11 -0.11)">
       <use xlink:href="#IPAexGothic-38"/>
       <use xlink:href="#IPAexGothic-30" transform="translate(62.988281 0)"/>
       <use xlink:href="#IPAexGothic-30" transform="translate(125.976562 0)"/>
       <use xlink:href="#IPAexGothic-30" transform="translate(188.964844 0)"/>
      </g>
     </g>
    </g>
    <g id="ytick_5">
     <g id="line2d_14">
      <path d="M 72.36 87.756889 
L 471.321055 87.756889 
" clip-path="url(#pd382db01f2)" style="fill: none; stroke: #ffffff; stroke-opacity: 0.3; stroke-linecap: round"/>
     </g>
     <g id="text_14">
      <!-- 10000 -->
      <g style="fill: #262626" transform="translate(28.218594 91.876733) scale(0.11 -0.11)">
       <use xlink:href="#IPAexGothic-31"/>
       <use xlink:href="#IPAexGothic-30" transform="translate(62.988281 0)"/>
       <use xlink:href="#IPAexGothic-30" transform="translate(125.976562 0)"/>
       <use xlink:href="#IPAexGothic-30" transform="translate(188.964844 0)"/>
       <use xlink:href="#IPAexGothic-30" transform="translate(251.953125 0)"/>
      </g>
     </g>
    </g>
    <g id="ytick_6">
     <g id="line2d_15">
      <path d="M 72.36 54.059372 
L 471.321055 54.059372 
" clip-path="url(#pd382db01f2)" style="fill: none; stroke: #ffffff; stroke-opacity: 0.3; stroke-linecap: round"/>
     </g>
     <g id="text_15">
      <!-- 12000 -->
      <g style="fill: #262626" transform="translate(28.218594 58.179216) scale(0.11 -0.11)">
       <use xlink:href="#IPAexGothic-31"/>
       <use xlink:href="#IPAexGothic-32" transform="translate(62.988281 0)"/>
       <use xlink:href="#IPAexGothic-30" transform="translate(125.976562 0)"/>
       <use xlink:href="#IPAexGothic-30" transform="translate(188.964844 0)"/>
       <use xlink:href="#IPAexGothic-30" transform="translate(251.953125 0)"/>
      </g>
     </g>
    </g>
    <g id="text_16">
     <!-- 売上（万円） -->
     <g style="fill: #262626" transform="translate(21.938594 177.89) rotate(-90) scale(0.12 -0.12)">
      <defs>
       <path id="IPAexGothic-58f2" d="M 2938 4544 
L 2938 5313 
L 3419 5313 
L 3419 4544 
L 5781 4544 
L 5781 4147 
L 3419 4147 
L 3419 3559 
L 5306 3559 
L 5306 3163 
L 1088 3163 
L 1088 3559 
L 2938 3559 
L 2938 4147 
L 609 4147 
L 609 4544 
L 2938 4544 
z
M 5684 2706 
L 5684 1522 
L 5216 1522 
L 5216 2316 
L 1178 2316 
L 1178 1478 
L 709 1478 
L 709 2706 
L 5684 2706 
z
M 531 -84 
Q 1494 91 1894 556 
Q 2213 913 2222 1972 
L 2688 1972 
Q 2678 756 2216 225 
Q 1794 -256 819 -506 
L 531 -84 
z
M 3622 1972 
L 4091 1972 
L 4091 353 
Q 4091 191 4181 153 
Q 4313 100 4684 100 
Q 5169 100 5294 159 
Q 5503 256 5513 1006 
L 5972 863 
Q 5944 -22 5691 -206 
Q 5503 -347 4659 -347 
Q 3981 -347 3809 -250 
Q 3622 -144 3622 178 
L 3622 1972 
z
" transform="scale(0.015625)"/>
       <path id="IPAexGothic-4e0a" d="M 3259 3366 
L 5475 3366 
L 5475 2913 
L 3259 2913 
L 3259 556 
L 5991 556 
L 5991 103 
L 391 103 
L 391 556 
L 2772 556 
L 2772 5050 
L 3259 5050 
L 3259 3366 
z
" transform="scale(0.015625)"/>
       <path id="IPAexGothic-ff08" d="M 5419 -434 
Q 4197 769 4197 2438 
Q 4197 4097 5419 5300 
L 5919 5300 
Q 4678 4078 4678 2425 
Q 4678 788 5919 -434 
L 5419 -434 
z
" transform="scale(0.015625)"/>
       <path id="IPAexGothic-4e07" d="M 2888 4316 
Q 2878 3816 2828 3128 
L 5369 3128 
Q 5284 984 5056 300 
Q 4950 -22 4750 -134 
Q 4556 -250 4181 -250 
Q 3659 -250 3091 -159 
L 3028 363 
Q 3638 225 4103 225 
Q 4456 225 4569 463 
Q 4797 906 4866 2700 
L 2784 2700 
Q 2534 575 934 -391 
L 591 -6 
Q 1900 716 2216 2200 
Q 2394 3041 2394 4316 
L 506 4316 
L 506 4756 
L 5888 4756 
L 5888 4316 
L 2888 4316 
z
" transform="scale(0.015625)"/>
       <path id="IPAexGothic-5186" d="M 5594 4806 
L 5594 322 
Q 5594 34 5491 -97 
Q 5366 -269 4959 -269 
Q 4469 -269 3897 -225 
L 3809 275 
Q 4378 206 4844 206 
Q 5106 206 5106 434 
L 5106 2119 
L 1281 2119 
L 1281 -359 
L 794 -359 
L 794 4806 
L 5594 4806 
z
M 1281 4366 
L 1281 2547 
L 2944 2547 
L 2944 4366 
L 1281 4366 
z
M 5106 2547 
L 5106 4366 
L 3413 4366 
L 3413 2547 
L 5106 2547 
z
" transform="scale(0.015625)"/>
       <path id="IPAexGothic-ff09" d="M 481 -434 
Q 1722 788 1722 2431 
Q 1722 4066 481 5300 
L 981 5300 
Q 2203 4097 2203 2431 
Q 2203 769 981 -434 
L 481 -434 
z
" transform="scale(0.015625)"/>
      </defs>
      <use xlink:href="#IPAexGothic-58f2"/>
      <use xlink:href="#IPAexGothic-4e0a" transform="translate(100 0)"/>
      <use xlink:href="#IPAexGothic-ff08" transform="translate(200 0)"/>
      <use xlink:href="#IPAexGothic-4e07" transform="translate(300 0)"/>
      <use xlink:href="#IPAexGothic-5186" transform="translate(400 0)"/>
      <use xlink:href="#IPAexGothic-ff09" transform="translate(500 0)"/>
     </g>
    </g>
   </g>
   <g id="line2d_16">
    <path d="M 90.494593 245.135455 
L 96.641913 241.977405 
L 102.789233 238.312841 
L 108.936553 234.594646 
L 115.083873 231.437318 
L 121.231192 227.792152 
L 127.378512 225.103429 
L 133.525832 221.793658 
L 139.673152 217.376191 
L 145.820472 214.334291 
L 151.967791 211.183176 
L 158.115111 208.009425 
L 164.262431 204.459099 
L 170.409751 201.569669 
L 176.557071 197.493514 
L 182.704391 193.770572 
L 188.85171 190.124498 
L 194.99903 186.502954 
L 201.14635 182.980953 
L 207.29367 179.225313 
L 213.44099 176.043823 
L 219.588309 172.775006 
L 225.735629 169.270613 
L 231.882949 165.318652 
L 238.030269 162.436713 
L 244.177589 159.603482 
L 250.324908 155.995294 
L 256.472228 151.825546 
L 262.619548 148.38574 
L 268.766868 144.785909 
L 274.914188 141.101691 
L 281.061507 136.774467 
L 287.208827 133.626701 
L 293.356147 129.62788 
L 299.503467 126.374441 
L 305.650787 122.914313 
L 311.798106 119.546175 
L 317.945426 115.888837 
L 324.092746 112.130983 
L 330.240066 108.677419 
L 336.387386 105.398507 
L 342.534706 101.944387 
L 348.682025 98.138569 
L 354.829345 94.424498 
L 360.976665 91.042644 
L 367.123985 87.291033 
L 373.271305 83.876749 
L 379.418624 80.019375 
L 385.565944 76.313498 
L 391.713264 72.292103 
L 397.860584 69.444306 
L 404.007904 66.418328 
L 410.155223 62.758164 
L 416.302543 58.465695 
L 422.449863 54.958063 
L 428.597183 51.632977 
L 434.744503 48.188888 
L 440.891822 44.740343 
L 447.039142 41.477361 
L 453.186462 38.644545 
" clip-path="url(#pd382db01f2)" style="fill: none; stroke: #9ca3af; stroke-opacity: 0.7; stroke-width: 1.5; stroke-linecap: round"/>
   </g>
   <g id="line2d_17">
    <path d="M 108.936553 234.907607 
L 115.083873 231.573064 
L 121.231192 228.058605 
L 127.378512 224.633098 
L 133.525832 221.288602 
L 139.673152 217.94176 
L 145.820472 214.608467 
L 151.967791 211.246501 
L 158.115111 207.775052 
L 164.262431 204.402821 
L 170.409751 200.944279 
L 176.557071 197.418533 
L 182.704391 193.843037 
L 188.85171 190.23821 
L 194.99903 186.591661 
L 201.14635 183.060446 
L 207.29367 179.560451 
L 213.44099 176.016759 
L 219.588309 172.578725 
L 225.735629 169.239086 
L 231.882949 165.920512 
L 238.030269 162.460758 
L 244.177589 158.976577 
L 250.324908 155.478762 
L 256.472228 152.019196 
L 262.619548 148.353161 
L 268.766868 144.642193 
L 274.914188 140.875419 
L 281.061507 137.239547 
L 287.208827 133.600772 
L 293.356147 129.995095 
L 299.503467 126.393259 
L 305.650787 122.872761 
L 311.798106 119.308578 
L 317.945426 115.847239 
L 324.092746 112.357231 
L 330.240066 108.817839 
L 336.387386 105.229029 
L 342.534706 101.679572 
L 348.682025 98.131008 
L 354.829345 94.588055 
L 360.976665 90.962465 
L 367.123985 87.300909 
L 373.271305 83.608557 
L 379.418624 80.039958 
L 385.565944 76.522199 
L 391.713264 73.017503 
L 397.860584 69.387353 
L 404.007904 65.807165 
L 410.155223 62.281377 
L 416.302543 58.83806 
L 422.449863 55.308923 
L 428.597183 51.745927 
L 434.744503 48.301125 
" clip-path="url(#pd382db01f2)" style="fill: none; stroke: #2563eb; stroke-width: 2.5; stroke-linecap: round"/>
   </g>
   <g id="patch_3">
    <path d="M 72.36 255.46 
L 72.36 28.32 
" style="fill: none; stroke: #ffffff; stroke-width: 1.25; stroke-linejoin: miter; stroke-linecap: square"/>
   </g>
   <g id="patch_4">
    <path d="M 471.321055 255.46 
L 471.321055 28.32 
" style="fill: none; stroke: #ffffff; stroke-width: 1.25; stroke-linejoin: miter; stroke-linecap: square"/>
   </g>
   <g id="patch_5">
    <path d="M 72.36 255.46 
L 471.321055 255.46 
" style="fill: none; stroke: #ffffff; stroke-width: 1.25; stroke-linejoin: miter; stroke-linecap: square"/>
   </g>
   <g id="patch_6">
    <path d="M 72.36 28.32 
L 471.321055 28.32 
" style="fill: none; stroke: #ffffff; stroke-width: 1.25; stroke-linejoin: miter; stroke-linecap: square"/>
   </g>
   <g id="text_17">
    <!-- 移動平均で売上トレンドを把握する -->
    <g style="fill: #262626" transform="translate(175.840528 22.32) scale(0.12 -0.12)">
     <defs>
      <path id="IPAexGothic-79fb" d="M 4691 2419 
L 5844 2419 
L 6069 2188 
Q 5503 1156 4763 513 
Q 4081 -75 2975 -469 
L 2681 -97 
Q 3684 194 4384 728 
Q 4097 1056 3731 1356 
Q 3381 1053 2919 819 
L 2669 1150 
Q 3853 1772 4500 2878 
L 4909 2772 
Q 4772 2528 4691 2419 
z
M 4409 2034 
Q 4219 1803 4000 1588 
Q 4375 1341 4703 1009 
Q 5219 1488 5497 2034 
L 4409 2034 
z
M 1350 2328 
Q 1009 1334 513 659 
L 263 1081 
Q 966 2022 1266 3128 
L 366 3128 
L 366 3531 
L 1350 3531 
L 1350 4400 
Q 919 4322 575 4266 
L 366 4644 
Q 1506 4809 2378 5144 
L 2700 4747 
Q 2238 4600 1784 4491 
L 1784 3531 
L 2616 3531 
L 2616 3128 
L 1784 3128 
L 1784 2688 
Q 2306 2266 2719 1803 
L 2444 1356 
Q 2106 1838 1784 2181 
L 1784 -450 
L 1350 -450 
L 1350 2328 
z
M 4275 4800 
L 5491 4800 
L 5709 4609 
Q 4763 2809 2875 2047 
L 2606 2388 
Q 3534 2722 4134 3244 
Q 3869 3519 3450 3794 
Q 3184 3569 2859 3359 
L 2591 3666 
Q 3578 4259 4056 5288 
L 4481 5191 
Q 4406 5034 4275 4800 
z
M 4019 4416 
Q 3856 4194 3700 4038 
Q 4128 3759 4372 3553 
L 4416 3513 
Q 4884 3991 5119 4416 
L 4019 4416 
z
" transform="scale(0.015625)"/>
      <path id="IPAexGothic-52d5" d="M 1803 3425 
L 1803 3794 
L 372 3794 
L 372 4147 
L 1803 4147 
L 1803 4556 
Q 1250 4500 634 4466 
L 506 4819 
Q 1997 4903 3091 5159 
L 3378 4794 
Q 2803 4678 2219 4606 
L 2219 4147 
L 3538 4147 
L 3538 3794 
L 2219 3794 
L 2219 3425 
L 3378 3425 
L 3378 1569 
L 2219 1569 
L 2219 1178 
L 3447 1178 
L 3447 825 
L 2219 825 
L 2219 384 
Q 2934 459 3544 569 
L 3544 231 
Q 2569 22 416 -206 
L 294 197 
Q 791 238 1284 288 
L 1803 338 
L 1803 825 
L 581 825 
L 581 1178 
L 1803 1178 
L 1803 1569 
L 678 1569 
L 678 3425 
L 1803 3425 
z
M 1816 3100 
L 1075 3100 
L 1075 2669 
L 1816 2669 
L 1816 3100 
z
M 2206 3100 
L 2206 2669 
L 2981 2669 
L 2981 3100 
L 2206 3100 
z
M 1816 2350 
L 1075 2350 
L 1075 1894 
L 1816 1894 
L 1816 2350 
z
M 2206 2350 
L 2206 1894 
L 2981 1894 
L 2981 2350 
L 2206 2350 
z
M 4806 3469 
Q 4797 2084 4628 1338 
Q 4375 250 3572 -459 
L 3238 -141 
Q 3975 481 4225 1550 
Q 4378 2213 4378 3413 
L 3559 3413 
L 3559 3828 
L 4384 3828 
L 4384 5209 
L 4813 5209 
L 4813 3878 
L 5931 3878 
Q 5931 941 5766 128 
Q 5669 -347 5144 -347 
Q 4838 -347 4500 -294 
L 4422 197 
Q 4797 100 5069 100 
Q 5294 100 5344 369 
Q 5484 1053 5503 3200 
L 5503 3469 
L 4806 3469 
z
" transform="scale(0.015625)"/>
      <path id="IPAexGothic-5e73" d="M 3422 4428 
L 3422 1941 
L 6084 1941 
L 6084 1513 
L 3422 1513 
L 3422 -447 
L 2934 -447 
L 2934 1513 
L 322 1513 
L 322 1941 
L 2934 1941 
L 2934 4428 
L 641 4428 
L 641 4856 
L 5763 4856 
L 5763 4428 
L 3422 4428 
z
M 1728 2278 
Q 1488 3094 1081 3859 
L 1544 4038 
Q 1875 3422 2222 2472 
L 1728 2278 
z
M 4134 2425 
Q 4509 3138 4813 4128 
L 5306 3944 
Q 4984 3006 4569 2228 
L 4134 2425 
z
" transform="scale(0.015625)"/>
      <path id="IPAexGothic-5747" d="M 1206 3794 
L 1206 5144 
L 1659 5144 
L 1659 3794 
L 2369 3794 
L 2369 3372 
L 1659 3372 
L 1659 1325 
Q 2078 1513 2484 1722 
L 2566 1313 
Q 1556 775 559 397 
L 334 838 
Q 803 975 1206 1138 
L 1206 3372 
L 413 3372 
L 413 3794 
L 1206 3794 
z
M 3475 4244 
L 5844 4244 
Q 5834 1131 5619 184 
Q 5494 -366 4838 -366 
Q 4369 -366 3859 -306 
L 3769 184 
Q 4241 88 4731 88 
Q 5059 88 5147 306 
Q 5359 919 5369 3828 
L 3316 3828 
Q 3013 3119 2466 2472 
L 2150 2828 
Q 2944 3788 3259 5263 
L 3719 5147 
Q 3619 4663 3475 4244 
z
M 2975 2847 
L 4678 2847 
L 4678 2431 
L 2975 2431 
L 2975 2847 
z
M 2559 1044 
Q 3747 1338 4838 1797 
L 4891 1388 
Q 3831 891 2766 588 
L 2559 1044 
z
" transform="scale(0.015625)"/>
      <path id="IPAexGothic-3067" d="M 581 4034 
Q 2978 4363 5466 4556 
L 5509 4097 
Q 4388 4031 3750 3572 
Q 2797 2878 2797 1913 
Q 2797 1169 3291 819 
Q 3778 484 4869 416 
L 4906 -116 
Q 2278 0 2278 1850 
Q 2278 3125 3691 4000 
Q 2066 3784 684 3553 
L 581 4034 
z
M 5631 2522 
Q 5269 3063 4875 3391 
L 5175 3622 
Q 5559 3313 5950 2797 
L 5631 2522 
z
M 5034 2053 
Q 4747 2544 4300 2944 
L 4613 3184 
Q 4984 2878 5369 2328 
L 5034 2053 
z
" transform="scale(0.015625)"/>
      <path id="IPAexGothic-30c8" d="M 2284 4997 
L 2803 4997 
L 2803 3206 
Q 4088 2619 5216 1888 
L 4878 1369 
Q 3819 2175 2803 2688 
L 2803 -184 
L 2284 -184 
L 2284 4997 
z
" transform="scale(0.015625)"/>
      <path id="IPAexGothic-30ec" d="M 1538 4706 
L 2075 4706 
L 2075 622 
Q 4059 1375 5172 2894 
L 5481 2431 
Q 4922 1678 3931 1019 
Q 2919 334 1928 -31 
L 1538 269 
L 1538 4706 
z
" transform="scale(0.015625)"/>
      <path id="IPAexGothic-30f3" d="M 2444 3084 
Q 1816 3656 1056 4084 
L 1381 4519 
Q 2063 4191 2816 3559 
L 2444 3084 
z
M 1100 609 
Q 3984 1106 5216 3828 
L 5619 3469 
Q 4413 794 1434 103 
L 1100 609 
z
" transform="scale(0.015625)"/>
      <path id="IPAexGothic-30c9" d="M 2247 4959 
L 2766 4959 
L 2766 3169 
Q 4050 2581 5178 1850 
L 4841 1331 
Q 3781 2138 2766 2650 
L 2766 -225 
L 2247 -225 
L 2247 4959 
z
M 5263 3847 
Q 4900 4388 4506 4716 
L 4806 4947 
Q 5191 4638 5581 4122 
L 5263 3847 
z
M 4666 3378 
Q 4375 3869 3931 4269 
L 4244 4513 
Q 4616 4206 5000 3653 
L 4666 3378 
z
" transform="scale(0.015625)"/>
      <path id="IPAexGothic-3092" d="M 1094 4263 
Q 1544 4222 2359 4222 
Q 2581 4734 2700 5163 
L 3175 5028 
Q 2997 4538 2859 4256 
Q 3516 4284 4294 4459 
L 4356 4019 
Q 3603 3869 2656 3819 
Q 2391 3284 2059 2797 
Q 2531 3200 2963 3200 
Q 3638 3200 3859 2378 
Q 4556 2681 5338 2950 
L 5575 2528 
Q 4641 2253 3941 1956 
Q 3981 1678 3994 1028 
L 3513 991 
Q 3513 1456 3494 1753 
Q 2388 1194 2388 716 
Q 2388 428 2753 328 
Q 3066 241 3806 241 
Q 4394 241 5178 344 
L 5216 -128 
Q 4434 -213 3653 -213 
Q 2656 -213 2244 41 
Q 1913 244 1913 631 
Q 1913 1094 2344 1497 
Q 2709 1841 3428 2181 
Q 3266 2797 2878 2797 
Q 2238 2797 1209 1419 
L 838 1694 
Q 1625 2716 2163 3800 
Q 1522 3800 1088 3825 
L 1094 4263 
z
" transform="scale(0.015625)"/>
      <path id="IPAexGothic-628a" d="M 3072 2234 
L 3072 500 
Q 3072 231 3263 172 
Q 3438 122 4203 122 
Q 5134 122 5313 206 
Q 5438 263 5484 463 
Q 5528 641 5566 1159 
L 6028 1019 
Q 5941 6 5688 -172 
Q 5469 -325 4209 -325 
Q 3209 -325 2950 -234 
Q 2619 -113 2619 300 
L 2619 4831 
L 5638 4831 
L 5638 1903 
L 5184 1903 
L 5184 2234 
L 3072 2234 
z
M 3072 2631 
L 3891 2631 
L 3891 4434 
L 3072 4434 
L 3072 2631 
z
M 5184 4434 
L 4338 4434 
L 4338 2631 
L 5184 2631 
L 5184 4434 
z
M 1184 4013 
L 1184 5247 
L 1613 5247 
L 1613 4013 
L 2328 4013 
L 2328 3597 
L 1613 3597 
L 1613 2381 
L 1669 2394 
Q 1928 2472 2400 2625 
L 2425 2259 
Q 2088 2131 1613 1972 
L 1613 56 
Q 1613 -222 1491 -306 
Q 1381 -397 1094 -397 
Q 750 -397 525 -353 
L 447 109 
Q 722 44 978 44 
Q 1184 44 1184 231 
L 1184 1838 
Q 906 1753 403 1619 
L 275 2047 
Q 781 2150 1094 2241 
Q 1159 2253 1184 2259 
L 1184 3597 
L 378 3597 
L 378 4013 
L 1184 4013 
z
" transform="scale(0.015625)"/>
      <path id="IPAexGothic-63e1" d="M 4513 1734 
L 4513 1094 
L 5844 1094 
L 5844 728 
L 4513 728 
L 4513 66 
L 6066 66 
L 6066 -319 
L 2603 -319 
L 2603 66 
L 4097 66 
L 4097 728 
L 2913 728 
L 2913 1094 
L 4097 1094 
L 4097 1703 
Q 3594 1672 2994 1644 
L 2859 2053 
L 3219 2053 
L 3419 2059 
Q 3638 2425 3816 2791 
L 2731 2791 
L 2731 2700 
Q 2722 1622 2622 966 
Q 2503 194 2097 -503 
L 1766 -172 
Q 2141 472 2244 1350 
Q 2316 1984 2316 2919 
L 2316 4984 
L 5766 4984 
L 5766 3678 
L 2731 3678 
L 2731 3156 
L 5963 3156 
L 5963 2791 
L 4263 2791 
Q 4063 2378 3853 2059 
Q 4303 2069 5159 2106 
Q 4894 2422 4709 2613 
L 5050 2766 
Q 5622 2213 6041 1669 
L 5669 1447 
Q 5519 1659 5394 1816 
Q 5356 1816 5338 1809 
Q 5091 1781 4513 1734 
z
M 5350 4619 
L 2731 4619 
L 2731 4044 
L 5350 4044 
L 5350 4619 
z
M 1119 4019 
L 1119 5313 
L 1534 5313 
L 1534 4019 
L 2109 4019 
L 2109 3616 
L 1534 3616 
L 1534 2375 
Q 1891 2478 2128 2566 
L 2163 2206 
Q 1909 2100 1534 1959 
L 1534 0 
Q 1534 -263 1419 -356 
Q 1309 -447 1028 -447 
Q 716 -447 484 -409 
L 409 44 
Q 684 -6 934 -6 
Q 1119 -6 1119 172 
L 1119 1813 
Q 784 1694 422 1588 
L 269 2022 
Q 484 2072 1119 2247 
L 1119 3616 
L 344 3616 
L 344 4019 
L 1119 4019 
z
" transform="scale(0.015625)"/>
      <path id="IPAexGothic-3059" d="M 3322 5075 
L 3816 5075 
L 3816 4063 
Q 4131 4075 5756 4116 
L 5756 3669 
Q 5431 3672 3816 3653 
L 3816 2463 
Q 3956 2125 3956 1741 
Q 3956 922 3519 397 
Q 3128 -72 2309 -409 
L 1941 -31 
Q 3263 453 3488 1363 
Q 3250 1031 2809 1031 
Q 2441 1031 2150 1313 
Q 1875 1588 1875 2050 
Q 1875 2475 2166 2769 
Q 2431 3041 2822 3041 
Q 3088 3041 3322 2881 
L 3322 3641 
Q 3000 3634 609 3547 
L 609 3988 
Q 1197 4000 2106 4022 
Q 3066 4047 3322 4050 
L 3322 5075 
z
M 3372 2044 
Q 3372 2300 3194 2478 
Q 3050 2613 2869 2613 
Q 2622 2613 2463 2406 
Q 2344 2250 2344 2088 
Q 2344 1797 2484 1622 
Q 2625 1453 2859 1453 
Q 3372 1453 3372 2044 
z
" transform="scale(0.015625)"/>
      <path id="IPAexGothic-308b" d="M 4391 4397 
L 2613 2588 
Q 3225 2809 3759 2809 
Q 4263 2809 4659 2625 
Q 5391 2269 5391 1484 
Q 5391 756 4706 275 
Q 4072 -166 3053 -166 
Q 2559 -166 2247 19 
Q 1863 250 1863 666 
Q 1863 934 2069 1141 
Q 2331 1403 2741 1403 
Q 3509 1403 4019 428 
Q 4872 784 4872 1491 
Q 4872 1981 4469 2222 
Q 4166 2406 3681 2406 
Q 2425 2406 1238 1209 
L 891 1581 
Q 2438 2934 3578 4281 
Q 2594 4125 1588 4066 
L 1478 4550 
Q 2594 4581 4109 4763 
L 4391 4397 
z
M 3591 303 
Q 3244 1025 2731 1025 
Q 2553 1025 2434 934 
Q 2316 844 2316 700 
Q 2316 250 3034 250 
Q 3275 250 3591 303 
z
" transform="scale(0.015625)"/>
     </defs>
     <use xlink:href="#IPAexGothic-79fb"/>
     <use xlink:href="#IPAexGothic-52d5" transform="translate(100 0)"/>
     <use xlink:href="#IPAexGothic-5e73" transform="translate(200 0)"/>
     <use xlink:href="#IPAexGothic-5747" transform="translate(300 0)"/>
     <use xlink:href="#IPAexGothic-3067" transform="translate(400 0)"/>
     <use xlink:href="#IPAexGothic-58f2" transform="translate(500 0)"/>
     <use xlink:href="#IPAexGothic-4e0a" transform="translate(600 0)"/>
     <use xlink:href="#IPAexGothic-30c8" transform="translate(700 0)"/>
     <use xlink:href="#IPAexGothic-30ec" transform="translate(800 0)"/>
     <use xlink:href="#IPAexGothic-30f3" transform="translate(900 0)"/>
     <use xlink:href="#IPAexGothic-30c9" transform="translate(1000 0)"/>
     <use xlink:href="#IPAexGothic-3092" transform="translate(1100 0)"/>
     <use xlink:href="#IPAexGothic-628a" transform="translate(1200 0)"/>
     <use xlink:href="#IPAexGothic-63e1" transform="translate(1300 0)"/>
     <use xlink:href="#IPAexGothic-3059" transform="translate(1400 0)"/>
     <use xlink:href="#IPAexGothic-308b" transform="translate(1500 0)"/>
    </g>
   </g>
   <g id="legend_1">
    <g id="patch_7">
     <path d="M 85.56 78.679375 
L 185.658281 78.679375 
Q 187.858281 78.679375 187.858281 76.479375 
L 187.858281 41.52 
Q 187.858281 39.32 185.658281 39.32 
L 85.56 39.32 
Q 83.36 39.32 83.36 41.52 
L 83.36 76.479375 
Q 83.36 78.679375 85.56 78.679375 
z
" style="fill: #eaeaf2; opacity: 0.8; stroke: #cccccc; stroke-linejoin: miter"/>
    </g>
    <g id="line2d_18">
     <path d="M 87.76 48.109687 
L 98.76 48.109687 
L 109.76 48.109687 
" style="fill: none; stroke: #9ca3af; stroke-opacity: 0.7; stroke-width: 1.5; stroke-linecap: round"/>
    </g>
    <g id="text_18">
     <!-- 日次売上 -->
     <g style="fill: #262626" transform="translate(118.56 51.959688) scale(0.11 -0.11)">
      <defs>
       <path id="IPAexGothic-65e5" d="M 5231 4800 
L 5231 -288 
L 4744 -288 
L 4744 128 
L 1647 128 
L 1647 -288 
L 1159 -288 
L 1159 4800 
L 5231 4800 
z
M 1647 4372 
L 1647 2731 
L 4744 2731 
L 4744 4372 
L 1647 4372 
z
M 1647 2297 
L 1647 556 
L 4744 556 
L 4744 2297 
L 1647 2297 
z
" transform="scale(0.015625)"/>
       <path id="IPAexGothic-6b21" d="M 3519 3750 
L 2950 3750 
Q 2678 3041 2231 2444 
L 1853 2772 
Q 2600 3756 2878 5184 
L 3353 5094 
Q 3241 4603 3103 4166 
L 5541 4166 
L 5841 3928 
Q 5406 2903 4906 2222 
L 4484 2481 
Q 4963 3072 5247 3750 
L 3994 3750 
L 3994 3263 
Q 3994 1384 6028 91 
L 5681 -353 
Q 4166 622 3794 2194 
Q 3669 1413 3391 922 
Q 2903 72 1931 -488 
L 1613 -72 
Q 3519 888 3519 3359 
L 3519 3750 
z
M 1438 3200 
Q 959 3884 509 4294 
L 881 4628 
Q 1413 4153 1841 3597 
L 1438 3200 
z
M 325 250 
Q 984 938 1600 2003 
L 1950 1656 
Q 1319 538 697 -184 
L 325 250 
z
" transform="scale(0.015625)"/>
      </defs>
      <use xlink:href="#IPAexGothic-65e5"/>
      <use xlink:href="#IPAexGothic-6b21" transform="translate(100 0)"/>
      <use xlink:href="#IPAexGothic-58f2" transform="translate(200 0)"/>
      <use xlink:href="#IPAexGothic-4e0a" transform="translate(300 0)"/>
     </g>
    </g>
    <g id="line2d_19">
     <path d="M 87.76 68.339375 
L 98.76 68.339375 
L 109.76 68.339375 
" style="fill: none; stroke: #2563eb; stroke-width: 2.5; stroke-linecap: round"/>
    </g>
    <g id="text_19">
     <!-- 7 日移動平均 -->
     <g style="fill: #262626" transform="translate(118.56 72.189375) scale(0.11 -0.11)">
      <defs>
       <path id="IPAexGothic-37" d="M 3597 4263 
Q 2238 2106 1778 63 
L 1131 63 
Q 1581 1834 2950 4128 
L 428 4128 
L 428 4634 
L 3597 4634 
L 3597 4263 
z
" transform="scale(0.015625)"/>
       <path id="IPAexGothic-20" transform="scale(0.015625)"/>
      </defs>
      <use xlink:href="#IPAexGothic-37"/>
      <use xlink:href="#IPAexGothic-20" transform="translate(62.988281 0)"/>
      <use xlink:href="#IPAexGothic-65e5" transform="translate(89.990234 0)"/>
      <use xlink:href="#IPAexGothic-79fb" transform="translate(189.990234 0)"/>
      <use xlink:href="#IPAexGothic-52d5" transform="translate(289.990234 0)"/>
      <use xlink:href="#IPAexGothic-5e73" transform="translate(389.990234 0)"/>
      <use xlink:href="#IPAexGothic-5747" transform="translate(489.990234 0)"/>
     </g>
    </g>
   </g>
  </g>
 </g>
 <defs>
  <clipPath id="pd382db01f2">
   <rect x="72.36" y="28.32" width="398.961055" height="227.14"/>
  </clipPath>
 </defs>
</svg>
