<?xml version="1.0" encoding="utf-8" standalone="no"?>
<!DOCTYPE svg PUBLIC "-//W3C//DTD SVG 1.1//EN"
  "http://www.w3.org/Graphics/SVG/1.1/DTD/svg11.dtd">
<svg xmlns:xlink="http://www.w3.org/1999/xlink" width="252pt" height="57.6pt" viewBox="0 0 252 57.6" xmlns="http://www.w3.org/2000/svg" version="1.1">
 <metadata>
  <rdf:RDF xmlns:dc="http://purl.org/dc/elements/1.1/" xmlns:cc="http://creativecommons.org/ns#" xmlns:rdf="http://www.w3.org/1999/02/22-rdf-syntax-ns#">
   <cc:Work>
    <dc:type rdf:resource="http://purl.org/dc/dcmitype/StillImage"/>
    <dc:date>2025-10-29T08:53:19.414623</dc:date>
    <dc:format>image/svg+xml</dc:format>
    <dc:creator>
     <cc:Agent>
      <dc:title>Matplotlib v3.10.7, https://matplotlib.org/</dc:title>
     </cc:Agent>
    </dc:creator>
   </cc:Work>
  </rdf:RDF>
 </metadata>
 <defs>
  <style type="text/css">*{stroke-linejoin: round; stroke-linecap: butt}</style>
 </defs>
 <g id="figure_1">
  <g id="patch_1">
   <path d="M 0 57.6 
L 252 57.6 
L 252 0 
L 0 0 
z
" style="fill: #ffffff"/>
  </g>
  <g id="axes_1">
   <g id="patch_2">
    <path d="M 2.4 55.2 
L 249.6 55.2 
L 249.6 2.4 
L 2.4 2.4 
z
" style="fill: #ffffff"/>
   </g>
   <g id="matplotlib.axis_1"/>
   <g id="matplotlib.axis_2"/>
   <g id="FillBetweenPolyCollection_1">
    <defs>
     <path id="m624a69f8f7" d="M 13.636364 -4.8 
L 13.636364 -4.8 
L 23.407115 -7.06071 
L 33.177866 -8.903789 
L 42.948617 -10.878754 
L 52.719368 -13.122365 
L 62.490119 -15.069723 
L 72.26087 -17.265564 
L 82.031621 -19.198988 
L 91.802372 -21.354697 
L 101.573123 -23.366119 
L 111.343874 -25.399058 
L 121.114625 -27.476706 
L 130.885375 -29.628755 
L 140.656126 -31.550055 
L 150.426877 -33.56229 
L 160.197628 -35.540574 
L 169.968379 -37.606854 
L 179.73913 -39.655996 
L 189.509881 -41.533064 
L 199.280632 -43.779201 
L 209.051383 -45.955234 
L 218.822134 -48.25606 
L 228.592885 -50.644145 
L 238.363636 -52.8 
L 238.363636 -4.8 
L 238.363636 -4.8 
L 228.592885 -4.8 
L 218.822134 -4.8 
L 209.051383 -4.8 
L 199.280632 -4.8 
L 189.509881 -4.8 
L 179.73913 -4.8 
L 169.968379 -4.8 
L 160.197628 -4.8 
L 150.426877 -4.8 
L 140.656126 -4.8 
L 130.885375 -4.8 
L 121.114625 -4.8 
L 111.343874 -4.8 
L 101.573123 -4.8 
L 91.802372 -4.8 
L 82.031621 -4.8 
L 72.26087 -4.8 
L 62.490119 -4.8 
L 52.719368 -4.8 
L 42.948617 -4.8 
L 33.177866 -4.8 
L 23.407115 -4.8 
L 13.636364 -4.8 
z
" style="stroke: #bbf7d0; stroke-opacity: 0.6"/>
    </defs>
    <g clip-path="url(#peaee28159c)">
     <use xlink:href="#m624a69f8f7" x="0" y="57.6" style="fill: #bbf7d0; fill-opacity: 0.6; stroke: #bbf7d0; stroke-opacity: 0.6"/>
    </g>
   </g>
   <g id="line2d_1">
    <path d="M 13.636364 52.8 
L 23.407115 50.53929 
L 33.177866 48.696211 
L 42.948617 46.721246 
L 52.719368 44.477635 
L 62.490119 42.530277 
L 72.26087 40.334436 
L 82.031621 38.401012 
L 91.802372 36.245303 
L 101.573123 34.233881 
L 111.343874 32.200942 
L 121.114625 30.123294 
L 130.885375 27.971245 
L 140.656126 26.049945 
L 150.426877 24.03771 
L 160.197628 22.059426 
L 169.968379 19.993146 
L 179.73913 17.944004 
L 189.509881 16.066936 
L 199.280632 13.820799 
L 209.051383 11.644766 
L 218.822134 9.34394 
L 228.592885 6.955855 
L 238.363636 4.8 
" clip-path="url(#peaee28159c)" style="fill: none; stroke: #22c55e; stroke-width: 1.5; stroke-linecap: round"/>
   </g>
  </g>
 </g>
 <defs>
  <clipPath id="peaee28159c">
   <rect x="2.4" y="2.4" width="247.2" height="52.8"/>
  </clipPath>
 </defs>
</svg>
