<?xml version="1.0" encoding="utf-8" standalone="no"?>
<!DOCTYPE svg PUBLIC "-//W3C//DTD SVG 1.1//EN"
  "http://www.w3.org/Graphics/SVG/1.1/DTD/svg11.dtd">
<svg xmlns:xlink="http://www.w3.org/1999/xlink" width="252pt" height="57.6pt" viewBox="0 0 252 57.6" xmlns="http://www.w3.org/2000/svg" version="1.1">
 <metadata>
  <rdf:RDF xmlns:dc="http://purl.org/dc/elements/1.1/" xmlns:cc="http://creativecommons.org/ns#" xmlns:rdf="http://www.w3.org/1999/02/22-rdf-syntax-ns#">
   <cc:Work>
    <dc:type rdf:resource="http://purl.org/dc/dcmitype/StillImage"/>
    <dc:date>2025-10-27T09:29:48.036595</dc:date>
    <dc:format>image/svg+xml</dc:format>
    <dc:creator>
     <cc:Agent>
      <dc:title>Matplotlib v3.10.7, https://matplotlib.org/</dc:title>
     </cc:Agent>
    </dc:creator>
   </cc:Work>
  </rdf:RDF>
 </metadata>
 <defs>
  <style type="text/css">*{stroke-linejoin: round; stroke-linecap: butt}</style>
 </defs>
 <g id="figure_1">
  <g id="patch_1">
   <path d="M 0 57.6 
L 252 57.6 
L 252 0 
L 0 0 
z
" style="fill: #ffffff"/>
  </g>
  <g id="axes_1">
   <g id="patch_2">
    <path d="M 2.4 55.2 
L 249.6 55.2 
L 249.6 2.4 
L 2.4 2.4 
z
" style="fill: #ffffff"/>
   </g>
   <g id="matplotlib.axis_1"/>
   <g id="matplotlib.axis_2"/>
   <g id="FillBetweenPolyCollection_1">
    <defs>
     <path id="mae7d263463" d="M 13.636364 -4.8 
L 13.636364 -4.8 
L 23.407115 -6.970204 
L 33.177866 -8.821032 
L 42.948617 -10.953447 
L 52.719368 -13.097115 
L 62.490119 -15.255764 
L 72.26087 -17.364533 
L 82.031621 -19.672064 
L 91.802372 -21.857496 
L 101.573123 -24.075147 
L 111.343874 -26.08877 
L 121.114625 -28.131023 
L 130.885375 -29.939751 
L 140.656126 -32.02659 
L 150.426877 -34.221917 
L 160.197628 -36.252315 
L 169.968379 -38.344408 
L 179.73913 -40.543912 
L 189.509881 -42.494864 
L 199.280632 -44.3249 
L 209.051383 -46.513394 
L 218.822134 -48.537613 
L 228.592885 -50.875229 
L 238.363636 -52.8 
L 238.363636 -4.8 
L 238.363636 -4.8 
L 228.592885 -4.8 
L 218.822134 -4.8 
L 209.051383 -4.8 
L 199.280632 -4.8 
L 189.509881 -4.8 
L 179.73913 -4.8 
L 169.968379 -4.8 
L 160.197628 -4.8 
L 150.426877 -4.8 
L 140.656126 -4.8 
L 130.885375 -4.8 
L 121.114625 -4.8 
L 111.343874 -4.8 
L 101.573123 -4.8 
L 91.802372 -4.8 
L 82.031621 -4.8 
L 72.26087 -4.8 
L 62.490119 -4.8 
L 52.719368 -4.8 
L 42.948617 -4.8 
L 33.177866 -4.8 
L 23.407115 -4.8 
L 13.636364 -4.8 
z
" style="stroke: #bbf7d0; stroke-opacity: 0.6"/>
    </defs>
    <g clip-path="url(#pf9cdac7675)">
     <use xlink:href="#mae7d263463" x="0" y="57.6" style="fill: #bbf7d0; fill-opacity: 0.6; stroke: #bbf7d0; stroke-opacity: 0.6"/>
    </g>
   </g>
   <g id="line2d_1">
    <path d="M 13.636364 52.8 
L 23.407115 50.629796 
L 33.177866 48.778968 
L 42.948617 46.646553 
L 52.719368 44.502885 
L 62.490119 42.344236 
L 72.26087 40.235467 
L 82.031621 37.927936 
L 91.802372 35.742504 
L 101.573123 33.524853 
L 111.343874 31.51123 
L 121.114625 29.468977 
L 130.885375 27.660249 
L 140.656126 25.57341 
L 150.426877 23.378083 
L 160.197628 21.347685 
L 169.968379 19.255592 
L 179.73913 17.056088 
L 189.509881 15.105136 
L 199.280632 13.2751 
L 209.051383 11.086606 
L 218.822134 9.062387 
L 228.592885 6.724771 
L 238.363636 4.8 
" clip-path="url(#pf9cdac7675)" style="fill: none; stroke: #22c55e; stroke-width: 1.5; stroke-linecap: round"/>
   </g>
  </g>
 </g>
 <defs>
  <clipPath id="pf9cdac7675">
   <rect x="2.4" y="2.4" width="247.2" height="52.8"/>
  </clipPath>
 </defs>
</svg>
