<?xml version="1.0" encoding="utf-8" standalone="no"?>
<!DOCTYPE svg PUBLIC "-//W3C//DTD SVG 1.1//EN"
  "http://www.w3.org/Graphics/SVG/1.1/DTD/svg11.dtd">
<svg xmlns:xlink="http://www.w3.org/1999/xlink" width="252pt" height="57.6pt" viewBox="0 0 252 57.6" xmlns="http://www.w3.org/2000/svg" version="1.1">
 <metadata>
  <rdf:RDF xmlns:dc="http://purl.org/dc/elements/1.1/" xmlns:cc="http://creativecommons.org/ns#" xmlns:rdf="http://www.w3.org/1999/02/22-rdf-syntax-ns#">
   <cc:Work>
    <dc:type rdf:resource="http://purl.org/dc/dcmitype/StillImage"/>
    <dc:date>2025-10-27T02:36:18.276011</dc:date>
    <dc:format>image/svg+xml</dc:format>
    <dc:creator>
     <cc:Agent>
      <dc:title>Matplotlib v3.10.7, https://matplotlib.org/</dc:title>
     </cc:Agent>
    </dc:creator>
   </cc:Work>
  </rdf:RDF>
 </metadata>
 <defs>
  <style type="text/css">*{stroke-linejoin: round; stroke-linecap: butt}</style>
 </defs>
 <g id="figure_1">
  <g id="patch_1">
   <path d="M 0 57.6 
L 252 57.6 
L 252 0 
L 0 0 
z
" style="fill: #ffffff"/>
  </g>
  <g id="axes_1">
   <g id="patch_2">
    <path d="M 2.4 55.2 
L 249.6 55.2 
L 249.6 2.4 
L 2.4 2.4 
z
" style="fill: #eaeaf2"/>
   </g>
   <g id="matplotlib.axis_1"/>
   <g id="matplotlib.axis_2"/>
   <g id="FillBetweenPolyCollection_1">
    <defs>
     <path id="m131491802d" d="M 13.636364 -4.8 
L 13.636364 -4.8 
L 23.407115 -6.88863 
L 33.177866 -8.900755 
L 42.948617 -10.897394 
L 52.719368 -13.041626 
L 62.490119 -15.383444 
L 72.26087 -17.316323 
L 82.031621 -19.306624 
L 91.802372 -21.060277 
L 101.573123 -23.107941 
L 111.343874 -24.995411 
L 121.114625 -27.239438 
L 130.885375 -29.755519 
L 140.656126 -32.092511 
L 150.426877 -34.007499 
L 160.197628 -36.025343 
L 169.968379 -38.263148 
L 179.73913 -40.32502 
L 189.509881 -42.552135 
L 199.280632 -44.476863 
L 209.051383 -46.578886 
L 218.822134 -48.804654 
L 228.592885 -50.907924 
L 238.363636 -52.8 
L 238.363636 -4.8 
L 238.363636 -4.8 
L 228.592885 -4.8 
L 218.822134 -4.8 
L 209.051383 -4.8 
L 199.280632 -4.8 
L 189.509881 -4.8 
L 179.73913 -4.8 
L 169.968379 -4.8 
L 160.197628 -4.8 
L 150.426877 -4.8 
L 140.656126 -4.8 
L 130.885375 -4.8 
L 121.114625 -4.8 
L 111.343874 -4.8 
L 101.573123 -4.8 
L 91.802372 -4.8 
L 82.031621 -4.8 
L 72.26087 -4.8 
L 62.490119 -4.8 
L 52.719368 -4.8 
L 42.948617 -4.8 
L 33.177866 -4.8 
L 23.407115 -4.8 
L 13.636364 -4.8 
z
" style="stroke: #bbf7d0; stroke-opacity: 0.6"/>
    </defs>
    <g clip-path="url(#p8d55b2f932)">
     <use xlink:href="#m131491802d" x="0" y="57.6" style="fill: #bbf7d0; fill-opacity: 0.6; stroke: #bbf7d0; stroke-opacity: 0.6"/>
    </g>
   </g>
   <g id="line2d_1">
    <path d="M 13.636364 52.8 
L 23.407115 50.71137 
L 33.177866 48.699245 
L 42.948617 46.702606 
L 52.719368 44.558374 
L 62.490119 42.216556 
L 72.26087 40.283677 
L 82.031621 38.293376 
L 91.802372 36.539723 
L 101.573123 34.492059 
L 111.343874 32.604589 
L 121.114625 30.360562 
L 130.885375 27.844481 
L 140.656126 25.507489 
L 150.426877 23.592501 
L 160.197628 21.574657 
L 169.968379 19.336852 
L 179.73913 17.27498 
L 189.509881 15.047865 
L 199.280632 13.123137 
L 209.051383 11.021114 
L 218.822134 8.795346 
L 228.592885 6.692076 
L 238.363636 4.8 
" clip-path="url(#p8d55b2f932)" style="fill: none; stroke: #22c55e; stroke-width: 1.5; stroke-linecap: round"/>
   </g>
  </g>
 </g>
 <defs>
  <clipPath id="p8d55b2f932">
   <rect x="2.4" y="2.4" width="247.2" height="52.8"/>
  </clipPath>
 </defs>
</svg>
