<?xml version="1.0" encoding="utf-8" standalone="no"?>
<!DOCTYPE svg PUBLIC "-//W3C//DTD SVG 1.1//EN"
  "http://www.w3.org/Graphics/SVG/1.1/DTD/svg11.dtd">
<svg xmlns:xlink="http://www.w3.org/1999/xlink" width="252pt" height="57.6pt" viewBox="0 0 252 57.6" xmlns="http://www.w3.org/2000/svg" version="1.1">
 <metadata>
  <rdf:RDF xmlns:dc="http://purl.org/dc/elements/1.1/" xmlns:cc="http://creativecommons.org/ns#" xmlns:rdf="http://www.w3.org/1999/02/22-rdf-syntax-ns#">
   <cc:Work>
    <dc:type rdf:resource="http://purl.org/dc/dcmitype/StillImage"/>
    <dc:date>2025-10-29T09:07:48.075326</dc:date>
    <dc:format>image/svg+xml</dc:format>
    <dc:creator>
     <cc:Agent>
      <dc:title>Matplotlib v3.10.7, https://matplotlib.org/</dc:title>
     </cc:Agent>
    </dc:creator>
   </cc:Work>
  </rdf:RDF>
 </metadata>
 <defs>
  <style type="text/css">*{stroke-linejoin: round; stroke-linecap: butt}</style>
 </defs>
 <g id="figure_1">
  <g id="patch_1">
   <path d="M 0 57.6 
L 252 57.6 
L 252 0 
L 0 0 
z
" style="fill: #ffffff"/>
  </g>
  <g id="axes_1">
   <g id="patch_2">
    <path d="M 2.4 55.2 
L 249.6 55.2 
L 249.6 2.4 
L 2.4 2.4 
z
" style="fill: #ffffff"/>
   </g>
   <g id="matplotlib.axis_1"/>
   <g id="matplotlib.axis_2"/>
   <g id="FillBetweenPolyCollection_1">
    <defs>
     <path id="m52a522a884" d="M 13.636364 -4.8 
L 13.636364 -4.8 
L 23.407115 -6.706479 
L 33.177866 -8.49527 
L 42.948617 -10.825296 
L 52.719368 -13.054661 
L 62.490119 -15.247447 
L 72.26087 -17.304028 
L 82.031621 -19.59054 
L 91.802372 -21.897084 
L 101.573123 -24.101425 
L 111.343874 -26.129734 
L 121.114625 -28.006469 
L 130.885375 -30.126064 
L 140.656126 -32.19329 
L 150.426877 -34.491367 
L 160.197628 -36.359764 
L 169.968379 -38.415416 
L 179.73913 -40.552927 
L 189.509881 -42.468009 
L 199.280632 -44.485947 
L 209.051383 -46.660696 
L 218.822134 -48.550746 
L 228.592885 -50.904571 
L 238.363636 -52.8 
L 238.363636 -4.8 
L 238.363636 -4.8 
L 228.592885 -4.8 
L 218.822134 -4.8 
L 209.051383 -4.8 
L 199.280632 -4.8 
L 189.509881 -4.8 
L 179.73913 -4.8 
L 169.968379 -4.8 
L 160.197628 -4.8 
L 150.426877 -4.8 
L 140.656126 -4.8 
L 130.885375 -4.8 
L 121.114625 -4.8 
L 111.343874 -4.8 
L 101.573123 -4.8 
L 91.802372 -4.8 
L 82.031621 -4.8 
L 72.26087 -4.8 
L 62.490119 -4.8 
L 52.719368 -4.8 
L 42.948617 -4.8 
L 33.177866 -4.8 
L 23.407115 -4.8 
L 13.636364 -4.8 
z
" style="stroke: #bbf7d0; stroke-opacity: 0.6"/>
    </defs>
    <g clip-path="url(#padcd1d79a3)">
     <use xlink:href="#m52a522a884" x="0" y="57.6" style="fill: #bbf7d0; fill-opacity: 0.6; stroke: #bbf7d0; stroke-opacity: 0.6"/>
    </g>
   </g>
   <g id="line2d_1">
    <path d="M 13.636364 52.8 
L 23.407115 50.893521 
L 33.177866 49.10473 
L 42.948617 46.774704 
L 52.719368 44.545339 
L 62.490119 42.352553 
L 72.26087 40.295972 
L 82.031621 38.00946 
L 91.802372 35.702916 
L 101.573123 33.498575 
L 111.343874 31.470266 
L 121.114625 29.593531 
L 130.885375 27.473936 
L 140.656126 25.40671 
L 150.426877 23.108633 
L 160.197628 21.240236 
L 169.968379 19.184584 
L 179.73913 17.047073 
L 189.509881 15.131991 
L 199.280632 13.114053 
L 209.051383 10.939304 
L 218.822134 9.049254 
L 228.592885 6.695429 
L 238.363636 4.8 
" clip-path="url(#padcd1d79a3)" style="fill: none; stroke: #22c55e; stroke-width: 1.5; stroke-linecap: round"/>
   </g>
  </g>
 </g>
 <defs>
  <clipPath id="padcd1d79a3">
   <rect x="2.4" y="2.4" width="247.2" height="52.8"/>
  </clipPath>
 </defs>
</svg>
