<?xml version="1.0" encoding="utf-8" standalone="no"?>
<!DOCTYPE svg PUBLIC "-//W3C//DTD SVG 1.1//EN"
  "http://www.w3.org/Graphics/SVG/1.1/DTD/svg11.dtd">
<svg xmlns:xlink="http://www.w3.org/1999/xlink" width="432pt" height="288pt" viewBox="0 0 432 288" xmlns="http://www.w3.org/2000/svg" version="1.1">
 <metadata>
  <rdf:RDF xmlns:dc="http://purl.org/dc/elements/1.1/" xmlns:cc="http://creativecommons.org/ns#" xmlns:rdf="http://www.w3.org/1999/02/22-rdf-syntax-ns#">
   <cc:Work>
    <dc:type rdf:resource="http://purl.org/dc/dcmitype/StillImage"/>
    <dc:date>2025-10-29T09:07:46.190753</dc:date>
    <dc:format>image/svg+xml</dc:format>
    <dc:creator>
     <cc:Agent>
      <dc:title>Matplotlib v3.10.7, https://matplotlib.org/</dc:title>
     </cc:Agent>
    </dc:creator>
   </cc:Work>
  </rdf:RDF>
 </metadata>
 <defs>
  <style type="text/css">*{stroke-linejoin: round; stroke-linecap: butt}</style>
 </defs>
 <g id="figure_1">
  <g id="patch_1">
   <path d="M 0 288 
L 432 288 
L 432 0 
L 0 0 
z
" style="fill: #ffffff"/>
  </g>
  <g id="axes_1">
   <g id="patch_2">
    <path d="M 49.12625 242.44 
L 421.2 242.44 
L 421.2 30.48 
L 49.12625 30.48 
z
" style="fill: #ffffff"/>
   </g>
   <g id="matplotlib.axis_1">
    <g id="xtick_1">
     <g id="line2d_1">
      <defs>
       <path id="m14aacefafb" d="M 0 0 
L 0 3.5 
" style="stroke: #000000; stroke-width: 0.8"/>
      </defs>
      <g>
       <use xlink:href="#m14aacefafb" x="111.138542" y="242.44" style="stroke: #000000; stroke-width: 0.8"/>
      </g>
     </g>
     <g id="text_1">
      <!-- usa -->
      <g transform="translate(103.059635 256.930625) scale(0.1 -0.1)">
       <defs>
        <path id="IPAexGothic-75" d="M 3284 63 
L 2772 63 
L 2772 644 
Q 2300 0 1625 0 
Q 1072 0 763 375 
Q 519 678 519 1241 
L 519 3250 
L 1069 3250 
L 1069 1259 
Q 1069 466 1734 466 
Q 2406 466 2734 1291 
L 2734 3250 
L 3284 3250 
L 3284 63 
z
" transform="scale(0.015625)"/>
        <path id="IPAexGothic-73" d="M 2234 2547 
Q 1938 2931 1484 2931 
Q 891 2931 891 2475 
Q 891 2153 1531 1944 
L 1741 1875 
Q 2650 1578 2650 894 
Q 2650 434 2272 172 
Q 1972 -31 1497 -31 
Q 766 -31 256 503 
L 603 819 
Q 997 397 1516 397 
Q 2131 397 2131 875 
Q 2131 1238 1453 1478 
L 1234 1553 
Q 378 1853 378 2431 
Q 378 2797 628 3047 
Q 928 3347 1453 3347 
Q 2156 3347 2606 2859 
L 2234 2547 
z
" transform="scale(0.015625)"/>
        <path id="IPAexGothic-61" d="M 3156 63 
L 2672 63 
Q 2559 303 2531 556 
L 2509 556 
Q 2147 -25 1428 -25 
Q 934 -25 622 288 
Q 347 563 347 959 
Q 347 1947 2050 1997 
L 2478 2009 
L 2478 2175 
Q 2478 2509 2288 2700 
Q 2088 2900 1775 2900 
Q 1238 2900 969 2378 
L 494 2597 
Q 938 3328 1788 3328 
Q 2375 3328 2691 3000 
Q 2984 2706 2984 2169 
L 2984 997 
Q 2984 400 3156 63 
z
M 2491 1625 
L 2141 1619 
Q 903 1591 903 953 
Q 903 728 1050 581 
Q 1231 403 1525 403 
Q 1934 403 2234 703 
Q 2491 969 2491 1344 
L 2491 1625 
z
" transform="scale(0.015625)"/>
       </defs>
       <use xlink:href="#IPAexGothic-75"/>
       <use xlink:href="#IPAexGothic-73" transform="translate(60.400391 0)"/>
       <use xlink:href="#IPAexGothic-61" transform="translate(106.591797 0)"/>
      </g>
     </g>
    </g>
    <g id="xtick_2">
     <g id="line2d_2">
      <g>
       <use xlink:href="#m14aacefafb" x="235.163125" y="242.44" style="stroke: #000000; stroke-width: 0.8"/>
      </g>
     </g>
     <g id="text_2">
      <!-- japan -->
      <g transform="translate(222.188906 256.872812) scale(0.1 -0.1)">
       <defs>
        <path id="IPAexGothic-6a" d="M 1172 3928 
L 544 3928 
L 544 4569 
L 1172 4569 
L 1172 3928 
z
M 1131 3250 
L 1131 153 
Q 1131 -634 703 -966 
Q 444 -1169 -47 -1253 
L -231 -794 
Q 119 -747 306 -609 
Q 581 -400 581 159 
L 581 3250 
L 1131 3250 
z
" transform="scale(0.015625)"/>
        <path id="IPAexGothic-70" d="M 1075 2688 
Q 1525 3341 2206 3341 
Q 2769 3341 3172 2938 
Q 3641 2469 3641 1644 
Q 3641 841 3178 372 
Q 2775 -31 2200 -31 
Q 1569 -31 1106 497 
L 1106 -1216 
L 563 -1216 
L 563 3250 
L 1075 3250 
L 1075 2688 
z
M 1106 1950 
L 1106 1291 
Q 1106 897 1516 600 
Q 1791 403 2106 403 
Q 2469 403 2725 659 
Q 3066 997 3066 1631 
Q 3066 2200 2784 2559 
Q 2503 2900 2100 2900 
Q 1656 2900 1338 2484 
Q 1106 2184 1106 1950 
z
" transform="scale(0.015625)"/>
        <path id="IPAexGothic-6e" d="M 3328 63 
L 2778 63 
L 2778 2041 
Q 2778 2853 2106 2853 
Q 1428 2853 1113 2041 
L 1113 63 
L 563 63 
L 563 3250 
L 1075 3250 
L 1075 2675 
Q 1525 3316 2222 3316 
Q 3328 3316 3328 2072 
L 3328 63 
z
" transform="scale(0.015625)"/>
       </defs>
       <use xlink:href="#IPAexGothic-6a"/>
       <use xlink:href="#IPAexGothic-61" transform="translate(27.001953 0)"/>
       <use xlink:href="#IPAexGothic-70" transform="translate(81.982422 0)"/>
       <use xlink:href="#IPAexGothic-61" transform="translate(144.091797 0)"/>
       <use xlink:href="#IPAexGothic-6e" transform="translate(199.072266 0)"/>
      </g>
     </g>
    </g>
    <g id="xtick_3">
     <g id="line2d_3">
      <g>
       <use xlink:href="#m14aacefafb" x="359.187708" y="242.44" style="stroke: #000000; stroke-width: 0.8"/>
      </g>
     </g>
     <g id="text_3">
      <!-- europe -->
      <g transform="translate(342.501771 256.930625) scale(0.1 -0.1)">
       <defs>
        <path id="IPAexGothic-65" d="M 863 1594 
Q 891 1041 1209 722 
Q 1534 397 1997 397 
Q 2606 397 2963 966 
L 3322 728 
Q 2869 -31 1931 -31 
Q 1222 -31 766 422 
Q 306 884 306 1641 
Q 306 2444 788 2925 
Q 1216 3353 1856 3353 
Q 2459 3353 2866 2956 
Q 3322 2494 3322 1722 
L 3322 1594 
L 863 1594 
z
M 2756 1997 
Q 2709 2431 2450 2681 
Q 2194 2938 1844 2938 
Q 1438 2938 1150 2591 
Q 953 2356 894 1997 
L 2756 1997 
z
" transform="scale(0.015625)"/>
        <path id="IPAexGothic-72" d="M 2309 3316 
L 2213 2769 
Q 2106 2791 2022 2791 
Q 1653 2791 1413 2444 
Q 1113 2006 1113 1675 
L 1113 63 
L 563 63 
L 563 3250 
L 1081 3250 
L 1056 2303 
L 1069 2303 
Q 1422 3341 2097 3341 
Q 2206 3341 2309 3316 
z
" transform="scale(0.015625)"/>
        <path id="IPAexGothic-6f" d="M 1919 3341 
Q 2594 3341 3056 2888 
Q 3531 2413 3531 1638 
Q 3531 888 3066 422 
Q 2609 -31 1919 -31 
Q 1228 -31 781 416 
Q 313 881 313 1656 
Q 313 2413 788 2888 
Q 1241 3341 1919 3341 
z
M 1919 2919 
Q 1519 2919 1241 2631 
Q 888 2278 888 1650 
Q 888 1031 1234 684 
Q 1516 403 1919 403 
Q 2331 403 2609 691 
Q 2956 1038 2956 1672 
Q 2956 2269 2603 2631 
Q 2316 2919 1919 2919 
z
" transform="scale(0.015625)"/>
       </defs>
       <use xlink:href="#IPAexGothic-65"/>
       <use xlink:href="#IPAexGothic-75" transform="translate(56.884766 0)"/>
       <use xlink:href="#IPAexGothic-72" transform="translate(117.285156 0)"/>
       <use xlink:href="#IPAexGothic-6f" transform="translate(154.296875 0)"/>
       <use xlink:href="#IPAexGothic-70" transform="translate(214.697266 0)"/>
       <use xlink:href="#IPAexGothic-65" transform="translate(276.806641 0)"/>
      </g>
     </g>
    </g>
    <g id="text_4">
     <!-- 生産地域 -->
     <g transform="translate(206.363125 273.617125) scale(0.144 -0.144)">
      <defs>
       <path id="IPAexGothic-751f" d="M 1741 3822 
L 3022 3822 
L 3022 5250 
L 3509 5250 
L 3509 3822 
L 5628 3822 
L 5628 3406 
L 3509 3406 
L 3509 2125 
L 5366 2125 
L 5366 1709 
L 3509 1709 
L 3509 250 
L 5978 250 
L 5978 -166 
L 513 -166 
L 513 250 
L 3022 250 
L 3022 1709 
L 1263 1709 
L 1263 2125 
L 3022 2125 
L 3022 3406 
L 1563 3406 
Q 1266 2813 872 2350 
L 513 2688 
Q 1238 3519 1556 4834 
L 2022 4719 
Q 1894 4216 1741 3822 
z
" transform="scale(0.015625)"/>
       <path id="IPAexGothic-7523" d="M 3559 4581 
L 5856 4581 
L 5856 4209 
L 4725 4209 
Q 4591 3819 4391 3413 
L 5966 3413 
L 5966 3028 
L 1322 3028 
L 1322 2344 
Q 1322 1297 1194 706 
Q 1047 44 625 -519 
L 275 -191 
Q 653 313 778 1000 
Q 869 1516 869 2266 
L 869 3413 
L 2316 3413 
Q 2203 3784 2022 4209 
L 678 4209 
L 678 4581 
L 3072 4581 
L 3072 5309 
L 3559 5309 
L 3559 4581 
z
M 2494 4209 
Q 2656 3850 2784 3413 
L 3938 3413 
Q 4097 3763 4238 4209 
L 2494 4209 
z
M 2466 2125 
L 3444 2125 
L 3444 2816 
L 3897 2816 
L 3897 2125 
L 5663 2125 
L 5663 1766 
L 3897 1766 
L 3897 1128 
L 5459 1128 
L 5459 769 
L 3897 769 
L 3897 78 
L 6003 78 
L 6003 -294 
L 1331 -294 
L 1331 78 
L 3444 78 
L 3444 769 
L 2016 769 
L 2016 1128 
L 3444 1128 
L 3444 1766 
L 2303 1766 
Q 2103 1353 1781 994 
L 1472 1331 
Q 1972 1891 2209 2741 
L 2625 2625 
Q 2541 2319 2466 2125 
z
" transform="scale(0.015625)"/>
       <path id="IPAexGothic-5730" d="M 3253 2881 
L 3253 488 
Q 3253 294 3369 256 
Q 3522 203 4369 203 
Q 5359 203 5488 369 
Q 5584 516 5603 1166 
L 6056 1019 
Q 5969 66 5781 -78 
Q 5541 -250 4206 -250 
Q 3166 -250 2959 -122 
Q 2800 -28 2800 319 
L 2800 2731 
L 2216 2547 
L 2094 2969 
L 2800 3188 
L 2800 4856 
L 3253 4856 
L 3253 3328 
L 3941 3541 
L 3941 5241 
L 4394 5241 
L 4394 3681 
L 5469 4013 
L 5731 3828 
L 5731 1869 
Q 5731 1563 5616 1459 
Q 5509 1363 5225 1363 
Q 5016 1363 4713 1381 
L 4638 1819 
Q 4922 1772 5116 1772 
Q 5291 1772 5291 1978 
L 5291 3531 
L 4394 3244 
L 4394 991 
L 3941 991 
L 3941 3097 
L 3253 2881 
z
M 1206 3675 
L 1206 5147 
L 1659 5147 
L 1659 3675 
L 2478 3675 
L 2478 3247 
L 1659 3247 
L 1659 966 
Q 1725 991 1741 994 
Q 2128 1128 2541 1288 
L 2588 872 
Q 1616 466 513 109 
L 316 563 
Q 863 706 1206 819 
L 1206 3247 
L 413 3247 
L 413 3675 
L 1206 3675 
z
" transform="scale(0.015625)"/>
       <path id="IPAexGothic-57df" d="M 4831 1731 
Q 5159 2334 5394 3259 
L 5809 3081 
Q 5453 1922 4984 1166 
Q 5281 341 5444 341 
Q 5538 341 5700 1275 
L 6103 969 
Q 5834 -356 5541 -356 
Q 5391 -356 5191 -106 
Q 4888 256 4691 731 
Q 4191 81 3409 -466 
L 3103 -113 
Q 3981 447 4525 1219 
Q 4303 2050 4197 3663 
L 2163 3663 
L 2163 3247 
L 1509 3247 
L 1509 1256 
Q 1941 1416 2169 1506 
L 2219 1134 
Q 1375 725 422 413 
L 263 872 
Q 738 994 1075 1109 
L 1075 3247 
L 359 3247 
L 359 3669 
L 1075 3669 
L 1075 5147 
L 1509 5147 
L 1509 3669 
L 2047 3669 
L 2047 4072 
L 4178 4072 
L 4166 4475 
Q 4144 5166 4141 5313 
L 4575 5313 
Q 4584 4528 4613 4097 
L 6022 4097 
L 6022 3688 
L 4631 3688 
L 4638 3656 
Q 4716 2375 4831 1731 
z
M 3938 3163 
L 3938 1613 
L 2375 1613 
L 2375 3163 
L 3938 3163 
z
M 2772 2791 
L 2772 1984 
L 3541 1984 
L 3541 2791 
L 2772 2791 
z
M 2009 813 
Q 3047 1000 4116 1356 
L 4128 972 
Q 3325 656 2169 372 
L 2009 813 
z
M 5428 4281 
Q 5156 4731 4897 5013 
L 5281 5203 
Q 5538 4928 5813 4513 
L 5428 4281 
z
" transform="scale(0.015625)"/>
      </defs>
      <use xlink:href="#IPAexGothic-751f"/>
      <use xlink:href="#IPAexGothic-7523" transform="translate(100 0)"/>
      <use xlink:href="#IPAexGothic-5730" transform="translate(200 0)"/>
      <use xlink:href="#IPAexGothic-57df" transform="translate(300 0)"/>
     </g>
    </g>
   </g>
   <g id="matplotlib.axis_2">
    <g id="ytick_1">
     <g id="line2d_4">
      <path d="M 49.12625 227.680696 
L 421.2 227.680696 
" clip-path="url(#p9fcd472554)" style="fill: none; stroke: #000000; stroke-opacity: 0.3; stroke-width: 0.5; stroke-linecap: square"/>
     </g>
     <g id="line2d_5">
      <defs>
       <path id="md60252ea37" d="M 0 0 
L -3.5 0 
" style="stroke: #000000; stroke-width: 0.8"/>
      </defs>
      <g>
       <use xlink:href="#md60252ea37" x="49.12625" y="227.680696" style="stroke: #000000; stroke-width: 0.8"/>
      </g>
     </g>
     <g id="text_5">
      <!-- 10 -->
      <g transform="translate(29.529375 231.426009) scale(0.1 -0.1)">
       <defs>
        <path id="IPAexGothic-31" d="M 2463 63 
L 1900 63 
L 1900 4103 
Q 1372 3922 788 3797 
L 684 4231 
Q 1519 4441 2106 4731 
L 2463 4731 
L 2463 63 
z
" transform="scale(0.015625)"/>
        <path id="IPAexGothic-30" d="M 2038 4725 
Q 2881 4725 3334 3944 
Q 3694 3325 3694 2344 
Q 3694 1372 3334 741 
Q 2888 -31 2016 -31 
Q 1147 -31 700 741 
Q 341 1372 341 2350 
Q 341 3713 1000 4334 
Q 1419 4725 2038 4725 
z
M 2016 4266 
Q 1516 4266 1228 3759 
Q 934 3247 934 2344 
Q 934 1456 1222 947 
Q 1513 447 2016 447 
Q 2619 447 2909 1153 
Q 3100 1622 3100 2375 
Q 3100 3256 2806 3759 
Q 2509 4266 2016 4266 
z
" transform="scale(0.015625)"/>
       </defs>
       <use xlink:href="#IPAexGothic-31"/>
       <use xlink:href="#IPAexGothic-30" transform="translate(62.988281 0)"/>
      </g>
     </g>
    </g>
    <g id="ytick_2">
     <g id="line2d_6">
      <path d="M 49.12625 202.056905 
L 421.2 202.056905 
" clip-path="url(#p9fcd472554)" style="fill: none; stroke: #000000; stroke-opacity: 0.3; stroke-width: 0.5; stroke-linecap: square"/>
     </g>
     <g id="line2d_7">
      <g>
       <use xlink:href="#md60252ea37" x="49.12625" y="202.056905" style="stroke: #000000; stroke-width: 0.8"/>
      </g>
     </g>
     <g id="text_6">
      <!-- 15 -->
      <g transform="translate(29.529375 205.802218) scale(0.1 -0.1)">
       <defs>
        <path id="IPAexGothic-35" d="M 1178 2603 
Q 1634 2963 2172 2963 
Q 2816 2963 3241 2528 
Q 3638 2113 3638 1497 
Q 3638 938 3297 513 
Q 2869 -31 2031 -31 
Q 959 -31 469 784 
L 938 1028 
Q 1309 434 2013 434 
Q 2466 434 2769 716 
Q 3081 1013 3081 1503 
Q 3081 1966 2806 2241 
Q 2519 2528 2056 2528 
Q 1406 2528 1072 2028 
L 591 2091 
L 884 4634 
L 3406 4634 
L 3406 4153 
L 1341 4153 
L 1134 2603 
L 1178 2603 
z
" transform="scale(0.015625)"/>
       </defs>
       <use xlink:href="#IPAexGothic-31"/>
       <use xlink:href="#IPAexGothic-35" transform="translate(62.988281 0)"/>
      </g>
     </g>
    </g>
    <g id="ytick_3">
     <g id="line2d_8">
      <path d="M 49.12625 176.433114 
L 421.2 176.433114 
" clip-path="url(#p9fcd472554)" style="fill: none; stroke: #000000; stroke-opacity: 0.3; stroke-width: 0.5; stroke-linecap: square"/>
     </g>
     <g id="line2d_9">
      <g>
       <use xlink:href="#md60252ea37" x="49.12625" y="176.433114" style="stroke: #000000; stroke-width: 0.8"/>
      </g>
     </g>
     <g id="text_7">
      <!-- 20 -->
      <g transform="translate(29.529375 180.178427) scale(0.1 -0.1)">
       <defs>
        <path id="IPAexGothic-32" d="M 3659 63 
L 447 63 
L 447 594 
Q 825 1475 1894 2203 
L 2072 2322 
Q 2619 2697 2791 2906 
Q 2988 3153 2988 3444 
Q 2988 3772 2756 4003 
Q 2500 4259 2084 4259 
Q 1250 4259 991 3328 
L 497 3506 
Q 853 4725 2116 4725 
Q 2806 4725 3216 4316 
Q 3575 3947 3575 3425 
Q 3575 3038 3344 2722 
Q 3131 2416 2366 1938 
L 2231 1856 
Q 1256 1253 978 569 
L 3659 569 
L 3659 63 
z
" transform="scale(0.015625)"/>
       </defs>
       <use xlink:href="#IPAexGothic-32"/>
       <use xlink:href="#IPAexGothic-30" transform="translate(62.988281 0)"/>
      </g>
     </g>
    </g>
    <g id="ytick_4">
     <g id="line2d_10">
      <path d="M 49.12625 150.809323 
L 421.2 150.809323 
" clip-path="url(#p9fcd472554)" style="fill: none; stroke: #000000; stroke-opacity: 0.3; stroke-width: 0.5; stroke-linecap: square"/>
     </g>
     <g id="line2d_11">
      <g>
       <use xlink:href="#md60252ea37" x="49.12625" y="150.809323" style="stroke: #000000; stroke-width: 0.8"/>
      </g>
     </g>
     <g id="text_8">
      <!-- 25 -->
      <g transform="translate(29.529375 154.554636) scale(0.1 -0.1)">
       <use xlink:href="#IPAexGothic-32"/>
       <use xlink:href="#IPAexGothic-35" transform="translate(62.988281 0)"/>
      </g>
     </g>
    </g>
    <g id="ytick_5">
     <g id="line2d_12">
      <path d="M 49.12625 125.185532 
L 421.2 125.185532 
" clip-path="url(#p9fcd472554)" style="fill: none; stroke: #000000; stroke-opacity: 0.3; stroke-width: 0.5; stroke-linecap: square"/>
     </g>
     <g id="line2d_13">
      <g>
       <use xlink:href="#md60252ea37" x="49.12625" y="125.185532" style="stroke: #000000; stroke-width: 0.8"/>
      </g>
     </g>
     <g id="text_9">
      <!-- 30 -->
      <g transform="translate(29.529375 128.930844) scale(0.1 -0.1)">
       <defs>
        <path id="IPAexGothic-33" d="M 2381 2419 
Q 3506 2216 3506 1278 
Q 3506 716 3128 356 
Q 2709 -31 1944 -31 
Q 797 -31 288 881 
L 756 1131 
Q 1109 441 1938 441 
Q 2425 441 2694 691 
Q 2950 928 2950 1291 
Q 2950 1719 2566 1978 
Q 2216 2213 1644 2213 
L 1363 2213 
L 1363 2669 
L 1656 2669 
Q 2231 2669 2534 2888 
Q 2859 3119 2859 3509 
Q 2859 3934 2494 4138 
Q 2259 4278 1931 4278 
Q 1238 4278 903 3578 
L 434 3803 
Q 897 4725 1938 4725 
Q 2597 4725 3006 4394 
Q 3416 4069 3416 3534 
Q 3416 3028 3019 2706 
Q 2763 2500 2381 2444 
L 2381 2419 
z
" transform="scale(0.015625)"/>
       </defs>
       <use xlink:href="#IPAexGothic-33"/>
       <use xlink:href="#IPAexGothic-30" transform="translate(62.988281 0)"/>
      </g>
     </g>
    </g>
    <g id="ytick_6">
     <g id="line2d_14">
      <path d="M 49.12625 99.561741 
L 421.2 99.561741 
" clip-path="url(#p9fcd472554)" style="fill: none; stroke: #000000; stroke-opacity: 0.3; stroke-width: 0.5; stroke-linecap: square"/>
     </g>
     <g id="line2d_15">
      <g>
       <use xlink:href="#md60252ea37" x="49.12625" y="99.561741" style="stroke: #000000; stroke-width: 0.8"/>
      </g>
     </g>
     <g id="text_10">
      <!-- 35 -->
      <g transform="translate(29.529375 103.307053) scale(0.1 -0.1)">
       <use xlink:href="#IPAexGothic-33"/>
       <use xlink:href="#IPAexGothic-35" transform="translate(62.988281 0)"/>
      </g>
     </g>
    </g>
    <g id="ytick_7">
     <g id="line2d_16">
      <path d="M 49.12625 73.93795 
L 421.2 73.93795 
" clip-path="url(#p9fcd472554)" style="fill: none; stroke: #000000; stroke-opacity: 0.3; stroke-width: 0.5; stroke-linecap: square"/>
     </g>
     <g id="line2d_17">
      <g>
       <use xlink:href="#md60252ea37" x="49.12625" y="73.93795" style="stroke: #000000; stroke-width: 0.8"/>
      </g>
     </g>
     <g id="text_11">
      <!-- 40 -->
      <g transform="translate(29.529375 77.683262) scale(0.1 -0.1)">
       <defs>
        <path id="IPAexGothic-34" d="M 3813 1159 
L 3059 1159 
L 3059 63 
L 2547 63 
L 2547 1159 
L 197 1159 
L 197 1672 
L 2456 4678 
L 3059 4678 
L 3059 1634 
L 3813 1634 
L 3813 1159 
z
M 2578 4109 
L 2559 4109 
Q 2278 3656 2003 3284 
L 759 1634 
L 2547 1634 
L 2547 3144 
Q 2547 3481 2578 4109 
z
" transform="scale(0.015625)"/>
       </defs>
       <use xlink:href="#IPAexGothic-34"/>
       <use xlink:href="#IPAexGothic-30" transform="translate(62.988281 0)"/>
      </g>
     </g>
    </g>
    <g id="ytick_8">
     <g id="line2d_18">
      <path d="M 49.12625 48.314159 
L 421.2 48.314159 
" clip-path="url(#p9fcd472554)" style="fill: none; stroke: #000000; stroke-opacity: 0.3; stroke-width: 0.5; stroke-linecap: square"/>
     </g>
     <g id="line2d_19">
      <g>
       <use xlink:href="#md60252ea37" x="49.12625" y="48.314159" style="stroke: #000000; stroke-width: 0.8"/>
      </g>
     </g>
     <g id="text_12">
      <!-- 45 -->
      <g transform="translate(29.529375 52.059471) scale(0.1 -0.1)">
       <use xlink:href="#IPAexGothic-34"/>
       <use xlink:href="#IPAexGothic-35" transform="translate(62.988281 0)"/>
      </g>
     </g>
    </g>
    <g id="text_13">
     <!-- 燃費 (MPG) -->
     <g transform="translate(22.793375 173.9855) rotate(-90) scale(0.144 -0.144)">
      <defs>
       <path id="IPAexGothic-71c3" d="M 2947 2475 
Q 2650 2809 2441 2975 
Q 2313 2744 2166 2541 
L 1891 2859 
Q 2591 3850 2772 5259 
L 3175 5178 
Q 3134 4938 3094 4813 
L 3766 4813 
L 3969 4647 
Q 3934 4272 3894 4006 
L 4444 4006 
L 4444 5313 
L 4847 5313 
L 4847 4006 
L 5959 4006 
L 5959 3634 
L 4969 3634 
Q 4978 3606 4988 3556 
Q 5288 2450 6122 1722 
L 5806 1356 
Q 4944 2278 4731 3309 
Q 4616 2072 3784 1241 
L 3491 1547 
Q 4325 2325 4431 3634 
L 3816 3634 
Q 3450 2181 2422 1172 
L 2128 1472 
Q 2625 1931 2947 2475 
z
M 3131 2822 
Q 3222 3022 3325 3316 
Q 3044 3556 2794 3719 
Q 2650 3378 2594 3263 
Q 2900 3044 3131 2822 
z
M 3016 4453 
Q 2978 4281 2900 4031 
Q 3181 3888 3438 3706 
Q 3506 4003 3572 4453 
L 3016 4453 
z
M 1519 3756 
Q 1766 4091 1941 4434 
L 2275 4191 
Q 1975 3700 1519 3225 
L 1519 2534 
Q 1519 2144 1475 1741 
Q 1934 1272 2216 813 
L 1928 384 
Q 1716 828 1403 1259 
Q 1191 228 634 -519 
L 322 -141 
Q 1103 881 1103 2725 
L 1103 5313 
L 1519 5313 
L 1519 3756 
z
M 231 2356 
Q 413 2997 444 4025 
L 841 3994 
Q 809 2900 628 2150 
L 231 2356 
z
M 5466 4122 
Q 5278 4544 5013 4878 
L 5325 5094 
Q 5653 4697 5819 4359 
L 5466 4122 
z
M 3341 -422 
Q 3331 259 3194 997 
L 3597 1069 
Q 3753 444 3803 -288 
L 3341 -422 
z
M 4488 -331 
Q 4303 481 4066 1063 
L 4444 1191 
Q 4744 563 4928 -153 
L 4488 -331 
z
M 5703 -300 
Q 5375 519 4953 1172 
L 5313 1350 
Q 5788 700 6113 -31 
L 5703 -300 
z
M 1947 -238 
Q 2300 419 2466 1075 
L 2856 947 
Q 2672 81 2375 -481 
L 1947 -238 
z
" transform="scale(0.015625)"/>
       <path id="IPAexGothic-8cbb" d="M 1247 2356 
Q 969 2253 638 2163 
L 391 2503 
Q 1531 2744 1984 3213 
L 709 3213 
Q 859 3603 953 4172 
L 2291 4172 
L 2291 4519 
L 538 4519 
L 538 4844 
L 2291 4844 
L 2291 5325 
L 2719 5325 
L 2719 4844 
L 3666 4844 
L 3666 5325 
L 4097 5325 
L 4097 4844 
L 5422 4844 
L 5422 3859 
L 4097 3859 
L 4097 3525 
L 5941 3525 
Q 5931 3028 5856 2766 
Q 5791 2509 5447 2509 
Q 5363 2509 5178 2528 
L 5178 506 
L 1247 506 
L 1247 2356 
z
M 2072 2784 
L 3666 2784 
L 3666 3213 
L 2475 3213 
Q 2334 2978 2072 2784 
z
M 4097 2784 
L 4981 2784 
L 4947 2931 
Q 5138 2884 5313 2884 
Q 5478 2884 5519 3213 
L 4097 3213 
L 4097 2784 
z
M 4744 2459 
L 1688 2459 
L 1688 2144 
L 4744 2144 
L 4744 2459 
z
M 2719 4172 
L 3666 4172 
L 3666 4519 
L 2719 4519 
L 2719 4172 
z
M 2622 3525 
L 3666 3525 
L 3666 3859 
L 2700 3859 
Q 2681 3684 2622 3525 
z
M 2188 3525 
Q 2259 3700 2278 3859 
L 1325 3859 
Q 1297 3703 1247 3525 
L 2188 3525 
z
M 5006 4519 
L 4097 4519 
L 4097 4172 
L 5006 4172 
L 5006 4519 
z
M 1688 1838 
L 1688 1497 
L 4744 1497 
L 4744 1838 
L 1688 1838 
z
M 1688 1197 
L 1688 838 
L 4744 838 
L 4744 1197 
L 1688 1197 
z
M 500 -141 
Q 1594 78 2303 488 
L 2681 197 
Q 1756 -309 806 -525 
L 500 -141 
z
M 5556 -494 
Q 4550 -66 3622 184 
L 3950 481 
Q 4759 300 5913 -128 
L 5556 -494 
z
" transform="scale(0.015625)"/>
       <path id="IPAexGothic-20" transform="scale(0.015625)"/>
       <path id="IPAexGothic-28" d="M 1928 -1016 
L 1653 -1166 
Q 488 69 488 1875 
Q 488 3678 1653 4909 
L 1928 4763 
Q 1006 3522 1006 1881 
Q 1006 203 1928 -1016 
z
" transform="scale(0.015625)"/>
       <path id="IPAexGothic-4d" d="M 5147 63 
L 4597 63 
L 4597 2534 
Q 4597 3281 4634 4134 
L 4609 4134 
Q 4356 3409 4066 2675 
L 3066 209 
L 2650 209 
L 1641 2725 
Q 1328 3506 1128 4141 
L 1103 4141 
Q 1141 3131 1141 2553 
L 1141 63 
L 609 63 
L 609 4634 
L 1416 4634 
L 2503 1944 
Q 2697 1472 2869 906 
L 2888 906 
Q 3028 1416 3234 1931 
L 4316 4634 
L 5147 4634 
L 5147 63 
z
" transform="scale(0.015625)"/>
       <path id="IPAexGothic-50" d="M 609 4634 
L 1941 4634 
Q 3688 4634 3688 3322 
Q 3688 1934 1906 1934 
L 1172 1934 
L 1172 63 
L 609 63 
L 609 4634 
z
M 1172 2381 
L 1800 2381 
Q 3100 2381 3100 3316 
Q 3100 4181 1894 4181 
L 1172 4181 
L 1172 2381 
z
" transform="scale(0.015625)"/>
       <path id="IPAexGothic-47" d="M 4403 781 
Q 4172 494 3731 250 
Q 3209 -31 2591 -31 
Q 1606 -31 988 628 
Q 378 1275 378 2325 
Q 378 3406 1013 4078 
Q 1619 4725 2534 4725 
Q 3800 4725 4325 3628 
L 3816 3391 
Q 3422 4238 2541 4238 
Q 1891 4238 1453 3744 
Q 994 3216 994 2328 
Q 994 1531 1397 1022 
Q 1844 459 2625 459 
Q 3459 459 3878 966 
L 3878 1856 
L 2859 1856 
L 2859 2291 
L 4403 2291 
L 4403 781 
z
" transform="scale(0.015625)"/>
       <path id="IPAexGothic-29" d="M 466 4909 
Q 1638 3672 1638 1875 
Q 1638 75 466 -1166 
L 191 -1016 
Q 1119 216 1119 1881 
Q 1119 3509 191 4763 
L 466 4909 
z
" transform="scale(0.015625)"/>
      </defs>
      <use xlink:href="#IPAexGothic-71c3"/>
      <use xlink:href="#IPAexGothic-8cbb" transform="translate(100 0)"/>
      <use xlink:href="#IPAexGothic-20" transform="translate(200 0)"/>
      <use xlink:href="#IPAexGothic-28" transform="translate(227.001953 0)"/>
      <use xlink:href="#IPAexGothic-4d" transform="translate(260.302734 0)"/>
      <use xlink:href="#IPAexGothic-50" transform="translate(350.488281 0)"/>
      <use xlink:href="#IPAexGothic-47" transform="translate(412.597656 0)"/>
      <use xlink:href="#IPAexGothic-29" transform="translate(487.890625 0)"/>
     </g>
    </g>
   </g>
   <g id="patch_3">
    <path d="M 61.528708 202.056905 
L 160.748375 202.056905 
L 160.748375 155.934081 
L 61.528708 155.934081 
L 61.528708 202.056905 
z
" clip-path="url(#p9fcd472554)" style="fill: #72b6a1; stroke: #595959; stroke-linejoin: miter"/>
   </g>
   <g id="line2d_20">
    <path d="M 111.138542 202.056905 
L 111.138542 232.805455 
" clip-path="url(#p9fcd472554)" style="fill: none; stroke: #595959"/>
   </g>
   <g id="line2d_21">
    <path d="M 111.138542 155.934081 
L 111.138542 93.924507 
" clip-path="url(#p9fcd472554)" style="fill: none; stroke: #595959"/>
   </g>
   <g id="line2d_22">
    <path d="M 86.333625 232.805455 
L 135.943458 232.805455 
" clip-path="url(#p9fcd472554)" style="fill: none; stroke: #595959; stroke-linecap: square"/>
   </g>
   <g id="line2d_23">
    <path d="M 86.333625 93.924507 
L 135.943458 93.924507 
" clip-path="url(#p9fcd472554)" style="fill: none; stroke: #595959; stroke-linecap: square"/>
   </g>
   <g id="line2d_24">
    <defs>
     <path id="m0a68175845" d="M 0 4 
C 1.060812 4 2.078319 3.578535 2.828427 2.828427 
C 3.578535 2.078319 4 1.060812 4 0 
C 4 -1.060812 3.578535 -2.078319 2.828427 -2.828427 
C 2.078319 -3.578535 1.060812 -4 0 -4 
C -1.060812 -4 -2.078319 -3.578535 -2.828427 -2.828427 
C -3.578535 -2.078319 -4 -1.060812 -4 0 
C -4 1.060812 -3.578535 2.078319 -2.828427 2.828427 
C -2.078319 3.578535 -1.060812 4 0 4 
z
" style="stroke: #595959"/>
    </defs>
    <g clip-path="url(#p9fcd472554)">
     <use xlink:href="#m0a68175845" x="111.138542" y="79.062708" style="fill-opacity: 0; stroke: #595959"/>
     <use xlink:href="#m0a68175845" x="111.138542" y="84.187466" style="fill-opacity: 0; stroke: #595959"/>
     <use xlink:href="#m0a68175845" x="111.138542" y="84.187466" style="fill-opacity: 0; stroke: #595959"/>
    </g>
   </g>
   <g id="patch_4">
    <path d="M 185.553292 147.221992 
L 284.772958 147.221992 
L 284.772958 104.430261 
L 185.553292 104.430261 
L 185.553292 147.221992 
z
" clip-path="url(#p9fcd472554)" style="fill: #e99675; stroke: #595959; stroke-linejoin: miter"/>
   </g>
   <g id="line2d_25">
    <path d="M 235.163125 147.221992 
L 235.163125 186.682631 
" clip-path="url(#p9fcd472554)" style="fill: none; stroke: #595959"/>
   </g>
   <g id="line2d_26">
    <path d="M 235.163125 104.430261 
L 235.163125 50.364062 
" clip-path="url(#p9fcd472554)" style="fill: none; stroke: #595959"/>
   </g>
   <g id="line2d_27">
    <path d="M 210.358208 186.682631 
L 259.968042 186.682631 
" clip-path="url(#p9fcd472554)" style="fill: none; stroke: #595959; stroke-linecap: square"/>
   </g>
   <g id="line2d_28">
    <path d="M 210.358208 50.364062 
L 259.968042 50.364062 
" clip-path="url(#p9fcd472554)" style="fill: none; stroke: #595959; stroke-linecap: square"/>
   </g>
   <g id="line2d_29">
    <g clip-path="url(#p9fcd472554)">
     <use xlink:href="#m0a68175845" x="235.163125" y="40.114545" style="fill-opacity: 0; stroke: #595959"/>
    </g>
   </g>
   <g id="patch_5">
    <path d="M 309.577875 155.934081 
L 408.797542 155.934081 
L 408.797542 121.854439 
L 309.577875 121.854439 
L 309.577875 155.934081 
z
" clip-path="url(#p9fcd472554)" style="fill: #95a3c3; stroke: #595959; stroke-linejoin: miter"/>
   </g>
   <g id="line2d_30">
    <path d="M 359.187708 155.934081 
L 359.187708 195.907195 
" clip-path="url(#p9fcd472554)" style="fill: none; stroke: #595959"/>
   </g>
   <g id="line2d_31">
    <path d="M 359.187708 121.854439 
L 359.187708 87.774797 
" clip-path="url(#p9fcd472554)" style="fill: none; stroke: #595959"/>
   </g>
   <g id="line2d_32">
    <path d="M 334.382792 195.907195 
L 383.992625 195.907195 
" clip-path="url(#p9fcd472554)" style="fill: none; stroke: #595959; stroke-linecap: square"/>
   </g>
   <g id="line2d_33">
    <path d="M 334.382792 87.774797 
L 383.992625 87.774797 
" clip-path="url(#p9fcd472554)" style="fill: none; stroke: #595959; stroke-linecap: square"/>
   </g>
   <g id="line2d_34">
    <g clip-path="url(#p9fcd472554)">
     <use xlink:href="#m0a68175845" x="359.187708" y="58.051199" style="fill-opacity: 0; stroke: #595959"/>
     <use xlink:href="#m0a68175845" x="359.187708" y="66.250812" style="fill-opacity: 0; stroke: #595959"/>
     <use xlink:href="#m0a68175845" x="359.187708" y="51.901489" style="fill-opacity: 0; stroke: #595959"/>
     <use xlink:href="#m0a68175845" x="359.187708" y="56.513772" style="fill-opacity: 0; stroke: #595959"/>
     <use xlink:href="#m0a68175845" x="359.187708" y="69.325667" style="fill-opacity: 0; stroke: #595959"/>
     <use xlink:href="#m0a68175845" x="359.187708" y="53.438917" style="fill-opacity: 0; stroke: #595959"/>
    </g>
   </g>
   <g id="line2d_35">
    <path d="M 61.528708 184.120251 
L 160.748375 184.120251 
" clip-path="url(#p9fcd472554)" style="fill: none; stroke: #595959"/>
   </g>
   <g id="line2d_36">
    <path d="M 185.553292 116.985919 
L 284.772958 116.985919 
" clip-path="url(#p9fcd472554)" style="fill: none; stroke: #595959"/>
   </g>
   <g id="line2d_37">
    <path d="M 309.577875 143.122186 
L 408.797542 143.122186 
" clip-path="url(#p9fcd472554)" style="fill: none; stroke: #595959"/>
   </g>
   <g id="text_14">
    <!-- 地域別燃費の箱ひげ図 -->
    <g transform="translate(148.763125 24.48) scale(0.1728 -0.1728)">
     <defs>
      <path id="IPAexGothic-5225" d="M 1922 2963 
Q 1906 2453 1894 2209 
L 3341 2209 
Q 3313 550 3175 63 
Q 3059 -366 2413 -366 
Q 2072 -366 1753 -313 
L 1691 134 
Q 2084 63 2413 63 
Q 2694 63 2759 319 
Q 2856 722 2888 1753 
Q 2888 1800 2894 1819 
L 1863 1819 
Q 1709 350 700 -481 
L 353 -147 
Q 1075 403 1306 1256 
Q 1450 1822 1478 2963 
L 700 2963 
L 700 4984 
L 3278 4984 
L 3278 2963 
L 1922 2963 
z
M 1141 4588 
L 1141 3353 
L 2838 3353 
L 2838 4588 
L 1141 4588 
z
M 3972 4597 
L 4425 4597 
L 4425 1159 
L 3972 1159 
L 3972 4597 
z
M 5309 5044 
L 5763 5044 
L 5763 191 
Q 5763 -141 5581 -263 
Q 5438 -359 5116 -359 
Q 4688 -359 4253 -313 
L 4156 178 
Q 4625 116 5072 116 
Q 5309 116 5309 353 
L 5309 5044 
z
" transform="scale(0.015625)"/>
      <path id="IPAexGothic-306e" d="M 3119 469 
Q 5275 766 5275 2425 
Q 5275 3453 4413 3925 
Q 4041 4116 3547 4159 
Q 3394 2525 2850 1400 
Q 2322 306 1722 306 
Q 1384 306 1084 666 
Q 609 1244 609 2003 
Q 609 3025 1397 3794 
Q 2184 4563 3431 4563 
Q 4306 4563 4928 4122 
Q 5813 3506 5813 2425 
Q 5813 438 3431 6 
L 3119 469 
z
M 3053 4147 
Q 2378 4044 1891 3641 
Q 1097 2981 1097 1991 
Q 1097 1366 1434 978 
Q 1581 813 1719 813 
Q 2022 813 2416 1625 
Q 2909 2638 3053 4147 
z
" transform="scale(0.015625)"/>
      <path id="IPAexGothic-7bb1" d="M 1534 1588 
Q 1169 800 594 188 
L 325 563 
Q 1091 1253 1484 2228 
L 403 2228 
L 403 2619 
L 1534 2619 
L 1534 3450 
L 1950 3450 
L 1950 2619 
L 3025 2619 
L 3025 2228 
L 1950 2228 
L 1950 1863 
Q 2566 1463 2981 1075 
L 2725 684 
Q 2391 1059 1950 1441 
L 1950 -441 
L 1534 -441 
L 1534 1588 
z
M 1509 4659 
L 3206 4659 
L 3206 4288 
L 2284 4288 
Q 2459 3925 2584 3578 
L 2156 3409 
Q 2006 3906 1838 4288 
L 1344 4288 
Q 1053 3697 634 3275 
L 294 3572 
Q 925 4228 1278 5306 
L 1703 5203 
Q 1588 4844 1509 4659 
z
M 3963 4659 
L 6078 4659 
L 6078 4288 
L 4697 4288 
Q 4909 3950 5063 3616 
L 4625 3441 
Q 4463 3875 4231 4288 
L 3819 4288 
Q 3616 3791 3309 3347 
L 2931 3584 
Q 3422 4256 3700 5300 
L 4116 5216 
Q 4056 4966 3963 4659 
z
M 5822 3181 
L 5822 -447 
L 5400 -447 
L 5400 -153 
L 3700 -153 
L 3700 -441 
L 3278 -441 
L 3278 3181 
L 5822 3181 
z
M 3700 2803 
L 3700 2203 
L 5400 2203 
L 5400 2803 
L 3700 2803 
z
M 3700 1844 
L 3700 1244 
L 5400 1244 
L 5400 1844 
L 3700 1844 
z
M 3700 884 
L 3700 231 
L 5400 231 
L 5400 884 
L 3700 884 
z
" transform="scale(0.015625)"/>
      <path id="IPAexGothic-3072" d="M 550 3828 
Q 1725 4038 2784 4494 
L 3053 4091 
Q 1594 2788 1594 1575 
Q 1594 1044 1888 694 
Q 2216 309 2759 309 
Q 3472 309 3872 909 
Q 4213 1425 4213 2547 
Q 4213 3550 3988 4238 
L 4428 4409 
Q 4900 3409 5972 2209 
L 5594 1806 
Q 5016 2534 4513 3513 
Q 4653 2678 4653 2197 
Q 4653 1178 4275 578 
Q 3784 -191 2747 -191 
Q 2009 -191 1534 303 
Q 1088 769 1088 1519 
Q 1088 2653 2291 3884 
Q 1663 3597 763 3378 
L 550 3828 
z
" transform="scale(0.015625)"/>
      <path id="IPAexGothic-3052" d="M 5291 4213 
Q 5144 4731 4941 5113 
L 5297 5247 
Q 5528 4856 5669 4372 
L 5291 4213 
z
M 5925 4469 
Q 5778 4925 5541 5325 
L 5900 5478 
Q 6125 5125 6297 4634 
L 5925 4469 
z
M 2463 3481 
Q 2800 3463 3128 3463 
Q 3600 3463 4247 3506 
Q 4213 4434 4159 4897 
L 4672 4897 
Q 4678 4772 4734 3566 
Q 5228 3634 5619 3744 
L 5656 3291 
Q 5266 3159 4747 3109 
Q 4753 2875 4753 2606 
Q 4753 1434 4484 856 
Q 4159 138 3256 -313 
L 2847 56 
Q 3719 441 4003 1006 
Q 4272 1525 4272 2625 
Q 4272 2853 4269 3059 
Q 3631 3009 3084 3009 
Q 2700 3009 2500 3022 
L 2463 3481 
z
M 1834 2088 
L 2163 1881 
Q 1606 872 1588 166 
L 1169 72 
Q 850 1184 850 2272 
Q 850 3181 1253 4872 
L 1728 4750 
Q 1325 3166 1325 2163 
Q 1325 1722 1400 1222 
L 1834 2088 
z
" transform="scale(0.015625)"/>
      <path id="IPAexGothic-56f3" d="M 3375 1428 
Q 2606 747 1625 447 
L 1356 831 
Q 2297 1091 2966 1631 
L 2791 1709 
Q 2138 2022 1338 2328 
L 1575 2669 
Q 2356 2375 3297 1941 
Q 4069 2759 4422 4178 
L 4853 4013 
Q 4456 2588 3694 1747 
Q 4313 1434 5000 1050 
L 4706 666 
Q 4113 1041 3431 1394 
L 3375 1428 
z
M 2131 2681 
Q 1897 3466 1625 3903 
L 2038 4084 
Q 2331 3563 2559 2869 
L 2131 2681 
z
M 3169 2834 
Q 2934 3603 2663 4056 
L 3059 4225 
Q 3366 3728 3597 3022 
L 3169 2834 
z
M 5769 4984 
L 5769 -447 
L 5300 -447 
L 5300 -128 
L 1097 -128 
L 1097 -447 
L 628 -447 
L 628 4984 
L 5769 4984 
z
M 1097 4575 
L 1097 275 
L 5300 275 
L 5300 4575 
L 1097 4575 
z
" transform="scale(0.015625)"/>
     </defs>
     <use xlink:href="#IPAexGothic-5730"/>
     <use xlink:href="#IPAexGothic-57df" transform="translate(100 0)"/>
     <use xlink:href="#IPAexGothic-5225" transform="translate(200 0)"/>
     <use xlink:href="#IPAexGothic-71c3" transform="translate(300 0)"/>
     <use xlink:href="#IPAexGothic-8cbb" transform="translate(400 0)"/>
     <use xlink:href="#IPAexGothic-306e" transform="translate(500 0)"/>
     <use xlink:href="#IPAexGothic-7bb1" transform="translate(600 0)"/>
     <use xlink:href="#IPAexGothic-3072" transform="translate(700 0)"/>
     <use xlink:href="#IPAexGothic-3052" transform="translate(800 0)"/>
     <use xlink:href="#IPAexGothic-56f3" transform="translate(900 0)"/>
    </g>
   </g>
  </g>
 </g>
 <defs>
  <clipPath id="p9fcd472554">
   <rect x="49.12625" y="30.48" width="372.07375" height="211.96"/>
  </clipPath>
 </defs>
</svg>
