<?xml version="1.0" encoding="utf-8" standalone="no"?>
<!DOCTYPE svg PUBLIC "-//W3C//DTD SVG 1.1//EN"
  "http://www.w3.org/Graphics/SVG/1.1/DTD/svg11.dtd">
<svg xmlns:xlink="http://www.w3.org/1999/xlink" width="432pt" height="288pt" viewBox="0 0 432 288" xmlns="http://www.w3.org/2000/svg" version="1.1">
 <metadata>
  <rdf:RDF xmlns:dc="http://purl.org/dc/elements/1.1/" xmlns:cc="http://creativecommons.org/ns#" xmlns:rdf="http://www.w3.org/1999/02/22-rdf-syntax-ns#">
   <cc:Work>
    <dc:type rdf:resource="http://purl.org/dc/dcmitype/StillImage"/>
    <dc:date>2025-10-29T09:07:46.293066</dc:date>
    <dc:format>image/svg+xml</dc:format>
    <dc:creator>
     <cc:Agent>
      <dc:title>Matplotlib v3.10.7, https://matplotlib.org/</dc:title>
     </cc:Agent>
    </dc:creator>
   </cc:Work>
  </rdf:RDF>
 </metadata>
 <defs>
  <style type="text/css">*{stroke-linejoin: round; stroke-linecap: butt}</style>
 </defs>
 <g id="figure_1">
  <g id="patch_1">
   <path d="M 0 288 
L 432 288 
L 432 0 
L 0 0 
z
" style="fill: #ffffff"/>
  </g>
  <g id="axes_1">
   <g id="patch_2">
    <path d="M 51.5 242.44 
L 421.2 242.44 
L 421.2 30.48 
L 51.5 30.48 
z
" style="fill: #ffffff"/>
   </g>
   <g id="matplotlib.axis_1">
    <g id="xtick_1">
     <g id="line2d_1">
      <path d="M 100.721788 242.44 
L 100.721788 30.48 
" clip-path="url(#pd220b64cc3)" style="fill: none; stroke: #000000; stroke-opacity: 0.2; stroke-width: 0.5; stroke-linecap: square"/>
     </g>
     <g id="line2d_2">
      <defs>
       <path id="ma89faf0b94" d="M 0 0 
L 0 3.5 
" style="stroke: #000000; stroke-width: 0.8"/>
      </defs>
      <g>
       <use xlink:href="#ma89faf0b94" x="100.721788" y="242.44" style="stroke: #000000; stroke-width: 0.8"/>
      </g>
     </g>
     <g id="text_1">
      <!-- 0 -->
      <g transform="translate(97.572569 256.930625) scale(0.1 -0.1)">
       <defs>
        <path id="IPAexGothic-30" d="M 2038 4725 
Q 2881 4725 3334 3944 
Q 3694 3325 3694 2344 
Q 3694 1372 3334 741 
Q 2888 -31 2016 -31 
Q 1147 -31 700 741 
Q 341 1372 341 2350 
Q 341 3713 1000 4334 
Q 1419 4725 2038 4725 
z
M 2016 4266 
Q 1516 4266 1228 3759 
Q 934 3247 934 2344 
Q 934 1456 1222 947 
Q 1513 447 2016 447 
Q 2619 447 2909 1153 
Q 3100 1622 3100 2375 
Q 3100 3256 2806 3759 
Q 2509 4266 2016 4266 
z
" transform="scale(0.015625)"/>
       </defs>
       <use xlink:href="#IPAexGothic-30"/>
      </g>
     </g>
    </g>
    <g id="xtick_2">
     <g id="line2d_3">
      <path d="M 169.3943 242.44 
L 169.3943 30.48 
" clip-path="url(#pd220b64cc3)" style="fill: none; stroke: #000000; stroke-opacity: 0.2; stroke-width: 0.5; stroke-linecap: square"/>
     </g>
     <g id="line2d_4">
      <g>
       <use xlink:href="#ma89faf0b94" x="169.3943" y="242.44" style="stroke: #000000; stroke-width: 0.8"/>
      </g>
     </g>
     <g id="text_2">
      <!-- 2 -->
      <g transform="translate(166.245081 256.930625) scale(0.1 -0.1)">
       <defs>
        <path id="IPAexGothic-32" d="M 3659 63 
L 447 63 
L 447 594 
Q 825 1475 1894 2203 
L 2072 2322 
Q 2619 2697 2791 2906 
Q 2988 3153 2988 3444 
Q 2988 3772 2756 4003 
Q 2500 4259 2084 4259 
Q 1250 4259 991 3328 
L 497 3506 
Q 853 4725 2116 4725 
Q 2806 4725 3216 4316 
Q 3575 3947 3575 3425 
Q 3575 3038 3344 2722 
Q 3131 2416 2366 1938 
L 2231 1856 
Q 1256 1253 978 569 
L 3659 569 
L 3659 63 
z
" transform="scale(0.015625)"/>
       </defs>
       <use xlink:href="#IPAexGothic-32"/>
      </g>
     </g>
    </g>
    <g id="xtick_3">
     <g id="line2d_5">
      <path d="M 238.066813 242.44 
L 238.066813 30.48 
" clip-path="url(#pd220b64cc3)" style="fill: none; stroke: #000000; stroke-opacity: 0.2; stroke-width: 0.5; stroke-linecap: square"/>
     </g>
     <g id="line2d_6">
      <g>
       <use xlink:href="#ma89faf0b94" x="238.066813" y="242.44" style="stroke: #000000; stroke-width: 0.8"/>
      </g>
     </g>
     <g id="text_3">
      <!-- 4 -->
      <g transform="translate(234.917594 256.930625) scale(0.1 -0.1)">
       <defs>
        <path id="IPAexGothic-34" d="M 3813 1159 
L 3059 1159 
L 3059 63 
L 2547 63 
L 2547 1159 
L 197 1159 
L 197 1672 
L 2456 4678 
L 3059 4678 
L 3059 1634 
L 3813 1634 
L 3813 1159 
z
M 2578 4109 
L 2559 4109 
Q 2278 3656 2003 3284 
L 759 1634 
L 2547 1634 
L 2547 3144 
Q 2547 3481 2578 4109 
z
" transform="scale(0.015625)"/>
       </defs>
       <use xlink:href="#IPAexGothic-34"/>
      </g>
     </g>
    </g>
    <g id="xtick_4">
     <g id="line2d_7">
      <path d="M 306.739325 242.44 
L 306.739325 30.48 
" clip-path="url(#pd220b64cc3)" style="fill: none; stroke: #000000; stroke-opacity: 0.2; stroke-width: 0.5; stroke-linecap: square"/>
     </g>
     <g id="line2d_8">
      <g>
       <use xlink:href="#ma89faf0b94" x="306.739325" y="242.44" style="stroke: #000000; stroke-width: 0.8"/>
      </g>
     </g>
     <g id="text_4">
      <!-- 6 -->
      <g transform="translate(303.590107 256.930625) scale(0.1 -0.1)">
       <defs>
        <path id="IPAexGothic-36" d="M 1056 2328 
Q 1509 2981 2234 2981 
Q 2906 2981 3316 2513 
Q 3675 2106 3675 1522 
Q 3675 884 3272 434 
Q 2853 -31 2178 -31 
Q 1375 -31 922 581 
Q 481 1178 481 2228 
Q 481 3425 1013 4109 
Q 1494 4725 2272 4725 
Q 3191 4725 3609 4025 
L 3150 3775 
Q 2894 4266 2300 4266 
Q 1119 4266 1031 2328 
L 1056 2328 
z
M 2141 2547 
Q 1684 2547 1384 2206 
Q 1116 1900 1116 1541 
Q 1116 1156 1353 844 
Q 1672 428 2159 428 
Q 2669 428 2941 844 
Q 3125 1128 3125 1503 
Q 3125 1944 2881 2228 
Q 2600 2547 2141 2547 
z
" transform="scale(0.015625)"/>
       </defs>
       <use xlink:href="#IPAexGothic-36"/>
      </g>
     </g>
    </g>
    <g id="xtick_5">
     <g id="line2d_9">
      <path d="M 375.411838 242.44 
L 375.411838 30.48 
" clip-path="url(#pd220b64cc3)" style="fill: none; stroke: #000000; stroke-opacity: 0.2; stroke-width: 0.5; stroke-linecap: square"/>
     </g>
     <g id="line2d_10">
      <g>
       <use xlink:href="#ma89faf0b94" x="375.411838" y="242.44" style="stroke: #000000; stroke-width: 0.8"/>
      </g>
     </g>
     <g id="text_5">
      <!-- 8 -->
      <g transform="translate(372.262619 256.930625) scale(0.1 -0.1)">
       <defs>
        <path id="IPAexGothic-38" d="M 2541 2425 
Q 3700 2031 3700 1197 
Q 3700 541 3100 197 
Q 2663 -56 2016 -56 
Q 1366 -56 928 197 
Q 347 531 347 1178 
Q 347 1988 1409 2381 
L 1409 2400 
Q 481 2734 481 3509 
Q 481 4100 981 4456 
Q 1406 4756 2019 4756 
Q 2703 4756 3131 4403 
Q 3553 4069 3553 3566 
Q 3553 2706 2541 2444 
L 2541 2425 
z
M 2022 2625 
Q 2997 2856 2997 3528 
Q 2997 3916 2675 4150 
Q 2413 4347 2016 4347 
Q 1606 4347 1331 4128 
Q 1050 3897 1050 3522 
Q 1050 3150 1350 2925 
Q 1494 2809 1722 2722 
Q 1984 2616 2022 2625 
z
M 1978 2209 
Q 922 1931 922 1216 
Q 922 775 1313 556 
Q 1606 391 2009 391 
Q 2575 391 2881 697 
Q 3106 922 3106 1250 
Q 3106 1594 2794 1850 
Q 2609 1994 2350 2100 
Q 2047 2222 1978 2209 
z
" transform="scale(0.015625)"/>
       </defs>
       <use xlink:href="#IPAexGothic-38"/>
      </g>
     </g>
    </g>
    <g id="text_6">
     <!-- 測定値 -->
     <g transform="translate(214.75 273.617125) scale(0.144 -0.144)">
      <defs>
       <path id="IPAexGothic-6e2c" d="M 3856 4884 
L 3856 1081 
L 2059 1081 
L 2059 4884 
L 3856 4884 
z
M 2456 4494 
L 2456 3756 
L 3459 3756 
L 3459 4494 
L 2456 4494 
z
M 2456 3384 
L 2456 2656 
L 3459 2656 
L 3459 3384 
L 2456 3384 
z
M 2456 2284 
L 2456 1478 
L 3459 1478 
L 3459 2284 
L 2456 2284 
z
M 1413 3891 
Q 1000 4428 556 4763 
L 856 5100 
Q 1309 4753 1734 4269 
L 1413 3891 
z
M 1222 2394 
Q 816 2878 325 3256 
L 625 3591 
Q 1141 3231 1528 2778 
L 1222 2394 
z
M 375 -78 
Q 916 800 1297 1906 
L 1669 1619 
Q 1284 478 759 -428 
L 375 -78 
z
M 3819 -256 
Q 3478 319 3128 716 
L 3469 966 
Q 3834 581 4172 63 
L 3819 -256 
z
M 4378 4513 
L 4806 4513 
L 4806 959 
L 4378 959 
L 4378 4513 
z
M 1638 -109 
Q 2103 300 2450 984 
L 2828 763 
Q 2425 -6 1944 -488 
L 1638 -109 
z
M 5419 5081 
L 5853 5081 
L 5853 109 
Q 5853 -391 5297 -391 
Q 4919 -391 4541 -359 
L 4441 109 
Q 4928 50 5219 50 
Q 5419 50 5419 244 
L 5419 5081 
z
" transform="scale(0.015625)"/>
       <path id="IPAexGothic-5b9a" d="M 3431 303 
Q 3931 225 4709 225 
Q 5191 225 6053 263 
Q 5963 59 5888 -228 
Q 5234 -250 4844 -250 
Q 3569 -250 3003 -78 
Q 2259 153 1750 903 
Q 1441 163 806 -459 
L 475 -75 
Q 1416 759 1684 2419 
L 2125 2303 
Q 2031 1756 1909 1356 
Q 2338 678 2972 416 
L 2972 2944 
L 1434 2944 
L 1434 3353 
L 4959 3353 
L 4959 2944 
L 3431 2944 
L 3431 1984 
L 5397 1984 
L 5397 1569 
L 3431 1569 
L 3431 303 
z
M 3419 4428 
L 5750 4428 
L 5750 3166 
L 5275 3166 
L 5275 4025 
L 1122 4025 
L 1122 3166 
L 647 3166 
L 647 4428 
L 2938 4428 
L 2938 5313 
L 3419 5313 
L 3419 4428 
z
" transform="scale(0.015625)"/>
       <path id="IPAexGothic-5024" d="M 4172 3675 
L 5453 3675 
L 5453 684 
L 3019 684 
L 3019 3675 
L 3750 3675 
Q 3788 3884 3825 4153 
L 2141 4153 
L 2141 4544 
L 3884 4544 
Q 3922 4844 3966 5325 
L 4434 5272 
L 4388 4953 
Q 4331 4578 4331 4544 
L 5863 4544 
L 5863 4153 
L 4269 4153 
Q 4200 3781 4172 3675 
z
M 5038 3316 
L 3434 3316 
L 3434 2803 
L 5038 2803 
L 5038 3316 
z
M 3434 2450 
L 3434 1941 
L 5038 1941 
L 5038 2450 
L 3434 2450 
z
M 3434 1588 
L 3434 1044 
L 5038 1044 
L 5038 1588 
L 3434 1588 
z
M 1509 3669 
L 1509 -447 
L 1069 -447 
L 1069 2725 
Q 856 2338 531 1875 
L 288 2266 
Q 1163 3531 1541 5325 
L 1975 5222 
Q 1791 4378 1509 3669 
z
M 2488 244 
L 6031 244 
L 6031 -153 
L 2488 -153 
L 2488 -447 
L 2059 -447 
L 2059 3213 
L 2488 3213 
L 2488 244 
z
" transform="scale(0.015625)"/>
      </defs>
      <use xlink:href="#IPAexGothic-6e2c"/>
      <use xlink:href="#IPAexGothic-5b9a" transform="translate(100 0)"/>
      <use xlink:href="#IPAexGothic-5024" transform="translate(200 0)"/>
     </g>
    </g>
   </g>
   <g id="matplotlib.axis_2">
    <g id="ytick_1">
     <g id="line2d_11">
      <path d="M 51.5 242.44 
L 421.2 242.44 
" clip-path="url(#pd220b64cc3)" style="fill: none; stroke: #000000; stroke-opacity: 0.2; stroke-width: 0.5; stroke-linecap: square"/>
     </g>
     <g id="line2d_12">
      <defs>
       <path id="md0f45e9fbc" d="M 0 0 
L -3.5 0 
" style="stroke: #000000; stroke-width: 0.8"/>
      </defs>
      <g>
       <use xlink:href="#md0f45e9fbc" x="51.5" y="242.44" style="stroke: #000000; stroke-width: 0.8"/>
      </g>
     </g>
     <g id="text_7">
      <!-- 0.0 -->
      <g transform="translate(29.260938 246.185312) scale(0.1 -0.1)">
       <defs>
        <path id="IPAexGothic-2e" d="M 1184 63 
L 494 63 
L 494 753 
L 1184 753 
L 1184 63 
z
" transform="scale(0.015625)"/>
       </defs>
       <use xlink:href="#IPAexGothic-30"/>
       <use xlink:href="#IPAexGothic-2e" transform="translate(62.988281 0)"/>
       <use xlink:href="#IPAexGothic-30" transform="translate(89.404297 0)"/>
      </g>
     </g>
    </g>
    <g id="ytick_2">
     <g id="line2d_13">
      <path d="M 51.5 201.314222 
L 421.2 201.314222 
" clip-path="url(#pd220b64cc3)" style="fill: none; stroke: #000000; stroke-opacity: 0.2; stroke-width: 0.5; stroke-linecap: square"/>
     </g>
     <g id="line2d_14">
      <g>
       <use xlink:href="#md0f45e9fbc" x="51.5" y="201.314222" style="stroke: #000000; stroke-width: 0.8"/>
      </g>
     </g>
     <g id="text_8">
      <!-- 0.2 -->
      <g transform="translate(29.260938 205.059535) scale(0.1 -0.1)">
       <use xlink:href="#IPAexGothic-30"/>
       <use xlink:href="#IPAexGothic-2e" transform="translate(62.988281 0)"/>
       <use xlink:href="#IPAexGothic-32" transform="translate(89.404297 0)"/>
      </g>
     </g>
    </g>
    <g id="ytick_3">
     <g id="line2d_15">
      <path d="M 51.5 160.188445 
L 421.2 160.188445 
" clip-path="url(#pd220b64cc3)" style="fill: none; stroke: #000000; stroke-opacity: 0.2; stroke-width: 0.5; stroke-linecap: square"/>
     </g>
     <g id="line2d_16">
      <g>
       <use xlink:href="#md0f45e9fbc" x="51.5" y="160.188445" style="stroke: #000000; stroke-width: 0.8"/>
      </g>
     </g>
     <g id="text_9">
      <!-- 0.4 -->
      <g transform="translate(29.260938 163.933757) scale(0.1 -0.1)">
       <use xlink:href="#IPAexGothic-30"/>
       <use xlink:href="#IPAexGothic-2e" transform="translate(62.988281 0)"/>
       <use xlink:href="#IPAexGothic-34" transform="translate(89.404297 0)"/>
      </g>
     </g>
    </g>
    <g id="ytick_4">
     <g id="line2d_17">
      <path d="M 51.5 119.062667 
L 421.2 119.062667 
" clip-path="url(#pd220b64cc3)" style="fill: none; stroke: #000000; stroke-opacity: 0.2; stroke-width: 0.5; stroke-linecap: square"/>
     </g>
     <g id="line2d_18">
      <g>
       <use xlink:href="#md0f45e9fbc" x="51.5" y="119.062667" style="stroke: #000000; stroke-width: 0.8"/>
      </g>
     </g>
     <g id="text_10">
      <!-- 0.6 -->
      <g transform="translate(29.260938 122.807979) scale(0.1 -0.1)">
       <use xlink:href="#IPAexGothic-30"/>
       <use xlink:href="#IPAexGothic-2e" transform="translate(62.988281 0)"/>
       <use xlink:href="#IPAexGothic-36" transform="translate(89.404297 0)"/>
      </g>
     </g>
    </g>
    <g id="ytick_5">
     <g id="line2d_19">
      <path d="M 51.5 77.936889 
L 421.2 77.936889 
" clip-path="url(#pd220b64cc3)" style="fill: none; stroke: #000000; stroke-opacity: 0.2; stroke-width: 0.5; stroke-linecap: square"/>
     </g>
     <g id="line2d_20">
      <g>
       <use xlink:href="#md0f45e9fbc" x="51.5" y="77.936889" style="stroke: #000000; stroke-width: 0.8"/>
      </g>
     </g>
     <g id="text_11">
      <!-- 0.8 -->
      <g transform="translate(29.260938 81.682202) scale(0.1 -0.1)">
       <use xlink:href="#IPAexGothic-30"/>
       <use xlink:href="#IPAexGothic-2e" transform="translate(62.988281 0)"/>
       <use xlink:href="#IPAexGothic-38" transform="translate(89.404297 0)"/>
      </g>
     </g>
    </g>
    <g id="ytick_6">
     <g id="line2d_21">
      <path d="M 51.5 36.811112 
L 421.2 36.811112 
" clip-path="url(#pd220b64cc3)" style="fill: none; stroke: #000000; stroke-opacity: 0.2; stroke-width: 0.5; stroke-linecap: square"/>
     </g>
     <g id="line2d_22">
      <g>
       <use xlink:href="#md0f45e9fbc" x="51.5" y="36.811112" style="stroke: #000000; stroke-width: 0.8"/>
      </g>
     </g>
     <g id="text_12">
      <!-- 1.0 -->
      <g transform="translate(29.260938 40.556424) scale(0.1 -0.1)">
       <defs>
        <path id="IPAexGothic-31" d="M 2463 63 
L 1900 63 
L 1900 4103 
Q 1372 3922 788 3797 
L 684 4231 
Q 1519 4441 2106 4731 
L 2463 4731 
L 2463 63 
z
" transform="scale(0.015625)"/>
       </defs>
       <use xlink:href="#IPAexGothic-31"/>
       <use xlink:href="#IPAexGothic-2e" transform="translate(62.988281 0)"/>
       <use xlink:href="#IPAexGothic-30" transform="translate(89.404297 0)"/>
      </g>
     </g>
    </g>
    <g id="text_13">
     <!-- 密度 -->
     <g transform="translate(22.524938 150.86) rotate(-90) scale(0.144 -0.144)">
      <defs>
       <path id="IPAexGothic-5bc6" d="M 2984 1575 
Q 2244 1575 2100 1691 
L 2069 1672 
Q 1416 1331 622 1088 
L 378 1441 
Q 1306 1703 1978 2047 
L 1978 3609 
L 2419 3609 
L 2419 2309 
Q 3500 3028 4188 4091 
L 4572 3909 
Q 3775 2731 2650 2009 
L 2606 1984 
Q 2638 1984 2656 1978 
Q 2778 1972 3100 1972 
Q 4025 1972 4109 2094 
Q 4194 2203 4194 2734 
L 4628 2613 
Q 4619 1869 4372 1703 
Q 4200 1591 3438 1581 
L 3438 250 
L 4847 250 
L 4847 1338 
L 5300 1338 
L 5300 -447 
L 4847 -447 
L 4847 -166 
L 1619 -166 
L 1619 -447 
L 1172 -447 
L 1172 1197 
L 1619 1197 
L 1619 250 
L 2984 250 
L 2984 1575 
z
M 3419 4538 
L 5781 4538 
L 5781 3391 
L 5313 3391 
L 5313 4153 
L 1075 4153 
L 1075 3391 
L 616 3391 
L 616 4538 
L 2938 4538 
L 2938 5313 
L 3419 5313 
L 3419 4538 
z
M 3131 3134 
Q 2866 3509 2484 3872 
L 2803 4094 
Q 3194 3781 3469 3397 
L 3131 3134 
z
M 703 2150 
Q 1091 2722 1294 3481 
L 1684 3366 
Q 1509 2575 1088 1894 
L 703 2150 
z
M 5434 1881 
Q 4988 2709 4469 3316 
L 4800 3553 
Q 5400 2894 5831 2175 
L 5434 1881 
z
" transform="scale(0.015625)"/>
       <path id="IPAexGothic-5ea6" d="M 3516 4622 
L 5794 4622 
L 5794 4231 
L 1278 4231 
L 1278 3547 
L 2328 3547 
L 2328 4041 
L 2759 4041 
L 2759 3547 
L 4097 3547 
L 4097 4041 
L 4525 4041 
L 4525 3547 
L 5825 3547 
L 5825 3163 
L 4525 3163 
L 4525 2266 
L 2328 2266 
L 2328 3163 
L 1278 3163 
L 1278 2747 
Q 1278 1434 1131 775 
Q 1006 203 606 -441 
L 269 -50 
Q 653 541 763 1381 
Q 825 1869 825 2747 
L 825 4622 
L 3034 4622 
L 3034 5313 
L 3516 5313 
L 3516 4622 
z
M 2759 3163 
L 2759 2619 
L 4097 2619 
L 4097 3163 
L 2759 3163 
z
M 3609 263 
Q 2784 -231 1472 -494 
L 1222 -97 
Q 2444 63 3213 491 
Q 2544 909 2119 1522 
L 1575 1522 
L 1575 1900 
L 4897 1900 
L 5125 1700 
Q 4628 994 3994 516 
Q 4769 200 5925 56 
L 5638 -397 
Q 4434 -163 3609 263 
z
M 2606 1522 
Q 2984 1044 3578 716 
Q 4163 1119 4422 1522 
L 2606 1522 
z
" transform="scale(0.015625)"/>
      </defs>
      <use xlink:href="#IPAexGothic-5bc6"/>
      <use xlink:href="#IPAexGothic-5ea6" transform="translate(100 0)"/>
     </g>
    </g>
   </g>
   <g id="line2d_23">
    <path d="M 217.054957 242.39349 
L 222.670113 242.205031 
L 226.41355 241.839969 
L 229.221127 241.31229 
L 231.092846 240.77878 
L 232.964564 240.055187 
L 234.836283 239.100828 
L 236.708001 237.875523 
L 238.57972 236.342197 
L 240.451438 234.469237 
L 242.323157 232.23223 
L 244.194875 229.61485 
L 246.066594 226.608981 
L 247.938312 223.214462 
L 249.810031 219.43915 
L 252.617608 213.102391 
L 255.425186 206.060804 
L 259.168623 195.944911 
L 263.847919 183.355087 
L 265.719637 178.797159 
L 267.591356 174.734861 
L 269.463074 171.28524 
L 271.334793 168.519324 
L 273.206511 166.450014 
L 274.142371 165.663701 
L 275.07823 165.028798 
L 276.949948 164.152898 
L 278.821667 163.682045 
L 280.693385 163.461756 
L 286.308541 163.040761 
L 290.051978 162.419741 
L 294.731274 161.618664 
L 297.538851 161.412358 
L 300.346429 161.471386 
L 304.089866 161.827379 
L 309.705021 162.590627 
L 312.512599 163.182752 
L 314.384318 163.783295 
L 316.256036 164.634395 
L 318.127755 165.804196 
L 319.999473 167.345477 
L 321.871191 169.289524 
L 323.74291 171.643731 
L 325.614628 174.392433 
L 327.486347 177.499894 
L 330.293925 182.716767 
L 334.037361 190.350211 
L 339.652517 201.971235 
L 342.460095 207.287191 
L 344.331813 210.499042 
L 346.203531 213.39452 
L 348.07525 215.949744 
L 349.946968 218.159649 
L 351.818687 220.038067 
L 353.690405 221.616671 
L 355.562124 222.942717 
L 358.369702 224.58999 
L 366.792435 229.057905 
L 369.600012 230.856755 
L 379.894464 237.855786 
L 382.702042 239.307728 
L 385.509619 240.423003 
L 388.317197 241.21736 
L 391.124775 241.742936 
L 394.868212 242.140774 
L 399.547508 242.351142 
L 403.290945 242.410384 
L 403.290945 242.410384 
" clip-path="url(#pd220b64cc3)" style="fill: none; stroke: #2563eb; stroke-width: 1.2; stroke-linecap: square"/>
   </g>
   <g id="line2d_24">
    <path d="M 152.912326 242.400706 
L 156.390848 242.215782 
L 158.709862 241.851966 
L 160.449123 241.336976 
L 162.188384 240.514344 
L 163.347891 239.744361 
L 164.507398 238.75762 
L 165.666905 237.51611 
L 166.826412 235.9778 
L 167.985919 234.098113 
L 169.145427 231.833991 
L 170.304934 229.150525 
L 171.464441 226.02882 
L 173.203702 220.539625 
L 174.942962 214.194137 
L 177.261977 204.753289 
L 180.160745 191.986538 
L 183.059513 178.368125 
L 185.378527 166.543871 
L 187.117788 156.777337 
L 188.857048 145.892575 
L 190.596309 133.596082 
L 192.33557 119.752953 
L 194.654584 99.21747 
L 198.133106 67.504776 
L 199.292613 58.223677 
L 200.45212 50.427241 
L 201.611627 44.62995 
L 202.191381 42.619864 
L 202.771134 41.258333 
L 203.350888 40.572371 
L 203.930642 40.574812 
L 204.510395 41.263245 
L 205.090149 42.619668 
L 205.669902 44.610906 
L 206.249656 47.189798 
L 207.409163 53.863939 
L 208.56867 62.070808 
L 211.467438 85.316963 
L 213.786452 103.091196 
L 216.105467 118.948737 
L 220.163742 144.49662 
L 222.482756 158.267676 
L 224.222017 167.536241 
L 225.961278 175.499251 
L 227.700538 182.202282 
L 230.019553 189.953127 
L 233.498074 201.497046 
L 237.556349 215.344282 
L 239.29561 220.424969 
L 240.455117 223.316592 
L 241.614624 225.793916 
L 242.774132 227.882424 
L 243.933639 229.630288 
L 245.6729 231.740835 
L 247.41216 233.408308 
L 249.731175 235.220173 
L 253.209696 237.574602 
L 256.688218 239.703755 
L 259.007232 240.841209 
L 260.746493 241.469429 
L 262.485753 241.900881 
L 264.804768 242.226975 
L 267.703536 242.387501 
L 268.283289 242.401596 
L 268.283289 242.401596 
" clip-path="url(#pd220b64cc3)" style="fill: none; stroke: #0ea5e9; stroke-width: 1.2; stroke-linecap: square"/>
   </g>
   <g id="line2d_25">
    <path d="M 68.304545 242.374667 
L 78.43794 242.153057 
L 85.193536 241.748335 
L 90.260233 241.174963 
L 93.638031 240.598 
L 97.015829 239.814741 
L 100.393627 238.777791 
L 103.771425 237.439711 
L 107.149223 235.75778 
L 110.527021 233.699962 
L 113.90482 231.251635 
L 117.282618 228.422354 
L 120.660416 225.25165 
L 125.727113 220.025163 
L 134.171608 211.111958 
L 137.549406 207.946916 
L 140.927204 205.269664 
L 142.616103 204.163349 
L 144.305002 203.234612 
L 145.993901 202.49742 
L 147.6828 201.962821 
L 149.371699 201.638639 
L 151.060598 201.52925 
L 152.749497 201.635439 
L 154.438397 201.954361 
L 156.127296 202.47959 
L 157.816195 203.201267 
L 159.505094 204.106334 
L 161.193993 205.178842 
L 164.571791 207.750304 
L 167.949589 210.746032 
L 179.771882 221.889258 
L 183.14968 224.568576 
L 186.527478 226.793484 
L 188.216377 227.711751 
L 189.905276 228.492036 
L 191.594175 229.130362 
L 193.283074 229.624507 
L 194.971974 229.973838 
L 196.660873 230.179126 
L 198.349772 230.242364 
L 200.038671 230.166591 
L 201.72757 229.955716 
L 203.416469 229.614375 
L 205.105368 229.147786 
L 208.483166 227.862 
L 211.860964 226.14798 
L 215.238762 224.059489 
L 218.61656 221.653479 
L 221.994358 218.98991 
L 227.061055 214.650635 
L 240.572248 202.707541 
L 243.950046 200.025099 
L 247.327844 197.600782 
L 250.705642 195.492963 
L 254.08344 193.750449 
L 257.461238 192.410629 
L 260.839036 191.498274 
L 264.216834 191.025129 
L 267.594632 190.990292 
L 270.97243 191.381312 
L 274.350228 192.17584 
L 277.728026 193.3436 
L 281.105825 194.848449 
L 284.483623 196.650297 
L 287.861421 198.706732 
L 291.239219 200.974274 
L 296.305916 204.676024 
L 303.061512 209.948247 
L 313.194906 217.929376 
L 318.261603 221.698936 
L 323.328301 225.200039 
L 328.394998 228.372524 
L 333.461695 231.181353 
L 336.839493 232.844735 
L 340.217291 234.341101 
L 343.595089 235.673944 
L 348.661786 237.379556 
L 353.728483 238.756702 
L 358.79518 239.838059 
L 363.861878 240.660987 
L 368.928575 241.265797 
L 375.684171 241.803865 
L 382.439767 242.119266 
L 392.573161 242.340503 
L 404.395455 242.419798 
L 404.395455 242.419798 
" clip-path="url(#pd220b64cc3)" style="fill: none; stroke: #22c55e; stroke-width: 1.2; stroke-linecap: square"/>
   </g>
   <g id="line2d_26">
    <path d="M 75.331937 242.111904 
L 77.443304 241.783386 
L 79.55467 241.185124 
L 80.962248 240.556264 
L 82.369825 239.669464 
L 83.777403 238.447524 
L 85.18498 236.802755 
L 86.592558 234.640796 
L 88.000135 231.866796 
L 89.407713 228.394031 
L 90.81529 224.154653 
L 92.222868 219.111821 
L 93.630446 213.272001 
L 95.741812 203.16732 
L 98.556967 187.994442 
L 101.372122 172.714497 
L 102.7797 165.826221 
L 104.187277 159.880085 
L 105.594855 155.171913 
L 106.298644 153.358673 
L 107.002432 151.937207 
L 107.706221 150.923826 
L 108.41001 150.328625 
L 109.113799 150.155203 
L 109.817588 150.40053 
L 110.521376 151.054977 
L 111.225165 152.102493 
L 111.928954 153.520934 
L 112.632743 155.28252 
L 114.04032 159.699432 
L 115.447898 165.04276 
L 118.263053 177.071739 
L 120.374419 185.829341 
L 121.781997 190.925448 
L 123.189574 195.124904 
L 124.597152 198.241128 
L 125.300941 199.353656 
L 126.004729 200.156746 
L 126.708518 200.646303 
L 127.412307 200.822169 
L 128.116096 200.687886 
L 128.819885 200.25045 
L 129.523673 199.520022 
L 130.227462 198.509641 
L 130.931251 197.234928 
L 132.338828 193.966076 
L 133.746406 189.878698 
L 135.857772 182.627609 
L 142.191871 159.176651 
L 143.599449 154.810508 
L 145.007026 151.059797 
L 146.414604 148.005155 
L 147.822182 145.688277 
L 148.52597 144.80887 
L 149.229759 144.112113 
L 149.933548 143.592824 
L 150.637337 143.243941 
L 151.341125 143.056755 
L 152.044914 143.021185 
L 152.748703 143.126061 
L 154.156281 143.708893 
L 155.563858 144.705834 
L 156.971436 146.019315 
L 159.082802 148.395682 
L 161.897957 151.997698 
L 165.416901 156.888175 
L 168.232056 161.161713 
L 170.343422 164.704895 
L 172.454789 168.646689 
L 174.566155 173.070558 
L 176.677521 178.028649 
L 178.788888 183.527287 
L 181.604043 191.601193 
L 186.530564 206.802777 
L 189.345719 215.22477 
L 191.457086 220.995392 
L 193.568452 226.093613 
L 194.97603 229.060222 
L 196.383607 231.661853 
L 197.791185 233.898584 
L 199.198762 235.783507 
L 200.60634 237.340295 
L 202.013917 238.600311 
L 203.421495 239.599612 
L 204.829073 240.376144 
L 206.940439 241.204552 
L 209.051805 241.730541 
L 211.86696 242.122903 
L 215.385904 242.335924 
L 215.385904 242.335924 
" clip-path="url(#pd220b64cc3)" style="fill: none; stroke: #f97316; stroke-width: 1.2; stroke-linecap: square"/>
   </g>
   <g id="text_14">
    <!-- Iris データの密度プロット -->
    <g transform="translate(135.59815 24.48) scale(0.1728 -0.1728)">
     <defs>
      <path id="IPAexGothic-49" d="M 1203 63 
L 634 63 
L 634 4634 
L 1203 4634 
L 1203 63 
z
" transform="scale(0.015625)"/>
      <path id="IPAexGothic-72" d="M 2309 3316 
L 2213 2769 
Q 2106 2791 2022 2791 
Q 1653 2791 1413 2444 
Q 1113 2006 1113 1675 
L 1113 63 
L 563 63 
L 563 3250 
L 1081 3250 
L 1056 2303 
L 1069 2303 
Q 1422 3341 2097 3341 
Q 2206 3341 2309 3316 
z
" transform="scale(0.015625)"/>
      <path id="IPAexGothic-69" d="M 1178 3928 
L 550 3928 
L 550 4569 
L 1178 4569 
L 1178 3928 
z
M 1138 63 
L 588 63 
L 588 3250 
L 1138 3250 
L 1138 63 
z
" transform="scale(0.015625)"/>
      <path id="IPAexGothic-73" d="M 2234 2547 
Q 1938 2931 1484 2931 
Q 891 2931 891 2475 
Q 891 2153 1531 1944 
L 1741 1875 
Q 2650 1578 2650 894 
Q 2650 434 2272 172 
Q 1972 -31 1497 -31 
Q 766 -31 256 503 
L 603 819 
Q 997 397 1516 397 
Q 2131 397 2131 875 
Q 2131 1238 1453 1478 
L 1234 1553 
Q 378 1853 378 2431 
Q 378 2797 628 3047 
Q 928 3347 1453 3347 
Q 2156 3347 2606 2859 
L 2234 2547 
z
" transform="scale(0.015625)"/>
      <path id="IPAexGothic-20" transform="scale(0.015625)"/>
      <path id="IPAexGothic-30c7" d="M 563 3072 
L 5741 3072 
L 5741 2613 
L 3578 2613 
Q 3538 1516 3134 872 
Q 2688 156 1663 -256 
L 1313 156 
Q 2338 538 2713 1166 
Q 3003 1644 3034 2613 
L 563 2613 
L 563 3072 
z
M 1406 4588 
L 4588 4588 
L 4588 4128 
L 1406 4128 
L 1406 4588 
z
M 6009 4469 
Q 5647 5009 5253 5338 
L 5553 5569 
Q 5938 5259 6328 4744 
L 6009 4469 
z
M 5413 4000 
Q 5125 4491 4678 4891 
L 4991 5131 
Q 5363 4825 5747 4275 
L 5413 4000 
z
" transform="scale(0.015625)"/>
      <path id="IPAexGothic-30fc" d="M 588 2688 
L 5809 2688 
L 5809 2175 
L 588 2175 
L 588 2688 
z
" transform="scale(0.015625)"/>
      <path id="IPAexGothic-30bf" d="M 4978 4263 
L 5313 3988 
Q 4797 2431 4056 1459 
Q 3191 325 1822 -300 
L 1466 109 
Q 2131 381 2613 738 
Q 3053 1066 3531 1600 
Q 2919 2225 2144 2791 
Q 1603 2203 1172 1875 
L 825 2234 
Q 2316 3328 2866 5031 
L 3359 4897 
Q 3325 4775 3109 4263 
L 4978 4263 
z
M 2894 3816 
Q 2709 3522 2438 3169 
Q 3194 2616 3841 2003 
Q 4366 2806 4747 3816 
L 2894 3816 
z
" transform="scale(0.015625)"/>
      <path id="IPAexGothic-306e" d="M 3119 469 
Q 5275 766 5275 2425 
Q 5275 3453 4413 3925 
Q 4041 4116 3547 4159 
Q 3394 2525 2850 1400 
Q 2322 306 1722 306 
Q 1384 306 1084 666 
Q 609 1244 609 2003 
Q 609 3025 1397 3794 
Q 2184 4563 3431 4563 
Q 4306 4563 4928 4122 
Q 5813 3506 5813 2425 
Q 5813 438 3431 6 
L 3119 469 
z
M 3053 4147 
Q 2378 4044 1891 3641 
Q 1097 2981 1097 1991 
Q 1097 1366 1434 978 
Q 1581 813 1719 813 
Q 2022 813 2416 1625 
Q 2909 2638 3053 4147 
z
" transform="scale(0.015625)"/>
      <path id="IPAexGothic-30d7" d="M 4825 4275 
L 5125 4000 
Q 4884 2378 4081 1381 
Q 3294 413 1888 -116 
L 1522 331 
Q 4069 1113 4550 3803 
L 966 3738 
L 966 4225 
L 4825 4275 
z
M 5597 5509 
Q 5906 5509 6119 5275 
Q 6303 5075 6303 4806 
Q 6303 4494 6069 4281 
Q 5866 4097 5597 4097 
Q 5284 4097 5072 4331 
Q 4888 4534 4888 4806 
Q 4888 5116 5122 5328 
Q 5328 5509 5597 5509 
z
M 5597 5228 
Q 5409 5228 5278 5088 
Q 5169 4966 5169 4806 
Q 5169 4616 5309 4488 
Q 5434 4378 5597 4378 
Q 5784 4378 5913 4519 
Q 6022 4641 6022 4806 
Q 6022 4991 5881 5119 
Q 5759 5228 5597 5228 
z
" transform="scale(0.015625)"/>
      <path id="IPAexGothic-30ed" d="M 1147 4269 
L 5250 4269 
L 5250 172 
L 4725 172 
L 4725 569 
L 1672 569 
L 1672 172 
L 1147 172 
L 1147 4269 
z
M 1672 3781 
L 1672 1063 
L 4725 1063 
L 4725 3781 
L 1672 3781 
z
" transform="scale(0.015625)"/>
      <path id="IPAexGothic-30c3" d="M 1775 1984 
Q 1553 2666 1275 3175 
L 1716 3391 
Q 2034 2866 2247 2209 
L 1775 1984 
z
M 3003 2297 
Q 2813 2978 2522 3469 
L 2978 3681 
Q 3291 3166 3484 2522 
L 3003 2297 
z
M 1928 372 
Q 3094 744 3731 1569 
Q 4275 2263 4469 3525 
L 4975 3406 
Q 4734 1975 4016 1119 
Q 3406 391 2266 -44 
L 1928 372 
z
" transform="scale(0.015625)"/>
      <path id="IPAexGothic-30c8" d="M 2284 4997 
L 2803 4997 
L 2803 3206 
Q 4088 2619 5216 1888 
L 4878 1369 
Q 3819 2175 2803 2688 
L 2803 -184 
L 2284 -184 
L 2284 4997 
z
" transform="scale(0.015625)"/>
     </defs>
     <use xlink:href="#IPAexGothic-49"/>
     <use xlink:href="#IPAexGothic-72" transform="translate(28.90625 0)"/>
     <use xlink:href="#IPAexGothic-69" transform="translate(65.917969 0)"/>
     <use xlink:href="#IPAexGothic-73" transform="translate(92.919922 0)"/>
     <use xlink:href="#IPAexGothic-20" transform="translate(139.111328 0)"/>
     <use xlink:href="#IPAexGothic-30c7" transform="translate(166.113281 0)"/>
     <use xlink:href="#IPAexGothic-30fc" transform="translate(266.113281 0)"/>
     <use xlink:href="#IPAexGothic-30bf" transform="translate(366.113281 0)"/>
     <use xlink:href="#IPAexGothic-306e" transform="translate(466.113281 0)"/>
     <use xlink:href="#IPAexGothic-5bc6" transform="translate(566.113281 0)"/>
     <use xlink:href="#IPAexGothic-5ea6" transform="translate(666.113281 0)"/>
     <use xlink:href="#IPAexGothic-30d7" transform="translate(766.113281 0)"/>
     <use xlink:href="#IPAexGothic-30ed" transform="translate(866.113281 0)"/>
     <use xlink:href="#IPAexGothic-30c3" transform="translate(966.113281 0)"/>
     <use xlink:href="#IPAexGothic-30c8" transform="translate(1066.113281 0)"/>
    </g>
   </g>
   <g id="legend_1">
    <g id="patch_3">
     <path d="M 297.324375 129.69375 
L 406.8 129.69375 
Q 409.2 129.69375 409.2 127.29375 
L 409.2 44.88 
Q 409.2 42.48 406.8 42.48 
L 297.324375 42.48 
Q 294.924375 42.48 294.924375 44.88 
L 294.924375 127.29375 
Q 294.924375 129.69375 297.324375 129.69375 
z
" style="fill: #ffffff; opacity: 0.8; stroke: #cccccc; stroke-linejoin: miter"/>
    </g>
    <g id="line2d_27">
     <path d="M 299.724375 52.06875 
L 311.724375 52.06875 
L 323.724375 52.06875 
" style="fill: none; stroke: #2563eb; stroke-width: 1.2; stroke-linecap: square"/>
    </g>
    <g id="text_15">
     <!-- sepal_length -->
     <g transform="translate(333.324375 56.26875) scale(0.12 -0.12)">
      <defs>
       <path id="IPAexGothic-65" d="M 863 1594 
Q 891 1041 1209 722 
Q 1534 397 1997 397 
Q 2606 397 2963 966 
L 3322 728 
Q 2869 -31 1931 -31 
Q 1222 -31 766 422 
Q 306 884 306 1641 
Q 306 2444 788 2925 
Q 1216 3353 1856 3353 
Q 2459 3353 2866 2956 
Q 3322 2494 3322 1722 
L 3322 1594 
L 863 1594 
z
M 2756 1997 
Q 2709 2431 2450 2681 
Q 2194 2938 1844 2938 
Q 1438 2938 1150 2591 
Q 953 2356 894 1997 
L 2756 1997 
z
" transform="scale(0.015625)"/>
       <path id="IPAexGothic-70" d="M 1075 2688 
Q 1525 3341 2206 3341 
Q 2769 3341 3172 2938 
Q 3641 2469 3641 1644 
Q 3641 841 3178 372 
Q 2775 -31 2200 -31 
Q 1569 -31 1106 497 
L 1106 -1216 
L 563 -1216 
L 563 3250 
L 1075 3250 
L 1075 2688 
z
M 1106 1950 
L 1106 1291 
Q 1106 897 1516 600 
Q 1791 403 2106 403 
Q 2469 403 2725 659 
Q 3066 997 3066 1631 
Q 3066 2200 2784 2559 
Q 2503 2900 2100 2900 
Q 1656 2900 1338 2484 
Q 1106 2184 1106 1950 
z
" transform="scale(0.015625)"/>
       <path id="IPAexGothic-61" d="M 3156 63 
L 2672 63 
Q 2559 303 2531 556 
L 2509 556 
Q 2147 -25 1428 -25 
Q 934 -25 622 288 
Q 347 563 347 959 
Q 347 1947 2050 1997 
L 2478 2009 
L 2478 2175 
Q 2478 2509 2288 2700 
Q 2088 2900 1775 2900 
Q 1238 2900 969 2378 
L 494 2597 
Q 938 3328 1788 3328 
Q 2375 3328 2691 3000 
Q 2984 2706 2984 2169 
L 2984 997 
Q 2984 400 3156 63 
z
M 2491 1625 
L 2141 1619 
Q 903 1591 903 953 
Q 903 728 1050 581 
Q 1231 403 1525 403 
Q 1934 403 2234 703 
Q 2491 969 2491 1344 
L 2491 1625 
z
" transform="scale(0.015625)"/>
       <path id="IPAexGothic-6c" d="M 1131 63 
L 581 63 
L 581 4794 
L 1131 4794 
L 1131 63 
z
" transform="scale(0.015625)"/>
       <path id="IPAexGothic-5f" d="M 3200 -750 
L 0 -750 
L 0 -431 
L 3200 -431 
L 3200 -750 
z
" transform="scale(0.015625)"/>
       <path id="IPAexGothic-6e" d="M 3328 63 
L 2778 63 
L 2778 2041 
Q 2778 2853 2106 2853 
Q 1428 2853 1113 2041 
L 1113 63 
L 563 63 
L 563 3250 
L 1075 3250 
L 1075 2675 
Q 1525 3316 2222 3316 
Q 3328 3316 3328 2072 
L 3328 63 
z
" transform="scale(0.015625)"/>
       <path id="IPAexGothic-67" d="M 1331 1150 
Q 1006 1122 1006 900 
Q 1006 613 1763 575 
L 2131 556 
Q 3303 497 3303 -294 
Q 3303 -700 2925 -959 
Q 2519 -1253 1794 -1253 
Q 1138 -1253 738 -1028 
Q 353 -809 353 -428 
Q 353 84 1075 247 
L 1075 269 
Q 506 413 506 778 
Q 506 1116 994 1297 
Q 456 1575 456 2181 
Q 456 2650 769 2963 
Q 1128 3322 1738 3322 
Q 2125 3322 2422 3153 
Q 2650 3453 3259 3463 
L 3259 3013 
Q 2838 3003 2703 2938 
Q 3034 2613 3034 2169 
Q 3034 1728 2734 1425 
Q 2400 1094 1813 1094 
Q 1563 1094 1331 1150 
z
M 1734 2919 
Q 1409 2919 1197 2706 
Q 988 2497 988 2181 
Q 988 1872 1184 1684 
Q 1397 1472 1756 1472 
Q 2094 1472 2297 1678 
Q 2503 1881 2503 2203 
Q 2503 2497 2297 2700 
Q 2081 2919 1734 2919 
z
M 1753 159 
Q 903 159 903 -366 
Q 903 -875 1800 -875 
Q 2378 -875 2638 -606 
Q 2772 -481 2772 -313 
Q 2772 159 1753 159 
z
" transform="scale(0.015625)"/>
       <path id="IPAexGothic-74" d="M 2125 241 
Q 1769 -6 1397 -6 
Q 653 -6 653 831 
L 653 2859 
L 219 2859 
L 219 3250 
L 653 3250 
L 653 3966 
L 1178 4228 
L 1178 3250 
L 2063 3250 
L 2063 2859 
L 1178 2859 
L 1178 906 
Q 1178 416 1513 416 
Q 1738 416 1941 588 
L 2125 241 
z
" transform="scale(0.015625)"/>
       <path id="IPAexGothic-68" d="M 3347 63 
L 2797 63 
L 2797 2041 
Q 2797 2853 2131 2853 
Q 1447 2853 1131 2041 
L 1131 63 
L 581 63 
L 581 4794 
L 1131 4794 
L 1131 2706 
Q 1566 3316 2247 3316 
Q 3347 3316 3347 2072 
L 3347 63 
z
" transform="scale(0.015625)"/>
      </defs>
      <use xlink:href="#IPAexGothic-73"/>
      <use xlink:href="#IPAexGothic-65" transform="translate(46.191406 0)"/>
      <use xlink:href="#IPAexGothic-70" transform="translate(103.076172 0)"/>
      <use xlink:href="#IPAexGothic-61" transform="translate(165.185547 0)"/>
      <use xlink:href="#IPAexGothic-6c" transform="translate(220.166016 0)"/>
      <use xlink:href="#IPAexGothic-5f" transform="translate(247.167969 0)"/>
      <use xlink:href="#IPAexGothic-6c" transform="translate(297.167969 0)"/>
      <use xlink:href="#IPAexGothic-65" transform="translate(324.169922 0)"/>
      <use xlink:href="#IPAexGothic-6e" transform="translate(381.054688 0)"/>
      <use xlink:href="#IPAexGothic-67" transform="translate(441.455078 0)"/>
      <use xlink:href="#IPAexGothic-74" transform="translate(496.972656 0)"/>
      <use xlink:href="#IPAexGothic-68" transform="translate(531.591797 0)"/>
     </g>
    </g>
    <g id="line2d_28">
     <path d="M 299.724375 74.206875 
L 311.724375 74.206875 
L 323.724375 74.206875 
" style="fill: none; stroke: #0ea5e9; stroke-width: 1.2; stroke-linecap: square"/>
    </g>
    <g id="text_16">
     <!-- sepal_width -->
     <g transform="translate(333.324375 78.406875) scale(0.12 -0.12)">
      <defs>
       <path id="IPAexGothic-77" d="M 4772 3250 
L 3666 6 
L 3281 6 
L 2609 1919 
Q 2509 2203 2413 2622 
L 2394 2622 
Q 2322 2319 2188 1919 
L 1534 6 
L 1150 6 
L 44 3250 
L 619 3250 
L 1156 1491 
Q 1206 1331 1363 753 
L 1381 753 
Q 1475 1125 1594 1491 
L 2169 3250 
L 2656 3250 
L 3256 1491 
Q 3347 1244 3469 753 
L 3488 753 
Q 3591 1184 3684 1491 
L 4216 3250 
L 4772 3250 
z
" transform="scale(0.015625)"/>
       <path id="IPAexGothic-64" d="M 3391 63 
L 2891 63 
L 2891 619 
Q 2441 -31 1753 -31 
Q 1181 -31 788 372 
Q 313 844 313 1663 
Q 313 2466 772 2938 
Q 1169 3341 1753 3341 
Q 2384 3341 2847 2809 
L 2847 4794 
L 3391 4794 
L 3391 63 
z
M 2847 1303 
L 2847 2097 
Q 2847 2413 2456 2706 
Q 2181 2906 1853 2906 
Q 1484 2906 1228 2650 
Q 888 2309 888 1678 
Q 888 1109 1169 750 
Q 1441 409 1847 409 
Q 2322 409 2656 875 
Q 2847 1134 2847 1303 
z
" transform="scale(0.015625)"/>
      </defs>
      <use xlink:href="#IPAexGothic-73"/>
      <use xlink:href="#IPAexGothic-65" transform="translate(46.191406 0)"/>
      <use xlink:href="#IPAexGothic-70" transform="translate(103.076172 0)"/>
      <use xlink:href="#IPAexGothic-61" transform="translate(165.185547 0)"/>
      <use xlink:href="#IPAexGothic-6c" transform="translate(220.166016 0)"/>
      <use xlink:href="#IPAexGothic-5f" transform="translate(247.167969 0)"/>
      <use xlink:href="#IPAexGothic-77" transform="translate(297.167969 0)"/>
      <use xlink:href="#IPAexGothic-69" transform="translate(372.363281 0)"/>
      <use xlink:href="#IPAexGothic-64" transform="translate(399.365234 0)"/>
      <use xlink:href="#IPAexGothic-74" transform="translate(461.767578 0)"/>
      <use xlink:href="#IPAexGothic-68" transform="translate(496.386719 0)"/>
     </g>
    </g>
    <g id="line2d_29">
     <path d="M 299.724375 96.275625 
L 311.724375 96.275625 
L 323.724375 96.275625 
" style="fill: none; stroke: #22c55e; stroke-width: 1.2; stroke-linecap: square"/>
    </g>
    <g id="text_17">
     <!-- petal_length -->
     <g transform="translate(333.324375 100.475625) scale(0.12 -0.12)">
      <use xlink:href="#IPAexGothic-70"/>
      <use xlink:href="#IPAexGothic-65" transform="translate(62.109375 0)"/>
      <use xlink:href="#IPAexGothic-74" transform="translate(118.994141 0)"/>
      <use xlink:href="#IPAexGothic-61" transform="translate(153.613281 0)"/>
      <use xlink:href="#IPAexGothic-6c" transform="translate(208.59375 0)"/>
      <use xlink:href="#IPAexGothic-5f" transform="translate(235.595703 0)"/>
      <use xlink:href="#IPAexGothic-6c" transform="translate(285.595703 0)"/>
      <use xlink:href="#IPAexGothic-65" transform="translate(312.597656 0)"/>
      <use xlink:href="#IPAexGothic-6e" transform="translate(369.482422 0)"/>
      <use xlink:href="#IPAexGothic-67" transform="translate(429.882812 0)"/>
      <use xlink:href="#IPAexGothic-74" transform="translate(485.400391 0)"/>
      <use xlink:href="#IPAexGothic-68" transform="translate(520.019531 0)"/>
     </g>
    </g>
    <g id="line2d_30">
     <path d="M 299.724375 118.41375 
L 311.724375 118.41375 
L 323.724375 118.41375 
" style="fill: none; stroke: #f97316; stroke-width: 1.2; stroke-linecap: square"/>
    </g>
    <g id="text_18">
     <!-- petal_width -->
     <g transform="translate(333.324375 122.61375) scale(0.12 -0.12)">
      <use xlink:href="#IPAexGothic-70"/>
      <use xlink:href="#IPAexGothic-65" transform="translate(62.109375 0)"/>
      <use xlink:href="#IPAexGothic-74" transform="translate(118.994141 0)"/>
      <use xlink:href="#IPAexGothic-61" transform="translate(153.613281 0)"/>
      <use xlink:href="#IPAexGothic-6c" transform="translate(208.59375 0)"/>
      <use xlink:href="#IPAexGothic-5f" transform="translate(235.595703 0)"/>
      <use xlink:href="#IPAexGothic-77" transform="translate(285.595703 0)"/>
      <use xlink:href="#IPAexGothic-69" transform="translate(360.791016 0)"/>
      <use xlink:href="#IPAexGothic-64" transform="translate(387.792969 0)"/>
      <use xlink:href="#IPAexGothic-74" transform="translate(450.195312 0)"/>
      <use xlink:href="#IPAexGothic-68" transform="translate(484.814453 0)"/>
     </g>
    </g>
   </g>
  </g>
 </g>
 <defs>
  <clipPath id="pd220b64cc3">
   <rect x="51.5" y="30.48" width="369.7" height="211.96"/>
  </clipPath>
 </defs>
</svg>
