<?xml version="1.0" encoding="utf-8" standalone="no"?>
<!DOCTYPE svg PUBLIC "-//W3C//DTD SVG 1.1//EN"
  "http://www.w3.org/Graphics/SVG/1.1/DTD/svg11.dtd">
<svg xmlns:xlink="http://www.w3.org/1999/xlink" width="432pt" height="288pt" viewBox="0 0 432 288" xmlns="http://www.w3.org/2000/svg" version="1.1">
 <metadata>
  <rdf:RDF xmlns:dc="http://purl.org/dc/elements/1.1/" xmlns:cc="http://creativecommons.org/ns#" xmlns:rdf="http://www.w3.org/1999/02/22-rdf-syntax-ns#">
   <cc:Work>
    <dc:type rdf:resource="http://purl.org/dc/dcmitype/StillImage"/>
    <dc:date>2025-10-27T02:36:16.560443</dc:date>
    <dc:format>image/svg+xml</dc:format>
    <dc:creator>
     <cc:Agent>
      <dc:title>Matplotlib v3.10.7, https://matplotlib.org/</dc:title>
     </cc:Agent>
    </dc:creator>
   </cc:Work>
  </rdf:RDF>
 </metadata>
 <defs>
  <style type="text/css">*{stroke-linejoin: round; stroke-linecap: butt}</style>
 </defs>
 <g id="figure_1">
  <g id="patch_1">
   <path d="M 0 288 
L 432 288 
L 432 0 
L 0 0 
z
" style="fill: #ffffff"/>
  </g>
  <g id="axes_1">
   <g id="patch_2">
    <path d="M 54.63 239.04 
L 419.04 239.04 
L 419.04 28.32 
L 54.63 28.32 
z
" style="fill: #eaeaf2"/>
   </g>
   <g id="matplotlib.axis_1">
    <g id="xtick_1">
     <g id="line2d_1">
      <path d="M 119.283387 239.04 
L 119.283387 28.32 
" clip-path="url(#p6cb75df43b)" style="fill: none; stroke: #ffffff; stroke-opacity: 0.2; stroke-linecap: round"/>
     </g>
     <g id="text_1">
      <!-- 10 -->
      <g style="fill: #262626" transform="translate(112.355106 256.779688) scale(0.11 -0.11)">
       <defs>
        <path id="IPAexGothic-31" d="M 2463 63 
L 1900 63 
L 1900 4103 
Q 1372 3922 788 3797 
L 684 4231 
Q 1519 4441 2106 4731 
L 2463 4731 
L 2463 63 
z
" transform="scale(0.015625)"/>
        <path id="IPAexGothic-30" d="M 2038 4725 
Q 2881 4725 3334 3944 
Q 3694 3325 3694 2344 
Q 3694 1372 3334 741 
Q 2888 -31 2016 -31 
Q 1147 -31 700 741 
Q 341 1372 341 2350 
Q 341 3713 1000 4334 
Q 1419 4725 2038 4725 
z
M 2016 4266 
Q 1516 4266 1228 3759 
Q 934 3247 934 2344 
Q 934 1456 1222 947 
Q 1513 447 2016 447 
Q 2619 447 2909 1153 
Q 3100 1622 3100 2375 
Q 3100 3256 2806 3759 
Q 2509 4266 2016 4266 
z
" transform="scale(0.015625)"/>
       </defs>
       <use xlink:href="#IPAexGothic-31"/>
       <use xlink:href="#IPAexGothic-30" transform="translate(62.988281 0)"/>
      </g>
     </g>
    </g>
    <g id="xtick_2">
     <g id="line2d_2">
      <path d="M 188.676311 239.04 
L 188.676311 28.32 
" clip-path="url(#p6cb75df43b)" style="fill: none; stroke: #ffffff; stroke-opacity: 0.2; stroke-linecap: round"/>
     </g>
     <g id="text_2">
      <!-- 20 -->
      <g style="fill: #262626" transform="translate(181.74803 256.779688) scale(0.11 -0.11)">
       <defs>
        <path id="IPAexGothic-32" d="M 3659 63 
L 447 63 
L 447 594 
Q 825 1475 1894 2203 
L 2072 2322 
Q 2619 2697 2791 2906 
Q 2988 3153 2988 3444 
Q 2988 3772 2756 4003 
Q 2500 4259 2084 4259 
Q 1250 4259 991 3328 
L 497 3506 
Q 853 4725 2116 4725 
Q 2806 4725 3216 4316 
Q 3575 3947 3575 3425 
Q 3575 3038 3344 2722 
Q 3131 2416 2366 1938 
L 2231 1856 
Q 1256 1253 978 569 
L 3659 569 
L 3659 63 
z
" transform="scale(0.015625)"/>
       </defs>
       <use xlink:href="#IPAexGothic-32"/>
       <use xlink:href="#IPAexGothic-30" transform="translate(62.988281 0)"/>
      </g>
     </g>
    </g>
    <g id="xtick_3">
     <g id="line2d_3">
      <path d="M 258.069235 239.04 
L 258.069235 28.32 
" clip-path="url(#p6cb75df43b)" style="fill: none; stroke: #ffffff; stroke-opacity: 0.2; stroke-linecap: round"/>
     </g>
     <g id="text_3">
      <!-- 30 -->
      <g style="fill: #262626" transform="translate(251.140953 256.779688) scale(0.11 -0.11)">
       <defs>
        <path id="IPAexGothic-33" d="M 2381 2419 
Q 3506 2216 3506 1278 
Q 3506 716 3128 356 
Q 2709 -31 1944 -31 
Q 797 -31 288 881 
L 756 1131 
Q 1109 441 1938 441 
Q 2425 441 2694 691 
Q 2950 928 2950 1291 
Q 2950 1719 2566 1978 
Q 2216 2213 1644 2213 
L 1363 2213 
L 1363 2669 
L 1656 2669 
Q 2231 2669 2534 2888 
Q 2859 3119 2859 3509 
Q 2859 3934 2494 4138 
Q 2259 4278 1931 4278 
Q 1238 4278 903 3578 
L 434 3803 
Q 897 4725 1938 4725 
Q 2597 4725 3006 4394 
Q 3416 4069 3416 3534 
Q 3416 3028 3019 2706 
Q 2763 2500 2381 2444 
L 2381 2419 
z
" transform="scale(0.015625)"/>
       </defs>
       <use xlink:href="#IPAexGothic-33"/>
       <use xlink:href="#IPAexGothic-30" transform="translate(62.988281 0)"/>
      </g>
     </g>
    </g>
    <g id="xtick_4">
     <g id="line2d_4">
      <path d="M 327.462158 239.04 
L 327.462158 28.32 
" clip-path="url(#p6cb75df43b)" style="fill: none; stroke: #ffffff; stroke-opacity: 0.2; stroke-linecap: round"/>
     </g>
     <g id="text_4">
      <!-- 40 -->
      <g style="fill: #262626" transform="translate(320.533877 256.779688) scale(0.11 -0.11)">
       <defs>
        <path id="IPAexGothic-34" d="M 3813 1159 
L 3059 1159 
L 3059 63 
L 2547 63 
L 2547 1159 
L 197 1159 
L 197 1672 
L 2456 4678 
L 3059 4678 
L 3059 1634 
L 3813 1634 
L 3813 1159 
z
M 2578 4109 
L 2559 4109 
Q 2278 3656 2003 3284 
L 759 1634 
L 2547 1634 
L 2547 3144 
Q 2547 3481 2578 4109 
z
" transform="scale(0.015625)"/>
       </defs>
       <use xlink:href="#IPAexGothic-34"/>
       <use xlink:href="#IPAexGothic-30" transform="translate(62.988281 0)"/>
      </g>
     </g>
    </g>
    <g id="xtick_5">
     <g id="line2d_5">
      <path d="M 396.855082 239.04 
L 396.855082 28.32 
" clip-path="url(#p6cb75df43b)" style="fill: none; stroke: #ffffff; stroke-opacity: 0.2; stroke-linecap: round"/>
     </g>
     <g id="text_5">
      <!-- 50 -->
      <g style="fill: #262626" transform="translate(389.926801 256.779688) scale(0.11 -0.11)">
       <defs>
        <path id="IPAexGothic-35" d="M 1178 2603 
Q 1634 2963 2172 2963 
Q 2816 2963 3241 2528 
Q 3638 2113 3638 1497 
Q 3638 938 3297 513 
Q 2869 -31 2031 -31 
Q 959 -31 469 784 
L 938 1028 
Q 1309 434 2013 434 
Q 2466 434 2769 716 
Q 3081 1013 3081 1503 
Q 3081 1966 2806 2241 
Q 2519 2528 2056 2528 
Q 1406 2528 1072 2028 
L 591 2091 
L 884 4634 
L 3406 4634 
L 3406 4153 
L 1341 4153 
L 1134 2603 
L 1178 2603 
z
" transform="scale(0.015625)"/>
       </defs>
       <use xlink:href="#IPAexGothic-35"/>
       <use xlink:href="#IPAexGothic-30" transform="translate(62.988281 0)"/>
      </g>
     </g>
    </g>
    <g id="text_6">
     <!-- 会計金額 ($) -->
     <g style="fill: #262626" transform="translate(203.440312 272.737813) scale(0.12 -0.12)">
      <defs>
       <path id="IPAexGothic-4f1a" d="M 1863 3272 
L 4641 3272 
L 4641 2863 
L 1759 2863 
L 1759 3194 
Q 1734 3175 1638 3113 
Q 1238 2816 594 2497 
L 288 2863 
Q 1959 3597 2894 5147 
L 3431 5147 
Q 4341 3784 6131 3047 
L 5825 2631 
Q 4063 3497 3175 4731 
Q 2653 3881 1863 3272 
z
M 2822 1703 
Q 2531 997 2119 322 
L 2388 341 
Q 3366 409 4325 506 
L 4641 538 
Q 4169 1028 3859 1306 
L 4209 1550 
Q 5088 797 5778 -31 
L 5388 -350 
Q 5156 -50 4928 219 
L 4831 206 
Q 3106 -53 844 -238 
L 684 231 
Q 816 238 1191 263 
L 1631 288 
Q 2022 934 2322 1703 
L 641 1703 
L 641 2125 
L 5759 2125 
L 5759 1703 
L 2822 1703 
z
" transform="scale(0.015625)"/>
       <path id="IPAexGothic-8a08" d="M 2853 1684 
L 2853 -416 
L 2413 -416 
L 2413 -128 
L 1088 -128 
L 1088 -447 
L 647 -447 
L 647 1684 
L 2853 1684 
z
M 1088 1300 
L 1088 256 
L 2413 256 
L 2413 1300 
L 1088 1300 
z
M 4322 3225 
L 4322 5178 
L 4781 5178 
L 4781 3225 
L 6063 3225 
L 6063 2797 
L 4781 2797 
L 4781 -447 
L 4322 -447 
L 4322 2797 
L 3063 2797 
L 3063 3225 
L 4322 3225 
z
M 781 5044 
L 2722 5044 
L 2722 4647 
L 781 4647 
L 781 5044 
z
M 384 4206 
L 3150 4206 
L 3150 3803 
L 384 3803 
L 384 4206 
z
M 781 3359 
L 2722 3359 
L 2722 2963 
L 781 2963 
L 781 3359 
z
M 781 2522 
L 2722 2522 
L 2722 2125 
L 781 2125 
L 781 2522 
z
" transform="scale(0.015625)"/>
       <path id="IPAexGothic-91d1" d="M 3422 2969 
L 3422 2209 
L 5603 2209 
L 5603 1800 
L 3422 1800 
L 3422 191 
L 5922 191 
L 5922 -225 
L 481 -225 
L 481 191 
L 2947 191 
L 2947 1800 
L 803 1800 
L 803 2209 
L 2947 2209 
L 2947 2969 
L 1819 2969 
L 1819 3244 
Q 1263 2809 634 2466 
L 334 2853 
Q 2006 3647 2881 5234 
L 3441 5234 
Q 4503 3791 6109 3059 
L 5775 2613 
Q 5219 2934 4713 3294 
L 4713 2969 
L 3422 2969 
z
M 4609 3372 
Q 3781 3994 3172 4806 
Q 2741 4041 1972 3372 
L 4609 3372 
z
M 1838 300 
Q 1669 878 1344 1459 
L 1784 1644 
Q 2044 1228 2338 481 
L 1838 300 
z
M 4044 441 
Q 4403 1050 4622 1697 
L 5113 1509 
Q 4859 906 4488 288 
L 4044 441 
z
" transform="scale(0.015625)"/>
       <path id="IPAexGothic-984d" d="M 881 1409 
L 856 1391 
Q 750 1331 459 1178 
L 197 1513 
Q 1053 1856 1622 2425 
Q 1222 2709 1066 2809 
Q 847 2550 606 2350 
L 331 2638 
Q 1044 3216 1359 4141 
L 1738 4031 
Q 1650 3778 1578 3634 
L 2544 3634 
L 2756 3441 
Q 2513 2900 2188 2497 
Q 2800 2056 3222 1722 
L 2959 1372 
Q 2794 1519 2781 1525 
L 2781 -97 
L 1297 -97 
L 1297 -450 
L 881 -450 
L 881 1409 
z
M 1094 1538 
L 2769 1538 
Q 2403 1847 2019 2138 
L 1931 2203 
Q 1563 1834 1094 1538 
z
M 2366 1178 
L 1297 1178 
L 1297 275 
L 2366 275 
L 2366 1178 
z
M 1381 3256 
Q 1316 3153 1278 3097 
Q 1522 2944 1878 2706 
Q 2081 2966 2231 3256 
L 1381 3256 
z
M 4616 4025 
L 5741 4025 
L 5741 794 
L 3481 794 
L 3481 4025 
L 4225 4025 
Q 4322 4472 4353 4659 
L 3150 4659 
L 3150 5056 
L 6047 5056 
L 6047 4659 
L 4800 4659 
Q 4797 4638 4769 4538 
Q 4719 4309 4616 4025 
z
M 5331 3653 
L 3891 3653 
L 3891 3078 
L 5331 3078 
L 5331 3653 
z
M 3891 2713 
L 3891 2138 
L 5331 2138 
L 5331 2713 
L 3891 2713 
z
M 3891 1778 
L 3891 1166 
L 5331 1166 
L 5331 1778 
L 3891 1778 
z
M 2028 4544 
L 3153 4544 
L 3153 3550 
L 2744 3550 
L 2744 4178 
L 850 4178 
L 850 3447 
L 447 3447 
L 447 4544 
L 1600 4544 
L 1600 5313 
L 2028 5313 
L 2028 4544 
z
M 2975 -178 
Q 3666 178 4081 756 
L 4447 538 
Q 3956 -109 3300 -513 
L 2975 -178 
z
M 5797 -428 
Q 5275 163 4806 531 
L 5125 769 
Q 5644 403 6150 -122 
L 5797 -428 
z
" transform="scale(0.015625)"/>
       <path id="IPAexGothic-20" transform="scale(0.015625)"/>
       <path id="IPAexGothic-28" d="M 1928 -1016 
L 1653 -1166 
Q 488 69 488 1875 
Q 488 3678 1653 4909 
L 1928 4763 
Q 1006 3522 1006 1881 
Q 1006 203 1928 -1016 
z
" transform="scale(0.015625)"/>
       <path id="IPAexGothic-24" d="M 3034 3572 
Q 2678 4166 1991 4166 
Q 1600 4166 1356 3922 
Q 1178 3744 1178 3475 
Q 1178 3191 1409 3009 
Q 1594 2866 2113 2675 
L 2331 2591 
Q 3528 2141 3528 1313 
Q 3528 653 2984 319 
Q 2672 125 2222 97 
L 2222 -434 
L 1825 -434 
L 1825 103 
Q 969 188 488 844 
L 916 1166 
Q 1359 556 2069 556 
Q 2441 556 2659 716 
Q 2953 925 2953 1272 
Q 2953 1831 1869 2216 
L 1672 2284 
Q 616 2659 616 3425 
Q 616 3978 1069 4325 
Q 1363 4553 1825 4603 
L 1825 5069 
L 2222 5069 
L 2222 4594 
Q 3025 4509 3463 3878 
L 3034 3572 
z
" transform="scale(0.015625)"/>
       <path id="IPAexGothic-29" d="M 466 4909 
Q 1638 3672 1638 1875 
Q 1638 75 466 -1166 
L 191 -1016 
Q 1119 216 1119 1881 
Q 1119 3509 191 4763 
L 466 4909 
z
" transform="scale(0.015625)"/>
      </defs>
      <use xlink:href="#IPAexGothic-4f1a"/>
      <use xlink:href="#IPAexGothic-8a08" transform="translate(100 0)"/>
      <use xlink:href="#IPAexGothic-91d1" transform="translate(200 0)"/>
      <use xlink:href="#IPAexGothic-984d" transform="translate(300 0)"/>
      <use xlink:href="#IPAexGothic-20" transform="translate(400 0)"/>
      <use xlink:href="#IPAexGothic-28" transform="translate(427.001953 0)"/>
      <use xlink:href="#IPAexGothic-24" transform="translate(460.302734 0)"/>
      <use xlink:href="#IPAexGothic-29" transform="translate(523.291016 0)"/>
     </g>
    </g>
   </g>
   <g id="matplotlib.axis_2">
    <g id="ytick_1">
     <g id="line2d_6">
      <path d="M 54.63 239.04 
L 419.04 239.04 
" clip-path="url(#p6cb75df43b)" style="fill: none; stroke: #ffffff; stroke-opacity: 0.2; stroke-linecap: round"/>
     </g>
     <g id="text_7">
      <!-- 0.0 -->
      <g style="fill: #262626" transform="translate(28.367031 243.159844) scale(0.11 -0.11)">
       <defs>
        <path id="IPAexGothic-2e" d="M 1184 63 
L 494 63 
L 494 753 
L 1184 753 
L 1184 63 
z
" transform="scale(0.015625)"/>
       </defs>
       <use xlink:href="#IPAexGothic-30"/>
       <use xlink:href="#IPAexGothic-2e" transform="translate(62.988281 0)"/>
       <use xlink:href="#IPAexGothic-30" transform="translate(89.404297 0)"/>
      </g>
     </g>
    </g>
    <g id="ytick_2">
     <g id="line2d_7">
      <path d="M 54.63 196.896 
L 419.04 196.896 
" clip-path="url(#p6cb75df43b)" style="fill: none; stroke: #ffffff; stroke-opacity: 0.2; stroke-linecap: round"/>
     </g>
     <g id="text_8">
      <!-- 0.2 -->
      <g style="fill: #262626" transform="translate(28.367031 201.015844) scale(0.11 -0.11)">
       <use xlink:href="#IPAexGothic-30"/>
       <use xlink:href="#IPAexGothic-2e" transform="translate(62.988281 0)"/>
       <use xlink:href="#IPAexGothic-32" transform="translate(89.404297 0)"/>
      </g>
     </g>
    </g>
    <g id="ytick_3">
     <g id="line2d_8">
      <path d="M 54.63 154.752 
L 419.04 154.752 
" clip-path="url(#p6cb75df43b)" style="fill: none; stroke: #ffffff; stroke-opacity: 0.2; stroke-linecap: round"/>
     </g>
     <g id="text_9">
      <!-- 0.4 -->
      <g style="fill: #262626" transform="translate(28.367031 158.871844) scale(0.11 -0.11)">
       <use xlink:href="#IPAexGothic-30"/>
       <use xlink:href="#IPAexGothic-2e" transform="translate(62.988281 0)"/>
       <use xlink:href="#IPAexGothic-34" transform="translate(89.404297 0)"/>
      </g>
     </g>
    </g>
    <g id="ytick_4">
     <g id="line2d_9">
      <path d="M 54.63 112.608 
L 419.04 112.608 
" clip-path="url(#p6cb75df43b)" style="fill: none; stroke: #ffffff; stroke-opacity: 0.2; stroke-linecap: round"/>
     </g>
     <g id="text_10">
      <!-- 0.6 -->
      <g style="fill: #262626" transform="translate(28.367031 116.727844) scale(0.11 -0.11)">
       <defs>
        <path id="IPAexGothic-36" d="M 1056 2328 
Q 1509 2981 2234 2981 
Q 2906 2981 3316 2513 
Q 3675 2106 3675 1522 
Q 3675 884 3272 434 
Q 2853 -31 2178 -31 
Q 1375 -31 922 581 
Q 481 1178 481 2228 
Q 481 3425 1013 4109 
Q 1494 4725 2272 4725 
Q 3191 4725 3609 4025 
L 3150 3775 
Q 2894 4266 2300 4266 
Q 1119 4266 1031 2328 
L 1056 2328 
z
M 2141 2547 
Q 1684 2547 1384 2206 
Q 1116 1900 1116 1541 
Q 1116 1156 1353 844 
Q 1672 428 2159 428 
Q 2669 428 2941 844 
Q 3125 1128 3125 1503 
Q 3125 1944 2881 2228 
Q 2600 2547 2141 2547 
z
" transform="scale(0.015625)"/>
       </defs>
       <use xlink:href="#IPAexGothic-30"/>
       <use xlink:href="#IPAexGothic-2e" transform="translate(62.988281 0)"/>
       <use xlink:href="#IPAexGothic-36" transform="translate(89.404297 0)"/>
      </g>
     </g>
    </g>
    <g id="ytick_5">
     <g id="line2d_10">
      <path d="M 54.63 70.464 
L 419.04 70.464 
" clip-path="url(#p6cb75df43b)" style="fill: none; stroke: #ffffff; stroke-opacity: 0.2; stroke-linecap: round"/>
     </g>
     <g id="text_11">
      <!-- 0.8 -->
      <g style="fill: #262626" transform="translate(28.367031 74.583844) scale(0.11 -0.11)">
       <defs>
        <path id="IPAexGothic-38" d="M 2541 2425 
Q 3700 2031 3700 1197 
Q 3700 541 3100 197 
Q 2663 -56 2016 -56 
Q 1366 -56 928 197 
Q 347 531 347 1178 
Q 347 1988 1409 2381 
L 1409 2400 
Q 481 2734 481 3509 
Q 481 4100 981 4456 
Q 1406 4756 2019 4756 
Q 2703 4756 3131 4403 
Q 3553 4069 3553 3566 
Q 3553 2706 2541 2444 
L 2541 2425 
z
M 2022 2625 
Q 2997 2856 2997 3528 
Q 2997 3916 2675 4150 
Q 2413 4347 2016 4347 
Q 1606 4347 1331 4128 
Q 1050 3897 1050 3522 
Q 1050 3150 1350 2925 
Q 1494 2809 1722 2722 
Q 1984 2616 2022 2625 
z
M 1978 2209 
Q 922 1931 922 1216 
Q 922 775 1313 556 
Q 1606 391 2009 391 
Q 2575 391 2881 697 
Q 3106 922 3106 1250 
Q 3106 1594 2794 1850 
Q 2609 1994 2350 2100 
Q 2047 2222 1978 2209 
z
" transform="scale(0.015625)"/>
       </defs>
       <use xlink:href="#IPAexGothic-30"/>
       <use xlink:href="#IPAexGothic-2e" transform="translate(62.988281 0)"/>
       <use xlink:href="#IPAexGothic-38" transform="translate(89.404297 0)"/>
      </g>
     </g>
    </g>
    <g id="ytick_6">
     <g id="line2d_11">
      <path d="M 54.63 28.32 
L 419.04 28.32 
" clip-path="url(#p6cb75df43b)" style="fill: none; stroke: #ffffff; stroke-opacity: 0.2; stroke-linecap: round"/>
     </g>
     <g id="text_12">
      <!-- 1.0 -->
      <g style="fill: #262626" transform="translate(28.367031 32.439844) scale(0.11 -0.11)">
       <use xlink:href="#IPAexGothic-31"/>
       <use xlink:href="#IPAexGothic-2e" transform="translate(62.988281 0)"/>
       <use xlink:href="#IPAexGothic-30" transform="translate(89.404297 0)"/>
      </g>
     </g>
    </g>
    <g id="text_13">
     <!-- 累積割合 -->
     <g style="fill: #262626" transform="translate(22.087031 157.68) rotate(-90) scale(0.12 -0.12)">
      <defs>
       <path id="IPAexGothic-7d2f" d="M 3413 1209 
L 3413 -450 
L 2938 -450 
L 2938 1181 
L 2541 1163 
Q 1875 1131 525 1100 
L 384 1534 
Q 1159 1534 1522 1541 
L 2316 1547 
Q 1847 1988 1313 2353 
L 1644 2628 
Q 1944 2413 2156 2238 
Q 2441 2488 2759 2866 
L 891 2866 
L 891 5025 
L 5503 5025 
L 5503 2866 
L 2913 2866 
L 3194 2694 
Q 2866 2356 2438 2000 
L 2475 1969 
Q 2481 1966 2884 1597 
L 2925 1559 
Q 3644 2125 4191 2713 
L 4606 2481 
Q 4081 1953 3553 1578 
Q 3622 1584 3750 1584 
Q 4428 1606 4722 1625 
L 5050 1638 
Q 4819 1847 4569 2034 
L 4900 2284 
Q 5453 1884 6047 1272 
L 5688 972 
Q 5538 1156 5363 1328 
L 5138 1316 
Q 4447 1259 3641 1216 
L 3413 1209 
z
M 1325 4659 
L 1325 4128 
L 2963 4128 
L 2963 4659 
L 1325 4659 
z
M 1325 3788 
L 1325 3219 
L 2963 3219 
L 2963 3788 
L 1325 3788 
z
M 5063 3219 
L 5063 3788 
L 3394 3788 
L 3394 3219 
L 5063 3219 
z
M 5063 4128 
L 5063 4659 
L 3394 4659 
L 3394 4128 
L 5063 4128 
z
M 494 25 
Q 1316 375 1944 1006 
L 2375 788 
Q 1775 131 869 -347 
L 494 25 
z
M 5575 -213 
Q 4806 431 4081 806 
L 4453 1081 
Q 5194 716 5984 141 
L 5575 -213 
z
" transform="scale(0.015625)"/>
       <path id="IPAexGothic-7a4d" d="M 2369 3513 
L 3981 3513 
L 3981 3828 
L 2656 3828 
L 2656 4153 
L 3981 4153 
L 3981 4447 
L 2472 4447 
L 2472 4788 
L 3981 4788 
L 3981 5313 
L 4403 5313 
L 4403 4788 
L 5966 4788 
L 5966 4447 
L 4403 4447 
L 4403 4153 
L 5747 4153 
L 5747 3828 
L 4403 3828 
L 4403 3513 
L 6081 3513 
L 6081 3166 
L 2309 3166 
L 2309 3297 
L 1678 3297 
L 1678 2713 
Q 2091 2372 2509 1919 
L 2228 1516 
Q 1994 1878 1678 2225 
L 1678 -450 
L 1256 -450 
L 1256 2434 
Q 934 1434 450 741 
L 238 1181 
Q 928 2197 1203 3297 
L 328 3297 
L 328 3700 
L 1256 3700 
L 1256 4550 
Q 856 4469 519 4422 
L 341 4788 
Q 1275 4919 2069 5222 
L 2381 4859 
Q 2031 4738 1678 4647 
L 1678 3700 
L 2369 3700 
L 2369 3513 
z
M 3622 575 
L 3950 306 
Q 3284 -219 2578 -488 
L 2278 -141 
Q 2969 94 3616 575 
L 2791 575 
L 2791 2853 
L 5653 2853 
L 5653 575 
L 3622 575 
z
M 3194 2522 
L 3194 2194 
L 5244 2194 
L 5244 2522 
L 3194 2522 
z
M 3194 1894 
L 3194 1569 
L 5244 1569 
L 5244 1894 
L 3194 1894 
z
M 3194 1269 
L 3194 916 
L 5244 916 
L 5244 1269 
L 3194 1269 
z
M 5791 -422 
Q 5163 6 4466 294 
L 4769 569 
Q 5425 344 6131 -72 
L 5791 -422 
z
" transform="scale(0.015625)"/>
       <path id="IPAexGothic-5272" d="M 2325 4209 
L 2325 3713 
L 3272 3713 
L 3272 3381 
L 2325 3381 
L 2325 2950 
L 3494 2950 
L 3494 2619 
L 2325 2619 
L 2325 2175 
L 3956 2175 
L 3956 1809 
L 353 1809 
L 353 2175 
L 1909 2175 
L 1909 2619 
L 753 2619 
L 753 2950 
L 1909 2950 
L 1909 3381 
L 984 3381 
L 984 3713 
L 1909 3713 
L 1909 4209 
L 838 4209 
L 838 3609 
L 409 3609 
L 409 4569 
L 1903 4569 
L 1903 5313 
L 2338 5313 
L 2338 4569 
L 3872 4569 
L 3872 3609 
L 3444 3609 
L 3444 4209 
L 2325 4209 
z
M 3388 1397 
L 3388 -384 
L 2966 -384 
L 2966 -122 
L 1269 -122 
L 1269 -447 
L 847 -447 
L 847 1397 
L 3388 1397 
z
M 1269 1038 
L 1269 238 
L 2966 238 
L 2966 1038 
L 1269 1038 
z
M 4259 4550 
L 4700 4550 
L 4700 953 
L 4259 953 
L 4259 4550 
z
M 5403 5081 
L 5844 5081 
L 5844 159 
Q 5844 -106 5747 -231 
Q 5634 -372 5263 -372 
Q 4763 -372 4391 -325 
L 4303 141 
Q 4803 75 5206 75 
Q 5403 75 5403 300 
L 5403 5081 
z
" transform="scale(0.015625)"/>
       <path id="IPAexGothic-5408" d="M 1831 3188 
L 4653 3188 
L 4653 2778 
L 1747 2778 
L 1747 3125 
Q 1275 2778 594 2453 
L 294 2828 
Q 2006 3509 2891 5147 
L 3431 5147 
Q 4331 3806 6125 3003 
L 5831 2588 
Q 4119 3416 3175 4731 
Q 2650 3806 1831 3188 
z
M 5113 2088 
L 5113 -450 
L 4638 -450 
L 4638 -97 
L 1766 -97 
L 1766 -450 
L 1284 -450 
L 1284 2088 
L 5113 2088 
z
M 1766 1691 
L 1766 300 
L 4638 300 
L 4638 1691 
L 1766 1691 
z
" transform="scale(0.015625)"/>
      </defs>
      <use xlink:href="#IPAexGothic-7d2f"/>
      <use xlink:href="#IPAexGothic-7a4d" transform="translate(100 0)"/>
      <use xlink:href="#IPAexGothic-5272" transform="translate(200 0)"/>
      <use xlink:href="#IPAexGothic-5408" transform="translate(300 0)"/>
     </g>
    </g>
   </g>
   <g id="line2d_12">
    <path d="M 71.194091 239.04 
L 71.194091 237.842727 
L 89.791394 237.842727 
L 89.791394 236.645455 
L 100.200333 236.645455 
L 100.200333 234.250909 
L 103.600586 234.250909 
L 103.600586 233.053636 
L 110.748057 233.053636 
L 110.748057 231.856364 
L 116.160706 231.856364 
L 116.160706 230.659091 
L 116.50767 230.659091 
L 116.50767 229.461818 
L 117.062814 229.461818 
L 117.062814 228.264545 
L 118.86703 228.264545 
L 118.86703 227.067273 
L 119.769138 227.067273 
L 119.769138 225.87 
L 121.156996 225.87 
L 121.156996 224.672727 
L 121.295782 224.672727 
L 121.295782 223.475455 
L 121.573354 223.475455 
L 121.642747 221.080909 
L 122.822426 221.080909 
L 122.822426 219.883636 
L 123.37757 219.883636 
L 123.37757 218.686364 
L 123.655141 218.686364 
L 123.655141 217.489091 
L 124.626642 217.489091 
L 124.626642 216.291818 
L 126.361465 216.291818 
L 126.361465 215.094545 
L 127.88811 215.094545 
L 127.88811 213.897273 
L 128.651432 213.897273 
L 128.651432 212.7 
L 130.316862 212.7 
L 130.316862 211.502727 
L 130.455648 211.502727 
L 130.455648 210.305455 
L 133.300758 210.305455 
L 133.370151 207.910909 
L 136.354046 207.910909 
L 136.354046 206.713636 
L 136.90919 206.713636 
L 136.90919 205.516364 
L 137.325547 205.516364 
L 137.325547 204.319091 
L 137.741905 204.319091 
L 137.741905 203.121818 
L 137.950084 203.121818 
L 137.950084 201.924545 
L 138.435834 201.924545 
L 138.435834 200.727273 
L 139.407335 200.727273 
L 139.407335 199.53 
L 141.003372 199.53 
L 141.003372 198.332727 
L 141.974873 198.332727 
L 142.044266 195.938182 
L 142.668802 195.938182 
L 142.668802 194.740909 
L 142.807588 194.740909 
L 142.807588 193.543636 
L 145.722091 193.543636 
L 145.722091 191.149091 
L 146.624199 191.149091 
L 146.624199 189.951818 
L 147.040557 189.951818 
L 147.040557 188.754545 
L 147.526307 188.754545 
L 147.526307 187.557273 
L 149.191737 187.557273 
L 149.191737 186.36 
L 150.371417 186.36 
L 150.371417 185.162727 
L 152.10624 185.162727 
L 152.10624 183.965455 
L 152.453205 183.965455 
L 152.453205 182.768182 
L 152.800169 182.768182 
L 152.800169 181.570909 
L 154.049242 181.570909 
L 154.049242 180.373636 
L 154.257421 180.373636 
L 154.257421 179.176364 
L 154.396207 179.176364 
L 154.396207 177.979091 
L 156.477994 177.979091 
L 156.477994 176.781818 
L 156.61678 176.781818 
L 156.61678 175.584545 
L 156.894352 175.584545 
L 156.894352 174.387273 
L 157.657674 174.387273 
L 157.657674 173.19 
L 158.767961 173.19 
L 158.767961 170.795455 
L 159.323104 170.795455 
L 159.323104 169.598182 
L 159.600676 169.598182 
L 159.600676 168.400909 
L 161.196713 168.400909 
L 161.196713 167.203636 
L 162.376393 167.203636 
L 162.376393 166.006364 
L 162.931536 166.006364 
L 162.931536 164.809091 
L 163.070322 164.809091 
L 163.139715 162.414545 
L 164.041823 162.414545 
L 164.041823 161.217273 
L 164.319395 161.217273 
L 164.319395 160.02 
L 166.609361 160.02 
L 166.609361 158.822727 
L 167.372683 158.822727 
L 167.372683 157.625455 
L 167.650255 157.625455 
L 167.650255 156.428182 
L 167.789041 156.428182 
L 167.789041 155.230909 
L 168.344184 155.230909 
L 168.344184 154.033636 
L 169.66265 154.033636 
L 169.66265 152.836364 
L 170.009614 152.836364 
L 170.009614 151.639091 
L 171.050508 151.639091 
L 171.050508 150.441818 
L 171.397473 150.441818 
L 171.397473 149.244545 
L 171.952616 149.244545 
L 171.952616 148.047273 
L 173.271082 148.047273 
L 173.271082 146.85 
L 173.479261 146.85 
L 173.548654 144.455455 
L 174.034404 144.455455 
L 174.034404 143.258182 
L 174.242583 143.258182 
L 174.242583 140.863636 
L 175.075298 140.863636 
L 175.075298 139.666364 
L 175.83862 139.666364 
L 175.83862 138.469091 
L 176.463156 138.469091 
L 176.463156 137.271818 
L 176.810121 137.271818 
L 176.810121 134.877273 
L 177.226478 134.877273 
L 177.226478 133.68 
L 177.781622 133.68 
L 177.781622 132.482727 
L 179.585838 132.482727 
L 179.585838 131.285455 
L 180.210374 131.285455 
L 180.210374 130.088182 
L 185.137272 130.088182 
L 185.137272 128.890909 
L 186.247559 128.890909 
L 186.247559 127.693636 
L 187.080274 127.693636 
L 187.080274 126.496364 
L 187.427238 126.496364 
L 187.427238 125.299091 
L 189.231454 125.299091 
L 189.231454 124.101818 
L 190.272348 124.101818 
L 190.272348 122.904545 
L 190.688706 122.904545 
L 190.688706 120.51 
L 191.798992 120.51 
L 191.798992 119.312727 
L 192.076564 119.312727 
L 192.076564 118.115455 
L 193.186851 118.115455 
L 193.186851 116.918182 
L 193.464423 116.918182 
L 193.464423 114.523636 
L 193.950173 114.523636 
L 193.950173 113.326364 
L 194.921674 113.326364 
L 194.921674 112.129091 
L 195.06046 112.129091 
L 195.06046 110.931818 
L 195.684996 110.931818 
L 195.684996 108.537273 
L 199.085249 108.537273 
L 199.085249 107.34 
L 199.640393 107.34 
L 199.640393 106.142727 
L 200.473108 106.142727 
L 200.473108 104.945455 
L 203.387611 104.945455 
L 203.387611 103.748182 
L 204.150933 103.748182 
L 204.150933 102.550909 
L 205.469398 102.550909 
L 205.469398 101.353636 
L 205.955149 101.353636 
L 205.955149 100.156364 
L 207.204222 100.156364 
L 207.204222 98.959091 
L 207.759365 98.959091 
L 207.759365 97.761818 
L 210.188117 97.761818 
L 210.188117 96.564545 
L 210.673868 96.564545 
L 210.673868 95.367273 
L 211.784155 95.367273 
L 211.784155 94.17 
L 214.212907 94.17 
L 214.212907 92.972727 
L 216.086516 92.972727 
L 216.086516 91.775455 
L 216.502873 91.775455 
L 216.502873 90.578182 
L 216.849838 90.578182 
L 216.849838 89.380909 
L 218.307089 89.380909 
L 218.307089 88.183636 
L 220.041912 88.183636 
L 220.041912 86.986364 
L 220.250091 86.986364 
L 220.250091 85.789091 
L 220.527663 85.789091 
L 220.527663 84.591818 
L 223.372773 84.591818 
L 223.372773 83.394545 
L 224.830024 83.394545 
L 224.830024 82.197273 
L 225.315775 82.197273 
L 225.385168 79.802727 
L 227.258777 79.802727 
L 227.258777 78.605455 
L 228.29967 78.605455 
L 228.29967 77.408182 
L 229.548743 77.408182 
L 229.548743 76.210909 
L 233.157175 76.210909 
L 233.157175 75.013636 
L 234.406248 75.013636 
L 234.406248 73.816364 
L 236.279857 73.816364 
L 236.279857 72.619091 
L 236.418642 72.619091 
L 236.418642 71.421818 
L 238.50043 71.421818 
L 238.50043 70.224545 
L 239.194359 70.224545 
L 239.194359 69.027273 
L 245.231544 69.027273 
L 245.231544 67.83 
L 245.37033 67.83 
L 245.37033 66.632727 
L 248.007261 66.632727 
L 248.007261 65.435455 
L 250.921764 65.435455 
L 250.921764 64.238182 
L 251.338121 64.238182 
L 251.338121 63.040909 
L 257.028341 63.040909 
L 257.028341 61.843636 
L 257.583484 61.843636 
L 257.583484 60.646364 
L 258.485592 60.646364 
L 258.485592 59.449091 
L 259.040736 59.449091 
L 259.040736 58.251818 
L 260.844952 58.251818 
L 260.844952 57.054545 
L 261.261309 57.054545 
L 261.261309 55.857273 
L 266.882136 55.857273 
L 266.882136 54.66 
L 269.935425 54.66 
L 269.935425 53.462727 
L 270.906926 53.462727 
L 270.906926 52.265455 
L 274.723536 52.265455 
L 274.723536 51.068182 
L 277.707432 51.068182 
L 277.707432 49.870909 
L 278.193183 49.870909 
L 278.193183 48.673636 
L 290.198158 48.673636 
L 290.198158 47.476364 
L 290.336944 47.476364 
L 290.336944 46.279091 
L 291.447231 46.279091 
L 291.447231 45.081818 
L 294.569913 45.081818 
L 294.569913 43.884545 
L 298.525309 43.884545 
L 298.525309 42.687273 
L 313.652967 42.687273 
L 313.652967 41.49 
L 314.069324 41.49 
L 314.069324 40.292727 
L 318.649257 40.292727 
L 318.649257 39.095455 
L 323.437369 39.095455 
L 323.437369 37.898182 
L 328.641838 37.898182 
L 328.641838 36.700909 
L 331.278769 36.700909 
L 331.278769 35.503636 
L 357.301116 35.503636 
L 357.301116 34.306364 
L 364.587373 34.306364 
L 364.587373 33.109091 
L 384.156177 33.109091 
L 384.156177 31.911818 
L 384.850106 31.911818 
L 384.850106 30.714545 
L 385.266464 30.714545 
L 385.266464 29.517273 
L 402.475909 29.517273 
L 402.475909 28.32 
L 402.475909 28.32 
" clip-path="url(#p6cb75df43b)" style="fill: none; stroke: #dd8452; stroke-width: 1.5; stroke-linecap: round"/>
   </g>
   <g id="line2d_13">
    <path d="M 102.004549 239.04 
L 102.004549 235.941176 
L 102.351514 235.941176 
L 102.351514 232.842353 
L 107.833555 232.842353 
L 107.833555 229.743529 
L 108.943841 229.743529 
L 109.013234 223.545882 
L 109.429592 223.545882 
L 109.429592 220.447059 
L 117.756743 220.447059 
L 117.756743 217.348235 
L 119.769138 217.348235 
L 119.769138 214.249412 
L 119.907923 214.249412 
L 119.907923 211.150588 
L 121.573354 211.150588 
L 121.642747 204.952941 
L 123.793927 204.952941 
L 123.793927 201.854118 
L 127.402359 201.854118 
L 127.402359 198.755294 
L 128.859611 198.755294 
L 128.859611 195.656471 
L 131.010791 195.656471 
L 131.010791 192.557647 
L 132.259864 192.557647 
L 132.259864 189.458824 
L 134.272259 189.458824 
L 134.272259 186.36 
L 134.966188 186.36 
L 134.966188 183.261176 
L 136.145868 183.261176 
L 136.145868 180.162353 
L 136.492832 180.162353 
L 136.492832 177.063529 
L 138.297048 177.063529 
L 138.297048 173.964706 
L 140.101264 173.964706 
L 140.101264 167.767059 
L 140.309443 167.767059 
L 140.309443 164.668235 
L 141.211551 164.668235 
L 141.211551 161.569412 
L 143.015767 161.569412 
L 143.015767 152.272941 
L 143.640303 152.272941 
L 143.640303 149.174118 
L 148.08145 149.174118 
L 148.08145 146.075294 
L 148.844773 146.075294 
L 148.844773 142.976471 
L 150.648989 142.976471 
L 150.648989 139.877647 
L 157.310709 139.877647 
L 157.310709 136.778824 
L 160.572177 136.778824 
L 160.572177 133.68 
L 160.780356 133.68 
L 160.780356 127.482353 
L 160.919141 127.482353 
L 160.919141 124.383529 
L 162.79275 124.383529 
L 162.79275 121.284706 
L 163.694858 121.284706 
L 163.694858 118.185882 
L 163.903037 118.185882 
L 163.903037 115.087059 
L 164.180609 115.087059 
L 164.180609 111.988235 
L 164.943931 111.988235 
L 164.943931 108.889412 
L 165.499074 108.889412 
L 165.499074 105.790588 
L 169.870829 105.790588 
L 169.870829 102.691765 
L 171.119901 102.691765 
L 171.119901 99.592941 
L 176.601942 99.592941 
L 176.601942 96.494118 
L 176.740728 96.494118 
L 176.740728 93.395294 
L 179.238873 93.395294 
L 179.238873 90.296471 
L 179.724624 90.296471 
L 179.724624 87.197647 
L 182.292162 87.197647 
L 182.292162 84.098824 
L 184.790307 84.098824 
L 184.790307 81 
L 187.357845 81 
L 187.357845 77.901176 
L 190.54992 77.901176 
L 190.54992 74.802353 
L 192.354136 74.802353 
L 192.354136 71.703529 
L 196.72589 71.703529 
L 196.72589 68.604706 
L 207.828758 68.604706 
L 207.828758 65.505882 
L 208.245115 65.505882 
L 208.245115 62.407059 
L 216.988624 62.407059 
L 216.988624 59.308235 
L 221.360378 59.308235 
L 221.360378 56.209412 
L 237.598322 56.209412 
L 237.598322 53.110588 
L 238.639216 53.110588 
L 238.639216 50.011765 
L 247.243939 50.011765 
L 247.243939 46.912941 
L 256.681376 46.912941 
L 256.681376 43.814118 
L 276.666538 43.814118 
L 276.666538 40.715294 
L 287.908192 40.715294 
L 287.908192 37.616471 
L 291.586017 37.616471 
L 291.586017 34.517647 
L 335.719916 34.517647 
L 335.719916 31.418824 
L 349.043358 31.418824 
L 349.043358 28.32 
L 349.043358 28.32 
" clip-path="url(#p6cb75df43b)" style="fill: none; stroke: #4c72b0; stroke-width: 1.5; stroke-linecap: round"/>
   </g>
   <g id="patch_3">
    <path d="M 54.63 239.04 
L 54.63 28.32 
" style="fill: none; stroke: #ffffff; stroke-width: 1.25; stroke-linejoin: miter; stroke-linecap: square"/>
   </g>
   <g id="patch_4">
    <path d="M 419.04 239.04 
L 419.04 28.32 
" style="fill: none; stroke: #ffffff; stroke-width: 1.25; stroke-linejoin: miter; stroke-linecap: square"/>
   </g>
   <g id="patch_5">
    <path d="M 54.63 239.04 
L 419.04 239.04 
" style="fill: none; stroke: #ffffff; stroke-width: 1.25; stroke-linejoin: miter; stroke-linecap: square"/>
   </g>
   <g id="patch_6">
    <path d="M 54.63 28.32 
L 419.04 28.32 
" style="fill: none; stroke: #ffffff; stroke-width: 1.25; stroke-linejoin: miter; stroke-linecap: square"/>
   </g>
   <g id="text_14">
    <!-- 会計金額の ECDF -->
    <g style="fill: #262626" transform="translate(189.321562 22.32) scale(0.12 -0.12)">
     <defs>
      <path id="IPAexGothic-306e" d="M 3119 469 
Q 5275 766 5275 2425 
Q 5275 3453 4413 3925 
Q 4041 4116 3547 4159 
Q 3394 2525 2850 1400 
Q 2322 306 1722 306 
Q 1384 306 1084 666 
Q 609 1244 609 2003 
Q 609 3025 1397 3794 
Q 2184 4563 3431 4563 
Q 4306 4563 4928 4122 
Q 5813 3506 5813 2425 
Q 5813 438 3431 6 
L 3119 469 
z
M 3053 4147 
Q 2378 4044 1891 3641 
Q 1097 2981 1097 1991 
Q 1097 1366 1434 978 
Q 1581 813 1719 813 
Q 2022 813 2416 1625 
Q 2909 2638 3053 4147 
z
" transform="scale(0.015625)"/>
      <path id="IPAexGothic-45" d="M 3547 63 
L 609 63 
L 609 4634 
L 3469 4634 
L 3469 4147 
L 1166 4147 
L 1166 2650 
L 3206 2650 
L 3206 2191 
L 1166 2191 
L 1166 556 
L 3547 556 
L 3547 63 
z
" transform="scale(0.015625)"/>
      <path id="IPAexGothic-43" d="M 4353 1088 
Q 4181 694 3859 428 
Q 3313 -31 2559 -31 
Q 1588 -31 959 653 
Q 378 1294 378 2331 
Q 378 3406 1013 4078 
Q 1619 4725 2534 4725 
Q 3813 4725 4322 3628 
L 3809 3391 
Q 3425 4238 2541 4238 
Q 1891 4238 1453 3744 
Q 994 3216 994 2322 
Q 994 1550 1384 1056 
Q 1841 472 2563 472 
Q 3456 472 3878 1319 
L 4353 1088 
z
" transform="scale(0.015625)"/>
      <path id="IPAexGothic-44" d="M 609 4634 
L 1984 4634 
Q 3159 4634 3791 4050 
Q 4456 3444 4456 2356 
Q 4456 1047 3516 441 
Q 2925 63 1941 63 
L 609 63 
L 609 4634 
z
M 1172 556 
L 1894 556 
Q 3853 556 3853 2356 
Q 3853 4147 1928 4147 
L 1172 4147 
L 1172 556 
z
" transform="scale(0.015625)"/>
      <path id="IPAexGothic-46" d="M 3469 4141 
L 1172 4141 
L 1172 2656 
L 3206 2656 
L 3206 2188 
L 1172 2188 
L 1172 63 
L 609 63 
L 609 4634 
L 3469 4634 
L 3469 4141 
z
" transform="scale(0.015625)"/>
     </defs>
     <use xlink:href="#IPAexGothic-4f1a"/>
     <use xlink:href="#IPAexGothic-8a08" transform="translate(100 0)"/>
     <use xlink:href="#IPAexGothic-91d1" transform="translate(200 0)"/>
     <use xlink:href="#IPAexGothic-984d" transform="translate(300 0)"/>
     <use xlink:href="#IPAexGothic-306e" transform="translate(400 0)"/>
     <use xlink:href="#IPAexGothic-20" transform="translate(500 0)"/>
     <use xlink:href="#IPAexGothic-45" transform="translate(527.001953 0)"/>
     <use xlink:href="#IPAexGothic-43" transform="translate(586.523438 0)"/>
     <use xlink:href="#IPAexGothic-44" transform="translate(659.033203 0)"/>
     <use xlink:href="#IPAexGothic-46" transform="translate(734.716797 0)"/>
    </g>
   </g>
   <g id="legend_1">
    <g id="patch_7">
     <path d="M 335.725312 99.848125 
L 405.84 99.848125 
Q 408.04 99.848125 408.04 97.648125 
L 408.04 41.52 
Q 408.04 39.32 405.84 39.32 
L 335.725312 39.32 
Q 333.525312 39.32 333.525312 41.52 
L 333.525312 97.648125 
Q 333.525312 99.848125 335.725312 99.848125 
z
" style="fill: #eaeaf2; opacity: 0.8; stroke: #cccccc; stroke-linejoin: miter"/>
    </g>
    <g id="text_15">
     <!-- time -->
     <g style="fill: #262626" transform="translate(358.445156 52.70875) scale(0.12 -0.12)">
      <defs>
       <path id="IPAexGothic-74" d="M 2125 241 
Q 1769 -6 1397 -6 
Q 653 -6 653 831 
L 653 2859 
L 219 2859 
L 219 3250 
L 653 3250 
L 653 3966 
L 1178 4228 
L 1178 3250 
L 2063 3250 
L 2063 2859 
L 1178 2859 
L 1178 906 
Q 1178 416 1513 416 
Q 1738 416 1941 588 
L 2125 241 
z
" transform="scale(0.015625)"/>
       <path id="IPAexGothic-69" d="M 1178 3928 
L 550 3928 
L 550 4569 
L 1178 4569 
L 1178 3928 
z
M 1138 63 
L 588 63 
L 588 3250 
L 1138 3250 
L 1138 63 
z
" transform="scale(0.015625)"/>
       <path id="IPAexGothic-6d" d="M 5022 63 
L 4472 63 
L 4472 2059 
Q 4472 2869 3847 2869 
Q 3550 2869 3303 2594 
Q 3128 2397 3059 2103 
L 3059 63 
L 2509 63 
L 2509 2066 
Q 2509 2869 1919 2869 
Q 1606 2869 1369 2594 
Q 1113 2306 1113 2041 
L 1113 63 
L 563 63 
L 563 3250 
L 1075 3250 
L 1075 2700 
Q 1391 3316 2028 3316 
Q 2725 3316 2956 2647 
Q 3303 3316 3953 3316 
Q 4478 3316 4772 2944 
Q 5022 2638 5022 2072 
L 5022 63 
z
" transform="scale(0.015625)"/>
       <path id="IPAexGothic-65" d="M 863 1594 
Q 891 1041 1209 722 
Q 1534 397 1997 397 
Q 2606 397 2963 966 
L 3322 728 
Q 2869 -31 1931 -31 
Q 1222 -31 766 422 
Q 306 884 306 1641 
Q 306 2444 788 2925 
Q 1216 3353 1856 3353 
Q 2459 3353 2866 2956 
Q 3322 2494 3322 1722 
L 3322 1594 
L 863 1594 
z
M 2756 1997 
Q 2709 2431 2450 2681 
Q 2194 2938 1844 2938 
Q 1438 2938 1150 2591 
Q 953 2356 894 1997 
L 2756 1997 
z
" transform="scale(0.015625)"/>
      </defs>
      <use xlink:href="#IPAexGothic-74"/>
      <use xlink:href="#IPAexGothic-69" transform="translate(34.619141 0)"/>
      <use xlink:href="#IPAexGothic-6d" transform="translate(61.621094 0)"/>
      <use xlink:href="#IPAexGothic-65" transform="translate(148.730469 0)"/>
     </g>
    </g>
    <g id="line2d_14">
     <path d="M 337.925312 69.278437 
L 348.925312 69.278437 
L 348.925312 69.278437 
L 359.925312 69.278437 
L 359.925312 69.278437 
" style="fill: none; stroke: #4c72b0; stroke-width: 1.5; stroke-linecap: round"/>
    </g>
    <g id="text_16">
     <!-- Lunch -->
     <g style="fill: #262626" transform="translate(368.725312 73.128437) scale(0.11 -0.11)">
      <defs>
       <path id="IPAexGothic-4c" d="M 3347 63 
L 609 63 
L 609 4634 
L 1178 4634 
L 1178 563 
L 3347 563 
L 3347 63 
z
" transform="scale(0.015625)"/>
       <path id="IPAexGothic-75" d="M 3284 63 
L 2772 63 
L 2772 644 
Q 2300 0 1625 0 
Q 1072 0 763 375 
Q 519 678 519 1241 
L 519 3250 
L 1069 3250 
L 1069 1259 
Q 1069 466 1734 466 
Q 2406 466 2734 1291 
L 2734 3250 
L 3284 3250 
L 3284 63 
z
" transform="scale(0.015625)"/>
       <path id="IPAexGothic-6e" d="M 3328 63 
L 2778 63 
L 2778 2041 
Q 2778 2853 2106 2853 
Q 1428 2853 1113 2041 
L 1113 63 
L 563 63 
L 563 3250 
L 1075 3250 
L 1075 2675 
Q 1525 3316 2222 3316 
Q 3328 3316 3328 2072 
L 3328 63 
z
" transform="scale(0.015625)"/>
       <path id="IPAexGothic-63" d="M 3269 784 
Q 2834 -31 1900 -31 
Q 1228 -31 788 409 
Q 313 891 313 1663 
Q 313 2428 788 2913 
Q 1222 3347 1881 3347 
Q 2813 3347 3206 2541 
L 2763 2309 
Q 2484 2900 1900 2900 
Q 1516 2900 1234 2619 
Q 881 2266 881 1650 
Q 881 1069 1222 728 
Q 1522 428 1956 428 
Q 2547 428 2847 1016 
L 3269 784 
z
" transform="scale(0.015625)"/>
       <path id="IPAexGothic-68" d="M 3347 63 
L 2797 63 
L 2797 2041 
Q 2797 2853 2131 2853 
Q 1447 2853 1131 2041 
L 1131 63 
L 581 63 
L 581 4794 
L 1131 4794 
L 1131 2706 
Q 1566 3316 2247 3316 
Q 3347 3316 3347 2072 
L 3347 63 
z
" transform="scale(0.015625)"/>
      </defs>
      <use xlink:href="#IPAexGothic-4c"/>
      <use xlink:href="#IPAexGothic-75" transform="translate(52.587891 0)"/>
      <use xlink:href="#IPAexGothic-6e" transform="translate(112.988281 0)"/>
      <use xlink:href="#IPAexGothic-63" transform="translate(173.388672 0)"/>
      <use xlink:href="#IPAexGothic-68" transform="translate(227.783203 0)"/>
     </g>
    </g>
    <g id="line2d_15">
     <path d="M 337.925312 89.508125 
L 348.925312 89.508125 
L 348.925312 89.508125 
L 359.925312 89.508125 
L 359.925312 89.508125 
" style="fill: none; stroke: #dd8452; stroke-width: 1.5; stroke-linecap: round"/>
    </g>
    <g id="text_17">
     <!-- Dinner -->
     <g style="fill: #262626" transform="translate(368.725312 93.358125) scale(0.11 -0.11)">
      <defs>
       <path id="IPAexGothic-72" d="M 2309 3316 
L 2213 2769 
Q 2106 2791 2022 2791 
Q 1653 2791 1413 2444 
Q 1113 2006 1113 1675 
L 1113 63 
L 563 63 
L 563 3250 
L 1081 3250 
L 1056 2303 
L 1069 2303 
Q 1422 3341 2097 3341 
Q 2206 3341 2309 3316 
z
" transform="scale(0.015625)"/>
      </defs>
      <use xlink:href="#IPAexGothic-44"/>
      <use xlink:href="#IPAexGothic-69" transform="translate(75.683594 0)"/>
      <use xlink:href="#IPAexGothic-6e" transform="translate(102.685547 0)"/>
      <use xlink:href="#IPAexGothic-6e" transform="translate(163.085938 0)"/>
      <use xlink:href="#IPAexGothic-65" transform="translate(223.486328 0)"/>
      <use xlink:href="#IPAexGothic-72" transform="translate(280.371094 0)"/>
     </g>
    </g>
   </g>
  </g>
 </g>
 <defs>
  <clipPath id="p6cb75df43b">
   <rect x="54.63" y="28.32" width="364.41" height="210.72"/>
  </clipPath>
 </defs>
</svg>
