<?xml version="1.0" encoding="utf-8" standalone="no"?>
<!DOCTYPE svg PUBLIC "-//W3C//DTD SVG 1.1//EN"
  "http://www.w3.org/Graphics/SVG/1.1/DTD/svg11.dtd">
<svg xmlns:xlink="http://www.w3.org/1999/xlink" width="432pt" height="288pt" viewBox="0 0 432 288" xmlns="http://www.w3.org/2000/svg" version="1.1">
 <metadata>
  <rdf:RDF xmlns:dc="http://purl.org/dc/elements/1.1/" xmlns:cc="http://creativecommons.org/ns#" xmlns:rdf="http://www.w3.org/1999/02/22-rdf-syntax-ns#">
   <cc:Work>
    <dc:type rdf:resource="http://purl.org/dc/dcmitype/StillImage"/>
    <dc:date>2025-10-29T09:07:46.366735</dc:date>
    <dc:format>image/svg+xml</dc:format>
    <dc:creator>
     <cc:Agent>
      <dc:title>Matplotlib v3.10.7, https://matplotlib.org/</dc:title>
     </cc:Agent>
    </dc:creator>
   </cc:Work>
  </rdf:RDF>
 </metadata>
 <defs>
  <style type="text/css">*{stroke-linejoin: round; stroke-linecap: butt}</style>
 </defs>
 <g id="figure_1">
  <g id="patch_1">
   <path d="M 0 288 
L 432 288 
L 432 0 
L 0 0 
z
" style="fill: #ffffff"/>
  </g>
  <g id="axes_1">
   <g id="patch_2">
    <path d="M 51.5 242.125 
L 421.2 242.125 
L 421.2 30.48 
L 51.5 30.48 
z
" style="fill: #ffffff"/>
   </g>
   <g id="matplotlib.axis_1">
    <g id="xtick_1">
     <g id="line2d_1">
      <path d="M 117.091935 242.125 
L 117.091935 30.48 
" clip-path="url(#p4f6e642f67)" style="fill: none; stroke: #000000; stroke-opacity: 0.2; stroke-width: 0.5; stroke-linecap: square"/>
     </g>
     <g id="line2d_2">
      <defs>
       <path id="m685c44efe5" d="M 0 0 
L 0 3.5 
" style="stroke: #000000; stroke-width: 0.8"/>
      </defs>
      <g>
       <use xlink:href="#m685c44efe5" x="117.091935" y="242.125" style="stroke: #000000; stroke-width: 0.8"/>
      </g>
     </g>
     <g id="text_1">
      <!-- 10 -->
      <g transform="translate(110.793498 256.615625) scale(0.1 -0.1)">
       <defs>
        <path id="IPAexGothic-31" d="M 2463 63 
L 1900 63 
L 1900 4103 
Q 1372 3922 788 3797 
L 684 4231 
Q 1519 4441 2106 4731 
L 2463 4731 
L 2463 63 
z
" transform="scale(0.015625)"/>
        <path id="IPAexGothic-30" d="M 2038 4725 
Q 2881 4725 3334 3944 
Q 3694 3325 3694 2344 
Q 3694 1372 3334 741 
Q 2888 -31 2016 -31 
Q 1147 -31 700 741 
Q 341 1372 341 2350 
Q 341 3713 1000 4334 
Q 1419 4725 2038 4725 
z
M 2016 4266 
Q 1516 4266 1228 3759 
Q 934 3247 934 2344 
Q 934 1456 1222 947 
Q 1513 447 2016 447 
Q 2619 447 2909 1153 
Q 3100 1622 3100 2375 
Q 3100 3256 2806 3759 
Q 2509 4266 2016 4266 
z
" transform="scale(0.015625)"/>
       </defs>
       <use xlink:href="#IPAexGothic-31"/>
       <use xlink:href="#IPAexGothic-30" transform="translate(62.988281 0)"/>
      </g>
     </g>
    </g>
    <g id="xtick_2">
     <g id="line2d_3">
      <path d="M 187.49221 242.125 
L 187.49221 30.48 
" clip-path="url(#p4f6e642f67)" style="fill: none; stroke: #000000; stroke-opacity: 0.2; stroke-width: 0.5; stroke-linecap: square"/>
     </g>
     <g id="line2d_4">
      <g>
       <use xlink:href="#m685c44efe5" x="187.49221" y="242.125" style="stroke: #000000; stroke-width: 0.8"/>
      </g>
     </g>
     <g id="text_2">
      <!-- 20 -->
      <g transform="translate(181.193772 256.615625) scale(0.1 -0.1)">
       <defs>
        <path id="IPAexGothic-32" d="M 3659 63 
L 447 63 
L 447 594 
Q 825 1475 1894 2203 
L 2072 2322 
Q 2619 2697 2791 2906 
Q 2988 3153 2988 3444 
Q 2988 3772 2756 4003 
Q 2500 4259 2084 4259 
Q 1250 4259 991 3328 
L 497 3506 
Q 853 4725 2116 4725 
Q 2806 4725 3216 4316 
Q 3575 3947 3575 3425 
Q 3575 3038 3344 2722 
Q 3131 2416 2366 1938 
L 2231 1856 
Q 1256 1253 978 569 
L 3659 569 
L 3659 63 
z
" transform="scale(0.015625)"/>
       </defs>
       <use xlink:href="#IPAexGothic-32"/>
       <use xlink:href="#IPAexGothic-30" transform="translate(62.988281 0)"/>
      </g>
     </g>
    </g>
    <g id="xtick_3">
     <g id="line2d_5">
      <path d="M 257.892484 242.125 
L 257.892484 30.48 
" clip-path="url(#p4f6e642f67)" style="fill: none; stroke: #000000; stroke-opacity: 0.2; stroke-width: 0.5; stroke-linecap: square"/>
     </g>
     <g id="line2d_6">
      <g>
       <use xlink:href="#m685c44efe5" x="257.892484" y="242.125" style="stroke: #000000; stroke-width: 0.8"/>
      </g>
     </g>
     <g id="text_3">
      <!-- 30 -->
      <g transform="translate(251.594046 256.615625) scale(0.1 -0.1)">
       <defs>
        <path id="IPAexGothic-33" d="M 2381 2419 
Q 3506 2216 3506 1278 
Q 3506 716 3128 356 
Q 2709 -31 1944 -31 
Q 797 -31 288 881 
L 756 1131 
Q 1109 441 1938 441 
Q 2425 441 2694 691 
Q 2950 928 2950 1291 
Q 2950 1719 2566 1978 
Q 2216 2213 1644 2213 
L 1363 2213 
L 1363 2669 
L 1656 2669 
Q 2231 2669 2534 2888 
Q 2859 3119 2859 3509 
Q 2859 3934 2494 4138 
Q 2259 4278 1931 4278 
Q 1238 4278 903 3578 
L 434 3803 
Q 897 4725 1938 4725 
Q 2597 4725 3006 4394 
Q 3416 4069 3416 3534 
Q 3416 3028 3019 2706 
Q 2763 2500 2381 2444 
L 2381 2419 
z
" transform="scale(0.015625)"/>
       </defs>
       <use xlink:href="#IPAexGothic-33"/>
       <use xlink:href="#IPAexGothic-30" transform="translate(62.988281 0)"/>
      </g>
     </g>
    </g>
    <g id="xtick_4">
     <g id="line2d_7">
      <path d="M 328.292758 242.125 
L 328.292758 30.48 
" clip-path="url(#p4f6e642f67)" style="fill: none; stroke: #000000; stroke-opacity: 0.2; stroke-width: 0.5; stroke-linecap: square"/>
     </g>
     <g id="line2d_8">
      <g>
       <use xlink:href="#m685c44efe5" x="328.292758" y="242.125" style="stroke: #000000; stroke-width: 0.8"/>
      </g>
     </g>
     <g id="text_4">
      <!-- 40 -->
      <g transform="translate(321.994321 256.615625) scale(0.1 -0.1)">
       <defs>
        <path id="IPAexGothic-34" d="M 3813 1159 
L 3059 1159 
L 3059 63 
L 2547 63 
L 2547 1159 
L 197 1159 
L 197 1672 
L 2456 4678 
L 3059 4678 
L 3059 1634 
L 3813 1634 
L 3813 1159 
z
M 2578 4109 
L 2559 4109 
Q 2278 3656 2003 3284 
L 759 1634 
L 2547 1634 
L 2547 3144 
Q 2547 3481 2578 4109 
z
" transform="scale(0.015625)"/>
       </defs>
       <use xlink:href="#IPAexGothic-34"/>
       <use xlink:href="#IPAexGothic-30" transform="translate(62.988281 0)"/>
      </g>
     </g>
    </g>
    <g id="xtick_5">
     <g id="line2d_9">
      <path d="M 398.693032 242.125 
L 398.693032 30.48 
" clip-path="url(#p4f6e642f67)" style="fill: none; stroke: #000000; stroke-opacity: 0.2; stroke-width: 0.5; stroke-linecap: square"/>
     </g>
     <g id="line2d_10">
      <g>
       <use xlink:href="#m685c44efe5" x="398.693032" y="242.125" style="stroke: #000000; stroke-width: 0.8"/>
      </g>
     </g>
     <g id="text_5">
      <!-- 50 -->
      <g transform="translate(392.394595 256.615625) scale(0.1 -0.1)">
       <defs>
        <path id="IPAexGothic-35" d="M 1178 2603 
Q 1634 2963 2172 2963 
Q 2816 2963 3241 2528 
Q 3638 2113 3638 1497 
Q 3638 938 3297 513 
Q 2869 -31 2031 -31 
Q 959 -31 469 784 
L 938 1028 
Q 1309 434 2013 434 
Q 2466 434 2769 716 
Q 3081 1013 3081 1503 
Q 3081 1966 2806 2241 
Q 2519 2528 2056 2528 
Q 1406 2528 1072 2028 
L 591 2091 
L 884 4634 
L 3406 4634 
L 3406 4153 
L 1341 4153 
L 1134 2603 
L 1178 2603 
z
" transform="scale(0.015625)"/>
       </defs>
       <use xlink:href="#IPAexGothic-35"/>
       <use xlink:href="#IPAexGothic-30" transform="translate(62.988281 0)"/>
      </g>
     </g>
    </g>
    <g id="text_6">
     <!-- 会計金額 ($) -->
     <g transform="translate(196.276375 274.357375) scale(0.144 -0.144)">
      <defs>
       <path id="IPAexGothic-4f1a" d="M 1863 3272 
L 4641 3272 
L 4641 2863 
L 1759 2863 
L 1759 3194 
Q 1734 3175 1638 3113 
Q 1238 2816 594 2497 
L 288 2863 
Q 1959 3597 2894 5147 
L 3431 5147 
Q 4341 3784 6131 3047 
L 5825 2631 
Q 4063 3497 3175 4731 
Q 2653 3881 1863 3272 
z
M 2822 1703 
Q 2531 997 2119 322 
L 2388 341 
Q 3366 409 4325 506 
L 4641 538 
Q 4169 1028 3859 1306 
L 4209 1550 
Q 5088 797 5778 -31 
L 5388 -350 
Q 5156 -50 4928 219 
L 4831 206 
Q 3106 -53 844 -238 
L 684 231 
Q 816 238 1191 263 
L 1631 288 
Q 2022 934 2322 1703 
L 641 1703 
L 641 2125 
L 5759 2125 
L 5759 1703 
L 2822 1703 
z
" transform="scale(0.015625)"/>
       <path id="IPAexGothic-8a08" d="M 2853 1684 
L 2853 -416 
L 2413 -416 
L 2413 -128 
L 1088 -128 
L 1088 -447 
L 647 -447 
L 647 1684 
L 2853 1684 
z
M 1088 1300 
L 1088 256 
L 2413 256 
L 2413 1300 
L 1088 1300 
z
M 4322 3225 
L 4322 5178 
L 4781 5178 
L 4781 3225 
L 6063 3225 
L 6063 2797 
L 4781 2797 
L 4781 -447 
L 4322 -447 
L 4322 2797 
L 3063 2797 
L 3063 3225 
L 4322 3225 
z
M 781 5044 
L 2722 5044 
L 2722 4647 
L 781 4647 
L 781 5044 
z
M 384 4206 
L 3150 4206 
L 3150 3803 
L 384 3803 
L 384 4206 
z
M 781 3359 
L 2722 3359 
L 2722 2963 
L 781 2963 
L 781 3359 
z
M 781 2522 
L 2722 2522 
L 2722 2125 
L 781 2125 
L 781 2522 
z
" transform="scale(0.015625)"/>
       <path id="IPAexGothic-91d1" d="M 3422 2969 
L 3422 2209 
L 5603 2209 
L 5603 1800 
L 3422 1800 
L 3422 191 
L 5922 191 
L 5922 -225 
L 481 -225 
L 481 191 
L 2947 191 
L 2947 1800 
L 803 1800 
L 803 2209 
L 2947 2209 
L 2947 2969 
L 1819 2969 
L 1819 3244 
Q 1263 2809 634 2466 
L 334 2853 
Q 2006 3647 2881 5234 
L 3441 5234 
Q 4503 3791 6109 3059 
L 5775 2613 
Q 5219 2934 4713 3294 
L 4713 2969 
L 3422 2969 
z
M 4609 3372 
Q 3781 3994 3172 4806 
Q 2741 4041 1972 3372 
L 4609 3372 
z
M 1838 300 
Q 1669 878 1344 1459 
L 1784 1644 
Q 2044 1228 2338 481 
L 1838 300 
z
M 4044 441 
Q 4403 1050 4622 1697 
L 5113 1509 
Q 4859 906 4488 288 
L 4044 441 
z
" transform="scale(0.015625)"/>
       <path id="IPAexGothic-984d" d="M 881 1409 
L 856 1391 
Q 750 1331 459 1178 
L 197 1513 
Q 1053 1856 1622 2425 
Q 1222 2709 1066 2809 
Q 847 2550 606 2350 
L 331 2638 
Q 1044 3216 1359 4141 
L 1738 4031 
Q 1650 3778 1578 3634 
L 2544 3634 
L 2756 3441 
Q 2513 2900 2188 2497 
Q 2800 2056 3222 1722 
L 2959 1372 
Q 2794 1519 2781 1525 
L 2781 -97 
L 1297 -97 
L 1297 -450 
L 881 -450 
L 881 1409 
z
M 1094 1538 
L 2769 1538 
Q 2403 1847 2019 2138 
L 1931 2203 
Q 1563 1834 1094 1538 
z
M 2366 1178 
L 1297 1178 
L 1297 275 
L 2366 275 
L 2366 1178 
z
M 1381 3256 
Q 1316 3153 1278 3097 
Q 1522 2944 1878 2706 
Q 2081 2966 2231 3256 
L 1381 3256 
z
M 4616 4025 
L 5741 4025 
L 5741 794 
L 3481 794 
L 3481 4025 
L 4225 4025 
Q 4322 4472 4353 4659 
L 3150 4659 
L 3150 5056 
L 6047 5056 
L 6047 4659 
L 4800 4659 
Q 4797 4638 4769 4538 
Q 4719 4309 4616 4025 
z
M 5331 3653 
L 3891 3653 
L 3891 3078 
L 5331 3078 
L 5331 3653 
z
M 3891 2713 
L 3891 2138 
L 5331 2138 
L 5331 2713 
L 3891 2713 
z
M 3891 1778 
L 3891 1166 
L 5331 1166 
L 5331 1778 
L 3891 1778 
z
M 2028 4544 
L 3153 4544 
L 3153 3550 
L 2744 3550 
L 2744 4178 
L 850 4178 
L 850 3447 
L 447 3447 
L 447 4544 
L 1600 4544 
L 1600 5313 
L 2028 5313 
L 2028 4544 
z
M 2975 -178 
Q 3666 178 4081 756 
L 4447 538 
Q 3956 -109 3300 -513 
L 2975 -178 
z
M 5797 -428 
Q 5275 163 4806 531 
L 5125 769 
Q 5644 403 6150 -122 
L 5797 -428 
z
" transform="scale(0.015625)"/>
       <path id="IPAexGothic-20" transform="scale(0.015625)"/>
       <path id="IPAexGothic-28" d="M 1928 -1016 
L 1653 -1166 
Q 488 69 488 1875 
Q 488 3678 1653 4909 
L 1928 4763 
Q 1006 3522 1006 1881 
Q 1006 203 1928 -1016 
z
" transform="scale(0.015625)"/>
       <path id="IPAexGothic-24" d="M 3034 3572 
Q 2678 4166 1991 4166 
Q 1600 4166 1356 3922 
Q 1178 3744 1178 3475 
Q 1178 3191 1409 3009 
Q 1594 2866 2113 2675 
L 2331 2591 
Q 3528 2141 3528 1313 
Q 3528 653 2984 319 
Q 2672 125 2222 97 
L 2222 -434 
L 1825 -434 
L 1825 103 
Q 969 188 488 844 
L 916 1166 
Q 1359 556 2069 556 
Q 2441 556 2659 716 
Q 2953 925 2953 1272 
Q 2953 1831 1869 2216 
L 1672 2284 
Q 616 2659 616 3425 
Q 616 3978 1069 4325 
Q 1363 4553 1825 4603 
L 1825 5069 
L 2222 5069 
L 2222 4594 
Q 3025 4509 3463 3878 
L 3034 3572 
z
" transform="scale(0.015625)"/>
       <path id="IPAexGothic-29" d="M 466 4909 
Q 1638 3672 1638 1875 
Q 1638 75 466 -1166 
L 191 -1016 
Q 1119 216 1119 1881 
Q 1119 3509 191 4763 
L 466 4909 
z
" transform="scale(0.015625)"/>
      </defs>
      <use xlink:href="#IPAexGothic-4f1a"/>
      <use xlink:href="#IPAexGothic-8a08" transform="translate(100 0)"/>
      <use xlink:href="#IPAexGothic-91d1" transform="translate(200 0)"/>
      <use xlink:href="#IPAexGothic-984d" transform="translate(300 0)"/>
      <use xlink:href="#IPAexGothic-20" transform="translate(400 0)"/>
      <use xlink:href="#IPAexGothic-28" transform="translate(427.001953 0)"/>
      <use xlink:href="#IPAexGothic-24" transform="translate(460.302734 0)"/>
      <use xlink:href="#IPAexGothic-29" transform="translate(523.291016 0)"/>
     </g>
    </g>
   </g>
   <g id="matplotlib.axis_2">
    <g id="ytick_1">
     <g id="line2d_11">
      <path d="M 51.5 242.125 
L 421.2 242.125 
" clip-path="url(#p4f6e642f67)" style="fill: none; stroke: #000000; stroke-opacity: 0.2; stroke-width: 0.5; stroke-linecap: square"/>
     </g>
     <g id="line2d_12">
      <defs>
       <path id="m13715b861d" d="M 0 0 
L -3.5 0 
" style="stroke: #000000; stroke-width: 0.8"/>
      </defs>
      <g>
       <use xlink:href="#m13715b861d" x="51.5" y="242.125" style="stroke: #000000; stroke-width: 0.8"/>
      </g>
     </g>
     <g id="text_7">
      <!-- 0.0 -->
      <g transform="translate(29.260938 245.870313) scale(0.1 -0.1)">
       <defs>
        <path id="IPAexGothic-2e" d="M 1184 63 
L 494 63 
L 494 753 
L 1184 753 
L 1184 63 
z
" transform="scale(0.015625)"/>
       </defs>
       <use xlink:href="#IPAexGothic-30"/>
       <use xlink:href="#IPAexGothic-2e" transform="translate(62.988281 0)"/>
       <use xlink:href="#IPAexGothic-30" transform="translate(89.404297 0)"/>
      </g>
     </g>
    </g>
    <g id="ytick_2">
     <g id="line2d_13">
      <path d="M 51.5 199.796 
L 421.2 199.796 
" clip-path="url(#p4f6e642f67)" style="fill: none; stroke: #000000; stroke-opacity: 0.2; stroke-width: 0.5; stroke-linecap: square"/>
     </g>
     <g id="line2d_14">
      <g>
       <use xlink:href="#m13715b861d" x="51.5" y="199.796" style="stroke: #000000; stroke-width: 0.8"/>
      </g>
     </g>
     <g id="text_8">
      <!-- 0.2 -->
      <g transform="translate(29.260938 203.541313) scale(0.1 -0.1)">
       <use xlink:href="#IPAexGothic-30"/>
       <use xlink:href="#IPAexGothic-2e" transform="translate(62.988281 0)"/>
       <use xlink:href="#IPAexGothic-32" transform="translate(89.404297 0)"/>
      </g>
     </g>
    </g>
    <g id="ytick_3">
     <g id="line2d_15">
      <path d="M 51.5 157.467 
L 421.2 157.467 
" clip-path="url(#p4f6e642f67)" style="fill: none; stroke: #000000; stroke-opacity: 0.2; stroke-width: 0.5; stroke-linecap: square"/>
     </g>
     <g id="line2d_16">
      <g>
       <use xlink:href="#m13715b861d" x="51.5" y="157.467" style="stroke: #000000; stroke-width: 0.8"/>
      </g>
     </g>
     <g id="text_9">
      <!-- 0.4 -->
      <g transform="translate(29.260938 161.212312) scale(0.1 -0.1)">
       <use xlink:href="#IPAexGothic-30"/>
       <use xlink:href="#IPAexGothic-2e" transform="translate(62.988281 0)"/>
       <use xlink:href="#IPAexGothic-34" transform="translate(89.404297 0)"/>
      </g>
     </g>
    </g>
    <g id="ytick_4">
     <g id="line2d_17">
      <path d="M 51.5 115.138 
L 421.2 115.138 
" clip-path="url(#p4f6e642f67)" style="fill: none; stroke: #000000; stroke-opacity: 0.2; stroke-width: 0.5; stroke-linecap: square"/>
     </g>
     <g id="line2d_18">
      <g>
       <use xlink:href="#m13715b861d" x="51.5" y="115.138" style="stroke: #000000; stroke-width: 0.8"/>
      </g>
     </g>
     <g id="text_10">
      <!-- 0.6 -->
      <g transform="translate(29.260938 118.883312) scale(0.1 -0.1)">
       <defs>
        <path id="IPAexGothic-36" d="M 1056 2328 
Q 1509 2981 2234 2981 
Q 2906 2981 3316 2513 
Q 3675 2106 3675 1522 
Q 3675 884 3272 434 
Q 2853 -31 2178 -31 
Q 1375 -31 922 581 
Q 481 1178 481 2228 
Q 481 3425 1013 4109 
Q 1494 4725 2272 4725 
Q 3191 4725 3609 4025 
L 3150 3775 
Q 2894 4266 2300 4266 
Q 1119 4266 1031 2328 
L 1056 2328 
z
M 2141 2547 
Q 1684 2547 1384 2206 
Q 1116 1900 1116 1541 
Q 1116 1156 1353 844 
Q 1672 428 2159 428 
Q 2669 428 2941 844 
Q 3125 1128 3125 1503 
Q 3125 1944 2881 2228 
Q 2600 2547 2141 2547 
z
" transform="scale(0.015625)"/>
       </defs>
       <use xlink:href="#IPAexGothic-30"/>
       <use xlink:href="#IPAexGothic-2e" transform="translate(62.988281 0)"/>
       <use xlink:href="#IPAexGothic-36" transform="translate(89.404297 0)"/>
      </g>
     </g>
    </g>
    <g id="ytick_5">
     <g id="line2d_19">
      <path d="M 51.5 72.809 
L 421.2 72.809 
" clip-path="url(#p4f6e642f67)" style="fill: none; stroke: #000000; stroke-opacity: 0.2; stroke-width: 0.5; stroke-linecap: square"/>
     </g>
     <g id="line2d_20">
      <g>
       <use xlink:href="#m13715b861d" x="51.5" y="72.809" style="stroke: #000000; stroke-width: 0.8"/>
      </g>
     </g>
     <g id="text_11">
      <!-- 0.8 -->
      <g transform="translate(29.260938 76.554312) scale(0.1 -0.1)">
       <defs>
        <path id="IPAexGothic-38" d="M 2541 2425 
Q 3700 2031 3700 1197 
Q 3700 541 3100 197 
Q 2663 -56 2016 -56 
Q 1366 -56 928 197 
Q 347 531 347 1178 
Q 347 1988 1409 2381 
L 1409 2400 
Q 481 2734 481 3509 
Q 481 4100 981 4456 
Q 1406 4756 2019 4756 
Q 2703 4756 3131 4403 
Q 3553 4069 3553 3566 
Q 3553 2706 2541 2444 
L 2541 2425 
z
M 2022 2625 
Q 2997 2856 2997 3528 
Q 2997 3916 2675 4150 
Q 2413 4347 2016 4347 
Q 1606 4347 1331 4128 
Q 1050 3897 1050 3522 
Q 1050 3150 1350 2925 
Q 1494 2809 1722 2722 
Q 1984 2616 2022 2625 
z
M 1978 2209 
Q 922 1931 922 1216 
Q 922 775 1313 556 
Q 1606 391 2009 391 
Q 2575 391 2881 697 
Q 3106 922 3106 1250 
Q 3106 1594 2794 1850 
Q 2609 1994 2350 2100 
Q 2047 2222 1978 2209 
z
" transform="scale(0.015625)"/>
       </defs>
       <use xlink:href="#IPAexGothic-30"/>
       <use xlink:href="#IPAexGothic-2e" transform="translate(62.988281 0)"/>
       <use xlink:href="#IPAexGothic-38" transform="translate(89.404297 0)"/>
      </g>
     </g>
    </g>
    <g id="ytick_6">
     <g id="line2d_21">
      <path d="M 51.5 30.48 
L 421.2 30.48 
" clip-path="url(#p4f6e642f67)" style="fill: none; stroke: #000000; stroke-opacity: 0.2; stroke-width: 0.5; stroke-linecap: square"/>
     </g>
     <g id="line2d_22">
      <g>
       <use xlink:href="#m13715b861d" x="51.5" y="30.48" style="stroke: #000000; stroke-width: 0.8"/>
      </g>
     </g>
     <g id="text_12">
      <!-- 1.0 -->
      <g transform="translate(29.260938 34.225312) scale(0.1 -0.1)">
       <use xlink:href="#IPAexGothic-31"/>
       <use xlink:href="#IPAexGothic-2e" transform="translate(62.988281 0)"/>
       <use xlink:href="#IPAexGothic-30" transform="translate(89.404297 0)"/>
      </g>
     </g>
    </g>
    <g id="text_13">
     <!-- 累積割合 -->
     <g transform="translate(22.524938 165.1025) rotate(-90) scale(0.144 -0.144)">
      <defs>
       <path id="IPAexGothic-7d2f" d="M 3413 1209 
L 3413 -450 
L 2938 -450 
L 2938 1181 
L 2541 1163 
Q 1875 1131 525 1100 
L 384 1534 
Q 1159 1534 1522 1541 
L 2316 1547 
Q 1847 1988 1313 2353 
L 1644 2628 
Q 1944 2413 2156 2238 
Q 2441 2488 2759 2866 
L 891 2866 
L 891 5025 
L 5503 5025 
L 5503 2866 
L 2913 2866 
L 3194 2694 
Q 2866 2356 2438 2000 
L 2475 1969 
Q 2481 1966 2884 1597 
L 2925 1559 
Q 3644 2125 4191 2713 
L 4606 2481 
Q 4081 1953 3553 1578 
Q 3622 1584 3750 1584 
Q 4428 1606 4722 1625 
L 5050 1638 
Q 4819 1847 4569 2034 
L 4900 2284 
Q 5453 1884 6047 1272 
L 5688 972 
Q 5538 1156 5363 1328 
L 5138 1316 
Q 4447 1259 3641 1216 
L 3413 1209 
z
M 1325 4659 
L 1325 4128 
L 2963 4128 
L 2963 4659 
L 1325 4659 
z
M 1325 3788 
L 1325 3219 
L 2963 3219 
L 2963 3788 
L 1325 3788 
z
M 5063 3219 
L 5063 3788 
L 3394 3788 
L 3394 3219 
L 5063 3219 
z
M 5063 4128 
L 5063 4659 
L 3394 4659 
L 3394 4128 
L 5063 4128 
z
M 494 25 
Q 1316 375 1944 1006 
L 2375 788 
Q 1775 131 869 -347 
L 494 25 
z
M 5575 -213 
Q 4806 431 4081 806 
L 4453 1081 
Q 5194 716 5984 141 
L 5575 -213 
z
" transform="scale(0.015625)"/>
       <path id="IPAexGothic-7a4d" d="M 2369 3513 
L 3981 3513 
L 3981 3828 
L 2656 3828 
L 2656 4153 
L 3981 4153 
L 3981 4447 
L 2472 4447 
L 2472 4788 
L 3981 4788 
L 3981 5313 
L 4403 5313 
L 4403 4788 
L 5966 4788 
L 5966 4447 
L 4403 4447 
L 4403 4153 
L 5747 4153 
L 5747 3828 
L 4403 3828 
L 4403 3513 
L 6081 3513 
L 6081 3166 
L 2309 3166 
L 2309 3297 
L 1678 3297 
L 1678 2713 
Q 2091 2372 2509 1919 
L 2228 1516 
Q 1994 1878 1678 2225 
L 1678 -450 
L 1256 -450 
L 1256 2434 
Q 934 1434 450 741 
L 238 1181 
Q 928 2197 1203 3297 
L 328 3297 
L 328 3700 
L 1256 3700 
L 1256 4550 
Q 856 4469 519 4422 
L 341 4788 
Q 1275 4919 2069 5222 
L 2381 4859 
Q 2031 4738 1678 4647 
L 1678 3700 
L 2369 3700 
L 2369 3513 
z
M 3622 575 
L 3950 306 
Q 3284 -219 2578 -488 
L 2278 -141 
Q 2969 94 3616 575 
L 2791 575 
L 2791 2853 
L 5653 2853 
L 5653 575 
L 3622 575 
z
M 3194 2522 
L 3194 2194 
L 5244 2194 
L 5244 2522 
L 3194 2522 
z
M 3194 1894 
L 3194 1569 
L 5244 1569 
L 5244 1894 
L 3194 1894 
z
M 3194 1269 
L 3194 916 
L 5244 916 
L 5244 1269 
L 3194 1269 
z
M 5791 -422 
Q 5163 6 4466 294 
L 4769 569 
Q 5425 344 6131 -72 
L 5791 -422 
z
" transform="scale(0.015625)"/>
       <path id="IPAexGothic-5272" d="M 2325 4209 
L 2325 3713 
L 3272 3713 
L 3272 3381 
L 2325 3381 
L 2325 2950 
L 3494 2950 
L 3494 2619 
L 2325 2619 
L 2325 2175 
L 3956 2175 
L 3956 1809 
L 353 1809 
L 353 2175 
L 1909 2175 
L 1909 2619 
L 753 2619 
L 753 2950 
L 1909 2950 
L 1909 3381 
L 984 3381 
L 984 3713 
L 1909 3713 
L 1909 4209 
L 838 4209 
L 838 3609 
L 409 3609 
L 409 4569 
L 1903 4569 
L 1903 5313 
L 2338 5313 
L 2338 4569 
L 3872 4569 
L 3872 3609 
L 3444 3609 
L 3444 4209 
L 2325 4209 
z
M 3388 1397 
L 3388 -384 
L 2966 -384 
L 2966 -122 
L 1269 -122 
L 1269 -447 
L 847 -447 
L 847 1397 
L 3388 1397 
z
M 1269 1038 
L 1269 238 
L 2966 238 
L 2966 1038 
L 1269 1038 
z
M 4259 4550 
L 4700 4550 
L 4700 953 
L 4259 953 
L 4259 4550 
z
M 5403 5081 
L 5844 5081 
L 5844 159 
Q 5844 -106 5747 -231 
Q 5634 -372 5263 -372 
Q 4763 -372 4391 -325 
L 4303 141 
Q 4803 75 5206 75 
Q 5403 75 5403 300 
L 5403 5081 
z
" transform="scale(0.015625)"/>
       <path id="IPAexGothic-5408" d="M 1831 3188 
L 4653 3188 
L 4653 2778 
L 1747 2778 
L 1747 3125 
Q 1275 2778 594 2453 
L 294 2828 
Q 2006 3509 2891 5147 
L 3431 5147 
Q 4331 3806 6125 3003 
L 5831 2588 
Q 4119 3416 3175 4731 
Q 2650 3806 1831 3188 
z
M 5113 2088 
L 5113 -450 
L 4638 -450 
L 4638 -97 
L 1766 -97 
L 1766 -450 
L 1284 -450 
L 1284 2088 
L 5113 2088 
z
M 1766 1691 
L 1766 300 
L 4638 300 
L 4638 1691 
L 1766 1691 
z
" transform="scale(0.015625)"/>
      </defs>
      <use xlink:href="#IPAexGothic-7d2f"/>
      <use xlink:href="#IPAexGothic-7a4d" transform="translate(100 0)"/>
      <use xlink:href="#IPAexGothic-5272" transform="translate(200 0)"/>
      <use xlink:href="#IPAexGothic-5408" transform="translate(300 0)"/>
     </g>
    </g>
   </g>
   <g id="line2d_23">
    <path d="M 68.304545 242.125 
L 68.304545 240.922472 
L 87.171819 240.922472 
L 87.171819 239.719943 
L 97.73186 239.719943 
L 97.73186 237.314886 
L 101.181474 237.314886 
L 101.181474 236.112358 
L 108.432702 236.112358 
L 108.432702 234.90983 
L 113.923923 234.90983 
L 113.923923 233.707301 
L 114.275925 233.707301 
L 114.275925 232.504773 
L 114.839127 232.504773 
L 114.839127 231.302244 
L 116.669534 231.302244 
L 116.669534 230.099716 
L 117.584737 230.099716 
L 117.584737 228.897188 
L 118.992743 228.897188 
L 118.992743 227.694659 
L 119.133543 227.694659 
L 119.133543 226.492131 
L 119.415145 226.492131 
L 119.485545 224.087074 
L 120.682349 224.087074 
L 120.682349 222.884545 
L 121.245552 222.884545 
L 121.245552 221.682017 
L 121.527153 221.682017 
L 121.527153 220.479489 
L 122.512757 220.479489 
L 122.512757 219.27696 
L 124.272763 219.27696 
L 124.272763 218.074432 
L 125.821569 218.074432 
L 125.821569 216.871903 
L 126.595973 216.871903 
L 126.595973 215.669375 
L 128.285579 215.669375 
L 128.285579 214.466847 
L 128.42638 214.466847 
L 128.42638 213.264318 
L 131.312791 213.264318 
L 131.383191 210.859261 
L 134.410403 210.859261 
L 134.410403 209.656733 
L 134.973605 209.656733 
L 134.973605 208.454205 
L 135.396007 208.454205 
L 135.396007 207.251676 
L 135.818408 207.251676 
L 135.818408 206.049148 
L 136.029609 206.049148 
L 136.029609 204.846619 
L 136.522411 204.846619 
L 136.522411 203.644091 
L 137.508015 203.644091 
L 137.508015 202.441562 
L 139.127221 202.441562 
L 139.127221 201.239034 
L 140.112825 201.239034 
L 140.183225 198.833977 
L 140.816828 198.833977 
L 140.816828 197.631449 
L 140.957628 197.631449 
L 140.957628 196.42892 
L 143.91444 196.42892 
L 143.91444 194.023864 
L 144.829644 194.023864 
L 144.829644 192.821335 
L 145.252045 192.821335 
L 145.252045 191.618807 
L 145.744847 191.618807 
L 145.744847 190.416278 
L 147.434454 190.416278 
L 147.434454 189.21375 
L 148.631258 189.21375 
L 148.631258 188.011222 
L 150.391265 188.011222 
L 150.391265 186.808693 
L 150.743267 186.808693 
L 150.743267 185.606165 
L 151.095268 185.606165 
L 151.095268 184.403636 
L 152.362473 184.403636 
L 152.362473 183.201108 
L 152.573674 183.201108 
L 152.573674 181.99858 
L 152.714474 181.99858 
L 152.714474 180.796051 
L 154.826482 180.796051 
L 154.826482 179.593523 
L 154.967283 179.593523 
L 154.967283 178.390994 
L 155.248884 178.390994 
L 155.248884 177.188466 
L 156.023287 177.188466 
L 156.023287 175.985937 
L 157.149692 175.985937 
L 157.149692 173.580881 
L 157.712894 173.580881 
L 157.712894 172.378352 
L 157.994495 172.378352 
L 157.994495 171.175824 
L 159.613701 171.175824 
L 159.613701 169.973295 
L 160.810506 169.973295 
L 160.810506 168.770767 
L 161.373708 168.770767 
L 161.373708 167.568239 
L 161.514509 167.568239 
L 161.584909 165.163182 
L 162.500112 165.163182 
L 162.500112 163.960653 
L 162.781713 163.960653 
L 162.781713 162.758125 
L 165.104922 162.758125 
L 165.104922 161.555597 
L 165.879326 161.555597 
L 165.879326 160.353068 
L 166.160927 160.353068 
L 166.160927 159.15054 
L 166.301727 159.15054 
L 166.301727 157.948011 
L 166.864929 157.948011 
L 166.864929 156.745483 
L 168.202535 156.745483 
L 168.202535 155.542955 
L 168.554536 155.542955 
L 168.554536 154.340426 
L 169.61054 154.340426 
L 169.61054 153.137898 
L 169.962541 153.137898 
L 169.962541 151.935369 
L 170.525744 151.935369 
L 170.525744 150.732841 
L 171.863349 150.732841 
L 171.863349 149.530312 
L 172.07455 149.530312 
L 172.14495 147.125256 
L 172.637752 147.125256 
L 172.637752 145.922727 
L 172.848953 145.922727 
L 172.848953 143.51767 
L 173.693756 143.51767 
L 173.693756 142.315142 
L 174.468159 142.315142 
L 174.468159 141.112614 
L 175.101761 141.112614 
L 175.101761 139.910085 
L 175.453763 139.910085 
L 175.453763 137.505028 
L 175.876164 137.505028 
L 175.876164 136.3025 
L 176.439367 136.3025 
L 176.439367 135.099972 
L 178.269774 135.099972 
L 178.269774 133.897443 
L 178.903376 133.897443 
L 178.903376 132.694915 
L 183.901796 132.694915 
L 183.901796 131.492386 
L 185.0282 131.492386 
L 185.0282 130.289858 
L 185.873003 130.289858 
L 185.873003 129.08733 
L 186.225005 129.08733 
L 186.225005 127.884801 
L 188.055412 127.884801 
L 188.055412 126.682273 
L 189.111416 126.682273 
L 189.111416 125.479744 
L 189.533818 125.479744 
L 189.533818 123.074687 
L 190.660222 123.074687 
L 190.660222 121.872159 
L 190.941823 121.872159 
L 190.941823 120.669631 
L 192.068228 120.669631 
L 192.068228 119.467102 
L 192.349829 119.467102 
L 192.349829 117.062045 
L 192.842631 117.062045 
L 192.842631 115.859517 
L 193.828234 115.859517 
L 193.828234 114.656989 
L 193.969035 114.656989 
L 193.969035 113.45446 
L 194.602637 113.45446 
L 194.602637 111.049403 
L 198.052251 111.049403 
L 198.052251 109.846875 
L 198.615453 109.846875 
L 198.615453 108.644347 
L 199.460256 108.644347 
L 199.460256 107.441818 
L 202.417068 107.441818 
L 202.417068 106.23929 
L 203.191471 106.23929 
L 203.191471 105.036761 
L 204.529076 105.036761 
L 204.529076 103.834233 
L 205.021878 103.834233 
L 205.021878 102.631705 
L 206.289083 102.631705 
L 206.289083 101.429176 
L 206.852285 101.429176 
L 206.852285 100.226648 
L 209.316295 100.226648 
L 209.316295 99.024119 
L 209.809097 99.024119 
L 209.809097 97.821591 
L 210.935501 97.821591 
L 210.935501 96.619062 
L 213.399511 96.619062 
L 213.399511 95.416534 
L 215.300318 95.416534 
L 215.300318 94.214006 
L 215.72272 94.214006 
L 215.72272 93.011477 
L 216.074721 93.011477 
L 216.074721 91.808949 
L 217.553127 91.808949 
L 217.553127 90.60642 
L 219.313134 90.60642 
L 219.313134 89.403892 
L 219.524334 89.403892 
L 219.524334 88.201364 
L 219.805936 88.201364 
L 219.805936 86.998835 
L 222.692347 86.998835 
L 222.692347 85.796307 
L 224.170753 85.796307 
L 224.170753 84.593778 
L 224.663554 84.593778 
L 224.733955 82.188722 
L 226.634762 82.188722 
L 226.634762 80.986193 
L 227.690766 80.986193 
L 227.690766 79.783665 
L 228.957971 79.783665 
L 228.957971 78.581136 
L 232.618785 78.581136 
L 232.618785 77.378608 
L 233.88599 77.378608 
L 233.88599 76.17608 
L 235.786798 76.17608 
L 235.786798 74.973551 
L 235.927598 74.973551 
L 235.927598 73.771023 
L 238.039607 73.771023 
L 238.039607 72.568494 
L 238.743609 72.568494 
L 238.743609 71.365966 
L 244.868433 71.365966 
L 244.868433 70.163437 
L 245.009234 70.163437 
L 245.009234 68.960909 
L 247.684444 68.960909 
L 247.684444 67.758381 
L 250.641256 67.758381 
L 250.641256 66.555852 
L 251.063657 66.555852 
L 251.063657 65.353324 
L 256.83648 65.353324 
L 256.83648 64.150795 
L 257.399682 64.150795 
L 257.399682 62.948267 
L 258.314886 62.948267 
L 258.314886 61.745739 
L 258.878088 61.745739 
L 258.878088 60.54321 
L 260.708495 60.54321 
L 260.708495 59.340682 
L 261.130897 59.340682 
L 261.130897 58.138153 
L 266.833319 58.138153 
L 266.833319 56.935625 
L 269.930931 56.935625 
L 269.930931 55.733097 
L 270.916535 55.733097 
L 270.916535 54.530568 
L 274.78855 54.530568 
L 274.78855 53.32804 
L 277.815762 53.32804 
L 277.815762 52.125511 
L 278.308563 52.125511 
L 278.308563 50.922983 
L 290.487811 50.922983 
L 290.487811 49.720455 
L 290.628611 49.720455 
L 290.628611 48.517926 
L 291.755016 48.517926 
L 291.755016 47.315398 
L 294.923028 47.315398 
L 294.923028 46.112869 
L 298.935844 46.112869 
L 298.935844 44.910341 
L 314.283104 44.910341 
L 314.283104 43.707812 
L 314.705505 43.707812 
L 314.705505 42.505284 
L 319.351923 42.505284 
L 319.351923 41.302756 
L 324.209542 41.302756 
L 324.209542 40.100227 
L 329.489563 40.100227 
L 329.489563 38.897699 
L 332.164773 38.897699 
L 332.164773 37.69517 
L 358.564876 37.69517 
L 358.564876 36.492642 
L 365.956905 36.492642 
L 365.956905 35.290114 
L 385.809782 35.290114 
L 385.809782 34.087585 
L 386.513785 34.087585 
L 386.513785 32.885057 
L 386.936187 32.885057 
L 386.936187 31.682528 
L 404.395455 31.682528 
L 404.395455 30.48 
L 404.395455 30.48 
" clip-path="url(#p4f6e642f67)" style="fill: none; stroke: #2a9d8f; stroke-width: 1.2; stroke-linecap: square"/>
   </g>
   <g id="line2d_24">
    <path d="M 99.562267 242.125 
L 99.562267 239.012574 
L 99.914269 239.012574 
L 99.914269 235.900147 
L 105.47589 235.900147 
L 105.47589 232.787721 
L 106.602295 232.787721 
L 106.672695 226.562868 
L 107.095097 226.562868 
L 107.095097 223.450441 
L 115.543129 223.450441 
L 115.543129 220.338015 
L 117.584737 220.338015 
L 117.584737 217.225588 
L 117.725538 217.225588 
L 117.725538 214.113162 
L 119.415145 214.113162 
L 119.485545 207.888309 
L 121.667953 207.888309 
L 121.667953 204.775882 
L 125.328768 204.775882 
L 125.328768 201.663456 
L 126.807173 201.663456 
L 126.807173 198.551029 
L 128.989582 198.551029 
L 128.989582 195.438603 
L 130.256787 195.438603 
L 130.256787 192.326176 
L 132.298395 192.326176 
L 132.298395 189.21375 
L 133.002397 189.21375 
L 133.002397 186.101324 
L 134.199202 186.101324 
L 134.199202 182.988897 
L 134.551203 182.988897 
L 134.551203 179.876471 
L 136.381611 179.876471 
L 136.381611 176.764044 
L 138.212018 176.764044 
L 138.212018 170.539191 
L 138.423219 170.539191 
L 138.423219 167.426765 
L 139.338422 167.426765 
L 139.338422 164.314338 
L 141.168829 164.314338 
L 141.168829 154.977059 
L 141.802432 154.977059 
L 141.802432 151.864632 
L 146.308049 151.864632 
L 146.308049 148.752206 
L 147.082452 148.752206 
L 147.082452 145.639779 
L 148.912859 145.639779 
L 148.912859 142.527353 
L 155.671286 142.527353 
L 155.671286 139.414926 
L 158.980099 139.414926 
L 158.980099 136.3025 
L 159.191299 136.3025 
L 159.191299 130.077647 
L 159.3321 130.077647 
L 159.3321 126.965221 
L 161.232907 126.965221 
L 161.232907 123.852794 
L 162.148111 123.852794 
L 162.148111 120.740368 
L 162.359312 120.740368 
L 162.359312 117.627941 
L 162.640913 117.627941 
L 162.640913 114.515515 
L 163.415316 114.515515 
L 163.415316 111.403088 
L 163.978518 111.403088 
L 163.978518 108.290662 
L 168.413735 108.290662 
L 168.413735 105.178235 
L 169.68094 105.178235 
L 169.68094 102.065809 
L 175.242562 102.065809 
L 175.242562 98.953382 
L 175.383363 98.953382 
L 175.383363 95.840956 
L 177.917772 95.840956 
L 177.917772 92.728529 
L 178.410574 92.728529 
L 178.410574 89.616103 
L 181.015384 89.616103 
L 181.015384 86.503676 
L 183.549794 86.503676 
L 183.549794 83.39125 
L 186.154604 83.39125 
L 186.154604 80.278824 
L 189.393017 80.278824 
L 189.393017 77.166397 
L 191.223424 77.166397 
L 191.223424 74.053971 
L 195.658642 74.053971 
L 195.658642 70.941544 
L 206.922685 70.941544 
L 206.922685 67.829118 
L 207.345087 67.829118 
L 207.345087 64.716691 
L 216.215522 64.716691 
L 216.215522 61.604265 
L 220.650739 61.604265 
L 220.650739 58.491838 
L 237.124403 58.491838 
L 237.124403 55.379412 
L 238.180407 55.379412 
L 238.180407 52.266985 
L 246.910041 52.266985 
L 246.910041 49.154559 
L 256.484478 49.154559 
L 256.484478 46.042132 
L 276.759757 46.042132 
L 276.759757 42.929706 
L 288.164602 42.929706 
L 288.164602 39.817279 
L 291.895816 39.817279 
L 291.895816 36.704853 
L 336.670391 36.704853 
L 336.670391 33.592426 
L 350.187243 33.592426 
L 350.187243 30.48 
L 350.187243 30.48 
" clip-path="url(#p4f6e642f67)" style="fill: none; stroke: #264653; stroke-width: 1.2; stroke-linecap: square"/>
   </g>
   <g id="text_14">
    <!-- 会計金額の ECDF -->
    <g transform="translate(167.93065 24.48) scale(0.1728 -0.1728)">
     <defs>
      <path id="IPAexGothic-306e" d="M 3119 469 
Q 5275 766 5275 2425 
Q 5275 3453 4413 3925 
Q 4041 4116 3547 4159 
Q 3394 2525 2850 1400 
Q 2322 306 1722 306 
Q 1384 306 1084 666 
Q 609 1244 609 2003 
Q 609 3025 1397 3794 
Q 2184 4563 3431 4563 
Q 4306 4563 4928 4122 
Q 5813 3506 5813 2425 
Q 5813 438 3431 6 
L 3119 469 
z
M 3053 4147 
Q 2378 4044 1891 3641 
Q 1097 2981 1097 1991 
Q 1097 1366 1434 978 
Q 1581 813 1719 813 
Q 2022 813 2416 1625 
Q 2909 2638 3053 4147 
z
" transform="scale(0.015625)"/>
      <path id="IPAexGothic-45" d="M 3547 63 
L 609 63 
L 609 4634 
L 3469 4634 
L 3469 4147 
L 1166 4147 
L 1166 2650 
L 3206 2650 
L 3206 2191 
L 1166 2191 
L 1166 556 
L 3547 556 
L 3547 63 
z
" transform="scale(0.015625)"/>
      <path id="IPAexGothic-43" d="M 4353 1088 
Q 4181 694 3859 428 
Q 3313 -31 2559 -31 
Q 1588 -31 959 653 
Q 378 1294 378 2331 
Q 378 3406 1013 4078 
Q 1619 4725 2534 4725 
Q 3813 4725 4322 3628 
L 3809 3391 
Q 3425 4238 2541 4238 
Q 1891 4238 1453 3744 
Q 994 3216 994 2322 
Q 994 1550 1384 1056 
Q 1841 472 2563 472 
Q 3456 472 3878 1319 
L 4353 1088 
z
" transform="scale(0.015625)"/>
      <path id="IPAexGothic-44" d="M 609 4634 
L 1984 4634 
Q 3159 4634 3791 4050 
Q 4456 3444 4456 2356 
Q 4456 1047 3516 441 
Q 2925 63 1941 63 
L 609 63 
L 609 4634 
z
M 1172 556 
L 1894 556 
Q 3853 556 3853 2356 
Q 3853 4147 1928 4147 
L 1172 4147 
L 1172 556 
z
" transform="scale(0.015625)"/>
      <path id="IPAexGothic-46" d="M 3469 4141 
L 1172 4141 
L 1172 2656 
L 3206 2656 
L 3206 2188 
L 1172 2188 
L 1172 63 
L 609 63 
L 609 4634 
L 3469 4634 
L 3469 4141 
z
" transform="scale(0.015625)"/>
     </defs>
     <use xlink:href="#IPAexGothic-4f1a"/>
     <use xlink:href="#IPAexGothic-8a08" transform="translate(100 0)"/>
     <use xlink:href="#IPAexGothic-91d1" transform="translate(200 0)"/>
     <use xlink:href="#IPAexGothic-984d" transform="translate(300 0)"/>
     <use xlink:href="#IPAexGothic-306e" transform="translate(400 0)"/>
     <use xlink:href="#IPAexGothic-20" transform="translate(500 0)"/>
     <use xlink:href="#IPAexGothic-45" transform="translate(527.001953 0)"/>
     <use xlink:href="#IPAexGothic-43" transform="translate(586.523438 0)"/>
     <use xlink:href="#IPAexGothic-44" transform="translate(659.033203 0)"/>
     <use xlink:href="#IPAexGothic-46" transform="translate(734.716797 0)"/>
    </g>
   </g>
   <g id="legend_1">
    <g id="patch_3">
     <path d="M 330.31125 107.48625 
L 406.8 107.48625 
Q 409.2 107.48625 409.2 105.08625 
L 409.2 44.88 
Q 409.2 42.48 406.8 42.48 
L 330.31125 42.48 
Q 327.91125 42.48 327.91125 44.88 
L 327.91125 105.08625 
Q 327.91125 107.48625 330.31125 107.48625 
z
" style="fill: #ffffff; opacity: 0.8; stroke: #cccccc; stroke-linejoin: miter"/>
    </g>
    <g id="text_15">
     <!-- time -->
     <g transform="translate(356.218125 56.26875) scale(0.12 -0.12)">
      <defs>
       <path id="IPAexGothic-74" d="M 2125 241 
Q 1769 -6 1397 -6 
Q 653 -6 653 831 
L 653 2859 
L 219 2859 
L 219 3250 
L 653 3250 
L 653 3966 
L 1178 4228 
L 1178 3250 
L 2063 3250 
L 2063 2859 
L 1178 2859 
L 1178 906 
Q 1178 416 1513 416 
Q 1738 416 1941 588 
L 2125 241 
z
" transform="scale(0.015625)"/>
       <path id="IPAexGothic-69" d="M 1178 3928 
L 550 3928 
L 550 4569 
L 1178 4569 
L 1178 3928 
z
M 1138 63 
L 588 63 
L 588 3250 
L 1138 3250 
L 1138 63 
z
" transform="scale(0.015625)"/>
       <path id="IPAexGothic-6d" d="M 5022 63 
L 4472 63 
L 4472 2059 
Q 4472 2869 3847 2869 
Q 3550 2869 3303 2594 
Q 3128 2397 3059 2103 
L 3059 63 
L 2509 63 
L 2509 2066 
Q 2509 2869 1919 2869 
Q 1606 2869 1369 2594 
Q 1113 2306 1113 2041 
L 1113 63 
L 563 63 
L 563 3250 
L 1075 3250 
L 1075 2700 
Q 1391 3316 2028 3316 
Q 2725 3316 2956 2647 
Q 3303 3316 3953 3316 
Q 4478 3316 4772 2944 
Q 5022 2638 5022 2072 
L 5022 63 
z
" transform="scale(0.015625)"/>
       <path id="IPAexGothic-65" d="M 863 1594 
Q 891 1041 1209 722 
Q 1534 397 1997 397 
Q 2606 397 2963 966 
L 3322 728 
Q 2869 -31 1931 -31 
Q 1222 -31 766 422 
Q 306 884 306 1641 
Q 306 2444 788 2925 
Q 1216 3353 1856 3353 
Q 2459 3353 2866 2956 
Q 3322 2494 3322 1722 
L 3322 1594 
L 863 1594 
z
M 2756 1997 
Q 2709 2431 2450 2681 
Q 2194 2938 1844 2938 
Q 1438 2938 1150 2591 
Q 953 2356 894 1997 
L 2756 1997 
z
" transform="scale(0.015625)"/>
      </defs>
      <use xlink:href="#IPAexGothic-74"/>
      <use xlink:href="#IPAexGothic-69" transform="translate(34.619141 0)"/>
      <use xlink:href="#IPAexGothic-6d" transform="translate(61.621094 0)"/>
      <use xlink:href="#IPAexGothic-65" transform="translate(148.730469 0)"/>
     </g>
    </g>
    <g id="line2d_25">
     <path d="M 332.71125 74.1375 
L 344.71125 74.1375 
L 344.71125 74.1375 
L 356.71125 74.1375 
L 356.71125 74.1375 
" style="fill: none; stroke: #264653; stroke-width: 1.2; stroke-linecap: square"/>
    </g>
    <g id="text_16">
     <!-- Lunch -->
     <g transform="translate(366.31125 78.3375) scale(0.12 -0.12)">
      <defs>
       <path id="IPAexGothic-4c" d="M 3347 63 
L 609 63 
L 609 4634 
L 1178 4634 
L 1178 563 
L 3347 563 
L 3347 63 
z
" transform="scale(0.015625)"/>
       <path id="IPAexGothic-75" d="M 3284 63 
L 2772 63 
L 2772 644 
Q 2300 0 1625 0 
Q 1072 0 763 375 
Q 519 678 519 1241 
L 519 3250 
L 1069 3250 
L 1069 1259 
Q 1069 466 1734 466 
Q 2406 466 2734 1291 
L 2734 3250 
L 3284 3250 
L 3284 63 
z
" transform="scale(0.015625)"/>
       <path id="IPAexGothic-6e" d="M 3328 63 
L 2778 63 
L 2778 2041 
Q 2778 2853 2106 2853 
Q 1428 2853 1113 2041 
L 1113 63 
L 563 63 
L 563 3250 
L 1075 3250 
L 1075 2675 
Q 1525 3316 2222 3316 
Q 3328 3316 3328 2072 
L 3328 63 
z
" transform="scale(0.015625)"/>
       <path id="IPAexGothic-63" d="M 3269 784 
Q 2834 -31 1900 -31 
Q 1228 -31 788 409 
Q 313 891 313 1663 
Q 313 2428 788 2913 
Q 1222 3347 1881 3347 
Q 2813 3347 3206 2541 
L 2763 2309 
Q 2484 2900 1900 2900 
Q 1516 2900 1234 2619 
Q 881 2266 881 1650 
Q 881 1069 1222 728 
Q 1522 428 1956 428 
Q 2547 428 2847 1016 
L 3269 784 
z
" transform="scale(0.015625)"/>
       <path id="IPAexGothic-68" d="M 3347 63 
L 2797 63 
L 2797 2041 
Q 2797 2853 2131 2853 
Q 1447 2853 1131 2041 
L 1131 63 
L 581 63 
L 581 4794 
L 1131 4794 
L 1131 2706 
Q 1566 3316 2247 3316 
Q 3347 3316 3347 2072 
L 3347 63 
z
" transform="scale(0.015625)"/>
      </defs>
      <use xlink:href="#IPAexGothic-4c"/>
      <use xlink:href="#IPAexGothic-75" transform="translate(52.587891 0)"/>
      <use xlink:href="#IPAexGothic-6e" transform="translate(112.988281 0)"/>
      <use xlink:href="#IPAexGothic-63" transform="translate(173.388672 0)"/>
      <use xlink:href="#IPAexGothic-68" transform="translate(227.783203 0)"/>
     </g>
    </g>
    <g id="line2d_26">
     <path d="M 332.71125 96.20625 
L 344.71125 96.20625 
L 344.71125 96.20625 
L 356.71125 96.20625 
L 356.71125 96.20625 
" style="fill: none; stroke: #2a9d8f; stroke-width: 1.2; stroke-linecap: square"/>
    </g>
    <g id="text_17">
     <!-- Dinner -->
     <g transform="translate(366.31125 100.40625) scale(0.12 -0.12)">
      <defs>
       <path id="IPAexGothic-72" d="M 2309 3316 
L 2213 2769 
Q 2106 2791 2022 2791 
Q 1653 2791 1413 2444 
Q 1113 2006 1113 1675 
L 1113 63 
L 563 63 
L 563 3250 
L 1081 3250 
L 1056 2303 
L 1069 2303 
Q 1422 3341 2097 3341 
Q 2206 3341 2309 3316 
z
" transform="scale(0.015625)"/>
      </defs>
      <use xlink:href="#IPAexGothic-44"/>
      <use xlink:href="#IPAexGothic-69" transform="translate(75.683594 0)"/>
      <use xlink:href="#IPAexGothic-6e" transform="translate(102.685547 0)"/>
      <use xlink:href="#IPAexGothic-6e" transform="translate(163.085938 0)"/>
      <use xlink:href="#IPAexGothic-65" transform="translate(223.486328 0)"/>
      <use xlink:href="#IPAexGothic-72" transform="translate(280.371094 0)"/>
     </g>
    </g>
   </g>
  </g>
 </g>
 <defs>
  <clipPath id="p4f6e642f67">
   <rect x="51.5" y="30.48" width="369.7" height="211.645"/>
  </clipPath>
 </defs>
</svg>
