<?xml version="1.0" encoding="utf-8" standalone="no"?>
<!DOCTYPE svg PUBLIC "-//W3C//DTD SVG 1.1//EN"
  "http://www.w3.org/Graphics/SVG/1.1/DTD/svg11.dtd">
<svg xmlns:xlink="http://www.w3.org/1999/xlink" width="432pt" height="360pt" viewBox="0 0 432 360" xmlns="http://www.w3.org/2000/svg" version="1.1">
 <metadata>
  <rdf:RDF xmlns:dc="http://purl.org/dc/elements/1.1/" xmlns:cc="http://creativecommons.org/ns#" xmlns:rdf="http://www.w3.org/1999/02/22-rdf-syntax-ns#">
   <cc:Work>
    <dc:type rdf:resource="http://purl.org/dc/dcmitype/StillImage"/>
    <dc:date>2025-10-29T08:53:18.435673</dc:date>
    <dc:format>image/svg+xml</dc:format>
    <dc:creator>
     <cc:Agent>
      <dc:title>Matplotlib v3.10.7, https://matplotlib.org/</dc:title>
     </cc:Agent>
    </dc:creator>
   </cc:Work>
  </rdf:RDF>
 </metadata>
 <defs>
  <style type="text/css">*{stroke-linejoin: round; stroke-linecap: butt}</style>
 </defs>
 <g id="figure_1">
  <g id="patch_1">
   <path d="M 0 360 
L 432 360 
L 432 0 
L 0 0 
z
" style="fill: #ffffff"/>
  </g>
  <g id="axes_1">
   <g id="patch_2">
    <path d="M 71.55 312.66 
L 419.04 312.66 
L 419.04 27.6 
L 71.55 27.6 
z
" style="fill: #ffffff"/>
   </g>
   <g id="matplotlib.axis_1">
    <g id="xtick_1">
     <g id="line2d_1">
      <path d="M 122.66901 312.66 
L 122.66901 27.6 
" clip-path="url(#p1ea658650f)" style="fill: none; stroke: #cccccc; stroke-opacity: 0.2; stroke-linecap: round"/>
     </g>
     <g id="text_1">
      <!-- 10 -->
      <g style="fill: #262626" transform="translate(116.551978 330.033594) scale(0.11 -0.11)">
       <defs>
        <path id="ArialMT-31" d="M 2384 0 
L 1822 0 
L 1822 3584 
Q 1619 3391 1289 3197 
Q 959 3003 697 2906 
L 697 3450 
Q 1169 3672 1522 3987 
Q 1875 4303 2022 4600 
L 2384 4600 
L 2384 0 
z
" transform="scale(0.015625)"/>
        <path id="ArialMT-30" d="M 266 2259 
Q 266 3072 433 3567 
Q 600 4063 929 4331 
Q 1259 4600 1759 4600 
Q 2128 4600 2406 4451 
Q 2684 4303 2865 4023 
Q 3047 3744 3150 3342 
Q 3253 2941 3253 2259 
Q 3253 1453 3087 958 
Q 2922 463 2592 192 
Q 2263 -78 1759 -78 
Q 1097 -78 719 397 
Q 266 969 266 2259 
z
M 844 2259 
Q 844 1131 1108 757 
Q 1372 384 1759 384 
Q 2147 384 2411 759 
Q 2675 1134 2675 2259 
Q 2675 3391 2411 3762 
Q 2147 4134 1753 4134 
Q 1366 4134 1134 3806 
Q 844 3388 844 2259 
z
" transform="scale(0.015625)"/>
       </defs>
       <use xlink:href="#ArialMT-31"/>
       <use xlink:href="#ArialMT-30" transform="translate(55.615234 0)"/>
      </g>
     </g>
    </g>
    <g id="xtick_2">
     <g id="line2d_2">
      <path d="M 189.980763 312.66 
L 189.980763 27.6 
" clip-path="url(#p1ea658650f)" style="fill: none; stroke: #cccccc; stroke-opacity: 0.2; stroke-linecap: round"/>
     </g>
     <g id="text_2">
      <!-- 20 -->
      <g style="fill: #262626" transform="translate(183.863732 330.033594) scale(0.11 -0.11)">
       <defs>
        <path id="ArialMT-32" d="M 3222 541 
L 3222 0 
L 194 0 
Q 188 203 259 391 
Q 375 700 629 1000 
Q 884 1300 1366 1694 
Q 2113 2306 2375 2664 
Q 2638 3022 2638 3341 
Q 2638 3675 2398 3904 
Q 2159 4134 1775 4134 
Q 1369 4134 1125 3890 
Q 881 3647 878 3216 
L 300 3275 
Q 359 3922 746 4261 
Q 1134 4600 1788 4600 
Q 2447 4600 2831 4234 
Q 3216 3869 3216 3328 
Q 3216 3053 3103 2787 
Q 2991 2522 2730 2228 
Q 2469 1934 1863 1422 
Q 1356 997 1212 845 
Q 1069 694 975 541 
L 3222 541 
z
" transform="scale(0.015625)"/>
       </defs>
       <use xlink:href="#ArialMT-32"/>
       <use xlink:href="#ArialMT-30" transform="translate(55.615234 0)"/>
      </g>
     </g>
    </g>
    <g id="xtick_3">
     <g id="line2d_3">
      <path d="M 257.292516 312.66 
L 257.292516 27.6 
" clip-path="url(#p1ea658650f)" style="fill: none; stroke: #cccccc; stroke-opacity: 0.2; stroke-linecap: round"/>
     </g>
     <g id="text_3">
      <!-- 30 -->
      <g style="fill: #262626" transform="translate(251.175485 330.033594) scale(0.11 -0.11)">
       <defs>
        <path id="ArialMT-33" d="M 269 1209 
L 831 1284 
Q 928 806 1161 595 
Q 1394 384 1728 384 
Q 2125 384 2398 659 
Q 2672 934 2672 1341 
Q 2672 1728 2419 1979 
Q 2166 2231 1775 2231 
Q 1616 2231 1378 2169 
L 1441 2663 
Q 1497 2656 1531 2656 
Q 1891 2656 2178 2843 
Q 2466 3031 2466 3422 
Q 2466 3731 2256 3934 
Q 2047 4138 1716 4138 
Q 1388 4138 1169 3931 
Q 950 3725 888 3313 
L 325 3413 
Q 428 3978 793 4289 
Q 1159 4600 1703 4600 
Q 2078 4600 2393 4439 
Q 2709 4278 2876 4000 
Q 3044 3722 3044 3409 
Q 3044 3113 2884 2869 
Q 2725 2625 2413 2481 
Q 2819 2388 3044 2092 
Q 3269 1797 3269 1353 
Q 3269 753 2831 336 
Q 2394 -81 1725 -81 
Q 1122 -81 723 278 
Q 325 638 269 1209 
z
" transform="scale(0.015625)"/>
       </defs>
       <use xlink:href="#ArialMT-33"/>
       <use xlink:href="#ArialMT-30" transform="translate(55.615234 0)"/>
      </g>
     </g>
    </g>
    <g id="xtick_4">
     <g id="line2d_4">
      <path d="M 324.60427 312.66 
L 324.60427 27.6 
" clip-path="url(#p1ea658650f)" style="fill: none; stroke: #cccccc; stroke-opacity: 0.2; stroke-linecap: round"/>
     </g>
     <g id="text_4">
      <!-- 40 -->
      <g style="fill: #262626" transform="translate(318.487239 330.033594) scale(0.11 -0.11)">
       <defs>
        <path id="ArialMT-34" d="M 2069 0 
L 2069 1097 
L 81 1097 
L 81 1613 
L 2172 4581 
L 2631 4581 
L 2631 1613 
L 3250 1613 
L 3250 1097 
L 2631 1097 
L 2631 0 
L 2069 0 
z
M 2069 1613 
L 2069 3678 
L 634 1613 
L 2069 1613 
z
" transform="scale(0.015625)"/>
       </defs>
       <use xlink:href="#ArialMT-34"/>
       <use xlink:href="#ArialMT-30" transform="translate(55.615234 0)"/>
      </g>
     </g>
    </g>
    <g id="xtick_5">
     <g id="line2d_5">
      <path d="M 391.916023 312.66 
L 391.916023 27.6 
" clip-path="url(#p1ea658650f)" style="fill: none; stroke: #cccccc; stroke-opacity: 0.2; stroke-linecap: round"/>
     </g>
     <g id="text_5">
      <!-- 50 -->
      <g style="fill: #262626" transform="translate(385.798992 330.033594) scale(0.11 -0.11)">
       <defs>
        <path id="ArialMT-35" d="M 266 1200 
L 856 1250 
Q 922 819 1161 601 
Q 1400 384 1738 384 
Q 2144 384 2425 690 
Q 2706 997 2706 1503 
Q 2706 1984 2436 2262 
Q 2166 2541 1728 2541 
Q 1456 2541 1237 2417 
Q 1019 2294 894 2097 
L 366 2166 
L 809 4519 
L 3088 4519 
L 3088 3981 
L 1259 3981 
L 1013 2750 
Q 1425 3038 1878 3038 
Q 2478 3038 2890 2622 
Q 3303 2206 3303 1553 
Q 3303 931 2941 478 
Q 2500 -78 1738 -78 
Q 1113 -78 717 272 
Q 322 622 266 1200 
z
" transform="scale(0.015625)"/>
       </defs>
       <use xlink:href="#ArialMT-35"/>
       <use xlink:href="#ArialMT-30" transform="translate(55.615234 0)"/>
      </g>
     </g>
    </g>
    <g id="text_6">
     <!-- 燃費 (MPG) -->
     <g style="fill: #262626" transform="translate(216.965625 344.955469) scale(0.12 -0.12)">
      <defs>
       <path id="ArialMT-71c3" d="M 800 0 
L 800 4000 
L 4000 4000 
L 4000 0 
L 800 0 
z
M 900 100 
L 3900 100 
L 3900 3900 
L 900 3900 
L 900 100 
z
" transform="scale(0.015625)"/>
       <path id="ArialMT-8cbb" d="M 800 0 
L 800 4000 
L 4000 4000 
L 4000 0 
L 800 0 
z
M 900 100 
L 3900 100 
L 3900 3900 
L 900 3900 
L 900 100 
z
" transform="scale(0.015625)"/>
       <path id="ArialMT-20" transform="scale(0.015625)"/>
       <path id="ArialMT-28" d="M 1497 -1347 
Q 1031 -759 709 28 
Q 388 816 388 1659 
Q 388 2403 628 3084 
Q 909 3875 1497 4659 
L 1900 4659 
Q 1522 4009 1400 3731 
Q 1209 3300 1100 2831 
Q 966 2247 966 1656 
Q 966 153 1900 -1347 
L 1497 -1347 
z
" transform="scale(0.015625)"/>
       <path id="ArialMT-4d" d="M 475 0 
L 475 4581 
L 1388 4581 
L 2472 1338 
Q 2622 884 2691 659 
Q 2769 909 2934 1394 
L 4031 4581 
L 4847 4581 
L 4847 0 
L 4263 0 
L 4263 3834 
L 2931 0 
L 2384 0 
L 1059 3900 
L 1059 0 
L 475 0 
z
" transform="scale(0.015625)"/>
       <path id="ArialMT-50" d="M 494 0 
L 494 4581 
L 2222 4581 
Q 2678 4581 2919 4538 
Q 3256 4481 3484 4323 
Q 3713 4166 3852 3881 
Q 3991 3597 3991 3256 
Q 3991 2672 3619 2267 
Q 3247 1863 2275 1863 
L 1100 1863 
L 1100 0 
L 494 0 
z
M 1100 2403 
L 2284 2403 
Q 2872 2403 3119 2622 
Q 3366 2841 3366 3238 
Q 3366 3525 3220 3729 
Q 3075 3934 2838 4000 
Q 2684 4041 2272 4041 
L 1100 4041 
L 1100 2403 
z
" transform="scale(0.015625)"/>
       <path id="ArialMT-47" d="M 2638 1797 
L 2638 2334 
L 4578 2338 
L 4578 638 
Q 4131 281 3656 101 
Q 3181 -78 2681 -78 
Q 2006 -78 1454 211 
Q 903 500 622 1047 
Q 341 1594 341 2269 
Q 341 2938 620 3517 
Q 900 4097 1425 4378 
Q 1950 4659 2634 4659 
Q 3131 4659 3532 4498 
Q 3934 4338 4162 4050 
Q 4391 3763 4509 3300 
L 3963 3150 
Q 3859 3500 3706 3700 
Q 3553 3900 3268 4020 
Q 2984 4141 2638 4141 
Q 2222 4141 1919 4014 
Q 1616 3888 1430 3681 
Q 1244 3475 1141 3228 
Q 966 2803 966 2306 
Q 966 1694 1177 1281 
Q 1388 869 1791 669 
Q 2194 469 2647 469 
Q 3041 469 3416 620 
Q 3791 772 3984 944 
L 3984 1797 
L 2638 1797 
z
" transform="scale(0.015625)"/>
       <path id="ArialMT-29" d="M 791 -1347 
L 388 -1347 
Q 1322 153 1322 1656 
Q 1322 2244 1188 2822 
Q 1081 3291 891 3722 
Q 769 4003 388 4659 
L 791 4659 
Q 1378 3875 1659 3084 
Q 1900 2403 1900 1659 
Q 1900 816 1576 28 
Q 1253 -759 791 -1347 
z
" transform="scale(0.015625)"/>
      </defs>
      <use xlink:href="#ArialMT-71c3"/>
      <use xlink:href="#ArialMT-8cbb" transform="translate(75 0)"/>
      <use xlink:href="#ArialMT-20" transform="translate(150 0)"/>
      <use xlink:href="#ArialMT-28" transform="translate(177.783203 0)"/>
      <use xlink:href="#ArialMT-4d" transform="translate(211.083984 0)"/>
      <use xlink:href="#ArialMT-50" transform="translate(294.384766 0)"/>
      <use xlink:href="#ArialMT-47" transform="translate(361.083984 0)"/>
      <use xlink:href="#ArialMT-29" transform="translate(438.867188 0)"/>
     </g>
    </g>
   </g>
   <g id="matplotlib.axis_2">
    <g id="ytick_1">
     <g id="text_7">
      <!-- usa -->
      <g style="fill: #262626" transform="translate(44.315937 79.046797) scale(0.11 -0.11)">
       <defs>
        <path id="ArialMT-75" d="M 2597 0 
L 2597 488 
Q 2209 -75 1544 -75 
Q 1250 -75 995 37 
Q 741 150 617 320 
Q 494 491 444 738 
Q 409 903 409 1263 
L 409 3319 
L 972 3319 
L 972 1478 
Q 972 1038 1006 884 
Q 1059 663 1231 536 
Q 1403 409 1656 409 
Q 1909 409 2131 539 
Q 2353 669 2445 892 
Q 2538 1116 2538 1541 
L 2538 3319 
L 3100 3319 
L 3100 0 
L 2597 0 
z
" transform="scale(0.015625)"/>
        <path id="ArialMT-73" d="M 197 991 
L 753 1078 
Q 800 744 1014 566 
Q 1228 388 1613 388 
Q 2000 388 2187 545 
Q 2375 703 2375 916 
Q 2375 1106 2209 1216 
Q 2094 1291 1634 1406 
Q 1016 1563 777 1677 
Q 538 1791 414 1992 
Q 291 2194 291 2438 
Q 291 2659 392 2848 
Q 494 3038 669 3163 
Q 800 3259 1026 3326 
Q 1253 3394 1513 3394 
Q 1903 3394 2198 3281 
Q 2494 3169 2634 2976 
Q 2775 2784 2828 2463 
L 2278 2388 
Q 2241 2644 2061 2787 
Q 1881 2931 1553 2931 
Q 1166 2931 1000 2803 
Q 834 2675 834 2503 
Q 834 2394 903 2306 
Q 972 2216 1119 2156 
Q 1203 2125 1616 2013 
Q 2213 1853 2448 1751 
Q 2684 1650 2818 1456 
Q 2953 1263 2953 975 
Q 2953 694 2789 445 
Q 2625 197 2315 61 
Q 2006 -75 1616 -75 
Q 969 -75 630 194 
Q 291 463 197 991 
z
" transform="scale(0.015625)"/>
        <path id="ArialMT-61" d="M 2588 409 
Q 2275 144 1986 34 
Q 1697 -75 1366 -75 
Q 819 -75 525 192 
Q 231 459 231 875 
Q 231 1119 342 1320 
Q 453 1522 633 1644 
Q 813 1766 1038 1828 
Q 1203 1872 1538 1913 
Q 2219 1994 2541 2106 
Q 2544 2222 2544 2253 
Q 2544 2597 2384 2738 
Q 2169 2928 1744 2928 
Q 1347 2928 1158 2789 
Q 969 2650 878 2297 
L 328 2372 
Q 403 2725 575 2942 
Q 747 3159 1072 3276 
Q 1397 3394 1825 3394 
Q 2250 3394 2515 3294 
Q 2781 3194 2906 3042 
Q 3031 2891 3081 2659 
Q 3109 2516 3109 2141 
L 3109 1391 
Q 3109 606 3145 398 
Q 3181 191 3288 0 
L 2700 0 
Q 2613 175 2588 409 
z
M 2541 1666 
Q 2234 1541 1622 1453 
Q 1275 1403 1131 1340 
Q 988 1278 909 1158 
Q 831 1038 831 891 
Q 831 666 1001 516 
Q 1172 366 1500 366 
Q 1825 366 2078 508 
Q 2331 650 2450 897 
Q 2541 1088 2541 1459 
L 2541 1666 
z
" transform="scale(0.015625)"/>
       </defs>
       <use xlink:href="#ArialMT-75"/>
       <use xlink:href="#ArialMT-73" transform="translate(55.615234 0)"/>
       <use xlink:href="#ArialMT-61" transform="translate(105.615234 0)"/>
      </g>
     </g>
    </g>
    <g id="ytick_2">
     <g id="text_8">
      <!-- japan -->
      <g style="fill: #262626" transform="translate(35.137812 174.066797) scale(0.11 -0.11)">
       <defs>
        <path id="ArialMT-6a" d="M 419 3928 
L 419 4581 
L 981 4581 
L 981 3928 
L 419 3928 
z
M -294 -1288 
L -188 -809 
Q -19 -853 78 -853 
Q 250 -853 334 -739 
Q 419 -625 419 -169 
L 419 3319 
L 981 3319 
L 981 -181 
Q 981 -794 822 -1034 
Q 619 -1347 147 -1347 
Q -81 -1347 -294 -1288 
z
" transform="scale(0.015625)"/>
        <path id="ArialMT-70" d="M 422 -1272 
L 422 3319 
L 934 3319 
L 934 2888 
Q 1116 3141 1344 3267 
Q 1572 3394 1897 3394 
Q 2322 3394 2647 3175 
Q 2972 2956 3137 2557 
Q 3303 2159 3303 1684 
Q 3303 1175 3120 767 
Q 2938 359 2589 142 
Q 2241 -75 1856 -75 
Q 1575 -75 1351 44 
Q 1128 163 984 344 
L 984 -1272 
L 422 -1272 
z
M 931 1641 
Q 931 1000 1190 694 
Q 1450 388 1819 388 
Q 2194 388 2461 705 
Q 2728 1022 2728 1688 
Q 2728 2322 2467 2637 
Q 2206 2953 1844 2953 
Q 1484 2953 1207 2617 
Q 931 2281 931 1641 
z
" transform="scale(0.015625)"/>
        <path id="ArialMT-6e" d="M 422 0 
L 422 3319 
L 928 3319 
L 928 2847 
Q 1294 3394 1984 3394 
Q 2284 3394 2536 3286 
Q 2788 3178 2913 3003 
Q 3038 2828 3088 2588 
Q 3119 2431 3119 2041 
L 3119 0 
L 2556 0 
L 2556 2019 
Q 2556 2363 2490 2533 
Q 2425 2703 2258 2804 
Q 2091 2906 1866 2906 
Q 1506 2906 1245 2678 
Q 984 2450 984 1813 
L 984 0 
L 422 0 
z
" transform="scale(0.015625)"/>
       </defs>
       <use xlink:href="#ArialMT-6a"/>
       <use xlink:href="#ArialMT-61" transform="translate(22.216797 0)"/>
       <use xlink:href="#ArialMT-70" transform="translate(77.832031 0)"/>
       <use xlink:href="#ArialMT-61" transform="translate(133.447266 0)"/>
       <use xlink:href="#ArialMT-6e" transform="translate(189.0625 0)"/>
      </g>
     </g>
    </g>
    <g id="ytick_3">
     <g id="text_9">
      <!-- europe -->
      <g style="fill: #262626" transform="translate(27.802187 269.086797) scale(0.11 -0.11)">
       <defs>
        <path id="ArialMT-65" d="M 2694 1069 
L 3275 997 
Q 3138 488 2766 206 
Q 2394 -75 1816 -75 
Q 1088 -75 661 373 
Q 234 822 234 1631 
Q 234 2469 665 2931 
Q 1097 3394 1784 3394 
Q 2450 3394 2872 2941 
Q 3294 2488 3294 1666 
Q 3294 1616 3291 1516 
L 816 1516 
Q 847 969 1125 678 
Q 1403 388 1819 388 
Q 2128 388 2347 550 
Q 2566 713 2694 1069 
z
M 847 1978 
L 2700 1978 
Q 2663 2397 2488 2606 
Q 2219 2931 1791 2931 
Q 1403 2931 1139 2672 
Q 875 2413 847 1978 
z
" transform="scale(0.015625)"/>
        <path id="ArialMT-72" d="M 416 0 
L 416 3319 
L 922 3319 
L 922 2816 
Q 1116 3169 1280 3281 
Q 1444 3394 1641 3394 
Q 1925 3394 2219 3213 
L 2025 2691 
Q 1819 2813 1613 2813 
Q 1428 2813 1281 2702 
Q 1134 2591 1072 2394 
Q 978 2094 978 1738 
L 978 0 
L 416 0 
z
" transform="scale(0.015625)"/>
        <path id="ArialMT-6f" d="M 213 1659 
Q 213 2581 725 3025 
Q 1153 3394 1769 3394 
Q 2453 3394 2887 2945 
Q 3322 2497 3322 1706 
Q 3322 1066 3130 698 
Q 2938 331 2570 128 
Q 2203 -75 1769 -75 
Q 1072 -75 642 372 
Q 213 819 213 1659 
z
M 791 1659 
Q 791 1022 1069 705 
Q 1347 388 1769 388 
Q 2188 388 2466 706 
Q 2744 1025 2744 1678 
Q 2744 2294 2464 2611 
Q 2184 2928 1769 2928 
Q 1347 2928 1069 2612 
Q 791 2297 791 1659 
z
" transform="scale(0.015625)"/>
       </defs>
       <use xlink:href="#ArialMT-65"/>
       <use xlink:href="#ArialMT-75" transform="translate(55.615234 0)"/>
       <use xlink:href="#ArialMT-72" transform="translate(111.230469 0)"/>
       <use xlink:href="#ArialMT-6f" transform="translate(144.53125 0)"/>
       <use xlink:href="#ArialMT-70" transform="translate(200.146484 0)"/>
       <use xlink:href="#ArialMT-65" transform="translate(255.761719 0)"/>
      </g>
     </g>
    </g>
    <g id="text_10">
     <!-- 生産地域 -->
     <g style="fill: #262626" transform="translate(21.417187 188.13) rotate(-90) scale(0.12 -0.12)">
      <defs>
       <path id="ArialMT-751f" d="M 800 0 
L 800 4000 
L 4000 4000 
L 4000 0 
L 800 0 
z
M 900 100 
L 3900 100 
L 3900 3900 
L 900 3900 
L 900 100 
z
" transform="scale(0.015625)"/>
       <path id="ArialMT-7523" d="M 800 0 
L 800 4000 
L 4000 4000 
L 4000 0 
L 800 0 
z
M 900 100 
L 3900 100 
L 3900 3900 
L 900 3900 
L 900 100 
z
" transform="scale(0.015625)"/>
       <path id="ArialMT-5730" d="M 800 0 
L 800 4000 
L 4000 4000 
L 4000 0 
L 800 0 
z
M 900 100 
L 3900 100 
L 3900 3900 
L 900 3900 
L 900 100 
z
" transform="scale(0.015625)"/>
       <path id="ArialMT-57df" d="M 800 0 
L 800 4000 
L 4000 4000 
L 4000 0 
L 800 0 
z
M 900 100 
L 3900 100 
L 3900 3900 
L 900 3900 
L 900 100 
z
" transform="scale(0.015625)"/>
      </defs>
      <use xlink:href="#ArialMT-751f"/>
      <use xlink:href="#ArialMT-7523" transform="translate(75 0)"/>
      <use xlink:href="#ArialMT-5730" transform="translate(150 0)"/>
      <use xlink:href="#ArialMT-57df" transform="translate(225 0)"/>
     </g>
    </g>
   </g>
   <g id="FillBetweenPolyCollection_1">
    <defs>
     <path id="m0b9066ff8a" d="M 87.345 -284.757244 
L 87.345 -285.022756 
L 89.962383 -285.095726 
L 92.579766 -285.201442 
L 95.197149 -285.351111 
L 97.814532 -285.558473 
L 100.431916 -285.84 
L 103.049299 -286.215028 
L 105.666682 -286.705738 
L 108.284065 -287.336887 
L 110.901448 -288.13515 
L 113.518831 -289.127884 
L 116.136214 -290.34116 
L 118.753597 -291.796992 
L 121.370981 -293.509855 
L 123.988364 -295.482795 
L 126.605747 -297.703709 
L 129.22313 -300.142535 
L 131.840513 -302.75015 
L 134.457896 -305.459643 
L 137.075279 -308.19029 
L 139.692662 -310.854015 
L 142.310045 -313.363619 
L 144.927429 -315.641526 
L 147.544812 -317.627587 
L 150.162195 -319.284516 
L 152.779578 -320.599928 
L 155.396961 -321.584591 
L 158.014344 -322.267243 
L 160.631727 -322.687066 
L 163.24911 -322.885345 
L 165.866494 -322.898 
L 168.483877 -322.750426 
L 171.10126 -322.455497 
L 173.718643 -322.014857 
L 176.336026 -321.422891 
L 178.953409 -320.672211 
L 181.570792 -319.759286 
L 184.188175 -318.688959 
L 186.805559 -317.476997 
L 189.422942 -316.150342 
L 192.040325 -314.74528 
L 194.657708 -313.304089 
L 197.275091 -311.870953 
L 199.892474 -310.487872 
L 202.509857 -309.191167 
L 205.12724 -308.008908 
L 207.744623 -306.959404 
L 210.362007 -306.050665 
L 212.97939 -305.280685 
L 215.596773 -304.63832 
L 218.214156 -304.104632 
L 220.831539 -303.654557 
L 223.448922 -303.258869 
L 226.066305 -302.886401 
L 228.683688 -302.50646 
L 231.301072 -302.091295 
L 233.918455 -301.618416 
L 236.535838 -301.072494 
L 239.153221 -300.446555 
L 241.770604 -299.742304 
L 244.387987 -298.969501 
L 247.00537 -298.144523 
L 249.622753 -297.288362 
L 252.240136 -296.424401 
L 254.85752 -295.576291 
L 257.474903 -294.766156 
L 260.092286 -294.013219 
L 262.709669 -293.332811 
L 265.327052 -292.735648 
L 267.944435 -292.227297 
L 270.561818 -291.807809 
L 273.179201 -291.4716 
L 275.796585 -291.207732 
L 278.413968 -291.000729 
L 281.031351 -290.831976 
L 283.648734 -290.681608 
L 286.266117 -290.530626 
L 288.8835 -290.362898 
L 291.500883 -290.166698 
L 294.118266 -289.935504 
L 296.735649 -289.667973 
L 299.353033 -289.367182 
L 301.970416 -289.039367 
L 304.587799 -288.692494 
L 307.205182 -288.334965 
L 309.822565 -287.974687 
L 312.439948 -287.618578 
L 315.057331 -287.272471 
L 317.674714 -286.941271 
L 320.292098 -286.629188 
L 322.909481 -286.3399 
L 325.526864 -286.076563 
L 328.144247 -285.841677 
L 330.76163 -285.636864 
L 333.379013 -285.462665 
L 335.996396 -285.318431 
L 338.613779 -285.202367 
L 341.231162 -285.111719 
L 343.848546 -285.043077 
L 346.465929 -284.99272 
L 346.465929 -284.78728 
L 346.465929 -284.78728 
L 343.848546 -284.736923 
L 341.231162 -284.668281 
L 338.613779 -284.577633 
L 335.996396 -284.461569 
L 333.379013 -284.317335 
L 330.76163 -284.143136 
L 328.144247 -283.938323 
L 325.526864 -283.703437 
L 322.909481 -283.4401 
L 320.292098 -283.150812 
L 317.674714 -282.838729 
L 315.057331 -282.507529 
L 312.439948 -282.161422 
L 309.822565 -281.805313 
L 307.205182 -281.445035 
L 304.587799 -281.087506 
L 301.970416 -280.740633 
L 299.353033 -280.412818 
L 296.735649 -280.112027 
L 294.118266 -279.844496 
L 291.500883 -279.613302 
L 288.8835 -279.417102 
L 286.266117 -279.249374 
L 283.648734 -279.098392 
L 281.031351 -278.948024 
L 278.413968 -278.779271 
L 275.796585 -278.572268 
L 273.179201 -278.3084 
L 270.561818 -277.972191 
L 267.944435 -277.552703 
L 265.327052 -277.044352 
L 262.709669 -276.447189 
L 260.092286 -275.766781 
L 257.474903 -275.013844 
L 254.85752 -274.203709 
L 252.240136 -273.355599 
L 249.622753 -272.491638 
L 247.00537 -271.635477 
L 244.387987 -270.810499 
L 241.770604 -270.037696 
L 239.153221 -269.333445 
L 236.535838 -268.707506 
L 233.918455 -268.161584 
L 231.301072 -267.688705 
L 228.683688 -267.27354 
L 226.066305 -266.893599 
L 223.448922 -266.521131 
L 220.831539 -266.125443 
L 218.214156 -265.675368 
L 215.596773 -265.14168 
L 212.97939 -264.499315 
L 210.362007 -263.729335 
L 207.744623 -262.820596 
L 205.12724 -261.771092 
L 202.509857 -260.588833 
L 199.892474 -259.292128 
L 197.275091 -257.909047 
L 194.657708 -256.475911 
L 192.040325 -255.03472 
L 189.422942 -253.629658 
L 186.805559 -252.303003 
L 184.188175 -251.091041 
L 181.570792 -250.020714 
L 178.953409 -249.107789 
L 176.336026 -248.357109 
L 173.718643 -247.765143 
L 171.10126 -247.324503 
L 168.483877 -247.029574 
L 165.866494 -246.882 
L 163.24911 -246.894655 
L 160.631727 -247.092934 
L 158.014344 -247.512757 
L 155.396961 -248.195409 
L 152.779578 -249.180072 
L 150.162195 -250.495484 
L 147.544812 -252.152413 
L 144.927429 -254.138474 
L 142.310045 -256.416381 
L 139.692662 -258.925985 
L 137.075279 -261.58971 
L 134.457896 -264.320357 
L 131.840513 -267.02985 
L 129.22313 -269.637465 
L 126.605747 -272.076291 
L 123.988364 -274.297205 
L 121.370981 -276.270145 
L 118.753597 -277.983008 
L 116.136214 -279.43884 
L 113.518831 -280.652116 
L 110.901448 -281.64485 
L 108.284065 -282.443113 
L 105.666682 -283.074262 
L 103.049299 -283.564972 
L 100.431916 -283.94 
L 97.814532 -284.221527 
L 95.197149 -284.428889 
L 92.579766 -284.578558 
L 89.962383 -284.684274 
L 87.345 -284.757244 
z
" style="stroke: #595959; stroke-width: 1.25"/>
    </defs>
    <g clip-path="url(#p1ea658650f)">
     <use xlink:href="#m0b9066ff8a" x="0" y="360" style="fill: #72b6a1; stroke: #595959; stroke-width: 1.25"/>
    </g>
   </g>
   <g id="FillBetweenPolyCollection_2">
    <defs>
     <path id="m123d2119eb" d="M 142.303439 -189.518852 
L 142.303439 -190.221148 
L 144.939213 -190.366679 
L 147.574986 -190.558433 
L 150.210759 -190.805379 
L 152.846533 -191.116274 
L 155.482306 -191.499005 
L 158.118079 -191.959889 
L 160.753853 -192.503022 
L 163.389626 -193.129775 
L 166.025399 -193.838533 
L 168.661173 -194.624743 
L 171.296946 -195.481289 
L 173.932719 -196.399161 
L 176.568493 -197.368315 
L 179.204266 -198.378573 
L 181.840039 -199.420395 
L 184.475813 -200.485355 
L 187.111586 -201.566213 
L 189.747359 -202.656551 
L 192.383133 -203.750029 
L 195.018906 -204.839437 
L 197.654679 -205.915759 
L 200.290453 -206.967514 
L 202.926226 -207.980597 
L 205.562 -208.938769 
L 208.197773 -209.824817 
L 210.833546 -210.622293 
L 213.46932 -211.317622 
L 216.105093 -211.902275 
L 218.740866 -212.374725 
L 221.37664 -212.741886 
L 224.012413 -213.019848 
L 226.648186 -213.23377 
L 229.28396 -213.416903 
L 231.919733 -213.608756 
L 234.555506 -213.852478 
L 237.19128 -214.191559 
L 239.827053 -214.666011 
L 242.462826 -215.308237 
L 245.0986 -216.138924 
L 247.734373 -217.163362 
L 250.370146 -218.368703 
L 253.00592 -219.722662 
L 255.641693 -221.174113 
L 258.277466 -222.655819 
L 260.91324 -224.089277 
L 263.549013 -225.391297 
L 266.184786 -226.481619 
L 268.82056 -227.290626 
L 271.456333 -227.76609 
L 274.092106 -227.878 
L 276.72788 -227.620762 
L 279.363653 -227.012457 
L 281.999426 -226.09132 
L 284.6352 -224.910038 
L 287.270973 -223.528787 
L 289.906746 -222.008098 
L 292.54252 -220.402601 
L 295.178293 -218.756473 
L 297.814066 -217.101087 
L 300.44984 -215.45493 
L 303.085613 -213.825499 
L 305.721386 -212.212599 
L 308.35716 -210.612276 
L 310.992933 -209.020663 
L 313.628706 -207.437095 
L 316.26448 -205.866094 
L 318.900253 -204.318044 
L 321.536026 -202.808647 
L 324.1718 -201.357402 
L 326.807573 -199.985486 
L 329.443346 -198.713414 
L 332.07912 -197.558852 
L 334.714893 -196.534848 
L 337.350667 -195.64865 
L 339.98644 -194.901186 
L 342.622213 -194.287172 
L 345.257987 -193.795788 
L 347.89376 -193.411764 
L 350.529533 -193.116764 
L 353.165307 -192.890897 
L 355.80108 -192.714216 
L 358.436853 -192.568089 
L 361.072627 -192.436328 
L 363.7084 -192.306004 
L 366.344173 -192.167908 
L 368.979947 -192.01665 
L 371.61572 -191.850416 
L 374.251493 -191.670455 
L 376.887267 -191.480363 
L 379.52304 -191.28526 
L 382.158813 -191.090966 
L 384.794587 -190.903246 
L 387.43036 -190.727202 
L 390.066133 -190.566849 
L 392.701907 -190.424884 
L 395.33768 -190.302646 
L 397.973453 -190.200224 
L 400.609227 -190.116676 
L 403.245 -190.050298 
L 403.245 -189.689702 
L 403.245 -189.689702 
L 400.609227 -189.623324 
L 397.973453 -189.539776 
L 395.33768 -189.437354 
L 392.701907 -189.315116 
L 390.066133 -189.173151 
L 387.43036 -189.012798 
L 384.794587 -188.836754 
L 382.158813 -188.649034 
L 379.52304 -188.45474 
L 376.887267 -188.259637 
L 374.251493 -188.069545 
L 371.61572 -187.889584 
L 368.979947 -187.72335 
L 366.344173 -187.572092 
L 363.7084 -187.433996 
L 361.072627 -187.303672 
L 358.436853 -187.171911 
L 355.80108 -187.025784 
L 353.165307 -186.849103 
L 350.529533 -186.623236 
L 347.89376 -186.328236 
L 345.257987 -185.944212 
L 342.622213 -185.452828 
L 339.98644 -184.838814 
L 337.350667 -184.09135 
L 334.714893 -183.205152 
L 332.07912 -182.181148 
L 329.443346 -181.026586 
L 326.807573 -179.754514 
L 324.1718 -178.382598 
L 321.536026 -176.931353 
L 318.900253 -175.421956 
L 316.26448 -173.873906 
L 313.628706 -172.302905 
L 310.992933 -170.719337 
L 308.35716 -169.127724 
L 305.721386 -167.527401 
L 303.085613 -165.914501 
L 300.44984 -164.28507 
L 297.814066 -162.638913 
L 295.178293 -160.983527 
L 292.54252 -159.337399 
L 289.906746 -157.731902 
L 287.270973 -156.211213 
L 284.6352 -154.829962 
L 281.999426 -153.64868 
L 279.363653 -152.727543 
L 276.72788 -152.119238 
L 274.092106 -151.862 
L 271.456333 -151.97391 
L 268.82056 -152.449374 
L 266.184786 -153.258381 
L 263.549013 -154.348703 
L 260.91324 -155.650723 
L 258.277466 -157.084181 
L 255.641693 -158.565887 
L 253.00592 -160.017338 
L 250.370146 -161.371297 
L 247.734373 -162.576638 
L 245.0986 -163.601076 
L 242.462826 -164.431763 
L 239.827053 -165.073989 
L 237.19128 -165.548441 
L 234.555506 -165.887522 
L 231.919733 -166.131244 
L 229.28396 -166.323097 
L 226.648186 -166.50623 
L 224.012413 -166.720152 
L 221.37664 -166.998114 
L 218.740866 -167.365275 
L 216.105093 -167.837725 
L 213.46932 -168.422378 
L 210.833546 -169.117707 
L 208.197773 -169.915183 
L 205.562 -170.801231 
L 202.926226 -171.759403 
L 200.290453 -172.772486 
L 197.654679 -173.824241 
L 195.018906 -174.900563 
L 192.383133 -175.989971 
L 189.747359 -177.083449 
L 187.111586 -178.173787 
L 184.475813 -179.254645 
L 181.840039 -180.319605 
L 179.204266 -181.361427 
L 176.568493 -182.371685 
L 173.932719 -183.340839 
L 171.296946 -184.258711 
L 168.661173 -185.115257 
L 166.025399 -185.901467 
L 163.389626 -186.610225 
L 160.753853 -187.236978 
L 158.118079 -187.780111 
L 155.482306 -188.240995 
L 152.846533 -188.623726 
L 150.210759 -188.934621 
L 147.574986 -189.181567 
L 144.939213 -189.373321 
L 142.303439 -189.518852 
z
" style="stroke: #595959; stroke-width: 1.25"/>
    </defs>
    <g clip-path="url(#p1ea658650f)">
     <use xlink:href="#m123d2119eb" x="0" y="360" style="fill: #e99675; stroke: #595959; stroke-width: 1.25"/>
    </g>
   </g>
   <g id="FillBetweenPolyCollection_3">
    <defs>
     <path id="m8be01478f3" d="M 125.701095 -94.387002 
L 125.701095 -95.312998 
L 128.393503 -95.477676 
L 131.085912 -95.686924 
L 133.77832 -95.947912 
L 136.470728 -96.267533 
L 139.163137 -96.651993 
L 141.855545 -97.106398 
L 144.547954 -97.634391 
L 147.240362 -98.237861 
L 149.93277 -98.916795 
L 152.625179 -99.669278 
L 155.317587 -100.491666 
L 158.009996 -101.37891 
L 160.702404 -102.32501 
L 163.394812 -103.323554 
L 166.087221 -104.368275 
L 168.779629 -105.45357 
L 171.472038 -106.574936 
L 174.164446 -107.729266 
L 176.856854 -108.914971 
L 179.549263 -110.131922 
L 182.241671 -111.381196 
L 184.93408 -112.664635 
L 187.626488 -113.984243 
L 190.318896 -115.341435 
L 193.011305 -116.736202 
L 195.703713 -118.166236 
L 198.396121 -119.626119 
L 201.08853 -121.106635 
L 203.780938 -122.594343 
L 206.473347 -124.071468 
L 209.165755 -125.516203 
L 211.858163 -126.903423 
L 214.550572 -128.205798 
L 217.24298 -129.395202 
L 219.935389 -130.444281 
L 222.627797 -131.328022 
L 225.320205 -132.02512 
L 228.012614 -132.51902 
L 230.705022 -132.798533 
L 233.397431 -132.858 
L 236.089839 -132.69707 
L 238.782247 -132.320205 
L 241.474656 -131.736054 
L 244.167064 -130.956851 
L 246.859472 -129.997938 
L 249.551881 -128.877457 
L 252.244289 -127.616182 
L 254.936698 -126.237397 
L 257.629106 -124.766692 
L 260.321514 -123.231548 
L 263.013923 -121.660613 
L 265.706331 -120.082647 
L 268.39874 -118.525198 
L 271.091148 -117.013132 
L 273.783556 -115.567221 
L 276.475965 -114.202995 
L 279.168373 -112.930057 
L 281.860782 -111.751986 
L 284.55319 -110.666876 
L 287.245598 -109.668458 
L 289.938007 -108.747666 
L 292.630415 -107.894411 
L 295.322823 -107.099347 
L 298.015232 -106.355342 
L 300.70764 -105.658498 
L 303.400049 -105.008555 
L 306.092457 -104.408666 
L 308.784865 -103.864583 
L 311.477274 -103.383393 
L 314.169682 -102.972005 
L 316.862091 -102.635583 
L 319.554499 -102.376167 
L 322.246907 -102.191648 
L 324.939316 -102.075237 
L 327.631724 -102.015484 
L 330.324133 -101.996847 
L 333.016541 -102.000738 
L 335.708949 -102.006924 
L 338.401358 -101.995134 
L 341.093766 -101.946684 
L 343.786175 -101.845959 
L 346.478583 -101.681613 
L 349.170991 -101.447352 
L 351.8634 -101.142256 
L 354.555808 -100.770623 
L 357.248216 -100.341353 
L 359.940625 -99.866994 
L 362.633033 -99.362521 
L 365.325442 -98.844028 
L 368.01785 -98.327433 
L 370.710258 -97.827344 
L 373.402667 -97.356165 
L 376.095075 -96.923506 
L 378.787484 -96.535906 
L 381.479892 -96.196859 
L 384.1723 -95.907081 
L 386.864709 -95.66496 
L 389.557117 -95.4671 
L 392.249526 -95.308904 
L 392.249526 -94.391096 
L 392.249526 -94.391096 
L 389.557117 -94.2329 
L 386.864709 -94.03504 
L 384.1723 -93.792919 
L 381.479892 -93.503141 
L 378.787484 -93.164094 
L 376.095075 -92.776494 
L 373.402667 -92.343835 
L 370.710258 -91.872656 
L 368.01785 -91.372567 
L 365.325442 -90.855972 
L 362.633033 -90.337479 
L 359.940625 -89.833006 
L 357.248216 -89.358647 
L 354.555808 -88.929377 
L 351.8634 -88.557744 
L 349.170991 -88.252648 
L 346.478583 -88.018387 
L 343.786175 -87.854041 
L 341.093766 -87.753316 
L 338.401358 -87.704866 
L 335.708949 -87.693076 
L 333.016541 -87.699262 
L 330.324133 -87.703153 
L 327.631724 -87.684516 
L 324.939316 -87.624763 
L 322.246907 -87.508352 
L 319.554499 -87.323833 
L 316.862091 -87.064417 
L 314.169682 -86.727995 
L 311.477274 -86.316607 
L 308.784865 -85.835417 
L 306.092457 -85.291334 
L 303.400049 -84.691445 
L 300.70764 -84.041502 
L 298.015232 -83.344658 
L 295.322823 -82.600653 
L 292.630415 -81.805589 
L 289.938007 -80.952334 
L 287.245598 -80.031542 
L 284.55319 -79.033124 
L 281.860782 -77.948014 
L 279.168373 -76.769943 
L 276.475965 -75.497005 
L 273.783556 -74.132779 
L 271.091148 -72.686868 
L 268.39874 -71.174802 
L 265.706331 -69.617353 
L 263.013923 -68.039387 
L 260.321514 -66.468452 
L 257.629106 -64.933308 
L 254.936698 -63.462603 
L 252.244289 -62.083818 
L 249.551881 -60.822543 
L 246.859472 -59.702062 
L 244.167064 -58.743149 
L 241.474656 -57.963946 
L 238.782247 -57.379795 
L 236.089839 -57.00293 
L 233.397431 -56.842 
L 230.705022 -56.901467 
L 228.012614 -57.18098 
L 225.320205 -57.67488 
L 222.627797 -58.371978 
L 219.935389 -59.255719 
L 217.24298 -60.304798 
L 214.550572 -61.494202 
L 211.858163 -62.796577 
L 209.165755 -64.183797 
L 206.473347 -65.628532 
L 203.780938 -67.105657 
L 201.08853 -68.593365 
L 198.396121 -70.073881 
L 195.703713 -71.533764 
L 193.011305 -72.963798 
L 190.318896 -74.358565 
L 187.626488 -75.715757 
L 184.93408 -77.035365 
L 182.241671 -78.318804 
L 179.549263 -79.568078 
L 176.856854 -80.785029 
L 174.164446 -81.970734 
L 171.472038 -83.125064 
L 168.779629 -84.24643 
L 166.087221 -85.331725 
L 163.394812 -86.376446 
L 160.702404 -87.37499 
L 158.009996 -88.32109 
L 155.317587 -89.208334 
L 152.625179 -90.030722 
L 149.93277 -90.783205 
L 147.240362 -91.462139 
L 144.547954 -92.065609 
L 141.855545 -92.593602 
L 139.163137 -93.048007 
L 136.470728 -93.432467 
L 133.77832 -93.752088 
L 131.085912 -94.013076 
L 128.393503 -94.222324 
L 125.701095 -94.387002 
z
" style="stroke: #595959; stroke-width: 1.25"/>
    </defs>
    <g clip-path="url(#p1ea658650f)">
     <use xlink:href="#m8be01478f3" x="0" y="360" style="fill: #95a3c3; stroke: #595959; stroke-width: 1.25"/>
    </g>
   </g>
   <g id="patch_3">
    <path d="M 71.55 312.66 
L 71.55 27.6 
" style="fill: none; stroke: #262626; stroke-width: 1.25; stroke-linejoin: miter; stroke-linecap: square"/>
   </g>
   <g id="patch_4">
    <path d="M 419.04 312.66 
L 419.04 27.6 
" style="fill: none; stroke: #262626; stroke-width: 1.25; stroke-linejoin: miter; stroke-linecap: square"/>
   </g>
   <g id="patch_5">
    <path d="M 71.55 312.66 
L 419.04 312.66 
" style="fill: none; stroke: #262626; stroke-width: 1.25; stroke-linejoin: miter; stroke-linecap: square"/>
   </g>
   <g id="patch_6">
    <path d="M 71.55 27.6 
L 419.04 27.6 
" style="fill: none; stroke: #262626; stroke-width: 1.25; stroke-linejoin: miter; stroke-linecap: square"/>
   </g>
   <g id="text_11">
    <!-- 地域別燃費のリッジライン風プロット -->
    <g style="fill: #262626" transform="translate(168.795 21.6) scale(0.12 -0.12)">
     <defs>
      <path id="ArialMT-5225" d="M 800 0 
L 800 4000 
L 4000 4000 
L 4000 0 
L 800 0 
z
M 900 100 
L 3900 100 
L 3900 3900 
L 900 3900 
L 900 100 
z
" transform="scale(0.015625)"/>
      <path id="ArialMT-306e" d="M 800 0 
L 800 4000 
L 4000 4000 
L 4000 0 
L 800 0 
z
M 900 100 
L 3900 100 
L 3900 3900 
L 900 3900 
L 900 100 
z
" transform="scale(0.015625)"/>
      <path id="ArialMT-30ea" d="M 800 0 
L 800 4000 
L 4000 4000 
L 4000 0 
L 800 0 
z
M 900 100 
L 3900 100 
L 3900 3900 
L 900 3900 
L 900 100 
z
" transform="scale(0.015625)"/>
      <path id="ArialMT-30c3" d="M 800 0 
L 800 4000 
L 4000 4000 
L 4000 0 
L 800 0 
z
M 900 100 
L 3900 100 
L 3900 3900 
L 900 3900 
L 900 100 
z
" transform="scale(0.015625)"/>
      <path id="ArialMT-30b8" d="M 800 0 
L 800 4000 
L 4000 4000 
L 4000 0 
L 800 0 
z
M 900 100 
L 3900 100 
L 3900 3900 
L 900 3900 
L 900 100 
z
" transform="scale(0.015625)"/>
      <path id="ArialMT-30e9" d="M 800 0 
L 800 4000 
L 4000 4000 
L 4000 0 
L 800 0 
z
M 900 100 
L 3900 100 
L 3900 3900 
L 900 3900 
L 900 100 
z
" transform="scale(0.015625)"/>
      <path id="ArialMT-30a4" d="M 800 0 
L 800 4000 
L 4000 4000 
L 4000 0 
L 800 0 
z
M 900 100 
L 3900 100 
L 3900 3900 
L 900 3900 
L 900 100 
z
" transform="scale(0.015625)"/>
      <path id="ArialMT-30f3" d="M 800 0 
L 800 4000 
L 4000 4000 
L 4000 0 
L 800 0 
z
M 900 100 
L 3900 100 
L 3900 3900 
L 900 3900 
L 900 100 
z
" transform="scale(0.015625)"/>
      <path id="ArialMT-98a8" d="M 800 0 
L 800 4000 
L 4000 4000 
L 4000 0 
L 800 0 
z
M 900 100 
L 3900 100 
L 3900 3900 
L 900 3900 
L 900 100 
z
" transform="scale(0.015625)"/>
      <path id="ArialMT-30d7" d="M 800 0 
L 800 4000 
L 4000 4000 
L 4000 0 
L 800 0 
z
M 900 100 
L 3900 100 
L 3900 3900 
L 900 3900 
L 900 100 
z
" transform="scale(0.015625)"/>
      <path id="ArialMT-30ed" d="M 800 0 
L 800 4000 
L 4000 4000 
L 4000 0 
L 800 0 
z
M 900 100 
L 3900 100 
L 3900 3900 
L 900 3900 
L 900 100 
z
" transform="scale(0.015625)"/>
      <path id="ArialMT-30c8" d="M 800 0 
L 800 4000 
L 4000 4000 
L 4000 0 
L 800 0 
z
M 900 100 
L 3900 100 
L 3900 3900 
L 900 3900 
L 900 100 
z
" transform="scale(0.015625)"/>
     </defs>
     <use xlink:href="#ArialMT-5730"/>
     <use xlink:href="#ArialMT-57df" transform="translate(75 0)"/>
     <use xlink:href="#ArialMT-5225" transform="translate(150 0)"/>
     <use xlink:href="#ArialMT-71c3" transform="translate(225 0)"/>
     <use xlink:href="#ArialMT-8cbb" transform="translate(300 0)"/>
     <use xlink:href="#ArialMT-306e" transform="translate(375 0)"/>
     <use xlink:href="#ArialMT-30ea" transform="translate(450 0)"/>
     <use xlink:href="#ArialMT-30c3" transform="translate(525 0)"/>
     <use xlink:href="#ArialMT-30b8" transform="translate(600 0)"/>
     <use xlink:href="#ArialMT-30e9" transform="translate(675 0)"/>
     <use xlink:href="#ArialMT-30a4" transform="translate(750 0)"/>
     <use xlink:href="#ArialMT-30f3" transform="translate(825 0)"/>
     <use xlink:href="#ArialMT-98a8" transform="translate(900 0)"/>
     <use xlink:href="#ArialMT-30d7" transform="translate(975 0)"/>
     <use xlink:href="#ArialMT-30ed" transform="translate(1050 0)"/>
     <use xlink:href="#ArialMT-30c3" transform="translate(1125 0)"/>
     <use xlink:href="#ArialMT-30c8" transform="translate(1200 0)"/>
    </g>
   </g>
  </g>
 </g>
 <defs>
  <clipPath id="p1ea658650f">
   <rect x="71.55" y="27.6" width="347.49" height="285.06"/>
  </clipPath>
 </defs>
</svg>
