<?xml version="1.0" encoding="utf-8" standalone="no"?>
<!DOCTYPE svg PUBLIC "-//W3C//DTD SVG 1.1//EN"
  "http://www.w3.org/Graphics/SVG/1.1/DTD/svg11.dtd">
<svg xmlns:xlink="http://www.w3.org/1999/xlink" width="432pt" height="288pt" viewBox="0 0 432 288" xmlns="http://www.w3.org/2000/svg" version="1.1">
 <metadata>
  <rdf:RDF xmlns:dc="http://purl.org/dc/elements/1.1/" xmlns:cc="http://creativecommons.org/ns#" xmlns:rdf="http://www.w3.org/1999/02/22-rdf-syntax-ns#">
   <cc:Work>
    <dc:type rdf:resource="http://purl.org/dc/dcmitype/StillImage"/>
    <dc:date>2025-10-29T08:53:18.852211</dc:date>
    <dc:format>image/svg+xml</dc:format>
    <dc:creator>
     <cc:Agent>
      <dc:title>Matplotlib v3.10.7, https://matplotlib.org/</dc:title>
     </cc:Agent>
    </dc:creator>
   </cc:Work>
  </rdf:RDF>
 </metadata>
 <defs>
  <style type="text/css">*{stroke-linejoin: round; stroke-linecap: butt}</style>
 </defs>
 <g id="figure_1">
  <g id="patch_1">
   <path d="M 0 288 
L 432 288 
L 432 0 
L 0 0 
z
" style="fill: #ffffff"/>
  </g>
  <g id="axes_1">
   <g id="patch_2">
    <path d="M 53.26875 239.85 
L 419.04 239.85 
L 419.04 28.62375 
L 53.26875 28.62375 
z
" style="fill: #ffffff"/>
   </g>
   <g id="matplotlib.axis_1">
    <g id="xtick_1">
     <g id="text_1">
      <!-- Adelie -->
      <g style="fill: #262626" transform="translate(98.065781 257.589687) scale(0.11 -0.11)">
       <defs>
        <path id="IPAexGothic-41" d="M 4056 63 
L 3444 63 
L 2938 1409 
L 1100 1409 
L 603 63 
L -6 63 
L 1806 4666 
L 2259 4666 
L 4056 63 
z
M 2778 1863 
L 2316 3078 
Q 2125 3588 2028 4000 
L 2009 4000 
Q 1897 3563 1716 3078 
L 1263 1863 
L 2778 1863 
z
" transform="scale(0.015625)"/>
        <path id="IPAexGothic-64" d="M 3391 63 
L 2891 63 
L 2891 619 
Q 2441 -31 1753 -31 
Q 1181 -31 788 372 
Q 313 844 313 1663 
Q 313 2466 772 2938 
Q 1169 3341 1753 3341 
Q 2384 3341 2847 2809 
L 2847 4794 
L 3391 4794 
L 3391 63 
z
M 2847 1303 
L 2847 2097 
Q 2847 2413 2456 2706 
Q 2181 2906 1853 2906 
Q 1484 2906 1228 2650 
Q 888 2309 888 1678 
Q 888 1109 1169 750 
Q 1441 409 1847 409 
Q 2322 409 2656 875 
Q 2847 1134 2847 1303 
z
" transform="scale(0.015625)"/>
        <path id="IPAexGothic-65" d="M 863 1594 
Q 891 1041 1209 722 
Q 1534 397 1997 397 
Q 2606 397 2963 966 
L 3322 728 
Q 2869 -31 1931 -31 
Q 1222 -31 766 422 
Q 306 884 306 1641 
Q 306 2444 788 2925 
Q 1216 3353 1856 3353 
Q 2459 3353 2866 2956 
Q 3322 2494 3322 1722 
L 3322 1594 
L 863 1594 
z
M 2756 1997 
Q 2709 2431 2450 2681 
Q 2194 2938 1844 2938 
Q 1438 2938 1150 2591 
Q 953 2356 894 1997 
L 2756 1997 
z
" transform="scale(0.015625)"/>
        <path id="IPAexGothic-6c" d="M 1131 63 
L 581 63 
L 581 4794 
L 1131 4794 
L 1131 63 
z
" transform="scale(0.015625)"/>
        <path id="IPAexGothic-69" d="M 1178 3928 
L 550 3928 
L 550 4569 
L 1178 4569 
L 1178 3928 
z
M 1138 63 
L 588 63 
L 588 3250 
L 1138 3250 
L 1138 63 
z
" transform="scale(0.015625)"/>
       </defs>
       <use xlink:href="#IPAexGothic-41"/>
       <use xlink:href="#IPAexGothic-64" transform="translate(63.720703 0)"/>
       <use xlink:href="#IPAexGothic-65" transform="translate(126.123047 0)"/>
       <use xlink:href="#IPAexGothic-6c" transform="translate(183.007812 0)"/>
       <use xlink:href="#IPAexGothic-69" transform="translate(210.009766 0)"/>
       <use xlink:href="#IPAexGothic-65" transform="translate(237.011719 0)"/>
      </g>
     </g>
    </g>
    <g id="xtick_2">
     <g id="text_2">
      <!-- Chinstrap -->
      <g style="fill: #262626" transform="translate(211.100156 257.589687) scale(0.11 -0.11)">
       <defs>
        <path id="IPAexGothic-43" d="M 4353 1088 
Q 4181 694 3859 428 
Q 3313 -31 2559 -31 
Q 1588 -31 959 653 
Q 378 1294 378 2331 
Q 378 3406 1013 4078 
Q 1619 4725 2534 4725 
Q 3813 4725 4322 3628 
L 3809 3391 
Q 3425 4238 2541 4238 
Q 1891 4238 1453 3744 
Q 994 3216 994 2322 
Q 994 1550 1384 1056 
Q 1841 472 2563 472 
Q 3456 472 3878 1319 
L 4353 1088 
z
" transform="scale(0.015625)"/>
        <path id="IPAexGothic-68" d="M 3347 63 
L 2797 63 
L 2797 2041 
Q 2797 2853 2131 2853 
Q 1447 2853 1131 2041 
L 1131 63 
L 581 63 
L 581 4794 
L 1131 4794 
L 1131 2706 
Q 1566 3316 2247 3316 
Q 3347 3316 3347 2072 
L 3347 63 
z
" transform="scale(0.015625)"/>
        <path id="IPAexGothic-6e" d="M 3328 63 
L 2778 63 
L 2778 2041 
Q 2778 2853 2106 2853 
Q 1428 2853 1113 2041 
L 1113 63 
L 563 63 
L 563 3250 
L 1075 3250 
L 1075 2675 
Q 1525 3316 2222 3316 
Q 3328 3316 3328 2072 
L 3328 63 
z
" transform="scale(0.015625)"/>
        <path id="IPAexGothic-73" d="M 2234 2547 
Q 1938 2931 1484 2931 
Q 891 2931 891 2475 
Q 891 2153 1531 1944 
L 1741 1875 
Q 2650 1578 2650 894 
Q 2650 434 2272 172 
Q 1972 -31 1497 -31 
Q 766 -31 256 503 
L 603 819 
Q 997 397 1516 397 
Q 2131 397 2131 875 
Q 2131 1238 1453 1478 
L 1234 1553 
Q 378 1853 378 2431 
Q 378 2797 628 3047 
Q 928 3347 1453 3347 
Q 2156 3347 2606 2859 
L 2234 2547 
z
" transform="scale(0.015625)"/>
        <path id="IPAexGothic-74" d="M 2125 241 
Q 1769 -6 1397 -6 
Q 653 -6 653 831 
L 653 2859 
L 219 2859 
L 219 3250 
L 653 3250 
L 653 3966 
L 1178 4228 
L 1178 3250 
L 2063 3250 
L 2063 2859 
L 1178 2859 
L 1178 906 
Q 1178 416 1513 416 
Q 1738 416 1941 588 
L 2125 241 
z
" transform="scale(0.015625)"/>
        <path id="IPAexGothic-72" d="M 2309 3316 
L 2213 2769 
Q 2106 2791 2022 2791 
Q 1653 2791 1413 2444 
Q 1113 2006 1113 1675 
L 1113 63 
L 563 63 
L 563 3250 
L 1081 3250 
L 1056 2303 
L 1069 2303 
Q 1422 3341 2097 3341 
Q 2206 3341 2309 3316 
z
" transform="scale(0.015625)"/>
        <path id="IPAexGothic-61" d="M 3156 63 
L 2672 63 
Q 2559 303 2531 556 
L 2509 556 
Q 2147 -25 1428 -25 
Q 934 -25 622 288 
Q 347 563 347 959 
Q 347 1947 2050 1997 
L 2478 2009 
L 2478 2175 
Q 2478 2509 2288 2700 
Q 2088 2900 1775 2900 
Q 1238 2900 969 2378 
L 494 2597 
Q 938 3328 1788 3328 
Q 2375 3328 2691 3000 
Q 2984 2706 2984 2169 
L 2984 997 
Q 2984 400 3156 63 
z
M 2491 1625 
L 2141 1619 
Q 903 1591 903 953 
Q 903 728 1050 581 
Q 1231 403 1525 403 
Q 1934 403 2234 703 
Q 2491 969 2491 1344 
L 2491 1625 
z
" transform="scale(0.015625)"/>
        <path id="IPAexGothic-70" d="M 1075 2688 
Q 1525 3341 2206 3341 
Q 2769 3341 3172 2938 
Q 3641 2469 3641 1644 
Q 3641 841 3178 372 
Q 2775 -31 2200 -31 
Q 1569 -31 1106 497 
L 1106 -1216 
L 563 -1216 
L 563 3250 
L 1075 3250 
L 1075 2688 
z
M 1106 1950 
L 1106 1291 
Q 1106 897 1516 600 
Q 1791 403 2106 403 
Q 2469 403 2725 659 
Q 3066 997 3066 1631 
Q 3066 2200 2784 2559 
Q 2503 2900 2100 2900 
Q 1656 2900 1338 2484 
Q 1106 2184 1106 1950 
z
" transform="scale(0.015625)"/>
       </defs>
       <use xlink:href="#IPAexGothic-43"/>
       <use xlink:href="#IPAexGothic-68" transform="translate(72.509766 0)"/>
       <use xlink:href="#IPAexGothic-69" transform="translate(133.203125 0)"/>
       <use xlink:href="#IPAexGothic-6e" transform="translate(160.205078 0)"/>
       <use xlink:href="#IPAexGothic-73" transform="translate(220.605469 0)"/>
       <use xlink:href="#IPAexGothic-74" transform="translate(266.796875 0)"/>
       <use xlink:href="#IPAexGothic-72" transform="translate(301.416016 0)"/>
       <use xlink:href="#IPAexGothic-61" transform="translate(338.427734 0)"/>
       <use xlink:href="#IPAexGothic-70" transform="translate(393.408203 0)"/>
      </g>
     </g>
    </g>
    <g id="xtick_3">
     <g id="text_3">
      <!-- Gentoo -->
      <g style="fill: #262626" transform="translate(338.936406 257.589687) scale(0.11 -0.11)">
       <defs>
        <path id="IPAexGothic-47" d="M 4403 781 
Q 4172 494 3731 250 
Q 3209 -31 2591 -31 
Q 1606 -31 988 628 
Q 378 1275 378 2325 
Q 378 3406 1013 4078 
Q 1619 4725 2534 4725 
Q 3800 4725 4325 3628 
L 3816 3391 
Q 3422 4238 2541 4238 
Q 1891 4238 1453 3744 
Q 994 3216 994 2328 
Q 994 1531 1397 1022 
Q 1844 459 2625 459 
Q 3459 459 3878 966 
L 3878 1856 
L 2859 1856 
L 2859 2291 
L 4403 2291 
L 4403 781 
z
" transform="scale(0.015625)"/>
        <path id="IPAexGothic-6f" d="M 1919 3341 
Q 2594 3341 3056 2888 
Q 3531 2413 3531 1638 
Q 3531 888 3066 422 
Q 2609 -31 1919 -31 
Q 1228 -31 781 416 
Q 313 881 313 1656 
Q 313 2413 788 2888 
Q 1241 3341 1919 3341 
z
M 1919 2919 
Q 1519 2919 1241 2631 
Q 888 2278 888 1650 
Q 888 1031 1234 684 
Q 1516 403 1919 403 
Q 2331 403 2609 691 
Q 2956 1038 2956 1672 
Q 2956 2269 2603 2631 
Q 2316 2919 1919 2919 
z
" transform="scale(0.015625)"/>
       </defs>
       <use xlink:href="#IPAexGothic-47"/>
       <use xlink:href="#IPAexGothic-65" transform="translate(75.292969 0)"/>
       <use xlink:href="#IPAexGothic-6e" transform="translate(132.177734 0)"/>
       <use xlink:href="#IPAexGothic-74" transform="translate(192.578125 0)"/>
       <use xlink:href="#IPAexGothic-6f" transform="translate(227.197266 0)"/>
       <use xlink:href="#IPAexGothic-6f" transform="translate(287.597656 0)"/>
      </g>
     </g>
    </g>
    <g id="text_4">
     <!-- ペンギンの種類 -->
     <g style="fill: #262626" transform="translate(194.154375 272.720937) scale(0.12 -0.12)">
      <defs>
       <path id="IPAexGothic-30da" d="M 428 1938 
Q 1119 2494 2100 3628 
Q 2356 3922 2566 3922 
Q 2772 3922 3181 3531 
Q 4325 2425 5950 1303 
L 5600 813 
Q 3991 2028 2816 3188 
Q 2653 3341 2584 3341 
Q 2513 3341 2291 3072 
Q 1703 2331 775 1478 
L 428 1938 
z
M 4750 4756 
Q 5059 4756 5269 4522 
Q 5453 4319 5453 4053 
Q 5453 3738 5219 3525 
Q 5016 3341 4750 3341 
Q 4434 3341 4222 3575 
Q 4038 3778 4038 4053 
Q 4038 4363 4272 4572 
Q 4478 4756 4750 4756 
z
M 4750 4475 
Q 4559 4475 4428 4334 
Q 4319 4213 4319 4053 
Q 4319 3859 4459 3731 
Q 4584 3622 4750 3622 
Q 4934 3622 5063 3763 
Q 5172 3888 5172 4053 
Q 5172 4238 5031 4366 
Q 4909 4475 4750 4475 
z
" transform="scale(0.015625)"/>
       <path id="IPAexGothic-30f3" d="M 2444 3084 
Q 1816 3656 1056 4084 
L 1381 4519 
Q 2063 4191 2816 3559 
L 2444 3084 
z
M 1100 609 
Q 3984 1106 5216 3828 
L 5619 3469 
Q 4413 794 1434 103 
L 1100 609 
z
" transform="scale(0.015625)"/>
       <path id="IPAexGothic-30ae" d="M 2919 5056 
L 3169 3834 
L 4884 4128 
L 4969 3681 
L 3253 3397 
L 3475 2284 
L 5634 2656 
L 5722 2194 
L 3566 1844 
L 3969 -147 
L 3475 -263 
L 3072 1759 
L 834 1388 
L 744 1856 
L 2984 2203 
L 2759 3316 
L 1019 3034 
L 941 3488 
L 2669 3756 
L 2428 4959 
L 2919 5056 
z
M 5916 4434 
Q 5553 4978 5159 5306 
L 5459 5538 
Q 5844 5228 6234 4709 
L 5916 4434 
z
M 5319 3969 
Q 5028 4459 4584 4856 
L 4897 5100 
Q 5269 4794 5653 4244 
L 5319 3969 
z
" transform="scale(0.015625)"/>
       <path id="IPAexGothic-306e" d="M 3119 469 
Q 5275 766 5275 2425 
Q 5275 3453 4413 3925 
Q 4041 4116 3547 4159 
Q 3394 2525 2850 1400 
Q 2322 306 1722 306 
Q 1384 306 1084 666 
Q 609 1244 609 2003 
Q 609 3025 1397 3794 
Q 2184 4563 3431 4563 
Q 4306 4563 4928 4122 
Q 5813 3506 5813 2425 
Q 5813 438 3431 6 
L 3119 469 
z
M 3053 4147 
Q 2378 4044 1891 3641 
Q 1097 2981 1097 1991 
Q 1097 1366 1434 978 
Q 1581 813 1719 813 
Q 2022 813 2416 1625 
Q 2909 2638 3053 4147 
z
" transform="scale(0.015625)"/>
       <path id="IPAexGothic-7a2e" d="M 1269 2366 
Q 959 1388 456 659 
L 238 1100 
Q 878 2028 1203 3128 
L 328 3128 
L 328 3531 
L 1269 3531 
L 1269 4453 
Q 919 4388 525 4338 
L 347 4703 
Q 1372 4850 2144 5131 
L 2484 4766 
Q 2019 4622 1691 4544 
L 1691 3531 
L 2419 3531 
L 2419 3128 
L 1691 3128 
L 1691 2669 
Q 2081 2350 2478 1913 
L 2203 1509 
Q 1934 1897 1691 2169 
L 1691 -450 
L 1269 -450 
L 1269 2366 
z
M 3963 3297 
L 3963 3703 
L 2350 3703 
L 2350 4063 
L 3963 4063 
L 3963 4497 
L 3872 4491 
Q 3219 4431 2722 4409 
L 2541 4784 
Q 4100 4831 5350 5119 
L 5678 4741 
Q 5128 4634 4378 4544 
L 4378 4063 
L 6013 4063 
L 6013 3703 
L 4378 3703 
L 4378 3297 
L 5641 3297 
L 5641 1313 
L 4378 1313 
L 4378 872 
L 5750 872 
L 5750 525 
L 4378 525 
L 4378 78 
L 6069 78 
L 6069 -288 
L 2297 -288 
L 2297 78 
L 3963 78 
L 3963 525 
L 2613 525 
L 2613 872 
L 3963 872 
L 3963 1313 
L 2728 1313 
L 2728 3297 
L 3963 3297 
z
M 3975 2956 
L 3138 2956 
L 3138 2472 
L 3975 2472 
L 3975 2956 
z
M 4366 2956 
L 4366 2472 
L 5238 2472 
L 5238 2956 
L 4366 2956 
z
M 3975 2159 
L 3138 2159 
L 3138 1653 
L 3975 1653 
L 3975 2159 
z
M 4366 2159 
L 4366 1653 
L 5238 1653 
L 5238 2159 
L 4366 2159 
z
" transform="scale(0.015625)"/>
       <path id="IPAexGothic-985e" d="M 1575 3238 
Q 1153 2647 513 2213 
L 256 2547 
Q 953 2959 1416 3572 
L 1447 3609 
L 366 3609 
L 366 3981 
L 1575 3981 
L 1575 5313 
L 1978 5313 
L 1978 3981 
L 3109 3981 
L 3109 3609 
L 1978 3609 
L 1978 3425 
Q 2581 3147 3059 2791 
L 2809 2406 
Q 2469 2747 1978 3059 
L 1978 2388 
L 1575 2388 
L 1575 3238 
z
M 4616 4025 
L 5709 4025 
L 5709 794 
L 3400 794 
L 3400 4025 
L 4219 4025 
Q 4284 4284 4353 4659 
L 3094 4659 
L 3094 5056 
L 6022 5056 
L 6022 4659 
L 4800 4659 
Q 4797 4638 4769 4538 
Q 4719 4309 4616 4025 
z
M 5300 3653 
L 3809 3653 
L 3809 3078 
L 5300 3078 
L 5300 3653 
z
M 3809 2713 
L 3809 2138 
L 5300 2138 
L 5300 2713 
L 3809 2713 
z
M 3809 1778 
L 3809 1166 
L 5300 1166 
L 5300 1778 
L 3809 1778 
z
M 1569 1691 
L 1569 2197 
L 1991 2197 
L 1991 1691 
L 3072 1691 
L 3072 1306 
L 1978 1306 
Q 1969 1178 1938 1081 
Q 2447 744 2944 256 
L 2625 -88 
Q 2247 375 1825 719 
Q 1525 -28 678 -497 
L 384 -153 
Q 1416 338 1550 1306 
L 366 1306 
L 366 1691 
L 1569 1691 
z
M 897 4072 
Q 706 4600 500 4916 
L 884 5088 
Q 1091 4756 1300 4238 
L 897 4072 
z
M 2200 4219 
Q 2456 4659 2578 5100 
L 2994 4978 
Q 2819 4509 2541 4072 
L 2200 4219 
z
M 5753 -422 
Q 5344 47 4728 525 
L 5044 756 
Q 5566 413 6138 -116 
L 5753 -422 
z
M 2809 -178 
Q 3488 169 3981 750 
L 4338 506 
Q 3831 -88 3122 -500 
L 2809 -178 
z
" transform="scale(0.015625)"/>
      </defs>
      <use xlink:href="#IPAexGothic-30da"/>
      <use xlink:href="#IPAexGothic-30f3" transform="translate(100 0)"/>
      <use xlink:href="#IPAexGothic-30ae" transform="translate(200 0)"/>
      <use xlink:href="#IPAexGothic-30f3" transform="translate(300 0)"/>
      <use xlink:href="#IPAexGothic-306e" transform="translate(400 0)"/>
      <use xlink:href="#IPAexGothic-7a2e" transform="translate(500 0)"/>
      <use xlink:href="#IPAexGothic-985e" transform="translate(600 0)"/>
     </g>
    </g>
   </g>
   <g id="matplotlib.axis_2">
    <g id="ytick_1">
     <g id="line2d_1">
      <path d="M 53.26875 231.137091 
L 419.04 231.137091 
" clip-path="url(#p0105380c0e)" style="fill: none; stroke: #cccccc; stroke-opacity: 0.2; stroke-linecap: round"/>
     </g>
     <g id="text_5">
      <!-- 30 -->
      <g style="fill: #262626" transform="translate(29.912188 235.256935) scale(0.11 -0.11)">
       <defs>
        <path id="IPAexGothic-33" d="M 2381 2419 
Q 3506 2216 3506 1278 
Q 3506 716 3128 356 
Q 2709 -31 1944 -31 
Q 797 -31 288 881 
L 756 1131 
Q 1109 441 1938 441 
Q 2425 441 2694 691 
Q 2950 928 2950 1291 
Q 2950 1719 2566 1978 
Q 2216 2213 1644 2213 
L 1363 2213 
L 1363 2669 
L 1656 2669 
Q 2231 2669 2534 2888 
Q 2859 3119 2859 3509 
Q 2859 3934 2494 4138 
Q 2259 4278 1931 4278 
Q 1238 4278 903 3578 
L 434 3803 
Q 897 4725 1938 4725 
Q 2597 4725 3006 4394 
Q 3416 4069 3416 3534 
Q 3416 3028 3019 2706 
Q 2763 2500 2381 2444 
L 2381 2419 
z
" transform="scale(0.015625)"/>
        <path id="IPAexGothic-30" d="M 2038 4725 
Q 2881 4725 3334 3944 
Q 3694 3325 3694 2344 
Q 3694 1372 3334 741 
Q 2888 -31 2016 -31 
Q 1147 -31 700 741 
Q 341 1372 341 2350 
Q 341 3713 1000 4334 
Q 1419 4725 2038 4725 
z
M 2016 4266 
Q 1516 4266 1228 3759 
Q 934 3247 934 2344 
Q 934 1456 1222 947 
Q 1513 447 2016 447 
Q 2619 447 2909 1153 
Q 3100 1622 3100 2375 
Q 3100 3256 2806 3759 
Q 2509 4266 2016 4266 
z
" transform="scale(0.015625)"/>
       </defs>
       <use xlink:href="#IPAexGothic-33"/>
       <use xlink:href="#IPAexGothic-30" transform="translate(62.988281 0)"/>
      </g>
     </g>
    </g>
    <g id="ytick_2">
     <g id="line2d_2">
      <path d="M 53.26875 200.951458 
L 419.04 200.951458 
" clip-path="url(#p0105380c0e)" style="fill: none; stroke: #cccccc; stroke-opacity: 0.2; stroke-linecap: round"/>
     </g>
     <g id="text_6">
      <!-- 35 -->
      <g style="fill: #262626" transform="translate(29.912188 205.071301) scale(0.11 -0.11)">
       <defs>
        <path id="IPAexGothic-35" d="M 1178 2603 
Q 1634 2963 2172 2963 
Q 2816 2963 3241 2528 
Q 3638 2113 3638 1497 
Q 3638 938 3297 513 
Q 2869 -31 2031 -31 
Q 959 -31 469 784 
L 938 1028 
Q 1309 434 2013 434 
Q 2466 434 2769 716 
Q 3081 1013 3081 1503 
Q 3081 1966 2806 2241 
Q 2519 2528 2056 2528 
Q 1406 2528 1072 2028 
L 591 2091 
L 884 4634 
L 3406 4634 
L 3406 4153 
L 1341 4153 
L 1134 2603 
L 1178 2603 
z
" transform="scale(0.015625)"/>
       </defs>
       <use xlink:href="#IPAexGothic-33"/>
       <use xlink:href="#IPAexGothic-35" transform="translate(62.988281 0)"/>
      </g>
     </g>
    </g>
    <g id="ytick_3">
     <g id="line2d_3">
      <path d="M 53.26875 170.765824 
L 419.04 170.765824 
" clip-path="url(#p0105380c0e)" style="fill: none; stroke: #cccccc; stroke-opacity: 0.2; stroke-linecap: round"/>
     </g>
     <g id="text_7">
      <!-- 40 -->
      <g style="fill: #262626" transform="translate(29.912188 174.885668) scale(0.11 -0.11)">
       <defs>
        <path id="IPAexGothic-34" d="M 3813 1159 
L 3059 1159 
L 3059 63 
L 2547 63 
L 2547 1159 
L 197 1159 
L 197 1672 
L 2456 4678 
L 3059 4678 
L 3059 1634 
L 3813 1634 
L 3813 1159 
z
M 2578 4109 
L 2559 4109 
Q 2278 3656 2003 3284 
L 759 1634 
L 2547 1634 
L 2547 3144 
Q 2547 3481 2578 4109 
z
" transform="scale(0.015625)"/>
       </defs>
       <use xlink:href="#IPAexGothic-34"/>
       <use xlink:href="#IPAexGothic-30" transform="translate(62.988281 0)"/>
      </g>
     </g>
    </g>
    <g id="ytick_4">
     <g id="line2d_4">
      <path d="M 53.26875 140.580191 
L 419.04 140.580191 
" clip-path="url(#p0105380c0e)" style="fill: none; stroke: #cccccc; stroke-opacity: 0.2; stroke-linecap: round"/>
     </g>
     <g id="text_8">
      <!-- 45 -->
      <g style="fill: #262626" transform="translate(29.912188 144.700034) scale(0.11 -0.11)">
       <use xlink:href="#IPAexGothic-34"/>
       <use xlink:href="#IPAexGothic-35" transform="translate(62.988281 0)"/>
      </g>
     </g>
    </g>
    <g id="ytick_5">
     <g id="line2d_5">
      <path d="M 53.26875 110.394557 
L 419.04 110.394557 
" clip-path="url(#p0105380c0e)" style="fill: none; stroke: #cccccc; stroke-opacity: 0.2; stroke-linecap: round"/>
     </g>
     <g id="text_9">
      <!-- 50 -->
      <g style="fill: #262626" transform="translate(29.912188 114.514401) scale(0.11 -0.11)">
       <use xlink:href="#IPAexGothic-35"/>
       <use xlink:href="#IPAexGothic-30" transform="translate(62.988281 0)"/>
      </g>
     </g>
    </g>
    <g id="ytick_6">
     <g id="line2d_6">
      <path d="M 53.26875 80.208924 
L 419.04 80.208924 
" clip-path="url(#p0105380c0e)" style="fill: none; stroke: #cccccc; stroke-opacity: 0.2; stroke-linecap: round"/>
     </g>
     <g id="text_10">
      <!-- 55 -->
      <g style="fill: #262626" transform="translate(29.912188 84.328768) scale(0.11 -0.11)">
       <use xlink:href="#IPAexGothic-35"/>
       <use xlink:href="#IPAexGothic-35" transform="translate(62.988281 0)"/>
      </g>
     </g>
    </g>
    <g id="ytick_7">
     <g id="line2d_7">
      <path d="M 53.26875 50.02329 
L 419.04 50.02329 
" clip-path="url(#p0105380c0e)" style="fill: none; stroke: #cccccc; stroke-opacity: 0.2; stroke-linecap: round"/>
     </g>
     <g id="text_11">
      <!-- 60 -->
      <g style="fill: #262626" transform="translate(29.912188 54.143134) scale(0.11 -0.11)">
       <defs>
        <path id="IPAexGothic-36" d="M 1056 2328 
Q 1509 2981 2234 2981 
Q 2906 2981 3316 2513 
Q 3675 2106 3675 1522 
Q 3675 884 3272 434 
Q 2853 -31 2178 -31 
Q 1375 -31 922 581 
Q 481 1178 481 2228 
Q 481 3425 1013 4109 
Q 1494 4725 2272 4725 
Q 3191 4725 3609 4025 
L 3150 3775 
Q 2894 4266 2300 4266 
Q 1119 4266 1031 2328 
L 1056 2328 
z
M 2141 2547 
Q 1684 2547 1384 2206 
Q 1116 1900 1116 1541 
Q 1116 1156 1353 844 
Q 1672 428 2159 428 
Q 2669 428 2941 844 
Q 3125 1128 3125 1503 
Q 3125 1944 2881 2228 
Q 2600 2547 2141 2547 
z
" transform="scale(0.015625)"/>
       </defs>
       <use xlink:href="#IPAexGothic-36"/>
       <use xlink:href="#IPAexGothic-30" transform="translate(62.988281 0)"/>
      </g>
     </g>
    </g>
    <g id="text_12">
     <!-- くちばしの長さ (mm) -->
     <g style="fill: #262626" transform="translate(23.632188 192.305625) rotate(-90) scale(0.12 -0.12)">
      <defs>
       <path id="IPAexGothic-304f" d="M 4022 -300 
Q 3050 984 1863 2047 
Q 1538 2338 1538 2522 
Q 1538 2700 1953 3041 
Q 3144 4019 3816 5094 
L 4256 4769 
Q 3456 3659 2234 2694 
Q 2106 2588 2106 2528 
Q 2106 2466 2344 2247 
Q 3591 1113 4444 103 
L 4022 -300 
z
" transform="scale(0.015625)"/>
       <path id="IPAexGothic-3061" d="M 684 4084 
Q 1250 4038 2131 4038 
Q 2269 4706 2328 5113 
L 2809 5044 
Q 2709 4494 2616 4056 
Q 3625 4103 4575 4300 
L 4634 3841 
Q 3650 3663 2509 3616 
Q 2281 2638 2003 1913 
Q 2956 2644 3956 2644 
Q 4522 2644 4891 2425 
Q 5447 2109 5447 1466 
Q 5447 -66 2425 -159 
L 2206 294 
Q 4941 344 4941 1472 
Q 4941 2234 3878 2234 
Q 3228 2234 2522 1819 
Q 2091 1563 1766 1216 
L 1356 1509 
Q 1756 2484 2028 3597 
Q 1122 3597 703 3622 
L 684 4084 
z
" transform="scale(0.015625)"/>
       <path id="IPAexGothic-3070" d="M 5294 4134 
Q 5066 4672 4775 5025 
L 5122 5203 
Q 5403 4881 5659 4341 
L 5294 4134 
z
M 5928 4481 
Q 5678 4991 5391 5313 
L 5722 5503 
Q 5978 5231 6278 4697 
L 5928 4481 
z
M 4028 4831 
L 4500 4831 
L 4519 3725 
Q 4966 3772 5544 3897 
L 5581 3422 
Q 5219 3350 4525 3275 
L 4559 1394 
Q 5063 1238 5897 709 
L 5619 269 
Q 5031 728 4572 934 
Q 4572 397 4347 181 
Q 4091 -56 3597 -56 
Q 2953 -56 2631 188 
Q 2350 400 2350 788 
Q 2350 1181 2734 1441 
Q 3013 1625 3497 1625 
Q 3722 1625 4097 1547 
L 4059 3244 
Q 3659 3225 3322 3225 
Q 2881 3225 2447 3256 
L 2428 3716 
Q 2909 3672 3419 3672 
Q 3709 3672 4053 3691 
L 4028 4831 
z
M 4103 1106 
Q 3716 1216 3475 1216 
Q 2803 1216 2803 806 
Q 2803 378 3597 378 
Q 3850 378 3984 525 
Q 4103 656 4103 878 
Q 4103 1044 4103 1106 
z
M 963 -97 
Q 756 1025 756 1888 
Q 756 3109 1209 4838 
L 1691 4716 
Q 1231 2997 1231 1856 
Q 1231 1522 1269 1063 
Q 1553 1663 1716 1953 
L 2038 1759 
Q 1447 669 1447 97 
Q 1447 25 1453 -44 
L 963 -97 
z
" transform="scale(0.015625)"/>
       <path id="IPAexGothic-3057" d="M 1750 4884 
L 2281 4884 
L 2238 1319 
Q 2228 809 2391 569 
Q 2594 281 3128 281 
Q 3772 281 4344 744 
Q 4822 1131 5156 1759 
L 5534 1369 
Q 5094 653 4534 263 
Q 3878 -206 3134 -206 
Q 2341 -206 1994 213 
Q 1697 575 1706 1269 
L 1750 4884 
z
" transform="scale(0.015625)"/>
       <path id="IPAexGothic-9577" d="M 1913 4581 
L 1913 4128 
L 5131 4128 
L 5131 3744 
L 1913 3744 
L 1913 3284 
L 5131 3284 
L 5131 2900 
L 1913 2900 
L 1913 2413 
L 6041 2413 
L 6041 2016 
L 3384 2016 
Q 3603 1503 4063 1063 
Q 4709 1478 5259 1984 
L 5650 1709 
Q 4950 1134 4378 788 
Q 5044 272 6066 6 
L 5766 -409 
Q 3613 259 2931 2016 
L 1913 2016 
L 1913 269 
Q 2741 466 3409 666 
L 3450 281 
Q 2244 -131 769 -456 
L 575 -6 
Q 1447 159 1453 159 
L 1453 2016 
L 353 2016 
L 353 2413 
L 1453 2413 
L 1453 4978 
L 5356 4978 
L 5356 4581 
L 1913 4581 
z
" transform="scale(0.015625)"/>
       <path id="IPAexGothic-3055" d="M 1747 1184 
Q 1747 834 2094 609 
Q 2422 391 3706 391 
Q 4088 391 4422 434 
L 4478 -50 
Q 4116 -84 3853 -84 
Q 3000 -84 2544 -13 
Q 2044 69 1759 263 
Q 1272 597 1272 1125 
Q 1272 1638 1728 1953 
Q 2163 2253 2884 2253 
Q 3741 2253 4300 2003 
Q 3797 2556 3322 3438 
Q 2128 3219 1113 3219 
L 966 3694 
Q 1150 3688 1388 3688 
Q 2291 3688 3128 3847 
Q 2919 4253 2597 4953 
L 3059 5081 
Q 3347 4384 3591 3950 
Q 4375 4147 5028 4481 
L 5297 4056 
Q 4653 3763 3775 3547 
Q 4309 2597 5069 1703 
L 4672 1363 
Q 3994 1838 2872 1838 
Q 2278 1838 1984 1628 
Q 1747 1459 1747 1184 
z
" transform="scale(0.015625)"/>
       <path id="IPAexGothic-20" transform="scale(0.015625)"/>
       <path id="IPAexGothic-28" d="M 1928 -1016 
L 1653 -1166 
Q 488 69 488 1875 
Q 488 3678 1653 4909 
L 1928 4763 
Q 1006 3522 1006 1881 
Q 1006 203 1928 -1016 
z
" transform="scale(0.015625)"/>
       <path id="IPAexGothic-6d" d="M 5022 63 
L 4472 63 
L 4472 2059 
Q 4472 2869 3847 2869 
Q 3550 2869 3303 2594 
Q 3128 2397 3059 2103 
L 3059 63 
L 2509 63 
L 2509 2066 
Q 2509 2869 1919 2869 
Q 1606 2869 1369 2594 
Q 1113 2306 1113 2041 
L 1113 63 
L 563 63 
L 563 3250 
L 1075 3250 
L 1075 2700 
Q 1391 3316 2028 3316 
Q 2725 3316 2956 2647 
Q 3303 3316 3953 3316 
Q 4478 3316 4772 2944 
Q 5022 2638 5022 2072 
L 5022 63 
z
" transform="scale(0.015625)"/>
       <path id="IPAexGothic-29" d="M 466 4909 
Q 1638 3672 1638 1875 
Q 1638 75 466 -1166 
L 191 -1016 
Q 1119 216 1119 1881 
Q 1119 3509 191 4763 
L 466 4909 
z
" transform="scale(0.015625)"/>
      </defs>
      <use xlink:href="#IPAexGothic-304f"/>
      <use xlink:href="#IPAexGothic-3061" transform="translate(100 0)"/>
      <use xlink:href="#IPAexGothic-3070" transform="translate(200 0)"/>
      <use xlink:href="#IPAexGothic-3057" transform="translate(300 0)"/>
      <use xlink:href="#IPAexGothic-306e" transform="translate(400 0)"/>
      <use xlink:href="#IPAexGothic-9577" transform="translate(500 0)"/>
      <use xlink:href="#IPAexGothic-3055" transform="translate(600 0)"/>
      <use xlink:href="#IPAexGothic-20" transform="translate(700 0)"/>
      <use xlink:href="#IPAexGothic-28" transform="translate(727.001953 0)"/>
      <use xlink:href="#IPAexGothic-6d" transform="translate(760.302734 0)"/>
      <use xlink:href="#IPAexGothic-6d" transform="translate(847.412109 0)"/>
      <use xlink:href="#IPAexGothic-29" transform="translate(934.521484 0)"/>
     </g>
    </g>
   </g>
   <g id="FillBetweenPolyCollection_1">
    <defs>
     <path id="m2e434a4429" d="M 114.382908 -57.751193 
L 114.078342 -57.751193 
L 114.009289 -58.837006 
L 113.918016 -59.922818 
L 113.801057 -61.00863 
L 113.655471 -62.094443 
L 113.478957 -63.180255 
L 113.269765 -64.266067 
L 113.02636 -65.35188 
L 112.746846 -66.437692 
L 112.42826 -67.523505 
L 112.065853 -68.609317 
L 111.652541 -69.695129 
L 111.178661 -70.780942 
L 110.632123 -71.866754 
L 109.998955 -72.952566 
L 109.264148 -74.038379 
L 108.412681 -75.124191 
L 107.430532 -76.210003 
L 106.305581 -77.295816 
L 105.028324 -78.381628 
L 103.592433 -79.467441 
L 101.99527 -80.553253 
L 100.238477 -81.639065 
L 98.328757 -82.724878 
L 96.278811 -83.81069 
L 94.108288 -84.896502 
L 91.844382 -85.982315 
L 89.521664 -87.068127 
L 87.180747 -88.15394 
L 84.865629 -89.239752 
L 82.619878 -90.325564 
L 80.482281 -91.411377 
L 78.482838 -92.497189 
L 76.640113 -93.583001 
L 74.960685 -94.668814 
L 73.440939 -95.754626 
L 72.070776 -96.840438 
L 70.838218 -97.926251 
L 69.733615 -99.012063 
L 68.752262 -100.097876 
L 67.894786 -101.183688 
L 67.165386 -102.2695 
L 66.568729 -103.355313 
L 66.106685 -104.441125 
L 65.776026 -105.526937 
L 65.567776 -106.61275 
L 65.468235 -107.698562 
L 65.461125 -108.784375 
L 65.530055 -109.870187 
L 65.660583 -110.955999 
L 65.841605 -112.041812 
L 66.066211 -113.127624 
L 66.332472 -114.213436 
L 66.644523 -115.299249 
L 67.013968 -116.385061 
L 67.461121 -117.470873 
L 68.015248 -118.556686 
L 68.712957 -119.642498 
L 69.594323 -120.728311 
L 70.697025 -121.814123 
L 72.049559 -122.899935 
L 73.665054 -123.985748 
L 75.537276 -125.07156 
L 77.639886 -126.157372 
L 79.929191 -127.243185 
L 82.349713 -128.328997 
L 84.841213 -129.41481 
L 87.345546 -130.500622 
L 89.811961 -131.586434 
L 92.200026 -132.672247 
L 94.480081 -133.758059 
L 96.631741 -134.843871 
L 98.641331 -135.929684 
L 100.499183 -137.015496 
L 102.197522 -138.101309 
L 103.72935 -139.187121 
L 105.088384 -140.272933 
L 106.269879 -141.358746 
L 107.272021 -142.444558 
L 108.097522 -143.53037 
L 108.755058 -144.616183 
L 109.260193 -145.701995 
L 109.635482 -146.787807 
L 109.909527 -147.87362 
L 110.114931 -148.959432 
L 110.285325 -150.045245 
L 110.451874 -151.131057 
L 110.639875 -152.216869 
L 110.866106 -153.302682 
L 111.137462 -154.388494 
L 111.451154 -155.474306 
L 111.796397 -156.560119 
L 112.157166 -157.645931 
L 112.515437 -158.731744 
L 112.854234 -159.817556 
L 113.159965 -160.903368 
L 113.42376 -161.989181 
L 113.641757 -163.074993 
L 113.814543 -164.160805 
L 113.946052 -165.246618 
L 114.515198 -165.246618 
L 114.515198 -165.246618 
L 114.646707 -164.160805 
L 114.819493 -163.074993 
L 115.03749 -161.989181 
L 115.301285 -160.903368 
L 115.607016 -159.817556 
L 115.945813 -158.731744 
L 116.304084 -157.645931 
L 116.664853 -156.560119 
L 117.010096 -155.474306 
L 117.323788 -154.388494 
L 117.595144 -153.302682 
L 117.821375 -152.216869 
L 118.009376 -151.131057 
L 118.175925 -150.045245 
L 118.346319 -148.959432 
L 118.551723 -147.87362 
L 118.825768 -146.787807 
L 119.201057 -145.701995 
L 119.706192 -144.616183 
L 120.363728 -143.53037 
L 121.189229 -142.444558 
L 122.191371 -141.358746 
L 123.372866 -140.272933 
L 124.7319 -139.187121 
L 126.263728 -138.101309 
L 127.962067 -137.015496 
L 129.819919 -135.929684 
L 131.829509 -134.843871 
L 133.981169 -133.758059 
L 136.261224 -132.672247 
L 138.649289 -131.586434 
L 141.115704 -130.500622 
L 143.620037 -129.41481 
L 146.111537 -128.328997 
L 148.532059 -127.243185 
L 150.821364 -126.157372 
L 152.923974 -125.07156 
L 154.796196 -123.985748 
L 156.411691 -122.899935 
L 157.764225 -121.814123 
L 158.866927 -120.728311 
L 159.748293 -119.642498 
L 160.446002 -118.556686 
L 161.000129 -117.470873 
L 161.447282 -116.385061 
L 161.816727 -115.299249 
L 162.128778 -114.213436 
L 162.395039 -113.127624 
L 162.619645 -112.041812 
L 162.800667 -110.955999 
L 162.931195 -109.870187 
L 163.000125 -108.784375 
L 162.993015 -107.698562 
L 162.893474 -106.61275 
L 162.685224 -105.526937 
L 162.354565 -104.441125 
L 161.892521 -103.355313 
L 161.295864 -102.2695 
L 160.566464 -101.183688 
L 159.708988 -100.097876 
L 158.727635 -99.012063 
L 157.623032 -97.926251 
L 156.390474 -96.840438 
L 155.020311 -95.754626 
L 153.500565 -94.668814 
L 151.821137 -93.583001 
L 149.978412 -92.497189 
L 147.978969 -91.411377 
L 145.841372 -90.325564 
L 143.595621 -89.239752 
L 141.280503 -88.15394 
L 138.939586 -87.068127 
L 136.616868 -85.982315 
L 134.352962 -84.896502 
L 132.182439 -83.81069 
L 130.132493 -82.724878 
L 128.222773 -81.639065 
L 126.46598 -80.553253 
L 124.868817 -79.467441 
L 123.432926 -78.381628 
L 122.155669 -77.295816 
L 121.030718 -76.210003 
L 120.048569 -75.124191 
L 119.197102 -74.038379 
L 118.462295 -72.952566 
L 117.829127 -71.866754 
L 117.282589 -70.780942 
L 116.808709 -69.695129 
L 116.395397 -68.609317 
L 116.03299 -67.523505 
L 115.714404 -66.437692 
L 115.43489 -65.35188 
L 115.191485 -64.266067 
L 114.982293 -63.180255 
L 114.805779 -62.094443 
L 114.660193 -61.00863 
L 114.543234 -59.922818 
L 114.451961 -58.837006 
L 114.382908 -57.751193 
z
" style="stroke: #6a6a6a; stroke-width: 1.25"/>
    </defs>
    <g clip-path="url(#p0105380c0e)">
     <use xlink:href="#m2e434a4429" x="0" y="288" style="fill: #96cac1; stroke: #6a6a6a; stroke-width: 1.25"/>
    </g>
   </g>
   <g id="FillBetweenPolyCollection_2">
    <defs>
     <path id="m9ed954b3b2" d="M 236.426715 -105.329222 
L 235.882035 -105.329222 
L 235.771022 -106.722269 
L 235.625627 -108.115315 
L 235.439286 -109.508362 
L 235.205423 -110.901408 
L 234.917822 -112.294455 
L 234.571052 -113.687501 
L 234.160937 -115.080548 
L 233.685066 -116.473594 
L 233.143298 -117.866641 
L 232.538225 -119.259687 
L 231.875494 -120.652734 
L 231.163873 -122.04578 
L 230.414904 -123.438827 
L 229.642004 -124.831873 
L 228.858933 -126.22492 
L 228.077633 -127.617966 
L 227.305629 -129.011012 
L 226.543326 -130.404059 
L 225.781709 -131.797105 
L 225.001051 -133.190152 
L 224.171155 -134.583198 
L 223.253564 -135.976245 
L 222.205804 -137.369291 
L 220.987401 -138.762338 
L 219.566958 -140.155384 
L 217.929276 -141.548431 
L 216.08129 -142.941477 
L 214.055635 -144.334524 
L 211.910901 -145.72757 
L 209.728094 -147.120617 
L 207.603436 -148.513663 
L 205.638223 -149.90671 
L 203.927022 -151.299756 
L 202.545814 -152.692803 
L 201.541781 -154.085849 
L 200.926234 -155.478896 
L 200.671754 -156.871942 
L 200.714024 -158.264989 
L 200.958155 -159.658035 
L 201.288705 -161.051082 
L 201.582134 -162.444128 
L 201.720144 -163.837174 
L 201.602348 -165.230221 
L 201.156867 -166.623267 
L 200.347793 -168.016314 
L 199.1789 -169.40936 
L 197.693429 -170.802407 
L 195.970196 -172.195453 
L 194.116617 -173.5885 
L 192.259467 -174.981546 
L 190.534324 -176.374593 
L 189.074656 -177.767639 
L 188.001492 -179.160686 
L 187.414463 -180.553732 
L 187.384875 -181.946779 
L 187.951266 -183.339825 
L 189.117685 -184.732872 
L 190.854714 -186.125918 
L 193.103017 -187.518965 
L 195.778976 -188.912011 
L 198.781827 -190.305058 
L 202.001576 -191.698104 
L 205.326922 -193.091151 
L 208.652513 -194.484197 
L 211.884914 -195.877244 
L 214.94691 -197.27029 
L 217.779967 -198.663336 
L 220.344868 -200.056383 
L 222.620782 -201.449429 
L 224.603088 -202.842476 
L 226.300415 -204.235522 
L 227.731292 -205.628569 
L 228.92081 -207.021615 
L 229.897592 -208.414662 
L 230.691267 -209.807708 
L 231.33058 -211.200755 
L 231.842151 -212.593801 
L 232.249838 -213.986848 
L 232.574604 -215.379894 
L 232.834731 -216.772941 
L 233.046216 -218.165987 
L 233.223167 -219.559034 
L 233.378082 -220.95208 
L 233.521918 -222.345127 
L 233.663955 -223.738173 
L 233.811497 -225.13122 
L 233.969544 -226.524266 
L 234.140543 -227.917313 
L 234.324347 -229.310359 
L 234.518429 -230.703406 
L 234.718373 -232.096452 
L 234.918563 -233.489499 
L 235.112967 -234.882545 
L 235.295909 -236.275591 
L 235.462687 -237.668638 
L 235.609992 -239.061684 
L 235.736076 -240.454731 
L 235.840698 -241.847777 
L 235.92489 -243.240824 
L 236.38386 -243.240824 
L 236.38386 -243.240824 
L 236.468052 -241.847777 
L 236.572674 -240.454731 
L 236.698758 -239.061684 
L 236.846063 -237.668638 
L 237.012841 -236.275591 
L 237.195783 -234.882545 
L 237.390187 -233.489499 
L 237.590377 -232.096452 
L 237.790321 -230.703406 
L 237.984403 -229.310359 
L 238.168207 -227.917313 
L 238.339206 -226.524266 
L 238.497253 -225.13122 
L 238.644795 -223.738173 
L 238.786832 -222.345127 
L 238.930668 -220.95208 
L 239.085583 -219.559034 
L 239.262534 -218.165987 
L 239.474019 -216.772941 
L 239.734146 -215.379894 
L 240.058912 -213.986848 
L 240.466599 -212.593801 
L 240.97817 -211.200755 
L 241.617483 -209.807708 
L 242.411158 -208.414662 
L 243.38794 -207.021615 
L 244.577458 -205.628569 
L 246.008335 -204.235522 
L 247.705662 -202.842476 
L 249.687968 -201.449429 
L 251.963882 -200.056383 
L 254.528783 -198.663336 
L 257.36184 -197.27029 
L 260.423836 -195.877244 
L 263.656237 -194.484197 
L 266.981828 -193.091151 
L 270.307174 -191.698104 
L 273.526923 -190.305058 
L 276.529774 -188.912011 
L 279.205733 -187.518965 
L 281.454036 -186.125918 
L 283.191065 -184.732872 
L 284.357484 -183.339825 
L 284.923875 -181.946779 
L 284.894287 -180.553732 
L 284.307258 -179.160686 
L 283.234094 -177.767639 
L 281.774426 -176.374593 
L 280.049283 -174.981546 
L 278.192133 -173.5885 
L 276.338554 -172.195453 
L 274.615321 -170.802407 
L 273.12985 -169.40936 
L 271.960957 -168.016314 
L 271.151883 -166.623267 
L 270.706402 -165.230221 
L 270.588606 -163.837174 
L 270.726616 -162.444128 
L 271.020045 -161.051082 
L 271.350595 -159.658035 
L 271.594726 -158.264989 
L 271.636996 -156.871942 
L 271.382516 -155.478896 
L 270.766969 -154.085849 
L 269.762936 -152.692803 
L 268.381728 -151.299756 
L 266.670527 -149.90671 
L 264.705314 -148.513663 
L 262.580656 -147.120617 
L 260.397849 -145.72757 
L 258.253115 -144.334524 
L 256.22746 -142.941477 
L 254.379474 -141.548431 
L 252.741792 -140.155384 
L 251.321349 -138.762338 
L 250.102946 -137.369291 
L 249.055186 -135.976245 
L 248.137595 -134.583198 
L 247.307699 -133.190152 
L 246.527041 -131.797105 
L 245.765424 -130.404059 
L 245.003121 -129.011012 
L 244.231117 -127.617966 
L 243.449817 -126.22492 
L 242.666746 -124.831873 
L 241.893846 -123.438827 
L 241.144877 -122.04578 
L 240.433256 -120.652734 
L 239.770525 -119.259687 
L 239.165452 -117.866641 
L 238.623684 -116.473594 
L 238.147813 -115.080548 
L 237.737698 -113.687501 
L 237.390928 -112.294455 
L 237.103327 -110.901408 
L 236.869464 -109.508362 
L 236.683123 -108.115315 
L 236.537728 -106.722269 
L 236.426715 -105.329222 
z
" style="stroke: #6a6a6a; stroke-width: 1.25"/>
    </defs>
    <g clip-path="url(#p0105380c0e)">
     <use xlink:href="#m9ed954b3b2" x="0" y="288" style="fill: #f6f6bc; stroke: #6a6a6a; stroke-width: 1.25"/>
    </g>
   </g>
   <g id="FillBetweenPolyCollection_3">
    <defs>
     <path id="m8648438638" d="M 358.283559 -108.454392 
L 357.872691 -108.454392 
L 357.760544 -109.881874 
L 357.602013 -111.309355 
L 357.384765 -112.736836 
L 357.095445 -114.164318 
L 356.719982 -115.591799 
L 356.243803 -117.019281 
L 355.651977 -118.446762 
L 354.929421 -119.874244 
L 354.061399 -121.301725 
L 353.034565 -122.729207 
L 351.838656 -124.156688 
L 350.468655 -125.58417 
L 348.926887 -127.011651 
L 347.224221 -128.439133 
L 345.379498 -129.866614 
L 343.416702 -131.294095 
L 341.360087 -132.721577 
L 339.228427 -134.149058 
L 337.030263 -135.57654 
L 334.762224 -137.004021 
L 332.411886 -138.431503 
L 329.965277 -139.858984 
L 327.417494 -141.286466 
L 324.783523 -142.713947 
L 322.105862 -144.141429 
L 319.456175 -145.56891 
L 316.929803 -146.996392 
L 314.633967 -148.423873 
L 312.672176 -149.851354 
L 311.128248 -151.278836 
L 310.053191 -152.706317 
L 309.45731 -154.133799 
L 309.308625 -155.56128 
L 309.537494 -156.988762 
L 310.046439 -158.416243 
L 310.7236 -159.843725 
L 311.457905 -161.271206 
L 312.153898 -162.698688 
L 312.744206 -164.126169 
L 313.197922 -165.553651 
L 313.523818 -166.981132 
L 313.768075 -168.408613 
L 314.007095 -169.836095 
L 314.336604 -171.263576 
L 314.858654 -172.691058 
L 315.668168 -174.118539 
L 316.840562 -175.546021 
L 318.421777 -176.973502 
L 320.421838 -178.400984 
L 322.812753 -179.828465 
L 325.531145 -181.255947 
L 328.485372 -182.683428 
L 331.566121 -184.11091 
L 334.658815 -185.538391 
L 337.655752 -186.965872 
L 340.466058 -188.393354 
L 343.02205 -189.820835 
L 345.281564 -191.248317 
L 347.226647 -192.675798 
L 348.859732 -194.10328 
L 350.198626 -195.530761 
L 351.271521 -196.958243 
L 352.112788 -198.385724 
L 352.75985 -199.813206 
L 353.250993 -201.240687 
L 353.62382 -202.668169 
L 353.913988 -204.09565 
L 354.153995 -205.523131 
L 354.371948 -206.950613 
L 354.590358 -208.378094 
L 354.825125 -209.805576 
L 355.084916 -211.233057 
L 355.371095 -212.660539 
L 355.678329 -214.08802 
L 355.995849 -215.515502 
L 356.309252 -216.942983 
L 356.602613 -218.370465 
L 356.860634 -219.797946 
L 357.070554 -221.225428 
L 357.223663 -222.652909 
L 357.316278 -224.080391 
L 357.350196 -225.507872 
L 357.332596 -226.935353 
L 357.2754 -228.362835 
L 357.194104 -229.790316 
L 357.106089 -231.217798 
L 357.028565 -232.645279 
L 356.976385 -234.072761 
L 356.960109 -235.500242 
L 356.984708 -236.927724 
L 357.049194 -238.355205 
L 357.14728 -239.782687 
L 357.268913 -241.210168 
L 357.402292 -242.63765 
L 357.535933 -244.065131 
L 357.660317 -245.492612 
L 357.768886 -246.920094 
L 357.85829 -248.347575 
L 357.928024 -249.775057 
L 358.228226 -249.775057 
L 358.228226 -249.775057 
L 358.29796 -248.347575 
L 358.387364 -246.920094 
L 358.495933 -245.492612 
L 358.620317 -244.065131 
L 358.753958 -242.63765 
L 358.887337 -241.210168 
L 359.00897 -239.782687 
L 359.107056 -238.355205 
L 359.171542 -236.927724 
L 359.196141 -235.500242 
L 359.179865 -234.072761 
L 359.127685 -232.645279 
L 359.050161 -231.217798 
L 358.962146 -229.790316 
L 358.88085 -228.362835 
L 358.823654 -226.935353 
L 358.806054 -225.507872 
L 358.839972 -224.080391 
L 358.932587 -222.652909 
L 359.085696 -221.225428 
L 359.295616 -219.797946 
L 359.553637 -218.370465 
L 359.846998 -216.942983 
L 360.160401 -215.515502 
L 360.477921 -214.08802 
L 360.785155 -212.660539 
L 361.071334 -211.233057 
L 361.331125 -209.805576 
L 361.565892 -208.378094 
L 361.784302 -206.950613 
L 362.002255 -205.523131 
L 362.242262 -204.09565 
L 362.53243 -202.668169 
L 362.905257 -201.240687 
L 363.3964 -199.813206 
L 364.043462 -198.385724 
L 364.884729 -196.958243 
L 365.957624 -195.530761 
L 367.296518 -194.10328 
L 368.929603 -192.675798 
L 370.874686 -191.248317 
L 373.1342 -189.820835 
L 375.690192 -188.393354 
L 378.500498 -186.965872 
L 381.497435 -185.538391 
L 384.590129 -184.11091 
L 387.670878 -182.683428 
L 390.625105 -181.255947 
L 393.343497 -179.828465 
L 395.734412 -178.400984 
L 397.734473 -176.973502 
L 399.315688 -175.546021 
L 400.488082 -174.118539 
L 401.297596 -172.691058 
L 401.819646 -171.263576 
L 402.149155 -169.836095 
L 402.388175 -168.408613 
L 402.632432 -166.981132 
L 402.958328 -165.553651 
L 403.412044 -164.126169 
L 404.002352 -162.698688 
L 404.698345 -161.271206 
L 405.43265 -159.843725 
L 406.109811 -158.416243 
L 406.618756 -156.988762 
L 406.847625 -155.56128 
L 406.69894 -154.133799 
L 406.103059 -152.706317 
L 405.028002 -151.278836 
L 403.484074 -149.851354 
L 401.522283 -148.423873 
L 399.226447 -146.996392 
L 396.700075 -145.56891 
L 394.050388 -144.141429 
L 391.372727 -142.713947 
L 388.738756 -141.286466 
L 386.190973 -139.858984 
L 383.744364 -138.431503 
L 381.394026 -137.004021 
L 379.125987 -135.57654 
L 376.927823 -134.149058 
L 374.796163 -132.721577 
L 372.739548 -131.294095 
L 370.776752 -129.866614 
L 368.932029 -128.439133 
L 367.229363 -127.011651 
L 365.687595 -125.58417 
L 364.317594 -124.156688 
L 363.121685 -122.729207 
L 362.094851 -121.301725 
L 361.226829 -119.874244 
L 360.504273 -118.446762 
L 359.912447 -117.019281 
L 359.436268 -115.591799 
L 359.060805 -114.164318 
L 358.771485 -112.736836 
L 358.554237 -111.309355 
L 358.395706 -109.881874 
L 358.283559 -108.454392 
z
" style="stroke: #6a6a6a; stroke-width: 1.25"/>
    </defs>
    <g clip-path="url(#p0105380c0e)">
     <use xlink:href="#m8648438638" x="0" y="288" style="fill: #c1bed6; stroke: #6a6a6a; stroke-width: 1.25"/>
    </g>
   </g>
   <g id="line2d_8">
    <path d="M 114.230625 218.459125 
L 114.230625 134.543064 
" clip-path="url(#p0105380c0e)" style="fill: none; stroke: #6a6a6a; stroke-width: 1.875; stroke-linecap: round"/>
   </g>
   <g id="line2d_9">
    <path d="M 114.230625 190.386486 
L 114.230625 166.237979 
" clip-path="url(#p0105380c0e)" style="fill: none; stroke: #6a6a6a; stroke-width: 5.625; stroke-linecap: round"/>
   </g>
   <g id="line2d_10">
    <path d="M 114.230625 178.010376 
" clip-path="url(#p0105380c0e)" style="fill: none; stroke: #6a6a6a; stroke-width: 1.5; stroke-linecap: round"/>
    <defs>
     <path id="m7b1ec69e47" d="M 2.34375 0 
L -2.34375 -0 
" style="stroke: #ffffff; stroke-width: 1.125"/>
    </defs>
    <g clip-path="url(#p0105380c0e)">
     <use xlink:href="#m7b1ec69e47" x="114.230625" y="178.010376" style="fill: #ffffff; stroke: #ffffff; stroke-width: 1.125"/>
    </g>
   </g>
   <g id="line2d_11">
    <path d="M 236.154375 165.33241 
L 236.154375 62.097544 
" clip-path="url(#p0105380c0e)" style="fill: none; stroke: #6a6a6a; stroke-width: 1.875; stroke-linecap: round"/>
   </g>
   <g id="line2d_12">
    <path d="M 236.154375 132.43007 
L 236.154375 103.904646 
" clip-path="url(#p0105380c0e)" style="fill: none; stroke: #6a6a6a; stroke-width: 5.625; stroke-linecap: round"/>
   </g>
   <g id="line2d_13">
    <path d="M 236.154375 113.111264 
" clip-path="url(#p0105380c0e)" style="fill: none; stroke: #6a6a6a; stroke-width: 1.5; stroke-linecap: round"/>
    <g clip-path="url(#p0105380c0e)">
     <use xlink:href="#m7b1ec69e47" x="236.154375" y="113.111264" style="fill: #ffffff; stroke: #ffffff; stroke-width: 1.125"/>
    </g>
   </g>
   <g id="line2d_14">
    <path d="M 358.078125 165.33241 
L 358.078125 74.77551 
" clip-path="url(#p0105380c0e)" style="fill: none; stroke: #6a6a6a; stroke-width: 1.875; stroke-linecap: round"/>
   </g>
   <g id="line2d_15">
    <path d="M 358.078125 138.769053 
L 358.078125 113.111264 
" clip-path="url(#p0105380c0e)" style="fill: none; stroke: #6a6a6a; stroke-width: 5.625; stroke-linecap: round"/>
   </g>
   <g id="line2d_16">
    <path d="M 358.078125 126.694799 
" clip-path="url(#p0105380c0e)" style="fill: none; stroke: #6a6a6a; stroke-width: 1.5; stroke-linecap: round"/>
    <g clip-path="url(#p0105380c0e)">
     <use xlink:href="#m7b1ec69e47" x="358.078125" y="126.694799" style="fill: #ffffff; stroke: #ffffff; stroke-width: 1.125"/>
    </g>
   </g>
   <g id="patch_3">
    <path d="M 53.26875 239.85 
L 53.26875 28.62375 
" style="fill: none; stroke: #262626; stroke-width: 1.25; stroke-linejoin: miter; stroke-linecap: square"/>
   </g>
   <g id="patch_4">
    <path d="M 419.04 239.85 
L 419.04 28.62375 
" style="fill: none; stroke: #262626; stroke-width: 1.25; stroke-linejoin: miter; stroke-linecap: square"/>
   </g>
   <g id="patch_5">
    <path d="M 53.26875 239.85 
L 419.04 239.85 
" style="fill: none; stroke: #262626; stroke-width: 1.25; stroke-linejoin: miter; stroke-linecap: square"/>
   </g>
   <g id="patch_6">
    <path d="M 53.26875 28.62375 
L 419.04 28.62375 
" style="fill: none; stroke: #262626; stroke-width: 1.25; stroke-linejoin: miter; stroke-linecap: square"/>
   </g>
   <g id="text_13">
    <!-- 種別のくちばし長 バイオリンプロット -->
    <g style="fill: #262626" transform="translate(132.534375 22.62375) scale(0.12 -0.12)">
     <defs>
      <path id="IPAexGothic-5225" d="M 1922 2963 
Q 1906 2453 1894 2209 
L 3341 2209 
Q 3313 550 3175 63 
Q 3059 -366 2413 -366 
Q 2072 -366 1753 -313 
L 1691 134 
Q 2084 63 2413 63 
Q 2694 63 2759 319 
Q 2856 722 2888 1753 
Q 2888 1800 2894 1819 
L 1863 1819 
Q 1709 350 700 -481 
L 353 -147 
Q 1075 403 1306 1256 
Q 1450 1822 1478 2963 
L 700 2963 
L 700 4984 
L 3278 4984 
L 3278 2963 
L 1922 2963 
z
M 1141 4588 
L 1141 3353 
L 2838 3353 
L 2838 4588 
L 1141 4588 
z
M 3972 4597 
L 4425 4597 
L 4425 1159 
L 3972 1159 
L 3972 4597 
z
M 5309 5044 
L 5763 5044 
L 5763 191 
Q 5763 -141 5581 -263 
Q 5438 -359 5116 -359 
Q 4688 -359 4253 -313 
L 4156 178 
Q 4625 116 5072 116 
Q 5309 116 5309 353 
L 5309 5044 
z
" transform="scale(0.015625)"/>
      <path id="IPAexGothic-30d0" d="M 428 903 
Q 1472 2069 1972 3884 
L 2497 3700 
Q 1938 1778 897 544 
L 428 903 
z
M 5441 678 
Q 4694 2275 3684 3725 
L 4147 3969 
Q 5050 2734 5956 1025 
L 5441 678 
z
M 5697 4116 
Q 5334 4656 4941 4984 
L 5241 5216 
Q 5625 4906 6016 4391 
L 5697 4116 
z
M 5094 3641 
Q 4803 4131 4356 4531 
L 4678 4781 
Q 5050 4472 5434 3922 
L 5094 3641 
z
" transform="scale(0.015625)"/>
      <path id="IPAexGothic-30a4" d="M 3131 -231 
L 3131 2875 
Q 2091 2088 1106 1656 
L 781 2059 
Q 3016 3000 4469 4916 
L 4916 4641 
Q 4384 3938 3675 3316 
L 3675 -231 
L 3131 -231 
z
" transform="scale(0.015625)"/>
      <path id="IPAexGothic-30aa" d="M 3578 5000 
L 4078 5000 
L 4109 3719 
L 5678 3719 
L 5678 3272 
L 4122 3272 
L 4188 397 
Q 4197 -147 3553 -147 
Q 3125 -147 2663 -69 
L 2553 463 
Q 3088 359 3425 359 
Q 3688 359 3688 616 
L 3663 2288 
L 3681 3106 
Q 3203 2188 2456 1469 
Q 1791 828 994 425 
L 634 834 
Q 2294 1588 3303 3272 
L 878 3272 
L 878 3719 
L 3609 3719 
L 3578 5000 
z
" transform="scale(0.015625)"/>
      <path id="IPAexGothic-30ea" d="M 1678 4788 
L 2222 4788 
L 2222 1900 
L 1678 1900 
L 1678 4788 
z
M 4084 4909 
L 4628 4909 
L 4628 2753 
Q 4628 1563 4150 794 
Q 3725 119 2772 -353 
L 2394 78 
Q 3334 494 3706 1094 
Q 4084 1703 4084 2725 
L 4084 4909 
z
" transform="scale(0.015625)"/>
      <path id="IPAexGothic-30d7" d="M 4825 4275 
L 5125 4000 
Q 4884 2378 4081 1381 
Q 3294 413 1888 -116 
L 1522 331 
Q 4069 1113 4550 3803 
L 966 3738 
L 966 4225 
L 4825 4275 
z
M 5597 5509 
Q 5906 5509 6119 5275 
Q 6303 5075 6303 4806 
Q 6303 4494 6069 4281 
Q 5866 4097 5597 4097 
Q 5284 4097 5072 4331 
Q 4888 4534 4888 4806 
Q 4888 5116 5122 5328 
Q 5328 5509 5597 5509 
z
M 5597 5228 
Q 5409 5228 5278 5088 
Q 5169 4966 5169 4806 
Q 5169 4616 5309 4488 
Q 5434 4378 5597 4378 
Q 5784 4378 5913 4519 
Q 6022 4641 6022 4806 
Q 6022 4991 5881 5119 
Q 5759 5228 5597 5228 
z
" transform="scale(0.015625)"/>
      <path id="IPAexGothic-30ed" d="M 1147 4269 
L 5250 4269 
L 5250 172 
L 4725 172 
L 4725 569 
L 1672 569 
L 1672 172 
L 1147 172 
L 1147 4269 
z
M 1672 3781 
L 1672 1063 
L 4725 1063 
L 4725 3781 
L 1672 3781 
z
" transform="scale(0.015625)"/>
      <path id="IPAexGothic-30c3" d="M 1775 1984 
Q 1553 2666 1275 3175 
L 1716 3391 
Q 2034 2866 2247 2209 
L 1775 1984 
z
M 3003 2297 
Q 2813 2978 2522 3469 
L 2978 3681 
Q 3291 3166 3484 2522 
L 3003 2297 
z
M 1928 372 
Q 3094 744 3731 1569 
Q 4275 2263 4469 3525 
L 4975 3406 
Q 4734 1975 4016 1119 
Q 3406 391 2266 -44 
L 1928 372 
z
" transform="scale(0.015625)"/>
      <path id="IPAexGothic-30c8" d="M 2284 4997 
L 2803 4997 
L 2803 3206 
Q 4088 2619 5216 1888 
L 4878 1369 
Q 3819 2175 2803 2688 
L 2803 -184 
L 2284 -184 
L 2284 4997 
z
" transform="scale(0.015625)"/>
     </defs>
     <use xlink:href="#IPAexGothic-7a2e"/>
     <use xlink:href="#IPAexGothic-5225" transform="translate(100 0)"/>
     <use xlink:href="#IPAexGothic-306e" transform="translate(200 0)"/>
     <use xlink:href="#IPAexGothic-304f" transform="translate(300 0)"/>
     <use xlink:href="#IPAexGothic-3061" transform="translate(400 0)"/>
     <use xlink:href="#IPAexGothic-3070" transform="translate(500 0)"/>
     <use xlink:href="#IPAexGothic-3057" transform="translate(600 0)"/>
     <use xlink:href="#IPAexGothic-9577" transform="translate(700 0)"/>
     <use xlink:href="#IPAexGothic-20" transform="translate(800 0)"/>
     <use xlink:href="#IPAexGothic-30d0" transform="translate(827.001953 0)"/>
     <use xlink:href="#IPAexGothic-30a4" transform="translate(927.001953 0)"/>
     <use xlink:href="#IPAexGothic-30aa" transform="translate(1027.001953 0)"/>
     <use xlink:href="#IPAexGothic-30ea" transform="translate(1127.001953 0)"/>
     <use xlink:href="#IPAexGothic-30f3" transform="translate(1227.001953 0)"/>
     <use xlink:href="#IPAexGothic-30d7" transform="translate(1327.001953 0)"/>
     <use xlink:href="#IPAexGothic-30ed" transform="translate(1427.001953 0)"/>
     <use xlink:href="#IPAexGothic-30c3" transform="translate(1527.001953 0)"/>
     <use xlink:href="#IPAexGothic-30c8" transform="translate(1627.001953 0)"/>
    </g>
   </g>
  </g>
 </g>
 <defs>
  <clipPath id="p0105380c0e">
   <rect x="53.26875" y="28.62375" width="365.77125" height="211.22625"/>
  </clipPath>
 </defs>
</svg>
