<?xml version="1.0" encoding="utf-8" standalone="no"?>
<!DOCTYPE svg PUBLIC "-//W3C//DTD SVG 1.1//EN"
  "http://www.w3.org/Graphics/SVG/1.1/DTD/svg11.dtd">
<svg xmlns:xlink="http://www.w3.org/1999/xlink" width="480.396875pt" height="287.309062pt" viewBox="0 0 480.396875 287.309062" xmlns="http://www.w3.org/2000/svg" version="1.1">
 <metadata>
  <rdf:RDF xmlns:dc="http://purl.org/dc/elements/1.1/" xmlns:cc="http://creativecommons.org/ns#" xmlns:rdf="http://www.w3.org/1999/02/22-rdf-syntax-ns#">
   <cc:Work>
    <dc:type rdf:resource="http://purl.org/dc/dcmitype/StillImage"/>
    <dc:date>2025-10-29T22:59:13.206964</dc:date>
    <dc:format>image/svg+xml</dc:format>
    <dc:creator>
     <cc:Agent>
      <dc:title>Matplotlib v3.10.7, https://matplotlib.org/</dc:title>
     </cc:Agent>
    </dc:creator>
   </cc:Work>
  </rdf:RDF>
 </metadata>
 <defs>
  <style type="text/css">*{stroke-linejoin: round; stroke-linecap: butt}</style>
 </defs>
 <g id="figure_1">
  <g id="patch_1">
   <path d="M 0 287.309062 
L 480.396875 287.309062 
L 480.396875 0 
L 0 0 
z
" style="fill: #ffffff"/>
  </g>
  <g id="axes_1">
   <g id="patch_2">
    <path d="M 26.796875 246.195937 
L 473.196875 246.195937 
L 473.196875 24.435937 
L 26.796875 24.435937 
z
" style="fill: #ffffff"/>
   </g>
   <g id="patch_3">
    <path d="M 47.087784 246.195937 
L 55.743309 246.195937 
L 55.743309 232.115937 
L 47.087784 232.115937 
z
" clip-path="url(#pf4748f2ed0)" style="fill: #264653; opacity: 0.7"/>
   </g>
   <g id="patch_4">
    <path d="M 55.743309 246.195937 
L 64.398835 246.195937 
L 64.398835 232.115937 
L 55.743309 232.115937 
z
" clip-path="url(#pf4748f2ed0)" style="fill: #264653; opacity: 0.7"/>
   </g>
   <g id="patch_5">
    <path d="M 64.398835 246.195937 
L 73.05436 246.195937 
L 73.05436 246.195937 
L 64.398835 246.195937 
z
" clip-path="url(#pf4748f2ed0)" style="fill: #264653; opacity: 0.7"/>
   </g>
   <g id="patch_6">
    <path d="M 73.05436 246.195937 
L 81.709885 246.195937 
L 81.709885 203.955937 
L 73.05436 203.955937 
z
" clip-path="url(#pf4748f2ed0)" style="fill: #264653; opacity: 0.7"/>
   </g>
   <g id="patch_7">
    <path d="M 81.709885 246.195937 
L 90.36541 246.195937 
L 90.36541 232.115937 
L 81.709885 232.115937 
z
" clip-path="url(#pf4748f2ed0)" style="fill: #264653; opacity: 0.7"/>
   </g>
   <g id="patch_8">
    <path d="M 90.36541 246.195937 
L 99.020936 246.195937 
L 99.020936 189.875937 
L 90.36541 189.875937 
z
" clip-path="url(#pf4748f2ed0)" style="fill: #264653; opacity: 0.7"/>
   </g>
   <g id="patch_9">
    <path d="M 99.020936 246.195937 
L 107.676461 246.195937 
L 107.676461 119.475937 
L 99.020936 119.475937 
z
" clip-path="url(#pf4748f2ed0)" style="fill: #264653; opacity: 0.7"/>
   </g>
   <g id="patch_10">
    <path d="M 107.676461 246.195937 
L 116.331986 246.195937 
L 116.331986 105.395937 
L 107.676461 105.395937 
z
" clip-path="url(#pf4748f2ed0)" style="fill: #264653; opacity: 0.7"/>
   </g>
   <g id="patch_11">
    <path d="M 116.331986 246.195937 
L 124.987511 246.195937 
L 124.987511 161.715937 
L 116.331986 161.715937 
z
" clip-path="url(#pf4748f2ed0)" style="fill: #264653; opacity: 0.7"/>
   </g>
   <g id="patch_12">
    <path d="M 124.987511 246.195937 
L 133.643037 246.195937 
L 133.643037 63.155937 
L 124.987511 63.155937 
z
" clip-path="url(#pf4748f2ed0)" style="fill: #264653; opacity: 0.7"/>
   </g>
   <g id="patch_13">
    <path d="M 133.643037 246.195937 
L 142.298562 246.195937 
L 142.298562 161.715937 
L 133.643037 161.715937 
z
" clip-path="url(#pf4748f2ed0)" style="fill: #264653; opacity: 0.7"/>
   </g>
   <g id="patch_14">
    <path d="M 142.298562 246.195937 
L 150.954087 246.195937 
L 150.954087 105.395937 
L 142.298562 105.395937 
z
" clip-path="url(#pf4748f2ed0)" style="fill: #264653; opacity: 0.7"/>
   </g>
   <g id="patch_15">
    <path d="M 150.954087 246.195937 
L 159.609612 246.195937 
L 159.609612 119.475937 
L 150.954087 119.475937 
z
" clip-path="url(#pf4748f2ed0)" style="fill: #264653; opacity: 0.7"/>
   </g>
   <g id="patch_16">
    <path d="M 159.609612 246.195937 
L 168.265138 246.195937 
L 168.265138 175.795937 
L 159.609612 175.795937 
z
" clip-path="url(#pf4748f2ed0)" style="fill: #264653; opacity: 0.7"/>
   </g>
   <g id="patch_17">
    <path d="M 168.265138 246.195937 
L 176.920663 246.195937 
L 176.920663 161.715937 
L 168.265138 161.715937 
z
" clip-path="url(#pf4748f2ed0)" style="fill: #264653; opacity: 0.7"/>
   </g>
   <g id="patch_18">
    <path d="M 176.920663 246.195937 
L 185.576188 246.195937 
L 185.576188 189.875937 
L 176.920663 189.875937 
z
" clip-path="url(#pf4748f2ed0)" style="fill: #264653; opacity: 0.7"/>
   </g>
   <g id="patch_19">
    <path d="M 185.576188 246.195937 
L 194.231713 246.195937 
L 194.231713 203.955937 
L 185.576188 203.955937 
z
" clip-path="url(#pf4748f2ed0)" style="fill: #264653; opacity: 0.7"/>
   </g>
   <g id="patch_20">
    <path d="M 194.231713 246.195937 
L 202.887239 246.195937 
L 202.887239 133.555937 
L 194.231713 133.555937 
z
" clip-path="url(#pf4748f2ed0)" style="fill: #264653; opacity: 0.7"/>
   </g>
   <g id="patch_21">
    <path d="M 202.887239 246.195937 
L 211.542764 246.195937 
L 211.542764 246.195937 
L 202.887239 246.195937 
z
" clip-path="url(#pf4748f2ed0)" style="fill: #264653; opacity: 0.7"/>
   </g>
   <g id="patch_22">
    <path d="M 211.542764 246.195937 
L 220.198289 246.195937 
L 220.198289 232.115937 
L 211.542764 232.115937 
z
" clip-path="url(#pf4748f2ed0)" style="fill: #264653; opacity: 0.7"/>
   </g>
   <g id="patch_23">
    <path d="M 251.086162 246.195937 
L 261.177153 246.195937 
L 261.177153 189.875937 
L 251.086162 189.875937 
z
" clip-path="url(#pf4748f2ed0)" style="fill: #2a9d8f; opacity: 0.7"/>
   </g>
   <g id="patch_24">
    <path d="M 261.177153 246.195937 
L 271.268143 246.195937 
L 271.268143 246.195937 
L 261.177153 246.195937 
z
" clip-path="url(#pf4748f2ed0)" style="fill: #2a9d8f; opacity: 0.7"/>
   </g>
   <g id="patch_25">
    <path d="M 271.268143 246.195937 
L 281.359133 246.195937 
L 281.359133 203.955937 
L 271.268143 203.955937 
z
" clip-path="url(#pf4748f2ed0)" style="fill: #2a9d8f; opacity: 0.7"/>
   </g>
   <g id="patch_26">
    <path d="M 281.359133 246.195937 
L 291.450123 246.195937 
L 291.450123 232.115937 
L 281.359133 232.115937 
z
" clip-path="url(#pf4748f2ed0)" style="fill: #2a9d8f; opacity: 0.7"/>
   </g>
   <g id="patch_27">
    <path d="M 291.450123 246.195937 
L 301.541113 246.195937 
L 301.541113 147.635937 
L 291.450123 147.635937 
z
" clip-path="url(#pf4748f2ed0)" style="fill: #2a9d8f; opacity: 0.7"/>
   </g>
   <g id="patch_28">
    <path d="M 301.541113 246.195937 
L 311.632103 246.195937 
L 311.632103 133.555937 
L 301.541113 133.555937 
z
" clip-path="url(#pf4748f2ed0)" style="fill: #2a9d8f; opacity: 0.7"/>
   </g>
   <g id="patch_29">
    <path d="M 311.632103 246.195937 
L 321.723094 246.195937 
L 321.723094 147.635937 
L 311.632103 147.635937 
z
" clip-path="url(#pf4748f2ed0)" style="fill: #2a9d8f; opacity: 0.7"/>
   </g>
   <g id="patch_30">
    <path d="M 321.723094 246.195937 
L 331.814084 246.195937 
L 331.814084 34.995937 
L 321.723094 34.995937 
z
" clip-path="url(#pf4748f2ed0)" style="fill: #2a9d8f; opacity: 0.7"/>
   </g>
   <g id="patch_31">
    <path d="M 331.814084 246.195937 
L 341.905074 246.195937 
L 341.905074 133.555937 
L 331.814084 133.555937 
z
" clip-path="url(#pf4748f2ed0)" style="fill: #2a9d8f; opacity: 0.7"/>
   </g>
   <g id="patch_32">
    <path d="M 341.905074 246.195937 
L 351.996064 246.195937 
L 351.996064 119.475937 
L 341.905074 119.475937 
z
" clip-path="url(#pf4748f2ed0)" style="fill: #2a9d8f; opacity: 0.7"/>
   </g>
   <g id="patch_33">
    <path d="M 351.996064 246.195937 
L 362.087054 246.195937 
L 362.087054 105.395937 
L 351.996064 105.395937 
z
" clip-path="url(#pf4748f2ed0)" style="fill: #2a9d8f; opacity: 0.7"/>
   </g>
   <g id="patch_34">
    <path d="M 362.087054 246.195937 
L 372.178044 246.195937 
L 372.178044 63.155937 
L 362.087054 63.155937 
z
" clip-path="url(#pf4748f2ed0)" style="fill: #2a9d8f; opacity: 0.7"/>
   </g>
   <g id="patch_35">
    <path d="M 372.178044 246.195937 
L 382.269035 246.195937 
L 382.269035 189.875937 
L 372.178044 189.875937 
z
" clip-path="url(#pf4748f2ed0)" style="fill: #2a9d8f; opacity: 0.7"/>
   </g>
   <g id="patch_36">
    <path d="M 382.269035 246.195937 
L 392.360025 246.195937 
L 392.360025 218.035937 
L 382.269035 218.035937 
z
" clip-path="url(#pf4748f2ed0)" style="fill: #2a9d8f; opacity: 0.7"/>
   </g>
   <g id="patch_37">
    <path d="M 392.360025 246.195937 
L 402.451015 246.195937 
L 402.451015 218.035937 
L 392.360025 218.035937 
z
" clip-path="url(#pf4748f2ed0)" style="fill: #2a9d8f; opacity: 0.7"/>
   </g>
   <g id="patch_38">
    <path d="M 402.451015 246.195937 
L 412.542005 246.195937 
L 412.542005 246.195937 
L 402.451015 246.195937 
z
" clip-path="url(#pf4748f2ed0)" style="fill: #2a9d8f; opacity: 0.7"/>
   </g>
   <g id="patch_39">
    <path d="M 412.542005 246.195937 
L 422.632995 246.195937 
L 422.632995 175.795937 
L 412.542005 175.795937 
z
" clip-path="url(#pf4748f2ed0)" style="fill: #2a9d8f; opacity: 0.7"/>
   </g>
   <g id="patch_40">
    <path d="M 422.632995 246.195937 
L 432.723986 246.195937 
L 432.723986 246.195937 
L 422.632995 246.195937 
z
" clip-path="url(#pf4748f2ed0)" style="fill: #2a9d8f; opacity: 0.7"/>
   </g>
   <g id="patch_41">
    <path d="M 432.723986 246.195937 
L 442.814976 246.195937 
L 442.814976 246.195937 
L 432.723986 246.195937 
z
" clip-path="url(#pf4748f2ed0)" style="fill: #2a9d8f; opacity: 0.7"/>
   </g>
   <g id="patch_42">
    <path d="M 442.814976 246.195937 
L 452.905966 246.195937 
L 452.905966 218.035937 
L 442.814976 218.035937 
z
" clip-path="url(#pf4748f2ed0)" style="fill: #2a9d8f; opacity: 0.7"/>
   </g>
   <g id="matplotlib.axis_1">
    <g id="xtick_1">
     <g id="line2d_1">
      <path d="M 88.577988 246.195937 
L 88.577988 24.435937 
" clip-path="url(#pf4748f2ed0)" style="fill: none; stroke: #000000; stroke-opacity: 0.25; stroke-width: 0.5; stroke-linecap: square"/>
     </g>
     <g id="line2d_2">
      <defs>
       <path id="m0fa0ea8602" d="M 0 0 
L 0 3.5 
" style="stroke: #000000; stroke-width: 0.8"/>
      </defs>
      <g>
       <use xlink:href="#m0fa0ea8602" x="88.577988" y="246.195937" style="stroke: #000000; stroke-width: 0.8"/>
      </g>
     </g>
     <g id="text_1">
      <!-- −4 -->
      <g transform="translate(82.037363 260.686562) scale(0.1 -0.1)">
       <defs>
        <path id="IPAexGothic-2212" d="M 416 2222 
L 3922 2222 
L 3922 1856 
L 416 1856 
L 416 2222 
z
" transform="scale(0.015625)"/>
        <path id="IPAexGothic-34" d="M 3813 1159 
L 3059 1159 
L 3059 63 
L 2547 63 
L 2547 1159 
L 197 1159 
L 197 1672 
L 2456 4678 
L 3059 4678 
L 3059 1634 
L 3813 1634 
L 3813 1159 
z
M 2578 4109 
L 2559 4109 
Q 2278 3656 2003 3284 
L 759 1634 
L 2547 1634 
L 2547 3144 
Q 2547 3481 2578 4109 
z
" transform="scale(0.015625)"/>
       </defs>
       <use xlink:href="#IPAexGothic-2212"/>
       <use xlink:href="#IPAexGothic-34" transform="translate(67.822266 0)"/>
      </g>
     </g>
    </g>
    <g id="xtick_2">
     <g id="line2d_3">
      <path d="M 164.094115 246.195937 
L 164.094115 24.435937 
" clip-path="url(#pf4748f2ed0)" style="fill: none; stroke: #000000; stroke-opacity: 0.25; stroke-width: 0.5; stroke-linecap: square"/>
     </g>
     <g id="line2d_4">
      <g>
       <use xlink:href="#m0fa0ea8602" x="164.094115" y="246.195937" style="stroke: #000000; stroke-width: 0.8"/>
      </g>
     </g>
     <g id="text_2">
      <!-- −2 -->
      <g transform="translate(157.55349 260.686562) scale(0.1 -0.1)">
       <defs>
        <path id="IPAexGothic-32" d="M 3659 63 
L 447 63 
L 447 594 
Q 825 1475 1894 2203 
L 2072 2322 
Q 2619 2697 2791 2906 
Q 2988 3153 2988 3444 
Q 2988 3772 2756 4003 
Q 2500 4259 2084 4259 
Q 1250 4259 991 3328 
L 497 3506 
Q 853 4725 2116 4725 
Q 2806 4725 3216 4316 
Q 3575 3947 3575 3425 
Q 3575 3038 3344 2722 
Q 3131 2416 2366 1938 
L 2231 1856 
Q 1256 1253 978 569 
L 3659 569 
L 3659 63 
z
" transform="scale(0.015625)"/>
       </defs>
       <use xlink:href="#IPAexGothic-2212"/>
       <use xlink:href="#IPAexGothic-32" transform="translate(67.822266 0)"/>
      </g>
     </g>
    </g>
    <g id="xtick_3">
     <g id="line2d_5">
      <path d="M 239.610241 246.195937 
L 239.610241 24.435937 
" clip-path="url(#pf4748f2ed0)" style="fill: none; stroke: #000000; stroke-opacity: 0.25; stroke-width: 0.5; stroke-linecap: square"/>
     </g>
     <g id="line2d_6">
      <g>
       <use xlink:href="#m0fa0ea8602" x="239.610241" y="246.195937" style="stroke: #000000; stroke-width: 0.8"/>
      </g>
     </g>
     <g id="text_3">
      <!-- 0 -->
      <g transform="translate(236.461022 260.686562) scale(0.1 -0.1)">
       <defs>
        <path id="IPAexGothic-30" d="M 2038 4725 
Q 2881 4725 3334 3944 
Q 3694 3325 3694 2344 
Q 3694 1372 3334 741 
Q 2888 -31 2016 -31 
Q 1147 -31 700 741 
Q 341 1372 341 2350 
Q 341 3713 1000 4334 
Q 1419 4725 2038 4725 
z
M 2016 4266 
Q 1516 4266 1228 3759 
Q 934 3247 934 2344 
Q 934 1456 1222 947 
Q 1513 447 2016 447 
Q 2619 447 2909 1153 
Q 3100 1622 3100 2375 
Q 3100 3256 2806 3759 
Q 2509 4266 2016 4266 
z
" transform="scale(0.015625)"/>
       </defs>
       <use xlink:href="#IPAexGothic-30"/>
      </g>
     </g>
    </g>
    <g id="xtick_4">
     <g id="line2d_7">
      <path d="M 315.126367 246.195937 
L 315.126367 24.435937 
" clip-path="url(#pf4748f2ed0)" style="fill: none; stroke: #000000; stroke-opacity: 0.25; stroke-width: 0.5; stroke-linecap: square"/>
     </g>
     <g id="line2d_8">
      <g>
       <use xlink:href="#m0fa0ea8602" x="315.126367" y="246.195937" style="stroke: #000000; stroke-width: 0.8"/>
      </g>
     </g>
     <g id="text_4">
      <!-- 2 -->
      <g transform="translate(311.977148 260.686562) scale(0.1 -0.1)">
       <use xlink:href="#IPAexGothic-32"/>
      </g>
     </g>
    </g>
    <g id="xtick_5">
     <g id="line2d_9">
      <path d="M 390.642493 246.195937 
L 390.642493 24.435937 
" clip-path="url(#pf4748f2ed0)" style="fill: none; stroke: #000000; stroke-opacity: 0.25; stroke-width: 0.5; stroke-linecap: square"/>
     </g>
     <g id="line2d_10">
      <g>
       <use xlink:href="#m0fa0ea8602" x="390.642493" y="246.195937" style="stroke: #000000; stroke-width: 0.8"/>
      </g>
     </g>
     <g id="text_5">
      <!-- 4 -->
      <g transform="translate(387.493275 260.686562) scale(0.1 -0.1)">
       <use xlink:href="#IPAexGothic-34"/>
      </g>
     </g>
    </g>
    <g id="xtick_6">
     <g id="line2d_11">
      <path d="M 466.15862 246.195937 
L 466.15862 24.435937 
" clip-path="url(#pf4748f2ed0)" style="fill: none; stroke: #000000; stroke-opacity: 0.25; stroke-width: 0.5; stroke-linecap: square"/>
     </g>
     <g id="line2d_12">
      <g>
       <use xlink:href="#m0fa0ea8602" x="466.15862" y="246.195937" style="stroke: #000000; stroke-width: 0.8"/>
      </g>
     </g>
     <g id="text_6">
      <!-- 6 -->
      <g transform="translate(463.009401 260.686562) scale(0.1 -0.1)">
       <defs>
        <path id="IPAexGothic-36" d="M 1056 2328 
Q 1509 2981 2234 2981 
Q 2906 2981 3316 2513 
Q 3675 2106 3675 1522 
Q 3675 884 3272 434 
Q 2853 -31 2178 -31 
Q 1375 -31 922 581 
Q 481 1178 481 2228 
Q 481 3425 1013 4109 
Q 1494 4725 2272 4725 
Q 3191 4725 3609 4025 
L 3150 3775 
Q 2894 4266 2300 4266 
Q 1119 4266 1031 2328 
L 1056 2328 
z
M 2141 2547 
Q 1684 2547 1384 2206 
Q 1116 1900 1116 1541 
Q 1116 1156 1353 844 
Q 1672 428 2159 428 
Q 2669 428 2941 844 
Q 3125 1128 3125 1503 
Q 3125 1944 2881 2228 
Q 2600 2547 2141 2547 
z
" transform="scale(0.015625)"/>
       </defs>
       <use xlink:href="#IPAexGothic-36"/>
      </g>
     </g>
    </g>
    <g id="text_7">
     <!-- 射影後の特徴量 -->
     <g transform="translate(199.596875 277.373063) scale(0.144 -0.144)">
      <defs>
       <path id="IPAexGothic-5c04" d="M 2484 1472 
L 2466 1447 
Q 1713 597 672 -122 
L 353 219 
Q 1572 956 2291 1791 
L 2247 1778 
Q 1309 1559 494 1447 
L 372 1869 
Q 597 1884 853 1913 
L 853 4691 
L 1525 4691 
Q 1644 5069 1684 5325 
L 2156 5247 
Q 2056 4947 1934 4691 
L 2888 4691 
L 2888 2597 
Q 3009 2803 3150 3091 
L 3438 2809 
Q 3181 2372 2888 1963 
L 2888 31 
Q 2888 -266 2747 -372 
Q 2644 -453 2350 -453 
Q 2025 -453 1647 -403 
L 1563 50 
Q 1900 -25 2272 -25 
Q 2484 -25 2484 153 
L 2484 1472 
z
M 2484 2131 
L 2484 2597 
L 1250 2597 
L 1250 1956 
Q 1991 2047 2484 2131 
z
M 2484 2944 
L 2484 3463 
L 1250 3463 
L 1250 2944 
L 2484 2944 
z
M 2484 3816 
L 2484 4331 
L 1250 4331 
L 1250 3816 
L 2484 3816 
z
M 4950 3769 
L 4950 5150 
L 5391 5150 
L 5391 3769 
L 6081 3769 
L 6081 3341 
L 5416 3341 
L 5416 116 
Q 5416 -384 4897 -384 
Q 4494 -384 4034 -347 
L 3956 141 
Q 4409 63 4769 63 
Q 4975 63 4975 300 
L 4975 3341 
L 3259 3341 
L 3259 3769 
L 4950 3769 
z
M 4147 1141 
Q 3897 1956 3513 2675 
L 3909 2853 
Q 4259 2263 4569 1375 
L 4147 1141 
z
" transform="scale(0.015625)"/>
       <path id="IPAexGothic-5f71" d="M 3528 5044 
L 3528 3356 
L 2381 3356 
L 2381 2975 
L 4038 2975 
L 4038 2616 
L 322 2616 
L 322 2975 
L 1953 2975 
L 1953 3356 
L 797 3356 
L 797 5044 
L 3528 5044 
z
M 1213 4713 
L 1213 4372 
L 3113 4372 
L 3113 4713 
L 1213 4713 
z
M 1213 4047 
L 1213 3688 
L 3113 3688 
L 3113 4047 
L 1213 4047 
z
M 3484 2272 
L 3484 1100 
L 2409 1100 
L 2409 -38 
Q 2409 -447 1928 -447 
Q 1631 -447 1391 -391 
L 1331 25 
Q 1544 -38 1794 -38 
Q 1994 -38 1994 159 
L 1994 1100 
L 856 1100 
L 856 2272 
L 3484 2272 
z
M 1288 1919 
L 1288 1441 
L 3053 1441 
L 3053 1919 
L 1288 1919 
z
M 3259 -84 
Q 2969 456 2631 794 
L 2969 1006 
Q 3300 694 3644 184 
L 3259 -84 
z
M 3803 3653 
Q 4744 4128 5325 5034 
L 5722 4794 
Q 5056 3828 4091 3300 
L 3803 3653 
z
M 372 44 
Q 825 413 1122 916 
L 1491 716 
Q 1228 209 713 -269 
L 372 44 
z
M 3578 -78 
Q 4991 519 5747 1966 
L 6163 1747 
Q 5338 219 3913 -459 
L 3578 -78 
z
M 3809 1900 
Q 4941 2472 5525 3531 
L 5934 3303 
Q 5259 2194 4109 1544 
L 3809 1900 
z
" transform="scale(0.015625)"/>
       <path id="IPAexGothic-5f8c" d="M 3309 2475 
Q 3184 2469 2291 2425 
L 2125 2859 
Q 2625 2859 2822 2866 
L 3169 2878 
L 3488 3194 
Q 2891 3844 2375 4238 
L 2700 4563 
Q 2878 4409 3097 4191 
Q 3563 4781 3828 5297 
L 4263 5075 
Q 3853 4431 3366 3916 
Q 3538 3744 3769 3475 
Q 4366 4109 4756 4647 
L 5178 4391 
Q 4525 3594 3719 2891 
L 4519 2925 
Q 5022 2950 5197 2963 
Q 4978 3316 4741 3591 
L 5106 3794 
Q 5606 3197 5972 2516 
L 5569 2259 
Q 5494 2428 5381 2638 
Q 5363 2631 5309 2628 
Q 5259 2625 5234 2622 
Q 4741 2566 3806 2509 
Q 3728 2338 3550 2041 
L 5050 2041 
L 5319 1791 
Q 4978 1122 4441 631 
Q 5069 256 5984 25 
L 5663 -419 
Q 4734 -106 4109 338 
Q 3372 -225 2194 -531 
L 1900 -116 
Q 3009 66 3775 594 
Q 3331 969 3053 1356 
Q 2663 900 2259 625 
L 1959 941 
Q 2838 1559 3309 2475 
z
M 4109 863 
Q 4528 1244 4728 1656 
L 3322 1656 
Q 3613 1263 4109 863 
z
M 1588 2753 
L 1588 -447 
L 1147 -447 
L 1147 2209 
Q 869 1891 550 1613 
L 250 1947 
Q 1216 2806 1803 3938 
L 2206 3738 
Q 1906 3188 1588 2753 
z
M 294 3716 
Q 1213 4375 1663 5209 
L 2078 4997 
Q 1475 4016 588 3372 
L 294 3716 
z
" transform="scale(0.015625)"/>
       <path id="IPAexGothic-306e" d="M 3119 469 
Q 5275 766 5275 2425 
Q 5275 3453 4413 3925 
Q 4041 4116 3547 4159 
Q 3394 2525 2850 1400 
Q 2322 306 1722 306 
Q 1384 306 1084 666 
Q 609 1244 609 2003 
Q 609 3025 1397 3794 
Q 2184 4563 3431 4563 
Q 4306 4563 4928 4122 
Q 5813 3506 5813 2425 
Q 5813 438 3431 6 
L 3119 469 
z
M 3053 4147 
Q 2378 4044 1891 3641 
Q 1097 2981 1097 1991 
Q 1097 1366 1434 978 
Q 1581 813 1719 813 
Q 2022 813 2416 1625 
Q 2909 2638 3053 4147 
z
" transform="scale(0.015625)"/>
       <path id="IPAexGothic-7279" d="M 1025 3950 
L 1434 3950 
L 1434 5313 
L 1875 5313 
L 1875 3950 
L 2534 3950 
L 2534 3547 
L 1875 3547 
L 1875 2216 
Q 2084 2313 2494 2516 
L 2547 2106 
Q 2281 1963 1856 1750 
L 1856 -447 
L 1416 -447 
L 1416 1538 
Q 1028 1359 538 1153 
L 313 1581 
Q 778 1744 1434 2019 
L 1434 3547 
L 947 3547 
Q 828 3013 647 2556 
L 275 2803 
Q 584 3600 691 4744 
L 1131 4688 
Q 1091 4291 1025 3950 
z
M 3872 4372 
L 3872 5313 
L 4313 5313 
L 4313 4372 
L 5738 4372 
L 5738 3981 
L 4313 3981 
L 4313 3200 
L 6072 3200 
L 6072 2803 
L 5106 2803 
L 5106 2047 
L 5956 2047 
L 5956 1650 
L 5125 1650 
L 5125 38 
Q 5125 -447 4594 -447 
Q 4288 -447 3788 -391 
L 3691 78 
Q 4181 0 4491 0 
Q 4684 0 4684 172 
L 4684 1650 
L 2609 1650 
L 2609 2047 
L 4666 2047 
L 4666 2803 
L 2400 2803 
L 2400 3200 
L 3872 3200 
L 3872 3981 
L 2653 3981 
L 2653 4372 
L 3872 4372 
z
M 3550 384 
Q 3216 959 2834 1331 
L 3172 1575 
Q 3641 1116 3916 672 
L 3550 384 
z
" transform="scale(0.015625)"/>
       <path id="IPAexGothic-5fb4" d="M 5656 3775 
L 5656 3697 
Q 5597 2178 5228 1188 
Q 5678 478 6181 31 
L 5900 -419 
Q 5375 125 5016 741 
Q 4591 -3 3941 -500 
L 3616 -138 
Q 4372 331 4788 1163 
Q 4441 1838 4269 2759 
Q 4131 2388 3953 2078 
L 3697 2413 
L 3072 2413 
L 3072 1784 
L 3788 1784 
L 3788 1425 
L 3072 1425 
L 3072 747 
Q 3600 866 4063 1003 
L 4081 625 
Q 3147 297 1784 25 
L 1631 459 
Q 2194 553 2656 650 
L 2656 1425 
L 1856 1425 
L 1856 1784 
L 2656 1784 
L 2656 2413 
L 1663 2413 
L 1663 2784 
L 3838 2784 
Q 4222 3697 4422 5259 
L 4844 5197 
Q 4775 4688 4672 4178 
L 6059 4178 
L 6059 3775 
L 5656 3775 
z
M 5253 3775 
L 4575 3775 
Q 4516 3525 4497 3463 
L 4509 3391 
Q 4638 2475 4966 1700 
Q 5188 2516 5253 3775 
z
M 1372 2950 
L 1372 -447 
L 950 -447 
L 950 2328 
Q 728 2038 419 1716 
L 194 2088 
Q 944 2819 1453 3981 
L 1825 3803 
Q 1631 3384 1372 2950 
z
M 3088 3700 
L 3484 3700 
L 3484 4819 
L 3875 4819 
L 3875 3334 
L 1916 3334 
L 1916 4819 
L 2306 4819 
L 2306 3700 
L 2684 3700 
L 2684 5313 
L 3088 5313 
L 3088 3700 
z
M 256 3884 
Q 916 4419 1350 5203 
L 1716 5013 
Q 1300 4234 513 3547 
L 256 3884 
z
" transform="scale(0.015625)"/>
       <path id="IPAexGothic-91cf" d="M 5081 5159 
L 5081 3497 
L 1275 3497 
L 1275 5159 
L 5081 5159 
z
M 1716 4819 
L 1716 4475 
L 4647 4475 
L 4647 4819 
L 1716 4819 
z
M 1716 4175 
L 1716 3816 
L 4647 3816 
L 4647 4175 
L 1716 4175 
z
M 5238 2625 
L 5238 997 
L 3388 997 
L 3388 694 
L 5428 694 
L 5428 353 
L 3388 353 
L 3388 34 
L 6044 34 
L 6044 -331 
L 353 -331 
L 353 34 
L 2972 34 
L 2972 353 
L 969 353 
L 969 694 
L 2972 694 
L 2972 997 
L 1159 997 
L 1159 2625 
L 5238 2625 
z
M 1588 2325 
L 1588 1972 
L 2972 1972 
L 2972 2325 
L 1588 2325 
z
M 1588 1672 
L 1588 1303 
L 2972 1303 
L 2972 1672 
L 1588 1672 
z
M 4809 1303 
L 4809 1672 
L 3388 1672 
L 3388 1303 
L 4809 1303 
z
M 4809 1972 
L 4809 2325 
L 3388 2325 
L 3388 1972 
L 4809 1972 
z
M 384 3231 
L 6009 3231 
L 6009 2884 
L 384 2884 
L 384 3231 
z
" transform="scale(0.015625)"/>
      </defs>
      <use xlink:href="#IPAexGothic-5c04"/>
      <use xlink:href="#IPAexGothic-5f71" transform="translate(100 0)"/>
      <use xlink:href="#IPAexGothic-5f8c" transform="translate(200 0)"/>
      <use xlink:href="#IPAexGothic-306e" transform="translate(300 0)"/>
      <use xlink:href="#IPAexGothic-7279" transform="translate(400 0)"/>
      <use xlink:href="#IPAexGothic-5fb4" transform="translate(500 0)"/>
      <use xlink:href="#IPAexGothic-91cf" transform="translate(600 0)"/>
     </g>
    </g>
   </g>
   <g id="matplotlib.axis_2">
    <g id="ytick_1">
     <g id="line2d_13">
      <path d="M 26.796875 246.195937 
L 473.196875 246.195937 
" clip-path="url(#pf4748f2ed0)" style="fill: none; stroke: #000000; stroke-opacity: 0.25; stroke-width: 0.5; stroke-linecap: square"/>
     </g>
     <g id="line2d_14">
      <defs>
       <path id="m3dab08cb83" d="M 0 0 
L -3.5 0 
" style="stroke: #000000; stroke-width: 0.8"/>
      </defs>
      <g>
       <use xlink:href="#m3dab08cb83" x="26.796875" y="246.195937" style="stroke: #000000; stroke-width: 0.8"/>
      </g>
     </g>
     <g id="text_8">
      <!-- 0 -->
      <g transform="translate(13.498437 249.94125) scale(0.1 -0.1)">
       <use xlink:href="#IPAexGothic-30"/>
      </g>
     </g>
    </g>
    <g id="ytick_2">
     <g id="line2d_15">
      <path d="M 26.796875 218.035937 
L 473.196875 218.035937 
" clip-path="url(#pf4748f2ed0)" style="fill: none; stroke: #000000; stroke-opacity: 0.25; stroke-width: 0.5; stroke-linecap: square"/>
     </g>
     <g id="line2d_16">
      <g>
       <use xlink:href="#m3dab08cb83" x="26.796875" y="218.035937" style="stroke: #000000; stroke-width: 0.8"/>
      </g>
     </g>
     <g id="text_9">
      <!-- 2 -->
      <g transform="translate(13.498437 221.78125) scale(0.1 -0.1)">
       <use xlink:href="#IPAexGothic-32"/>
      </g>
     </g>
    </g>
    <g id="ytick_3">
     <g id="line2d_17">
      <path d="M 26.796875 189.875937 
L 473.196875 189.875937 
" clip-path="url(#pf4748f2ed0)" style="fill: none; stroke: #000000; stroke-opacity: 0.25; stroke-width: 0.5; stroke-linecap: square"/>
     </g>
     <g id="line2d_18">
      <g>
       <use xlink:href="#m3dab08cb83" x="26.796875" y="189.875937" style="stroke: #000000; stroke-width: 0.8"/>
      </g>
     </g>
     <g id="text_10">
      <!-- 4 -->
      <g transform="translate(13.498437 193.62125) scale(0.1 -0.1)">
       <use xlink:href="#IPAexGothic-34"/>
      </g>
     </g>
    </g>
    <g id="ytick_4">
     <g id="line2d_19">
      <path d="M 26.796875 161.715937 
L 473.196875 161.715937 
" clip-path="url(#pf4748f2ed0)" style="fill: none; stroke: #000000; stroke-opacity: 0.25; stroke-width: 0.5; stroke-linecap: square"/>
     </g>
     <g id="line2d_20">
      <g>
       <use xlink:href="#m3dab08cb83" x="26.796875" y="161.715937" style="stroke: #000000; stroke-width: 0.8"/>
      </g>
     </g>
     <g id="text_11">
      <!-- 6 -->
      <g transform="translate(13.498437 165.46125) scale(0.1 -0.1)">
       <use xlink:href="#IPAexGothic-36"/>
      </g>
     </g>
    </g>
    <g id="ytick_5">
     <g id="line2d_21">
      <path d="M 26.796875 133.555937 
L 473.196875 133.555937 
" clip-path="url(#pf4748f2ed0)" style="fill: none; stroke: #000000; stroke-opacity: 0.25; stroke-width: 0.5; stroke-linecap: square"/>
     </g>
     <g id="line2d_22">
      <g>
       <use xlink:href="#m3dab08cb83" x="26.796875" y="133.555937" style="stroke: #000000; stroke-width: 0.8"/>
      </g>
     </g>
     <g id="text_12">
      <!-- 8 -->
      <g transform="translate(13.498437 137.30125) scale(0.1 -0.1)">
       <defs>
        <path id="IPAexGothic-38" d="M 2541 2425 
Q 3700 2031 3700 1197 
Q 3700 541 3100 197 
Q 2663 -56 2016 -56 
Q 1366 -56 928 197 
Q 347 531 347 1178 
Q 347 1988 1409 2381 
L 1409 2400 
Q 481 2734 481 3509 
Q 481 4100 981 4456 
Q 1406 4756 2019 4756 
Q 2703 4756 3131 4403 
Q 3553 4069 3553 3566 
Q 3553 2706 2541 2444 
L 2541 2425 
z
M 2022 2625 
Q 2997 2856 2997 3528 
Q 2997 3916 2675 4150 
Q 2413 4347 2016 4347 
Q 1606 4347 1331 4128 
Q 1050 3897 1050 3522 
Q 1050 3150 1350 2925 
Q 1494 2809 1722 2722 
Q 1984 2616 2022 2625 
z
M 1978 2209 
Q 922 1931 922 1216 
Q 922 775 1313 556 
Q 1606 391 2009 391 
Q 2575 391 2881 697 
Q 3106 922 3106 1250 
Q 3106 1594 2794 1850 
Q 2609 1994 2350 2100 
Q 2047 2222 1978 2209 
z
" transform="scale(0.015625)"/>
       </defs>
       <use xlink:href="#IPAexGothic-38"/>
      </g>
     </g>
    </g>
    <g id="ytick_6">
     <g id="line2d_23">
      <path d="M 26.796875 105.395937 
L 473.196875 105.395937 
" clip-path="url(#pf4748f2ed0)" style="fill: none; stroke: #000000; stroke-opacity: 0.25; stroke-width: 0.5; stroke-linecap: square"/>
     </g>
     <g id="line2d_24">
      <g>
       <use xlink:href="#m3dab08cb83" x="26.796875" y="105.395937" style="stroke: #000000; stroke-width: 0.8"/>
      </g>
     </g>
     <g id="text_13">
      <!-- 10 -->
      <g transform="translate(7.2 109.14125) scale(0.1 -0.1)">
       <defs>
        <path id="IPAexGothic-31" d="M 2463 63 
L 1900 63 
L 1900 4103 
Q 1372 3922 788 3797 
L 684 4231 
Q 1519 4441 2106 4731 
L 2463 4731 
L 2463 63 
z
" transform="scale(0.015625)"/>
       </defs>
       <use xlink:href="#IPAexGothic-31"/>
       <use xlink:href="#IPAexGothic-30" transform="translate(62.988281 0)"/>
      </g>
     </g>
    </g>
    <g id="ytick_7">
     <g id="line2d_25">
      <path d="M 26.796875 77.235937 
L 473.196875 77.235937 
" clip-path="url(#pf4748f2ed0)" style="fill: none; stroke: #000000; stroke-opacity: 0.25; stroke-width: 0.5; stroke-linecap: square"/>
     </g>
     <g id="line2d_26">
      <g>
       <use xlink:href="#m3dab08cb83" x="26.796875" y="77.235937" style="stroke: #000000; stroke-width: 0.8"/>
      </g>
     </g>
     <g id="text_14">
      <!-- 12 -->
      <g transform="translate(7.2 80.98125) scale(0.1 -0.1)">
       <use xlink:href="#IPAexGothic-31"/>
       <use xlink:href="#IPAexGothic-32" transform="translate(62.988281 0)"/>
      </g>
     </g>
    </g>
    <g id="ytick_8">
     <g id="line2d_27">
      <path d="M 26.796875 49.075937 
L 473.196875 49.075937 
" clip-path="url(#pf4748f2ed0)" style="fill: none; stroke: #000000; stroke-opacity: 0.25; stroke-width: 0.5; stroke-linecap: square"/>
     </g>
     <g id="line2d_28">
      <g>
       <use xlink:href="#m3dab08cb83" x="26.796875" y="49.075937" style="stroke: #000000; stroke-width: 0.8"/>
      </g>
     </g>
     <g id="text_15">
      <!-- 14 -->
      <g transform="translate(7.2 52.82125) scale(0.1 -0.1)">
       <use xlink:href="#IPAexGothic-31"/>
       <use xlink:href="#IPAexGothic-34" transform="translate(62.988281 0)"/>
      </g>
     </g>
    </g>
   </g>
   <g id="text_16">
    <!-- LDA による 1 次元への射影結果 -->
    <g transform="translate(142.298047 18.435937) scale(0.15 -0.15)">
     <defs>
      <path id="IPAexGothic-4c" d="M 3347 63 
L 609 63 
L 609 4634 
L 1178 4634 
L 1178 563 
L 3347 563 
L 3347 63 
z
" transform="scale(0.015625)"/>
      <path id="IPAexGothic-44" d="M 609 4634 
L 1984 4634 
Q 3159 4634 3791 4050 
Q 4456 3444 4456 2356 
Q 4456 1047 3516 441 
Q 2925 63 1941 63 
L 609 63 
L 609 4634 
z
M 1172 556 
L 1894 556 
Q 3853 556 3853 2356 
Q 3853 4147 1928 4147 
L 1172 4147 
L 1172 556 
z
" transform="scale(0.015625)"/>
      <path id="IPAexGothic-41" d="M 4056 63 
L 3444 63 
L 2938 1409 
L 1100 1409 
L 603 63 
L -6 63 
L 1806 4666 
L 2259 4666 
L 4056 63 
z
M 2778 1863 
L 2316 3078 
Q 2125 3588 2028 4000 
L 2009 4000 
Q 1897 3563 1716 3078 
L 1263 1863 
L 2778 1863 
z
" transform="scale(0.015625)"/>
      <path id="IPAexGothic-20" transform="scale(0.015625)"/>
      <path id="IPAexGothic-306b" d="M 1088 -38 
Q 922 1003 922 2081 
Q 922 3222 1331 4794 
L 1813 4684 
Q 1391 3113 1391 2003 
Q 1391 1441 1422 1147 
Q 1434 1181 1813 2016 
L 2125 1797 
Q 1800 1081 1691 763 
Q 1581 453 1581 269 
Q 1581 78 1588 6 
L 1088 -38 
z
M 2834 4038 
Q 3969 4213 5313 4172 
L 5338 3681 
Q 3959 3728 2869 3547 
L 2834 4038 
z
M 5650 256 
Q 5044 172 4372 172 
Q 3463 172 3047 434 
Q 2784 594 2675 841 
Q 2572 1075 2572 1447 
Q 2572 1563 2578 1656 
L 3053 1684 
Q 3050 1613 3044 1528 
Q 3041 1481 3041 1466 
Q 3041 1200 3119 1053 
Q 3178 944 3309 850 
Q 3569 678 4275 678 
Q 4891 678 5588 763 
L 5650 256 
z
" transform="scale(0.015625)"/>
      <path id="IPAexGothic-3088" d="M 2784 5019 
L 3272 5019 
Q 3247 4378 3272 3647 
Q 4184 3719 4850 3903 
L 4997 3431 
Q 4369 3291 3272 3200 
Q 3288 2366 3378 1550 
Q 4134 1353 5344 647 
L 5031 213 
Q 4244 759 3406 1044 
L 3413 891 
Q 3434 359 3122 84 
Q 2863 -141 2272 -141 
Q 1641 -141 1272 116 
Q 934 350 934 738 
Q 934 1294 1500 1534 
Q 1841 1678 2278 1678 
Q 2581 1678 2906 1631 
Q 2813 2559 2784 5019 
z
M 2931 1178 
Q 2613 1244 2369 1244 
Q 1422 1244 1422 794 
Q 1422 300 2278 300 
Q 2956 300 2938 934 
L 2931 1178 
z
" transform="scale(0.015625)"/>
      <path id="IPAexGothic-308b" d="M 4391 4397 
L 2613 2588 
Q 3225 2809 3759 2809 
Q 4263 2809 4659 2625 
Q 5391 2269 5391 1484 
Q 5391 756 4706 275 
Q 4072 -166 3053 -166 
Q 2559 -166 2247 19 
Q 1863 250 1863 666 
Q 1863 934 2069 1141 
Q 2331 1403 2741 1403 
Q 3509 1403 4019 428 
Q 4872 784 4872 1491 
Q 4872 1981 4469 2222 
Q 4166 2406 3681 2406 
Q 2425 2406 1238 1209 
L 891 1581 
Q 2438 2934 3578 4281 
Q 2594 4125 1588 4066 
L 1478 4550 
Q 2594 4581 4109 4763 
L 4391 4397 
z
M 3591 303 
Q 3244 1025 2731 1025 
Q 2553 1025 2434 934 
Q 2316 844 2316 700 
Q 2316 250 3034 250 
Q 3275 250 3591 303 
z
" transform="scale(0.015625)"/>
      <path id="IPAexGothic-6b21" d="M 3519 3750 
L 2950 3750 
Q 2678 3041 2231 2444 
L 1853 2772 
Q 2600 3756 2878 5184 
L 3353 5094 
Q 3241 4603 3103 4166 
L 5541 4166 
L 5841 3928 
Q 5406 2903 4906 2222 
L 4484 2481 
Q 4963 3072 5247 3750 
L 3994 3750 
L 3994 3263 
Q 3994 1384 6028 91 
L 5681 -353 
Q 4166 622 3794 2194 
Q 3669 1413 3391 922 
Q 2903 72 1931 -488 
L 1613 -72 
Q 3519 888 3519 3359 
L 3519 3750 
z
M 1438 3200 
Q 959 3884 509 4294 
L 881 4628 
Q 1413 4153 1841 3597 
L 1438 3200 
z
M 325 250 
Q 984 938 1600 2003 
L 1950 1656 
Q 1319 538 697 -184 
L 325 250 
z
" transform="scale(0.015625)"/>
      <path id="IPAexGothic-5143" d="M 4128 2650 
L 4128 422 
Q 4128 253 4219 206 
Q 4331 147 4703 147 
Q 5163 147 5288 191 
Q 5450 250 5478 481 
Q 5516 731 5550 1269 
L 6022 1106 
Q 5994 188 5838 -56 
Q 5666 -313 4653 -313 
Q 3978 -313 3800 -172 
Q 3647 -66 3647 213 
L 3647 2650 
L 2634 2650 
L 2634 2547 
Q 2634 1225 2303 672 
Q 1872 -53 747 -447 
L 409 -31 
Q 1484 244 1863 884 
Q 2156 1378 2156 2547 
L 2156 2650 
L 447 2650 
L 447 3091 
L 5953 3091 
L 5953 2650 
L 4128 2650 
z
M 1088 4850 
L 5306 4850 
L 5306 4409 
L 1088 4409 
L 1088 4850 
z
" transform="scale(0.015625)"/>
      <path id="IPAexGothic-3078" d="M 416 2022 
Q 1325 2681 2194 3653 
Q 2394 3872 2578 3872 
Q 2766 3872 3022 3616 
Q 4488 2147 5991 1419 
L 5631 947 
Q 4106 1847 2872 3069 
Q 2675 3269 2572 3269 
Q 2478 3269 2297 3056 
Q 1503 2166 734 1559 
L 416 2022 
z
" transform="scale(0.015625)"/>
      <path id="IPAexGothic-7d50" d="M 1241 3084 
Q 794 3713 378 4128 
L 666 4422 
Q 828 4259 916 4153 
Q 1300 4750 1541 5331 
L 1956 5119 
Q 1547 4363 1150 3859 
Q 1228 3759 1466 3425 
Q 1844 4016 2138 4550 
L 2522 4313 
Q 1853 3213 1313 2572 
Q 1647 2581 2253 2631 
Q 2134 2909 2009 3156 
L 2353 3303 
Q 2656 2775 2878 2106 
L 2494 1925 
Q 2469 2022 2425 2156 
Q 2384 2284 2372 2322 
Q 2334 2319 2222 2300 
Q 1966 2259 1778 2234 
L 1778 -447 
L 1363 -447 
L 1363 2181 
L 1291 2175 
Q 1000 2144 428 2106 
L 281 2534 
Q 672 2547 863 2553 
Q 909 2613 972 2700 
Q 1059 2816 1241 3084 
z
M 4134 4325 
L 4134 5309 
L 4563 5309 
L 4563 4325 
L 6113 4325 
L 6113 3934 
L 4563 3934 
L 4563 3034 
L 5906 3034 
L 5906 2650 
L 2859 2650 
L 2859 3034 
L 4134 3034 
L 4134 3934 
L 2719 3934 
L 2719 4325 
L 4134 4325 
z
M 5631 1997 
L 5631 -450 
L 5203 -450 
L 5203 -103 
L 3550 -103 
L 3550 -450 
L 3122 -450 
L 3122 1997 
L 5631 1997 
z
M 3550 1613 
L 3550 281 
L 5203 281 
L 5203 1613 
L 3550 1613 
z
M 353 197 
Q 581 863 647 1759 
L 1056 1709 
Q 988 709 769 -13 
L 353 197 
z
M 2334 313 
Q 2206 1147 1997 1759 
L 2363 1869 
Q 2609 1253 2766 488 
L 2334 313 
z
" transform="scale(0.015625)"/>
      <path id="IPAexGothic-679c" d="M 3809 1666 
Q 4656 800 6088 297 
L 5784 -131 
Q 4256 494 3406 1563 
L 3406 -447 
L 2947 -447 
L 2947 1519 
Q 2203 425 647 -281 
L 334 109 
Q 1769 697 2575 1666 
L 378 1666 
L 378 2075 
L 2947 2075 
L 2947 2625 
L 1109 2625 
L 1109 5013 
L 5288 5013 
L 5288 2625 
L 3406 2625 
L 3406 2075 
L 6016 2075 
L 6016 1666 
L 3809 1666 
z
M 1556 4628 
L 1556 3994 
L 2959 3994 
L 2959 4628 
L 1556 4628 
z
M 1556 3628 
L 1556 3009 
L 2959 3009 
L 2959 3628 
L 1556 3628 
z
M 4834 3009 
L 4834 3628 
L 3394 3628 
L 3394 3009 
L 4834 3009 
z
M 4834 3994 
L 4834 4628 
L 3394 4628 
L 3394 3994 
L 4834 3994 
z
" transform="scale(0.015625)"/>
     </defs>
     <use xlink:href="#IPAexGothic-4c"/>
     <use xlink:href="#IPAexGothic-44" transform="translate(52.587891 0)"/>
     <use xlink:href="#IPAexGothic-41" transform="translate(128.271484 0)"/>
     <use xlink:href="#IPAexGothic-20" transform="translate(191.992188 0)"/>
     <use xlink:href="#IPAexGothic-306b" transform="translate(218.994141 0)"/>
     <use xlink:href="#IPAexGothic-3088" transform="translate(318.994141 0)"/>
     <use xlink:href="#IPAexGothic-308b" transform="translate(418.994141 0)"/>
     <use xlink:href="#IPAexGothic-20" transform="translate(518.994141 0)"/>
     <use xlink:href="#IPAexGothic-31" transform="translate(545.996094 0)"/>
     <use xlink:href="#IPAexGothic-20" transform="translate(608.984375 0)"/>
     <use xlink:href="#IPAexGothic-6b21" transform="translate(635.986328 0)"/>
     <use xlink:href="#IPAexGothic-5143" transform="translate(735.986328 0)"/>
     <use xlink:href="#IPAexGothic-3078" transform="translate(835.986328 0)"/>
     <use xlink:href="#IPAexGothic-306e" transform="translate(935.986328 0)"/>
     <use xlink:href="#IPAexGothic-5c04" transform="translate(1035.986328 0)"/>
     <use xlink:href="#IPAexGothic-5f71" transform="translate(1135.986328 0)"/>
     <use xlink:href="#IPAexGothic-7d50" transform="translate(1235.986328 0)"/>
     <use xlink:href="#IPAexGothic-679c" transform="translate(1335.986328 0)"/>
    </g>
   </g>
   <g id="legend_1">
    <g id="patch_43">
     <path d="M 207.397813 79.373437 
L 292.595938 79.373437 
Q 294.995938 79.373437 294.995938 76.973437 
L 294.995938 38.835937 
Q 294.995938 36.435937 292.595938 36.435937 
L 207.397813 36.435937 
Q 204.997813 36.435937 204.997813 38.835937 
L 204.997813 76.973437 
Q 204.997813 79.373437 207.397813 79.373437 
z
" style="fill: #ffffff; opacity: 0.8; stroke: #cccccc; stroke-linejoin: miter"/>
    </g>
    <g id="patch_44">
     <path d="M 209.797813 50.224687 
L 233.797813 50.224687 
L 233.797813 41.824687 
L 209.797813 41.824687 
z
" style="fill: #264653; opacity: 0.7"/>
    </g>
    <g id="text_17">
     <!-- クラス 0 -->
     <g transform="translate(243.397813 50.224687) scale(0.12 -0.12)">
      <defs>
       <path id="IPAexGothic-30af" d="M 4934 4191 
L 5272 3941 
Q 4894 2334 4031 1300 
Q 3275 391 2028 -225 
L 1656 184 
Q 2875 691 3641 1625 
Q 4403 2553 4691 3731 
L 2903 3731 
Q 2188 2653 1356 1959 
L 978 2309 
Q 2328 3400 2931 5022 
L 3422 4881 
Q 3363 4672 3141 4191 
L 4934 4191 
z
" transform="scale(0.015625)"/>
       <path id="IPAexGothic-30e9" d="M 1447 4709 
L 4922 4709 
L 4922 4234 
L 1447 4234 
L 1447 4709 
z
M 897 3303 
L 5172 3303 
L 5478 3013 
Q 5069 1669 4219 875 
Q 3475 181 2306 -181 
L 1972 294 
Q 4150 784 4834 2828 
L 897 2828 
L 897 3303 
z
" transform="scale(0.015625)"/>
       <path id="IPAexGothic-30b9" d="M 4359 4481 
L 4716 4147 
Q 4328 3072 3647 2150 
Q 4659 1434 5659 453 
L 5234 19 
Q 4256 1088 3353 1778 
Q 2372 597 1044 -31 
L 653 403 
Q 3128 1453 4097 4000 
L 1241 3963 
L 1228 4453 
L 4359 4481 
z
" transform="scale(0.015625)"/>
      </defs>
      <use xlink:href="#IPAexGothic-30af"/>
      <use xlink:href="#IPAexGothic-30e9" transform="translate(100 0)"/>
      <use xlink:href="#IPAexGothic-30b9" transform="translate(200 0)"/>
      <use xlink:href="#IPAexGothic-20" transform="translate(300 0)"/>
      <use xlink:href="#IPAexGothic-30" transform="translate(327.001953 0)"/>
     </g>
    </g>
    <g id="patch_45">
     <path d="M 209.797813 72.293437 
L 233.797813 72.293437 
L 233.797813 63.893437 
L 209.797813 63.893437 
z
" style="fill: #2a9d8f; opacity: 0.7"/>
    </g>
    <g id="text_18">
     <!-- クラス 1 -->
     <g transform="translate(243.397813 72.293437) scale(0.12 -0.12)">
      <use xlink:href="#IPAexGothic-30af"/>
      <use xlink:href="#IPAexGothic-30e9" transform="translate(100 0)"/>
      <use xlink:href="#IPAexGothic-30b9" transform="translate(200 0)"/>
      <use xlink:href="#IPAexGothic-20" transform="translate(300 0)"/>
      <use xlink:href="#IPAexGothic-31" transform="translate(327.001953 0)"/>
     </g>
    </g>
   </g>
  </g>
 </g>
 <defs>
  <clipPath id="pf4748f2ed0">
   <rect x="26.796875" y="24.435937" width="446.4" height="221.76"/>
  </clipPath>
 </defs>
</svg>
