<?xml version="1.0" encoding="utf-8" standalone="no"?>
<!DOCTYPE svg PUBLIC "-//W3C//DTD SVG 1.1//EN"
  "http://www.w3.org/Graphics/SVG/1.1/DTD/svg11.dtd">
<svg xmlns:xlink="http://www.w3.org/1999/xlink" width="271.5375pt" height="494.689531pt" viewBox="0 0 271.5375 494.689531" xmlns="http://www.w3.org/2000/svg" version="1.1">
 <metadata>
  <rdf:RDF xmlns:dc="http://purl.org/dc/elements/1.1/" xmlns:cc="http://creativecommons.org/ns#" xmlns:rdf="http://www.w3.org/1999/02/22-rdf-syntax-ns#">
   <cc:Work>
    <dc:type rdf:resource="http://purl.org/dc/dcmitype/StillImage"/>
    <dc:date>2025-10-30T20:25:29.639659</dc:date>
    <dc:format>image/svg+xml</dc:format>
    <dc:creator>
     <cc:Agent>
      <dc:title>Matplotlib v3.10.7, https://matplotlib.org/</dc:title>
     </cc:Agent>
    </dc:creator>
   </cc:Work>
  </rdf:RDF>
 </metadata>
 <defs>
  <style type="text/css">*{stroke-linejoin: round; stroke-linecap: butt}</style>
 </defs>
 <g id="figure_1">
  <g id="patch_1">
   <path d="M 0 494.689531 
L 271.5375 494.689531 
L 271.5375 0 
L 0 0 
z
" style="fill: #ffffff"/>
  </g>
  <g id="axes_1">
   <g id="patch_2">
    <path d="M 41.1375 454.567656 
L 264.3375 454.567656 
L 264.3375 11.047656 
L 41.1375 11.047656 
z
" style="fill: #ffffff"/>
   </g>
   <g id="matplotlib.axis_1">
    <g id="xtick_1">
     <g id="line2d_1">
      <path d="M 49.231295 454.567656 
L 49.231295 11.047656 
" clip-path="url(#pcdab1f57b4)" style="fill: none; stroke: #000000; stroke-opacity: 0.5; stroke-width: 0.5; stroke-linecap: square"/>
     </g>
     <g id="line2d_2">
      <defs>
       <path id="m4265314154" d="M 0 0 
L 0 3.5 
" style="stroke: #000000; stroke-width: 0.8"/>
      </defs>
      <g>
       <use xlink:href="#m4265314154" x="49.231295" y="454.567656" style="stroke: #000000; stroke-width: 0.8"/>
      </g>
     </g>
     <g id="text_1">
      <!-- 0.0 -->
      <g transform="translate(41.731295 469.262969) scale(0.1 -0.1)">
       <defs>
        <path id="MS-Gothic-30" d="M 200 2500 
Q 200 3975 800 4575 
Q 1150 4925 1575 4925 
Q 2000 4925 2350 4575 
Q 2950 3975 2950 2500 
Q 2950 1000 2350 400 
Q 2000 50 1575 50 
Q 1150 50 800 400 
Q 200 1000 200 2500 
z
M 2375 2500 
Q 2375 3825 1900 4300 
Q 1750 4450 1575 4450 
Q 1400 4450 1250 4300 
Q 775 3800 775 2500 
Q 775 1150 1250 675 
Q 1400 525 1575 525 
Q 1750 525 1900 675 
Q 2375 1150 2375 2500 
z
" transform="scale(0.015625)"/>
        <path id="MS-Gothic-2e" d="M 1100 600 
L 1100 50 
L 525 50 
L 525 600 
L 1100 600 
z
" transform="scale(0.015625)"/>
       </defs>
       <use xlink:href="#MS-Gothic-30"/>
       <use xlink:href="#MS-Gothic-2e" transform="translate(50 0)"/>
       <use xlink:href="#MS-Gothic-30" transform="translate(100 0)"/>
      </g>
     </g>
    </g>
    <g id="xtick_2">
     <g id="line2d_3">
      <path d="M 90.264479 454.567656 
L 90.264479 11.047656 
" clip-path="url(#pcdab1f57b4)" style="fill: none; stroke: #000000; stroke-opacity: 0.5; stroke-width: 0.5; stroke-linecap: square"/>
     </g>
     <g id="line2d_4">
      <g>
       <use xlink:href="#m4265314154" x="90.264479" y="454.567656" style="stroke: #000000; stroke-width: 0.8"/>
      </g>
     </g>
     <g id="text_2">
      <!-- 0.2 -->
      <g transform="translate(82.764479 469.262969) scale(0.1 -0.1)">
       <defs>
        <path id="MS-Gothic-32" d="M 2850 525 
L 2850 50 
L 300 50 
L 300 450 
Q 875 1525 1725 2500 
Q 2200 3050 2200 3650 
Q 2200 4075 1975 4300 
Q 1825 4450 1575 4450 
Q 1375 4450 1175 4250 
Q 950 4025 950 3325 
L 400 3325 
Q 425 4225 825 4625 
Q 1125 4925 1625 4925 
Q 2100 4925 2425 4600 
Q 2775 4250 2775 3625 
Q 2775 2900 2100 2125 
Q 1375 1300 900 525 
L 2850 525 
z
" transform="scale(0.015625)"/>
       </defs>
       <use xlink:href="#MS-Gothic-30"/>
       <use xlink:href="#MS-Gothic-2e" transform="translate(50 0)"/>
       <use xlink:href="#MS-Gothic-32" transform="translate(100 0)"/>
      </g>
     </g>
    </g>
    <g id="xtick_3">
     <g id="line2d_5">
      <path d="M 131.297662 454.567656 
L 131.297662 11.047656 
" clip-path="url(#pcdab1f57b4)" style="fill: none; stroke: #000000; stroke-opacity: 0.5; stroke-width: 0.5; stroke-linecap: square"/>
     </g>
     <g id="line2d_6">
      <g>
       <use xlink:href="#m4265314154" x="131.297662" y="454.567656" style="stroke: #000000; stroke-width: 0.8"/>
      </g>
     </g>
     <g id="text_3">
      <!-- 0.4 -->
      <g transform="translate(123.797662 469.262969) scale(0.1 -0.1)">
       <defs>
        <path id="MS-Gothic-34" d="M 1875 50 
L 1875 625 
L 1875 1200 
L 200 1200 
L 200 1675 
L 1875 4925 
L 2450 4925 
L 2450 1675 
L 2975 1675 
L 2975 1200 
L 2450 1200 
L 2450 50 
L 1875 50 
z
M 1875 1675 
L 1875 3875 
L 750 1675 
L 1875 1675 
z
" transform="scale(0.015625)"/>
       </defs>
       <use xlink:href="#MS-Gothic-30"/>
       <use xlink:href="#MS-Gothic-2e" transform="translate(50 0)"/>
       <use xlink:href="#MS-Gothic-34" transform="translate(100 0)"/>
      </g>
     </g>
    </g>
    <g id="xtick_4">
     <g id="line2d_7">
      <path d="M 172.330845 454.567656 
L 172.330845 11.047656 
" clip-path="url(#pcdab1f57b4)" style="fill: none; stroke: #000000; stroke-opacity: 0.5; stroke-width: 0.5; stroke-linecap: square"/>
     </g>
     <g id="line2d_8">
      <g>
       <use xlink:href="#m4265314154" x="172.330845" y="454.567656" style="stroke: #000000; stroke-width: 0.8"/>
      </g>
     </g>
     <g id="text_4">
      <!-- 0.6 -->
      <g transform="translate(164.830845 469.262969) scale(0.1 -0.1)">
       <defs>
        <path id="MS-Gothic-36" d="M 2225 3800 
Q 2225 4175 2050 4350 
Q 1950 4450 1800 4450 
Q 1600 4450 1450 4300 
Q 1025 3875 925 2625 
Q 1275 3200 1775 3200 
Q 2150 3200 2450 2900 
Q 2850 2500 2850 1675 
Q 2850 775 2425 350 
Q 2125 50 1650 50 
Q 1225 50 875 400 
Q 350 925 350 2425 
Q 350 3900 1075 4625 
Q 1375 4925 1825 4925 
Q 2200 4925 2425 4700 
Q 2775 4350 2800 3800 
L 2225 3800 
z
M 1675 2750 
Q 1450 2750 1275 2575 
Q 975 2275 975 1775 
Q 975 1000 1325 650 
Q 1475 500 1675 500 
Q 1875 500 2050 675 
Q 2275 900 2275 1675 
Q 2275 2350 2025 2600 
Q 1875 2750 1675 2750 
z
" transform="scale(0.015625)"/>
       </defs>
       <use xlink:href="#MS-Gothic-30"/>
       <use xlink:href="#MS-Gothic-2e" transform="translate(50 0)"/>
       <use xlink:href="#MS-Gothic-36" transform="translate(100 0)"/>
      </g>
     </g>
    </g>
    <g id="xtick_5">
     <g id="line2d_9">
      <path d="M 213.364028 454.567656 
L 213.364028 11.047656 
" clip-path="url(#pcdab1f57b4)" style="fill: none; stroke: #000000; stroke-opacity: 0.5; stroke-width: 0.5; stroke-linecap: square"/>
     </g>
     <g id="line2d_10">
      <g>
       <use xlink:href="#m4265314154" x="213.364028" y="454.567656" style="stroke: #000000; stroke-width: 0.8"/>
      </g>
     </g>
     <g id="text_5">
      <!-- 0.8 -->
      <g transform="translate(205.864028 469.262969) scale(0.1 -0.1)">
       <defs>
        <path id="MS-Gothic-38" d="M 1575 2325 
Q 1300 2325 1100 2125 
Q 850 1875 850 1450 
Q 850 950 1100 700 
Q 1300 500 1575 500 
Q 1850 500 2050 700 
Q 2300 950 2300 1450 
Q 2300 1875 2050 2125 
Q 1850 2325 1575 2325 
z
M 2075 2550 
Q 2300 2475 2475 2300 
Q 2875 1900 2875 1450 
Q 2875 775 2475 375 
Q 2150 50 1575 50 
Q 1000 50 675 375 
Q 275 775 275 1450 
Q 275 1900 675 2300 
Q 850 2475 1075 2550 
Q 875 2625 750 2750 
Q 400 3100 400 3575 
L 400 3600 
Q 400 4225 775 4600 
Q 1100 4925 1575 4925 
Q 2050 4925 2375 4600 
Q 2750 4225 2750 3600 
L 2750 3575 
Q 2750 3100 2400 2750 
Q 2275 2625 2075 2550 
z
M 1575 4475 
Q 1325 4475 1150 4300 
Q 950 4100 950 3600 
L 950 3575 
Q 950 3125 1150 2925 
Q 1325 2750 1575 2750 
Q 1825 2750 2000 2925 
Q 2200 3125 2200 3575 
L 2200 3600 
Q 2200 4100 2000 4300 
Q 1825 4475 1575 4475 
z
" transform="scale(0.015625)"/>
       </defs>
       <use xlink:href="#MS-Gothic-30"/>
       <use xlink:href="#MS-Gothic-2e" transform="translate(50 0)"/>
       <use xlink:href="#MS-Gothic-38" transform="translate(100 0)"/>
      </g>
     </g>
    </g>
    <g id="xtick_6">
     <g id="line2d_11">
      <path d="M 254.397211 454.567656 
L 254.397211 11.047656 
" clip-path="url(#pcdab1f57b4)" style="fill: none; stroke: #000000; stroke-opacity: 0.5; stroke-width: 0.5; stroke-linecap: square"/>
     </g>
     <g id="line2d_12">
      <g>
       <use xlink:href="#m4265314154" x="254.397211" y="454.567656" style="stroke: #000000; stroke-width: 0.8"/>
      </g>
     </g>
     <g id="text_6">
      <!-- 1.0 -->
      <g transform="translate(246.897211 469.262969) scale(0.1 -0.1)">
       <defs>
        <path id="MS-Gothic-31" d="M 1375 50 
L 1375 2000 
L 1375 3925 
L 625 3925 
L 625 4225 
Q 1500 4225 1650 4925 
L 1950 4925 
L 1950 50 
L 1375 50 
z
" transform="scale(0.015625)"/>
       </defs>
       <use xlink:href="#MS-Gothic-31"/>
       <use xlink:href="#MS-Gothic-2e" transform="translate(50 0)"/>
       <use xlink:href="#MS-Gothic-30" transform="translate(100 0)"/>
      </g>
     </g>
    </g>
    <g id="text_7">
     <!-- p -->
     <g transform="translate(149.1375 485.633281) scale(0.144 -0.144)">
      <defs>
       <path id="MS-Gothic-70" d="M 825 2925 
Q 1175 3475 1725 3475 
Q 2150 3475 2450 3175 
Q 2900 2725 2900 1750 
Q 2900 850 2450 400 
Q 2100 50 1700 50 
Q 1125 50 825 550 
L 825 -825 
L 325 -825 
L 325 3475 
L 825 3475 
L 825 2925 
z
M 1650 3050 
Q 1400 3050 1125 2775 
Q 825 2475 825 1750 
Q 825 1050 1175 700 
Q 1375 500 1625 500 
Q 1875 500 2075 700 
Q 2350 975 2350 1775 
Q 2350 2575 2075 2850 
Q 1875 3050 1650 3050 
z
" transform="scale(0.015625)"/>
      </defs>
      <use xlink:href="#MS-Gothic-70"/>
     </g>
    </g>
   </g>
   <g id="matplotlib.axis_2">
    <g id="ytick_1">
     <g id="line2d_13">
      <path d="M 41.1375 454.567656 
L 264.3375 454.567656 
" clip-path="url(#pcdab1f57b4)" style="fill: none; stroke: #000000; stroke-opacity: 0.5; stroke-width: 0.5; stroke-linecap: square"/>
     </g>
     <g id="line2d_14">
      <defs>
       <path id="me96e576001" d="M 0 0 
L -3.5 0 
" style="stroke: #000000; stroke-width: 0.8"/>
      </defs>
      <g>
       <use xlink:href="#me96e576001" x="41.1375" y="454.567656" style="stroke: #000000; stroke-width: 0.8"/>
      </g>
     </g>
     <g id="text_8">
      <!-- -3 -->
      <g transform="translate(24.1375 458.415312) scale(0.1 -0.1)">
       <defs>
        <path id="MS-Gothic-2d" d="M 3000 2500 
L 3000 2100 
L 150 2100 
L 150 2500 
L 3000 2500 
z
" transform="scale(0.015625)"/>
        <path id="MS-Gothic-33" d="M 850 1500 
Q 825 950 1075 700 
Q 1250 525 1550 525 
Q 1800 525 2025 750 
Q 2250 975 2250 1500 
Q 2250 1900 1975 2175 
Q 1775 2375 1375 2350 
L 1375 2775 
Q 1775 2800 1975 3000 
Q 2175 3200 2175 3600 
Q 2175 4100 1950 4325 
Q 1800 4475 1575 4475 
Q 1350 4475 1200 4325 
Q 950 4075 925 3575 
L 375 3575 
Q 400 4225 800 4625 
Q 1100 4925 1575 4925 
Q 2075 4925 2375 4625 
Q 2725 4275 2725 3700 
Q 2725 3175 2450 2900 
Q 2200 2650 1975 2575 
Q 2300 2475 2475 2300 
Q 2825 1950 2825 1450 
Q 2825 800 2425 400 
Q 2075 50 1550 50 
Q 975 50 650 375 
Q 275 750 275 1500 
L 850 1500 
z
" transform="scale(0.015625)"/>
       </defs>
       <use xlink:href="#MS-Gothic-2d"/>
       <use xlink:href="#MS-Gothic-33" transform="translate(50 0)"/>
      </g>
     </g>
    </g>
    <g id="ytick_2">
     <g id="line2d_15">
      <path d="M 41.1375 380.647656 
L 264.3375 380.647656 
" clip-path="url(#pcdab1f57b4)" style="fill: none; stroke: #000000; stroke-opacity: 0.5; stroke-width: 0.5; stroke-linecap: square"/>
     </g>
     <g id="line2d_16">
      <g>
       <use xlink:href="#me96e576001" x="41.1375" y="380.647656" style="stroke: #000000; stroke-width: 0.8"/>
      </g>
     </g>
     <g id="text_9">
      <!-- -2 -->
      <g transform="translate(24.1375 384.495312) scale(0.1 -0.1)">
       <use xlink:href="#MS-Gothic-2d"/>
       <use xlink:href="#MS-Gothic-32" transform="translate(50 0)"/>
      </g>
     </g>
    </g>
    <g id="ytick_3">
     <g id="line2d_17">
      <path d="M 41.1375 306.727656 
L 264.3375 306.727656 
" clip-path="url(#pcdab1f57b4)" style="fill: none; stroke: #000000; stroke-opacity: 0.5; stroke-width: 0.5; stroke-linecap: square"/>
     </g>
     <g id="line2d_18">
      <g>
       <use xlink:href="#me96e576001" x="41.1375" y="306.727656" style="stroke: #000000; stroke-width: 0.8"/>
      </g>
     </g>
     <g id="text_10">
      <!-- -1 -->
      <g transform="translate(24.1375 310.575312) scale(0.1 -0.1)">
       <use xlink:href="#MS-Gothic-2d"/>
       <use xlink:href="#MS-Gothic-31" transform="translate(50 0)"/>
      </g>
     </g>
    </g>
    <g id="ytick_4">
     <g id="line2d_19">
      <path d="M 41.1375 232.807656 
L 264.3375 232.807656 
" clip-path="url(#pcdab1f57b4)" style="fill: none; stroke: #000000; stroke-opacity: 0.5; stroke-width: 0.5; stroke-linecap: square"/>
     </g>
     <g id="line2d_20">
      <g>
       <use xlink:href="#me96e576001" x="41.1375" y="232.807656" style="stroke: #000000; stroke-width: 0.8"/>
      </g>
     </g>
     <g id="text_11">
      <!-- 0 -->
      <g transform="translate(29.1375 236.655312) scale(0.1 -0.1)">
       <use xlink:href="#MS-Gothic-30"/>
      </g>
     </g>
    </g>
    <g id="ytick_5">
     <g id="line2d_21">
      <path d="M 41.1375 158.887656 
L 264.3375 158.887656 
" clip-path="url(#pcdab1f57b4)" style="fill: none; stroke: #000000; stroke-opacity: 0.5; stroke-width: 0.5; stroke-linecap: square"/>
     </g>
     <g id="line2d_22">
      <g>
       <use xlink:href="#me96e576001" x="41.1375" y="158.887656" style="stroke: #000000; stroke-width: 0.8"/>
      </g>
     </g>
     <g id="text_12">
      <!-- 1 -->
      <g transform="translate(29.1375 162.735312) scale(0.1 -0.1)">
       <use xlink:href="#MS-Gothic-31"/>
      </g>
     </g>
    </g>
    <g id="ytick_6">
     <g id="line2d_23">
      <path d="M 41.1375 84.967656 
L 264.3375 84.967656 
" clip-path="url(#pcdab1f57b4)" style="fill: none; stroke: #000000; stroke-opacity: 0.5; stroke-width: 0.5; stroke-linecap: square"/>
     </g>
     <g id="line2d_24">
      <g>
       <use xlink:href="#me96e576001" x="41.1375" y="84.967656" style="stroke: #000000; stroke-width: 0.8"/>
      </g>
     </g>
     <g id="text_13">
      <!-- 2 -->
      <g transform="translate(29.1375 88.815312) scale(0.1 -0.1)">
       <use xlink:href="#MS-Gothic-32"/>
      </g>
     </g>
    </g>
    <g id="ytick_7">
     <g id="line2d_25">
      <path d="M 41.1375 11.047656 
L 264.3375 11.047656 
" clip-path="url(#pcdab1f57b4)" style="fill: none; stroke: #000000; stroke-opacity: 0.5; stroke-width: 0.5; stroke-linecap: square"/>
     </g>
     <g id="line2d_26">
      <g>
       <use xlink:href="#me96e576001" x="41.1375" y="11.047656" style="stroke: #000000; stroke-width: 0.8"/>
      </g>
     </g>
     <g id="text_14">
      <!-- 3 -->
      <g transform="translate(29.1375 14.895312) scale(0.1 -0.1)">
       <use xlink:href="#MS-Gothic-33"/>
      </g>
     </g>
    </g>
    <g id="text_15">
     <!-- y -->
     <g transform="translate(18.28125 236.407656) rotate(-90) scale(0.144 -0.144)">
      <defs>
       <path id="MS-Gothic-79" d="M 225 3475 
L 775 3475 
L 1625 1125 
L 1650 1125 
L 2375 3475 
L 2925 3475 
L 1775 -125 
Q 1550 -825 975 -825 
Q 700 -825 525 -750 
L 525 -250 
Q 725 -350 900 -350 
Q 1275 -350 1425 250 
L 225 3475 
z
" transform="scale(0.015625)"/>
      </defs>
      <use xlink:href="#MS-Gothic-79"/>
     </g>
    </g>
   </g>
   <g id="line2d_27">
    <path d="M 54.989963 495.689531 
L 55.382128 489.812205 
L 57.431715 467.78775 
L 59.481302 450.523487 
L 61.530888 436.267367 
L 63.580475 424.084577 
L 65.630062 413.416992 
L 67.679649 403.904514 
L 69.729236 395.301194 
L 71.778822 387.431537 
L 73.828409 380.165903 
L 75.877996 373.405781 
L 77.927583 367.074542 
L 79.977169 361.111385 
L 82.026756 355.467241 
L 84.076343 350.101924 
L 86.12593 344.982093 
L 88.175517 340.07977 
L 90.225103 335.371234 
L 92.27469 330.836189 
L 94.324277 326.457122 
L 96.373864 322.218806 
L 98.42345 318.107909 
L 100.473037 314.112681 
L 102.522624 310.222703 
L 104.572211 306.428682 
L 106.621798 302.722288 
L 108.671384 299.096012 
L 110.720971 295.543054 
L 112.770558 292.057225 
L 114.820145 288.632868 
L 116.869731 285.264788 
L 118.919318 281.948195 
L 120.968905 278.67865 
L 123.018492 275.452024 
L 125.068079 272.264462 
L 127.117665 269.112344 
L 129.167252 265.992262 
L 131.216839 262.90099 
L 133.266426 259.835463 
L 135.316012 256.792753 
L 137.365599 253.770057 
L 139.415186 250.764672 
L 141.464773 247.773987 
L 143.51436 244.795461 
L 145.563946 241.826615 
L 147.613533 238.865017 
L 149.66312 235.908271 
L 151.712707 232.954003 
L 153.762293 229.999852 
L 155.81188 227.043457 
L 157.861467 224.082447 
L 159.911054 221.114427 
L 161.96064 218.13697 
L 164.010227 215.147601 
L 166.059814 212.143789 
L 168.109401 209.122927 
L 170.158988 206.082324 
L 172.208574 203.019186 
L 174.258161 199.930599 
L 176.307748 196.813513 
L 178.357335 193.664719 
L 180.406921 190.480827 
L 182.456508 187.25824 
L 184.506095 183.993127 
L 186.555682 180.681388 
L 188.605269 177.318618 
L 190.654855 173.900063 
L 192.704442 170.420569 
L 194.754029 166.87453 
L 196.803616 163.255812 
L 198.853202 159.557679 
L 200.902789 155.772699 
L 202.952376 151.892627 
L 205.001963 147.908274 
L 207.05155 143.809339 
L 209.101136 139.584217 
L 211.150723 135.219742 
L 213.20031 130.700894 
L 215.249897 126.010405 
L 217.299483 121.128281 
L 219.34907 116.031175 
L 221.398657 110.691574 
L 223.448244 105.076726 
L 225.497831 99.147206 
L 227.547417 92.854936 
L 229.597004 86.140434 
L 231.646591 78.928872 
L 233.696178 71.124254 
L 235.745764 62.600566 
L 237.795351 53.187746 
L 239.844938 42.648357 
L 241.894525 30.636442 
L 243.944112 16.619216 
L 245.993698 -0.287761 
L 246.06181 -1 
" clip-path="url(#pcdab1f57b4)" style="fill: none; stroke: #264653; stroke-width: 1.2; stroke-linecap: square"/>
   </g>
   <g id="line2d_28">
    <path d="M 41.1375 232.807656 
L 264.3375 232.807656 
" clip-path="url(#pcdab1f57b4)" style="fill: none; stroke: #000000; stroke-width: 1.2; stroke-linecap: square"/>
   </g>
  </g>
 </g>
 <defs>
  <clipPath id="pcdab1f57b4">
   <rect x="41.1375" y="11.047656" width="223.2" height="443.52"/>
  </clipPath>
 </defs>
</svg>
