<?xml version="1.0" encoding="utf-8" standalone="no"?>
<!DOCTYPE svg PUBLIC "-//W3C//DTD SVG 1.1//EN"
  "http://www.w3.org/Graphics/SVG/1.1/DTD/svg11.dtd">
<svg xmlns:xlink="http://www.w3.org/1999/xlink" width="432pt" height="288pt" viewBox="0 0 432 288" xmlns="http://www.w3.org/2000/svg" version="1.1">
 <metadata>
  <rdf:RDF xmlns:dc="http://purl.org/dc/elements/1.1/" xmlns:cc="http://creativecommons.org/ns#" xmlns:rdf="http://www.w3.org/1999/02/22-rdf-syntax-ns#">
   <cc:Work>
    <dc:type rdf:resource="http://purl.org/dc/dcmitype/StillImage"/>
    <dc:date>2025-10-29T09:07:45.071690</dc:date>
    <dc:format>image/svg+xml</dc:format>
    <dc:creator>
     <cc:Agent>
      <dc:title>Matplotlib v3.10.7, https://matplotlib.org/</dc:title>
     </cc:Agent>
    </dc:creator>
   </cc:Work>
  </rdf:RDF>
 </metadata>
 <defs>
  <style type="text/css">*{stroke-linejoin: round; stroke-linecap: butt}</style>
 </defs>
 <g id="figure_1">
  <g id="patch_1">
   <path d="M 0 288 
L 432 288 
L 432 0 
L 0 0 
z
" style="fill: #ffffff"/>
  </g>
  <g id="axes_1">
   <g id="patch_2">
    <path d="M 57.76 242.44 
L 413.068182 242.44 
L 413.068182 30.48 
L 57.76 30.48 
z
" style="fill: #ffffff"/>
   </g>
   <g id="patch_3">
    <path d="M 168.91256 232.805455 
L 396.91781 232.805455 
L 396.91781 200.690303 
L 168.91256 200.690303 
z
" clip-path="url(#pedd7b52e85)" style="fill: #10b981"/>
   </g>
   <g id="patch_4">
    <path d="M 168.91256 192.661515 
L 73.910372 192.661515 
L 73.910372 160.546364 
L 168.91256 160.546364 
z
" clip-path="url(#pedd7b52e85)" style="fill: #f87171"/>
   </g>
   <g id="patch_5">
    <path d="M 168.91256 152.517576 
L 320.91606 152.517576 
L 320.91606 120.402424 
L 168.91256 120.402424 
z
" clip-path="url(#pedd7b52e85)" style="fill: #10b981"/>
   </g>
   <g id="patch_6">
    <path d="M 168.91256 112.373636 
L 111.911247 112.373636 
L 111.911247 80.258485 
L 168.91256 80.258485 
z
" clip-path="url(#pedd7b52e85)" style="fill: #f87171"/>
   </g>
   <g id="patch_7">
    <path d="M 168.91256 72.229697 
L 244.91431 72.229697 
L 244.91431 40.114545 
L 168.91256 40.114545 
z
" clip-path="url(#pedd7b52e85)" style="fill: #10b981"/>
   </g>
   <g id="matplotlib.axis_1">
    <g id="xtick_1">
     <g id="line2d_1">
      <path d="M 73.910372 242.44 
L 73.910372 30.48 
" clip-path="url(#pedd7b52e85)" style="fill: none; stroke: #000000; stroke-opacity: 0.2; stroke-width: 0.5; stroke-linecap: square"/>
     </g>
     <g id="line2d_2">
      <defs>
       <path id="m54e49d9b94" d="M 0 0 
L 0 3.5 
" style="stroke: #000000; stroke-width: 0.8"/>
      </defs>
      <g>
       <use xlink:href="#m54e49d9b94" x="73.910372" y="242.44" style="stroke: #000000; stroke-width: 0.8"/>
      </g>
     </g>
     <g id="text_1">
      <!-- −5.0 -->
      <g transform="translate(62.899434 256.930625) scale(0.1 -0.1)">
       <defs>
        <path id="IPAexGothic-2212" d="M 416 2222 
L 3922 2222 
L 3922 1856 
L 416 1856 
L 416 2222 
z
" transform="scale(0.015625)"/>
        <path id="IPAexGothic-35" d="M 1178 2603 
Q 1634 2963 2172 2963 
Q 2816 2963 3241 2528 
Q 3638 2113 3638 1497 
Q 3638 938 3297 513 
Q 2869 -31 2031 -31 
Q 959 -31 469 784 
L 938 1028 
Q 1309 434 2013 434 
Q 2466 434 2769 716 
Q 3081 1013 3081 1503 
Q 3081 1966 2806 2241 
Q 2519 2528 2056 2528 
Q 1406 2528 1072 2028 
L 591 2091 
L 884 4634 
L 3406 4634 
L 3406 4153 
L 1341 4153 
L 1134 2603 
L 1178 2603 
z
" transform="scale(0.015625)"/>
        <path id="IPAexGothic-2e" d="M 1184 63 
L 494 63 
L 494 753 
L 1184 753 
L 1184 63 
z
" transform="scale(0.015625)"/>
        <path id="IPAexGothic-30" d="M 2038 4725 
Q 2881 4725 3334 3944 
Q 3694 3325 3694 2344 
Q 3694 1372 3334 741 
Q 2888 -31 2016 -31 
Q 1147 -31 700 741 
Q 341 1372 341 2350 
Q 341 3713 1000 4334 
Q 1419 4725 2038 4725 
z
M 2016 4266 
Q 1516 4266 1228 3759 
Q 934 3247 934 2344 
Q 934 1456 1222 947 
Q 1513 447 2016 447 
Q 2619 447 2909 1153 
Q 3100 1622 3100 2375 
Q 3100 3256 2806 3759 
Q 2509 4266 2016 4266 
z
" transform="scale(0.015625)"/>
       </defs>
       <use xlink:href="#IPAexGothic-2212"/>
       <use xlink:href="#IPAexGothic-35" transform="translate(67.822266 0)"/>
       <use xlink:href="#IPAexGothic-2e" transform="translate(130.810547 0)"/>
       <use xlink:href="#IPAexGothic-30" transform="translate(157.226562 0)"/>
      </g>
     </g>
    </g>
    <g id="xtick_2">
     <g id="line2d_3">
      <path d="M 121.411466 242.44 
L 121.411466 30.48 
" clip-path="url(#pedd7b52e85)" style="fill: none; stroke: #000000; stroke-opacity: 0.2; stroke-width: 0.5; stroke-linecap: square"/>
     </g>
     <g id="line2d_4">
      <g>
       <use xlink:href="#m54e49d9b94" x="121.411466" y="242.44" style="stroke: #000000; stroke-width: 0.8"/>
      </g>
     </g>
     <g id="text_2">
      <!-- −2.5 -->
      <g transform="translate(110.400528 256.930625) scale(0.1 -0.1)">
       <defs>
        <path id="IPAexGothic-32" d="M 3659 63 
L 447 63 
L 447 594 
Q 825 1475 1894 2203 
L 2072 2322 
Q 2619 2697 2791 2906 
Q 2988 3153 2988 3444 
Q 2988 3772 2756 4003 
Q 2500 4259 2084 4259 
Q 1250 4259 991 3328 
L 497 3506 
Q 853 4725 2116 4725 
Q 2806 4725 3216 4316 
Q 3575 3947 3575 3425 
Q 3575 3038 3344 2722 
Q 3131 2416 2366 1938 
L 2231 1856 
Q 1256 1253 978 569 
L 3659 569 
L 3659 63 
z
" transform="scale(0.015625)"/>
       </defs>
       <use xlink:href="#IPAexGothic-2212"/>
       <use xlink:href="#IPAexGothic-32" transform="translate(67.822266 0)"/>
       <use xlink:href="#IPAexGothic-2e" transform="translate(130.810547 0)"/>
       <use xlink:href="#IPAexGothic-35" transform="translate(157.226562 0)"/>
      </g>
     </g>
    </g>
    <g id="xtick_3">
     <g id="line2d_5">
      <path d="M 168.91256 242.44 
L 168.91256 30.48 
" clip-path="url(#pedd7b52e85)" style="fill: none; stroke: #000000; stroke-opacity: 0.2; stroke-width: 0.5; stroke-linecap: square"/>
     </g>
     <g id="line2d_6">
      <g>
       <use xlink:href="#m54e49d9b94" x="168.91256" y="242.44" style="stroke: #000000; stroke-width: 0.8"/>
      </g>
     </g>
     <g id="text_3">
      <!-- 0.0 -->
      <g transform="translate(161.293028 256.930625) scale(0.1 -0.1)">
       <use xlink:href="#IPAexGothic-30"/>
       <use xlink:href="#IPAexGothic-2e" transform="translate(62.988281 0)"/>
       <use xlink:href="#IPAexGothic-30" transform="translate(89.404297 0)"/>
      </g>
     </g>
    </g>
    <g id="xtick_4">
     <g id="line2d_7">
      <path d="M 216.413653 242.44 
L 216.413653 30.48 
" clip-path="url(#pedd7b52e85)" style="fill: none; stroke: #000000; stroke-opacity: 0.2; stroke-width: 0.5; stroke-linecap: square"/>
     </g>
     <g id="line2d_8">
      <g>
       <use xlink:href="#m54e49d9b94" x="216.413653" y="242.44" style="stroke: #000000; stroke-width: 0.8"/>
      </g>
     </g>
     <g id="text_4">
      <!-- 2.5 -->
      <g transform="translate(208.794122 256.930625) scale(0.1 -0.1)">
       <use xlink:href="#IPAexGothic-32"/>
       <use xlink:href="#IPAexGothic-2e" transform="translate(62.988281 0)"/>
       <use xlink:href="#IPAexGothic-35" transform="translate(89.404297 0)"/>
      </g>
     </g>
    </g>
    <g id="xtick_5">
     <g id="line2d_9">
      <path d="M 263.914747 242.44 
L 263.914747 30.48 
" clip-path="url(#pedd7b52e85)" style="fill: none; stroke: #000000; stroke-opacity: 0.2; stroke-width: 0.5; stroke-linecap: square"/>
     </g>
     <g id="line2d_10">
      <g>
       <use xlink:href="#m54e49d9b94" x="263.914747" y="242.44" style="stroke: #000000; stroke-width: 0.8"/>
      </g>
     </g>
     <g id="text_5">
      <!-- 5.0 -->
      <g transform="translate(256.295216 256.930625) scale(0.1 -0.1)">
       <use xlink:href="#IPAexGothic-35"/>
       <use xlink:href="#IPAexGothic-2e" transform="translate(62.988281 0)"/>
       <use xlink:href="#IPAexGothic-30" transform="translate(89.404297 0)"/>
      </g>
     </g>
    </g>
    <g id="xtick_6">
     <g id="line2d_11">
      <path d="M 311.415841 242.44 
L 311.415841 30.48 
" clip-path="url(#pedd7b52e85)" style="fill: none; stroke: #000000; stroke-opacity: 0.2; stroke-width: 0.5; stroke-linecap: square"/>
     </g>
     <g id="line2d_12">
      <g>
       <use xlink:href="#m54e49d9b94" x="311.415841" y="242.44" style="stroke: #000000; stroke-width: 0.8"/>
      </g>
     </g>
     <g id="text_6">
      <!-- 7.5 -->
      <g transform="translate(303.79631 256.930625) scale(0.1 -0.1)">
       <defs>
        <path id="IPAexGothic-37" d="M 3597 4263 
Q 2238 2106 1778 63 
L 1131 63 
Q 1581 1834 2950 4128 
L 428 4128 
L 428 4634 
L 3597 4634 
L 3597 4263 
z
" transform="scale(0.015625)"/>
       </defs>
       <use xlink:href="#IPAexGothic-37"/>
       <use xlink:href="#IPAexGothic-2e" transform="translate(62.988281 0)"/>
       <use xlink:href="#IPAexGothic-35" transform="translate(89.404297 0)"/>
      </g>
     </g>
    </g>
    <g id="xtick_7">
     <g id="line2d_13">
      <path d="M 358.916935 242.44 
L 358.916935 30.48 
" clip-path="url(#pedd7b52e85)" style="fill: none; stroke: #000000; stroke-opacity: 0.2; stroke-width: 0.5; stroke-linecap: square"/>
     </g>
     <g id="line2d_14">
      <g>
       <use xlink:href="#m54e49d9b94" x="358.916935" y="242.44" style="stroke: #000000; stroke-width: 0.8"/>
      </g>
     </g>
     <g id="text_7">
      <!-- 10.0 -->
      <g transform="translate(348.148185 256.930625) scale(0.1 -0.1)">
       <defs>
        <path id="IPAexGothic-31" d="M 2463 63 
L 1900 63 
L 1900 4103 
Q 1372 3922 788 3797 
L 684 4231 
Q 1519 4441 2106 4731 
L 2463 4731 
L 2463 63 
z
" transform="scale(0.015625)"/>
       </defs>
       <use xlink:href="#IPAexGothic-31"/>
       <use xlink:href="#IPAexGothic-30" transform="translate(62.988281 0)"/>
       <use xlink:href="#IPAexGothic-2e" transform="translate(125.976562 0)"/>
       <use xlink:href="#IPAexGothic-30" transform="translate(152.392578 0)"/>
      </g>
     </g>
    </g>
    <g id="xtick_8">
     <g id="line2d_15">
      <path d="M 406.418029 242.44 
L 406.418029 30.48 
" clip-path="url(#pedd7b52e85)" style="fill: none; stroke: #000000; stroke-opacity: 0.2; stroke-width: 0.5; stroke-linecap: square"/>
     </g>
     <g id="line2d_16">
      <g>
       <use xlink:href="#m54e49d9b94" x="406.418029" y="242.44" style="stroke: #000000; stroke-width: 0.8"/>
      </g>
     </g>
     <g id="text_8">
      <!-- 12.5 -->
      <g transform="translate(395.649279 256.930625) scale(0.1 -0.1)">
       <use xlink:href="#IPAexGothic-31"/>
       <use xlink:href="#IPAexGothic-32" transform="translate(62.988281 0)"/>
       <use xlink:href="#IPAexGothic-2e" transform="translate(125.976562 0)"/>
       <use xlink:href="#IPAexGothic-35" transform="translate(152.392578 0)"/>
      </g>
     </g>
    </g>
    <g id="text_9">
     <!-- 前年差（ポイント） -->
     <g transform="translate(170.614091 273.617125) scale(0.144 -0.144)">
      <defs>
       <path id="IPAexGothic-524d" d="M 3653 4281 
Q 3913 4741 4134 5319 
L 4638 5184 
Q 4453 4769 4153 4281 
L 6078 4281 
L 6078 3872 
L 319 3872 
L 319 4281 
L 3653 4281 
z
M 3006 3366 
L 3006 25 
Q 3006 -219 2897 -306 
Q 2797 -391 2522 -391 
Q 2294 -391 1938 -359 
L 1881 84 
Q 2178 25 2413 25 
Q 2578 25 2578 172 
L 2578 1031 
L 1228 1031 
L 1228 -447 
L 794 -447 
L 794 3366 
L 3006 3366 
z
M 1228 2981 
L 1228 2394 
L 2578 2394 
L 2578 2981 
L 1228 2981 
z
M 1228 2022 
L 1228 1403 
L 2578 1403 
L 2578 2022 
L 1228 2022 
z
M 2131 4294 
Q 1934 4769 1656 5106 
L 2078 5300 
Q 2353 4959 2584 4500 
L 2131 4294 
z
M 3834 3238 
L 4275 3238 
L 4275 684 
L 3834 684 
L 3834 3238 
z
M 5147 3425 
L 5600 3425 
L 5600 97 
Q 5600 -172 5497 -275 
Q 5384 -409 5013 -409 
Q 4634 -409 4169 -359 
L 4109 97 
Q 4550 19 4934 19 
Q 5147 19 5147 231 
L 5147 3425 
z
" transform="scale(0.015625)"/>
       <path id="IPAexGothic-5e74" d="M 1772 4159 
Q 1444 3422 875 2803 
L 528 3166 
Q 1322 3941 1631 5259 
L 2109 5156 
Q 1994 4759 1931 4563 
L 5694 4563 
L 5694 4159 
L 3756 4159 
L 3756 3128 
L 5434 3128 
L 5434 2725 
L 3756 2725 
L 3756 1509 
L 6078 1509 
L 6078 1094 
L 3756 1094 
L 3756 -450 
L 3275 -450 
L 3275 1094 
L 447 1094 
L 447 1509 
L 1534 1509 
L 1534 3128 
L 3275 3128 
L 3275 4159 
L 1772 4159 
z
M 3275 2725 
L 1994 2725 
L 1994 1509 
L 3275 1509 
L 3275 2725 
z
" transform="scale(0.015625)"/>
       <path id="IPAexGothic-5dee" d="M 2188 4481 
Q 2013 4781 1766 5084 
L 2194 5275 
Q 2459 4913 2669 4481 
L 3659 4481 
Q 3931 4881 4100 5294 
L 4575 5122 
Q 4353 4766 4150 4481 
L 5725 4481 
L 5725 4103 
L 3403 4103 
L 3403 3519 
L 5431 3519 
L 5431 3147 
L 3403 3147 
L 3403 2534 
L 5975 2534 
L 5975 2138 
L 2341 2138 
Q 2225 1813 2041 1466 
L 5431 1466 
L 5431 1081 
L 3813 1081 
L 3813 103 
L 5913 103 
L 5913 -294 
L 1338 -294 
L 1338 103 
L 3344 103 
L 3344 1081 
L 1803 1081 
Q 1331 400 588 -172 
L 281 200 
Q 1394 966 1875 2138 
L 416 2138 
L 416 2534 
L 2950 2534 
L 2950 3147 
L 959 3147 
L 959 3519 
L 2950 3519 
L 2950 4103 
L 666 4103 
L 666 4481 
L 2188 4481 
z
" transform="scale(0.015625)"/>
       <path id="IPAexGothic-ff08" d="M 5419 -434 
Q 4197 769 4197 2438 
Q 4197 4097 5419 5300 
L 5919 5300 
Q 4678 4078 4678 2425 
Q 4678 788 5919 -434 
L 5419 -434 
z
" transform="scale(0.015625)"/>
       <path id="IPAexGothic-30dd" d="M 5188 5453 
Q 5497 5453 5706 5219 
Q 5891 5016 5891 4747 
Q 5891 4434 5656 4222 
Q 5453 4038 5188 4038 
Q 4872 4038 4659 4272 
Q 4475 4475 4475 4747 
Q 4475 5059 4709 5269 
Q 4916 5453 5188 5453 
z
M 5188 5172 
Q 4997 5172 4866 5031 
Q 4756 4909 4756 4747 
Q 4756 4556 4897 4428 
Q 5022 4319 5188 4319 
Q 5372 4319 5500 4459 
Q 5609 4584 5609 4747 
Q 5609 4934 5469 5063 
Q 5347 5172 5188 5172 
z
M 2972 4978 
L 3478 4978 
L 3478 3794 
L 5584 3794 
L 5584 3341 
L 3478 3341 
L 3478 397 
Q 3478 -147 2844 -147 
Q 2428 -147 2019 -72 
L 1909 459 
Q 2300 359 2716 359 
Q 2972 359 2972 616 
L 2972 3341 
L 822 3341 
L 822 3794 
L 2972 3794 
L 2972 4978 
z
M 603 922 
Q 988 1294 1222 1694 
Q 1438 2063 1600 2572 
L 2050 2369 
Q 1859 1766 1588 1325 
Q 1372 975 1000 556 
L 603 922 
z
M 5313 709 
Q 4847 1700 4309 2388 
L 4719 2656 
Q 5269 2016 5775 1031 
L 5313 709 
z
" transform="scale(0.015625)"/>
       <path id="IPAexGothic-30a4" d="M 3131 -231 
L 3131 2875 
Q 2091 2088 1106 1656 
L 781 2059 
Q 3016 3000 4469 4916 
L 4916 4641 
Q 4384 3938 3675 3316 
L 3675 -231 
L 3131 -231 
z
" transform="scale(0.015625)"/>
       <path id="IPAexGothic-30f3" d="M 2444 3084 
Q 1816 3656 1056 4084 
L 1381 4519 
Q 2063 4191 2816 3559 
L 2444 3084 
z
M 1100 609 
Q 3984 1106 5216 3828 
L 5619 3469 
Q 4413 794 1434 103 
L 1100 609 
z
" transform="scale(0.015625)"/>
       <path id="IPAexGothic-30c8" d="M 2284 4997 
L 2803 4997 
L 2803 3206 
Q 4088 2619 5216 1888 
L 4878 1369 
Q 3819 2175 2803 2688 
L 2803 -184 
L 2284 -184 
L 2284 4997 
z
" transform="scale(0.015625)"/>
       <path id="IPAexGothic-ff09" d="M 481 -434 
Q 1722 788 1722 2431 
Q 1722 4066 481 5300 
L 981 5300 
Q 2203 4097 2203 2431 
Q 2203 769 981 -434 
L 481 -434 
z
" transform="scale(0.015625)"/>
      </defs>
      <use xlink:href="#IPAexGothic-524d"/>
      <use xlink:href="#IPAexGothic-5e74" transform="translate(100 0)"/>
      <use xlink:href="#IPAexGothic-5dee" transform="translate(200 0)"/>
      <use xlink:href="#IPAexGothic-ff08" transform="translate(300 0)"/>
      <use xlink:href="#IPAexGothic-30dd" transform="translate(400 0)"/>
      <use xlink:href="#IPAexGothic-30a4" transform="translate(500 0)"/>
      <use xlink:href="#IPAexGothic-30f3" transform="translate(600 0)"/>
      <use xlink:href="#IPAexGothic-30c8" transform="translate(700 0)"/>
      <use xlink:href="#IPAexGothic-ff09" transform="translate(800 0)"/>
     </g>
    </g>
   </g>
   <g id="matplotlib.axis_2">
    <g id="ytick_1">
     <g id="line2d_17">
      <defs>
       <path id="mca3d9fb25e" d="M 0 0 
L -3.5 0 
" style="stroke: #000000; stroke-width: 0.8"/>
      </defs>
      <g>
       <use xlink:href="#mca3d9fb25e" x="57.76" y="216.747879" style="stroke: #000000; stroke-width: 0.8"/>
      </g>
     </g>
     <g id="text_10">
      <!-- 営業 -->
      <g transform="translate(30.76 220.493191) scale(0.1 -0.1)">
       <defs>
        <path id="IPAexGothic-55b6" d="M 1797 4238 
Q 1572 4669 1316 4981 
L 1738 5197 
Q 2009 4866 2288 4378 
L 1963 4238 
L 3069 4238 
L 3056 4275 
Q 2881 4725 2622 5088 
L 3056 5275 
Q 3334 4900 3550 4391 
L 3147 4238 
L 4044 4238 
Q 4409 4734 4647 5275 
L 5119 5075 
Q 4856 4622 4569 4238 
L 5803 4238 
L 5803 3009 
L 5350 3009 
L 5350 3853 
L 1041 3853 
L 1041 3009 
L 588 3009 
L 588 4238 
L 1797 4238 
z
M 4850 3438 
L 4850 1959 
L 3378 1959 
Q 3313 1703 3213 1447 
L 5394 1447 
L 5394 -447 
L 4934 -447 
L 4934 -159 
L 1450 -159 
L 1450 -447 
L 991 -447 
L 991 1447 
L 2756 1447 
Q 2813 1625 2878 1909 
L 2891 1959 
L 1534 1959 
L 1534 3438 
L 4850 3438 
z
M 1988 3053 
L 1988 2344 
L 4403 2344 
L 4403 3053 
L 1988 3053 
z
M 1450 1050 
L 1450 238 
L 4934 238 
L 4934 1050 
L 1450 1050 
z
" transform="scale(0.015625)"/>
        <path id="IPAexGothic-696d" d="M 3397 2738 
L 3397 2350 
L 5328 2350 
L 5328 1984 
L 3397 1984 
L 3397 1594 
L 6016 1594 
L 6016 1209 
L 3831 1209 
Q 4706 509 6078 134 
L 5759 -288 
Q 4253 222 3397 1125 
L 3397 -447 
L 2956 -447 
L 2956 1106 
Q 2038 31 594 -416 
L 281 -38 
Q 1663 334 2566 1209 
L 384 1209 
L 384 1594 
L 2956 1594 
L 2956 1984 
L 1063 1984 
L 1063 2350 
L 2956 2350 
L 2956 2738 
L 769 2738 
L 769 3109 
L 2228 3109 
Q 2069 3519 1900 3769 
L 441 3769 
L 441 4141 
L 2413 4141 
L 2413 5313 
L 2853 5313 
L 2853 4141 
L 3500 4141 
L 3500 5313 
L 3941 5313 
L 3941 4141 
L 5950 4141 
L 5950 3769 
L 4447 3769 
Q 4294 3413 4106 3109 
L 5625 3109 
L 5625 2738 
L 3397 2738 
z
M 2406 3769 
Q 2581 3447 2694 3109 
L 3653 3109 
Q 3856 3463 3953 3769 
L 2406 3769 
z
M 1528 4166 
Q 1334 4656 1056 4984 
L 1484 5166 
Q 1728 4856 1966 4353 
L 1528 4166 
z
M 4366 4306 
Q 4678 4828 4819 5228 
L 5288 5069 
Q 5066 4606 4775 4166 
L 4366 4306 
z
" transform="scale(0.015625)"/>
       </defs>
       <use xlink:href="#IPAexGothic-55b6"/>
       <use xlink:href="#IPAexGothic-696d" transform="translate(100 0)"/>
      </g>
     </g>
    </g>
    <g id="ytick_2">
     <g id="line2d_18">
      <g>
       <use xlink:href="#mca3d9fb25e" x="57.76" y="176.603939" style="stroke: #000000; stroke-width: 0.8"/>
      </g>
     </g>
     <g id="text_11">
      <!-- 開発 -->
      <g transform="translate(30.76 180.349252) scale(0.1 -0.1)">
       <defs>
        <path id="IPAexGothic-958b" d="M 2913 5013 
L 2913 3097 
L 1063 3097 
L 1063 -450 
L 609 -450 
L 609 5013 
L 2913 5013 
z
M 1063 4653 
L 1063 4225 
L 2491 4225 
L 2491 4653 
L 1063 4653 
z
M 1063 3900 
L 1063 3444 
L 2491 3444 
L 2491 3900 
L 1063 3900 
z
M 5781 5013 
L 5781 78 
Q 5781 -231 5647 -325 
Q 5538 -409 5238 -409 
Q 4809 -409 4488 -366 
L 4425 103 
Q 4791 38 5122 38 
Q 5328 38 5328 238 
L 5328 3097 
L 3438 3097 
L 3438 5013 
L 5781 5013 
z
M 3853 4653 
L 3853 4225 
L 5328 4225 
L 5328 4653 
L 3853 4653 
z
M 3853 3900 
L 3853 3444 
L 5328 3444 
L 5328 3900 
L 3853 3900 
z
M 4028 2266 
L 4028 1556 
L 5000 1556 
L 5000 1184 
L 4047 1184 
L 4047 -159 
L 3625 -159 
L 3625 1184 
L 2809 1184 
Q 2731 156 1850 -313 
L 1550 13 
Q 2319 347 2388 1184 
L 1403 1184 
L 1403 1556 
L 2394 1556 
L 2394 2266 
L 1594 2266 
L 1594 2619 
L 4803 2619 
L 4803 2266 
L 4028 2266 
z
M 3606 1556 
L 3606 2266 
L 2816 2266 
L 2816 1556 
L 3606 1556 
z
" transform="scale(0.015625)"/>
        <path id="IPAexGothic-767a" d="M 4719 3638 
Q 5159 4016 5453 4391 
L 5831 4122 
Q 5406 3700 5038 3413 
Q 5500 3116 6106 2856 
L 5800 2456 
Q 5231 2738 4706 3113 
L 4706 2772 
L 4103 2772 
L 4103 1919 
L 5753 1919 
L 5753 1522 
L 4103 1522 
L 4103 359 
Q 4103 159 4206 131 
Q 4313 94 4678 94 
Q 5256 94 5350 191 
Q 5444 284 5472 766 
Q 5472 863 5478 900 
L 5928 741 
Q 5900 25 5741 -141 
Q 5572 -341 4647 -341 
Q 4084 -341 3900 -256 
Q 3650 -150 3650 213 
L 3650 1522 
L 2725 1522 
Q 2572 34 709 -475 
L 466 -63 
Q 2128 347 2272 1522 
L 641 1522 
L 641 1919 
L 2291 1919 
L 2291 2772 
L 1778 2772 
L 1778 3009 
Q 1263 2647 581 2316 
L 288 2700 
Q 1044 2991 1663 3444 
Q 1269 3850 863 4134 
L 1191 4425 
Q 1697 4006 1991 3713 
Q 2434 4100 2763 4616 
L 1284 4616 
L 1284 5006 
L 3456 5006 
Q 3725 4566 4025 4244 
Q 4422 4584 4738 4988 
L 5109 4719 
Q 4747 4328 4294 3981 
Q 4506 3781 4719 3638 
z
M 3650 2772 
L 2738 2772 
L 2738 1919 
L 3650 1919 
L 3650 2772 
z
M 1978 3156 
L 4641 3156 
Q 3756 3794 3238 4544 
Q 2766 3769 1978 3156 
z
" transform="scale(0.015625)"/>
       </defs>
       <use xlink:href="#IPAexGothic-958b"/>
       <use xlink:href="#IPAexGothic-767a" transform="translate(100 0)"/>
      </g>
     </g>
    </g>
    <g id="ytick_3">
     <g id="line2d_19">
      <g>
       <use xlink:href="#mca3d9fb25e" x="57.76" y="136.46" style="stroke: #000000; stroke-width: 0.8"/>
      </g>
     </g>
     <g id="text_12">
      <!-- サポート -->
      <g transform="translate(10.76 140.205312) scale(0.1 -0.1)">
       <defs>
        <path id="IPAexGothic-30b5" d="M 3994 4919 
L 4506 4919 
L 4506 3531 
L 5888 3531 
L 5888 3072 
L 4506 3072 
Q 4488 1719 4153 1063 
Q 3728 222 2644 -325 
L 2266 38 
Q 3325 525 3713 1319 
Q 3975 1853 3994 3072 
L 2331 3072 
L 2331 1575 
L 1819 1575 
L 1819 3072 
L 513 3072 
L 513 3531 
L 1819 3531 
L 1819 4797 
L 2331 4797 
L 2331 3531 
L 3994 3531 
L 3994 4919 
z
" transform="scale(0.015625)"/>
        <path id="IPAexGothic-30fc" d="M 588 2688 
L 5809 2688 
L 5809 2175 
L 588 2175 
L 588 2688 
z
" transform="scale(0.015625)"/>
       </defs>
       <use xlink:href="#IPAexGothic-30b5"/>
       <use xlink:href="#IPAexGothic-30dd" transform="translate(100 0)"/>
       <use xlink:href="#IPAexGothic-30fc" transform="translate(200 0)"/>
       <use xlink:href="#IPAexGothic-30c8" transform="translate(300 0)"/>
      </g>
     </g>
    </g>
    <g id="ytick_4">
     <g id="line2d_20">
      <g>
       <use xlink:href="#mca3d9fb25e" x="57.76" y="96.316061" style="stroke: #000000; stroke-width: 0.8"/>
      </g>
     </g>
     <g id="text_13">
      <!-- マーケ -->
      <g transform="translate(20.76 100.061373) scale(0.1 -0.1)">
       <defs>
        <path id="IPAexGothic-30de" d="M 5422 4122 
L 5703 3822 
Q 4659 2491 3388 1447 
Q 3816 994 4231 500 
L 3797 122 
Q 2866 1381 1691 2322 
L 2069 2644 
Q 2481 2322 3059 1772 
Q 4163 2703 4891 3641 
L 744 3603 
L 744 4084 
L 5422 4122 
z
" transform="scale(0.015625)"/>
        <path id="IPAexGothic-30b1" d="M 5638 3275 
L 4178 3275 
Q 4141 1972 3738 1234 
Q 3241 322 2150 -256 
L 1766 141 
Q 2931 678 3353 1644 
Q 3619 2263 3647 3275 
L 2097 3275 
Q 1694 2456 972 1784 
L 594 2128 
Q 1781 3203 2138 4966 
L 2628 4856 
Q 2503 4281 2303 3744 
L 5638 3744 
L 5638 3275 
z
" transform="scale(0.015625)"/>
       </defs>
       <use xlink:href="#IPAexGothic-30de"/>
       <use xlink:href="#IPAexGothic-30fc" transform="translate(100 0)"/>
       <use xlink:href="#IPAexGothic-30b1" transform="translate(200 0)"/>
      </g>
     </g>
    </g>
    <g id="ytick_5">
     <g id="line2d_21">
      <g>
       <use xlink:href="#mca3d9fb25e" x="57.76" y="56.172121" style="stroke: #000000; stroke-width: 0.8"/>
      </g>
     </g>
     <g id="text_14">
      <!-- 管理 -->
      <g transform="translate(30.76 59.917434) scale(0.1 -0.1)">
       <defs>
        <path id="IPAexGothic-7ba1" d="M 3413 3431 
L 5819 3431 
L 5819 2413 
L 5378 2413 
L 5378 3059 
L 1016 3059 
L 1016 2413 
L 575 2413 
L 575 3431 
L 2950 3431 
L 2950 3809 
L 3309 3809 
L 2963 4025 
Q 3438 4556 3669 5319 
L 4078 5228 
Q 3981 4913 3931 4794 
L 6003 4794 
L 6003 4409 
L 4700 4409 
Q 4709 4397 4731 4359 
Q 4753 4325 4769 4300 
Q 4866 4144 4994 3897 
L 5050 3797 
L 4622 3634 
Q 4428 4116 4231 4409 
L 3750 4409 
Q 3541 4038 3328 3809 
L 3413 3809 
L 3413 3431 
z
M 1447 4794 
L 3213 4794 
L 3213 4409 
L 2175 4409 
Q 2341 4122 2444 3794 
L 2063 3659 
Q 1888 4150 1734 4409 
L 1247 4409 
Q 963 3925 563 3544 
L 250 3834 
Q 872 4438 1197 5325 
L 1631 5228 
Q 1550 5025 1447 4794 
z
M 4934 2663 
L 4934 1453 
L 1844 1453 
L 1844 1038 
L 5222 1038 
L 5222 -450 
L 4781 -450 
L 4781 -219 
L 1844 -219 
L 1844 -450 
L 1403 -450 
L 1403 2663 
L 4934 2663 
z
M 1844 2297 
L 1844 1819 
L 4513 1819 
L 4513 2297 
L 1844 2297 
z
M 1844 678 
L 1844 153 
L 4781 153 
L 4781 678 
L 1844 678 
z
" transform="scale(0.015625)"/>
        <path id="IPAexGothic-7406" d="M 1541 4397 
L 1541 3084 
L 2219 3084 
L 2219 2688 
L 1541 2688 
L 1541 1247 
Q 1919 1356 2397 1522 
L 2431 1144 
Q 1353 713 434 472 
L 263 909 
Q 763 1025 1113 1119 
L 1113 2688 
L 441 2688 
L 441 3084 
L 1113 3084 
L 1113 4397 
L 369 4397 
L 369 4800 
L 2347 4800 
L 2347 4397 
L 1541 4397 
z
M 5691 4991 
L 5691 2106 
L 4378 2106 
L 4378 1375 
L 5825 1375 
L 5825 984 
L 4378 984 
L 4378 206 
L 6081 206 
L 6081 -191 
L 2150 -191 
L 2150 206 
L 3944 206 
L 3944 984 
L 2559 984 
L 2559 1375 
L 3944 1375 
L 3944 2106 
L 2675 2106 
L 2675 4991 
L 5691 4991 
z
M 3091 4606 
L 3091 3750 
L 3956 3750 
L 3956 4606 
L 3091 4606 
z
M 3091 3378 
L 3091 2491 
L 3956 2491 
L 3956 3378 
L 3091 3378 
z
M 5275 2491 
L 5275 3378 
L 4366 3378 
L 4366 2491 
L 5275 2491 
z
M 5275 3750 
L 5275 4606 
L 4366 4606 
L 4366 3750 
L 5275 3750 
z
" transform="scale(0.015625)"/>
       </defs>
       <use xlink:href="#IPAexGothic-7ba1"/>
       <use xlink:href="#IPAexGothic-7406" transform="translate(100 0)"/>
      </g>
     </g>
    </g>
   </g>
   <g id="line2d_22">
    <path d="M 168.91256 242.44 
L 168.91256 30.48 
" clip-path="url(#pedd7b52e85)" style="fill: none; stroke: #9ca3af; stroke-linecap: square"/>
   </g>
   <g id="text_15">
    <!-- +12 -->
    <g transform="translate(400.91781 219.543191) scale(0.1 -0.1)">
     <defs>
      <path id="IPAexGothic-2b" d="M 2369 1856 
L 2369 219 
L 1984 219 
L 1984 1856 
L 416 1856 
L 416 2216 
L 1984 2216 
L 1984 3725 
L 2369 3725 
L 2369 2216 
L 3922 2216 
L 3922 1856 
L 2369 1856 
z
" transform="scale(0.015625)"/>
     </defs>
     <use xlink:href="#IPAexGothic-2b"/>
     <use xlink:href="#IPAexGothic-31" transform="translate(67.822266 0)"/>
     <use xlink:href="#IPAexGothic-32" transform="translate(130.810547 0)"/>
    </g>
   </g>
   <g id="text_16">
    <!-- -5 -->
    <g transform="translate(60.032247 179.399252) scale(0.1 -0.1)">
     <defs>
      <path id="IPAexGothic-2d" d="M 1969 1703 
L 319 1703 
L 319 2203 
L 1969 2203 
L 1969 1703 
z
" transform="scale(0.015625)"/>
     </defs>
     <use xlink:href="#IPAexGothic-2d"/>
     <use xlink:href="#IPAexGothic-35" transform="translate(35.791016 0)"/>
    </g>
   </g>
   <g id="text_17">
    <!-- +8 -->
    <g transform="translate(324.91606 139.255312) scale(0.1 -0.1)">
     <defs>
      <path id="IPAexGothic-38" d="M 2541 2425 
Q 3700 2031 3700 1197 
Q 3700 541 3100 197 
Q 2663 -56 2016 -56 
Q 1366 -56 928 197 
Q 347 531 347 1178 
Q 347 1988 1409 2381 
L 1409 2400 
Q 481 2734 481 3509 
Q 481 4100 981 4456 
Q 1406 4756 2019 4756 
Q 2703 4756 3131 4403 
Q 3553 4069 3553 3566 
Q 3553 2706 2541 2444 
L 2541 2425 
z
M 2022 2625 
Q 2997 2856 2997 3528 
Q 2997 3916 2675 4150 
Q 2413 4347 2016 4347 
Q 1606 4347 1331 4128 
Q 1050 3897 1050 3522 
Q 1050 3150 1350 2925 
Q 1494 2809 1722 2722 
Q 1984 2616 2022 2625 
z
M 1978 2209 
Q 922 1931 922 1216 
Q 922 775 1313 556 
Q 1606 391 2009 391 
Q 2575 391 2881 697 
Q 3106 922 3106 1250 
Q 3106 1594 2794 1850 
Q 2609 1994 2350 2100 
Q 2047 2222 1978 2209 
z
" transform="scale(0.015625)"/>
     </defs>
     <use xlink:href="#IPAexGothic-2b"/>
     <use xlink:href="#IPAexGothic-38" transform="translate(67.822266 0)"/>
    </g>
   </g>
   <g id="text_18">
    <!-- -3 -->
    <g transform="translate(98.033122 99.111373) scale(0.1 -0.1)">
     <defs>
      <path id="IPAexGothic-33" d="M 2381 2419 
Q 3506 2216 3506 1278 
Q 3506 716 3128 356 
Q 2709 -31 1944 -31 
Q 797 -31 288 881 
L 756 1131 
Q 1109 441 1938 441 
Q 2425 441 2694 691 
Q 2950 928 2950 1291 
Q 2950 1719 2566 1978 
Q 2216 2213 1644 2213 
L 1363 2213 
L 1363 2669 
L 1656 2669 
Q 2231 2669 2534 2888 
Q 2859 3119 2859 3509 
Q 2859 3934 2494 4138 
Q 2259 4278 1931 4278 
Q 1238 4278 903 3578 
L 434 3803 
Q 897 4725 1938 4725 
Q 2597 4725 3006 4394 
Q 3416 4069 3416 3534 
Q 3416 3028 3019 2706 
Q 2763 2500 2381 2444 
L 2381 2419 
z
" transform="scale(0.015625)"/>
     </defs>
     <use xlink:href="#IPAexGothic-2d"/>
     <use xlink:href="#IPAexGothic-33" transform="translate(35.791016 0)"/>
    </g>
   </g>
   <g id="text_19">
    <!-- +4 -->
    <g transform="translate(248.91431 58.967434) scale(0.1 -0.1)">
     <defs>
      <path id="IPAexGothic-34" d="M 3813 1159 
L 3059 1159 
L 3059 63 
L 2547 63 
L 2547 1159 
L 197 1159 
L 197 1672 
L 2456 4678 
L 3059 4678 
L 3059 1634 
L 3813 1634 
L 3813 1159 
z
M 2578 4109 
L 2559 4109 
Q 2278 3656 2003 3284 
L 759 1634 
L 2547 1634 
L 2547 3144 
Q 2547 3481 2578 4109 
z
" transform="scale(0.015625)"/>
     </defs>
     <use xlink:href="#IPAexGothic-2b"/>
     <use xlink:href="#IPAexGothic-34" transform="translate(67.822266 0)"/>
    </g>
   </g>
   <g id="text_20">
    <!-- 部門別 NPS の前年差 -->
    <g transform="translate(153.282791 24.48) scale(0.1728 -0.1728)">
     <defs>
      <path id="IPAexGothic-90e8" d="M 3034 4031 
L 3028 4000 
Q 2897 3488 2675 2888 
L 3631 2888 
L 3631 2503 
L 322 2503 
L 322 2888 
L 1256 2888 
Q 1150 3450 950 4031 
L 438 4031 
L 438 4416 
L 1756 4416 
L 1756 5313 
L 2197 5313 
L 2197 4416 
L 3456 4416 
L 3456 4031 
L 3034 4031 
z
M 2594 4031 
L 1384 4031 
Q 1566 3538 1691 2888 
L 2241 2888 
Q 2463 3466 2594 4031 
z
M 3194 1863 
L 3194 -422 
L 2766 -422 
L 2766 -103 
L 1250 -103 
L 1250 -450 
L 822 -450 
L 822 1863 
L 3194 1863 
z
M 1250 1478 
L 1250 281 
L 2766 281 
L 2766 1478 
L 1250 1478 
z
M 5166 2878 
Q 5953 2066 5953 1159 
Q 5953 391 5306 391 
Q 5016 391 4584 459 
L 4528 947 
Q 4844 850 5166 850 
Q 5472 850 5472 1216 
Q 5472 2041 4669 2828 
Q 5081 3600 5300 4409 
L 4291 4409 
L 4291 -447 
L 3850 -447 
L 3850 4825 
L 5575 4825 
L 5866 4594 
Q 5563 3659 5166 2878 
z
" transform="scale(0.015625)"/>
      <path id="IPAexGothic-9580" d="M 2894 4984 
L 2894 2388 
L 2453 2388 
L 2453 2688 
L 1109 2688 
L 1109 -447 
L 641 -447 
L 641 4984 
L 2894 4984 
z
M 1109 4588 
L 1109 4019 
L 2453 4019 
L 2453 4588 
L 1109 4588 
z
M 1109 3659 
L 1109 3072 
L 2453 3072 
L 2453 3659 
L 1109 3659 
z
M 5747 4984 
L 5747 178 
Q 5747 -166 5581 -281 
Q 5441 -384 5075 -384 
Q 4575 -384 4153 -341 
L 4066 166 
Q 4616 97 5013 97 
Q 5288 97 5288 331 
L 5288 2688 
L 3903 2688 
L 3903 2388 
L 3463 2388 
L 3463 4984 
L 5747 4984 
z
M 3903 4588 
L 3903 4019 
L 5288 4019 
L 5288 4588 
L 3903 4588 
z
M 3903 3659 
L 3903 3072 
L 5288 3072 
L 5288 3659 
L 3903 3659 
z
" transform="scale(0.015625)"/>
      <path id="IPAexGothic-5225" d="M 1922 2963 
Q 1906 2453 1894 2209 
L 3341 2209 
Q 3313 550 3175 63 
Q 3059 -366 2413 -366 
Q 2072 -366 1753 -313 
L 1691 134 
Q 2084 63 2413 63 
Q 2694 63 2759 319 
Q 2856 722 2888 1753 
Q 2888 1800 2894 1819 
L 1863 1819 
Q 1709 350 700 -481 
L 353 -147 
Q 1075 403 1306 1256 
Q 1450 1822 1478 2963 
L 700 2963 
L 700 4984 
L 3278 4984 
L 3278 2963 
L 1922 2963 
z
M 1141 4588 
L 1141 3353 
L 2838 3353 
L 2838 4588 
L 1141 4588 
z
M 3972 4597 
L 4425 4597 
L 4425 1159 
L 3972 1159 
L 3972 4597 
z
M 5309 5044 
L 5763 5044 
L 5763 191 
Q 5763 -141 5581 -263 
Q 5438 -359 5116 -359 
Q 4688 -359 4253 -313 
L 4156 178 
Q 4625 116 5072 116 
Q 5309 116 5309 353 
L 5309 5044 
z
" transform="scale(0.015625)"/>
      <path id="IPAexGothic-20" transform="scale(0.015625)"/>
      <path id="IPAexGothic-4e" d="M 4244 63 
L 3731 63 
L 1697 3150 
Q 1466 3500 1141 4097 
L 1116 4097 
L 1128 3797 
Q 1159 2803 1159 2469 
L 1159 63 
L 609 63 
L 609 4634 
L 1366 4634 
L 3113 1978 
Q 3453 1447 3713 966 
L 3738 966 
Q 3694 1897 3694 2469 
L 3694 4634 
L 4244 4634 
L 4244 63 
z
" transform="scale(0.015625)"/>
      <path id="IPAexGothic-50" d="M 609 4634 
L 1941 4634 
Q 3688 4634 3688 3322 
Q 3688 1934 1906 1934 
L 1172 1934 
L 1172 63 
L 609 63 
L 609 4634 
z
M 1172 2381 
L 1800 2381 
Q 3100 2381 3100 3316 
Q 3100 4181 1894 4181 
L 1172 4181 
L 1172 2381 
z
" transform="scale(0.015625)"/>
      <path id="IPAexGothic-53" d="M 2919 3641 
Q 2563 4259 1853 4259 
Q 1453 4259 1213 4009 
Q 1028 3803 1028 3534 
Q 1028 3238 1266 3047 
Q 1444 2913 1984 2688 
L 2200 2597 
Q 2925 2306 3191 1953 
Q 3422 1644 3422 1259 
Q 3422 644 2969 288 
Q 2559 -31 1931 -31 
Q 881 -31 313 766 
L 753 1100 
Q 1203 459 1938 459 
Q 2288 459 2534 625 
Q 2841 847 2841 1216 
Q 2841 1503 2616 1728 
Q 2375 1959 1728 2206 
L 1541 2278 
Q 453 2694 453 3481 
Q 453 4006 806 4347 
Q 1203 4725 1863 4725 
Q 2841 4725 3359 3956 
L 2919 3641 
z
" transform="scale(0.015625)"/>
      <path id="IPAexGothic-306e" d="M 3119 469 
Q 5275 766 5275 2425 
Q 5275 3453 4413 3925 
Q 4041 4116 3547 4159 
Q 3394 2525 2850 1400 
Q 2322 306 1722 306 
Q 1384 306 1084 666 
Q 609 1244 609 2003 
Q 609 3025 1397 3794 
Q 2184 4563 3431 4563 
Q 4306 4563 4928 4122 
Q 5813 3506 5813 2425 
Q 5813 438 3431 6 
L 3119 469 
z
M 3053 4147 
Q 2378 4044 1891 3641 
Q 1097 2981 1097 1991 
Q 1097 1366 1434 978 
Q 1581 813 1719 813 
Q 2022 813 2416 1625 
Q 2909 2638 3053 4147 
z
" transform="scale(0.015625)"/>
     </defs>
     <use xlink:href="#IPAexGothic-90e8"/>
     <use xlink:href="#IPAexGothic-9580" transform="translate(100 0)"/>
     <use xlink:href="#IPAexGothic-5225" transform="translate(200 0)"/>
     <use xlink:href="#IPAexGothic-20" transform="translate(300 0)"/>
     <use xlink:href="#IPAexGothic-4e" transform="translate(327.001953 0)"/>
     <use xlink:href="#IPAexGothic-50" transform="translate(402.978516 0)"/>
     <use xlink:href="#IPAexGothic-53" transform="translate(465.087891 0)"/>
     <use xlink:href="#IPAexGothic-20" transform="translate(523.583984 0)"/>
     <use xlink:href="#IPAexGothic-306e" transform="translate(550.585938 0)"/>
     <use xlink:href="#IPAexGothic-524d" transform="translate(650.585938 0)"/>
     <use xlink:href="#IPAexGothic-5e74" transform="translate(750.585938 0)"/>
     <use xlink:href="#IPAexGothic-5dee" transform="translate(850.585938 0)"/>
    </g>
   </g>
  </g>
 </g>
 <defs>
  <clipPath id="pedd7b52e85">
   <rect x="57.76" y="30.48" width="355.308182" height="211.96"/>
  </clipPath>
 </defs>
</svg>
