<?xml version="1.0" encoding="utf-8" standalone="no"?>
<!DOCTYPE svg PUBLIC "-//W3C//DTD SVG 1.1//EN"
  "http://www.w3.org/Graphics/SVG/1.1/DTD/svg11.dtd">
<svg xmlns:xlink="http://www.w3.org/1999/xlink" width="432pt" height="288pt" viewBox="0 0 432 288" xmlns="http://www.w3.org/2000/svg" version="1.1">
 <metadata>
  <rdf:RDF xmlns:dc="http://purl.org/dc/elements/1.1/" xmlns:cc="http://creativecommons.org/ns#" xmlns:rdf="http://www.w3.org/1999/02/22-rdf-syntax-ns#">
   <cc:Work>
    <dc:type rdf:resource="http://purl.org/dc/dcmitype/StillImage"/>
    <dc:date>2025-10-29T09:07:45.135008</dc:date>
    <dc:format>image/svg+xml</dc:format>
    <dc:creator>
     <cc:Agent>
      <dc:title>Matplotlib v3.10.7, https://matplotlib.org/</dc:title>
     </cc:Agent>
    </dc:creator>
   </cc:Work>
  </rdf:RDF>
 </metadata>
 <defs>
  <style type="text/css">*{stroke-linejoin: round; stroke-linecap: butt}</style>
 </defs>
 <g id="figure_1">
  <g id="patch_1">
   <path d="M 0 288 
L 432 288 
L 432 0 
L 0 0 
z
" style="fill: #ffffff"/>
  </g>
  <g id="axes_1">
   <g id="patch_2">
    <path d="M 55.1 260.84 
L 421.2 260.84 
L 421.2 30.48 
L 55.1 30.48 
z
" style="fill: #ffffff"/>
   </g>
   <g id="patch_3">
    <path d="M 71.740909 260.84 
L 103.22371 260.84 
L 103.22371 105.976134 
L 71.740909 105.976134 
z
" clip-path="url(#p7d37465836)" style="fill: #3b82f6"/>
   </g>
   <g id="patch_4">
    <path d="M 161.691769 260.84 
L 193.17457 260.84 
L 193.17457 80.16549 
L 161.691769 80.16549 
z
" clip-path="url(#p7d37465836)" style="fill: #3b82f6"/>
   </g>
   <g id="patch_5">
    <path d="M 251.642629 260.84 
L 283.12543 260.84 
L 283.12543 60.807507 
L 251.642629 60.807507 
z
" clip-path="url(#p7d37465836)" style="fill: #3b82f6"/>
   </g>
   <g id="patch_6">
    <path d="M 341.593489 260.84 
L 373.07629 260.84 
L 373.07629 41.449524 
L 341.593489 41.449524 
z
" clip-path="url(#p7d37465836)" style="fill: #3b82f6"/>
   </g>
   <g id="patch_7">
    <path d="M 103.22371 260.84 
L 134.706511 260.84 
L 134.706511 144.692101 
L 103.22371 144.692101 
z
" clip-path="url(#p7d37465836)" style="fill: #f59e0b"/>
   </g>
   <g id="patch_8">
    <path d="M 193.17457 260.84 
L 224.657371 260.84 
L 224.657371 125.334118 
L 193.17457 125.334118 
z
" clip-path="url(#p7d37465836)" style="fill: #f59e0b"/>
   </g>
   <g id="patch_9">
    <path d="M 283.12543 260.84 
L 314.608231 260.84 
L 314.608231 118.881457 
L 283.12543 118.881457 
z
" clip-path="url(#p7d37465836)" style="fill: #f59e0b"/>
   </g>
   <g id="patch_10">
    <path d="M 373.07629 260.84 
L 404.559091 260.84 
L 404.559091 105.976134 
L 373.07629 105.976134 
z
" clip-path="url(#p7d37465836)" style="fill: #f59e0b"/>
   </g>
   <g id="matplotlib.axis_1">
    <g id="xtick_1">
     <g id="line2d_1">
      <defs>
       <path id="me8e0d14d47" d="M 0 0 
L 0 3.5 
" style="stroke: #000000; stroke-width: 0.8"/>
      </defs>
      <g>
       <use xlink:href="#me8e0d14d47" x="103.22371" y="260.84" style="stroke: #000000; stroke-width: 0.8"/>
      </g>
     </g>
     <g id="text_1">
      <!-- Jan -->
      <g transform="translate(95.55496 275.330625) scale(0.1 -0.1)">
       <defs>
        <path id="IPAexGothic-4a" d="M 1819 4634 
L 1819 1234 
Q 1819 -31 763 -31 
Q 303 -31 -125 209 
L 84 644 
Q 378 447 694 447 
Q 1250 447 1250 1203 
L 1250 4634 
L 1819 4634 
z
" transform="scale(0.015625)"/>
        <path id="IPAexGothic-61" d="M 3156 63 
L 2672 63 
Q 2559 303 2531 556 
L 2509 556 
Q 2147 -25 1428 -25 
Q 934 -25 622 288 
Q 347 563 347 959 
Q 347 1947 2050 1997 
L 2478 2009 
L 2478 2175 
Q 2478 2509 2288 2700 
Q 2088 2900 1775 2900 
Q 1238 2900 969 2378 
L 494 2597 
Q 938 3328 1788 3328 
Q 2375 3328 2691 3000 
Q 2984 2706 2984 2169 
L 2984 997 
Q 2984 400 3156 63 
z
M 2491 1625 
L 2141 1619 
Q 903 1591 903 953 
Q 903 728 1050 581 
Q 1231 403 1525 403 
Q 1934 403 2234 703 
Q 2491 969 2491 1344 
L 2491 1625 
z
" transform="scale(0.015625)"/>
        <path id="IPAexGothic-6e" d="M 3328 63 
L 2778 63 
L 2778 2041 
Q 2778 2853 2106 2853 
Q 1428 2853 1113 2041 
L 1113 63 
L 563 63 
L 563 3250 
L 1075 3250 
L 1075 2675 
Q 1525 3316 2222 3316 
Q 3328 3316 3328 2072 
L 3328 63 
z
" transform="scale(0.015625)"/>
       </defs>
       <use xlink:href="#IPAexGothic-4a"/>
       <use xlink:href="#IPAexGothic-61" transform="translate(37.988281 0)"/>
       <use xlink:href="#IPAexGothic-6e" transform="translate(92.96875 0)"/>
      </g>
     </g>
    </g>
    <g id="xtick_2">
     <g id="line2d_2">
      <g>
       <use xlink:href="#me8e0d14d47" x="193.17457" y="260.84" style="stroke: #000000; stroke-width: 0.8"/>
      </g>
     </g>
     <g id="text_2">
      <!-- Feb -->
      <g transform="translate(184.351133 275.330625) scale(0.1 -0.1)">
       <defs>
        <path id="IPAexGothic-46" d="M 3469 4141 
L 1172 4141 
L 1172 2656 
L 3206 2656 
L 3206 2188 
L 1172 2188 
L 1172 63 
L 609 63 
L 609 4634 
L 3469 4634 
L 3469 4141 
z
" transform="scale(0.015625)"/>
        <path id="IPAexGothic-65" d="M 863 1594 
Q 891 1041 1209 722 
Q 1534 397 1997 397 
Q 2606 397 2963 966 
L 3322 728 
Q 2869 -31 1931 -31 
Q 1222 -31 766 422 
Q 306 884 306 1641 
Q 306 2444 788 2925 
Q 1216 3353 1856 3353 
Q 2459 3353 2866 2956 
Q 3322 2494 3322 1722 
L 3322 1594 
L 863 1594 
z
M 2756 1997 
Q 2709 2431 2450 2681 
Q 2194 2938 1844 2938 
Q 1438 2938 1150 2591 
Q 953 2356 894 1997 
L 2756 1997 
z
" transform="scale(0.015625)"/>
        <path id="IPAexGothic-62" d="M 1125 2731 
Q 1550 3341 2219 3341 
Q 2788 3341 3191 2938 
Q 3659 2469 3659 1644 
Q 3659 838 3191 372 
Q 2788 -31 2206 -31 
Q 1559 -31 1088 516 
L 1009 44 
L 581 44 
L 581 4794 
L 1125 4794 
L 1125 2731 
z
M 1125 1997 
L 1125 1253 
Q 1125 888 1528 600 
Q 1803 403 2119 403 
Q 2488 403 2744 659 
Q 3084 1009 3084 1631 
Q 3084 2194 2803 2553 
Q 2525 2900 2125 2900 
Q 1759 2900 1438 2578 
Q 1125 2266 1125 1997 
z
" transform="scale(0.015625)"/>
       </defs>
       <use xlink:href="#IPAexGothic-46"/>
       <use xlink:href="#IPAexGothic-65" transform="translate(57.177734 0)"/>
       <use xlink:href="#IPAexGothic-62" transform="translate(114.0625 0)"/>
      </g>
     </g>
    </g>
    <g id="xtick_3">
     <g id="line2d_3">
      <g>
       <use xlink:href="#me8e0d14d47" x="283.12543" y="260.84" style="stroke: #000000; stroke-width: 0.8"/>
      </g>
     </g>
     <g id="text_3">
      <!-- Mar -->
      <g transform="translate(274.016055 275.330625) scale(0.1 -0.1)">
       <defs>
        <path id="IPAexGothic-4d" d="M 5147 63 
L 4597 63 
L 4597 2534 
Q 4597 3281 4634 4134 
L 4609 4134 
Q 4356 3409 4066 2675 
L 3066 209 
L 2650 209 
L 1641 2725 
Q 1328 3506 1128 4141 
L 1103 4141 
Q 1141 3131 1141 2553 
L 1141 63 
L 609 63 
L 609 4634 
L 1416 4634 
L 2503 1944 
Q 2697 1472 2869 906 
L 2888 906 
Q 3028 1416 3234 1931 
L 4316 4634 
L 5147 4634 
L 5147 63 
z
" transform="scale(0.015625)"/>
        <path id="IPAexGothic-72" d="M 2309 3316 
L 2213 2769 
Q 2106 2791 2022 2791 
Q 1653 2791 1413 2444 
Q 1113 2006 1113 1675 
L 1113 63 
L 563 63 
L 563 3250 
L 1081 3250 
L 1056 2303 
L 1069 2303 
Q 1422 3341 2097 3341 
Q 2206 3341 2309 3316 
z
" transform="scale(0.015625)"/>
       </defs>
       <use xlink:href="#IPAexGothic-4d"/>
       <use xlink:href="#IPAexGothic-61" transform="translate(90.185547 0)"/>
       <use xlink:href="#IPAexGothic-72" transform="translate(145.166016 0)"/>
      </g>
     </g>
    </g>
    <g id="xtick_4">
     <g id="line2d_4">
      <g>
       <use xlink:href="#me8e0d14d47" x="373.07629" y="260.84" style="stroke: #000000; stroke-width: 0.8"/>
      </g>
     </g>
     <g id="text_4">
      <!-- Apr -->
      <g transform="translate(364.934102 275.330625) scale(0.1 -0.1)">
       <defs>
        <path id="IPAexGothic-41" d="M 4056 63 
L 3444 63 
L 2938 1409 
L 1100 1409 
L 603 63 
L -6 63 
L 1806 4666 
L 2259 4666 
L 4056 63 
z
M 2778 1863 
L 2316 3078 
Q 2125 3588 2028 4000 
L 2009 4000 
Q 1897 3563 1716 3078 
L 1263 1863 
L 2778 1863 
z
" transform="scale(0.015625)"/>
        <path id="IPAexGothic-70" d="M 1075 2688 
Q 1525 3341 2206 3341 
Q 2769 3341 3172 2938 
Q 3641 2469 3641 1644 
Q 3641 841 3178 372 
Q 2775 -31 2200 -31 
Q 1569 -31 1106 497 
L 1106 -1216 
L 563 -1216 
L 563 3250 
L 1075 3250 
L 1075 2688 
z
M 1106 1950 
L 1106 1291 
Q 1106 897 1516 600 
Q 1791 403 2106 403 
Q 2469 403 2725 659 
Q 3066 997 3066 1631 
Q 3066 2200 2784 2559 
Q 2503 2900 2100 2900 
Q 1656 2900 1338 2484 
Q 1106 2184 1106 1950 
z
" transform="scale(0.015625)"/>
       </defs>
       <use xlink:href="#IPAexGothic-41"/>
       <use xlink:href="#IPAexGothic-70" transform="translate(63.720703 0)"/>
       <use xlink:href="#IPAexGothic-72" transform="translate(125.830078 0)"/>
      </g>
     </g>
    </g>
   </g>
   <g id="matplotlib.axis_2">
    <g id="ytick_1">
     <g id="line2d_5">
      <path d="M 55.1 260.84 
L 421.2 260.84 
" clip-path="url(#p7d37465836)" style="fill: none; stroke: #000000; stroke-opacity: 0.2; stroke-width: 0.5; stroke-linecap: square"/>
     </g>
     <g id="line2d_6">
      <defs>
       <path id="mf6a363ef74" d="M 0 0 
L -3.5 0 
" style="stroke: #000000; stroke-width: 0.8"/>
      </defs>
      <g>
       <use xlink:href="#mf6a363ef74" x="55.1" y="260.84" style="stroke: #000000; stroke-width: 0.8"/>
      </g>
     </g>
     <g id="text_5">
      <!-- 0 -->
      <g transform="translate(41.801563 264.585312) scale(0.1 -0.1)">
       <defs>
        <path id="IPAexGothic-30" d="M 2038 4725 
Q 2881 4725 3334 3944 
Q 3694 3325 3694 2344 
Q 3694 1372 3334 741 
Q 2888 -31 2016 -31 
Q 1147 -31 700 741 
Q 341 1372 341 2350 
Q 341 3713 1000 4334 
Q 1419 4725 2038 4725 
z
M 2016 4266 
Q 1516 4266 1228 3759 
Q 934 3247 934 2344 
Q 934 1456 1222 947 
Q 1513 447 2016 447 
Q 2619 447 2909 1153 
Q 3100 1622 3100 2375 
Q 3100 3256 2806 3759 
Q 2509 4266 2016 4266 
z
" transform="scale(0.015625)"/>
       </defs>
       <use xlink:href="#IPAexGothic-30"/>
      </g>
     </g>
    </g>
    <g id="ytick_2">
     <g id="line2d_7">
      <path d="M 55.1 235.029356 
L 421.2 235.029356 
" clip-path="url(#p7d37465836)" style="fill: none; stroke: #000000; stroke-opacity: 0.2; stroke-width: 0.5; stroke-linecap: square"/>
     </g>
     <g id="line2d_8">
      <g>
       <use xlink:href="#mf6a363ef74" x="55.1" y="235.029356" style="stroke: #000000; stroke-width: 0.8"/>
      </g>
     </g>
     <g id="text_6">
      <!-- 20 -->
      <g transform="translate(35.503125 238.774668) scale(0.1 -0.1)">
       <defs>
        <path id="IPAexGothic-32" d="M 3659 63 
L 447 63 
L 447 594 
Q 825 1475 1894 2203 
L 2072 2322 
Q 2619 2697 2791 2906 
Q 2988 3153 2988 3444 
Q 2988 3772 2756 4003 
Q 2500 4259 2084 4259 
Q 1250 4259 991 3328 
L 497 3506 
Q 853 4725 2116 4725 
Q 2806 4725 3216 4316 
Q 3575 3947 3575 3425 
Q 3575 3038 3344 2722 
Q 3131 2416 2366 1938 
L 2231 1856 
Q 1256 1253 978 569 
L 3659 569 
L 3659 63 
z
" transform="scale(0.015625)"/>
       </defs>
       <use xlink:href="#IPAexGothic-32"/>
       <use xlink:href="#IPAexGothic-30" transform="translate(62.988281 0)"/>
      </g>
     </g>
    </g>
    <g id="ytick_3">
     <g id="line2d_9">
      <path d="M 55.1 209.218711 
L 421.2 209.218711 
" clip-path="url(#p7d37465836)" style="fill: none; stroke: #000000; stroke-opacity: 0.2; stroke-width: 0.5; stroke-linecap: square"/>
     </g>
     <g id="line2d_10">
      <g>
       <use xlink:href="#mf6a363ef74" x="55.1" y="209.218711" style="stroke: #000000; stroke-width: 0.8"/>
      </g>
     </g>
     <g id="text_7">
      <!-- 40 -->
      <g transform="translate(35.503125 212.964024) scale(0.1 -0.1)">
       <defs>
        <path id="IPAexGothic-34" d="M 3813 1159 
L 3059 1159 
L 3059 63 
L 2547 63 
L 2547 1159 
L 197 1159 
L 197 1672 
L 2456 4678 
L 3059 4678 
L 3059 1634 
L 3813 1634 
L 3813 1159 
z
M 2578 4109 
L 2559 4109 
Q 2278 3656 2003 3284 
L 759 1634 
L 2547 1634 
L 2547 3144 
Q 2547 3481 2578 4109 
z
" transform="scale(0.015625)"/>
       </defs>
       <use xlink:href="#IPAexGothic-34"/>
       <use xlink:href="#IPAexGothic-30" transform="translate(62.988281 0)"/>
      </g>
     </g>
    </g>
    <g id="ytick_4">
     <g id="line2d_11">
      <path d="M 55.1 183.408067 
L 421.2 183.408067 
" clip-path="url(#p7d37465836)" style="fill: none; stroke: #000000; stroke-opacity: 0.2; stroke-width: 0.5; stroke-linecap: square"/>
     </g>
     <g id="line2d_12">
      <g>
       <use xlink:href="#mf6a363ef74" x="55.1" y="183.408067" style="stroke: #000000; stroke-width: 0.8"/>
      </g>
     </g>
     <g id="text_8">
      <!-- 60 -->
      <g transform="translate(35.503125 187.15338) scale(0.1 -0.1)">
       <defs>
        <path id="IPAexGothic-36" d="M 1056 2328 
Q 1509 2981 2234 2981 
Q 2906 2981 3316 2513 
Q 3675 2106 3675 1522 
Q 3675 884 3272 434 
Q 2853 -31 2178 -31 
Q 1375 -31 922 581 
Q 481 1178 481 2228 
Q 481 3425 1013 4109 
Q 1494 4725 2272 4725 
Q 3191 4725 3609 4025 
L 3150 3775 
Q 2894 4266 2300 4266 
Q 1119 4266 1031 2328 
L 1056 2328 
z
M 2141 2547 
Q 1684 2547 1384 2206 
Q 1116 1900 1116 1541 
Q 1116 1156 1353 844 
Q 1672 428 2159 428 
Q 2669 428 2941 844 
Q 3125 1128 3125 1503 
Q 3125 1944 2881 2228 
Q 2600 2547 2141 2547 
z
" transform="scale(0.015625)"/>
       </defs>
       <use xlink:href="#IPAexGothic-36"/>
       <use xlink:href="#IPAexGothic-30" transform="translate(62.988281 0)"/>
      </g>
     </g>
    </g>
    <g id="ytick_5">
     <g id="line2d_13">
      <path d="M 55.1 157.597423 
L 421.2 157.597423 
" clip-path="url(#p7d37465836)" style="fill: none; stroke: #000000; stroke-opacity: 0.2; stroke-width: 0.5; stroke-linecap: square"/>
     </g>
     <g id="line2d_14">
      <g>
       <use xlink:href="#mf6a363ef74" x="55.1" y="157.597423" style="stroke: #000000; stroke-width: 0.8"/>
      </g>
     </g>
     <g id="text_9">
      <!-- 80 -->
      <g transform="translate(35.503125 161.342735) scale(0.1 -0.1)">
       <defs>
        <path id="IPAexGothic-38" d="M 2541 2425 
Q 3700 2031 3700 1197 
Q 3700 541 3100 197 
Q 2663 -56 2016 -56 
Q 1366 -56 928 197 
Q 347 531 347 1178 
Q 347 1988 1409 2381 
L 1409 2400 
Q 481 2734 481 3509 
Q 481 4100 981 4456 
Q 1406 4756 2019 4756 
Q 2703 4756 3131 4403 
Q 3553 4069 3553 3566 
Q 3553 2706 2541 2444 
L 2541 2425 
z
M 2022 2625 
Q 2997 2856 2997 3528 
Q 2997 3916 2675 4150 
Q 2413 4347 2016 4347 
Q 1606 4347 1331 4128 
Q 1050 3897 1050 3522 
Q 1050 3150 1350 2925 
Q 1494 2809 1722 2722 
Q 1984 2616 2022 2625 
z
M 1978 2209 
Q 922 1931 922 1216 
Q 922 775 1313 556 
Q 1606 391 2009 391 
Q 2575 391 2881 697 
Q 3106 922 3106 1250 
Q 3106 1594 2794 1850 
Q 2609 1994 2350 2100 
Q 2047 2222 1978 2209 
z
" transform="scale(0.015625)"/>
       </defs>
       <use xlink:href="#IPAexGothic-38"/>
       <use xlink:href="#IPAexGothic-30" transform="translate(62.988281 0)"/>
      </g>
     </g>
    </g>
    <g id="ytick_6">
     <g id="line2d_15">
      <path d="M 55.1 131.786779 
L 421.2 131.786779 
" clip-path="url(#p7d37465836)" style="fill: none; stroke: #000000; stroke-opacity: 0.2; stroke-width: 0.5; stroke-linecap: square"/>
     </g>
     <g id="line2d_16">
      <g>
       <use xlink:href="#mf6a363ef74" x="55.1" y="131.786779" style="stroke: #000000; stroke-width: 0.8"/>
      </g>
     </g>
     <g id="text_10">
      <!-- 100 -->
      <g transform="translate(29.204688 135.532091) scale(0.1 -0.1)">
       <defs>
        <path id="IPAexGothic-31" d="M 2463 63 
L 1900 63 
L 1900 4103 
Q 1372 3922 788 3797 
L 684 4231 
Q 1519 4441 2106 4731 
L 2463 4731 
L 2463 63 
z
" transform="scale(0.015625)"/>
       </defs>
       <use xlink:href="#IPAexGothic-31"/>
       <use xlink:href="#IPAexGothic-30" transform="translate(62.988281 0)"/>
       <use xlink:href="#IPAexGothic-30" transform="translate(125.976562 0)"/>
      </g>
     </g>
    </g>
    <g id="ytick_7">
     <g id="line2d_17">
      <path d="M 55.1 105.976134 
L 421.2 105.976134 
" clip-path="url(#p7d37465836)" style="fill: none; stroke: #000000; stroke-opacity: 0.2; stroke-width: 0.5; stroke-linecap: square"/>
     </g>
     <g id="line2d_18">
      <g>
       <use xlink:href="#mf6a363ef74" x="55.1" y="105.976134" style="stroke: #000000; stroke-width: 0.8"/>
      </g>
     </g>
     <g id="text_11">
      <!-- 120 -->
      <g transform="translate(29.204688 109.721447) scale(0.1 -0.1)">
       <use xlink:href="#IPAexGothic-31"/>
       <use xlink:href="#IPAexGothic-32" transform="translate(62.988281 0)"/>
       <use xlink:href="#IPAexGothic-30" transform="translate(125.976562 0)"/>
      </g>
     </g>
    </g>
    <g id="ytick_8">
     <g id="line2d_19">
      <path d="M 55.1 80.16549 
L 421.2 80.16549 
" clip-path="url(#p7d37465836)" style="fill: none; stroke: #000000; stroke-opacity: 0.2; stroke-width: 0.5; stroke-linecap: square"/>
     </g>
     <g id="line2d_20">
      <g>
       <use xlink:href="#mf6a363ef74" x="55.1" y="80.16549" style="stroke: #000000; stroke-width: 0.8"/>
      </g>
     </g>
     <g id="text_12">
      <!-- 140 -->
      <g transform="translate(29.204688 83.910803) scale(0.1 -0.1)">
       <use xlink:href="#IPAexGothic-31"/>
       <use xlink:href="#IPAexGothic-34" transform="translate(62.988281 0)"/>
       <use xlink:href="#IPAexGothic-30" transform="translate(125.976562 0)"/>
      </g>
     </g>
    </g>
    <g id="ytick_9">
     <g id="line2d_21">
      <path d="M 55.1 54.354846 
L 421.2 54.354846 
" clip-path="url(#p7d37465836)" style="fill: none; stroke: #000000; stroke-opacity: 0.2; stroke-width: 0.5; stroke-linecap: square"/>
     </g>
     <g id="line2d_22">
      <g>
       <use xlink:href="#mf6a363ef74" x="55.1" y="54.354846" style="stroke: #000000; stroke-width: 0.8"/>
      </g>
     </g>
     <g id="text_13">
      <!-- 160 -->
      <g transform="translate(29.204688 58.100158) scale(0.1 -0.1)">
       <use xlink:href="#IPAexGothic-31"/>
       <use xlink:href="#IPAexGothic-36" transform="translate(62.988281 0)"/>
       <use xlink:href="#IPAexGothic-30" transform="translate(125.976562 0)"/>
      </g>
     </g>
    </g>
    <g id="text_14">
     <!-- 売上（百万円） -->
     <g transform="translate(22.468688 196.06) rotate(-90) scale(0.144 -0.144)">
      <defs>
       <path id="IPAexGothic-58f2" d="M 2938 4544 
L 2938 5313 
L 3419 5313 
L 3419 4544 
L 5781 4544 
L 5781 4147 
L 3419 4147 
L 3419 3559 
L 5306 3559 
L 5306 3163 
L 1088 3163 
L 1088 3559 
L 2938 3559 
L 2938 4147 
L 609 4147 
L 609 4544 
L 2938 4544 
z
M 5684 2706 
L 5684 1522 
L 5216 1522 
L 5216 2316 
L 1178 2316 
L 1178 1478 
L 709 1478 
L 709 2706 
L 5684 2706 
z
M 531 -84 
Q 1494 91 1894 556 
Q 2213 913 2222 1972 
L 2688 1972 
Q 2678 756 2216 225 
Q 1794 -256 819 -506 
L 531 -84 
z
M 3622 1972 
L 4091 1972 
L 4091 353 
Q 4091 191 4181 153 
Q 4313 100 4684 100 
Q 5169 100 5294 159 
Q 5503 256 5513 1006 
L 5972 863 
Q 5944 -22 5691 -206 
Q 5503 -347 4659 -347 
Q 3981 -347 3809 -250 
Q 3622 -144 3622 178 
L 3622 1972 
z
" transform="scale(0.015625)"/>
       <path id="IPAexGothic-4e0a" d="M 3259 3366 
L 5475 3366 
L 5475 2913 
L 3259 2913 
L 3259 556 
L 5991 556 
L 5991 103 
L 391 103 
L 391 556 
L 2772 556 
L 2772 5050 
L 3259 5050 
L 3259 3366 
z
" transform="scale(0.015625)"/>
       <path id="IPAexGothic-ff08" d="M 5419 -434 
Q 4197 769 4197 2438 
Q 4197 4097 5419 5300 
L 5919 5300 
Q 4678 4078 4678 2425 
Q 4678 788 5919 -434 
L 5419 -434 
z
" transform="scale(0.015625)"/>
       <path id="IPAexGothic-767e" d="M 3119 3431 
L 5263 3431 
L 5263 -447 
L 4781 -447 
L 4781 -31 
L 1616 -31 
L 1616 -447 
L 1134 -447 
L 1134 3431 
L 2638 3431 
Q 2747 3838 2819 4403 
L 481 4403 
L 481 4825 
L 5916 4825 
L 5916 4403 
L 3350 4403 
Q 3250 3881 3144 3522 
L 3119 3431 
z
M 4781 3022 
L 1616 3022 
L 1616 1947 
L 4781 1947 
L 4781 3022 
z
M 1616 1550 
L 1616 372 
L 4781 372 
L 4781 1550 
L 1616 1550 
z
" transform="scale(0.015625)"/>
       <path id="IPAexGothic-4e07" d="M 2888 4316 
Q 2878 3816 2828 3128 
L 5369 3128 
Q 5284 984 5056 300 
Q 4950 -22 4750 -134 
Q 4556 -250 4181 -250 
Q 3659 -250 3091 -159 
L 3028 363 
Q 3638 225 4103 225 
Q 4456 225 4569 463 
Q 4797 906 4866 2700 
L 2784 2700 
Q 2534 575 934 -391 
L 591 -6 
Q 1900 716 2216 2200 
Q 2394 3041 2394 4316 
L 506 4316 
L 506 4756 
L 5888 4756 
L 5888 4316 
L 2888 4316 
z
" transform="scale(0.015625)"/>
       <path id="IPAexGothic-5186" d="M 5594 4806 
L 5594 322 
Q 5594 34 5491 -97 
Q 5366 -269 4959 -269 
Q 4469 -269 3897 -225 
L 3809 275 
Q 4378 206 4844 206 
Q 5106 206 5106 434 
L 5106 2119 
L 1281 2119 
L 1281 -359 
L 794 -359 
L 794 4806 
L 5594 4806 
z
M 1281 4366 
L 1281 2547 
L 2944 2547 
L 2944 4366 
L 1281 4366 
z
M 5106 2547 
L 5106 4366 
L 3413 4366 
L 3413 2547 
L 5106 2547 
z
" transform="scale(0.015625)"/>
       <path id="IPAexGothic-ff09" d="M 481 -434 
Q 1722 788 1722 2431 
Q 1722 4066 481 5300 
L 981 5300 
Q 2203 4097 2203 2431 
Q 2203 769 981 -434 
L 481 -434 
z
" transform="scale(0.015625)"/>
      </defs>
      <use xlink:href="#IPAexGothic-58f2"/>
      <use xlink:href="#IPAexGothic-4e0a" transform="translate(100 0)"/>
      <use xlink:href="#IPAexGothic-ff08" transform="translate(200 0)"/>
      <use xlink:href="#IPAexGothic-767e" transform="translate(300 0)"/>
      <use xlink:href="#IPAexGothic-4e07" transform="translate(400 0)"/>
      <use xlink:href="#IPAexGothic-5186" transform="translate(500 0)"/>
      <use xlink:href="#IPAexGothic-ff09" transform="translate(600 0)"/>
     </g>
    </g>
   </g>
   <g id="text_15">
    <!-- チャネル別売上の推移 -->
    <g transform="translate(151.75 24.48) scale(0.1728 -0.1728)">
     <defs>
      <path id="IPAexGothic-30c1" d="M 3088 2853 
L 3088 3981 
Q 2359 3847 1531 3797 
L 1288 4238 
Q 3200 4344 4553 4872 
L 4909 4456 
Q 4244 4216 3606 4078 
L 3606 2913 
L 5806 2913 
L 5806 2459 
L 3600 2459 
Q 3559 1422 3188 850 
Q 2722 138 1738 -256 
L 1347 153 
Q 2319 500 2709 1081 
Q 3031 1563 3081 2400 
L 597 2400 
L 597 2853 
L 3088 2853 
z
" transform="scale(0.015625)"/>
      <path id="IPAexGothic-30e3" d="M 2559 3903 
L 2803 2816 
L 4863 3169 
L 5191 2894 
Q 4672 1875 4103 1203 
L 3666 1447 
Q 4175 2013 4525 2688 
L 2900 2388 
L 3450 -116 
L 2969 -231 
L 2419 2297 
L 1172 2069 
L 1075 2516 
L 2328 2731 
L 2094 3809 
L 2559 3903 
z
" transform="scale(0.015625)"/>
      <path id="IPAexGothic-30cd" d="M 1288 3834 
L 4803 3834 
L 5066 3559 
Q 4419 2813 3466 2134 
L 3466 -294 
L 2953 -294 
L 2953 1800 
Q 1963 1203 1056 891 
L 731 1328 
Q 1797 1631 2844 2281 
Q 3675 2794 4253 3381 
L 1288 3381 
L 1288 3834 
z
M 3669 4031 
Q 3094 4459 2291 4850 
L 2572 5222 
Q 3334 4884 4000 4428 
L 3669 4031 
z
M 5441 838 
Q 4781 1413 3859 1966 
L 4159 2316 
Q 5078 1819 5825 1247 
L 5441 838 
z
" transform="scale(0.015625)"/>
      <path id="IPAexGothic-30eb" d="M 353 331 
Q 1313 994 1544 2022 
Q 1684 2650 1684 4397 
L 2203 4397 
L 2203 4153 
L 2203 4116 
Q 2203 2259 1934 1491 
Q 1619 588 744 -38 
L 353 331 
z
M 3125 4666 
L 3650 4666 
L 3650 769 
Q 4875 1488 5672 2734 
L 6000 2278 
Q 5075 966 3516 63 
L 3125 359 
L 3125 4666 
z
" transform="scale(0.015625)"/>
      <path id="IPAexGothic-5225" d="M 1922 2963 
Q 1906 2453 1894 2209 
L 3341 2209 
Q 3313 550 3175 63 
Q 3059 -366 2413 -366 
Q 2072 -366 1753 -313 
L 1691 134 
Q 2084 63 2413 63 
Q 2694 63 2759 319 
Q 2856 722 2888 1753 
Q 2888 1800 2894 1819 
L 1863 1819 
Q 1709 350 700 -481 
L 353 -147 
Q 1075 403 1306 1256 
Q 1450 1822 1478 2963 
L 700 2963 
L 700 4984 
L 3278 4984 
L 3278 2963 
L 1922 2963 
z
M 1141 4588 
L 1141 3353 
L 2838 3353 
L 2838 4588 
L 1141 4588 
z
M 3972 4597 
L 4425 4597 
L 4425 1159 
L 3972 1159 
L 3972 4597 
z
M 5309 5044 
L 5763 5044 
L 5763 191 
Q 5763 -141 5581 -263 
Q 5438 -359 5116 -359 
Q 4688 -359 4253 -313 
L 4156 178 
Q 4625 116 5072 116 
Q 5309 116 5309 353 
L 5309 5044 
z
" transform="scale(0.015625)"/>
      <path id="IPAexGothic-306e" d="M 3119 469 
Q 5275 766 5275 2425 
Q 5275 3453 4413 3925 
Q 4041 4116 3547 4159 
Q 3394 2525 2850 1400 
Q 2322 306 1722 306 
Q 1384 306 1084 666 
Q 609 1244 609 2003 
Q 609 3025 1397 3794 
Q 2184 4563 3431 4563 
Q 4306 4563 4928 4122 
Q 5813 3506 5813 2425 
Q 5813 438 3431 6 
L 3119 469 
z
M 3053 4147 
Q 2378 4044 1891 3641 
Q 1097 2981 1097 1991 
Q 1097 1366 1434 978 
Q 1581 813 1719 813 
Q 2022 813 2416 1625 
Q 2909 2638 3053 4147 
z
" transform="scale(0.015625)"/>
      <path id="IPAexGothic-63a8" d="M 3244 4063 
L 4244 4063 
Q 4481 4578 4653 5228 
L 5125 5100 
Q 4913 4484 4691 4063 
L 5906 4063 
L 5906 3666 
L 4647 3666 
L 4647 2822 
L 5747 2822 
L 5747 2438 
L 4647 2438 
L 4647 1594 
L 5747 1594 
L 5747 1216 
L 4647 1216 
L 4647 319 
L 6047 319 
L 6047 -91 
L 3244 -91 
L 3244 -481 
L 2816 -481 
L 2816 3188 
L 2791 3128 
Q 2581 2744 2366 2463 
L 2084 2797 
Q 2813 3728 3166 5284 
L 3616 5144 
Q 3431 4500 3244 4063 
z
M 3244 319 
L 4231 319 
L 4231 1216 
L 3244 1216 
L 3244 319 
z
M 3244 1594 
L 4231 1594 
L 4231 2438 
L 3244 2438 
L 3244 1594 
z
M 3244 2822 
L 4231 2822 
L 4231 3666 
L 3244 3666 
L 3244 2822 
z
M 1184 4084 
L 1184 5313 
L 1613 5313 
L 1613 4084 
L 2328 4084 
L 2328 3669 
L 1613 3669 
L 1613 2241 
Q 1997 2341 2334 2453 
L 2359 2069 
Q 1809 1884 1631 1831 
L 1613 1825 
L 1613 44 
Q 1613 -197 1522 -294 
Q 1413 -403 1081 -403 
Q 738 -403 519 -366 
L 441 97 
Q 741 38 978 38 
Q 1184 38 1184 219 
L 1184 1703 
L 1147 1697 
Q 734 1581 409 1509 
L 275 1941 
Q 722 2022 1138 2119 
Q 1147 2122 1166 2125 
Q 1178 2128 1184 2131 
L 1184 3669 
L 372 3669 
L 372 4084 
L 1184 4084 
z
" transform="scale(0.015625)"/>
      <path id="IPAexGothic-79fb" d="M 4691 2419 
L 5844 2419 
L 6069 2188 
Q 5503 1156 4763 513 
Q 4081 -75 2975 -469 
L 2681 -97 
Q 3684 194 4384 728 
Q 4097 1056 3731 1356 
Q 3381 1053 2919 819 
L 2669 1150 
Q 3853 1772 4500 2878 
L 4909 2772 
Q 4772 2528 4691 2419 
z
M 4409 2034 
Q 4219 1803 4000 1588 
Q 4375 1341 4703 1009 
Q 5219 1488 5497 2034 
L 4409 2034 
z
M 1350 2328 
Q 1009 1334 513 659 
L 263 1081 
Q 966 2022 1266 3128 
L 366 3128 
L 366 3531 
L 1350 3531 
L 1350 4400 
Q 919 4322 575 4266 
L 366 4644 
Q 1506 4809 2378 5144 
L 2700 4747 
Q 2238 4600 1784 4491 
L 1784 3531 
L 2616 3531 
L 2616 3128 
L 1784 3128 
L 1784 2688 
Q 2306 2266 2719 1803 
L 2444 1356 
Q 2106 1838 1784 2181 
L 1784 -450 
L 1350 -450 
L 1350 2328 
z
M 4275 4800 
L 5491 4800 
L 5709 4609 
Q 4763 2809 2875 2047 
L 2606 2388 
Q 3534 2722 4134 3244 
Q 3869 3519 3450 3794 
Q 3184 3569 2859 3359 
L 2591 3666 
Q 3578 4259 4056 5288 
L 4481 5191 
Q 4406 5034 4275 4800 
z
M 4019 4416 
Q 3856 4194 3700 4038 
Q 4128 3759 4372 3553 
L 4416 3513 
Q 4884 3991 5119 4416 
L 4019 4416 
z
" transform="scale(0.015625)"/>
     </defs>
     <use xlink:href="#IPAexGothic-30c1"/>
     <use xlink:href="#IPAexGothic-30e3" transform="translate(100 0)"/>
     <use xlink:href="#IPAexGothic-30cd" transform="translate(200 0)"/>
     <use xlink:href="#IPAexGothic-30eb" transform="translate(300 0)"/>
     <use xlink:href="#IPAexGothic-5225" transform="translate(400 0)"/>
     <use xlink:href="#IPAexGothic-58f2" transform="translate(500 0)"/>
     <use xlink:href="#IPAexGothic-4e0a" transform="translate(600 0)"/>
     <use xlink:href="#IPAexGothic-306e" transform="translate(700 0)"/>
     <use xlink:href="#IPAexGothic-63a8" transform="translate(800 0)"/>
     <use xlink:href="#IPAexGothic-79fb" transform="translate(900 0)"/>
    </g>
   </g>
   <g id="legend_1">
    <g id="patch_11">
     <path d="M 308.4 85.4175 
L 406.8 85.4175 
Q 409.2 85.4175 409.2 83.0175 
L 409.2 44.88 
Q 409.2 42.48 406.8 42.48 
L 308.4 42.48 
Q 306 42.48 306 44.88 
L 306 83.0175 
Q 306 85.4175 308.4 85.4175 
z
" style="fill: #ffffff; opacity: 0.8; stroke: #cccccc; stroke-linejoin: miter"/>
    </g>
    <g id="patch_12">
     <path d="M 310.8 56.26875 
L 334.8 56.26875 
L 334.8 47.86875 
L 310.8 47.86875 
z
" style="fill: #3b82f6"/>
    </g>
    <g id="text_16">
     <!-- オンライン -->
     <g transform="translate(344.4 56.26875) scale(0.12 -0.12)">
      <defs>
       <path id="IPAexGothic-30aa" d="M 3578 5000 
L 4078 5000 
L 4109 3719 
L 5678 3719 
L 5678 3272 
L 4122 3272 
L 4188 397 
Q 4197 -147 3553 -147 
Q 3125 -147 2663 -69 
L 2553 463 
Q 3088 359 3425 359 
Q 3688 359 3688 616 
L 3663 2288 
L 3681 3106 
Q 3203 2188 2456 1469 
Q 1791 828 994 425 
L 634 834 
Q 2294 1588 3303 3272 
L 878 3272 
L 878 3719 
L 3609 3719 
L 3578 5000 
z
" transform="scale(0.015625)"/>
       <path id="IPAexGothic-30f3" d="M 2444 3084 
Q 1816 3656 1056 4084 
L 1381 4519 
Q 2063 4191 2816 3559 
L 2444 3084 
z
M 1100 609 
Q 3984 1106 5216 3828 
L 5619 3469 
Q 4413 794 1434 103 
L 1100 609 
z
" transform="scale(0.015625)"/>
       <path id="IPAexGothic-30e9" d="M 1447 4709 
L 4922 4709 
L 4922 4234 
L 1447 4234 
L 1447 4709 
z
M 897 3303 
L 5172 3303 
L 5478 3013 
Q 5069 1669 4219 875 
Q 3475 181 2306 -181 
L 1972 294 
Q 4150 784 4834 2828 
L 897 2828 
L 897 3303 
z
" transform="scale(0.015625)"/>
       <path id="IPAexGothic-30a4" d="M 3131 -231 
L 3131 2875 
Q 2091 2088 1106 1656 
L 781 2059 
Q 3016 3000 4469 4916 
L 4916 4641 
Q 4384 3938 3675 3316 
L 3675 -231 
L 3131 -231 
z
" transform="scale(0.015625)"/>
      </defs>
      <use xlink:href="#IPAexGothic-30aa"/>
      <use xlink:href="#IPAexGothic-30f3" transform="translate(100 0)"/>
      <use xlink:href="#IPAexGothic-30e9" transform="translate(200 0)"/>
      <use xlink:href="#IPAexGothic-30a4" transform="translate(300 0)"/>
      <use xlink:href="#IPAexGothic-30f3" transform="translate(400 0)"/>
     </g>
    </g>
    <g id="patch_13">
     <path d="M 310.8 78.3375 
L 334.8 78.3375 
L 334.8 69.9375 
L 310.8 69.9375 
z
" style="fill: #f59e0b"/>
    </g>
    <g id="text_17">
     <!-- 店舗 -->
     <g transform="translate(344.4 78.3375) scale(0.12 -0.12)">
      <defs>
       <path id="IPAexGothic-5e97" d="M 3516 4500 
L 5756 4500 
L 5756 4084 
L 1353 4084 
L 1353 2869 
Q 1353 1569 1206 816 
Q 1081 169 731 -403 
L 347 -38 
Q 731 625 828 1422 
Q 884 1950 884 2875 
L 884 4500 
L 3028 4500 
L 3028 5313 
L 3516 5313 
L 3516 4500 
z
M 3572 3144 
L 5619 3144 
L 5619 2747 
L 3572 2747 
L 3572 1875 
L 5338 1875 
L 5338 -447 
L 4884 -447 
L 4884 -141 
L 2234 -141 
L 2234 -447 
L 1781 -447 
L 1781 1875 
L 3119 1875 
L 3119 3931 
L 3572 3931 
L 3572 3144 
z
M 2234 1491 
L 2234 244 
L 4884 244 
L 4884 1491 
L 2234 1491 
z
" transform="scale(0.015625)"/>
       <path id="IPAexGothic-8217" d="M 1419 3309 
L 1419 3925 
L 1828 3925 
L 1828 3309 
L 2572 3309 
L 2572 2950 
L 1828 2950 
L 1828 2394 
L 2800 2394 
L 2800 2022 
L 338 2022 
L 338 2394 
L 1419 2394 
L 1419 2950 
L 691 2950 
L 691 3272 
Q 613 3184 400 2981 
L 184 3347 
Q 1041 4147 1503 5338 
L 1900 5197 
Q 1797 4953 1778 4916 
Q 2378 4444 2928 3853 
L 2678 3450 
Q 2084 4144 1609 4569 
Q 1263 3900 728 3309 
L 1419 3309 
z
M 4250 3419 
L 4250 4013 
L 2981 4013 
L 2981 4397 
L 4250 4397 
L 4250 5313 
L 4659 5313 
L 4659 4397 
L 6072 4397 
L 6072 4013 
L 4659 4013 
L 4659 3419 
L 5847 3419 
L 5847 19 
Q 5847 -397 5400 -397 
Q 5209 -397 4966 -366 
L 4909 56 
Q 5116 13 5291 13 
Q 5450 13 5450 191 
L 5450 1031 
L 4644 1031 
L 4644 -288 
L 4259 -288 
L 4259 1031 
L 3500 1031 
L 3500 -447 
L 3103 -447 
L 3103 3419 
L 4250 3419 
z
M 4259 3047 
L 3500 3047 
L 3500 2413 
L 4259 2413 
L 4259 3047 
z
M 4644 3047 
L 4644 2413 
L 5450 2413 
L 5450 3047 
L 4644 3047 
z
M 4259 2047 
L 3500 2047 
L 3500 1391 
L 4259 1391 
L 4259 2047 
z
M 4644 2047 
L 4644 1391 
L 5450 1391 
L 5450 2047 
L 4644 2047 
z
M 2578 1550 
L 2578 -384 
L 2163 -384 
L 2163 -128 
L 1022 -128 
L 1022 -447 
L 606 -447 
L 606 1550 
L 2578 1550 
z
M 1022 1178 
L 1022 244 
L 2163 244 
L 2163 1178 
L 1022 1178 
z
M 5438 4409 
Q 5247 4741 4953 5025 
L 5272 5228 
Q 5563 4959 5778 4641 
L 5438 4409 
z
" transform="scale(0.015625)"/>
      </defs>
      <use xlink:href="#IPAexGothic-5e97"/>
      <use xlink:href="#IPAexGothic-8217" transform="translate(100 0)"/>
     </g>
    </g>
   </g>
  </g>
 </g>
 <defs>
  <clipPath id="p7d37465836">
   <rect x="55.1" y="30.48" width="366.1" height="230.36"/>
  </clipPath>
 </defs>
</svg>
