<?xml version="1.0" encoding="utf-8" standalone="no"?>
<!DOCTYPE svg PUBLIC "-//W3C//DTD SVG 1.1//EN"
  "http://www.w3.org/Graphics/SVG/1.1/DTD/svg11.dtd">
<svg xmlns:xlink="http://www.w3.org/1999/xlink" width="432pt" height="324pt" viewBox="0 0 432 324" xmlns="http://www.w3.org/2000/svg" version="1.1">
 <metadata>
  <rdf:RDF xmlns:dc="http://purl.org/dc/elements/1.1/" xmlns:cc="http://creativecommons.org/ns#" xmlns:rdf="http://www.w3.org/1999/02/22-rdf-syntax-ns#">
   <cc:Work>
    <dc:type rdf:resource="http://purl.org/dc/dcmitype/StillImage"/>
    <dc:date>2025-10-29T09:07:45.209238</dc:date>
    <dc:format>image/svg+xml</dc:format>
    <dc:creator>
     <cc:Agent>
      <dc:title>Matplotlib v3.10.7, https://matplotlib.org/</dc:title>
     </cc:Agent>
    </dc:creator>
   </cc:Work>
  </rdf:RDF>
 </metadata>
 <defs>
  <style type="text/css">*{stroke-linejoin: round; stroke-linecap: butt}</style>
 </defs>
 <g id="figure_1">
  <g id="patch_1">
   <path d="M 0 324 
L 432 324 
L 432 0 
L 0 0 
z
" style="fill: #ffffff"/>
  </g>
  <g id="axes_1">
   <g id="patch_2">
    <path d="M 87.73 277.97875 
L 413.292 277.97875 
L 413.292 30.48 
L 87.73 30.48 
z
" style="fill: #ffffff"/>
   </g>
   <g id="patch_3">
    <path d="M 87.73 41.729943 
L 387.24704 41.729943 
L 387.24704 79.229754 
L 87.73 79.229754 
z
" clip-path="url(#pc73fa314e5)" style="fill: #0ea5e9"/>
   </g>
   <g id="patch_4">
    <path d="M 87.73 88.604706 
L 361.20208 88.604706 
L 361.20208 126.104517 
L 87.73 126.104517 
z
" clip-path="url(#pc73fa314e5)" style="fill: #0ea5e9"/>
   </g>
   <g id="patch_5">
    <path d="M 87.73 135.47947 
L 400.26952 135.47947 
L 400.26952 172.97928 
L 87.73 172.97928 
z
" clip-path="url(#pc73fa314e5)" style="fill: #0ea5e9"/>
   </g>
   <g id="patch_6">
    <path d="M 87.73 182.354233 
L 354.69084 182.354233 
L 354.69084 219.854044 
L 87.73 219.854044 
z
" clip-path="url(#pc73fa314e5)" style="fill: #0ea5e9"/>
   </g>
   <g id="patch_7">
    <path d="M 87.73 229.228996 
L 380.7358 229.228996 
L 380.7358 266.728807 
L 87.73 266.728807 
z
" clip-path="url(#pc73fa314e5)" style="fill: #0ea5e9"/>
   </g>
   <g id="matplotlib.axis_1">
    <g id="xtick_1">
     <g id="line2d_1">
      <path d="M 87.73 277.97875 
L 87.73 30.48 
" clip-path="url(#pc73fa314e5)" style="fill: none; stroke: #000000; stroke-opacity: 0.2; stroke-width: 0.5; stroke-linecap: square"/>
     </g>
     <g id="line2d_2">
      <defs>
       <path id="mc472169f4c" d="M 0 0 
L 0 3.5 
" style="stroke: #000000; stroke-width: 0.8"/>
      </defs>
      <g>
       <use xlink:href="#mc472169f4c" x="87.73" y="277.97875" style="stroke: #000000; stroke-width: 0.8"/>
      </g>
     </g>
     <g id="text_1">
      <!-- 0 -->
      <g transform="translate(84.580781 292.469375) scale(0.1 -0.1)">
       <defs>
        <path id="IPAexGothic-30" d="M 2038 4725 
Q 2881 4725 3334 3944 
Q 3694 3325 3694 2344 
Q 3694 1372 3334 741 
Q 2888 -31 2016 -31 
Q 1147 -31 700 741 
Q 341 1372 341 2350 
Q 341 3713 1000 4334 
Q 1419 4725 2038 4725 
z
M 2016 4266 
Q 1516 4266 1228 3759 
Q 934 3247 934 2344 
Q 934 1456 1222 947 
Q 1513 447 2016 447 
Q 2619 447 2909 1153 
Q 3100 1622 3100 2375 
Q 3100 3256 2806 3759 
Q 2509 4266 2016 4266 
z
" transform="scale(0.015625)"/>
       </defs>
       <use xlink:href="#IPAexGothic-30"/>
      </g>
     </g>
    </g>
    <g id="xtick_2">
     <g id="line2d_3">
      <path d="M 152.8424 277.97875 
L 152.8424 30.48 
" clip-path="url(#pc73fa314e5)" style="fill: none; stroke: #000000; stroke-opacity: 0.2; stroke-width: 0.5; stroke-linecap: square"/>
     </g>
     <g id="line2d_4">
      <g>
       <use xlink:href="#mc472169f4c" x="152.8424" y="277.97875" style="stroke: #000000; stroke-width: 0.8"/>
      </g>
     </g>
     <g id="text_2">
      <!-- 1 -->
      <g transform="translate(149.693181 292.469375) scale(0.1 -0.1)">
       <defs>
        <path id="IPAexGothic-31" d="M 2463 63 
L 1900 63 
L 1900 4103 
Q 1372 3922 788 3797 
L 684 4231 
Q 1519 4441 2106 4731 
L 2463 4731 
L 2463 63 
z
" transform="scale(0.015625)"/>
       </defs>
       <use xlink:href="#IPAexGothic-31"/>
      </g>
     </g>
    </g>
    <g id="xtick_3">
     <g id="line2d_5">
      <path d="M 217.9548 277.97875 
L 217.9548 30.48 
" clip-path="url(#pc73fa314e5)" style="fill: none; stroke: #000000; stroke-opacity: 0.2; stroke-width: 0.5; stroke-linecap: square"/>
     </g>
     <g id="line2d_6">
      <g>
       <use xlink:href="#mc472169f4c" x="217.9548" y="277.97875" style="stroke: #000000; stroke-width: 0.8"/>
      </g>
     </g>
     <g id="text_3">
      <!-- 2 -->
      <g transform="translate(214.805581 292.469375) scale(0.1 -0.1)">
       <defs>
        <path id="IPAexGothic-32" d="M 3659 63 
L 447 63 
L 447 594 
Q 825 1475 1894 2203 
L 2072 2322 
Q 2619 2697 2791 2906 
Q 2988 3153 2988 3444 
Q 2988 3772 2756 4003 
Q 2500 4259 2084 4259 
Q 1250 4259 991 3328 
L 497 3506 
Q 853 4725 2116 4725 
Q 2806 4725 3216 4316 
Q 3575 3947 3575 3425 
Q 3575 3038 3344 2722 
Q 3131 2416 2366 1938 
L 2231 1856 
Q 1256 1253 978 569 
L 3659 569 
L 3659 63 
z
" transform="scale(0.015625)"/>
       </defs>
       <use xlink:href="#IPAexGothic-32"/>
      </g>
     </g>
    </g>
    <g id="xtick_4">
     <g id="line2d_7">
      <path d="M 283.0672 277.97875 
L 283.0672 30.48 
" clip-path="url(#pc73fa314e5)" style="fill: none; stroke: #000000; stroke-opacity: 0.2; stroke-width: 0.5; stroke-linecap: square"/>
     </g>
     <g id="line2d_8">
      <g>
       <use xlink:href="#mc472169f4c" x="283.0672" y="277.97875" style="stroke: #000000; stroke-width: 0.8"/>
      </g>
     </g>
     <g id="text_4">
      <!-- 3 -->
      <g transform="translate(279.917981 292.469375) scale(0.1 -0.1)">
       <defs>
        <path id="IPAexGothic-33" d="M 2381 2419 
Q 3506 2216 3506 1278 
Q 3506 716 3128 356 
Q 2709 -31 1944 -31 
Q 797 -31 288 881 
L 756 1131 
Q 1109 441 1938 441 
Q 2425 441 2694 691 
Q 2950 928 2950 1291 
Q 2950 1719 2566 1978 
Q 2216 2213 1644 2213 
L 1363 2213 
L 1363 2669 
L 1656 2669 
Q 2231 2669 2534 2888 
Q 2859 3119 2859 3509 
Q 2859 3934 2494 4138 
Q 2259 4278 1931 4278 
Q 1238 4278 903 3578 
L 434 3803 
Q 897 4725 1938 4725 
Q 2597 4725 3006 4394 
Q 3416 4069 3416 3534 
Q 3416 3028 3019 2706 
Q 2763 2500 2381 2444 
L 2381 2419 
z
" transform="scale(0.015625)"/>
       </defs>
       <use xlink:href="#IPAexGothic-33"/>
      </g>
     </g>
    </g>
    <g id="xtick_5">
     <g id="line2d_9">
      <path d="M 348.1796 277.97875 
L 348.1796 30.48 
" clip-path="url(#pc73fa314e5)" style="fill: none; stroke: #000000; stroke-opacity: 0.2; stroke-width: 0.5; stroke-linecap: square"/>
     </g>
     <g id="line2d_10">
      <g>
       <use xlink:href="#mc472169f4c" x="348.1796" y="277.97875" style="stroke: #000000; stroke-width: 0.8"/>
      </g>
     </g>
     <g id="text_5">
      <!-- 4 -->
      <g transform="translate(345.030381 292.469375) scale(0.1 -0.1)">
       <defs>
        <path id="IPAexGothic-34" d="M 3813 1159 
L 3059 1159 
L 3059 63 
L 2547 63 
L 2547 1159 
L 197 1159 
L 197 1672 
L 2456 4678 
L 3059 4678 
L 3059 1634 
L 3813 1634 
L 3813 1159 
z
M 2578 4109 
L 2559 4109 
Q 2278 3656 2003 3284 
L 759 1634 
L 2547 1634 
L 2547 3144 
Q 2547 3481 2578 4109 
z
" transform="scale(0.015625)"/>
       </defs>
       <use xlink:href="#IPAexGothic-34"/>
      </g>
     </g>
    </g>
    <g id="xtick_6">
     <g id="line2d_11">
      <path d="M 413.292 277.97875 
L 413.292 30.48 
" clip-path="url(#pc73fa314e5)" style="fill: none; stroke: #000000; stroke-opacity: 0.2; stroke-width: 0.5; stroke-linecap: square"/>
     </g>
     <g id="line2d_12">
      <g>
       <use xlink:href="#mc472169f4c" x="413.292" y="277.97875" style="stroke: #000000; stroke-width: 0.8"/>
      </g>
     </g>
     <g id="text_6">
      <!-- 5 -->
      <g transform="translate(410.142781 292.469375) scale(0.1 -0.1)">
       <defs>
        <path id="IPAexGothic-35" d="M 1178 2603 
Q 1634 2963 2172 2963 
Q 2816 2963 3241 2528 
Q 3638 2113 3638 1497 
Q 3638 938 3297 513 
Q 2869 -31 2031 -31 
Q 959 -31 469 784 
L 938 1028 
Q 1309 434 2013 434 
Q 2466 434 2769 716 
Q 3081 1013 3081 1503 
Q 3081 1966 2806 2241 
Q 2519 2528 2056 2528 
Q 1406 2528 1072 2028 
L 591 2091 
L 884 4634 
L 3406 4634 
L 3406 4153 
L 1341 4153 
L 1134 2603 
L 1178 2603 
z
" transform="scale(0.015625)"/>
       </defs>
       <use xlink:href="#IPAexGothic-35"/>
      </g>
     </g>
    </g>
    <g id="text_7">
     <!-- 満足度 (5 点満点) -->
     <g transform="translate(194.093375 310.211125) scale(0.144 -0.144)">
      <defs>
       <path id="IPAexGothic-6e80" d="M 4106 3072 
L 4106 2578 
L 5753 2578 
L 5753 50 
Q 5753 -397 5191 -397 
Q 4763 -397 4409 -359 
L 4347 97 
Q 4794 38 5106 38 
Q 5325 38 5325 281 
L 5325 2206 
L 4100 2206 
L 4100 959 
L 4509 959 
L 4509 1853 
L 4900 1853 
L 4900 588 
L 3300 588 
L 3300 178 
L 2909 178 
L 2909 1853 
L 3300 1853 
L 3300 959 
L 3703 959 
L 3703 2206 
L 2519 2206 
L 2519 -447 
L 2091 -447 
L 2091 2578 
L 3691 2578 
L 3691 3072 
L 1778 3072 
L 1778 3456 
L 2916 3456 
L 2916 4122 
L 1944 4122 
L 1944 4494 
L 2916 4494 
L 2916 5313 
L 3356 5313 
L 3356 4494 
L 4372 4494 
L 4372 5313 
L 4813 5313 
L 4813 4494 
L 5844 4494 
L 5844 4122 
L 4813 4122 
L 4813 3456 
L 6034 3456 
L 6034 3072 
L 4106 3072 
z
M 4372 4122 
L 3356 4122 
L 3356 3456 
L 4372 3456 
L 4372 4122 
z
M 1413 3903 
Q 1081 4359 556 4769 
L 856 5100 
Q 1384 4700 1734 4275 
L 1413 3903 
z
M 1228 2381 
Q 828 2872 325 3256 
L 619 3591 
Q 1003 3322 1553 2753 
L 1228 2381 
z
M 375 -84 
Q 922 806 1297 1906 
L 1669 1619 
Q 1328 553 759 -428 
L 375 -84 
z
" transform="scale(0.015625)"/>
       <path id="IPAexGothic-8db3" d="M 3431 263 
Q 3959 206 4631 206 
Q 5259 206 6084 250 
Q 5969 44 5906 -256 
Q 5184 -275 4816 -275 
Q 3334 -275 2681 -31 
Q 2022 222 1594 859 
Q 1334 184 741 -497 
L 434 -122 
Q 1263 791 1484 2319 
L 1944 2216 
Q 1859 1697 1753 1331 
Q 2175 566 2963 353 
L 2963 2766 
L 1631 2766 
L 1631 2478 
L 1156 2478 
L 1156 4856 
L 5234 4856 
L 5234 2478 
L 4759 2478 
L 4759 2766 
L 3431 2766 
L 3431 1831 
L 5516 1831 
L 5516 1422 
L 3431 1422 
L 3431 263 
z
M 1631 4447 
L 1631 3169 
L 4759 3169 
L 4759 4447 
L 1631 4447 
z
" transform="scale(0.015625)"/>
       <path id="IPAexGothic-5ea6" d="M 3516 4622 
L 5794 4622 
L 5794 4231 
L 1278 4231 
L 1278 3547 
L 2328 3547 
L 2328 4041 
L 2759 4041 
L 2759 3547 
L 4097 3547 
L 4097 4041 
L 4525 4041 
L 4525 3547 
L 5825 3547 
L 5825 3163 
L 4525 3163 
L 4525 2266 
L 2328 2266 
L 2328 3163 
L 1278 3163 
L 1278 2747 
Q 1278 1434 1131 775 
Q 1006 203 606 -441 
L 269 -50 
Q 653 541 763 1381 
Q 825 1869 825 2747 
L 825 4622 
L 3034 4622 
L 3034 5313 
L 3516 5313 
L 3516 4622 
z
M 2759 3163 
L 2759 2619 
L 4097 2619 
L 4097 3163 
L 2759 3163 
z
M 3609 263 
Q 2784 -231 1472 -494 
L 1222 -97 
Q 2444 63 3213 491 
Q 2544 909 2119 1522 
L 1575 1522 
L 1575 1900 
L 4897 1900 
L 5125 1700 
Q 4628 994 3994 516 
Q 4769 200 5925 56 
L 5638 -397 
Q 4434 -163 3609 263 
z
M 2606 1522 
Q 2984 1044 3578 716 
Q 4163 1119 4422 1522 
L 2606 1522 
z
" transform="scale(0.015625)"/>
       <path id="IPAexGothic-20" transform="scale(0.015625)"/>
       <path id="IPAexGothic-28" d="M 1928 -1016 
L 1653 -1166 
Q 488 69 488 1875 
Q 488 3678 1653 4909 
L 1928 4763 
Q 1006 3522 1006 1881 
Q 1006 203 1928 -1016 
z
" transform="scale(0.015625)"/>
       <path id="IPAexGothic-70b9" d="M 3331 4372 
L 5728 4372 
L 5728 3944 
L 3331 3944 
L 3331 3231 
L 5288 3231 
L 5288 1338 
L 1122 1338 
L 1122 3231 
L 2850 3231 
L 2850 5197 
L 3331 5197 
L 3331 4372 
z
M 1563 2834 
L 1563 1734 
L 4847 1734 
L 4847 2834 
L 1563 2834 
z
M 494 -166 
Q 984 353 1288 1094 
L 1709 928 
Q 1378 81 897 -488 
L 494 -166 
z
M 2466 -434 
Q 2391 275 2216 884 
L 2650 984 
Q 2866 366 2966 -325 
L 2466 -434 
z
M 3866 -331 
Q 3681 384 3388 947 
L 3809 1088 
Q 4119 538 4341 -153 
L 3866 -331 
z
M 5569 -353 
Q 5088 466 4622 978 
L 5013 1191 
Q 5603 578 6009 -63 
L 5569 -353 
z
" transform="scale(0.015625)"/>
       <path id="IPAexGothic-29" d="M 466 4909 
Q 1638 3672 1638 1875 
Q 1638 75 466 -1166 
L 191 -1016 
Q 1119 216 1119 1881 
Q 1119 3509 191 4763 
L 466 4909 
z
" transform="scale(0.015625)"/>
      </defs>
      <use xlink:href="#IPAexGothic-6e80"/>
      <use xlink:href="#IPAexGothic-8db3" transform="translate(100 0)"/>
      <use xlink:href="#IPAexGothic-5ea6" transform="translate(200 0)"/>
      <use xlink:href="#IPAexGothic-20" transform="translate(300 0)"/>
      <use xlink:href="#IPAexGothic-28" transform="translate(327.001953 0)"/>
      <use xlink:href="#IPAexGothic-35" transform="translate(360.302734 0)"/>
      <use xlink:href="#IPAexGothic-20" transform="translate(423.291016 0)"/>
      <use xlink:href="#IPAexGothic-70b9" transform="translate(450.292969 0)"/>
      <use xlink:href="#IPAexGothic-6e80" transform="translate(550.292969 0)"/>
      <use xlink:href="#IPAexGothic-70b9" transform="translate(650.292969 0)"/>
      <use xlink:href="#IPAexGothic-29" transform="translate(750.292969 0)"/>
     </g>
    </g>
   </g>
   <g id="matplotlib.axis_2">
    <g id="ytick_1">
     <g id="line2d_13">
      <defs>
       <path id="ma2f8985007" d="M 0 0 
L -3.5 0 
" style="stroke: #000000; stroke-width: 0.8"/>
      </defs>
      <g>
       <use xlink:href="#ma2f8985007" x="87.73" y="60.479848" style="stroke: #000000; stroke-width: 0.8"/>
      </g>
     </g>
     <g id="text_8">
      <!-- 検索のしやすさ -->
      <g transform="translate(10.73 64.225161) scale(0.1 -0.1)">
       <defs>
        <path id="IPAexGothic-691c" d="M 4125 1119 
Q 3803 -72 2459 -481 
L 2178 -106 
Q 3588 250 3828 1438 
L 2997 1438 
L 2997 1113 
L 2581 1113 
L 2581 2869 
L 3850 2869 
L 3850 3353 
L 3188 3353 
L 3188 3566 
Q 2788 3166 2375 2888 
L 2094 3238 
Q 3263 3956 3753 5241 
L 4225 5241 
Q 4891 4109 6125 3403 
L 5816 3028 
Q 5425 3288 5013 3647 
L 5013 3353 
L 4266 3353 
L 4266 2869 
L 5575 2869 
L 5575 1150 
L 5159 1150 
L 5159 1438 
L 4359 1438 
Q 4781 466 6016 16 
L 5681 -394 
Q 4497 197 4125 1119 
z
M 3856 2516 
L 2997 2516 
L 2997 1784 
L 3856 1784 
L 3856 2516 
z
M 4259 2516 
L 4259 1784 
L 5159 1784 
L 5159 2516 
L 4259 2516 
z
M 3334 3725 
L 4928 3725 
Q 4363 4263 4016 4831 
Q 3759 4225 3334 3725 
z
M 1200 2594 
Q 928 1569 450 794 
L 188 1256 
Q 850 2238 1147 3547 
L 322 3547 
L 322 3956 
L 1200 3956 
L 1200 5306 
L 1622 5306 
L 1622 3956 
L 2325 3956 
L 2325 3547 
L 1622 3547 
L 1622 2900 
Q 2088 2484 2394 2119 
L 2141 1666 
Q 1897 2078 1622 2400 
L 1622 -447 
L 1200 -447 
L 1200 2594 
z
" transform="scale(0.015625)"/>
        <path id="IPAexGothic-7d22" d="M 3419 1247 
L 3419 -450 
L 2931 -450 
L 2931 1222 
L 2547 1209 
Q 1831 1178 525 1144 
L 384 1575 
Q 1184 1575 2222 1588 
L 2450 1594 
Q 1797 2219 1297 2566 
L 1631 2834 
Q 1916 2634 2163 2419 
Q 2569 2784 2913 3238 
L 978 3238 
L 978 2559 
L 538 2559 
L 538 3616 
L 2950 3616 
L 2950 4206 
L 703 4206 
L 703 4603 
L 2950 4603 
L 2950 5313 
L 3403 5313 
L 3403 4603 
L 5691 4603 
L 5691 4206 
L 3403 4206 
L 3403 3616 
L 5869 3616 
L 5869 2559 
L 5428 2559 
L 5428 3238 
L 3059 3238 
L 3328 3059 
Q 2847 2500 2450 2175 
Q 2597 2056 2913 1741 
Q 3644 2325 4256 3025 
L 4653 2778 
Q 4041 2134 3444 1663 
L 3384 1619 
L 3719 1631 
L 3866 1631 
L 4678 1663 
L 4788 1669 
L 5038 1681 
Q 4778 1919 4531 2125 
L 4841 2359 
Q 5500 1869 6053 1284 
L 5691 984 
Q 5469 1244 5350 1369 
L 5116 1350 
Q 4909 1341 4531 1313 
L 3419 1247 
z
M 544 -6 
Q 1394 366 2003 984 
L 2431 769 
Q 1753 59 922 -366 
L 544 -6 
z
M 5538 -281 
Q 4797 372 4006 800 
L 4372 1069 
Q 5228 644 5922 91 
L 5538 -281 
z
" transform="scale(0.015625)"/>
        <path id="IPAexGothic-306e" d="M 3119 469 
Q 5275 766 5275 2425 
Q 5275 3453 4413 3925 
Q 4041 4116 3547 4159 
Q 3394 2525 2850 1400 
Q 2322 306 1722 306 
Q 1384 306 1084 666 
Q 609 1244 609 2003 
Q 609 3025 1397 3794 
Q 2184 4563 3431 4563 
Q 4306 4563 4928 4122 
Q 5813 3506 5813 2425 
Q 5813 438 3431 6 
L 3119 469 
z
M 3053 4147 
Q 2378 4044 1891 3641 
Q 1097 2981 1097 1991 
Q 1097 1366 1434 978 
Q 1581 813 1719 813 
Q 2022 813 2416 1625 
Q 2909 2638 3053 4147 
z
" transform="scale(0.015625)"/>
        <path id="IPAexGothic-3057" d="M 1750 4884 
L 2281 4884 
L 2238 1319 
Q 2228 809 2391 569 
Q 2594 281 3128 281 
Q 3772 281 4344 744 
Q 4822 1131 5156 1759 
L 5534 1369 
Q 5094 653 4534 263 
Q 3878 -206 3134 -206 
Q 2341 -206 1994 213 
Q 1697 575 1706 1269 
L 1750 4884 
z
" transform="scale(0.015625)"/>
        <path id="IPAexGothic-3084" d="M 525 2728 
Q 1247 2991 1813 3181 
Q 1419 4091 1247 4456 
L 1709 4641 
Q 1916 4206 2278 3341 
Q 3872 3866 4488 3866 
Q 5031 3866 5372 3628 
Q 5794 3350 5794 2822 
Q 5794 1616 3653 1491 
L 3463 1941 
Q 5294 2006 5294 2822 
Q 5294 3463 4444 3463 
Q 3906 3463 2438 2950 
Q 3056 1413 3528 -141 
L 3047 -306 
Q 2578 1281 1978 2784 
Q 1428 2578 722 2284 
L 525 2728 
z
M 3675 4013 
Q 3197 4472 2619 4794 
L 2925 5125 
Q 3541 4809 4013 4384 
L 3675 4013 
z
" transform="scale(0.015625)"/>
        <path id="IPAexGothic-3059" d="M 3322 5075 
L 3816 5075 
L 3816 4063 
Q 4131 4075 5756 4116 
L 5756 3669 
Q 5431 3672 3816 3653 
L 3816 2463 
Q 3956 2125 3956 1741 
Q 3956 922 3519 397 
Q 3128 -72 2309 -409 
L 1941 -31 
Q 3263 453 3488 1363 
Q 3250 1031 2809 1031 
Q 2441 1031 2150 1313 
Q 1875 1588 1875 2050 
Q 1875 2475 2166 2769 
Q 2431 3041 2822 3041 
Q 3088 3041 3322 2881 
L 3322 3641 
Q 3000 3634 609 3547 
L 609 3988 
Q 1197 4000 2106 4022 
Q 3066 4047 3322 4050 
L 3322 5075 
z
M 3372 2044 
Q 3372 2300 3194 2478 
Q 3050 2613 2869 2613 
Q 2622 2613 2463 2406 
Q 2344 2250 2344 2088 
Q 2344 1797 2484 1622 
Q 2625 1453 2859 1453 
Q 3372 1453 3372 2044 
z
" transform="scale(0.015625)"/>
        <path id="IPAexGothic-3055" d="M 1747 1184 
Q 1747 834 2094 609 
Q 2422 391 3706 391 
Q 4088 391 4422 434 
L 4478 -50 
Q 4116 -84 3853 -84 
Q 3000 -84 2544 -13 
Q 2044 69 1759 263 
Q 1272 597 1272 1125 
Q 1272 1638 1728 1953 
Q 2163 2253 2884 2253 
Q 3741 2253 4300 2003 
Q 3797 2556 3322 3438 
Q 2128 3219 1113 3219 
L 966 3694 
Q 1150 3688 1388 3688 
Q 2291 3688 3128 3847 
Q 2919 4253 2597 4953 
L 3059 5081 
Q 3347 4384 3591 3950 
Q 4375 4147 5028 4481 
L 5297 4056 
Q 4653 3763 3775 3547 
Q 4309 2597 5069 1703 
L 4672 1363 
Q 3994 1838 2872 1838 
Q 2278 1838 1984 1628 
Q 1747 1459 1747 1184 
z
" transform="scale(0.015625)"/>
       </defs>
       <use xlink:href="#IPAexGothic-691c"/>
       <use xlink:href="#IPAexGothic-7d22" transform="translate(100 0)"/>
       <use xlink:href="#IPAexGothic-306e" transform="translate(200 0)"/>
       <use xlink:href="#IPAexGothic-3057" transform="translate(300 0)"/>
       <use xlink:href="#IPAexGothic-3084" transform="translate(400 0)"/>
       <use xlink:href="#IPAexGothic-3059" transform="translate(500 0)"/>
       <use xlink:href="#IPAexGothic-3055" transform="translate(600 0)"/>
      </g>
     </g>
    </g>
    <g id="ytick_2">
     <g id="line2d_14">
      <g>
       <use xlink:href="#ma2f8985007" x="87.73" y="107.354612" style="stroke: #000000; stroke-width: 0.8"/>
      </g>
     </g>
     <g id="text_9">
      <!-- ページ速度 -->
      <g transform="translate(30.73 111.099924) scale(0.1 -0.1)">
       <defs>
        <path id="IPAexGothic-30da" d="M 428 1938 
Q 1119 2494 2100 3628 
Q 2356 3922 2566 3922 
Q 2772 3922 3181 3531 
Q 4325 2425 5950 1303 
L 5600 813 
Q 3991 2028 2816 3188 
Q 2653 3341 2584 3341 
Q 2513 3341 2291 3072 
Q 1703 2331 775 1478 
L 428 1938 
z
M 4750 4756 
Q 5059 4756 5269 4522 
Q 5453 4319 5453 4053 
Q 5453 3738 5219 3525 
Q 5016 3341 4750 3341 
Q 4434 3341 4222 3575 
Q 4038 3778 4038 4053 
Q 4038 4363 4272 4572 
Q 4478 4756 4750 4756 
z
M 4750 4475 
Q 4559 4475 4428 4334 
Q 4319 4213 4319 4053 
Q 4319 3859 4459 3731 
Q 4584 3622 4750 3622 
Q 4934 3622 5063 3763 
Q 5172 3888 5172 4053 
Q 5172 4238 5031 4366 
Q 4909 4475 4750 4475 
z
" transform="scale(0.015625)"/>
        <path id="IPAexGothic-30fc" d="M 588 2688 
L 5809 2688 
L 5809 2175 
L 588 2175 
L 588 2688 
z
" transform="scale(0.015625)"/>
        <path id="IPAexGothic-30b8" d="M 2759 3481 
Q 2150 4006 1544 4309 
L 1844 4731 
Q 2434 4441 3100 3931 
L 2759 3481 
z
M 1094 447 
Q 3875 1041 5269 3475 
L 5619 3078 
Q 4228 650 1416 -50 
L 1094 447 
z
M 2003 2228 
Q 1397 2747 763 3059 
L 1063 3488 
Q 1738 3159 2338 2675 
L 2003 2228 
z
M 5594 4219 
Q 5234 4759 4841 5088 
L 5141 5319 
Q 5525 5009 5916 4494 
L 5594 4219 
z
M 5000 3750 
Q 4709 4241 4263 4641 
L 4578 4884 
Q 4947 4575 5331 4025 
L 5000 3750 
z
" transform="scale(0.015625)"/>
        <path id="IPAexGothic-901f" d="M 3766 1809 
Q 3256 1066 2481 569 
L 2175 913 
Q 3125 1413 3644 2206 
L 2406 2206 
L 2406 3641 
L 3766 3641 
L 3766 4172 
L 2047 4172 
L 2047 4569 
L 3766 4569 
L 3766 5313 
L 4194 5313 
L 4194 4569 
L 5913 4569 
L 5913 4172 
L 4194 4172 
L 4194 3641 
L 5553 3641 
L 5553 2206 
L 4194 2206 
L 4194 2034 
L 4250 2009 
Q 4988 1653 5803 1125 
L 5497 753 
Q 4834 1244 4194 1638 
L 4194 350 
L 3766 350 
L 3766 1809 
z
M 3766 3269 
L 2822 3269 
L 2822 2578 
L 3766 2578 
L 3766 3269 
z
M 4194 3269 
L 4194 2578 
L 5138 2578 
L 5138 3269 
L 4194 3269 
z
M 1831 781 
Q 2084 456 2450 319 
Q 2903 147 4134 147 
Q 5069 147 6119 222 
Q 6000 9 5944 -263 
Q 5025 -294 4428 -294 
Q 2800 -294 2272 -63 
Q 1869 119 1600 491 
Q 1131 -53 666 -444 
L 372 44 
Q 881 344 1378 775 
L 1378 2303 
L 397 2303 
L 397 2731 
L 1831 2731 
L 1831 781 
z
M 1619 3622 
Q 1206 4169 619 4697 
L 959 4991 
Q 1488 4581 1972 3975 
L 1619 3622 
z
" transform="scale(0.015625)"/>
       </defs>
       <use xlink:href="#IPAexGothic-30da"/>
       <use xlink:href="#IPAexGothic-30fc" transform="translate(100 0)"/>
       <use xlink:href="#IPAexGothic-30b8" transform="translate(200 0)"/>
       <use xlink:href="#IPAexGothic-901f" transform="translate(300 0)"/>
       <use xlink:href="#IPAexGothic-5ea6" transform="translate(400 0)"/>
      </g>
     </g>
    </g>
    <g id="ytick_3">
     <g id="line2d_15">
      <g>
       <use xlink:href="#ma2f8985007" x="87.73" y="154.229375" style="stroke: #000000; stroke-width: 0.8"/>
      </g>
     </g>
     <g id="text_10">
      <!-- モバイル対応 -->
      <g transform="translate(20.73 157.974687) scale(0.1 -0.1)">
       <defs>
        <path id="IPAexGothic-30e2" d="M 1216 4409 
L 5147 4409 
L 5147 3950 
L 3053 3950 
L 3053 2797 
L 5644 2797 
L 5644 2328 
L 3053 2328 
L 3053 972 
Q 3053 669 3272 600 
Q 3453 544 4013 544 
Q 4556 544 5269 600 
L 5269 97 
Q 4684 50 4147 50 
Q 3025 50 2753 250 
Q 2541 403 2541 825 
L 2541 2328 
L 744 2328 
L 744 2797 
L 2541 2797 
L 2541 3950 
L 1216 3950 
L 1216 4409 
z
" transform="scale(0.015625)"/>
        <path id="IPAexGothic-30d0" d="M 428 903 
Q 1472 2069 1972 3884 
L 2497 3700 
Q 1938 1778 897 544 
L 428 903 
z
M 5441 678 
Q 4694 2275 3684 3725 
L 4147 3969 
Q 5050 2734 5956 1025 
L 5441 678 
z
M 5697 4116 
Q 5334 4656 4941 4984 
L 5241 5216 
Q 5625 4906 6016 4391 
L 5697 4116 
z
M 5094 3641 
Q 4803 4131 4356 4531 
L 4678 4781 
Q 5050 4472 5434 3922 
L 5094 3641 
z
" transform="scale(0.015625)"/>
        <path id="IPAexGothic-30a4" d="M 3131 -231 
L 3131 2875 
Q 2091 2088 1106 1656 
L 781 2059 
Q 3016 3000 4469 4916 
L 4916 4641 
Q 4384 3938 3675 3316 
L 3675 -231 
L 3131 -231 
z
" transform="scale(0.015625)"/>
        <path id="IPAexGothic-30eb" d="M 353 331 
Q 1313 994 1544 2022 
Q 1684 2650 1684 4397 
L 2203 4397 
L 2203 4153 
L 2203 4116 
Q 2203 2259 1934 1491 
Q 1619 588 744 -38 
L 353 331 
z
M 3125 4666 
L 3650 4666 
L 3650 769 
Q 4875 1488 5672 2734 
L 6000 2278 
Q 5075 966 3516 63 
L 3125 359 
L 3125 4666 
z
" transform="scale(0.015625)"/>
        <path id="IPAexGothic-5bfe" d="M 2694 3597 
Q 2694 3566 2688 3534 
Q 2584 2566 2234 1703 
Q 2569 1288 3028 666 
L 2656 331 
Q 2434 672 2016 1234 
Q 1466 184 725 -416 
L 366 -63 
Q 1156 525 1684 1569 
L 1709 1625 
Q 1191 2278 647 2844 
L 975 3113 
Q 1475 2619 1906 2100 
Q 2153 2825 2241 3597 
L 391 3597 
L 391 4013 
L 1666 4013 
L 1666 5209 
L 2106 5209 
L 2106 4013 
L 3272 4013 
L 3272 3706 
L 4822 3706 
L 4822 5209 
L 5275 5209 
L 5275 3706 
L 6041 3706 
L 6041 3278 
L 5300 3278 
L 5300 109 
Q 5300 -397 4694 -397 
Q 4206 -397 3872 -353 
L 3784 141 
Q 4200 63 4616 63 
Q 4847 63 4847 269 
L 4847 3278 
L 3241 3278 
L 3241 3597 
L 2694 3597 
z
M 4000 1147 
Q 3619 1994 3188 2578 
L 3578 2816 
Q 4044 2188 4409 1428 
L 4000 1147 
z
" transform="scale(0.015625)"/>
        <path id="IPAexGothic-5fdc" d="M 3688 4403 
L 5934 4403 
L 5934 3975 
L 1372 3975 
L 1372 2913 
Q 1372 1653 1256 972 
Q 1122 228 744 -403 
L 378 -13 
Q 738 600 831 1409 
Q 897 1894 897 2759 
L 897 4403 
L 3200 4403 
L 3200 5241 
L 3688 5241 
L 3688 4403 
z
M 1416 325 
Q 1781 1097 1947 2350 
L 2400 2234 
Q 2222 919 1838 63 
L 1416 325 
z
M 2791 2713 
L 3238 2713 
L 3238 416 
Q 3238 222 3347 172 
Q 3444 128 3806 128 
Q 4300 128 4375 244 
Q 4466 381 4484 1184 
L 4484 1300 
L 4959 1172 
Q 4909 88 4788 -75 
Q 4606 -313 3806 -313 
Q 3216 -313 2988 -203 
Q 2791 -109 2791 153 
L 2791 2713 
z
M 3981 2463 
Q 3494 3056 2919 3494 
L 3238 3794 
Q 3766 3413 4325 2816 
L 3981 2463 
z
M 5672 281 
Q 5150 1566 4628 2344 
L 5038 2566 
Q 5659 1631 6106 569 
L 5672 281 
z
" transform="scale(0.015625)"/>
       </defs>
       <use xlink:href="#IPAexGothic-30e2"/>
       <use xlink:href="#IPAexGothic-30d0" transform="translate(100 0)"/>
       <use xlink:href="#IPAexGothic-30a4" transform="translate(200 0)"/>
       <use xlink:href="#IPAexGothic-30eb" transform="translate(300 0)"/>
       <use xlink:href="#IPAexGothic-5bfe" transform="translate(400 0)"/>
       <use xlink:href="#IPAexGothic-5fdc" transform="translate(500 0)"/>
      </g>
     </g>
    </g>
    <g id="ytick_4">
     <g id="line2d_16">
      <g>
       <use xlink:href="#ma2f8985007" x="87.73" y="201.104138" style="stroke: #000000; stroke-width: 0.8"/>
      </g>
     </g>
     <g id="text_11">
      <!-- デザイン -->
      <g transform="translate(40.73 204.849451) scale(0.1 -0.1)">
       <defs>
        <path id="IPAexGothic-30c7" d="M 563 3072 
L 5741 3072 
L 5741 2613 
L 3578 2613 
Q 3538 1516 3134 872 
Q 2688 156 1663 -256 
L 1313 156 
Q 2338 538 2713 1166 
Q 3003 1644 3034 2613 
L 563 2613 
L 563 3072 
z
M 1406 4588 
L 4588 4588 
L 4588 4128 
L 1406 4128 
L 1406 4588 
z
M 6009 4469 
Q 5647 5009 5253 5338 
L 5553 5569 
Q 5938 5259 6328 4744 
L 6009 4469 
z
M 5413 4000 
Q 5125 4491 4678 4891 
L 4991 5131 
Q 5363 4825 5747 4275 
L 5413 4000 
z
" transform="scale(0.015625)"/>
        <path id="IPAexGothic-30b6" d="M 3963 4919 
L 4475 4919 
L 4475 3531 
L 5856 3531 
L 5856 3072 
L 4475 3072 
Q 4456 1719 4122 1063 
Q 3697 222 2613 -325 
L 2234 38 
Q 3294 525 3681 1319 
Q 3944 1853 3963 3072 
L 2300 3072 
L 2300 1575 
L 1788 1575 
L 1788 3072 
L 481 3072 
L 481 3531 
L 1788 3531 
L 1788 4797 
L 2300 4797 
L 2300 3531 
L 3963 3531 
L 3963 4919 
z
M 5313 4044 
Q 5084 4559 4725 4984 
L 5081 5166 
Q 5400 4806 5691 4256 
L 5313 4044 
z
M 5941 4409 
Q 5681 4913 5331 5306 
L 5684 5503 
Q 6034 5113 6303 4628 
L 5941 4409 
z
" transform="scale(0.015625)"/>
        <path id="IPAexGothic-30f3" d="M 2444 3084 
Q 1816 3656 1056 4084 
L 1381 4519 
Q 2063 4191 2816 3559 
L 2444 3084 
z
M 1100 609 
Q 3984 1106 5216 3828 
L 5619 3469 
Q 4413 794 1434 103 
L 1100 609 
z
" transform="scale(0.015625)"/>
       </defs>
       <use xlink:href="#IPAexGothic-30c7"/>
       <use xlink:href="#IPAexGothic-30b6" transform="translate(100 0)"/>
       <use xlink:href="#IPAexGothic-30a4" transform="translate(200 0)"/>
       <use xlink:href="#IPAexGothic-30f3" transform="translate(300 0)"/>
      </g>
     </g>
    </g>
    <g id="ytick_5">
     <g id="line2d_17">
      <g>
       <use xlink:href="#ma2f8985007" x="87.73" y="247.978902" style="stroke: #000000; stroke-width: 0.8"/>
      </g>
     </g>
     <g id="text_12">
      <!-- 問い合わせ対応 -->
      <g transform="translate(10.73 251.724214) scale(0.1 -0.1)">
       <defs>
        <path id="IPAexGothic-554f" d="M 4384 2291 
L 4384 525 
L 2400 525 
L 2400 172 
L 1972 172 
L 1972 2291 
L 4384 2291 
z
M 3956 1919 
L 2400 1919 
L 2400 897 
L 3956 897 
L 3956 1919 
z
M 2913 4984 
L 2913 2884 
L 1094 2884 
L 1094 -450 
L 641 -450 
L 641 4984 
L 2913 4984 
z
M 1094 4606 
L 1094 4109 
L 2497 4109 
L 2497 4606 
L 1094 4606 
z
M 1094 3769 
L 1094 3250 
L 2497 3250 
L 2497 3769 
L 1094 3769 
z
M 5753 4984 
L 5753 91 
Q 5753 -403 5244 -403 
Q 4875 -403 4444 -366 
L 4366 97 
Q 4750 38 5063 38 
Q 5300 38 5300 281 
L 5300 2884 
L 3444 2884 
L 3444 4984 
L 5753 4984 
z
M 3859 4606 
L 3859 4109 
L 5300 4109 
L 5300 4606 
L 3859 4606 
z
M 3859 3769 
L 3859 3250 
L 5300 3250 
L 5300 3769 
L 3859 3769 
z
" transform="scale(0.015625)"/>
        <path id="IPAexGothic-3044" d="M 3369 1447 
Q 2906 122 2278 122 
Q 1966 122 1647 481 
Q 1209 966 1044 1966 
Q 891 2888 891 4313 
L 1422 4313 
Q 1413 2444 1666 1550 
Q 1913 678 2278 678 
Q 2619 678 2925 1791 
L 3369 1447 
z
M 5378 1294 
Q 4928 2797 4034 3809 
L 4488 4031 
Q 5375 3000 5881 1563 
L 5378 1294 
z
" transform="scale(0.015625)"/>
        <path id="IPAexGothic-5408" d="M 1831 3188 
L 4653 3188 
L 4653 2778 
L 1747 2778 
L 1747 3125 
Q 1275 2778 594 2453 
L 294 2828 
Q 2006 3509 2891 5147 
L 3431 5147 
Q 4331 3806 6125 3003 
L 5831 2588 
Q 4119 3416 3175 4731 
Q 2650 3806 1831 3188 
z
M 5113 2088 
L 5113 -450 
L 4638 -450 
L 4638 -97 
L 1766 -97 
L 1766 -450 
L 1284 -450 
L 1284 2088 
L 5113 2088 
z
M 1766 1691 
L 1766 300 
L 4638 300 
L 4638 1691 
L 1766 1691 
z
" transform="scale(0.015625)"/>
        <path id="IPAexGothic-308f" d="M 609 3672 
Q 1272 3750 1894 3884 
L 1934 4978 
L 2406 4972 
L 2369 3934 
L 2753 3634 
Q 2416 3238 2356 3153 
Q 2350 3078 2350 2853 
Q 3322 3616 4219 3616 
Q 4878 3616 5331 3200 
Q 5819 2750 5819 2028 
Q 5819 419 3584 -53 
L 3266 391 
Q 5294 766 5294 2034 
Q 5294 2534 5000 2847 
Q 4691 3175 4175 3175 
Q 3341 3175 2344 2303 
Q 2344 678 2369 -150 
L 1881 -150 
Q 1863 1200 1869 1888 
Q 1766 1781 866 716 
L 513 1081 
Q 1450 2088 1869 2469 
Q 1869 2500 1878 2947 
Q 1881 3225 1888 3456 
Q 1406 3319 744 3178 
L 609 3672 
z
" transform="scale(0.015625)"/>
        <path id="IPAexGothic-305b" d="M 4013 4922 
L 4500 4922 
L 4500 3475 
L 5881 3541 
L 5900 3116 
L 4500 3053 
L 4500 1863 
Q 4500 1363 3994 1363 
Q 3563 1363 3169 1516 
L 3169 1997 
Q 3575 1816 3816 1816 
Q 4013 1816 4013 2028 
L 4013 3028 
L 2191 2944 
L 2191 1044 
Q 2191 613 2550 525 
Q 2784 463 3609 463 
Q 4384 463 5172 544 
L 5191 44 
Q 4403 -19 3641 -19 
Q 2456 -19 2081 172 
Q 1697 375 1697 909 
L 1697 2919 
L 488 2859 
L 469 3291 
L 1697 3347 
L 1697 4609 
L 2191 4609 
L 2191 3366 
L 4013 3456 
L 4013 4922 
z
" transform="scale(0.015625)"/>
       </defs>
       <use xlink:href="#IPAexGothic-554f"/>
       <use xlink:href="#IPAexGothic-3044" transform="translate(100 0)"/>
       <use xlink:href="#IPAexGothic-5408" transform="translate(200 0)"/>
       <use xlink:href="#IPAexGothic-308f" transform="translate(300 0)"/>
       <use xlink:href="#IPAexGothic-305b" transform="translate(400 0)"/>
       <use xlink:href="#IPAexGothic-5bfe" transform="translate(500 0)"/>
       <use xlink:href="#IPAexGothic-5fdc" transform="translate(600 0)"/>
      </g>
     </g>
    </g>
   </g>
   <g id="text_13">
    <!-- 4.6 -->
    <g transform="translate(393.24704 63.275161) scale(0.1 -0.1)">
     <defs>
      <path id="IPAexGothic-2e" d="M 1184 63 
L 494 63 
L 494 753 
L 1184 753 
L 1184 63 
z
" transform="scale(0.015625)"/>
      <path id="IPAexGothic-36" d="M 1056 2328 
Q 1509 2981 2234 2981 
Q 2906 2981 3316 2513 
Q 3675 2106 3675 1522 
Q 3675 884 3272 434 
Q 2853 -31 2178 -31 
Q 1375 -31 922 581 
Q 481 1178 481 2228 
Q 481 3425 1013 4109 
Q 1494 4725 2272 4725 
Q 3191 4725 3609 4025 
L 3150 3775 
Q 2894 4266 2300 4266 
Q 1119 4266 1031 2328 
L 1056 2328 
z
M 2141 2547 
Q 1684 2547 1384 2206 
Q 1116 1900 1116 1541 
Q 1116 1156 1353 844 
Q 1672 428 2159 428 
Q 2669 428 2941 844 
Q 3125 1128 3125 1503 
Q 3125 1944 2881 2228 
Q 2600 2547 2141 2547 
z
" transform="scale(0.015625)"/>
     </defs>
     <use xlink:href="#IPAexGothic-34"/>
     <use xlink:href="#IPAexGothic-2e" transform="translate(62.988281 0)"/>
     <use xlink:href="#IPAexGothic-36" transform="translate(89.404297 0)"/>
    </g>
   </g>
   <g id="text_14">
    <!-- 4.2 -->
    <g transform="translate(367.20208 110.149924) scale(0.1 -0.1)">
     <use xlink:href="#IPAexGothic-34"/>
     <use xlink:href="#IPAexGothic-2e" transform="translate(62.988281 0)"/>
     <use xlink:href="#IPAexGothic-32" transform="translate(89.404297 0)"/>
    </g>
   </g>
   <g id="text_15">
    <!-- 4.8 -->
    <g transform="translate(406.26952 157.024687) scale(0.1 -0.1)">
     <defs>
      <path id="IPAexGothic-38" d="M 2541 2425 
Q 3700 2031 3700 1197 
Q 3700 541 3100 197 
Q 2663 -56 2016 -56 
Q 1366 -56 928 197 
Q 347 531 347 1178 
Q 347 1988 1409 2381 
L 1409 2400 
Q 481 2734 481 3509 
Q 481 4100 981 4456 
Q 1406 4756 2019 4756 
Q 2703 4756 3131 4403 
Q 3553 4069 3553 3566 
Q 3553 2706 2541 2444 
L 2541 2425 
z
M 2022 2625 
Q 2997 2856 2997 3528 
Q 2997 3916 2675 4150 
Q 2413 4347 2016 4347 
Q 1606 4347 1331 4128 
Q 1050 3897 1050 3522 
Q 1050 3150 1350 2925 
Q 1494 2809 1722 2722 
Q 1984 2616 2022 2625 
z
M 1978 2209 
Q 922 1931 922 1216 
Q 922 775 1313 556 
Q 1606 391 2009 391 
Q 2575 391 2881 697 
Q 3106 922 3106 1250 
Q 3106 1594 2794 1850 
Q 2609 1994 2350 2100 
Q 2047 2222 1978 2209 
z
" transform="scale(0.015625)"/>
     </defs>
     <use xlink:href="#IPAexGothic-34"/>
     <use xlink:href="#IPAexGothic-2e" transform="translate(62.988281 0)"/>
     <use xlink:href="#IPAexGothic-38" transform="translate(89.404297 0)"/>
    </g>
   </g>
   <g id="text_16">
    <!-- 4.1 -->
    <g transform="translate(360.69084 203.899451) scale(0.1 -0.1)">
     <use xlink:href="#IPAexGothic-34"/>
     <use xlink:href="#IPAexGothic-2e" transform="translate(62.988281 0)"/>
     <use xlink:href="#IPAexGothic-31" transform="translate(89.404297 0)"/>
    </g>
   </g>
   <g id="text_17">
    <!-- 4.5 -->
    <g transform="translate(386.7358 250.774214) scale(0.1 -0.1)">
     <use xlink:href="#IPAexGothic-34"/>
     <use xlink:href="#IPAexGothic-2e" transform="translate(62.988281 0)"/>
     <use xlink:href="#IPAexGothic-35" transform="translate(89.404297 0)"/>
    </g>
   </g>
   <g id="text_18">
    <!-- サイト改善アンケート 結果 -->
    <g transform="translate(144.4982 24.48) scale(0.1728 -0.1728)">
     <defs>
      <path id="IPAexGothic-30b5" d="M 3994 4919 
L 4506 4919 
L 4506 3531 
L 5888 3531 
L 5888 3072 
L 4506 3072 
Q 4488 1719 4153 1063 
Q 3728 222 2644 -325 
L 2266 38 
Q 3325 525 3713 1319 
Q 3975 1853 3994 3072 
L 2331 3072 
L 2331 1575 
L 1819 1575 
L 1819 3072 
L 513 3072 
L 513 3531 
L 1819 3531 
L 1819 4797 
L 2331 4797 
L 2331 3531 
L 3994 3531 
L 3994 4919 
z
" transform="scale(0.015625)"/>
      <path id="IPAexGothic-30c8" d="M 2284 4997 
L 2803 4997 
L 2803 3206 
Q 4088 2619 5216 1888 
L 4878 1369 
Q 3819 2175 2803 2688 
L 2803 -184 
L 2284 -184 
L 2284 4997 
z
" transform="scale(0.015625)"/>
      <path id="IPAexGothic-6539" d="M 2197 2713 
L 1063 2713 
L 1063 881 
Q 1063 678 1159 638 
Q 1256 594 1684 594 
Q 2328 594 2394 747 
Q 2472 891 2491 1431 
L 2944 1325 
L 2938 1222 
Q 2878 559 2741 384 
Q 2556 153 1716 153 
Q 956 153 775 269 
Q 616 372 616 684 
L 616 3109 
L 2197 3109 
L 2197 4391 
L 384 4391 
L 384 4794 
L 2631 4794 
L 2631 2431 
L 2197 2431 
L 2197 2713 
z
M 4244 1191 
Q 3828 1784 3488 2763 
L 3469 2731 
Q 3294 2325 3041 1956 
L 2706 2284 
Q 3384 3228 3634 5284 
L 4097 5209 
Q 4009 4556 3922 4197 
L 5950 4197 
L 5950 3775 
L 5413 3775 
Q 5319 2197 4800 1247 
L 4781 1216 
Q 5325 556 6100 50 
L 5772 -391 
Q 5063 116 4519 806 
Q 3959 38 3000 -494 
L 2681 -97 
Q 3647 325 4244 1191 
z
M 4484 1625 
Q 4856 2384 4953 3731 
Q 4953 3763 4959 3775 
L 3828 3775 
Q 3819 3744 3781 3613 
Q 3747 3497 3725 3403 
Q 3991 2419 4484 1625 
z
" transform="scale(0.015625)"/>
      <path id="IPAexGothic-5584" d="M 3706 4569 
Q 4009 4991 4141 5319 
L 4622 5172 
Q 4434 4844 4206 4569 
L 5684 4569 
L 5684 4191 
L 3406 4191 
L 3406 3775 
L 5403 3775 
L 5403 3409 
L 3406 3409 
L 3406 2975 
L 5953 2975 
L 5953 2616 
L 4909 2616 
Q 4738 2250 4591 2009 
L 6081 2009 
L 6081 1638 
L 322 1638 
L 322 2009 
L 1775 2009 
Q 1650 2341 1481 2616 
L 444 2616 
L 444 2975 
L 2953 2975 
L 2953 3409 
L 994 3409 
L 994 3775 
L 2953 3775 
L 2953 4191 
L 713 4191 
L 713 4569 
L 2081 4569 
Q 1928 4869 1709 5150 
L 2166 5306 
Q 2356 5044 2581 4569 
L 3706 4569 
z
M 3406 2616 
L 3406 2009 
L 4109 2009 
Q 4259 2284 4403 2616 
L 3406 2616 
z
M 2953 2009 
L 2953 2616 
L 1978 2616 
Q 2150 2263 2234 2009 
L 2953 2009 
z
M 5306 1275 
L 5306 -447 
L 4847 -447 
L 4847 -191 
L 1556 -191 
L 1556 -447 
L 1097 -447 
L 1097 1275 
L 5306 1275 
z
M 1556 903 
L 1556 194 
L 4847 194 
L 4847 903 
L 1556 903 
z
" transform="scale(0.015625)"/>
      <path id="IPAexGothic-30a2" d="M 5388 4556 
L 5747 4200 
Q 5081 3022 4019 2191 
L 3647 2547 
Q 4519 3178 5081 4091 
L 850 4013 
L 850 4500 
L 5388 4556 
z
M 1216 256 
Q 2319 813 2616 1691 
Q 2797 2200 2797 3628 
L 3313 3628 
Q 3303 1981 3059 1356 
Q 2697 431 1594 -153 
L 1216 256 
z
" transform="scale(0.015625)"/>
      <path id="IPAexGothic-30b1" d="M 5638 3275 
L 4178 3275 
Q 4141 1972 3738 1234 
Q 3241 322 2150 -256 
L 1766 141 
Q 2931 678 3353 1644 
Q 3619 2263 3647 3275 
L 2097 3275 
Q 1694 2456 972 1784 
L 594 2128 
Q 1781 3203 2138 4966 
L 2628 4856 
Q 2503 4281 2303 3744 
L 5638 3744 
L 5638 3275 
z
" transform="scale(0.015625)"/>
      <path id="IPAexGothic-7d50" d="M 1241 3084 
Q 794 3713 378 4128 
L 666 4422 
Q 828 4259 916 4153 
Q 1300 4750 1541 5331 
L 1956 5119 
Q 1547 4363 1150 3859 
Q 1228 3759 1466 3425 
Q 1844 4016 2138 4550 
L 2522 4313 
Q 1853 3213 1313 2572 
Q 1647 2581 2253 2631 
Q 2134 2909 2009 3156 
L 2353 3303 
Q 2656 2775 2878 2106 
L 2494 1925 
Q 2469 2022 2425 2156 
Q 2384 2284 2372 2322 
Q 2334 2319 2222 2300 
Q 1966 2259 1778 2234 
L 1778 -447 
L 1363 -447 
L 1363 2181 
L 1291 2175 
Q 1000 2144 428 2106 
L 281 2534 
Q 672 2547 863 2553 
Q 909 2613 972 2700 
Q 1059 2816 1241 3084 
z
M 4134 4325 
L 4134 5309 
L 4563 5309 
L 4563 4325 
L 6113 4325 
L 6113 3934 
L 4563 3934 
L 4563 3034 
L 5906 3034 
L 5906 2650 
L 2859 2650 
L 2859 3034 
L 4134 3034 
L 4134 3934 
L 2719 3934 
L 2719 4325 
L 4134 4325 
z
M 5631 1997 
L 5631 -450 
L 5203 -450 
L 5203 -103 
L 3550 -103 
L 3550 -450 
L 3122 -450 
L 3122 1997 
L 5631 1997 
z
M 3550 1613 
L 3550 281 
L 5203 281 
L 5203 1613 
L 3550 1613 
z
M 353 197 
Q 581 863 647 1759 
L 1056 1709 
Q 988 709 769 -13 
L 353 197 
z
M 2334 313 
Q 2206 1147 1997 1759 
L 2363 1869 
Q 2609 1253 2766 488 
L 2334 313 
z
" transform="scale(0.015625)"/>
      <path id="IPAexGothic-679c" d="M 3809 1666 
Q 4656 800 6088 297 
L 5784 -131 
Q 4256 494 3406 1563 
L 3406 -447 
L 2947 -447 
L 2947 1519 
Q 2203 425 647 -281 
L 334 109 
Q 1769 697 2575 1666 
L 378 1666 
L 378 2075 
L 2947 2075 
L 2947 2625 
L 1109 2625 
L 1109 5013 
L 5288 5013 
L 5288 2625 
L 3406 2625 
L 3406 2075 
L 6016 2075 
L 6016 1666 
L 3809 1666 
z
M 1556 4628 
L 1556 3994 
L 2959 3994 
L 2959 4628 
L 1556 4628 
z
M 1556 3628 
L 1556 3009 
L 2959 3009 
L 2959 3628 
L 1556 3628 
z
M 4834 3009 
L 4834 3628 
L 3394 3628 
L 3394 3009 
L 4834 3009 
z
M 4834 3994 
L 4834 4628 
L 3394 4628 
L 3394 3994 
L 4834 3994 
z
" transform="scale(0.015625)"/>
     </defs>
     <use xlink:href="#IPAexGothic-30b5"/>
     <use xlink:href="#IPAexGothic-30a4" transform="translate(100 0)"/>
     <use xlink:href="#IPAexGothic-30c8" transform="translate(200 0)"/>
     <use xlink:href="#IPAexGothic-6539" transform="translate(300 0)"/>
     <use xlink:href="#IPAexGothic-5584" transform="translate(400 0)"/>
     <use xlink:href="#IPAexGothic-30a2" transform="translate(500 0)"/>
     <use xlink:href="#IPAexGothic-30f3" transform="translate(600 0)"/>
     <use xlink:href="#IPAexGothic-30b1" transform="translate(700 0)"/>
     <use xlink:href="#IPAexGothic-30fc" transform="translate(800 0)"/>
     <use xlink:href="#IPAexGothic-30c8" transform="translate(900 0)"/>
     <use xlink:href="#IPAexGothic-20" transform="translate(1000 0)"/>
     <use xlink:href="#IPAexGothic-7d50" transform="translate(1027.001953 0)"/>
     <use xlink:href="#IPAexGothic-679c" transform="translate(1127.001953 0)"/>
    </g>
   </g>
  </g>
 </g>
 <defs>
  <clipPath id="pc73fa314e5">
   <rect x="87.73" y="30.48" width="325.562" height="247.49875"/>
  </clipPath>
 </defs>
</svg>
