<?xml version="1.0" encoding="utf-8" standalone="no"?>
<!DOCTYPE svg PUBLIC "-//W3C//DTD SVG 1.1//EN"
  "http://www.w3.org/Graphics/SVG/1.1/DTD/svg11.dtd">
<svg xmlns:xlink="http://www.w3.org/1999/xlink" width="432pt" height="288pt" viewBox="0 0 432 288" xmlns="http://www.w3.org/2000/svg" version="1.1">
 <metadata>
  <rdf:RDF xmlns:dc="http://purl.org/dc/elements/1.1/" xmlns:cc="http://creativecommons.org/ns#" xmlns:rdf="http://www.w3.org/1999/02/22-rdf-syntax-ns#">
   <cc:Work>
    <dc:type rdf:resource="http://purl.org/dc/dcmitype/StillImage"/>
    <dc:date>2025-10-29T09:07:45.282382</dc:date>
    <dc:format>image/svg+xml</dc:format>
    <dc:creator>
     <cc:Agent>
      <dc:title>Matplotlib v3.10.7, https://matplotlib.org/</dc:title>
     </cc:Agent>
    </dc:creator>
   </cc:Work>
  </rdf:RDF>
 </metadata>
 <defs>
  <style type="text/css">*{stroke-linejoin: round; stroke-linecap: butt}</style>
 </defs>
 <g id="figure_1">
  <g id="patch_1">
   <path d="M 0 288 
L 432 288 
L 432 0 
L 0 0 
z
" style="fill: #ffffff"/>
  </g>
  <g id="axes_1">
   <g id="patch_2">
    <path d="M 57.76 242.44 
L 418.05 242.44 
L 418.05 30.48 
L 57.76 30.48 
z
" style="fill: #ffffff"/>
   </g>
   <g id="matplotlib.axis_1">
    <g id="xtick_1">
     <g id="line2d_1">
      <path d="M 57.76 242.44 
L 57.76 30.48 
" clip-path="url(#p876fb6565e)" style="fill: none; stroke: #000000; stroke-opacity: 0.2; stroke-width: 0.5; stroke-linecap: square"/>
     </g>
     <g id="line2d_2">
      <defs>
       <path id="m98d4f3347c" d="M 0 0 
L 0 3.5 
" style="stroke: #000000; stroke-width: 0.8"/>
      </defs>
      <g>
       <use xlink:href="#m98d4f3347c" x="57.76" y="242.44" style="stroke: #000000; stroke-width: 0.8"/>
      </g>
     </g>
     <g id="text_1">
      <!-- 0 -->
      <g transform="translate(54.610781 256.930625) scale(0.1 -0.1)">
       <defs>
        <path id="IPAexGothic-30" d="M 2038 4725 
Q 2881 4725 3334 3944 
Q 3694 3325 3694 2344 
Q 3694 1372 3334 741 
Q 2888 -31 2016 -31 
Q 1147 -31 700 741 
Q 341 1372 341 2350 
Q 341 3713 1000 4334 
Q 1419 4725 2038 4725 
z
M 2016 4266 
Q 1516 4266 1228 3759 
Q 934 3247 934 2344 
Q 934 1456 1222 947 
Q 1513 447 2016 447 
Q 2619 447 2909 1153 
Q 3100 1622 3100 2375 
Q 3100 3256 2806 3759 
Q 2509 4266 2016 4266 
z
" transform="scale(0.015625)"/>
       </defs>
       <use xlink:href="#IPAexGothic-30"/>
      </g>
     </g>
    </g>
    <g id="xtick_2">
     <g id="line2d_3">
      <path d="M 129.818 242.44 
L 129.818 30.48 
" clip-path="url(#p876fb6565e)" style="fill: none; stroke: #000000; stroke-opacity: 0.2; stroke-width: 0.5; stroke-linecap: square"/>
     </g>
     <g id="line2d_4">
      <g>
       <use xlink:href="#m98d4f3347c" x="129.818" y="242.44" style="stroke: #000000; stroke-width: 0.8"/>
      </g>
     </g>
     <g id="text_2">
      <!-- 1 -->
      <g transform="translate(126.668781 256.930625) scale(0.1 -0.1)">
       <defs>
        <path id="IPAexGothic-31" d="M 2463 63 
L 1900 63 
L 1900 4103 
Q 1372 3922 788 3797 
L 684 4231 
Q 1519 4441 2106 4731 
L 2463 4731 
L 2463 63 
z
" transform="scale(0.015625)"/>
       </defs>
       <use xlink:href="#IPAexGothic-31"/>
      </g>
     </g>
    </g>
    <g id="xtick_3">
     <g id="line2d_5">
      <path d="M 201.876 242.44 
L 201.876 30.48 
" clip-path="url(#p876fb6565e)" style="fill: none; stroke: #000000; stroke-opacity: 0.2; stroke-width: 0.5; stroke-linecap: square"/>
     </g>
     <g id="line2d_6">
      <g>
       <use xlink:href="#m98d4f3347c" x="201.876" y="242.44" style="stroke: #000000; stroke-width: 0.8"/>
      </g>
     </g>
     <g id="text_3">
      <!-- 2 -->
      <g transform="translate(198.726781 256.930625) scale(0.1 -0.1)">
       <defs>
        <path id="IPAexGothic-32" d="M 3659 63 
L 447 63 
L 447 594 
Q 825 1475 1894 2203 
L 2072 2322 
Q 2619 2697 2791 2906 
Q 2988 3153 2988 3444 
Q 2988 3772 2756 4003 
Q 2500 4259 2084 4259 
Q 1250 4259 991 3328 
L 497 3506 
Q 853 4725 2116 4725 
Q 2806 4725 3216 4316 
Q 3575 3947 3575 3425 
Q 3575 3038 3344 2722 
Q 3131 2416 2366 1938 
L 2231 1856 
Q 1256 1253 978 569 
L 3659 569 
L 3659 63 
z
" transform="scale(0.015625)"/>
       </defs>
       <use xlink:href="#IPAexGothic-32"/>
      </g>
     </g>
    </g>
    <g id="xtick_4">
     <g id="line2d_7">
      <path d="M 273.934 242.44 
L 273.934 30.48 
" clip-path="url(#p876fb6565e)" style="fill: none; stroke: #000000; stroke-opacity: 0.2; stroke-width: 0.5; stroke-linecap: square"/>
     </g>
     <g id="line2d_8">
      <g>
       <use xlink:href="#m98d4f3347c" x="273.934" y="242.44" style="stroke: #000000; stroke-width: 0.8"/>
      </g>
     </g>
     <g id="text_4">
      <!-- 3 -->
      <g transform="translate(270.784781 256.930625) scale(0.1 -0.1)">
       <defs>
        <path id="IPAexGothic-33" d="M 2381 2419 
Q 3506 2216 3506 1278 
Q 3506 716 3128 356 
Q 2709 -31 1944 -31 
Q 797 -31 288 881 
L 756 1131 
Q 1109 441 1938 441 
Q 2425 441 2694 691 
Q 2950 928 2950 1291 
Q 2950 1719 2566 1978 
Q 2216 2213 1644 2213 
L 1363 2213 
L 1363 2669 
L 1656 2669 
Q 2231 2669 2534 2888 
Q 2859 3119 2859 3509 
Q 2859 3934 2494 4138 
Q 2259 4278 1931 4278 
Q 1238 4278 903 3578 
L 434 3803 
Q 897 4725 1938 4725 
Q 2597 4725 3006 4394 
Q 3416 4069 3416 3534 
Q 3416 3028 3019 2706 
Q 2763 2500 2381 2444 
L 2381 2419 
z
" transform="scale(0.015625)"/>
       </defs>
       <use xlink:href="#IPAexGothic-33"/>
      </g>
     </g>
    </g>
    <g id="xtick_5">
     <g id="line2d_9">
      <path d="M 345.992 242.44 
L 345.992 30.48 
" clip-path="url(#p876fb6565e)" style="fill: none; stroke: #000000; stroke-opacity: 0.2; stroke-width: 0.5; stroke-linecap: square"/>
     </g>
     <g id="line2d_10">
      <g>
       <use xlink:href="#m98d4f3347c" x="345.992" y="242.44" style="stroke: #000000; stroke-width: 0.8"/>
      </g>
     </g>
     <g id="text_5">
      <!-- 4 -->
      <g transform="translate(342.842781 256.930625) scale(0.1 -0.1)">
       <defs>
        <path id="IPAexGothic-34" d="M 3813 1159 
L 3059 1159 
L 3059 63 
L 2547 63 
L 2547 1159 
L 197 1159 
L 197 1672 
L 2456 4678 
L 3059 4678 
L 3059 1634 
L 3813 1634 
L 3813 1159 
z
M 2578 4109 
L 2559 4109 
Q 2278 3656 2003 3284 
L 759 1634 
L 2547 1634 
L 2547 3144 
Q 2547 3481 2578 4109 
z
" transform="scale(0.015625)"/>
       </defs>
       <use xlink:href="#IPAexGothic-34"/>
      </g>
     </g>
    </g>
    <g id="xtick_6">
     <g id="line2d_11">
      <path d="M 418.05 242.44 
L 418.05 30.48 
" clip-path="url(#p876fb6565e)" style="fill: none; stroke: #000000; stroke-opacity: 0.2; stroke-width: 0.5; stroke-linecap: square"/>
     </g>
     <g id="line2d_12">
      <g>
       <use xlink:href="#m98d4f3347c" x="418.05" y="242.44" style="stroke: #000000; stroke-width: 0.8"/>
      </g>
     </g>
     <g id="text_6">
      <!-- 5 -->
      <g transform="translate(414.900781 256.930625) scale(0.1 -0.1)">
       <defs>
        <path id="IPAexGothic-35" d="M 1178 2603 
Q 1634 2963 2172 2963 
Q 2816 2963 3241 2528 
Q 3638 2113 3638 1497 
Q 3638 938 3297 513 
Q 2869 -31 2031 -31 
Q 959 -31 469 784 
L 938 1028 
Q 1309 434 2013 434 
Q 2466 434 2769 716 
Q 3081 1013 3081 1503 
Q 3081 1966 2806 2241 
Q 2519 2528 2056 2528 
Q 1406 2528 1072 2028 
L 591 2091 
L 884 4634 
L 3406 4634 
L 3406 4153 
L 1341 4153 
L 1134 2603 
L 1178 2603 
z
" transform="scale(0.015625)"/>
       </defs>
       <use xlink:href="#IPAexGothic-35"/>
      </g>
     </g>
    </g>
    <g id="text_7">
     <!-- 満足度（5 点満点） -->
     <g transform="translate(173.826125 273.617125) scale(0.144 -0.144)">
      <defs>
       <path id="IPAexGothic-6e80" d="M 4106 3072 
L 4106 2578 
L 5753 2578 
L 5753 50 
Q 5753 -397 5191 -397 
Q 4763 -397 4409 -359 
L 4347 97 
Q 4794 38 5106 38 
Q 5325 38 5325 281 
L 5325 2206 
L 4100 2206 
L 4100 959 
L 4509 959 
L 4509 1853 
L 4900 1853 
L 4900 588 
L 3300 588 
L 3300 178 
L 2909 178 
L 2909 1853 
L 3300 1853 
L 3300 959 
L 3703 959 
L 3703 2206 
L 2519 2206 
L 2519 -447 
L 2091 -447 
L 2091 2578 
L 3691 2578 
L 3691 3072 
L 1778 3072 
L 1778 3456 
L 2916 3456 
L 2916 4122 
L 1944 4122 
L 1944 4494 
L 2916 4494 
L 2916 5313 
L 3356 5313 
L 3356 4494 
L 4372 4494 
L 4372 5313 
L 4813 5313 
L 4813 4494 
L 5844 4494 
L 5844 4122 
L 4813 4122 
L 4813 3456 
L 6034 3456 
L 6034 3072 
L 4106 3072 
z
M 4372 4122 
L 3356 4122 
L 3356 3456 
L 4372 3456 
L 4372 4122 
z
M 1413 3903 
Q 1081 4359 556 4769 
L 856 5100 
Q 1384 4700 1734 4275 
L 1413 3903 
z
M 1228 2381 
Q 828 2872 325 3256 
L 619 3591 
Q 1003 3322 1553 2753 
L 1228 2381 
z
M 375 -84 
Q 922 806 1297 1906 
L 1669 1619 
Q 1328 553 759 -428 
L 375 -84 
z
" transform="scale(0.015625)"/>
       <path id="IPAexGothic-8db3" d="M 3431 263 
Q 3959 206 4631 206 
Q 5259 206 6084 250 
Q 5969 44 5906 -256 
Q 5184 -275 4816 -275 
Q 3334 -275 2681 -31 
Q 2022 222 1594 859 
Q 1334 184 741 -497 
L 434 -122 
Q 1263 791 1484 2319 
L 1944 2216 
Q 1859 1697 1753 1331 
Q 2175 566 2963 353 
L 2963 2766 
L 1631 2766 
L 1631 2478 
L 1156 2478 
L 1156 4856 
L 5234 4856 
L 5234 2478 
L 4759 2478 
L 4759 2766 
L 3431 2766 
L 3431 1831 
L 5516 1831 
L 5516 1422 
L 3431 1422 
L 3431 263 
z
M 1631 4447 
L 1631 3169 
L 4759 3169 
L 4759 4447 
L 1631 4447 
z
" transform="scale(0.015625)"/>
       <path id="IPAexGothic-5ea6" d="M 3516 4622 
L 5794 4622 
L 5794 4231 
L 1278 4231 
L 1278 3547 
L 2328 3547 
L 2328 4041 
L 2759 4041 
L 2759 3547 
L 4097 3547 
L 4097 4041 
L 4525 4041 
L 4525 3547 
L 5825 3547 
L 5825 3163 
L 4525 3163 
L 4525 2266 
L 2328 2266 
L 2328 3163 
L 1278 3163 
L 1278 2747 
Q 1278 1434 1131 775 
Q 1006 203 606 -441 
L 269 -50 
Q 653 541 763 1381 
Q 825 1869 825 2747 
L 825 4622 
L 3034 4622 
L 3034 5313 
L 3516 5313 
L 3516 4622 
z
M 2759 3163 
L 2759 2619 
L 4097 2619 
L 4097 3163 
L 2759 3163 
z
M 3609 263 
Q 2784 -231 1472 -494 
L 1222 -97 
Q 2444 63 3213 491 
Q 2544 909 2119 1522 
L 1575 1522 
L 1575 1900 
L 4897 1900 
L 5125 1700 
Q 4628 994 3994 516 
Q 4769 200 5925 56 
L 5638 -397 
Q 4434 -163 3609 263 
z
M 2606 1522 
Q 2984 1044 3578 716 
Q 4163 1119 4422 1522 
L 2606 1522 
z
" transform="scale(0.015625)"/>
       <path id="IPAexGothic-ff08" d="M 5419 -434 
Q 4197 769 4197 2438 
Q 4197 4097 5419 5300 
L 5919 5300 
Q 4678 4078 4678 2425 
Q 4678 788 5919 -434 
L 5419 -434 
z
" transform="scale(0.015625)"/>
       <path id="IPAexGothic-20" transform="scale(0.015625)"/>
       <path id="IPAexGothic-70b9" d="M 3331 4372 
L 5728 4372 
L 5728 3944 
L 3331 3944 
L 3331 3231 
L 5288 3231 
L 5288 1338 
L 1122 1338 
L 1122 3231 
L 2850 3231 
L 2850 5197 
L 3331 5197 
L 3331 4372 
z
M 1563 2834 
L 1563 1734 
L 4847 1734 
L 4847 2834 
L 1563 2834 
z
M 494 -166 
Q 984 353 1288 1094 
L 1709 928 
Q 1378 81 897 -488 
L 494 -166 
z
M 2466 -434 
Q 2391 275 2216 884 
L 2650 984 
Q 2866 366 2966 -325 
L 2466 -434 
z
M 3866 -331 
Q 3681 384 3388 947 
L 3809 1088 
Q 4119 538 4341 -153 
L 3866 -331 
z
M 5569 -353 
Q 5088 466 4622 978 
L 5013 1191 
Q 5603 578 6009 -63 
L 5569 -353 
z
" transform="scale(0.015625)"/>
       <path id="IPAexGothic-ff09" d="M 481 -434 
Q 1722 788 1722 2431 
Q 1722 4066 481 5300 
L 981 5300 
Q 2203 4097 2203 2431 
Q 2203 769 981 -434 
L 481 -434 
z
" transform="scale(0.015625)"/>
      </defs>
      <use xlink:href="#IPAexGothic-6e80"/>
      <use xlink:href="#IPAexGothic-8db3" transform="translate(100 0)"/>
      <use xlink:href="#IPAexGothic-5ea6" transform="translate(200 0)"/>
      <use xlink:href="#IPAexGothic-ff08" transform="translate(300 0)"/>
      <use xlink:href="#IPAexGothic-35" transform="translate(400 0)"/>
      <use xlink:href="#IPAexGothic-20" transform="translate(462.988281 0)"/>
      <use xlink:href="#IPAexGothic-70b9" transform="translate(489.990234 0)"/>
      <use xlink:href="#IPAexGothic-6e80" transform="translate(589.990234 0)"/>
      <use xlink:href="#IPAexGothic-70b9" transform="translate(689.990234 0)"/>
      <use xlink:href="#IPAexGothic-ff09" transform="translate(789.990234 0)"/>
     </g>
    </g>
   </g>
   <g id="matplotlib.axis_2">
    <g id="ytick_1">
     <g id="line2d_13">
      <defs>
       <path id="m2293c5b8a2" d="M 0 0 
L -3.5 0 
" style="stroke: #000000; stroke-width: 0.8"/>
      </defs>
      <g>
       <use xlink:href="#m2293c5b8a2" x="57.76" y="232.805455" style="stroke: #000000; stroke-width: 0.8"/>
      </g>
     </g>
     <g id="text_8">
      <!-- UX -->
      <g transform="translate(36.42875 236.550767) scale(0.1 -0.1)">
       <defs>
        <path id="IPAexGothic-55" d="M 4219 4634 
L 4219 1631 
Q 4219 994 3906 594 
Q 3400 -63 2388 -63 
Q 1372 -63 856 594 
Q 550 988 550 1631 
L 550 4634 
L 1113 4634 
L 1113 1700 
Q 1113 1134 1388 831 
Q 1753 428 2388 428 
Q 3031 428 3388 831 
Q 3663 1144 3663 1700 
L 3663 4634 
L 4219 4634 
z
" transform="scale(0.015625)"/>
        <path id="IPAexGothic-58" d="M 4203 63 
L 3469 63 
L 2163 1972 
L 881 63 
L 159 63 
L 1822 2369 
L 203 4634 
L 922 4634 
L 2181 2753 
L 3450 4634 
L 4166 4634 
L 2528 2375 
L 4203 63 
z
" transform="scale(0.015625)"/>
       </defs>
       <use xlink:href="#IPAexGothic-55"/>
       <use xlink:href="#IPAexGothic-58" transform="translate(74.707031 0)"/>
      </g>
     </g>
    </g>
    <g id="ytick_2">
     <g id="line2d_14">
      <g>
       <use xlink:href="#m2293c5b8a2" x="57.76" y="194.267273" style="stroke: #000000; stroke-width: 0.8"/>
      </g>
     </g>
     <g id="text_9">
      <!-- 性能 -->
      <g transform="translate(30.76 198.012585) scale(0.1 -0.1)">
       <defs>
        <path id="IPAexGothic-6027" d="M 3106 3788 
L 3900 3788 
L 3900 5216 
L 4353 5216 
L 4353 3788 
L 5884 3788 
L 5884 3372 
L 4353 3372 
L 4353 2069 
L 5756 2069 
L 5756 1653 
L 4353 1653 
L 4353 153 
L 6081 153 
L 6081 -269 
L 2231 -269 
L 2231 153 
L 3900 153 
L 3900 1653 
L 2606 1653 
L 2606 2069 
L 3900 2069 
L 3900 3372 
L 2984 3372 
Q 2806 2803 2544 2325 
L 2147 2613 
Q 2638 3428 2875 4875 
L 3313 4778 
Q 3234 4309 3106 3788 
z
M 269 2188 
Q 459 2891 525 3950 
L 934 3884 
Q 884 2694 672 1931 
L 269 2188 
z
M 1997 3047 
Q 1872 3591 1650 4078 
L 1984 4256 
Q 2216 3844 2394 3291 
L 1997 3047 
z
M 1159 5313 
L 1613 5313 
L 1613 -447 
L 1159 -447 
L 1159 5313 
z
" transform="scale(0.015625)"/>
        <path id="IPAexGothic-80fd" d="M 888 3903 
Q 1228 4475 1509 5325 
L 1991 5203 
Q 1684 4497 1344 3941 
L 1325 3916 
L 1406 3916 
Q 1972 3928 2522 3966 
L 2584 3966 
Q 2438 4216 2181 4556 
L 2541 4753 
Q 3025 4141 3372 3475 
L 2988 3213 
Q 2909 3375 2775 3634 
Q 1938 3513 447 3456 
L 319 3897 
Q 613 3897 734 3903 
L 888 3903 
z
M 2963 3072 
L 2963 50 
Q 2963 -384 2413 -384 
Q 2100 -384 1822 -347 
L 1753 97 
Q 2091 38 2328 38 
Q 2534 38 2534 225 
L 2534 934 
L 1150 934 
L 1150 -447 
L 722 -447 
L 722 3072 
L 2963 3072 
z
M 1150 2688 
L 1150 2194 
L 2534 2194 
L 2534 2688 
L 1150 2688 
z
M 1150 1822 
L 1150 1306 
L 2534 1306 
L 2534 1822 
L 1150 1822 
z
M 3934 4153 
Q 4806 4444 5431 4872 
L 5803 4525 
Q 4866 4013 3934 3763 
L 3934 3206 
Q 3934 3022 4069 2981 
Q 4188 2950 4550 2950 
Q 5344 2950 5431 3116 
Q 5497 3234 5516 3828 
L 5963 3706 
Q 5934 2825 5719 2675 
Q 5522 2534 4594 2534 
Q 3897 2534 3678 2644 
Q 3494 2741 3494 3034 
L 3494 5209 
L 3934 5209 
L 3934 4153 
z
M 3934 1338 
Q 3947 1344 3984 1356 
Q 4816 1628 5472 2041 
L 5841 1684 
Q 4884 1203 3934 959 
L 3934 353 
Q 3934 131 4088 81 
Q 4203 38 4625 38 
Q 5228 38 5375 100 
Q 5556 188 5584 991 
L 6053 872 
Q 6025 203 5919 -44 
Q 5816 -281 5478 -341 
Q 5253 -384 4722 -384 
Q 3966 -384 3738 -294 
Q 3494 -197 3494 116 
L 3494 2338 
L 3934 2338 
L 3934 1338 
z
" transform="scale(0.015625)"/>
       </defs>
       <use xlink:href="#IPAexGothic-6027"/>
       <use xlink:href="#IPAexGothic-80fd" transform="translate(100 0)"/>
      </g>
     </g>
    </g>
    <g id="ytick_3">
     <g id="line2d_15">
      <g>
       <use xlink:href="#m2293c5b8a2" x="57.76" y="155.729091" style="stroke: #000000; stroke-width: 0.8"/>
      </g>
     </g>
     <g id="text_10">
      <!-- 機能性 -->
      <g transform="translate(20.76 159.474403) scale(0.1 -0.1)">
       <defs>
        <path id="IPAexGothic-6a5f" d="M 3916 2125 
Q 3806 2984 3806 4238 
L 3806 5313 
L 4216 5313 
L 4216 4300 
Q 4216 3081 4300 2278 
L 4313 2150 
L 5175 2150 
Q 4984 2350 4822 2469 
L 5144 2669 
Q 5325 2541 5547 2309 
L 5309 2150 
L 6006 2150 
L 6006 1797 
L 4363 1797 
Q 4450 1278 4688 869 
Q 4931 1150 5194 1631 
L 5553 1431 
Q 5284 953 4913 531 
Q 4941 491 4959 475 
Q 5278 78 5438 78 
Q 5581 78 5669 844 
L 6066 628 
Q 5881 -422 5559 -422 
Q 5163 -422 4631 244 
Q 4069 -275 3384 -519 
L 3116 -191 
Q 3881 88 4406 569 
Q 4072 1116 3966 1772 
L 3084 1772 
Q 3078 1747 3078 1675 
Q 3078 1650 3063 1431 
Q 3534 1153 3934 781 
L 3684 441 
Q 3328 816 3031 1056 
Q 2906 91 2238 -494 
L 1950 -172 
Q 2478 241 2603 891 
Q 2659 1197 2681 1772 
L 2116 1772 
L 2116 2125 
L 3916 2125 
z
M 1113 2534 
Q 813 1522 384 794 
L 153 1250 
Q 763 2228 1063 3547 
L 294 3547 
L 294 3956 
L 1113 3956 
L 1113 5306 
L 1522 5306 
L 1522 3956 
L 2138 3956 
L 2138 3547 
L 1522 3547 
L 1522 2881 
Q 1875 2588 2150 2228 
L 1888 1884 
Q 1753 2144 1522 2434 
L 1522 -447 
L 1113 -447 
L 1113 2534 
z
M 2750 3334 
Q 2441 3850 2131 4159 
L 2347 4469 
Q 2384 4425 2509 4275 
Q 2734 4703 2913 5228 
L 3263 5025 
Q 3028 4447 2719 3988 
Q 2766 3919 2838 3803 
Q 2913 3684 2938 3647 
Q 3175 4066 3347 4434 
L 3666 4244 
Q 3263 3431 2809 2841 
Q 3097 2872 3347 2900 
Q 3347 2913 3334 2950 
Q 3313 3063 3231 3303 
L 3519 3372 
Q 3716 2891 3781 2413 
L 3456 2297 
Q 3453 2316 3428 2484 
Q 3416 2575 3403 2631 
Q 2906 2506 2175 2438 
L 2072 2797 
Q 2109 2800 2194 2803 
Q 2263 2806 2297 2809 
Q 2369 2809 2413 2816 
L 2438 2853 
Q 2538 2994 2750 3334 
z
M 4875 3413 
Q 4559 3916 4263 4206 
L 4478 4506 
Q 4494 4488 4559 4406 
Q 4609 4350 4641 4306 
Q 4891 4769 5038 5216 
L 5394 5013 
Q 5147 4466 4838 4025 
Q 4963 3844 5050 3700 
Q 5241 4019 5466 4469 
L 5784 4256 
Q 5497 3725 4991 3009 
Q 5356 3031 5547 3053 
Q 5466 3281 5381 3450 
L 5681 3553 
Q 5872 3181 6022 2669 
L 5709 2503 
Q 5697 2550 5663 2678 
Q 5641 2759 5631 2797 
Q 5019 2669 4434 2619 
L 4338 2975 
Q 4513 2975 4594 2981 
Q 4778 3256 4875 3413 
z
" transform="scale(0.015625)"/>
       </defs>
       <use xlink:href="#IPAexGothic-6a5f"/>
       <use xlink:href="#IPAexGothic-80fd" transform="translate(100 0)"/>
       <use xlink:href="#IPAexGothic-6027" transform="translate(200 0)"/>
      </g>
     </g>
    </g>
    <g id="ytick_4">
     <g id="line2d_16">
      <g>
       <use xlink:href="#m2293c5b8a2" x="57.76" y="117.190909" style="stroke: #000000; stroke-width: 0.8"/>
      </g>
     </g>
     <g id="text_11">
      <!-- 信頼性 -->
      <g transform="translate(20.76 120.936222) scale(0.1 -0.1)">
       <defs>
        <path id="IPAexGothic-4fe1" d="M 1572 3809 
L 1572 -447 
L 1119 -447 
L 1119 2847 
Q 856 2372 550 1972 
L 300 2363 
Q 1172 3550 1566 5253 
L 2013 5147 
Q 1819 4428 1572 3809 
z
M 5534 1619 
L 5534 -447 
L 5081 -447 
L 5081 -116 
L 2763 -116 
L 2763 -447 
L 2316 -447 
L 2316 1619 
L 5534 1619 
z
M 2763 1234 
L 2763 269 
L 5081 269 
L 5081 1234 
L 2763 1234 
z
M 2475 4984 
L 5375 4984 
L 5375 4588 
L 2475 4588 
L 2475 4984 
z
M 2475 3297 
L 5375 3297 
L 5375 2906 
L 2475 2906 
L 2475 3297 
z
M 2475 2456 
L 5375 2456 
L 5375 2066 
L 2475 2066 
L 2475 2456 
z
M 1894 4147 
L 6003 4147 
L 6003 3738 
L 1894 3738 
L 1894 4147 
z
" transform="scale(0.015625)"/>
        <path id="IPAexGothic-983c" d="M 1513 1466 
Q 1109 591 494 -13 
L 219 344 
Q 953 994 1434 2016 
L 525 2016 
L 525 3578 
L 1513 3578 
L 1513 4134 
L 313 4134 
L 313 4531 
L 1513 4531 
L 1513 5313 
L 1922 5313 
L 1922 4531 
L 3109 4531 
L 3109 4134 
L 1922 4134 
L 1922 3578 
L 2925 3578 
L 2925 2016 
L 1922 2016 
L 1922 1734 
Q 2400 1369 2900 856 
L 2613 494 
Q 2288 919 1922 1288 
L 1922 -447 
L 1513 -447 
L 1513 1466 
z
M 1525 3200 
L 909 3200 
L 909 2388 
L 1525 2388 
L 1525 3200 
z
M 1909 3200 
L 1909 2388 
L 2541 2388 
L 2541 3200 
L 1909 3200 
z
M 4622 4025 
L 5709 4025 
L 5709 794 
L 3400 794 
L 3400 4025 
L 4225 4025 
Q 4309 4319 4359 4653 
L 3034 4653 
L 3034 5050 
L 6022 5050 
L 6022 4653 
L 4806 4653 
Q 4716 4288 4622 4025 
z
M 5300 3647 
L 3809 3647 
L 3809 3072 
L 5300 3072 
L 5300 3647 
z
M 3809 2713 
L 3809 2131 
L 5300 2131 
L 5300 2713 
L 3809 2713 
z
M 3809 1778 
L 3809 1166 
L 5300 1166 
L 5300 1778 
L 3809 1778 
z
M 5763 -434 
Q 5328 59 4713 519 
L 5038 763 
Q 5459 500 6138 -122 
L 5763 -434 
z
M 2791 -184 
Q 3566 234 3969 744 
L 4328 506 
Q 3772 -116 3113 -500 
L 2791 -184 
z
" transform="scale(0.015625)"/>
       </defs>
       <use xlink:href="#IPAexGothic-4fe1"/>
       <use xlink:href="#IPAexGothic-983c" transform="translate(100 0)"/>
       <use xlink:href="#IPAexGothic-6027" transform="translate(200 0)"/>
      </g>
     </g>
    </g>
    <g id="ytick_5">
     <g id="line2d_17">
      <g>
       <use xlink:href="#m2293c5b8a2" x="57.76" y="78.652727" style="stroke: #000000; stroke-width: 0.8"/>
      </g>
     </g>
     <g id="text_12">
      <!-- コスパ -->
      <g transform="translate(20.76 82.39804) scale(0.1 -0.1)">
       <defs>
        <path id="IPAexGothic-30b3" d="M 1134 4213 
L 5166 4213 
L 5166 153 
L 4653 153 
L 4653 594 
L 1063 594 
L 1063 1088 
L 4653 1088 
L 4653 3725 
L 1134 3725 
L 1134 4213 
z
" transform="scale(0.015625)"/>
        <path id="IPAexGothic-30b9" d="M 4359 4481 
L 4716 4147 
Q 4328 3072 3647 2150 
Q 4659 1434 5659 453 
L 5234 19 
Q 4256 1088 3353 1778 
Q 2372 597 1044 -31 
L 653 403 
Q 3128 1453 4097 4000 
L 1241 3963 
L 1228 4453 
L 4359 4481 
z
" transform="scale(0.015625)"/>
        <path id="IPAexGothic-30d1" d="M 403 897 
Q 1447 2063 1947 3878 
L 2472 3694 
Q 1913 1772 872 538 
L 403 897 
z
M 5416 672 
Q 4669 2269 3659 3719 
L 4122 3963 
Q 5025 2728 5931 1019 
L 5416 672 
z
M 5228 5234 
Q 5538 5234 5750 5000 
Q 5931 4797 5931 4531 
Q 5931 4219 5697 4006 
Q 5497 3822 5228 3822 
Q 4916 3822 4703 4056 
Q 4519 4259 4519 4531 
Q 4519 4841 4753 5050 
Q 4956 5234 5228 5234 
z
M 5228 4953 
Q 5038 4953 4909 4813 
Q 4800 4691 4800 4531 
Q 4800 4341 4941 4213 
Q 5063 4103 5228 4103 
Q 5413 4103 5541 4244 
Q 5650 4366 5650 4531 
Q 5650 4716 5509 4844 
Q 5388 4953 5228 4953 
z
" transform="scale(0.015625)"/>
       </defs>
       <use xlink:href="#IPAexGothic-30b3"/>
       <use xlink:href="#IPAexGothic-30b9" transform="translate(100 0)"/>
       <use xlink:href="#IPAexGothic-30d1" transform="translate(200 0)"/>
      </g>
     </g>
    </g>
    <g id="ytick_6">
     <g id="line2d_18">
      <g>
       <use xlink:href="#m2293c5b8a2" x="57.76" y="40.114545" style="stroke: #000000; stroke-width: 0.8"/>
      </g>
     </g>
     <g id="text_13">
      <!-- サポート -->
      <g transform="translate(10.76 43.859858) scale(0.1 -0.1)">
       <defs>
        <path id="IPAexGothic-30b5" d="M 3994 4919 
L 4506 4919 
L 4506 3531 
L 5888 3531 
L 5888 3072 
L 4506 3072 
Q 4488 1719 4153 1063 
Q 3728 222 2644 -325 
L 2266 38 
Q 3325 525 3713 1319 
Q 3975 1853 3994 3072 
L 2331 3072 
L 2331 1575 
L 1819 1575 
L 1819 3072 
L 513 3072 
L 513 3531 
L 1819 3531 
L 1819 4797 
L 2331 4797 
L 2331 3531 
L 3994 3531 
L 3994 4919 
z
" transform="scale(0.015625)"/>
        <path id="IPAexGothic-30dd" d="M 5188 5453 
Q 5497 5453 5706 5219 
Q 5891 5016 5891 4747 
Q 5891 4434 5656 4222 
Q 5453 4038 5188 4038 
Q 4872 4038 4659 4272 
Q 4475 4475 4475 4747 
Q 4475 5059 4709 5269 
Q 4916 5453 5188 5453 
z
M 5188 5172 
Q 4997 5172 4866 5031 
Q 4756 4909 4756 4747 
Q 4756 4556 4897 4428 
Q 5022 4319 5188 4319 
Q 5372 4319 5500 4459 
Q 5609 4584 5609 4747 
Q 5609 4934 5469 5063 
Q 5347 5172 5188 5172 
z
M 2972 4978 
L 3478 4978 
L 3478 3794 
L 5584 3794 
L 5584 3341 
L 3478 3341 
L 3478 397 
Q 3478 -147 2844 -147 
Q 2428 -147 2019 -72 
L 1909 459 
Q 2300 359 2716 359 
Q 2972 359 2972 616 
L 2972 3341 
L 822 3341 
L 822 3794 
L 2972 3794 
L 2972 4978 
z
M 603 922 
Q 988 1294 1222 1694 
Q 1438 2063 1600 2572 
L 2050 2369 
Q 1859 1766 1588 1325 
Q 1372 975 1000 556 
L 603 922 
z
M 5313 709 
Q 4847 1700 4309 2388 
L 4719 2656 
Q 5269 2016 5775 1031 
L 5313 709 
z
" transform="scale(0.015625)"/>
        <path id="IPAexGothic-30fc" d="M 588 2688 
L 5809 2688 
L 5809 2175 
L 588 2175 
L 588 2688 
z
" transform="scale(0.015625)"/>
        <path id="IPAexGothic-30c8" d="M 2284 4997 
L 2803 4997 
L 2803 3206 
Q 4088 2619 5216 1888 
L 4878 1369 
Q 3819 2175 2803 2688 
L 2803 -184 
L 2284 -184 
L 2284 4997 
z
" transform="scale(0.015625)"/>
       </defs>
       <use xlink:href="#IPAexGothic-30b5"/>
       <use xlink:href="#IPAexGothic-30dd" transform="translate(100 0)"/>
       <use xlink:href="#IPAexGothic-30fc" transform="translate(200 0)"/>
       <use xlink:href="#IPAexGothic-30c8" transform="translate(300 0)"/>
      </g>
     </g>
    </g>
   </g>
   <g id="LineCollection_1">
    <path d="M 57.76 232.805455 
L 389.2268 232.805455 
" clip-path="url(#p876fb6565e)" style="fill: none; stroke: #94a3b8; stroke-width: 2"/>
    <path d="M 57.76 194.267273 
L 353.1978 194.267273 
" clip-path="url(#p876fb6565e)" style="fill: none; stroke: #94a3b8; stroke-width: 2"/>
    <path d="M 57.76 155.729091 
L 374.8152 155.729091 
" clip-path="url(#p876fb6565e)" style="fill: none; stroke: #94a3b8; stroke-width: 2"/>
    <path d="M 57.76 117.190909 
L 360.4036 117.190909 
" clip-path="url(#p876fb6565e)" style="fill: none; stroke: #94a3b8; stroke-width: 2"/>
    <path d="M 57.76 78.652727 
L 338.7862 78.652727 
" clip-path="url(#p876fb6565e)" style="fill: none; stroke: #94a3b8; stroke-width: 2"/>
    <path d="M 57.76 40.114545 
L 367.6094 40.114545 
" clip-path="url(#p876fb6565e)" style="fill: none; stroke: #94a3b8; stroke-width: 2"/>
   </g>
   <g id="line2d_19">
    <defs>
     <path id="maec9f21bb1" d="M 0 5 
C 1.326016 5 2.597899 4.473168 3.535534 3.535534 
C 4.473168 2.597899 5 1.326016 5 0 
C 5 -1.326016 4.473168 -2.597899 3.535534 -3.535534 
C 2.597899 -4.473168 1.326016 -5 0 -5 
C -1.326016 -5 -2.597899 -4.473168 -3.535534 -3.535534 
C -4.473168 -2.597899 -5 -1.326016 -5 0 
C -5 1.326016 -4.473168 2.597899 -3.535534 3.535534 
C -2.597899 4.473168 -1.326016 5 0 5 
z
" style="stroke: #1d4ed8"/>
    </defs>
    <g clip-path="url(#p876fb6565e)">
     <use xlink:href="#maec9f21bb1" x="389.2268" y="232.805455" style="fill: #1d4ed8; stroke: #1d4ed8"/>
     <use xlink:href="#maec9f21bb1" x="353.1978" y="194.267273" style="fill: #1d4ed8; stroke: #1d4ed8"/>
     <use xlink:href="#maec9f21bb1" x="374.8152" y="155.729091" style="fill: #1d4ed8; stroke: #1d4ed8"/>
     <use xlink:href="#maec9f21bb1" x="360.4036" y="117.190909" style="fill: #1d4ed8; stroke: #1d4ed8"/>
     <use xlink:href="#maec9f21bb1" x="338.7862" y="78.652727" style="fill: #1d4ed8; stroke: #1d4ed8"/>
     <use xlink:href="#maec9f21bb1" x="367.6094" y="40.114545" style="fill: #1d4ed8; stroke: #1d4ed8"/>
    </g>
   </g>
   <g id="text_14">
    <!-- 機能別満足度のロリポップチャート -->
    <g transform="translate(99.665 24.48) scale(0.1728 -0.1728)">
     <defs>
      <path id="IPAexGothic-5225" d="M 1922 2963 
Q 1906 2453 1894 2209 
L 3341 2209 
Q 3313 550 3175 63 
Q 3059 -366 2413 -366 
Q 2072 -366 1753 -313 
L 1691 134 
Q 2084 63 2413 63 
Q 2694 63 2759 319 
Q 2856 722 2888 1753 
Q 2888 1800 2894 1819 
L 1863 1819 
Q 1709 350 700 -481 
L 353 -147 
Q 1075 403 1306 1256 
Q 1450 1822 1478 2963 
L 700 2963 
L 700 4984 
L 3278 4984 
L 3278 2963 
L 1922 2963 
z
M 1141 4588 
L 1141 3353 
L 2838 3353 
L 2838 4588 
L 1141 4588 
z
M 3972 4597 
L 4425 4597 
L 4425 1159 
L 3972 1159 
L 3972 4597 
z
M 5309 5044 
L 5763 5044 
L 5763 191 
Q 5763 -141 5581 -263 
Q 5438 -359 5116 -359 
Q 4688 -359 4253 -313 
L 4156 178 
Q 4625 116 5072 116 
Q 5309 116 5309 353 
L 5309 5044 
z
" transform="scale(0.015625)"/>
      <path id="IPAexGothic-306e" d="M 3119 469 
Q 5275 766 5275 2425 
Q 5275 3453 4413 3925 
Q 4041 4116 3547 4159 
Q 3394 2525 2850 1400 
Q 2322 306 1722 306 
Q 1384 306 1084 666 
Q 609 1244 609 2003 
Q 609 3025 1397 3794 
Q 2184 4563 3431 4563 
Q 4306 4563 4928 4122 
Q 5813 3506 5813 2425 
Q 5813 438 3431 6 
L 3119 469 
z
M 3053 4147 
Q 2378 4044 1891 3641 
Q 1097 2981 1097 1991 
Q 1097 1366 1434 978 
Q 1581 813 1719 813 
Q 2022 813 2416 1625 
Q 2909 2638 3053 4147 
z
" transform="scale(0.015625)"/>
      <path id="IPAexGothic-30ed" d="M 1147 4269 
L 5250 4269 
L 5250 172 
L 4725 172 
L 4725 569 
L 1672 569 
L 1672 172 
L 1147 172 
L 1147 4269 
z
M 1672 3781 
L 1672 1063 
L 4725 1063 
L 4725 3781 
L 1672 3781 
z
" transform="scale(0.015625)"/>
      <path id="IPAexGothic-30ea" d="M 1678 4788 
L 2222 4788 
L 2222 1900 
L 1678 1900 
L 1678 4788 
z
M 4084 4909 
L 4628 4909 
L 4628 2753 
Q 4628 1563 4150 794 
Q 3725 119 2772 -353 
L 2394 78 
Q 3334 494 3706 1094 
Q 4084 1703 4084 2725 
L 4084 4909 
z
" transform="scale(0.015625)"/>
      <path id="IPAexGothic-30c3" d="M 1775 1984 
Q 1553 2666 1275 3175 
L 1716 3391 
Q 2034 2866 2247 2209 
L 1775 1984 
z
M 3003 2297 
Q 2813 2978 2522 3469 
L 2978 3681 
Q 3291 3166 3484 2522 
L 3003 2297 
z
M 1928 372 
Q 3094 744 3731 1569 
Q 4275 2263 4469 3525 
L 4975 3406 
Q 4734 1975 4016 1119 
Q 3406 391 2266 -44 
L 1928 372 
z
" transform="scale(0.015625)"/>
      <path id="IPAexGothic-30d7" d="M 4825 4275 
L 5125 4000 
Q 4884 2378 4081 1381 
Q 3294 413 1888 -116 
L 1522 331 
Q 4069 1113 4550 3803 
L 966 3738 
L 966 4225 
L 4825 4275 
z
M 5597 5509 
Q 5906 5509 6119 5275 
Q 6303 5075 6303 4806 
Q 6303 4494 6069 4281 
Q 5866 4097 5597 4097 
Q 5284 4097 5072 4331 
Q 4888 4534 4888 4806 
Q 4888 5116 5122 5328 
Q 5328 5509 5597 5509 
z
M 5597 5228 
Q 5409 5228 5278 5088 
Q 5169 4966 5169 4806 
Q 5169 4616 5309 4488 
Q 5434 4378 5597 4378 
Q 5784 4378 5913 4519 
Q 6022 4641 6022 4806 
Q 6022 4991 5881 5119 
Q 5759 5228 5597 5228 
z
" transform="scale(0.015625)"/>
      <path id="IPAexGothic-30c1" d="M 3088 2853 
L 3088 3981 
Q 2359 3847 1531 3797 
L 1288 4238 
Q 3200 4344 4553 4872 
L 4909 4456 
Q 4244 4216 3606 4078 
L 3606 2913 
L 5806 2913 
L 5806 2459 
L 3600 2459 
Q 3559 1422 3188 850 
Q 2722 138 1738 -256 
L 1347 153 
Q 2319 500 2709 1081 
Q 3031 1563 3081 2400 
L 597 2400 
L 597 2853 
L 3088 2853 
z
" transform="scale(0.015625)"/>
      <path id="IPAexGothic-30e3" d="M 2559 3903 
L 2803 2816 
L 4863 3169 
L 5191 2894 
Q 4672 1875 4103 1203 
L 3666 1447 
Q 4175 2013 4525 2688 
L 2900 2388 
L 3450 -116 
L 2969 -231 
L 2419 2297 
L 1172 2069 
L 1075 2516 
L 2328 2731 
L 2094 3809 
L 2559 3903 
z
" transform="scale(0.015625)"/>
     </defs>
     <use xlink:href="#IPAexGothic-6a5f"/>
     <use xlink:href="#IPAexGothic-80fd" transform="translate(100 0)"/>
     <use xlink:href="#IPAexGothic-5225" transform="translate(200 0)"/>
     <use xlink:href="#IPAexGothic-6e80" transform="translate(300 0)"/>
     <use xlink:href="#IPAexGothic-8db3" transform="translate(400 0)"/>
     <use xlink:href="#IPAexGothic-5ea6" transform="translate(500 0)"/>
     <use xlink:href="#IPAexGothic-306e" transform="translate(600 0)"/>
     <use xlink:href="#IPAexGothic-30ed" transform="translate(700 0)"/>
     <use xlink:href="#IPAexGothic-30ea" transform="translate(800 0)"/>
     <use xlink:href="#IPAexGothic-30dd" transform="translate(900 0)"/>
     <use xlink:href="#IPAexGothic-30c3" transform="translate(1000 0)"/>
     <use xlink:href="#IPAexGothic-30d7" transform="translate(1100 0)"/>
     <use xlink:href="#IPAexGothic-30c1" transform="translate(1200 0)"/>
     <use xlink:href="#IPAexGothic-30e3" transform="translate(1300 0)"/>
     <use xlink:href="#IPAexGothic-30fc" transform="translate(1400 0)"/>
     <use xlink:href="#IPAexGothic-30c8" transform="translate(1500 0)"/>
    </g>
   </g>
  </g>
 </g>
 <defs>
  <clipPath id="p876fb6565e">
   <rect x="57.76" y="30.48" width="360.29" height="211.96"/>
  </clipPath>
 </defs>
</svg>
