<?xml version="1.0" encoding="utf-8" standalone="no"?>
<!DOCTYPE svg PUBLIC "-//W3C//DTD SVG 1.1//EN"
  "http://www.w3.org/Graphics/SVG/1.1/DTD/svg11.dtd">
<svg xmlns:xlink="http://www.w3.org/1999/xlink" width="432pt" height="288pt" viewBox="0 0 432 288" xmlns="http://www.w3.org/2000/svg" version="1.1">
 <metadata>
  <rdf:RDF xmlns:dc="http://purl.org/dc/elements/1.1/" xmlns:cc="http://creativecommons.org/ns#" xmlns:rdf="http://www.w3.org/1999/02/22-rdf-syntax-ns#">
   <cc:Work>
    <dc:type rdf:resource="http://purl.org/dc/dcmitype/StillImage"/>
    <dc:date>2025-10-29T09:07:45.347789</dc:date>
    <dc:format>image/svg+xml</dc:format>
    <dc:creator>
     <cc:Agent>
      <dc:title>Matplotlib v3.10.7, https://matplotlib.org/</dc:title>
     </cc:Agent>
    </dc:creator>
   </cc:Work>
  </rdf:RDF>
 </metadata>
 <defs>
  <style type="text/css">*{stroke-linejoin: round; stroke-linecap: butt}</style>
 </defs>
 <g id="figure_1">
  <g id="patch_1">
   <path d="M 0 288 
L 432 288 
L 432 0 
L 0 0 
z
" style="fill: #ffffff"/>
  </g>
  <g id="axes_1">
   <g id="patch_2">
    <path d="M 55.1 260.6375 
L 421.2 260.6375 
L 421.2 30.48 
L 55.1 30.48 
z
" style="fill: #ffffff"/>
   </g>
   <g id="patch_3">
    <path d="M 71.740909 260.6375 
L 127.210606 260.6375 
L 127.210606 56.053056 
L 71.740909 56.053056 
z
" clip-path="url(#p22f9451846)" style="fill: #2563eb"/>
   </g>
   <g id="patch_4">
    <path d="M 141.07803 260.6375 
L 196.547727 260.6375 
L 196.547727 126.378958 
L 141.07803 126.378958 
z
" clip-path="url(#p22f9451846)" style="fill: #2563eb"/>
   </g>
   <g id="patch_5">
    <path d="M 210.415152 260.6375 
L 265.884848 260.6375 
L 265.884848 81.626111 
L 210.415152 81.626111 
z
" clip-path="url(#p22f9451846)" style="fill: #2563eb"/>
   </g>
   <g id="patch_6">
    <path d="M 279.752273 260.6375 
L 335.22197 260.6375 
L 335.22197 139.165486 
L 279.752273 139.165486 
z
" clip-path="url(#p22f9451846)" style="fill: #2563eb"/>
   </g>
   <g id="patch_7">
    <path d="M 349.089394 260.6375 
L 404.559091 260.6375 
L 404.559091 158.345278 
L 349.089394 158.345278 
z
" clip-path="url(#p22f9451846)" style="fill: #2563eb"/>
   </g>
   <g id="matplotlib.axis_1">
    <g id="xtick_1">
     <g id="line2d_1">
      <defs>
       <path id="ma66ffb3bd5" d="M 0 0 
L 0 3.5 
" style="stroke: #000000; stroke-width: 0.8"/>
      </defs>
      <g>
       <use xlink:href="#ma66ffb3bd5" x="99.475758" y="260.6375" style="stroke: #000000; stroke-width: 0.8"/>
      </g>
     </g>
     <g id="text_1">
      <!-- 東京 -->
      <g transform="translate(89.475758 275.128125) scale(0.1 -0.1)">
       <defs>
        <path id="IPAexGothic-6771" d="M 3822 1631 
Q 4653 791 6088 300 
L 5788 -147 
Q 4269 463 3400 1553 
L 3400 -450 
L 2959 -450 
L 2959 1516 
Q 2200 403 634 -269 
L 328 147 
Q 1781 638 2575 1631 
L 1544 1631 
L 1544 1406 
L 1109 1406 
L 1109 3781 
L 2959 3781 
L 2959 4256 
L 419 4256 
L 419 4659 
L 2959 4659 
L 2959 5313 
L 3400 5313 
L 3400 4659 
L 5984 4659 
L 5984 4256 
L 3400 4256 
L 3400 3781 
L 5288 3781 
L 5288 1406 
L 4847 1406 
L 4847 1631 
L 3822 1631 
z
M 2966 3397 
L 1544 3397 
L 1544 2900 
L 2966 2900 
L 2966 3397 
z
M 3394 3397 
L 3394 2900 
L 4847 2900 
L 4847 3397 
L 3394 3397 
z
M 2966 2541 
L 1544 2541 
L 1544 2016 
L 2966 2016 
L 2966 2541 
z
M 3394 2541 
L 3394 2016 
L 4847 2016 
L 4847 2541 
L 3394 2541 
z
" transform="scale(0.015625)"/>
        <path id="IPAexGothic-4eac" d="M 3422 4441 
L 5956 4441 
L 5956 4025 
L 444 4025 
L 444 4441 
L 2934 4441 
L 2934 5313 
L 3422 5313 
L 3422 4441 
z
M 5109 3506 
L 5109 1791 
L 3491 1791 
L 3491 116 
Q 3491 -178 3356 -294 
Q 3234 -397 2869 -397 
Q 2525 -397 2075 -347 
L 1997 134 
Q 2503 44 2791 44 
Q 3016 44 3016 269 
L 3016 1791 
L 1288 1791 
L 1288 3506 
L 5109 3506 
z
M 1763 3109 
L 1763 2188 
L 4634 2188 
L 4634 3109 
L 1763 3109 
z
M 5447 -31 
Q 4819 750 4128 1281 
L 4531 1538 
Q 5291 944 5869 300 
L 5447 -31 
z
M 463 238 
Q 1272 722 1750 1491 
L 2159 1269 
Q 1588 409 816 -122 
L 463 238 
z
" transform="scale(0.015625)"/>
       </defs>
       <use xlink:href="#IPAexGothic-6771"/>
       <use xlink:href="#IPAexGothic-4eac" transform="translate(100 0)"/>
      </g>
     </g>
    </g>
    <g id="xtick_2">
     <g id="line2d_2">
      <g>
       <use xlink:href="#ma66ffb3bd5" x="168.812879" y="260.6375" style="stroke: #000000; stroke-width: 0.8"/>
      </g>
     </g>
     <g id="text_2">
      <!-- 名古屋 -->
      <g transform="translate(153.812879 275.128125) scale(0.1 -0.1)">
       <defs>
        <path id="IPAexGothic-540d" d="M 2669 2094 
L 5563 2094 
L 5563 -434 
L 5088 -434 
L 5088 -122 
L 2459 -122 
L 2459 -447 
L 1984 -447 
L 1984 1716 
Q 1294 1366 716 1147 
L 397 1531 
Q 1775 1950 2844 2700 
Q 2400 3181 1978 3500 
Q 1509 3091 934 2784 
L 609 3122 
Q 2097 3881 2869 5297 
L 3322 5184 
Q 3263 5081 3028 4709 
L 4984 4709 
L 5253 4478 
Q 4072 2894 2669 2094 
z
M 2459 1697 
L 2459 269 
L 5088 269 
L 5088 1697 
L 2459 1697 
z
M 3213 2981 
Q 4069 3694 4531 4319 
L 2747 4319 
Q 2563 4088 2278 3781 
Q 2847 3366 3213 2981 
z
" transform="scale(0.015625)"/>
        <path id="IPAexGothic-53e4" d="M 3419 2463 
L 5306 2463 
L 5306 -447 
L 4819 -447 
L 4819 0 
L 1575 0 
L 1575 -447 
L 1088 -447 
L 1088 2463 
L 2931 2463 
L 2931 3694 
L 409 3694 
L 409 4122 
L 2931 4122 
L 2931 5269 
L 3419 5269 
L 3419 4122 
L 6009 4122 
L 6009 3694 
L 3419 3694 
L 3419 2463 
z
M 4819 2053 
L 1575 2053 
L 1575 403 
L 4819 403 
L 4819 2053 
z
" transform="scale(0.015625)"/>
        <path id="IPAexGothic-5c4b" d="M 3803 1728 
L 3803 1094 
L 5559 1094 
L 5559 722 
L 3803 722 
L 3803 72 
L 6016 72 
L 6016 -325 
L 1300 -325 
L 1300 72 
L 3356 72 
L 3356 722 
L 1659 722 
L 1659 1094 
L 3356 1094 
L 3356 1703 
L 3106 1681 
Q 2869 1669 1753 1631 
L 1594 2053 
L 2106 2053 
L 2331 2059 
Q 2581 2441 2766 2784 
L 1369 2784 
L 1369 2644 
Q 1359 1559 1275 972 
Q 1169 219 756 -459 
L 384 -106 
Q 750 475 856 1338 
Q 928 1950 928 2869 
L 928 4978 
L 5503 4978 
L 5503 3678 
L 1369 3678 
L 1369 3156 
L 5850 3156 
L 5850 2784 
L 4513 2784 
L 4556 2753 
Q 5250 2281 5753 1784 
L 5381 1497 
Q 5244 1644 5056 1825 
Q 4588 1775 3803 1728 
z
M 5063 4606 
L 1369 4606 
L 1369 4056 
L 5063 4056 
L 5063 4606 
z
M 4456 2784 
L 3272 2784 
Q 3022 2359 2806 2069 
Q 3506 2078 4225 2113 
L 4716 2131 
Q 4334 2456 4128 2606 
L 4456 2784 
z
" transform="scale(0.015625)"/>
       </defs>
       <use xlink:href="#IPAexGothic-540d"/>
       <use xlink:href="#IPAexGothic-53e4" transform="translate(100 0)"/>
       <use xlink:href="#IPAexGothic-5c4b" transform="translate(200 0)"/>
      </g>
     </g>
    </g>
    <g id="xtick_3">
     <g id="line2d_3">
      <g>
       <use xlink:href="#ma66ffb3bd5" x="238.15" y="260.6375" style="stroke: #000000; stroke-width: 0.8"/>
      </g>
     </g>
     <g id="text_3">
      <!-- 大阪 -->
      <g transform="translate(228.15 275.128125) scale(0.1 -0.1)">
       <defs>
        <path id="IPAexGothic-5927" d="M 3528 3181 
Q 4150 1197 6003 275 
L 5647 -184 
Q 3891 831 3259 2681 
Q 2894 644 872 -344 
L 513 97 
Q 1678 528 2344 1538 
Q 2784 2219 2900 3181 
L 481 3181 
L 481 3628 
L 2925 3628 
L 2925 5150 
L 3431 5150 
L 3431 3628 
L 5922 3628 
L 5922 3181 
L 3528 3181 
z
" transform="scale(0.015625)"/>
        <path id="IPAexGothic-962a" d="M 3219 2944 
Q 3219 1575 3084 922 
Q 2919 153 2369 -475 
L 2044 -134 
Q 2559 441 2681 1253 
Q 2766 1781 2766 2816 
L 2766 4897 
L 5906 4897 
L 5906 4481 
L 3219 4481 
L 3219 3353 
L 5363 3353 
L 5631 3116 
Q 5294 1838 4813 1094 
Q 5313 516 6072 63 
L 5741 -366 
Q 5066 109 4544 709 
Q 4031 22 3200 -475 
L 2906 -91 
Q 3722 331 4269 1063 
Q 3641 1953 3391 2944 
L 3219 2944 
z
M 4525 1453 
Q 4913 2094 5113 2944 
L 3822 2944 
Q 4003 2200 4525 1453 
z
M 1838 3072 
Q 2425 2338 2425 1503 
Q 2425 806 1819 806 
Q 1506 806 1325 844 
L 1259 1284 
Q 1434 1222 1716 1222 
Q 1978 1222 1978 1600 
Q 1978 2363 1388 3059 
Q 1734 3756 1919 4581 
L 1056 4581 
L 1056 -450 
L 609 -450 
L 609 4984 
L 2234 4984 
L 2444 4772 
L 2394 4588 
Q 2153 3772 1838 3072 
z
" transform="scale(0.015625)"/>
       </defs>
       <use xlink:href="#IPAexGothic-5927"/>
       <use xlink:href="#IPAexGothic-962a" transform="translate(100 0)"/>
      </g>
     </g>
    </g>
    <g id="xtick_4">
     <g id="line2d_4">
      <g>
       <use xlink:href="#ma66ffb3bd5" x="307.487121" y="260.6375" style="stroke: #000000; stroke-width: 0.8"/>
      </g>
     </g>
     <g id="text_4">
      <!-- 福岡 -->
      <g transform="translate(297.487121 275.128125) scale(0.1 -0.1)">
       <defs>
        <path id="IPAexGothic-798f" d="M 1663 2672 
Q 2125 2291 2541 1856 
L 2231 1459 
Q 1969 1816 1663 2153 
L 1663 -447 
L 1222 -447 
L 1222 2094 
Q 847 1638 441 1269 
L 191 1672 
Q 1263 2544 1863 3797 
L 331 3797 
L 331 4213 
L 1163 4213 
L 1163 5306 
L 1603 5306 
L 1603 4213 
L 2206 4213 
L 2438 4016 
Q 2103 3300 1663 2672 
z
M 5534 4191 
L 5534 2744 
L 2916 2744 
L 2916 4191 
L 5534 4191 
z
M 3344 3819 
L 3344 3116 
L 5106 3116 
L 5106 3819 
L 3344 3819 
z
M 5913 2297 
L 5913 -447 
L 5497 -447 
L 5497 -172 
L 3000 -172 
L 3000 -447 
L 2578 -447 
L 2578 2297 
L 5913 2297 
z
M 3000 1919 
L 3000 1263 
L 4031 1263 
L 4031 1919 
L 3000 1919 
z
M 3000 897 
L 3000 200 
L 4031 200 
L 4031 897 
L 3000 897 
z
M 5497 200 
L 5497 897 
L 4434 897 
L 4434 200 
L 5497 200 
z
M 5497 1263 
L 5497 1919 
L 4434 1919 
L 4434 1263 
L 5497 1263 
z
M 2419 5019 
L 6041 5019 
L 6041 4622 
L 2419 4622 
L 2419 5019 
z
" transform="scale(0.015625)"/>
        <path id="IPAexGothic-5ca1" d="M 4175 1147 
L 4175 2431 
L 4597 2431 
L 4597 763 
L 2222 763 
L 2222 391 
L 1800 391 
L 1800 2431 
L 2222 2431 
L 2222 1147 
L 2966 1147 
L 2966 2828 
L 1434 2828 
L 1434 3219 
L 3419 3219 
Q 3784 3813 3963 4366 
L 4450 4209 
Q 4138 3575 3906 3219 
L 4956 3219 
L 4956 2828 
L 3400 2828 
L 3400 1147 
L 4175 1147 
z
M 5769 4984 
L 5769 141 
Q 5769 -122 5659 -250 
Q 5538 -391 5063 -391 
Q 4528 -391 4066 -347 
L 3963 153 
Q 4566 75 5038 75 
Q 5300 75 5300 306 
L 5300 4575 
L 1097 4575 
L 1097 -447 
L 628 -447 
L 628 4984 
L 5769 4984 
z
M 2369 3244 
Q 2188 3691 1897 4122 
L 2319 4319 
Q 2600 3913 2803 3469 
L 2369 3244 
z
" transform="scale(0.015625)"/>
       </defs>
       <use xlink:href="#IPAexGothic-798f"/>
       <use xlink:href="#IPAexGothic-5ca1" transform="translate(100 0)"/>
      </g>
     </g>
    </g>
    <g id="xtick_5">
     <g id="line2d_5">
      <g>
       <use xlink:href="#ma66ffb3bd5" x="376.824242" y="260.6375" style="stroke: #000000; stroke-width: 0.8"/>
      </g>
     </g>
     <g id="text_5">
      <!-- 札幌 -->
      <g transform="translate(366.824242 275.128125) scale(0.1 -0.1)">
       <defs>
        <path id="IPAexGothic-672d" d="M 1709 2722 
Q 1353 1672 684 738 
L 372 1153 
Q 1222 2184 1625 3534 
L 513 3534 
L 513 3950 
L 1709 3950 
L 1709 5244 
L 2178 5244 
L 2178 3950 
L 3259 3950 
L 3259 3534 
L 2178 3534 
L 2178 2953 
Q 2856 2372 3344 1838 
L 3056 1403 
Q 2575 2034 2178 2459 
L 2178 -447 
L 1709 -447 
L 1709 2722 
z
M 3775 5088 
L 4256 5088 
L 4256 409 
Q 4256 241 4353 194 
Q 4431 150 4750 150 
Q 5356 150 5434 297 
Q 5516 469 5544 1125 
L 5550 1275 
L 6041 1131 
Q 6013 156 5863 -75 
Q 5734 -263 5416 -300 
Q 5128 -331 4716 -331 
Q 4097 -331 3928 -203 
Q 3775 -100 3775 184 
L 3775 5088 
z
" transform="scale(0.015625)"/>
        <path id="IPAexGothic-5e4c" d="M 3872 1459 
Q 3853 628 3559 213 
Q 3225 -269 2472 -519 
L 2191 -153 
Q 2884 38 3194 434 
Q 3428 738 3438 1459 
L 2338 1459 
L 2338 1228 
Q 2338 878 1984 878 
Q 1809 878 1691 903 
L 1619 1313 
Q 1781 1281 1838 1281 
Q 1953 1281 1953 1416 
L 1953 3678 
L 1556 3678 
L 1556 -447 
L 1159 -447 
L 1159 3678 
L 788 3678 
L 788 800 
L 397 800 
L 397 4084 
L 1159 4084 
L 1159 5313 
L 1556 5313 
L 1556 4084 
L 2338 4084 
L 2338 1856 
L 3950 1856 
L 3950 3038 
L 2784 3038 
L 2784 5081 
L 5575 5081 
L 5575 3038 
L 4378 3038 
L 4378 1856 
L 6063 1856 
L 6063 1459 
L 4838 1459 
L 4838 250 
Q 4838 103 4922 56 
Q 4963 31 5203 31 
Q 5578 31 5625 166 
Q 5672 263 5691 788 
L 6119 647 
Q 6091 -84 5953 -231 
Q 5813 -391 5131 -391 
Q 4681 -391 4538 -294 
Q 4409 -206 4409 31 
L 4409 1459 
L 3872 1459 
z
M 3200 4728 
L 3200 4244 
L 5159 4244 
L 5159 4728 
L 3200 4728 
z
M 3200 3903 
L 3200 3384 
L 5159 3384 
L 5159 3903 
L 3200 3903 
z
M 3181 1931 
Q 2981 2406 2759 2725 
L 3128 2913 
Q 3406 2516 3584 2125 
L 3181 1931 
z
M 4800 2022 
Q 5066 2456 5228 2950 
L 5672 2791 
Q 5400 2238 5147 1875 
L 4800 2022 
z
" transform="scale(0.015625)"/>
       </defs>
       <use xlink:href="#IPAexGothic-672d"/>
       <use xlink:href="#IPAexGothic-5e4c" transform="translate(100 0)"/>
      </g>
     </g>
    </g>
   </g>
   <g id="matplotlib.axis_2">
    <g id="ytick_1">
     <g id="line2d_6">
      <path d="M 55.1 260.6375 
L 421.2 260.6375 
" clip-path="url(#p22f9451846)" style="fill: none; stroke: #000000; stroke-opacity: 0.2; stroke-width: 0.5; stroke-linecap: square"/>
     </g>
     <g id="line2d_7">
      <defs>
       <path id="mc8d9b65c24" d="M 0 0 
L -3.5 0 
" style="stroke: #000000; stroke-width: 0.8"/>
      </defs>
      <g>
       <use xlink:href="#mc8d9b65c24" x="55.1" y="260.6375" style="stroke: #000000; stroke-width: 0.8"/>
      </g>
     </g>
     <g id="text_6">
      <!-- 0 -->
      <g transform="translate(41.801563 264.382812) scale(0.1 -0.1)">
       <defs>
        <path id="IPAexGothic-30" d="M 2038 4725 
Q 2881 4725 3334 3944 
Q 3694 3325 3694 2344 
Q 3694 1372 3334 741 
Q 2888 -31 2016 -31 
Q 1147 -31 700 741 
Q 341 1372 341 2350 
Q 341 3713 1000 4334 
Q 1419 4725 2038 4725 
z
M 2016 4266 
Q 1516 4266 1228 3759 
Q 934 3247 934 2344 
Q 934 1456 1222 947 
Q 1513 447 2016 447 
Q 2619 447 2909 1153 
Q 3100 1622 3100 2375 
Q 3100 3256 2806 3759 
Q 2509 4266 2016 4266 
z
" transform="scale(0.015625)"/>
       </defs>
       <use xlink:href="#IPAexGothic-30"/>
      </g>
     </g>
    </g>
    <g id="ytick_2">
     <g id="line2d_8">
      <path d="M 55.1 228.671181 
L 421.2 228.671181 
" clip-path="url(#p22f9451846)" style="fill: none; stroke: #000000; stroke-opacity: 0.2; stroke-width: 0.5; stroke-linecap: square"/>
     </g>
     <g id="line2d_9">
      <g>
       <use xlink:href="#mc8d9b65c24" x="55.1" y="228.671181" style="stroke: #000000; stroke-width: 0.8"/>
      </g>
     </g>
     <g id="text_7">
      <!-- 50 -->
      <g transform="translate(35.503125 232.416493) scale(0.1 -0.1)">
       <defs>
        <path id="IPAexGothic-35" d="M 1178 2603 
Q 1634 2963 2172 2963 
Q 2816 2963 3241 2528 
Q 3638 2113 3638 1497 
Q 3638 938 3297 513 
Q 2869 -31 2031 -31 
Q 959 -31 469 784 
L 938 1028 
Q 1309 434 2013 434 
Q 2466 434 2769 716 
Q 3081 1013 3081 1503 
Q 3081 1966 2806 2241 
Q 2519 2528 2056 2528 
Q 1406 2528 1072 2028 
L 591 2091 
L 884 4634 
L 3406 4634 
L 3406 4153 
L 1341 4153 
L 1134 2603 
L 1178 2603 
z
" transform="scale(0.015625)"/>
       </defs>
       <use xlink:href="#IPAexGothic-35"/>
       <use xlink:href="#IPAexGothic-30" transform="translate(62.988281 0)"/>
      </g>
     </g>
    </g>
    <g id="ytick_3">
     <g id="line2d_10">
      <path d="M 55.1 196.704861 
L 421.2 196.704861 
" clip-path="url(#p22f9451846)" style="fill: none; stroke: #000000; stroke-opacity: 0.2; stroke-width: 0.5; stroke-linecap: square"/>
     </g>
     <g id="line2d_11">
      <g>
       <use xlink:href="#mc8d9b65c24" x="55.1" y="196.704861" style="stroke: #000000; stroke-width: 0.8"/>
      </g>
     </g>
     <g id="text_8">
      <!-- 100 -->
      <g transform="translate(29.204688 200.450174) scale(0.1 -0.1)">
       <defs>
        <path id="IPAexGothic-31" d="M 2463 63 
L 1900 63 
L 1900 4103 
Q 1372 3922 788 3797 
L 684 4231 
Q 1519 4441 2106 4731 
L 2463 4731 
L 2463 63 
z
" transform="scale(0.015625)"/>
       </defs>
       <use xlink:href="#IPAexGothic-31"/>
       <use xlink:href="#IPAexGothic-30" transform="translate(62.988281 0)"/>
       <use xlink:href="#IPAexGothic-30" transform="translate(125.976562 0)"/>
      </g>
     </g>
    </g>
    <g id="ytick_4">
     <g id="line2d_12">
      <path d="M 55.1 164.738542 
L 421.2 164.738542 
" clip-path="url(#p22f9451846)" style="fill: none; stroke: #000000; stroke-opacity: 0.2; stroke-width: 0.5; stroke-linecap: square"/>
     </g>
     <g id="line2d_13">
      <g>
       <use xlink:href="#mc8d9b65c24" x="55.1" y="164.738542" style="stroke: #000000; stroke-width: 0.8"/>
      </g>
     </g>
     <g id="text_9">
      <!-- 150 -->
      <g transform="translate(29.204688 168.483854) scale(0.1 -0.1)">
       <use xlink:href="#IPAexGothic-31"/>
       <use xlink:href="#IPAexGothic-35" transform="translate(62.988281 0)"/>
       <use xlink:href="#IPAexGothic-30" transform="translate(125.976562 0)"/>
      </g>
     </g>
    </g>
    <g id="ytick_5">
     <g id="line2d_14">
      <path d="M 55.1 132.772222 
L 421.2 132.772222 
" clip-path="url(#p22f9451846)" style="fill: none; stroke: #000000; stroke-opacity: 0.2; stroke-width: 0.5; stroke-linecap: square"/>
     </g>
     <g id="line2d_15">
      <g>
       <use xlink:href="#mc8d9b65c24" x="55.1" y="132.772222" style="stroke: #000000; stroke-width: 0.8"/>
      </g>
     </g>
     <g id="text_10">
      <!-- 200 -->
      <g transform="translate(29.204688 136.517535) scale(0.1 -0.1)">
       <defs>
        <path id="IPAexGothic-32" d="M 3659 63 
L 447 63 
L 447 594 
Q 825 1475 1894 2203 
L 2072 2322 
Q 2619 2697 2791 2906 
Q 2988 3153 2988 3444 
Q 2988 3772 2756 4003 
Q 2500 4259 2084 4259 
Q 1250 4259 991 3328 
L 497 3506 
Q 853 4725 2116 4725 
Q 2806 4725 3216 4316 
Q 3575 3947 3575 3425 
Q 3575 3038 3344 2722 
Q 3131 2416 2366 1938 
L 2231 1856 
Q 1256 1253 978 569 
L 3659 569 
L 3659 63 
z
" transform="scale(0.015625)"/>
       </defs>
       <use xlink:href="#IPAexGothic-32"/>
       <use xlink:href="#IPAexGothic-30" transform="translate(62.988281 0)"/>
       <use xlink:href="#IPAexGothic-30" transform="translate(125.976562 0)"/>
      </g>
     </g>
    </g>
    <g id="ytick_6">
     <g id="line2d_16">
      <path d="M 55.1 100.805903 
L 421.2 100.805903 
" clip-path="url(#p22f9451846)" style="fill: none; stroke: #000000; stroke-opacity: 0.2; stroke-width: 0.5; stroke-linecap: square"/>
     </g>
     <g id="line2d_17">
      <g>
       <use xlink:href="#mc8d9b65c24" x="55.1" y="100.805903" style="stroke: #000000; stroke-width: 0.8"/>
      </g>
     </g>
     <g id="text_11">
      <!-- 250 -->
      <g transform="translate(29.204688 104.551215) scale(0.1 -0.1)">
       <use xlink:href="#IPAexGothic-32"/>
       <use xlink:href="#IPAexGothic-35" transform="translate(62.988281 0)"/>
       <use xlink:href="#IPAexGothic-30" transform="translate(125.976562 0)"/>
      </g>
     </g>
    </g>
    <g id="ytick_7">
     <g id="line2d_18">
      <path d="M 55.1 68.839583 
L 421.2 68.839583 
" clip-path="url(#p22f9451846)" style="fill: none; stroke: #000000; stroke-opacity: 0.2; stroke-width: 0.5; stroke-linecap: square"/>
     </g>
     <g id="line2d_19">
      <g>
       <use xlink:href="#mc8d9b65c24" x="55.1" y="68.839583" style="stroke: #000000; stroke-width: 0.8"/>
      </g>
     </g>
     <g id="text_12">
      <!-- 300 -->
      <g transform="translate(29.204688 72.584896) scale(0.1 -0.1)">
       <defs>
        <path id="IPAexGothic-33" d="M 2381 2419 
Q 3506 2216 3506 1278 
Q 3506 716 3128 356 
Q 2709 -31 1944 -31 
Q 797 -31 288 881 
L 756 1131 
Q 1109 441 1938 441 
Q 2425 441 2694 691 
Q 2950 928 2950 1291 
Q 2950 1719 2566 1978 
Q 2216 2213 1644 2213 
L 1363 2213 
L 1363 2669 
L 1656 2669 
Q 2231 2669 2534 2888 
Q 2859 3119 2859 3509 
Q 2859 3934 2494 4138 
Q 2259 4278 1931 4278 
Q 1238 4278 903 3578 
L 434 3803 
Q 897 4725 1938 4725 
Q 2597 4725 3006 4394 
Q 3416 4069 3416 3534 
Q 3416 3028 3019 2706 
Q 2763 2500 2381 2444 
L 2381 2419 
z
" transform="scale(0.015625)"/>
       </defs>
       <use xlink:href="#IPAexGothic-33"/>
       <use xlink:href="#IPAexGothic-30" transform="translate(62.988281 0)"/>
       <use xlink:href="#IPAexGothic-30" transform="translate(125.976562 0)"/>
      </g>
     </g>
    </g>
    <g id="ytick_8">
     <g id="line2d_20">
      <path d="M 55.1 36.873264 
L 421.2 36.873264 
" clip-path="url(#p22f9451846)" style="fill: none; stroke: #000000; stroke-opacity: 0.2; stroke-width: 0.5; stroke-linecap: square"/>
     </g>
     <g id="line2d_21">
      <g>
       <use xlink:href="#mc8d9b65c24" x="55.1" y="36.873264" style="stroke: #000000; stroke-width: 0.8"/>
      </g>
     </g>
     <g id="text_13">
      <!-- 350 -->
      <g transform="translate(29.204688 40.618576) scale(0.1 -0.1)">
       <use xlink:href="#IPAexGothic-33"/>
       <use xlink:href="#IPAexGothic-35" transform="translate(62.988281 0)"/>
       <use xlink:href="#IPAexGothic-30" transform="translate(125.976562 0)"/>
      </g>
     </g>
    </g>
    <g id="text_14">
     <!-- 売上（百万円） -->
     <g transform="translate(22.468688 195.95875) rotate(-90) scale(0.144 -0.144)">
      <defs>
       <path id="IPAexGothic-58f2" d="M 2938 4544 
L 2938 5313 
L 3419 5313 
L 3419 4544 
L 5781 4544 
L 5781 4147 
L 3419 4147 
L 3419 3559 
L 5306 3559 
L 5306 3163 
L 1088 3163 
L 1088 3559 
L 2938 3559 
L 2938 4147 
L 609 4147 
L 609 4544 
L 2938 4544 
z
M 5684 2706 
L 5684 1522 
L 5216 1522 
L 5216 2316 
L 1178 2316 
L 1178 1478 
L 709 1478 
L 709 2706 
L 5684 2706 
z
M 531 -84 
Q 1494 91 1894 556 
Q 2213 913 2222 1972 
L 2688 1972 
Q 2678 756 2216 225 
Q 1794 -256 819 -506 
L 531 -84 
z
M 3622 1972 
L 4091 1972 
L 4091 353 
Q 4091 191 4181 153 
Q 4313 100 4684 100 
Q 5169 100 5294 159 
Q 5503 256 5513 1006 
L 5972 863 
Q 5944 -22 5691 -206 
Q 5503 -347 4659 -347 
Q 3981 -347 3809 -250 
Q 3622 -144 3622 178 
L 3622 1972 
z
" transform="scale(0.015625)"/>
       <path id="IPAexGothic-4e0a" d="M 3259 3366 
L 5475 3366 
L 5475 2913 
L 3259 2913 
L 3259 556 
L 5991 556 
L 5991 103 
L 391 103 
L 391 556 
L 2772 556 
L 2772 5050 
L 3259 5050 
L 3259 3366 
z
" transform="scale(0.015625)"/>
       <path id="IPAexGothic-ff08" d="M 5419 -434 
Q 4197 769 4197 2438 
Q 4197 4097 5419 5300 
L 5919 5300 
Q 4678 4078 4678 2425 
Q 4678 788 5919 -434 
L 5419 -434 
z
" transform="scale(0.015625)"/>
       <path id="IPAexGothic-767e" d="M 3119 3431 
L 5263 3431 
L 5263 -447 
L 4781 -447 
L 4781 -31 
L 1616 -31 
L 1616 -447 
L 1134 -447 
L 1134 3431 
L 2638 3431 
Q 2747 3838 2819 4403 
L 481 4403 
L 481 4825 
L 5916 4825 
L 5916 4403 
L 3350 4403 
Q 3250 3881 3144 3522 
L 3119 3431 
z
M 4781 3022 
L 1616 3022 
L 1616 1947 
L 4781 1947 
L 4781 3022 
z
M 1616 1550 
L 1616 372 
L 4781 372 
L 4781 1550 
L 1616 1550 
z
" transform="scale(0.015625)"/>
       <path id="IPAexGothic-4e07" d="M 2888 4316 
Q 2878 3816 2828 3128 
L 5369 3128 
Q 5284 984 5056 300 
Q 4950 -22 4750 -134 
Q 4556 -250 4181 -250 
Q 3659 -250 3091 -159 
L 3028 363 
Q 3638 225 4103 225 
Q 4456 225 4569 463 
Q 4797 906 4866 2700 
L 2784 2700 
Q 2534 575 934 -391 
L 591 -6 
Q 1900 716 2216 2200 
Q 2394 3041 2394 4316 
L 506 4316 
L 506 4756 
L 5888 4756 
L 5888 4316 
L 2888 4316 
z
" transform="scale(0.015625)"/>
       <path id="IPAexGothic-5186" d="M 5594 4806 
L 5594 322 
Q 5594 34 5491 -97 
Q 5366 -269 4959 -269 
Q 4469 -269 3897 -225 
L 3809 275 
Q 4378 206 4844 206 
Q 5106 206 5106 434 
L 5106 2119 
L 1281 2119 
L 1281 -359 
L 794 -359 
L 794 4806 
L 5594 4806 
z
M 1281 4366 
L 1281 2547 
L 2944 2547 
L 2944 4366 
L 1281 4366 
z
M 5106 2547 
L 5106 4366 
L 3413 4366 
L 3413 2547 
L 5106 2547 
z
" transform="scale(0.015625)"/>
       <path id="IPAexGothic-ff09" d="M 481 -434 
Q 1722 788 1722 2431 
Q 1722 4066 481 5300 
L 981 5300 
Q 2203 4097 2203 2431 
Q 2203 769 981 -434 
L 481 -434 
z
" transform="scale(0.015625)"/>
      </defs>
      <use xlink:href="#IPAexGothic-58f2"/>
      <use xlink:href="#IPAexGothic-4e0a" transform="translate(100 0)"/>
      <use xlink:href="#IPAexGothic-ff08" transform="translate(200 0)"/>
      <use xlink:href="#IPAexGothic-767e" transform="translate(300 0)"/>
      <use xlink:href="#IPAexGothic-4e07" transform="translate(400 0)"/>
      <use xlink:href="#IPAexGothic-5186" transform="translate(500 0)"/>
      <use xlink:href="#IPAexGothic-ff09" transform="translate(600 0)"/>
     </g>
    </g>
   </g>
   <g id="text_15">
    <!-- 320 -->
    <g transform="translate(90.028101 50.153056) scale(0.1 -0.1)">
     <use xlink:href="#IPAexGothic-33"/>
     <use xlink:href="#IPAexGothic-32" transform="translate(62.988281 0)"/>
     <use xlink:href="#IPAexGothic-30" transform="translate(125.976562 0)"/>
    </g>
   </g>
   <g id="text_16">
    <!-- 210 -->
    <g transform="translate(159.365223 120.478958) scale(0.1 -0.1)">
     <use xlink:href="#IPAexGothic-32"/>
     <use xlink:href="#IPAexGothic-31" transform="translate(62.988281 0)"/>
     <use xlink:href="#IPAexGothic-30" transform="translate(125.976562 0)"/>
    </g>
   </g>
   <g id="text_17">
    <!-- 280 -->
    <g transform="translate(228.702344 75.726111) scale(0.1 -0.1)">
     <defs>
      <path id="IPAexGothic-38" d="M 2541 2425 
Q 3700 2031 3700 1197 
Q 3700 541 3100 197 
Q 2663 -56 2016 -56 
Q 1366 -56 928 197 
Q 347 531 347 1178 
Q 347 1988 1409 2381 
L 1409 2400 
Q 481 2734 481 3509 
Q 481 4100 981 4456 
Q 1406 4756 2019 4756 
Q 2703 4756 3131 4403 
Q 3553 4069 3553 3566 
Q 3553 2706 2541 2444 
L 2541 2425 
z
M 2022 2625 
Q 2997 2856 2997 3528 
Q 2997 3916 2675 4150 
Q 2413 4347 2016 4347 
Q 1606 4347 1331 4128 
Q 1050 3897 1050 3522 
Q 1050 3150 1350 2925 
Q 1494 2809 1722 2722 
Q 1984 2616 2022 2625 
z
M 1978 2209 
Q 922 1931 922 1216 
Q 922 775 1313 556 
Q 1606 391 2009 391 
Q 2575 391 2881 697 
Q 3106 922 3106 1250 
Q 3106 1594 2794 1850 
Q 2609 1994 2350 2100 
Q 2047 2222 1978 2209 
z
" transform="scale(0.015625)"/>
     </defs>
     <use xlink:href="#IPAexGothic-32"/>
     <use xlink:href="#IPAexGothic-38" transform="translate(62.988281 0)"/>
     <use xlink:href="#IPAexGothic-30" transform="translate(125.976562 0)"/>
    </g>
   </g>
   <g id="text_18">
    <!-- 190 -->
    <g transform="translate(298.039465 133.265486) scale(0.1 -0.1)">
     <defs>
      <path id="IPAexGothic-39" d="M 2984 2356 
Q 2544 1716 1813 1716 
Q 1253 1716 847 2056 
Q 366 2459 366 3163 
Q 366 3813 769 4266 
Q 1181 4725 1869 4725 
Q 2800 4725 3241 3950 
Q 3559 3378 3559 2472 
Q 3559 1250 3041 588 
Q 2553 -31 1769 -31 
Q 859 -31 391 703 
L 853 953 
Q 1156 428 1753 428 
Q 2922 428 3009 2356 
L 2984 2356 
z
M 1888 4278 
Q 1450 4278 1172 3950 
Q 922 3653 922 3200 
Q 922 2741 1159 2478 
Q 1434 2163 1906 2163 
Q 2431 2163 2728 2572 
Q 2925 2847 2925 3169 
Q 2925 3553 2694 3863 
Q 2375 4278 1888 4278 
z
" transform="scale(0.015625)"/>
     </defs>
     <use xlink:href="#IPAexGothic-31"/>
     <use xlink:href="#IPAexGothic-39" transform="translate(62.988281 0)"/>
     <use xlink:href="#IPAexGothic-30" transform="translate(125.976562 0)"/>
    </g>
   </g>
   <g id="text_19">
    <!-- 160 -->
    <g transform="translate(367.376586 152.445278) scale(0.1 -0.1)">
     <defs>
      <path id="IPAexGothic-36" d="M 1056 2328 
Q 1509 2981 2234 2981 
Q 2906 2981 3316 2513 
Q 3675 2106 3675 1522 
Q 3675 884 3272 434 
Q 2853 -31 2178 -31 
Q 1375 -31 922 581 
Q 481 1178 481 2228 
Q 481 3425 1013 4109 
Q 1494 4725 2272 4725 
Q 3191 4725 3609 4025 
L 3150 3775 
Q 2894 4266 2300 4266 
Q 1119 4266 1031 2328 
L 1056 2328 
z
M 2141 2547 
Q 1684 2547 1384 2206 
Q 1116 1900 1116 1541 
Q 1116 1156 1353 844 
Q 1672 428 2159 428 
Q 2669 428 2941 844 
Q 3125 1128 3125 1503 
Q 3125 1944 2881 2228 
Q 2600 2547 2141 2547 
z
" transform="scale(0.015625)"/>
     </defs>
     <use xlink:href="#IPAexGothic-31"/>
     <use xlink:href="#IPAexGothic-36" transform="translate(62.988281 0)"/>
     <use xlink:href="#IPAexGothic-30" transform="translate(125.976562 0)"/>
    </g>
   </g>
   <g id="text_20">
    <!-- 主要拠点の売上比較 -->
    <g transform="translate(160.39 24.48) scale(0.1728 -0.1728)">
     <defs>
      <path id="IPAexGothic-4e3b" d="M 3419 3481 
L 3419 2188 
L 5409 2188 
L 5409 1766 
L 3419 1766 
L 3419 231 
L 5922 231 
L 5922 -197 
L 475 -197 
L 475 231 
L 2931 231 
L 2931 1766 
L 984 1766 
L 984 2188 
L 2931 2188 
L 2931 3481 
L 703 3481 
L 703 3909 
L 5697 3909 
L 5697 3481 
L 3419 3481 
z
M 3344 4031 
Q 2788 4494 1953 4934 
L 2363 5247 
Q 3066 4891 3753 4359 
L 3344 4031 
z
" transform="scale(0.015625)"/>
      <path id="IPAexGothic-8981" d="M 2278 4025 
L 2278 4581 
L 528 4581 
L 528 4978 
L 5856 4978 
L 5856 4581 
L 4081 4581 
L 4081 4025 
L 5522 4025 
L 5522 2547 
L 863 2547 
L 863 4025 
L 2278 4025 
z
M 2694 4025 
L 3659 4025 
L 3659 4581 
L 2694 4581 
L 2694 4025 
z
M 2278 3666 
L 1316 3666 
L 1316 2906 
L 2278 2906 
L 2278 3666 
z
M 2694 3666 
L 2694 2906 
L 3659 2906 
L 3659 3666 
L 2694 3666 
z
M 4081 3666 
L 4081 2906 
L 5075 2906 
L 5075 3666 
L 4081 3666 
z
M 3066 338 
Q 2547 503 1694 722 
L 1503 775 
Q 1816 1141 2066 1503 
L 447 1503 
L 447 1900 
L 2316 1900 
Q 2497 2225 2641 2516 
L 3084 2366 
Q 2984 2172 2834 1900 
L 5950 1900 
L 5950 1503 
L 4619 1503 
Q 4369 878 3988 484 
Q 4750 263 5797 -91 
L 5413 -488 
Q 4441 -100 3597 172 
Q 2706 -406 869 -531 
L 625 -97 
Q 2122 -28 3066 338 
z
M 3513 619 
Q 3934 1025 4134 1503 
L 2597 1503 
Q 2413 1213 2238 984 
L 2213 953 
Q 2656 853 3513 619 
z
" transform="scale(0.015625)"/>
      <path id="IPAexGothic-62e0" d="M 2872 4563 
L 3556 4563 
L 3794 4359 
Q 3669 2478 3294 1472 
Q 3634 766 4075 506 
Q 4563 219 5619 219 
Q 5806 219 6200 238 
Q 6084 -44 6059 -263 
Q 5925 -269 5791 -269 
Q 4441 -269 3844 153 
Q 3394 475 3103 1006 
Q 3100 994 3088 972 
Q 3078 950 3069 934 
Q 2684 75 2047 -494 
L 1759 -134 
Q 2413 416 2859 1509 
Q 2647 2038 2547 2625 
Q 2372 1944 2084 1325 
L 1803 1656 
Q 1950 2022 1981 2106 
Q 1925 2088 1828 2047 
Q 1709 2000 1572 1953 
L 1534 1941 
L 1534 0 
Q 1534 -263 1419 -356 
Q 1309 -447 1028 -447 
Q 725 -447 484 -409 
L 416 44 
Q 681 -6 934 -6 
Q 1119 -6 1119 172 
L 1119 1797 
Q 716 1663 422 1581 
L 269 2016 
Q 347 2038 513 2078 
Q 897 2175 1119 2234 
L 1119 3609 
L 344 3609 
L 344 4013 
L 1119 4013 
L 1119 5313 
L 1534 5313 
L 1534 4013 
L 2181 4013 
L 2181 3609 
L 1534 3609 
L 1534 2356 
L 1675 2400 
Q 1778 2434 1953 2488 
Q 2078 2525 2122 2541 
Q 2438 3613 2513 5197 
L 2928 5131 
Q 2891 4700 2872 4563 
z
M 2828 4172 
Q 2778 3813 2725 3494 
L 2713 3425 
Q 2809 2663 3044 2047 
Q 3294 2941 3353 4172 
L 2828 4172 
z
M 5369 4819 
L 5369 1363 
Q 5369 1216 5497 1216 
Q 5600 1216 5631 1325 
Q 5653 1413 5663 1997 
L 5669 2088 
L 5669 2234 
L 6047 2100 
Q 6038 1597 6003 1197 
Q 5984 956 5869 872 
Q 5753 794 5497 794 
Q 5109 794 5028 903 
Q 4966 984 4966 1209 
L 4966 4428 
L 4506 4428 
L 4506 3250 
Q 4506 2319 4409 1791 
Q 4306 1225 4006 756 
L 3694 1100 
Q 4103 1747 4103 2988 
L 4103 4819 
L 5369 4819 
z
" transform="scale(0.015625)"/>
      <path id="IPAexGothic-70b9" d="M 3331 4372 
L 5728 4372 
L 5728 3944 
L 3331 3944 
L 3331 3231 
L 5288 3231 
L 5288 1338 
L 1122 1338 
L 1122 3231 
L 2850 3231 
L 2850 5197 
L 3331 5197 
L 3331 4372 
z
M 1563 2834 
L 1563 1734 
L 4847 1734 
L 4847 2834 
L 1563 2834 
z
M 494 -166 
Q 984 353 1288 1094 
L 1709 928 
Q 1378 81 897 -488 
L 494 -166 
z
M 2466 -434 
Q 2391 275 2216 884 
L 2650 984 
Q 2866 366 2966 -325 
L 2466 -434 
z
M 3866 -331 
Q 3681 384 3388 947 
L 3809 1088 
Q 4119 538 4341 -153 
L 3866 -331 
z
M 5569 -353 
Q 5088 466 4622 978 
L 5013 1191 
Q 5603 578 6009 -63 
L 5569 -353 
z
" transform="scale(0.015625)"/>
      <path id="IPAexGothic-306e" d="M 3119 469 
Q 5275 766 5275 2425 
Q 5275 3453 4413 3925 
Q 4041 4116 3547 4159 
Q 3394 2525 2850 1400 
Q 2322 306 1722 306 
Q 1384 306 1084 666 
Q 609 1244 609 2003 
Q 609 3025 1397 3794 
Q 2184 4563 3431 4563 
Q 4306 4563 4928 4122 
Q 5813 3506 5813 2425 
Q 5813 438 3431 6 
L 3119 469 
z
M 3053 4147 
Q 2378 4044 1891 3641 
Q 1097 2981 1097 1991 
Q 1097 1366 1434 978 
Q 1581 813 1719 813 
Q 2022 813 2416 1625 
Q 2909 2638 3053 4147 
z
" transform="scale(0.015625)"/>
      <path id="IPAexGothic-6bd4" d="M 1525 3250 
L 3003 3250 
L 3003 2822 
L 1525 2822 
L 1525 472 
Q 2469 747 3016 934 
L 3041 531 
Q 1813 59 459 -300 
L 294 159 
Q 694 250 1056 344 
L 1056 5081 
L 1525 5081 
L 1525 3250 
z
M 3794 3028 
Q 4691 3472 5341 4038 
L 5744 3706 
Q 4778 2969 3794 2572 
L 3794 556 
Q 3794 353 3978 313 
Q 4106 288 4472 288 
Q 5169 288 5328 378 
Q 5491 463 5522 1516 
L 5994 1356 
Q 5966 238 5772 34 
Q 5566 -172 4491 -172 
Q 3809 -172 3588 -75 
Q 3334 28 3334 397 
L 3334 5113 
L 3794 5113 
L 3794 3028 
z
" transform="scale(0.015625)"/>
      <path id="IPAexGothic-8f03" d="M 1413 3688 
L 1413 4153 
L 384 4153 
L 384 4538 
L 1413 4538 
L 1413 5313 
L 1816 5313 
L 1816 4538 
L 2875 4538 
L 2875 4153 
L 1816 4153 
L 1816 3688 
L 2734 3688 
L 2734 1516 
L 1816 1516 
L 1816 1013 
L 2931 1013 
L 2931 628 
L 1816 628 
L 1816 -447 
L 1413 -447 
L 1413 628 
L 294 628 
L 294 1013 
L 1413 1013 
L 1413 1516 
L 531 1516 
L 531 3688 
L 1413 3688 
z
M 1425 3353 
L 903 3353 
L 903 2778 
L 1425 2778 
L 1425 3353 
z
M 1803 3353 
L 1803 2778 
L 2363 2778 
L 2363 3353 
L 1803 3353 
z
M 1425 2456 
L 903 2456 
L 903 1856 
L 1425 1856 
L 1425 2456 
z
M 1803 2456 
L 1803 1856 
L 2363 1856 
L 2363 2456 
L 1803 2456 
z
M 4241 1013 
Q 3791 1606 3550 2338 
L 3916 2509 
Q 4091 1900 4478 1363 
Q 4825 1941 4978 2638 
L 5375 2491 
Q 5194 1719 4747 1031 
Q 5294 444 6144 44 
L 5859 -378 
Q 5069 50 4497 691 
Q 3853 -78 3050 -481 
L 2750 -128 
Q 3644 259 4241 1013 
z
M 4647 4263 
L 6059 4263 
L 6059 3853 
L 2963 3853 
L 2963 4263 
L 4206 4263 
L 4206 5313 
L 4647 5313 
L 4647 4263 
z
M 2847 2297 
Q 3406 2859 3738 3700 
L 4119 3541 
Q 3769 2644 3153 1991 
L 2847 2297 
z
M 5759 2106 
Q 5334 2863 4734 3541 
L 5075 3731 
Q 5731 3044 6097 2419 
L 5759 2106 
z
" transform="scale(0.015625)"/>
     </defs>
     <use xlink:href="#IPAexGothic-4e3b"/>
     <use xlink:href="#IPAexGothic-8981" transform="translate(100 0)"/>
     <use xlink:href="#IPAexGothic-62e0" transform="translate(200 0)"/>
     <use xlink:href="#IPAexGothic-70b9" transform="translate(300 0)"/>
     <use xlink:href="#IPAexGothic-306e" transform="translate(400 0)"/>
     <use xlink:href="#IPAexGothic-58f2" transform="translate(500 0)"/>
     <use xlink:href="#IPAexGothic-4e0a" transform="translate(600 0)"/>
     <use xlink:href="#IPAexGothic-6bd4" transform="translate(700 0)"/>
     <use xlink:href="#IPAexGothic-8f03" transform="translate(800 0)"/>
    </g>
   </g>
  </g>
 </g>
 <defs>
  <clipPath id="p22f9451846">
   <rect x="55.1" y="30.48" width="366.1" height="230.1575"/>
  </clipPath>
 </defs>
</svg>
