<?xml version="1.0" encoding="utf-8" standalone="no"?>
<!DOCTYPE svg PUBLIC "-//W3C//DTD SVG 1.1//EN"
  "http://www.w3.org/Graphics/SVG/1.1/DTD/svg11.dtd">
<svg xmlns:xlink="http://www.w3.org/1999/xlink" width="432pt" height="288pt" viewBox="0 0 432 288" xmlns="http://www.w3.org/2000/svg" version="1.1">
 <metadata>
  <rdf:RDF xmlns:dc="http://purl.org/dc/elements/1.1/" xmlns:cc="http://creativecommons.org/ns#" xmlns:rdf="http://www.w3.org/1999/02/22-rdf-syntax-ns#">
   <cc:Work>
    <dc:type rdf:resource="http://purl.org/dc/dcmitype/StillImage"/>
    <dc:date>2025-10-29T09:07:45.413900</dc:date>
    <dc:format>image/svg+xml</dc:format>
    <dc:creator>
     <cc:Agent>
      <dc:title>Matplotlib v3.10.7, https://matplotlib.org/</dc:title>
     </cc:Agent>
    </dc:creator>
   </cc:Work>
  </rdf:RDF>
 </metadata>
 <defs>
  <style type="text/css">*{stroke-linejoin: round; stroke-linecap: butt}</style>
 </defs>
 <g id="figure_1">
  <g id="patch_1">
   <path d="M 0 288 
L 432 288 
L 432 0 
L 0 0 
z
" style="fill: #ffffff"/>
  </g>
  <g id="axes_1">
   <g id="patch_2">
    <path d="M 55.1 260.84 
L 421.2 260.84 
L 421.2 30.48 
L 55.1 30.48 
z
" style="fill: #ffffff"/>
   </g>
   <g id="patch_3">
    <path d="M 71.740909 260.84 
L 141.807895 260.84 
L 141.807895 186.888154 
L 71.740909 186.888154 
z
" clip-path="url(#pbd7bfdcab4)" style="fill: #60a5fa"/>
   </g>
   <g id="patch_4">
    <path d="M 159.324641 260.84 
L 229.391627 260.84 
L 229.391627 172.097785 
L 159.324641 172.097785 
z
" clip-path="url(#pbd7bfdcab4)" style="fill: #60a5fa"/>
   </g>
   <g id="patch_5">
    <path d="M 246.908373 260.84 
L 316.975359 260.84 
L 316.975359 167.167662 
L 246.908373 167.167662 
z
" clip-path="url(#pbd7bfdcab4)" style="fill: #60a5fa"/>
   </g>
   <g id="patch_6">
    <path d="M 334.492105 260.84 
L 404.559091 260.84 
L 404.559091 157.307416 
L 334.492105 157.307416 
z
" clip-path="url(#pbd7bfdcab4)" style="fill: #60a5fa"/>
   </g>
   <g id="patch_7">
    <path d="M 71.740909 186.888154 
L 141.807895 186.888154 
L 141.807895 137.586923 
L 71.740909 137.586923 
z
" clip-path="url(#pbd7bfdcab4)" style="fill: #fbbf24"/>
   </g>
   <g id="patch_8">
    <path d="M 159.324641 172.097785 
L 229.391627 172.097785 
L 229.391627 112.936308 
L 159.324641 112.936308 
z
" clip-path="url(#pbd7bfdcab4)" style="fill: #fbbf24"/>
   </g>
   <g id="patch_9">
    <path d="M 246.908373 167.167662 
L 316.975359 167.167662 
L 316.975359 103.076062 
L 246.908373 103.076062 
z
" clip-path="url(#pbd7bfdcab4)" style="fill: #fbbf24"/>
   </g>
   <g id="patch_10">
    <path d="M 334.492105 157.307416 
L 404.559091 157.307416 
L 404.559091 83.35557 
L 334.492105 83.35557 
z
" clip-path="url(#pbd7bfdcab4)" style="fill: #fbbf24"/>
   </g>
   <g id="patch_11">
    <path d="M 71.740909 137.586923 
L 141.807895 137.586923 
L 141.807895 108.006185 
L 71.740909 108.006185 
z
" clip-path="url(#pbd7bfdcab4)" style="fill: #34d399"/>
   </g>
   <g id="patch_12">
    <path d="M 159.324641 112.936308 
L 229.391627 112.936308 
L 229.391627 78.425447 
L 159.324641 78.425447 
z
" clip-path="url(#pbd7bfdcab4)" style="fill: #34d399"/>
   </g>
   <g id="patch_13">
    <path d="M 246.908373 103.076062 
L 316.975359 103.076062 
L 316.975359 63.635078 
L 246.908373 63.635078 
z
" clip-path="url(#pbd7bfdcab4)" style="fill: #34d399"/>
   </g>
   <g id="patch_14">
    <path d="M 334.492105 83.35557 
L 404.559091 83.35557 
L 404.559091 41.449524 
L 334.492105 41.449524 
z
" clip-path="url(#pbd7bfdcab4)" style="fill: #34d399"/>
   </g>
   <g id="matplotlib.axis_1">
    <g id="xtick_1">
     <g id="line2d_1">
      <defs>
       <path id="m4853efe486" d="M 0 0 
L 0 3.5 
" style="stroke: #000000; stroke-width: 0.8"/>
      </defs>
      <g>
       <use xlink:href="#m4853efe486" x="106.774402" y="260.84" style="stroke: #000000; stroke-width: 0.8"/>
      </g>
     </g>
     <g id="text_1">
      <!-- Apr -->
      <g transform="translate(98.632214 275.330625) scale(0.1 -0.1)">
       <defs>
        <path id="IPAexGothic-41" d="M 4056 63 
L 3444 63 
L 2938 1409 
L 1100 1409 
L 603 63 
L -6 63 
L 1806 4666 
L 2259 4666 
L 4056 63 
z
M 2778 1863 
L 2316 3078 
Q 2125 3588 2028 4000 
L 2009 4000 
Q 1897 3563 1716 3078 
L 1263 1863 
L 2778 1863 
z
" transform="scale(0.015625)"/>
        <path id="IPAexGothic-70" d="M 1075 2688 
Q 1525 3341 2206 3341 
Q 2769 3341 3172 2938 
Q 3641 2469 3641 1644 
Q 3641 841 3178 372 
Q 2775 -31 2200 -31 
Q 1569 -31 1106 497 
L 1106 -1216 
L 563 -1216 
L 563 3250 
L 1075 3250 
L 1075 2688 
z
M 1106 1950 
L 1106 1291 
Q 1106 897 1516 600 
Q 1791 403 2106 403 
Q 2469 403 2725 659 
Q 3066 997 3066 1631 
Q 3066 2200 2784 2559 
Q 2503 2900 2100 2900 
Q 1656 2900 1338 2484 
Q 1106 2184 1106 1950 
z
" transform="scale(0.015625)"/>
        <path id="IPAexGothic-72" d="M 2309 3316 
L 2213 2769 
Q 2106 2791 2022 2791 
Q 1653 2791 1413 2444 
Q 1113 2006 1113 1675 
L 1113 63 
L 563 63 
L 563 3250 
L 1081 3250 
L 1056 2303 
L 1069 2303 
Q 1422 3341 2097 3341 
Q 2206 3341 2309 3316 
z
" transform="scale(0.015625)"/>
       </defs>
       <use xlink:href="#IPAexGothic-41"/>
       <use xlink:href="#IPAexGothic-70" transform="translate(63.720703 0)"/>
       <use xlink:href="#IPAexGothic-72" transform="translate(125.830078 0)"/>
      </g>
     </g>
    </g>
    <g id="xtick_2">
     <g id="line2d_2">
      <g>
       <use xlink:href="#m4853efe486" x="194.358134" y="260.84" style="stroke: #000000; stroke-width: 0.8"/>
      </g>
     </g>
     <g id="text_2">
      <!-- May -->
      <g transform="translate(184.638603 275.330625) scale(0.1 -0.1)">
       <defs>
        <path id="IPAexGothic-4d" d="M 5147 63 
L 4597 63 
L 4597 2534 
Q 4597 3281 4634 4134 
L 4609 4134 
Q 4356 3409 4066 2675 
L 3066 209 
L 2650 209 
L 1641 2725 
Q 1328 3506 1128 4141 
L 1103 4141 
Q 1141 3131 1141 2553 
L 1141 63 
L 609 63 
L 609 4634 
L 1416 4634 
L 2503 1944 
Q 2697 1472 2869 906 
L 2888 906 
Q 3028 1416 3234 1931 
L 4316 4634 
L 5147 4634 
L 5147 63 
z
" transform="scale(0.015625)"/>
        <path id="IPAexGothic-61" d="M 3156 63 
L 2672 63 
Q 2559 303 2531 556 
L 2509 556 
Q 2147 -25 1428 -25 
Q 934 -25 622 288 
Q 347 563 347 959 
Q 347 1947 2050 1997 
L 2478 2009 
L 2478 2175 
Q 2478 2509 2288 2700 
Q 2088 2900 1775 2900 
Q 1238 2900 969 2378 
L 494 2597 
Q 938 3328 1788 3328 
Q 2375 3328 2691 3000 
Q 2984 2706 2984 2169 
L 2984 997 
Q 2984 400 3156 63 
z
M 2491 1625 
L 2141 1619 
Q 903 1591 903 953 
Q 903 728 1050 581 
Q 1231 403 1525 403 
Q 1934 403 2234 703 
Q 2491 969 2491 1344 
L 2491 1625 
z
" transform="scale(0.015625)"/>
        <path id="IPAexGothic-79" d="M 3122 3250 
L 1575 -488 
Q 1278 -1203 550 -1203 
L 478 -1203 
L 344 -703 
L 447 -703 
Q 969 -703 1150 -238 
L 1356 275 
L 38 3250 
L 659 3250 
L 1363 1459 
Q 1528 1025 1606 781 
L 1625 781 
Q 1750 1169 1863 1459 
L 2528 3250 
L 3122 3250 
z
" transform="scale(0.015625)"/>
       </defs>
       <use xlink:href="#IPAexGothic-4d"/>
       <use xlink:href="#IPAexGothic-61" transform="translate(90.185547 0)"/>
       <use xlink:href="#IPAexGothic-79" transform="translate(145.166016 0)"/>
      </g>
     </g>
    </g>
    <g id="xtick_3">
     <g id="line2d_3">
      <g>
       <use xlink:href="#m4853efe486" x="281.941866" y="260.84" style="stroke: #000000; stroke-width: 0.8"/>
      </g>
     </g>
     <g id="text_3">
      <!-- Jun -->
      <g transform="translate(274.002022 275.330625) scale(0.1 -0.1)">
       <defs>
        <path id="IPAexGothic-4a" d="M 1819 4634 
L 1819 1234 
Q 1819 -31 763 -31 
Q 303 -31 -125 209 
L 84 644 
Q 378 447 694 447 
Q 1250 447 1250 1203 
L 1250 4634 
L 1819 4634 
z
" transform="scale(0.015625)"/>
        <path id="IPAexGothic-75" d="M 3284 63 
L 2772 63 
L 2772 644 
Q 2300 0 1625 0 
Q 1072 0 763 375 
Q 519 678 519 1241 
L 519 3250 
L 1069 3250 
L 1069 1259 
Q 1069 466 1734 466 
Q 2406 466 2734 1291 
L 2734 3250 
L 3284 3250 
L 3284 63 
z
" transform="scale(0.015625)"/>
        <path id="IPAexGothic-6e" d="M 3328 63 
L 2778 63 
L 2778 2041 
Q 2778 2853 2106 2853 
Q 1428 2853 1113 2041 
L 1113 63 
L 563 63 
L 563 3250 
L 1075 3250 
L 1075 2675 
Q 1525 3316 2222 3316 
Q 3328 3316 3328 2072 
L 3328 63 
z
" transform="scale(0.015625)"/>
       </defs>
       <use xlink:href="#IPAexGothic-4a"/>
       <use xlink:href="#IPAexGothic-75" transform="translate(37.988281 0)"/>
       <use xlink:href="#IPAexGothic-6e" transform="translate(98.388672 0)"/>
      </g>
     </g>
    </g>
    <g id="xtick_4">
     <g id="line2d_4">
      <g>
       <use xlink:href="#m4853efe486" x="369.525598" y="260.84" style="stroke: #000000; stroke-width: 0.8"/>
      </g>
     </g>
     <g id="text_4">
      <!-- Jul -->
      <g transform="translate(363.256067 275.330625) scale(0.1 -0.1)">
       <defs>
        <path id="IPAexGothic-6c" d="M 1131 63 
L 581 63 
L 581 4794 
L 1131 4794 
L 1131 63 
z
" transform="scale(0.015625)"/>
       </defs>
       <use xlink:href="#IPAexGothic-4a"/>
       <use xlink:href="#IPAexGothic-75" transform="translate(37.988281 0)"/>
       <use xlink:href="#IPAexGothic-6c" transform="translate(98.388672 0)"/>
      </g>
     </g>
    </g>
   </g>
   <g id="matplotlib.axis_2">
    <g id="ytick_1">
     <g id="line2d_5">
      <path d="M 55.1 260.84 
L 421.2 260.84 
" clip-path="url(#pbd7bfdcab4)" style="fill: none; stroke: #000000; stroke-opacity: 0.2; stroke-width: 0.5; stroke-linecap: square"/>
     </g>
     <g id="line2d_6">
      <defs>
       <path id="mfc272f5b2a" d="M 0 0 
L -3.5 0 
" style="stroke: #000000; stroke-width: 0.8"/>
      </defs>
      <g>
       <use xlink:href="#mfc272f5b2a" x="55.1" y="260.84" style="stroke: #000000; stroke-width: 0.8"/>
      </g>
     </g>
     <g id="text_5">
      <!-- 0 -->
      <g transform="translate(41.801563 264.585312) scale(0.1 -0.1)">
       <defs>
        <path id="IPAexGothic-30" d="M 2038 4725 
Q 2881 4725 3334 3944 
Q 3694 3325 3694 2344 
Q 3694 1372 3334 741 
Q 2888 -31 2016 -31 
Q 1147 -31 700 741 
Q 341 1372 341 2350 
Q 341 3713 1000 4334 
Q 1419 4725 2038 4725 
z
M 2016 4266 
Q 1516 4266 1228 3759 
Q 934 3247 934 2344 
Q 934 1456 1222 947 
Q 1513 447 2016 447 
Q 2619 447 2909 1153 
Q 3100 1622 3100 2375 
Q 3100 3256 2806 3759 
Q 2509 4266 2016 4266 
z
" transform="scale(0.015625)"/>
       </defs>
       <use xlink:href="#IPAexGothic-30"/>
      </g>
     </g>
    </g>
    <g id="ytick_2">
     <g id="line2d_7">
      <path d="M 55.1 211.538769 
L 421.2 211.538769 
" clip-path="url(#pbd7bfdcab4)" style="fill: none; stroke: #000000; stroke-opacity: 0.2; stroke-width: 0.5; stroke-linecap: square"/>
     </g>
     <g id="line2d_8">
      <g>
       <use xlink:href="#mfc272f5b2a" x="55.1" y="211.538769" style="stroke: #000000; stroke-width: 0.8"/>
      </g>
     </g>
     <g id="text_6">
      <!-- 100 -->
      <g transform="translate(29.204688 215.284082) scale(0.1 -0.1)">
       <defs>
        <path id="IPAexGothic-31" d="M 2463 63 
L 1900 63 
L 1900 4103 
Q 1372 3922 788 3797 
L 684 4231 
Q 1519 4441 2106 4731 
L 2463 4731 
L 2463 63 
z
" transform="scale(0.015625)"/>
       </defs>
       <use xlink:href="#IPAexGothic-31"/>
       <use xlink:href="#IPAexGothic-30" transform="translate(62.988281 0)"/>
       <use xlink:href="#IPAexGothic-30" transform="translate(125.976562 0)"/>
      </g>
     </g>
    </g>
    <g id="ytick_3">
     <g id="line2d_9">
      <path d="M 55.1 162.237539 
L 421.2 162.237539 
" clip-path="url(#pbd7bfdcab4)" style="fill: none; stroke: #000000; stroke-opacity: 0.2; stroke-width: 0.5; stroke-linecap: square"/>
     </g>
     <g id="line2d_10">
      <g>
       <use xlink:href="#mfc272f5b2a" x="55.1" y="162.237539" style="stroke: #000000; stroke-width: 0.8"/>
      </g>
     </g>
     <g id="text_7">
      <!-- 200 -->
      <g transform="translate(29.204688 165.982851) scale(0.1 -0.1)">
       <defs>
        <path id="IPAexGothic-32" d="M 3659 63 
L 447 63 
L 447 594 
Q 825 1475 1894 2203 
L 2072 2322 
Q 2619 2697 2791 2906 
Q 2988 3153 2988 3444 
Q 2988 3772 2756 4003 
Q 2500 4259 2084 4259 
Q 1250 4259 991 3328 
L 497 3506 
Q 853 4725 2116 4725 
Q 2806 4725 3216 4316 
Q 3575 3947 3575 3425 
Q 3575 3038 3344 2722 
Q 3131 2416 2366 1938 
L 2231 1856 
Q 1256 1253 978 569 
L 3659 569 
L 3659 63 
z
" transform="scale(0.015625)"/>
       </defs>
       <use xlink:href="#IPAexGothic-32"/>
       <use xlink:href="#IPAexGothic-30" transform="translate(62.988281 0)"/>
       <use xlink:href="#IPAexGothic-30" transform="translate(125.976562 0)"/>
      </g>
     </g>
    </g>
    <g id="ytick_4">
     <g id="line2d_11">
      <path d="M 55.1 112.936308 
L 421.2 112.936308 
" clip-path="url(#pbd7bfdcab4)" style="fill: none; stroke: #000000; stroke-opacity: 0.2; stroke-width: 0.5; stroke-linecap: square"/>
     </g>
     <g id="line2d_12">
      <g>
       <use xlink:href="#mfc272f5b2a" x="55.1" y="112.936308" style="stroke: #000000; stroke-width: 0.8"/>
      </g>
     </g>
     <g id="text_8">
      <!-- 300 -->
      <g transform="translate(29.204688 116.681621) scale(0.1 -0.1)">
       <defs>
        <path id="IPAexGothic-33" d="M 2381 2419 
Q 3506 2216 3506 1278 
Q 3506 716 3128 356 
Q 2709 -31 1944 -31 
Q 797 -31 288 881 
L 756 1131 
Q 1109 441 1938 441 
Q 2425 441 2694 691 
Q 2950 928 2950 1291 
Q 2950 1719 2566 1978 
Q 2216 2213 1644 2213 
L 1363 2213 
L 1363 2669 
L 1656 2669 
Q 2231 2669 2534 2888 
Q 2859 3119 2859 3509 
Q 2859 3934 2494 4138 
Q 2259 4278 1931 4278 
Q 1238 4278 903 3578 
L 434 3803 
Q 897 4725 1938 4725 
Q 2597 4725 3006 4394 
Q 3416 4069 3416 3534 
Q 3416 3028 3019 2706 
Q 2763 2500 2381 2444 
L 2381 2419 
z
" transform="scale(0.015625)"/>
       </defs>
       <use xlink:href="#IPAexGothic-33"/>
       <use xlink:href="#IPAexGothic-30" transform="translate(62.988281 0)"/>
       <use xlink:href="#IPAexGothic-30" transform="translate(125.976562 0)"/>
      </g>
     </g>
    </g>
    <g id="ytick_5">
     <g id="line2d_13">
      <path d="M 55.1 63.635078 
L 421.2 63.635078 
" clip-path="url(#pbd7bfdcab4)" style="fill: none; stroke: #000000; stroke-opacity: 0.2; stroke-width: 0.5; stroke-linecap: square"/>
     </g>
     <g id="line2d_14">
      <g>
       <use xlink:href="#mfc272f5b2a" x="55.1" y="63.635078" style="stroke: #000000; stroke-width: 0.8"/>
      </g>
     </g>
     <g id="text_9">
      <!-- 400 -->
      <g transform="translate(29.204688 67.38039) scale(0.1 -0.1)">
       <defs>
        <path id="IPAexGothic-34" d="M 3813 1159 
L 3059 1159 
L 3059 63 
L 2547 63 
L 2547 1159 
L 197 1159 
L 197 1672 
L 2456 4678 
L 3059 4678 
L 3059 1634 
L 3813 1634 
L 3813 1159 
z
M 2578 4109 
L 2559 4109 
Q 2278 3656 2003 3284 
L 759 1634 
L 2547 1634 
L 2547 3144 
Q 2547 3481 2578 4109 
z
" transform="scale(0.015625)"/>
       </defs>
       <use xlink:href="#IPAexGothic-34"/>
       <use xlink:href="#IPAexGothic-30" transform="translate(62.988281 0)"/>
       <use xlink:href="#IPAexGothic-30" transform="translate(125.976562 0)"/>
      </g>
     </g>
    </g>
    <g id="text_10">
     <!-- 売上（百万円） -->
     <g transform="translate(22.468688 196.06) rotate(-90) scale(0.144 -0.144)">
      <defs>
       <path id="IPAexGothic-58f2" d="M 2938 4544 
L 2938 5313 
L 3419 5313 
L 3419 4544 
L 5781 4544 
L 5781 4147 
L 3419 4147 
L 3419 3559 
L 5306 3559 
L 5306 3163 
L 1088 3163 
L 1088 3559 
L 2938 3559 
L 2938 4147 
L 609 4147 
L 609 4544 
L 2938 4544 
z
M 5684 2706 
L 5684 1522 
L 5216 1522 
L 5216 2316 
L 1178 2316 
L 1178 1478 
L 709 1478 
L 709 2706 
L 5684 2706 
z
M 531 -84 
Q 1494 91 1894 556 
Q 2213 913 2222 1972 
L 2688 1972 
Q 2678 756 2216 225 
Q 1794 -256 819 -506 
L 531 -84 
z
M 3622 1972 
L 4091 1972 
L 4091 353 
Q 4091 191 4181 153 
Q 4313 100 4684 100 
Q 5169 100 5294 159 
Q 5503 256 5513 1006 
L 5972 863 
Q 5944 -22 5691 -206 
Q 5503 -347 4659 -347 
Q 3981 -347 3809 -250 
Q 3622 -144 3622 178 
L 3622 1972 
z
" transform="scale(0.015625)"/>
       <path id="IPAexGothic-4e0a" d="M 3259 3366 
L 5475 3366 
L 5475 2913 
L 3259 2913 
L 3259 556 
L 5991 556 
L 5991 103 
L 391 103 
L 391 556 
L 2772 556 
L 2772 5050 
L 3259 5050 
L 3259 3366 
z
" transform="scale(0.015625)"/>
       <path id="IPAexGothic-ff08" d="M 5419 -434 
Q 4197 769 4197 2438 
Q 4197 4097 5419 5300 
L 5919 5300 
Q 4678 4078 4678 2425 
Q 4678 788 5919 -434 
L 5419 -434 
z
" transform="scale(0.015625)"/>
       <path id="IPAexGothic-767e" d="M 3119 3431 
L 5263 3431 
L 5263 -447 
L 4781 -447 
L 4781 -31 
L 1616 -31 
L 1616 -447 
L 1134 -447 
L 1134 3431 
L 2638 3431 
Q 2747 3838 2819 4403 
L 481 4403 
L 481 4825 
L 5916 4825 
L 5916 4403 
L 3350 4403 
Q 3250 3881 3144 3522 
L 3119 3431 
z
M 4781 3022 
L 1616 3022 
L 1616 1947 
L 4781 1947 
L 4781 3022 
z
M 1616 1550 
L 1616 372 
L 4781 372 
L 4781 1550 
L 1616 1550 
z
" transform="scale(0.015625)"/>
       <path id="IPAexGothic-4e07" d="M 2888 4316 
Q 2878 3816 2828 3128 
L 5369 3128 
Q 5284 984 5056 300 
Q 4950 -22 4750 -134 
Q 4556 -250 4181 -250 
Q 3659 -250 3091 -159 
L 3028 363 
Q 3638 225 4103 225 
Q 4456 225 4569 463 
Q 4797 906 4866 2700 
L 2784 2700 
Q 2534 575 934 -391 
L 591 -6 
Q 1900 716 2216 2200 
Q 2394 3041 2394 4316 
L 506 4316 
L 506 4756 
L 5888 4756 
L 5888 4316 
L 2888 4316 
z
" transform="scale(0.015625)"/>
       <path id="IPAexGothic-5186" d="M 5594 4806 
L 5594 322 
Q 5594 34 5491 -97 
Q 5366 -269 4959 -269 
Q 4469 -269 3897 -225 
L 3809 275 
Q 4378 206 4844 206 
Q 5106 206 5106 434 
L 5106 2119 
L 1281 2119 
L 1281 -359 
L 794 -359 
L 794 4806 
L 5594 4806 
z
M 1281 4366 
L 1281 2547 
L 2944 2547 
L 2944 4366 
L 1281 4366 
z
M 5106 2547 
L 5106 4366 
L 3413 4366 
L 3413 2547 
L 5106 2547 
z
" transform="scale(0.015625)"/>
       <path id="IPAexGothic-ff09" d="M 481 -434 
Q 1722 788 1722 2431 
Q 1722 4066 481 5300 
L 981 5300 
Q 2203 4097 2203 2431 
Q 2203 769 981 -434 
L 481 -434 
z
" transform="scale(0.015625)"/>
      </defs>
      <use xlink:href="#IPAexGothic-58f2"/>
      <use xlink:href="#IPAexGothic-4e0a" transform="translate(100 0)"/>
      <use xlink:href="#IPAexGothic-ff08" transform="translate(200 0)"/>
      <use xlink:href="#IPAexGothic-767e" transform="translate(300 0)"/>
      <use xlink:href="#IPAexGothic-4e07" transform="translate(400 0)"/>
      <use xlink:href="#IPAexGothic-5186" transform="translate(500 0)"/>
      <use xlink:href="#IPAexGothic-ff09" transform="translate(600 0)"/>
     </g>
    </g>
   </g>
   <g id="text_11">
    <!-- 販路別売上の構成比 -->
    <g transform="translate(160.39 24.48) scale(0.1728 -0.1728)">
     <defs>
      <path id="IPAexGothic-8ca9" d="M 2400 4978 
L 2400 1019 
L 575 1019 
L 575 4978 
L 2400 4978 
z
M 984 4588 
L 984 3803 
L 1997 3803 
L 1997 4588 
L 984 4588 
z
M 984 3431 
L 984 2650 
L 1997 2650 
L 1997 3431 
L 984 3431 
z
M 984 2278 
L 984 1416 
L 1997 1416 
L 1997 2278 
L 984 2278 
z
M 3422 4563 
L 3422 3347 
L 5431 3347 
L 5675 3147 
Q 5381 1828 4919 1003 
Q 5388 447 6078 31 
L 5766 -384 
Q 5119 116 4675 628 
Q 4163 -63 3416 -513 
L 3134 -147 
Q 3897 272 4400 997 
Q 3806 1884 3569 2956 
L 3422 2956 
L 3422 2731 
Q 3413 1488 3306 844 
Q 3184 91 2809 -488 
L 2456 -166 
Q 2816 366 2909 1234 
Q 2981 1859 2981 2956 
L 2981 4972 
L 5931 4972 
L 5931 4563 
L 3422 4563 
z
M 4638 1388 
Q 5006 2094 5163 2956 
L 3966 2956 
Q 4203 2056 4638 1388 
z
M 250 -147 
Q 700 322 978 984 
L 1369 800 
Q 1044 31 581 -506 
L 250 -147 
z
M 2197 -147 
Q 1975 378 1666 750 
L 2022 984 
Q 2325 638 2578 184 
L 2197 -147 
z
" transform="scale(0.015625)"/>
      <path id="IPAexGothic-8def" d="M 5563 1941 
L 5563 -447 
L 5134 -447 
L 5134 -122 
L 3628 -122 
L 3628 -447 
L 3194 -447 
L 3194 1831 
Q 2938 1684 2791 1606 
L 2541 1916 
L 2541 1772 
L 1856 1772 
L 1856 488 
Q 1866 491 1897 497 
Q 1931 506 1953 513 
Q 2022 538 2188 591 
Q 2569 713 2803 794 
L 2828 409 
Q 1784 -3 466 -359 
L 288 78 
Q 338 88 459 116 
Q 547 138 594 147 
L 594 2516 
L 1003 2516 
L 1003 250 
L 1119 275 
Q 1213 300 1322 331 
Q 1441 363 1447 366 
L 1447 3047 
L 550 3047 
L 550 4984 
L 2566 4984 
L 2566 3047 
L 1856 3047 
L 1856 2150 
L 2541 2150 
L 2541 1978 
Q 3497 2422 4147 3091 
Q 3809 3469 3591 3841 
Q 3303 3375 2894 2975 
L 2616 3291 
Q 3463 4153 3738 5291 
L 4166 5175 
Q 4134 5072 4050 4806 
L 5378 4806 
L 5594 4625 
Q 5194 3719 4731 3144 
L 4697 3103 
Q 5353 2534 6184 2181 
L 5903 1747 
Q 5000 2259 4434 2797 
Q 3966 2319 3378 1941 
L 5563 1941 
z
M 3628 1556 
L 3628 263 
L 5134 263 
L 5134 1556 
L 3628 1556 
z
M 3897 4422 
L 3878 4378 
Q 3828 4263 3800 4209 
Q 4038 3784 4403 3394 
Q 4772 3859 5013 4422 
L 3897 4422 
z
M 966 4600 
L 966 3431 
L 2150 3431 
L 2150 4600 
L 966 4600 
z
" transform="scale(0.015625)"/>
      <path id="IPAexGothic-5225" d="M 1922 2963 
Q 1906 2453 1894 2209 
L 3341 2209 
Q 3313 550 3175 63 
Q 3059 -366 2413 -366 
Q 2072 -366 1753 -313 
L 1691 134 
Q 2084 63 2413 63 
Q 2694 63 2759 319 
Q 2856 722 2888 1753 
Q 2888 1800 2894 1819 
L 1863 1819 
Q 1709 350 700 -481 
L 353 -147 
Q 1075 403 1306 1256 
Q 1450 1822 1478 2963 
L 700 2963 
L 700 4984 
L 3278 4984 
L 3278 2963 
L 1922 2963 
z
M 1141 4588 
L 1141 3353 
L 2838 3353 
L 2838 4588 
L 1141 4588 
z
M 3972 4597 
L 4425 4597 
L 4425 1159 
L 3972 1159 
L 3972 4597 
z
M 5309 5044 
L 5763 5044 
L 5763 191 
Q 5763 -141 5581 -263 
Q 5438 -359 5116 -359 
Q 4688 -359 4253 -313 
L 4156 178 
Q 4625 116 5072 116 
Q 5309 116 5309 353 
L 5309 5044 
z
" transform="scale(0.015625)"/>
      <path id="IPAexGothic-306e" d="M 3119 469 
Q 5275 766 5275 2425 
Q 5275 3453 4413 3925 
Q 4041 4116 3547 4159 
Q 3394 2525 2850 1400 
Q 2322 306 1722 306 
Q 1384 306 1084 666 
Q 609 1244 609 2003 
Q 609 3025 1397 3794 
Q 2184 4563 3431 4563 
Q 4306 4563 4928 4122 
Q 5813 3506 5813 2425 
Q 5813 438 3431 6 
L 3119 469 
z
M 3053 4147 
Q 2378 4044 1891 3641 
Q 1097 2981 1097 1991 
Q 1097 1366 1434 978 
Q 1581 813 1719 813 
Q 2022 813 2416 1625 
Q 2909 2638 3053 4147 
z
" transform="scale(0.015625)"/>
      <path id="IPAexGothic-69cb" d="M 1206 2594 
Q 925 1575 456 788 
L 194 1250 
Q 856 2238 1153 3547 
L 328 3547 
L 328 3956 
L 1206 3956 
L 1206 5306 
L 1628 5306 
L 1628 3956 
L 2306 3956 
L 2306 3547 
L 1628 3547 
L 1628 2906 
Q 2213 2391 2447 2106 
L 2191 1647 
Q 1931 2031 1628 2406 
L 1628 -447 
L 1206 -447 
L 1206 2594 
z
M 5006 3194 
L 6100 3194 
L 6100 2841 
L 4328 2841 
L 4328 2509 
L 5647 2509 
L 5647 1025 
L 6131 1025 
L 6131 672 
L 5647 672 
L 5647 78 
Q 5647 -191 5525 -294 
Q 5413 -397 5106 -397 
Q 4716 -397 4409 -353 
L 4347 84 
Q 4759 13 5069 13 
Q 5228 13 5228 197 
L 5228 672 
L 3047 672 
L 3047 -447 
L 2631 -447 
L 2631 672 
L 1978 672 
L 1978 1025 
L 2631 1025 
L 2631 2509 
L 3913 2509 
L 3913 2841 
L 2175 2841 
L 2175 3194 
L 3222 3194 
L 3222 3631 
L 2522 3631 
L 2522 3956 
L 3222 3956 
L 3222 4369 
L 2291 4369 
L 2291 4709 
L 3222 4709 
L 3222 5313 
L 3644 5313 
L 3644 4709 
L 4591 4709 
L 4591 5313 
L 5006 5313 
L 5006 4709 
L 5953 4709 
L 5953 4369 
L 5006 4369 
L 5006 3956 
L 5759 3956 
L 5759 3631 
L 5006 3631 
L 5006 3194 
z
M 4591 3194 
L 4591 3631 
L 3644 3631 
L 3644 3194 
L 4591 3194 
z
M 4591 4369 
L 3644 4369 
L 3644 3956 
L 4591 3956 
L 4591 4369 
z
M 3047 2169 
L 3047 1759 
L 3925 1759 
L 3925 2169 
L 3047 2169 
z
M 3047 1434 
L 3047 1025 
L 3925 1025 
L 3925 1434 
L 3047 1434 
z
M 4316 2169 
L 4316 1759 
L 5228 1759 
L 5228 2169 
L 4316 2169 
z
M 4316 1434 
L 4316 1025 
L 5228 1025 
L 5228 1434 
L 4316 1434 
z
" transform="scale(0.015625)"/>
      <path id="IPAexGothic-6210" d="M 4322 1650 
Q 4809 2375 5153 3309 
L 5563 3116 
Q 5159 2053 4566 1200 
Q 4881 675 5250 384 
Q 5388 275 5441 275 
Q 5544 275 5641 1119 
L 6063 875 
Q 5919 -328 5550 -328 
Q 5397 -328 5141 -150 
Q 4644 203 4250 806 
Q 3659 97 2825 -431 
L 2497 -59 
Q 3341 434 4009 1228 
Q 3491 2244 3272 3738 
L 1347 3738 
L 1347 2847 
L 2947 2847 
Q 2897 1366 2813 953 
Q 2706 453 2191 453 
Q 1900 453 1563 509 
L 1513 978 
Q 1981 888 2153 888 
Q 2350 888 2391 1100 
Q 2453 1416 2491 2463 
L 1347 2463 
L 1347 2303 
Q 1347 606 609 -438 
L 256 -78 
Q 878 772 878 2316 
L 878 4153 
L 3216 4153 
Q 3159 4672 3119 5291 
L 3594 5291 
Q 3619 4716 3681 4184 
L 5959 4184 
L 5959 3769 
L 3741 3769 
L 3759 3641 
Q 3956 2413 4322 1650 
z
M 4934 4225 
Q 4597 4656 4300 4897 
L 4659 5172 
Q 5003 4916 5319 4506 
L 4934 4225 
z
" transform="scale(0.015625)"/>
      <path id="IPAexGothic-6bd4" d="M 1525 3250 
L 3003 3250 
L 3003 2822 
L 1525 2822 
L 1525 472 
Q 2469 747 3016 934 
L 3041 531 
Q 1813 59 459 -300 
L 294 159 
Q 694 250 1056 344 
L 1056 5081 
L 1525 5081 
L 1525 3250 
z
M 3794 3028 
Q 4691 3472 5341 4038 
L 5744 3706 
Q 4778 2969 3794 2572 
L 3794 556 
Q 3794 353 3978 313 
Q 4106 288 4472 288 
Q 5169 288 5328 378 
Q 5491 463 5522 1516 
L 5994 1356 
Q 5966 238 5772 34 
Q 5566 -172 4491 -172 
Q 3809 -172 3588 -75 
Q 3334 28 3334 397 
L 3334 5113 
L 3794 5113 
L 3794 3028 
z
" transform="scale(0.015625)"/>
     </defs>
     <use xlink:href="#IPAexGothic-8ca9"/>
     <use xlink:href="#IPAexGothic-8def" transform="translate(100 0)"/>
     <use xlink:href="#IPAexGothic-5225" transform="translate(200 0)"/>
     <use xlink:href="#IPAexGothic-58f2" transform="translate(300 0)"/>
     <use xlink:href="#IPAexGothic-4e0a" transform="translate(400 0)"/>
     <use xlink:href="#IPAexGothic-306e" transform="translate(500 0)"/>
     <use xlink:href="#IPAexGothic-69cb" transform="translate(600 0)"/>
     <use xlink:href="#IPAexGothic-6210" transform="translate(700 0)"/>
     <use xlink:href="#IPAexGothic-6bd4" transform="translate(800 0)"/>
    </g>
   </g>
   <g id="legend_1">
    <g id="patch_15">
     <path d="M 69.5 107.48625 
L 167.9 107.48625 
Q 170.3 107.48625 170.3 105.08625 
L 170.3 44.88 
Q 170.3 42.48 167.9 42.48 
L 69.5 42.48 
Q 67.1 42.48 67.1 44.88 
L 67.1 105.08625 
Q 67.1 107.48625 69.5 107.48625 
z
" style="fill: #ffffff; opacity: 0.8; stroke: #cccccc; stroke-linejoin: miter"/>
    </g>
    <g id="patch_16">
     <path d="M 71.9 56.26875 
L 95.9 56.26875 
L 95.9 47.86875 
L 71.9 47.86875 
z
" style="fill: #60a5fa"/>
    </g>
    <g id="text_12">
     <!-- オンライン -->
     <g transform="translate(105.5 56.26875) scale(0.12 -0.12)">
      <defs>
       <path id="IPAexGothic-30aa" d="M 3578 5000 
L 4078 5000 
L 4109 3719 
L 5678 3719 
L 5678 3272 
L 4122 3272 
L 4188 397 
Q 4197 -147 3553 -147 
Q 3125 -147 2663 -69 
L 2553 463 
Q 3088 359 3425 359 
Q 3688 359 3688 616 
L 3663 2288 
L 3681 3106 
Q 3203 2188 2456 1469 
Q 1791 828 994 425 
L 634 834 
Q 2294 1588 3303 3272 
L 878 3272 
L 878 3719 
L 3609 3719 
L 3578 5000 
z
" transform="scale(0.015625)"/>
       <path id="IPAexGothic-30f3" d="M 2444 3084 
Q 1816 3656 1056 4084 
L 1381 4519 
Q 2063 4191 2816 3559 
L 2444 3084 
z
M 1100 609 
Q 3984 1106 5216 3828 
L 5619 3469 
Q 4413 794 1434 103 
L 1100 609 
z
" transform="scale(0.015625)"/>
       <path id="IPAexGothic-30e9" d="M 1447 4709 
L 4922 4709 
L 4922 4234 
L 1447 4234 
L 1447 4709 
z
M 897 3303 
L 5172 3303 
L 5478 3013 
Q 5069 1669 4219 875 
Q 3475 181 2306 -181 
L 1972 294 
Q 4150 784 4834 2828 
L 897 2828 
L 897 3303 
z
" transform="scale(0.015625)"/>
       <path id="IPAexGothic-30a4" d="M 3131 -231 
L 3131 2875 
Q 2091 2088 1106 1656 
L 781 2059 
Q 3016 3000 4469 4916 
L 4916 4641 
Q 4384 3938 3675 3316 
L 3675 -231 
L 3131 -231 
z
" transform="scale(0.015625)"/>
      </defs>
      <use xlink:href="#IPAexGothic-30aa"/>
      <use xlink:href="#IPAexGothic-30f3" transform="translate(100 0)"/>
      <use xlink:href="#IPAexGothic-30e9" transform="translate(200 0)"/>
      <use xlink:href="#IPAexGothic-30a4" transform="translate(300 0)"/>
      <use xlink:href="#IPAexGothic-30f3" transform="translate(400 0)"/>
     </g>
    </g>
    <g id="patch_17">
     <path d="M 71.9 78.3375 
L 95.9 78.3375 
L 95.9 69.9375 
L 71.9 69.9375 
z
" style="fill: #fbbf24"/>
    </g>
    <g id="text_13">
     <!-- 店舗 -->
     <g transform="translate(105.5 78.3375) scale(0.12 -0.12)">
      <defs>
       <path id="IPAexGothic-5e97" d="M 3516 4500 
L 5756 4500 
L 5756 4084 
L 1353 4084 
L 1353 2869 
Q 1353 1569 1206 816 
Q 1081 169 731 -403 
L 347 -38 
Q 731 625 828 1422 
Q 884 1950 884 2875 
L 884 4500 
L 3028 4500 
L 3028 5313 
L 3516 5313 
L 3516 4500 
z
M 3572 3144 
L 5619 3144 
L 5619 2747 
L 3572 2747 
L 3572 1875 
L 5338 1875 
L 5338 -447 
L 4884 -447 
L 4884 -141 
L 2234 -141 
L 2234 -447 
L 1781 -447 
L 1781 1875 
L 3119 1875 
L 3119 3931 
L 3572 3931 
L 3572 3144 
z
M 2234 1491 
L 2234 244 
L 4884 244 
L 4884 1491 
L 2234 1491 
z
" transform="scale(0.015625)"/>
       <path id="IPAexGothic-8217" d="M 1419 3309 
L 1419 3925 
L 1828 3925 
L 1828 3309 
L 2572 3309 
L 2572 2950 
L 1828 2950 
L 1828 2394 
L 2800 2394 
L 2800 2022 
L 338 2022 
L 338 2394 
L 1419 2394 
L 1419 2950 
L 691 2950 
L 691 3272 
Q 613 3184 400 2981 
L 184 3347 
Q 1041 4147 1503 5338 
L 1900 5197 
Q 1797 4953 1778 4916 
Q 2378 4444 2928 3853 
L 2678 3450 
Q 2084 4144 1609 4569 
Q 1263 3900 728 3309 
L 1419 3309 
z
M 4250 3419 
L 4250 4013 
L 2981 4013 
L 2981 4397 
L 4250 4397 
L 4250 5313 
L 4659 5313 
L 4659 4397 
L 6072 4397 
L 6072 4013 
L 4659 4013 
L 4659 3419 
L 5847 3419 
L 5847 19 
Q 5847 -397 5400 -397 
Q 5209 -397 4966 -366 
L 4909 56 
Q 5116 13 5291 13 
Q 5450 13 5450 191 
L 5450 1031 
L 4644 1031 
L 4644 -288 
L 4259 -288 
L 4259 1031 
L 3500 1031 
L 3500 -447 
L 3103 -447 
L 3103 3419 
L 4250 3419 
z
M 4259 3047 
L 3500 3047 
L 3500 2413 
L 4259 2413 
L 4259 3047 
z
M 4644 3047 
L 4644 2413 
L 5450 2413 
L 5450 3047 
L 4644 3047 
z
M 4259 2047 
L 3500 2047 
L 3500 1391 
L 4259 1391 
L 4259 2047 
z
M 4644 2047 
L 4644 1391 
L 5450 1391 
L 5450 2047 
L 4644 2047 
z
M 2578 1550 
L 2578 -384 
L 2163 -384 
L 2163 -128 
L 1022 -128 
L 1022 -447 
L 606 -447 
L 606 1550 
L 2578 1550 
z
M 1022 1178 
L 1022 244 
L 2163 244 
L 2163 1178 
L 1022 1178 
z
M 5438 4409 
Q 5247 4741 4953 5025 
L 5272 5228 
Q 5563 4959 5778 4641 
L 5438 4409 
z
" transform="scale(0.015625)"/>
      </defs>
      <use xlink:href="#IPAexGothic-5e97"/>
      <use xlink:href="#IPAexGothic-8217" transform="translate(100 0)"/>
     </g>
    </g>
    <g id="patch_18">
     <path d="M 71.9 100.40625 
L 95.9 100.40625 
L 95.9 92.00625 
L 71.9 92.00625 
z
" style="fill: #34d399"/>
    </g>
    <g id="text_14">
     <!-- 卸 -->
     <g transform="translate(105.5 100.40625) scale(0.12 -0.12)">
      <defs>
       <path id="IPAexGothic-5378" d="M 2341 4166 
L 2341 3238 
L 3563 3238 
L 3563 2841 
L 2341 2841 
L 2341 2100 
L 3372 2100 
L 3372 1703 
L 2341 1703 
L 2341 725 
L 2475 750 
Q 2938 834 3575 988 
L 3594 609 
Q 1953 191 538 -38 
L 391 416 
Q 828 475 850 481 
L 922 488 
L 922 2388 
L 1350 2388 
L 1350 550 
Q 1641 597 1753 622 
L 1913 647 
L 1913 2841 
L 469 2841 
L 469 3238 
L 1913 3238 
L 1913 4166 
L 1388 4166 
Q 1184 3681 916 3281 
L 556 3572 
Q 1050 4288 1300 5278 
L 1734 5184 
Q 1644 4853 1541 4556 
L 3372 4556 
L 3372 4166 
L 2341 4166 
z
M 5800 4750 
L 5800 897 
Q 5800 378 5256 378 
Q 4988 378 4641 419 
L 4563 878 
Q 4859 831 5147 831 
Q 5359 831 5359 1056 
L 5359 4334 
L 4288 4334 
L 4288 -447 
L 3834 -447 
L 3834 4750 
L 5800 4750 
z
" transform="scale(0.015625)"/>
      </defs>
      <use xlink:href="#IPAexGothic-5378"/>
     </g>
    </g>
   </g>
  </g>
 </g>
 <defs>
  <clipPath id="pbd7bfdcab4">
   <rect x="55.1" y="30.48" width="366.1" height="230.36"/>
  </clipPath>
 </defs>
</svg>
