<?xml version="1.0" encoding="utf-8" standalone="no"?>
<!DOCTYPE svg PUBLIC "-//W3C//DTD SVG 1.1//EN"
  "http://www.w3.org/Graphics/SVG/1.1/DTD/svg11.dtd">
<svg xmlns:xlink="http://www.w3.org/1999/xlink" width="324pt" height="324pt" viewBox="0 0 324 324" xmlns="http://www.w3.org/2000/svg" version="1.1">
 <metadata>
  <rdf:RDF xmlns:dc="http://purl.org/dc/elements/1.1/" xmlns:cc="http://creativecommons.org/ns#" xmlns:rdf="http://www.w3.org/1999/02/22-rdf-syntax-ns#">
   <cc:Work>
    <dc:type rdf:resource="http://purl.org/dc/dcmitype/StillImage"/>
    <dc:date>2025-10-29T09:07:45.493141</dc:date>
    <dc:format>image/svg+xml</dc:format>
    <dc:creator>
     <cc:Agent>
      <dc:title>Matplotlib v3.10.7, https://matplotlib.org/</dc:title>
     </cc:Agent>
    </dc:creator>
   </cc:Work>
  </rdf:RDF>
 </metadata>
 <defs>
  <style type="text/css">*{stroke-linejoin: round; stroke-linecap: butt}</style>
 </defs>
 <g id="figure_1">
  <g id="patch_1">
   <path d="M 0 324 
L 324 324 
L 324 0 
L 0 0 
z
" style="fill: #ffffff"/>
  </g>
  <g id="axes_1">
   <g id="patch_2">
    <path d="M 29.6088 295.2624 
L 294.3912 295.2624 
L 294.3912 30.48 
L 29.6088 30.48 
z
" style="fill: #ffffff"/>
   </g>
   <g id="patch_3">
    <path d="M 29.6088 56.95824 
L 56.08704 56.95824 
L 56.08704 30.48 
L 29.6088 30.48 
z
" clip-path="url(#pb7aaf9d5f2)" style="fill: #2563eb; stroke: #ffffff; stroke-linejoin: miter"/>
   </g>
   <g id="patch_4">
    <path d="M 56.08704 56.95824 
L 82.56528 56.95824 
L 82.56528 30.48 
L 56.08704 30.48 
z
" clip-path="url(#pb7aaf9d5f2)" style="fill: #2563eb; stroke: #ffffff; stroke-linejoin: miter"/>
   </g>
   <g id="patch_5">
    <path d="M 82.56528 56.95824 
L 109.04352 56.95824 
L 109.04352 30.48 
L 82.56528 30.48 
z
" clip-path="url(#pb7aaf9d5f2)" style="fill: #2563eb; stroke: #ffffff; stroke-linejoin: miter"/>
   </g>
   <g id="patch_6">
    <path d="M 109.04352 56.95824 
L 135.52176 56.95824 
L 135.52176 30.48 
L 109.04352 30.48 
z
" clip-path="url(#pb7aaf9d5f2)" style="fill: #2563eb; stroke: #ffffff; stroke-linejoin: miter"/>
   </g>
   <g id="patch_7">
    <path d="M 135.52176 56.95824 
L 162 56.95824 
L 162 30.48 
L 135.52176 30.48 
z
" clip-path="url(#pb7aaf9d5f2)" style="fill: #2563eb; stroke: #ffffff; stroke-linejoin: miter"/>
   </g>
   <g id="patch_8">
    <path d="M 162 56.95824 
L 188.47824 56.95824 
L 188.47824 30.48 
L 162 30.48 
z
" clip-path="url(#pb7aaf9d5f2)" style="fill: #2563eb; stroke: #ffffff; stroke-linejoin: miter"/>
   </g>
   <g id="patch_9">
    <path d="M 188.47824 56.95824 
L 214.95648 56.95824 
L 214.95648 30.48 
L 188.47824 30.48 
z
" clip-path="url(#pb7aaf9d5f2)" style="fill: #2563eb; stroke: #ffffff; stroke-linejoin: miter"/>
   </g>
   <g id="patch_10">
    <path d="M 214.95648 56.95824 
L 241.43472 56.95824 
L 241.43472 30.48 
L 214.95648 30.48 
z
" clip-path="url(#pb7aaf9d5f2)" style="fill: #2563eb; stroke: #ffffff; stroke-linejoin: miter"/>
   </g>
   <g id="patch_11">
    <path d="M 241.43472 56.95824 
L 267.91296 56.95824 
L 267.91296 30.48 
L 241.43472 30.48 
z
" clip-path="url(#pb7aaf9d5f2)" style="fill: #2563eb; stroke: #ffffff; stroke-linejoin: miter"/>
   </g>
   <g id="patch_12">
    <path d="M 267.91296 56.95824 
L 294.3912 56.95824 
L 294.3912 30.48 
L 267.91296 30.48 
z
" clip-path="url(#pb7aaf9d5f2)" style="fill: #2563eb; stroke: #ffffff; stroke-linejoin: miter"/>
   </g>
   <g id="patch_13">
    <path d="M 29.6088 83.43648 
L 56.08704 83.43648 
L 56.08704 56.95824 
L 29.6088 56.95824 
z
" clip-path="url(#pb7aaf9d5f2)" style="fill: #2563eb; stroke: #ffffff; stroke-linejoin: miter"/>
   </g>
   <g id="patch_14">
    <path d="M 56.08704 83.43648 
L 82.56528 83.43648 
L 82.56528 56.95824 
L 56.08704 56.95824 
z
" clip-path="url(#pb7aaf9d5f2)" style="fill: #2563eb; stroke: #ffffff; stroke-linejoin: miter"/>
   </g>
   <g id="patch_15">
    <path d="M 82.56528 83.43648 
L 109.04352 83.43648 
L 109.04352 56.95824 
L 82.56528 56.95824 
z
" clip-path="url(#pb7aaf9d5f2)" style="fill: #2563eb; stroke: #ffffff; stroke-linejoin: miter"/>
   </g>
   <g id="patch_16">
    <path d="M 109.04352 83.43648 
L 135.52176 83.43648 
L 135.52176 56.95824 
L 109.04352 56.95824 
z
" clip-path="url(#pb7aaf9d5f2)" style="fill: #2563eb; stroke: #ffffff; stroke-linejoin: miter"/>
   </g>
   <g id="patch_17">
    <path d="M 135.52176 83.43648 
L 162 83.43648 
L 162 56.95824 
L 135.52176 56.95824 
z
" clip-path="url(#pb7aaf9d5f2)" style="fill: #2563eb; stroke: #ffffff; stroke-linejoin: miter"/>
   </g>
   <g id="patch_18">
    <path d="M 162 83.43648 
L 188.47824 83.43648 
L 188.47824 56.95824 
L 162 56.95824 
z
" clip-path="url(#pb7aaf9d5f2)" style="fill: #2563eb; stroke: #ffffff; stroke-linejoin: miter"/>
   </g>
   <g id="patch_19">
    <path d="M 188.47824 83.43648 
L 214.95648 83.43648 
L 214.95648 56.95824 
L 188.47824 56.95824 
z
" clip-path="url(#pb7aaf9d5f2)" style="fill: #2563eb; stroke: #ffffff; stroke-linejoin: miter"/>
   </g>
   <g id="patch_20">
    <path d="M 214.95648 83.43648 
L 241.43472 83.43648 
L 241.43472 56.95824 
L 214.95648 56.95824 
z
" clip-path="url(#pb7aaf9d5f2)" style="fill: #2563eb; stroke: #ffffff; stroke-linejoin: miter"/>
   </g>
   <g id="patch_21">
    <path d="M 241.43472 83.43648 
L 267.91296 83.43648 
L 267.91296 56.95824 
L 241.43472 56.95824 
z
" clip-path="url(#pb7aaf9d5f2)" style="fill: #2563eb; stroke: #ffffff; stroke-linejoin: miter"/>
   </g>
   <g id="patch_22">
    <path d="M 267.91296 83.43648 
L 294.3912 83.43648 
L 294.3912 56.95824 
L 267.91296 56.95824 
z
" clip-path="url(#pb7aaf9d5f2)" style="fill: #2563eb; stroke: #ffffff; stroke-linejoin: miter"/>
   </g>
   <g id="patch_23">
    <path d="M 29.6088 109.91472 
L 56.08704 109.91472 
L 56.08704 83.43648 
L 29.6088 83.43648 
z
" clip-path="url(#pb7aaf9d5f2)" style="fill: #2563eb; stroke: #ffffff; stroke-linejoin: miter"/>
   </g>
   <g id="patch_24">
    <path d="M 56.08704 109.91472 
L 82.56528 109.91472 
L 82.56528 83.43648 
L 56.08704 83.43648 
z
" clip-path="url(#pb7aaf9d5f2)" style="fill: #2563eb; stroke: #ffffff; stroke-linejoin: miter"/>
   </g>
   <g id="patch_25">
    <path d="M 82.56528 109.91472 
L 109.04352 109.91472 
L 109.04352 83.43648 
L 82.56528 83.43648 
z
" clip-path="url(#pb7aaf9d5f2)" style="fill: #2563eb; stroke: #ffffff; stroke-linejoin: miter"/>
   </g>
   <g id="patch_26">
    <path d="M 109.04352 109.91472 
L 135.52176 109.91472 
L 135.52176 83.43648 
L 109.04352 83.43648 
z
" clip-path="url(#pb7aaf9d5f2)" style="fill: #2563eb; stroke: #ffffff; stroke-linejoin: miter"/>
   </g>
   <g id="patch_27">
    <path d="M 135.52176 109.91472 
L 162 109.91472 
L 162 83.43648 
L 135.52176 83.43648 
z
" clip-path="url(#pb7aaf9d5f2)" style="fill: #2563eb; stroke: #ffffff; stroke-linejoin: miter"/>
   </g>
   <g id="patch_28">
    <path d="M 162 109.91472 
L 188.47824 109.91472 
L 188.47824 83.43648 
L 162 83.43648 
z
" clip-path="url(#pb7aaf9d5f2)" style="fill: #2563eb; stroke: #ffffff; stroke-linejoin: miter"/>
   </g>
   <g id="patch_29">
    <path d="M 188.47824 109.91472 
L 214.95648 109.91472 
L 214.95648 83.43648 
L 188.47824 83.43648 
z
" clip-path="url(#pb7aaf9d5f2)" style="fill: #2563eb; stroke: #ffffff; stroke-linejoin: miter"/>
   </g>
   <g id="patch_30">
    <path d="M 214.95648 109.91472 
L 241.43472 109.91472 
L 241.43472 83.43648 
L 214.95648 83.43648 
z
" clip-path="url(#pb7aaf9d5f2)" style="fill: #2563eb; stroke: #ffffff; stroke-linejoin: miter"/>
   </g>
   <g id="patch_31">
    <path d="M 241.43472 109.91472 
L 267.91296 109.91472 
L 267.91296 83.43648 
L 241.43472 83.43648 
z
" clip-path="url(#pb7aaf9d5f2)" style="fill: #2563eb; stroke: #ffffff; stroke-linejoin: miter"/>
   </g>
   <g id="patch_32">
    <path d="M 267.91296 109.91472 
L 294.3912 109.91472 
L 294.3912 83.43648 
L 267.91296 83.43648 
z
" clip-path="url(#pb7aaf9d5f2)" style="fill: #2563eb; stroke: #ffffff; stroke-linejoin: miter"/>
   </g>
   <g id="patch_33">
    <path d="M 29.6088 136.39296 
L 56.08704 136.39296 
L 56.08704 109.91472 
L 29.6088 109.91472 
z
" clip-path="url(#pb7aaf9d5f2)" style="fill: #2563eb; stroke: #ffffff; stroke-linejoin: miter"/>
   </g>
   <g id="patch_34">
    <path d="M 56.08704 136.39296 
L 82.56528 136.39296 
L 82.56528 109.91472 
L 56.08704 109.91472 
z
" clip-path="url(#pb7aaf9d5f2)" style="fill: #2563eb; stroke: #ffffff; stroke-linejoin: miter"/>
   </g>
   <g id="patch_35">
    <path d="M 82.56528 136.39296 
L 109.04352 136.39296 
L 109.04352 109.91472 
L 82.56528 109.91472 
z
" clip-path="url(#pb7aaf9d5f2)" style="fill: #2563eb; stroke: #ffffff; stroke-linejoin: miter"/>
   </g>
   <g id="patch_36">
    <path d="M 109.04352 136.39296 
L 135.52176 136.39296 
L 135.52176 109.91472 
L 109.04352 109.91472 
z
" clip-path="url(#pb7aaf9d5f2)" style="fill: #2563eb; stroke: #ffffff; stroke-linejoin: miter"/>
   </g>
   <g id="patch_37">
    <path d="M 135.52176 136.39296 
L 162 136.39296 
L 162 109.91472 
L 135.52176 109.91472 
z
" clip-path="url(#pb7aaf9d5f2)" style="fill: #2563eb; stroke: #ffffff; stroke-linejoin: miter"/>
   </g>
   <g id="patch_38">
    <path d="M 162 136.39296 
L 188.47824 136.39296 
L 188.47824 109.91472 
L 162 109.91472 
z
" clip-path="url(#pb7aaf9d5f2)" style="fill: #2563eb; stroke: #ffffff; stroke-linejoin: miter"/>
   </g>
   <g id="patch_39">
    <path d="M 188.47824 136.39296 
L 214.95648 136.39296 
L 214.95648 109.91472 
L 188.47824 109.91472 
z
" clip-path="url(#pb7aaf9d5f2)" style="fill: #2563eb; stroke: #ffffff; stroke-linejoin: miter"/>
   </g>
   <g id="patch_40">
    <path d="M 214.95648 136.39296 
L 241.43472 136.39296 
L 241.43472 109.91472 
L 214.95648 109.91472 
z
" clip-path="url(#pb7aaf9d5f2)" style="fill: #2563eb; stroke: #ffffff; stroke-linejoin: miter"/>
   </g>
   <g id="patch_41">
    <path d="M 241.43472 136.39296 
L 267.91296 136.39296 
L 267.91296 109.91472 
L 241.43472 109.91472 
z
" clip-path="url(#pb7aaf9d5f2)" style="fill: #2563eb; stroke: #ffffff; stroke-linejoin: miter"/>
   </g>
   <g id="patch_42">
    <path d="M 267.91296 136.39296 
L 294.3912 136.39296 
L 294.3912 109.91472 
L 267.91296 109.91472 
z
" clip-path="url(#pb7aaf9d5f2)" style="fill: #2563eb; stroke: #ffffff; stroke-linejoin: miter"/>
   </g>
   <g id="patch_43">
    <path d="M 29.6088 162.8712 
L 56.08704 162.8712 
L 56.08704 136.39296 
L 29.6088 136.39296 
z
" clip-path="url(#pb7aaf9d5f2)" style="fill: #2563eb; stroke: #ffffff; stroke-linejoin: miter"/>
   </g>
   <g id="patch_44">
    <path d="M 56.08704 162.8712 
L 82.56528 162.8712 
L 82.56528 136.39296 
L 56.08704 136.39296 
z
" clip-path="url(#pb7aaf9d5f2)" style="fill: #2563eb; stroke: #ffffff; stroke-linejoin: miter"/>
   </g>
   <g id="patch_45">
    <path d="M 82.56528 162.8712 
L 109.04352 162.8712 
L 109.04352 136.39296 
L 82.56528 136.39296 
z
" clip-path="url(#pb7aaf9d5f2)" style="fill: #2563eb; stroke: #ffffff; stroke-linejoin: miter"/>
   </g>
   <g id="patch_46">
    <path d="M 109.04352 162.8712 
L 135.52176 162.8712 
L 135.52176 136.39296 
L 109.04352 136.39296 
z
" clip-path="url(#pb7aaf9d5f2)" style="fill: #2563eb; stroke: #ffffff; stroke-linejoin: miter"/>
   </g>
   <g id="patch_47">
    <path d="M 135.52176 162.8712 
L 162 162.8712 
L 162 136.39296 
L 135.52176 136.39296 
z
" clip-path="url(#pb7aaf9d5f2)" style="fill: #2563eb; stroke: #ffffff; stroke-linejoin: miter"/>
   </g>
   <g id="patch_48">
    <path d="M 162 162.8712 
L 188.47824 162.8712 
L 188.47824 136.39296 
L 162 136.39296 
z
" clip-path="url(#pb7aaf9d5f2)" style="fill: #22c55e; stroke: #ffffff; stroke-linejoin: miter"/>
   </g>
   <g id="patch_49">
    <path d="M 188.47824 162.8712 
L 214.95648 162.8712 
L 214.95648 136.39296 
L 188.47824 136.39296 
z
" clip-path="url(#pb7aaf9d5f2)" style="fill: #22c55e; stroke: #ffffff; stroke-linejoin: miter"/>
   </g>
   <g id="patch_50">
    <path d="M 214.95648 162.8712 
L 241.43472 162.8712 
L 241.43472 136.39296 
L 214.95648 136.39296 
z
" clip-path="url(#pb7aaf9d5f2)" style="fill: #22c55e; stroke: #ffffff; stroke-linejoin: miter"/>
   </g>
   <g id="patch_51">
    <path d="M 241.43472 162.8712 
L 267.91296 162.8712 
L 267.91296 136.39296 
L 241.43472 136.39296 
z
" clip-path="url(#pb7aaf9d5f2)" style="fill: #22c55e; stroke: #ffffff; stroke-linejoin: miter"/>
   </g>
   <g id="patch_52">
    <path d="M 267.91296 162.8712 
L 294.3912 162.8712 
L 294.3912 136.39296 
L 267.91296 136.39296 
z
" clip-path="url(#pb7aaf9d5f2)" style="fill: #22c55e; stroke: #ffffff; stroke-linejoin: miter"/>
   </g>
   <g id="patch_53">
    <path d="M 29.6088 189.34944 
L 56.08704 189.34944 
L 56.08704 162.8712 
L 29.6088 162.8712 
z
" clip-path="url(#pb7aaf9d5f2)" style="fill: #22c55e; stroke: #ffffff; stroke-linejoin: miter"/>
   </g>
   <g id="patch_54">
    <path d="M 56.08704 189.34944 
L 82.56528 189.34944 
L 82.56528 162.8712 
L 56.08704 162.8712 
z
" clip-path="url(#pb7aaf9d5f2)" style="fill: #22c55e; stroke: #ffffff; stroke-linejoin: miter"/>
   </g>
   <g id="patch_55">
    <path d="M 82.56528 189.34944 
L 109.04352 189.34944 
L 109.04352 162.8712 
L 82.56528 162.8712 
z
" clip-path="url(#pb7aaf9d5f2)" style="fill: #22c55e; stroke: #ffffff; stroke-linejoin: miter"/>
   </g>
   <g id="patch_56">
    <path d="M 109.04352 189.34944 
L 135.52176 189.34944 
L 135.52176 162.8712 
L 109.04352 162.8712 
z
" clip-path="url(#pb7aaf9d5f2)" style="fill: #22c55e; stroke: #ffffff; stroke-linejoin: miter"/>
   </g>
   <g id="patch_57">
    <path d="M 135.52176 189.34944 
L 162 189.34944 
L 162 162.8712 
L 135.52176 162.8712 
z
" clip-path="url(#pb7aaf9d5f2)" style="fill: #22c55e; stroke: #ffffff; stroke-linejoin: miter"/>
   </g>
   <g id="patch_58">
    <path d="M 162 189.34944 
L 188.47824 189.34944 
L 188.47824 162.8712 
L 162 162.8712 
z
" clip-path="url(#pb7aaf9d5f2)" style="fill: #22c55e; stroke: #ffffff; stroke-linejoin: miter"/>
   </g>
   <g id="patch_59">
    <path d="M 188.47824 189.34944 
L 214.95648 189.34944 
L 214.95648 162.8712 
L 188.47824 162.8712 
z
" clip-path="url(#pb7aaf9d5f2)" style="fill: #22c55e; stroke: #ffffff; stroke-linejoin: miter"/>
   </g>
   <g id="patch_60">
    <path d="M 214.95648 189.34944 
L 241.43472 189.34944 
L 241.43472 162.8712 
L 214.95648 162.8712 
z
" clip-path="url(#pb7aaf9d5f2)" style="fill: #22c55e; stroke: #ffffff; stroke-linejoin: miter"/>
   </g>
   <g id="patch_61">
    <path d="M 241.43472 189.34944 
L 267.91296 189.34944 
L 267.91296 162.8712 
L 241.43472 162.8712 
z
" clip-path="url(#pb7aaf9d5f2)" style="fill: #22c55e; stroke: #ffffff; stroke-linejoin: miter"/>
   </g>
   <g id="patch_62">
    <path d="M 267.91296 189.34944 
L 294.3912 189.34944 
L 294.3912 162.8712 
L 267.91296 162.8712 
z
" clip-path="url(#pb7aaf9d5f2)" style="fill: #22c55e; stroke: #ffffff; stroke-linejoin: miter"/>
   </g>
   <g id="patch_63">
    <path d="M 29.6088 215.82768 
L 56.08704 215.82768 
L 56.08704 189.34944 
L 29.6088 189.34944 
z
" clip-path="url(#pb7aaf9d5f2)" style="fill: #22c55e; stroke: #ffffff; stroke-linejoin: miter"/>
   </g>
   <g id="patch_64">
    <path d="M 56.08704 215.82768 
L 82.56528 215.82768 
L 82.56528 189.34944 
L 56.08704 189.34944 
z
" clip-path="url(#pb7aaf9d5f2)" style="fill: #22c55e; stroke: #ffffff; stroke-linejoin: miter"/>
   </g>
   <g id="patch_65">
    <path d="M 82.56528 215.82768 
L 109.04352 215.82768 
L 109.04352 189.34944 
L 82.56528 189.34944 
z
" clip-path="url(#pb7aaf9d5f2)" style="fill: #22c55e; stroke: #ffffff; stroke-linejoin: miter"/>
   </g>
   <g id="patch_66">
    <path d="M 109.04352 215.82768 
L 135.52176 215.82768 
L 135.52176 189.34944 
L 109.04352 189.34944 
z
" clip-path="url(#pb7aaf9d5f2)" style="fill: #22c55e; stroke: #ffffff; stroke-linejoin: miter"/>
   </g>
   <g id="patch_67">
    <path d="M 135.52176 215.82768 
L 162 215.82768 
L 162 189.34944 
L 135.52176 189.34944 
z
" clip-path="url(#pb7aaf9d5f2)" style="fill: #22c55e; stroke: #ffffff; stroke-linejoin: miter"/>
   </g>
   <g id="patch_68">
    <path d="M 162 215.82768 
L 188.47824 215.82768 
L 188.47824 189.34944 
L 162 189.34944 
z
" clip-path="url(#pb7aaf9d5f2)" style="fill: #22c55e; stroke: #ffffff; stroke-linejoin: miter"/>
   </g>
   <g id="patch_69">
    <path d="M 188.47824 215.82768 
L 214.95648 215.82768 
L 214.95648 189.34944 
L 188.47824 189.34944 
z
" clip-path="url(#pb7aaf9d5f2)" style="fill: #22c55e; stroke: #ffffff; stroke-linejoin: miter"/>
   </g>
   <g id="patch_70">
    <path d="M 214.95648 215.82768 
L 241.43472 215.82768 
L 241.43472 189.34944 
L 214.95648 189.34944 
z
" clip-path="url(#pb7aaf9d5f2)" style="fill: #22c55e; stroke: #ffffff; stroke-linejoin: miter"/>
   </g>
   <g id="patch_71">
    <path d="M 241.43472 215.82768 
L 267.91296 215.82768 
L 267.91296 189.34944 
L 241.43472 189.34944 
z
" clip-path="url(#pb7aaf9d5f2)" style="fill: #22c55e; stroke: #ffffff; stroke-linejoin: miter"/>
   </g>
   <g id="patch_72">
    <path d="M 267.91296 215.82768 
L 294.3912 215.82768 
L 294.3912 189.34944 
L 267.91296 189.34944 
z
" clip-path="url(#pb7aaf9d5f2)" style="fill: #22c55e; stroke: #ffffff; stroke-linejoin: miter"/>
   </g>
   <g id="patch_73">
    <path d="M 29.6088 242.30592 
L 56.08704 242.30592 
L 56.08704 215.82768 
L 29.6088 215.82768 
z
" clip-path="url(#pb7aaf9d5f2)" style="fill: #22c55e; stroke: #ffffff; stroke-linejoin: miter"/>
   </g>
   <g id="patch_74">
    <path d="M 56.08704 242.30592 
L 82.56528 242.30592 
L 82.56528 215.82768 
L 56.08704 215.82768 
z
" clip-path="url(#pb7aaf9d5f2)" style="fill: #22c55e; stroke: #ffffff; stroke-linejoin: miter"/>
   </g>
   <g id="patch_75">
    <path d="M 82.56528 242.30592 
L 109.04352 242.30592 
L 109.04352 215.82768 
L 82.56528 215.82768 
z
" clip-path="url(#pb7aaf9d5f2)" style="fill: #22c55e; stroke: #ffffff; stroke-linejoin: miter"/>
   </g>
   <g id="patch_76">
    <path d="M 109.04352 242.30592 
L 135.52176 242.30592 
L 135.52176 215.82768 
L 109.04352 215.82768 
z
" clip-path="url(#pb7aaf9d5f2)" style="fill: #22c55e; stroke: #ffffff; stroke-linejoin: miter"/>
   </g>
   <g id="patch_77">
    <path d="M 135.52176 242.30592 
L 162 242.30592 
L 162 215.82768 
L 135.52176 215.82768 
z
" clip-path="url(#pb7aaf9d5f2)" style="fill: #22c55e; stroke: #ffffff; stroke-linejoin: miter"/>
   </g>
   <g id="patch_78">
    <path d="M 162 242.30592 
L 188.47824 242.30592 
L 188.47824 215.82768 
L 162 215.82768 
z
" clip-path="url(#pb7aaf9d5f2)" style="fill: #fbbf24; stroke: #ffffff; stroke-linejoin: miter"/>
   </g>
   <g id="patch_79">
    <path d="M 188.47824 242.30592 
L 214.95648 242.30592 
L 214.95648 215.82768 
L 188.47824 215.82768 
z
" clip-path="url(#pb7aaf9d5f2)" style="fill: #fbbf24; stroke: #ffffff; stroke-linejoin: miter"/>
   </g>
   <g id="patch_80">
    <path d="M 214.95648 242.30592 
L 241.43472 242.30592 
L 241.43472 215.82768 
L 214.95648 215.82768 
z
" clip-path="url(#pb7aaf9d5f2)" style="fill: #fbbf24; stroke: #ffffff; stroke-linejoin: miter"/>
   </g>
   <g id="patch_81">
    <path d="M 241.43472 242.30592 
L 267.91296 242.30592 
L 267.91296 215.82768 
L 241.43472 215.82768 
z
" clip-path="url(#pb7aaf9d5f2)" style="fill: #fbbf24; stroke: #ffffff; stroke-linejoin: miter"/>
   </g>
   <g id="patch_82">
    <path d="M 267.91296 242.30592 
L 294.3912 242.30592 
L 294.3912 215.82768 
L 267.91296 215.82768 
z
" clip-path="url(#pb7aaf9d5f2)" style="fill: #fbbf24; stroke: #ffffff; stroke-linejoin: miter"/>
   </g>
   <g id="patch_83">
    <path d="M 29.6088 268.78416 
L 56.08704 268.78416 
L 56.08704 242.30592 
L 29.6088 242.30592 
z
" clip-path="url(#pb7aaf9d5f2)" style="fill: #fbbf24; stroke: #ffffff; stroke-linejoin: miter"/>
   </g>
   <g id="patch_84">
    <path d="M 56.08704 268.78416 
L 82.56528 268.78416 
L 82.56528 242.30592 
L 56.08704 242.30592 
z
" clip-path="url(#pb7aaf9d5f2)" style="fill: #fbbf24; stroke: #ffffff; stroke-linejoin: miter"/>
   </g>
   <g id="patch_85">
    <path d="M 82.56528 268.78416 
L 109.04352 268.78416 
L 109.04352 242.30592 
L 82.56528 242.30592 
z
" clip-path="url(#pb7aaf9d5f2)" style="fill: #fbbf24; stroke: #ffffff; stroke-linejoin: miter"/>
   </g>
   <g id="patch_86">
    <path d="M 109.04352 268.78416 
L 135.52176 268.78416 
L 135.52176 242.30592 
L 109.04352 242.30592 
z
" clip-path="url(#pb7aaf9d5f2)" style="fill: #fbbf24; stroke: #ffffff; stroke-linejoin: miter"/>
   </g>
   <g id="patch_87">
    <path d="M 135.52176 268.78416 
L 162 268.78416 
L 162 242.30592 
L 135.52176 242.30592 
z
" clip-path="url(#pb7aaf9d5f2)" style="fill: #fbbf24; stroke: #ffffff; stroke-linejoin: miter"/>
   </g>
   <g id="patch_88">
    <path d="M 162 268.78416 
L 188.47824 268.78416 
L 188.47824 242.30592 
L 162 242.30592 
z
" clip-path="url(#pb7aaf9d5f2)" style="fill: #fbbf24; stroke: #ffffff; stroke-linejoin: miter"/>
   </g>
   <g id="patch_89">
    <path d="M 188.47824 268.78416 
L 214.95648 268.78416 
L 214.95648 242.30592 
L 188.47824 242.30592 
z
" clip-path="url(#pb7aaf9d5f2)" style="fill: #fbbf24; stroke: #ffffff; stroke-linejoin: miter"/>
   </g>
   <g id="patch_90">
    <path d="M 214.95648 268.78416 
L 241.43472 268.78416 
L 241.43472 242.30592 
L 214.95648 242.30592 
z
" clip-path="url(#pb7aaf9d5f2)" style="fill: #fbbf24; stroke: #ffffff; stroke-linejoin: miter"/>
   </g>
   <g id="patch_91">
    <path d="M 241.43472 268.78416 
L 267.91296 268.78416 
L 267.91296 242.30592 
L 241.43472 242.30592 
z
" clip-path="url(#pb7aaf9d5f2)" style="fill: #fbbf24; stroke: #ffffff; stroke-linejoin: miter"/>
   </g>
   <g id="patch_92">
    <path d="M 267.91296 268.78416 
L 294.3912 268.78416 
L 294.3912 242.30592 
L 267.91296 242.30592 
z
" clip-path="url(#pb7aaf9d5f2)" style="fill: #fbbf24; stroke: #ffffff; stroke-linejoin: miter"/>
   </g>
   <g id="patch_93">
    <path d="M 29.6088 295.2624 
L 56.08704 295.2624 
L 56.08704 268.78416 
L 29.6088 268.78416 
z
" clip-path="url(#pb7aaf9d5f2)" style="fill: #fbbf24; stroke: #ffffff; stroke-linejoin: miter"/>
   </g>
   <g id="patch_94">
    <path d="M 56.08704 295.2624 
L 82.56528 295.2624 
L 82.56528 268.78416 
L 56.08704 268.78416 
z
" clip-path="url(#pb7aaf9d5f2)" style="fill: #fbbf24; stroke: #ffffff; stroke-linejoin: miter"/>
   </g>
   <g id="patch_95">
    <path d="M 82.56528 295.2624 
L 109.04352 295.2624 
L 109.04352 268.78416 
L 82.56528 268.78416 
z
" clip-path="url(#pb7aaf9d5f2)" style="fill: #fbbf24; stroke: #ffffff; stroke-linejoin: miter"/>
   </g>
   <g id="patch_96">
    <path d="M 109.04352 295.2624 
L 135.52176 295.2624 
L 135.52176 268.78416 
L 109.04352 268.78416 
z
" clip-path="url(#pb7aaf9d5f2)" style="fill: #ef4444; stroke: #ffffff; stroke-linejoin: miter"/>
   </g>
   <g id="patch_97">
    <path d="M 135.52176 295.2624 
L 162 295.2624 
L 162 268.78416 
L 135.52176 268.78416 
z
" clip-path="url(#pb7aaf9d5f2)" style="fill: #ef4444; stroke: #ffffff; stroke-linejoin: miter"/>
   </g>
   <g id="patch_98">
    <path d="M 162 295.2624 
L 188.47824 295.2624 
L 188.47824 268.78416 
L 162 268.78416 
z
" clip-path="url(#pb7aaf9d5f2)" style="fill: #ef4444; stroke: #ffffff; stroke-linejoin: miter"/>
   </g>
   <g id="patch_99">
    <path d="M 188.47824 295.2624 
L 214.95648 295.2624 
L 214.95648 268.78416 
L 188.47824 268.78416 
z
" clip-path="url(#pb7aaf9d5f2)" style="fill: #ef4444; stroke: #ffffff; stroke-linejoin: miter"/>
   </g>
   <g id="patch_100">
    <path d="M 214.95648 295.2624 
L 241.43472 295.2624 
L 241.43472 268.78416 
L 214.95648 268.78416 
z
" clip-path="url(#pb7aaf9d5f2)" style="fill: #ef4444; stroke: #ffffff; stroke-linejoin: miter"/>
   </g>
   <g id="patch_101">
    <path d="M 241.43472 295.2624 
L 267.91296 295.2624 
L 267.91296 268.78416 
L 241.43472 268.78416 
z
" clip-path="url(#pb7aaf9d5f2)" style="fill: #ef4444; stroke: #ffffff; stroke-linejoin: miter"/>
   </g>
   <g id="patch_102">
    <path d="M 267.91296 295.2624 
L 294.3912 295.2624 
L 294.3912 268.78416 
L 267.91296 268.78416 
z
" clip-path="url(#pb7aaf9d5f2)" style="fill: #ef4444; stroke: #ffffff; stroke-linejoin: miter"/>
   </g>
   <g id="matplotlib.axis_1"/>
   <g id="matplotlib.axis_2"/>
   <g id="text_1">
    <!-- プラン構成比のワッフルチャート -->
    <g transform="translate(32.4 24.48) scale(0.1728 -0.1728)">
     <defs>
      <path id="IPAexGothic-30d7" d="M 4825 4275 
L 5125 4000 
Q 4884 2378 4081 1381 
Q 3294 413 1888 -116 
L 1522 331 
Q 4069 1113 4550 3803 
L 966 3738 
L 966 4225 
L 4825 4275 
z
M 5597 5509 
Q 5906 5509 6119 5275 
Q 6303 5075 6303 4806 
Q 6303 4494 6069 4281 
Q 5866 4097 5597 4097 
Q 5284 4097 5072 4331 
Q 4888 4534 4888 4806 
Q 4888 5116 5122 5328 
Q 5328 5509 5597 5509 
z
M 5597 5228 
Q 5409 5228 5278 5088 
Q 5169 4966 5169 4806 
Q 5169 4616 5309 4488 
Q 5434 4378 5597 4378 
Q 5784 4378 5913 4519 
Q 6022 4641 6022 4806 
Q 6022 4991 5881 5119 
Q 5759 5228 5597 5228 
z
" transform="scale(0.015625)"/>
      <path id="IPAexGothic-30e9" d="M 1447 4709 
L 4922 4709 
L 4922 4234 
L 1447 4234 
L 1447 4709 
z
M 897 3303 
L 5172 3303 
L 5478 3013 
Q 5069 1669 4219 875 
Q 3475 181 2306 -181 
L 1972 294 
Q 4150 784 4834 2828 
L 897 2828 
L 897 3303 
z
" transform="scale(0.015625)"/>
      <path id="IPAexGothic-30f3" d="M 2444 3084 
Q 1816 3656 1056 4084 
L 1381 4519 
Q 2063 4191 2816 3559 
L 2444 3084 
z
M 1100 609 
Q 3984 1106 5216 3828 
L 5619 3469 
Q 4413 794 1434 103 
L 1100 609 
z
" transform="scale(0.015625)"/>
      <path id="IPAexGothic-69cb" d="M 1206 2594 
Q 925 1575 456 788 
L 194 1250 
Q 856 2238 1153 3547 
L 328 3547 
L 328 3956 
L 1206 3956 
L 1206 5306 
L 1628 5306 
L 1628 3956 
L 2306 3956 
L 2306 3547 
L 1628 3547 
L 1628 2906 
Q 2213 2391 2447 2106 
L 2191 1647 
Q 1931 2031 1628 2406 
L 1628 -447 
L 1206 -447 
L 1206 2594 
z
M 5006 3194 
L 6100 3194 
L 6100 2841 
L 4328 2841 
L 4328 2509 
L 5647 2509 
L 5647 1025 
L 6131 1025 
L 6131 672 
L 5647 672 
L 5647 78 
Q 5647 -191 5525 -294 
Q 5413 -397 5106 -397 
Q 4716 -397 4409 -353 
L 4347 84 
Q 4759 13 5069 13 
Q 5228 13 5228 197 
L 5228 672 
L 3047 672 
L 3047 -447 
L 2631 -447 
L 2631 672 
L 1978 672 
L 1978 1025 
L 2631 1025 
L 2631 2509 
L 3913 2509 
L 3913 2841 
L 2175 2841 
L 2175 3194 
L 3222 3194 
L 3222 3631 
L 2522 3631 
L 2522 3956 
L 3222 3956 
L 3222 4369 
L 2291 4369 
L 2291 4709 
L 3222 4709 
L 3222 5313 
L 3644 5313 
L 3644 4709 
L 4591 4709 
L 4591 5313 
L 5006 5313 
L 5006 4709 
L 5953 4709 
L 5953 4369 
L 5006 4369 
L 5006 3956 
L 5759 3956 
L 5759 3631 
L 5006 3631 
L 5006 3194 
z
M 4591 3194 
L 4591 3631 
L 3644 3631 
L 3644 3194 
L 4591 3194 
z
M 4591 4369 
L 3644 4369 
L 3644 3956 
L 4591 3956 
L 4591 4369 
z
M 3047 2169 
L 3047 1759 
L 3925 1759 
L 3925 2169 
L 3047 2169 
z
M 3047 1434 
L 3047 1025 
L 3925 1025 
L 3925 1434 
L 3047 1434 
z
M 4316 2169 
L 4316 1759 
L 5228 1759 
L 5228 2169 
L 4316 2169 
z
M 4316 1434 
L 4316 1025 
L 5228 1025 
L 5228 1434 
L 4316 1434 
z
" transform="scale(0.015625)"/>
      <path id="IPAexGothic-6210" d="M 4322 1650 
Q 4809 2375 5153 3309 
L 5563 3116 
Q 5159 2053 4566 1200 
Q 4881 675 5250 384 
Q 5388 275 5441 275 
Q 5544 275 5641 1119 
L 6063 875 
Q 5919 -328 5550 -328 
Q 5397 -328 5141 -150 
Q 4644 203 4250 806 
Q 3659 97 2825 -431 
L 2497 -59 
Q 3341 434 4009 1228 
Q 3491 2244 3272 3738 
L 1347 3738 
L 1347 2847 
L 2947 2847 
Q 2897 1366 2813 953 
Q 2706 453 2191 453 
Q 1900 453 1563 509 
L 1513 978 
Q 1981 888 2153 888 
Q 2350 888 2391 1100 
Q 2453 1416 2491 2463 
L 1347 2463 
L 1347 2303 
Q 1347 606 609 -438 
L 256 -78 
Q 878 772 878 2316 
L 878 4153 
L 3216 4153 
Q 3159 4672 3119 5291 
L 3594 5291 
Q 3619 4716 3681 4184 
L 5959 4184 
L 5959 3769 
L 3741 3769 
L 3759 3641 
Q 3956 2413 4322 1650 
z
M 4934 4225 
Q 4597 4656 4300 4897 
L 4659 5172 
Q 5003 4916 5319 4506 
L 4934 4225 
z
" transform="scale(0.015625)"/>
      <path id="IPAexGothic-6bd4" d="M 1525 3250 
L 3003 3250 
L 3003 2822 
L 1525 2822 
L 1525 472 
Q 2469 747 3016 934 
L 3041 531 
Q 1813 59 459 -300 
L 294 159 
Q 694 250 1056 344 
L 1056 5081 
L 1525 5081 
L 1525 3250 
z
M 3794 3028 
Q 4691 3472 5341 4038 
L 5744 3706 
Q 4778 2969 3794 2572 
L 3794 556 
Q 3794 353 3978 313 
Q 4106 288 4472 288 
Q 5169 288 5328 378 
Q 5491 463 5522 1516 
L 5994 1356 
Q 5966 238 5772 34 
Q 5566 -172 4491 -172 
Q 3809 -172 3588 -75 
Q 3334 28 3334 397 
L 3334 5113 
L 3794 5113 
L 3794 3028 
z
" transform="scale(0.015625)"/>
      <path id="IPAexGothic-306e" d="M 3119 469 
Q 5275 766 5275 2425 
Q 5275 3453 4413 3925 
Q 4041 4116 3547 4159 
Q 3394 2525 2850 1400 
Q 2322 306 1722 306 
Q 1384 306 1084 666 
Q 609 1244 609 2003 
Q 609 3025 1397 3794 
Q 2184 4563 3431 4563 
Q 4306 4563 4928 4122 
Q 5813 3506 5813 2425 
Q 5813 438 3431 6 
L 3119 469 
z
M 3053 4147 
Q 2378 4044 1891 3641 
Q 1097 2981 1097 1991 
Q 1097 1366 1434 978 
Q 1581 813 1719 813 
Q 2022 813 2416 1625 
Q 2909 2638 3053 4147 
z
" transform="scale(0.015625)"/>
      <path id="IPAexGothic-30ef" d="M 1031 4391 
L 5025 4391 
L 5350 4097 
Q 5131 2372 4456 1375 
Q 3800 400 2509 -116 
L 2131 325 
Q 3478 775 4078 1753 
Q 4625 2647 4769 3903 
L 1575 3903 
L 1575 2363 
L 1031 2363 
L 1031 4391 
z
" transform="scale(0.015625)"/>
      <path id="IPAexGothic-30c3" d="M 1775 1984 
Q 1553 2666 1275 3175 
L 1716 3391 
Q 2034 2866 2247 2209 
L 1775 1984 
z
M 3003 2297 
Q 2813 2978 2522 3469 
L 2978 3681 
Q 3291 3166 3484 2522 
L 3003 2297 
z
M 1928 372 
Q 3094 744 3731 1569 
Q 4275 2263 4469 3525 
L 4975 3406 
Q 4734 1975 4016 1119 
Q 3406 391 2266 -44 
L 1928 372 
z
" transform="scale(0.015625)"/>
      <path id="IPAexGothic-30d5" d="M 4966 4294 
L 5263 4019 
Q 4819 894 1966 -97 
L 1600 353 
Q 4234 1156 4684 3822 
L 1044 3756 
L 1044 4244 
L 4966 4294 
z
" transform="scale(0.015625)"/>
      <path id="IPAexGothic-30eb" d="M 353 331 
Q 1313 994 1544 2022 
Q 1684 2650 1684 4397 
L 2203 4397 
L 2203 4153 
L 2203 4116 
Q 2203 2259 1934 1491 
Q 1619 588 744 -38 
L 353 331 
z
M 3125 4666 
L 3650 4666 
L 3650 769 
Q 4875 1488 5672 2734 
L 6000 2278 
Q 5075 966 3516 63 
L 3125 359 
L 3125 4666 
z
" transform="scale(0.015625)"/>
      <path id="IPAexGothic-30c1" d="M 3088 2853 
L 3088 3981 
Q 2359 3847 1531 3797 
L 1288 4238 
Q 3200 4344 4553 4872 
L 4909 4456 
Q 4244 4216 3606 4078 
L 3606 2913 
L 5806 2913 
L 5806 2459 
L 3600 2459 
Q 3559 1422 3188 850 
Q 2722 138 1738 -256 
L 1347 153 
Q 2319 500 2709 1081 
Q 3031 1563 3081 2400 
L 597 2400 
L 597 2853 
L 3088 2853 
z
" transform="scale(0.015625)"/>
      <path id="IPAexGothic-30e3" d="M 2559 3903 
L 2803 2816 
L 4863 3169 
L 5191 2894 
Q 4672 1875 4103 1203 
L 3666 1447 
Q 4175 2013 4525 2688 
L 2900 2388 
L 3450 -116 
L 2969 -231 
L 2419 2297 
L 1172 2069 
L 1075 2516 
L 2328 2731 
L 2094 3809 
L 2559 3903 
z
" transform="scale(0.015625)"/>
      <path id="IPAexGothic-30fc" d="M 588 2688 
L 5809 2688 
L 5809 2175 
L 588 2175 
L 588 2688 
z
" transform="scale(0.015625)"/>
      <path id="IPAexGothic-30c8" d="M 2284 4997 
L 2803 4997 
L 2803 3206 
Q 4088 2619 5216 1888 
L 4878 1369 
Q 3819 2175 2803 2688 
L 2803 -184 
L 2284 -184 
L 2284 4997 
z
" transform="scale(0.015625)"/>
     </defs>
     <use xlink:href="#IPAexGothic-30d7"/>
     <use xlink:href="#IPAexGothic-30e9" transform="translate(100 0)"/>
     <use xlink:href="#IPAexGothic-30f3" transform="translate(200 0)"/>
     <use xlink:href="#IPAexGothic-69cb" transform="translate(300 0)"/>
     <use xlink:href="#IPAexGothic-6210" transform="translate(400 0)"/>
     <use xlink:href="#IPAexGothic-6bd4" transform="translate(500 0)"/>
     <use xlink:href="#IPAexGothic-306e" transform="translate(600 0)"/>
     <use xlink:href="#IPAexGothic-30ef" transform="translate(700 0)"/>
     <use xlink:href="#IPAexGothic-30c3" transform="translate(800 0)"/>
     <use xlink:href="#IPAexGothic-30d5" transform="translate(900 0)"/>
     <use xlink:href="#IPAexGothic-30eb" transform="translate(1000 0)"/>
     <use xlink:href="#IPAexGothic-30c1" transform="translate(1100 0)"/>
     <use xlink:href="#IPAexGothic-30e3" transform="translate(1200 0)"/>
     <use xlink:href="#IPAexGothic-30fc" transform="translate(1300 0)"/>
     <use xlink:href="#IPAexGothic-30c8" transform="translate(1400 0)"/>
    </g>
   </g>
   <g id="legend_1">
    <g id="patch_103">
     <path d="M 40.295625 285.887538 
L 64.295625 285.887538 
L 64.295625 277.487538 
L 40.295625 277.487538 
z
" style="fill: #2563eb; stroke: #2563eb; stroke-linejoin: miter"/>
    </g>
    <g id="text_2">
     <!-- A プラン 45% -->
     <g transform="translate(73.895625 285.887538) scale(0.12 -0.12)">
      <defs>
       <path id="IPAexGothic-41" d="M 4056 63 
L 3444 63 
L 2938 1409 
L 1100 1409 
L 603 63 
L -6 63 
L 1806 4666 
L 2259 4666 
L 4056 63 
z
M 2778 1863 
L 2316 3078 
Q 2125 3588 2028 4000 
L 2009 4000 
Q 1897 3563 1716 3078 
L 1263 1863 
L 2778 1863 
z
" transform="scale(0.015625)"/>
       <path id="IPAexGothic-20" transform="scale(0.015625)"/>
       <path id="IPAexGothic-34" d="M 3813 1159 
L 3059 1159 
L 3059 63 
L 2547 63 
L 2547 1159 
L 197 1159 
L 197 1672 
L 2456 4678 
L 3059 4678 
L 3059 1634 
L 3813 1634 
L 3813 1159 
z
M 2578 4109 
L 2559 4109 
Q 2278 3656 2003 3284 
L 759 1634 
L 2547 1634 
L 2547 3144 
Q 2547 3481 2578 4109 
z
" transform="scale(0.015625)"/>
       <path id="IPAexGothic-35" d="M 1178 2603 
Q 1634 2963 2172 2963 
Q 2816 2963 3241 2528 
Q 3638 2113 3638 1497 
Q 3638 938 3297 513 
Q 2869 -31 2031 -31 
Q 959 -31 469 784 
L 938 1028 
Q 1309 434 2013 434 
Q 2466 434 2769 716 
Q 3081 1013 3081 1503 
Q 3081 1966 2806 2241 
Q 2519 2528 2056 2528 
Q 1406 2528 1072 2028 
L 591 2091 
L 884 4634 
L 3406 4634 
L 3406 4153 
L 1341 4153 
L 1134 2603 
L 1178 2603 
z
" transform="scale(0.015625)"/>
       <path id="IPAexGothic-25" d="M 4088 2481 
Q 4528 2481 4800 2181 
Q 5094 1847 5094 1203 
Q 5094 534 4728 197 
Q 4472 -38 4088 -38 
Q 3647 -38 3378 269 
Q 3084 600 3084 1222 
Q 3084 1906 3444 2244 
Q 3697 2481 4088 2481 
z
M 4081 2097 
Q 3566 2097 3566 1234 
Q 3566 356 4097 356 
Q 4613 356 4613 1241 
Q 4613 2097 4081 2097 
z
M 1331 4731 
Q 1769 4731 2041 4431 
Q 2334 4097 2334 3450 
Q 2334 2781 1969 2447 
Q 1713 2209 1331 2209 
Q 888 2209 619 2516 
Q 325 2850 325 3472 
Q 325 4156 684 4494 
Q 941 4731 1331 4731 
z
M 1322 4347 
Q 806 4347 806 3484 
Q 806 2606 1338 2606 
Q 1859 2606 1859 3484 
Q 1859 3859 1725 4091 
Q 1584 4347 1322 4347 
z
M 4569 4603 
L 1106 -134 
L 856 78 
L 4313 4813 
L 4569 4603 
z
" transform="scale(0.015625)"/>
      </defs>
      <use xlink:href="#IPAexGothic-41"/>
      <use xlink:href="#IPAexGothic-20" transform="translate(63.720703 0)"/>
      <use xlink:href="#IPAexGothic-30d7" transform="translate(90.722656 0)"/>
      <use xlink:href="#IPAexGothic-30e9" transform="translate(190.722656 0)"/>
      <use xlink:href="#IPAexGothic-30f3" transform="translate(290.722656 0)"/>
      <use xlink:href="#IPAexGothic-20" transform="translate(390.722656 0)"/>
      <use xlink:href="#IPAexGothic-34" transform="translate(417.724609 0)"/>
      <use xlink:href="#IPAexGothic-35" transform="translate(480.712891 0)"/>
      <use xlink:href="#IPAexGothic-25" transform="translate(543.701172 0)"/>
     </g>
    </g>
    <g id="patch_104">
     <path d="M 40.295625 307.956288 
L 64.295625 307.956288 
L 64.295625 299.556288 
L 40.295625 299.556288 
z
" style="fill: #22c55e; stroke: #22c55e; stroke-linejoin: miter"/>
    </g>
    <g id="text_3">
     <!-- B プラン 30% -->
     <g transform="translate(73.895625 307.956288) scale(0.12 -0.12)">
      <defs>
       <path id="IPAexGothic-42" d="M 2688 2425 
Q 3816 2225 3816 1338 
Q 3816 556 3041 222 
Q 2672 63 2094 63 
L 609 63 
L 609 4634 
L 1916 4634 
Q 2494 4634 2869 4500 
Q 3644 4222 3644 3491 
Q 3644 2609 2688 2447 
L 2688 2425 
z
M 1159 2656 
L 1844 2656 
Q 3063 2656 3063 3431 
Q 3063 4181 1881 4181 
L 1159 4181 
L 1159 2656 
z
M 1159 522 
L 2016 522 
Q 3222 522 3222 1369 
Q 3222 1897 2625 2100 
Q 2278 2222 1875 2222 
L 1159 2222 
L 1159 522 
z
" transform="scale(0.015625)"/>
       <path id="IPAexGothic-33" d="M 2381 2419 
Q 3506 2216 3506 1278 
Q 3506 716 3128 356 
Q 2709 -31 1944 -31 
Q 797 -31 288 881 
L 756 1131 
Q 1109 441 1938 441 
Q 2425 441 2694 691 
Q 2950 928 2950 1291 
Q 2950 1719 2566 1978 
Q 2216 2213 1644 2213 
L 1363 2213 
L 1363 2669 
L 1656 2669 
Q 2231 2669 2534 2888 
Q 2859 3119 2859 3509 
Q 2859 3934 2494 4138 
Q 2259 4278 1931 4278 
Q 1238 4278 903 3578 
L 434 3803 
Q 897 4725 1938 4725 
Q 2597 4725 3006 4394 
Q 3416 4069 3416 3534 
Q 3416 3028 3019 2706 
Q 2763 2500 2381 2444 
L 2381 2419 
z
" transform="scale(0.015625)"/>
       <path id="IPAexGothic-30" d="M 2038 4725 
Q 2881 4725 3334 3944 
Q 3694 3325 3694 2344 
Q 3694 1372 3334 741 
Q 2888 -31 2016 -31 
Q 1147 -31 700 741 
Q 341 1372 341 2350 
Q 341 3713 1000 4334 
Q 1419 4725 2038 4725 
z
M 2016 4266 
Q 1516 4266 1228 3759 
Q 934 3247 934 2344 
Q 934 1456 1222 947 
Q 1513 447 2016 447 
Q 2619 447 2909 1153 
Q 3100 1622 3100 2375 
Q 3100 3256 2806 3759 
Q 2509 4266 2016 4266 
z
" transform="scale(0.015625)"/>
      </defs>
      <use xlink:href="#IPAexGothic-42"/>
      <use xlink:href="#IPAexGothic-20" transform="translate(65.917969 0)"/>
      <use xlink:href="#IPAexGothic-30d7" transform="translate(92.919922 0)"/>
      <use xlink:href="#IPAexGothic-30e9" transform="translate(192.919922 0)"/>
      <use xlink:href="#IPAexGothic-30f3" transform="translate(292.919922 0)"/>
      <use xlink:href="#IPAexGothic-20" transform="translate(392.919922 0)"/>
      <use xlink:href="#IPAexGothic-33" transform="translate(419.921875 0)"/>
      <use xlink:href="#IPAexGothic-30" transform="translate(482.910156 0)"/>
      <use xlink:href="#IPAexGothic-25" transform="translate(545.898438 0)"/>
     </g>
    </g>
    <g id="patch_105">
     <path d="M 173.604375 285.887538 
L 197.604375 285.887538 
L 197.604375 277.487538 
L 173.604375 277.487538 
z
" style="fill: #fbbf24; stroke: #fbbf24; stroke-linejoin: miter"/>
    </g>
    <g id="text_4">
     <!-- C プラン 18% -->
     <g transform="translate(207.204375 285.887538) scale(0.12 -0.12)">
      <defs>
       <path id="IPAexGothic-43" d="M 4353 1088 
Q 4181 694 3859 428 
Q 3313 -31 2559 -31 
Q 1588 -31 959 653 
Q 378 1294 378 2331 
Q 378 3406 1013 4078 
Q 1619 4725 2534 4725 
Q 3813 4725 4322 3628 
L 3809 3391 
Q 3425 4238 2541 4238 
Q 1891 4238 1453 3744 
Q 994 3216 994 2322 
Q 994 1550 1384 1056 
Q 1841 472 2563 472 
Q 3456 472 3878 1319 
L 4353 1088 
z
" transform="scale(0.015625)"/>
       <path id="IPAexGothic-31" d="M 2463 63 
L 1900 63 
L 1900 4103 
Q 1372 3922 788 3797 
L 684 4231 
Q 1519 4441 2106 4731 
L 2463 4731 
L 2463 63 
z
" transform="scale(0.015625)"/>
       <path id="IPAexGothic-38" d="M 2541 2425 
Q 3700 2031 3700 1197 
Q 3700 541 3100 197 
Q 2663 -56 2016 -56 
Q 1366 -56 928 197 
Q 347 531 347 1178 
Q 347 1988 1409 2381 
L 1409 2400 
Q 481 2734 481 3509 
Q 481 4100 981 4456 
Q 1406 4756 2019 4756 
Q 2703 4756 3131 4403 
Q 3553 4069 3553 3566 
Q 3553 2706 2541 2444 
L 2541 2425 
z
M 2022 2625 
Q 2997 2856 2997 3528 
Q 2997 3916 2675 4150 
Q 2413 4347 2016 4347 
Q 1606 4347 1331 4128 
Q 1050 3897 1050 3522 
Q 1050 3150 1350 2925 
Q 1494 2809 1722 2722 
Q 1984 2616 2022 2625 
z
M 1978 2209 
Q 922 1931 922 1216 
Q 922 775 1313 556 
Q 1606 391 2009 391 
Q 2575 391 2881 697 
Q 3106 922 3106 1250 
Q 3106 1594 2794 1850 
Q 2609 1994 2350 2100 
Q 2047 2222 1978 2209 
z
" transform="scale(0.015625)"/>
      </defs>
      <use xlink:href="#IPAexGothic-43"/>
      <use xlink:href="#IPAexGothic-20" transform="translate(72.509766 0)"/>
      <use xlink:href="#IPAexGothic-30d7" transform="translate(99.511719 0)"/>
      <use xlink:href="#IPAexGothic-30e9" transform="translate(199.511719 0)"/>
      <use xlink:href="#IPAexGothic-30f3" transform="translate(299.511719 0)"/>
      <use xlink:href="#IPAexGothic-20" transform="translate(399.511719 0)"/>
      <use xlink:href="#IPAexGothic-31" transform="translate(426.513672 0)"/>
      <use xlink:href="#IPAexGothic-38" transform="translate(489.501953 0)"/>
      <use xlink:href="#IPAexGothic-25" transform="translate(552.490234 0)"/>
     </g>
    </g>
    <g id="patch_106">
     <path d="M 173.604375 307.956288 
L 197.604375 307.956288 
L 197.604375 299.556288 
L 173.604375 299.556288 
z
" style="fill: #ef4444; stroke: #ef4444; stroke-linejoin: miter"/>
    </g>
    <g id="text_5">
     <!-- 解約 7% -->
     <g transform="translate(207.204375 307.956288) scale(0.12 -0.12)">
      <defs>
       <path id="IPAexGothic-89e3" d="M 4538 2222 
L 4538 2906 
L 4953 2906 
L 4953 2222 
L 5850 2222 
L 5850 1850 
L 4953 1850 
L 4953 1159 
L 6072 1159 
L 6072 775 
L 4953 775 
L 4953 -447 
L 4538 -447 
L 4538 775 
L 3303 775 
L 3303 1159 
L 4538 1159 
L 4538 1850 
L 3897 1850 
Q 3781 1528 3622 1269 
L 3303 1544 
Q 3600 2072 3706 2734 
L 4103 2663 
Q 4053 2416 4006 2222 
L 4538 2222 
z
M 2394 3803 
L 3141 3803 
L 3141 63 
Q 3141 -213 3006 -306 
Q 2900 -384 2622 -384 
Q 2250 -384 1919 -341 
L 1853 103 
Q 2278 31 2547 31 
Q 2744 31 2744 213 
L 2744 1319 
L 1241 1319 
Q 1191 303 722 -513 
L 394 -178 
Q 863 566 863 1869 
L 863 3181 
Q 738 3000 516 2741 
L 281 3094 
Q 1106 4053 1363 5319 
L 1797 5238 
Q 1747 5044 1719 4959 
L 1700 4891 
L 2653 4891 
L 2853 4684 
Q 2653 4238 2394 3803 
z
M 1809 3450 
L 1259 3450 
L 1259 2747 
L 1809 2747 
L 1809 3450 
z
M 2175 3450 
L 2175 2747 
L 2744 2747 
L 2744 3450 
L 2175 3450 
z
M 1809 2406 
L 1259 2406 
L 1259 1672 
L 1809 1672 
L 1809 2406 
z
M 2175 2406 
L 2175 1672 
L 2744 1672 
L 2744 2406 
L 2175 2406 
z
M 1969 3803 
Q 2172 4141 2322 4531 
L 1572 4531 
Q 1409 4100 1247 3803 
L 1969 3803 
z
M 4622 4594 
Q 4534 3469 3597 2897 
L 3297 3225 
Q 4088 3625 4191 4594 
L 3316 4594 
L 3316 4978 
L 5844 4978 
Q 5813 3791 5734 3422 
Q 5688 3194 5556 3103 
Q 5444 3031 5184 3031 
Q 4863 3031 4556 3078 
L 4500 3475 
Q 4819 3422 5044 3422 
Q 5266 3422 5313 3600 
Q 5372 3831 5400 4594 
L 4622 4594 
z
" transform="scale(0.015625)"/>
       <path id="IPAexGothic-7d04" d="M 1416 3028 
Q 956 3631 481 4072 
L 781 4397 
Q 916 4263 1044 4122 
Q 1409 4619 1722 5313 
L 2144 5119 
Q 1797 4484 1294 3841 
Q 1463 3638 1666 3359 
Q 2116 4009 2431 4563 
L 2834 4341 
Q 2159 3288 1519 2572 
Q 2209 2616 2491 2638 
Q 2306 2991 2203 3163 
L 2566 3341 
Q 2906 2816 3213 2059 
L 2803 1831 
Q 2716 2109 2631 2309 
Q 2266 2250 1997 2222 
L 1997 -447 
L 1569 -447 
L 1569 2169 
L 1472 2163 
Q 1131 2128 488 2081 
L 347 2516 
L 731 2528 
L 1025 2547 
L 1063 2591 
Q 1284 2853 1416 3028 
z
M 5916 4147 
Q 5869 1009 5653 103 
Q 5578 -206 5344 -313 
Q 5175 -384 4847 -384 
Q 4438 -384 4028 -341 
L 3938 147 
Q 4425 69 4834 69 
Q 5116 69 5191 247 
Q 5381 709 5447 3444 
L 5453 3731 
L 3866 3731 
Q 3644 3116 3303 2638 
L 2984 2981 
Q 3503 3719 3784 5172 
L 4231 5063 
Q 4150 4659 4006 4147 
L 5916 4147 
z
M 419 213 
Q 697 825 822 1766 
L 1244 1691 
Q 1097 609 847 -13 
L 419 213 
z
M 2631 319 
Q 2478 1069 2216 1734 
L 2594 1863 
Q 2853 1313 3078 538 
L 2631 319 
z
M 4316 1288 
Q 4022 2056 3572 2631 
L 3931 2847 
Q 4400 2269 4713 1538 
L 4316 1288 
z
" transform="scale(0.015625)"/>
       <path id="IPAexGothic-37" d="M 3597 4263 
Q 2238 2106 1778 63 
L 1131 63 
Q 1581 1834 2950 4128 
L 428 4128 
L 428 4634 
L 3597 4634 
L 3597 4263 
z
" transform="scale(0.015625)"/>
      </defs>
      <use xlink:href="#IPAexGothic-89e3"/>
      <use xlink:href="#IPAexGothic-7d04" transform="translate(100 0)"/>
      <use xlink:href="#IPAexGothic-20" transform="translate(200 0)"/>
      <use xlink:href="#IPAexGothic-37" transform="translate(227.001953 0)"/>
      <use xlink:href="#IPAexGothic-25" transform="translate(289.990234 0)"/>
     </g>
    </g>
   </g>
  </g>
 </g>
 <defs>
  <clipPath id="pb7aaf9d5f2">
   <rect x="29.6088" y="30.48" width="264.7824" height="264.7824"/>
  </clipPath>
 </defs>
</svg>
