<?xml version="1.0" encoding="utf-8" standalone="no"?>
<!DOCTYPE svg PUBLIC "-//W3C//DTD SVG 1.1//EN"
  "http://www.w3.org/Graphics/SVG/1.1/DTD/svg11.dtd">
<svg xmlns:xlink="http://www.w3.org/1999/xlink" width="396pt" height="288pt" viewBox="0 0 396 288" xmlns="http://www.w3.org/2000/svg" version="1.1">
 <metadata>
  <rdf:RDF xmlns:dc="http://purl.org/dc/elements/1.1/" xmlns:cc="http://creativecommons.org/ns#" xmlns:rdf="http://www.w3.org/1999/02/22-rdf-syntax-ns#">
   <cc:Work>
    <dc:type rdf:resource="http://purl.org/dc/dcmitype/StillImage"/>
    <dc:date>2025-10-29T09:07:48.255803</dc:date>
    <dc:format>image/svg+xml</dc:format>
    <dc:creator>
     <cc:Agent>
      <dc:title>Matplotlib v3.10.7, https://matplotlib.org/</dc:title>
     </cc:Agent>
    </dc:creator>
   </cc:Work>
  </rdf:RDF>
 </metadata>
 <defs>
  <style type="text/css">*{stroke-linejoin: round; stroke-linecap: butt}</style>
 </defs>
 <g id="figure_1">
  <g id="patch_1">
   <path d="M 0 288 
L 396 288 
L 396 0 
L 0 0 
z
" style="fill: #ffffff"/>
  </g>
  <g id="axes_1">
   <g id="patch_2">
    <path d="M 59.65875 239.94 
L 379.208569 239.94 
L 379.208569 28.32 
L 59.65875 28.32 
z
" style="fill: #ffffff"/>
   </g>
   <g id="matplotlib.axis_1">
    <g id="xtick_1">
     <g id="line2d_1">
      <path d="M 61.835668 239.94 
L 61.835668 28.32 
" clip-path="url(#p633c1cfccb)" style="fill: none; stroke: #cccccc; stroke-opacity: 0.2; stroke-linecap: round"/>
     </g>
     <g id="text_1">
      <!-- 150 -->
      <g style="fill: #262626" transform="translate(51.443246 257.679688) scale(0.11 -0.11)">
       <defs>
        <path id="IPAexGothic-31" d="M 2463 63 
L 1900 63 
L 1900 4103 
Q 1372 3922 788 3797 
L 684 4231 
Q 1519 4441 2106 4731 
L 2463 4731 
L 2463 63 
z
" transform="scale(0.015625)"/>
        <path id="IPAexGothic-35" d="M 1178 2603 
Q 1634 2963 2172 2963 
Q 2816 2963 3241 2528 
Q 3638 2113 3638 1497 
Q 3638 938 3297 513 
Q 2869 -31 2031 -31 
Q 959 -31 469 784 
L 938 1028 
Q 1309 434 2013 434 
Q 2466 434 2769 716 
Q 3081 1013 3081 1503 
Q 3081 1966 2806 2241 
Q 2519 2528 2056 2528 
Q 1406 2528 1072 2028 
L 591 2091 
L 884 4634 
L 3406 4634 
L 3406 4153 
L 1341 4153 
L 1134 2603 
L 1178 2603 
z
" transform="scale(0.015625)"/>
        <path id="IPAexGothic-30" d="M 2038 4725 
Q 2881 4725 3334 3944 
Q 3694 3325 3694 2344 
Q 3694 1372 3334 741 
Q 2888 -31 2016 -31 
Q 1147 -31 700 741 
Q 341 1372 341 2350 
Q 341 3713 1000 4334 
Q 1419 4725 2038 4725 
z
M 2016 4266 
Q 1516 4266 1228 3759 
Q 934 3247 934 2344 
Q 934 1456 1222 947 
Q 1513 447 2016 447 
Q 2619 447 2909 1153 
Q 3100 1622 3100 2375 
Q 3100 3256 2806 3759 
Q 2509 4266 2016 4266 
z
" transform="scale(0.015625)"/>
       </defs>
       <use xlink:href="#IPAexGothic-31"/>
       <use xlink:href="#IPAexGothic-35" transform="translate(62.988281 0)"/>
       <use xlink:href="#IPAexGothic-30" transform="translate(125.976562 0)"/>
      </g>
     </g>
    </g>
    <g id="xtick_2">
     <g id="line2d_2">
      <path d="M 106.198353 239.94 
L 106.198353 28.32 
" clip-path="url(#p633c1cfccb)" style="fill: none; stroke: #cccccc; stroke-opacity: 0.2; stroke-linecap: round"/>
     </g>
     <g id="text_2">
      <!-- 155 -->
      <g style="fill: #262626" transform="translate(95.805931 257.679688) scale(0.11 -0.11)">
       <use xlink:href="#IPAexGothic-31"/>
       <use xlink:href="#IPAexGothic-35" transform="translate(62.988281 0)"/>
       <use xlink:href="#IPAexGothic-35" transform="translate(125.976562 0)"/>
      </g>
     </g>
    </g>
    <g id="xtick_3">
     <g id="line2d_3">
      <path d="M 150.561038 239.94 
L 150.561038 28.32 
" clip-path="url(#p633c1cfccb)" style="fill: none; stroke: #cccccc; stroke-opacity: 0.2; stroke-linecap: round"/>
     </g>
     <g id="text_3">
      <!-- 160 -->
      <g style="fill: #262626" transform="translate(140.168616 257.679688) scale(0.11 -0.11)">
       <defs>
        <path id="IPAexGothic-36" d="M 1056 2328 
Q 1509 2981 2234 2981 
Q 2906 2981 3316 2513 
Q 3675 2106 3675 1522 
Q 3675 884 3272 434 
Q 2853 -31 2178 -31 
Q 1375 -31 922 581 
Q 481 1178 481 2228 
Q 481 3425 1013 4109 
Q 1494 4725 2272 4725 
Q 3191 4725 3609 4025 
L 3150 3775 
Q 2894 4266 2300 4266 
Q 1119 4266 1031 2328 
L 1056 2328 
z
M 2141 2547 
Q 1684 2547 1384 2206 
Q 1116 1900 1116 1541 
Q 1116 1156 1353 844 
Q 1672 428 2159 428 
Q 2669 428 2941 844 
Q 3125 1128 3125 1503 
Q 3125 1944 2881 2228 
Q 2600 2547 2141 2547 
z
" transform="scale(0.015625)"/>
       </defs>
       <use xlink:href="#IPAexGothic-31"/>
       <use xlink:href="#IPAexGothic-36" transform="translate(62.988281 0)"/>
       <use xlink:href="#IPAexGothic-30" transform="translate(125.976562 0)"/>
      </g>
     </g>
    </g>
    <g id="xtick_4">
     <g id="line2d_4">
      <path d="M 194.923723 239.94 
L 194.923723 28.32 
" clip-path="url(#p633c1cfccb)" style="fill: none; stroke: #cccccc; stroke-opacity: 0.2; stroke-linecap: round"/>
     </g>
     <g id="text_4">
      <!-- 165 -->
      <g style="fill: #262626" transform="translate(184.531301 257.679688) scale(0.11 -0.11)">
       <use xlink:href="#IPAexGothic-31"/>
       <use xlink:href="#IPAexGothic-36" transform="translate(62.988281 0)"/>
       <use xlink:href="#IPAexGothic-35" transform="translate(125.976562 0)"/>
      </g>
     </g>
    </g>
    <g id="xtick_5">
     <g id="line2d_5">
      <path d="M 239.286408 239.94 
L 239.286408 28.32 
" clip-path="url(#p633c1cfccb)" style="fill: none; stroke: #cccccc; stroke-opacity: 0.2; stroke-linecap: round"/>
     </g>
     <g id="text_5">
      <!-- 170 -->
      <g style="fill: #262626" transform="translate(228.893986 257.679688) scale(0.11 -0.11)">
       <defs>
        <path id="IPAexGothic-37" d="M 3597 4263 
Q 2238 2106 1778 63 
L 1131 63 
Q 1581 1834 2950 4128 
L 428 4128 
L 428 4634 
L 3597 4634 
L 3597 4263 
z
" transform="scale(0.015625)"/>
       </defs>
       <use xlink:href="#IPAexGothic-31"/>
       <use xlink:href="#IPAexGothic-37" transform="translate(62.988281 0)"/>
       <use xlink:href="#IPAexGothic-30" transform="translate(125.976562 0)"/>
      </g>
     </g>
    </g>
    <g id="xtick_6">
     <g id="line2d_6">
      <path d="M 283.649093 239.94 
L 283.649093 28.32 
" clip-path="url(#p633c1cfccb)" style="fill: none; stroke: #cccccc; stroke-opacity: 0.2; stroke-linecap: round"/>
     </g>
     <g id="text_6">
      <!-- 175 -->
      <g style="fill: #262626" transform="translate(273.256671 257.679688) scale(0.11 -0.11)">
       <use xlink:href="#IPAexGothic-31"/>
       <use xlink:href="#IPAexGothic-37" transform="translate(62.988281 0)"/>
       <use xlink:href="#IPAexGothic-35" transform="translate(125.976562 0)"/>
      </g>
     </g>
    </g>
    <g id="xtick_7">
     <g id="line2d_7">
      <path d="M 328.011778 239.94 
L 328.011778 28.32 
" clip-path="url(#p633c1cfccb)" style="fill: none; stroke: #cccccc; stroke-opacity: 0.2; stroke-linecap: round"/>
     </g>
     <g id="text_7">
      <!-- 180 -->
      <g style="fill: #262626" transform="translate(317.619356 257.679688) scale(0.11 -0.11)">
       <defs>
        <path id="IPAexGothic-38" d="M 2541 2425 
Q 3700 2031 3700 1197 
Q 3700 541 3100 197 
Q 2663 -56 2016 -56 
Q 1366 -56 928 197 
Q 347 531 347 1178 
Q 347 1988 1409 2381 
L 1409 2400 
Q 481 2734 481 3509 
Q 481 4100 981 4456 
Q 1406 4756 2019 4756 
Q 2703 4756 3131 4403 
Q 3553 4069 3553 3566 
Q 3553 2706 2541 2444 
L 2541 2425 
z
M 2022 2625 
Q 2997 2856 2997 3528 
Q 2997 3916 2675 4150 
Q 2413 4347 2016 4347 
Q 1606 4347 1331 4128 
Q 1050 3897 1050 3522 
Q 1050 3150 1350 2925 
Q 1494 2809 1722 2722 
Q 1984 2616 2022 2625 
z
M 1978 2209 
Q 922 1931 922 1216 
Q 922 775 1313 556 
Q 1606 391 2009 391 
Q 2575 391 2881 697 
Q 3106 922 3106 1250 
Q 3106 1594 2794 1850 
Q 2609 1994 2350 2100 
Q 2047 2222 1978 2209 
z
" transform="scale(0.015625)"/>
       </defs>
       <use xlink:href="#IPAexGothic-31"/>
       <use xlink:href="#IPAexGothic-38" transform="translate(62.988281 0)"/>
       <use xlink:href="#IPAexGothic-30" transform="translate(125.976562 0)"/>
      </g>
     </g>
    </g>
    <g id="xtick_8">
     <g id="line2d_8">
      <path d="M 372.374463 239.94 
L 372.374463 28.32 
" clip-path="url(#p633c1cfccb)" style="fill: none; stroke: #cccccc; stroke-opacity: 0.2; stroke-linecap: round"/>
     </g>
     <g id="text_8">
      <!-- 185 -->
      <g style="fill: #262626" transform="translate(361.982041 257.679688) scale(0.11 -0.11)">
       <use xlink:href="#IPAexGothic-31"/>
       <use xlink:href="#IPAexGothic-38" transform="translate(62.988281 0)"/>
       <use xlink:href="#IPAexGothic-35" transform="translate(125.976562 0)"/>
      </g>
     </g>
    </g>
    <g id="text_9">
     <!-- 身長（cm） -->
     <g style="fill: #262626" transform="translate(186.943659 272.758438) scale(0.12 -0.12)">
      <defs>
       <path id="IPAexGothic-8eab" d="M 4456 1503 
Q 3147 375 941 -403 
L 641 6 
Q 2784 628 4013 1644 
Q 2666 1425 666 1284 
L 531 1741 
L 953 1759 
L 1063 1766 
L 1441 1791 
L 1441 4691 
L 2559 4691 
Q 2709 5038 2784 5356 
L 3322 5278 
Q 3188 4969 3034 4691 
L 4878 4691 
L 4878 2481 
Q 5256 2928 5600 3488 
L 6003 3213 
Q 5528 2522 4903 1913 
L 4903 72 
Q 4903 -244 4744 -356 
Q 4619 -453 4309 -453 
Q 3859 -453 3366 -409 
L 3263 78 
Q 3850 0 4244 0 
Q 4456 0 4456 206 
L 4456 1503 
z
M 4425 2022 
L 4425 2469 
L 1881 2469 
L 1881 1816 
L 2106 1828 
Q 3641 1925 4425 2022 
z
M 4425 2853 
L 4425 3384 
L 1881 3384 
L 1881 2853 
L 4425 2853 
z
M 4425 3769 
L 4425 4300 
L 1881 4300 
L 1881 3769 
L 4425 3769 
z
" transform="scale(0.015625)"/>
       <path id="IPAexGothic-9577" d="M 1913 4581 
L 1913 4128 
L 5131 4128 
L 5131 3744 
L 1913 3744 
L 1913 3284 
L 5131 3284 
L 5131 2900 
L 1913 2900 
L 1913 2413 
L 6041 2413 
L 6041 2016 
L 3384 2016 
Q 3603 1503 4063 1063 
Q 4709 1478 5259 1984 
L 5650 1709 
Q 4950 1134 4378 788 
Q 5044 272 6066 6 
L 5766 -409 
Q 3613 259 2931 2016 
L 1913 2016 
L 1913 269 
Q 2741 466 3409 666 
L 3450 281 
Q 2244 -131 769 -456 
L 575 -6 
Q 1447 159 1453 159 
L 1453 2016 
L 353 2016 
L 353 2413 
L 1453 2413 
L 1453 4978 
L 5356 4978 
L 5356 4581 
L 1913 4581 
z
" transform="scale(0.015625)"/>
       <path id="IPAexGothic-ff08" d="M 5419 -434 
Q 4197 769 4197 2438 
Q 4197 4097 5419 5300 
L 5919 5300 
Q 4678 4078 4678 2425 
Q 4678 788 5919 -434 
L 5419 -434 
z
" transform="scale(0.015625)"/>
       <path id="IPAexGothic-63" d="M 3269 784 
Q 2834 -31 1900 -31 
Q 1228 -31 788 409 
Q 313 891 313 1663 
Q 313 2428 788 2913 
Q 1222 3347 1881 3347 
Q 2813 3347 3206 2541 
L 2763 2309 
Q 2484 2900 1900 2900 
Q 1516 2900 1234 2619 
Q 881 2266 881 1650 
Q 881 1069 1222 728 
Q 1522 428 1956 428 
Q 2547 428 2847 1016 
L 3269 784 
z
" transform="scale(0.015625)"/>
       <path id="IPAexGothic-6d" d="M 5022 63 
L 4472 63 
L 4472 2059 
Q 4472 2869 3847 2869 
Q 3550 2869 3303 2594 
Q 3128 2397 3059 2103 
L 3059 63 
L 2509 63 
L 2509 2066 
Q 2509 2869 1919 2869 
Q 1606 2869 1369 2594 
Q 1113 2306 1113 2041 
L 1113 63 
L 563 63 
L 563 3250 
L 1075 3250 
L 1075 2700 
Q 1391 3316 2028 3316 
Q 2725 3316 2956 2647 
Q 3303 3316 3953 3316 
Q 4478 3316 4772 2944 
Q 5022 2638 5022 2072 
L 5022 63 
z
" transform="scale(0.015625)"/>
       <path id="IPAexGothic-ff09" d="M 481 -434 
Q 1722 788 1722 2431 
Q 1722 4066 481 5300 
L 981 5300 
Q 2203 4097 2203 2431 
Q 2203 769 981 -434 
L 481 -434 
z
" transform="scale(0.015625)"/>
      </defs>
      <use xlink:href="#IPAexGothic-8eab"/>
      <use xlink:href="#IPAexGothic-9577" transform="translate(100 0)"/>
      <use xlink:href="#IPAexGothic-ff08" transform="translate(200 0)"/>
      <use xlink:href="#IPAexGothic-63" transform="translate(300 0)"/>
      <use xlink:href="#IPAexGothic-6d" transform="translate(354.394531 0)"/>
      <use xlink:href="#IPAexGothic-ff09" transform="translate(441.503906 0)"/>
     </g>
    </g>
   </g>
   <g id="matplotlib.axis_2">
    <g id="ytick_1">
     <g id="line2d_9">
      <path d="M 59.65875 225.302762 
L 379.208569 225.302762 
" clip-path="url(#p633c1cfccb)" style="fill: none; stroke: #cccccc; stroke-opacity: 0.2; stroke-linecap: round"/>
     </g>
     <g id="text_10">
      <!-- 115 -->
      <g style="fill: #262626" transform="translate(29.373906 229.422606) scale(0.11 -0.11)">
       <use xlink:href="#IPAexGothic-31"/>
       <use xlink:href="#IPAexGothic-31" transform="translate(62.988281 0)"/>
       <use xlink:href="#IPAexGothic-35" transform="translate(125.976562 0)"/>
      </g>
     </g>
    </g>
    <g id="ytick_2">
     <g id="line2d_10">
      <path d="M 59.65875 193.578113 
L 379.208569 193.578113 
" clip-path="url(#p633c1cfccb)" style="fill: none; stroke: #cccccc; stroke-opacity: 0.2; stroke-linecap: round"/>
     </g>
     <g id="text_11">
      <!-- 120 -->
      <g style="fill: #262626" transform="translate(29.373906 197.697957) scale(0.11 -0.11)">
       <defs>
        <path id="IPAexGothic-32" d="M 3659 63 
L 447 63 
L 447 594 
Q 825 1475 1894 2203 
L 2072 2322 
Q 2619 2697 2791 2906 
Q 2988 3153 2988 3444 
Q 2988 3772 2756 4003 
Q 2500 4259 2084 4259 
Q 1250 4259 991 3328 
L 497 3506 
Q 853 4725 2116 4725 
Q 2806 4725 3216 4316 
Q 3575 3947 3575 3425 
Q 3575 3038 3344 2722 
Q 3131 2416 2366 1938 
L 2231 1856 
Q 1256 1253 978 569 
L 3659 569 
L 3659 63 
z
" transform="scale(0.015625)"/>
       </defs>
       <use xlink:href="#IPAexGothic-31"/>
       <use xlink:href="#IPAexGothic-32" transform="translate(62.988281 0)"/>
       <use xlink:href="#IPAexGothic-30" transform="translate(125.976562 0)"/>
      </g>
     </g>
    </g>
    <g id="ytick_3">
     <g id="line2d_11">
      <path d="M 59.65875 161.853464 
L 379.208569 161.853464 
" clip-path="url(#p633c1cfccb)" style="fill: none; stroke: #cccccc; stroke-opacity: 0.2; stroke-linecap: round"/>
     </g>
     <g id="text_12">
      <!-- 125 -->
      <g style="fill: #262626" transform="translate(29.373906 165.973308) scale(0.11 -0.11)">
       <use xlink:href="#IPAexGothic-31"/>
       <use xlink:href="#IPAexGothic-32" transform="translate(62.988281 0)"/>
       <use xlink:href="#IPAexGothic-35" transform="translate(125.976562 0)"/>
      </g>
     </g>
    </g>
    <g id="ytick_4">
     <g id="line2d_12">
      <path d="M 59.65875 130.128815 
L 379.208569 130.128815 
" clip-path="url(#p633c1cfccb)" style="fill: none; stroke: #cccccc; stroke-opacity: 0.2; stroke-linecap: round"/>
     </g>
     <g id="text_13">
      <!-- 130 -->
      <g style="fill: #262626" transform="translate(29.373906 134.248659) scale(0.11 -0.11)">
       <defs>
        <path id="IPAexGothic-33" d="M 2381 2419 
Q 3506 2216 3506 1278 
Q 3506 716 3128 356 
Q 2709 -31 1944 -31 
Q 797 -31 288 881 
L 756 1131 
Q 1109 441 1938 441 
Q 2425 441 2694 691 
Q 2950 928 2950 1291 
Q 2950 1719 2566 1978 
Q 2216 2213 1644 2213 
L 1363 2213 
L 1363 2669 
L 1656 2669 
Q 2231 2669 2534 2888 
Q 2859 3119 2859 3509 
Q 2859 3934 2494 4138 
Q 2259 4278 1931 4278 
Q 1238 4278 903 3578 
L 434 3803 
Q 897 4725 1938 4725 
Q 2597 4725 3006 4394 
Q 3416 4069 3416 3534 
Q 3416 3028 3019 2706 
Q 2763 2500 2381 2444 
L 2381 2419 
z
" transform="scale(0.015625)"/>
       </defs>
       <use xlink:href="#IPAexGothic-31"/>
       <use xlink:href="#IPAexGothic-33" transform="translate(62.988281 0)"/>
       <use xlink:href="#IPAexGothic-30" transform="translate(125.976562 0)"/>
      </g>
     </g>
    </g>
    <g id="ytick_5">
     <g id="line2d_13">
      <path d="M 59.65875 98.404166 
L 379.208569 98.404166 
" clip-path="url(#p633c1cfccb)" style="fill: none; stroke: #cccccc; stroke-opacity: 0.2; stroke-linecap: round"/>
     </g>
     <g id="text_14">
      <!-- 135 -->
      <g style="fill: #262626" transform="translate(29.373906 102.524009) scale(0.11 -0.11)">
       <use xlink:href="#IPAexGothic-31"/>
       <use xlink:href="#IPAexGothic-33" transform="translate(62.988281 0)"/>
       <use xlink:href="#IPAexGothic-35" transform="translate(125.976562 0)"/>
      </g>
     </g>
    </g>
    <g id="ytick_6">
     <g id="line2d_14">
      <path d="M 59.65875 66.679516 
L 379.208569 66.679516 
" clip-path="url(#p633c1cfccb)" style="fill: none; stroke: #cccccc; stroke-opacity: 0.2; stroke-linecap: round"/>
     </g>
     <g id="text_15">
      <!-- 140 -->
      <g style="fill: #262626" transform="translate(29.373906 70.79936) scale(0.11 -0.11)">
       <defs>
        <path id="IPAexGothic-34" d="M 3813 1159 
L 3059 1159 
L 3059 63 
L 2547 63 
L 2547 1159 
L 197 1159 
L 197 1672 
L 2456 4678 
L 3059 4678 
L 3059 1634 
L 3813 1634 
L 3813 1159 
z
M 2578 4109 
L 2559 4109 
Q 2278 3656 2003 3284 
L 759 1634 
L 2547 1634 
L 2547 3144 
Q 2547 3481 2578 4109 
z
" transform="scale(0.015625)"/>
       </defs>
       <use xlink:href="#IPAexGothic-31"/>
       <use xlink:href="#IPAexGothic-34" transform="translate(62.988281 0)"/>
       <use xlink:href="#IPAexGothic-30" transform="translate(125.976562 0)"/>
      </g>
     </g>
    </g>
    <g id="ytick_7">
     <g id="line2d_15">
      <path d="M 59.65875 34.954867 
L 379.208569 34.954867 
" clip-path="url(#p633c1cfccb)" style="fill: none; stroke: #cccccc; stroke-opacity: 0.2; stroke-linecap: round"/>
     </g>
     <g id="text_16">
      <!-- 145 -->
      <g style="fill: #262626" transform="translate(29.373906 39.074711) scale(0.11 -0.11)">
       <use xlink:href="#IPAexGothic-31"/>
       <use xlink:href="#IPAexGothic-34" transform="translate(62.988281 0)"/>
       <use xlink:href="#IPAexGothic-35" transform="translate(125.976562 0)"/>
      </g>
     </g>
    </g>
    <g id="text_17">
     <!-- 体重（kg） -->
     <g style="fill: #262626" transform="translate(23.024531 164.569687) rotate(-90) scale(0.12 -0.12)">
      <defs>
       <path id="IPAexGothic-4f53" d="M 4253 3481 
Q 4869 2069 6041 1138 
L 5688 703 
Q 4541 1841 4069 3122 
L 4069 1228 
L 4925 1228 
L 4925 831 
L 4081 831 
L 4081 -450 
L 3613 -450 
L 3613 831 
L 2781 831 
L 2781 1228 
L 3628 1228 
L 3628 3097 
Q 3216 1703 2063 556 
L 1706 928 
Q 2844 1875 3441 3481 
L 1969 3481 
L 1969 3897 
L 3613 3897 
L 3613 5209 
L 4081 5209 
L 4081 3897 
L 5872 3897 
L 5872 3481 
L 4253 3481 
z
M 1572 3700 
L 1572 -441 
L 1119 -441 
L 1119 2778 
Q 888 2363 550 1913 
L 300 2303 
Q 1219 3575 1591 5241 
L 2041 5125 
Q 1844 4356 1572 3700 
z
" transform="scale(0.015625)"/>
       <path id="IPAexGothic-91cd" d="M 2950 3284 
L 2950 3684 
L 481 3684 
L 481 4063 
L 2950 4063 
L 2950 4491 
L 2747 4478 
Q 2100 4431 1241 4400 
L 1038 4791 
Q 3488 4878 4903 5113 
L 5234 4734 
Q 4388 4600 3406 4522 
L 3406 4063 
L 5913 4063 
L 5913 3684 
L 3406 3684 
L 3406 3284 
L 5269 3284 
L 5269 1313 
L 3406 1313 
L 3406 884 
L 5594 884 
L 5594 519 
L 3406 519 
L 3406 84 
L 6009 84 
L 6009 -294 
L 384 -294 
L 384 84 
L 2950 84 
L 2950 519 
L 800 519 
L 800 884 
L 2950 884 
L 2950 1313 
L 1128 1313 
L 1128 3284 
L 2950 3284 
z
M 2963 2931 
L 1569 2931 
L 1569 2472 
L 2963 2472 
L 2963 2931 
z
M 3394 2931 
L 3394 2472 
L 4825 2472 
L 4825 2931 
L 3394 2931 
z
M 2963 2147 
L 1569 2147 
L 1569 1659 
L 2963 1659 
L 2963 2147 
z
M 3394 2147 
L 3394 1659 
L 4825 1659 
L 4825 2147 
L 3394 2147 
z
" transform="scale(0.015625)"/>
       <path id="IPAexGothic-6b" d="M 3244 63 
L 2578 63 
L 1484 1613 
L 1119 1259 
L 1119 63 
L 581 63 
L 581 4794 
L 1119 4794 
L 1119 1766 
L 2463 3250 
L 3153 3250 
L 1828 1925 
L 3244 63 
z
" transform="scale(0.015625)"/>
       <path id="IPAexGothic-67" d="M 1331 1150 
Q 1006 1122 1006 900 
Q 1006 613 1763 575 
L 2131 556 
Q 3303 497 3303 -294 
Q 3303 -700 2925 -959 
Q 2519 -1253 1794 -1253 
Q 1138 -1253 738 -1028 
Q 353 -809 353 -428 
Q 353 84 1075 247 
L 1075 269 
Q 506 413 506 778 
Q 506 1116 994 1297 
Q 456 1575 456 2181 
Q 456 2650 769 2963 
Q 1128 3322 1738 3322 
Q 2125 3322 2422 3153 
Q 2650 3453 3259 3463 
L 3259 3013 
Q 2838 3003 2703 2938 
Q 3034 2613 3034 2169 
Q 3034 1728 2734 1425 
Q 2400 1094 1813 1094 
Q 1563 1094 1331 1150 
z
M 1734 2919 
Q 1409 2919 1197 2706 
Q 988 2497 988 2181 
Q 988 1872 1184 1684 
Q 1397 1472 1756 1472 
Q 2094 1472 2297 1678 
Q 2503 1881 2503 2203 
Q 2503 2497 2297 2700 
Q 2081 2919 1734 2919 
z
M 1753 159 
Q 903 159 903 -366 
Q 903 -875 1800 -875 
Q 2378 -875 2638 -606 
Q 2772 -481 2772 -313 
Q 2772 159 1753 159 
z
" transform="scale(0.015625)"/>
      </defs>
      <use xlink:href="#IPAexGothic-4f53"/>
      <use xlink:href="#IPAexGothic-91cd" transform="translate(100 0)"/>
      <use xlink:href="#IPAexGothic-ff08" transform="translate(200 0)"/>
      <use xlink:href="#IPAexGothic-6b" transform="translate(300 0)"/>
      <use xlink:href="#IPAexGothic-67" transform="translate(351.806641 0)"/>
      <use xlink:href="#IPAexGothic-ff09" transform="translate(407.324219 0)"/>
     </g>
    </g>
   </g>
   <g id="PathCollection_1">
    <defs>
     <path id="m3dbfa409ba" d="M 0 3 
C 0.795609 3 1.55874 2.683901 2.12132 2.12132 
C 2.683901 1.55874 3 0.795609 3 0 
C 3 -0.795609 2.683901 -1.55874 2.12132 -2.12132 
C 1.55874 -2.683901 0.795609 -3 0 -3 
C -0.795609 -3 -1.55874 -2.683901 -2.12132 -2.12132 
C -2.683901 -1.55874 -3 -0.795609 -3 0 
C -3 0.795609 -2.683901 1.55874 -2.12132 2.12132 
C -1.55874 2.683901 -0.795609 3 0 3 
z
" style="stroke: #ffffff; stroke-width: 0.48"/>
    </defs>
    <g clip-path="url(#p633c1cfccb)">
     <use xlink:href="#m3dbfa409ba" x="234.297705" y="152.049567" style="fill: #2563eb; stroke: #ffffff; stroke-width: 0.48"/>
     <use xlink:href="#m3dbfa409ba" x="138.850417" y="154.845778" style="fill: #2563eb; stroke: #ffffff; stroke-width: 0.48"/>
     <use xlink:href="#m3dbfa409ba" x="265.936045" y="99.025022" style="fill: #2563eb; stroke: #ffffff; stroke-width: 0.48"/>
     <use xlink:href="#m3dbfa409ba" x="279.430359" y="57.094557" style="fill: #2563eb; stroke: #ffffff; stroke-width: 0.48"/>
     <use xlink:href="#m3dbfa409ba" x="74.183742" y="161.786288" style="fill: #2563eb; stroke: #ffffff; stroke-width: 0.48"/>
     <use xlink:href="#m3dbfa409ba" x="120.23971" y="157.19696" style="fill: #2563eb; stroke: #ffffff; stroke-width: 0.48"/>
     <use xlink:href="#m3dbfa409ba" x="221.742946" y="78.543594" style="fill: #2563eb; stroke: #ffffff; stroke-width: 0.48"/>
     <use xlink:href="#m3dbfa409ba" x="190.221804" y="176.204298" style="fill: #2563eb; stroke: #ffffff; stroke-width: 0.48"/>
     <use xlink:href="#m3dbfa409ba" x="211.476246" y="149.667412" style="fill: #2563eb; stroke: #ffffff; stroke-width: 0.48"/>
     <use xlink:href="#m3dbfa409ba" x="152.119486" y="184.235144" style="fill: #2563eb; stroke: #ffffff; stroke-width: 0.48"/>
     <use xlink:href="#m3dbfa409ba" x="275.088725" y="114.443759" style="fill: #2563eb; stroke: #ffffff; stroke-width: 0.48"/>
     <use xlink:href="#m3dbfa409ba" x="267.876698" y="148.846545" style="fill: #2563eb; stroke: #ffffff; stroke-width: 0.48"/>
     <use xlink:href="#m3dbfa409ba" x="217.355675" y="106.698879" style="fill: #2563eb; stroke: #ffffff; stroke-width: 0.48"/>
     <use xlink:href="#m3dbfa409ba" x="292.680711" y="101.578887" style="fill: #2563eb; stroke: #ffffff; stroke-width: 0.48"/>
     <use xlink:href="#m3dbfa409ba" x="245.852748" y="161.282335" style="fill: #2563eb; stroke: #ffffff; stroke-width: 0.48"/>
     <use xlink:href="#m3dbfa409ba" x="151.675963" y="187.249041" style="fill: #2563eb; stroke: #ffffff; stroke-width: 0.48"/>
     <use xlink:href="#m3dbfa409ba" x="238.842837" y="107.683162" style="fill: #2563eb; stroke: #ffffff; stroke-width: 0.48"/>
     <use xlink:href="#m3dbfa409ba" x="144.607026" y="131.473963" style="fill: #2563eb; stroke: #ffffff; stroke-width: 0.48"/>
     <use xlink:href="#m3dbfa409ba" x="275.021459" y="38.760455" style="fill: #2563eb; stroke: #ffffff; stroke-width: 0.48"/>
     <use xlink:href="#m3dbfa409ba" x="209.125041" y="37.939091" style="fill: #2563eb; stroke: #ffffff; stroke-width: 0.48"/>
     <use xlink:href="#m3dbfa409ba" x="199.547211" y="121.342941" style="fill: #2563eb; stroke: #ffffff; stroke-width: 0.48"/>
     <use xlink:href="#m3dbfa409ba" x="164.336216" y="180.990739" style="fill: #2563eb; stroke: #ffffff; stroke-width: 0.48"/>
     <use xlink:href="#m3dbfa409ba" x="299.445143" y="159.264942" style="fill: #2563eb; stroke: #ffffff; stroke-width: 0.48"/>
     <use xlink:href="#m3dbfa409ba" x="201.700248" y="125.073074" style="fill: #2563eb; stroke: #ffffff; stroke-width: 0.48"/>
     <use xlink:href="#m3dbfa409ba" x="182.265961" y="167.695108" style="fill: #2563eb; stroke: #ffffff; stroke-width: 0.48"/>
     <use xlink:href="#m3dbfa409ba" x="187.674253" y="152.761353" style="fill: #2563eb; stroke: #ffffff; stroke-width: 0.48"/>
     <use xlink:href="#m3dbfa409ba" x="250.45226" y="132.066556" style="fill: #2563eb; stroke: #ffffff; stroke-width: 0.48"/>
     <use xlink:href="#m3dbfa409ba" x="238.608125" y="122.196529" style="fill: #2563eb; stroke: #ffffff; stroke-width: 0.48"/>
     <use xlink:href="#m3dbfa409ba" x="241.96468" y="82.471934" style="fill: #2563eb; stroke: #ffffff; stroke-width: 0.48"/>
     <use xlink:href="#m3dbfa409ba" x="243.248599" y="110.756579" style="fill: #2563eb; stroke: #ffffff; stroke-width: 0.48"/>
     <use xlink:href="#m3dbfa409ba" x="364.683577" y="68.667165" style="fill: #2563eb; stroke: #ffffff; stroke-width: 0.48"/>
     <use xlink:href="#m3dbfa409ba" x="183.821339" y="174.09322" style="fill: #2563eb; stroke: #ffffff; stroke-width: 0.48"/>
     <use xlink:href="#m3dbfa409ba" x="176.309656" y="197.58925" style="fill: #2563eb; stroke: #ffffff; stroke-width: 0.48"/>
     <use xlink:href="#m3dbfa409ba" x="154.906968" y="169.071765" style="fill: #2563eb; stroke: #ffffff; stroke-width: 0.48"/>
     <use xlink:href="#m3dbfa409ba" x="256.391198" y="111.805999" style="fill: #2563eb; stroke: #ffffff; stroke-width: 0.48"/>
     <use xlink:href="#m3dbfa409ba" x="292.803584" y="38.389272" style="fill: #2563eb; stroke: #ffffff; stroke-width: 0.48"/>
     <use xlink:href="#m3dbfa409ba" x="204.580772" y="128.197261" style="fill: #2563eb; stroke: #ffffff; stroke-width: 0.48"/>
     <use xlink:href="#m3dbfa409ba" x="153.034241" y="123.270285" style="fill: #2563eb; stroke: #ffffff; stroke-width: 0.48"/>
     <use xlink:href="#m3dbfa409ba" x="154.146876" y="169.809929" style="fill: #2563eb; stroke: #ffffff; stroke-width: 0.48"/>
     <use xlink:href="#m3dbfa409ba" x="258.848065" y="146.637519" style="fill: #2563eb; stroke: #ffffff; stroke-width: 0.48"/>
     <use xlink:href="#m3dbfa409ba" x="265.425198" y="136.841521" style="fill: #2563eb; stroke: #ffffff; stroke-width: 0.48"/>
     <use xlink:href="#m3dbfa409ba" x="251.222047" y="135.325248" style="fill: #2563eb; stroke: #ffffff; stroke-width: 0.48"/>
     <use xlink:href="#m3dbfa409ba" x="165.430721" y="81.603413" style="fill: #2563eb; stroke: #ffffff; stroke-width: 0.48"/>
     <use xlink:href="#m3dbfa409ba" x="229.147676" y="147.847406" style="fill: #2563eb; stroke: #ffffff; stroke-width: 0.48"/>
     <use xlink:href="#m3dbfa409ba" x="220.95119" y="98.705309" style="fill: #2563eb; stroke: #ffffff; stroke-width: 0.48"/>
     <use xlink:href="#m3dbfa409ba" x="228.191378" y="150.844571" style="fill: #2563eb; stroke: #ffffff; stroke-width: 0.48"/>
     <use xlink:href="#m3dbfa409ba" x="274.523069" y="72.76606" style="fill: #2563eb; stroke: #ffffff; stroke-width: 0.48"/>
     <use xlink:href="#m3dbfa409ba" x="228.539675" y="109.837644" style="fill: #2563eb; stroke: #ffffff; stroke-width: 0.48"/>
     <use xlink:href="#m3dbfa409ba" x="260.858282" y="113.152348" style="fill: #2563eb; stroke: #ffffff; stroke-width: 0.48"/>
     <use xlink:href="#m3dbfa409ba" x="217.465579" y="128.09484" style="fill: #2563eb; stroke: #ffffff; stroke-width: 0.48"/>
     <use xlink:href="#m3dbfa409ba" x="233.190577" y="140.827416" style="fill: #2563eb; stroke: #ffffff; stroke-width: 0.48"/>
     <use xlink:href="#m3dbfa409ba" x="257.477822" y="95.482043" style="fill: #2563eb; stroke: #ffffff; stroke-width: 0.48"/>
     <use xlink:href="#m3dbfa409ba" x="109.239446" y="187.672667" style="fill: #2563eb; stroke: #ffffff; stroke-width: 0.48"/>
     <use xlink:href="#m3dbfa409ba" x="189.978439" y="177.477541" style="fill: #2563eb; stroke: #ffffff; stroke-width: 0.48"/>
     <use xlink:href="#m3dbfa409ba" x="179.281607" y="183.727461" style="fill: #2563eb; stroke: #ffffff; stroke-width: 0.48"/>
     <use xlink:href="#m3dbfa409ba" x="167.321058" y="142.841986" style="fill: #2563eb; stroke: #ffffff; stroke-width: 0.48"/>
     <use xlink:href="#m3dbfa409ba" x="193.139118" y="87.143352" style="fill: #2563eb; stroke: #ffffff; stroke-width: 0.48"/>
     <use xlink:href="#m3dbfa409ba" x="318.780173" y="78.254722" style="fill: #2563eb; stroke: #ffffff; stroke-width: 0.48"/>
     <use xlink:href="#m3dbfa409ba" x="151.211848" y="158.993049" style="fill: #2563eb; stroke: #ffffff; stroke-width: 0.48"/>
     <use xlink:href="#m3dbfa409ba" x="281.397481" y="90.302535" style="fill: #2563eb; stroke: #ffffff; stroke-width: 0.48"/>
     <use xlink:href="#m3dbfa409ba" x="93.218202" y="138.680297" style="fill: #2563eb; stroke: #ffffff; stroke-width: 0.48"/>
     <use xlink:href="#m3dbfa409ba" x="188.898558" y="132.099142" style="fill: #2563eb; stroke: #ffffff; stroke-width: 0.48"/>
     <use xlink:href="#m3dbfa409ba" x="224.221057" y="136.939599" style="fill: #2563eb; stroke: #ffffff; stroke-width: 0.48"/>
     <use xlink:href="#m3dbfa409ba" x="254.279031" y="75.909418" style="fill: #2563eb; stroke: #ffffff; stroke-width: 0.48"/>
     <use xlink:href="#m3dbfa409ba" x="263.15187" y="93.596804" style="fill: #2563eb; stroke: #ffffff; stroke-width: 0.48"/>
     <use xlink:href="#m3dbfa409ba" x="268.980818" y="55.976592" style="fill: #2563eb; stroke: #ffffff; stroke-width: 0.48"/>
     <use xlink:href="#m3dbfa409ba" x="187.916188" y="133.667434" style="fill: #2563eb; stroke: #ffffff; stroke-width: 0.48"/>
     <use xlink:href="#m3dbfa409ba" x="179.85093" y="181.78691" style="fill: #2563eb; stroke: #ffffff; stroke-width: 0.48"/>
     <use xlink:href="#m3dbfa409ba" x="273.568179" y="146.133975" style="fill: #2563eb; stroke: #ffffff; stroke-width: 0.48"/>
     <use xlink:href="#m3dbfa409ba" x="199.089959" y="82.311019" style="fill: #2563eb; stroke: #ffffff; stroke-width: 0.48"/>
     <use xlink:href="#m3dbfa409ba" x="122.120204" y="113.029012" style="fill: #2563eb; stroke: #ffffff; stroke-width: 0.48"/>
     <use xlink:href="#m3dbfa409ba" x="132.227735" y="169.070027" style="fill: #2563eb; stroke: #ffffff; stroke-width: 0.48"/>
     <use xlink:href="#m3dbfa409ba" x="147.405801" y="169.018841" style="fill: #2563eb; stroke: #ffffff; stroke-width: 0.48"/>
     <use xlink:href="#m3dbfa409ba" x="247.957413" y="67.354661" style="fill: #2563eb; stroke: #ffffff; stroke-width: 0.48"/>
     <use xlink:href="#m3dbfa409ba" x="222.778218" y="159.642794" style="fill: #2563eb; stroke: #ffffff; stroke-width: 0.48"/>
     <use xlink:href="#m3dbfa409ba" x="261.679651" y="136.21554" style="fill: #2563eb; stroke: #ffffff; stroke-width: 0.48"/>
     <use xlink:href="#m3dbfa409ba" x="182.342277" y="121.462775" style="fill: #2563eb; stroke: #ffffff; stroke-width: 0.48"/>
     <use xlink:href="#m3dbfa409ba" x="223.921991" y="136.550106" style="fill: #2563eb; stroke: #ffffff; stroke-width: 0.48"/>
     <use xlink:href="#m3dbfa409ba" x="257.073388" y="109.969548" style="fill: #2563eb; stroke: #ffffff; stroke-width: 0.48"/>
     <use xlink:href="#m3dbfa409ba" x="190.711288" y="143.466351" style="fill: #2563eb; stroke: #ffffff; stroke-width: 0.48"/>
     <use xlink:href="#m3dbfa409ba" x="245.090838" y="104.239002" style="fill: #2563eb; stroke: #ffffff; stroke-width: 0.48"/>
     <use xlink:href="#m3dbfa409ba" x="165.685098" y="104.367354" style="fill: #2563eb; stroke: #ffffff; stroke-width: 0.48"/>
     <use xlink:href="#m3dbfa409ba" x="186.899127" y="137.0431" style="fill: #2563eb; stroke: #ffffff; stroke-width: 0.48"/>
     <use xlink:href="#m3dbfa409ba" x="185.572928" y="120.057177" style="fill: #2563eb; stroke: #ffffff; stroke-width: 0.48"/>
     <use xlink:href="#m3dbfa409ba" x="127.787745" y="230.320909" style="fill: #2563eb; stroke: #ffffff; stroke-width: 0.48"/>
     <use xlink:href="#m3dbfa409ba" x="247.234248" y="115.574333" style="fill: #2563eb; stroke: #ffffff; stroke-width: 0.48"/>
     <use xlink:href="#m3dbfa409ba" x="179.35048" y="169.906973" style="fill: #2563eb; stroke: #ffffff; stroke-width: 0.48"/>
     <use xlink:href="#m3dbfa409ba" x="213.555633" y="167.145729" style="fill: #2563eb; stroke: #ffffff; stroke-width: 0.48"/>
     <use xlink:href="#m3dbfa409ba" x="246.792337" y="142.077446" style="fill: #2563eb; stroke: #ffffff; stroke-width: 0.48"/>
     <use xlink:href="#m3dbfa409ba" x="244.363712" y="125.860375" style="fill: #2563eb; stroke: #ffffff; stroke-width: 0.48"/>
     <use xlink:href="#m3dbfa409ba" x="259.898029" y="79.538397" style="fill: #2563eb; stroke: #ffffff; stroke-width: 0.48"/>
     <use xlink:href="#m3dbfa409ba" x="205.678268" y="173.938613" style="fill: #2563eb; stroke: #ffffff; stroke-width: 0.48"/>
     <use xlink:href="#m3dbfa409ba" x="182.622957" y="140.779886" style="fill: #2563eb; stroke: #ffffff; stroke-width: 0.48"/>
     <use xlink:href="#m3dbfa409ba" x="207.010375" y="146.647805" style="fill: #2563eb; stroke: #ffffff; stroke-width: 0.48"/>
     <use xlink:href="#m3dbfa409ba" x="92.901299" y="190.644032" style="fill: #2563eb; stroke: #ffffff; stroke-width: 0.48"/>
     <use xlink:href="#m3dbfa409ba" x="109.952325" y="141.120459" style="fill: #2563eb; stroke: #ffffff; stroke-width: 0.48"/>
     <use xlink:href="#m3dbfa409ba" x="118.783187" y="152.071999" style="fill: #2563eb; stroke: #ffffff; stroke-width: 0.48"/>
     <use xlink:href="#m3dbfa409ba" x="141.883922" y="116.803157" style="fill: #2563eb; stroke: #ffffff; stroke-width: 0.48"/>
     <use xlink:href="#m3dbfa409ba" x="241.04489" y="121.586078" style="fill: #2563eb; stroke: #ffffff; stroke-width: 0.48"/>
     <use xlink:href="#m3dbfa409ba" x="148.397625" y="178.515329" style="fill: #2563eb; stroke: #ffffff; stroke-width: 0.48"/>
     <use xlink:href="#m3dbfa409ba" x="185.826707" y="147.478863" style="fill: #2563eb; stroke: #ffffff; stroke-width: 0.48"/>
     <use xlink:href="#m3dbfa409ba" x="304.888406" y="81.597844" style="fill: #2563eb; stroke: #ffffff; stroke-width: 0.48"/>
     <use xlink:href="#m3dbfa409ba" x="187.381075" y="134.108356" style="fill: #2563eb; stroke: #ffffff; stroke-width: 0.48"/>
     <use xlink:href="#m3dbfa409ba" x="265.01787" y="140.800134" style="fill: #2563eb; stroke: #ffffff; stroke-width: 0.48"/>
     <use xlink:href="#m3dbfa409ba" x="146.400338" y="154.423018" style="fill: #2563eb; stroke: #ffffff; stroke-width: 0.48"/>
     <use xlink:href="#m3dbfa409ba" x="198.086778" y="127.876102" style="fill: #2563eb; stroke: #ffffff; stroke-width: 0.48"/>
     <use xlink:href="#m3dbfa409ba" x="145.23595" y="77.9274" style="fill: #2563eb; stroke: #ffffff; stroke-width: 0.48"/>
     <use xlink:href="#m3dbfa409ba" x="188.604129" y="79.643069" style="fill: #2563eb; stroke: #ffffff; stroke-width: 0.48"/>
     <use xlink:href="#m3dbfa409ba" x="272.314117" y="130.336533" style="fill: #2563eb; stroke: #ffffff; stroke-width: 0.48"/>
     <use xlink:href="#m3dbfa409ba" x="90.063082" y="190.583654" style="fill: #2563eb; stroke: #ffffff; stroke-width: 0.48"/>
     <use xlink:href="#m3dbfa409ba" x="243.504316" y="162.056353" style="fill: #2563eb; stroke: #ffffff; stroke-width: 0.48"/>
     <use xlink:href="#m3dbfa409ba" x="229.54334" y="140.359406" style="fill: #2563eb; stroke: #ffffff; stroke-width: 0.48"/>
     <use xlink:href="#m3dbfa409ba" x="170.495857" y="136.942602" style="fill: #2563eb; stroke: #ffffff; stroke-width: 0.48"/>
     <use xlink:href="#m3dbfa409ba" x="110.027182" y="134.645197" style="fill: #2563eb; stroke: #ffffff; stroke-width: 0.48"/>
     <use xlink:href="#m3dbfa409ba" x="217.788571" y="149.793006" style="fill: #2563eb; stroke: #ffffff; stroke-width: 0.48"/>
     <use xlink:href="#m3dbfa409ba" x="175.085248" y="165.738447" style="fill: #2563eb; stroke: #ffffff; stroke-width: 0.48"/>
     <use xlink:href="#m3dbfa409ba" x="229.184223" y="189.895512" style="fill: #2563eb; stroke: #ffffff; stroke-width: 0.48"/>
     <use xlink:href="#m3dbfa409ba" x="214.219869" y="133.354826" style="fill: #2563eb; stroke: #ffffff; stroke-width: 0.48"/>
     <use xlink:href="#m3dbfa409ba" x="326.363536" y="113.781315" style="fill: #2563eb; stroke: #ffffff; stroke-width: 0.48"/>
     <use xlink:href="#m3dbfa409ba" x="195.679263" y="152.945843" style="fill: #2563eb; stroke: #ffffff; stroke-width: 0.48"/>
    </g>
   </g>
   <g id="patch_3">
    <path d="M 59.65875 239.94 
L 59.65875 28.32 
" style="fill: none; stroke: #262626; stroke-width: 1.25; stroke-linejoin: miter; stroke-linecap: square"/>
   </g>
   <g id="patch_4">
    <path d="M 379.208569 239.94 
L 379.208569 28.32 
" style="fill: none; stroke: #262626; stroke-width: 1.25; stroke-linejoin: miter; stroke-linecap: square"/>
   </g>
   <g id="patch_5">
    <path d="M 59.65875 239.94 
L 379.208569 239.94 
" style="fill: none; stroke: #262626; stroke-width: 1.25; stroke-linejoin: miter; stroke-linecap: square"/>
   </g>
   <g id="patch_6">
    <path d="M 59.65875 28.32 
L 379.208569 28.32 
" style="fill: none; stroke: #262626; stroke-width: 1.25; stroke-linejoin: miter; stroke-linecap: square"/>
   </g>
   <g id="text_18">
    <!-- 身長と体重の関係 -->
    <g style="fill: #262626" transform="translate(171.433659 22.32) scale(0.12 -0.12)">
     <defs>
      <path id="IPAexGothic-3068" d="M 5222 56 
Q 4200 -72 3450 -72 
Q 2478 -72 1941 113 
Q 1184 372 1184 1038 
Q 1184 1584 1594 2009 
Q 1941 2369 2656 2725 
Q 2231 3734 1972 4878 
L 2491 4978 
Q 2706 3884 3078 2950 
Q 4250 3447 4756 3616 
L 4978 3150 
Q 3181 2575 2409 2078 
Q 1691 1613 1691 1113 
Q 1691 403 3322 403 
Q 4125 403 5134 563 
L 5222 56 
z
" transform="scale(0.015625)"/>
      <path id="IPAexGothic-306e" d="M 3119 469 
Q 5275 766 5275 2425 
Q 5275 3453 4413 3925 
Q 4041 4116 3547 4159 
Q 3394 2525 2850 1400 
Q 2322 306 1722 306 
Q 1384 306 1084 666 
Q 609 1244 609 2003 
Q 609 3025 1397 3794 
Q 2184 4563 3431 4563 
Q 4306 4563 4928 4122 
Q 5813 3506 5813 2425 
Q 5813 438 3431 6 
L 3119 469 
z
M 3053 4147 
Q 2378 4044 1891 3641 
Q 1097 2981 1097 1991 
Q 1097 1366 1434 978 
Q 1581 813 1719 813 
Q 2022 813 2416 1625 
Q 2909 2638 3053 4147 
z
" transform="scale(0.015625)"/>
      <path id="IPAexGothic-95a2" d="M 2919 5063 
L 2919 3288 
L 1016 3288 
L 1016 -450 
L 569 -450 
L 569 5063 
L 2919 5063 
z
M 1016 4709 
L 1016 4331 
L 2509 4331 
L 2509 4709 
L 1016 4709 
z
M 1016 4019 
L 1016 3628 
L 2509 3628 
L 2509 4019 
L 1016 4019 
z
M 5822 5063 
L 5822 44 
Q 5822 -409 5297 -409 
Q 4956 -409 4672 -366 
L 4594 97 
Q 4841 31 5156 31 
Q 5369 31 5369 244 
L 5369 3288 
L 3422 3288 
L 3422 5063 
L 5822 5063 
z
M 3831 4709 
L 3831 4331 
L 5369 4331 
L 5369 4709 
L 3831 4709 
z
M 3831 4019 
L 3831 3628 
L 5369 3628 
L 5369 4019 
L 3831 4019 
z
M 2425 2478 
Q 2328 2713 2150 2975 
L 2559 3122 
Q 2709 2866 2859 2478 
L 3525 2478 
Q 3716 2847 3806 3147 
L 4256 3022 
Q 4084 2669 3953 2478 
L 4766 2478 
L 4766 2113 
L 3391 2113 
L 3391 1672 
L 4928 1672 
L 4928 1300 
L 3366 1300 
Q 3363 1263 3334 1141 
Q 4016 863 4734 409 
L 4428 34 
Q 3888 441 3281 763 
Q 3278 766 3241 788 
Q 3225 797 3219 800 
Q 2881 100 1875 -256 
L 1588 122 
Q 2769 409 2931 1300 
L 1466 1300 
L 1466 1672 
L 2963 1672 
L 2963 2113 
L 1625 2113 
L 1625 2478 
L 2425 2478 
z
" transform="scale(0.015625)"/>
      <path id="IPAexGothic-4fc2" d="M 3672 2763 
Q 4203 3306 4741 4013 
L 5131 3750 
Q 4428 2884 3641 2194 
L 4288 2219 
Q 4478 2228 4819 2247 
Q 5084 2259 5197 2266 
Q 5016 2553 4741 2891 
L 5094 3097 
Q 5569 2553 5984 1822 
L 5600 1547 
Q 5478 1791 5394 1938 
Q 4747 1866 4050 1828 
L 4050 -450 
L 3603 -450 
L 3603 1803 
L 3066 1778 
Q 2728 1759 2028 1741 
L 1888 2175 
L 2003 2175 
L 2175 2175 
L 2450 2181 
L 3066 2181 
L 3103 2219 
Q 3266 2363 3372 2469 
Q 2813 3084 2247 3556 
L 2572 3884 
Q 2888 3600 2919 3569 
Q 3309 3963 3659 4472 
Q 2938 4384 2234 4338 
L 2059 4747 
Q 3884 4844 5266 5163 
L 5619 4784 
Q 4719 4597 3794 4484 
L 4106 4269 
Q 3725 3781 3297 3372 
L 3206 3281 
Q 3441 3034 3672 2763 
z
M 1578 3675 
L 1578 -447 
L 1125 -447 
L 1125 2741 
Q 834 2247 544 1856 
L 294 2253 
Q 1213 3503 1603 5241 
L 2044 5141 
Q 1841 4322 1578 3675 
z
M 1875 122 
Q 2391 684 2700 1441 
L 3116 1253 
Q 2794 447 2241 -206 
L 1875 122 
z
M 5447 -72 
Q 5009 716 4478 1313 
L 4844 1544 
Q 5453 934 5856 244 
L 5447 -72 
z
" transform="scale(0.015625)"/>
     </defs>
     <use xlink:href="#IPAexGothic-8eab"/>
     <use xlink:href="#IPAexGothic-9577" transform="translate(100 0)"/>
     <use xlink:href="#IPAexGothic-3068" transform="translate(200 0)"/>
     <use xlink:href="#IPAexGothic-4f53" transform="translate(300 0)"/>
     <use xlink:href="#IPAexGothic-91cd" transform="translate(400 0)"/>
     <use xlink:href="#IPAexGothic-306e" transform="translate(500 0)"/>
     <use xlink:href="#IPAexGothic-95a2" transform="translate(600 0)"/>
     <use xlink:href="#IPAexGothic-4fc2" transform="translate(700 0)"/>
    </g>
   </g>
  </g>
 </g>
 <defs>
  <clipPath id="p633c1cfccb">
   <rect x="59.65875" y="28.32" width="319.549819" height="211.62"/>
  </clipPath>
 </defs>
</svg>
