<?xml version="1.0" encoding="utf-8" standalone="no"?>
<!DOCTYPE svg PUBLIC "-//W3C//DTD SVG 1.1//EN"
  "http://www.w3.org/Graphics/SVG/1.1/DTD/svg11.dtd">
<svg xmlns:xlink="http://www.w3.org/1999/xlink" width="420.12pt" height="288pt" viewBox="0 0 420.12 288" xmlns="http://www.w3.org/2000/svg" version="1.1">
 <metadata>
  <rdf:RDF xmlns:dc="http://purl.org/dc/elements/1.1/" xmlns:cc="http://creativecommons.org/ns#" xmlns:rdf="http://www.w3.org/1999/02/22-rdf-syntax-ns#">
   <cc:Work>
    <dc:type rdf:resource="http://purl.org/dc/dcmitype/StillImage"/>
    <dc:date>2025-10-29T09:07:49.501906</dc:date>
    <dc:format>image/svg+xml</dc:format>
    <dc:creator>
     <cc:Agent>
      <dc:title>Matplotlib v3.10.7, https://matplotlib.org/</dc:title>
     </cc:Agent>
    </dc:creator>
   </cc:Work>
  </rdf:RDF>
 </metadata>
 <defs>
  <style type="text/css">*{stroke-linejoin: round; stroke-linecap: butt}</style>
 </defs>
 <g id="figure_1">
  <g id="patch_1">
   <path d="M 0 288 
L 420.12 288 
L 420.12 0 
L 0 0 
z
" style="fill: #ffffff"/>
  </g>
  <g id="axes_1">
   <g id="patch_2">
    <path d="M 62.908594 239.94 
L 341.3988 239.94 
L 341.3988 12.96 
L 62.908594 12.96 
z
" style="fill: #ffffff"/>
   </g>
   <g id="matplotlib.axis_1">
    <g id="xtick_1">
     <g id="text_1">
      <!-- 10 -->
      <g style="fill: #262626" transform="translate(105.389865 257.679688) scale(0.11 -0.11)">
       <defs>
        <path id="IPAexGothic-31" d="M 2463 63 
L 1900 63 
L 1900 4103 
Q 1372 3922 788 3797 
L 684 4231 
Q 1519 4441 2106 4731 
L 2463 4731 
L 2463 63 
z
" transform="scale(0.015625)"/>
        <path id="IPAexGothic-30" d="M 2038 4725 
Q 2881 4725 3334 3944 
Q 3694 3325 3694 2344 
Q 3694 1372 3334 741 
Q 2888 -31 2016 -31 
Q 1147 -31 700 741 
Q 341 1372 341 2350 
Q 341 3713 1000 4334 
Q 1419 4725 2038 4725 
z
M 2016 4266 
Q 1516 4266 1228 3759 
Q 934 3247 934 2344 
Q 934 1456 1222 947 
Q 1513 447 2016 447 
Q 2619 447 2909 1153 
Q 3100 1622 3100 2375 
Q 3100 3256 2806 3759 
Q 2509 4266 2016 4266 
z
" transform="scale(0.015625)"/>
       </defs>
       <use xlink:href="#IPAexGothic-31"/>
       <use xlink:href="#IPAexGothic-30" transform="translate(62.988281 0)"/>
      </g>
     </g>
    </g>
    <g id="xtick_2">
     <g id="text_2">
      <!-- 20 -->
      <g style="fill: #262626" transform="translate(158.421477 257.679688) scale(0.11 -0.11)">
       <defs>
        <path id="IPAexGothic-32" d="M 3659 63 
L 447 63 
L 447 594 
Q 825 1475 1894 2203 
L 2072 2322 
Q 2619 2697 2791 2906 
Q 2988 3153 2988 3444 
Q 2988 3772 2756 4003 
Q 2500 4259 2084 4259 
Q 1250 4259 991 3328 
L 497 3506 
Q 853 4725 2116 4725 
Q 2806 4725 3216 4316 
Q 3575 3947 3575 3425 
Q 3575 3038 3344 2722 
Q 3131 2416 2366 1938 
L 2231 1856 
Q 1256 1253 978 569 
L 3659 569 
L 3659 63 
z
" transform="scale(0.015625)"/>
       </defs>
       <use xlink:href="#IPAexGothic-32"/>
       <use xlink:href="#IPAexGothic-30" transform="translate(62.988281 0)"/>
      </g>
     </g>
    </g>
    <g id="xtick_3">
     <g id="text_3">
      <!-- 30 -->
      <g style="fill: #262626" transform="translate(211.453089 257.679688) scale(0.11 -0.11)">
       <defs>
        <path id="IPAexGothic-33" d="M 2381 2419 
Q 3506 2216 3506 1278 
Q 3506 716 3128 356 
Q 2709 -31 1944 -31 
Q 797 -31 288 881 
L 756 1131 
Q 1109 441 1938 441 
Q 2425 441 2694 691 
Q 2950 928 2950 1291 
Q 2950 1719 2566 1978 
Q 2216 2213 1644 2213 
L 1363 2213 
L 1363 2669 
L 1656 2669 
Q 2231 2669 2534 2888 
Q 2859 3119 2859 3509 
Q 2859 3934 2494 4138 
Q 2259 4278 1931 4278 
Q 1238 4278 903 3578 
L 434 3803 
Q 897 4725 1938 4725 
Q 2597 4725 3006 4394 
Q 3416 4069 3416 3534 
Q 3416 3028 3019 2706 
Q 2763 2500 2381 2444 
L 2381 2419 
z
" transform="scale(0.015625)"/>
       </defs>
       <use xlink:href="#IPAexGothic-33"/>
       <use xlink:href="#IPAexGothic-30" transform="translate(62.988281 0)"/>
      </g>
     </g>
    </g>
    <g id="xtick_4">
     <g id="text_4">
      <!-- 40 -->
      <g style="fill: #262626" transform="translate(264.484701 257.679688) scale(0.11 -0.11)">
       <defs>
        <path id="IPAexGothic-34" d="M 3813 1159 
L 3059 1159 
L 3059 63 
L 2547 63 
L 2547 1159 
L 197 1159 
L 197 1672 
L 2456 4678 
L 3059 4678 
L 3059 1634 
L 3813 1634 
L 3813 1159 
z
M 2578 4109 
L 2559 4109 
Q 2278 3656 2003 3284 
L 759 1634 
L 2547 1634 
L 2547 3144 
Q 2547 3481 2578 4109 
z
" transform="scale(0.015625)"/>
       </defs>
       <use xlink:href="#IPAexGothic-34"/>
       <use xlink:href="#IPAexGothic-30" transform="translate(62.988281 0)"/>
      </g>
     </g>
    </g>
    <g id="xtick_5">
     <g id="text_5">
      <!-- 50 -->
      <g style="fill: #262626" transform="translate(317.516312 257.679688) scale(0.11 -0.11)">
       <defs>
        <path id="IPAexGothic-35" d="M 1178 2603 
Q 1634 2963 2172 2963 
Q 2816 2963 3241 2528 
Q 3638 2113 3638 1497 
Q 3638 938 3297 513 
Q 2869 -31 2031 -31 
Q 959 -31 469 784 
L 938 1028 
Q 1309 434 2013 434 
Q 2466 434 2769 716 
Q 3081 1013 3081 1503 
Q 3081 1966 2806 2241 
Q 2519 2528 2056 2528 
Q 1406 2528 1072 2028 
L 591 2091 
L 884 4634 
L 3406 4634 
L 3406 4153 
L 1341 4153 
L 1134 2603 
L 1178 2603 
z
" transform="scale(0.015625)"/>
       </defs>
       <use xlink:href="#IPAexGothic-35"/>
       <use xlink:href="#IPAexGothic-30" transform="translate(62.988281 0)"/>
      </g>
     </g>
    </g>
    <g id="text_6">
     <!-- total_bill -->
     <g style="fill: #262626" transform="translate(177.850884 272.758438) scale(0.12 -0.12)">
      <defs>
       <path id="IPAexGothic-74" d="M 2125 241 
Q 1769 -6 1397 -6 
Q 653 -6 653 831 
L 653 2859 
L 219 2859 
L 219 3250 
L 653 3250 
L 653 3966 
L 1178 4228 
L 1178 3250 
L 2063 3250 
L 2063 2859 
L 1178 2859 
L 1178 906 
Q 1178 416 1513 416 
Q 1738 416 1941 588 
L 2125 241 
z
" transform="scale(0.015625)"/>
       <path id="IPAexGothic-6f" d="M 1919 3341 
Q 2594 3341 3056 2888 
Q 3531 2413 3531 1638 
Q 3531 888 3066 422 
Q 2609 -31 1919 -31 
Q 1228 -31 781 416 
Q 313 881 313 1656 
Q 313 2413 788 2888 
Q 1241 3341 1919 3341 
z
M 1919 2919 
Q 1519 2919 1241 2631 
Q 888 2278 888 1650 
Q 888 1031 1234 684 
Q 1516 403 1919 403 
Q 2331 403 2609 691 
Q 2956 1038 2956 1672 
Q 2956 2269 2603 2631 
Q 2316 2919 1919 2919 
z
" transform="scale(0.015625)"/>
       <path id="IPAexGothic-61" d="M 3156 63 
L 2672 63 
Q 2559 303 2531 556 
L 2509 556 
Q 2147 -25 1428 -25 
Q 934 -25 622 288 
Q 347 563 347 959 
Q 347 1947 2050 1997 
L 2478 2009 
L 2478 2175 
Q 2478 2509 2288 2700 
Q 2088 2900 1775 2900 
Q 1238 2900 969 2378 
L 494 2597 
Q 938 3328 1788 3328 
Q 2375 3328 2691 3000 
Q 2984 2706 2984 2169 
L 2984 997 
Q 2984 400 3156 63 
z
M 2491 1625 
L 2141 1619 
Q 903 1591 903 953 
Q 903 728 1050 581 
Q 1231 403 1525 403 
Q 1934 403 2234 703 
Q 2491 969 2491 1344 
L 2491 1625 
z
" transform="scale(0.015625)"/>
       <path id="IPAexGothic-6c" d="M 1131 63 
L 581 63 
L 581 4794 
L 1131 4794 
L 1131 63 
z
" transform="scale(0.015625)"/>
       <path id="IPAexGothic-5f" d="M 3200 -750 
L 0 -750 
L 0 -431 
L 3200 -431 
L 3200 -750 
z
" transform="scale(0.015625)"/>
       <path id="IPAexGothic-62" d="M 1125 2731 
Q 1550 3341 2219 3341 
Q 2788 3341 3191 2938 
Q 3659 2469 3659 1644 
Q 3659 838 3191 372 
Q 2788 -31 2206 -31 
Q 1559 -31 1088 516 
L 1009 44 
L 581 44 
L 581 4794 
L 1125 4794 
L 1125 2731 
z
M 1125 1997 
L 1125 1253 
Q 1125 888 1528 600 
Q 1803 403 2119 403 
Q 2488 403 2744 659 
Q 3084 1009 3084 1631 
Q 3084 2194 2803 2553 
Q 2525 2900 2125 2900 
Q 1759 2900 1438 2578 
Q 1125 2266 1125 1997 
z
" transform="scale(0.015625)"/>
       <path id="IPAexGothic-69" d="M 1178 3928 
L 550 3928 
L 550 4569 
L 1178 4569 
L 1178 3928 
z
M 1138 63 
L 588 63 
L 588 3250 
L 1138 3250 
L 1138 63 
z
" transform="scale(0.015625)"/>
      </defs>
      <use xlink:href="#IPAexGothic-74"/>
      <use xlink:href="#IPAexGothic-6f" transform="translate(34.619141 0)"/>
      <use xlink:href="#IPAexGothic-74" transform="translate(95.019531 0)"/>
      <use xlink:href="#IPAexGothic-61" transform="translate(129.638672 0)"/>
      <use xlink:href="#IPAexGothic-6c" transform="translate(184.619141 0)"/>
      <use xlink:href="#IPAexGothic-5f" transform="translate(211.621094 0)"/>
      <use xlink:href="#IPAexGothic-62" transform="translate(261.621094 0)"/>
      <use xlink:href="#IPAexGothic-69" transform="translate(324.023438 0)"/>
      <use xlink:href="#IPAexGothic-6c" transform="translate(351.025391 0)"/>
      <use xlink:href="#IPAexGothic-6c" transform="translate(378.027344 0)"/>
     </g>
    </g>
   </g>
   <g id="matplotlib.axis_2">
    <g id="ytick_1">
     <g id="text_7">
      <!-- 2 -->
      <g style="fill: #262626" transform="translate(46.480312 208.674949) scale(0.11 -0.11)">
       <use xlink:href="#IPAexGothic-32"/>
      </g>
     </g>
    </g>
    <g id="ytick_2">
     <g id="text_8">
      <!-- 4 -->
      <g style="fill: #262626" transform="translate(46.480312 163.355491) scale(0.11 -0.11)">
       <use xlink:href="#IPAexGothic-34"/>
      </g>
     </g>
    </g>
    <g id="ytick_3">
     <g id="text_9">
      <!-- 6 -->
      <g style="fill: #262626" transform="translate(46.480312 118.036033) scale(0.11 -0.11)">
       <defs>
        <path id="IPAexGothic-36" d="M 1056 2328 
Q 1509 2981 2234 2981 
Q 2906 2981 3316 2513 
Q 3675 2106 3675 1522 
Q 3675 884 3272 434 
Q 2853 -31 2178 -31 
Q 1375 -31 922 581 
Q 481 1178 481 2228 
Q 481 3425 1013 4109 
Q 1494 4725 2272 4725 
Q 3191 4725 3609 4025 
L 3150 3775 
Q 2894 4266 2300 4266 
Q 1119 4266 1031 2328 
L 1056 2328 
z
M 2141 2547 
Q 1684 2547 1384 2206 
Q 1116 1900 1116 1541 
Q 1116 1156 1353 844 
Q 1672 428 2159 428 
Q 2669 428 2941 844 
Q 3125 1128 3125 1503 
Q 3125 1944 2881 2228 
Q 2600 2547 2141 2547 
z
" transform="scale(0.015625)"/>
       </defs>
       <use xlink:href="#IPAexGothic-36"/>
      </g>
     </g>
    </g>
    <g id="ytick_4">
     <g id="text_10">
      <!-- 8 -->
      <g style="fill: #262626" transform="translate(46.480312 72.716574) scale(0.11 -0.11)">
       <defs>
        <path id="IPAexGothic-38" d="M 2541 2425 
Q 3700 2031 3700 1197 
Q 3700 541 3100 197 
Q 2663 -56 2016 -56 
Q 1366 -56 928 197 
Q 347 531 347 1178 
Q 347 1988 1409 2381 
L 1409 2400 
Q 481 2734 481 3509 
Q 481 4100 981 4456 
Q 1406 4756 2019 4756 
Q 2703 4756 3131 4403 
Q 3553 4069 3553 3566 
Q 3553 2706 2541 2444 
L 2541 2425 
z
M 2022 2625 
Q 2997 2856 2997 3528 
Q 2997 3916 2675 4150 
Q 2413 4347 2016 4347 
Q 1606 4347 1331 4128 
Q 1050 3897 1050 3522 
Q 1050 3150 1350 2925 
Q 1494 2809 1722 2722 
Q 1984 2616 2022 2625 
z
M 1978 2209 
Q 922 1931 922 1216 
Q 922 775 1313 556 
Q 1606 391 2009 391 
Q 2575 391 2881 697 
Q 3106 922 3106 1250 
Q 3106 1594 2794 1850 
Q 2609 1994 2350 2100 
Q 2047 2222 1978 2209 
z
" transform="scale(0.015625)"/>
       </defs>
       <use xlink:href="#IPAexGothic-38"/>
      </g>
     </g>
    </g>
    <g id="ytick_5">
     <g id="text_11">
      <!-- 10 -->
      <g style="fill: #262626" transform="translate(39.552031 27.397116) scale(0.11 -0.11)">
       <use xlink:href="#IPAexGothic-31"/>
       <use xlink:href="#IPAexGothic-30" transform="translate(62.988281 0)"/>
      </g>
     </g>
    </g>
    <g id="text_12">
     <!-- tip -->
     <g style="fill: #262626" transform="translate(33.272031 133.874063) rotate(-90) scale(0.12 -0.12)">
      <defs>
       <path id="IPAexGothic-70" d="M 1075 2688 
Q 1525 3341 2206 3341 
Q 2769 3341 3172 2938 
Q 3641 2469 3641 1644 
Q 3641 841 3178 372 
Q 2775 -31 2200 -31 
Q 1569 -31 1106 497 
L 1106 -1216 
L 563 -1216 
L 563 3250 
L 1075 3250 
L 1075 2688 
z
M 1106 1950 
L 1106 1291 
Q 1106 897 1516 600 
Q 1791 403 2106 403 
Q 2469 403 2725 659 
Q 3066 997 3066 1631 
Q 3066 2200 2784 2559 
Q 2503 2900 2100 2900 
Q 1656 2900 1338 2484 
Q 1106 2184 1106 1950 
z
" transform="scale(0.015625)"/>
      </defs>
      <use xlink:href="#IPAexGothic-74"/>
      <use xlink:href="#IPAexGothic-69" transform="translate(34.619141 0)"/>
      <use xlink:href="#IPAexGothic-70" transform="translate(61.621094 0)"/>
     </g>
    </g>
   </g>
   <g id="PathCollection_1">
    <defs>
     <path id="ma251ab4879" d="M 0 3.162278 
C 0.838646 3.162278 1.643056 2.82908 2.236068 2.236068 
C 2.82908 1.643056 3.162278 0.838646 3.162278 0 
C 3.162278 -0.838646 2.82908 -1.643056 2.236068 -2.236068 
C 1.643056 -2.82908 0.838646 -3.162278 0 -3.162278 
C -0.838646 -3.162278 -1.643056 -2.82908 -2.236068 -2.236068 
C -2.82908 -1.643056 -3.162278 -0.838646 -3.162278 0 
C -3.162278 0.838646 -2.82908 1.643056 -2.236068 2.236068 
C -1.643056 2.82908 -0.838646 3.162278 0 3.162278 
z
" style="stroke: #4c72b0; stroke-opacity: 0.6"/>
    </defs>
    <g clip-path="url(#p9f0e1ce5eb)">
     <use xlink:href="#ma251ab4879" x="203.532519" y="159.235647" style="fill: #4c72b0; fill-opacity: 0.6; stroke: #4c72b0; stroke-opacity: 0.6"/>
     <use xlink:href="#ma251ab4879" x="179.986483" y="181.895376" style="fill: #4c72b0; fill-opacity: 0.6; stroke: #4c72b0; stroke-opacity: 0.6"/>
     <use xlink:href="#ma251ab4879" x="150.978191" y="188.466697" style="fill: #4c72b0; fill-opacity: 0.6; stroke: #4c72b0; stroke-opacity: 0.6"/>
     <use xlink:href="#ma251ab4879" x="162.379988" y="181.895376" style="fill: #4c72b0; fill-opacity: 0.6; stroke: #4c72b0; stroke-opacity: 0.6"/>
     <use xlink:href="#ma251ab4879" x="147.6372" y="172.831484" style="fill: #4c72b0; fill-opacity: 0.6; stroke: #4c72b0; stroke-opacity: 0.6"/>
     <use xlink:href="#ma251ab4879" x="112.689368" y="208.407259" style="fill: #4c72b0; fill-opacity: 0.6; stroke: #4c72b0; stroke-opacity: 0.6"/>
     <use xlink:href="#ma251ab4879" x="232.593842" y="136.575918" style="fill: #4c72b0; fill-opacity: 0.6; stroke: #4c72b0; stroke-opacity: 0.6"/>
     <use xlink:href="#ma251ab4879" x="144.03105" y="203.875313" style="fill: #4c72b0; fill-opacity: 0.6; stroke: #4c72b0; stroke-opacity: 0.6"/>
     <use xlink:href="#ma251ab4879" x="243.995639" y="132.723764" style="fill: #4c72b0; fill-opacity: 0.6; stroke: #4c72b0; stroke-opacity: 0.6"/>
     <use xlink:href="#ma251ab4879" x="128.386725" y="204.555105" style="fill: #4c72b0; fill-opacity: 0.6; stroke: #4c72b0; stroke-opacity: 0.6"/>
     <use xlink:href="#ma251ab4879" x="156.228321" y="159.235647" style="fill: #4c72b0; fill-opacity: 0.6; stroke: #4c72b0; stroke-opacity: 0.6"/>
     <use xlink:href="#ma251ab4879" x="190.327647" y="117.315148" style="fill: #4c72b0; fill-opacity: 0.6; stroke: #4c72b0; stroke-opacity: 0.6"/>
     <use xlink:href="#ma251ab4879" x="171.501425" y="181.895376" style="fill: #4c72b0; fill-opacity: 0.6; stroke: #4c72b0; stroke-opacity: 0.6"/>
     <use xlink:href="#ma251ab4879" x="115.765201" y="215.884969" style="fill: #4c72b0; fill-opacity: 0.6; stroke: #4c72b0; stroke-opacity: 0.6"/>
     <use xlink:href="#ma251ab4879" x="125.204828" y="209.087051" style="fill: #4c72b0; fill-opacity: 0.6; stroke: #4c72b0; stroke-opacity: 0.6"/>
     <use xlink:href="#ma251ab4879" x="186.986656" y="183.708154" style="fill: #4c72b0; fill-opacity: 0.6; stroke: #4c72b0; stroke-opacity: 0.6"/>
     <use xlink:href="#ma251ab4879" x="121.280489" y="197.530589" style="fill: #4c72b0; fill-opacity: 0.6; stroke: #4c72b0; stroke-opacity: 0.6"/>
     <use xlink:href="#ma251ab4879" x="130.454958" y="211.806218" style="fill: #4c72b0; fill-opacity: 0.6; stroke: #4c72b0; stroke-opacity: 0.6"/>
     <use xlink:href="#ma251ab4879" x="134.909613" y="193.22524" style="fill: #4c72b0; fill-opacity: 0.6; stroke: #4c72b0; stroke-opacity: 0.6"/>
     <use xlink:href="#ma251ab4879" x="143.871955" y="204.555105" style="fill: #4c72b0; fill-opacity: 0.6; stroke: #4c72b0; stroke-opacity: 0.6"/>
     <use xlink:href="#ma251ab4879" x="125.469986" y="192.772046" style="fill: #4c72b0; fill-opacity: 0.6; stroke: #4c72b0; stroke-opacity: 0.6"/>
     <use xlink:href="#ma251ab4879" x="217.320738" y="154.703701" style="fill: #4c72b0; fill-opacity: 0.6; stroke: #4c72b0; stroke-opacity: 0.6"/>
     <use xlink:href="#ma251ab4879" x="104.469468" y="216.338164" style="fill: #4c72b0; fill-opacity: 0.6; stroke: #4c72b0; stroke-opacity: 0.6"/>
     <use xlink:href="#ma251ab4879" x="136.288435" y="204.555105" style="fill: #4c72b0; fill-opacity: 0.6; stroke: #4c72b0; stroke-opacity: 0.6"/>
     <use xlink:href="#ma251ab4879" x="119.636509" y="204.555105" style="fill: #4c72b0; fill-opacity: 0.6; stroke: #4c72b0; stroke-opacity: 0.6"/>
     <use xlink:href="#ma251ab4879" x="180.304673" y="200.476354" style="fill: #4c72b0; fill-opacity: 0.6; stroke: #4c72b0; stroke-opacity: 0.6"/>
     <use xlink:href="#ma251ab4879" x="160.47085" y="215.884969" style="fill: #4c72b0; fill-opacity: 0.6; stroke: #4c72b0; stroke-opacity: 0.6"/>
     <use xlink:href="#ma251ab4879" x="166.781612" y="185.74753" style="fill: #4c72b0; fill-opacity: 0.6; stroke: #4c72b0; stroke-opacity: 0.6"/>
     <use xlink:href="#ma251ab4879" x="118.522845" y="215.884969" style="fill: #4c72b0; fill-opacity: 0.6; stroke: #4c72b0; stroke-opacity: 0.6"/>
     <use xlink:href="#ma251ab4879" x="124.303291" y="204.555105" style="fill: #4c72b0; fill-opacity: 0.6; stroke: #4c72b0; stroke-opacity: 0.6"/>
     <use xlink:href="#ma251ab4879" x="156.122258" y="176.230444" style="fill: #4c72b0; fill-opacity: 0.6; stroke: #4c72b0; stroke-opacity: 0.6"/>
     <use xlink:href="#ma251ab4879" x="104.416436" y="221.549902" style="fill: #4c72b0; fill-opacity: 0.6; stroke: #4c72b0; stroke-opacity: 0.6"/>
     <use xlink:href="#ma251ab4879" x="114.06819" y="204.555105" style="fill: #4c72b0; fill-opacity: 0.6; stroke: #4c72b0; stroke-opacity: 0.6"/>
     <use xlink:href="#ma251ab4879" x="134.326265" y="204.555105" style="fill: #4c72b0; fill-opacity: 0.6; stroke: #4c72b0; stroke-opacity: 0.6"/>
     <use xlink:href="#ma251ab4879" x="144.137114" y="204.555105" style="fill: #4c72b0; fill-opacity: 0.6; stroke: #4c72b0; stroke-opacity: 0.6"/>
     <use xlink:href="#ma251ab4879" x="129.076136" y="187.560308" style="fill: #4c72b0; fill-opacity: 0.6; stroke: #4c72b0; stroke-opacity: 0.6"/>
     <use xlink:href="#ma251ab4879" x="151.93276" y="170.565511" style="fill: #4c72b0; fill-opacity: 0.6; stroke: #4c72b0; stroke-opacity: 0.6"/>
     <use xlink:href="#ma251ab4879" x="241.184963" y="98.054378" style="fill: #4c72b0; fill-opacity: 0.6; stroke: #4c72b0; stroke-opacity: 0.6"/>
     <use xlink:href="#ma251ab4879" x="277.723744" y="136.575918" style="fill: #4c72b0; fill-opacity: 0.6; stroke: #4c72b0; stroke-opacity: 0.6"/>
     <use xlink:href="#ma251ab4879" x="202.737045" y="136.575918" style="fill: #4c72b0; fill-opacity: 0.6; stroke: #4c72b0; stroke-opacity: 0.6"/>
     <use xlink:href="#ma251ab4879" x="146.417473" y="197.757186" style="fill: #4c72b0; fill-opacity: 0.6; stroke: #4c72b0; stroke-opacity: 0.6"/>
     <use xlink:href="#ma251ab4879" x="103.567931" y="215.884969" style="fill: #4c72b0; fill-opacity: 0.6; stroke: #4c72b0; stroke-opacity: 0.6"/>
     <use xlink:href="#ma251ab4879" x="158.137459" y="219.057331" style="fill: #4c72b0; fill-opacity: 0.6; stroke: #4c72b0; stroke-opacity: 0.6"/>
     <use xlink:href="#ma251ab4879" x="122.235058" y="212.939205" style="fill: #4c72b0; fill-opacity: 0.6; stroke: #4c72b0; stroke-opacity: 0.6"/>
     <use xlink:href="#ma251ab4879" x="111.151451" y="210.673232" style="fill: #4c72b0; fill-opacity: 0.6; stroke: #4c72b0; stroke-opacity: 0.6"/>
     <use xlink:href="#ma251ab4879" x="99.113275" y="204.555105" style="fill: #4c72b0; fill-opacity: 0.6; stroke: #4c72b0; stroke-opacity: 0.6"/>
     <use xlink:href="#ma251ab4879" x="164.342158" y="154.930298" style="fill: #4c72b0; fill-opacity: 0.6; stroke: #4c72b0; stroke-opacity: 0.6"/>
     <use xlink:href="#ma251ab4879" x="210.108439" y="191.865657" style="fill: #4c72b0; fill-opacity: 0.6; stroke: #4c72b0; stroke-opacity: 0.6"/>
     <use xlink:href="#ma251ab4879" x="141.37947" y="204.10191" style="fill: #4c72b0; fill-opacity: 0.6; stroke: #4c72b0; stroke-opacity: 0.6"/>
     <use xlink:href="#ma251ab4879" x="147.212947" y="159.235647" style="fill: #4c72b0; fill-opacity: 0.6; stroke: #4c72b0; stroke-opacity: 0.6"/>
     <use xlink:href="#ma251ab4879" x="99.378433" y="217.244553" style="fill: #4c72b0; fill-opacity: 0.6; stroke: #4c72b0; stroke-opacity: 0.6"/>
     <use xlink:href="#ma251ab4879" x="114.121221" y="204.555105" style="fill: #4c72b0; fill-opacity: 0.6; stroke: #4c72b0; stroke-opacity: 0.6"/>
     <use xlink:href="#ma251ab4879" x="287.905813" y="136.575918" style="fill: #4c72b0; fill-opacity: 0.6; stroke: #4c72b0; stroke-opacity: 0.6"/>
     <use xlink:href="#ma251ab4879" x="128.22763" y="204.555105" style="fill: #4c72b0; fill-opacity: 0.6; stroke: #4c72b0; stroke-opacity: 0.6"/>
     <use xlink:href="#ma251ab4879" x="130.932242" y="204.555105" style="fill: #4c72b0; fill-opacity: 0.6; stroke: #4c72b0; stroke-opacity: 0.6"/>
     <use xlink:href="#ma251ab4879" x="158.50868" y="159.235647" style="fill: #4c72b0; fill-opacity: 0.6; stroke: #4c72b0; stroke-opacity: 0.6"/>
     <use xlink:href="#ma251ab4879" x="126.848808" y="204.328507" style="fill: #4c72b0; fill-opacity: 0.6; stroke: #4c72b0; stroke-opacity: 0.6"/>
     <use xlink:href="#ma251ab4879" x="128.22763" y="204.555105" style="fill: #4c72b0; fill-opacity: 0.6; stroke: #4c72b0; stroke-opacity: 0.6"/>
     <use xlink:href="#ma251ab4879" x="146.258378" y="193.22524" style="fill: #4c72b0; fill-opacity: 0.6; stroke: #4c72b0; stroke-opacity: 0.6"/>
     <use xlink:href="#ma251ab4879" x="168.160434" y="159.235647" style="fill: #4c72b0; fill-opacity: 0.6; stroke: #4c72b0; stroke-opacity: 0.6"/>
     <use xlink:href="#ma251ab4879" x="146.629599" y="176.683638" style="fill: #4c72b0; fill-opacity: 0.6; stroke: #4c72b0; stroke-opacity: 0.6"/>
     <use xlink:href="#ma251ab4879" x="123.772975" y="200.023159" style="fill: #4c72b0; fill-opacity: 0.6; stroke: #4c72b0; stroke-opacity: 0.6"/>
     <use xlink:href="#ma251ab4879" x="130.454958" y="171.018706" style="fill: #4c72b0; fill-opacity: 0.6; stroke: #4c72b0; stroke-opacity: 0.6"/>
     <use xlink:href="#ma251ab4879" x="104.787658" y="206.367883" style="fill: #4c72b0; fill-opacity: 0.6; stroke: #4c72b0; stroke-opacity: 0.6"/>
     <use xlink:href="#ma251ab4879" x="144.03105" y="181.895376" style="fill: #4c72b0; fill-opacity: 0.6; stroke: #4c72b0; stroke-opacity: 0.6"/>
     <use xlink:href="#ma251ab4879" x="130.454958" y="214.072191" style="fill: #4c72b0; fill-opacity: 0.6; stroke: #4c72b0; stroke-opacity: 0.6"/>
     <use xlink:href="#ma251ab4879" x="145.568967" y="193.22524" style="fill: #4c72b0; fill-opacity: 0.6; stroke: #4c72b0; stroke-opacity: 0.6"/>
     <use xlink:href="#ma251ab4879" x="112.795431" y="204.555105" style="fill: #4c72b0; fill-opacity: 0.6; stroke: #4c72b0; stroke-opacity: 0.6"/>
    </g>
   </g>
   <g id="FillBetweenPolyCollection_1">
    <defs>
     <path id="ma77644d5b1" d="M 99.113275 -76.81987 
L 99.113275 -66.465776 
L 101.02027 -67.813972 
L 102.927266 -69.090866 
L 104.834261 -70.329669 
L 106.741256 -71.530244 
L 108.648252 -72.701805 
L 110.555247 -73.931394 
L 112.462242 -75.187846 
L 114.369238 -76.459533 
L 116.276233 -77.619484 
L 118.183228 -78.847947 
L 120.090224 -80.102857 
L 121.997219 -81.301129 
L 123.904214 -82.468772 
L 125.81121 -83.577825 
L 127.718205 -84.694343 
L 129.6252 -85.768908 
L 131.532196 -86.774086 
L 133.439191 -87.778089 
L 135.346186 -88.745794 
L 137.253182 -89.748848 
L 139.160177 -90.750407 
L 141.067172 -91.719244 
L 142.974168 -92.688983 
L 144.881163 -93.616881 
L 146.788158 -94.556034 
L 148.695154 -95.489729 
L 150.602149 -96.41818 
L 152.509144 -97.315795 
L 154.41614 -98.158352 
L 156.323135 -99.115603 
L 158.23013 -100.016885 
L 160.137126 -100.916909 
L 162.044121 -101.778982 
L 163.951116 -102.662459 
L 165.858112 -103.493739 
L 167.765107 -104.34898 
L 169.672102 -105.143295 
L 171.579098 -105.980639 
L 173.486093 -106.781014 
L 175.393088 -107.687267 
L 177.300084 -108.528088 
L 179.207079 -109.382184 
L 181.114074 -110.273471 
L 183.02107 -111.088331 
L 184.928065 -111.903191 
L 186.83506 -112.704963 
L 188.742056 -113.532911 
L 190.649051 -114.347771 
L 192.556046 -115.164521 
L 194.463042 -116.058054 
L 196.370037 -116.957511 
L 198.277032 -117.854465 
L 200.184028 -118.653988 
L 202.091023 -119.473567 
L 203.998018 -120.285659 
L 205.905014 -121.069348 
L 207.812009 -121.841572 
L 209.719004 -122.637358 
L 211.626 -123.433144 
L 213.532995 -124.228929 
L 215.43999 -125.025423 
L 217.346986 -125.822361 
L 219.253981 -126.619298 
L 221.160976 -127.416236 
L 223.067972 -128.213174 
L 224.974967 -129.01525 
L 226.881962 -129.830108 
L 228.788958 -130.648259 
L 230.695953 -131.467363 
L 232.602948 -132.294347 
L 234.509944 -133.134906 
L 236.416939 -133.975465 
L 238.323934 -134.816024 
L 240.23093 -135.656583 
L 242.137925 -136.472408 
L 244.04492 -137.282974 
L 245.951916 -138.114529 
L 247.858911 -138.970116 
L 249.765906 -139.825873 
L 251.672902 -140.682005 
L 253.579897 -141.538137 
L 255.486892 -142.349124 
L 257.393888 -143.157613 
L 259.300883 -143.966101 
L 261.207878 -144.77459 
L 263.114874 -145.583078 
L 265.021869 -146.391567 
L 266.928864 -147.200055 
L 268.83586 -148.029876 
L 270.742855 -148.860482 
L 272.64985 -149.691088 
L 274.556846 -150.499649 
L 276.463841 -151.30564 
L 278.370837 -152.111632 
L 280.277832 -152.918664 
L 282.184827 -153.752779 
L 284.091823 -154.60794 
L 285.998818 -155.463131 
L 287.905813 -156.319023 
L 287.905813 -197.174991 
L 287.905813 -197.174991 
L 285.998818 -195.834613 
L 284.091823 -194.494235 
L 282.184827 -193.153857 
L 280.277832 -191.813479 
L 278.370837 -190.4731 
L 276.463841 -189.132722 
L 274.556846 -187.792344 
L 272.64985 -186.470829 
L 270.742855 -185.153325 
L 268.83586 -183.835821 
L 266.928864 -182.518317 
L 265.021869 -181.200813 
L 263.114874 -179.88331 
L 261.207878 -178.587048 
L 259.300883 -177.310295 
L 257.393888 -176.033542 
L 255.486892 -174.75679 
L 253.579897 -173.480037 
L 251.672902 -172.203284 
L 249.765906 -170.926334 
L 247.858911 -169.648331 
L 245.951916 -168.370328 
L 244.04492 -167.092325 
L 242.137925 -165.814322 
L 240.23093 -164.536319 
L 238.323934 -163.258316 
L 236.416939 -161.980313 
L 234.509944 -160.697115 
L 232.602948 -159.354906 
L 230.695953 -158.086645 
L 228.788958 -156.831875 
L 226.881962 -155.481215 
L 224.974967 -154.130005 
L 223.067972 -152.776513 
L 221.160976 -151.455613 
L 219.253981 -150.200745 
L 217.346986 -148.879659 
L 215.43999 -147.520992 
L 213.532995 -146.232755 
L 211.626 -144.959382 
L 209.719004 -143.688156 
L 207.812009 -142.496208 
L 205.905014 -141.274641 
L 203.998018 -139.981469 
L 202.091023 -138.619238 
L 200.184028 -137.332026 
L 198.277032 -136.0608 
L 196.370037 -134.789575 
L 194.463042 -133.516599 
L 192.556046 -132.243263 
L 190.649051 -131.000439 
L 188.742056 -129.762041 
L 186.83506 -128.492459 
L 184.928065 -127.164423 
L 183.02107 -125.849064 
L 181.114074 -124.570872 
L 179.207079 -123.319743 
L 177.300084 -122.061219 
L 175.393088 -120.701219 
L 173.486093 -119.303929 
L 171.579098 -117.977126 
L 169.672102 -116.596796 
L 167.765107 -115.381924 
L 165.858112 -114.242106 
L 163.951116 -113.099386 
L 162.044121 -111.793982 
L 160.137126 -110.486697 
L 158.23013 -109.263307 
L 156.323135 -107.98789 
L 154.41614 -106.729543 
L 152.509144 -105.46819 
L 150.602149 -104.220108 
L 148.695154 -102.981072 
L 146.788158 -101.760487 
L 144.881163 -100.630212 
L 142.974168 -99.439862 
L 141.067172 -98.266948 
L 139.160177 -97.179 
L 137.253182 -96.085854 
L 135.346186 -95.105309 
L 133.439191 -94.017552 
L 131.532196 -93.016932 
L 129.6252 -91.950975 
L 127.718205 -90.916594 
L 125.81121 -89.818869 
L 123.904214 -88.951337 
L 121.997219 -87.92014 
L 120.090224 -86.889157 
L 118.183228 -85.872119 
L 116.276233 -84.981592 
L 114.369238 -84.107112 
L 112.462242 -83.211753 
L 110.555247 -82.321277 
L 108.648252 -81.409971 
L 106.741256 -80.517918 
L 104.834261 -79.628758 
L 102.927266 -78.709405 
L 101.02027 -77.745309 
L 99.113275 -76.81987 
z
" style="stroke: #ffffff; stroke-opacity: 0.15"/>
    </defs>
    <g clip-path="url(#p9f0e1ce5eb)">
     <use xlink:href="#ma77644d5b1" x="0" y="288" style="fill: #4c72b0; fill-opacity: 0.15; stroke: #ffffff; stroke-opacity: 0.15"/>
    </g>
   </g>
   <g id="PathCollection_2">
    <defs>
     <path id="mef2a77db39" d="M 0 3.162278 
C 0.838646 3.162278 1.643056 2.82908 2.236068 2.236068 
C 2.82908 1.643056 3.162278 0.838646 3.162278 0 
C 3.162278 -0.838646 2.82908 -1.643056 2.236068 -2.236068 
C 1.643056 -2.82908 0.838646 -3.162278 0 -3.162278 
C -0.838646 -3.162278 -1.643056 -2.82908 -2.236068 -2.236068 
C -2.82908 -1.643056 -3.162278 -0.838646 -3.162278 0 
C -3.162278 0.838646 -2.82908 1.643056 -2.236068 2.236068 
C -1.643056 2.82908 -0.838646 3.162278 0 3.162278 
z
" style="stroke: #dd8452; stroke-opacity: 0.6"/>
    </defs>
    <g clip-path="url(#p9f0e1ce5eb)">
     <use xlink:href="#mef2a77db39" x="149.387243" y="226.988236" style="fill: #dd8452; fill-opacity: 0.6; stroke: #dd8452; stroke-opacity: 0.6"/>
     <use xlink:href="#mef2a77db39" x="114.121221" y="212.259413" style="fill: #dd8452; fill-opacity: 0.6; stroke: #dd8452; stroke-opacity: 0.6"/>
     <use xlink:href="#mef2a77db39" x="170.705951" y="170.565511" style="fill: #dd8452; fill-opacity: 0.6; stroke: #dd8452; stroke-opacity: 0.6"/>
     <use xlink:href="#mef2a77db39" x="184.865391" y="174.87086" style="fill: #dd8452; fill-opacity: 0.6; stroke: #dd8452; stroke-opacity: 0.6"/>
     <use xlink:href="#mef2a77db39" x="189.691268" y="168.072941" style="fill: #dd8452; fill-opacity: 0.6; stroke: #dd8452; stroke-opacity: 0.6"/>
     <use xlink:href="#mef2a77db39" x="193.403481" y="143.147239" style="fill: #dd8452; fill-opacity: 0.6; stroke: #dd8452; stroke-opacity: 0.6"/>
     <use xlink:href="#mef2a77db39" x="105.795258" y="204.555105" style="fill: #dd8452; fill-opacity: 0.6; stroke: #dd8452; stroke-opacity: 0.6"/>
     <use xlink:href="#mef2a77db39" x="201.835507" y="179.176208" style="fill: #dd8452; fill-opacity: 0.6; stroke: #dd8452; stroke-opacity: 0.6"/>
     <use xlink:href="#mef2a77db39" x="139.046079" y="205.461494" style="fill: #dd8452; fill-opacity: 0.6; stroke: #dd8452; stroke-opacity: 0.6"/>
     <use xlink:href="#mef2a77db39" x="137.667257" y="176.683638" style="fill: #dd8452; fill-opacity: 0.6; stroke: #dd8452; stroke-opacity: 0.6"/>
     <use xlink:href="#mef2a77db39" x="113.75" y="211.126426" style="fill: #dd8452; fill-opacity: 0.6; stroke: #dd8452; stroke-opacity: 0.6"/>
     <use xlink:href="#mef2a77db39" x="246.275998" y="136.575918" style="fill: #dd8452; fill-opacity: 0.6; stroke: #dd8452; stroke-opacity: 0.6"/>
     <use xlink:href="#mef2a77db39" x="141.06128" y="214.298788" style="fill: #dd8452; fill-opacity: 0.6; stroke: #dd8452; stroke-opacity: 0.6"/>
     <use xlink:href="#mef2a77db39" x="157.023795" y="181.895376" style="fill: #dd8452; fill-opacity: 0.6; stroke: #dd8452; stroke-opacity: 0.6"/>
     <use xlink:href="#mef2a77db39" x="137.932415" y="181.442181" style="fill: #dd8452; fill-opacity: 0.6; stroke: #dd8452; stroke-opacity: 0.6"/>
     <use xlink:href="#mef2a77db39" x="173.728753" y="161.048425" style="fill: #dd8452; fill-opacity: 0.6; stroke: #dd8452; stroke-opacity: 0.6"/>
     <use xlink:href="#mef2a77db39" x="114.06819" y="212.032815" style="fill: #dd8452; fill-opacity: 0.6; stroke: #dd8452; stroke-opacity: 0.6"/>
     <use xlink:href="#mef2a77db39" x="145.67503" y="165.806968" style="fill: #dd8452; fill-opacity: 0.6; stroke: #dd8452; stroke-opacity: 0.6"/>
     <use xlink:href="#mef2a77db39" x="149.28118" y="170.565511" style="fill: #dd8452; fill-opacity: 0.6; stroke: #dd8452; stroke-opacity: 0.6"/>
     <use xlink:href="#mef2a77db39" x="168.796813" y="173.964471" style="fill: #dd8452; fill-opacity: 0.6; stroke: #dd8452; stroke-opacity: 0.6"/>
     <use xlink:href="#mef2a77db39" x="154.319183" y="157.422868" style="fill: #dd8452; fill-opacity: 0.6; stroke: #dd8452; stroke-opacity: 0.6"/>
     <use xlink:href="#mef2a77db39" x="166.887675" y="187.560308" style="fill: #dd8452; fill-opacity: 0.6; stroke: #dd8452; stroke-opacity: 0.6"/>
     <use xlink:href="#mef2a77db39" x="142.917386" y="199.343367" style="fill: #dd8452; fill-opacity: 0.6; stroke: #dd8452; stroke-opacity: 0.6"/>
     <use xlink:href="#mef2a77db39" x="268.337148" y="78.113817" style="fill: #dd8452; fill-opacity: 0.6; stroke: #dd8452; stroke-opacity: 0.6"/>
     <use xlink:href="#mef2a77db39" x="164.395189" y="177.816625" style="fill: #dd8452; fill-opacity: 0.6; stroke: #dd8452; stroke-opacity: 0.6"/>
     <use xlink:href="#mef2a77db39" x="153.735835" y="196.850797" style="fill: #dd8452; fill-opacity: 0.6; stroke: #dd8452; stroke-opacity: 0.6"/>
     <use xlink:href="#mef2a77db39" x="130.1898" y="204.555105" style="fill: #dd8452; fill-opacity: 0.6; stroke: #dd8452; stroke-opacity: 0.6"/>
     <use xlink:href="#mef2a77db39" x="126.58365" y="204.555105" style="fill: #dd8452; fill-opacity: 0.6; stroke: #dd8452; stroke-opacity: 0.6"/>
     <use xlink:href="#mef2a77db39" x="174.365132" y="152.437728" style="fill: #dd8452; fill-opacity: 0.6; stroke: #dd8452; stroke-opacity: 0.6"/>
     <use xlink:href="#mef2a77db39" x="163.493652" y="181.895376" style="fill: #dd8452; fill-opacity: 0.6; stroke: #dd8452; stroke-opacity: 0.6"/>
     <use xlink:href="#mef2a77db39" x="109.931724" y="217.017956" style="fill: #dd8452; fill-opacity: 0.6; stroke: #dd8452; stroke-opacity: 0.6"/>
     <use xlink:href="#mef2a77db39" x="156.599542" y="193.22524" style="fill: #dd8452; fill-opacity: 0.6; stroke: #dd8452; stroke-opacity: 0.6"/>
     <use xlink:href="#mef2a77db39" x="139.152142" y="181.895376" style="fill: #dd8452; fill-opacity: 0.6; stroke: #dd8452; stroke-opacity: 0.6"/>
     <use xlink:href="#mef2a77db39" x="169.008939" y="194.358227" style="fill: #dd8452; fill-opacity: 0.6; stroke: #dd8452; stroke-opacity: 0.6"/>
     <use xlink:href="#mef2a77db39" x="153.57674" y="175.777249" style="fill: #dd8452; fill-opacity: 0.6; stroke: #dd8452; stroke-opacity: 0.6"/>
     <use xlink:href="#mef2a77db39" x="186.880593" y="168.299538" style="fill: #dd8452; fill-opacity: 0.6; stroke: #dd8452; stroke-opacity: 0.6"/>
     <use xlink:href="#mef2a77db39" x="145.781094" y="204.555105" style="fill: #dd8452; fill-opacity: 0.6; stroke: #dd8452; stroke-opacity: 0.6"/>
     <use xlink:href="#mef2a77db39" x="149.069053" y="180.309195" style="fill: #dd8452; fill-opacity: 0.6; stroke: #dd8452; stroke-opacity: 0.6"/>
     <use xlink:href="#mef2a77db39" x="158.402617" y="197.530589" style="fill: #dd8452; fill-opacity: 0.6; stroke: #dd8452; stroke-opacity: 0.6"/>
     <use xlink:href="#mef2a77db39" x="225.116385" y="136.575918" style="fill: #dd8452; fill-opacity: 0.6; stroke: #dd8452; stroke-opacity: 0.6"/>
     <use xlink:href="#mef2a77db39" x="144.34924" y="199.11677" style="fill: #dd8452; fill-opacity: 0.6; stroke: #dd8452; stroke-opacity: 0.6"/>
     <use xlink:href="#mef2a77db39" x="151.879729" y="192.318851" style="fill: #dd8452; fill-opacity: 0.6; stroke: #dd8452; stroke-opacity: 0.6"/>
     <use xlink:href="#mef2a77db39" x="133.212602" y="180.535792" style="fill: #dd8452; fill-opacity: 0.6; stroke: #dd8452; stroke-opacity: 0.6"/>
     <use xlink:href="#mef2a77db39" x="110.621135" y="219.963721" style="fill: #dd8452; fill-opacity: 0.6; stroke: #dd8452; stroke-opacity: 0.6"/>
     <use xlink:href="#mef2a77db39" x="220.502635" y="122.98008" style="fill: #dd8452; fill-opacity: 0.6; stroke: #dd8452; stroke-opacity: 0.6"/>
     <use xlink:href="#mef2a77db39" x="156.281353" y="181.895376" style="fill: #dd8452; fill-opacity: 0.6; stroke: #dd8452; stroke-opacity: 0.6"/>
     <use xlink:href="#mef2a77db39" x="177.175808" y="136.575918" style="fill: #dd8452; fill-opacity: 0.6; stroke: #dd8452; stroke-opacity: 0.6"/>
     <use xlink:href="#mef2a77db39" x="231.108957" y="113.916189" style="fill: #dd8452; fill-opacity: 0.6; stroke: #dd8452; stroke-opacity: 0.6"/>
     <use xlink:href="#mef2a77db39" x="210.691786" y="203.422118" style="fill: #dd8452; fill-opacity: 0.6; stroke: #dd8452; stroke-opacity: 0.6"/>
     <use xlink:href="#mef2a77db39" x="154.955562" y="181.895376" style="fill: #dd8452; fill-opacity: 0.6; stroke: #dd8452; stroke-opacity: 0.6"/>
     <use xlink:href="#mef2a77db39" x="125.788176" y="193.22524" style="fill: #dd8452; fill-opacity: 0.6; stroke: #dd8452; stroke-opacity: 0.6"/>
     <use xlink:href="#mef2a77db39" x="113.856063" y="190.959267" style="fill: #dd8452; fill-opacity: 0.6; stroke: #dd8452; stroke-opacity: 0.6"/>
     <use xlink:href="#mef2a77db39" x="243.889575" y="132.043972" style="fill: #dd8452; fill-opacity: 0.6; stroke: #dd8452; stroke-opacity: 0.6"/>
     <use xlink:href="#mef2a77db39" x="111.999957" y="214.525386" style="fill: #dd8452; fill-opacity: 0.6; stroke: #dd8452; stroke-opacity: 0.6"/>
     <use xlink:href="#mef2a77db39" x="194.835334" y="151.531339" style="fill: #dd8452; fill-opacity: 0.6; stroke: #dd8452; stroke-opacity: 0.6"/>
     <use xlink:href="#mef2a77db39" x="162.645146" y="170.338914" style="fill: #dd8452; fill-opacity: 0.6; stroke: #dd8452; stroke-opacity: 0.6"/>
     <use xlink:href="#mef2a77db39" x="260.859691" y="181.895376" style="fill: #dd8452; fill-opacity: 0.6; stroke: #dd8452; stroke-opacity: 0.6"/>
     <use xlink:href="#mef2a77db39" x="199.343021" y="215.884969" style="fill: #dd8452; fill-opacity: 0.6; stroke: #dd8452; stroke-opacity: 0.6"/>
     <use xlink:href="#mef2a77db39" x="118.894066" y="209.99344" style="fill: #dd8452; fill-opacity: 0.6; stroke: #dd8452; stroke-opacity: 0.6"/>
     <use xlink:href="#mef2a77db39" x="315.270125" y="97.374587" style="fill: #dd8452; fill-opacity: 0.6; stroke: #dd8452; stroke-opacity: 0.6"/>
     <use xlink:href="#mef2a77db39" x="166.887675" y="177.136833" style="fill: #dd8452; fill-opacity: 0.6; stroke: #dd8452; stroke-opacity: 0.6"/>
     <use xlink:href="#mef2a77db39" x="132.523191" y="204.555105" style="fill: #dd8452; fill-opacity: 0.6; stroke: #dd8452; stroke-opacity: 0.6"/>
     <use xlink:href="#mef2a77db39" x="117.727371" y="205.008299" style="fill: #dd8452; fill-opacity: 0.6; stroke: #dd8452; stroke-opacity: 0.6"/>
     <use xlink:href="#mef2a77db39" x="156.281353" y="164.673982" style="fill: #dd8452; fill-opacity: 0.6; stroke: #dd8452; stroke-opacity: 0.6"/>
     <use xlink:href="#mef2a77db39" x="152.56914" y="190.052878" style="fill: #dd8452; fill-opacity: 0.6; stroke: #dd8452; stroke-opacity: 0.6"/>
     <use xlink:href="#mef2a77db39" x="165.774011" y="178.496416" style="fill: #dd8452; fill-opacity: 0.6; stroke: #dd8452; stroke-opacity: 0.6"/>
     <use xlink:href="#mef2a77db39" x="146.523536" y="193.905032" style="fill: #dd8452; fill-opacity: 0.6; stroke: #dd8452; stroke-opacity: 0.6"/>
     <use xlink:href="#mef2a77db39" x="75.567239" y="227.214834" style="fill: #dd8452; fill-opacity: 0.6; stroke: #dd8452; stroke-opacity: 0.6"/>
     <use xlink:href="#mef2a77db39" x="166.569485" y="204.328507" style="fill: #dd8452; fill-opacity: 0.6; stroke: #dd8452; stroke-opacity: 0.6"/>
     <use xlink:href="#mef2a77db39" x="138.886984" y="202.515729" style="fill: #dd8452; fill-opacity: 0.6; stroke: #dd8452; stroke-opacity: 0.6"/>
     <use xlink:href="#mef2a77db39" x="123.030532" y="205.234897" style="fill: #dd8452; fill-opacity: 0.6; stroke: #dd8452; stroke-opacity: 0.6"/>
     <use xlink:href="#mef2a77db39" x="149.811496" y="181.895376" style="fill: #dd8452; fill-opacity: 0.6; stroke: #dd8452; stroke-opacity: 0.6"/>
     <use xlink:href="#mef2a77db39" x="201.729444" y="178.723014" style="fill: #dd8452; fill-opacity: 0.6; stroke: #dd8452; stroke-opacity: 0.6"/>
     <use xlink:href="#mef2a77db39" x="193.350449" y="136.575918" style="fill: #dd8452; fill-opacity: 0.6; stroke: #dd8452; stroke-opacity: 0.6"/>
     <use xlink:href="#mef2a77db39" x="137.402099" y="200.023159" style="fill: #dd8452; fill-opacity: 0.6; stroke: #dd8452; stroke-opacity: 0.6"/>
     <use xlink:href="#mef2a77db39" x="115.022759" y="221.549902" style="fill: #dd8452; fill-opacity: 0.6; stroke: #dd8452; stroke-opacity: 0.6"/>
     <use xlink:href="#mef2a77db39" x="154.319183" y="180.082597" style="fill: #dd8452; fill-opacity: 0.6; stroke: #dd8452; stroke-opacity: 0.6"/>
     <use xlink:href="#mef2a77db39" x="212.919114" y="181.895376" style="fill: #dd8452; fill-opacity: 0.6; stroke: #dd8452; stroke-opacity: 0.6"/>
     <use xlink:href="#mef2a77db39" x="178.55463" y="170.565511" style="fill: #dd8452; fill-opacity: 0.6; stroke: #dd8452; stroke-opacity: 0.6"/>
     <use xlink:href="#mef2a77db39" x="89.779711" y="227.214834" style="fill: #dd8452; fill-opacity: 0.6; stroke: #dd8452; stroke-opacity: 0.6"/>
     <use xlink:href="#mef2a77db39" x="145.834125" y="152.437728" style="fill: #dd8452; fill-opacity: 0.6; stroke: #dd8452; stroke-opacity: 0.6"/>
     <use xlink:href="#mef2a77db39" x="179.933452" y="176.230444" style="fill: #dd8452; fill-opacity: 0.6; stroke: #dd8452; stroke-opacity: 0.6"/>
     <use xlink:href="#mef2a77db39" x="272.314519" y="142.694045" style="fill: #dd8452; fill-opacity: 0.6; stroke: #dd8452; stroke-opacity: 0.6"/>
     <use xlink:href="#mef2a77db39" x="203.956772" y="159.235647" style="fill: #dd8452; fill-opacity: 0.6; stroke: #dd8452; stroke-opacity: 0.6"/>
     <use xlink:href="#mef2a77db39" x="123.083564" y="215.884969" style="fill: #dd8452; fill-opacity: 0.6; stroke: #dd8452; stroke-opacity: 0.6"/>
     <use xlink:href="#mef2a77db39" x="170.705951" y="181.895376" style="fill: #dd8452; fill-opacity: 0.6; stroke: #dd8452; stroke-opacity: 0.6"/>
     <use xlink:href="#mef2a77db39" x="125.363923" y="215.884969" style="fill: #dd8452; fill-opacity: 0.6; stroke: #dd8452; stroke-opacity: 0.6"/>
     <use xlink:href="#mef2a77db39" x="119.477414" y="193.22524" style="fill: #dd8452; fill-opacity: 0.6; stroke: #dd8452; stroke-opacity: 0.6"/>
     <use xlink:href="#mef2a77db39" x="140.849154" y="181.895376" style="fill: #dd8452; fill-opacity: 0.6; stroke: #dd8452; stroke-opacity: 0.6"/>
     <use xlink:href="#mef2a77db39" x="294.216575" y="193.22524" style="fill: #dd8452; fill-opacity: 0.6; stroke: #dd8452; stroke-opacity: 0.6"/>
     <use xlink:href="#mef2a77db39" x="178.183408" y="171.018706" style="fill: #dd8452; fill-opacity: 0.6; stroke: #dd8452; stroke-opacity: 0.6"/>
     <use xlink:href="#mef2a77db39" x="170.228667" y="157.422868" style="fill: #dd8452; fill-opacity: 0.6; stroke: #dd8452; stroke-opacity: 0.6"/>
     <use xlink:href="#mef2a77db39" x="140.74309" y="212.712607" style="fill: #dd8452; fill-opacity: 0.6; stroke: #dd8452; stroke-opacity: 0.6"/>
     <use xlink:href="#mef2a77db39" x="167.948307" y="157.876063" style="fill: #dd8452; fill-opacity: 0.6; stroke: #dd8452; stroke-opacity: 0.6"/>
     <use xlink:href="#mef2a77db39" x="192.979228" y="152.664325" style="fill: #dd8452; fill-opacity: 0.6; stroke: #dd8452; stroke-opacity: 0.6"/>
     <use xlink:href="#mef2a77db39" x="156.016195" y="164.673982" style="fill: #dd8452; fill-opacity: 0.6; stroke: #dd8452; stroke-opacity: 0.6"/>
     <use xlink:href="#mef2a77db39" x="135.174771" y="159.235647" style="fill: #dd8452; fill-opacity: 0.6; stroke: #dd8452; stroke-opacity: 0.6"/>
     <use xlink:href="#mef2a77db39" x="133.530791" y="181.895376" style="fill: #dd8452; fill-opacity: 0.6; stroke: #dd8452; stroke-opacity: 0.6"/>
     <use xlink:href="#mef2a77db39" x="97.734453" y="227.214834" style="fill: #dd8452; fill-opacity: 0.6; stroke: #dd8452; stroke-opacity: 0.6"/>
     <use xlink:href="#mef2a77db39" x="261.177881" y="159.235647" style="fill: #dd8452; fill-opacity: 0.6; stroke: #dd8452; stroke-opacity: 0.6"/>
     <use xlink:href="#mef2a77db39" x="186.297245" y="192.092254" style="fill: #dd8452; fill-opacity: 0.6; stroke: #dd8452; stroke-opacity: 0.6"/>
     <use xlink:href="#mef2a77db39" x="195.630809" y="159.235647" style="fill: #dd8452; fill-opacity: 0.6; stroke: #dd8452; stroke-opacity: 0.6"/>
     <use xlink:href="#mef2a77db39" x="151.084255" y="170.565511" style="fill: #dd8452; fill-opacity: 0.6; stroke: #dd8452; stroke-opacity: 0.6"/>
     <use xlink:href="#mef2a77db39" x="218.010149" y="134.989737" style="fill: #dd8452; fill-opacity: 0.6; stroke: #dd8452; stroke-opacity: 0.6"/>
     <use xlink:href="#mef2a77db39" x="133.902012" y="193.22524" style="fill: #dd8452; fill-opacity: 0.6; stroke: #dd8452; stroke-opacity: 0.6"/>
     <use xlink:href="#mef2a77db39" x="128.917041" y="204.555105" style="fill: #dd8452; fill-opacity: 0.6; stroke: #dd8452; stroke-opacity: 0.6"/>
     <use xlink:href="#mef2a77db39" x="150.819097" y="187.786905" style="fill: #dd8452; fill-opacity: 0.6; stroke: #dd8452; stroke-opacity: 0.6"/>
     <use xlink:href="#mef2a77db39" x="189.479142" y="204.555105" style="fill: #dd8452; fill-opacity: 0.6; stroke: #dd8452; stroke-opacity: 0.6"/>
     <use xlink:href="#mef2a77db39" x="164.130031" y="204.555105" style="fill: #dd8452; fill-opacity: 0.6; stroke: #dd8452; stroke-opacity: 0.6"/>
     <use xlink:href="#mef2a77db39" x="217.585896" y="133.403556" style="fill: #dd8452; fill-opacity: 0.6; stroke: #dd8452; stroke-opacity: 0.6"/>
     <use xlink:href="#mef2a77db39" x="314.739809" y="136.575918" style="fill: #dd8452; fill-opacity: 0.6; stroke: #dd8452; stroke-opacity: 0.6"/>
     <use xlink:href="#mef2a77db39" x="191.865564" y="164.900579" style="fill: #dd8452; fill-opacity: 0.6; stroke: #dd8452; stroke-opacity: 0.6"/>
     <use xlink:href="#mef2a77db39" x="130.295863" y="190.73267" style="fill: #dd8452; fill-opacity: 0.6; stroke: #dd8452; stroke-opacity: 0.6"/>
     <use xlink:href="#mef2a77db39" x="146.735663" y="204.555105" style="fill: #dd8452; fill-opacity: 0.6; stroke: #dd8452; stroke-opacity: 0.6"/>
     <use xlink:href="#mef2a77db39" x="173.3045" y="170.565511" style="fill: #dd8452; fill-opacity: 0.6; stroke: #dd8452; stroke-opacity: 0.6"/>
     <use xlink:href="#mef2a77db39" x="126.424555" y="193.22524" style="fill: #dd8452; fill-opacity: 0.6; stroke: #dd8452; stroke-opacity: 0.6"/>
     <use xlink:href="#mef2a77db39" x="145.250777" y="204.555105" style="fill: #dd8452; fill-opacity: 0.6; stroke: #dd8452; stroke-opacity: 0.6"/>
     <use xlink:href="#mef2a77db39" x="132.523191" y="204.555105" style="fill: #dd8452; fill-opacity: 0.6; stroke: #dd8452; stroke-opacity: 0.6"/>
     <use xlink:href="#mef2a77db39" x="152.144887" y="181.895376" style="fill: #dd8452; fill-opacity: 0.6; stroke: #dd8452; stroke-opacity: 0.6"/>
     <use xlink:href="#mef2a77db39" x="189.320047" y="171.018706" style="fill: #dd8452; fill-opacity: 0.6; stroke: #dd8452; stroke-opacity: 0.6"/>
     <use xlink:href="#mef2a77db39" x="169.380161" y="199.11677" style="fill: #dd8452; fill-opacity: 0.6; stroke: #dd8452; stroke-opacity: 0.6"/>
     <use xlink:href="#mef2a77db39" x="227.449776" y="147.905782" style="fill: #dd8452; fill-opacity: 0.6; stroke: #dd8452; stroke-opacity: 0.6"/>
     <use xlink:href="#mef2a77db39" x="115.447012" y="213.392399" style="fill: #dd8452; fill-opacity: 0.6; stroke: #dd8452; stroke-opacity: 0.6"/>
     <use xlink:href="#mef2a77db39" x="115.659138" y="204.555105" style="fill: #dd8452; fill-opacity: 0.6; stroke: #dd8452; stroke-opacity: 0.6"/>
     <use xlink:href="#mef2a77db39" x="328.740154" y="23.277273" style="fill: #dd8452; fill-opacity: 0.6; stroke: #dd8452; stroke-opacity: 0.6"/>
     <use xlink:href="#mef2a77db39" x="143.129513" y="178.269819" style="fill: #dd8452; fill-opacity: 0.6; stroke: #dd8452; stroke-opacity: 0.6"/>
     <use xlink:href="#mef2a77db39" x="97.734453" y="133.176958" style="fill: #dd8452; fill-opacity: 0.6; stroke: #dd8452; stroke-opacity: 0.6"/>
     <use xlink:href="#mef2a77db39" x="228.192218" y="177.816625" style="fill: #dd8452; fill-opacity: 0.6; stroke: #dd8452; stroke-opacity: 0.6"/>
     <use xlink:href="#mef2a77db39" x="148.485706" y="159.235647" style="fill: #dd8452; fill-opacity: 0.6; stroke: #dd8452; stroke-opacity: 0.6"/>
     <use xlink:href="#mef2a77db39" x="233.760538" y="179.402806" style="fill: #dd8452; fill-opacity: 0.6; stroke: #dd8452; stroke-opacity: 0.6"/>
     <use xlink:href="#mef2a77db39" x="154.160088" y="204.555105" style="fill: #dd8452; fill-opacity: 0.6; stroke: #dd8452; stroke-opacity: 0.6"/>
     <use xlink:href="#mef2a77db39" x="136.076309" y="204.555105" style="fill: #dd8452; fill-opacity: 0.6; stroke: #dd8452; stroke-opacity: 0.6"/>
     <use xlink:href="#mef2a77db39" x="110.196882" y="159.235647" style="fill: #dd8452; fill-opacity: 0.6; stroke: #dd8452; stroke-opacity: 0.6"/>
     <use xlink:href="#mef2a77db39" x="242.935006" y="169.432525" style="fill: #dd8452; fill-opacity: 0.6; stroke: #dd8452; stroke-opacity: 0.6"/>
     <use xlink:href="#mef2a77db39" x="243.04107" y="166.48676" style="fill: #dd8452; fill-opacity: 0.6; stroke: #dd8452; stroke-opacity: 0.6"/>
     <use xlink:href="#mef2a77db39" x="183.009285" y="121.847094" style="fill: #dd8452; fill-opacity: 0.6; stroke: #dd8452; stroke-opacity: 0.6"/>
     <use xlink:href="#mef2a77db39" x="299.784894" y="170.565511" style="fill: #dd8452; fill-opacity: 0.6; stroke: #dd8452; stroke-opacity: 0.6"/>
     <use xlink:href="#mef2a77db39" x="182.160779" y="102.586324" style="fill: #dd8452; fill-opacity: 0.6; stroke: #dd8452; stroke-opacity: 0.6"/>
     <use xlink:href="#mef2a77db39" x="274.329721" y="181.895376" style="fill: #dd8452; fill-opacity: 0.6; stroke: #dd8452; stroke-opacity: 0.6"/>
     <use xlink:href="#mef2a77db39" x="169.008939" y="136.575918" style="fill: #dd8452; fill-opacity: 0.6; stroke: #dd8452; stroke-opacity: 0.6"/>
     <use xlink:href="#mef2a77db39" x="170.122603" y="170.565511" style="fill: #dd8452; fill-opacity: 0.6; stroke: #dd8452; stroke-opacity: 0.6"/>
     <use xlink:href="#mef2a77db39" x="220.820824" y="204.555105" style="fill: #dd8452; fill-opacity: 0.6; stroke: #dd8452; stroke-opacity: 0.6"/>
     <use xlink:href="#mef2a77db39" x="155.53891" y="170.565511" style="fill: #dd8452; fill-opacity: 0.6; stroke: #dd8452; stroke-opacity: 0.6"/>
     <use xlink:href="#mef2a77db39" x="181.789558" y="159.235647" style="fill: #dd8452; fill-opacity: 0.6; stroke: #dd8452; stroke-opacity: 0.6"/>
     <use xlink:href="#mef2a77db39" x="142.493134" y="215.884969" style="fill: #dd8452; fill-opacity: 0.6; stroke: #dd8452; stroke-opacity: 0.6"/>
     <use xlink:href="#mef2a77db39" x="200.29759" y="172.604887" style="fill: #dd8452; fill-opacity: 0.6; stroke: #dd8452; stroke-opacity: 0.6"/>
     <use xlink:href="#mef2a77db39" x="264.677967" y="181.895376" style="fill: #dd8452; fill-opacity: 0.6; stroke: #dd8452; stroke-opacity: 0.6"/>
     <use xlink:href="#mef2a77db39" x="187.994257" y="203.875313" style="fill: #dd8452; fill-opacity: 0.6; stroke: #dd8452; stroke-opacity: 0.6"/>
     <use xlink:href="#mef2a77db39" x="126.954871" y="199.343367" style="fill: #dd8452; fill-opacity: 0.6; stroke: #dd8452; stroke-opacity: 0.6"/>
     <use xlink:href="#mef2a77db39" x="218.69956" y="204.555105" style="fill: #dd8452; fill-opacity: 0.6; stroke: #dd8452; stroke-opacity: 0.6"/>
     <use xlink:href="#mef2a77db39" x="196.585378" y="132.950361" style="fill: #dd8452; fill-opacity: 0.6; stroke: #dd8452; stroke-opacity: 0.6"/>
     <use xlink:href="#mef2a77db39" x="315.588315" y="45.937002" style="fill: #dd8452; fill-opacity: 0.6; stroke: #dd8452; stroke-opacity: 0.6"/>
     <use xlink:href="#mef2a77db39" x="129.659484" y="193.22524" style="fill: #dd8452; fill-opacity: 0.6; stroke: #dd8452; stroke-opacity: 0.6"/>
     <use xlink:href="#mef2a77db39" x="208.676585" y="102.586324" style="fill: #dd8452; fill-opacity: 0.6; stroke: #dd8452; stroke-opacity: 0.6"/>
     <use xlink:href="#mef2a77db39" x="127.697314" y="224.948861" style="fill: #dd8452; fill-opacity: 0.6; stroke: #dd8452; stroke-opacity: 0.6"/>
     <use xlink:href="#mef2a77db39" x="208.570522" y="181.895376" style="fill: #dd8452; fill-opacity: 0.6; stroke: #dd8452; stroke-opacity: 0.6"/>
     <use xlink:href="#mef2a77db39" x="120.750173" y="215.884969" style="fill: #dd8452; fill-opacity: 0.6; stroke: #dd8452; stroke-opacity: 0.6"/>
     <use xlink:href="#mef2a77db39" x="100.333002" y="217.244553" style="fill: #dd8452; fill-opacity: 0.6; stroke: #dd8452; stroke-opacity: 0.6"/>
     <use xlink:href="#mef2a77db39" x="219.123813" y="179.856" style="fill: #dd8452; fill-opacity: 0.6; stroke: #dd8452; stroke-opacity: 0.6"/>
     <use xlink:href="#mef2a77db39" x="167.736181" y="181.895376" style="fill: #dd8452; fill-opacity: 0.6; stroke: #dd8452; stroke-opacity: 0.6"/>
     <use xlink:href="#mef2a77db39" x="129.712515" y="188.2401" style="fill: #dd8452; fill-opacity: 0.6; stroke: #dd8452; stroke-opacity: 0.6"/>
     <use xlink:href="#mef2a77db39" x="176.59246" y="184.614543" style="fill: #dd8452; fill-opacity: 0.6; stroke: #dd8452; stroke-opacity: 0.6"/>
     <use xlink:href="#mef2a77db39" x="186.615435" y="204.555105" style="fill: #dd8452; fill-opacity: 0.6; stroke: #dd8452; stroke-opacity: 0.6"/>
     <use xlink:href="#mef2a77db39" x="142.493134" y="181.895376" style="fill: #dd8452; fill-opacity: 0.6; stroke: #dd8452; stroke-opacity: 0.6"/>
     <use xlink:href="#mef2a77db39" x="120.856236" y="173.058081" style="fill: #dd8452; fill-opacity: 0.6; stroke: #dd8452; stroke-opacity: 0.6"/>
     <use xlink:href="#mef2a77db39" x="116.401581" y="216.564761" style="fill: #dd8452; fill-opacity: 0.6; stroke: #dd8452; stroke-opacity: 0.6"/>
     <use xlink:href="#mef2a77db39" x="141.644628" y="181.895376" style="fill: #dd8452; fill-opacity: 0.6; stroke: #dd8452; stroke-opacity: 0.6"/>
     <use xlink:href="#mef2a77db39" x="112.689368" y="221.549902" style="fill: #dd8452; fill-opacity: 0.6; stroke: #dd8452; stroke-opacity: 0.6"/>
     <use xlink:href="#mef2a77db39" x="126.106366" y="227.214834" style="fill: #dd8452; fill-opacity: 0.6; stroke: #dd8452; stroke-opacity: 0.6"/>
     <use xlink:href="#mef2a77db39" x="233.389316" y="223.36268" style="fill: #dd8452; fill-opacity: 0.6; stroke: #dd8452; stroke-opacity: 0.6"/>
     <use xlink:href="#mef2a77db39" x="249.2988" y="144.053628" style="fill: #dd8452; fill-opacity: 0.6; stroke: #dd8452; stroke-opacity: 0.6"/>
     <use xlink:href="#mef2a77db39" x="213.237304" y="115.728967" style="fill: #dd8452; fill-opacity: 0.6; stroke: #dd8452; stroke-opacity: 0.6"/>
     <use xlink:href="#mef2a77db39" x="203.426456" y="204.555105" style="fill: #dd8452; fill-opacity: 0.6; stroke: #dd8452; stroke-opacity: 0.6"/>
     <use xlink:href="#mef2a77db39" x="179.509199" y="204.555105" style="fill: #dd8452; fill-opacity: 0.6; stroke: #dd8452; stroke-opacity: 0.6"/>
     <use xlink:href="#mef2a77db39" x="153.788867" y="210.220037" style="fill: #dd8452; fill-opacity: 0.6; stroke: #dd8452; stroke-opacity: 0.6"/>
     <use xlink:href="#mef2a77db39" x="158.879902" y="181.895376" style="fill: #dd8452; fill-opacity: 0.6; stroke: #dd8452; stroke-opacity: 0.6"/>
    </g>
   </g>
   <g id="FillBetweenPolyCollection_2">
    <defs>
     <path id="mfc069e7213" d="M 75.567239 -78.902049 
L 75.567239 -58.377273 
L 78.124542 -59.78006 
L 80.681844 -61.248773 
L 83.239146 -62.632226 
L 85.796448 -64.099978 
L 88.35375 -65.569221 
L 90.911053 -66.911686 
L 93.468355 -68.213688 
L 96.025657 -69.657265 
L 98.582959 -71.040084 
L 101.140261 -72.466857 
L 103.697563 -73.891704 
L 106.254866 -75.172187 
L 108.812168 -76.513687 
L 111.36947 -77.93191 
L 113.926772 -79.219089 
L 116.484074 -80.481242 
L 119.041376 -81.740762 
L 121.598679 -83.021275 
L 124.155981 -84.378977 
L 126.713283 -85.751298 
L 129.270585 -86.980805 
L 131.827887 -88.252376 
L 134.385189 -89.48082 
L 136.942492 -90.749666 
L 139.499794 -91.991761 
L 142.057096 -93.203407 
L 144.614398 -94.464325 
L 147.1717 -95.614618 
L 149.729002 -96.803476 
L 152.286305 -97.93233 
L 154.843607 -99.062924 
L 157.400909 -100.129946 
L 159.958211 -101.229317 
L 162.515513 -102.230887 
L 165.072815 -103.265874 
L 167.630118 -104.35516 
L 170.18742 -105.332418 
L 172.744722 -106.211579 
L 175.302024 -107.215289 
L 177.859326 -108.058167 
L 180.416628 -108.880904 
L 182.973931 -109.767272 
L 185.531233 -110.529166 
L 188.088535 -111.399894 
L 190.645837 -112.273577 
L 193.203139 -113.121054 
L 195.760441 -113.874511 
L 198.317744 -114.75946 
L 200.875046 -115.630289 
L 203.432348 -116.355933 
L 205.98965 -117.135721 
L 208.546952 -117.943013 
L 211.104254 -118.640395 
L 213.661557 -119.364914 
L 216.218859 -120.161146 
L 218.776161 -120.957782 
L 221.333463 -121.760159 
L 223.890765 -122.56677 
L 226.448067 -123.449313 
L 229.00537 -124.227636 
L 231.562672 -125.005959 
L 234.119974 -125.784282 
L 236.677276 -126.572775 
L 239.234578 -127.339704 
L 241.791881 -128.13663 
L 244.349183 -128.906916 
L 246.906485 -129.672739 
L 249.463787 -130.449931 
L 252.021089 -131.227124 
L 254.578391 -132.004316 
L 257.135694 -132.746255 
L 259.692996 -133.462809 
L 262.250298 -134.211156 
L 264.8076 -134.98396 
L 267.364902 -135.765182 
L 269.922204 -136.546404 
L 272.479507 -137.293753 
L 275.036809 -137.999409 
L 277.594111 -138.756804 
L 280.151413 -139.514574 
L 282.708715 -140.272344 
L 285.266017 -141.030115 
L 287.82332 -141.787885 
L 290.380622 -142.545655 
L 292.937924 -143.303426 
L 295.495226 -144.061196 
L 298.052528 -144.818966 
L 300.60983 -145.576737 
L 303.167133 -146.334507 
L 305.724435 -147.092277 
L 308.281737 -147.850048 
L 310.839039 -148.607818 
L 313.396341 -149.365588 
L 315.953643 -150.123359 
L 318.510946 -150.881361 
L 321.068248 -151.638899 
L 323.62555 -152.39667 
L 326.182852 -153.15444 
L 328.740154 -153.91221 
L 328.740154 -197.294025 
L 328.740154 -197.294025 
L 326.182852 -195.883179 
L 323.62555 -194.472332 
L 321.068248 -193.061486 
L 318.510946 -191.650639 
L 315.953643 -190.239793 
L 313.396341 -188.828947 
L 310.839039 -187.435077 
L 308.281737 -186.066702 
L 305.724435 -184.698328 
L 303.167133 -183.329953 
L 300.60983 -181.961578 
L 298.052528 -180.593203 
L 295.495226 -179.224828 
L 292.937924 -177.856453 
L 290.380622 -176.488079 
L 287.82332 -175.119704 
L 285.266017 -173.751329 
L 282.708715 -172.382954 
L 280.151413 -171.014579 
L 277.594111 -169.646204 
L 275.036809 -168.27783 
L 272.479507 -166.909455 
L 269.922204 -165.54108 
L 267.364902 -164.172705 
L 264.8076 -162.803303 
L 262.250298 -161.433501 
L 259.692996 -160.063699 
L 257.135694 -158.693897 
L 254.578391 -157.289675 
L 252.021089 -155.843922 
L 249.463787 -154.397811 
L 246.906485 -152.9517 
L 244.349183 -151.50559 
L 241.791881 -150.059479 
L 239.234578 -148.698416 
L 236.677276 -147.281333 
L 234.119974 -145.853101 
L 231.562672 -144.561136 
L 229.00537 -143.204553 
L 226.448067 -141.802079 
L 223.890765 -140.38439 
L 221.333463 -138.9667 
L 218.776161 -137.547954 
L 216.218859 -136.128237 
L 213.661557 -134.848759 
L 211.104254 -133.423924 
L 208.546952 -132.16611 
L 205.98965 -130.908297 
L 203.432348 -129.597292 
L 200.875046 -128.170205 
L 198.317744 -126.830595 
L 195.760441 -125.455616 
L 193.203139 -124.155243 
L 190.645837 -122.826737 
L 188.088535 -121.55834 
L 185.531233 -120.257878 
L 182.973931 -118.958459 
L 180.416628 -117.608154 
L 177.859326 -116.278155 
L 175.302024 -115.006633 
L 172.744722 -113.761883 
L 170.18742 -112.461419 
L 167.630118 -111.160464 
L 165.072815 -109.853975 
L 162.515513 -108.662536 
L 159.958211 -107.558369 
L 157.400909 -106.731052 
L 154.843607 -105.622275 
L 152.286305 -104.546955 
L 149.729002 -103.407298 
L 147.1717 -102.312691 
L 144.614398 -101.33807 
L 142.057096 -100.415065 
L 139.499794 -99.491879 
L 136.942492 -98.562746 
L 134.385189 -97.642129 
L 131.827887 -96.850953 
L 129.270585 -95.954063 
L 126.713283 -95.121609 
L 124.155981 -94.250087 
L 121.598679 -93.334202 
L 119.041376 -92.495284 
L 116.484074 -91.597905 
L 113.926772 -90.664124 
L 111.36947 -89.821056 
L 108.812168 -89.058727 
L 106.254866 -88.305245 
L 103.697563 -87.575105 
L 101.140261 -86.841267 
L 98.582959 -86.085593 
L 96.025657 -85.301809 
L 93.468355 -84.573844 
L 90.911053 -83.817676 
L 88.35375 -83.063417 
L 85.796448 -82.24578 
L 83.239146 -81.318892 
L 80.681844 -80.499808 
L 78.124542 -79.679393 
L 75.567239 -78.902049 
z
" style="stroke: #ffffff; stroke-opacity: 0.15"/>
    </defs>
    <g clip-path="url(#p9f0e1ce5eb)">
     <use xlink:href="#mfc069e7213" x="0" y="288" style="fill: #dd8452; fill-opacity: 0.15; stroke: #ffffff; stroke-opacity: 0.15"/>
    </g>
   </g>
   <g id="line2d_1">
    <path d="M 99.113275 215.601351 
L 101.02027 214.575858 
L 102.927266 213.550366 
L 104.834261 212.524873 
L 106.741256 211.49938 
L 108.648252 210.473888 
L 110.555247 209.448395 
L 112.462242 208.422903 
L 114.369238 207.39741 
L 116.276233 206.371918 
L 118.183228 205.346425 
L 120.090224 204.320932 
L 121.997219 203.29544 
L 123.904214 202.269947 
L 125.81121 201.244455 
L 127.718205 200.218962 
L 129.6252 199.19347 
L 131.532196 198.167977 
L 133.439191 197.142484 
L 135.346186 196.116992 
L 137.253182 195.091499 
L 139.160177 194.066007 
L 141.067172 193.040514 
L 142.974168 192.015022 
L 144.881163 190.989529 
L 146.788158 189.964036 
L 148.695154 188.938544 
L 150.602149 187.913051 
L 152.509144 186.887559 
L 154.41614 185.862066 
L 156.323135 184.836574 
L 158.23013 183.811081 
L 160.137126 182.785588 
L 162.044121 181.760096 
L 163.951116 180.734603 
L 165.858112 179.709111 
L 167.765107 178.683618 
L 169.672102 177.658125 
L 171.579098 176.632633 
L 173.486093 175.60714 
L 175.393088 174.581648 
L 177.300084 173.556155 
L 179.207079 172.530663 
L 181.114074 171.50517 
L 183.02107 170.479677 
L 184.928065 169.454185 
L 186.83506 168.428692 
L 188.742056 167.4032 
L 190.649051 166.377707 
L 192.556046 165.352215 
L 194.463042 164.326722 
L 196.370037 163.301229 
L 198.277032 162.275737 
L 200.184028 161.250244 
L 202.091023 160.224752 
L 203.998018 159.199259 
L 205.905014 158.173767 
L 207.812009 157.148274 
L 209.719004 156.122781 
L 211.626 155.097289 
L 213.532995 154.071796 
L 215.43999 153.046304 
L 217.346986 152.020811 
L 219.253981 150.995319 
L 221.160976 149.969826 
L 223.067972 148.944333 
L 224.974967 147.918841 
L 226.881962 146.893348 
L 228.788958 145.867856 
L 230.695953 144.842363 
L 232.602948 143.816871 
L 234.509944 142.791378 
L 236.416939 141.765885 
L 238.323934 140.740393 
L 240.23093 139.7149 
L 242.137925 138.689408 
L 244.04492 137.663915 
L 245.951916 136.638423 
L 247.858911 135.61293 
L 249.765906 134.587437 
L 251.672902 133.561945 
L 253.579897 132.536452 
L 255.486892 131.51096 
L 257.393888 130.485467 
L 259.300883 129.459975 
L 261.207878 128.434482 
L 263.114874 127.408989 
L 265.021869 126.383497 
L 266.928864 125.358004 
L 268.83586 124.332512 
L 270.742855 123.307019 
L 272.64985 122.281527 
L 274.556846 121.256034 
L 276.463841 120.230541 
L 278.370837 119.205049 
L 280.277832 118.179556 
L 282.184827 117.154064 
L 284.091823 116.128571 
L 285.998818 115.103079 
L 287.905813 114.077586 
" clip-path="url(#p9f0e1ce5eb)" style="fill: none; stroke: #4c72b0; stroke-width: 2.25; stroke-linecap: round"/>
   </g>
   <g id="line2d_2">
    <path d="M 75.567239 219.507643 
L 78.124542 218.42121 
L 80.681844 217.334778 
L 83.239146 216.248346 
L 85.796448 215.161914 
L 88.35375 214.075482 
L 90.911053 212.98905 
L 93.468355 211.902618 
L 96.025657 210.816186 
L 98.582959 209.729754 
L 101.140261 208.643322 
L 103.697563 207.55689 
L 106.254866 206.470458 
L 108.812168 205.384026 
L 111.36947 204.297594 
L 113.926772 203.211162 
L 116.484074 202.12473 
L 119.041376 201.038298 
L 121.598679 199.951866 
L 124.155981 198.865434 
L 126.713283 197.779002 
L 129.270585 196.69257 
L 131.827887 195.606138 
L 134.385189 194.519706 
L 136.942492 193.433274 
L 139.499794 192.346842 
L 142.057096 191.26041 
L 144.614398 190.173978 
L 147.1717 189.087546 
L 149.729002 188.001114 
L 152.286305 186.914682 
L 154.843607 185.82825 
L 157.400909 184.741818 
L 159.958211 183.655385 
L 162.515513 182.568953 
L 165.072815 181.482521 
L 167.630118 180.396089 
L 170.18742 179.309657 
L 172.744722 178.223225 
L 175.302024 177.136793 
L 177.859326 176.050361 
L 180.416628 174.963929 
L 182.973931 173.877497 
L 185.531233 172.791065 
L 188.088535 171.704633 
L 190.645837 170.618201 
L 193.203139 169.531769 
L 195.760441 168.445337 
L 198.317744 167.358905 
L 200.875046 166.272473 
L 203.432348 165.186041 
L 205.98965 164.099609 
L 208.546952 163.013177 
L 211.104254 161.926745 
L 213.661557 160.840313 
L 216.218859 159.753881 
L 218.776161 158.667449 
L 221.333463 157.581017 
L 223.890765 156.494585 
L 226.448067 155.408153 
L 229.00537 154.321721 
L 231.562672 153.235289 
L 234.119974 152.148857 
L 236.677276 151.062425 
L 239.234578 149.975993 
L 241.791881 148.88956 
L 244.349183 147.803128 
L 246.906485 146.716696 
L 249.463787 145.630264 
L 252.021089 144.543832 
L 254.578391 143.4574 
L 257.135694 142.370968 
L 259.692996 141.284536 
L 262.250298 140.198104 
L 264.8076 139.111672 
L 267.364902 138.02524 
L 269.922204 136.938808 
L 272.479507 135.852376 
L 275.036809 134.765944 
L 277.594111 133.679512 
L 280.151413 132.59308 
L 282.708715 131.506648 
L 285.266017 130.420216 
L 287.82332 129.333784 
L 290.380622 128.247352 
L 292.937924 127.16092 
L 295.495226 126.074488 
L 298.052528 124.988056 
L 300.60983 123.901624 
L 303.167133 122.815192 
L 305.724435 121.72876 
L 308.281737 120.642328 
L 310.839039 119.555896 
L 313.396341 118.469464 
L 315.953643 117.383032 
L 318.510946 116.2966 
L 321.068248 115.210168 
L 323.62555 114.123735 
L 326.182852 113.037303 
L 328.740154 111.950871 
" clip-path="url(#p9f0e1ce5eb)" style="fill: none; stroke: #dd8452; stroke-width: 2.25; stroke-linecap: round"/>
   </g>
   <g id="patch_3">
    <path d="M 62.908594 239.94 
L 62.908594 12.96 
" style="fill: none; stroke: #262626; stroke-width: 1.25; stroke-linejoin: miter; stroke-linecap: square"/>
   </g>
   <g id="patch_4">
    <path d="M 62.908594 239.94 
L 341.3988 239.94 
" style="fill: none; stroke: #262626; stroke-width: 1.25; stroke-linejoin: miter; stroke-linecap: square"/>
   </g>
  </g>
  <g id="text_13">
   <!--  -->
   <g style="fill: #262626" transform="translate(33.804 4.05144) scale(0.20736 -0.20736)">
    <defs>
     <path id="IPAexGothic-4f1a" d="M 1863 3272 
L 4641 3272 
L 4641 2863 
L 1759 2863 
L 1759 3194 
Q 1734 3175 1638 3113 
Q 1238 2816 594 2497 
L 288 2863 
Q 1959 3597 2894 5147 
L 3431 5147 
Q 4341 3784 6131 3047 
L 5825 2631 
Q 4063 3497 3175 4731 
Q 2653 3881 1863 3272 
z
M 2822 1703 
Q 2531 997 2119 322 
L 2388 341 
Q 3366 409 4325 506 
L 4641 538 
Q 4169 1028 3859 1306 
L 4209 1550 
Q 5088 797 5778 -31 
L 5388 -350 
Q 5156 -50 4928 219 
L 4831 206 
Q 3106 -53 844 -238 
L 684 231 
Q 816 238 1191 263 
L 1631 288 
Q 2022 934 2322 1703 
L 641 1703 
L 641 2125 
L 5759 2125 
L 5759 1703 
L 2822 1703 
z
" transform="scale(0.015625)"/>
     <path id="IPAexGothic-8a08" d="M 2853 1684 
L 2853 -416 
L 2413 -416 
L 2413 -128 
L 1088 -128 
L 1088 -447 
L 647 -447 
L 647 1684 
L 2853 1684 
z
M 1088 1300 
L 1088 256 
L 2413 256 
L 2413 1300 
L 1088 1300 
z
M 4322 3225 
L 4322 5178 
L 4781 5178 
L 4781 3225 
L 6063 3225 
L 6063 2797 
L 4781 2797 
L 4781 -447 
L 4322 -447 
L 4322 2797 
L 3063 2797 
L 3063 3225 
L 4322 3225 
z
M 781 5044 
L 2722 5044 
L 2722 4647 
L 781 4647 
L 781 5044 
z
M 384 4206 
L 3150 4206 
L 3150 3803 
L 384 3803 
L 384 4206 
z
M 781 3359 
L 2722 3359 
L 2722 2963 
L 781 2963 
L 781 3359 
z
M 781 2522 
L 2722 2522 
L 2722 2125 
L 781 2125 
L 781 2522 
z
" transform="scale(0.015625)"/>
     <path id="IPAexGothic-984d" d="M 881 1409 
L 856 1391 
Q 750 1331 459 1178 
L 197 1513 
Q 1053 1856 1622 2425 
Q 1222 2709 1066 2809 
Q 847 2550 606 2350 
L 331 2638 
Q 1044 3216 1359 4141 
L 1738 4031 
Q 1650 3778 1578 3634 
L 2544 3634 
L 2756 3441 
Q 2513 2900 2188 2497 
Q 2800 2056 3222 1722 
L 2959 1372 
Q 2794 1519 2781 1525 
L 2781 -97 
L 1297 -97 
L 1297 -450 
L 881 -450 
L 881 1409 
z
M 1094 1538 
L 2769 1538 
Q 2403 1847 2019 2138 
L 1931 2203 
Q 1563 1834 1094 1538 
z
M 2366 1178 
L 1297 1178 
L 1297 275 
L 2366 275 
L 2366 1178 
z
M 1381 3256 
Q 1316 3153 1278 3097 
Q 1522 2944 1878 2706 
Q 2081 2966 2231 3256 
L 1381 3256 
z
M 4616 4025 
L 5741 4025 
L 5741 794 
L 3481 794 
L 3481 4025 
L 4225 4025 
Q 4322 4472 4353 4659 
L 3150 4659 
L 3150 5056 
L 6047 5056 
L 6047 4659 
L 4800 4659 
Q 4797 4638 4769 4538 
Q 4719 4309 4616 4025 
z
M 5331 3653 
L 3891 3653 
L 3891 3078 
L 5331 3078 
L 5331 3653 
z
M 3891 2713 
L 3891 2138 
L 5331 2138 
L 5331 2713 
L 3891 2713 
z
M 3891 1778 
L 3891 1166 
L 5331 1166 
L 5331 1778 
L 3891 1778 
z
M 2028 4544 
L 3153 4544 
L 3153 3550 
L 2744 3550 
L 2744 4178 
L 850 4178 
L 850 3447 
L 447 3447 
L 447 4544 
L 1600 4544 
L 1600 5313 
L 2028 5313 
L 2028 4544 
z
M 2975 -178 
Q 3666 178 4081 756 
L 4447 538 
Q 3956 -109 3300 -513 
L 2975 -178 
z
M 5797 -428 
Q 5275 163 4806 531 
L 5125 769 
Q 5644 403 6150 -122 
L 5797 -428 
z
" transform="scale(0.015625)"/>
     <path id="IPAexGothic-3068" d="M 5222 56 
Q 4200 -72 3450 -72 
Q 2478 -72 1941 113 
Q 1184 372 1184 1038 
Q 1184 1584 1594 2009 
Q 1941 2369 2656 2725 
Q 2231 3734 1972 4878 
L 2491 4978 
Q 2706 3884 3078 2950 
Q 4250 3447 4756 3616 
L 4978 3150 
Q 3181 2575 2409 2078 
Q 1691 1613 1691 1113 
Q 1691 403 3322 403 
Q 4125 403 5134 563 
L 5222 56 
z
" transform="scale(0.015625)"/>
     <path id="IPAexGothic-30c1" d="M 3088 2853 
L 3088 3981 
Q 2359 3847 1531 3797 
L 1288 4238 
Q 3200 4344 4553 4872 
L 4909 4456 
Q 4244 4216 3606 4078 
L 3606 2913 
L 5806 2913 
L 5806 2459 
L 3600 2459 
Q 3559 1422 3188 850 
Q 2722 138 1738 -256 
L 1347 153 
Q 2319 500 2709 1081 
Q 3031 1563 3081 2400 
L 597 2400 
L 597 2853 
L 3088 2853 
z
" transform="scale(0.015625)"/>
     <path id="IPAexGothic-30c3" d="M 1775 1984 
Q 1553 2666 1275 3175 
L 1716 3391 
Q 2034 2866 2247 2209 
L 1775 1984 
z
M 3003 2297 
Q 2813 2978 2522 3469 
L 2978 3681 
Q 3291 3166 3484 2522 
L 3003 2297 
z
M 1928 372 
Q 3094 744 3731 1569 
Q 4275 2263 4469 3525 
L 4975 3406 
Q 4734 1975 4016 1119 
Q 3406 391 2266 -44 
L 1928 372 
z
" transform="scale(0.015625)"/>
     <path id="IPAexGothic-30d7" d="M 4825 4275 
L 5125 4000 
Q 4884 2378 4081 1381 
Q 3294 413 1888 -116 
L 1522 331 
Q 4069 1113 4550 3803 
L 966 3738 
L 966 4225 
L 4825 4275 
z
M 5597 5509 
Q 5906 5509 6119 5275 
Q 6303 5075 6303 4806 
Q 6303 4494 6069 4281 
Q 5866 4097 5597 4097 
Q 5284 4097 5072 4331 
Q 4888 4534 4888 4806 
Q 4888 5116 5122 5328 
Q 5328 5509 5597 5509 
z
M 5597 5228 
Q 5409 5228 5278 5088 
Q 5169 4966 5169 4806 
Q 5169 4616 5309 4488 
Q 5434 4378 5597 4378 
Q 5784 4378 5913 4519 
Q 6022 4641 6022 4806 
Q 6022 4991 5881 5119 
Q 5759 5228 5597 5228 
z
" transform="scale(0.015625)"/>
     <path id="IPAexGothic-306e" d="M 3119 469 
Q 5275 766 5275 2425 
Q 5275 3453 4413 3925 
Q 4041 4116 3547 4159 
Q 3394 2525 2850 1400 
Q 2322 306 1722 306 
Q 1384 306 1084 666 
Q 609 1244 609 2003 
Q 609 3025 1397 3794 
Q 2184 4563 3431 4563 
Q 4306 4563 4928 4122 
Q 5813 3506 5813 2425 
Q 5813 438 3431 6 
L 3119 469 
z
M 3053 4147 
Q 2378 4044 1891 3641 
Q 1097 2981 1097 1991 
Q 1097 1366 1434 978 
Q 1581 813 1719 813 
Q 2022 813 2416 1625 
Q 2909 2638 3053 4147 
z
" transform="scale(0.015625)"/>
     <path id="IPAexGothic-95a2" d="M 2919 5063 
L 2919 3288 
L 1016 3288 
L 1016 -450 
L 569 -450 
L 569 5063 
L 2919 5063 
z
M 1016 4709 
L 1016 4331 
L 2509 4331 
L 2509 4709 
L 1016 4709 
z
M 1016 4019 
L 1016 3628 
L 2509 3628 
L 2509 4019 
L 1016 4019 
z
M 5822 5063 
L 5822 44 
Q 5822 -409 5297 -409 
Q 4956 -409 4672 -366 
L 4594 97 
Q 4841 31 5156 31 
Q 5369 31 5369 244 
L 5369 3288 
L 3422 3288 
L 3422 5063 
L 5822 5063 
z
M 3831 4709 
L 3831 4331 
L 5369 4331 
L 5369 4709 
L 3831 4709 
z
M 3831 4019 
L 3831 3628 
L 5369 3628 
L 5369 4019 
L 3831 4019 
z
M 2425 2478 
Q 2328 2713 2150 2975 
L 2559 3122 
Q 2709 2866 2859 2478 
L 3525 2478 
Q 3716 2847 3806 3147 
L 4256 3022 
Q 4084 2669 3953 2478 
L 4766 2478 
L 4766 2113 
L 3391 2113 
L 3391 1672 
L 4928 1672 
L 4928 1300 
L 3366 1300 
Q 3363 1263 3334 1141 
Q 4016 863 4734 409 
L 4428 34 
Q 3888 441 3281 763 
Q 3278 766 3241 788 
Q 3225 797 3219 800 
Q 2881 100 1875 -256 
L 1588 122 
Q 2769 409 2931 1300 
L 1466 1300 
L 1466 1672 
L 2963 1672 
L 2963 2113 
L 1625 2113 
L 1625 2478 
L 2425 2478 
z
" transform="scale(0.015625)"/>
     <path id="IPAexGothic-4fc2" d="M 3672 2763 
Q 4203 3306 4741 4013 
L 5131 3750 
Q 4428 2884 3641 2194 
L 4288 2219 
Q 4478 2228 4819 2247 
Q 5084 2259 5197 2266 
Q 5016 2553 4741 2891 
L 5094 3097 
Q 5569 2553 5984 1822 
L 5600 1547 
Q 5478 1791 5394 1938 
Q 4747 1866 4050 1828 
L 4050 -450 
L 3603 -450 
L 3603 1803 
L 3066 1778 
Q 2728 1759 2028 1741 
L 1888 2175 
L 2003 2175 
L 2175 2175 
L 2450 2181 
L 3066 2181 
L 3103 2219 
Q 3266 2363 3372 2469 
Q 2813 3084 2247 3556 
L 2572 3884 
Q 2888 3600 2919 3569 
Q 3309 3963 3659 4472 
Q 2938 4384 2234 4338 
L 2059 4747 
Q 3884 4844 5266 5163 
L 5619 4784 
Q 4719 4597 3794 4484 
L 4106 4269 
Q 3725 3781 3297 3372 
L 3206 3281 
Q 3441 3034 3672 2763 
z
M 1578 3675 
L 1578 -447 
L 1125 -447 
L 1125 2741 
Q 834 2247 544 1856 
L 294 2253 
Q 1213 3503 1603 5241 
L 2044 5141 
Q 1841 4322 1578 3675 
z
M 1875 122 
Q 2391 684 2700 1441 
L 3116 1253 
Q 2794 447 2241 -206 
L 1875 122 
z
M 5447 -72 
Q 5009 716 4478 1313 
L 4844 1544 
Q 5453 934 5856 244 
L 5447 -72 
z
" transform="scale(0.015625)"/>
     <path id="IPAexGothic-ff08" d="M 5419 -434 
Q 4197 769 4197 2438 
Q 4197 4097 5419 5300 
L 5919 5300 
Q 4678 4078 4678 2425 
Q 4678 788 5919 -434 
L 5419 -434 
z
" transform="scale(0.015625)"/>
     <path id="IPAexGothic-56de" d="M 4519 3647 
L 4519 1178 
L 1875 1178 
L 1875 3647 
L 4519 3647 
z
M 2328 3250 
L 2328 1575 
L 4066 1575 
L 4066 3250 
L 2328 3250 
z
M 5722 4891 
L 5722 -456 
L 5247 -456 
L 5247 -103 
L 1147 -103 
L 1147 -456 
L 672 -456 
L 672 4891 
L 5722 4891 
z
M 1147 4475 
L 1147 313 
L 5247 313 
L 5247 4475 
L 1147 4475 
z
" transform="scale(0.015625)"/>
     <path id="IPAexGothic-5e30" d="M 5472 5044 
L 5472 3109 
L 2541 3109 
L 2541 3481 
L 5031 3481 
L 5031 3909 
L 2700 3909 
L 2700 4269 
L 5031 4269 
L 5031 4672 
L 2559 4672 
L 2559 5044 
L 5472 5044 
z
M 6022 2675 
L 6022 1631 
L 5594 1631 
L 5594 2297 
L 4244 2297 
L 4244 1784 
L 5503 1784 
L 5503 384 
Q 5503 -19 5056 -19 
Q 4809 -19 4488 13 
L 4441 428 
Q 4719 378 4928 378 
Q 5088 378 5088 544 
L 5088 1419 
L 4244 1419 
L 4244 -447 
L 3816 -447 
L 3816 1419 
L 3091 1419 
L 3091 -97 
L 2675 -97 
L 2675 1784 
L 3816 1784 
L 3816 2297 
L 2584 2297 
L 2584 1631 
L 2156 1631 
L 2156 2675 
L 6022 2675 
z
M 634 4441 
L 1063 4441 
L 1063 1869 
L 634 1869 
L 634 4441 
z
M 1484 5209 
L 1931 5209 
L 1931 3109 
Q 1931 1747 1722 1019 
Q 1463 153 819 -513 
L 506 -122 
Q 1072 388 1313 1216 
Q 1484 1841 1484 2975 
L 1484 5209 
z
" transform="scale(0.015625)"/>
     <path id="IPAexGothic-7dda" d="M 1247 3078 
Q 838 3659 378 4122 
L 666 4428 
Q 788 4306 916 4153 
Q 1281 4681 1541 5331 
L 1956 5119 
Q 1553 4391 1156 3866 
Q 1394 3547 1478 3419 
Q 1863 3991 2156 4550 
L 2541 4313 
Q 1859 3213 1319 2572 
Q 1700 2581 2266 2631 
Q 2169 2872 2016 3150 
L 2366 3303 
Q 2675 2750 2884 2106 
L 2500 1919 
Q 2494 1947 2378 2322 
Q 2147 2281 1791 2234 
L 1791 -447 
L 1369 -447 
L 1369 2181 
Q 975 2134 428 2106 
L 281 2534 
Q 722 2544 863 2553 
Q 947 2666 1247 3078 
z
M 4678 1553 
L 4678 25 
Q 4678 -231 4569 -319 
Q 4472 -397 4225 -397 
Q 3991 -397 3725 -366 
L 3659 56 
Q 3891 13 4122 13 
Q 4275 13 4275 184 
L 4275 2444 
L 3116 2444 
L 3116 4691 
L 4019 4691 
Q 4091 4934 4178 5356 
L 4647 5278 
Q 4506 4884 4416 4691 
L 5772 4691 
L 5772 2444 
L 4697 2444 
Q 4803 1978 5025 1594 
Q 5416 1984 5644 2316 
L 6003 2047 
Q 5578 1584 5216 1288 
Q 5609 738 6213 269 
L 5938 -116 
Q 5056 606 4678 1553 
z
M 3531 4331 
L 3531 3756 
L 5356 3756 
L 5356 4331 
L 3531 4331 
z
M 3531 3403 
L 3531 2803 
L 5356 2803 
L 5356 3403 
L 3531 3403 
z
M 353 206 
Q 566 769 653 1759 
L 1063 1709 
Q 984 678 769 -13 
L 353 206 
z
M 2322 428 
Q 2222 1150 2009 1759 
L 2375 1869 
Q 2581 1366 2738 616 
L 2322 428 
z
M 2834 1925 
L 3950 1925 
L 4153 1747 
Q 3781 534 2878 -231 
L 2578 69 
Q 3359 666 3666 1541 
L 2834 1541 
L 2834 1925 
z
" transform="scale(0.015625)"/>
     <path id="IPAexGothic-4ed8" d="M 1681 3769 
L 1681 -447 
L 1213 -447 
L 1213 2822 
Q 913 2313 578 1863 
L 316 2253 
Q 1241 3463 1653 5184 
L 2128 5069 
Q 1928 4378 1719 3859 
L 1681 3769 
z
M 5084 3816 
L 5991 3816 
L 5991 3388 
L 5109 3388 
L 5109 213 
Q 5109 -78 5006 -191 
Q 4888 -319 4525 -319 
Q 4031 -319 3513 -266 
L 3431 238 
Q 3978 141 4403 141 
Q 4634 141 4634 384 
L 4634 3388 
L 2028 3388 
L 2028 3816 
L 4609 3816 
L 4609 5153 
L 5084 5153 
L 5084 3816 
z
M 3431 1172 
Q 3034 1994 2547 2566 
L 2931 2822 
Q 3428 2231 3853 1472 
L 3431 1172 
z
" transform="scale(0.015625)"/>
     <path id="IPAexGothic-304d" d="M 2944 1600 
Q 2369 1600 2053 1428 
Q 1772 1275 1772 1019 
Q 1772 666 2200 481 
Q 2600 309 3903 309 
Q 4138 309 4397 331 
L 4422 -147 
Q 4203 -166 3969 -166 
Q 2325 -166 1819 141 
Q 1313 444 1313 994 
Q 1313 1447 1791 1738 
Q 2219 1997 2859 1997 
Q 3319 1997 3606 1947 
Q 3894 1894 4216 1759 
Q 3953 2050 3506 2791 
Q 2263 2547 1191 2491 
L 1094 2956 
Q 2263 2966 3281 3175 
Q 3019 3647 2950 3794 
Q 2125 3641 1253 3622 
L 1166 4063 
Q 2013 4063 2750 4184 
Q 2478 4744 2381 4984 
L 2841 5131 
Q 2925 4916 3213 4281 
Q 3888 4438 4459 4709 
L 4672 4313 
Q 4119 4056 3409 3891 
Q 3638 3447 3738 3284 
Q 4528 3503 5113 3794 
L 5331 3366 
Q 4738 3094 3953 2900 
Q 4272 2366 4903 1484 
L 4575 1147 
Q 3888 1600 2944 1600 
z
" transform="scale(0.015625)"/>
     <path id="IPAexGothic-ff09" d="M 481 -434 
Q 1722 788 1722 2431 
Q 1722 4066 481 5300 
L 981 5300 
Q 2203 4097 2203 2431 
Q 2203 769 981 -434 
L 481 -434 
z
" transform="scale(0.015625)"/>
    </defs>
    <use xlink:href="#IPAexGothic-4f1a"/>
    <use xlink:href="#IPAexGothic-8a08" transform="translate(100 0)"/>
    <use xlink:href="#IPAexGothic-984d" transform="translate(200 0)"/>
    <use xlink:href="#IPAexGothic-3068" transform="translate(300 0)"/>
    <use xlink:href="#IPAexGothic-30c1" transform="translate(400 0)"/>
    <use xlink:href="#IPAexGothic-30c3" transform="translate(500 0)"/>
    <use xlink:href="#IPAexGothic-30d7" transform="translate(600 0)"/>
    <use xlink:href="#IPAexGothic-306e" transform="translate(700 0)"/>
    <use xlink:href="#IPAexGothic-95a2" transform="translate(800 0)"/>
    <use xlink:href="#IPAexGothic-4fc2" transform="translate(900 0)"/>
    <use xlink:href="#IPAexGothic-ff08" transform="translate(1000 0)"/>
    <use xlink:href="#IPAexGothic-56de" transform="translate(1100 0)"/>
    <use xlink:href="#IPAexGothic-5e30" transform="translate(1200 0)"/>
    <use xlink:href="#IPAexGothic-7dda" transform="translate(1300 0)"/>
    <use xlink:href="#IPAexGothic-4ed8" transform="translate(1400 0)"/>
    <use xlink:href="#IPAexGothic-304d" transform="translate(1500 0)"/>
    <use xlink:href="#IPAexGothic-ff09" transform="translate(1600 0)"/>
   </g>
  </g>
  <g id="legend_1">
   <g id="text_14">
    <!-- time -->
    <g style="fill: #262626" transform="translate(359.525156 127.124687) scale(0.12 -0.12)">
     <defs>
      <path id="IPAexGothic-6d" d="M 5022 63 
L 4472 63 
L 4472 2059 
Q 4472 2869 3847 2869 
Q 3550 2869 3303 2594 
Q 3128 2397 3059 2103 
L 3059 63 
L 2509 63 
L 2509 2066 
Q 2509 2869 1919 2869 
Q 1606 2869 1369 2594 
Q 1113 2306 1113 2041 
L 1113 63 
L 563 63 
L 563 3250 
L 1075 3250 
L 1075 2700 
Q 1391 3316 2028 3316 
Q 2725 3316 2956 2647 
Q 3303 3316 3953 3316 
Q 4478 3316 4772 2944 
Q 5022 2638 5022 2072 
L 5022 63 
z
" transform="scale(0.015625)"/>
      <path id="IPAexGothic-65" d="M 863 1594 
Q 891 1041 1209 722 
Q 1534 397 1997 397 
Q 2606 397 2963 966 
L 3322 728 
Q 2869 -31 1931 -31 
Q 1222 -31 766 422 
Q 306 884 306 1641 
Q 306 2444 788 2925 
Q 1216 3353 1856 3353 
Q 2459 3353 2866 2956 
Q 3322 2494 3322 1722 
L 3322 1594 
L 863 1594 
z
M 2756 1997 
Q 2709 2431 2450 2681 
Q 2194 2938 1844 2938 
Q 1438 2938 1150 2591 
Q 953 2356 894 1997 
L 2756 1997 
z
" transform="scale(0.015625)"/>
     </defs>
     <use xlink:href="#IPAexGothic-74"/>
     <use xlink:href="#IPAexGothic-69" transform="translate(34.619141 0)"/>
     <use xlink:href="#IPAexGothic-6d" transform="translate(61.621094 0)"/>
     <use xlink:href="#IPAexGothic-65" transform="translate(148.730469 0)"/>
    </g>
   </g>
   <g id="PathCollection_3">
    <defs>
     <path id="mbdeae8e0c1" d="M 0 6.324555 
C 1.677292 6.324555 3.286112 5.65816 4.472136 4.472136 
C 5.65816 3.286112 6.324555 1.677292 6.324555 0 
C 6.324555 -1.677292 5.65816 -3.286112 4.472136 -4.472136 
C 3.286112 -5.65816 1.677292 -6.324555 0 -6.324555 
C -1.677292 -6.324555 -3.286112 -5.65816 -4.472136 -4.472136 
C -5.65816 -3.286112 -6.324555 -1.677292 -6.324555 0 
C -6.324555 1.677292 -5.65816 3.286112 -4.472136 4.472136 
C -3.286112 5.65816 -1.677292 6.324555 0 6.324555 
z
" style="stroke: #4c72b0; stroke-opacity: 0.6"/>
    </defs>
    <g>
     <use xlink:href="#mbdeae8e0c1" x="350.005312" y="144.656875" style="fill: #4c72b0; fill-opacity: 0.6; stroke: #4c72b0; stroke-opacity: 0.6"/>
    </g>
   </g>
   <g id="text_15">
    <!-- Lunch -->
    <g style="fill: #262626" transform="translate(369.805312 147.544375) scale(0.11 -0.11)">
     <defs>
      <path id="IPAexGothic-4c" d="M 3347 63 
L 609 63 
L 609 4634 
L 1178 4634 
L 1178 563 
L 3347 563 
L 3347 63 
z
" transform="scale(0.015625)"/>
      <path id="IPAexGothic-75" d="M 3284 63 
L 2772 63 
L 2772 644 
Q 2300 0 1625 0 
Q 1072 0 763 375 
Q 519 678 519 1241 
L 519 3250 
L 1069 3250 
L 1069 1259 
Q 1069 466 1734 466 
Q 2406 466 2734 1291 
L 2734 3250 
L 3284 3250 
L 3284 63 
z
" transform="scale(0.015625)"/>
      <path id="IPAexGothic-6e" d="M 3328 63 
L 2778 63 
L 2778 2041 
Q 2778 2853 2106 2853 
Q 1428 2853 1113 2041 
L 1113 63 
L 563 63 
L 563 3250 
L 1075 3250 
L 1075 2675 
Q 1525 3316 2222 3316 
Q 3328 3316 3328 2072 
L 3328 63 
z
" transform="scale(0.015625)"/>
      <path id="IPAexGothic-63" d="M 3269 784 
Q 2834 -31 1900 -31 
Q 1228 -31 788 409 
Q 313 891 313 1663 
Q 313 2428 788 2913 
Q 1222 3347 1881 3347 
Q 2813 3347 3206 2541 
L 2763 2309 
Q 2484 2900 1900 2900 
Q 1516 2900 1234 2619 
Q 881 2266 881 1650 
Q 881 1069 1222 728 
Q 1522 428 1956 428 
Q 2547 428 2847 1016 
L 3269 784 
z
" transform="scale(0.015625)"/>
      <path id="IPAexGothic-68" d="M 3347 63 
L 2797 63 
L 2797 2041 
Q 2797 2853 2131 2853 
Q 1447 2853 1131 2041 
L 1131 63 
L 581 63 
L 581 4794 
L 1131 4794 
L 1131 2706 
Q 1566 3316 2247 3316 
Q 3347 3316 3347 2072 
L 3347 63 
z
" transform="scale(0.015625)"/>
     </defs>
     <use xlink:href="#IPAexGothic-4c"/>
     <use xlink:href="#IPAexGothic-75" transform="translate(52.587891 0)"/>
     <use xlink:href="#IPAexGothic-6e" transform="translate(112.988281 0)"/>
     <use xlink:href="#IPAexGothic-63" transform="translate(173.388672 0)"/>
     <use xlink:href="#IPAexGothic-68" transform="translate(227.783203 0)"/>
    </g>
   </g>
   <g id="PathCollection_4">
    <defs>
     <path id="me0c4eb8524" d="M 0 6.324555 
C 1.677292 6.324555 3.286112 5.65816 4.472136 4.472136 
C 5.65816 3.286112 6.324555 1.677292 6.324555 0 
C 6.324555 -1.677292 5.65816 -3.286112 4.472136 -4.472136 
C 3.286112 -5.65816 1.677292 -6.324555 0 -6.324555 
C -1.677292 -6.324555 -3.286112 -5.65816 -4.472136 -4.472136 
C -5.65816 -3.286112 -6.324555 -1.677292 -6.324555 0 
C -6.324555 1.677292 -5.65816 3.286112 -4.472136 4.472136 
C -3.286112 5.65816 -1.677292 6.324555 0 6.324555 
z
" style="stroke: #dd8452; stroke-opacity: 0.6"/>
    </defs>
    <g>
     <use xlink:href="#me0c4eb8524" x="350.005312" y="164.886563" style="fill: #dd8452; fill-opacity: 0.6; stroke: #dd8452; stroke-opacity: 0.6"/>
    </g>
   </g>
   <g id="text_16">
    <!-- Dinner -->
    <g style="fill: #262626" transform="translate(369.805312 167.774063) scale(0.11 -0.11)">
     <defs>
      <path id="IPAexGothic-44" d="M 609 4634 
L 1984 4634 
Q 3159 4634 3791 4050 
Q 4456 3444 4456 2356 
Q 4456 1047 3516 441 
Q 2925 63 1941 63 
L 609 63 
L 609 4634 
z
M 1172 556 
L 1894 556 
Q 3853 556 3853 2356 
Q 3853 4147 1928 4147 
L 1172 4147 
L 1172 556 
z
" transform="scale(0.015625)"/>
      <path id="IPAexGothic-72" d="M 2309 3316 
L 2213 2769 
Q 2106 2791 2022 2791 
Q 1653 2791 1413 2444 
Q 1113 2006 1113 1675 
L 1113 63 
L 563 63 
L 563 3250 
L 1081 3250 
L 1056 2303 
L 1069 2303 
Q 1422 3341 2097 3341 
Q 2206 3341 2309 3316 
z
" transform="scale(0.015625)"/>
     </defs>
     <use xlink:href="#IPAexGothic-44"/>
     <use xlink:href="#IPAexGothic-69" transform="translate(75.683594 0)"/>
     <use xlink:href="#IPAexGothic-6e" transform="translate(102.685547 0)"/>
     <use xlink:href="#IPAexGothic-6e" transform="translate(163.085938 0)"/>
     <use xlink:href="#IPAexGothic-65" transform="translate(223.486328 0)"/>
     <use xlink:href="#IPAexGothic-72" transform="translate(280.371094 0)"/>
    </g>
   </g>
  </g>
 </g>
 <defs>
  <clipPath id="p9f0e1ce5eb">
   <rect x="62.908594" y="12.96" width="278.490206" height="226.98"/>
  </clipPath>
 </defs>
</svg>
