<?xml version="1.0" encoding="utf-8" standalone="no"?>
<!DOCTYPE svg PUBLIC "-//W3C//DTD SVG 1.1//EN"
  "http://www.w3.org/Graphics/SVG/1.1/DTD/svg11.dtd">
<svg xmlns:xlink="http://www.w3.org/1999/xlink" width="446.4pt" height="288pt" viewBox="0 0 446.4 288" xmlns="http://www.w3.org/2000/svg" version="1.1">
 <metadata>
  <rdf:RDF xmlns:dc="http://purl.org/dc/elements/1.1/" xmlns:cc="http://creativecommons.org/ns#" xmlns:rdf="http://www.w3.org/1999/02/22-rdf-syntax-ns#">
   <cc:Work>
    <dc:type rdf:resource="http://purl.org/dc/dcmitype/StillImage"/>
    <dc:date>2025-10-29T08:53:11.554312</dc:date>
    <dc:format>image/svg+xml</dc:format>
    <dc:creator>
     <cc:Agent>
      <dc:title>Matplotlib v3.10.7, https://matplotlib.org/</dc:title>
     </cc:Agent>
    </dc:creator>
   </cc:Work>
  </rdf:RDF>
 </metadata>
 <defs>
  <style type="text/css">*{stroke-linejoin: round; stroke-linecap: butt}</style>
 </defs>
 <g id="figure_1">
  <g id="patch_1">
   <path d="M 0 288 
L 446.4 288 
L 446.4 0 
L 0 0 
z
" style="fill: #ffffff"/>
  </g>
  <g id="axes_1">
   <g id="patch_2">
    <path d="M 87.73 242.44 
L 424.121111 242.44 
L 424.121111 30.48 
L 87.73 30.48 
z
" style="fill: #ffffff"/>
   </g>
   <g id="patch_3">
    <path d="M 87.73 232.805455 
L 87.731424 232.805455 
L 87.731424 192.238947 
L 87.73 192.238947 
z
" clip-path="url(#p699b5ea05e)" style="fill: #f1f5f9"/>
   </g>
   <g id="patch_4">
    <path d="M 87.73 232.805455 
L 87.730949 232.805455 
L 87.730949 192.238947 
L 87.73 192.238947 
z
" clip-path="url(#p699b5ea05e)" style="fill: #cbd5f5"/>
   </g>
   <g id="patch_5">
    <path d="M 87.73 232.805455 
L 87.730475 232.805455 
L 87.730475 192.238947 
L 87.73 192.238947 
z
" clip-path="url(#p699b5ea05e)" style="fill: #94a3b8"/>
   </g>
   <g id="patch_6">
    <path d="M 87.73 220.128421 
L 87.731092 220.128421 
L 87.731092 204.915981 
L 87.73 204.915981 
z
" clip-path="url(#p699b5ea05e)" style="fill: #38bdf8"/>
   </g>
   <g id="patch_7">
    <path d="M 87.73 182.097321 
L 408.102487 182.097321 
L 408.102487 141.530813 
L 87.73 141.530813 
z
" clip-path="url(#p699b5ea05e)" style="fill: #f1f5f9"/>
   </g>
   <g id="patch_8">
    <path d="M 87.73 182.097321 
L 348.774248 182.097321 
L 348.774248 141.530813 
L 87.73 141.530813 
z
" clip-path="url(#p699b5ea05e)" style="fill: #cbd5f5"/>
   </g>
   <g id="patch_9">
    <path d="M 87.73 182.097321 
L 301.311658 182.097321 
L 301.311658 141.530813 
L 87.73 141.530813 
z
" clip-path="url(#p699b5ea05e)" style="fill: #94a3b8"/>
   </g>
   <g id="patch_10">
    <path d="M 87.73 169.420287 
L 379.624932 169.420287 
L 379.624932 154.207847 
L 87.73 154.207847 
z
" clip-path="url(#p699b5ea05e)" style="fill: #38bdf8"/>
   </g>
   <g id="patch_11">
    <path d="M 87.73 131.389187 
L 87.750172 131.389187 
L 87.750172 90.822679 
L 87.73 90.822679 
z
" clip-path="url(#p699b5ea05e)" style="fill: #f1f5f9"/>
   </g>
   <g id="patch_12">
    <path d="M 87.73 131.389187 
L 87.747798 131.389187 
L 87.747798 90.822679 
L 87.73 90.822679 
z
" clip-path="url(#p699b5ea05e)" style="fill: #cbd5f5"/>
   </g>
   <g id="patch_13">
    <path d="M 87.73 131.389187 
L 87.744239 131.389187 
L 87.744239 90.822679 
L 87.73 90.822679 
z
" clip-path="url(#p699b5ea05e)" style="fill: #94a3b8"/>
   </g>
   <g id="patch_14">
    <path d="M 87.73 118.712153 
L 87.74851 118.712153 
L 87.74851 103.499713 
L 87.73 103.499713 
z
" clip-path="url(#p699b5ea05e)" style="fill: #38bdf8"/>
   </g>
   <g id="patch_15">
    <path d="M 87.73 80.681053 
L 88.679252 80.681053 
L 88.679252 40.114545 
L 87.73 40.114545 
z
" clip-path="url(#p699b5ea05e)" style="fill: #f1f5f9"/>
   </g>
   <g id="patch_16">
    <path d="M 87.73 80.681053 
L 88.323282 80.681053 
L 88.323282 40.114545 
L 87.73 40.114545 
z
" clip-path="url(#p699b5ea05e)" style="fill: #cbd5f5"/>
   </g>
   <g id="patch_17">
    <path d="M 87.73 80.681053 
L 87.967313 80.681053 
L 87.967313 40.114545 
L 87.73 40.114545 
z
" clip-path="url(#p699b5ea05e)" style="fill: #94a3b8"/>
   </g>
   <g id="patch_18">
    <path d="M 87.73 68.004019 
L 88.489401 68.004019 
L 88.489401 52.791579 
L 87.73 52.791579 
z
" clip-path="url(#p699b5ea05e)" style="fill: #38bdf8"/>
   </g>
   <g id="matplotlib.axis_1">
    <g id="xtick_1">
     <g id="line2d_1">
      <path d="M 87.73 242.44 
L 87.73 30.48 
" clip-path="url(#p699b5ea05e)" style="fill: none; stroke: #000000; stroke-opacity: 0.2; stroke-width: 0.5; stroke-linecap: square"/>
     </g>
     <g id="line2d_2">
      <defs>
       <path id="md09f5bf153" d="M 0 0 
L 0 3.5 
" style="stroke: #000000; stroke-width: 0.8"/>
      </defs>
      <g>
       <use xlink:href="#md09f5bf153" x="87.73" y="242.44" style="stroke: #000000; stroke-width: 0.8"/>
      </g>
     </g>
     <g id="text_1">
      <!-- 0 -->
      <g transform="translate(84.580781 256.930625) scale(0.1 -0.1)">
       <defs>
        <path id="IPAexGothic-30" d="M 2038 4725 
Q 2881 4725 3334 3944 
Q 3694 3325 3694 2344 
Q 3694 1372 3334 741 
Q 2888 -31 2016 -31 
Q 1147 -31 700 741 
Q 341 1372 341 2350 
Q 341 3713 1000 4334 
Q 1419 4725 2038 4725 
z
M 2016 4266 
Q 1516 4266 1228 3759 
Q 934 3247 934 2344 
Q 934 1456 1222 947 
Q 1513 447 2016 447 
Q 2619 447 2909 1153 
Q 3100 1622 3100 2375 
Q 3100 3256 2806 3759 
Q 2509 4266 2016 4266 
z
" transform="scale(0.015625)"/>
       </defs>
       <use xlink:href="#IPAexGothic-30"/>
      </g>
     </g>
    </g>
    <g id="xtick_2">
     <g id="line2d_3">
      <path d="M 135.192591 242.44 
L 135.192591 30.48 
" clip-path="url(#p699b5ea05e)" style="fill: none; stroke: #000000; stroke-opacity: 0.2; stroke-width: 0.5; stroke-linecap: square"/>
     </g>
     <g id="line2d_4">
      <g>
       <use xlink:href="#md09f5bf153" x="135.192591" y="242.44" style="stroke: #000000; stroke-width: 0.8"/>
      </g>
     </g>
     <g id="text_2">
      <!-- 2000 -->
      <g transform="translate(122.595716 256.930625) scale(0.1 -0.1)">
       <defs>
        <path id="IPAexGothic-32" d="M 3659 63 
L 447 63 
L 447 594 
Q 825 1475 1894 2203 
L 2072 2322 
Q 2619 2697 2791 2906 
Q 2988 3153 2988 3444 
Q 2988 3772 2756 4003 
Q 2500 4259 2084 4259 
Q 1250 4259 991 3328 
L 497 3506 
Q 853 4725 2116 4725 
Q 2806 4725 3216 4316 
Q 3575 3947 3575 3425 
Q 3575 3038 3344 2722 
Q 3131 2416 2366 1938 
L 2231 1856 
Q 1256 1253 978 569 
L 3659 569 
L 3659 63 
z
" transform="scale(0.015625)"/>
       </defs>
       <use xlink:href="#IPAexGothic-32"/>
       <use xlink:href="#IPAexGothic-30" transform="translate(62.988281 0)"/>
       <use xlink:href="#IPAexGothic-30" transform="translate(125.976562 0)"/>
       <use xlink:href="#IPAexGothic-30" transform="translate(188.964844 0)"/>
      </g>
     </g>
    </g>
    <g id="xtick_3">
     <g id="line2d_5">
      <path d="M 182.655181 242.44 
L 182.655181 30.48 
" clip-path="url(#p699b5ea05e)" style="fill: none; stroke: #000000; stroke-opacity: 0.2; stroke-width: 0.5; stroke-linecap: square"/>
     </g>
     <g id="line2d_6">
      <g>
       <use xlink:href="#md09f5bf153" x="182.655181" y="242.44" style="stroke: #000000; stroke-width: 0.8"/>
      </g>
     </g>
     <g id="text_3">
      <!-- 4000 -->
      <g transform="translate(170.058306 256.930625) scale(0.1 -0.1)">
       <defs>
        <path id="IPAexGothic-34" d="M 3813 1159 
L 3059 1159 
L 3059 63 
L 2547 63 
L 2547 1159 
L 197 1159 
L 197 1672 
L 2456 4678 
L 3059 4678 
L 3059 1634 
L 3813 1634 
L 3813 1159 
z
M 2578 4109 
L 2559 4109 
Q 2278 3656 2003 3284 
L 759 1634 
L 2547 1634 
L 2547 3144 
Q 2547 3481 2578 4109 
z
" transform="scale(0.015625)"/>
       </defs>
       <use xlink:href="#IPAexGothic-34"/>
       <use xlink:href="#IPAexGothic-30" transform="translate(62.988281 0)"/>
       <use xlink:href="#IPAexGothic-30" transform="translate(125.976562 0)"/>
       <use xlink:href="#IPAexGothic-30" transform="translate(188.964844 0)"/>
      </g>
     </g>
    </g>
    <g id="xtick_4">
     <g id="line2d_7">
      <path d="M 230.117772 242.44 
L 230.117772 30.48 
" clip-path="url(#p699b5ea05e)" style="fill: none; stroke: #000000; stroke-opacity: 0.2; stroke-width: 0.5; stroke-linecap: square"/>
     </g>
     <g id="line2d_8">
      <g>
       <use xlink:href="#md09f5bf153" x="230.117772" y="242.44" style="stroke: #000000; stroke-width: 0.8"/>
      </g>
     </g>
     <g id="text_4">
      <!-- 6000 -->
      <g transform="translate(217.520897 256.930625) scale(0.1 -0.1)">
       <defs>
        <path id="IPAexGothic-36" d="M 1056 2328 
Q 1509 2981 2234 2981 
Q 2906 2981 3316 2513 
Q 3675 2106 3675 1522 
Q 3675 884 3272 434 
Q 2853 -31 2178 -31 
Q 1375 -31 922 581 
Q 481 1178 481 2228 
Q 481 3425 1013 4109 
Q 1494 4725 2272 4725 
Q 3191 4725 3609 4025 
L 3150 3775 
Q 2894 4266 2300 4266 
Q 1119 4266 1031 2328 
L 1056 2328 
z
M 2141 2547 
Q 1684 2547 1384 2206 
Q 1116 1900 1116 1541 
Q 1116 1156 1353 844 
Q 1672 428 2159 428 
Q 2669 428 2941 844 
Q 3125 1128 3125 1503 
Q 3125 1944 2881 2228 
Q 2600 2547 2141 2547 
z
" transform="scale(0.015625)"/>
       </defs>
       <use xlink:href="#IPAexGothic-36"/>
       <use xlink:href="#IPAexGothic-30" transform="translate(62.988281 0)"/>
       <use xlink:href="#IPAexGothic-30" transform="translate(125.976562 0)"/>
       <use xlink:href="#IPAexGothic-30" transform="translate(188.964844 0)"/>
      </g>
     </g>
    </g>
    <g id="xtick_5">
     <g id="line2d_9">
      <path d="M 277.580363 242.44 
L 277.580363 30.48 
" clip-path="url(#p699b5ea05e)" style="fill: none; stroke: #000000; stroke-opacity: 0.2; stroke-width: 0.5; stroke-linecap: square"/>
     </g>
     <g id="line2d_10">
      <g>
       <use xlink:href="#md09f5bf153" x="277.580363" y="242.44" style="stroke: #000000; stroke-width: 0.8"/>
      </g>
     </g>
     <g id="text_5">
      <!-- 8000 -->
      <g transform="translate(264.983488 256.930625) scale(0.1 -0.1)">
       <defs>
        <path id="IPAexGothic-38" d="M 2541 2425 
Q 3700 2031 3700 1197 
Q 3700 541 3100 197 
Q 2663 -56 2016 -56 
Q 1366 -56 928 197 
Q 347 531 347 1178 
Q 347 1988 1409 2381 
L 1409 2400 
Q 481 2734 481 3509 
Q 481 4100 981 4456 
Q 1406 4756 2019 4756 
Q 2703 4756 3131 4403 
Q 3553 4069 3553 3566 
Q 3553 2706 2541 2444 
L 2541 2425 
z
M 2022 2625 
Q 2997 2856 2997 3528 
Q 2997 3916 2675 4150 
Q 2413 4347 2016 4347 
Q 1606 4347 1331 4128 
Q 1050 3897 1050 3522 
Q 1050 3150 1350 2925 
Q 1494 2809 1722 2722 
Q 1984 2616 2022 2625 
z
M 1978 2209 
Q 922 1931 922 1216 
Q 922 775 1313 556 
Q 1606 391 2009 391 
Q 2575 391 2881 697 
Q 3106 922 3106 1250 
Q 3106 1594 2794 1850 
Q 2609 1994 2350 2100 
Q 2047 2222 1978 2209 
z
" transform="scale(0.015625)"/>
       </defs>
       <use xlink:href="#IPAexGothic-38"/>
       <use xlink:href="#IPAexGothic-30" transform="translate(62.988281 0)"/>
       <use xlink:href="#IPAexGothic-30" transform="translate(125.976562 0)"/>
       <use xlink:href="#IPAexGothic-30" transform="translate(188.964844 0)"/>
      </g>
     </g>
    </g>
    <g id="xtick_6">
     <g id="line2d_11">
      <path d="M 325.042953 242.44 
L 325.042953 30.48 
" clip-path="url(#p699b5ea05e)" style="fill: none; stroke: #000000; stroke-opacity: 0.2; stroke-width: 0.5; stroke-linecap: square"/>
     </g>
     <g id="line2d_12">
      <g>
       <use xlink:href="#md09f5bf153" x="325.042953" y="242.44" style="stroke: #000000; stroke-width: 0.8"/>
      </g>
     </g>
     <g id="text_6">
      <!-- 10000 -->
      <g transform="translate(309.296859 256.930625) scale(0.1 -0.1)">
       <defs>
        <path id="IPAexGothic-31" d="M 2463 63 
L 1900 63 
L 1900 4103 
Q 1372 3922 788 3797 
L 684 4231 
Q 1519 4441 2106 4731 
L 2463 4731 
L 2463 63 
z
" transform="scale(0.015625)"/>
       </defs>
       <use xlink:href="#IPAexGothic-31"/>
       <use xlink:href="#IPAexGothic-30" transform="translate(62.988281 0)"/>
       <use xlink:href="#IPAexGothic-30" transform="translate(125.976562 0)"/>
       <use xlink:href="#IPAexGothic-30" transform="translate(188.964844 0)"/>
       <use xlink:href="#IPAexGothic-30" transform="translate(251.953125 0)"/>
      </g>
     </g>
    </g>
    <g id="xtick_7">
     <g id="line2d_13">
      <path d="M 372.505544 242.44 
L 372.505544 30.48 
" clip-path="url(#p699b5ea05e)" style="fill: none; stroke: #000000; stroke-opacity: 0.2; stroke-width: 0.5; stroke-linecap: square"/>
     </g>
     <g id="line2d_14">
      <g>
       <use xlink:href="#md09f5bf153" x="372.505544" y="242.44" style="stroke: #000000; stroke-width: 0.8"/>
      </g>
     </g>
     <g id="text_7">
      <!-- 12000 -->
      <g transform="translate(356.75945 256.930625) scale(0.1 -0.1)">
       <use xlink:href="#IPAexGothic-31"/>
       <use xlink:href="#IPAexGothic-32" transform="translate(62.988281 0)"/>
       <use xlink:href="#IPAexGothic-30" transform="translate(125.976562 0)"/>
       <use xlink:href="#IPAexGothic-30" transform="translate(188.964844 0)"/>
       <use xlink:href="#IPAexGothic-30" transform="translate(251.953125 0)"/>
      </g>
     </g>
    </g>
    <g id="xtick_8">
     <g id="line2d_15">
      <path d="M 419.968134 242.44 
L 419.968134 30.48 
" clip-path="url(#p699b5ea05e)" style="fill: none; stroke: #000000; stroke-opacity: 0.2; stroke-width: 0.5; stroke-linecap: square"/>
     </g>
     <g id="line2d_16">
      <g>
       <use xlink:href="#md09f5bf153" x="419.968134" y="242.44" style="stroke: #000000; stroke-width: 0.8"/>
      </g>
     </g>
     <g id="text_8">
      <!-- 14000 -->
      <g transform="translate(404.222041 256.930625) scale(0.1 -0.1)">
       <use xlink:href="#IPAexGothic-31"/>
       <use xlink:href="#IPAexGothic-34" transform="translate(62.988281 0)"/>
       <use xlink:href="#IPAexGothic-30" transform="translate(125.976562 0)"/>
       <use xlink:href="#IPAexGothic-30" transform="translate(188.964844 0)"/>
       <use xlink:href="#IPAexGothic-30" transform="translate(251.953125 0)"/>
      </g>
     </g>
    </g>
    <g id="text_9">
     <!-- 指標の値 -->
     <g transform="translate(227.125556 273.617125) scale(0.144 -0.144)">
      <defs>
       <path id="IPAexGothic-6307" d="M 1303 4006 
L 1303 5300 
L 1744 5300 
L 1744 4006 
L 2494 4006 
L 2494 3591 
L 1744 3591 
L 1744 2394 
Q 1997 2456 2538 2625 
L 2575 2247 
Q 1997 2047 1744 1966 
L 1744 -13 
Q 1744 -291 1609 -378 
Q 1500 -447 1219 -447 
Q 959 -447 606 -416 
L 522 56 
Q 859 0 1109 0 
Q 1303 0 1303 191 
L 1303 1831 
Q 941 1725 472 1606 
L 325 2047 
Q 1025 2197 1303 2272 
L 1303 3591 
L 413 3591 
L 413 4006 
L 1303 4006 
z
M 3184 4234 
Q 4325 4397 5309 4784 
L 5675 4422 
Q 4597 4034 3184 3859 
L 3184 3544 
Q 3184 3313 3356 3263 
Q 3513 3225 4344 3225 
Q 5372 3225 5475 3384 
Q 5544 3500 5572 4000 
L 6025 3884 
Q 5978 3200 5841 3028 
Q 5731 2878 5475 2841 
Q 5109 2791 4297 2791 
Q 3203 2791 2994 2888 
Q 2731 3003 2731 3328 
L 2731 5216 
L 3184 5216 
L 3184 4234 
z
M 5619 2394 
L 5619 -447 
L 5178 -447 
L 5178 -159 
L 3263 -159 
L 3263 -447 
L 2822 -447 
L 2822 2394 
L 5619 2394 
z
M 3263 2009 
L 3263 1325 
L 5178 1325 
L 5178 2009 
L 3263 2009 
z
M 3263 953 
L 3263 225 
L 5178 225 
L 5178 953 
L 3263 953 
z
" transform="scale(0.015625)"/>
       <path id="IPAexGothic-6a19" d="M 1113 2534 
Q 813 1522 384 794 
L 153 1250 
Q 763 2228 1063 3547 
L 294 3547 
L 294 3956 
L 1113 3956 
L 1113 5306 
L 1522 5306 
L 1522 3956 
L 2144 3956 
L 2144 3547 
L 1522 3547 
L 1522 3009 
Q 1991 2634 2309 2288 
L 2059 1844 
Q 1813 2222 1522 2550 
L 1522 -447 
L 1113 -447 
L 1113 2534 
z
M 3353 4109 
L 3353 4641 
L 2100 4641 
L 2100 5019 
L 5997 5019 
L 5997 4641 
L 4753 4641 
L 4753 4109 
L 5778 4109 
L 5778 2769 
L 2356 2769 
L 2356 4109 
L 3353 4109 
z
M 3756 4109 
L 4350 4109 
L 4350 4641 
L 3756 4641 
L 3756 4109 
z
M 3359 3756 
L 2772 3756 
L 2772 3122 
L 3359 3122 
L 3359 3756 
z
M 3756 3756 
L 3756 3122 
L 4350 3122 
L 4350 3756 
L 3756 3756 
z
M 4741 3756 
L 4741 3122 
L 5363 3122 
L 5363 3756 
L 4741 3756 
z
M 4300 1191 
L 4300 19 
Q 4300 -409 3809 -409 
Q 3469 -409 3175 -372 
L 3097 78 
Q 3416 0 3675 0 
Q 3866 0 3866 184 
L 3866 1191 
L 2100 1191 
L 2100 1563 
L 6072 1563 
L 6072 1191 
L 4300 1191 
z
M 2481 2350 
L 5669 2350 
L 5669 1984 
L 2481 1984 
L 2481 2350 
z
M 1938 13 
Q 2534 406 2938 1069 
L 3322 891 
Q 2903 150 2272 -306 
L 1938 13 
z
M 5722 -191 
Q 5166 459 4666 838 
L 4978 1088 
Q 5572 681 6094 134 
L 5722 -191 
z
" transform="scale(0.015625)"/>
       <path id="IPAexGothic-306e" d="M 3119 469 
Q 5275 766 5275 2425 
Q 5275 3453 4413 3925 
Q 4041 4116 3547 4159 
Q 3394 2525 2850 1400 
Q 2322 306 1722 306 
Q 1384 306 1084 666 
Q 609 1244 609 2003 
Q 609 3025 1397 3794 
Q 2184 4563 3431 4563 
Q 4306 4563 4928 4122 
Q 5813 3506 5813 2425 
Q 5813 438 3431 6 
L 3119 469 
z
M 3053 4147 
Q 2378 4044 1891 3641 
Q 1097 2981 1097 1991 
Q 1097 1366 1434 978 
Q 1581 813 1719 813 
Q 2022 813 2416 1625 
Q 2909 2638 3053 4147 
z
" transform="scale(0.015625)"/>
       <path id="IPAexGothic-5024" d="M 4172 3675 
L 5453 3675 
L 5453 684 
L 3019 684 
L 3019 3675 
L 3750 3675 
Q 3788 3884 3825 4153 
L 2141 4153 
L 2141 4544 
L 3884 4544 
Q 3922 4844 3966 5325 
L 4434 5272 
L 4388 4953 
Q 4331 4578 4331 4544 
L 5863 4544 
L 5863 4153 
L 4269 4153 
Q 4200 3781 4172 3675 
z
M 5038 3316 
L 3434 3316 
L 3434 2803 
L 5038 2803 
L 5038 3316 
z
M 3434 2450 
L 3434 1941 
L 5038 1941 
L 5038 2450 
L 3434 2450 
z
M 3434 1588 
L 3434 1044 
L 5038 1044 
L 5038 1588 
L 3434 1588 
z
M 1509 3669 
L 1509 -447 
L 1069 -447 
L 1069 2725 
Q 856 2338 531 1875 
L 288 2266 
Q 1163 3531 1541 5325 
L 1975 5222 
Q 1791 4378 1509 3669 
z
M 2488 244 
L 6031 244 
L 6031 -153 
L 2488 -153 
L 2488 -447 
L 2059 -447 
L 2059 3213 
L 2488 3213 
L 2488 244 
z
" transform="scale(0.015625)"/>
      </defs>
      <use xlink:href="#IPAexGothic-6307"/>
      <use xlink:href="#IPAexGothic-6a19" transform="translate(100 0)"/>
      <use xlink:href="#IPAexGothic-306e" transform="translate(200 0)"/>
      <use xlink:href="#IPAexGothic-5024" transform="translate(300 0)"/>
     </g>
    </g>
   </g>
   <g id="matplotlib.axis_2">
    <g id="ytick_1">
     <g id="line2d_17">
      <defs>
       <path id="m3e869f75b3" d="M 0 0 
L -3.5 0 
" style="stroke: #000000; stroke-width: 0.8"/>
      </defs>
      <g>
       <use xlink:href="#m3e869f75b3" x="87.73" y="212.522201" style="stroke: #000000; stroke-width: 0.8"/>
      </g>
     </g>
     <g id="text_10">
      <!-- CVR -->
      <g transform="translate(60.626875 216.267513) scale(0.1 -0.1)">
       <defs>
        <path id="IPAexGothic-43" d="M 4353 1088 
Q 4181 694 3859 428 
Q 3313 -31 2559 -31 
Q 1588 -31 959 653 
Q 378 1294 378 2331 
Q 378 3406 1013 4078 
Q 1619 4725 2534 4725 
Q 3813 4725 4322 3628 
L 3809 3391 
Q 3425 4238 2541 4238 
Q 1891 4238 1453 3744 
Q 994 3216 994 2322 
Q 994 1550 1384 1056 
Q 1841 472 2563 472 
Q 3456 472 3878 1319 
L 4353 1088 
z
" transform="scale(0.015625)"/>
        <path id="IPAexGothic-56" d="M 4078 4634 
L 2222 0 
L 1806 0 
L -6 4634 
L 622 4634 
L 1703 1766 
Q 1916 1194 2034 784 
L 2053 784 
Q 2188 1256 2381 1766 
L 3450 4634 
L 4078 4634 
z
" transform="scale(0.015625)"/>
        <path id="IPAexGothic-52" d="M 4072 63 
L 3394 63 
Q 3138 641 2828 1197 
Q 2584 1641 2344 1825 
Q 2050 2044 1625 2044 
L 1172 2044 
L 1172 63 
L 609 63 
L 609 4634 
L 2009 4634 
Q 2713 4634 3131 4378 
Q 3688 4044 3688 3381 
Q 3688 2784 3181 2459 
Q 2906 2272 2522 2216 
L 2522 2197 
Q 2941 2050 3247 1581 
Q 3516 1166 4072 63 
z
M 1172 2478 
L 1869 2478 
Q 3106 2478 3106 3369 
Q 3106 4181 1928 4181 
L 1172 4181 
L 1172 2478 
z
" transform="scale(0.015625)"/>
       </defs>
       <use xlink:href="#IPAexGothic-43"/>
       <use xlink:href="#IPAexGothic-56" transform="translate(72.509766 0)"/>
       <use xlink:href="#IPAexGothic-52" transform="translate(136.230469 0)"/>
      </g>
     </g>
    </g>
    <g id="ytick_2">
     <g id="line2d_18">
      <g>
       <use xlink:href="#m3e869f75b3" x="87.73" y="161.814067" style="stroke: #000000; stroke-width: 0.8"/>
      </g>
     </g>
     <g id="text_11">
      <!-- 客単価 -->
      <g transform="translate(50.73 165.559379) scale(0.1 -0.1)">
       <defs>
        <path id="IPAexGothic-5ba2" d="M 2903 2375 
Q 2503 2628 2141 2997 
Q 1647 2528 953 2197 
L 666 2516 
Q 1838 3078 2488 4097 
L 2931 3988 
Q 2788 3756 2750 3700 
L 4556 3700 
L 4844 3488 
Q 4319 2822 3697 2394 
Q 4603 1975 6103 1684 
L 5841 1269 
Q 4194 1663 3300 2150 
Q 2616 1738 1644 1422 
L 1606 1409 
L 4997 1409 
L 4997 -447 
L 4538 -447 
L 4538 -159 
L 1944 -159 
L 1944 -447 
L 1484 -447 
L 1484 1372 
Q 978 1213 556 1103 
L 294 1488 
Q 1859 1797 2903 2375 
z
M 3281 2606 
Q 3794 2941 4153 3322 
L 2463 3322 
L 2409 3266 
Q 2738 2913 3281 2606 
z
M 1944 1025 
L 1944 238 
L 4538 238 
L 4538 1025 
L 1944 1025 
z
M 3413 4544 
L 5778 4544 
L 5778 3256 
L 5319 3256 
L 5319 4159 
L 1081 4159 
L 1081 3256 
L 613 3256 
L 613 4544 
L 2938 4544 
L 2938 5313 
L 3413 5313 
L 3413 4544 
z
" transform="scale(0.015625)"/>
        <path id="IPAexGothic-5358" d="M 5403 1709 
L 3413 1709 
L 3413 1119 
L 6044 1119 
L 6044 709 
L 3413 709 
L 3413 -450 
L 2938 -450 
L 2938 709 
L 353 709 
L 353 1119 
L 2938 1119 
L 2938 1709 
L 994 1709 
L 994 3950 
L 3853 3950 
Q 4294 4534 4641 5238 
L 5128 5013 
Q 4778 4428 4378 3950 
L 5403 3950 
L 5403 1709 
z
M 4947 2081 
L 4947 2675 
L 3400 2675 
L 3400 2081 
L 4947 2081 
z
M 4947 3028 
L 4947 3578 
L 3400 3578 
L 3400 3028 
L 4947 3028 
z
M 1447 3578 
L 1447 3028 
L 2956 3028 
L 2956 3578 
L 1447 3578 
z
M 1447 2675 
L 1447 2081 
L 2956 2081 
L 2956 2675 
L 1447 2675 
z
M 3003 4063 
Q 2853 4531 2559 5050 
L 2997 5241 
Q 3272 4834 3494 4250 
L 3003 4063 
z
M 1653 4031 
Q 1453 4563 1191 4959 
L 1625 5153 
Q 1903 4800 2144 4219 
L 1653 4031 
z
" transform="scale(0.015625)"/>
        <path id="IPAexGothic-4fa1" d="M 3144 3397 
L 3144 4416 
L 1828 4416 
L 1828 4825 
L 6081 4825 
L 6081 4416 
L 4713 4416 
L 4713 3397 
L 5850 3397 
L 5850 -384 
L 5416 -384 
L 5416 0 
L 2463 0 
L 2463 -384 
L 2034 -384 
L 2034 3397 
L 3144 3397 
z
M 3572 3397 
L 4281 3397 
L 4281 4416 
L 3572 4416 
L 3572 3397 
z
M 3169 3013 
L 2463 3013 
L 2463 391 
L 3169 391 
L 3169 3013 
z
M 3572 3013 
L 3572 391 
L 4281 391 
L 4281 3013 
L 3572 3013 
z
M 4684 3013 
L 4684 391 
L 5416 391 
L 5416 3013 
L 4684 3013 
z
M 1394 3816 
L 1394 -447 
L 966 -447 
L 966 2797 
Q 756 2369 478 1972 
L 244 2369 
Q 950 3469 1375 5313 
L 1809 5203 
Q 1588 4344 1394 3816 
z
" transform="scale(0.015625)"/>
       </defs>
       <use xlink:href="#IPAexGothic-5ba2"/>
       <use xlink:href="#IPAexGothic-5358" transform="translate(100 0)"/>
       <use xlink:href="#IPAexGothic-4fa1" transform="translate(200 0)"/>
      </g>
     </g>
    </g>
    <g id="ytick_3">
     <g id="line2d_19">
      <g>
       <use xlink:href="#m3e869f75b3" x="87.73" y="111.105933" style="stroke: #000000; stroke-width: 0.8"/>
      </g>
     </g>
     <g id="text_12">
      <!-- サブスク継続率 -->
      <g transform="translate(10.73 114.902027) scale(0.1 -0.1)">
       <defs>
        <path id="IPAexGothic-30b5" d="M 3994 4919 
L 4506 4919 
L 4506 3531 
L 5888 3531 
L 5888 3072 
L 4506 3072 
Q 4488 1719 4153 1063 
Q 3728 222 2644 -325 
L 2266 38 
Q 3325 525 3713 1319 
Q 3975 1853 3994 3072 
L 2331 3072 
L 2331 1575 
L 1819 1575 
L 1819 3072 
L 513 3072 
L 513 3531 
L 1819 3531 
L 1819 4797 
L 2331 4797 
L 2331 3531 
L 3994 3531 
L 3994 4919 
z
" transform="scale(0.015625)"/>
        <path id="IPAexGothic-30d6" d="M 4806 4250 
L 5106 3975 
Q 4866 2353 4063 1356 
Q 3275 384 1869 -141 
L 1503 306 
Q 4050 1084 4531 3775 
L 947 3713 
L 947 4197 
L 4806 4250 
z
M 6047 4475 
Q 5688 5016 5294 5344 
L 5594 5575 
Q 5978 5266 6369 4750 
L 6047 4475 
z
M 5453 4006 
Q 5163 4497 4716 4897 
L 5031 5141 
Q 5400 4831 5784 4281 
L 5453 4006 
z
" transform="scale(0.015625)"/>
        <path id="IPAexGothic-30b9" d="M 4359 4481 
L 4716 4147 
Q 4328 3072 3647 2150 
Q 4659 1434 5659 453 
L 5234 19 
Q 4256 1088 3353 1778 
Q 2372 597 1044 -31 
L 653 403 
Q 3128 1453 4097 4000 
L 1241 3963 
L 1228 4453 
L 4359 4481 
z
" transform="scale(0.015625)"/>
        <path id="IPAexGothic-30af" d="M 4934 4191 
L 5272 3941 
Q 4894 2334 4031 1300 
Q 3275 391 2028 -225 
L 1656 184 
Q 2875 691 3641 1625 
Q 4403 2553 4691 3731 
L 2903 3731 
Q 2188 2653 1356 1959 
L 978 2309 
Q 2328 3400 2931 5022 
L 3422 4881 
Q 3363 4672 3141 4191 
L 4934 4191 
z
" transform="scale(0.015625)"/>
        <path id="IPAexGothic-7d99" d="M 1203 3084 
L 1156 3144 
Q 697 3791 325 4128 
L 581 4441 
Q 716 4306 856 4153 
Q 1203 4659 1497 5325 
L 1913 5125 
Q 1450 4325 1106 3866 
Q 1294 3638 1431 3438 
Q 1778 4006 2053 4531 
L 2431 4319 
Q 1872 3322 1284 2584 
Q 1306 2588 1925 2625 
L 2103 2638 
Q 2003 2894 1878 3128 
L 2200 3263 
Q 2488 2797 2725 2106 
L 2347 1919 
Q 2284 2147 2219 2328 
Q 2131 2309 1681 2247 
L 1681 -447 
L 1272 -447 
L 1272 2194 
Q 1209 2194 1163 2188 
Q 738 2144 416 2119 
L 281 2547 
L 838 2559 
Q 919 2669 1203 3084 
z
M 4281 2559 
L 3178 2559 
L 3178 219 
L 6078 219 
L 6078 -172 
L 3178 -172 
L 3178 -447 
L 2744 -447 
L 2744 4909 
L 3178 4909 
L 3178 2931 
L 4319 2931 
L 4319 5178 
L 4741 5178 
L 4741 2931 
L 5963 2931 
L 5963 2559 
L 4741 2559 
L 4741 2228 
Q 4747 2222 4763 2213 
Q 4778 2200 4784 2194 
Q 5378 1866 5853 1391 
L 5584 1006 
Q 5178 1494 4741 1838 
L 4741 347 
L 4319 347 
L 4319 1972 
Q 3981 1184 3491 609 
L 3250 1019 
Q 3928 1716 4281 2559 
z
M 331 191 
Q 541 850 606 1778 
L 997 1734 
Q 931 738 728 -13 
L 331 191 
z
M 2144 300 
Q 2066 1013 1875 1741 
L 2222 1838 
Q 2434 1234 2553 469 
L 2144 300 
z
M 3750 3166 
Q 3634 3841 3403 4403 
L 3806 4525 
Q 4003 3994 4159 3306 
L 3750 3166 
z
M 4909 3294 
Q 5144 3831 5338 4609 
L 5759 4469 
Q 5588 3803 5288 3172 
L 4909 3294 
z
" transform="scale(0.015625)"/>
        <path id="IPAexGothic-7d9a" d="M 1234 3084 
Q 788 3713 372 4128 
L 659 4422 
Q 766 4316 909 4153 
Q 1269 4681 1534 5331 
L 1950 5119 
Q 1541 4366 1144 3859 
Q 1363 3566 1466 3419 
Q 1897 4100 2138 4550 
L 2522 4313 
Q 1816 3163 1300 2572 
Q 1613 2581 2163 2625 
Q 2059 2891 1919 3150 
L 2272 3297 
Q 2556 2781 2784 2100 
L 2400 1913 
Q 2328 2166 2278 2309 
Q 1938 2256 1772 2234 
L 1772 -447 
L 1350 -447 
L 1350 2181 
L 1288 2175 
Q 997 2144 422 2106 
L 281 2534 
Q 478 2541 850 2553 
Q 1022 2778 1234 3084 
z
M 4134 4538 
L 4134 5313 
L 4563 5313 
L 4563 4538 
L 5997 4538 
L 5997 4153 
L 4563 4153 
L 4563 3572 
L 5869 3572 
L 5869 3194 
L 2913 3194 
L 2913 3572 
L 4134 3572 
L 4134 4153 
L 2747 4153 
L 2747 4538 
L 4134 4538 
z
M 5966 2725 
L 5966 1559 
L 5550 1559 
L 5550 2341 
L 3231 2341 
L 3231 1516 
L 2816 1516 
L 2816 2725 
L 5966 2725 
z
M 344 197 
Q 559 781 647 1759 
L 1056 1709 
Q 978 678 763 -13 
L 344 197 
z
M 2297 319 
Q 2169 1134 1966 1759 
L 2322 1869 
Q 2572 1266 2725 494 
L 2297 319 
z
M 4575 2069 
L 4997 2069 
L 4997 225 
Q 4997 84 5144 75 
Q 5263 63 5266 63 
Q 5544 63 5591 228 
Q 5631 363 5669 991 
L 6078 872 
Q 6031 -66 5859 -225 
Q 5709 -366 5228 -366 
Q 4834 -366 4691 -269 
Q 4575 -194 4575 25 
L 4575 2069 
z
M 2644 -134 
Q 3341 172 3553 653 
Q 3719 1034 3719 2069 
L 4141 2069 
Q 4131 913 3928 459 
Q 3650 -147 2925 -500 
L 2644 -134 
z
" transform="scale(0.015625)"/>
        <path id="IPAexGothic-7387" d="M 3022 2847 
Q 3338 3231 3684 3744 
L 4053 3525 
Q 3506 2766 2919 2181 
L 3266 2200 
Q 3575 2209 3825 2234 
Q 3728 2406 3575 2616 
L 3913 2772 
Q 4244 2350 4541 1766 
L 4156 1547 
Q 4084 1753 3997 1913 
L 3856 1894 
Q 3709 1875 3416 1850 
L 3416 1228 
L 6084 1228 
L 6084 819 
L 3416 819 
L 3416 -447 
L 2941 -447 
L 2941 819 
L 322 819 
L 322 1228 
L 2941 1228 
L 2941 1803 
L 2881 1797 
Q 2306 1759 2031 1747 
L 1903 2163 
Q 2319 2163 2416 2169 
Q 2522 2269 2772 2553 
Q 2347 3028 1916 3347 
L 2184 3653 
L 2447 3425 
Q 2681 3744 2869 4128 
L 547 4128 
L 547 4525 
L 2941 4525 
L 2941 5313 
L 3416 5313 
L 3416 4525 
L 5853 4525 
L 5853 4128 
L 2972 4128 
L 3278 3981 
Q 2991 3509 2697 3188 
Q 2850 3041 3022 2847 
z
M 1497 2822 
Q 1128 3263 691 3566 
L 1000 3847 
Q 1409 3588 1831 3156 
L 1497 2822 
z
M 4219 3078 
Q 4794 3478 5147 3897 
L 5538 3616 
Q 5078 3178 4494 2803 
L 4219 3078 
z
M 5556 1631 
Q 4997 2109 4372 2444 
L 4659 2741 
Q 5356 2381 5894 1984 
L 5556 1631 
z
M 538 1925 
Q 1306 2297 1881 2803 
L 2075 2456 
Q 1622 2034 813 1528 
L 538 1925 
z
" transform="scale(0.015625)"/>
       </defs>
       <use xlink:href="#IPAexGothic-30b5"/>
       <use xlink:href="#IPAexGothic-30d6" transform="translate(100 0)"/>
       <use xlink:href="#IPAexGothic-30b9" transform="translate(200 0)"/>
       <use xlink:href="#IPAexGothic-30af" transform="translate(300 0)"/>
       <use xlink:href="#IPAexGothic-7d99" transform="translate(400 0)"/>
       <use xlink:href="#IPAexGothic-7d9a" transform="translate(500 0)"/>
       <use xlink:href="#IPAexGothic-7387" transform="translate(600 0)"/>
      </g>
     </g>
    </g>
    <g id="ytick_4">
     <g id="line2d_20">
      <g>
       <use xlink:href="#m3e869f75b3" x="87.73" y="60.397799" style="stroke: #000000; stroke-width: 0.8"/>
      </g>
     </g>
     <g id="text_13">
      <!-- NPS -->
      <g transform="translate(61.070625 64.143112) scale(0.1 -0.1)">
       <defs>
        <path id="IPAexGothic-4e" d="M 4244 63 
L 3731 63 
L 1697 3150 
Q 1466 3500 1141 4097 
L 1116 4097 
L 1128 3797 
Q 1159 2803 1159 2469 
L 1159 63 
L 609 63 
L 609 4634 
L 1366 4634 
L 3113 1978 
Q 3453 1447 3713 966 
L 3738 966 
Q 3694 1897 3694 2469 
L 3694 4634 
L 4244 4634 
L 4244 63 
z
" transform="scale(0.015625)"/>
        <path id="IPAexGothic-50" d="M 609 4634 
L 1941 4634 
Q 3688 4634 3688 3322 
Q 3688 1934 1906 1934 
L 1172 1934 
L 1172 63 
L 609 63 
L 609 4634 
z
M 1172 2381 
L 1800 2381 
Q 3100 2381 3100 3316 
Q 3100 4181 1894 4181 
L 1172 4181 
L 1172 2381 
z
" transform="scale(0.015625)"/>
        <path id="IPAexGothic-53" d="M 2919 3641 
Q 2563 4259 1853 4259 
Q 1453 4259 1213 4009 
Q 1028 3803 1028 3534 
Q 1028 3238 1266 3047 
Q 1444 2913 1984 2688 
L 2200 2597 
Q 2925 2306 3191 1953 
Q 3422 1644 3422 1259 
Q 3422 644 2969 288 
Q 2559 -31 1931 -31 
Q 881 -31 313 766 
L 753 1100 
Q 1203 459 1938 459 
Q 2288 459 2534 625 
Q 2841 847 2841 1216 
Q 2841 1503 2616 1728 
Q 2375 1959 1728 2206 
L 1541 2278 
Q 453 2694 453 3481 
Q 453 4006 806 4347 
Q 1203 4725 1863 4725 
Q 2841 4725 3359 3956 
L 2919 3641 
z
" transform="scale(0.015625)"/>
       </defs>
       <use xlink:href="#IPAexGothic-4e"/>
       <use xlink:href="#IPAexGothic-50" transform="translate(75.976562 0)"/>
       <use xlink:href="#IPAexGothic-53" transform="translate(138.085938 0)"/>
      </g>
     </g>
    </g>
   </g>
   <g id="line2d_21">
    <path d="M 87.731187 232.805455 
L 87.731187 192.238947 
" clip-path="url(#p699b5ea05e)" style="fill: none; stroke: #ef4444; stroke-width: 2; stroke-linecap: square"/>
   </g>
   <g id="line2d_22">
    <path d="M 372.505544 182.097321 
L 372.505544 141.530813 
" clip-path="url(#p699b5ea05e)" style="fill: none; stroke: #ef4444; stroke-width: 2; stroke-linecap: square"/>
   </g>
   <g id="line2d_23">
    <path d="M 87.748985 131.389187 
L 87.748985 90.822679 
" clip-path="url(#p699b5ea05e)" style="fill: none; stroke: #ef4444; stroke-width: 2; stroke-linecap: square"/>
   </g>
   <g id="line2d_24">
    <path d="M 88.560595 80.681053 
L 88.560595 40.114545 
" clip-path="url(#p699b5ea05e)" style="fill: none; stroke: #ef4444; stroke-width: 2; stroke-linecap: square"/>
   </g>
   <g id="text_14">
    <!-- 0.05 -->
    <g transform="translate(87.731113 215.037982) scale(0.09 -0.09)">
     <defs>
      <path id="IPAexGothic-2e" d="M 1184 63 
L 494 63 
L 494 753 
L 1184 753 
L 1184 63 
z
" transform="scale(0.015625)"/>
      <path id="IPAexGothic-35" d="M 1178 2603 
Q 1634 2963 2172 2963 
Q 2816 2963 3241 2528 
Q 3638 2113 3638 1497 
Q 3638 938 3297 513 
Q 2869 -31 2031 -31 
Q 959 -31 469 784 
L 938 1028 
Q 1309 434 2013 434 
Q 2466 434 2769 716 
Q 3081 1013 3081 1503 
Q 3081 1966 2806 2241 
Q 2519 2528 2056 2528 
Q 1406 2528 1072 2028 
L 591 2091 
L 884 4634 
L 3406 4634 
L 3406 4153 
L 1341 4153 
L 1134 2603 
L 1178 2603 
z
" transform="scale(0.015625)"/>
     </defs>
     <use xlink:href="#IPAexGothic-30"/>
     <use xlink:href="#IPAexGothic-2e" transform="translate(62.988281 0)"/>
     <use xlink:href="#IPAexGothic-30" transform="translate(89.404297 0)"/>
     <use xlink:href="#IPAexGothic-35" transform="translate(152.392578 0)"/>
    </g>
   </g>
   <g id="text_15">
    <!-- 12,300 -->
    <g transform="translate(385.462831 164.329848) scale(0.09 -0.09)">
     <defs>
      <path id="IPAexGothic-2c" d="M 1150 728 
Q 1028 -159 563 -1006 
L 153 -897 
Q 494 -100 569 728 
L 1150 728 
z
" transform="scale(0.015625)"/>
      <path id="IPAexGothic-33" d="M 2381 2419 
Q 3506 2216 3506 1278 
Q 3506 716 3128 356 
Q 2709 -31 1944 -31 
Q 797 -31 288 881 
L 756 1131 
Q 1109 441 1938 441 
Q 2425 441 2694 691 
Q 2950 928 2950 1291 
Q 2950 1719 2566 1978 
Q 2216 2213 1644 2213 
L 1363 2213 
L 1363 2669 
L 1656 2669 
Q 2231 2669 2534 2888 
Q 2859 3119 2859 3509 
Q 2859 3934 2494 4138 
Q 2259 4278 1931 4278 
Q 1238 4278 903 3578 
L 434 3803 
Q 897 4725 1938 4725 
Q 2597 4725 3006 4394 
Q 3416 4069 3416 3534 
Q 3416 3028 3019 2706 
Q 2763 2500 2381 2444 
L 2381 2419 
z
" transform="scale(0.015625)"/>
     </defs>
     <use xlink:href="#IPAexGothic-31"/>
     <use xlink:href="#IPAexGothic-32" transform="translate(62.988281 0)"/>
     <use xlink:href="#IPAexGothic-2c" transform="translate(125.976562 0)"/>
     <use xlink:href="#IPAexGothic-33" transform="translate(152.392578 0)"/>
     <use xlink:href="#IPAexGothic-30" transform="translate(215.380859 0)"/>
     <use xlink:href="#IPAexGothic-30" transform="translate(278.369141 0)"/>
    </g>
   </g>
   <g id="text_16">
    <!-- 0.78 -->
    <g transform="translate(87.748881 113.621714) scale(0.09 -0.09)">
     <defs>
      <path id="IPAexGothic-37" d="M 3597 4263 
Q 2238 2106 1778 63 
L 1131 63 
Q 1581 1834 2950 4128 
L 428 4128 
L 428 4634 
L 3597 4634 
L 3597 4263 
z
" transform="scale(0.015625)"/>
     </defs>
     <use xlink:href="#IPAexGothic-30"/>
     <use xlink:href="#IPAexGothic-2e" transform="translate(62.988281 0)"/>
     <use xlink:href="#IPAexGothic-37" transform="translate(89.404297 0)"/>
     <use xlink:href="#IPAexGothic-38" transform="translate(152.392578 0)"/>
    </g>
   </g>
   <g id="text_17">
    <!-- 32.00 -->
    <g transform="translate(88.504589 62.91358) scale(0.09 -0.09)">
     <use xlink:href="#IPAexGothic-33"/>
     <use xlink:href="#IPAexGothic-32" transform="translate(62.988281 0)"/>
     <use xlink:href="#IPAexGothic-2e" transform="translate(125.976562 0)"/>
     <use xlink:href="#IPAexGothic-30" transform="translate(152.392578 0)"/>
     <use xlink:href="#IPAexGothic-30" transform="translate(215.380859 0)"/>
    </g>
   </g>
   <g id="text_18">
    <!-- 主要KPIの進捗（バレットチャート） -->
    <g transform="translate(112.880906 24.48) scale(0.1728 -0.1728)">
     <defs>
      <path id="IPAexGothic-4e3b" d="M 3419 3481 
L 3419 2188 
L 5409 2188 
L 5409 1766 
L 3419 1766 
L 3419 231 
L 5922 231 
L 5922 -197 
L 475 -197 
L 475 231 
L 2931 231 
L 2931 1766 
L 984 1766 
L 984 2188 
L 2931 2188 
L 2931 3481 
L 703 3481 
L 703 3909 
L 5697 3909 
L 5697 3481 
L 3419 3481 
z
M 3344 4031 
Q 2788 4494 1953 4934 
L 2363 5247 
Q 3066 4891 3753 4359 
L 3344 4031 
z
" transform="scale(0.015625)"/>
      <path id="IPAexGothic-8981" d="M 2278 4025 
L 2278 4581 
L 528 4581 
L 528 4978 
L 5856 4978 
L 5856 4581 
L 4081 4581 
L 4081 4025 
L 5522 4025 
L 5522 2547 
L 863 2547 
L 863 4025 
L 2278 4025 
z
M 2694 4025 
L 3659 4025 
L 3659 4581 
L 2694 4581 
L 2694 4025 
z
M 2278 3666 
L 1316 3666 
L 1316 2906 
L 2278 2906 
L 2278 3666 
z
M 2694 3666 
L 2694 2906 
L 3659 2906 
L 3659 3666 
L 2694 3666 
z
M 4081 3666 
L 4081 2906 
L 5075 2906 
L 5075 3666 
L 4081 3666 
z
M 3066 338 
Q 2547 503 1694 722 
L 1503 775 
Q 1816 1141 2066 1503 
L 447 1503 
L 447 1900 
L 2316 1900 
Q 2497 2225 2641 2516 
L 3084 2366 
Q 2984 2172 2834 1900 
L 5950 1900 
L 5950 1503 
L 4619 1503 
Q 4369 878 3988 484 
Q 4750 263 5797 -91 
L 5413 -488 
Q 4441 -100 3597 172 
Q 2706 -406 869 -531 
L 625 -97 
Q 2122 -28 3066 338 
z
M 3513 619 
Q 3934 1025 4134 1503 
L 2597 1503 
Q 2413 1213 2238 984 
L 2213 953 
Q 2656 853 3513 619 
z
" transform="scale(0.015625)"/>
      <path id="IPAexGothic-4b" d="M 4141 63 
L 3413 63 
L 1678 2347 
L 1172 1856 
L 1172 63 
L 609 63 
L 609 4634 
L 1172 4634 
L 1172 2450 
L 3200 4634 
L 3956 4634 
L 2041 2694 
L 4141 63 
z
" transform="scale(0.015625)"/>
      <path id="IPAexGothic-49" d="M 1203 63 
L 634 63 
L 634 4634 
L 1203 4634 
L 1203 63 
z
" transform="scale(0.015625)"/>
      <path id="IPAexGothic-9032" d="M 4303 1119 
L 5922 1119 
L 5922 728 
L 2828 728 
L 2828 381 
L 2413 381 
L 2413 3431 
Q 2141 3059 1925 2834 
L 1625 3169 
Q 2488 4059 2909 5281 
L 3347 5141 
Q 3125 4613 2925 4238 
L 3875 4238 
Q 4134 4709 4316 5256 
L 4781 5122 
Q 4553 4616 4328 4238 
L 5806 4238 
L 5806 3866 
L 4303 3866 
L 4303 3200 
L 5544 3200 
L 5544 2841 
L 4303 2841 
L 4303 2175 
L 5544 2175 
L 5544 1809 
L 4303 1809 
L 4303 1119 
z
M 3894 1119 
L 3894 1809 
L 2828 1809 
L 2828 1119 
L 3894 1119 
z
M 2828 2175 
L 3894 2175 
L 3894 2841 
L 2828 2841 
L 2828 2175 
z
M 2828 3200 
L 3894 3200 
L 3894 3866 
L 2828 3866 
L 2828 3200 
z
M 1703 734 
Q 1894 484 2241 313 
Q 2675 94 3963 94 
Q 4863 94 6144 178 
Q 6025 -50 5978 -300 
Q 4931 -341 4378 -341 
Q 2803 -341 2228 -122 
Q 1756 50 1519 397 
Q 1106 -75 647 -447 
L 366 19 
Q 847 309 1263 678 
L 1263 2303 
L 378 2303 
L 378 2731 
L 1703 2731 
L 1703 734 
z
M 1516 3775 
Q 1053 4347 563 4738 
L 878 5056 
Q 1466 4597 1856 4128 
L 1516 3775 
z
" transform="scale(0.015625)"/>
      <path id="IPAexGothic-6357" d="M 1191 4013 
L 1191 5300 
L 1619 5300 
L 1619 4013 
L 2328 4013 
L 2328 3597 
L 1619 3597 
L 1619 2328 
Q 1656 2344 1681 2350 
Q 1803 2381 2413 2566 
L 2444 2209 
Q 1944 2025 1619 1919 
L 1619 13 
Q 1619 -256 1497 -356 
Q 1394 -441 1100 -441 
Q 759 -441 525 -397 
L 447 63 
Q 722 0 978 0 
Q 1191 0 1191 178 
L 1191 1784 
Q 875 1688 416 1569 
L 281 2003 
Q 834 2116 1191 2216 
L 1191 3597 
L 384 3597 
L 384 4013 
L 1191 4013 
z
M 4378 4325 
L 5684 4325 
L 5684 3941 
L 4378 3941 
L 4378 3150 
L 6100 3150 
L 6100 2759 
L 4378 2759 
L 4378 1288 
Q 4378 872 3897 872 
Q 3656 872 3403 909 
L 3341 1325 
Q 3547 1275 3775 1275 
Q 3950 1275 3950 1466 
L 3950 2759 
L 2119 2759 
L 2119 3150 
L 2828 3150 
L 2828 4606 
L 3250 4606 
L 3250 3150 
L 3950 3150 
L 3950 5309 
L 4378 5309 
L 4378 4325 
z
M 2119 1234 
Q 2713 1688 3109 2444 
L 3494 2259 
Q 3022 1356 2419 878 
L 2119 1234 
z
M 2119 -63 
Q 3466 100 4244 703 
Q 4950 1250 5419 2284 
L 5838 2069 
Q 5272 850 4403 250 
Q 3656 -272 2381 -494 
L 2119 -63 
z
" transform="scale(0.015625)"/>
      <path id="IPAexGothic-ff08" d="M 5419 -434 
Q 4197 769 4197 2438 
Q 4197 4097 5419 5300 
L 5919 5300 
Q 4678 4078 4678 2425 
Q 4678 788 5919 -434 
L 5419 -434 
z
" transform="scale(0.015625)"/>
      <path id="IPAexGothic-30d0" d="M 428 903 
Q 1472 2069 1972 3884 
L 2497 3700 
Q 1938 1778 897 544 
L 428 903 
z
M 5441 678 
Q 4694 2275 3684 3725 
L 4147 3969 
Q 5050 2734 5956 1025 
L 5441 678 
z
M 5697 4116 
Q 5334 4656 4941 4984 
L 5241 5216 
Q 5625 4906 6016 4391 
L 5697 4116 
z
M 5094 3641 
Q 4803 4131 4356 4531 
L 4678 4781 
Q 5050 4472 5434 3922 
L 5094 3641 
z
" transform="scale(0.015625)"/>
      <path id="IPAexGothic-30ec" d="M 1538 4706 
L 2075 4706 
L 2075 622 
Q 4059 1375 5172 2894 
L 5481 2431 
Q 4922 1678 3931 1019 
Q 2919 334 1928 -31 
L 1538 269 
L 1538 4706 
z
" transform="scale(0.015625)"/>
      <path id="IPAexGothic-30c3" d="M 1775 1984 
Q 1553 2666 1275 3175 
L 1716 3391 
Q 2034 2866 2247 2209 
L 1775 1984 
z
M 3003 2297 
Q 2813 2978 2522 3469 
L 2978 3681 
Q 3291 3166 3484 2522 
L 3003 2297 
z
M 1928 372 
Q 3094 744 3731 1569 
Q 4275 2263 4469 3525 
L 4975 3406 
Q 4734 1975 4016 1119 
Q 3406 391 2266 -44 
L 1928 372 
z
" transform="scale(0.015625)"/>
      <path id="IPAexGothic-30c8" d="M 2284 4997 
L 2803 4997 
L 2803 3206 
Q 4088 2619 5216 1888 
L 4878 1369 
Q 3819 2175 2803 2688 
L 2803 -184 
L 2284 -184 
L 2284 4997 
z
" transform="scale(0.015625)"/>
      <path id="IPAexGothic-30c1" d="M 3088 2853 
L 3088 3981 
Q 2359 3847 1531 3797 
L 1288 4238 
Q 3200 4344 4553 4872 
L 4909 4456 
Q 4244 4216 3606 4078 
L 3606 2913 
L 5806 2913 
L 5806 2459 
L 3600 2459 
Q 3559 1422 3188 850 
Q 2722 138 1738 -256 
L 1347 153 
Q 2319 500 2709 1081 
Q 3031 1563 3081 2400 
L 597 2400 
L 597 2853 
L 3088 2853 
z
" transform="scale(0.015625)"/>
      <path id="IPAexGothic-30e3" d="M 2559 3903 
L 2803 2816 
L 4863 3169 
L 5191 2894 
Q 4672 1875 4103 1203 
L 3666 1447 
Q 4175 2013 4525 2688 
L 2900 2388 
L 3450 -116 
L 2969 -231 
L 2419 2297 
L 1172 2069 
L 1075 2516 
L 2328 2731 
L 2094 3809 
L 2559 3903 
z
" transform="scale(0.015625)"/>
      <path id="IPAexGothic-30fc" d="M 588 2688 
L 5809 2688 
L 5809 2175 
L 588 2175 
L 588 2688 
z
" transform="scale(0.015625)"/>
      <path id="IPAexGothic-ff09" d="M 481 -434 
Q 1722 788 1722 2431 
Q 1722 4066 481 5300 
L 981 5300 
Q 2203 4097 2203 2431 
Q 2203 769 981 -434 
L 481 -434 
z
" transform="scale(0.015625)"/>
     </defs>
     <use xlink:href="#IPAexGothic-4e3b"/>
     <use xlink:href="#IPAexGothic-8981" transform="translate(100 0)"/>
     <use xlink:href="#IPAexGothic-4b" transform="translate(200 0)"/>
     <use xlink:href="#IPAexGothic-50" transform="translate(264.599609 0)"/>
     <use xlink:href="#IPAexGothic-49" transform="translate(326.708984 0)"/>
     <use xlink:href="#IPAexGothic-306e" transform="translate(355.615234 0)"/>
     <use xlink:href="#IPAexGothic-9032" transform="translate(455.615234 0)"/>
     <use xlink:href="#IPAexGothic-6357" transform="translate(555.615234 0)"/>
     <use xlink:href="#IPAexGothic-ff08" transform="translate(655.615234 0)"/>
     <use xlink:href="#IPAexGothic-30d0" transform="translate(755.615234 0)"/>
     <use xlink:href="#IPAexGothic-30ec" transform="translate(855.615234 0)"/>
     <use xlink:href="#IPAexGothic-30c3" transform="translate(955.615234 0)"/>
     <use xlink:href="#IPAexGothic-30c8" transform="translate(1055.615234 0)"/>
     <use xlink:href="#IPAexGothic-30c1" transform="translate(1155.615234 0)"/>
     <use xlink:href="#IPAexGothic-30e3" transform="translate(1255.615234 0)"/>
     <use xlink:href="#IPAexGothic-30fc" transform="translate(1355.615234 0)"/>
     <use xlink:href="#IPAexGothic-30c8" transform="translate(1455.615234 0)"/>
     <use xlink:href="#IPAexGothic-ff09" transform="translate(1555.615234 0)"/>
    </g>
   </g>
  </g>
 </g>
 <defs>
  <clipPath id="p699b5ea05e">
   <rect x="87.73" y="30.48" width="336.391111" height="211.96"/>
  </clipPath>
 </defs>
</svg>
