<?xml version="1.0" encoding="utf-8" standalone="no"?>
<!DOCTYPE svg PUBLIC "-//W3C//DTD SVG 1.1//EN"
  "http://www.w3.org/Graphics/SVG/1.1/DTD/svg11.dtd">
<svg xmlns:xlink="http://www.w3.org/1999/xlink" width="504pt" height="288pt" viewBox="0 0 504 288" xmlns="http://www.w3.org/2000/svg" version="1.1">
 <metadata>
  <rdf:RDF xmlns:dc="http://purl.org/dc/elements/1.1/" xmlns:cc="http://creativecommons.org/ns#" xmlns:rdf="http://www.w3.org/1999/02/22-rdf-syntax-ns#">
   <cc:Work>
    <dc:type rdf:resource="http://purl.org/dc/dcmitype/StillImage"/>
    <dc:date>2025-10-29T08:53:11.625771</dc:date>
    <dc:format>image/svg+xml</dc:format>
    <dc:creator>
     <cc:Agent>
      <dc:title>Matplotlib v3.10.7, https://matplotlib.org/</dc:title>
     </cc:Agent>
    </dc:creator>
   </cc:Work>
  </rdf:RDF>
 </metadata>
 <defs>
  <style type="text/css">*{stroke-linejoin: round; stroke-linecap: butt}</style>
 </defs>
 <g id="figure_1">
  <g id="patch_1">
   <path d="M 0 288 
L 504 288 
L 504 0 
L 0 0 
z
" style="fill: #ffffff"/>
  </g>
  <g id="axes_1">
   <g id="patch_2">
    <path d="M 42.5 260.84 
L 446.61 260.84 
L 446.61 30.48 
L 42.5 30.48 
z
" style="fill: #ffffff"/>
   </g>
   <g id="matplotlib.axis_1">
    <g id="xtick_1">
     <g id="line2d_1">
      <defs>
       <path id="m90a1023e12" d="M 0 0 
L 0 3.5 
" style="stroke: #000000; stroke-width: 0.8"/>
      </defs>
      <g>
       <use xlink:href="#m90a1023e12" x="60.868636" y="260.84" style="stroke: #000000; stroke-width: 0.8"/>
      </g>
     </g>
     <g id="text_1">
      <!-- Q1 -->
      <g transform="translate(53.735043 275.330625) scale(0.1 -0.1)">
       <defs>
        <path id="IPAexGothic-51" d="M 4800 88 
L 4494 -306 
Q 3991 38 3681 281 
Q 3181 -25 2528 -25 
Q 1634 -25 1050 556 
Q 378 1219 378 2350 
Q 378 3469 1044 4138 
Q 1631 4725 2541 4725 
Q 3456 4725 4044 4138 
Q 4709 3469 4709 2350 
Q 4709 1306 4059 588 
Q 4413 319 4800 88 
z
M 3669 900 
Q 4122 1403 4122 2338 
Q 4122 3291 3578 3838 
Q 3150 4266 2541 4266 
Q 1947 4266 1519 3838 
Q 981 3300 981 2350 
Q 981 1406 1513 875 
Q 1947 441 2575 441 
Q 3003 441 3297 619 
Q 2844 931 2381 1209 
L 2663 1594 
Q 3225 1222 3669 900 
z
" transform="scale(0.015625)"/>
        <path id="IPAexGothic-31" d="M 2463 63 
L 1900 63 
L 1900 4103 
Q 1372 3922 788 3797 
L 684 4231 
Q 1519 4441 2106 4731 
L 2463 4731 
L 2463 63 
z
" transform="scale(0.015625)"/>
       </defs>
       <use xlink:href="#IPAexGothic-51"/>
       <use xlink:href="#IPAexGothic-31" transform="translate(79.6875 0)"/>
      </g>
     </g>
    </g>
    <g id="xtick_2">
     <g id="line2d_2">
      <g>
       <use xlink:href="#m90a1023e12" x="183.326212" y="260.84" style="stroke: #000000; stroke-width: 0.8"/>
      </g>
     </g>
     <g id="text_2">
      <!-- Q2 -->
      <g transform="translate(176.192618 275.330625) scale(0.1 -0.1)">
       <defs>
        <path id="IPAexGothic-32" d="M 3659 63 
L 447 63 
L 447 594 
Q 825 1475 1894 2203 
L 2072 2322 
Q 2619 2697 2791 2906 
Q 2988 3153 2988 3444 
Q 2988 3772 2756 4003 
Q 2500 4259 2084 4259 
Q 1250 4259 991 3328 
L 497 3506 
Q 853 4725 2116 4725 
Q 2806 4725 3216 4316 
Q 3575 3947 3575 3425 
Q 3575 3038 3344 2722 
Q 3131 2416 2366 1938 
L 2231 1856 
Q 1256 1253 978 569 
L 3659 569 
L 3659 63 
z
" transform="scale(0.015625)"/>
       </defs>
       <use xlink:href="#IPAexGothic-51"/>
       <use xlink:href="#IPAexGothic-32" transform="translate(79.6875 0)"/>
      </g>
     </g>
    </g>
    <g id="xtick_3">
     <g id="line2d_3">
      <g>
       <use xlink:href="#m90a1023e12" x="305.783788" y="260.84" style="stroke: #000000; stroke-width: 0.8"/>
      </g>
     </g>
     <g id="text_3">
      <!-- Q3 -->
      <g transform="translate(298.650194 275.330625) scale(0.1 -0.1)">
       <defs>
        <path id="IPAexGothic-33" d="M 2381 2419 
Q 3506 2216 3506 1278 
Q 3506 716 3128 356 
Q 2709 -31 1944 -31 
Q 797 -31 288 881 
L 756 1131 
Q 1109 441 1938 441 
Q 2425 441 2694 691 
Q 2950 928 2950 1291 
Q 2950 1719 2566 1978 
Q 2216 2213 1644 2213 
L 1363 2213 
L 1363 2669 
L 1656 2669 
Q 2231 2669 2534 2888 
Q 2859 3119 2859 3509 
Q 2859 3934 2494 4138 
Q 2259 4278 1931 4278 
Q 1238 4278 903 3578 
L 434 3803 
Q 897 4725 1938 4725 
Q 2597 4725 3006 4394 
Q 3416 4069 3416 3534 
Q 3416 3028 3019 2706 
Q 2763 2500 2381 2444 
L 2381 2419 
z
" transform="scale(0.015625)"/>
       </defs>
       <use xlink:href="#IPAexGothic-51"/>
       <use xlink:href="#IPAexGothic-33" transform="translate(79.6875 0)"/>
      </g>
     </g>
    </g>
    <g id="xtick_4">
     <g id="line2d_4">
      <g>
       <use xlink:href="#m90a1023e12" x="428.241364" y="260.84" style="stroke: #000000; stroke-width: 0.8"/>
      </g>
     </g>
     <g id="text_4">
      <!-- Q4 -->
      <g transform="translate(421.10777 275.330625) scale(0.1 -0.1)">
       <defs>
        <path id="IPAexGothic-34" d="M 3813 1159 
L 3059 1159 
L 3059 63 
L 2547 63 
L 2547 1159 
L 197 1159 
L 197 1672 
L 2456 4678 
L 3059 4678 
L 3059 1634 
L 3813 1634 
L 3813 1159 
z
M 2578 4109 
L 2559 4109 
Q 2278 3656 2003 3284 
L 759 1634 
L 2547 1634 
L 2547 3144 
Q 2547 3481 2578 4109 
z
" transform="scale(0.015625)"/>
       </defs>
       <use xlink:href="#IPAexGothic-51"/>
       <use xlink:href="#IPAexGothic-34" transform="translate(79.6875 0)"/>
      </g>
     </g>
    </g>
   </g>
   <g id="matplotlib.axis_2">
    <g id="ytick_1">
     <g id="line2d_5">
      <path d="M 42.5 53.516 
L 446.61 53.516 
" clip-path="url(#p44b49e9115)" style="fill: none; stroke: #000000; stroke-opacity: 0.2; stroke-width: 0.5; stroke-linecap: square"/>
     </g>
     <g id="line2d_6">
      <defs>
       <path id="m35fa727650" d="M 0 0 
L -3.5 0 
" style="stroke: #000000; stroke-width: 0.8"/>
      </defs>
      <g>
       <use xlink:href="#m35fa727650" x="42.5" y="53.516" style="stroke: #000000; stroke-width: 0.8"/>
      </g>
     </g>
     <g id="text_5">
      <!-- 1 -->
      <g transform="translate(29.201563 57.261312) scale(0.1 -0.1)">
       <use xlink:href="#IPAexGothic-31"/>
      </g>
     </g>
    </g>
    <g id="ytick_2">
     <g id="line2d_7">
      <path d="M 42.5 99.588 
L 446.61 99.588 
" clip-path="url(#p44b49e9115)" style="fill: none; stroke: #000000; stroke-opacity: 0.2; stroke-width: 0.5; stroke-linecap: square"/>
     </g>
     <g id="line2d_8">
      <g>
       <use xlink:href="#m35fa727650" x="42.5" y="99.588" style="stroke: #000000; stroke-width: 0.8"/>
      </g>
     </g>
     <g id="text_6">
      <!-- 2 -->
      <g transform="translate(29.201563 103.333312) scale(0.1 -0.1)">
       <use xlink:href="#IPAexGothic-32"/>
      </g>
     </g>
    </g>
    <g id="ytick_3">
     <g id="line2d_9">
      <path d="M 42.5 145.66 
L 446.61 145.66 
" clip-path="url(#p44b49e9115)" style="fill: none; stroke: #000000; stroke-opacity: 0.2; stroke-width: 0.5; stroke-linecap: square"/>
     </g>
     <g id="line2d_10">
      <g>
       <use xlink:href="#m35fa727650" x="42.5" y="145.66" style="stroke: #000000; stroke-width: 0.8"/>
      </g>
     </g>
     <g id="text_7">
      <!-- 3 -->
      <g transform="translate(29.201563 149.405313) scale(0.1 -0.1)">
       <use xlink:href="#IPAexGothic-33"/>
      </g>
     </g>
    </g>
    <g id="ytick_4">
     <g id="line2d_11">
      <path d="M 42.5 191.732 
L 446.61 191.732 
" clip-path="url(#p44b49e9115)" style="fill: none; stroke: #000000; stroke-opacity: 0.2; stroke-width: 0.5; stroke-linecap: square"/>
     </g>
     <g id="line2d_12">
      <g>
       <use xlink:href="#m35fa727650" x="42.5" y="191.732" style="stroke: #000000; stroke-width: 0.8"/>
      </g>
     </g>
     <g id="text_8">
      <!-- 4 -->
      <g transform="translate(29.201563 195.477312) scale(0.1 -0.1)">
       <use xlink:href="#IPAexGothic-34"/>
      </g>
     </g>
    </g>
    <g id="ytick_5">
     <g id="line2d_13">
      <path d="M 42.5 237.804 
L 446.61 237.804 
" clip-path="url(#p44b49e9115)" style="fill: none; stroke: #000000; stroke-opacity: 0.2; stroke-width: 0.5; stroke-linecap: square"/>
     </g>
     <g id="line2d_14">
      <g>
       <use xlink:href="#m35fa727650" x="42.5" y="237.804" style="stroke: #000000; stroke-width: 0.8"/>
      </g>
     </g>
     <g id="text_9">
      <!-- 5 -->
      <g transform="translate(29.201563 241.549312) scale(0.1 -0.1)">
       <defs>
        <path id="IPAexGothic-35" d="M 1178 2603 
Q 1634 2963 2172 2963 
Q 2816 2963 3241 2528 
Q 3638 2113 3638 1497 
Q 3638 938 3297 513 
Q 2869 -31 2031 -31 
Q 959 -31 469 784 
L 938 1028 
Q 1309 434 2013 434 
Q 2466 434 2769 716 
Q 3081 1013 3081 1503 
Q 3081 1966 2806 2241 
Q 2519 2528 2056 2528 
Q 1406 2528 1072 2028 
L 591 2091 
L 884 4634 
L 3406 4634 
L 3406 4153 
L 1341 4153 
L 1134 2603 
L 1178 2603 
z
" transform="scale(0.015625)"/>
       </defs>
       <use xlink:href="#IPAexGothic-35"/>
      </g>
     </g>
    </g>
    <g id="text_10">
     <!-- 順位 -->
     <g transform="translate(22.465563 160.06) rotate(-90) scale(0.144 -0.144)">
      <defs>
       <path id="IPAexGothic-9806" d="M 4384 4031 
L 5659 4031 
L 5659 788 
L 3144 788 
L 3144 4031 
L 3981 4031 
Q 4069 4369 4116 4647 
L 2831 4647 
L 2831 5056 
L 5997 5056 
L 5997 4647 
L 4584 4647 
Q 4484 4253 4384 4031 
z
M 5244 3647 
L 3559 3647 
L 3559 3078 
L 5244 3078 
L 5244 3647 
z
M 3559 2706 
L 3559 2138 
L 5244 2138 
L 5244 2706 
L 3559 2706 
z
M 3559 1766 
L 3559 1172 
L 5244 1172 
L 5244 1766 
L 3559 1766 
z
M 616 5119 
L 1025 5119 
L 1025 2291 
Q 1025 1350 953 781 
Q 872 122 566 -494 
L 225 -134 
Q 616 619 616 2169 
L 616 5119 
z
M 1397 4744 
L 1800 4744 
L 1800 513 
L 1397 513 
L 1397 4744 
z
M 2197 5172 
L 2606 5172 
L 2606 -288 
L 2197 -288 
L 2197 5172 
z
M 2688 -191 
Q 3306 181 3769 769 
L 4134 525 
Q 3594 -134 3028 -525 
L 2688 -191 
z
M 5741 -459 
Q 5131 178 4641 519 
L 5006 781 
Q 5666 319 6119 -134 
L 5741 -459 
z
" transform="scale(0.015625)"/>
       <path id="IPAexGothic-4f4d" d="M 1566 3669 
L 1566 -447 
L 1113 -447 
L 1113 2725 
Q 856 2288 544 1863 
L 294 2253 
Q 1209 3525 1591 5241 
L 2034 5147 
Q 1838 4313 1566 3669 
z
M 4075 3944 
L 5791 3944 
L 5791 3528 
L 2044 3528 
L 2044 3944 
L 3600 3944 
L 3600 5109 
L 4075 5109 
L 4075 3944 
z
M 4025 225 
L 4031 256 
Q 4456 1591 4691 3213 
L 5184 3091 
Q 4878 1459 4484 225 
L 6009 225 
L 6009 -191 
L 1838 -191 
L 1838 225 
L 4025 225 
z
M 3000 556 
Q 2791 1869 2431 2988 
L 2891 3116 
Q 3225 2194 3506 709 
L 3000 556 
z
" transform="scale(0.015625)"/>
      </defs>
      <use xlink:href="#IPAexGothic-9806"/>
      <use xlink:href="#IPAexGothic-4f4d" transform="translate(100 0)"/>
     </g>
    </g>
   </g>
   <g id="line2d_15">
    <path d="M 60.868636 53.516 
L 183.326212 99.588 
L 305.783788 145.66 
L 428.241364 145.66 
" clip-path="url(#p44b49e9115)" style="fill: none; stroke: #264653; stroke-width: 2; stroke-linecap: square"/>
    <defs>
     <path id="mf5f2337982" d="M 0 4 
C 1.060812 4 2.078319 3.578535 2.828427 2.828427 
C 3.578535 2.078319 4 1.060812 4 0 
C 4 -1.060812 3.578535 -2.078319 2.828427 -2.828427 
C 2.078319 -3.578535 1.060812 -4 0 -4 
C -1.060812 -4 -2.078319 -3.578535 -2.828427 -2.828427 
C -3.578535 -2.078319 -4 -1.060812 -4 0 
C -4 1.060812 -3.578535 2.078319 -2.828427 2.828427 
C -2.078319 3.578535 -1.060812 4 0 4 
z
" style="stroke: #264653"/>
    </defs>
    <g clip-path="url(#p44b49e9115)">
     <use xlink:href="#mf5f2337982" x="60.868636" y="53.516" style="fill: #264653; stroke: #264653"/>
     <use xlink:href="#mf5f2337982" x="183.326212" y="99.588" style="fill: #264653; stroke: #264653"/>
     <use xlink:href="#mf5f2337982" x="305.783788" y="145.66" style="fill: #264653; stroke: #264653"/>
     <use xlink:href="#mf5f2337982" x="428.241364" y="145.66" style="fill: #264653; stroke: #264653"/>
    </g>
   </g>
   <g id="line2d_16">
    <path d="M 60.868636 145.66 
L 183.326212 53.516 
L 305.783788 53.516 
L 428.241364 99.588 
" clip-path="url(#p44b49e9115)" style="fill: none; stroke: #2a9d8f; stroke-width: 2; stroke-linecap: square"/>
    <defs>
     <path id="m60931ea4af" d="M 0 4 
C 1.060812 4 2.078319 3.578535 2.828427 2.828427 
C 3.578535 2.078319 4 1.060812 4 0 
C 4 -1.060812 3.578535 -2.078319 2.828427 -2.828427 
C 2.078319 -3.578535 1.060812 -4 0 -4 
C -1.060812 -4 -2.078319 -3.578535 -2.828427 -2.828427 
C -3.578535 -2.078319 -4 -1.060812 -4 0 
C -4 1.060812 -3.578535 2.078319 -2.828427 2.828427 
C -2.078319 3.578535 -1.060812 4 0 4 
z
" style="stroke: #2a9d8f"/>
    </defs>
    <g clip-path="url(#p44b49e9115)">
     <use xlink:href="#m60931ea4af" x="60.868636" y="145.66" style="fill: #2a9d8f; stroke: #2a9d8f"/>
     <use xlink:href="#m60931ea4af" x="183.326212" y="53.516" style="fill: #2a9d8f; stroke: #2a9d8f"/>
     <use xlink:href="#m60931ea4af" x="305.783788" y="53.516" style="fill: #2a9d8f; stroke: #2a9d8f"/>
     <use xlink:href="#m60931ea4af" x="428.241364" y="99.588" style="fill: #2a9d8f; stroke: #2a9d8f"/>
    </g>
   </g>
   <g id="line2d_17">
    <path d="M 60.868636 99.588 
L 183.326212 145.66 
L 305.783788 99.588 
L 428.241364 53.516 
" clip-path="url(#p44b49e9115)" style="fill: none; stroke: #e9c46a; stroke-width: 2; stroke-linecap: square"/>
    <defs>
     <path id="m2b20e6a3c1" d="M 0 4 
C 1.060812 4 2.078319 3.578535 2.828427 2.828427 
C 3.578535 2.078319 4 1.060812 4 0 
C 4 -1.060812 3.578535 -2.078319 2.828427 -2.828427 
C 2.078319 -3.578535 1.060812 -4 0 -4 
C -1.060812 -4 -2.078319 -3.578535 -2.828427 -2.828427 
C -3.578535 -2.078319 -4 -1.060812 -4 0 
C -4 1.060812 -3.578535 2.078319 -2.828427 2.828427 
C -2.078319 3.578535 -1.060812 4 0 4 
z
" style="stroke: #e9c46a"/>
    </defs>
    <g clip-path="url(#p44b49e9115)">
     <use xlink:href="#m2b20e6a3c1" x="60.868636" y="99.588" style="fill: #e9c46a; stroke: #e9c46a"/>
     <use xlink:href="#m2b20e6a3c1" x="183.326212" y="145.66" style="fill: #e9c46a; stroke: #e9c46a"/>
     <use xlink:href="#m2b20e6a3c1" x="305.783788" y="99.588" style="fill: #e9c46a; stroke: #e9c46a"/>
     <use xlink:href="#m2b20e6a3c1" x="428.241364" y="53.516" style="fill: #e9c46a; stroke: #e9c46a"/>
    </g>
   </g>
   <g id="line2d_18">
    <path d="M 60.868636 191.732 
L 183.326212 191.732 
L 305.783788 237.804 
L 428.241364 191.732 
" clip-path="url(#p44b49e9115)" style="fill: none; stroke: #f4a261; stroke-width: 2; stroke-linecap: square"/>
    <defs>
     <path id="me34ebbe061" d="M 0 4 
C 1.060812 4 2.078319 3.578535 2.828427 2.828427 
C 3.578535 2.078319 4 1.060812 4 0 
C 4 -1.060812 3.578535 -2.078319 2.828427 -2.828427 
C 2.078319 -3.578535 1.060812 -4 0 -4 
C -1.060812 -4 -2.078319 -3.578535 -2.828427 -2.828427 
C -3.578535 -2.078319 -4 -1.060812 -4 0 
C -4 1.060812 -3.578535 2.078319 -2.828427 2.828427 
C -2.078319 3.578535 -1.060812 4 0 4 
z
" style="stroke: #f4a261"/>
    </defs>
    <g clip-path="url(#p44b49e9115)">
     <use xlink:href="#me34ebbe061" x="60.868636" y="191.732" style="fill: #f4a261; stroke: #f4a261"/>
     <use xlink:href="#me34ebbe061" x="183.326212" y="191.732" style="fill: #f4a261; stroke: #f4a261"/>
     <use xlink:href="#me34ebbe061" x="305.783788" y="237.804" style="fill: #f4a261; stroke: #f4a261"/>
     <use xlink:href="#me34ebbe061" x="428.241364" y="191.732" style="fill: #f4a261; stroke: #f4a261"/>
    </g>
   </g>
   <g id="line2d_19">
    <path d="M 60.868636 237.804 
L 183.326212 237.804 
L 305.783788 191.732 
L 428.241364 237.804 
" clip-path="url(#p44b49e9115)" style="fill: none; stroke: #e76f51; stroke-width: 2; stroke-linecap: square"/>
    <defs>
     <path id="md1c49dcf1b" d="M 0 4 
C 1.060812 4 2.078319 3.578535 2.828427 2.828427 
C 3.578535 2.078319 4 1.060812 4 0 
C 4 -1.060812 3.578535 -2.078319 2.828427 -2.828427 
C 2.078319 -3.578535 1.060812 -4 0 -4 
C -1.060812 -4 -2.078319 -3.578535 -2.828427 -2.828427 
C -3.578535 -2.078319 -4 -1.060812 -4 0 
C -4 1.060812 -3.578535 2.078319 -2.828427 2.828427 
C -2.078319 3.578535 -1.060812 4 0 4 
z
" style="stroke: #e76f51"/>
    </defs>
    <g clip-path="url(#p44b49e9115)">
     <use xlink:href="#md1c49dcf1b" x="60.868636" y="237.804" style="fill: #e76f51; stroke: #e76f51"/>
     <use xlink:href="#md1c49dcf1b" x="183.326212" y="237.804" style="fill: #e76f51; stroke: #e76f51"/>
     <use xlink:href="#md1c49dcf1b" x="305.783788" y="191.732" style="fill: #e76f51; stroke: #e76f51"/>
     <use xlink:href="#md1c49dcf1b" x="428.241364" y="237.804" style="fill: #e76f51; stroke: #e76f51"/>
    </g>
   </g>
   <g id="text_11">
    <!-- ブランド別 売上順位の推移 -->
    <g transform="translate(138.5422 24.48) scale(0.1728 -0.1728)">
     <defs>
      <path id="IPAexGothic-30d6" d="M 4806 4250 
L 5106 3975 
Q 4866 2353 4063 1356 
Q 3275 384 1869 -141 
L 1503 306 
Q 4050 1084 4531 3775 
L 947 3713 
L 947 4197 
L 4806 4250 
z
M 6047 4475 
Q 5688 5016 5294 5344 
L 5594 5575 
Q 5978 5266 6369 4750 
L 6047 4475 
z
M 5453 4006 
Q 5163 4497 4716 4897 
L 5031 5141 
Q 5400 4831 5784 4281 
L 5453 4006 
z
" transform="scale(0.015625)"/>
      <path id="IPAexGothic-30e9" d="M 1447 4709 
L 4922 4709 
L 4922 4234 
L 1447 4234 
L 1447 4709 
z
M 897 3303 
L 5172 3303 
L 5478 3013 
Q 5069 1669 4219 875 
Q 3475 181 2306 -181 
L 1972 294 
Q 4150 784 4834 2828 
L 897 2828 
L 897 3303 
z
" transform="scale(0.015625)"/>
      <path id="IPAexGothic-30f3" d="M 2444 3084 
Q 1816 3656 1056 4084 
L 1381 4519 
Q 2063 4191 2816 3559 
L 2444 3084 
z
M 1100 609 
Q 3984 1106 5216 3828 
L 5619 3469 
Q 4413 794 1434 103 
L 1100 609 
z
" transform="scale(0.015625)"/>
      <path id="IPAexGothic-30c9" d="M 2247 4959 
L 2766 4959 
L 2766 3169 
Q 4050 2581 5178 1850 
L 4841 1331 
Q 3781 2138 2766 2650 
L 2766 -225 
L 2247 -225 
L 2247 4959 
z
M 5263 3847 
Q 4900 4388 4506 4716 
L 4806 4947 
Q 5191 4638 5581 4122 
L 5263 3847 
z
M 4666 3378 
Q 4375 3869 3931 4269 
L 4244 4513 
Q 4616 4206 5000 3653 
L 4666 3378 
z
" transform="scale(0.015625)"/>
      <path id="IPAexGothic-5225" d="M 1922 2963 
Q 1906 2453 1894 2209 
L 3341 2209 
Q 3313 550 3175 63 
Q 3059 -366 2413 -366 
Q 2072 -366 1753 -313 
L 1691 134 
Q 2084 63 2413 63 
Q 2694 63 2759 319 
Q 2856 722 2888 1753 
Q 2888 1800 2894 1819 
L 1863 1819 
Q 1709 350 700 -481 
L 353 -147 
Q 1075 403 1306 1256 
Q 1450 1822 1478 2963 
L 700 2963 
L 700 4984 
L 3278 4984 
L 3278 2963 
L 1922 2963 
z
M 1141 4588 
L 1141 3353 
L 2838 3353 
L 2838 4588 
L 1141 4588 
z
M 3972 4597 
L 4425 4597 
L 4425 1159 
L 3972 1159 
L 3972 4597 
z
M 5309 5044 
L 5763 5044 
L 5763 191 
Q 5763 -141 5581 -263 
Q 5438 -359 5116 -359 
Q 4688 -359 4253 -313 
L 4156 178 
Q 4625 116 5072 116 
Q 5309 116 5309 353 
L 5309 5044 
z
" transform="scale(0.015625)"/>
      <path id="IPAexGothic-20" transform="scale(0.015625)"/>
      <path id="IPAexGothic-58f2" d="M 2938 4544 
L 2938 5313 
L 3419 5313 
L 3419 4544 
L 5781 4544 
L 5781 4147 
L 3419 4147 
L 3419 3559 
L 5306 3559 
L 5306 3163 
L 1088 3163 
L 1088 3559 
L 2938 3559 
L 2938 4147 
L 609 4147 
L 609 4544 
L 2938 4544 
z
M 5684 2706 
L 5684 1522 
L 5216 1522 
L 5216 2316 
L 1178 2316 
L 1178 1478 
L 709 1478 
L 709 2706 
L 5684 2706 
z
M 531 -84 
Q 1494 91 1894 556 
Q 2213 913 2222 1972 
L 2688 1972 
Q 2678 756 2216 225 
Q 1794 -256 819 -506 
L 531 -84 
z
M 3622 1972 
L 4091 1972 
L 4091 353 
Q 4091 191 4181 153 
Q 4313 100 4684 100 
Q 5169 100 5294 159 
Q 5503 256 5513 1006 
L 5972 863 
Q 5944 -22 5691 -206 
Q 5503 -347 4659 -347 
Q 3981 -347 3809 -250 
Q 3622 -144 3622 178 
L 3622 1972 
z
" transform="scale(0.015625)"/>
      <path id="IPAexGothic-4e0a" d="M 3259 3366 
L 5475 3366 
L 5475 2913 
L 3259 2913 
L 3259 556 
L 5991 556 
L 5991 103 
L 391 103 
L 391 556 
L 2772 556 
L 2772 5050 
L 3259 5050 
L 3259 3366 
z
" transform="scale(0.015625)"/>
      <path id="IPAexGothic-306e" d="M 3119 469 
Q 5275 766 5275 2425 
Q 5275 3453 4413 3925 
Q 4041 4116 3547 4159 
Q 3394 2525 2850 1400 
Q 2322 306 1722 306 
Q 1384 306 1084 666 
Q 609 1244 609 2003 
Q 609 3025 1397 3794 
Q 2184 4563 3431 4563 
Q 4306 4563 4928 4122 
Q 5813 3506 5813 2425 
Q 5813 438 3431 6 
L 3119 469 
z
M 3053 4147 
Q 2378 4044 1891 3641 
Q 1097 2981 1097 1991 
Q 1097 1366 1434 978 
Q 1581 813 1719 813 
Q 2022 813 2416 1625 
Q 2909 2638 3053 4147 
z
" transform="scale(0.015625)"/>
      <path id="IPAexGothic-63a8" d="M 3244 4063 
L 4244 4063 
Q 4481 4578 4653 5228 
L 5125 5100 
Q 4913 4484 4691 4063 
L 5906 4063 
L 5906 3666 
L 4647 3666 
L 4647 2822 
L 5747 2822 
L 5747 2438 
L 4647 2438 
L 4647 1594 
L 5747 1594 
L 5747 1216 
L 4647 1216 
L 4647 319 
L 6047 319 
L 6047 -91 
L 3244 -91 
L 3244 -481 
L 2816 -481 
L 2816 3188 
L 2791 3128 
Q 2581 2744 2366 2463 
L 2084 2797 
Q 2813 3728 3166 5284 
L 3616 5144 
Q 3431 4500 3244 4063 
z
M 3244 319 
L 4231 319 
L 4231 1216 
L 3244 1216 
L 3244 319 
z
M 3244 1594 
L 4231 1594 
L 4231 2438 
L 3244 2438 
L 3244 1594 
z
M 3244 2822 
L 4231 2822 
L 4231 3666 
L 3244 3666 
L 3244 2822 
z
M 1184 4084 
L 1184 5313 
L 1613 5313 
L 1613 4084 
L 2328 4084 
L 2328 3669 
L 1613 3669 
L 1613 2241 
Q 1997 2341 2334 2453 
L 2359 2069 
Q 1809 1884 1631 1831 
L 1613 1825 
L 1613 44 
Q 1613 -197 1522 -294 
Q 1413 -403 1081 -403 
Q 738 -403 519 -366 
L 441 97 
Q 741 38 978 38 
Q 1184 38 1184 219 
L 1184 1703 
L 1147 1697 
Q 734 1581 409 1509 
L 275 1941 
Q 722 2022 1138 2119 
Q 1147 2122 1166 2125 
Q 1178 2128 1184 2131 
L 1184 3669 
L 372 3669 
L 372 4084 
L 1184 4084 
z
" transform="scale(0.015625)"/>
      <path id="IPAexGothic-79fb" d="M 4691 2419 
L 5844 2419 
L 6069 2188 
Q 5503 1156 4763 513 
Q 4081 -75 2975 -469 
L 2681 -97 
Q 3684 194 4384 728 
Q 4097 1056 3731 1356 
Q 3381 1053 2919 819 
L 2669 1150 
Q 3853 1772 4500 2878 
L 4909 2772 
Q 4772 2528 4691 2419 
z
M 4409 2034 
Q 4219 1803 4000 1588 
Q 4375 1341 4703 1009 
Q 5219 1488 5497 2034 
L 4409 2034 
z
M 1350 2328 
Q 1009 1334 513 659 
L 263 1081 
Q 966 2022 1266 3128 
L 366 3128 
L 366 3531 
L 1350 3531 
L 1350 4400 
Q 919 4322 575 4266 
L 366 4644 
Q 1506 4809 2378 5144 
L 2700 4747 
Q 2238 4600 1784 4491 
L 1784 3531 
L 2616 3531 
L 2616 3128 
L 1784 3128 
L 1784 2688 
Q 2306 2266 2719 1803 
L 2444 1356 
Q 2106 1838 1784 2181 
L 1784 -450 
L 1350 -450 
L 1350 2328 
z
M 4275 4800 
L 5491 4800 
L 5709 4609 
Q 4763 2809 2875 2047 
L 2606 2388 
Q 3534 2722 4134 3244 
Q 3869 3519 3450 3794 
Q 3184 3569 2859 3359 
L 2591 3666 
Q 3578 4259 4056 5288 
L 4481 5191 
Q 4406 5034 4275 4800 
z
M 4019 4416 
Q 3856 4194 3700 4038 
Q 4128 3759 4372 3553 
L 4416 3513 
Q 4884 3991 5119 4416 
L 4019 4416 
z
" transform="scale(0.015625)"/>
     </defs>
     <use xlink:href="#IPAexGothic-30d6"/>
     <use xlink:href="#IPAexGothic-30e9" transform="translate(100 0)"/>
     <use xlink:href="#IPAexGothic-30f3" transform="translate(200 0)"/>
     <use xlink:href="#IPAexGothic-30c9" transform="translate(300 0)"/>
     <use xlink:href="#IPAexGothic-5225" transform="translate(400 0)"/>
     <use xlink:href="#IPAexGothic-20" transform="translate(500 0)"/>
     <use xlink:href="#IPAexGothic-58f2" transform="translate(527.001953 0)"/>
     <use xlink:href="#IPAexGothic-4e0a" transform="translate(627.001953 0)"/>
     <use xlink:href="#IPAexGothic-9806" transform="translate(727.001953 0)"/>
     <use xlink:href="#IPAexGothic-4f4d" transform="translate(827.001953 0)"/>
     <use xlink:href="#IPAexGothic-306e" transform="translate(927.001953 0)"/>
     <use xlink:href="#IPAexGothic-63a8" transform="translate(1027.001953 0)"/>
     <use xlink:href="#IPAexGothic-79fb" transform="translate(1127.001953 0)"/>
    </g>
   </g>
   <g id="legend_1">
    <g id="patch_3">
     <path d="M 414.09525 151.62375 
L 492.8265 151.62375 
Q 495.2265 151.62375 495.2265 149.22375 
L 495.2265 44.88 
Q 495.2265 42.48 492.8265 42.48 
L 414.09525 42.48 
Q 411.69525 42.48 411.69525 44.88 
L 411.69525 149.22375 
Q 411.69525 151.62375 414.09525 151.62375 
z
" style="fill: #ffffff; opacity: 0.8; stroke: #cccccc; stroke-linejoin: miter"/>
    </g>
    <g id="line2d_20">
     <path d="M 416.49525 52.06875 
L 428.49525 52.06875 
L 440.49525 52.06875 
" style="fill: none; stroke: #264653; stroke-width: 2; stroke-linecap: square"/>
     <defs>
      <path id="m9c7ee5dc26" d="M 0 8 
C 2.121625 8 4.156639 7.15707 5.656854 5.656854 
C 7.15707 4.156639 8 2.121625 8 0 
C 8 -2.121625 7.15707 -4.156639 5.656854 -5.656854 
C 4.156639 -7.15707 2.121625 -8 0 -8 
C -2.121625 -8 -4.156639 -7.15707 -5.656854 -5.656854 
C -7.15707 -4.156639 -8 -2.121625 -8 0 
C -8 2.121625 -7.15707 4.156639 -5.656854 5.656854 
C -4.156639 7.15707 -2.121625 8 0 8 
z
" style="stroke: #264653"/>
     </defs>
     <g>
      <use xlink:href="#m9c7ee5dc26" x="428.49525" y="52.06875" style="fill: #264653; stroke: #264653"/>
     </g>
    </g>
    <g id="text_12">
     <!-- Alpha -->
     <g transform="translate(450.09525 56.26875) scale(0.12 -0.12)">
      <defs>
       <path id="IPAexGothic-41" d="M 4056 63 
L 3444 63 
L 2938 1409 
L 1100 1409 
L 603 63 
L -6 63 
L 1806 4666 
L 2259 4666 
L 4056 63 
z
M 2778 1863 
L 2316 3078 
Q 2125 3588 2028 4000 
L 2009 4000 
Q 1897 3563 1716 3078 
L 1263 1863 
L 2778 1863 
z
" transform="scale(0.015625)"/>
       <path id="IPAexGothic-6c" d="M 1131 63 
L 581 63 
L 581 4794 
L 1131 4794 
L 1131 63 
z
" transform="scale(0.015625)"/>
       <path id="IPAexGothic-70" d="M 1075 2688 
Q 1525 3341 2206 3341 
Q 2769 3341 3172 2938 
Q 3641 2469 3641 1644 
Q 3641 841 3178 372 
Q 2775 -31 2200 -31 
Q 1569 -31 1106 497 
L 1106 -1216 
L 563 -1216 
L 563 3250 
L 1075 3250 
L 1075 2688 
z
M 1106 1950 
L 1106 1291 
Q 1106 897 1516 600 
Q 1791 403 2106 403 
Q 2469 403 2725 659 
Q 3066 997 3066 1631 
Q 3066 2200 2784 2559 
Q 2503 2900 2100 2900 
Q 1656 2900 1338 2484 
Q 1106 2184 1106 1950 
z
" transform="scale(0.015625)"/>
       <path id="IPAexGothic-68" d="M 3347 63 
L 2797 63 
L 2797 2041 
Q 2797 2853 2131 2853 
Q 1447 2853 1131 2041 
L 1131 63 
L 581 63 
L 581 4794 
L 1131 4794 
L 1131 2706 
Q 1566 3316 2247 3316 
Q 3347 3316 3347 2072 
L 3347 63 
z
" transform="scale(0.015625)"/>
       <path id="IPAexGothic-61" d="M 3156 63 
L 2672 63 
Q 2559 303 2531 556 
L 2509 556 
Q 2147 -25 1428 -25 
Q 934 -25 622 288 
Q 347 563 347 959 
Q 347 1947 2050 1997 
L 2478 2009 
L 2478 2175 
Q 2478 2509 2288 2700 
Q 2088 2900 1775 2900 
Q 1238 2900 969 2378 
L 494 2597 
Q 938 3328 1788 3328 
Q 2375 3328 2691 3000 
Q 2984 2706 2984 2169 
L 2984 997 
Q 2984 400 3156 63 
z
M 2491 1625 
L 2141 1619 
Q 903 1591 903 953 
Q 903 728 1050 581 
Q 1231 403 1525 403 
Q 1934 403 2234 703 
Q 2491 969 2491 1344 
L 2491 1625 
z
" transform="scale(0.015625)"/>
      </defs>
      <use xlink:href="#IPAexGothic-41"/>
      <use xlink:href="#IPAexGothic-6c" transform="translate(63.720703 0)"/>
      <use xlink:href="#IPAexGothic-70" transform="translate(90.722656 0)"/>
      <use xlink:href="#IPAexGothic-68" transform="translate(152.832031 0)"/>
      <use xlink:href="#IPAexGothic-61" transform="translate(213.525391 0)"/>
     </g>
    </g>
    <g id="line2d_21">
     <path d="M 416.49525 74.1375 
L 428.49525 74.1375 
L 440.49525 74.1375 
" style="fill: none; stroke: #2a9d8f; stroke-width: 2; stroke-linecap: square"/>
     <defs>
      <path id="m0e98363482" d="M 0 8 
C 2.121625 8 4.156639 7.15707 5.656854 5.656854 
C 7.15707 4.156639 8 2.121625 8 0 
C 8 -2.121625 7.15707 -4.156639 5.656854 -5.656854 
C 4.156639 -7.15707 2.121625 -8 0 -8 
C -2.121625 -8 -4.156639 -7.15707 -5.656854 -5.656854 
C -7.15707 -4.156639 -8 -2.121625 -8 0 
C -8 2.121625 -7.15707 4.156639 -5.656854 5.656854 
C -4.156639 7.15707 -2.121625 8 0 8 
z
" style="stroke: #2a9d8f"/>
     </defs>
     <g>
      <use xlink:href="#m0e98363482" x="428.49525" y="74.1375" style="fill: #2a9d8f; stroke: #2a9d8f"/>
     </g>
    </g>
    <g id="text_13">
     <!-- Bravo -->
     <g transform="translate(450.09525 78.3375) scale(0.12 -0.12)">
      <defs>
       <path id="IPAexGothic-42" d="M 2688 2425 
Q 3816 2225 3816 1338 
Q 3816 556 3041 222 
Q 2672 63 2094 63 
L 609 63 
L 609 4634 
L 1916 4634 
Q 2494 4634 2869 4500 
Q 3644 4222 3644 3491 
Q 3644 2609 2688 2447 
L 2688 2425 
z
M 1159 2656 
L 1844 2656 
Q 3063 2656 3063 3431 
Q 3063 4181 1881 4181 
L 1159 4181 
L 1159 2656 
z
M 1159 522 
L 2016 522 
Q 3222 522 3222 1369 
Q 3222 1897 2625 2100 
Q 2278 2222 1875 2222 
L 1159 2222 
L 1159 522 
z
" transform="scale(0.015625)"/>
       <path id="IPAexGothic-72" d="M 2309 3316 
L 2213 2769 
Q 2106 2791 2022 2791 
Q 1653 2791 1413 2444 
Q 1113 2006 1113 1675 
L 1113 63 
L 563 63 
L 563 3250 
L 1081 3250 
L 1056 2303 
L 1069 2303 
Q 1422 3341 2097 3341 
Q 2206 3341 2309 3316 
z
" transform="scale(0.015625)"/>
       <path id="IPAexGothic-76" d="M 3103 3250 
L 1747 6 
L 1375 6 
L 25 3250 
L 628 3250 
L 1338 1388 
L 1522 844 
L 1569 703 
L 1588 703 
Q 1641 884 1822 1388 
L 2516 3250 
L 3103 3250 
z
" transform="scale(0.015625)"/>
       <path id="IPAexGothic-6f" d="M 1919 3341 
Q 2594 3341 3056 2888 
Q 3531 2413 3531 1638 
Q 3531 888 3066 422 
Q 2609 -31 1919 -31 
Q 1228 -31 781 416 
Q 313 881 313 1656 
Q 313 2413 788 2888 
Q 1241 3341 1919 3341 
z
M 1919 2919 
Q 1519 2919 1241 2631 
Q 888 2278 888 1650 
Q 888 1031 1234 684 
Q 1516 403 1919 403 
Q 2331 403 2609 691 
Q 2956 1038 2956 1672 
Q 2956 2269 2603 2631 
Q 2316 2919 1919 2919 
z
" transform="scale(0.015625)"/>
      </defs>
      <use xlink:href="#IPAexGothic-42"/>
      <use xlink:href="#IPAexGothic-72" transform="translate(65.917969 0)"/>
      <use xlink:href="#IPAexGothic-61" transform="translate(102.929688 0)"/>
      <use xlink:href="#IPAexGothic-76" transform="translate(157.910156 0)"/>
      <use xlink:href="#IPAexGothic-6f" transform="translate(206.494141 0)"/>
     </g>
    </g>
    <g id="line2d_22">
     <path d="M 416.49525 96.20625 
L 428.49525 96.20625 
L 440.49525 96.20625 
" style="fill: none; stroke: #e9c46a; stroke-width: 2; stroke-linecap: square"/>
     <defs>
      <path id="made93e4d78" d="M 0 8 
C 2.121625 8 4.156639 7.15707 5.656854 5.656854 
C 7.15707 4.156639 8 2.121625 8 0 
C 8 -2.121625 7.15707 -4.156639 5.656854 -5.656854 
C 4.156639 -7.15707 2.121625 -8 0 -8 
C -2.121625 -8 -4.156639 -7.15707 -5.656854 -5.656854 
C -7.15707 -4.156639 -8 -2.121625 -8 0 
C -8 2.121625 -7.15707 4.156639 -5.656854 5.656854 
C -4.156639 7.15707 -2.121625 8 0 8 
z
" style="stroke: #e9c46a"/>
     </defs>
     <g>
      <use xlink:href="#made93e4d78" x="428.49525" y="96.20625" style="fill: #e9c46a; stroke: #e9c46a"/>
     </g>
    </g>
    <g id="text_14">
     <!-- Charlie -->
     <g transform="translate(450.09525 100.40625) scale(0.12 -0.12)">
      <defs>
       <path id="IPAexGothic-43" d="M 4353 1088 
Q 4181 694 3859 428 
Q 3313 -31 2559 -31 
Q 1588 -31 959 653 
Q 378 1294 378 2331 
Q 378 3406 1013 4078 
Q 1619 4725 2534 4725 
Q 3813 4725 4322 3628 
L 3809 3391 
Q 3425 4238 2541 4238 
Q 1891 4238 1453 3744 
Q 994 3216 994 2322 
Q 994 1550 1384 1056 
Q 1841 472 2563 472 
Q 3456 472 3878 1319 
L 4353 1088 
z
" transform="scale(0.015625)"/>
       <path id="IPAexGothic-69" d="M 1178 3928 
L 550 3928 
L 550 4569 
L 1178 4569 
L 1178 3928 
z
M 1138 63 
L 588 63 
L 588 3250 
L 1138 3250 
L 1138 63 
z
" transform="scale(0.015625)"/>
       <path id="IPAexGothic-65" d="M 863 1594 
Q 891 1041 1209 722 
Q 1534 397 1997 397 
Q 2606 397 2963 966 
L 3322 728 
Q 2869 -31 1931 -31 
Q 1222 -31 766 422 
Q 306 884 306 1641 
Q 306 2444 788 2925 
Q 1216 3353 1856 3353 
Q 2459 3353 2866 2956 
Q 3322 2494 3322 1722 
L 3322 1594 
L 863 1594 
z
M 2756 1997 
Q 2709 2431 2450 2681 
Q 2194 2938 1844 2938 
Q 1438 2938 1150 2591 
Q 953 2356 894 1997 
L 2756 1997 
z
" transform="scale(0.015625)"/>
      </defs>
      <use xlink:href="#IPAexGothic-43"/>
      <use xlink:href="#IPAexGothic-68" transform="translate(72.509766 0)"/>
      <use xlink:href="#IPAexGothic-61" transform="translate(133.203125 0)"/>
      <use xlink:href="#IPAexGothic-72" transform="translate(188.183594 0)"/>
      <use xlink:href="#IPAexGothic-6c" transform="translate(225.195312 0)"/>
      <use xlink:href="#IPAexGothic-69" transform="translate(252.197266 0)"/>
      <use xlink:href="#IPAexGothic-65" transform="translate(279.199219 0)"/>
     </g>
    </g>
    <g id="line2d_23">
     <path d="M 416.49525 118.275 
L 428.49525 118.275 
L 440.49525 118.275 
" style="fill: none; stroke: #f4a261; stroke-width: 2; stroke-linecap: square"/>
     <defs>
      <path id="m19db8dc5b0" d="M 0 8 
C 2.121625 8 4.156639 7.15707 5.656854 5.656854 
C 7.15707 4.156639 8 2.121625 8 0 
C 8 -2.121625 7.15707 -4.156639 5.656854 -5.656854 
C 4.156639 -7.15707 2.121625 -8 0 -8 
C -2.121625 -8 -4.156639 -7.15707 -5.656854 -5.656854 
C -7.15707 -4.156639 -8 -2.121625 -8 0 
C -8 2.121625 -7.15707 4.156639 -5.656854 5.656854 
C -4.156639 7.15707 -2.121625 8 0 8 
z
" style="stroke: #f4a261"/>
     </defs>
     <g>
      <use xlink:href="#m19db8dc5b0" x="428.49525" y="118.275" style="fill: #f4a261; stroke: #f4a261"/>
     </g>
    </g>
    <g id="text_15">
     <!-- Delta -->
     <g transform="translate(450.09525 122.475) scale(0.12 -0.12)">
      <defs>
       <path id="IPAexGothic-44" d="M 609 4634 
L 1984 4634 
Q 3159 4634 3791 4050 
Q 4456 3444 4456 2356 
Q 4456 1047 3516 441 
Q 2925 63 1941 63 
L 609 63 
L 609 4634 
z
M 1172 556 
L 1894 556 
Q 3853 556 3853 2356 
Q 3853 4147 1928 4147 
L 1172 4147 
L 1172 556 
z
" transform="scale(0.015625)"/>
       <path id="IPAexGothic-74" d="M 2125 241 
Q 1769 -6 1397 -6 
Q 653 -6 653 831 
L 653 2859 
L 219 2859 
L 219 3250 
L 653 3250 
L 653 3966 
L 1178 4228 
L 1178 3250 
L 2063 3250 
L 2063 2859 
L 1178 2859 
L 1178 906 
Q 1178 416 1513 416 
Q 1738 416 1941 588 
L 2125 241 
z
" transform="scale(0.015625)"/>
      </defs>
      <use xlink:href="#IPAexGothic-44"/>
      <use xlink:href="#IPAexGothic-65" transform="translate(75.683594 0)"/>
      <use xlink:href="#IPAexGothic-6c" transform="translate(132.568359 0)"/>
      <use xlink:href="#IPAexGothic-74" transform="translate(159.570312 0)"/>
      <use xlink:href="#IPAexGothic-61" transform="translate(194.189453 0)"/>
     </g>
    </g>
    <g id="line2d_24">
     <path d="M 416.49525 140.34375 
L 428.49525 140.34375 
L 440.49525 140.34375 
" style="fill: none; stroke: #e76f51; stroke-width: 2; stroke-linecap: square"/>
     <defs>
      <path id="me40c0e5969" d="M 0 8 
C 2.121625 8 4.156639 7.15707 5.656854 5.656854 
C 7.15707 4.156639 8 2.121625 8 0 
C 8 -2.121625 7.15707 -4.156639 5.656854 -5.656854 
C 4.156639 -7.15707 2.121625 -8 0 -8 
C -2.121625 -8 -4.156639 -7.15707 -5.656854 -5.656854 
C -7.15707 -4.156639 -8 -2.121625 -8 0 
C -8 2.121625 -7.15707 4.156639 -5.656854 5.656854 
C -4.156639 7.15707 -2.121625 8 0 8 
z
" style="stroke: #e76f51"/>
     </defs>
     <g>
      <use xlink:href="#me40c0e5969" x="428.49525" y="140.34375" style="fill: #e76f51; stroke: #e76f51"/>
     </g>
    </g>
    <g id="text_16">
     <!-- Echo -->
     <g transform="translate(450.09525 144.54375) scale(0.12 -0.12)">
      <defs>
       <path id="IPAexGothic-45" d="M 3547 63 
L 609 63 
L 609 4634 
L 3469 4634 
L 3469 4147 
L 1166 4147 
L 1166 2650 
L 3206 2650 
L 3206 2191 
L 1166 2191 
L 1166 556 
L 3547 556 
L 3547 63 
z
" transform="scale(0.015625)"/>
       <path id="IPAexGothic-63" d="M 3269 784 
Q 2834 -31 1900 -31 
Q 1228 -31 788 409 
Q 313 891 313 1663 
Q 313 2428 788 2913 
Q 1222 3347 1881 3347 
Q 2813 3347 3206 2541 
L 2763 2309 
Q 2484 2900 1900 2900 
Q 1516 2900 1234 2619 
Q 881 2266 881 1650 
Q 881 1069 1222 728 
Q 1522 428 1956 428 
Q 2547 428 2847 1016 
L 3269 784 
z
" transform="scale(0.015625)"/>
      </defs>
      <use xlink:href="#IPAexGothic-45"/>
      <use xlink:href="#IPAexGothic-63" transform="translate(59.521484 0)"/>
      <use xlink:href="#IPAexGothic-68" transform="translate(113.916016 0)"/>
      <use xlink:href="#IPAexGothic-6f" transform="translate(174.609375 0)"/>
     </g>
    </g>
   </g>
  </g>
 </g>
 <defs>
  <clipPath id="p44b49e9115">
   <rect x="42.5" y="30.48" width="404.11" height="230.36"/>
  </clipPath>
 </defs>
</svg>
