<?xml version="1.0" encoding="utf-8" standalone="no"?>
<!DOCTYPE svg PUBLIC "-//W3C//DTD SVG 1.1//EN"
  "http://www.w3.org/Graphics/SVG/1.1/DTD/svg11.dtd">
<svg xmlns:xlink="http://www.w3.org/1999/xlink" width="432pt" height="288pt" viewBox="0 0 432 288" xmlns="http://www.w3.org/2000/svg" version="1.1">
 <metadata>
  <rdf:RDF xmlns:dc="http://purl.org/dc/elements/1.1/" xmlns:cc="http://creativecommons.org/ns#" xmlns:rdf="http://www.w3.org/1999/02/22-rdf-syntax-ns#">
   <cc:Work>
    <dc:type rdf:resource="http://purl.org/dc/dcmitype/StillImage"/>
    <dc:date>2025-10-29T09:07:43.501083</dc:date>
    <dc:format>image/svg+xml</dc:format>
    <dc:creator>
     <cc:Agent>
      <dc:title>Matplotlib v3.10.7, https://matplotlib.org/</dc:title>
     </cc:Agent>
    </dc:creator>
   </cc:Work>
  </rdf:RDF>
 </metadata>
 <defs>
  <style type="text/css">*{stroke-linejoin: round; stroke-linecap: butt}</style>
 </defs>
 <g id="figure_1">
  <g id="patch_1">
   <path d="M 0 288 
L 432 288 
L 432 0 
L 0 0 
z
" style="fill: #ffffff"/>
  </g>
  <g id="axes_1">
   <g id="patch_2">
    <path d="M 57.76 242.44 
L 421.2 242.44 
L 421.2 30.48 
L 57.76 30.48 
z
" style="fill: #ffffff"/>
   </g>
   <g id="PathCollection_1">
    <defs>
     <path id="mb06930e2b4" d="M 0 4.472136 
C 1.186024 4.472136 2.323632 4.000923 3.162278 3.162278 
C 4.000923 2.323632 4.472136 1.186024 4.472136 0 
C 4.472136 -1.186024 4.000923 -2.323632 3.162278 -3.162278 
C 2.323632 -4.000923 1.186024 -4.472136 0 -4.472136 
C -1.186024 -4.472136 -2.323632 -4.000923 -3.162278 -3.162278 
C -4.000923 -2.323632 -4.472136 -1.186024 -4.472136 0 
C -4.472136 1.186024 -4.000923 2.323632 -3.162278 3.162278 
C -2.323632 4.000923 -1.186024 4.472136 0 4.472136 
z
" style="stroke: #ef4444"/>
    </defs>
    <g clip-path="url(#pcdd69349e3)">
     <use xlink:href="#mb06930e2b4" x="206.44" y="232.805455" style="fill: #ef4444; stroke: #ef4444"/>
     <use xlink:href="#mb06930e2b4" x="272.52" y="184.632727" style="fill: #ef4444; stroke: #ef4444"/>
     <use xlink:href="#mb06930e2b4" x="156.88" y="136.46" style="fill: #ef4444; stroke: #ef4444"/>
     <use xlink:href="#mb06930e2b4" x="239.48" y="88.287273" style="fill: #ef4444; stroke: #ef4444"/>
     <use xlink:href="#mb06930e2b4" x="74.28" y="40.114545" style="fill: #ef4444; stroke: #ef4444"/>
    </g>
   </g>
   <g id="PathCollection_2">
    <defs>
     <path id="m0c54d952e7" d="M 0 4.472136 
C 1.186024 4.472136 2.323632 4.000923 3.162278 3.162278 
C 4.000923 2.323632 4.472136 1.186024 4.472136 0 
C 4.472136 -1.186024 4.000923 -2.323632 3.162278 -3.162278 
C 2.323632 -4.000923 1.186024 -4.472136 0 -4.472136 
C -1.186024 -4.472136 -2.323632 -4.000923 -3.162278 -3.162278 
C -4.000923 -2.323632 -4.472136 -1.186024 -4.472136 0 
C -4.472136 1.186024 -4.000923 2.323632 -3.162278 3.162278 
C -2.323632 4.000923 -1.186024 4.472136 0 4.472136 
z
" style="stroke: #22c55e"/>
    </defs>
    <g clip-path="url(#pcdd69349e3)">
     <use xlink:href="#m0c54d952e7" x="371.64" y="232.805455" style="fill: #22c55e; stroke: #22c55e"/>
     <use xlink:href="#m0c54d952e7" x="404.68" y="184.632727" style="fill: #22c55e; stroke: #22c55e"/>
     <use xlink:href="#m0c54d952e7" x="272.52" y="136.46" style="fill: #22c55e; stroke: #22c55e"/>
     <use xlink:href="#m0c54d952e7" x="305.56" y="88.287273" style="fill: #22c55e; stroke: #22c55e"/>
     <use xlink:href="#m0c54d952e7" x="206.44" y="40.114545" style="fill: #22c55e; stroke: #22c55e"/>
    </g>
   </g>
   <g id="matplotlib.axis_1">
    <g id="xtick_1">
     <g id="line2d_1">
      <path d="M 74.28 242.44 
L 74.28 30.48 
" clip-path="url(#pcdd69349e3)" style="fill: none; stroke: #000000; stroke-opacity: 0.2; stroke-width: 0.5; stroke-linecap: square"/>
     </g>
     <g id="line2d_2">
      <defs>
       <path id="m62ae1b526e" d="M 0 0 
L 0 3.5 
" style="stroke: #000000; stroke-width: 0.8"/>
      </defs>
      <g>
       <use xlink:href="#m62ae1b526e" x="74.28" y="242.44" style="stroke: #000000; stroke-width: 0.8"/>
      </g>
     </g>
     <g id="text_1">
      <!-- 60.0 -->
      <g transform="translate(63.51125 256.930625) scale(0.1 -0.1)">
       <defs>
        <path id="IPAexGothic-36" d="M 1056 2328 
Q 1509 2981 2234 2981 
Q 2906 2981 3316 2513 
Q 3675 2106 3675 1522 
Q 3675 884 3272 434 
Q 2853 -31 2178 -31 
Q 1375 -31 922 581 
Q 481 1178 481 2228 
Q 481 3425 1013 4109 
Q 1494 4725 2272 4725 
Q 3191 4725 3609 4025 
L 3150 3775 
Q 2894 4266 2300 4266 
Q 1119 4266 1031 2328 
L 1056 2328 
z
M 2141 2547 
Q 1684 2547 1384 2206 
Q 1116 1900 1116 1541 
Q 1116 1156 1353 844 
Q 1672 428 2159 428 
Q 2669 428 2941 844 
Q 3125 1128 3125 1503 
Q 3125 1944 2881 2228 
Q 2600 2547 2141 2547 
z
" transform="scale(0.015625)"/>
        <path id="IPAexGothic-30" d="M 2038 4725 
Q 2881 4725 3334 3944 
Q 3694 3325 3694 2344 
Q 3694 1372 3334 741 
Q 2888 -31 2016 -31 
Q 1147 -31 700 741 
Q 341 1372 341 2350 
Q 341 3713 1000 4334 
Q 1419 4725 2038 4725 
z
M 2016 4266 
Q 1516 4266 1228 3759 
Q 934 3247 934 2344 
Q 934 1456 1222 947 
Q 1513 447 2016 447 
Q 2619 447 2909 1153 
Q 3100 1622 3100 2375 
Q 3100 3256 2806 3759 
Q 2509 4266 2016 4266 
z
" transform="scale(0.015625)"/>
        <path id="IPAexGothic-2e" d="M 1184 63 
L 494 63 
L 494 753 
L 1184 753 
L 1184 63 
z
" transform="scale(0.015625)"/>
       </defs>
       <use xlink:href="#IPAexGothic-36"/>
       <use xlink:href="#IPAexGothic-30" transform="translate(62.988281 0)"/>
       <use xlink:href="#IPAexGothic-2e" transform="translate(125.976562 0)"/>
       <use xlink:href="#IPAexGothic-30" transform="translate(152.392578 0)"/>
      </g>
     </g>
    </g>
    <g id="xtick_2">
     <g id="line2d_3">
      <path d="M 115.58 242.44 
L 115.58 30.48 
" clip-path="url(#pcdd69349e3)" style="fill: none; stroke: #000000; stroke-opacity: 0.2; stroke-width: 0.5; stroke-linecap: square"/>
     </g>
     <g id="line2d_4">
      <g>
       <use xlink:href="#m62ae1b526e" x="115.58" y="242.44" style="stroke: #000000; stroke-width: 0.8"/>
      </g>
     </g>
     <g id="text_2">
      <!-- 62.5 -->
      <g transform="translate(104.81125 256.930625) scale(0.1 -0.1)">
       <defs>
        <path id="IPAexGothic-32" d="M 3659 63 
L 447 63 
L 447 594 
Q 825 1475 1894 2203 
L 2072 2322 
Q 2619 2697 2791 2906 
Q 2988 3153 2988 3444 
Q 2988 3772 2756 4003 
Q 2500 4259 2084 4259 
Q 1250 4259 991 3328 
L 497 3506 
Q 853 4725 2116 4725 
Q 2806 4725 3216 4316 
Q 3575 3947 3575 3425 
Q 3575 3038 3344 2722 
Q 3131 2416 2366 1938 
L 2231 1856 
Q 1256 1253 978 569 
L 3659 569 
L 3659 63 
z
" transform="scale(0.015625)"/>
        <path id="IPAexGothic-35" d="M 1178 2603 
Q 1634 2963 2172 2963 
Q 2816 2963 3241 2528 
Q 3638 2113 3638 1497 
Q 3638 938 3297 513 
Q 2869 -31 2031 -31 
Q 959 -31 469 784 
L 938 1028 
Q 1309 434 2013 434 
Q 2466 434 2769 716 
Q 3081 1013 3081 1503 
Q 3081 1966 2806 2241 
Q 2519 2528 2056 2528 
Q 1406 2528 1072 2028 
L 591 2091 
L 884 4634 
L 3406 4634 
L 3406 4153 
L 1341 4153 
L 1134 2603 
L 1178 2603 
z
" transform="scale(0.015625)"/>
       </defs>
       <use xlink:href="#IPAexGothic-36"/>
       <use xlink:href="#IPAexGothic-32" transform="translate(62.988281 0)"/>
       <use xlink:href="#IPAexGothic-2e" transform="translate(125.976562 0)"/>
       <use xlink:href="#IPAexGothic-35" transform="translate(152.392578 0)"/>
      </g>
     </g>
    </g>
    <g id="xtick_3">
     <g id="line2d_5">
      <path d="M 156.88 242.44 
L 156.88 30.48 
" clip-path="url(#pcdd69349e3)" style="fill: none; stroke: #000000; stroke-opacity: 0.2; stroke-width: 0.5; stroke-linecap: square"/>
     </g>
     <g id="line2d_6">
      <g>
       <use xlink:href="#m62ae1b526e" x="156.88" y="242.44" style="stroke: #000000; stroke-width: 0.8"/>
      </g>
     </g>
     <g id="text_3">
      <!-- 65.0 -->
      <g transform="translate(146.11125 256.930625) scale(0.1 -0.1)">
       <use xlink:href="#IPAexGothic-36"/>
       <use xlink:href="#IPAexGothic-35" transform="translate(62.988281 0)"/>
       <use xlink:href="#IPAexGothic-2e" transform="translate(125.976562 0)"/>
       <use xlink:href="#IPAexGothic-30" transform="translate(152.392578 0)"/>
      </g>
     </g>
    </g>
    <g id="xtick_4">
     <g id="line2d_7">
      <path d="M 198.18 242.44 
L 198.18 30.48 
" clip-path="url(#pcdd69349e3)" style="fill: none; stroke: #000000; stroke-opacity: 0.2; stroke-width: 0.5; stroke-linecap: square"/>
     </g>
     <g id="line2d_8">
      <g>
       <use xlink:href="#m62ae1b526e" x="198.18" y="242.44" style="stroke: #000000; stroke-width: 0.8"/>
      </g>
     </g>
     <g id="text_4">
      <!-- 67.5 -->
      <g transform="translate(187.41125 256.930625) scale(0.1 -0.1)">
       <defs>
        <path id="IPAexGothic-37" d="M 3597 4263 
Q 2238 2106 1778 63 
L 1131 63 
Q 1581 1834 2950 4128 
L 428 4128 
L 428 4634 
L 3597 4634 
L 3597 4263 
z
" transform="scale(0.015625)"/>
       </defs>
       <use xlink:href="#IPAexGothic-36"/>
       <use xlink:href="#IPAexGothic-37" transform="translate(62.988281 0)"/>
       <use xlink:href="#IPAexGothic-2e" transform="translate(125.976562 0)"/>
       <use xlink:href="#IPAexGothic-35" transform="translate(152.392578 0)"/>
      </g>
     </g>
    </g>
    <g id="xtick_5">
     <g id="line2d_9">
      <path d="M 239.48 242.44 
L 239.48 30.48 
" clip-path="url(#pcdd69349e3)" style="fill: none; stroke: #000000; stroke-opacity: 0.2; stroke-width: 0.5; stroke-linecap: square"/>
     </g>
     <g id="line2d_10">
      <g>
       <use xlink:href="#m62ae1b526e" x="239.48" y="242.44" style="stroke: #000000; stroke-width: 0.8"/>
      </g>
     </g>
     <g id="text_5">
      <!-- 70.0 -->
      <g transform="translate(228.71125 256.930625) scale(0.1 -0.1)">
       <use xlink:href="#IPAexGothic-37"/>
       <use xlink:href="#IPAexGothic-30" transform="translate(62.988281 0)"/>
       <use xlink:href="#IPAexGothic-2e" transform="translate(125.976562 0)"/>
       <use xlink:href="#IPAexGothic-30" transform="translate(152.392578 0)"/>
      </g>
     </g>
    </g>
    <g id="xtick_6">
     <g id="line2d_11">
      <path d="M 280.78 242.44 
L 280.78 30.48 
" clip-path="url(#pcdd69349e3)" style="fill: none; stroke: #000000; stroke-opacity: 0.2; stroke-width: 0.5; stroke-linecap: square"/>
     </g>
     <g id="line2d_12">
      <g>
       <use xlink:href="#m62ae1b526e" x="280.78" y="242.44" style="stroke: #000000; stroke-width: 0.8"/>
      </g>
     </g>
     <g id="text_6">
      <!-- 72.5 -->
      <g transform="translate(270.01125 256.930625) scale(0.1 -0.1)">
       <use xlink:href="#IPAexGothic-37"/>
       <use xlink:href="#IPAexGothic-32" transform="translate(62.988281 0)"/>
       <use xlink:href="#IPAexGothic-2e" transform="translate(125.976562 0)"/>
       <use xlink:href="#IPAexGothic-35" transform="translate(152.392578 0)"/>
      </g>
     </g>
    </g>
    <g id="xtick_7">
     <g id="line2d_13">
      <path d="M 322.08 242.44 
L 322.08 30.48 
" clip-path="url(#pcdd69349e3)" style="fill: none; stroke: #000000; stroke-opacity: 0.2; stroke-width: 0.5; stroke-linecap: square"/>
     </g>
     <g id="line2d_14">
      <g>
       <use xlink:href="#m62ae1b526e" x="322.08" y="242.44" style="stroke: #000000; stroke-width: 0.8"/>
      </g>
     </g>
     <g id="text_7">
      <!-- 75.0 -->
      <g transform="translate(311.31125 256.930625) scale(0.1 -0.1)">
       <use xlink:href="#IPAexGothic-37"/>
       <use xlink:href="#IPAexGothic-35" transform="translate(62.988281 0)"/>
       <use xlink:href="#IPAexGothic-2e" transform="translate(125.976562 0)"/>
       <use xlink:href="#IPAexGothic-30" transform="translate(152.392578 0)"/>
      </g>
     </g>
    </g>
    <g id="xtick_8">
     <g id="line2d_15">
      <path d="M 363.38 242.44 
L 363.38 30.48 
" clip-path="url(#pcdd69349e3)" style="fill: none; stroke: #000000; stroke-opacity: 0.2; stroke-width: 0.5; stroke-linecap: square"/>
     </g>
     <g id="line2d_16">
      <g>
       <use xlink:href="#m62ae1b526e" x="363.38" y="242.44" style="stroke: #000000; stroke-width: 0.8"/>
      </g>
     </g>
     <g id="text_8">
      <!-- 77.5 -->
      <g transform="translate(352.61125 256.930625) scale(0.1 -0.1)">
       <use xlink:href="#IPAexGothic-37"/>
       <use xlink:href="#IPAexGothic-37" transform="translate(62.988281 0)"/>
       <use xlink:href="#IPAexGothic-2e" transform="translate(125.976562 0)"/>
       <use xlink:href="#IPAexGothic-35" transform="translate(152.392578 0)"/>
      </g>
     </g>
    </g>
    <g id="xtick_9">
     <g id="line2d_17">
      <path d="M 404.68 242.44 
L 404.68 30.48 
" clip-path="url(#pcdd69349e3)" style="fill: none; stroke: #000000; stroke-opacity: 0.2; stroke-width: 0.5; stroke-linecap: square"/>
     </g>
     <g id="line2d_18">
      <g>
       <use xlink:href="#m62ae1b526e" x="404.68" y="242.44" style="stroke: #000000; stroke-width: 0.8"/>
      </g>
     </g>
     <g id="text_9">
      <!-- 80.0 -->
      <g transform="translate(393.91125 256.930625) scale(0.1 -0.1)">
       <defs>
        <path id="IPAexGothic-38" d="M 2541 2425 
Q 3700 2031 3700 1197 
Q 3700 541 3100 197 
Q 2663 -56 2016 -56 
Q 1366 -56 928 197 
Q 347 531 347 1178 
Q 347 1988 1409 2381 
L 1409 2400 
Q 481 2734 481 3509 
Q 481 4100 981 4456 
Q 1406 4756 2019 4756 
Q 2703 4756 3131 4403 
Q 3553 4069 3553 3566 
Q 3553 2706 2541 2444 
L 2541 2425 
z
M 2022 2625 
Q 2997 2856 2997 3528 
Q 2997 3916 2675 4150 
Q 2413 4347 2016 4347 
Q 1606 4347 1331 4128 
Q 1050 3897 1050 3522 
Q 1050 3150 1350 2925 
Q 1494 2809 1722 2722 
Q 1984 2616 2022 2625 
z
M 1978 2209 
Q 922 1931 922 1216 
Q 922 775 1313 556 
Q 1606 391 2009 391 
Q 2575 391 2881 697 
Q 3106 922 3106 1250 
Q 3106 1594 2794 1850 
Q 2609 1994 2350 2100 
Q 2047 2222 1978 2209 
z
" transform="scale(0.015625)"/>
       </defs>
       <use xlink:href="#IPAexGothic-38"/>
       <use xlink:href="#IPAexGothic-30" transform="translate(62.988281 0)"/>
       <use xlink:href="#IPAexGothic-2e" transform="translate(125.976562 0)"/>
       <use xlink:href="#IPAexGothic-30" transform="translate(152.392578 0)"/>
      </g>
     </g>
    </g>
    <g id="text_10">
     <!-- エンゲージメントスコア -->
     <g transform="translate(160.28 273.617125) scale(0.144 -0.144)">
      <defs>
       <path id="IPAexGothic-30a8" d="M 1109 4063 
L 5294 4063 
L 5294 3594 
L 3444 3594 
L 3444 988 
L 5759 988 
L 5759 513 
L 641 513 
L 641 988 
L 2913 988 
L 2913 3594 
L 1109 3594 
L 1109 4063 
z
" transform="scale(0.015625)"/>
       <path id="IPAexGothic-30f3" d="M 2444 3084 
Q 1816 3656 1056 4084 
L 1381 4519 
Q 2063 4191 2816 3559 
L 2444 3084 
z
M 1100 609 
Q 3984 1106 5216 3828 
L 5619 3469 
Q 4413 794 1434 103 
L 1100 609 
z
" transform="scale(0.015625)"/>
       <path id="IPAexGothic-30b2" d="M 5653 3269 
L 4194 3269 
Q 4156 1966 3753 1228 
Q 3256 316 2166 -266 
L 1781 131 
Q 2947 672 3369 1638 
Q 3634 2256 3663 3269 
L 2113 3269 
Q 1709 2450 988 1778 
L 609 2122 
Q 1797 3197 2153 4959 
L 2644 4850 
Q 2519 4275 2319 3738 
L 5653 3738 
L 5653 3269 
z
M 5838 4366 
Q 5478 4906 5084 5234 
L 5384 5466 
Q 5769 5156 6159 4641 
L 5838 4366 
z
M 5191 3950 
Q 4903 4438 4456 4838 
L 4769 5081 
Q 5141 4775 5525 4225 
L 5191 3950 
z
" transform="scale(0.015625)"/>
       <path id="IPAexGothic-30fc" d="M 588 2688 
L 5809 2688 
L 5809 2175 
L 588 2175 
L 588 2688 
z
" transform="scale(0.015625)"/>
       <path id="IPAexGothic-30b8" d="M 2759 3481 
Q 2150 4006 1544 4309 
L 1844 4731 
Q 2434 4441 3100 3931 
L 2759 3481 
z
M 1094 447 
Q 3875 1041 5269 3475 
L 5619 3078 
Q 4228 650 1416 -50 
L 1094 447 
z
M 2003 2228 
Q 1397 2747 763 3059 
L 1063 3488 
Q 1738 3159 2338 2675 
L 2003 2228 
z
M 5594 4219 
Q 5234 4759 4841 5088 
L 5141 5319 
Q 5525 5009 5916 4494 
L 5594 4219 
z
M 5000 3750 
Q 4709 4241 4263 4641 
L 4578 4884 
Q 4947 4575 5331 4025 
L 5000 3750 
z
" transform="scale(0.015625)"/>
       <path id="IPAexGothic-30e1" d="M 2041 3641 
Q 2678 3259 3359 2747 
Q 3906 3678 4281 4819 
L 4784 4609 
Q 4347 3384 3756 2425 
Q 4225 2031 4925 1369 
L 4544 972 
Q 4031 1519 3475 1997 
Q 2522 650 1259 -172 
L 863 206 
Q 2197 1006 3091 2328 
Q 2456 2844 1700 3263 
L 2041 3641 
z
" transform="scale(0.015625)"/>
       <path id="IPAexGothic-30c8" d="M 2284 4997 
L 2803 4997 
L 2803 3206 
Q 4088 2619 5216 1888 
L 4878 1369 
Q 3819 2175 2803 2688 
L 2803 -184 
L 2284 -184 
L 2284 4997 
z
" transform="scale(0.015625)"/>
       <path id="IPAexGothic-30b9" d="M 4359 4481 
L 4716 4147 
Q 4328 3072 3647 2150 
Q 4659 1434 5659 453 
L 5234 19 
Q 4256 1088 3353 1778 
Q 2372 597 1044 -31 
L 653 403 
Q 3128 1453 4097 4000 
L 1241 3963 
L 1228 4453 
L 4359 4481 
z
" transform="scale(0.015625)"/>
       <path id="IPAexGothic-30b3" d="M 1134 4213 
L 5166 4213 
L 5166 153 
L 4653 153 
L 4653 594 
L 1063 594 
L 1063 1088 
L 4653 1088 
L 4653 3725 
L 1134 3725 
L 1134 4213 
z
" transform="scale(0.015625)"/>
       <path id="IPAexGothic-30a2" d="M 5388 4556 
L 5747 4200 
Q 5081 3022 4019 2191 
L 3647 2547 
Q 4519 3178 5081 4091 
L 850 4013 
L 850 4500 
L 5388 4556 
z
M 1216 256 
Q 2319 813 2616 1691 
Q 2797 2200 2797 3628 
L 3313 3628 
Q 3303 1981 3059 1356 
Q 2697 431 1594 -153 
L 1216 256 
z
" transform="scale(0.015625)"/>
      </defs>
      <use xlink:href="#IPAexGothic-30a8"/>
      <use xlink:href="#IPAexGothic-30f3" transform="translate(100 0)"/>
      <use xlink:href="#IPAexGothic-30b2" transform="translate(200 0)"/>
      <use xlink:href="#IPAexGothic-30fc" transform="translate(300 0)"/>
      <use xlink:href="#IPAexGothic-30b8" transform="translate(400 0)"/>
      <use xlink:href="#IPAexGothic-30e1" transform="translate(500 0)"/>
      <use xlink:href="#IPAexGothic-30f3" transform="translate(600 0)"/>
      <use xlink:href="#IPAexGothic-30c8" transform="translate(700 0)"/>
      <use xlink:href="#IPAexGothic-30b9" transform="translate(800 0)"/>
      <use xlink:href="#IPAexGothic-30b3" transform="translate(900 0)"/>
      <use xlink:href="#IPAexGothic-30a2" transform="translate(1000 0)"/>
     </g>
    </g>
   </g>
   <g id="matplotlib.axis_2">
    <g id="ytick_1">
     <g id="line2d_19">
      <defs>
       <path id="m7eeb221513" d="M 0 0 
L -3.5 0 
" style="stroke: #000000; stroke-width: 0.8"/>
      </defs>
      <g>
       <use xlink:href="#m7eeb221513" x="57.76" y="232.805455" style="stroke: #000000; stroke-width: 0.8"/>
      </g>
     </g>
     <g id="text_11">
      <!-- 営業 -->
      <g transform="translate(30.76 236.550767) scale(0.1 -0.1)">
       <defs>
        <path id="IPAexGothic-55b6" d="M 1797 4238 
Q 1572 4669 1316 4981 
L 1738 5197 
Q 2009 4866 2288 4378 
L 1963 4238 
L 3069 4238 
L 3056 4275 
Q 2881 4725 2622 5088 
L 3056 5275 
Q 3334 4900 3550 4391 
L 3147 4238 
L 4044 4238 
Q 4409 4734 4647 5275 
L 5119 5075 
Q 4856 4622 4569 4238 
L 5803 4238 
L 5803 3009 
L 5350 3009 
L 5350 3853 
L 1041 3853 
L 1041 3009 
L 588 3009 
L 588 4238 
L 1797 4238 
z
M 4850 3438 
L 4850 1959 
L 3378 1959 
Q 3313 1703 3213 1447 
L 5394 1447 
L 5394 -447 
L 4934 -447 
L 4934 -159 
L 1450 -159 
L 1450 -447 
L 991 -447 
L 991 1447 
L 2756 1447 
Q 2813 1625 2878 1909 
L 2891 1959 
L 1534 1959 
L 1534 3438 
L 4850 3438 
z
M 1988 3053 
L 1988 2344 
L 4403 2344 
L 4403 3053 
L 1988 3053 
z
M 1450 1050 
L 1450 238 
L 4934 238 
L 4934 1050 
L 1450 1050 
z
" transform="scale(0.015625)"/>
        <path id="IPAexGothic-696d" d="M 3397 2738 
L 3397 2350 
L 5328 2350 
L 5328 1984 
L 3397 1984 
L 3397 1594 
L 6016 1594 
L 6016 1209 
L 3831 1209 
Q 4706 509 6078 134 
L 5759 -288 
Q 4253 222 3397 1125 
L 3397 -447 
L 2956 -447 
L 2956 1106 
Q 2038 31 594 -416 
L 281 -38 
Q 1663 334 2566 1209 
L 384 1209 
L 384 1594 
L 2956 1594 
L 2956 1984 
L 1063 1984 
L 1063 2350 
L 2956 2350 
L 2956 2738 
L 769 2738 
L 769 3109 
L 2228 3109 
Q 2069 3519 1900 3769 
L 441 3769 
L 441 4141 
L 2413 4141 
L 2413 5313 
L 2853 5313 
L 2853 4141 
L 3500 4141 
L 3500 5313 
L 3941 5313 
L 3941 4141 
L 5950 4141 
L 5950 3769 
L 4447 3769 
Q 4294 3413 4106 3109 
L 5625 3109 
L 5625 2738 
L 3397 2738 
z
M 2406 3769 
Q 2581 3447 2694 3109 
L 3653 3109 
Q 3856 3463 3953 3769 
L 2406 3769 
z
M 1528 4166 
Q 1334 4656 1056 4984 
L 1484 5166 
Q 1728 4856 1966 4353 
L 1528 4166 
z
M 4366 4306 
Q 4678 4828 4819 5228 
L 5288 5069 
Q 5066 4606 4775 4166 
L 4366 4306 
z
" transform="scale(0.015625)"/>
       </defs>
       <use xlink:href="#IPAexGothic-55b6"/>
       <use xlink:href="#IPAexGothic-696d" transform="translate(100 0)"/>
      </g>
     </g>
    </g>
    <g id="ytick_2">
     <g id="line2d_20">
      <g>
       <use xlink:href="#m7eeb221513" x="57.76" y="184.632727" style="stroke: #000000; stroke-width: 0.8"/>
      </g>
     </g>
     <g id="text_12">
      <!-- 開発 -->
      <g transform="translate(30.76 188.37804) scale(0.1 -0.1)">
       <defs>
        <path id="IPAexGothic-958b" d="M 2913 5013 
L 2913 3097 
L 1063 3097 
L 1063 -450 
L 609 -450 
L 609 5013 
L 2913 5013 
z
M 1063 4653 
L 1063 4225 
L 2491 4225 
L 2491 4653 
L 1063 4653 
z
M 1063 3900 
L 1063 3444 
L 2491 3444 
L 2491 3900 
L 1063 3900 
z
M 5781 5013 
L 5781 78 
Q 5781 -231 5647 -325 
Q 5538 -409 5238 -409 
Q 4809 -409 4488 -366 
L 4425 103 
Q 4791 38 5122 38 
Q 5328 38 5328 238 
L 5328 3097 
L 3438 3097 
L 3438 5013 
L 5781 5013 
z
M 3853 4653 
L 3853 4225 
L 5328 4225 
L 5328 4653 
L 3853 4653 
z
M 3853 3900 
L 3853 3444 
L 5328 3444 
L 5328 3900 
L 3853 3900 
z
M 4028 2266 
L 4028 1556 
L 5000 1556 
L 5000 1184 
L 4047 1184 
L 4047 -159 
L 3625 -159 
L 3625 1184 
L 2809 1184 
Q 2731 156 1850 -313 
L 1550 13 
Q 2319 347 2388 1184 
L 1403 1184 
L 1403 1556 
L 2394 1556 
L 2394 2266 
L 1594 2266 
L 1594 2619 
L 4803 2619 
L 4803 2266 
L 4028 2266 
z
M 3606 1556 
L 3606 2266 
L 2816 2266 
L 2816 1556 
L 3606 1556 
z
" transform="scale(0.015625)"/>
        <path id="IPAexGothic-767a" d="M 4719 3638 
Q 5159 4016 5453 4391 
L 5831 4122 
Q 5406 3700 5038 3413 
Q 5500 3116 6106 2856 
L 5800 2456 
Q 5231 2738 4706 3113 
L 4706 2772 
L 4103 2772 
L 4103 1919 
L 5753 1919 
L 5753 1522 
L 4103 1522 
L 4103 359 
Q 4103 159 4206 131 
Q 4313 94 4678 94 
Q 5256 94 5350 191 
Q 5444 284 5472 766 
Q 5472 863 5478 900 
L 5928 741 
Q 5900 25 5741 -141 
Q 5572 -341 4647 -341 
Q 4084 -341 3900 -256 
Q 3650 -150 3650 213 
L 3650 1522 
L 2725 1522 
Q 2572 34 709 -475 
L 466 -63 
Q 2128 347 2272 1522 
L 641 1522 
L 641 1919 
L 2291 1919 
L 2291 2772 
L 1778 2772 
L 1778 3009 
Q 1263 2647 581 2316 
L 288 2700 
Q 1044 2991 1663 3444 
Q 1269 3850 863 4134 
L 1191 4425 
Q 1697 4006 1991 3713 
Q 2434 4100 2763 4616 
L 1284 4616 
L 1284 5006 
L 3456 5006 
Q 3725 4566 4025 4244 
Q 4422 4584 4738 4988 
L 5109 4719 
Q 4747 4328 4294 3981 
Q 4506 3781 4719 3638 
z
M 3650 2772 
L 2738 2772 
L 2738 1919 
L 3650 1919 
L 3650 2772 
z
M 1978 3156 
L 4641 3156 
Q 3756 3794 3238 4544 
Q 2766 3769 1978 3156 
z
" transform="scale(0.015625)"/>
       </defs>
       <use xlink:href="#IPAexGothic-958b"/>
       <use xlink:href="#IPAexGothic-767a" transform="translate(100 0)"/>
      </g>
     </g>
    </g>
    <g id="ytick_3">
     <g id="line2d_21">
      <g>
       <use xlink:href="#m7eeb221513" x="57.76" y="136.46" style="stroke: #000000; stroke-width: 0.8"/>
      </g>
     </g>
     <g id="text_13">
      <!-- サポート -->
      <g transform="translate(10.76 140.205312) scale(0.1 -0.1)">
       <defs>
        <path id="IPAexGothic-30b5" d="M 3994 4919 
L 4506 4919 
L 4506 3531 
L 5888 3531 
L 5888 3072 
L 4506 3072 
Q 4488 1719 4153 1063 
Q 3728 222 2644 -325 
L 2266 38 
Q 3325 525 3713 1319 
Q 3975 1853 3994 3072 
L 2331 3072 
L 2331 1575 
L 1819 1575 
L 1819 3072 
L 513 3072 
L 513 3531 
L 1819 3531 
L 1819 4797 
L 2331 4797 
L 2331 3531 
L 3994 3531 
L 3994 4919 
z
" transform="scale(0.015625)"/>
        <path id="IPAexGothic-30dd" d="M 5188 5453 
Q 5497 5453 5706 5219 
Q 5891 5016 5891 4747 
Q 5891 4434 5656 4222 
Q 5453 4038 5188 4038 
Q 4872 4038 4659 4272 
Q 4475 4475 4475 4747 
Q 4475 5059 4709 5269 
Q 4916 5453 5188 5453 
z
M 5188 5172 
Q 4997 5172 4866 5031 
Q 4756 4909 4756 4747 
Q 4756 4556 4897 4428 
Q 5022 4319 5188 4319 
Q 5372 4319 5500 4459 
Q 5609 4584 5609 4747 
Q 5609 4934 5469 5063 
Q 5347 5172 5188 5172 
z
M 2972 4978 
L 3478 4978 
L 3478 3794 
L 5584 3794 
L 5584 3341 
L 3478 3341 
L 3478 397 
Q 3478 -147 2844 -147 
Q 2428 -147 2019 -72 
L 1909 459 
Q 2300 359 2716 359 
Q 2972 359 2972 616 
L 2972 3341 
L 822 3341 
L 822 3794 
L 2972 3794 
L 2972 4978 
z
M 603 922 
Q 988 1294 1222 1694 
Q 1438 2063 1600 2572 
L 2050 2369 
Q 1859 1766 1588 1325 
Q 1372 975 1000 556 
L 603 922 
z
M 5313 709 
Q 4847 1700 4309 2388 
L 4719 2656 
Q 5269 2016 5775 1031 
L 5313 709 
z
" transform="scale(0.015625)"/>
       </defs>
       <use xlink:href="#IPAexGothic-30b5"/>
       <use xlink:href="#IPAexGothic-30dd" transform="translate(100 0)"/>
       <use xlink:href="#IPAexGothic-30fc" transform="translate(200 0)"/>
       <use xlink:href="#IPAexGothic-30c8" transform="translate(300 0)"/>
      </g>
     </g>
    </g>
    <g id="ytick_4">
     <g id="line2d_22">
      <g>
       <use xlink:href="#m7eeb221513" x="57.76" y="88.287273" style="stroke: #000000; stroke-width: 0.8"/>
      </g>
     </g>
     <g id="text_14">
      <!-- マーケ -->
      <g transform="translate(20.76 92.032585) scale(0.1 -0.1)">
       <defs>
        <path id="IPAexGothic-30de" d="M 5422 4122 
L 5703 3822 
Q 4659 2491 3388 1447 
Q 3816 994 4231 500 
L 3797 122 
Q 2866 1381 1691 2322 
L 2069 2644 
Q 2481 2322 3059 1772 
Q 4163 2703 4891 3641 
L 744 3603 
L 744 4084 
L 5422 4122 
z
" transform="scale(0.015625)"/>
        <path id="IPAexGothic-30b1" d="M 5638 3275 
L 4178 3275 
Q 4141 1972 3738 1234 
Q 3241 322 2150 -256 
L 1766 141 
Q 2931 678 3353 1644 
Q 3619 2263 3647 3275 
L 2097 3275 
Q 1694 2456 972 1784 
L 594 2128 
Q 1781 3203 2138 4966 
L 2628 4856 
Q 2503 4281 2303 3744 
L 5638 3744 
L 5638 3275 
z
" transform="scale(0.015625)"/>
       </defs>
       <use xlink:href="#IPAexGothic-30de"/>
       <use xlink:href="#IPAexGothic-30fc" transform="translate(100 0)"/>
       <use xlink:href="#IPAexGothic-30b1" transform="translate(200 0)"/>
      </g>
     </g>
    </g>
    <g id="ytick_5">
     <g id="line2d_23">
      <g>
       <use xlink:href="#m7eeb221513" x="57.76" y="40.114545" style="stroke: #000000; stroke-width: 0.8"/>
      </g>
     </g>
     <g id="text_15">
      <!-- 人事 -->
      <g transform="translate(30.76 43.859858) scale(0.1 -0.1)">
       <defs>
        <path id="IPAexGothic-4eba" d="M 3434 5081 
L 3434 4659 
Q 3434 3131 4050 2069 
Q 4669 994 6022 275 
L 5644 -197 
Q 4359 588 3641 1863 
Q 3394 2300 3225 3009 
Q 2822 766 819 -325 
L 441 97 
Q 1856 759 2438 1972 
Q 2919 2959 2919 4634 
L 2919 5081 
L 3434 5081 
z
" transform="scale(0.015625)"/>
        <path id="IPAexGothic-4e8b" d="M 2950 3922 
L 2950 4294 
L 478 4294 
L 478 4659 
L 2950 4659 
L 2950 5313 
L 3403 5313 
L 3403 4659 
L 5919 4659 
L 5919 4294 
L 3403 4294 
L 3403 3922 
L 5234 3922 
L 5234 2822 
L 3403 2822 
L 3403 2450 
L 5325 2450 
L 5325 1759 
L 6081 1759 
L 6081 1381 
L 5325 1381 
L 5325 397 
L 4881 397 
L 4881 672 
L 3403 672 
L 3403 6 
Q 3403 -263 3269 -356 
Q 3150 -441 2841 -441 
Q 2497 -441 2116 -403 
L 2041 56 
Q 2450 -25 2731 -25 
Q 2950 -25 2950 159 
L 2950 672 
L 844 672 
L 844 1025 
L 2950 1025 
L 2950 1394 
L 319 1394 
L 319 1747 
L 2950 1747 
L 2950 2097 
L 838 2097 
L 838 2450 
L 2950 2450 
L 2950 2822 
L 1156 2822 
L 1156 3922 
L 2950 3922 
z
M 2950 3591 
L 1584 3591 
L 1584 3163 
L 2950 3163 
L 2950 3591 
z
M 3403 3591 
L 3403 3163 
L 4806 3163 
L 4806 3591 
L 3403 3591 
z
M 3403 1025 
L 4881 1025 
L 4881 1394 
L 3403 1394 
L 3403 1025 
z
M 3403 1747 
L 4881 1747 
L 4881 2097 
L 3403 2097 
L 3403 1747 
z
" transform="scale(0.015625)"/>
       </defs>
       <use xlink:href="#IPAexGothic-4eba"/>
       <use xlink:href="#IPAexGothic-4e8b" transform="translate(100 0)"/>
      </g>
     </g>
    </g>
   </g>
   <g id="LineCollection_1">
    <path d="M 206.44 232.805455 
L 371.64 232.805455 
" clip-path="url(#pcdd69349e3)" style="fill: none; stroke: #94a3b8; stroke-width: 3"/>
    <path d="M 272.52 184.632727 
L 404.68 184.632727 
" clip-path="url(#pcdd69349e3)" style="fill: none; stroke: #94a3b8; stroke-width: 3"/>
    <path d="M 156.88 136.46 
L 272.52 136.46 
" clip-path="url(#pcdd69349e3)" style="fill: none; stroke: #94a3b8; stroke-width: 3"/>
    <path d="M 239.48 88.287273 
L 305.56 88.287273 
" clip-path="url(#pcdd69349e3)" style="fill: none; stroke: #94a3b8; stroke-width: 3"/>
    <path d="M 74.28 40.114545 
L 206.44 40.114545 
" clip-path="url(#pcdd69349e3)" style="fill: none; stroke: #94a3b8; stroke-width: 3"/>
   </g>
   <g id="text_16">
    <!-- 施策前後のエンゲージメント比較（ダンベルチャート） -->
    <g transform="translate(23.48 24.48) scale(0.1728 -0.1728)">
     <defs>
      <path id="IPAexGothic-65bd" d="M 2566 2963 
Q 2556 934 2419 44 
Q 2350 -409 1881 -409 
Q 1556 -409 1319 -372 
L 1256 78 
Q 1500 13 1759 13 
Q 1978 13 2016 244 
Q 2131 847 2150 2419 
L 2150 2572 
L 1478 2572 
Q 1441 1725 1313 1125 
Q 1113 275 519 -500 
L 250 -128 
Q 772 538 934 1375 
Q 1069 2047 1069 3091 
L 1069 3866 
L 347 3866 
L 347 4269 
L 1300 4269 
L 1300 5313 
L 1741 5313 
L 1741 4269 
L 2784 4269 
L 2784 3866 
L 1484 3866 
L 1484 3097 
L 1484 2963 
L 2566 2963 
z
M 3622 2088 
L 3622 391 
Q 3622 150 3756 100 
Q 3900 44 4603 44 
Q 5466 44 5569 166 
Q 5663 269 5672 825 
L 6131 666 
Q 6066 -75 5900 -219 
Q 5697 -384 4578 -384 
Q 3600 -384 3397 -288 
Q 3200 -194 3200 116 
L 3200 1972 
L 2741 1850 
L 2638 2253 
L 3200 2406 
L 3200 3419 
L 3622 3419 
L 3622 2522 
L 4188 2669 
L 4188 3756 
L 4603 3756 
L 4603 2784 
L 5484 3022 
L 5716 2859 
L 5716 1381 
Q 5716 941 5300 941 
Q 5059 941 4822 978 
L 4756 1403 
Q 4978 1356 5128 1356 
Q 5294 1356 5294 1544 
L 5294 2541 
L 4603 2356 
L 4603 603 
L 4188 603 
L 4188 2241 
L 3622 2088 
z
M 3513 4378 
L 5978 4378 
L 5978 3975 
L 3347 3975 
Q 3097 3447 2753 2997 
L 2466 3316 
Q 3091 4153 3347 5375 
L 3775 5269 
Q 3678 4806 3513 4378 
z
" transform="scale(0.015625)"/>
      <path id="IPAexGothic-7b56" d="M 3397 1709 
Q 4281 775 6113 250 
L 5819 -181 
Q 4272 369 3397 1222 
L 3397 -450 
L 2956 -450 
L 2956 1172 
Q 2081 216 603 -288 
L 300 94 
Q 2078 603 2956 1722 
L 2956 2041 
L 1466 2041 
L 1466 819 
L 1031 819 
L 1031 2425 
L 2956 2425 
L 2956 2913 
L 328 2913 
L 328 3309 
L 2956 3309 
L 2956 3700 
L 3397 3700 
L 3397 3309 
L 6081 3309 
L 6081 2913 
L 3397 2913 
L 3397 2425 
L 5416 2425 
L 5416 1319 
Q 5416 947 5006 947 
Q 4697 947 4472 984 
L 4384 1369 
Q 4653 1313 4825 1313 
Q 4981 1313 4981 1459 
L 4981 2041 
L 3397 2041 
L 3397 1709 
z
M 1428 4716 
L 3181 4716 
L 3181 4331 
L 2234 4331 
Q 2400 4013 2516 3703 
L 2100 3563 
Q 1947 4053 1800 4331 
L 1234 4331 
Q 947 3831 575 3459 
L 256 3728 
Q 884 4378 1191 5316 
L 1619 5209 
Q 1497 4888 1428 4716 
z
M 3944 4716 
L 6069 4716 
L 6069 4331 
L 4666 4331 
Q 4850 4059 5031 3744 
L 4603 3569 
Q 4450 3916 4219 4331 
L 3750 4331 
L 3731 4300 
Q 3544 3981 3297 3716 
L 2950 3947 
Q 3459 4513 3700 5325 
L 4141 5222 
Q 4084 5047 3944 4716 
z
" transform="scale(0.015625)"/>
      <path id="IPAexGothic-524d" d="M 3653 4281 
Q 3913 4741 4134 5319 
L 4638 5184 
Q 4453 4769 4153 4281 
L 6078 4281 
L 6078 3872 
L 319 3872 
L 319 4281 
L 3653 4281 
z
M 3006 3366 
L 3006 25 
Q 3006 -219 2897 -306 
Q 2797 -391 2522 -391 
Q 2294 -391 1938 -359 
L 1881 84 
Q 2178 25 2413 25 
Q 2578 25 2578 172 
L 2578 1031 
L 1228 1031 
L 1228 -447 
L 794 -447 
L 794 3366 
L 3006 3366 
z
M 1228 2981 
L 1228 2394 
L 2578 2394 
L 2578 2981 
L 1228 2981 
z
M 1228 2022 
L 1228 1403 
L 2578 1403 
L 2578 2022 
L 1228 2022 
z
M 2131 4294 
Q 1934 4769 1656 5106 
L 2078 5300 
Q 2353 4959 2584 4500 
L 2131 4294 
z
M 3834 3238 
L 4275 3238 
L 4275 684 
L 3834 684 
L 3834 3238 
z
M 5147 3425 
L 5600 3425 
L 5600 97 
Q 5600 -172 5497 -275 
Q 5384 -409 5013 -409 
Q 4634 -409 4169 -359 
L 4109 97 
Q 4550 19 4934 19 
Q 5147 19 5147 231 
L 5147 3425 
z
" transform="scale(0.015625)"/>
      <path id="IPAexGothic-5f8c" d="M 3309 2475 
Q 3184 2469 2291 2425 
L 2125 2859 
Q 2625 2859 2822 2866 
L 3169 2878 
L 3488 3194 
Q 2891 3844 2375 4238 
L 2700 4563 
Q 2878 4409 3097 4191 
Q 3563 4781 3828 5297 
L 4263 5075 
Q 3853 4431 3366 3916 
Q 3538 3744 3769 3475 
Q 4366 4109 4756 4647 
L 5178 4391 
Q 4525 3594 3719 2891 
L 4519 2925 
Q 5022 2950 5197 2963 
Q 4978 3316 4741 3591 
L 5106 3794 
Q 5606 3197 5972 2516 
L 5569 2259 
Q 5494 2428 5381 2638 
Q 5363 2631 5309 2628 
Q 5259 2625 5234 2622 
Q 4741 2566 3806 2509 
Q 3728 2338 3550 2041 
L 5050 2041 
L 5319 1791 
Q 4978 1122 4441 631 
Q 5069 256 5984 25 
L 5663 -419 
Q 4734 -106 4109 338 
Q 3372 -225 2194 -531 
L 1900 -116 
Q 3009 66 3775 594 
Q 3331 969 3053 1356 
Q 2663 900 2259 625 
L 1959 941 
Q 2838 1559 3309 2475 
z
M 4109 863 
Q 4528 1244 4728 1656 
L 3322 1656 
Q 3613 1263 4109 863 
z
M 1588 2753 
L 1588 -447 
L 1147 -447 
L 1147 2209 
Q 869 1891 550 1613 
L 250 1947 
Q 1216 2806 1803 3938 
L 2206 3738 
Q 1906 3188 1588 2753 
z
M 294 3716 
Q 1213 4375 1663 5209 
L 2078 4997 
Q 1475 4016 588 3372 
L 294 3716 
z
" transform="scale(0.015625)"/>
      <path id="IPAexGothic-306e" d="M 3119 469 
Q 5275 766 5275 2425 
Q 5275 3453 4413 3925 
Q 4041 4116 3547 4159 
Q 3394 2525 2850 1400 
Q 2322 306 1722 306 
Q 1384 306 1084 666 
Q 609 1244 609 2003 
Q 609 3025 1397 3794 
Q 2184 4563 3431 4563 
Q 4306 4563 4928 4122 
Q 5813 3506 5813 2425 
Q 5813 438 3431 6 
L 3119 469 
z
M 3053 4147 
Q 2378 4044 1891 3641 
Q 1097 2981 1097 1991 
Q 1097 1366 1434 978 
Q 1581 813 1719 813 
Q 2022 813 2416 1625 
Q 2909 2638 3053 4147 
z
" transform="scale(0.015625)"/>
      <path id="IPAexGothic-6bd4" d="M 1525 3250 
L 3003 3250 
L 3003 2822 
L 1525 2822 
L 1525 472 
Q 2469 747 3016 934 
L 3041 531 
Q 1813 59 459 -300 
L 294 159 
Q 694 250 1056 344 
L 1056 5081 
L 1525 5081 
L 1525 3250 
z
M 3794 3028 
Q 4691 3472 5341 4038 
L 5744 3706 
Q 4778 2969 3794 2572 
L 3794 556 
Q 3794 353 3978 313 
Q 4106 288 4472 288 
Q 5169 288 5328 378 
Q 5491 463 5522 1516 
L 5994 1356 
Q 5966 238 5772 34 
Q 5566 -172 4491 -172 
Q 3809 -172 3588 -75 
Q 3334 28 3334 397 
L 3334 5113 
L 3794 5113 
L 3794 3028 
z
" transform="scale(0.015625)"/>
      <path id="IPAexGothic-8f03" d="M 1413 3688 
L 1413 4153 
L 384 4153 
L 384 4538 
L 1413 4538 
L 1413 5313 
L 1816 5313 
L 1816 4538 
L 2875 4538 
L 2875 4153 
L 1816 4153 
L 1816 3688 
L 2734 3688 
L 2734 1516 
L 1816 1516 
L 1816 1013 
L 2931 1013 
L 2931 628 
L 1816 628 
L 1816 -447 
L 1413 -447 
L 1413 628 
L 294 628 
L 294 1013 
L 1413 1013 
L 1413 1516 
L 531 1516 
L 531 3688 
L 1413 3688 
z
M 1425 3353 
L 903 3353 
L 903 2778 
L 1425 2778 
L 1425 3353 
z
M 1803 3353 
L 1803 2778 
L 2363 2778 
L 2363 3353 
L 1803 3353 
z
M 1425 2456 
L 903 2456 
L 903 1856 
L 1425 1856 
L 1425 2456 
z
M 1803 2456 
L 1803 1856 
L 2363 1856 
L 2363 2456 
L 1803 2456 
z
M 4241 1013 
Q 3791 1606 3550 2338 
L 3916 2509 
Q 4091 1900 4478 1363 
Q 4825 1941 4978 2638 
L 5375 2491 
Q 5194 1719 4747 1031 
Q 5294 444 6144 44 
L 5859 -378 
Q 5069 50 4497 691 
Q 3853 -78 3050 -481 
L 2750 -128 
Q 3644 259 4241 1013 
z
M 4647 4263 
L 6059 4263 
L 6059 3853 
L 2963 3853 
L 2963 4263 
L 4206 4263 
L 4206 5313 
L 4647 5313 
L 4647 4263 
z
M 2847 2297 
Q 3406 2859 3738 3700 
L 4119 3541 
Q 3769 2644 3153 1991 
L 2847 2297 
z
M 5759 2106 
Q 5334 2863 4734 3541 
L 5075 3731 
Q 5731 3044 6097 2419 
L 5759 2106 
z
" transform="scale(0.015625)"/>
      <path id="IPAexGothic-ff08" d="M 5419 -434 
Q 4197 769 4197 2438 
Q 4197 4097 5419 5300 
L 5919 5300 
Q 4678 4078 4678 2425 
Q 4678 788 5919 -434 
L 5419 -434 
z
" transform="scale(0.015625)"/>
      <path id="IPAexGothic-30c0" d="M 4806 4219 
L 5141 3944 
Q 4625 2388 3884 1416 
Q 3019 281 1650 -344 
L 1294 66 
Q 1959 338 2441 694 
Q 2881 1022 3359 1556 
Q 2747 2181 1972 2747 
Q 1431 2159 1000 1831 
L 653 2191 
Q 2144 3284 2694 4988 
L 3188 4853 
Q 3153 4731 2938 4219 
L 4806 4219 
z
M 2722 3772 
Q 2538 3478 2266 3125 
Q 3022 2572 3669 1959 
Q 4194 2763 4575 3772 
L 2722 3772 
z
M 6009 4469 
Q 5647 5009 5256 5338 
L 5556 5569 
Q 5941 5259 6331 4744 
L 6009 4469 
z
M 5397 4031 
Q 5106 4522 4659 4922 
L 4972 5166 
Q 5344 4856 5728 4306 
L 5397 4031 
z
" transform="scale(0.015625)"/>
      <path id="IPAexGothic-30d9" d="M 428 1991 
Q 1119 2547 2100 3681 
Q 2356 3975 2566 3975 
Q 2772 3975 3181 3584 
Q 4328 2475 5950 1356 
L 5600 863 
Q 3994 2081 2816 3241 
Q 2653 3394 2584 3394 
Q 2513 3394 2291 3125 
Q 1706 2384 775 1528 
L 428 1991 
z
M 5356 3719 
Q 4994 4259 4600 4588 
L 4903 4819 
Q 5288 4509 5675 3994 
L 5356 3719 
z
M 4759 3250 
Q 4472 3741 4025 4141 
L 4338 4381 
Q 4709 4075 5094 3525 
L 4759 3250 
z
" transform="scale(0.015625)"/>
      <path id="IPAexGothic-30eb" d="M 353 331 
Q 1313 994 1544 2022 
Q 1684 2650 1684 4397 
L 2203 4397 
L 2203 4153 
L 2203 4116 
Q 2203 2259 1934 1491 
Q 1619 588 744 -38 
L 353 331 
z
M 3125 4666 
L 3650 4666 
L 3650 769 
Q 4875 1488 5672 2734 
L 6000 2278 
Q 5075 966 3516 63 
L 3125 359 
L 3125 4666 
z
" transform="scale(0.015625)"/>
      <path id="IPAexGothic-30c1" d="M 3088 2853 
L 3088 3981 
Q 2359 3847 1531 3797 
L 1288 4238 
Q 3200 4344 4553 4872 
L 4909 4456 
Q 4244 4216 3606 4078 
L 3606 2913 
L 5806 2913 
L 5806 2459 
L 3600 2459 
Q 3559 1422 3188 850 
Q 2722 138 1738 -256 
L 1347 153 
Q 2319 500 2709 1081 
Q 3031 1563 3081 2400 
L 597 2400 
L 597 2853 
L 3088 2853 
z
" transform="scale(0.015625)"/>
      <path id="IPAexGothic-30e3" d="M 2559 3903 
L 2803 2816 
L 4863 3169 
L 5191 2894 
Q 4672 1875 4103 1203 
L 3666 1447 
Q 4175 2013 4525 2688 
L 2900 2388 
L 3450 -116 
L 2969 -231 
L 2419 2297 
L 1172 2069 
L 1075 2516 
L 2328 2731 
L 2094 3809 
L 2559 3903 
z
" transform="scale(0.015625)"/>
      <path id="IPAexGothic-ff09" d="M 481 -434 
Q 1722 788 1722 2431 
Q 1722 4066 481 5300 
L 981 5300 
Q 2203 4097 2203 2431 
Q 2203 769 981 -434 
L 481 -434 
z
" transform="scale(0.015625)"/>
     </defs>
     <use xlink:href="#IPAexGothic-65bd"/>
     <use xlink:href="#IPAexGothic-7b56" transform="translate(100 0)"/>
     <use xlink:href="#IPAexGothic-524d" transform="translate(200 0)"/>
     <use xlink:href="#IPAexGothic-5f8c" transform="translate(300 0)"/>
     <use xlink:href="#IPAexGothic-306e" transform="translate(400 0)"/>
     <use xlink:href="#IPAexGothic-30a8" transform="translate(500 0)"/>
     <use xlink:href="#IPAexGothic-30f3" transform="translate(600 0)"/>
     <use xlink:href="#IPAexGothic-30b2" transform="translate(700 0)"/>
     <use xlink:href="#IPAexGothic-30fc" transform="translate(800 0)"/>
     <use xlink:href="#IPAexGothic-30b8" transform="translate(900 0)"/>
     <use xlink:href="#IPAexGothic-30e1" transform="translate(1000 0)"/>
     <use xlink:href="#IPAexGothic-30f3" transform="translate(1100 0)"/>
     <use xlink:href="#IPAexGothic-30c8" transform="translate(1200 0)"/>
     <use xlink:href="#IPAexGothic-6bd4" transform="translate(1300 0)"/>
     <use xlink:href="#IPAexGothic-8f03" transform="translate(1400 0)"/>
     <use xlink:href="#IPAexGothic-ff08" transform="translate(1500 0)"/>
     <use xlink:href="#IPAexGothic-30c0" transform="translate(1600 0)"/>
     <use xlink:href="#IPAexGothic-30f3" transform="translate(1700 0)"/>
     <use xlink:href="#IPAexGothic-30d9" transform="translate(1800 0)"/>
     <use xlink:href="#IPAexGothic-30eb" transform="translate(1900 0)"/>
     <use xlink:href="#IPAexGothic-30c1" transform="translate(2000 0)"/>
     <use xlink:href="#IPAexGothic-30e3" transform="translate(2100 0)"/>
     <use xlink:href="#IPAexGothic-30fc" transform="translate(2200 0)"/>
     <use xlink:href="#IPAexGothic-30c8" transform="translate(2300 0)"/>
     <use xlink:href="#IPAexGothic-ff09" transform="translate(2400 0)"/>
    </g>
   </g>
   <g id="legend_1">
    <g id="patch_3">
     <path d="M 332.4 230.44 
L 406.8 230.44 
Q 409.2 230.44 409.2 228.04 
L 409.2 189.9025 
Q 409.2 187.5025 406.8 187.5025 
L 332.4 187.5025 
Q 330 187.5025 330 189.9025 
L 330 228.04 
Q 330 230.44 332.4 230.44 
z
" style="fill: #ffffff; opacity: 0.8; stroke: #cccccc; stroke-linejoin: miter"/>
    </g>
    <g id="PathCollection_3">
     <defs>
      <path id="m837fab8b3f" d="M 0 8.944272 
C 2.372049 8.944272 4.647264 8.001847 6.324555 6.324555 
C 8.001847 4.647264 8.944272 2.372049 8.944272 0 
C 8.944272 -2.372049 8.001847 -4.647264 6.324555 -6.324555 
C 4.647264 -8.001847 2.372049 -8.944272 0 -8.944272 
C -2.372049 -8.944272 -4.647264 -8.001847 -6.324555 -6.324555 
C -8.001847 -4.647264 -8.944272 -2.372049 -8.944272 0 
C -8.944272 2.372049 -8.001847 4.647264 -6.324555 6.324555 
C -4.647264 8.001847 -2.372049 8.944272 0 8.944272 
z
" style="stroke: #ef4444"/>
     </defs>
     <g>
      <use xlink:href="#m837fab8b3f" x="346.8" y="198.14125" style="fill: #ef4444; stroke: #ef4444"/>
     </g>
    </g>
    <g id="text_17">
     <!-- 施策前 -->
     <g transform="translate(368.4 201.29125) scale(0.12 -0.12)">
      <use xlink:href="#IPAexGothic-65bd"/>
      <use xlink:href="#IPAexGothic-7b56" transform="translate(100 0)"/>
      <use xlink:href="#IPAexGothic-524d" transform="translate(200 0)"/>
     </g>
    </g>
    <g id="PathCollection_4">
     <defs>
      <path id="m231032c3b0" d="M 0 8.944272 
C 2.372049 8.944272 4.647264 8.001847 6.324555 6.324555 
C 8.001847 4.647264 8.944272 2.372049 8.944272 0 
C 8.944272 -2.372049 8.001847 -4.647264 6.324555 -6.324555 
C 4.647264 -8.001847 2.372049 -8.944272 0 -8.944272 
C -2.372049 -8.944272 -4.647264 -8.001847 -6.324555 -6.324555 
C -8.001847 -4.647264 -8.944272 -2.372049 -8.944272 0 
C -8.944272 2.372049 -8.001847 4.647264 -6.324555 6.324555 
C -4.647264 8.001847 -2.372049 8.944272 0 8.944272 
z
" style="stroke: #22c55e"/>
     </defs>
     <g>
      <use xlink:href="#m231032c3b0" x="346.8" y="220.21" style="fill: #22c55e; stroke: #22c55e"/>
     </g>
    </g>
    <g id="text_18">
     <!-- 施策後 -->
     <g transform="translate(368.4 223.36) scale(0.12 -0.12)">
      <use xlink:href="#IPAexGothic-65bd"/>
      <use xlink:href="#IPAexGothic-7b56" transform="translate(100 0)"/>
      <use xlink:href="#IPAexGothic-5f8c" transform="translate(200 0)"/>
     </g>
    </g>
   </g>
  </g>
 </g>
 <defs>
  <clipPath id="pcdd69349e3">
   <rect x="57.76" y="30.48" width="363.44" height="211.96"/>
  </clipPath>
 </defs>
</svg>
