<?xml version="1.0" encoding="utf-8" standalone="no"?>
<!DOCTYPE svg PUBLIC "-//W3C//DTD SVG 1.1//EN"
  "http://www.w3.org/Graphics/SVG/1.1/DTD/svg11.dtd">
<svg xmlns:xlink="http://www.w3.org/1999/xlink" width="432pt" height="288pt" viewBox="0 0 432 288" xmlns="http://www.w3.org/2000/svg" version="1.1">
 <metadata>
  <rdf:RDF xmlns:dc="http://purl.org/dc/elements/1.1/" xmlns:cc="http://creativecommons.org/ns#" xmlns:rdf="http://www.w3.org/1999/02/22-rdf-syntax-ns#">
   <cc:Work>
    <dc:type rdf:resource="http://purl.org/dc/dcmitype/StillImage"/>
    <dc:date>2025-10-29T09:07:43.561788</dc:date>
    <dc:format>image/svg+xml</dc:format>
    <dc:creator>
     <cc:Agent>
      <dc:title>Matplotlib v3.10.7, https://matplotlib.org/</dc:title>
     </cc:Agent>
    </dc:creator>
   </cc:Work>
  </rdf:RDF>
 </metadata>
 <defs>
  <style type="text/css">*{stroke-linejoin: round; stroke-linecap: butt}</style>
 </defs>
 <g id="figure_1">
  <g id="patch_1">
   <path d="M 0 288 
L 432 288 
L 432 0 
L 0 0 
z
" style="fill: #ffffff"/>
  </g>
  <g id="axes_1">
   <g id="FillBetweenPolyCollection_1">
    <defs>
     <path id="m350833866e" d="M 10.8 -199.204364 
L 10.8 -235.090909 
L 421.2 -235.090909 
L 421.2 -199.204364 
L 421.2 -199.204364 
L 10.8 -199.204364 
z
" style="stroke: #b7d4ea"/>
    </defs>
    <g clip-path="url(#p2792f4a6da)">
     <use xlink:href="#m350833866e" x="0" y="288" style="fill: #b7d4ea; stroke: #b7d4ea"/>
    </g>
   </g>
   <g id="FillBetweenPolyCollection_2">
    <defs>
     <path id="m3e09963fd6" d="M 123.66 -154.346182 
L 123.66 -190.232727 
L 308.34 -190.232727 
L 308.34 -154.346182 
L 308.34 -154.346182 
L 123.66 -154.346182 
z
" style="stroke: #8cc0dd"/>
    </defs>
    <g clip-path="url(#p2792f4a6da)">
     <use xlink:href="#m3e09963fd6" x="0" y="288" style="fill: #8cc0dd; stroke: #8cc0dd"/>
    </g>
   </g>
   <g id="FillBetweenPolyCollection_3">
    <defs>
     <path id="m354f52f4da" d="M 171.54 -109.488 
L 171.54 -145.374545 
L 260.46 -145.374545 
L 260.46 -109.488 
L 260.46 -109.488 
L 171.54 -109.488 
z
" style="stroke: #5da5d1"/>
    </defs>
    <g clip-path="url(#p2792f4a6da)">
     <use xlink:href="#m354f52f4da" x="0" y="288" style="fill: #5da5d1; stroke: #5da5d1"/>
    </g>
   </g>
   <g id="FillBetweenPolyCollection_4">
    <defs>
     <path id="m91fe003a03" d="M 185.22 -64.629818 
L 185.22 -100.516364 
L 246.78 -100.516364 
L 246.78 -64.629818 
L 246.78 -64.629818 
L 185.22 -64.629818 
z
" style="stroke: #3989c1"/>
    </defs>
    <g clip-path="url(#p2792f4a6da)">
     <use xlink:href="#m91fe003a03" x="0" y="288" style="fill: #3989c1; stroke: #3989c1"/>
    </g>
   </g>
   <g id="FillBetweenPolyCollection_5">
    <defs>
     <path id="me1455cda69" d="M 194.625 -19.771636 
L 194.625 -55.658182 
L 237.375 -55.658182 
L 237.375 -19.771636 
L 237.375 -19.771636 
L 194.625 -19.771636 
z
" style="stroke: #1b69af"/>
    </defs>
    <g clip-path="url(#p2792f4a6da)">
     <use xlink:href="#me1455cda69" x="0" y="288" style="fill: #1b69af; stroke: #1b69af"/>
    </g>
   </g>
   <g id="text_1">
    <!-- 訪問 -->
    <g style="fill: #ffffff" transform="translate(205 67.938395) scale(0.11 -0.11)">
     <defs>
      <path id="IPAexGothic-8a2a" d="M 4034 3797 
L 4034 3509 
Q 4034 3072 4028 2859 
L 5684 2859 
Q 5625 691 5484 147 
Q 5406 -134 5234 -228 
Q 5097 -313 4775 -313 
Q 4422 -313 4034 -263 
L 3969 197 
Q 4359 122 4697 122 
Q 5003 122 5069 409 
Q 5181 1006 5228 2341 
L 5234 2456 
L 4006 2456 
Q 3881 459 2784 -447 
L 2459 -97 
Q 3131 422 3369 1241 
Q 3591 1991 3591 3406 
L 3591 3797 
L 2684 3797 
L 2684 4213 
L 3938 4213 
L 3938 5209 
L 4384 5209 
L 4384 4213 
L 6041 4213 
L 6041 3797 
L 4034 3797 
z
M 2388 1684 
L 2388 -128 
L 959 -128 
L 959 -447 
L 538 -447 
L 538 1684 
L 2388 1684 
z
M 959 1313 
L 959 244 
L 1966 244 
L 1966 1313 
L 959 1313 
z
M 634 5044 
L 2294 5044 
L 2294 4659 
L 634 4659 
L 634 5044 
z
M 347 4206 
L 2509 4206 
L 2509 3816 
L 347 3816 
L 347 4206 
z
M 634 3359 
L 2294 3359 
L 2294 2975 
L 634 2975 
L 634 3359 
z
M 634 2522 
L 2294 2522 
L 2294 2138 
L 634 2138 
L 634 2522 
z
" transform="scale(0.015625)"/>
      <path id="IPAexGothic-554f" d="M 4384 2291 
L 4384 525 
L 2400 525 
L 2400 172 
L 1972 172 
L 1972 2291 
L 4384 2291 
z
M 3956 1919 
L 2400 1919 
L 2400 897 
L 3956 897 
L 3956 1919 
z
M 2913 4984 
L 2913 2884 
L 1094 2884 
L 1094 -450 
L 641 -450 
L 641 4984 
L 2913 4984 
z
M 1094 4606 
L 1094 4109 
L 2497 4109 
L 2497 4606 
L 1094 4606 
z
M 1094 3769 
L 1094 3250 
L 2497 3250 
L 2497 3769 
L 1094 3769 
z
M 5753 4984 
L 5753 91 
Q 5753 -403 5244 -403 
Q 4875 -403 4444 -366 
L 4366 97 
Q 4750 38 5063 38 
Q 5300 38 5300 281 
L 5300 2884 
L 3444 2884 
L 3444 4984 
L 5753 4984 
z
M 3859 4606 
L 3859 4109 
L 5300 4109 
L 5300 4606 
L 3859 4606 
z
M 3859 3769 
L 3859 3250 
L 5300 3250 
L 5300 3769 
L 3859 3769 
z
" transform="scale(0.015625)"/>
     </defs>
     <use xlink:href="#IPAexGothic-8a2a"/>
     <use xlink:href="#IPAexGothic-554f" transform="translate(100 0)"/>
    </g>
    <!-- 12,000 -->
    <g style="fill: #ffffff" transform="translate(197.226094 79.91602) scale(0.11 -0.11)">
     <defs>
      <path id="IPAexGothic-31" d="M 2463 63 
L 1900 63 
L 1900 4103 
Q 1372 3922 788 3797 
L 684 4231 
Q 1519 4441 2106 4731 
L 2463 4731 
L 2463 63 
z
" transform="scale(0.015625)"/>
      <path id="IPAexGothic-32" d="M 3659 63 
L 447 63 
L 447 594 
Q 825 1475 1894 2203 
L 2072 2322 
Q 2619 2697 2791 2906 
Q 2988 3153 2988 3444 
Q 2988 3772 2756 4003 
Q 2500 4259 2084 4259 
Q 1250 4259 991 3328 
L 497 3506 
Q 853 4725 2116 4725 
Q 2806 4725 3216 4316 
Q 3575 3947 3575 3425 
Q 3575 3038 3344 2722 
Q 3131 2416 2366 1938 
L 2231 1856 
Q 1256 1253 978 569 
L 3659 569 
L 3659 63 
z
" transform="scale(0.015625)"/>
      <path id="IPAexGothic-2c" d="M 1150 728 
Q 1028 -159 563 -1006 
L 153 -897 
Q 494 -100 569 728 
L 1150 728 
z
" transform="scale(0.015625)"/>
      <path id="IPAexGothic-30" d="M 2038 4725 
Q 2881 4725 3334 3944 
Q 3694 3325 3694 2344 
Q 3694 1372 3334 741 
Q 2888 -31 2016 -31 
Q 1147 -31 700 741 
Q 341 1372 341 2350 
Q 341 3713 1000 4334 
Q 1419 4725 2038 4725 
z
M 2016 4266 
Q 1516 4266 1228 3759 
Q 934 3247 934 2344 
Q 934 1456 1222 947 
Q 1513 447 2016 447 
Q 2619 447 2909 1153 
Q 3100 1622 3100 2375 
Q 3100 3256 2806 3759 
Q 2509 4266 2016 4266 
z
" transform="scale(0.015625)"/>
     </defs>
     <use xlink:href="#IPAexGothic-31"/>
     <use xlink:href="#IPAexGothic-32" transform="translate(62.988281 0)"/>
     <use xlink:href="#IPAexGothic-2c" transform="translate(125.976562 0)"/>
     <use xlink:href="#IPAexGothic-30" transform="translate(152.392578 0)"/>
     <use xlink:href="#IPAexGothic-30" transform="translate(215.380859 0)"/>
     <use xlink:href="#IPAexGothic-30" transform="translate(278.369141 0)"/>
    </g>
   </g>
   <g id="text_2">
    <!-- 商品閲覧 -->
    <g style="fill: #ffffff" transform="translate(194 112.796577) scale(0.11 -0.11)">
     <defs>
      <path id="IPAexGothic-5546" d="M 3956 3019 
L 3956 2531 
Q 3956 2400 4019 2372 
Q 4081 2347 4294 2347 
Q 4656 2347 4703 2444 
Q 4741 2522 4769 2794 
L 5166 2659 
Q 5119 2281 5031 2153 
Q 4903 1988 4269 1988 
Q 3744 1988 3622 2091 
Q 3528 2156 3528 2384 
L 3528 3019 
L 2734 3019 
Q 2688 1994 1484 1638 
L 1234 2003 
Q 2316 2203 2306 3019 
L 1128 3019 
L 1128 -447 
L 675 -447 
L 675 3397 
L 2119 3397 
Q 1953 3875 1800 4184 
L 322 4184 
L 322 4581 
L 2941 4581 
L 2941 5309 
L 3416 5309 
L 3416 4581 
L 6078 4581 
L 6078 4184 
L 4609 4184 
Q 4463 3822 4231 3397 
L 5716 3397 
L 5716 63 
Q 5716 -397 5166 -397 
Q 4834 -397 4306 -359 
L 4213 109 
Q 4684 44 5056 44 
Q 5269 44 5269 288 
L 5269 3019 
L 3956 3019 
z
M 2281 4184 
Q 2459 3794 2594 3397 
L 3763 3397 
Q 3947 3725 4116 4184 
L 2281 4184 
z
M 2491 397 
L 2491 63 
L 2075 63 
L 2075 1797 
L 4334 1797 
L 4334 397 
L 2491 397 
z
M 3919 750 
L 3919 1444 
L 2491 1444 
L 2491 750 
L 3919 750 
z
" transform="scale(0.015625)"/>
      <path id="IPAexGothic-54c1" d="M 4781 4947 
L 4781 2872 
L 1613 2872 
L 1613 4947 
L 4781 4947 
z
M 2066 4556 
L 2066 3263 
L 4334 3263 
L 4334 4556 
L 2066 4556 
z
M 2841 2291 
L 2841 -325 
L 2400 -325 
L 2400 0 
L 1088 0 
L 1088 -384 
L 647 -384 
L 647 2291 
L 2841 2291 
z
M 1088 1900 
L 1088 397 
L 2400 397 
L 2400 1900 
L 1088 1900 
z
M 5747 2291 
L 5747 -384 
L 5306 -384 
L 5306 0 
L 3950 0 
L 3950 -384 
L 3509 -384 
L 3509 2291 
L 5747 2291 
z
M 3950 1900 
L 3950 397 
L 5306 397 
L 5306 1900 
L 3950 1900 
z
" transform="scale(0.015625)"/>
      <path id="IPAexGothic-95b2" d="M 4709 31 
Q 4547 -25 4050 -25 
Q 3594 -25 3453 78 
Q 3347 156 3347 366 
L 3347 1197 
L 2847 1197 
L 2847 1069 
Q 2847 72 1594 -225 
L 1369 128 
Q 2444 309 2444 1044 
L 2444 1197 
L 1881 1197 
L 1881 2431 
L 2469 2431 
Q 2331 2747 2100 3019 
L 2469 3178 
Q 2681 2931 2881 2584 
L 2553 2431 
L 3372 2431 
Q 3578 2759 3763 3184 
L 4197 3038 
Q 4000 2697 3834 2475 
L 3794 2431 
L 4441 2431 
L 4441 1197 
L 3756 1197 
L 3756 494 
Q 3756 347 4103 347 
Q 4469 347 4519 463 
Q 4563 575 4581 922 
L 4984 813 
Q 4956 147 4728 38 
Q 4978 0 5197 0 
Q 5356 0 5356 134 
L 5356 3275 
L 3428 3275 
L 3428 5056 
L 5809 5056 
L 5809 19 
Q 5809 -241 5694 -325 
Q 5600 -403 5319 -403 
Q 4991 -403 4794 -378 
L 4709 31 
z
M 2284 2091 
L 2284 1538 
L 4038 1538 
L 4038 2091 
L 2284 2091 
z
M 3841 4709 
L 3841 4325 
L 5356 4325 
L 5356 4709 
L 3841 4709 
z
M 3841 4013 
L 3841 3616 
L 5356 3616 
L 5356 4013 
L 3841 4013 
z
M 2919 5056 
L 2919 3275 
L 1028 3275 
L 1028 -450 
L 581 -450 
L 581 5056 
L 2919 5056 
z
M 1028 4709 
L 1028 4325 
L 2509 4325 
L 2509 4709 
L 1028 4709 
z
M 1028 4013 
L 1028 3616 
L 2509 3616 
L 2509 4013 
L 1028 4013 
z
" transform="scale(0.015625)"/>
      <path id="IPAexGothic-89a7" d="M 4147 672 
L 4147 206 
Q 4147 53 4281 25 
Q 4444 -13 4872 -13 
Q 5491 -13 5556 128 
Q 5597 219 5606 634 
L 6059 500 
Q 6031 -122 5831 -275 
Q 5653 -416 4744 -416 
Q 4088 -416 3903 -338 
Q 3706 -253 3706 38 
L 3706 672 
L 2753 672 
Q 2609 -394 641 -519 
L 372 -109 
Q 1259 -81 1766 103 
Q 2219 266 2303 672 
L 1184 672 
L 1184 2753 
L 5203 2753 
L 5203 672 
L 4147 672 
z
M 1619 2447 
L 1619 2150 
L 4775 2150 
L 4775 2447 
L 1619 2447 
z
M 1619 1869 
L 1619 1575 
L 4775 1575 
L 4775 1869 
L 1619 1869 
z
M 1619 1294 
L 1619 978 
L 4775 978 
L 4775 1294 
L 1619 1294 
z
M 2197 4819 
L 2197 4494 
L 3113 4494 
L 3113 3628 
L 2197 3628 
L 2197 3297 
L 3284 3297 
L 3284 2984 
L 609 2984 
L 609 5131 
L 3253 5131 
L 3253 4819 
L 2197 4819 
z
M 1806 4819 
L 1006 4819 
L 1006 4494 
L 1806 4494 
L 1806 4819 
z
M 2728 4213 
L 1006 4213 
L 1006 3903 
L 2728 3903 
L 2728 4213 
z
M 1806 3628 
L 1006 3628 
L 1006 3297 
L 1806 3297 
L 1806 3628 
z
M 4153 4672 
L 5953 4672 
L 5953 4313 
L 4000 4313 
Q 3831 3963 3488 3550 
L 3206 3859 
Q 3747 4484 3913 5344 
L 4347 5275 
Q 4263 4938 4153 4672 
z
M 3663 3669 
L 5813 3669 
L 5813 3309 
L 3663 3309 
L 3663 3669 
z
" transform="scale(0.015625)"/>
     </defs>
     <use xlink:href="#IPAexGothic-5546"/>
     <use xlink:href="#IPAexGothic-54c1" transform="translate(100 0)"/>
     <use xlink:href="#IPAexGothic-95b2" transform="translate(200 0)"/>
     <use xlink:href="#IPAexGothic-89a7" transform="translate(300 0)"/>
    </g>
    <!-- 5,400 -->
    <g style="fill: #ffffff" transform="translate(200.690234 124.774202) scale(0.11 -0.11)">
     <defs>
      <path id="IPAexGothic-35" d="M 1178 2603 
Q 1634 2963 2172 2963 
Q 2816 2963 3241 2528 
Q 3638 2113 3638 1497 
Q 3638 938 3297 513 
Q 2869 -31 2031 -31 
Q 959 -31 469 784 
L 938 1028 
Q 1309 434 2013 434 
Q 2466 434 2769 716 
Q 3081 1013 3081 1503 
Q 3081 1966 2806 2241 
Q 2519 2528 2056 2528 
Q 1406 2528 1072 2028 
L 591 2091 
L 884 4634 
L 3406 4634 
L 3406 4153 
L 1341 4153 
L 1134 2603 
L 1178 2603 
z
" transform="scale(0.015625)"/>
      <path id="IPAexGothic-34" d="M 3813 1159 
L 3059 1159 
L 3059 63 
L 2547 63 
L 2547 1159 
L 197 1159 
L 197 1672 
L 2456 4678 
L 3059 4678 
L 3059 1634 
L 3813 1634 
L 3813 1159 
z
M 2578 4109 
L 2559 4109 
Q 2278 3656 2003 3284 
L 759 1634 
L 2547 1634 
L 2547 3144 
Q 2547 3481 2578 4109 
z
" transform="scale(0.015625)"/>
     </defs>
     <use xlink:href="#IPAexGothic-35"/>
     <use xlink:href="#IPAexGothic-2c" transform="translate(62.988281 0)"/>
     <use xlink:href="#IPAexGothic-34" transform="translate(89.404297 0)"/>
     <use xlink:href="#IPAexGothic-30" transform="translate(152.392578 0)"/>
     <use xlink:href="#IPAexGothic-30" transform="translate(215.380859 0)"/>
    </g>
   </g>
   <g id="text_3">
    <!-- カート投入 -->
    <g style="fill: #ffffff" transform="translate(188.5 157.654759) scale(0.11 -0.11)">
     <defs>
      <path id="IPAexGothic-30ab" d="M 2734 4981 
L 3247 4981 
L 3247 3694 
L 5250 3694 
L 5250 3491 
L 5250 3425 
Q 5250 1334 5019 500 
Q 4856 -84 4297 -84 
Q 3788 -84 3247 172 
L 3228 731 
Q 3859 441 4200 441 
Q 4484 441 4553 763 
Q 4706 1478 4738 3234 
L 3206 3234 
Q 3025 906 1159 -134 
L 769 263 
Q 2519 1134 2700 3209 
L 916 3209 
L 916 3669 
L 2734 3669 
L 2734 4981 
z
" transform="scale(0.015625)"/>
      <path id="IPAexGothic-30fc" d="M 588 2688 
L 5809 2688 
L 5809 2175 
L 588 2175 
L 588 2688 
z
" transform="scale(0.015625)"/>
      <path id="IPAexGothic-30c8" d="M 2284 4997 
L 2803 4997 
L 2803 3206 
Q 4088 2619 5216 1888 
L 4878 1369 
Q 3819 2175 2803 2688 
L 2803 -184 
L 2284 -184 
L 2284 4997 
z
" transform="scale(0.015625)"/>
      <path id="IPAexGothic-6295" d="M 1303 4006 
L 1303 5300 
L 1744 5300 
L 1744 4006 
L 2488 4006 
L 2488 3591 
L 1744 3591 
L 1744 2388 
Q 2244 2531 2459 2613 
L 2506 2234 
Q 2119 2091 1800 1984 
L 1744 1966 
L 1744 -13 
Q 1744 -291 1609 -378 
Q 1500 -447 1219 -447 
Q 959 -447 606 -416 
L 522 56 
Q 859 0 1113 0 
Q 1303 0 1303 191 
L 1303 1831 
Q 1275 1822 1225 1813 
Q 800 1691 466 1613 
L 319 2047 
Q 1047 2200 1259 2253 
Q 1266 2256 1281 2259 
Q 1294 2263 1303 2266 
L 1303 3591 
L 413 3591 
L 413 4006 
L 1303 4006 
z
M 4913 4984 
L 4913 3463 
Q 4913 3269 5169 3269 
Q 5422 3269 5469 3384 
Q 5513 3509 5522 3850 
L 5528 3941 
L 5963 3800 
Q 5953 3125 5803 2994 
Q 5663 2853 5175 2853 
Q 4716 2853 4581 2950 
Q 4466 3025 4466 3244 
L 4466 4575 
L 3575 4575 
L 3575 4384 
Q 3575 3625 3372 3225 
Q 3219 2938 2828 2641 
L 2525 2969 
Q 2953 3269 3056 3709 
Q 3134 4000 3134 4478 
L 3134 4984 
L 4913 4984 
z
M 4228 428 
Q 3481 -197 2681 -500 
L 2394 -84 
Q 3169 138 3897 716 
Q 3338 1253 2969 2053 
L 2688 2053 
L 2688 2463 
L 5291 2463 
L 5522 2272 
Q 5144 1334 4550 728 
Q 5263 231 6059 50 
L 5784 -403 
Q 4903 -103 4228 428 
z
M 3409 2053 
Q 3691 1481 4216 1003 
Q 4703 1509 4928 2053 
L 3409 2053 
z
" transform="scale(0.015625)"/>
      <path id="IPAexGothic-5165" d="M 3275 3078 
Q 2806 619 819 -334 
L 447 91 
Q 2934 1156 3000 4550 
L 1472 4550 
L 1472 4984 
L 3525 4984 
L 3525 4728 
Q 3525 3053 4116 2041 
Q 4734 972 6022 275 
L 5650 -200 
Q 3697 1044 3275 3078 
z
" transform="scale(0.015625)"/>
     </defs>
     <use xlink:href="#IPAexGothic-30ab"/>
     <use xlink:href="#IPAexGothic-30fc" transform="translate(100 0)"/>
     <use xlink:href="#IPAexGothic-30c8" transform="translate(200 0)"/>
     <use xlink:href="#IPAexGothic-6295" transform="translate(300 0)"/>
     <use xlink:href="#IPAexGothic-5165" transform="translate(400 0)"/>
    </g>
    <!-- 2,600 -->
    <g style="fill: #ffffff" transform="translate(200.690234 169.632384) scale(0.11 -0.11)">
     <defs>
      <path id="IPAexGothic-36" d="M 1056 2328 
Q 1509 2981 2234 2981 
Q 2906 2981 3316 2513 
Q 3675 2106 3675 1522 
Q 3675 884 3272 434 
Q 2853 -31 2178 -31 
Q 1375 -31 922 581 
Q 481 1178 481 2228 
Q 481 3425 1013 4109 
Q 1494 4725 2272 4725 
Q 3191 4725 3609 4025 
L 3150 3775 
Q 2894 4266 2300 4266 
Q 1119 4266 1031 2328 
L 1056 2328 
z
M 2141 2547 
Q 1684 2547 1384 2206 
Q 1116 1900 1116 1541 
Q 1116 1156 1353 844 
Q 1672 428 2159 428 
Q 2669 428 2941 844 
Q 3125 1128 3125 1503 
Q 3125 1944 2881 2228 
Q 2600 2547 2141 2547 
z
" transform="scale(0.015625)"/>
     </defs>
     <use xlink:href="#IPAexGothic-32"/>
     <use xlink:href="#IPAexGothic-2c" transform="translate(62.988281 0)"/>
     <use xlink:href="#IPAexGothic-36" transform="translate(89.404297 0)"/>
     <use xlink:href="#IPAexGothic-30" transform="translate(152.392578 0)"/>
     <use xlink:href="#IPAexGothic-30" transform="translate(215.380859 0)"/>
    </g>
   </g>
   <g id="text_4">
    <!-- 決済情報 -->
    <g style="fill: #ffffff" transform="translate(194 202.51294) scale(0.11 -0.11)">
     <defs>
      <path id="IPAexGothic-6c7a" d="M 4116 2081 
Q 4659 809 6003 84 
L 5656 -338 
Q 4281 500 3775 1884 
Q 3766 1853 3756 1806 
Q 3497 394 2078 -441 
L 1738 -38 
Q 3138 625 3391 2081 
L 1969 2081 
L 1969 2497 
L 3422 2497 
L 3422 3750 
L 2322 3750 
L 2322 4153 
L 3422 4153 
L 3422 5313 
L 3891 5313 
L 3891 4153 
L 5234 4153 
L 5234 2497 
L 6003 2497 
L 6003 2081 
L 4116 2081 
z
M 4788 3750 
L 3891 3750 
L 3891 2497 
L 4788 2497 
L 4788 3750 
z
M 1691 3769 
Q 1203 4344 703 4709 
L 1025 5044 
Q 1544 4675 2022 4147 
L 1691 3769 
z
M 1453 2278 
Q 1016 2772 441 3206 
L 756 3547 
Q 1278 3188 1778 2656 
L 1453 2278 
z
M 391 19 
Q 1063 800 1613 1966 
L 1966 1656 
Q 1394 428 750 -397 
L 391 19 
z
" transform="scale(0.015625)"/>
      <path id="IPAexGothic-6e08" d="M 5266 4116 
Q 4938 3547 4359 3119 
Q 5059 2828 6169 2694 
L 5950 2291 
Q 5622 2341 5400 2388 
L 5356 2400 
L 5356 -447 
L 4916 -447 
L 4916 775 
L 2978 775 
Q 2834 -22 2056 -550 
L 1756 -209 
Q 2316 122 2491 647 
Q 2600 975 2600 1453 
L 2600 2313 
Q 2347 2228 1972 2138 
L 1728 2541 
Q 2747 2697 3578 3100 
Q 2903 3547 2556 4116 
L 1959 4116 
L 1959 4494 
L 3694 4494 
L 3694 5313 
L 4141 5313 
L 4141 4494 
L 5978 4494 
L 5978 4116 
L 5266 4116 
z
M 4769 4116 
L 3028 4116 
Q 3366 3666 3956 3316 
Q 4425 3634 4769 4116 
z
M 3041 2453 
L 3041 2088 
L 4916 2088 
L 4916 2503 
Q 4419 2650 3981 2869 
Q 3575 2631 3041 2453 
z
M 4916 1716 
L 3041 1716 
L 3041 1600 
Q 3041 1391 3028 1147 
L 4916 1147 
L 4916 1716 
z
M 366 -78 
Q 925 816 1300 1894 
L 1666 1606 
Q 1309 541 744 -428 
L 366 -78 
z
M 1447 3884 
Q 1088 4353 556 4775 
L 859 5106 
Q 1375 4719 1759 4256 
L 1447 3884 
z
M 1281 2381 
Q 872 2894 378 3256 
L 678 3591 
Q 1138 3263 1600 2753 
L 1281 2381 
z
" transform="scale(0.015625)"/>
      <path id="IPAexGothic-60c5" d="M 3791 4672 
L 3791 5313 
L 4219 5313 
L 4219 4672 
L 5844 4672 
L 5844 4325 
L 4219 4325 
L 4219 3944 
L 5659 3944 
L 5659 3603 
L 4219 3603 
L 4219 3200 
L 6050 3200 
L 6050 2841 
L 2038 2841 
L 2038 3200 
L 3791 3200 
L 3791 3603 
L 2447 3603 
L 2447 3944 
L 3791 3944 
L 3791 4325 
L 2228 4325 
L 2228 4672 
L 3791 4672 
z
M 5491 2478 
L 5491 38 
Q 5491 -403 4966 -403 
Q 4741 -403 4134 -372 
L 4063 84 
Q 4484 19 4863 19 
Q 5063 19 5063 206 
L 5063 634 
L 3066 634 
L 3066 -447 
L 2638 -447 
L 2638 2478 
L 5491 2478 
z
M 3066 2131 
L 3066 1725 
L 5063 1725 
L 5063 2131 
L 3066 2131 
z
M 3066 1394 
L 3066 975 
L 5063 975 
L 5063 1394 
L 3066 1394 
z
M 244 2291 
Q 438 2947 488 4013 
L 878 3928 
Q 838 2825 641 2081 
L 244 2291 
z
M 1941 3213 
Q 1797 3722 1613 4100 
L 1953 4263 
Q 2172 3891 2319 3422 
L 1941 3213 
z
M 1106 5313 
L 1547 5313 
L 1547 -447 
L 1106 -447 
L 1106 5313 
z
" transform="scale(0.015625)"/>
      <path id="IPAexGothic-5831" d="M 2741 3084 
Q 2600 2594 2428 2203 
L 3175 2203 
L 3175 1819 
L 2013 1819 
L 2013 1134 
L 3100 1134 
L 3100 750 
L 2013 750 
L 2013 -447 
L 1572 -447 
L 1572 750 
L 522 750 
L 522 1134 
L 1572 1134 
L 1572 1819 
L 438 1819 
L 438 2203 
L 1128 2203 
Q 994 2800 884 3084 
L 297 3084 
L 297 3469 
L 1572 3469 
L 1572 4134 
L 578 4134 
L 578 4519 
L 1572 4519 
L 1572 5313 
L 2013 5313 
L 2013 4519 
L 3028 4519 
L 3028 4134 
L 2013 4134 
L 2013 3469 
L 3169 3469 
L 3169 3084 
L 2741 3084 
z
M 2300 3084 
L 1309 3084 
Q 1469 2606 1544 2203 
L 2013 2203 
Q 2194 2606 2300 3084 
z
M 5684 4991 
L 5684 3591 
Q 5684 3316 5575 3219 
Q 5466 3128 5159 3128 
Q 4834 3128 4441 3166 
L 4391 3597 
Q 4763 3538 5019 3538 
Q 5256 3538 5256 3769 
L 5256 4594 
L 3800 4594 
L 3800 2741 
L 5594 2741 
L 5831 2550 
Q 5659 1603 5203 806 
Q 5544 331 6131 -6 
L 5856 -416 
Q 5319 -22 4959 425 
Q 4588 -94 4116 -497 
L 3828 -147 
Q 4319 231 4697 775 
Q 4169 1516 3969 2350 
L 3800 2350 
L 3800 -447 
L 3375 -447 
L 3375 4991 
L 5684 4991 
z
M 4353 2350 
Q 4503 1794 4922 1153 
Q 5228 1716 5350 2350 
L 4353 2350 
z
" transform="scale(0.015625)"/>
     </defs>
     <use xlink:href="#IPAexGothic-6c7a"/>
     <use xlink:href="#IPAexGothic-6e08" transform="translate(100 0)"/>
     <use xlink:href="#IPAexGothic-60c5" transform="translate(200 0)"/>
     <use xlink:href="#IPAexGothic-5831" transform="translate(300 0)"/>
    </g>
    <!-- 1,800 -->
    <g style="fill: #ffffff" transform="translate(200.690234 214.490565) scale(0.11 -0.11)">
     <defs>
      <path id="IPAexGothic-38" d="M 2541 2425 
Q 3700 2031 3700 1197 
Q 3700 541 3100 197 
Q 2663 -56 2016 -56 
Q 1366 -56 928 197 
Q 347 531 347 1178 
Q 347 1988 1409 2381 
L 1409 2400 
Q 481 2734 481 3509 
Q 481 4100 981 4456 
Q 1406 4756 2019 4756 
Q 2703 4756 3131 4403 
Q 3553 4069 3553 3566 
Q 3553 2706 2541 2444 
L 2541 2425 
z
M 2022 2625 
Q 2997 2856 2997 3528 
Q 2997 3916 2675 4150 
Q 2413 4347 2016 4347 
Q 1606 4347 1331 4128 
Q 1050 3897 1050 3522 
Q 1050 3150 1350 2925 
Q 1494 2809 1722 2722 
Q 1984 2616 2022 2625 
z
M 1978 2209 
Q 922 1931 922 1216 
Q 922 775 1313 556 
Q 1606 391 2009 391 
Q 2575 391 2881 697 
Q 3106 922 3106 1250 
Q 3106 1594 2794 1850 
Q 2609 1994 2350 2100 
Q 2047 2222 1978 2209 
z
" transform="scale(0.015625)"/>
     </defs>
     <use xlink:href="#IPAexGothic-31"/>
     <use xlink:href="#IPAexGothic-2c" transform="translate(62.988281 0)"/>
     <use xlink:href="#IPAexGothic-38" transform="translate(89.404297 0)"/>
     <use xlink:href="#IPAexGothic-30" transform="translate(152.392578 0)"/>
     <use xlink:href="#IPAexGothic-30" transform="translate(215.380859 0)"/>
    </g>
   </g>
   <g id="text_5">
    <!-- 購入完了 -->
    <g style="fill: #ffffff" transform="translate(194 247.371122) scale(0.11 -0.11)">
     <defs>
      <path id="IPAexGothic-8cfc" d="M 4409 2841 
L 4409 2509 
L 5691 2509 
L 5691 1025 
L 6138 1025 
L 6138 672 
L 5691 672 
L 5691 78 
Q 5691 -397 5166 -397 
Q 4847 -397 4506 -366 
L 4438 78 
Q 4791 13 5106 13 
Q 5288 13 5288 172 
L 5288 672 
L 3175 672 
L 3175 -447 
L 2772 -447 
L 2772 672 
L 2284 672 
L 2284 1025 
L 2772 1025 
L 2772 2509 
L 4009 2509 
L 4009 2841 
L 2319 2841 
L 2319 3194 
L 3375 3194 
L 3375 3631 
L 2606 3631 
L 2606 3956 
L 3375 3956 
L 3375 4369 
L 2406 4369 
L 2406 4709 
L 3375 4709 
L 3375 5313 
L 3784 5313 
L 3784 4709 
L 4641 4709 
L 4641 5313 
L 5050 5313 
L 5050 4709 
L 5984 4709 
L 5984 4369 
L 5050 4369 
L 5050 3956 
L 5806 3956 
L 5806 3631 
L 5050 3631 
L 5050 3194 
L 6106 3194 
L 6106 2841 
L 4409 2841 
z
M 4016 2169 
L 3175 2169 
L 3175 1759 
L 4016 1759 
L 4016 2169 
z
M 4397 2169 
L 4397 1759 
L 5288 1759 
L 5288 2169 
L 4397 2169 
z
M 4016 1434 
L 3175 1434 
L 3175 1025 
L 4016 1025 
L 4016 1434 
z
M 4397 1434 
L 4397 1025 
L 5288 1025 
L 5288 1434 
L 4397 1434 
z
M 4641 4369 
L 3784 4369 
L 3784 3956 
L 4641 3956 
L 4641 4369 
z
M 4641 3631 
L 3784 3631 
L 3784 3194 
L 4641 3194 
L 4641 3631 
z
M 2088 4978 
L 2088 1019 
L 500 1019 
L 500 4978 
L 2088 4978 
z
M 884 4588 
L 884 3803 
L 1697 3803 
L 1697 4588 
L 884 4588 
z
M 884 3431 
L 884 2650 
L 1697 2650 
L 1697 3431 
L 884 3431 
z
M 884 2278 
L 884 1416 
L 1697 1416 
L 1697 2278 
L 884 2278 
z
M 219 -197 
Q 613 291 834 972 
L 1191 788 
Q 966 41 544 -525 
L 219 -197 
z
M 1934 -331 
Q 1734 234 1416 788 
L 1756 953 
Q 2100 413 2306 -103 
L 1934 -331 
z
" transform="scale(0.015625)"/>
      <path id="IPAexGothic-5b8c" d="M 3419 4428 
L 5753 4428 
L 5753 3166 
L 5278 3166 
L 5278 4025 
L 1116 4025 
L 1116 3166 
L 641 3166 
L 641 4428 
L 2938 4428 
L 2938 5313 
L 3419 5313 
L 3419 4428 
z
M 4084 1850 
L 4084 353 
Q 4084 178 4219 138 
Q 4356 106 4713 106 
Q 5334 106 5422 300 
Q 5519 500 5519 1013 
L 5978 872 
Q 5931 9 5734 -169 
Q 5556 -347 4672 -347 
Q 3981 -347 3809 -250 
Q 3625 -144 3625 184 
L 3625 1850 
L 2697 1850 
Q 2688 819 2281 325 
Q 1834 -206 822 -506 
L 528 -84 
Q 1556 156 1916 622 
Q 2222 1003 2231 1850 
L 516 1850 
L 516 2266 
L 5881 2266 
L 5881 1850 
L 4084 1850 
z
M 1422 3341 
L 4975 3341 
L 4975 2938 
L 1422 2938 
L 1422 3341 
z
" transform="scale(0.015625)"/>
      <path id="IPAexGothic-4e86" d="M 3475 2997 
L 3475 206 
Q 3475 -94 3372 -197 
Q 3253 -325 2897 -325 
Q 2466 -325 1944 -263 
L 1850 269 
Q 2447 181 2756 181 
Q 2975 181 2975 409 
L 2975 3188 
Q 3916 3756 4544 4372 
L 1044 4372 
L 1044 4800 
L 5138 4800 
L 5428 4500 
Q 4453 3622 3475 2997 
z
" transform="scale(0.015625)"/>
     </defs>
     <use xlink:href="#IPAexGothic-8cfc"/>
     <use xlink:href="#IPAexGothic-5165" transform="translate(100 0)"/>
     <use xlink:href="#IPAexGothic-5b8c" transform="translate(200 0)"/>
     <use xlink:href="#IPAexGothic-4e86" transform="translate(300 0)"/>
    </g>
    <!-- 1,250 -->
    <g style="fill: #ffffff" transform="translate(200.690234 259.348747) scale(0.11 -0.11)">
     <use xlink:href="#IPAexGothic-31"/>
     <use xlink:href="#IPAexGothic-2c" transform="translate(62.988281 0)"/>
     <use xlink:href="#IPAexGothic-32" transform="translate(89.404297 0)"/>
     <use xlink:href="#IPAexGothic-35" transform="translate(152.392578 0)"/>
     <use xlink:href="#IPAexGothic-30" transform="translate(215.380859 0)"/>
    </g>
   </g>
   <g id="text_6">
    <!-- CVR: 10.4% -->
    <g transform="translate(19.008 263.742545) scale(0.11 -0.11)">
     <defs>
      <path id="IPAexGothic-43" d="M 4353 1088 
Q 4181 694 3859 428 
Q 3313 -31 2559 -31 
Q 1588 -31 959 653 
Q 378 1294 378 2331 
Q 378 3406 1013 4078 
Q 1619 4725 2534 4725 
Q 3813 4725 4322 3628 
L 3809 3391 
Q 3425 4238 2541 4238 
Q 1891 4238 1453 3744 
Q 994 3216 994 2322 
Q 994 1550 1384 1056 
Q 1841 472 2563 472 
Q 3456 472 3878 1319 
L 4353 1088 
z
" transform="scale(0.015625)"/>
      <path id="IPAexGothic-56" d="M 4078 4634 
L 2222 0 
L 1806 0 
L -6 4634 
L 622 4634 
L 1703 1766 
Q 1916 1194 2034 784 
L 2053 784 
Q 2188 1256 2381 1766 
L 3450 4634 
L 4078 4634 
z
" transform="scale(0.015625)"/>
      <path id="IPAexGothic-52" d="M 4072 63 
L 3394 63 
Q 3138 641 2828 1197 
Q 2584 1641 2344 1825 
Q 2050 2044 1625 2044 
L 1172 2044 
L 1172 63 
L 609 63 
L 609 4634 
L 2009 4634 
Q 2713 4634 3131 4378 
Q 3688 4044 3688 3381 
Q 3688 2784 3181 2459 
Q 2906 2272 2522 2216 
L 2522 2197 
Q 2941 2050 3247 1581 
Q 3516 1166 4072 63 
z
M 1172 2478 
L 1869 2478 
Q 3106 2478 3106 3369 
Q 3106 4181 1928 4181 
L 1172 4181 
L 1172 2478 
z
" transform="scale(0.015625)"/>
      <path id="IPAexGothic-3a" d="M 1369 2559 
L 672 2559 
L 672 3250 
L 1369 3250 
L 1369 2559 
z
M 1369 63 
L 672 63 
L 672 753 
L 1369 753 
L 1369 63 
z
" transform="scale(0.015625)"/>
      <path id="IPAexGothic-20" transform="scale(0.015625)"/>
      <path id="IPAexGothic-2e" d="M 1184 63 
L 494 63 
L 494 753 
L 1184 753 
L 1184 63 
z
" transform="scale(0.015625)"/>
      <path id="IPAexGothic-25" d="M 4088 2481 
Q 4528 2481 4800 2181 
Q 5094 1847 5094 1203 
Q 5094 534 4728 197 
Q 4472 -38 4088 -38 
Q 3647 -38 3378 269 
Q 3084 600 3084 1222 
Q 3084 1906 3444 2244 
Q 3697 2481 4088 2481 
z
M 4081 2097 
Q 3566 2097 3566 1234 
Q 3566 356 4097 356 
Q 4613 356 4613 1241 
Q 4613 2097 4081 2097 
z
M 1331 4731 
Q 1769 4731 2041 4431 
Q 2334 4097 2334 3450 
Q 2334 2781 1969 2447 
Q 1713 2209 1331 2209 
Q 888 2209 619 2516 
Q 325 2850 325 3472 
Q 325 4156 684 4494 
Q 941 4731 1331 4731 
z
M 1322 4347 
Q 806 4347 806 3484 
Q 806 2606 1338 2606 
Q 1859 2606 1859 3484 
Q 1859 3859 1725 4091 
Q 1584 4347 1322 4347 
z
M 4569 4603 
L 1106 -134 
L 856 78 
L 4313 4813 
L 4569 4603 
z
" transform="scale(0.015625)"/>
     </defs>
     <use xlink:href="#IPAexGothic-43"/>
     <use xlink:href="#IPAexGothic-56" transform="translate(72.509766 0)"/>
     <use xlink:href="#IPAexGothic-52" transform="translate(136.230469 0)"/>
     <use xlink:href="#IPAexGothic-3a" transform="translate(201.025391 0)"/>
     <use xlink:href="#IPAexGothic-20" transform="translate(233.007812 0)"/>
     <use xlink:href="#IPAexGothic-31" transform="translate(260.009766 0)"/>
     <use xlink:href="#IPAexGothic-30" transform="translate(322.998047 0)"/>
     <use xlink:href="#IPAexGothic-2e" transform="translate(385.986328 0)"/>
     <use xlink:href="#IPAexGothic-34" transform="translate(412.402344 0)"/>
     <use xlink:href="#IPAexGothic-25" transform="translate(475.390625 0)"/>
    </g>
   </g>
   <g id="text_7">
    <!-- EC購入ファネルの離脱状況 -->
    <g transform="translate(109.5525 24.48) scale(0.1728 -0.1728)">
     <defs>
      <path id="IPAexGothic-45" d="M 3547 63 
L 609 63 
L 609 4634 
L 3469 4634 
L 3469 4147 
L 1166 4147 
L 1166 2650 
L 3206 2650 
L 3206 2191 
L 1166 2191 
L 1166 556 
L 3547 556 
L 3547 63 
z
" transform="scale(0.015625)"/>
      <path id="IPAexGothic-30d5" d="M 4966 4294 
L 5263 4019 
Q 4819 894 1966 -97 
L 1600 353 
Q 4234 1156 4684 3822 
L 1044 3756 
L 1044 4244 
L 4966 4294 
z
" transform="scale(0.015625)"/>
      <path id="IPAexGothic-30a1" d="M 4859 3553 
L 5153 3256 
Q 4616 2194 3797 1459 
L 3425 1778 
Q 4156 2413 4525 3103 
L 1300 3022 
L 1300 3475 
L 4859 3553 
z
M 1513 172 
Q 2341 578 2600 1184 
Q 2769 1594 2778 2663 
L 3253 2663 
Q 3244 1444 2991 903 
Q 2703 269 1856 -191 
L 1513 172 
z
" transform="scale(0.015625)"/>
      <path id="IPAexGothic-30cd" d="M 1288 3834 
L 4803 3834 
L 5066 3559 
Q 4419 2813 3466 2134 
L 3466 -294 
L 2953 -294 
L 2953 1800 
Q 1963 1203 1056 891 
L 731 1328 
Q 1797 1631 2844 2281 
Q 3675 2794 4253 3381 
L 1288 3381 
L 1288 3834 
z
M 3669 4031 
Q 3094 4459 2291 4850 
L 2572 5222 
Q 3334 4884 4000 4428 
L 3669 4031 
z
M 5441 838 
Q 4781 1413 3859 1966 
L 4159 2316 
Q 5078 1819 5825 1247 
L 5441 838 
z
" transform="scale(0.015625)"/>
      <path id="IPAexGothic-30eb" d="M 353 331 
Q 1313 994 1544 2022 
Q 1684 2650 1684 4397 
L 2203 4397 
L 2203 4153 
L 2203 4116 
Q 2203 2259 1934 1491 
Q 1619 588 744 -38 
L 353 331 
z
M 3125 4666 
L 3650 4666 
L 3650 769 
Q 4875 1488 5672 2734 
L 6000 2278 
Q 5075 966 3516 63 
L 3125 359 
L 3125 4666 
z
" transform="scale(0.015625)"/>
      <path id="IPAexGothic-306e" d="M 3119 469 
Q 5275 766 5275 2425 
Q 5275 3453 4413 3925 
Q 4041 4116 3547 4159 
Q 3394 2525 2850 1400 
Q 2322 306 1722 306 
Q 1384 306 1084 666 
Q 609 1244 609 2003 
Q 609 3025 1397 3794 
Q 2184 4563 3431 4563 
Q 4306 4563 4928 4122 
Q 5813 3506 5813 2425 
Q 5813 438 3431 6 
L 3119 469 
z
M 3053 4147 
Q 2378 4044 1891 3641 
Q 1097 2981 1097 1991 
Q 1097 1366 1434 978 
Q 1581 813 1719 813 
Q 2022 813 2416 1625 
Q 2909 2638 3053 4147 
z
" transform="scale(0.015625)"/>
      <path id="IPAexGothic-96e2" d="M 2219 881 
Q 2134 1103 1972 1381 
L 2291 1497 
Q 2578 1041 2756 488 
L 2413 300 
Q 2381 416 2322 613 
Q 1750 481 1003 384 
L 894 769 
Q 1128 778 1209 788 
Q 1297 1072 1425 1656 
L 838 1656 
L 838 -447 
L 428 -447 
L 428 2009 
L 1497 2009 
Q 1516 2116 1559 2419 
L 588 2419 
L 588 4109 
L 984 4109 
L 984 2772 
L 2656 2772 
L 2656 4109 
L 3053 4109 
L 3053 2419 
L 1972 2419 
Q 1925 2106 1906 2009 
L 3225 2009 
L 3225 56 
Q 3225 -219 3103 -300 
Q 3003 -384 2725 -384 
Q 2381 -384 2169 -359 
L 2119 56 
Q 2416 0 2631 0 
Q 2816 0 2816 197 
L 2816 1656 
L 1816 1656 
Q 1809 1616 1788 1525 
Q 1775 1469 1772 1444 
Q 1681 1081 1594 819 
L 1809 838 
Q 2084 859 2219 881 
z
M 5125 2419 
L 5125 1556 
L 5919 1556 
L 5919 1184 
L 5125 1184 
L 5125 275 
L 6103 275 
L 6103 -122 
L 4044 -122 
L 4044 -447 
L 3641 -447 
L 3641 3066 
Q 3466 2653 3306 2400 
L 3056 2725 
Q 3653 3759 3909 5259 
L 4319 5172 
Q 4181 4553 4038 4109 
L 4019 4044 
L 4747 4044 
Q 4947 4572 5066 5222 
L 5491 5113 
Q 5297 4428 5138 4044 
L 6041 4044 
L 6041 3659 
L 5125 3659 
L 5125 2791 
L 5919 2791 
L 5919 2419 
L 5125 2419 
z
M 4728 3659 
L 4044 3659 
L 4044 2791 
L 4728 2791 
L 4728 3659 
z
M 4728 2419 
L 4044 2419 
L 4044 1556 
L 4728 1556 
L 4728 2419 
z
M 4728 1184 
L 4044 1184 
L 4044 275 
L 4728 275 
L 4728 1184 
z
M 2022 4697 
L 3378 4697 
L 3378 4325 
L 281 4325 
L 281 4697 
L 1594 4697 
L 1594 5313 
L 2022 5313 
L 2022 4697 
z
M 1625 3481 
Q 1419 3625 1056 3834 
L 1291 4084 
Q 1541 3944 1863 3731 
Q 2025 3916 2181 4172 
L 2509 4000 
Q 2316 3728 2138 3531 
Q 2500 3238 2591 3163 
L 2353 2881 
Q 2094 3119 1894 3284 
Q 1634 3031 1297 2834 
L 1063 3097 
Q 1375 3259 1625 3481 
z
" transform="scale(0.015625)"/>
      <path id="IPAexGothic-8131" d="M 3509 1947 
L 2844 1947 
L 2844 3859 
L 4378 3859 
Q 4716 4450 4953 5228 
L 5434 5050 
Q 5100 4313 4878 3938 
Q 4866 3913 4847 3884 
Q 4834 3863 4831 3859 
L 5747 3859 
L 5747 1947 
L 4941 1947 
L 4941 275 
Q 4941 156 4991 125 
Q 5056 94 5247 94 
Q 5553 94 5600 234 
Q 5647 400 5656 994 
L 6106 831 
Q 6078 -25 5925 -194 
Q 5778 -359 5234 -359 
Q 4878 -359 4725 -309 
Q 4500 -231 4500 91 
L 4500 1947 
L 3950 1947 
Q 3950 984 3688 447 
Q 3438 -63 2741 -475 
L 2434 -97 
Q 3184 284 3388 903 
Q 3509 1278 3509 1928 
L 3509 1947 
z
M 5313 2338 
L 5313 3469 
L 3278 3469 
L 3278 2338 
L 5313 2338 
z
M 2272 4978 
L 2272 38 
Q 2272 -222 2175 -306 
Q 2069 -403 1791 -403 
Q 1509 -403 1313 -378 
L 1241 63 
Q 1456 19 1691 19 
Q 1875 19 1875 191 
L 1875 1684 
L 1038 1684 
Q 1009 272 591 -519 
L 238 -184 
Q 641 584 641 2063 
L 641 4978 
L 2272 4978 
z
M 1038 4581 
L 1038 3541 
L 1875 3541 
L 1875 4581 
L 1038 4581 
z
M 1038 3156 
L 1038 2069 
L 1875 2069 
L 1875 3156 
L 1038 3156 
z
M 3547 3988 
Q 3331 4553 3053 4966 
L 3456 5166 
Q 3741 4747 3975 4191 
L 3547 3988 
z
" transform="scale(0.015625)"/>
      <path id="IPAexGothic-72b6" d="M 4281 3066 
Q 4638 1166 6088 122 
L 5722 -331 
Q 4469 769 4066 2456 
Q 3853 650 2453 -494 
L 2125 -109 
Q 3550 941 3731 3066 
L 2241 3066 
L 2241 3481 
L 3753 3481 
L 3753 5144 
L 4206 5144 
L 4206 3481 
L 5984 3481 
L 5984 3066 
L 4281 3066 
z
M 1591 1600 
Q 1144 1238 528 856 
L 309 1344 
Q 875 1594 1591 2053 
L 1591 5172 
L 2044 5172 
L 2044 -447 
L 1591 -447 
L 1591 1600 
z
M 1006 2572 
Q 791 3384 444 4031 
L 834 4244 
Q 1194 3563 1422 2809 
L 1006 2572 
z
M 5178 3731 
Q 4947 4263 4591 4716 
L 4953 4953 
Q 5284 4553 5581 4019 
L 5178 3731 
z
" transform="scale(0.015625)"/>
      <path id="IPAexGothic-6cc1" d="M 4622 2394 
L 4622 300 
Q 4622 169 4700 138 
Q 4794 106 5000 106 
Q 5356 106 5416 253 
Q 5494 466 5503 1019 
L 5972 863 
Q 5934 169 5825 -91 
Q 5697 -353 4994 -353 
Q 4481 -353 4322 -244 
Q 4169 -138 4169 116 
L 4169 2394 
L 3513 2394 
L 3513 2163 
Q 3513 959 3038 300 
Q 2716 -138 2028 -525 
L 1703 -134 
Q 3059 509 3059 2041 
L 3059 2394 
L 2425 2394 
L 2425 4909 
L 5472 4909 
L 5472 2394 
L 4622 2394 
z
M 2878 4506 
L 2878 2797 
L 5019 2797 
L 5019 4506 
L 2878 4506 
z
M 384 13 
Q 1163 897 1697 1978 
L 2028 1638 
Q 1422 416 750 -391 
L 384 13 
z
M 1466 2284 
Q 994 2834 463 3200 
L 781 3559 
Q 1319 3194 1806 2669 
L 1466 2284 
z
M 1697 3775 
Q 1197 4363 716 4697 
L 1050 5050 
Q 1641 4619 2041 4153 
L 1697 3775 
z
" transform="scale(0.015625)"/>
     </defs>
     <use xlink:href="#IPAexGothic-45"/>
     <use xlink:href="#IPAexGothic-43" transform="translate(59.521484 0)"/>
     <use xlink:href="#IPAexGothic-8cfc" transform="translate(132.03125 0)"/>
     <use xlink:href="#IPAexGothic-5165" transform="translate(232.03125 0)"/>
     <use xlink:href="#IPAexGothic-30d5" transform="translate(332.03125 0)"/>
     <use xlink:href="#IPAexGothic-30a1" transform="translate(432.03125 0)"/>
     <use xlink:href="#IPAexGothic-30cd" transform="translate(532.03125 0)"/>
     <use xlink:href="#IPAexGothic-30eb" transform="translate(632.03125 0)"/>
     <use xlink:href="#IPAexGothic-306e" transform="translate(732.03125 0)"/>
     <use xlink:href="#IPAexGothic-96e2" transform="translate(832.03125 0)"/>
     <use xlink:href="#IPAexGothic-8131" transform="translate(932.03125 0)"/>
     <use xlink:href="#IPAexGothic-72b6" transform="translate(1032.03125 0)"/>
     <use xlink:href="#IPAexGothic-6cc1" transform="translate(1132.03125 0)"/>
    </g>
   </g>
  </g>
 </g>
 <defs>
  <clipPath id="p2792f4a6da">
   <rect x="10.8" y="30.48" width="410.4" height="246.72"/>
  </clipPath>
 </defs>
</svg>
