<?xml version="1.0" encoding="utf-8" standalone="no"?>
<!DOCTYPE svg PUBLIC "-//W3C//DTD SVG 1.1//EN"
  "http://www.w3.org/Graphics/SVG/1.1/DTD/svg11.dtd">
<svg xmlns:xlink="http://www.w3.org/1999/xlink" width="446.4pt" height="273.6pt" viewBox="0 0 446.4 273.6" xmlns="http://www.w3.org/2000/svg" version="1.1">
 <metadata>
  <rdf:RDF xmlns:dc="http://purl.org/dc/elements/1.1/" xmlns:cc="http://creativecommons.org/ns#" xmlns:rdf="http://www.w3.org/1999/02/22-rdf-syntax-ns#">
   <cc:Work>
    <dc:type rdf:resource="http://purl.org/dc/dcmitype/StillImage"/>
    <dc:date>2025-10-29T08:53:12.565584</dc:date>
    <dc:format>image/svg+xml</dc:format>
    <dc:creator>
     <cc:Agent>
      <dc:title>Matplotlib v3.10.7, https://matplotlib.org/</dc:title>
     </cc:Agent>
    </dc:creator>
   </cc:Work>
  </rdf:RDF>
 </metadata>
 <defs>
  <style type="text/css">*{stroke-linejoin: round; stroke-linecap: butt}</style>
 </defs>
 <g id="figure_1">
  <g id="patch_1">
   <path d="M 0 273.6 
L 446.4 273.6 
L 446.4 0 
L 0 0 
z
" style="fill: #ffffff"/>
  </g>
  <g id="axes_1">
   <g id="patch_2">
    <path d="M 37.78 228.04 
L 429.3 228.04 
L 429.3 30.48 
L 37.78 30.48 
z
" style="fill: #ffffff"/>
   </g>
   <g id="matplotlib.axis_1">
    <g id="xtick_1">
     <g id="line2d_1">
      <path d="M 37.78 228.04 
L 37.78 30.48 
" clip-path="url(#pe61f7b3451)" style="fill: none; stroke-dasharray: 2.96,1.28; stroke-dashoffset: 0; stroke: #000000; stroke-opacity: 0.2; stroke-width: 0.8"/>
     </g>
     <g id="line2d_2">
      <defs>
       <path id="mce60784f6c" d="M 0 0 
L 0 3.5 
" style="stroke: #000000; stroke-width: 0.8"/>
      </defs>
      <g>
       <use xlink:href="#mce60784f6c" x="37.78" y="228.04" style="stroke: #000000; stroke-width: 0.8"/>
      </g>
     </g>
     <g id="text_1">
      <!-- 0 -->
      <g transform="translate(34.630781 242.530625) scale(0.1 -0.1)">
       <defs>
        <path id="IPAexGothic-30" d="M 2038 4725 
Q 2881 4725 3334 3944 
Q 3694 3325 3694 2344 
Q 3694 1372 3334 741 
Q 2888 -31 2016 -31 
Q 1147 -31 700 741 
Q 341 1372 341 2350 
Q 341 3713 1000 4334 
Q 1419 4725 2038 4725 
z
M 2016 4266 
Q 1516 4266 1228 3759 
Q 934 3247 934 2344 
Q 934 1456 1222 947 
Q 1513 447 2016 447 
Q 2619 447 2909 1153 
Q 3100 1622 3100 2375 
Q 3100 3256 2806 3759 
Q 2509 4266 2016 4266 
z
" transform="scale(0.015625)"/>
       </defs>
       <use xlink:href="#IPAexGothic-30"/>
      </g>
     </g>
    </g>
    <g id="xtick_2">
     <g id="line2d_3">
      <path d="M 70.406667 228.04 
L 70.406667 30.48 
" clip-path="url(#pe61f7b3451)" style="fill: none; stroke-dasharray: 2.96,1.28; stroke-dashoffset: 0; stroke: #000000; stroke-opacity: 0.2; stroke-width: 0.8"/>
     </g>
     <g id="line2d_4">
      <g>
       <use xlink:href="#mce60784f6c" x="70.406667" y="228.04" style="stroke: #000000; stroke-width: 0.8"/>
      </g>
     </g>
     <g id="text_2">
      <!-- 1 -->
      <g transform="translate(67.257448 242.530625) scale(0.1 -0.1)">
       <defs>
        <path id="IPAexGothic-31" d="M 2463 63 
L 1900 63 
L 1900 4103 
Q 1372 3922 788 3797 
L 684 4231 
Q 1519 4441 2106 4731 
L 2463 4731 
L 2463 63 
z
" transform="scale(0.015625)"/>
       </defs>
       <use xlink:href="#IPAexGothic-31"/>
      </g>
     </g>
    </g>
    <g id="xtick_3">
     <g id="line2d_5">
      <path d="M 103.033333 228.04 
L 103.033333 30.48 
" clip-path="url(#pe61f7b3451)" style="fill: none; stroke-dasharray: 2.96,1.28; stroke-dashoffset: 0; stroke: #000000; stroke-opacity: 0.2; stroke-width: 0.8"/>
     </g>
     <g id="line2d_6">
      <g>
       <use xlink:href="#mce60784f6c" x="103.033333" y="228.04" style="stroke: #000000; stroke-width: 0.8"/>
      </g>
     </g>
     <g id="text_3">
      <!-- 2 -->
      <g transform="translate(99.884115 242.530625) scale(0.1 -0.1)">
       <defs>
        <path id="IPAexGothic-32" d="M 3659 63 
L 447 63 
L 447 594 
Q 825 1475 1894 2203 
L 2072 2322 
Q 2619 2697 2791 2906 
Q 2988 3153 2988 3444 
Q 2988 3772 2756 4003 
Q 2500 4259 2084 4259 
Q 1250 4259 991 3328 
L 497 3506 
Q 853 4725 2116 4725 
Q 2806 4725 3216 4316 
Q 3575 3947 3575 3425 
Q 3575 3038 3344 2722 
Q 3131 2416 2366 1938 
L 2231 1856 
Q 1256 1253 978 569 
L 3659 569 
L 3659 63 
z
" transform="scale(0.015625)"/>
       </defs>
       <use xlink:href="#IPAexGothic-32"/>
      </g>
     </g>
    </g>
    <g id="xtick_4">
     <g id="line2d_7">
      <path d="M 135.66 228.04 
L 135.66 30.48 
" clip-path="url(#pe61f7b3451)" style="fill: none; stroke-dasharray: 2.96,1.28; stroke-dashoffset: 0; stroke: #000000; stroke-opacity: 0.2; stroke-width: 0.8"/>
     </g>
     <g id="line2d_8">
      <g>
       <use xlink:href="#mce60784f6c" x="135.66" y="228.04" style="stroke: #000000; stroke-width: 0.8"/>
      </g>
     </g>
     <g id="text_4">
      <!-- 3 -->
      <g transform="translate(132.510781 242.530625) scale(0.1 -0.1)">
       <defs>
        <path id="IPAexGothic-33" d="M 2381 2419 
Q 3506 2216 3506 1278 
Q 3506 716 3128 356 
Q 2709 -31 1944 -31 
Q 797 -31 288 881 
L 756 1131 
Q 1109 441 1938 441 
Q 2425 441 2694 691 
Q 2950 928 2950 1291 
Q 2950 1719 2566 1978 
Q 2216 2213 1644 2213 
L 1363 2213 
L 1363 2669 
L 1656 2669 
Q 2231 2669 2534 2888 
Q 2859 3119 2859 3509 
Q 2859 3934 2494 4138 
Q 2259 4278 1931 4278 
Q 1238 4278 903 3578 
L 434 3803 
Q 897 4725 1938 4725 
Q 2597 4725 3006 4394 
Q 3416 4069 3416 3534 
Q 3416 3028 3019 2706 
Q 2763 2500 2381 2444 
L 2381 2419 
z
" transform="scale(0.015625)"/>
       </defs>
       <use xlink:href="#IPAexGothic-33"/>
      </g>
     </g>
    </g>
    <g id="xtick_5">
     <g id="line2d_9">
      <path d="M 168.286667 228.04 
L 168.286667 30.48 
" clip-path="url(#pe61f7b3451)" style="fill: none; stroke-dasharray: 2.96,1.28; stroke-dashoffset: 0; stroke: #000000; stroke-opacity: 0.2; stroke-width: 0.8"/>
     </g>
     <g id="line2d_10">
      <g>
       <use xlink:href="#mce60784f6c" x="168.286667" y="228.04" style="stroke: #000000; stroke-width: 0.8"/>
      </g>
     </g>
     <g id="text_5">
      <!-- 4 -->
      <g transform="translate(165.137448 242.530625) scale(0.1 -0.1)">
       <defs>
        <path id="IPAexGothic-34" d="M 3813 1159 
L 3059 1159 
L 3059 63 
L 2547 63 
L 2547 1159 
L 197 1159 
L 197 1672 
L 2456 4678 
L 3059 4678 
L 3059 1634 
L 3813 1634 
L 3813 1159 
z
M 2578 4109 
L 2559 4109 
Q 2278 3656 2003 3284 
L 759 1634 
L 2547 1634 
L 2547 3144 
Q 2547 3481 2578 4109 
z
" transform="scale(0.015625)"/>
       </defs>
       <use xlink:href="#IPAexGothic-34"/>
      </g>
     </g>
    </g>
    <g id="xtick_6">
     <g id="line2d_11">
      <path d="M 200.913333 228.04 
L 200.913333 30.48 
" clip-path="url(#pe61f7b3451)" style="fill: none; stroke-dasharray: 2.96,1.28; stroke-dashoffset: 0; stroke: #000000; stroke-opacity: 0.2; stroke-width: 0.8"/>
     </g>
     <g id="line2d_12">
      <g>
       <use xlink:href="#mce60784f6c" x="200.913333" y="228.04" style="stroke: #000000; stroke-width: 0.8"/>
      </g>
     </g>
     <g id="text_6">
      <!-- 5 -->
      <g transform="translate(197.764115 242.530625) scale(0.1 -0.1)">
       <defs>
        <path id="IPAexGothic-35" d="M 1178 2603 
Q 1634 2963 2172 2963 
Q 2816 2963 3241 2528 
Q 3638 2113 3638 1497 
Q 3638 938 3297 513 
Q 2869 -31 2031 -31 
Q 959 -31 469 784 
L 938 1028 
Q 1309 434 2013 434 
Q 2466 434 2769 716 
Q 3081 1013 3081 1503 
Q 3081 1966 2806 2241 
Q 2519 2528 2056 2528 
Q 1406 2528 1072 2028 
L 591 2091 
L 884 4634 
L 3406 4634 
L 3406 4153 
L 1341 4153 
L 1134 2603 
L 1178 2603 
z
" transform="scale(0.015625)"/>
       </defs>
       <use xlink:href="#IPAexGothic-35"/>
      </g>
     </g>
    </g>
    <g id="xtick_7">
     <g id="line2d_13">
      <path d="M 233.54 228.04 
L 233.54 30.48 
" clip-path="url(#pe61f7b3451)" style="fill: none; stroke-dasharray: 2.96,1.28; stroke-dashoffset: 0; stroke: #000000; stroke-opacity: 0.2; stroke-width: 0.8"/>
     </g>
     <g id="line2d_14">
      <g>
       <use xlink:href="#mce60784f6c" x="233.54" y="228.04" style="stroke: #000000; stroke-width: 0.8"/>
      </g>
     </g>
     <g id="text_7">
      <!-- 6 -->
      <g transform="translate(230.390781 242.530625) scale(0.1 -0.1)">
       <defs>
        <path id="IPAexGothic-36" d="M 1056 2328 
Q 1509 2981 2234 2981 
Q 2906 2981 3316 2513 
Q 3675 2106 3675 1522 
Q 3675 884 3272 434 
Q 2853 -31 2178 -31 
Q 1375 -31 922 581 
Q 481 1178 481 2228 
Q 481 3425 1013 4109 
Q 1494 4725 2272 4725 
Q 3191 4725 3609 4025 
L 3150 3775 
Q 2894 4266 2300 4266 
Q 1119 4266 1031 2328 
L 1056 2328 
z
M 2141 2547 
Q 1684 2547 1384 2206 
Q 1116 1900 1116 1541 
Q 1116 1156 1353 844 
Q 1672 428 2159 428 
Q 2669 428 2941 844 
Q 3125 1128 3125 1503 
Q 3125 1944 2881 2228 
Q 2600 2547 2141 2547 
z
" transform="scale(0.015625)"/>
       </defs>
       <use xlink:href="#IPAexGothic-36"/>
      </g>
     </g>
    </g>
    <g id="xtick_8">
     <g id="line2d_15">
      <path d="M 266.166667 228.04 
L 266.166667 30.48 
" clip-path="url(#pe61f7b3451)" style="fill: none; stroke-dasharray: 2.96,1.28; stroke-dashoffset: 0; stroke: #000000; stroke-opacity: 0.2; stroke-width: 0.8"/>
     </g>
     <g id="line2d_16">
      <g>
       <use xlink:href="#mce60784f6c" x="266.166667" y="228.04" style="stroke: #000000; stroke-width: 0.8"/>
      </g>
     </g>
     <g id="text_8">
      <!-- 7 -->
      <g transform="translate(263.017448 242.530625) scale(0.1 -0.1)">
       <defs>
        <path id="IPAexGothic-37" d="M 3597 4263 
Q 2238 2106 1778 63 
L 1131 63 
Q 1581 1834 2950 4128 
L 428 4128 
L 428 4634 
L 3597 4634 
L 3597 4263 
z
" transform="scale(0.015625)"/>
       </defs>
       <use xlink:href="#IPAexGothic-37"/>
      </g>
     </g>
    </g>
    <g id="xtick_9">
     <g id="line2d_17">
      <path d="M 298.793333 228.04 
L 298.793333 30.48 
" clip-path="url(#pe61f7b3451)" style="fill: none; stroke-dasharray: 2.96,1.28; stroke-dashoffset: 0; stroke: #000000; stroke-opacity: 0.2; stroke-width: 0.8"/>
     </g>
     <g id="line2d_18">
      <g>
       <use xlink:href="#mce60784f6c" x="298.793333" y="228.04" style="stroke: #000000; stroke-width: 0.8"/>
      </g>
     </g>
     <g id="text_9">
      <!-- 8 -->
      <g transform="translate(295.644115 242.530625) scale(0.1 -0.1)">
       <defs>
        <path id="IPAexGothic-38" d="M 2541 2425 
Q 3700 2031 3700 1197 
Q 3700 541 3100 197 
Q 2663 -56 2016 -56 
Q 1366 -56 928 197 
Q 347 531 347 1178 
Q 347 1988 1409 2381 
L 1409 2400 
Q 481 2734 481 3509 
Q 481 4100 981 4456 
Q 1406 4756 2019 4756 
Q 2703 4756 3131 4403 
Q 3553 4069 3553 3566 
Q 3553 2706 2541 2444 
L 2541 2425 
z
M 2022 2625 
Q 2997 2856 2997 3528 
Q 2997 3916 2675 4150 
Q 2413 4347 2016 4347 
Q 1606 4347 1331 4128 
Q 1050 3897 1050 3522 
Q 1050 3150 1350 2925 
Q 1494 2809 1722 2722 
Q 1984 2616 2022 2625 
z
M 1978 2209 
Q 922 1931 922 1216 
Q 922 775 1313 556 
Q 1606 391 2009 391 
Q 2575 391 2881 697 
Q 3106 922 3106 1250 
Q 3106 1594 2794 1850 
Q 2609 1994 2350 2100 
Q 2047 2222 1978 2209 
z
" transform="scale(0.015625)"/>
       </defs>
       <use xlink:href="#IPAexGothic-38"/>
      </g>
     </g>
    </g>
    <g id="xtick_10">
     <g id="line2d_19">
      <path d="M 331.42 228.04 
L 331.42 30.48 
" clip-path="url(#pe61f7b3451)" style="fill: none; stroke-dasharray: 2.96,1.28; stroke-dashoffset: 0; stroke: #000000; stroke-opacity: 0.2; stroke-width: 0.8"/>
     </g>
     <g id="line2d_20">
      <g>
       <use xlink:href="#mce60784f6c" x="331.42" y="228.04" style="stroke: #000000; stroke-width: 0.8"/>
      </g>
     </g>
     <g id="text_10">
      <!-- 9 -->
      <g transform="translate(328.270781 242.530625) scale(0.1 -0.1)">
       <defs>
        <path id="IPAexGothic-39" d="M 2984 2356 
Q 2544 1716 1813 1716 
Q 1253 1716 847 2056 
Q 366 2459 366 3163 
Q 366 3813 769 4266 
Q 1181 4725 1869 4725 
Q 2800 4725 3241 3950 
Q 3559 3378 3559 2472 
Q 3559 1250 3041 588 
Q 2553 -31 1769 -31 
Q 859 -31 391 703 
L 853 953 
Q 1156 428 1753 428 
Q 2922 428 3009 2356 
L 2984 2356 
z
M 1888 4278 
Q 1450 4278 1172 3950 
Q 922 3653 922 3200 
Q 922 2741 1159 2478 
Q 1434 2163 1906 2163 
Q 2431 2163 2728 2572 
Q 2925 2847 2925 3169 
Q 2925 3553 2694 3863 
Q 2375 4278 1888 4278 
z
" transform="scale(0.015625)"/>
       </defs>
       <use xlink:href="#IPAexGothic-39"/>
      </g>
     </g>
    </g>
    <g id="xtick_11">
     <g id="line2d_21">
      <path d="M 364.046667 228.04 
L 364.046667 30.48 
" clip-path="url(#pe61f7b3451)" style="fill: none; stroke-dasharray: 2.96,1.28; stroke-dashoffset: 0; stroke: #000000; stroke-opacity: 0.2; stroke-width: 0.8"/>
     </g>
     <g id="line2d_22">
      <g>
       <use xlink:href="#mce60784f6c" x="364.046667" y="228.04" style="stroke: #000000; stroke-width: 0.8"/>
      </g>
     </g>
     <g id="text_11">
      <!-- 10 -->
      <g transform="translate(357.748229 242.530625) scale(0.1 -0.1)">
       <use xlink:href="#IPAexGothic-31"/>
       <use xlink:href="#IPAexGothic-30" transform="translate(62.988281 0)"/>
      </g>
     </g>
    </g>
    <g id="xtick_12">
     <g id="line2d_23">
      <path d="M 396.673333 228.04 
L 396.673333 30.48 
" clip-path="url(#pe61f7b3451)" style="fill: none; stroke-dasharray: 2.96,1.28; stroke-dashoffset: 0; stroke: #000000; stroke-opacity: 0.2; stroke-width: 0.8"/>
     </g>
     <g id="line2d_24">
      <g>
       <use xlink:href="#mce60784f6c" x="396.673333" y="228.04" style="stroke: #000000; stroke-width: 0.8"/>
      </g>
     </g>
     <g id="text_12">
      <!-- 11 -->
      <g transform="translate(390.374896 242.530625) scale(0.1 -0.1)">
       <use xlink:href="#IPAexGothic-31"/>
       <use xlink:href="#IPAexGothic-31" transform="translate(62.988281 0)"/>
      </g>
     </g>
    </g>
    <g id="xtick_13">
     <g id="line2d_25">
      <path d="M 429.3 228.04 
L 429.3 30.48 
" clip-path="url(#pe61f7b3451)" style="fill: none; stroke-dasharray: 2.96,1.28; stroke-dashoffset: 0; stroke: #000000; stroke-opacity: 0.2; stroke-width: 0.8"/>
     </g>
     <g id="line2d_26">
      <g>
       <use xlink:href="#mce60784f6c" x="429.3" y="228.04" style="stroke: #000000; stroke-width: 0.8"/>
      </g>
     </g>
     <g id="text_13">
      <!-- 12 -->
      <g transform="translate(423.001563 242.530625) scale(0.1 -0.1)">
       <use xlink:href="#IPAexGothic-31"/>
       <use xlink:href="#IPAexGothic-32" transform="translate(62.988281 0)"/>
      </g>
     </g>
    </g>
    <g id="text_14">
     <!-- 週 -->
     <g transform="translate(226.34 259.217125) scale(0.144 -0.144)">
      <defs>
       <path id="IPAexGothic-9031" d="M 1703 728 
Q 1944 394 2356 247 
Q 2788 94 3891 94 
Q 4791 94 6119 172 
Q 6019 -84 5978 -300 
Q 4853 -341 4275 -341 
Q 2825 -341 2259 -153 
Q 1791 9 1519 391 
Q 1175 -28 647 -453 
L 366 13 
Q 916 350 1263 659 
L 1263 2303 
L 378 2303 
L 378 2731 
L 1703 2731 
L 1703 728 
z
M 4916 2509 
L 4916 1209 
L 3650 1209 
L 3650 891 
L 3253 891 
L 3253 2509 
L 4916 2509 
z
M 4519 2169 
L 3650 2169 
L 3650 1541 
L 4519 1541 
L 4519 2169 
z
M 5788 5056 
L 5788 863 
Q 5788 403 5294 403 
Q 4950 403 4616 441 
L 4544 878 
Q 4866 813 5159 813 
Q 5372 813 5372 997 
L 5372 4672 
L 2809 4672 
L 2809 3053 
Q 2809 1206 2375 403 
L 2009 716 
Q 2394 1438 2394 2753 
L 2394 5056 
L 5788 5056 
z
M 4269 4019 
L 5113 4019 
L 5113 3659 
L 4269 3659 
L 4269 3200 
L 5209 3200 
L 5209 2853 
L 2944 2853 
L 2944 3200 
L 3866 3200 
L 3866 3659 
L 3072 3659 
L 3072 4019 
L 3866 4019 
L 3866 4513 
L 4269 4513 
L 4269 4019 
z
M 1516 3775 
Q 1034 4359 563 4738 
L 878 5056 
Q 1484 4572 1856 4122 
L 1516 3775 
z
" transform="scale(0.015625)"/>
      </defs>
      <use xlink:href="#IPAexGothic-9031"/>
     </g>
    </g>
   </g>
   <g id="matplotlib.axis_2">
    <g id="ytick_1">
     <g id="line2d_27">
      <defs>
       <path id="me55f52a7bd" d="M 0 0 
L -3.5 0 
" style="stroke: #000000; stroke-width: 0.8"/>
      </defs>
      <g>
       <use xlink:href="#me55f52a7bd" x="37.78" y="188.528" style="stroke: #000000; stroke-width: 0.8"/>
      </g>
     </g>
     <g id="text_15">
      <!-- 企画 -->
      <g transform="translate(10.78 192.273312) scale(0.1 -0.1)">
       <defs>
        <path id="IPAexGothic-4f01" d="M 3481 2181 
L 5247 2181 
L 5247 1759 
L 3481 1759 
L 3481 203 
L 5966 203 
L 5966 -206 
L 459 -206 
L 459 203 
L 1491 203 
L 1491 2566 
L 1966 2566 
L 1966 203 
L 3006 203 
L 3006 3628 
L 3481 3628 
L 3481 2181 
z
M 281 2853 
Q 1966 3597 2888 5141 
L 3431 5141 
Q 4334 3772 6138 3034 
L 5838 2619 
Q 4091 3463 3169 4728 
Q 2334 3359 581 2484 
L 281 2853 
z
" transform="scale(0.015625)"/>
        <path id="IPAexGothic-753b" d="M 2966 3713 
L 2966 4447 
L 353 4447 
L 353 4856 
L 6041 4856 
L 6041 4447 
L 3406 4447 
L 3406 3713 
L 4769 3713 
L 4769 825 
L 1634 825 
L 1634 3713 
L 2966 3713 
z
M 2978 3334 
L 2050 3334 
L 2050 2484 
L 2978 2484 
L 2978 3334 
z
M 3394 3334 
L 3394 2484 
L 4347 2484 
L 4347 3334 
L 3394 3334 
z
M 2978 2119 
L 2050 2119 
L 2050 1197 
L 2978 1197 
L 2978 2119 
z
M 3394 2119 
L 3394 1197 
L 4347 1197 
L 4347 2119 
L 3394 2119 
z
M 1081 300 
L 5316 300 
L 5316 3603 
L 5756 3603 
L 5756 -450 
L 5316 -450 
L 5316 -97 
L 1081 -97 
L 1081 -450 
L 641 -450 
L 641 3603 
L 1081 3603 
L 1081 300 
z
" transform="scale(0.015625)"/>
       </defs>
       <use xlink:href="#IPAexGothic-4f01"/>
       <use xlink:href="#IPAexGothic-753b" transform="translate(100 0)"/>
      </g>
     </g>
    </g>
    <g id="ytick_2">
     <g id="line2d_28">
      <g>
       <use xlink:href="#me55f52a7bd" x="37.78" y="149.016" style="stroke: #000000; stroke-width: 0.8"/>
      </g>
     </g>
     <g id="text_16">
      <!-- 開発 -->
      <g transform="translate(10.78 152.761312) scale(0.1 -0.1)">
       <defs>
        <path id="IPAexGothic-958b" d="M 2913 5013 
L 2913 3097 
L 1063 3097 
L 1063 -450 
L 609 -450 
L 609 5013 
L 2913 5013 
z
M 1063 4653 
L 1063 4225 
L 2491 4225 
L 2491 4653 
L 1063 4653 
z
M 1063 3900 
L 1063 3444 
L 2491 3444 
L 2491 3900 
L 1063 3900 
z
M 5781 5013 
L 5781 78 
Q 5781 -231 5647 -325 
Q 5538 -409 5238 -409 
Q 4809 -409 4488 -366 
L 4425 103 
Q 4791 38 5122 38 
Q 5328 38 5328 238 
L 5328 3097 
L 3438 3097 
L 3438 5013 
L 5781 5013 
z
M 3853 4653 
L 3853 4225 
L 5328 4225 
L 5328 4653 
L 3853 4653 
z
M 3853 3900 
L 3853 3444 
L 5328 3444 
L 5328 3900 
L 3853 3900 
z
M 4028 2266 
L 4028 1556 
L 5000 1556 
L 5000 1184 
L 4047 1184 
L 4047 -159 
L 3625 -159 
L 3625 1184 
L 2809 1184 
Q 2731 156 1850 -313 
L 1550 13 
Q 2319 347 2388 1184 
L 1403 1184 
L 1403 1556 
L 2394 1556 
L 2394 2266 
L 1594 2266 
L 1594 2619 
L 4803 2619 
L 4803 2266 
L 4028 2266 
z
M 3606 1556 
L 3606 2266 
L 2816 2266 
L 2816 1556 
L 3606 1556 
z
" transform="scale(0.015625)"/>
        <path id="IPAexGothic-767a" d="M 4719 3638 
Q 5159 4016 5453 4391 
L 5831 4122 
Q 5406 3700 5038 3413 
Q 5500 3116 6106 2856 
L 5800 2456 
Q 5231 2738 4706 3113 
L 4706 2772 
L 4103 2772 
L 4103 1919 
L 5753 1919 
L 5753 1522 
L 4103 1522 
L 4103 359 
Q 4103 159 4206 131 
Q 4313 94 4678 94 
Q 5256 94 5350 191 
Q 5444 284 5472 766 
Q 5472 863 5478 900 
L 5928 741 
Q 5900 25 5741 -141 
Q 5572 -341 4647 -341 
Q 4084 -341 3900 -256 
Q 3650 -150 3650 213 
L 3650 1522 
L 2725 1522 
Q 2572 34 709 -475 
L 466 -63 
Q 2128 347 2272 1522 
L 641 1522 
L 641 1919 
L 2291 1919 
L 2291 2772 
L 1778 2772 
L 1778 3009 
Q 1263 2647 581 2316 
L 288 2700 
Q 1044 2991 1663 3444 
Q 1269 3850 863 4134 
L 1191 4425 
Q 1697 4006 1991 3713 
Q 2434 4100 2763 4616 
L 1284 4616 
L 1284 5006 
L 3456 5006 
Q 3725 4566 4025 4244 
Q 4422 4584 4738 4988 
L 5109 4719 
Q 4747 4328 4294 3981 
Q 4506 3781 4719 3638 
z
M 3650 2772 
L 2738 2772 
L 2738 1919 
L 3650 1919 
L 3650 2772 
z
M 1978 3156 
L 4641 3156 
Q 3756 3794 3238 4544 
Q 2766 3769 1978 3156 
z
" transform="scale(0.015625)"/>
       </defs>
       <use xlink:href="#IPAexGothic-958b"/>
       <use xlink:href="#IPAexGothic-767a" transform="translate(100 0)"/>
      </g>
     </g>
    </g>
    <g id="ytick_3">
     <g id="line2d_29">
      <g>
       <use xlink:href="#me55f52a7bd" x="37.78" y="109.504" style="stroke: #000000; stroke-width: 0.8"/>
      </g>
     </g>
     <g id="text_17">
      <!-- QA -->
      <g transform="translate(16.439375 113.249312) scale(0.1 -0.1)">
       <defs>
        <path id="IPAexGothic-51" d="M 4800 88 
L 4494 -306 
Q 3991 38 3681 281 
Q 3181 -25 2528 -25 
Q 1634 -25 1050 556 
Q 378 1219 378 2350 
Q 378 3469 1044 4138 
Q 1631 4725 2541 4725 
Q 3456 4725 4044 4138 
Q 4709 3469 4709 2350 
Q 4709 1306 4059 588 
Q 4413 319 4800 88 
z
M 3669 900 
Q 4122 1403 4122 2338 
Q 4122 3291 3578 3838 
Q 3150 4266 2541 4266 
Q 1947 4266 1519 3838 
Q 981 3300 981 2350 
Q 981 1406 1513 875 
Q 1947 441 2575 441 
Q 3003 441 3297 619 
Q 2844 931 2381 1209 
L 2663 1594 
Q 3225 1222 3669 900 
z
" transform="scale(0.015625)"/>
        <path id="IPAexGothic-41" d="M 4056 63 
L 3444 63 
L 2938 1409 
L 1100 1409 
L 603 63 
L -6 63 
L 1806 4666 
L 2259 4666 
L 4056 63 
z
M 2778 1863 
L 2316 3078 
Q 2125 3588 2028 4000 
L 2009 4000 
Q 1897 3563 1716 3078 
L 1263 1863 
L 2778 1863 
z
" transform="scale(0.015625)"/>
       </defs>
       <use xlink:href="#IPAexGothic-51"/>
       <use xlink:href="#IPAexGothic-41" transform="translate(79.6875 0)"/>
      </g>
     </g>
    </g>
    <g id="ytick_4">
     <g id="line2d_30">
      <g>
       <use xlink:href="#me55f52a7bd" x="37.78" y="69.992" style="stroke: #000000; stroke-width: 0.8"/>
      </g>
     </g>
     <g id="text_18">
      <!-- CS -->
      <g transform="translate(17.678438 73.737312) scale(0.1 -0.1)">
       <defs>
        <path id="IPAexGothic-43" d="M 4353 1088 
Q 4181 694 3859 428 
Q 3313 -31 2559 -31 
Q 1588 -31 959 653 
Q 378 1294 378 2331 
Q 378 3406 1013 4078 
Q 1619 4725 2534 4725 
Q 3813 4725 4322 3628 
L 3809 3391 
Q 3425 4238 2541 4238 
Q 1891 4238 1453 3744 
Q 994 3216 994 2322 
Q 994 1550 1384 1056 
Q 1841 472 2563 472 
Q 3456 472 3878 1319 
L 4353 1088 
z
" transform="scale(0.015625)"/>
        <path id="IPAexGothic-53" d="M 2919 3641 
Q 2563 4259 1853 4259 
Q 1453 4259 1213 4009 
Q 1028 3803 1028 3534 
Q 1028 3238 1266 3047 
Q 1444 2913 1984 2688 
L 2200 2597 
Q 2925 2306 3191 1953 
Q 3422 1644 3422 1259 
Q 3422 644 2969 288 
Q 2559 -31 1931 -31 
Q 881 -31 313 766 
L 753 1100 
Q 1203 459 1938 459 
Q 2288 459 2534 625 
Q 2841 847 2841 1216 
Q 2841 1503 2616 1728 
Q 2375 1959 1728 2206 
L 1541 2278 
Q 453 2694 453 3481 
Q 453 4006 806 4347 
Q 1203 4725 1863 4725 
Q 2841 4725 3359 3956 
L 2919 3641 
z
" transform="scale(0.015625)"/>
       </defs>
       <use xlink:href="#IPAexGothic-43"/>
       <use xlink:href="#IPAexGothic-53" transform="translate(72.509766 0)"/>
      </g>
     </g>
    </g>
   </g>
   <g id="PolyCollection_1">
    <path d="M 70.406667 202.3572 
L 70.406667 174.6988 
L 168.286667 174.6988 
L 168.286667 202.3572 
z
" clip-path="url(#pe61f7b3451)" style="fill: #38bdf8; fill-opacity: 0.85"/>
   </g>
   <g id="PolyCollection_2">
    <path d="M 200.913333 202.3572 
L 200.913333 174.6988 
L 266.166667 174.6988 
L 266.166667 202.3572 
z
" clip-path="url(#pe61f7b3451)" style="fill: #818cf8; fill-opacity: 0.85"/>
   </g>
   <g id="PolyCollection_3">
    <path d="M 103.033333 162.8452 
L 103.033333 135.1868 
L 266.166667 135.1868 
L 266.166667 162.8452 
z
" clip-path="url(#pe61f7b3451)" style="fill: #38bdf8; fill-opacity: 0.85"/>
   </g>
   <g id="PolyCollection_4">
    <path d="M 298.793333 162.8452 
L 298.793333 135.1868 
L 396.673333 135.1868 
L 396.673333 162.8452 
z
" clip-path="url(#pe61f7b3451)" style="fill: #818cf8; fill-opacity: 0.85"/>
   </g>
   <g id="PolyCollection_5">
    <path d="M 168.286667 123.3332 
L 168.286667 95.6748 
L 266.166667 95.6748 
L 266.166667 123.3332 
z
" clip-path="url(#pe61f7b3451)" style="fill: #38bdf8; fill-opacity: 0.85"/>
   </g>
   <g id="PolyCollection_6">
    <path d="M 298.793333 123.3332 
L 298.793333 95.6748 
L 364.046667 95.6748 
L 364.046667 123.3332 
z
" clip-path="url(#pe61f7b3451)" style="fill: #818cf8; fill-opacity: 0.85"/>
   </g>
   <g id="PolyCollection_7">
    <path d="M 135.66 83.8212 
L 135.66 56.1628 
L 200.913333 56.1628 
L 200.913333 83.8212 
z
" clip-path="url(#pe61f7b3451)" style="fill: #38bdf8; fill-opacity: 0.85"/>
   </g>
   <g id="PolyCollection_8">
    <path d="M 266.166667 83.8212 
L 266.166667 56.1628 
L 396.673333 56.1628 
L 396.673333 83.8212 
z
" clip-path="url(#pe61f7b3451)" style="fill: #818cf8; fill-opacity: 0.85"/>
   </g>
   <g id="line2d_31">
    <path d="M 135.66 228.04 
L 135.66 30.48 
" clip-path="url(#pe61f7b3451)" style="fill: none; stroke-dasharray: 1.2,1.98; stroke-dashoffset: 0; stroke: #475569; stroke-width: 1.2"/>
   </g>
   <g id="line2d_32">
    <path d="M 331.42 228.04 
L 331.42 30.48 
" clip-path="url(#pe61f7b3451)" style="fill: none; stroke-dasharray: 1.2,1.98; stroke-dashoffset: 0; stroke: #475569; stroke-width: 1.2"/>
   </g>
   <g id="text_19">
    <!-- 仕様確定 -->
    <g transform="translate(145.664229 82.2848) rotate(-90) scale(0.09 -0.09)">
     <defs>
      <path id="IPAexGothic-4ed5" d="M 1634 3688 
L 1634 -447 
L 1166 -447 
L 1166 2809 
Q 869 2334 519 1894 
L 263 2291 
Q 1225 3463 1691 5178 
L 2153 5050 
Q 1922 4300 1634 3688 
z
M 4159 3366 
L 5991 3366 
L 5991 2938 
L 4159 2938 
L 4159 288 
L 5766 288 
L 5766 -141 
L 2109 -141 
L 2109 288 
L 3678 288 
L 3678 2938 
L 1938 2938 
L 1938 3366 
L 3678 3366 
L 3678 5150 
L 4159 5150 
L 4159 3366 
z
" transform="scale(0.015625)"/>
      <path id="IPAexGothic-69d8" d="M 4384 1675 
L 4384 0 
Q 4384 -284 4263 -378 
Q 4156 -453 3891 -453 
Q 3622 -453 3200 -403 
L 3138 50 
Q 3531 -19 3738 -19 
Q 3956 -19 3956 159 
L 3956 2353 
L 2394 2353 
L 2394 2725 
L 3956 2725 
L 3956 3172 
L 2728 3172 
L 2728 3531 
L 3956 3531 
L 3956 3969 
L 2497 3969 
L 2497 4341 
L 4434 4341 
Q 4691 4809 4863 5294 
L 5344 5141 
Q 5138 4719 4897 4341 
L 5906 4341 
L 5906 3969 
L 4384 3969 
L 4384 3531 
L 5656 3531 
L 5656 3172 
L 4384 3172 
L 4384 2725 
L 6059 2725 
L 6059 2353 
L 4447 2353 
Q 4606 1909 4903 1466 
Q 5281 1844 5497 2206 
L 5894 1950 
Q 5513 1497 5131 1172 
Q 5588 641 6156 306 
L 5856 -103 
Q 4841 644 4384 1675 
z
M 1288 2638 
Q 953 1522 500 788 
L 231 1250 
Q 903 2206 1228 3547 
L 366 3547 
L 366 3950 
L 1288 3950 
L 1288 5300 
L 1722 5300 
L 1722 3950 
L 2431 3950 
L 2431 3547 
L 1722 3547 
L 1722 2803 
Q 2147 2416 2553 1928 
L 2291 1488 
Q 2016 1919 1722 2288 
L 1722 -447 
L 1288 -447 
L 1288 2638 
z
M 3406 4353 
Q 3197 4816 2963 5106 
L 3366 5288 
Q 3622 4975 3816 4569 
L 3406 4353 
z
M 3359 1209 
Q 3044 1591 2681 1869 
L 2984 2138 
Q 3384 1853 3681 1509 
L 3359 1209 
z
M 2228 428 
Q 3016 766 3763 1294 
L 3847 903 
Q 3256 419 2453 6 
L 2228 428 
z
" transform="scale(0.015625)"/>
      <path id="IPAexGothic-78ba" d="M 4347 3219 
Q 4516 3538 4647 3956 
L 5075 3853 
Q 4875 3431 4750 3219 
L 5888 3219 
L 5888 2847 
L 4700 2847 
L 4700 2222 
L 5741 2222 
L 5741 1869 
L 4700 1869 
L 4700 1250 
L 5741 1250 
L 5741 897 
L 4700 897 
L 4700 231 
L 6034 231 
L 6034 -141 
L 3463 -141 
L 3463 -447 
L 3047 -447 
L 3047 2444 
Q 2756 2019 2484 1703 
L 2284 2100 
Q 3159 3197 3506 4147 
L 2913 4147 
L 2913 3425 
L 2509 3425 
L 2509 4519 
L 3634 4519 
Q 3750 4903 3847 5319 
L 4269 5241 
Q 4175 4834 4072 4519 
L 5934 4519 
L 5934 3425 
L 5525 3425 
L 5525 4147 
L 3938 4147 
Q 3747 3647 3513 3219 
L 4347 3219 
z
M 4297 2847 
L 3463 2847 
L 3463 2222 
L 4297 2222 
L 4297 2847 
z
M 4297 1869 
L 3463 1869 
L 3463 1250 
L 4297 1250 
L 4297 1869 
z
M 4297 897 
L 3463 897 
L 3463 231 
L 4297 231 
L 4297 897 
z
M 1159 2944 
L 2275 2944 
L 2275 197 
L 1213 197 
L 1213 -328 
L 816 -328 
L 816 2206 
Q 650 1903 394 1522 
L 188 1919 
Q 931 3013 1200 4416 
L 406 4416 
L 406 4819 
L 2409 4819 
L 2409 4416 
L 1616 4416 
L 1597 4353 
Q 1456 3663 1159 2944 
z
M 1213 2553 
L 1213 588 
L 1878 588 
L 1878 2553 
L 1213 2553 
z
" transform="scale(0.015625)"/>
      <path id="IPAexGothic-5b9a" d="M 3431 303 
Q 3931 225 4709 225 
Q 5191 225 6053 263 
Q 5963 59 5888 -228 
Q 5234 -250 4844 -250 
Q 3569 -250 3003 -78 
Q 2259 153 1750 903 
Q 1441 163 806 -459 
L 475 -75 
Q 1416 759 1684 2419 
L 2125 2303 
Q 2031 1756 1909 1356 
Q 2338 678 2972 416 
L 2972 2944 
L 1434 2944 
L 1434 3353 
L 4959 3353 
L 4959 2944 
L 3431 2944 
L 3431 1984 
L 5397 1984 
L 5397 1569 
L 3431 1569 
L 3431 303 
z
M 3419 4428 
L 5750 4428 
L 5750 3166 
L 5275 3166 
L 5275 4025 
L 1122 4025 
L 1122 3166 
L 647 3166 
L 647 4428 
L 2938 4428 
L 2938 5313 
L 3419 5313 
L 3419 4428 
z
" transform="scale(0.015625)"/>
     </defs>
     <use xlink:href="#IPAexGothic-4ed5"/>
     <use xlink:href="#IPAexGothic-69d8" transform="translate(100 0)"/>
     <use xlink:href="#IPAexGothic-78ba" transform="translate(200 0)"/>
     <use xlink:href="#IPAexGothic-5b9a" transform="translate(300 0)"/>
    </g>
   </g>
   <g id="text_20">
    <!-- テスト完了 -->
    <g transform="translate(341.424229 91.2848) rotate(-90) scale(0.09 -0.09)">
     <defs>
      <path id="IPAexGothic-30c6" d="M 563 3072 
L 5741 3072 
L 5741 2613 
L 3578 2613 
Q 3538 1516 3134 872 
Q 2688 156 1663 -256 
L 1313 156 
Q 2338 538 2713 1166 
Q 3003 1644 3034 2613 
L 563 2613 
L 563 3072 
z
M 1406 4588 
L 4941 4588 
L 4941 4128 
L 1406 4128 
L 1406 4588 
z
" transform="scale(0.015625)"/>
      <path id="IPAexGothic-30b9" d="M 4359 4481 
L 4716 4147 
Q 4328 3072 3647 2150 
Q 4659 1434 5659 453 
L 5234 19 
Q 4256 1088 3353 1778 
Q 2372 597 1044 -31 
L 653 403 
Q 3128 1453 4097 4000 
L 1241 3963 
L 1228 4453 
L 4359 4481 
z
" transform="scale(0.015625)"/>
      <path id="IPAexGothic-30c8" d="M 2284 4997 
L 2803 4997 
L 2803 3206 
Q 4088 2619 5216 1888 
L 4878 1369 
Q 3819 2175 2803 2688 
L 2803 -184 
L 2284 -184 
L 2284 4997 
z
" transform="scale(0.015625)"/>
      <path id="IPAexGothic-5b8c" d="M 3419 4428 
L 5753 4428 
L 5753 3166 
L 5278 3166 
L 5278 4025 
L 1116 4025 
L 1116 3166 
L 641 3166 
L 641 4428 
L 2938 4428 
L 2938 5313 
L 3419 5313 
L 3419 4428 
z
M 4084 1850 
L 4084 353 
Q 4084 178 4219 138 
Q 4356 106 4713 106 
Q 5334 106 5422 300 
Q 5519 500 5519 1013 
L 5978 872 
Q 5931 9 5734 -169 
Q 5556 -347 4672 -347 
Q 3981 -347 3809 -250 
Q 3625 -144 3625 184 
L 3625 1850 
L 2697 1850 
Q 2688 819 2281 325 
Q 1834 -206 822 -506 
L 528 -84 
Q 1556 156 1916 622 
Q 2222 1003 2231 1850 
L 516 1850 
L 516 2266 
L 5881 2266 
L 5881 1850 
L 4084 1850 
z
M 1422 3341 
L 4975 3341 
L 4975 2938 
L 1422 2938 
L 1422 3341 
z
" transform="scale(0.015625)"/>
      <path id="IPAexGothic-4e86" d="M 3475 2997 
L 3475 206 
Q 3475 -94 3372 -197 
Q 3253 -325 2897 -325 
Q 2466 -325 1944 -263 
L 1850 269 
Q 2447 181 2756 181 
Q 2975 181 2975 409 
L 2975 3188 
Q 3916 3756 4544 4372 
L 1044 4372 
L 1044 4800 
L 5138 4800 
L 5428 4500 
Q 4453 3622 3475 2997 
z
" transform="scale(0.015625)"/>
     </defs>
     <use xlink:href="#IPAexGothic-30c6"/>
     <use xlink:href="#IPAexGothic-30b9" transform="translate(100 0)"/>
     <use xlink:href="#IPAexGothic-30c8" transform="translate(200 0)"/>
     <use xlink:href="#IPAexGothic-5b8c" transform="translate(300 0)"/>
     <use xlink:href="#IPAexGothic-4e86" transform="translate(400 0)"/>
    </g>
   </g>
   <g id="text_21">
    <!-- 四半期リリース準備のガントチャート -->
    <g transform="translate(86.66 24.48) scale(0.1728 -0.1728)">
     <defs>
      <path id="IPAexGothic-56db" d="M 5747 4659 
L 5747 -291 
L 5288 -291 
L 5288 191 
L 1109 191 
L 1109 -291 
L 641 -291 
L 641 4659 
L 5747 4659 
z
M 1109 4244 
L 1109 619 
L 5288 619 
L 5288 4244 
L 3969 4244 
L 3969 2206 
Q 3969 2056 4025 2025 
Q 4094 1988 4294 1988 
Q 4631 1988 4678 2122 
Q 4722 2238 4731 2591 
L 4738 2681 
L 5147 2528 
Q 5128 1931 5013 1759 
Q 4884 1572 4303 1572 
Q 3803 1572 3663 1675 
Q 3522 1769 3522 2028 
L 3522 4244 
L 2663 4244 
L 2663 3591 
Q 2663 2488 2284 1963 
Q 2050 1631 1506 1297 
L 1206 1656 
Q 1859 1997 2063 2541 
Q 2209 2922 2209 3541 
L 2209 4244 
L 1109 4244 
z
" transform="scale(0.015625)"/>
      <path id="IPAexGothic-534a" d="M 2934 3053 
L 2934 5288 
L 3422 5288 
L 3422 3053 
L 5597 3053 
L 5597 2638 
L 3422 2638 
L 3422 1772 
L 5950 1772 
L 5950 1356 
L 3422 1356 
L 3422 -447 
L 2934 -447 
L 2934 1356 
L 450 1356 
L 450 1772 
L 2934 1772 
L 2934 2638 
L 803 2638 
L 803 3053 
L 2934 3053 
z
M 1819 3294 
Q 1456 4113 1056 4619 
L 1459 4869 
Q 1909 4288 2253 3531 
L 1819 3294 
z
M 4097 3469 
Q 4566 4197 4866 4947 
L 5325 4734 
Q 4959 3938 4494 3263 
L 4097 3469 
z
" transform="scale(0.015625)"/>
      <path id="IPAexGothic-671f" d="M 1009 4469 
L 1009 5313 
L 1431 5313 
L 1431 4469 
L 2513 4469 
L 2513 5313 
L 2928 5313 
L 2928 4469 
L 3434 4469 
L 3434 4084 
L 2928 4084 
L 2928 1522 
L 3503 1522 
L 3503 1125 
L 319 1125 
L 319 1522 
L 1009 1522 
L 1009 4084 
L 441 4084 
L 441 4469 
L 1009 4469 
z
M 2513 4084 
L 1431 4084 
L 1431 3481 
L 2513 3481 
L 2513 4084 
z
M 2513 3116 
L 1431 3116 
L 1431 2516 
L 2513 2516 
L 2513 3116 
z
M 2513 2156 
L 1431 2156 
L 1431 1522 
L 2513 1522 
L 2513 2156 
z
M 5747 4984 
L 5747 72 
Q 5747 -391 5216 -391 
Q 4766 -391 4419 -347 
L 4350 109 
Q 4763 38 5138 38 
Q 5331 38 5331 225 
L 5331 1703 
L 4113 1703 
Q 4094 1028 3997 597 
Q 3875 -16 3478 -544 
L 3122 -206 
Q 3691 491 3691 1997 
L 3691 4984 
L 5747 4984 
z
M 5331 4594 
L 4113 4594 
L 4113 3547 
L 5331 3547 
L 5331 4594 
z
M 5331 3163 
L 4113 3163 
L 4113 2088 
L 5331 2088 
L 5331 3163 
z
M 434 -109 
Q 978 328 1331 984 
L 1728 769 
Q 1322 22 766 -475 
L 434 -109 
z
M 2853 -97 
Q 2559 453 2194 819 
L 2547 1038 
Q 2866 747 3231 219 
L 2853 -97 
z
" transform="scale(0.015625)"/>
      <path id="IPAexGothic-30ea" d="M 1678 4788 
L 2222 4788 
L 2222 1900 
L 1678 1900 
L 1678 4788 
z
M 4084 4909 
L 4628 4909 
L 4628 2753 
Q 4628 1563 4150 794 
Q 3725 119 2772 -353 
L 2394 78 
Q 3334 494 3706 1094 
Q 4084 1703 4084 2725 
L 4084 4909 
z
" transform="scale(0.015625)"/>
      <path id="IPAexGothic-30fc" d="M 588 2688 
L 5809 2688 
L 5809 2175 
L 588 2175 
L 588 2688 
z
" transform="scale(0.015625)"/>
      <path id="IPAexGothic-6e96" d="M 4341 4141 
L 4341 3694 
L 5506 3694 
L 5506 3353 
L 4341 3353 
L 4341 2906 
L 5506 2906 
L 5506 2566 
L 4341 2566 
L 4341 2088 
L 5922 2088 
L 5922 1722 
L 3413 1722 
L 3413 1100 
L 6081 1100 
L 6081 703 
L 3413 703 
L 3413 -450 
L 2938 -450 
L 2938 703 
L 319 703 
L 319 1100 
L 2938 1100 
L 2938 1722 
L 2450 1722 
L 2450 3644 
Q 2288 3441 2047 3188 
L 1759 3528 
Q 2531 4259 2841 5288 
L 3297 5166 
Q 3156 4800 3003 4500 
L 3969 4500 
Q 4163 4869 4284 5269 
L 4756 5159 
Q 4572 4759 4409 4500 
L 5794 4500 
L 5794 4141 
L 4341 4141 
z
M 3931 4141 
L 2878 4141 
L 2878 3694 
L 3931 3694 
L 3931 4141 
z
M 2878 2088 
L 3931 2088 
L 3931 2566 
L 2878 2566 
L 2878 2088 
z
M 2878 2906 
L 3931 2906 
L 3931 3353 
L 2878 3353 
L 2878 2906 
z
M 497 1778 
Q 1053 2316 1625 3178 
L 1913 2897 
Q 1484 2128 875 1431 
L 497 1778 
z
M 1559 4134 
Q 1109 4519 678 4769 
L 941 5131 
Q 1494 4831 1834 4519 
L 1559 4134 
z
M 1297 3141 
Q 997 3388 397 3763 
L 631 4122 
Q 1153 3847 1547 3538 
L 1297 3141 
z
" transform="scale(0.015625)"/>
      <path id="IPAexGothic-5099" d="M 1394 3719 
L 1394 -447 
L 966 -447 
L 966 2700 
Q 750 2272 478 1869 
L 244 2272 
Q 1044 3534 1388 5319 
L 1816 5209 
Q 1638 4391 1394 3719 
z
M 2991 4538 
L 2991 5313 
L 3419 5313 
L 3419 4538 
L 4384 4538 
L 4384 5313 
L 4813 5313 
L 4813 4538 
L 5819 4538 
L 5819 4178 
L 4813 4178 
L 4813 3541 
L 6047 3541 
L 6047 3181 
L 2369 3181 
L 2369 2528 
Q 2369 1313 2228 666 
Q 2097 75 1794 -397 
L 1447 -81 
Q 1775 428 1869 1153 
Q 1941 1706 1941 2553 
L 1941 3541 
L 2991 3541 
L 2991 4178 
L 2038 4178 
L 2038 4538 
L 2991 4538 
z
M 4384 4178 
L 3419 4178 
L 3419 3541 
L 4384 3541 
L 4384 4178 
z
M 5653 2731 
L 5653 -19 
Q 5653 -409 5238 -409 
Q 4950 -409 4731 -384 
L 4666 31 
Q 4856 -13 5066 -13 
Q 5238 -13 5238 172 
L 5238 738 
L 4347 738 
L 4347 -288 
L 3944 -288 
L 3944 738 
L 3103 738 
L 3103 -447 
L 2681 -447 
L 2681 2731 
L 5653 2731 
z
M 3103 2378 
L 3103 1906 
L 3944 1906 
L 3944 2378 
L 3103 2378 
z
M 3103 1566 
L 3103 1078 
L 3944 1078 
L 3944 1566 
L 3103 1566 
z
M 5238 1078 
L 5238 1566 
L 4347 1566 
L 4347 1078 
L 5238 1078 
z
M 5238 1906 
L 5238 2378 
L 4347 2378 
L 4347 1906 
L 5238 1906 
z
" transform="scale(0.015625)"/>
      <path id="IPAexGothic-306e" d="M 3119 469 
Q 5275 766 5275 2425 
Q 5275 3453 4413 3925 
Q 4041 4116 3547 4159 
Q 3394 2525 2850 1400 
Q 2322 306 1722 306 
Q 1384 306 1084 666 
Q 609 1244 609 2003 
Q 609 3025 1397 3794 
Q 2184 4563 3431 4563 
Q 4306 4563 4928 4122 
Q 5813 3506 5813 2425 
Q 5813 438 3431 6 
L 3119 469 
z
M 3053 4147 
Q 2378 4044 1891 3641 
Q 1097 2981 1097 1991 
Q 1097 1366 1434 978 
Q 1581 813 1719 813 
Q 2022 813 2416 1625 
Q 2909 2638 3053 4147 
z
" transform="scale(0.015625)"/>
      <path id="IPAexGothic-30ac" d="M 2734 4981 
L 3247 4981 
L 3247 3694 
L 5250 3694 
L 5250 3425 
Q 5250 1334 5019 500 
Q 4856 -84 4297 -84 
Q 3788 -84 3247 172 
L 3228 731 
Q 3859 441 4200 441 
Q 4484 441 4553 763 
Q 4706 1478 4738 3234 
L 3206 3234 
Q 3025 906 1159 -134 
L 769 263 
Q 2519 1134 2700 3209 
L 916 3209 
L 916 3669 
L 2734 3669 
L 2734 4981 
z
M 5850 4359 
Q 5488 4900 5094 5228 
L 5394 5459 
Q 5778 5150 6169 4634 
L 5850 4359 
z
M 5253 3891 
Q 4966 4381 4519 4781 
L 4831 5025 
Q 5203 4716 5588 4166 
L 5253 3891 
z
" transform="scale(0.015625)"/>
      <path id="IPAexGothic-30f3" d="M 2444 3084 
Q 1816 3656 1056 4084 
L 1381 4519 
Q 2063 4191 2816 3559 
L 2444 3084 
z
M 1100 609 
Q 3984 1106 5216 3828 
L 5619 3469 
Q 4413 794 1434 103 
L 1100 609 
z
" transform="scale(0.015625)"/>
      <path id="IPAexGothic-30c1" d="M 3088 2853 
L 3088 3981 
Q 2359 3847 1531 3797 
L 1288 4238 
Q 3200 4344 4553 4872 
L 4909 4456 
Q 4244 4216 3606 4078 
L 3606 2913 
L 5806 2913 
L 5806 2459 
L 3600 2459 
Q 3559 1422 3188 850 
Q 2722 138 1738 -256 
L 1347 153 
Q 2319 500 2709 1081 
Q 3031 1563 3081 2400 
L 597 2400 
L 597 2853 
L 3088 2853 
z
" transform="scale(0.015625)"/>
      <path id="IPAexGothic-30e3" d="M 2559 3903 
L 2803 2816 
L 4863 3169 
L 5191 2894 
Q 4672 1875 4103 1203 
L 3666 1447 
Q 4175 2013 4525 2688 
L 2900 2388 
L 3450 -116 
L 2969 -231 
L 2419 2297 
L 1172 2069 
L 1075 2516 
L 2328 2731 
L 2094 3809 
L 2559 3903 
z
" transform="scale(0.015625)"/>
     </defs>
     <use xlink:href="#IPAexGothic-56db"/>
     <use xlink:href="#IPAexGothic-534a" transform="translate(100 0)"/>
     <use xlink:href="#IPAexGothic-671f" transform="translate(200 0)"/>
     <use xlink:href="#IPAexGothic-30ea" transform="translate(300 0)"/>
     <use xlink:href="#IPAexGothic-30ea" transform="translate(400 0)"/>
     <use xlink:href="#IPAexGothic-30fc" transform="translate(500 0)"/>
     <use xlink:href="#IPAexGothic-30b9" transform="translate(600 0)"/>
     <use xlink:href="#IPAexGothic-6e96" transform="translate(700 0)"/>
     <use xlink:href="#IPAexGothic-5099" transform="translate(800 0)"/>
     <use xlink:href="#IPAexGothic-306e" transform="translate(900 0)"/>
     <use xlink:href="#IPAexGothic-30ac" transform="translate(1000 0)"/>
     <use xlink:href="#IPAexGothic-30f3" transform="translate(1100 0)"/>
     <use xlink:href="#IPAexGothic-30c8" transform="translate(1200 0)"/>
     <use xlink:href="#IPAexGothic-30c1" transform="translate(1300 0)"/>
     <use xlink:href="#IPAexGothic-30e3" transform="translate(1400 0)"/>
     <use xlink:href="#IPAexGothic-30fc" transform="translate(1500 0)"/>
     <use xlink:href="#IPAexGothic-30c8" transform="translate(1600 0)"/>
    </g>
   </g>
  </g>
 </g>
 <defs>
  <clipPath id="pe61f7b3451">
   <rect x="37.78" y="30.48" width="391.52" height="197.56"/>
  </clipPath>
 </defs>
</svg>
