<?xml version="1.0" encoding="utf-8" standalone="no"?>
<!DOCTYPE svg PUBLIC "-//W3C//DTD SVG 1.1//EN"
  "http://www.w3.org/Graphics/SVG/1.1/DTD/svg11.dtd">
<svg xmlns:xlink="http://www.w3.org/1999/xlink" width="446.4pt" height="259.2pt" viewBox="0 0 446.4 259.2" xmlns="http://www.w3.org/2000/svg" version="1.1">
 <metadata>
  <rdf:RDF xmlns:dc="http://purl.org/dc/elements/1.1/" xmlns:cc="http://creativecommons.org/ns#" xmlns:rdf="http://www.w3.org/1999/02/22-rdf-syntax-ns#">
   <cc:Work>
    <dc:type rdf:resource="http://purl.org/dc/dcmitype/StillImage"/>
    <dc:date>2025-10-29T09:07:43.800840</dc:date>
    <dc:format>image/svg+xml</dc:format>
    <dc:creator>
     <cc:Agent>
      <dc:title>Matplotlib v3.10.7, https://matplotlib.org/</dc:title>
     </cc:Agent>
    </dc:creator>
   </cc:Work>
  </rdf:RDF>
 </metadata>
 <defs>
  <style type="text/css">*{stroke-linejoin: round; stroke-linecap: butt}</style>
 </defs>
 <g id="figure_1">
  <g id="patch_1">
   <path d="M 0 259.2 
L 446.4 259.2 
L 446.4 0 
L 0 0 
z
" style="fill: #ffffff"/>
  </g>
  <g id="axes_1">
   <g id="patch_2">
    <path d="M 10.8 213.64 
L 435.6 213.64 
L 435.6 30.48 
L 10.8 30.48 
z
" style="fill: #ffffff"/>
   </g>
   <g id="FillBetweenPolyCollection_1">
    <defs>
     <path id="m35b38b9cb1" d="M 30.109091 -137.065806 
L 30.109091 -137.065806 
L 34.217408 -137.065806 
L 34.217408 -137.065806 
L 42.434043 -137.065806 
L 42.434043 -137.065806 
L 50.650677 -137.065806 
L 50.650677 -137.065806 
L 58.867311 -137.065806 
L 58.867311 -137.065806 
L 67.083946 -137.065806 
L 67.083946 -137.065806 
L 75.30058 -137.065806 
L 75.30058 -137.065806 
L 83.517215 -137.065806 
L 83.517215 -137.065806 
L 91.733849 -137.065806 
L 91.733849 -137.065806 
L 99.950484 -137.065806 
L 99.950484 -137.065806 
L 108.167118 -137.065806 
L 108.167118 -137.065806 
L 116.383752 -137.065806 
L 116.383752 -137.065806 
L 124.600387 -137.065806 
L 124.600387 -137.065806 
L 132.817021 -137.065806 
L 132.817021 -137.065806 
L 141.033656 -137.065806 
L 141.033656 -137.065806 
L 149.25029 -137.065806 
L 149.25029 -137.065806 
L 157.466925 -137.065806 
L 157.466925 -137.065806 
L 165.683559 -137.065806 
L 165.683559 -137.065806 
L 173.900193 -137.065806 
L 173.900193 -137.065806 
L 182.116828 -137.065806 
L 182.116828 -137.065806 
L 190.333462 -137.065806 
L 190.333462 -137.065806 
L 198.550097 -137.065806 
L 198.550097 -137.065806 
L 206.766731 -137.065806 
L 206.766731 -137.065806 
L 214.983366 -137.065806 
L 214.983366 -137.065806 
L 223.2 -137.065806 
L 223.2 -137.065806 
L 231.416634 -137.065806 
L 231.416634 -137.065806 
L 239.633269 -137.065806 
L 239.633269 -137.065806 
L 247.849903 -137.065806 
L 247.849903 -137.065806 
L 256.066538 -137.065806 
L 256.066538 -137.065806 
L 264.283172 -137.065806 
L 264.283172 -137.065806 
L 272.499807 -137.065806 
L 272.499807 -137.065806 
L 280.716441 -137.065806 
L 280.716441 -137.065806 
L 288.933075 -137.065806 
L 288.933075 -137.065806 
L 297.14971 -137.065806 
L 297.14971 -137.065806 
L 305.366344 -137.065806 
L 305.366344 -137.065806 
L 313.582979 -137.065806 
L 313.582979 -137.065806 
L 321.799613 -137.065806 
L 321.799613 -137.065806 
L 330.016248 -137.065806 
L 330.016248 -137.065806 
L 338.232882 -137.065806 
L 338.232882 -137.065806 
L 346.449516 -137.065806 
L 346.449516 -137.065806 
L 354.666151 -137.065806 
L 354.666151 -137.065806 
L 362.882785 -137.065806 
L 362.882785 -137.065806 
L 371.09942 -137.065806 
L 371.09942 -137.065806 
L 379.316054 -137.065806 
L 379.316054 -137.065806 
L 387.532689 -137.065806 
L 387.532689 -137.065806 
L 395.749323 -137.065806 
L 395.749323 -137.065806 
L 403.965957 -137.065806 
L 403.965957 -137.065806 
L 412.182592 -137.065806 
L 412.182592 -137.065806 
L 416.290909 -137.065806 
L 416.290909 -142.584532 
L 416.290909 -142.584532 
L 412.182592 -142.584532 
L 412.182592 -137.065806 
L 403.965957 -137.065806 
L 403.965957 -137.065806 
L 395.749323 -137.065806 
L 395.749323 -137.065806 
L 387.532689 -137.065806 
L 387.532689 -137.065806 
L 379.316054 -137.065806 
L 379.316054 -145.1099 
L 371.09942 -145.1099 
L 371.09942 -177.643049 
L 362.882785 -177.643049 
L 362.882785 -177.643049 
L 354.666151 -177.643049 
L 354.666151 -177.643049 
L 346.449516 -177.643049 
L 346.449516 -177.643049 
L 338.232882 -177.643049 
L 338.232882 -177.643049 
L 330.016248 -177.643049 
L 330.016248 -157.161895 
L 321.799613 -157.161895 
L 321.799613 -137.065806 
L 313.582979 -137.065806 
L 313.582979 -137.065806 
L 305.366344 -137.065806 
L 305.366344 -137.065806 
L 297.14971 -137.065806 
L 297.14971 -137.065806 
L 288.933075 -137.065806 
L 288.933075 -137.065806 
L 280.716441 -137.065806 
L 280.716441 -137.065806 
L 272.499807 -137.065806 
L 272.499807 -177.643049 
L 264.283172 -177.643049 
L 264.283172 -177.643049 
L 256.066538 -177.643049 
L 256.066538 -177.643049 
L 247.849903 -177.643049 
L 247.849903 -157.378695 
L 239.633269 -157.378695 
L 239.633269 -171.698137 
L 231.416634 -171.698137 
L 231.416634 -145.626154 
L 223.2 -145.626154 
L 223.2 -137.065806 
L 214.983366 -137.065806 
L 214.983366 -137.065806 
L 206.766731 -137.065806 
L 206.766731 -137.065806 
L 198.550097 -137.065806 
L 198.550097 -137.065806 
L 190.333462 -137.065806 
L 190.333462 -137.065806 
L 182.116828 -137.065806 
L 182.116828 -137.065806 
L 173.900193 -137.065806 
L 173.900193 -157.566141 
L 165.683559 -157.566141 
L 165.683559 -164.236982 
L 157.466925 -164.236982 
L 157.466925 -177.643049 
L 149.25029 -177.643049 
L 149.25029 -177.643049 
L 141.033656 -177.643049 
L 141.033656 -145.022055 
L 132.817021 -145.022055 
L 132.817021 -137.065806 
L 124.600387 -137.065806 
L 124.600387 -137.065806 
L 116.383752 -137.065806 
L 116.383752 -137.065806 
L 108.167118 -137.065806 
L 108.167118 -137.065806 
L 99.950484 -137.065806 
L 99.950484 -137.065806 
L 91.733849 -137.065806 
L 91.733849 -137.065806 
L 83.517215 -137.065806 
L 83.517215 -137.065806 
L 75.30058 -137.065806 
L 75.30058 -137.065806 
L 67.083946 -137.065806 
L 67.083946 -164.067268 
L 58.867311 -164.067268 
L 58.867311 -163.929041 
L 50.650677 -163.929041 
L 50.650677 -164.562845 
L 42.434043 -164.562845 
L 42.434043 -150.365486 
L 34.217408 -150.365486 
L 34.217408 -137.065806 
L 30.109091 -137.065806 
z
" style="stroke: #bae6fd"/>
    </defs>
    <g clip-path="url(#p00c1fa6805)">
     <use xlink:href="#m35b38b9cb1" x="0" y="259.2" style="fill: #bae6fd; stroke: #bae6fd"/>
    </g>
   </g>
   <g id="FillBetweenPolyCollection_2">
    <defs>
     <path id="m26352e5c61" d="M 30.109091 -137.065806 
L 30.109091 -113.886295 
L 34.217408 -113.886295 
L 34.217408 -137.065806 
L 42.434043 -137.065806 
L 42.434043 -137.065806 
L 50.650677 -137.065806 
L 50.650677 -137.065806 
L 58.867311 -137.065806 
L 58.867311 -137.065806 
L 67.083946 -137.065806 
L 67.083946 -134.290534 
L 75.30058 -134.290534 
L 75.30058 -122.146417 
L 83.517215 -122.146417 
L 83.517215 -113.707513 
L 91.733849 -113.707513 
L 91.733849 -96.488562 
L 99.950484 -96.488562 
L 99.950484 -96.488562 
L 108.167118 -96.488562 
L 108.167118 -96.488562 
L 116.383752 -96.488562 
L 116.383752 -102.616483 
L 124.600387 -102.616483 
L 124.600387 -130.185104 
L 132.817021 -130.185104 
L 132.817021 -137.065806 
L 141.033656 -137.065806 
L 141.033656 -137.065806 
L 149.25029 -137.065806 
L 149.25029 -137.065806 
L 157.466925 -137.065806 
L 157.466925 -137.065806 
L 165.683559 -137.065806 
L 165.683559 -137.065806 
L 173.900193 -137.065806 
L 173.900193 -104.919489 
L 182.116828 -104.919489 
L 182.116828 -96.488562 
L 190.333462 -96.488562 
L 190.333462 -96.488562 
L 198.550097 -96.488562 
L 198.550097 -96.488562 
L 206.766731 -96.488562 
L 206.766731 -96.488562 
L 214.983366 -96.488562 
L 214.983366 -115.834558 
L 223.2 -115.834558 
L 223.2 -137.065806 
L 231.416634 -137.065806 
L 231.416634 -137.065806 
L 239.633269 -137.065806 
L 239.633269 -137.065806 
L 247.849903 -137.065806 
L 247.849903 -137.065806 
L 256.066538 -137.065806 
L 256.066538 -137.065806 
L 264.283172 -137.065806 
L 264.283172 -137.065806 
L 272.499807 -137.065806 
L 272.499807 -125.550371 
L 280.716441 -125.550371 
L 280.716441 -113.415868 
L 288.933075 -113.415868 
L 288.933075 -96.488562 
L 297.14971 -96.488562 
L 297.14971 -96.488562 
L 305.366344 -96.488562 
L 305.366344 -119.763068 
L 313.582979 -119.763068 
L 313.582979 -112.932489 
L 321.799613 -112.932489 
L 321.799613 -137.065806 
L 330.016248 -137.065806 
L 330.016248 -137.065806 
L 338.232882 -137.065806 
L 338.232882 -137.065806 
L 346.449516 -137.065806 
L 346.449516 -137.065806 
L 354.666151 -137.065806 
L 354.666151 -137.065806 
L 362.882785 -137.065806 
L 362.882785 -137.065806 
L 371.09942 -137.065806 
L 371.09942 -137.065806 
L 379.316054 -137.065806 
L 379.316054 -137.013864 
L 387.532689 -137.013864 
L 387.532689 -136.771828 
L 395.749323 -136.771828 
L 395.749323 -96.488562 
L 403.965957 -96.488562 
L 403.965957 -131.100091 
L 412.182592 -131.100091 
L 412.182592 -137.065806 
L 416.290909 -137.065806 
L 416.290909 -137.065806 
L 416.290909 -137.065806 
L 412.182592 -137.065806 
L 412.182592 -137.065806 
L 403.965957 -137.065806 
L 403.965957 -137.065806 
L 395.749323 -137.065806 
L 395.749323 -137.065806 
L 387.532689 -137.065806 
L 387.532689 -137.065806 
L 379.316054 -137.065806 
L 379.316054 -137.065806 
L 371.09942 -137.065806 
L 371.09942 -137.065806 
L 362.882785 -137.065806 
L 362.882785 -137.065806 
L 354.666151 -137.065806 
L 354.666151 -137.065806 
L 346.449516 -137.065806 
L 346.449516 -137.065806 
L 338.232882 -137.065806 
L 338.232882 -137.065806 
L 330.016248 -137.065806 
L 330.016248 -137.065806 
L 321.799613 -137.065806 
L 321.799613 -137.065806 
L 313.582979 -137.065806 
L 313.582979 -137.065806 
L 305.366344 -137.065806 
L 305.366344 -137.065806 
L 297.14971 -137.065806 
L 297.14971 -137.065806 
L 288.933075 -137.065806 
L 288.933075 -137.065806 
L 280.716441 -137.065806 
L 280.716441 -137.065806 
L 272.499807 -137.065806 
L 272.499807 -137.065806 
L 264.283172 -137.065806 
L 264.283172 -137.065806 
L 256.066538 -137.065806 
L 256.066538 -137.065806 
L 247.849903 -137.065806 
L 247.849903 -137.065806 
L 239.633269 -137.065806 
L 239.633269 -137.065806 
L 231.416634 -137.065806 
L 231.416634 -137.065806 
L 223.2 -137.065806 
L 223.2 -137.065806 
L 214.983366 -137.065806 
L 214.983366 -137.065806 
L 206.766731 -137.065806 
L 206.766731 -137.065806 
L 198.550097 -137.065806 
L 198.550097 -137.065806 
L 190.333462 -137.065806 
L 190.333462 -137.065806 
L 182.116828 -137.065806 
L 182.116828 -137.065806 
L 173.900193 -137.065806 
L 173.900193 -137.065806 
L 165.683559 -137.065806 
L 165.683559 -137.065806 
L 157.466925 -137.065806 
L 157.466925 -137.065806 
L 149.25029 -137.065806 
L 149.25029 -137.065806 
L 141.033656 -137.065806 
L 141.033656 -137.065806 
L 132.817021 -137.065806 
L 132.817021 -137.065806 
L 124.600387 -137.065806 
L 124.600387 -137.065806 
L 116.383752 -137.065806 
L 116.383752 -137.065806 
L 108.167118 -137.065806 
L 108.167118 -137.065806 
L 99.950484 -137.065806 
L 99.950484 -137.065806 
L 91.733849 -137.065806 
L 91.733849 -137.065806 
L 83.517215 -137.065806 
L 83.517215 -137.065806 
L 75.30058 -137.065806 
L 75.30058 -137.065806 
L 67.083946 -137.065806 
L 67.083946 -137.065806 
L 58.867311 -137.065806 
L 58.867311 -137.065806 
L 50.650677 -137.065806 
L 50.650677 -137.065806 
L 42.434043 -137.065806 
L 42.434043 -137.065806 
L 34.217408 -137.065806 
L 34.217408 -137.065806 
L 30.109091 -137.065806 
z
" style="stroke: #fecaca"/>
    </defs>
    <g clip-path="url(#p00c1fa6805)">
     <use xlink:href="#m26352e5c61" x="0" y="259.2" style="fill: #fecaca; stroke: #fecaca"/>
    </g>
   </g>
   <g id="FillBetweenPolyCollection_3">
    <defs>
     <path id="m296c0cafd6" d="M 30.109091 -177.643049 
L 30.109091 -177.643049 
L 34.217408 -177.643049 
L 34.217408 -177.643049 
L 42.434043 -177.643049 
L 42.434043 -177.643049 
L 50.650677 -177.643049 
L 50.650677 -177.643049 
L 58.867311 -177.643049 
L 58.867311 -177.643049 
L 67.083946 -177.643049 
L 67.083946 -177.643049 
L 75.30058 -177.643049 
L 75.30058 -177.643049 
L 83.517215 -177.643049 
L 83.517215 -177.643049 
L 91.733849 -177.643049 
L 91.733849 -177.643049 
L 99.950484 -177.643049 
L 99.950484 -177.643049 
L 108.167118 -177.643049 
L 108.167118 -177.643049 
L 116.383752 -177.643049 
L 116.383752 -177.643049 
L 124.600387 -177.643049 
L 124.600387 -177.643049 
L 132.817021 -177.643049 
L 132.817021 -177.643049 
L 141.033656 -177.643049 
L 141.033656 -177.643049 
L 149.25029 -177.643049 
L 149.25029 -177.643049 
L 157.466925 -177.643049 
L 157.466925 -177.643049 
L 165.683559 -177.643049 
L 165.683559 -177.643049 
L 173.900193 -177.643049 
L 173.900193 -177.643049 
L 182.116828 -177.643049 
L 182.116828 -177.643049 
L 190.333462 -177.643049 
L 190.333462 -177.643049 
L 198.550097 -177.643049 
L 198.550097 -177.643049 
L 206.766731 -177.643049 
L 206.766731 -177.643049 
L 214.983366 -177.643049 
L 214.983366 -177.643049 
L 223.2 -177.643049 
L 223.2 -177.643049 
L 231.416634 -177.643049 
L 231.416634 -177.643049 
L 239.633269 -177.643049 
L 239.633269 -177.643049 
L 247.849903 -177.643049 
L 247.849903 -177.643049 
L 256.066538 -177.643049 
L 256.066538 -177.643049 
L 264.283172 -177.643049 
L 264.283172 -177.643049 
L 272.499807 -177.643049 
L 272.499807 -177.643049 
L 280.716441 -177.643049 
L 280.716441 -177.643049 
L 288.933075 -177.643049 
L 288.933075 -177.643049 
L 297.14971 -177.643049 
L 297.14971 -177.643049 
L 305.366344 -177.643049 
L 305.366344 -177.643049 
L 313.582979 -177.643049 
L 313.582979 -177.643049 
L 321.799613 -177.643049 
L 321.799613 -177.643049 
L 330.016248 -177.643049 
L 330.016248 -177.643049 
L 338.232882 -177.643049 
L 338.232882 -177.643049 
L 346.449516 -177.643049 
L 346.449516 -177.643049 
L 354.666151 -177.643049 
L 354.666151 -177.643049 
L 362.882785 -177.643049 
L 362.882785 -177.643049 
L 371.09942 -177.643049 
L 371.09942 -177.643049 
L 379.316054 -177.643049 
L 379.316054 -177.643049 
L 387.532689 -177.643049 
L 387.532689 -177.643049 
L 395.749323 -177.643049 
L 395.749323 -177.643049 
L 403.965957 -177.643049 
L 403.965957 -177.643049 
L 412.182592 -177.643049 
L 412.182592 -177.643049 
L 416.290909 -177.643049 
L 416.290909 -177.643049 
L 416.290909 -177.643049 
L 412.182592 -177.643049 
L 412.182592 -177.643049 
L 403.965957 -177.643049 
L 403.965957 -177.643049 
L 395.749323 -177.643049 
L 395.749323 -177.643049 
L 387.532689 -177.643049 
L 387.532689 -177.643049 
L 379.316054 -177.643049 
L 379.316054 -177.643049 
L 371.09942 -177.643049 
L 371.09942 -195.244506 
L 362.882785 -195.244506 
L 362.882785 -217.063338 
L 354.666151 -217.063338 
L 354.666151 -218.220293 
L 346.449516 -218.220293 
L 346.449516 -203.363413 
L 338.232882 -203.363413 
L 338.232882 -203.694442 
L 330.016248 -203.694442 
L 330.016248 -177.643049 
L 321.799613 -177.643049 
L 321.799613 -177.643049 
L 313.582979 -177.643049 
L 313.582979 -177.643049 
L 305.366344 -177.643049 
L 305.366344 -177.643049 
L 297.14971 -177.643049 
L 297.14971 -177.643049 
L 288.933075 -177.643049 
L 288.933075 -177.643049 
L 280.716441 -177.643049 
L 280.716441 -177.643049 
L 272.499807 -177.643049 
L 272.499807 -181.440569 
L 264.283172 -181.440569 
L 264.283172 -199.875384 
L 256.066538 -199.875384 
L 256.066538 -198.856292 
L 247.849903 -198.856292 
L 247.849903 -177.643049 
L 239.633269 -177.643049 
L 239.633269 -177.643049 
L 231.416634 -177.643049 
L 231.416634 -177.643049 
L 223.2 -177.643049 
L 223.2 -177.643049 
L 214.983366 -177.643049 
L 214.983366 -177.643049 
L 206.766731 -177.643049 
L 206.766731 -177.643049 
L 198.550097 -177.643049 
L 198.550097 -177.643049 
L 190.333462 -177.643049 
L 190.333462 -177.643049 
L 182.116828 -177.643049 
L 182.116828 -177.643049 
L 173.900193 -177.643049 
L 173.900193 -177.643049 
L 165.683559 -177.643049 
L 165.683559 -177.643049 
L 157.466925 -177.643049 
L 157.466925 -204.277348 
L 149.25029 -204.277348 
L 149.25029 -183.145373 
L 141.033656 -183.145373 
L 141.033656 -177.643049 
L 132.817021 -177.643049 
L 132.817021 -177.643049 
L 124.600387 -177.643049 
L 124.600387 -177.643049 
L 116.383752 -177.643049 
L 116.383752 -177.643049 
L 108.167118 -177.643049 
L 108.167118 -177.643049 
L 99.950484 -177.643049 
L 99.950484 -177.643049 
L 91.733849 -177.643049 
L 91.733849 -177.643049 
L 83.517215 -177.643049 
L 83.517215 -177.643049 
L 75.30058 -177.643049 
L 75.30058 -177.643049 
L 67.083946 -177.643049 
L 67.083946 -177.643049 
L 58.867311 -177.643049 
L 58.867311 -177.643049 
L 50.650677 -177.643049 
L 50.650677 -177.643049 
L 42.434043 -177.643049 
L 42.434043 -177.643049 
L 34.217408 -177.643049 
L 34.217408 -177.643049 
L 30.109091 -177.643049 
z
" style="stroke: #38bdf8"/>
    </defs>
    <g clip-path="url(#p00c1fa6805)">
     <use xlink:href="#m296c0cafd6" x="0" y="259.2" style="fill: #38bdf8; stroke: #38bdf8"/>
    </g>
   </g>
   <g id="FillBetweenPolyCollection_4">
    <defs>
     <path id="m467edf2e20" d="M 30.109091 -96.488562 
L 30.109091 -96.488562 
L 34.217408 -96.488562 
L 34.217408 -96.488562 
L 42.434043 -96.488562 
L 42.434043 -96.488562 
L 50.650677 -96.488562 
L 50.650677 -96.488562 
L 58.867311 -96.488562 
L 58.867311 -96.488562 
L 67.083946 -96.488562 
L 67.083946 -96.488562 
L 75.30058 -96.488562 
L 75.30058 -96.488562 
L 83.517215 -96.488562 
L 83.517215 -96.488562 
L 91.733849 -96.488562 
L 91.733849 -62.904528 
L 99.950484 -62.904528 
L 99.950484 -55.911319 
L 108.167118 -55.911319 
L 108.167118 -81.278692 
L 116.383752 -81.278692 
L 116.383752 -96.488562 
L 124.600387 -96.488562 
L 124.600387 -96.488562 
L 132.817021 -96.488562 
L 132.817021 -96.488562 
L 141.033656 -96.488562 
L 141.033656 -96.488562 
L 149.25029 -96.488562 
L 149.25029 -96.488562 
L 157.466925 -96.488562 
L 157.466925 -96.488562 
L 165.683559 -96.488562 
L 165.683559 -96.488562 
L 173.900193 -96.488562 
L 173.900193 -96.488562 
L 182.116828 -96.488562 
L 182.116828 -85.63207 
L 190.333462 -85.63207 
L 190.333462 -55.911319 
L 198.550097 -55.911319 
L 198.550097 -74.748387 
L 206.766731 -74.748387 
L 206.766731 -67.36413 
L 214.983366 -67.36413 
L 214.983366 -96.488562 
L 223.2 -96.488562 
L 223.2 -96.488562 
L 231.416634 -96.488562 
L 231.416634 -96.488562 
L 239.633269 -96.488562 
L 239.633269 -96.488562 
L 247.849903 -96.488562 
L 247.849903 -96.488562 
L 256.066538 -96.488562 
L 256.066538 -96.488562 
L 264.283172 -96.488562 
L 264.283172 -96.488562 
L 272.499807 -96.488562 
L 272.499807 -96.488562 
L 280.716441 -96.488562 
L 280.716441 -96.488562 
L 288.933075 -96.488562 
L 288.933075 -84.226854 
L 297.14971 -84.226854 
L 297.14971 -80.04378 
L 305.366344 -80.04378 
L 305.366344 -96.488562 
L 313.582979 -96.488562 
L 313.582979 -96.488562 
L 321.799613 -96.488562 
L 321.799613 -96.488562 
L 330.016248 -96.488562 
L 330.016248 -96.488562 
L 338.232882 -96.488562 
L 338.232882 -96.488562 
L 346.449516 -96.488562 
L 346.449516 -96.488562 
L 354.666151 -96.488562 
L 354.666151 -96.488562 
L 362.882785 -96.488562 
L 362.882785 -96.488562 
L 371.09942 -96.488562 
L 371.09942 -96.488562 
L 379.316054 -96.488562 
L 379.316054 -96.488562 
L 387.532689 -96.488562 
L 387.532689 -96.488562 
L 395.749323 -96.488562 
L 395.749323 -82.668195 
L 403.965957 -82.668195 
L 403.965957 -96.488562 
L 412.182592 -96.488562 
L 412.182592 -96.488562 
L 416.290909 -96.488562 
L 416.290909 -96.488562 
L 416.290909 -96.488562 
L 412.182592 -96.488562 
L 412.182592 -96.488562 
L 403.965957 -96.488562 
L 403.965957 -96.488562 
L 395.749323 -96.488562 
L 395.749323 -96.488562 
L 387.532689 -96.488562 
L 387.532689 -96.488562 
L 379.316054 -96.488562 
L 379.316054 -96.488562 
L 371.09942 -96.488562 
L 371.09942 -96.488562 
L 362.882785 -96.488562 
L 362.882785 -96.488562 
L 354.666151 -96.488562 
L 354.666151 -96.488562 
L 346.449516 -96.488562 
L 346.449516 -96.488562 
L 338.232882 -96.488562 
L 338.232882 -96.488562 
L 330.016248 -96.488562 
L 330.016248 -96.488562 
L 321.799613 -96.488562 
L 321.799613 -96.488562 
L 313.582979 -96.488562 
L 313.582979 -96.488562 
L 305.366344 -96.488562 
L 305.366344 -96.488562 
L 297.14971 -96.488562 
L 297.14971 -96.488562 
L 288.933075 -96.488562 
L 288.933075 -96.488562 
L 280.716441 -96.488562 
L 280.716441 -96.488562 
L 272.499807 -96.488562 
L 272.499807 -96.488562 
L 264.283172 -96.488562 
L 264.283172 -96.488562 
L 256.066538 -96.488562 
L 256.066538 -96.488562 
L 247.849903 -96.488562 
L 247.849903 -96.488562 
L 239.633269 -96.488562 
L 239.633269 -96.488562 
L 231.416634 -96.488562 
L 231.416634 -96.488562 
L 223.2 -96.488562 
L 223.2 -96.488562 
L 214.983366 -96.488562 
L 214.983366 -96.488562 
L 206.766731 -96.488562 
L 206.766731 -96.488562 
L 198.550097 -96.488562 
L 198.550097 -96.488562 
L 190.333462 -96.488562 
L 190.333462 -96.488562 
L 182.116828 -96.488562 
L 182.116828 -96.488562 
L 173.900193 -96.488562 
L 173.900193 -96.488562 
L 165.683559 -96.488562 
L 165.683559 -96.488562 
L 157.466925 -96.488562 
L 157.466925 -96.488562 
L 149.25029 -96.488562 
L 149.25029 -96.488562 
L 141.033656 -96.488562 
L 141.033656 -96.488562 
L 132.817021 -96.488562 
L 132.817021 -96.488562 
L 124.600387 -96.488562 
L 124.600387 -96.488562 
L 116.383752 -96.488562 
L 116.383752 -96.488562 
L 108.167118 -96.488562 
L 108.167118 -96.488562 
L 99.950484 -96.488562 
L 99.950484 -96.488562 
L 91.733849 -96.488562 
L 91.733849 -96.488562 
L 83.517215 -96.488562 
L 83.517215 -96.488562 
L 75.30058 -96.488562 
L 75.30058 -96.488562 
L 67.083946 -96.488562 
L 67.083946 -96.488562 
L 58.867311 -96.488562 
L 58.867311 -96.488562 
L 50.650677 -96.488562 
L 50.650677 -96.488562 
L 42.434043 -96.488562 
L 42.434043 -96.488562 
L 34.217408 -96.488562 
L 34.217408 -96.488562 
L 30.109091 -96.488562 
z
" style="stroke: #f87171"/>
    </defs>
    <g clip-path="url(#p00c1fa6805)">
     <use xlink:href="#m467edf2e20" x="0" y="259.2" style="fill: #f87171; stroke: #f87171"/>
    </g>
   </g>
   <g id="FillBetweenPolyCollection_5">
    <defs>
     <path id="m0995404451" d="M 30.109091 -218.220293 
L 30.109091 -218.220293 
L 34.217408 -218.220293 
L 34.217408 -218.220293 
L 42.434043 -218.220293 
L 42.434043 -218.220293 
L 50.650677 -218.220293 
L 50.650677 -218.220293 
L 58.867311 -218.220293 
L 58.867311 -218.220293 
L 67.083946 -218.220293 
L 67.083946 -218.220293 
L 75.30058 -218.220293 
L 75.30058 -218.220293 
L 83.517215 -218.220293 
L 83.517215 -218.220293 
L 91.733849 -218.220293 
L 91.733849 -218.220293 
L 99.950484 -218.220293 
L 99.950484 -218.220293 
L 108.167118 -218.220293 
L 108.167118 -218.220293 
L 116.383752 -218.220293 
L 116.383752 -218.220293 
L 124.600387 -218.220293 
L 124.600387 -218.220293 
L 132.817021 -218.220293 
L 132.817021 -218.220293 
L 141.033656 -218.220293 
L 141.033656 -218.220293 
L 149.25029 -218.220293 
L 149.25029 -218.220293 
L 157.466925 -218.220293 
L 157.466925 -218.220293 
L 165.683559 -218.220293 
L 165.683559 -218.220293 
L 173.900193 -218.220293 
L 173.900193 -218.220293 
L 182.116828 -218.220293 
L 182.116828 -218.220293 
L 190.333462 -218.220293 
L 190.333462 -218.220293 
L 198.550097 -218.220293 
L 198.550097 -218.220293 
L 206.766731 -218.220293 
L 206.766731 -218.220293 
L 214.983366 -218.220293 
L 214.983366 -218.220293 
L 223.2 -218.220293 
L 223.2 -218.220293 
L 231.416634 -218.220293 
L 231.416634 -218.220293 
L 239.633269 -218.220293 
L 239.633269 -218.220293 
L 247.849903 -218.220293 
L 247.849903 -218.220293 
L 256.066538 -218.220293 
L 256.066538 -218.220293 
L 264.283172 -218.220293 
L 264.283172 -218.220293 
L 272.499807 -218.220293 
L 272.499807 -218.220293 
L 280.716441 -218.220293 
L 280.716441 -218.220293 
L 288.933075 -218.220293 
L 288.933075 -218.220293 
L 297.14971 -218.220293 
L 297.14971 -218.220293 
L 305.366344 -218.220293 
L 305.366344 -218.220293 
L 313.582979 -218.220293 
L 313.582979 -218.220293 
L 321.799613 -218.220293 
L 321.799613 -218.220293 
L 330.016248 -218.220293 
L 330.016248 -218.220293 
L 338.232882 -218.220293 
L 338.232882 -218.220293 
L 346.449516 -218.220293 
L 346.449516 -218.220293 
L 354.666151 -218.220293 
L 354.666151 -218.220293 
L 362.882785 -218.220293 
L 362.882785 -218.220293 
L 371.09942 -218.220293 
L 371.09942 -218.220293 
L 379.316054 -218.220293 
L 379.316054 -218.220293 
L 387.532689 -218.220293 
L 387.532689 -218.220293 
L 395.749323 -218.220293 
L 395.749323 -218.220293 
L 403.965957 -218.220293 
L 403.965957 -218.220293 
L 412.182592 -218.220293 
L 412.182592 -218.220293 
L 416.290909 -218.220293 
L 416.290909 -218.220293 
L 416.290909 -218.220293 
L 412.182592 -218.220293 
L 412.182592 -218.220293 
L 403.965957 -218.220293 
L 403.965957 -218.220293 
L 395.749323 -218.220293 
L 395.749323 -218.220293 
L 387.532689 -218.220293 
L 387.532689 -218.220293 
L 379.316054 -218.220293 
L 379.316054 -218.220293 
L 371.09942 -218.220293 
L 371.09942 -218.220293 
L 362.882785 -218.220293 
L 362.882785 -218.220293 
L 354.666151 -218.220293 
L 354.666151 -220.394545 
L 346.449516 -220.394545 
L 346.449516 -218.220293 
L 338.232882 -218.220293 
L 338.232882 -218.220293 
L 330.016248 -218.220293 
L 330.016248 -218.220293 
L 321.799613 -218.220293 
L 321.799613 -218.220293 
L 313.582979 -218.220293 
L 313.582979 -218.220293 
L 305.366344 -218.220293 
L 305.366344 -218.220293 
L 297.14971 -218.220293 
L 297.14971 -218.220293 
L 288.933075 -218.220293 
L 288.933075 -218.220293 
L 280.716441 -218.220293 
L 280.716441 -218.220293 
L 272.499807 -218.220293 
L 272.499807 -218.220293 
L 264.283172 -218.220293 
L 264.283172 -218.220293 
L 256.066538 -218.220293 
L 256.066538 -218.220293 
L 247.849903 -218.220293 
L 247.849903 -218.220293 
L 239.633269 -218.220293 
L 239.633269 -218.220293 
L 231.416634 -218.220293 
L 231.416634 -218.220293 
L 223.2 -218.220293 
L 223.2 -218.220293 
L 214.983366 -218.220293 
L 214.983366 -218.220293 
L 206.766731 -218.220293 
L 206.766731 -218.220293 
L 198.550097 -218.220293 
L 198.550097 -218.220293 
L 190.333462 -218.220293 
L 190.333462 -218.220293 
L 182.116828 -218.220293 
L 182.116828 -218.220293 
L 173.900193 -218.220293 
L 173.900193 -218.220293 
L 165.683559 -218.220293 
L 165.683559 -218.220293 
L 157.466925 -218.220293 
L 157.466925 -218.220293 
L 149.25029 -218.220293 
L 149.25029 -218.220293 
L 141.033656 -218.220293 
L 141.033656 -218.220293 
L 132.817021 -218.220293 
L 132.817021 -218.220293 
L 124.600387 -218.220293 
L 124.600387 -218.220293 
L 116.383752 -218.220293 
L 116.383752 -218.220293 
L 108.167118 -218.220293 
L 108.167118 -218.220293 
L 99.950484 -218.220293 
L 99.950484 -218.220293 
L 91.733849 -218.220293 
L 91.733849 -218.220293 
L 83.517215 -218.220293 
L 83.517215 -218.220293 
L 75.30058 -218.220293 
L 75.30058 -218.220293 
L 67.083946 -218.220293 
L 67.083946 -218.220293 
L 58.867311 -218.220293 
L 58.867311 -218.220293 
L 50.650677 -218.220293 
L 50.650677 -218.220293 
L 42.434043 -218.220293 
L 42.434043 -218.220293 
L 34.217408 -218.220293 
L 34.217408 -218.220293 
L 30.109091 -218.220293 
z
" style="stroke: #0ea5e9"/>
    </defs>
    <g clip-path="url(#p00c1fa6805)">
     <use xlink:href="#m0995404451" x="0" y="259.2" style="fill: #0ea5e9; stroke: #0ea5e9"/>
    </g>
   </g>
   <g id="FillBetweenPolyCollection_6">
    <defs>
     <path id="m88762e584e" d="M 30.109091 -55.911319 
L 30.109091 -55.911319 
L 34.217408 -55.911319 
L 34.217408 -55.911319 
L 42.434043 -55.911319 
L 42.434043 -55.911319 
L 50.650677 -55.911319 
L 50.650677 -55.911319 
L 58.867311 -55.911319 
L 58.867311 -55.911319 
L 67.083946 -55.911319 
L 67.083946 -55.911319 
L 75.30058 -55.911319 
L 75.30058 -55.911319 
L 83.517215 -55.911319 
L 83.517215 -55.911319 
L 91.733849 -55.911319 
L 91.733849 -55.911319 
L 99.950484 -55.911319 
L 99.950484 -53.885455 
L 108.167118 -53.885455 
L 108.167118 -55.911319 
L 116.383752 -55.911319 
L 116.383752 -55.911319 
L 124.600387 -55.911319 
L 124.600387 -55.911319 
L 132.817021 -55.911319 
L 132.817021 -55.911319 
L 141.033656 -55.911319 
L 141.033656 -55.911319 
L 149.25029 -55.911319 
L 149.25029 -55.911319 
L 157.466925 -55.911319 
L 157.466925 -55.911319 
L 165.683559 -55.911319 
L 165.683559 -55.911319 
L 173.900193 -55.911319 
L 173.900193 -55.911319 
L 182.116828 -55.911319 
L 182.116828 -55.911319 
L 190.333462 -55.911319 
L 190.333462 -55.608277 
L 198.550097 -55.608277 
L 198.550097 -55.911319 
L 206.766731 -55.911319 
L 206.766731 -55.911319 
L 214.983366 -55.911319 
L 214.983366 -55.911319 
L 223.2 -55.911319 
L 223.2 -55.911319 
L 231.416634 -55.911319 
L 231.416634 -55.911319 
L 239.633269 -55.911319 
L 239.633269 -55.911319 
L 247.849903 -55.911319 
L 247.849903 -55.911319 
L 256.066538 -55.911319 
L 256.066538 -55.911319 
L 264.283172 -55.911319 
L 264.283172 -55.911319 
L 272.499807 -55.911319 
L 272.499807 -55.911319 
L 280.716441 -55.911319 
L 280.716441 -55.911319 
L 288.933075 -55.911319 
L 288.933075 -55.911319 
L 297.14971 -55.911319 
L 297.14971 -55.911319 
L 305.366344 -55.911319 
L 305.366344 -55.911319 
L 313.582979 -55.911319 
L 313.582979 -55.911319 
L 321.799613 -55.911319 
L 321.799613 -55.911319 
L 330.016248 -55.911319 
L 330.016248 -55.911319 
L 338.232882 -55.911319 
L 338.232882 -55.911319 
L 346.449516 -55.911319 
L 346.449516 -55.911319 
L 354.666151 -55.911319 
L 354.666151 -55.911319 
L 362.882785 -55.911319 
L 362.882785 -55.911319 
L 371.09942 -55.911319 
L 371.09942 -55.911319 
L 379.316054 -55.911319 
L 379.316054 -55.911319 
L 387.532689 -55.911319 
L 387.532689 -55.911319 
L 395.749323 -55.911319 
L 395.749323 -55.911319 
L 403.965957 -55.911319 
L 403.965957 -55.911319 
L 412.182592 -55.911319 
L 412.182592 -55.911319 
L 416.290909 -55.911319 
L 416.290909 -55.911319 
L 416.290909 -55.911319 
L 412.182592 -55.911319 
L 412.182592 -55.911319 
L 403.965957 -55.911319 
L 403.965957 -55.911319 
L 395.749323 -55.911319 
L 395.749323 -55.911319 
L 387.532689 -55.911319 
L 387.532689 -55.911319 
L 379.316054 -55.911319 
L 379.316054 -55.911319 
L 371.09942 -55.911319 
L 371.09942 -55.911319 
L 362.882785 -55.911319 
L 362.882785 -55.911319 
L 354.666151 -55.911319 
L 354.666151 -55.911319 
L 346.449516 -55.911319 
L 346.449516 -55.911319 
L 338.232882 -55.911319 
L 338.232882 -55.911319 
L 330.016248 -55.911319 
L 330.016248 -55.911319 
L 321.799613 -55.911319 
L 321.799613 -55.911319 
L 313.582979 -55.911319 
L 313.582979 -55.911319 
L 305.366344 -55.911319 
L 305.366344 -55.911319 
L 297.14971 -55.911319 
L 297.14971 -55.911319 
L 288.933075 -55.911319 
L 288.933075 -55.911319 
L 280.716441 -55.911319 
L 280.716441 -55.911319 
L 272.499807 -55.911319 
L 272.499807 -55.911319 
L 264.283172 -55.911319 
L 264.283172 -55.911319 
L 256.066538 -55.911319 
L 256.066538 -55.911319 
L 247.849903 -55.911319 
L 247.849903 -55.911319 
L 239.633269 -55.911319 
L 239.633269 -55.911319 
L 231.416634 -55.911319 
L 231.416634 -55.911319 
L 223.2 -55.911319 
L 223.2 -55.911319 
L 214.983366 -55.911319 
L 214.983366 -55.911319 
L 206.766731 -55.911319 
L 206.766731 -55.911319 
L 198.550097 -55.911319 
L 198.550097 -55.911319 
L 190.333462 -55.911319 
L 190.333462 -55.911319 
L 182.116828 -55.911319 
L 182.116828 -55.911319 
L 173.900193 -55.911319 
L 173.900193 -55.911319 
L 165.683559 -55.911319 
L 165.683559 -55.911319 
L 157.466925 -55.911319 
L 157.466925 -55.911319 
L 149.25029 -55.911319 
L 149.25029 -55.911319 
L 141.033656 -55.911319 
L 141.033656 -55.911319 
L 132.817021 -55.911319 
L 132.817021 -55.911319 
L 124.600387 -55.911319 
L 124.600387 -55.911319 
L 116.383752 -55.911319 
L 116.383752 -55.911319 
L 108.167118 -55.911319 
L 108.167118 -55.911319 
L 99.950484 -55.911319 
L 99.950484 -55.911319 
L 91.733849 -55.911319 
L 91.733849 -55.911319 
L 83.517215 -55.911319 
L 83.517215 -55.911319 
L 75.30058 -55.911319 
L 75.30058 -55.911319 
L 67.083946 -55.911319 
L 67.083946 -55.911319 
L 58.867311 -55.911319 
L 58.867311 -55.911319 
L 50.650677 -55.911319 
L 50.650677 -55.911319 
L 42.434043 -55.911319 
L 42.434043 -55.911319 
L 34.217408 -55.911319 
L 34.217408 -55.911319 
L 30.109091 -55.911319 
z
" style="stroke: #ef4444"/>
    </defs>
    <g clip-path="url(#p00c1fa6805)">
     <use xlink:href="#m88762e584e" x="0" y="259.2" style="fill: #ef4444; stroke: #ef4444"/>
    </g>
   </g>
   <g id="matplotlib.axis_1">
    <g id="xtick_1">
     <g id="line2d_1">
      <defs>
       <path id="m56b2ad7506" d="M 0 0 
L 0 3.5 
" style="stroke: #000000; stroke-width: 0.8"/>
      </defs>
      <g>
       <use xlink:href="#m56b2ad7506" x="30.109091" y="213.64" style="stroke: #000000; stroke-width: 0.8"/>
      </g>
     </g>
     <g id="text_1">
      <!-- 1月 -->
      <g transform="translate(21.959872 228.130625) scale(0.1 -0.1)">
       <defs>
        <path id="IPAexGothic-31" d="M 2463 63 
L 1900 63 
L 1900 4103 
Q 1372 3922 788 3797 
L 684 4231 
Q 1519 4441 2106 4731 
L 2463 4731 
L 2463 63 
z
" transform="scale(0.015625)"/>
        <path id="IPAexGothic-6708" d="M 5044 4984 
L 5044 256 
Q 5044 -78 4869 -203 
Q 4734 -300 4403 -300 
Q 3894 -300 3253 -247 
L 3169 244 
Q 3750 159 4294 159 
Q 4503 159 4547 263 
Q 4569 313 4569 438 
L 4569 1672 
L 1953 1672 
Q 1906 956 1716 475 
Q 1538 6 1116 -472 
L 744 -63 
Q 1259 475 1403 1244 
Q 1500 1772 1500 2650 
L 1500 4984 
L 5044 4984 
z
M 1981 4569 
L 1981 3541 
L 4569 3541 
L 4569 4569 
L 1981 4569 
z
M 1981 3144 
L 1981 2556 
Q 1981 2288 1975 2147 
L 1975 2069 
L 4569 2069 
L 4569 3144 
L 1981 3144 
z
" transform="scale(0.015625)"/>
       </defs>
       <use xlink:href="#IPAexGothic-31"/>
       <use xlink:href="#IPAexGothic-6708" transform="translate(62.988281 0)"/>
      </g>
     </g>
    </g>
    <g id="xtick_2">
     <g id="line2d_2">
      <g>
       <use xlink:href="#m56b2ad7506" x="79.408897" y="213.64" style="stroke: #000000; stroke-width: 0.8"/>
      </g>
     </g>
     <g id="text_2">
      <!-- 2月 -->
      <g transform="translate(71.259679 228.130625) scale(0.1 -0.1)">
       <defs>
        <path id="IPAexGothic-32" d="M 3659 63 
L 447 63 
L 447 594 
Q 825 1475 1894 2203 
L 2072 2322 
Q 2619 2697 2791 2906 
Q 2988 3153 2988 3444 
Q 2988 3772 2756 4003 
Q 2500 4259 2084 4259 
Q 1250 4259 991 3328 
L 497 3506 
Q 853 4725 2116 4725 
Q 2806 4725 3216 4316 
Q 3575 3947 3575 3425 
Q 3575 3038 3344 2722 
Q 3131 2416 2366 1938 
L 2231 1856 
Q 1256 1253 978 569 
L 3659 569 
L 3659 63 
z
" transform="scale(0.015625)"/>
       </defs>
       <use xlink:href="#IPAexGothic-32"/>
       <use xlink:href="#IPAexGothic-6708" transform="translate(62.988281 0)"/>
      </g>
     </g>
    </g>
    <g id="xtick_3">
     <g id="line2d_3">
      <g>
       <use xlink:href="#m56b2ad7506" x="128.708704" y="213.64" style="stroke: #000000; stroke-width: 0.8"/>
      </g>
     </g>
     <g id="text_3">
      <!-- 3月 -->
      <g transform="translate(120.559485 228.130625) scale(0.1 -0.1)">
       <defs>
        <path id="IPAexGothic-33" d="M 2381 2419 
Q 3506 2216 3506 1278 
Q 3506 716 3128 356 
Q 2709 -31 1944 -31 
Q 797 -31 288 881 
L 756 1131 
Q 1109 441 1938 441 
Q 2425 441 2694 691 
Q 2950 928 2950 1291 
Q 2950 1719 2566 1978 
Q 2216 2213 1644 2213 
L 1363 2213 
L 1363 2669 
L 1656 2669 
Q 2231 2669 2534 2888 
Q 2859 3119 2859 3509 
Q 2859 3934 2494 4138 
Q 2259 4278 1931 4278 
Q 1238 4278 903 3578 
L 434 3803 
Q 897 4725 1938 4725 
Q 2597 4725 3006 4394 
Q 3416 4069 3416 3534 
Q 3416 3028 3019 2706 
Q 2763 2500 2381 2444 
L 2381 2419 
z
" transform="scale(0.015625)"/>
       </defs>
       <use xlink:href="#IPAexGothic-33"/>
       <use xlink:href="#IPAexGothic-6708" transform="translate(62.988281 0)"/>
      </g>
     </g>
    </g>
    <g id="xtick_4">
     <g id="line2d_4">
      <g>
       <use xlink:href="#m56b2ad7506" x="178.008511" y="213.64" style="stroke: #000000; stroke-width: 0.8"/>
      </g>
     </g>
     <g id="text_4">
      <!-- 4月 -->
      <g transform="translate(169.859292 228.130625) scale(0.1 -0.1)">
       <defs>
        <path id="IPAexGothic-34" d="M 3813 1159 
L 3059 1159 
L 3059 63 
L 2547 63 
L 2547 1159 
L 197 1159 
L 197 1672 
L 2456 4678 
L 3059 4678 
L 3059 1634 
L 3813 1634 
L 3813 1159 
z
M 2578 4109 
L 2559 4109 
Q 2278 3656 2003 3284 
L 759 1634 
L 2547 1634 
L 2547 3144 
Q 2547 3481 2578 4109 
z
" transform="scale(0.015625)"/>
       </defs>
       <use xlink:href="#IPAexGothic-34"/>
       <use xlink:href="#IPAexGothic-6708" transform="translate(62.988281 0)"/>
      </g>
     </g>
    </g>
    <g id="xtick_5">
     <g id="line2d_5">
      <g>
       <use xlink:href="#m56b2ad7506" x="227.308317" y="213.64" style="stroke: #000000; stroke-width: 0.8"/>
      </g>
     </g>
     <g id="text_5">
      <!-- 5月 -->
      <g transform="translate(219.159098 228.130625) scale(0.1 -0.1)">
       <defs>
        <path id="IPAexGothic-35" d="M 1178 2603 
Q 1634 2963 2172 2963 
Q 2816 2963 3241 2528 
Q 3638 2113 3638 1497 
Q 3638 938 3297 513 
Q 2869 -31 2031 -31 
Q 959 -31 469 784 
L 938 1028 
Q 1309 434 2013 434 
Q 2466 434 2769 716 
Q 3081 1013 3081 1503 
Q 3081 1966 2806 2241 
Q 2519 2528 2056 2528 
Q 1406 2528 1072 2028 
L 591 2091 
L 884 4634 
L 3406 4634 
L 3406 4153 
L 1341 4153 
L 1134 2603 
L 1178 2603 
z
" transform="scale(0.015625)"/>
       </defs>
       <use xlink:href="#IPAexGothic-35"/>
       <use xlink:href="#IPAexGothic-6708" transform="translate(62.988281 0)"/>
      </g>
     </g>
    </g>
    <g id="xtick_6">
     <g id="line2d_6">
      <g>
       <use xlink:href="#m56b2ad7506" x="276.608124" y="213.64" style="stroke: #000000; stroke-width: 0.8"/>
      </g>
     </g>
     <g id="text_6">
      <!-- 6月 -->
      <g transform="translate(268.458905 228.130625) scale(0.1 -0.1)">
       <defs>
        <path id="IPAexGothic-36" d="M 1056 2328 
Q 1509 2981 2234 2981 
Q 2906 2981 3316 2513 
Q 3675 2106 3675 1522 
Q 3675 884 3272 434 
Q 2853 -31 2178 -31 
Q 1375 -31 922 581 
Q 481 1178 481 2228 
Q 481 3425 1013 4109 
Q 1494 4725 2272 4725 
Q 3191 4725 3609 4025 
L 3150 3775 
Q 2894 4266 2300 4266 
Q 1119 4266 1031 2328 
L 1056 2328 
z
M 2141 2547 
Q 1684 2547 1384 2206 
Q 1116 1900 1116 1541 
Q 1116 1156 1353 844 
Q 1672 428 2159 428 
Q 2669 428 2941 844 
Q 3125 1128 3125 1503 
Q 3125 1944 2881 2228 
Q 2600 2547 2141 2547 
z
" transform="scale(0.015625)"/>
       </defs>
       <use xlink:href="#IPAexGothic-36"/>
       <use xlink:href="#IPAexGothic-6708" transform="translate(62.988281 0)"/>
      </g>
     </g>
    </g>
    <g id="xtick_7">
     <g id="line2d_7">
      <g>
       <use xlink:href="#m56b2ad7506" x="325.90793" y="213.64" style="stroke: #000000; stroke-width: 0.8"/>
      </g>
     </g>
     <g id="text_7">
      <!-- 7月 -->
      <g transform="translate(317.758712 228.130625) scale(0.1 -0.1)">
       <defs>
        <path id="IPAexGothic-37" d="M 3597 4263 
Q 2238 2106 1778 63 
L 1131 63 
Q 1581 1834 2950 4128 
L 428 4128 
L 428 4634 
L 3597 4634 
L 3597 4263 
z
" transform="scale(0.015625)"/>
       </defs>
       <use xlink:href="#IPAexGothic-37"/>
       <use xlink:href="#IPAexGothic-6708" transform="translate(62.988281 0)"/>
      </g>
     </g>
    </g>
    <g id="xtick_8">
     <g id="line2d_8">
      <g>
       <use xlink:href="#m56b2ad7506" x="375.207737" y="213.64" style="stroke: #000000; stroke-width: 0.8"/>
      </g>
     </g>
     <g id="text_8">
      <!-- 8月 -->
      <g transform="translate(367.058518 228.130625) scale(0.1 -0.1)">
       <defs>
        <path id="IPAexGothic-38" d="M 2541 2425 
Q 3700 2031 3700 1197 
Q 3700 541 3100 197 
Q 2663 -56 2016 -56 
Q 1366 -56 928 197 
Q 347 531 347 1178 
Q 347 1988 1409 2381 
L 1409 2400 
Q 481 2734 481 3509 
Q 481 4100 981 4456 
Q 1406 4756 2019 4756 
Q 2703 4756 3131 4403 
Q 3553 4069 3553 3566 
Q 3553 2706 2541 2444 
L 2541 2425 
z
M 2022 2625 
Q 2997 2856 2997 3528 
Q 2997 3916 2675 4150 
Q 2413 4347 2016 4347 
Q 1606 4347 1331 4128 
Q 1050 3897 1050 3522 
Q 1050 3150 1350 2925 
Q 1494 2809 1722 2722 
Q 1984 2616 2022 2625 
z
M 1978 2209 
Q 922 1931 922 1216 
Q 922 775 1313 556 
Q 1606 391 2009 391 
Q 2575 391 2881 697 
Q 3106 922 3106 1250 
Q 3106 1594 2794 1850 
Q 2609 1994 2350 2100 
Q 2047 2222 1978 2209 
z
" transform="scale(0.015625)"/>
       </defs>
       <use xlink:href="#IPAexGothic-38"/>
       <use xlink:href="#IPAexGothic-6708" transform="translate(62.988281 0)"/>
      </g>
     </g>
    </g>
    <g id="text_9">
     <!-- 週 -->
     <g transform="translate(216 244.817125) scale(0.144 -0.144)">
      <defs>
       <path id="IPAexGothic-9031" d="M 1703 728 
Q 1944 394 2356 247 
Q 2788 94 3891 94 
Q 4791 94 6119 172 
Q 6019 -84 5978 -300 
Q 4853 -341 4275 -341 
Q 2825 -341 2259 -153 
Q 1791 9 1519 391 
Q 1175 -28 647 -453 
L 366 13 
Q 916 350 1263 659 
L 1263 2303 
L 378 2303 
L 378 2731 
L 1703 2731 
L 1703 728 
z
M 4916 2509 
L 4916 1209 
L 3650 1209 
L 3650 891 
L 3253 891 
L 3253 2509 
L 4916 2509 
z
M 4519 2169 
L 3650 2169 
L 3650 1541 
L 4519 1541 
L 4519 2169 
z
M 5788 5056 
L 5788 863 
Q 5788 403 5294 403 
Q 4950 403 4616 441 
L 4544 878 
Q 4866 813 5159 813 
Q 5372 813 5372 997 
L 5372 4672 
L 2809 4672 
L 2809 3053 
Q 2809 1206 2375 403 
L 2009 716 
Q 2394 1438 2394 2753 
L 2394 5056 
L 5788 5056 
z
M 4269 4019 
L 5113 4019 
L 5113 3659 
L 4269 3659 
L 4269 3200 
L 5209 3200 
L 5209 2853 
L 2944 2853 
L 2944 3200 
L 3866 3200 
L 3866 3659 
L 3072 3659 
L 3072 4019 
L 3866 4019 
L 3866 4513 
L 4269 4513 
L 4269 4019 
z
M 1516 3775 
Q 1034 4359 563 4738 
L 878 5056 
Q 1484 4572 1856 4122 
L 1516 3775 
z
" transform="scale(0.015625)"/>
      </defs>
      <use xlink:href="#IPAexGothic-9031"/>
     </g>
    </g>
   </g>
   <g id="matplotlib.axis_2"/>
   <g id="line2d_9">
    <path d="M 10.8 122.134194 
L 435.6 122.134194 
" clip-path="url(#p00c1fa6805)" style="fill: none; stroke: #475569; stroke-linecap: square"/>
   </g>
   <g id="text_10">
    <!-- 週次セッション数のホライゾンチャート（基準値からの偏差） -->
    <g transform="translate(-18.72 24.48) scale(0.1728 -0.1728)">
     <defs>
      <path id="IPAexGothic-6b21" d="M 3519 3750 
L 2950 3750 
Q 2678 3041 2231 2444 
L 1853 2772 
Q 2600 3756 2878 5184 
L 3353 5094 
Q 3241 4603 3103 4166 
L 5541 4166 
L 5841 3928 
Q 5406 2903 4906 2222 
L 4484 2481 
Q 4963 3072 5247 3750 
L 3994 3750 
L 3994 3263 
Q 3994 1384 6028 91 
L 5681 -353 
Q 4166 622 3794 2194 
Q 3669 1413 3391 922 
Q 2903 72 1931 -488 
L 1613 -72 
Q 3519 888 3519 3359 
L 3519 3750 
z
M 1438 3200 
Q 959 3884 509 4294 
L 881 4628 
Q 1413 4153 1841 3597 
L 1438 3200 
z
M 325 250 
Q 984 938 1600 2003 
L 1950 1656 
Q 1319 538 697 -184 
L 325 250 
z
" transform="scale(0.015625)"/>
      <path id="IPAexGothic-30bb" d="M 2059 4878 
L 2584 4878 
L 2584 3397 
L 5291 3731 
L 5606 3444 
Q 4838 2313 4006 1556 
L 3569 1875 
Q 4297 2459 4844 3231 
L 2584 2931 
L 2584 978 
Q 2584 734 2738 669 
Q 2922 584 3616 584 
Q 4419 584 5425 697 
L 5444 172 
Q 4563 103 3844 103 
Q 2678 103 2359 256 
Q 2059 403 2059 863 
L 2059 2859 
L 638 2675 
L 588 3150 
L 2059 3334 
L 2059 4878 
z
" transform="scale(0.015625)"/>
      <path id="IPAexGothic-30c3" d="M 1775 1984 
Q 1553 2666 1275 3175 
L 1716 3391 
Q 2034 2866 2247 2209 
L 1775 1984 
z
M 3003 2297 
Q 2813 2978 2522 3469 
L 2978 3681 
Q 3291 3166 3484 2522 
L 3003 2297 
z
M 1928 372 
Q 3094 744 3731 1569 
Q 4275 2263 4469 3525 
L 4975 3406 
Q 4734 1975 4016 1119 
Q 3406 391 2266 -44 
L 1928 372 
z
" transform="scale(0.015625)"/>
      <path id="IPAexGothic-30b7" d="M 2828 3531 
Q 2219 4056 1613 4359 
L 1913 4781 
Q 2503 4491 3169 3981 
L 2828 3531 
z
M 1163 500 
Q 3944 1094 5338 3525 
L 5688 3128 
Q 4297 700 1484 0 
L 1163 500 
z
M 2072 2278 
Q 1466 2800 831 3109 
L 1131 3541 
Q 1806 3213 2406 2725 
L 2072 2278 
z
" transform="scale(0.015625)"/>
      <path id="IPAexGothic-30e7" d="M 1625 3469 
L 4653 3469 
L 4653 0 
L 4172 0 
L 4172 294 
L 1553 294 
L 1553 753 
L 4172 753 
L 4172 1734 
L 1766 1734 
L 1766 2169 
L 4172 2169 
L 4172 3028 
L 1625 3028 
L 1625 3469 
z
" transform="scale(0.015625)"/>
      <path id="IPAexGothic-30f3" d="M 2444 3084 
Q 1816 3656 1056 4084 
L 1381 4519 
Q 2063 4191 2816 3559 
L 2444 3084 
z
M 1100 609 
Q 3984 1106 5216 3828 
L 5619 3469 
Q 4413 794 1434 103 
L 1100 609 
z
" transform="scale(0.015625)"/>
      <path id="IPAexGothic-6570" d="M 2847 1553 
Q 2741 1006 2425 534 
Q 2625 441 3091 203 
L 2809 -188 
Q 2541 0 2144 209 
Q 1569 -291 703 -500 
L 422 -125 
Q 1263 19 1747 406 
Q 1222 650 734 816 
Q 975 1172 1147 1503 
L 1172 1553 
L 359 1553 
L 359 1925 
L 1344 1925 
Q 1406 2066 1569 2475 
L 1691 2450 
L 1691 3372 
Q 1250 2738 550 2303 
L 275 2663 
Q 1019 3013 1528 3641 
L 378 3641 
L 378 4006 
L 1691 4006 
L 1691 5313 
L 2113 5313 
L 2113 4006 
L 3297 4006 
L 3297 3641 
L 2113 3641 
L 2113 3513 
Q 2659 3291 3175 2963 
L 2956 2584 
Q 2553 2922 2113 3159 
L 2113 2372 
L 1966 2372 
Q 1928 2288 1872 2141 
Q 1806 1975 1784 1925 
L 3378 1925 
L 3378 1553 
L 2847 1553 
z
M 2419 1553 
L 1613 1553 
Q 1478 1269 1313 997 
Q 1559 909 2047 703 
Q 2313 1047 2419 1553 
z
M 4363 1163 
Q 3953 1781 3738 2638 
Q 3575 2281 3428 2016 
L 3103 2406 
Q 3675 3444 3916 5291 
L 4363 5200 
Q 4284 4666 4197 4197 
L 6009 4197 
L 6009 3775 
L 5503 3775 
Q 5397 2275 4869 1191 
Q 5419 503 6144 75 
L 5822 -378 
Q 5188 106 4631 788 
Q 4113 34 3341 -463 
L 3031 -78 
Q 3888 406 4363 1163 
z
M 4588 1594 
Q 4938 2388 5059 3775 
L 4100 3775 
Q 4041 3519 3972 3288 
Q 3981 3250 3991 3194 
Q 4175 2256 4588 1594 
z
M 1003 4116 
Q 878 4544 638 4934 
L 1053 5094 
Q 1247 4788 1438 4269 
L 1003 4116 
z
M 2316 4269 
Q 2550 4688 2688 5131 
L 3128 4997 
Q 2966 4588 2675 4128 
L 2316 4269 
z
" transform="scale(0.015625)"/>
      <path id="IPAexGothic-306e" d="M 3119 469 
Q 5275 766 5275 2425 
Q 5275 3453 4413 3925 
Q 4041 4116 3547 4159 
Q 3394 2525 2850 1400 
Q 2322 306 1722 306 
Q 1384 306 1084 666 
Q 609 1244 609 2003 
Q 609 3025 1397 3794 
Q 2184 4563 3431 4563 
Q 4306 4563 4928 4122 
Q 5813 3506 5813 2425 
Q 5813 438 3431 6 
L 3119 469 
z
M 3053 4147 
Q 2378 4044 1891 3641 
Q 1097 2981 1097 1991 
Q 1097 1366 1434 978 
Q 1581 813 1719 813 
Q 2022 813 2416 1625 
Q 2909 2638 3053 4147 
z
" transform="scale(0.015625)"/>
      <path id="IPAexGothic-30db" d="M 2972 4978 
L 3478 4978 
L 3478 3794 
L 5584 3794 
L 5584 3341 
L 3478 3341 
L 3478 397 
Q 3478 -147 2844 -147 
Q 2428 -147 2019 -72 
L 1909 459 
Q 2300 359 2716 359 
Q 2972 359 2972 616 
L 2972 3341 
L 822 3341 
L 822 3794 
L 2972 3794 
L 2972 4978 
z
M 603 922 
Q 988 1294 1222 1694 
Q 1438 2063 1600 2572 
L 2050 2369 
Q 1859 1766 1588 1325 
Q 1372 975 1000 556 
L 603 922 
z
M 5313 709 
Q 4847 1700 4309 2388 
L 4719 2656 
Q 5269 2016 5775 1031 
L 5313 709 
z
" transform="scale(0.015625)"/>
      <path id="IPAexGothic-30e9" d="M 1447 4709 
L 4922 4709 
L 4922 4234 
L 1447 4234 
L 1447 4709 
z
M 897 3303 
L 5172 3303 
L 5478 3013 
Q 5069 1669 4219 875 
Q 3475 181 2306 -181 
L 1972 294 
Q 4150 784 4834 2828 
L 897 2828 
L 897 3303 
z
" transform="scale(0.015625)"/>
      <path id="IPAexGothic-30a4" d="M 3131 -231 
L 3131 2875 
Q 2091 2088 1106 1656 
L 781 2059 
Q 3016 3000 4469 4916 
L 4916 4641 
Q 4384 3938 3675 3316 
L 3675 -231 
L 3131 -231 
z
" transform="scale(0.015625)"/>
      <path id="IPAexGothic-30be" d="M 1822 2463 
Q 1428 3416 997 4097 
L 1509 4347 
Q 1931 3694 2353 2753 
L 1822 2463 
z
M 5131 4300 
Q 4950 4775 4600 5241 
L 4978 5403 
Q 5300 5022 5522 4475 
L 5131 4300 
z
M 1688 184 
Q 4122 1188 4728 4213 
L 5278 4050 
Q 4597 922 2078 -256 
L 1688 184 
z
M 5841 4481 
Q 5569 5119 5316 5422 
L 5669 5594 
Q 5972 5216 6219 4691 
L 5841 4481 
z
" transform="scale(0.015625)"/>
      <path id="IPAexGothic-30c1" d="M 3088 2853 
L 3088 3981 
Q 2359 3847 1531 3797 
L 1288 4238 
Q 3200 4344 4553 4872 
L 4909 4456 
Q 4244 4216 3606 4078 
L 3606 2913 
L 5806 2913 
L 5806 2459 
L 3600 2459 
Q 3559 1422 3188 850 
Q 2722 138 1738 -256 
L 1347 153 
Q 2319 500 2709 1081 
Q 3031 1563 3081 2400 
L 597 2400 
L 597 2853 
L 3088 2853 
z
" transform="scale(0.015625)"/>
      <path id="IPAexGothic-30e3" d="M 2559 3903 
L 2803 2816 
L 4863 3169 
L 5191 2894 
Q 4672 1875 4103 1203 
L 3666 1447 
Q 4175 2013 4525 2688 
L 2900 2388 
L 3450 -116 
L 2969 -231 
L 2419 2297 
L 1172 2069 
L 1075 2516 
L 2328 2731 
L 2094 3809 
L 2559 3903 
z
" transform="scale(0.015625)"/>
      <path id="IPAexGothic-30fc" d="M 588 2688 
L 5809 2688 
L 5809 2175 
L 588 2175 
L 588 2688 
z
" transform="scale(0.015625)"/>
      <path id="IPAexGothic-30c8" d="M 2284 4997 
L 2803 4997 
L 2803 3206 
Q 4088 2619 5216 1888 
L 4878 1369 
Q 3819 2175 2803 2688 
L 2803 -184 
L 2284 -184 
L 2284 4997 
z
" transform="scale(0.015625)"/>
      <path id="IPAexGothic-ff08" d="M 5419 -434 
Q 4197 769 4197 2438 
Q 4197 4097 5419 5300 
L 5919 5300 
Q 4678 4078 4678 2425 
Q 4678 788 5919 -434 
L 5419 -434 
z
" transform="scale(0.015625)"/>
      <path id="IPAexGothic-57fa" d="M 4638 1816 
Q 5156 1250 6091 897 
L 5772 513 
Q 4716 1006 4153 1816 
L 2244 1816 
Q 2009 1413 1606 1056 
L 2944 1056 
L 2944 1559 
L 3403 1559 
L 3403 1056 
L 4800 1056 
L 4800 697 
L 3403 697 
L 3403 84 
L 5759 84 
L 5759 -294 
L 691 -294 
L 691 84 
L 2944 84 
L 2944 697 
L 1594 697 
L 1594 1044 
Q 1184 694 619 416 
L 300 756 
Q 1278 1131 1772 1816 
L 384 1816 
L 384 2181 
L 1772 2181 
L 1772 4269 
L 641 4269 
L 641 4628 
L 1772 4628 
L 1772 5313 
L 2225 5313 
L 2225 4628 
L 4128 4628 
L 4128 5313 
L 4581 5313 
L 4581 4628 
L 5759 4628 
L 5759 4269 
L 4581 4269 
L 4581 2181 
L 6016 2181 
L 6016 1816 
L 4638 1816 
z
M 4128 4269 
L 2225 4269 
L 2225 3809 
L 4128 3809 
L 4128 4269 
z
M 4128 3463 
L 2225 3463 
L 2225 3003 
L 4128 3003 
L 4128 3463 
z
M 4128 2656 
L 2225 2656 
L 2225 2181 
L 4128 2181 
L 4128 2656 
z
" transform="scale(0.015625)"/>
      <path id="IPAexGothic-6e96" d="M 4341 4141 
L 4341 3694 
L 5506 3694 
L 5506 3353 
L 4341 3353 
L 4341 2906 
L 5506 2906 
L 5506 2566 
L 4341 2566 
L 4341 2088 
L 5922 2088 
L 5922 1722 
L 3413 1722 
L 3413 1100 
L 6081 1100 
L 6081 703 
L 3413 703 
L 3413 -450 
L 2938 -450 
L 2938 703 
L 319 703 
L 319 1100 
L 2938 1100 
L 2938 1722 
L 2450 1722 
L 2450 3644 
Q 2288 3441 2047 3188 
L 1759 3528 
Q 2531 4259 2841 5288 
L 3297 5166 
Q 3156 4800 3003 4500 
L 3969 4500 
Q 4163 4869 4284 5269 
L 4756 5159 
Q 4572 4759 4409 4500 
L 5794 4500 
L 5794 4141 
L 4341 4141 
z
M 3931 4141 
L 2878 4141 
L 2878 3694 
L 3931 3694 
L 3931 4141 
z
M 2878 2088 
L 3931 2088 
L 3931 2566 
L 2878 2566 
L 2878 2088 
z
M 2878 2906 
L 3931 2906 
L 3931 3353 
L 2878 3353 
L 2878 2906 
z
M 497 1778 
Q 1053 2316 1625 3178 
L 1913 2897 
Q 1484 2128 875 1431 
L 497 1778 
z
M 1559 4134 
Q 1109 4519 678 4769 
L 941 5131 
Q 1494 4831 1834 4519 
L 1559 4134 
z
M 1297 3141 
Q 997 3388 397 3763 
L 631 4122 
Q 1153 3847 1547 3538 
L 1297 3141 
z
" transform="scale(0.015625)"/>
      <path id="IPAexGothic-5024" d="M 4172 3675 
L 5453 3675 
L 5453 684 
L 3019 684 
L 3019 3675 
L 3750 3675 
Q 3788 3884 3825 4153 
L 2141 4153 
L 2141 4544 
L 3884 4544 
Q 3922 4844 3966 5325 
L 4434 5272 
L 4388 4953 
Q 4331 4578 4331 4544 
L 5863 4544 
L 5863 4153 
L 4269 4153 
Q 4200 3781 4172 3675 
z
M 5038 3316 
L 3434 3316 
L 3434 2803 
L 5038 2803 
L 5038 3316 
z
M 3434 2450 
L 3434 1941 
L 5038 1941 
L 5038 2450 
L 3434 2450 
z
M 3434 1588 
L 3434 1044 
L 5038 1044 
L 5038 1588 
L 3434 1588 
z
M 1509 3669 
L 1509 -447 
L 1069 -447 
L 1069 2725 
Q 856 2338 531 1875 
L 288 2266 
Q 1163 3531 1541 5325 
L 1975 5222 
Q 1791 4378 1509 3669 
z
M 2488 244 
L 6031 244 
L 6031 -153 
L 2488 -153 
L 2488 -447 
L 2059 -447 
L 2059 3213 
L 2488 3213 
L 2488 244 
z
" transform="scale(0.015625)"/>
      <path id="IPAexGothic-304b" d="M 659 3384 
Q 1434 3503 2113 3581 
Q 2313 4341 2394 4972 
L 2900 4875 
Q 2759 4147 2619 3628 
L 2719 3634 
Q 2894 3641 3041 3641 
Q 4072 3641 4072 2369 
Q 4072 1128 3700 384 
Q 3478 -56 3003 -56 
Q 2591 -56 2113 231 
L 2138 775 
Q 2631 444 2925 444 
Q 3169 444 3297 706 
Q 3566 1294 3566 2388 
Q 3566 3219 3016 3219 
Q 2825 3219 2497 3194 
Q 2388 2763 2113 2047 
Q 1634 797 1119 -38 
L 678 244 
Q 1356 1238 1863 2750 
Q 1888 2819 1991 3128 
Q 1594 3081 769 2916 
L 659 3384 
z
M 5644 1753 
Q 5072 3025 4238 3916 
L 4641 4184 
Q 5494 3275 6081 2094 
L 5644 1753 
z
" transform="scale(0.015625)"/>
      <path id="IPAexGothic-3089" d="M 3700 3928 
Q 2897 4478 2156 4750 
L 2381 5166 
Q 3147 4891 3956 4384 
L 3700 3928 
z
M 1344 1281 
Q 1450 2544 1747 4038 
L 2234 3928 
Q 1994 2856 1888 1844 
Q 2897 2688 3963 2688 
Q 4531 2688 4909 2450 
Q 5441 2122 5441 1516 
Q 5441 669 4569 213 
Q 3856 -169 2584 -238 
L 2363 250 
Q 3484 250 4213 588 
Q 4909 922 4909 1509 
Q 4909 1856 4647 2059 
Q 4366 2266 3897 2266 
Q 2853 2266 1766 1141 
L 1344 1281 
z
" transform="scale(0.015625)"/>
      <path id="IPAexGothic-504f" d="M 1503 3653 
L 1503 -447 
L 1063 -447 
L 1063 2700 
Q 816 2247 538 1863 
L 288 2253 
Q 1175 3556 1528 5325 
L 1963 5222 
Q 1800 4438 1503 3653 
z
M 5681 4116 
L 5681 2859 
L 2616 2859 
L 2616 2769 
Q 2616 2603 2609 2406 
L 5863 2406 
L 5863 13 
Q 5863 -213 5772 -300 
Q 5688 -384 5466 -384 
Q 5281 -384 5138 -359 
L 5081 72 
Q 5216 31 5338 31 
Q 5447 31 5447 191 
L 5447 916 
L 4856 916 
L 4856 -281 
L 4459 -281 
L 4459 916 
L 3922 916 
L 3922 -281 
L 3525 -281 
L 3525 916 
L 2988 916 
L 2988 -447 
L 2578 -447 
L 2578 1997 
L 2566 1997 
Q 2441 594 1881 -347 
L 1591 31 
Q 1981 672 2097 1466 
Q 2188 2072 2188 2950 
L 2188 4116 
L 5681 4116 
z
M 5253 3763 
L 2616 3763 
L 2616 3213 
L 5253 3213 
L 5253 3763 
z
M 2988 2053 
L 2988 1253 
L 3525 1253 
L 3525 2053 
L 2988 2053 
z
M 5447 1253 
L 5447 2053 
L 4856 2053 
L 4856 1253 
L 5447 1253 
z
M 3922 2053 
L 3922 1253 
L 4459 1253 
L 4459 2053 
L 3922 2053 
z
M 1997 4966 
L 5978 4966 
L 5978 4594 
L 1997 4594 
L 1997 4966 
z
" transform="scale(0.015625)"/>
      <path id="IPAexGothic-5dee" d="M 2188 4481 
Q 2013 4781 1766 5084 
L 2194 5275 
Q 2459 4913 2669 4481 
L 3659 4481 
Q 3931 4881 4100 5294 
L 4575 5122 
Q 4353 4766 4150 4481 
L 5725 4481 
L 5725 4103 
L 3403 4103 
L 3403 3519 
L 5431 3519 
L 5431 3147 
L 3403 3147 
L 3403 2534 
L 5975 2534 
L 5975 2138 
L 2341 2138 
Q 2225 1813 2041 1466 
L 5431 1466 
L 5431 1081 
L 3813 1081 
L 3813 103 
L 5913 103 
L 5913 -294 
L 1338 -294 
L 1338 103 
L 3344 103 
L 3344 1081 
L 1803 1081 
Q 1331 400 588 -172 
L 281 200 
Q 1394 966 1875 2138 
L 416 2138 
L 416 2534 
L 2950 2534 
L 2950 3147 
L 959 3147 
L 959 3519 
L 2950 3519 
L 2950 4103 
L 666 4103 
L 666 4481 
L 2188 4481 
z
" transform="scale(0.015625)"/>
      <path id="IPAexGothic-ff09" d="M 481 -434 
Q 1722 788 1722 2431 
Q 1722 4066 481 5300 
L 981 5300 
Q 2203 4097 2203 2431 
Q 2203 769 981 -434 
L 481 -434 
z
" transform="scale(0.015625)"/>
     </defs>
     <use xlink:href="#IPAexGothic-9031"/>
     <use xlink:href="#IPAexGothic-6b21" transform="translate(100 0)"/>
     <use xlink:href="#IPAexGothic-30bb" transform="translate(200 0)"/>
     <use xlink:href="#IPAexGothic-30c3" transform="translate(300 0)"/>
     <use xlink:href="#IPAexGothic-30b7" transform="translate(400 0)"/>
     <use xlink:href="#IPAexGothic-30e7" transform="translate(500 0)"/>
     <use xlink:href="#IPAexGothic-30f3" transform="translate(600 0)"/>
     <use xlink:href="#IPAexGothic-6570" transform="translate(700 0)"/>
     <use xlink:href="#IPAexGothic-306e" transform="translate(800 0)"/>
     <use xlink:href="#IPAexGothic-30db" transform="translate(900 0)"/>
     <use xlink:href="#IPAexGothic-30e9" transform="translate(1000 0)"/>
     <use xlink:href="#IPAexGothic-30a4" transform="translate(1100 0)"/>
     <use xlink:href="#IPAexGothic-30be" transform="translate(1200 0)"/>
     <use xlink:href="#IPAexGothic-30f3" transform="translate(1300 0)"/>
     <use xlink:href="#IPAexGothic-30c1" transform="translate(1400 0)"/>
     <use xlink:href="#IPAexGothic-30e3" transform="translate(1500 0)"/>
     <use xlink:href="#IPAexGothic-30fc" transform="translate(1600 0)"/>
     <use xlink:href="#IPAexGothic-30c8" transform="translate(1700 0)"/>
     <use xlink:href="#IPAexGothic-ff08" transform="translate(1800 0)"/>
     <use xlink:href="#IPAexGothic-57fa" transform="translate(1900 0)"/>
     <use xlink:href="#IPAexGothic-6e96" transform="translate(2000 0)"/>
     <use xlink:href="#IPAexGothic-5024" transform="translate(2100 0)"/>
     <use xlink:href="#IPAexGothic-304b" transform="translate(2200 0)"/>
     <use xlink:href="#IPAexGothic-3089" transform="translate(2300 0)"/>
     <use xlink:href="#IPAexGothic-306e" transform="translate(2400 0)"/>
     <use xlink:href="#IPAexGothic-504f" transform="translate(2500 0)"/>
     <use xlink:href="#IPAexGothic-5dee" transform="translate(2600 0)"/>
     <use xlink:href="#IPAexGothic-ff09" transform="translate(2700 0)"/>
    </g>
   </g>
  </g>
 </g>
 <defs>
  <clipPath id="p00c1fa6805">
   <rect x="10.8" y="30.48" width="424.8" height="183.16"/>
  </clipPath>
 </defs>
</svg>
