<?xml version="1.0" encoding="utf-8" standalone="no"?>
<!DOCTYPE svg PUBLIC "-//W3C//DTD SVG 1.1//EN"
  "http://www.w3.org/Graphics/SVG/1.1/DTD/svg11.dtd">
<svg xmlns:xlink="http://www.w3.org/1999/xlink" width="460.8pt" height="259.2pt" viewBox="0 0 460.8 259.2" xmlns="http://www.w3.org/2000/svg" version="1.1">
 <metadata>
  <rdf:RDF xmlns:dc="http://purl.org/dc/elements/1.1/" xmlns:cc="http://creativecommons.org/ns#" xmlns:rdf="http://www.w3.org/1999/02/22-rdf-syntax-ns#">
   <cc:Work>
    <dc:type rdf:resource="http://purl.org/dc/dcmitype/StillImage"/>
    <dc:date>2025-10-29T09:07:43.858600</dc:date>
    <dc:format>image/svg+xml</dc:format>
    <dc:creator>
     <cc:Agent>
      <dc:title>Matplotlib v3.10.7, https://matplotlib.org/</dc:title>
     </cc:Agent>
    </dc:creator>
   </cc:Work>
  </rdf:RDF>
 </metadata>
 <defs>
  <style type="text/css">*{stroke-linejoin: round; stroke-linecap: butt}</style>
 </defs>
 <g id="figure_1">
  <g id="patch_1">
   <path d="M 0 259.2 
L 460.8 259.2 
L 460.8 0 
L 0 0 
z
" style="fill: #ffffff"/>
  </g>
  <g id="axes_1">
   <g id="patch_2">
    <path d="M 77.74 213.64 
L 364.5 213.64 
L 364.5 30.48 
L 77.74 30.48 
z
" style="fill: #ffffff"/>
   </g>
   <g id="matplotlib.axis_1">
    <g id="xtick_1">
     <g id="line2d_1">
      <path d="M 106.416 213.64 
L 106.416 30.48 
" clip-path="url(#p43a30c8655)" style="fill: none; stroke: #000000; stroke-opacity: 0.2; stroke-width: 0.5; stroke-linecap: square"/>
     </g>
     <g id="line2d_2">
      <defs>
       <path id="md3d6cba07c" d="M 0 0 
L 0 3.5 
" style="stroke: #000000; stroke-width: 0.8"/>
      </defs>
      <g>
       <use xlink:href="#md3d6cba07c" x="106.416" y="213.64" style="stroke: #000000; stroke-width: 0.8"/>
      </g>
     </g>
     <g id="text_1">
      <!-- 0.0 -->
      <g transform="translate(98.796469 228.130625) scale(0.1 -0.1)">
       <defs>
        <path id="IPAexGothic-30" d="M 2038 4725 
Q 2881 4725 3334 3944 
Q 3694 3325 3694 2344 
Q 3694 1372 3334 741 
Q 2888 -31 2016 -31 
Q 1147 -31 700 741 
Q 341 1372 341 2350 
Q 341 3713 1000 4334 
Q 1419 4725 2038 4725 
z
M 2016 4266 
Q 1516 4266 1228 3759 
Q 934 3247 934 2344 
Q 934 1456 1222 947 
Q 1513 447 2016 447 
Q 2619 447 2909 1153 
Q 3100 1622 3100 2375 
Q 3100 3256 2806 3759 
Q 2509 4266 2016 4266 
z
" transform="scale(0.015625)"/>
        <path id="IPAexGothic-2e" d="M 1184 63 
L 494 63 
L 494 753 
L 1184 753 
L 1184 63 
z
" transform="scale(0.015625)"/>
       </defs>
       <use xlink:href="#IPAexGothic-30"/>
       <use xlink:href="#IPAexGothic-2e" transform="translate(62.988281 0)"/>
       <use xlink:href="#IPAexGothic-30" transform="translate(89.404297 0)"/>
      </g>
     </g>
    </g>
    <g id="xtick_2">
     <g id="line2d_3">
      <path d="M 163.768 213.64 
L 163.768 30.48 
" clip-path="url(#p43a30c8655)" style="fill: none; stroke: #000000; stroke-opacity: 0.2; stroke-width: 0.5; stroke-linecap: square"/>
     </g>
     <g id="line2d_4">
      <g>
       <use xlink:href="#md3d6cba07c" x="163.768" y="213.64" style="stroke: #000000; stroke-width: 0.8"/>
      </g>
     </g>
     <g id="text_2">
      <!-- 0.1 -->
      <g transform="translate(156.148469 228.130625) scale(0.1 -0.1)">
       <defs>
        <path id="IPAexGothic-31" d="M 2463 63 
L 1900 63 
L 1900 4103 
Q 1372 3922 788 3797 
L 684 4231 
Q 1519 4441 2106 4731 
L 2463 4731 
L 2463 63 
z
" transform="scale(0.015625)"/>
       </defs>
       <use xlink:href="#IPAexGothic-30"/>
       <use xlink:href="#IPAexGothic-2e" transform="translate(62.988281 0)"/>
       <use xlink:href="#IPAexGothic-31" transform="translate(89.404297 0)"/>
      </g>
     </g>
    </g>
    <g id="xtick_3">
     <g id="line2d_5">
      <path d="M 221.12 213.64 
L 221.12 30.48 
" clip-path="url(#p43a30c8655)" style="fill: none; stroke: #000000; stroke-opacity: 0.2; stroke-width: 0.5; stroke-linecap: square"/>
     </g>
     <g id="line2d_6">
      <g>
       <use xlink:href="#md3d6cba07c" x="221.12" y="213.64" style="stroke: #000000; stroke-width: 0.8"/>
      </g>
     </g>
     <g id="text_3">
      <!-- 0.2 -->
      <g transform="translate(213.500469 228.130625) scale(0.1 -0.1)">
       <defs>
        <path id="IPAexGothic-32" d="M 3659 63 
L 447 63 
L 447 594 
Q 825 1475 1894 2203 
L 2072 2322 
Q 2619 2697 2791 2906 
Q 2988 3153 2988 3444 
Q 2988 3772 2756 4003 
Q 2500 4259 2084 4259 
Q 1250 4259 991 3328 
L 497 3506 
Q 853 4725 2116 4725 
Q 2806 4725 3216 4316 
Q 3575 3947 3575 3425 
Q 3575 3038 3344 2722 
Q 3131 2416 2366 1938 
L 2231 1856 
Q 1256 1253 978 569 
L 3659 569 
L 3659 63 
z
" transform="scale(0.015625)"/>
       </defs>
       <use xlink:href="#IPAexGothic-30"/>
       <use xlink:href="#IPAexGothic-2e" transform="translate(62.988281 0)"/>
       <use xlink:href="#IPAexGothic-32" transform="translate(89.404297 0)"/>
      </g>
     </g>
    </g>
    <g id="xtick_4">
     <g id="line2d_7">
      <path d="M 278.472 213.64 
L 278.472 30.48 
" clip-path="url(#p43a30c8655)" style="fill: none; stroke: #000000; stroke-opacity: 0.2; stroke-width: 0.5; stroke-linecap: square"/>
     </g>
     <g id="line2d_8">
      <g>
       <use xlink:href="#md3d6cba07c" x="278.472" y="213.64" style="stroke: #000000; stroke-width: 0.8"/>
      </g>
     </g>
     <g id="text_4">
      <!-- 0.3 -->
      <g transform="translate(270.852469 228.130625) scale(0.1 -0.1)">
       <defs>
        <path id="IPAexGothic-33" d="M 2381 2419 
Q 3506 2216 3506 1278 
Q 3506 716 3128 356 
Q 2709 -31 1944 -31 
Q 797 -31 288 881 
L 756 1131 
Q 1109 441 1938 441 
Q 2425 441 2694 691 
Q 2950 928 2950 1291 
Q 2950 1719 2566 1978 
Q 2216 2213 1644 2213 
L 1363 2213 
L 1363 2669 
L 1656 2669 
Q 2231 2669 2534 2888 
Q 2859 3119 2859 3509 
Q 2859 3934 2494 4138 
Q 2259 4278 1931 4278 
Q 1238 4278 903 3578 
L 434 3803 
Q 897 4725 1938 4725 
Q 2597 4725 3006 4394 
Q 3416 4069 3416 3534 
Q 3416 3028 3019 2706 
Q 2763 2500 2381 2444 
L 2381 2419 
z
" transform="scale(0.015625)"/>
       </defs>
       <use xlink:href="#IPAexGothic-30"/>
       <use xlink:href="#IPAexGothic-2e" transform="translate(62.988281 0)"/>
       <use xlink:href="#IPAexGothic-33" transform="translate(89.404297 0)"/>
      </g>
     </g>
    </g>
    <g id="xtick_5">
     <g id="line2d_9">
      <path d="M 335.824 213.64 
L 335.824 30.48 
" clip-path="url(#p43a30c8655)" style="fill: none; stroke: #000000; stroke-opacity: 0.2; stroke-width: 0.5; stroke-linecap: square"/>
     </g>
     <g id="line2d_10">
      <g>
       <use xlink:href="#md3d6cba07c" x="335.824" y="213.64" style="stroke: #000000; stroke-width: 0.8"/>
      </g>
     </g>
     <g id="text_5">
      <!-- 0.4 -->
      <g transform="translate(328.204469 228.130625) scale(0.1 -0.1)">
       <defs>
        <path id="IPAexGothic-34" d="M 3813 1159 
L 3059 1159 
L 3059 63 
L 2547 63 
L 2547 1159 
L 197 1159 
L 197 1672 
L 2456 4678 
L 3059 4678 
L 3059 1634 
L 3813 1634 
L 3813 1159 
z
M 2578 4109 
L 2559 4109 
Q 2278 3656 2003 3284 
L 759 1634 
L 2547 1634 
L 2547 3144 
Q 2547 3481 2578 4109 
z
" transform="scale(0.015625)"/>
       </defs>
       <use xlink:href="#IPAexGothic-30"/>
       <use xlink:href="#IPAexGothic-2e" transform="translate(62.988281 0)"/>
       <use xlink:href="#IPAexGothic-34" transform="translate(89.404297 0)"/>
      </g>
     </g>
    </g>
    <g id="text_6">
     <!-- 改善率（対照比） -->
     <g transform="translate(163.52 244.817125) scale(0.144 -0.144)">
      <defs>
       <path id="IPAexGothic-6539" d="M 2197 2713 
L 1063 2713 
L 1063 881 
Q 1063 678 1159 638 
Q 1256 594 1684 594 
Q 2328 594 2394 747 
Q 2472 891 2491 1431 
L 2944 1325 
L 2938 1222 
Q 2878 559 2741 384 
Q 2556 153 1716 153 
Q 956 153 775 269 
Q 616 372 616 684 
L 616 3109 
L 2197 3109 
L 2197 4391 
L 384 4391 
L 384 4794 
L 2631 4794 
L 2631 2431 
L 2197 2431 
L 2197 2713 
z
M 4244 1191 
Q 3828 1784 3488 2763 
L 3469 2731 
Q 3294 2325 3041 1956 
L 2706 2284 
Q 3384 3228 3634 5284 
L 4097 5209 
Q 4009 4556 3922 4197 
L 5950 4197 
L 5950 3775 
L 5413 3775 
Q 5319 2197 4800 1247 
L 4781 1216 
Q 5325 556 6100 50 
L 5772 -391 
Q 5063 116 4519 806 
Q 3959 38 3000 -494 
L 2681 -97 
Q 3647 325 4244 1191 
z
M 4484 1625 
Q 4856 2384 4953 3731 
Q 4953 3763 4959 3775 
L 3828 3775 
Q 3819 3744 3781 3613 
Q 3747 3497 3725 3403 
Q 3991 2419 4484 1625 
z
" transform="scale(0.015625)"/>
       <path id="IPAexGothic-5584" d="M 3706 4569 
Q 4009 4991 4141 5319 
L 4622 5172 
Q 4434 4844 4206 4569 
L 5684 4569 
L 5684 4191 
L 3406 4191 
L 3406 3775 
L 5403 3775 
L 5403 3409 
L 3406 3409 
L 3406 2975 
L 5953 2975 
L 5953 2616 
L 4909 2616 
Q 4738 2250 4591 2009 
L 6081 2009 
L 6081 1638 
L 322 1638 
L 322 2009 
L 1775 2009 
Q 1650 2341 1481 2616 
L 444 2616 
L 444 2975 
L 2953 2975 
L 2953 3409 
L 994 3409 
L 994 3775 
L 2953 3775 
L 2953 4191 
L 713 4191 
L 713 4569 
L 2081 4569 
Q 1928 4869 1709 5150 
L 2166 5306 
Q 2356 5044 2581 4569 
L 3706 4569 
z
M 3406 2616 
L 3406 2009 
L 4109 2009 
Q 4259 2284 4403 2616 
L 3406 2616 
z
M 2953 2009 
L 2953 2616 
L 1978 2616 
Q 2150 2263 2234 2009 
L 2953 2009 
z
M 5306 1275 
L 5306 -447 
L 4847 -447 
L 4847 -191 
L 1556 -191 
L 1556 -447 
L 1097 -447 
L 1097 1275 
L 5306 1275 
z
M 1556 903 
L 1556 194 
L 4847 194 
L 4847 903 
L 1556 903 
z
" transform="scale(0.015625)"/>
       <path id="IPAexGothic-7387" d="M 3022 2847 
Q 3338 3231 3684 3744 
L 4053 3525 
Q 3506 2766 2919 2181 
L 3266 2200 
Q 3575 2209 3825 2234 
Q 3728 2406 3575 2616 
L 3913 2772 
Q 4244 2350 4541 1766 
L 4156 1547 
Q 4084 1753 3997 1913 
L 3856 1894 
Q 3709 1875 3416 1850 
L 3416 1228 
L 6084 1228 
L 6084 819 
L 3416 819 
L 3416 -447 
L 2941 -447 
L 2941 819 
L 322 819 
L 322 1228 
L 2941 1228 
L 2941 1803 
L 2881 1797 
Q 2306 1759 2031 1747 
L 1903 2163 
Q 2319 2163 2416 2169 
Q 2522 2269 2772 2553 
Q 2347 3028 1916 3347 
L 2184 3653 
L 2447 3425 
Q 2681 3744 2869 4128 
L 547 4128 
L 547 4525 
L 2941 4525 
L 2941 5313 
L 3416 5313 
L 3416 4525 
L 5853 4525 
L 5853 4128 
L 2972 4128 
L 3278 3981 
Q 2991 3509 2697 3188 
Q 2850 3041 3022 2847 
z
M 1497 2822 
Q 1128 3263 691 3566 
L 1000 3847 
Q 1409 3588 1831 3156 
L 1497 2822 
z
M 4219 3078 
Q 4794 3478 5147 3897 
L 5538 3616 
Q 5078 3178 4494 2803 
L 4219 3078 
z
M 5556 1631 
Q 4997 2109 4372 2444 
L 4659 2741 
Q 5356 2381 5894 1984 
L 5556 1631 
z
M 538 1925 
Q 1306 2297 1881 2803 
L 2075 2456 
Q 1622 2034 813 1528 
L 538 1925 
z
" transform="scale(0.015625)"/>
       <path id="IPAexGothic-ff08" d="M 5419 -434 
Q 4197 769 4197 2438 
Q 4197 4097 5419 5300 
L 5919 5300 
Q 4678 4078 4678 2425 
Q 4678 788 5919 -434 
L 5419 -434 
z
" transform="scale(0.015625)"/>
       <path id="IPAexGothic-5bfe" d="M 2694 3597 
Q 2694 3566 2688 3534 
Q 2584 2566 2234 1703 
Q 2569 1288 3028 666 
L 2656 331 
Q 2434 672 2016 1234 
Q 1466 184 725 -416 
L 366 -63 
Q 1156 525 1684 1569 
L 1709 1625 
Q 1191 2278 647 2844 
L 975 3113 
Q 1475 2619 1906 2100 
Q 2153 2825 2241 3597 
L 391 3597 
L 391 4013 
L 1666 4013 
L 1666 5209 
L 2106 5209 
L 2106 4013 
L 3272 4013 
L 3272 3706 
L 4822 3706 
L 4822 5209 
L 5275 5209 
L 5275 3706 
L 6041 3706 
L 6041 3278 
L 5300 3278 
L 5300 109 
Q 5300 -397 4694 -397 
Q 4206 -397 3872 -353 
L 3784 141 
Q 4200 63 4616 63 
Q 4847 63 4847 269 
L 4847 3278 
L 3241 3278 
L 3241 3597 
L 2694 3597 
z
M 4000 1147 
Q 3619 1994 3188 2578 
L 3578 2816 
Q 4044 2188 4409 1428 
L 4000 1147 
z
" transform="scale(0.015625)"/>
       <path id="IPAexGothic-7167" d="M 4219 4666 
Q 4056 3503 2991 3109 
L 2663 3422 
Q 3594 3731 3778 4666 
L 2803 4666 
L 2803 5044 
L 5806 5044 
Q 5766 4041 5684 3672 
Q 5597 3275 5050 3275 
Q 4672 3275 4291 3334 
L 4225 3750 
Q 4753 3666 5000 3666 
Q 5203 3666 5250 3825 
Q 5313 4034 5350 4666 
L 4219 4666 
z
M 2453 5031 
L 2453 1375 
L 706 1375 
L 706 5031 
L 2453 5031 
z
M 1122 4659 
L 1122 3425 
L 2038 3425 
L 2038 4659 
L 1122 4659 
z
M 1122 3053 
L 1122 1753 
L 2038 1753 
L 2038 3053 
L 1122 3053 
z
M 5697 3003 
L 5697 1344 
L 3078 1344 
L 3078 3003 
L 5697 3003 
z
M 3494 2631 
L 3494 1716 
L 5281 1716 
L 5281 2631 
L 3494 2631 
z
M 353 -191 
Q 853 356 1141 1081 
L 1563 909 
Q 1244 72 763 -506 
L 353 -191 
z
M 2375 -441 
Q 2300 297 2125 884 
L 2556 984 
Q 2763 391 2875 -325 
L 2375 -441 
z
M 3834 -341 
Q 3644 400 3356 947 
L 3791 1088 
Q 4034 647 4322 -153 
L 3834 -341 
z
M 5594 -366 
Q 5075 500 4647 984 
L 5038 1197 
Q 5650 547 6038 -78 
L 5594 -366 
z
" transform="scale(0.015625)"/>
       <path id="IPAexGothic-6bd4" d="M 1525 3250 
L 3003 3250 
L 3003 2822 
L 1525 2822 
L 1525 472 
Q 2469 747 3016 934 
L 3041 531 
Q 1813 59 459 -300 
L 294 159 
Q 694 250 1056 344 
L 1056 5081 
L 1525 5081 
L 1525 3250 
z
M 3794 3028 
Q 4691 3472 5341 4038 
L 5744 3706 
Q 4778 2969 3794 2572 
L 3794 556 
Q 3794 353 3978 313 
Q 4106 288 4472 288 
Q 5169 288 5328 378 
Q 5491 463 5522 1516 
L 5994 1356 
Q 5966 238 5772 34 
Q 5566 -172 4491 -172 
Q 3809 -172 3588 -75 
Q 3334 28 3334 397 
L 3334 5113 
L 3794 5113 
L 3794 3028 
z
" transform="scale(0.015625)"/>
       <path id="IPAexGothic-ff09" d="M 481 -434 
Q 1722 788 1722 2431 
Q 1722 4066 481 5300 
L 981 5300 
Q 2203 4097 2203 2431 
Q 2203 769 981 -434 
L 481 -434 
z
" transform="scale(0.015625)"/>
      </defs>
      <use xlink:href="#IPAexGothic-6539"/>
      <use xlink:href="#IPAexGothic-5584" transform="translate(100 0)"/>
      <use xlink:href="#IPAexGothic-7387" transform="translate(200 0)"/>
      <use xlink:href="#IPAexGothic-ff08" transform="translate(300 0)"/>
      <use xlink:href="#IPAexGothic-5bfe" transform="translate(400 0)"/>
      <use xlink:href="#IPAexGothic-7167" transform="translate(500 0)"/>
      <use xlink:href="#IPAexGothic-6bd4" transform="translate(600 0)"/>
      <use xlink:href="#IPAexGothic-ff09" transform="translate(700 0)"/>
     </g>
    </g>
   </g>
   <g id="matplotlib.axis_2">
    <g id="ytick_1">
     <g id="line2d_11">
      <defs>
       <path id="m2a454c8b5c" d="M 0 0 
L -3.5 0 
" style="stroke: #000000; stroke-width: 0.8"/>
      </defs>
      <g>
       <use xlink:href="#m2a454c8b5c" x="77.74" y="205.314545" style="stroke: #000000; stroke-width: 0.8"/>
      </g>
     </g>
     <g id="text_7">
      <!-- 無料会員 -->
      <g transform="translate(30.74 209.059858) scale(0.1 -0.1)">
       <defs>
        <path id="IPAexGothic-7121" d="M 5134 4238 
L 5134 3188 
L 6044 3188 
L 6044 2791 
L 5134 2791 
L 5134 1716 
L 5850 1716 
L 5850 1319 
L 544 1319 
L 544 1716 
L 1409 1716 
L 1409 2791 
L 353 2791 
L 353 3188 
L 1409 3188 
L 1409 4044 
Q 1156 3691 884 3438 
L 572 3731 
Q 1291 4394 1666 5306 
L 2094 5159 
Q 2038 5041 1800 4628 
L 5697 4628 
L 5697 4238 
L 5134 4238 
z
M 1825 4238 
L 1825 3188 
L 2516 3188 
L 2516 4238 
L 1825 4238 
z
M 2906 4238 
L 2906 3188 
L 3597 3188 
L 3597 4238 
L 2906 4238 
z
M 3988 4238 
L 3988 3188 
L 4719 3188 
L 4719 4238 
L 3988 4238 
z
M 4719 2791 
L 3988 2791 
L 3988 1716 
L 4719 1716 
L 4719 2791 
z
M 3597 2791 
L 2906 2791 
L 2906 1716 
L 3597 1716 
L 3597 2791 
z
M 2516 2791 
L 1825 2791 
L 1825 1716 
L 2516 1716 
L 2516 2791 
z
M 506 -159 
Q 997 369 1294 1106 
L 1716 934 
Q 1400 91 909 -488 
L 506 -159 
z
M 2466 -441 
Q 2391 256 2222 903 
L 2656 991 
Q 2869 350 2963 -331 
L 2466 -441 
z
M 3859 -341 
Q 3659 413 3381 953 
L 3822 1094 
Q 4100 578 4347 -159 
L 3859 -341 
z
M 5569 -359 
Q 5094 469 4616 991 
L 5006 1209 
Q 5578 609 6009 -63 
L 5569 -359 
z
" transform="scale(0.015625)"/>
        <path id="IPAexGothic-6599" d="M 1559 1947 
Q 1194 997 600 316 
L 319 731 
Q 1078 1528 1450 2600 
L 394 2600 
L 394 3003 
L 1559 3003 
L 1559 5313 
L 2000 5313 
L 2000 3003 
L 3069 3003 
L 3069 2600 
L 2000 2600 
L 2000 2319 
Q 2472 2047 2984 1653 
L 2722 1238 
Q 2366 1575 2000 1872 
L 2000 -447 
L 1559 -447 
L 1559 1947 
z
M 5278 1778 
L 6078 1941 
L 6116 1503 
L 5297 1338 
L 5297 -416 
L 4844 -416 
L 4844 1247 
L 2925 863 
L 2859 1306 
L 4825 1691 
L 4825 5178 
L 5278 5178 
L 5278 1778 
z
M 869 3334 
Q 738 4025 472 4650 
L 881 4825 
Q 1122 4228 1297 3475 
L 869 3334 
z
M 2213 3481 
Q 2506 4094 2700 4881 
L 3166 4753 
Q 2919 3966 2616 3347 
L 2213 3481 
z
M 4172 2016 
Q 3672 2625 3200 2994 
L 3475 3294 
Q 4022 2872 4478 2353 
L 4172 2016 
z
M 4288 3431 
Q 3781 4031 3294 4403 
L 3597 4725 
Q 4178 4253 4606 3763 
L 4288 3431 
z
" transform="scale(0.015625)"/>
        <path id="IPAexGothic-4f1a" d="M 1863 3272 
L 4641 3272 
L 4641 2863 
L 1759 2863 
L 1759 3194 
Q 1734 3175 1638 3113 
Q 1238 2816 594 2497 
L 288 2863 
Q 1959 3597 2894 5147 
L 3431 5147 
Q 4341 3784 6131 3047 
L 5825 2631 
Q 4063 3497 3175 4731 
Q 2653 3881 1863 3272 
z
M 2822 1703 
Q 2531 997 2119 322 
L 2388 341 
Q 3366 409 4325 506 
L 4641 538 
Q 4169 1028 3859 1306 
L 4209 1550 
Q 5088 797 5778 -31 
L 5388 -350 
Q 5156 -50 4928 219 
L 4831 206 
Q 3106 -53 844 -238 
L 684 231 
Q 816 238 1191 263 
L 1631 288 
Q 2022 934 2322 1703 
L 641 1703 
L 641 2125 
L 5759 2125 
L 5759 1703 
L 2822 1703 
z
" transform="scale(0.015625)"/>
        <path id="IPAexGothic-54e1" d="M 4978 4991 
L 4978 3731 
L 1416 3731 
L 1416 4991 
L 4978 4991 
z
M 1869 4631 
L 1869 4084 
L 4525 4084 
L 4525 4631 
L 1869 4631 
z
M 5300 3347 
L 5300 641 
L 1094 641 
L 1094 3347 
L 5300 3347 
z
M 1550 2981 
L 1550 2566 
L 4844 2566 
L 4844 2981 
L 1550 2981 
z
M 1550 2213 
L 1550 1797 
L 4844 1797 
L 4844 2213 
L 1550 2213 
z
M 1550 1444 
L 1550 1000 
L 4844 1000 
L 4844 1444 
L 1550 1444 
z
M 397 -91 
Q 1353 141 2216 616 
L 2656 372 
Q 1781 -194 738 -494 
L 397 -91 
z
M 5509 -397 
Q 4547 59 3641 359 
L 4044 634 
Q 4934 397 5894 -13 
L 5509 -397 
z
" transform="scale(0.015625)"/>
       </defs>
       <use xlink:href="#IPAexGothic-7121"/>
       <use xlink:href="#IPAexGothic-6599" transform="translate(100 0)"/>
       <use xlink:href="#IPAexGothic-4f1a" transform="translate(200 0)"/>
       <use xlink:href="#IPAexGothic-54e1" transform="translate(300 0)"/>
      </g>
     </g>
    </g>
    <g id="ytick_2">
     <g id="line2d_12">
      <g>
       <use xlink:href="#m2a454c8b5c" x="77.74" y="149.811515" style="stroke: #000000; stroke-width: 0.8"/>
      </g>
     </g>
     <g id="text_8">
      <!-- ライトプラン -->
      <g transform="translate(10.74 153.556828) scale(0.1 -0.1)">
       <defs>
        <path id="IPAexGothic-30e9" d="M 1447 4709 
L 4922 4709 
L 4922 4234 
L 1447 4234 
L 1447 4709 
z
M 897 3303 
L 5172 3303 
L 5478 3013 
Q 5069 1669 4219 875 
Q 3475 181 2306 -181 
L 1972 294 
Q 4150 784 4834 2828 
L 897 2828 
L 897 3303 
z
" transform="scale(0.015625)"/>
        <path id="IPAexGothic-30a4" d="M 3131 -231 
L 3131 2875 
Q 2091 2088 1106 1656 
L 781 2059 
Q 3016 3000 4469 4916 
L 4916 4641 
Q 4384 3938 3675 3316 
L 3675 -231 
L 3131 -231 
z
" transform="scale(0.015625)"/>
        <path id="IPAexGothic-30c8" d="M 2284 4997 
L 2803 4997 
L 2803 3206 
Q 4088 2619 5216 1888 
L 4878 1369 
Q 3819 2175 2803 2688 
L 2803 -184 
L 2284 -184 
L 2284 4997 
z
" transform="scale(0.015625)"/>
        <path id="IPAexGothic-30d7" d="M 4825 4275 
L 5125 4000 
Q 4884 2378 4081 1381 
Q 3294 413 1888 -116 
L 1522 331 
Q 4069 1113 4550 3803 
L 966 3738 
L 966 4225 
L 4825 4275 
z
M 5597 5509 
Q 5906 5509 6119 5275 
Q 6303 5075 6303 4806 
Q 6303 4494 6069 4281 
Q 5866 4097 5597 4097 
Q 5284 4097 5072 4331 
Q 4888 4534 4888 4806 
Q 4888 5116 5122 5328 
Q 5328 5509 5597 5509 
z
M 5597 5228 
Q 5409 5228 5278 5088 
Q 5169 4966 5169 4806 
Q 5169 4616 5309 4488 
Q 5434 4378 5597 4378 
Q 5784 4378 5913 4519 
Q 6022 4641 6022 4806 
Q 6022 4991 5881 5119 
Q 5759 5228 5597 5228 
z
" transform="scale(0.015625)"/>
        <path id="IPAexGothic-30f3" d="M 2444 3084 
Q 1816 3656 1056 4084 
L 1381 4519 
Q 2063 4191 2816 3559 
L 2444 3084 
z
M 1100 609 
Q 3984 1106 5216 3828 
L 5619 3469 
Q 4413 794 1434 103 
L 1100 609 
z
" transform="scale(0.015625)"/>
       </defs>
       <use xlink:href="#IPAexGothic-30e9"/>
       <use xlink:href="#IPAexGothic-30a4" transform="translate(100 0)"/>
       <use xlink:href="#IPAexGothic-30c8" transform="translate(200 0)"/>
       <use xlink:href="#IPAexGothic-30d7" transform="translate(300 0)"/>
       <use xlink:href="#IPAexGothic-30e9" transform="translate(400 0)"/>
       <use xlink:href="#IPAexGothic-30f3" transform="translate(500 0)"/>
      </g>
     </g>
    </g>
    <g id="ytick_3">
     <g id="line2d_13">
      <g>
       <use xlink:href="#m2a454c8b5c" x="77.74" y="94.308485" style="stroke: #000000; stroke-width: 0.8"/>
      </g>
     </g>
     <g id="text_9">
      <!-- スタンダード -->
      <g transform="translate(10.74 98.053797) scale(0.1 -0.1)">
       <defs>
        <path id="IPAexGothic-30b9" d="M 4359 4481 
L 4716 4147 
Q 4328 3072 3647 2150 
Q 4659 1434 5659 453 
L 5234 19 
Q 4256 1088 3353 1778 
Q 2372 597 1044 -31 
L 653 403 
Q 3128 1453 4097 4000 
L 1241 3963 
L 1228 4453 
L 4359 4481 
z
" transform="scale(0.015625)"/>
        <path id="IPAexGothic-30bf" d="M 4978 4263 
L 5313 3988 
Q 4797 2431 4056 1459 
Q 3191 325 1822 -300 
L 1466 109 
Q 2131 381 2613 738 
Q 3053 1066 3531 1600 
Q 2919 2225 2144 2791 
Q 1603 2203 1172 1875 
L 825 2234 
Q 2316 3328 2866 5031 
L 3359 4897 
Q 3325 4775 3109 4263 
L 4978 4263 
z
M 2894 3816 
Q 2709 3522 2438 3169 
Q 3194 2616 3841 2003 
Q 4366 2806 4747 3816 
L 2894 3816 
z
" transform="scale(0.015625)"/>
        <path id="IPAexGothic-30c0" d="M 4806 4219 
L 5141 3944 
Q 4625 2388 3884 1416 
Q 3019 281 1650 -344 
L 1294 66 
Q 1959 338 2441 694 
Q 2881 1022 3359 1556 
Q 2747 2181 1972 2747 
Q 1431 2159 1000 1831 
L 653 2191 
Q 2144 3284 2694 4988 
L 3188 4853 
Q 3153 4731 2938 4219 
L 4806 4219 
z
M 2722 3772 
Q 2538 3478 2266 3125 
Q 3022 2572 3669 1959 
Q 4194 2763 4575 3772 
L 2722 3772 
z
M 6009 4469 
Q 5647 5009 5256 5338 
L 5556 5569 
Q 5941 5259 6331 4744 
L 6009 4469 
z
M 5397 4031 
Q 5106 4522 4659 4922 
L 4972 5166 
Q 5344 4856 5728 4306 
L 5397 4031 
z
" transform="scale(0.015625)"/>
        <path id="IPAexGothic-30fc" d="M 588 2688 
L 5809 2688 
L 5809 2175 
L 588 2175 
L 588 2688 
z
" transform="scale(0.015625)"/>
        <path id="IPAexGothic-30c9" d="M 2247 4959 
L 2766 4959 
L 2766 3169 
Q 4050 2581 5178 1850 
L 4841 1331 
Q 3781 2138 2766 2650 
L 2766 -225 
L 2247 -225 
L 2247 4959 
z
M 5263 3847 
Q 4900 4388 4506 4716 
L 4806 4947 
Q 5191 4638 5581 4122 
L 5263 3847 
z
M 4666 3378 
Q 4375 3869 3931 4269 
L 4244 4513 
Q 4616 4206 5000 3653 
L 4666 3378 
z
" transform="scale(0.015625)"/>
       </defs>
       <use xlink:href="#IPAexGothic-30b9"/>
       <use xlink:href="#IPAexGothic-30bf" transform="translate(100 0)"/>
       <use xlink:href="#IPAexGothic-30f3" transform="translate(200 0)"/>
       <use xlink:href="#IPAexGothic-30c0" transform="translate(300 0)"/>
       <use xlink:href="#IPAexGothic-30fc" transform="translate(400 0)"/>
       <use xlink:href="#IPAexGothic-30c9" transform="translate(500 0)"/>
      </g>
     </g>
    </g>
    <g id="ytick_4">
     <g id="line2d_14">
      <g>
       <use xlink:href="#m2a454c8b5c" x="77.74" y="38.805455" style="stroke: #000000; stroke-width: 0.8"/>
      </g>
     </g>
     <g id="text_10">
      <!-- プレミアム -->
      <g transform="translate(20.74 42.550767) scale(0.1 -0.1)">
       <defs>
        <path id="IPAexGothic-30ec" d="M 1538 4706 
L 2075 4706 
L 2075 622 
Q 4059 1375 5172 2894 
L 5481 2431 
Q 4922 1678 3931 1019 
Q 2919 334 1928 -31 
L 1538 269 
L 1538 4706 
z
" transform="scale(0.015625)"/>
        <path id="IPAexGothic-30df" d="M 4606 3353 
Q 3022 4028 1600 4375 
L 1888 4806 
Q 3403 4425 4881 3813 
L 4606 3353 
z
M 4184 1863 
Q 2906 2466 1747 2763 
L 2028 3213 
Q 3169 2903 4466 2328 
L 4184 1863 
z
M 4631 -159 
Q 3119 638 1125 1234 
L 1413 1678 
Q 3228 1169 4953 319 
L 4631 -159 
z
" transform="scale(0.015625)"/>
        <path id="IPAexGothic-30a2" d="M 5388 4556 
L 5747 4200 
Q 5081 3022 4019 2191 
L 3647 2547 
Q 4519 3178 5081 4091 
L 850 4013 
L 850 4500 
L 5388 4556 
z
M 1216 256 
Q 2319 813 2616 1691 
Q 2797 2200 2797 3628 
L 3313 3628 
Q 3303 1981 3059 1356 
Q 2697 431 1594 -153 
L 1216 256 
z
" transform="scale(0.015625)"/>
        <path id="IPAexGothic-30e0" d="M 609 891 
L 719 897 
L 884 903 
Q 1053 916 1263 925 
Q 1413 931 1447 934 
Q 2291 2888 2856 4706 
L 3394 4525 
Q 2841 2859 2019 981 
Q 3553 1109 4659 1275 
Q 4200 1950 3669 2588 
L 4122 2838 
Q 5075 1700 5788 513 
L 5319 194 
Q 5038 691 4922 866 
Q 2919 509 822 328 
L 609 891 
z
" transform="scale(0.015625)"/>
       </defs>
       <use xlink:href="#IPAexGothic-30d7"/>
       <use xlink:href="#IPAexGothic-30ec" transform="translate(100 0)"/>
       <use xlink:href="#IPAexGothic-30df" transform="translate(200 0)"/>
       <use xlink:href="#IPAexGothic-30a2" transform="translate(300 0)"/>
       <use xlink:href="#IPAexGothic-30e0" transform="translate(400 0)"/>
      </g>
     </g>
    </g>
   </g>
   <g id="LineCollection_1">
    <path d="M 146.5624 205.314545 
L 203.9144 205.314545 
" clip-path="url(#p43a30c8655)" style="fill: none; stroke: #94a3b8; stroke-width: 3"/>
    <path d="M 175.2384 149.811515 
L 244.0608 149.811515 
" clip-path="url(#p43a30c8655)" style="fill: none; stroke: #94a3b8; stroke-width: 3"/>
    <path d="M 221.12 94.308485 
L 301.4128 94.308485 
" clip-path="url(#p43a30c8655)" style="fill: none; stroke: #94a3b8; stroke-width: 3"/>
    <path d="M 261.2664 38.805455 
L 358.7648 38.805455 
" clip-path="url(#p43a30c8655)" style="fill: none; stroke: #94a3b8; stroke-width: 3"/>
   </g>
   <g id="line2d_15">
    <path d="M 106.416 213.64 
L 106.416 30.48 
" clip-path="url(#p43a30c8655)" style="fill: none; stroke-dasharray: 3.7,1.6; stroke-dashoffset: 0; stroke: #475569"/>
   </g>
   <g id="PathCollection_1">
    <defs>
     <path id="m93ca33257f" d="M 0 4.743416 
C 1.257969 4.743416 2.464584 4.24362 3.354102 3.354102 
C 4.24362 2.464584 4.743416 1.257969 4.743416 0 
C 4.743416 -1.257969 4.24362 -2.464584 3.354102 -3.354102 
C 2.464584 -4.24362 1.257969 -4.743416 0 -4.743416 
C -1.257969 -4.743416 -2.464584 -4.24362 -3.354102 -3.354102 
C -4.24362 -2.464584 -4.743416 -1.257969 -4.743416 0 
C -4.743416 1.257969 -4.24362 2.464584 -3.354102 3.354102 
C -2.464584 4.24362 -1.257969 4.743416 0 4.743416 
z
" style="stroke: #0ea5e9"/>
    </defs>
    <g clip-path="url(#p43a30c8655)">
     <use xlink:href="#m93ca33257f" x="175.2384" y="205.314545" style="fill: #0ea5e9; stroke: #0ea5e9"/>
     <use xlink:href="#m93ca33257f" x="209.6496" y="149.811515" style="fill: #0ea5e9; stroke: #0ea5e9"/>
     <use xlink:href="#m93ca33257f" x="261.2664" y="94.308485" style="fill: #0ea5e9; stroke: #0ea5e9"/>
     <use xlink:href="#m93ca33257f" x="307.148" y="38.805455" style="fill: #0ea5e9; stroke: #0ea5e9"/>
    </g>
   </g>
   <g id="text_11">
    <!-- 12.0% (+5.0/-5.0) -->
    <g transform="translate(209.6496 208.160639) scale(0.1 -0.1)">
     <defs>
      <path id="IPAexGothic-25" d="M 4088 2481 
Q 4528 2481 4800 2181 
Q 5094 1847 5094 1203 
Q 5094 534 4728 197 
Q 4472 -38 4088 -38 
Q 3647 -38 3378 269 
Q 3084 600 3084 1222 
Q 3084 1906 3444 2244 
Q 3697 2481 4088 2481 
z
M 4081 2097 
Q 3566 2097 3566 1234 
Q 3566 356 4097 356 
Q 4613 356 4613 1241 
Q 4613 2097 4081 2097 
z
M 1331 4731 
Q 1769 4731 2041 4431 
Q 2334 4097 2334 3450 
Q 2334 2781 1969 2447 
Q 1713 2209 1331 2209 
Q 888 2209 619 2516 
Q 325 2850 325 3472 
Q 325 4156 684 4494 
Q 941 4731 1331 4731 
z
M 1322 4347 
Q 806 4347 806 3484 
Q 806 2606 1338 2606 
Q 1859 2606 1859 3484 
Q 1859 3859 1725 4091 
Q 1584 4347 1322 4347 
z
M 4569 4603 
L 1106 -134 
L 856 78 
L 4313 4813 
L 4569 4603 
z
" transform="scale(0.015625)"/>
      <path id="IPAexGothic-20" transform="scale(0.015625)"/>
      <path id="IPAexGothic-28" d="M 1928 -1016 
L 1653 -1166 
Q 488 69 488 1875 
Q 488 3678 1653 4909 
L 1928 4763 
Q 1006 3522 1006 1881 
Q 1006 203 1928 -1016 
z
" transform="scale(0.015625)"/>
      <path id="IPAexGothic-2b" d="M 2369 1856 
L 2369 219 
L 1984 219 
L 1984 1856 
L 416 1856 
L 416 2216 
L 1984 2216 
L 1984 3725 
L 2369 3725 
L 2369 2216 
L 3922 2216 
L 3922 1856 
L 2369 1856 
z
" transform="scale(0.015625)"/>
      <path id="IPAexGothic-35" d="M 1178 2603 
Q 1634 2963 2172 2963 
Q 2816 2963 3241 2528 
Q 3638 2113 3638 1497 
Q 3638 938 3297 513 
Q 2869 -31 2031 -31 
Q 959 -31 469 784 
L 938 1028 
Q 1309 434 2013 434 
Q 2466 434 2769 716 
Q 3081 1013 3081 1503 
Q 3081 1966 2806 2241 
Q 2519 2528 2056 2528 
Q 1406 2528 1072 2028 
L 591 2091 
L 884 4634 
L 3406 4634 
L 3406 4153 
L 1341 4153 
L 1134 2603 
L 1178 2603 
z
" transform="scale(0.015625)"/>
      <path id="IPAexGothic-2f" d="M 2719 4709 
L 600 -884 
L 300 -763 
L 2413 4831 
L 2719 4709 
z
" transform="scale(0.015625)"/>
      <path id="IPAexGothic-2d" d="M 1969 1703 
L 319 1703 
L 319 2203 
L 1969 2203 
L 1969 1703 
z
" transform="scale(0.015625)"/>
      <path id="IPAexGothic-29" d="M 466 4909 
Q 1638 3672 1638 1875 
Q 1638 75 466 -1166 
L 191 -1016 
Q 1119 216 1119 1881 
Q 1119 3509 191 4763 
L 466 4909 
z
" transform="scale(0.015625)"/>
     </defs>
     <use xlink:href="#IPAexGothic-31"/>
     <use xlink:href="#IPAexGothic-32" transform="translate(62.988281 0)"/>
     <use xlink:href="#IPAexGothic-2e" transform="translate(125.976562 0)"/>
     <use xlink:href="#IPAexGothic-30" transform="translate(152.392578 0)"/>
     <use xlink:href="#IPAexGothic-25" transform="translate(215.380859 0)"/>
     <use xlink:href="#IPAexGothic-20" transform="translate(300.390625 0)"/>
     <use xlink:href="#IPAexGothic-28" transform="translate(327.392578 0)"/>
     <use xlink:href="#IPAexGothic-2b" transform="translate(360.693359 0)"/>
     <use xlink:href="#IPAexGothic-35" transform="translate(428.515625 0)"/>
     <use xlink:href="#IPAexGothic-2e" transform="translate(491.503906 0)"/>
     <use xlink:href="#IPAexGothic-30" transform="translate(517.919922 0)"/>
     <use xlink:href="#IPAexGothic-2f" transform="translate(580.908203 0)"/>
     <use xlink:href="#IPAexGothic-2d" transform="translate(630.908203 0)"/>
     <use xlink:href="#IPAexGothic-35" transform="translate(666.699219 0)"/>
     <use xlink:href="#IPAexGothic-2e" transform="translate(729.6875 0)"/>
     <use xlink:href="#IPAexGothic-30" transform="translate(756.103516 0)"/>
     <use xlink:href="#IPAexGothic-29" transform="translate(819.091797 0)"/>
    </g>
   </g>
   <g id="text_12">
    <!-- 18.0% (+6.0/-6.0) -->
    <g transform="translate(249.796 152.657609) scale(0.1 -0.1)">
     <defs>
      <path id="IPAexGothic-38" d="M 2541 2425 
Q 3700 2031 3700 1197 
Q 3700 541 3100 197 
Q 2663 -56 2016 -56 
Q 1366 -56 928 197 
Q 347 531 347 1178 
Q 347 1988 1409 2381 
L 1409 2400 
Q 481 2734 481 3509 
Q 481 4100 981 4456 
Q 1406 4756 2019 4756 
Q 2703 4756 3131 4403 
Q 3553 4069 3553 3566 
Q 3553 2706 2541 2444 
L 2541 2425 
z
M 2022 2625 
Q 2997 2856 2997 3528 
Q 2997 3916 2675 4150 
Q 2413 4347 2016 4347 
Q 1606 4347 1331 4128 
Q 1050 3897 1050 3522 
Q 1050 3150 1350 2925 
Q 1494 2809 1722 2722 
Q 1984 2616 2022 2625 
z
M 1978 2209 
Q 922 1931 922 1216 
Q 922 775 1313 556 
Q 1606 391 2009 391 
Q 2575 391 2881 697 
Q 3106 922 3106 1250 
Q 3106 1594 2794 1850 
Q 2609 1994 2350 2100 
Q 2047 2222 1978 2209 
z
" transform="scale(0.015625)"/>
      <path id="IPAexGothic-36" d="M 1056 2328 
Q 1509 2981 2234 2981 
Q 2906 2981 3316 2513 
Q 3675 2106 3675 1522 
Q 3675 884 3272 434 
Q 2853 -31 2178 -31 
Q 1375 -31 922 581 
Q 481 1178 481 2228 
Q 481 3425 1013 4109 
Q 1494 4725 2272 4725 
Q 3191 4725 3609 4025 
L 3150 3775 
Q 2894 4266 2300 4266 
Q 1119 4266 1031 2328 
L 1056 2328 
z
M 2141 2547 
Q 1684 2547 1384 2206 
Q 1116 1900 1116 1541 
Q 1116 1156 1353 844 
Q 1672 428 2159 428 
Q 2669 428 2941 844 
Q 3125 1128 3125 1503 
Q 3125 1944 2881 2228 
Q 2600 2547 2141 2547 
z
" transform="scale(0.015625)"/>
     </defs>
     <use xlink:href="#IPAexGothic-31"/>
     <use xlink:href="#IPAexGothic-38" transform="translate(62.988281 0)"/>
     <use xlink:href="#IPAexGothic-2e" transform="translate(125.976562 0)"/>
     <use xlink:href="#IPAexGothic-30" transform="translate(152.392578 0)"/>
     <use xlink:href="#IPAexGothic-25" transform="translate(215.380859 0)"/>
     <use xlink:href="#IPAexGothic-20" transform="translate(300.390625 0)"/>
     <use xlink:href="#IPAexGothic-28" transform="translate(327.392578 0)"/>
     <use xlink:href="#IPAexGothic-2b" transform="translate(360.693359 0)"/>
     <use xlink:href="#IPAexGothic-36" transform="translate(428.515625 0)"/>
     <use xlink:href="#IPAexGothic-2e" transform="translate(491.503906 0)"/>
     <use xlink:href="#IPAexGothic-30" transform="translate(517.919922 0)"/>
     <use xlink:href="#IPAexGothic-2f" transform="translate(580.908203 0)"/>
     <use xlink:href="#IPAexGothic-2d" transform="translate(630.908203 0)"/>
     <use xlink:href="#IPAexGothic-36" transform="translate(666.699219 0)"/>
     <use xlink:href="#IPAexGothic-2e" transform="translate(729.6875 0)"/>
     <use xlink:href="#IPAexGothic-30" transform="translate(756.103516 0)"/>
     <use xlink:href="#IPAexGothic-29" transform="translate(819.091797 0)"/>
    </g>
   </g>
   <g id="text_13">
    <!-- 27.0% (+7.0/-7.0) -->
    <g transform="translate(307.148 97.154579) scale(0.1 -0.1)">
     <defs>
      <path id="IPAexGothic-37" d="M 3597 4263 
Q 2238 2106 1778 63 
L 1131 63 
Q 1581 1834 2950 4128 
L 428 4128 
L 428 4634 
L 3597 4634 
L 3597 4263 
z
" transform="scale(0.015625)"/>
     </defs>
     <use xlink:href="#IPAexGothic-32"/>
     <use xlink:href="#IPAexGothic-37" transform="translate(62.988281 0)"/>
     <use xlink:href="#IPAexGothic-2e" transform="translate(125.976562 0)"/>
     <use xlink:href="#IPAexGothic-30" transform="translate(152.392578 0)"/>
     <use xlink:href="#IPAexGothic-25" transform="translate(215.380859 0)"/>
     <use xlink:href="#IPAexGothic-20" transform="translate(300.390625 0)"/>
     <use xlink:href="#IPAexGothic-28" transform="translate(327.392578 0)"/>
     <use xlink:href="#IPAexGothic-2b" transform="translate(360.693359 0)"/>
     <use xlink:href="#IPAexGothic-37" transform="translate(428.515625 0)"/>
     <use xlink:href="#IPAexGothic-2e" transform="translate(491.503906 0)"/>
     <use xlink:href="#IPAexGothic-30" transform="translate(517.919922 0)"/>
     <use xlink:href="#IPAexGothic-2f" transform="translate(580.908203 0)"/>
     <use xlink:href="#IPAexGothic-2d" transform="translate(630.908203 0)"/>
     <use xlink:href="#IPAexGothic-37" transform="translate(666.699219 0)"/>
     <use xlink:href="#IPAexGothic-2e" transform="translate(729.6875 0)"/>
     <use xlink:href="#IPAexGothic-30" transform="translate(756.103516 0)"/>
     <use xlink:href="#IPAexGothic-29" transform="translate(819.091797 0)"/>
    </g>
   </g>
   <g id="text_14">
    <!-- 35.0% (+9.0/-8.0) -->
    <g transform="translate(364.5 41.651548) scale(0.1 -0.1)">
     <defs>
      <path id="IPAexGothic-39" d="M 2984 2356 
Q 2544 1716 1813 1716 
Q 1253 1716 847 2056 
Q 366 2459 366 3163 
Q 366 3813 769 4266 
Q 1181 4725 1869 4725 
Q 2800 4725 3241 3950 
Q 3559 3378 3559 2472 
Q 3559 1250 3041 588 
Q 2553 -31 1769 -31 
Q 859 -31 391 703 
L 853 953 
Q 1156 428 1753 428 
Q 2922 428 3009 2356 
L 2984 2356 
z
M 1888 4278 
Q 1450 4278 1172 3950 
Q 922 3653 922 3200 
Q 922 2741 1159 2478 
Q 1434 2163 1906 2163 
Q 2431 2163 2728 2572 
Q 2925 2847 2925 3169 
Q 2925 3553 2694 3863 
Q 2375 4278 1888 4278 
z
" transform="scale(0.015625)"/>
     </defs>
     <use xlink:href="#IPAexGothic-33"/>
     <use xlink:href="#IPAexGothic-35" transform="translate(62.988281 0)"/>
     <use xlink:href="#IPAexGothic-2e" transform="translate(125.976562 0)"/>
     <use xlink:href="#IPAexGothic-30" transform="translate(152.392578 0)"/>
     <use xlink:href="#IPAexGothic-25" transform="translate(215.380859 0)"/>
     <use xlink:href="#IPAexGothic-20" transform="translate(300.390625 0)"/>
     <use xlink:href="#IPAexGothic-28" transform="translate(327.392578 0)"/>
     <use xlink:href="#IPAexGothic-2b" transform="translate(360.693359 0)"/>
     <use xlink:href="#IPAexGothic-39" transform="translate(428.515625 0)"/>
     <use xlink:href="#IPAexGothic-2e" transform="translate(491.503906 0)"/>
     <use xlink:href="#IPAexGothic-30" transform="translate(517.919922 0)"/>
     <use xlink:href="#IPAexGothic-2f" transform="translate(580.908203 0)"/>
     <use xlink:href="#IPAexGothic-2d" transform="translate(630.908203 0)"/>
     <use xlink:href="#IPAexGothic-38" transform="translate(666.699219 0)"/>
     <use xlink:href="#IPAexGothic-2e" transform="translate(729.6875 0)"/>
     <use xlink:href="#IPAexGothic-30" transform="translate(756.103516 0)"/>
     <use xlink:href="#IPAexGothic-29" transform="translate(819.091797 0)"/>
    </g>
   </g>
   <g id="text_15">
    <!-- 施策効果の推定値と90%信頼区間 -->
    <g transform="translate(90.57095 24.48) scale(0.1728 -0.1728)">
     <defs>
      <path id="IPAexGothic-65bd" d="M 2566 2963 
Q 2556 934 2419 44 
Q 2350 -409 1881 -409 
Q 1556 -409 1319 -372 
L 1256 78 
Q 1500 13 1759 13 
Q 1978 13 2016 244 
Q 2131 847 2150 2419 
L 2150 2572 
L 1478 2572 
Q 1441 1725 1313 1125 
Q 1113 275 519 -500 
L 250 -128 
Q 772 538 934 1375 
Q 1069 2047 1069 3091 
L 1069 3866 
L 347 3866 
L 347 4269 
L 1300 4269 
L 1300 5313 
L 1741 5313 
L 1741 4269 
L 2784 4269 
L 2784 3866 
L 1484 3866 
L 1484 3097 
L 1484 2963 
L 2566 2963 
z
M 3622 2088 
L 3622 391 
Q 3622 150 3756 100 
Q 3900 44 4603 44 
Q 5466 44 5569 166 
Q 5663 269 5672 825 
L 6131 666 
Q 6066 -75 5900 -219 
Q 5697 -384 4578 -384 
Q 3600 -384 3397 -288 
Q 3200 -194 3200 116 
L 3200 1972 
L 2741 1850 
L 2638 2253 
L 3200 2406 
L 3200 3419 
L 3622 3419 
L 3622 2522 
L 4188 2669 
L 4188 3756 
L 4603 3756 
L 4603 2784 
L 5484 3022 
L 5716 2859 
L 5716 1381 
Q 5716 941 5300 941 
Q 5059 941 4822 978 
L 4756 1403 
Q 4978 1356 5128 1356 
Q 5294 1356 5294 1544 
L 5294 2541 
L 4603 2356 
L 4603 603 
L 4188 603 
L 4188 2241 
L 3622 2088 
z
M 3513 4378 
L 5978 4378 
L 5978 3975 
L 3347 3975 
Q 3097 3447 2753 2997 
L 2466 3316 
Q 3091 4153 3347 5375 
L 3775 5269 
Q 3678 4806 3513 4378 
z
" transform="scale(0.015625)"/>
      <path id="IPAexGothic-7b56" d="M 3397 1709 
Q 4281 775 6113 250 
L 5819 -181 
Q 4272 369 3397 1222 
L 3397 -450 
L 2956 -450 
L 2956 1172 
Q 2081 216 603 -288 
L 300 94 
Q 2078 603 2956 1722 
L 2956 2041 
L 1466 2041 
L 1466 819 
L 1031 819 
L 1031 2425 
L 2956 2425 
L 2956 2913 
L 328 2913 
L 328 3309 
L 2956 3309 
L 2956 3700 
L 3397 3700 
L 3397 3309 
L 6081 3309 
L 6081 2913 
L 3397 2913 
L 3397 2425 
L 5416 2425 
L 5416 1319 
Q 5416 947 5006 947 
Q 4697 947 4472 984 
L 4384 1369 
Q 4653 1313 4825 1313 
Q 4981 1313 4981 1459 
L 4981 2041 
L 3397 2041 
L 3397 1709 
z
M 1428 4716 
L 3181 4716 
L 3181 4331 
L 2234 4331 
Q 2400 4013 2516 3703 
L 2100 3563 
Q 1947 4053 1800 4331 
L 1234 4331 
Q 947 3831 575 3459 
L 256 3728 
Q 884 4378 1191 5316 
L 1619 5209 
Q 1497 4888 1428 4716 
z
M 3944 4716 
L 6069 4716 
L 6069 4331 
L 4666 4331 
Q 4850 4059 5031 3744 
L 4603 3569 
Q 4450 3916 4219 4331 
L 3750 4331 
L 3731 4300 
Q 3544 3981 3297 3716 
L 2950 3947 
Q 3459 4513 3700 5325 
L 4141 5222 
Q 4084 5047 3944 4716 
z
" transform="scale(0.015625)"/>
      <path id="IPAexGothic-52b9" d="M 4078 3828 
L 4078 5203 
L 4525 5203 
L 4525 3884 
L 5894 3884 
Q 5884 1113 5728 238 
Q 5631 -331 5069 -331 
Q 4684 -331 4294 -275 
L 4219 231 
Q 4603 122 4922 122 
Q 5222 122 5281 434 
Q 5431 1328 5441 3194 
L 5447 3463 
L 4519 3463 
Q 4519 2075 4294 1288 
Q 3978 159 3034 -481 
L 2706 -141 
Q 3628 491 3906 1556 
Q 4050 2141 4078 3328 
L 4078 3413 
L 3266 3413 
L 3266 3816 
L 422 3816 
L 422 4219 
L 1716 4219 
L 1716 5313 
L 2156 5313 
L 2156 4219 
L 3316 4219 
L 3316 3828 
L 4078 3828 
z
M 1813 1216 
Q 1356 1728 972 2081 
L 1281 2350 
Q 1603 2059 1997 1644 
L 2022 1613 
Q 2197 1994 2309 2547 
L 2706 2406 
Q 2566 1769 2322 1288 
Q 2738 828 3000 500 
L 2681 147 
Q 2341 600 2100 884 
Q 1538 25 756 -447 
L 447 -91 
Q 1294 353 1813 1216 
z
M 269 2350 
Q 906 2888 1253 3622 
L 1631 3431 
Q 1203 2613 550 2016 
L 269 2350 
z
M 3144 2209 
Q 2694 2950 2156 3450 
L 2503 3659 
Q 3069 3153 3463 2547 
L 3144 2209 
z
" transform="scale(0.015625)"/>
      <path id="IPAexGothic-679c" d="M 3809 1666 
Q 4656 800 6088 297 
L 5784 -131 
Q 4256 494 3406 1563 
L 3406 -447 
L 2947 -447 
L 2947 1519 
Q 2203 425 647 -281 
L 334 109 
Q 1769 697 2575 1666 
L 378 1666 
L 378 2075 
L 2947 2075 
L 2947 2625 
L 1109 2625 
L 1109 5013 
L 5288 5013 
L 5288 2625 
L 3406 2625 
L 3406 2075 
L 6016 2075 
L 6016 1666 
L 3809 1666 
z
M 1556 4628 
L 1556 3994 
L 2959 3994 
L 2959 4628 
L 1556 4628 
z
M 1556 3628 
L 1556 3009 
L 2959 3009 
L 2959 3628 
L 1556 3628 
z
M 4834 3009 
L 4834 3628 
L 3394 3628 
L 3394 3009 
L 4834 3009 
z
M 4834 3994 
L 4834 4628 
L 3394 4628 
L 3394 3994 
L 4834 3994 
z
" transform="scale(0.015625)"/>
      <path id="IPAexGothic-306e" d="M 3119 469 
Q 5275 766 5275 2425 
Q 5275 3453 4413 3925 
Q 4041 4116 3547 4159 
Q 3394 2525 2850 1400 
Q 2322 306 1722 306 
Q 1384 306 1084 666 
Q 609 1244 609 2003 
Q 609 3025 1397 3794 
Q 2184 4563 3431 4563 
Q 4306 4563 4928 4122 
Q 5813 3506 5813 2425 
Q 5813 438 3431 6 
L 3119 469 
z
M 3053 4147 
Q 2378 4044 1891 3641 
Q 1097 2981 1097 1991 
Q 1097 1366 1434 978 
Q 1581 813 1719 813 
Q 2022 813 2416 1625 
Q 2909 2638 3053 4147 
z
" transform="scale(0.015625)"/>
      <path id="IPAexGothic-63a8" d="M 3244 4063 
L 4244 4063 
Q 4481 4578 4653 5228 
L 5125 5100 
Q 4913 4484 4691 4063 
L 5906 4063 
L 5906 3666 
L 4647 3666 
L 4647 2822 
L 5747 2822 
L 5747 2438 
L 4647 2438 
L 4647 1594 
L 5747 1594 
L 5747 1216 
L 4647 1216 
L 4647 319 
L 6047 319 
L 6047 -91 
L 3244 -91 
L 3244 -481 
L 2816 -481 
L 2816 3188 
L 2791 3128 
Q 2581 2744 2366 2463 
L 2084 2797 
Q 2813 3728 3166 5284 
L 3616 5144 
Q 3431 4500 3244 4063 
z
M 3244 319 
L 4231 319 
L 4231 1216 
L 3244 1216 
L 3244 319 
z
M 3244 1594 
L 4231 1594 
L 4231 2438 
L 3244 2438 
L 3244 1594 
z
M 3244 2822 
L 4231 2822 
L 4231 3666 
L 3244 3666 
L 3244 2822 
z
M 1184 4084 
L 1184 5313 
L 1613 5313 
L 1613 4084 
L 2328 4084 
L 2328 3669 
L 1613 3669 
L 1613 2241 
Q 1997 2341 2334 2453 
L 2359 2069 
Q 1809 1884 1631 1831 
L 1613 1825 
L 1613 44 
Q 1613 -197 1522 -294 
Q 1413 -403 1081 -403 
Q 738 -403 519 -366 
L 441 97 
Q 741 38 978 38 
Q 1184 38 1184 219 
L 1184 1703 
L 1147 1697 
Q 734 1581 409 1509 
L 275 1941 
Q 722 2022 1138 2119 
Q 1147 2122 1166 2125 
Q 1178 2128 1184 2131 
L 1184 3669 
L 372 3669 
L 372 4084 
L 1184 4084 
z
" transform="scale(0.015625)"/>
      <path id="IPAexGothic-5b9a" d="M 3431 303 
Q 3931 225 4709 225 
Q 5191 225 6053 263 
Q 5963 59 5888 -228 
Q 5234 -250 4844 -250 
Q 3569 -250 3003 -78 
Q 2259 153 1750 903 
Q 1441 163 806 -459 
L 475 -75 
Q 1416 759 1684 2419 
L 2125 2303 
Q 2031 1756 1909 1356 
Q 2338 678 2972 416 
L 2972 2944 
L 1434 2944 
L 1434 3353 
L 4959 3353 
L 4959 2944 
L 3431 2944 
L 3431 1984 
L 5397 1984 
L 5397 1569 
L 3431 1569 
L 3431 303 
z
M 3419 4428 
L 5750 4428 
L 5750 3166 
L 5275 3166 
L 5275 4025 
L 1122 4025 
L 1122 3166 
L 647 3166 
L 647 4428 
L 2938 4428 
L 2938 5313 
L 3419 5313 
L 3419 4428 
z
" transform="scale(0.015625)"/>
      <path id="IPAexGothic-5024" d="M 4172 3675 
L 5453 3675 
L 5453 684 
L 3019 684 
L 3019 3675 
L 3750 3675 
Q 3788 3884 3825 4153 
L 2141 4153 
L 2141 4544 
L 3884 4544 
Q 3922 4844 3966 5325 
L 4434 5272 
L 4388 4953 
Q 4331 4578 4331 4544 
L 5863 4544 
L 5863 4153 
L 4269 4153 
Q 4200 3781 4172 3675 
z
M 5038 3316 
L 3434 3316 
L 3434 2803 
L 5038 2803 
L 5038 3316 
z
M 3434 2450 
L 3434 1941 
L 5038 1941 
L 5038 2450 
L 3434 2450 
z
M 3434 1588 
L 3434 1044 
L 5038 1044 
L 5038 1588 
L 3434 1588 
z
M 1509 3669 
L 1509 -447 
L 1069 -447 
L 1069 2725 
Q 856 2338 531 1875 
L 288 2266 
Q 1163 3531 1541 5325 
L 1975 5222 
Q 1791 4378 1509 3669 
z
M 2488 244 
L 6031 244 
L 6031 -153 
L 2488 -153 
L 2488 -447 
L 2059 -447 
L 2059 3213 
L 2488 3213 
L 2488 244 
z
" transform="scale(0.015625)"/>
      <path id="IPAexGothic-3068" d="M 5222 56 
Q 4200 -72 3450 -72 
Q 2478 -72 1941 113 
Q 1184 372 1184 1038 
Q 1184 1584 1594 2009 
Q 1941 2369 2656 2725 
Q 2231 3734 1972 4878 
L 2491 4978 
Q 2706 3884 3078 2950 
Q 4250 3447 4756 3616 
L 4978 3150 
Q 3181 2575 2409 2078 
Q 1691 1613 1691 1113 
Q 1691 403 3322 403 
Q 4125 403 5134 563 
L 5222 56 
z
" transform="scale(0.015625)"/>
      <path id="IPAexGothic-4fe1" d="M 1572 3809 
L 1572 -447 
L 1119 -447 
L 1119 2847 
Q 856 2372 550 1972 
L 300 2363 
Q 1172 3550 1566 5253 
L 2013 5147 
Q 1819 4428 1572 3809 
z
M 5534 1619 
L 5534 -447 
L 5081 -447 
L 5081 -116 
L 2763 -116 
L 2763 -447 
L 2316 -447 
L 2316 1619 
L 5534 1619 
z
M 2763 1234 
L 2763 269 
L 5081 269 
L 5081 1234 
L 2763 1234 
z
M 2475 4984 
L 5375 4984 
L 5375 4588 
L 2475 4588 
L 2475 4984 
z
M 2475 3297 
L 5375 3297 
L 5375 2906 
L 2475 2906 
L 2475 3297 
z
M 2475 2456 
L 5375 2456 
L 5375 2066 
L 2475 2066 
L 2475 2456 
z
M 1894 4147 
L 6003 4147 
L 6003 3738 
L 1894 3738 
L 1894 4147 
z
" transform="scale(0.015625)"/>
      <path id="IPAexGothic-983c" d="M 1513 1466 
Q 1109 591 494 -13 
L 219 344 
Q 953 994 1434 2016 
L 525 2016 
L 525 3578 
L 1513 3578 
L 1513 4134 
L 313 4134 
L 313 4531 
L 1513 4531 
L 1513 5313 
L 1922 5313 
L 1922 4531 
L 3109 4531 
L 3109 4134 
L 1922 4134 
L 1922 3578 
L 2925 3578 
L 2925 2016 
L 1922 2016 
L 1922 1734 
Q 2400 1369 2900 856 
L 2613 494 
Q 2288 919 1922 1288 
L 1922 -447 
L 1513 -447 
L 1513 1466 
z
M 1525 3200 
L 909 3200 
L 909 2388 
L 1525 2388 
L 1525 3200 
z
M 1909 3200 
L 1909 2388 
L 2541 2388 
L 2541 3200 
L 1909 3200 
z
M 4622 4025 
L 5709 4025 
L 5709 794 
L 3400 794 
L 3400 4025 
L 4225 4025 
Q 4309 4319 4359 4653 
L 3034 4653 
L 3034 5050 
L 6022 5050 
L 6022 4653 
L 4806 4653 
Q 4716 4288 4622 4025 
z
M 5300 3647 
L 3809 3647 
L 3809 3072 
L 5300 3072 
L 5300 3647 
z
M 3809 2713 
L 3809 2131 
L 5300 2131 
L 5300 2713 
L 3809 2713 
z
M 3809 1778 
L 3809 1166 
L 5300 1166 
L 5300 1778 
L 3809 1778 
z
M 5763 -434 
Q 5328 59 4713 519 
L 5038 763 
Q 5459 500 6138 -122 
L 5763 -434 
z
M 2791 -184 
Q 3566 234 3969 744 
L 4328 506 
Q 3772 -116 3113 -500 
L 2791 -184 
z
" transform="scale(0.015625)"/>
      <path id="IPAexGothic-533a" d="M 1294 4391 
L 1294 403 
L 5838 403 
L 5838 -25 
L 1294 -25 
L 1294 -447 
L 806 -447 
L 806 4819 
L 5678 4819 
L 5678 4391 
L 1294 4391 
z
M 3278 2375 
Q 2669 2909 1819 3500 
L 2125 3794 
Q 2881 3281 3547 2725 
Q 3959 3319 4306 4172 
L 4744 4000 
Q 4322 3038 3891 2431 
Q 4438 1959 5203 1216 
L 4850 856 
Q 4206 1534 3616 2075 
Q 2963 1284 1856 659 
L 1534 1013 
Q 2569 1553 3278 2375 
z
" transform="scale(0.015625)"/>
      <path id="IPAexGothic-9593" d="M 4450 2566 
L 4450 353 
L 2375 353 
L 2375 -25 
L 1953 -25 
L 1953 2566 
L 4450 2566 
z
M 4028 2200 
L 2375 2200 
L 2375 1653 
L 4028 1653 
L 4028 2200 
z
M 4028 1300 
L 2375 1300 
L 2375 719 
L 4028 719 
L 4028 1300 
z
M 2913 5019 
L 2913 3059 
L 1056 3059 
L 1056 -447 
L 609 -447 
L 609 5019 
L 2913 5019 
z
M 1056 4659 
L 1056 4206 
L 2497 4206 
L 2497 4659 
L 1056 4659 
z
M 1056 3881 
L 1056 3413 
L 2497 3413 
L 2497 3881 
L 1056 3881 
z
M 5788 5019 
L 5788 91 
Q 5788 -225 5641 -331 
Q 5525 -409 5231 -409 
Q 4803 -409 4481 -366 
L 4419 97 
Q 4853 38 5128 38 
Q 5341 38 5341 244 
L 5341 3059 
L 3438 3059 
L 3438 5019 
L 5788 5019 
z
M 3853 4659 
L 3853 4206 
L 5341 4206 
L 5341 4659 
L 3853 4659 
z
M 3853 3881 
L 3853 3413 
L 5341 3413 
L 5341 3881 
L 3853 3881 
z
" transform="scale(0.015625)"/>
     </defs>
     <use xlink:href="#IPAexGothic-65bd"/>
     <use xlink:href="#IPAexGothic-7b56" transform="translate(100 0)"/>
     <use xlink:href="#IPAexGothic-52b9" transform="translate(200 0)"/>
     <use xlink:href="#IPAexGothic-679c" transform="translate(300 0)"/>
     <use xlink:href="#IPAexGothic-306e" transform="translate(400 0)"/>
     <use xlink:href="#IPAexGothic-63a8" transform="translate(500 0)"/>
     <use xlink:href="#IPAexGothic-5b9a" transform="translate(600 0)"/>
     <use xlink:href="#IPAexGothic-5024" transform="translate(700 0)"/>
     <use xlink:href="#IPAexGothic-3068" transform="translate(800 0)"/>
     <use xlink:href="#IPAexGothic-39" transform="translate(900 0)"/>
     <use xlink:href="#IPAexGothic-30" transform="translate(962.988281 0)"/>
     <use xlink:href="#IPAexGothic-25" transform="translate(1025.976562 0)"/>
     <use xlink:href="#IPAexGothic-4fe1" transform="translate(1110.986328 0)"/>
     <use xlink:href="#IPAexGothic-983c" transform="translate(1210.986328 0)"/>
     <use xlink:href="#IPAexGothic-533a" transform="translate(1310.986328 0)"/>
     <use xlink:href="#IPAexGothic-9593" transform="translate(1410.986328 0)"/>
    </g>
   </g>
  </g>
 </g>
 <defs>
  <clipPath id="p43a30c8655">
   <rect x="77.74" y="30.48" width="286.76" height="183.16"/>
  </clipPath>
 </defs>
</svg>
