<?xml version="1.0" encoding="utf-8" standalone="no"?>
<!DOCTYPE svg PUBLIC "-//W3C//DTD SVG 1.1//EN"
  "http://www.w3.org/Graphics/SVG/1.1/DTD/svg11.dtd">
<svg xmlns:xlink="http://www.w3.org/1999/xlink" width="460.8pt" height="288pt" viewBox="0 0 460.8 288" xmlns="http://www.w3.org/2000/svg" version="1.1">
 <metadata>
  <rdf:RDF xmlns:dc="http://purl.org/dc/elements/1.1/" xmlns:cc="http://creativecommons.org/ns#" xmlns:rdf="http://www.w3.org/1999/02/22-rdf-syntax-ns#">
   <cc:Work>
    <dc:type rdf:resource="http://purl.org/dc/dcmitype/StillImage"/>
    <dc:date>2025-10-29T08:53:12.897593</dc:date>
    <dc:format>image/svg+xml</dc:format>
    <dc:creator>
     <cc:Agent>
      <dc:title>Matplotlib v3.10.7, https://matplotlib.org/</dc:title>
     </cc:Agent>
    </dc:creator>
   </cc:Work>
  </rdf:RDF>
 </metadata>
 <defs>
  <style type="text/css">*{stroke-linejoin: round; stroke-linecap: butt}</style>
 </defs>
 <g id="figure_1">
  <g id="patch_1">
   <path d="M 0 288 
L 460.8 288 
L 460.8 0 
L 0 0 
z
" style="fill: #ffffff"/>
  </g>
  <g id="axes_1">
   <g id="patch_2">
    <path d="M 55.1 260.5025 
L 397.15 260.5025 
L 397.15 30.48 
L 55.1 30.48 
z
" style="fill: #ffffff"/>
   </g>
   <g id="patch_3">
    <path d="M 70.647727 260.5025 
L 113.538009 260.5025 
L 113.538009 41.433452 
L 70.647727 41.433452 
z
" clip-path="url(#pccdf711e3f)" style="fill: #38bdf8"/>
   </g>
   <g id="patch_4">
    <path d="M 124.26058 260.5025 
L 167.150862 260.5025 
L 167.150862 87.072837 
L 124.26058 87.072837 
z
" clip-path="url(#pccdf711e3f)" style="fill: #38bdf8"/>
   </g>
   <g id="patch_5">
    <path d="M 177.873433 260.5025 
L 220.763715 260.5025 
L 220.763715 132.712222 
L 177.873433 132.712222 
z
" clip-path="url(#pccdf711e3f)" style="fill: #38bdf8"/>
   </g>
   <g id="patch_6">
    <path d="M 231.486285 260.5025 
L 274.376567 260.5025 
L 274.376567 178.351607 
L 231.486285 178.351607 
z
" clip-path="url(#pccdf711e3f)" style="fill: #38bdf8"/>
   </g>
   <g id="patch_7">
    <path d="M 285.099138 260.5025 
L 327.98942 260.5025 
L 327.98942 205.735238 
L 285.099138 205.735238 
z
" clip-path="url(#pccdf711e3f)" style="fill: #38bdf8"/>
   </g>
   <g id="patch_8">
    <path d="M 338.711991 260.5025 
L 381.602273 260.5025 
L 381.602273 227.642143 
L 338.711991 227.642143 
z
" clip-path="url(#pccdf711e3f)" style="fill: #38bdf8"/>
   </g>
   <g id="matplotlib.axis_1">
    <g id="xtick_1">
     <g id="line2d_1">
      <defs>
       <path id="m84264cff3d" d="M 0 0 
L 0 3.5 
" style="stroke: #000000; stroke-width: 0.8"/>
      </defs>
      <g>
       <use xlink:href="#m84264cff3d" x="92.092868" y="260.5025" style="stroke: #000000; stroke-width: 0.8"/>
      </g>
     </g>
     <g id="text_1">
      <!-- 設定ミス -->
      <g transform="translate(72.092868 274.993125) scale(0.1 -0.1)">
       <defs>
        <path id="IPAexGothic-8a2d" d="M 2388 1684 
L 2388 -128 
L 959 -128 
L 959 -447 
L 538 -447 
L 538 1684 
L 2388 1684 
z
M 959 1313 
L 959 244 
L 1966 244 
L 1966 1313 
L 959 1313 
z
M 4969 4984 
L 4969 3441 
Q 4969 3256 5225 3256 
Q 5472 3256 5500 3384 
Q 5538 3509 5556 3941 
L 5981 3800 
Q 5950 3134 5813 2988 
Q 5688 2853 5225 2853 
Q 4753 2853 4625 2963 
Q 4528 3050 4528 3238 
L 4528 4575 
L 3681 4575 
L 3681 4409 
Q 3681 3675 3478 3256 
Q 3303 2916 2900 2628 
L 2606 2950 
Q 3028 3253 3156 3634 
Q 3253 3922 3253 4363 
L 3253 4984 
L 4969 4984 
z
M 4591 766 
Q 5241 306 6081 56 
L 5800 -403 
Q 4984 -97 4284 459 
Q 3581 -166 2766 -500 
L 2484 -122 
Q 3303 159 3963 753 
Q 3416 1300 3053 2053 
L 2722 2053 
L 2722 2463 
L 5344 2463 
L 5563 2278 
Q 5247 1478 4591 766 
z
M 4269 1041 
Q 4719 1519 4981 2053 
L 3503 2053 
Q 3794 1500 4269 1041 
z
M 634 5044 
L 2294 5044 
L 2294 4659 
L 634 4659 
L 634 5044 
z
M 347 4206 
L 2625 4206 
L 2625 3816 
L 347 3816 
L 347 4206 
z
M 634 3359 
L 2294 3359 
L 2294 2975 
L 634 2975 
L 634 3359 
z
M 634 2522 
L 2294 2522 
L 2294 2138 
L 634 2138 
L 634 2522 
z
" transform="scale(0.015625)"/>
        <path id="IPAexGothic-5b9a" d="M 3431 303 
Q 3931 225 4709 225 
Q 5191 225 6053 263 
Q 5963 59 5888 -228 
Q 5234 -250 4844 -250 
Q 3569 -250 3003 -78 
Q 2259 153 1750 903 
Q 1441 163 806 -459 
L 475 -75 
Q 1416 759 1684 2419 
L 2125 2303 
Q 2031 1756 1909 1356 
Q 2338 678 2972 416 
L 2972 2944 
L 1434 2944 
L 1434 3353 
L 4959 3353 
L 4959 2944 
L 3431 2944 
L 3431 1984 
L 5397 1984 
L 5397 1569 
L 3431 1569 
L 3431 303 
z
M 3419 4428 
L 5750 4428 
L 5750 3166 
L 5275 3166 
L 5275 4025 
L 1122 4025 
L 1122 3166 
L 647 3166 
L 647 4428 
L 2938 4428 
L 2938 5313 
L 3419 5313 
L 3419 4428 
z
" transform="scale(0.015625)"/>
        <path id="IPAexGothic-30df" d="M 4606 3353 
Q 3022 4028 1600 4375 
L 1888 4806 
Q 3403 4425 4881 3813 
L 4606 3353 
z
M 4184 1863 
Q 2906 2466 1747 2763 
L 2028 3213 
Q 3169 2903 4466 2328 
L 4184 1863 
z
M 4631 -159 
Q 3119 638 1125 1234 
L 1413 1678 
Q 3228 1169 4953 319 
L 4631 -159 
z
" transform="scale(0.015625)"/>
        <path id="IPAexGothic-30b9" d="M 4359 4481 
L 4716 4147 
Q 4328 3072 3647 2150 
Q 4659 1434 5659 453 
L 5234 19 
Q 4256 1088 3353 1778 
Q 2372 597 1044 -31 
L 653 403 
Q 3128 1453 4097 4000 
L 1241 3963 
L 1228 4453 
L 4359 4481 
z
" transform="scale(0.015625)"/>
       </defs>
       <use xlink:href="#IPAexGothic-8a2d"/>
       <use xlink:href="#IPAexGothic-5b9a" transform="translate(100 0)"/>
       <use xlink:href="#IPAexGothic-30df" transform="translate(200 0)"/>
       <use xlink:href="#IPAexGothic-30b9" transform="translate(300 0)"/>
      </g>
     </g>
    </g>
    <g id="xtick_2">
     <g id="line2d_2">
      <g>
       <use xlink:href="#m84264cff3d" x="145.705721" y="260.5025" style="stroke: #000000; stroke-width: 0.8"/>
      </g>
     </g>
     <g id="text_2">
      <!-- 操作不明 -->
      <g transform="translate(125.705721 274.993125) scale(0.1 -0.1)">
       <defs>
        <path id="IPAexGothic-64cd" d="M 4381 1306 
Q 5084 588 6109 213 
L 5816 -203 
Q 4803 297 4197 1050 
L 4197 -447 
L 3769 -447 
L 3769 1019 
Q 3203 203 2194 -288 
L 1900 84 
Q 2900 466 3597 1306 
L 2047 1306 
L 2047 1678 
L 3769 1678 
L 3769 2113 
L 4197 2113 
L 4197 1678 
L 5944 1678 
L 5944 1306 
L 4381 1306 
z
M 1119 4013 
L 1119 5313 
L 1534 5313 
L 1534 4013 
L 2150 4013 
L 2150 3609 
L 1534 3609 
L 1534 2375 
Q 1644 2406 2066 2547 
L 2097 2175 
Q 1784 2044 1534 1953 
L 1534 0 
Q 1534 -263 1419 -356 
Q 1309 -447 1034 -447 
Q 763 -447 484 -409 
L 416 44 
Q 681 -6 934 -6 
Q 1119 -6 1119 172 
L 1119 1806 
Q 894 1722 422 1581 
L 269 2016 
Q 734 2128 1119 2247 
L 1119 3609 
L 344 3609 
L 344 4013 
L 1119 4013 
z
M 5106 5081 
L 5106 3800 
L 2809 3800 
L 2809 5081 
L 5106 5081 
z
M 3225 4728 
L 3225 4141 
L 4691 4141 
L 4691 4728 
L 3225 4728 
z
M 3794 3488 
L 3794 2213 
L 2228 2213 
L 2228 3488 
L 3794 3488 
z
M 2631 3147 
L 2631 2553 
L 3391 2553 
L 3391 3147 
L 2631 3147 
z
M 5759 3488 
L 5759 2213 
L 4172 2213 
L 4172 3488 
L 5759 3488 
z
M 4575 3147 
L 4575 2553 
L 5356 2553 
L 5356 3147 
L 4575 3147 
z
" transform="scale(0.015625)"/>
        <path id="IPAexGothic-4f5c" d="M 3609 3834 
L 3231 3834 
Q 2869 2822 2297 2038 
L 1963 2381 
Q 2797 3513 3153 5275 
L 3616 5184 
Q 3506 4656 3378 4256 
L 5984 4256 
L 5984 3834 
L 4078 3834 
L 4078 2906 
L 5678 2906 
L 5678 2484 
L 4078 2484 
L 4078 1563 
L 5775 1563 
L 5775 1147 
L 4078 1147 
L 4078 -447 
L 3609 -447 
L 3609 3834 
z
M 1734 3725 
L 1734 -447 
L 1275 -447 
L 1275 2797 
L 1250 2747 
Q 984 2284 647 1850 
L 372 2234 
Q 1309 3481 1747 5203 
L 2219 5081 
Q 2028 4406 1734 3725 
z
" transform="scale(0.015625)"/>
        <path id="IPAexGothic-4e0d" d="M 3706 4309 
Q 3584 4078 3450 3863 
L 3425 3822 
L 3425 -447 
L 2925 -447 
L 2925 3113 
Q 1959 1919 697 1166 
L 372 1584 
Q 2197 2581 3138 4309 
L 513 4309 
L 513 4756 
L 5891 4756 
L 5891 4309 
L 3706 4309 
z
M 5588 1350 
Q 4669 2347 3681 3078 
L 4000 3413 
Q 5075 2675 5997 1753 
L 5588 1350 
z
" transform="scale(0.015625)"/>
        <path id="IPAexGothic-660e" d="M 3753 1684 
Q 3675 378 2716 -488 
L 2359 -147 
Q 3325 609 3325 2031 
L 3325 4984 
L 5722 4984 
L 5722 103 
Q 5722 -391 5172 -391 
Q 4753 -391 4328 -347 
L 4266 141 
Q 4700 69 5031 69 
Q 5281 69 5281 322 
L 5281 1684 
L 3753 1684 
z
M 3766 2075 
L 5281 2075 
L 5281 3150 
L 3766 3150 
L 3766 2075 
z
M 3766 3547 
L 5281 3547 
L 5281 4575 
L 3766 4575 
L 3766 3547 
z
M 2681 4813 
L 2681 1063 
L 1050 1063 
L 1050 634 
L 609 634 
L 609 4813 
L 2681 4813 
z
M 1050 4422 
L 1050 3181 
L 2241 3181 
L 2241 4422 
L 1050 4422 
z
M 1050 2797 
L 1050 1459 
L 2241 1459 
L 2241 2797 
L 1050 2797 
z
" transform="scale(0.015625)"/>
       </defs>
       <use xlink:href="#IPAexGothic-64cd"/>
       <use xlink:href="#IPAexGothic-4f5c" transform="translate(100 0)"/>
       <use xlink:href="#IPAexGothic-4e0d" transform="translate(200 0)"/>
       <use xlink:href="#IPAexGothic-660e" transform="translate(300 0)"/>
      </g>
     </g>
    </g>
    <g id="xtick_3">
     <g id="line2d_3">
      <g>
       <use xlink:href="#m84264cff3d" x="199.318574" y="260.5025" style="stroke: #000000; stroke-width: 0.8"/>
      </g>
     </g>
     <g id="text_3">
      <!-- バグ -->
      <g transform="translate(189.318574 274.993125) scale(0.1 -0.1)">
       <defs>
        <path id="IPAexGothic-30d0" d="M 428 903 
Q 1472 2069 1972 3884 
L 2497 3700 
Q 1938 1778 897 544 
L 428 903 
z
M 5441 678 
Q 4694 2275 3684 3725 
L 4147 3969 
Q 5050 2734 5956 1025 
L 5441 678 
z
M 5697 4116 
Q 5334 4656 4941 4984 
L 5241 5216 
Q 5625 4906 6016 4391 
L 5697 4116 
z
M 5094 3641 
Q 4803 4131 4356 4531 
L 4678 4781 
Q 5050 4472 5434 3922 
L 5094 3641 
z
" transform="scale(0.015625)"/>
        <path id="IPAexGothic-30b0" d="M 4769 4128 
L 5106 3878 
Q 4728 2272 3866 1238 
Q 3106 328 1863 -288 
L 1491 122 
Q 2709 628 3475 1563 
Q 4238 2491 4525 3669 
L 2738 3669 
Q 2022 2591 1191 1897 
L 813 2247 
Q 2163 3338 2766 4959 
L 3256 4819 
Q 3197 4609 2975 4128 
L 4769 4128 
z
M 6009 4422 
Q 5647 4966 5253 5294 
L 5556 5522 
Q 5941 5213 6328 4697 
L 6009 4422 
z
M 5416 3956 
Q 5125 4447 4678 4844 
L 4991 5088 
Q 5363 4781 5747 4231 
L 5416 3956 
z
" transform="scale(0.015625)"/>
       </defs>
       <use xlink:href="#IPAexGothic-30d0"/>
       <use xlink:href="#IPAexGothic-30b0" transform="translate(100 0)"/>
      </g>
     </g>
    </g>
    <g id="xtick_4">
     <g id="line2d_4">
      <g>
       <use xlink:href="#m84264cff3d" x="252.931426" y="260.5025" style="stroke: #000000; stroke-width: 0.8"/>
      </g>
     </g>
     <g id="text_4">
      <!-- 仕様質問 -->
      <g transform="translate(232.931426 274.993125) scale(0.1 -0.1)">
       <defs>
        <path id="IPAexGothic-4ed5" d="M 1634 3688 
L 1634 -447 
L 1166 -447 
L 1166 2809 
Q 869 2334 519 1894 
L 263 2291 
Q 1225 3463 1691 5178 
L 2153 5050 
Q 1922 4300 1634 3688 
z
M 4159 3366 
L 5991 3366 
L 5991 2938 
L 4159 2938 
L 4159 288 
L 5766 288 
L 5766 -141 
L 2109 -141 
L 2109 288 
L 3678 288 
L 3678 2938 
L 1938 2938 
L 1938 3366 
L 3678 3366 
L 3678 5150 
L 4159 5150 
L 4159 3366 
z
" transform="scale(0.015625)"/>
        <path id="IPAexGothic-69d8" d="M 4384 1675 
L 4384 0 
Q 4384 -284 4263 -378 
Q 4156 -453 3891 -453 
Q 3622 -453 3200 -403 
L 3138 50 
Q 3531 -19 3738 -19 
Q 3956 -19 3956 159 
L 3956 2353 
L 2394 2353 
L 2394 2725 
L 3956 2725 
L 3956 3172 
L 2728 3172 
L 2728 3531 
L 3956 3531 
L 3956 3969 
L 2497 3969 
L 2497 4341 
L 4434 4341 
Q 4691 4809 4863 5294 
L 5344 5141 
Q 5138 4719 4897 4341 
L 5906 4341 
L 5906 3969 
L 4384 3969 
L 4384 3531 
L 5656 3531 
L 5656 3172 
L 4384 3172 
L 4384 2725 
L 6059 2725 
L 6059 2353 
L 4447 2353 
Q 4606 1909 4903 1466 
Q 5281 1844 5497 2206 
L 5894 1950 
Q 5513 1497 5131 1172 
Q 5588 641 6156 306 
L 5856 -103 
Q 4841 644 4384 1675 
z
M 1288 2638 
Q 953 1522 500 788 
L 231 1250 
Q 903 2206 1228 3547 
L 366 3547 
L 366 3950 
L 1288 3950 
L 1288 5300 
L 1722 5300 
L 1722 3950 
L 2431 3950 
L 2431 3547 
L 1722 3547 
L 1722 2803 
Q 2147 2416 2553 1928 
L 2291 1488 
Q 2016 1919 1722 2288 
L 1722 -447 
L 1288 -447 
L 1288 2638 
z
M 3406 4353 
Q 3197 4816 2963 5106 
L 3366 5288 
Q 3622 4975 3816 4569 
L 3406 4353 
z
M 3359 1209 
Q 3044 1591 2681 1869 
L 2984 2138 
Q 3384 1853 3681 1509 
L 3359 1209 
z
M 2228 428 
Q 3016 766 3763 1294 
L 3847 903 
Q 3256 419 2453 6 
L 2228 428 
z
" transform="scale(0.015625)"/>
        <path id="IPAexGothic-8cea" d="M 2022 3194 
L 2022 3922 
L 1297 3922 
Q 1191 3228 747 2763 
L 416 3047 
Q 916 3525 916 4347 
L 916 5006 
Q 1003 5006 1069 5013 
Q 2038 5041 2775 5203 
L 3025 4856 
Q 2116 4694 1322 4666 
L 1322 4341 
L 1322 4269 
L 3159 4269 
L 3159 3922 
L 2431 3922 
L 2431 3194 
L 3097 3194 
L 2903 3347 
Q 3403 3778 3403 4428 
L 3403 5013 
Q 3494 5013 3563 5019 
Q 4375 5038 5266 5222 
L 5613 4872 
Q 4728 4713 3806 4653 
L 3806 4416 
Q 3806 4319 3800 4269 
L 5913 4269 
L 5913 3922 
L 4941 3922 
L 4941 3194 
L 5178 3194 
L 5178 603 
L 1234 603 
L 1234 3194 
L 2022 3194 
z
M 3366 3194 
L 4538 3194 
L 4538 3922 
L 3763 3922 
Q 3666 3503 3366 3194 
z
M 4728 2853 
L 1688 2853 
L 1688 2444 
L 4728 2444 
L 4728 2853 
z
M 1688 2119 
L 1688 1700 
L 4728 1700 
L 4728 2119 
L 1688 2119 
z
M 1688 1375 
L 1688 944 
L 4728 944 
L 4728 1375 
L 1688 1375 
z
M 447 -116 
Q 1503 131 2253 588 
L 2663 325 
Q 1747 -241 794 -525 
L 447 -116 
z
M 5484 -441 
Q 4625 16 3634 319 
L 4056 594 
Q 5003 325 5888 -50 
L 5484 -441 
z
" transform="scale(0.015625)"/>
        <path id="IPAexGothic-554f" d="M 4384 2291 
L 4384 525 
L 2400 525 
L 2400 172 
L 1972 172 
L 1972 2291 
L 4384 2291 
z
M 3956 1919 
L 2400 1919 
L 2400 897 
L 3956 897 
L 3956 1919 
z
M 2913 4984 
L 2913 2884 
L 1094 2884 
L 1094 -450 
L 641 -450 
L 641 4984 
L 2913 4984 
z
M 1094 4606 
L 1094 4109 
L 2497 4109 
L 2497 4606 
L 1094 4606 
z
M 1094 3769 
L 1094 3250 
L 2497 3250 
L 2497 3769 
L 1094 3769 
z
M 5753 4984 
L 5753 91 
Q 5753 -403 5244 -403 
Q 4875 -403 4444 -366 
L 4366 97 
Q 4750 38 5063 38 
Q 5300 38 5300 281 
L 5300 2884 
L 3444 2884 
L 3444 4984 
L 5753 4984 
z
M 3859 4606 
L 3859 4109 
L 5300 4109 
L 5300 4606 
L 3859 4606 
z
M 3859 3769 
L 3859 3250 
L 5300 3250 
L 5300 3769 
L 3859 3769 
z
" transform="scale(0.015625)"/>
       </defs>
       <use xlink:href="#IPAexGothic-4ed5"/>
       <use xlink:href="#IPAexGothic-69d8" transform="translate(100 0)"/>
       <use xlink:href="#IPAexGothic-8cea" transform="translate(200 0)"/>
       <use xlink:href="#IPAexGothic-554f" transform="translate(300 0)"/>
      </g>
     </g>
    </g>
    <g id="xtick_5">
     <g id="line2d_5">
      <g>
       <use xlink:href="#m84264cff3d" x="306.544279" y="260.5025" style="stroke: #000000; stroke-width: 0.8"/>
      </g>
     </g>
     <g id="text_5">
      <!-- 連携エラー -->
      <g transform="translate(281.544279 274.993125) scale(0.1 -0.1)">
       <defs>
        <path id="IPAexGothic-9023" d="M 3700 3816 
L 3700 4275 
L 1925 4275 
L 1925 4647 
L 3700 4647 
L 3700 5313 
L 4128 5313 
L 4128 4647 
L 5888 4647 
L 5888 4275 
L 4128 4275 
L 4128 3816 
L 5522 3816 
L 5522 1828 
L 4128 1828 
L 4128 1344 
L 5950 1344 
L 5950 959 
L 4128 959 
L 4128 238 
L 3700 238 
L 3700 959 
L 1919 959 
L 1919 1344 
L 3700 1344 
L 3700 1828 
L 2303 1828 
L 2303 3816 
L 3700 3816 
z
M 3713 3450 
L 2719 3450 
L 2719 3003 
L 3713 3003 
L 3713 3450 
z
M 4116 3450 
L 4116 3003 
L 5106 3003 
L 5106 3450 
L 4116 3450 
z
M 3713 2650 
L 2719 2650 
L 2719 2188 
L 3713 2188 
L 3713 2650 
z
M 4116 2650 
L 4116 2188 
L 5106 2188 
L 5106 2650 
L 4116 2650 
z
M 1700 716 
Q 1947 375 2372 228 
Q 2794 88 3934 88 
Q 4863 88 6141 166 
Q 6022 -53 5975 -306 
Q 4881 -347 4278 -347 
Q 2872 -347 2316 -181 
Q 1794 -16 1516 378 
Q 1175 -34 613 -481 
L 319 -13 
Q 878 316 1259 653 
L 1259 2303 
L 375 2303 
L 375 2731 
L 1700 2731 
L 1700 716 
z
M 1522 3775 
Q 1019 4378 556 4728 
L 869 5050 
Q 1503 4547 1863 4122 
L 1522 3775 
z
" transform="scale(0.015625)"/>
        <path id="IPAexGothic-643a" d="M 3225 4647 
L 4075 4647 
Q 4238 5013 4331 5356 
L 4788 5234 
Q 4669 4919 4519 4647 
L 5875 4647 
L 5875 4300 
L 4453 4300 
L 4453 3950 
L 5644 3950 
L 5644 3638 
L 4453 3638 
L 4453 3291 
L 5644 3291 
L 5644 2978 
L 4453 2978 
L 4453 2606 
L 5991 2606 
L 5991 2266 
L 2694 2266 
L 2694 3644 
Q 2494 3334 2253 3053 
L 1991 3381 
Q 1994 3384 2088 3494 
Q 2138 3556 2175 3603 
L 1613 3603 
L 1613 2381 
L 1669 2400 
Q 1866 2456 2400 2625 
L 2425 2259 
Q 2041 2113 1663 1991 
L 1613 1972 
L 1613 6 
Q 1613 -272 1491 -363 
Q 1391 -447 1088 -447 
Q 794 -447 525 -409 
L 447 50 
Q 747 -6 978 -6 
Q 1184 -6 1184 172 
L 1184 1838 
Q 803 1731 403 1625 
L 275 2053 
Q 850 2175 1184 2266 
L 1184 3603 
L 372 3603 
L 372 4019 
L 1184 4019 
L 1184 5313 
L 1613 5313 
L 1613 4019 
L 2181 4019 
L 2181 3609 
Q 2756 4359 3053 5369 
L 3463 5263 
Q 3331 4894 3225 4647 
z
M 3109 4300 
L 3109 3950 
L 4044 3950 
L 4044 4300 
L 3109 4300 
z
M 3109 3638 
L 3109 3291 
L 4044 3291 
L 4044 3638 
L 3109 3638 
z
M 3109 2978 
L 3109 2606 
L 4044 2606 
L 4044 2978 
L 3109 2978 
z
M 3422 1516 
L 2381 1516 
L 2381 1900 
L 5125 1900 
L 5331 1734 
Q 5188 1316 5172 1275 
L 5131 1178 
L 5906 1178 
Q 5850 347 5741 -44 
Q 5634 -422 5184 -422 
Q 4756 -422 4281 -353 
L 4238 116 
Q 4697 0 5016 0 
Q 5275 0 5344 231 
Q 5391 375 5441 806 
L 4531 806 
Q 4675 1122 4794 1516 
L 3866 1516 
Q 3691 141 2553 -538 
L 2234 -178 
Q 3259 309 3422 1516 
z
" transform="scale(0.015625)"/>
        <path id="IPAexGothic-30a8" d="M 1109 4063 
L 5294 4063 
L 5294 3594 
L 3444 3594 
L 3444 988 
L 5759 988 
L 5759 513 
L 641 513 
L 641 988 
L 2913 988 
L 2913 3594 
L 1109 3594 
L 1109 4063 
z
" transform="scale(0.015625)"/>
        <path id="IPAexGothic-30e9" d="M 1447 4709 
L 4922 4709 
L 4922 4234 
L 1447 4234 
L 1447 4709 
z
M 897 3303 
L 5172 3303 
L 5478 3013 
Q 5069 1669 4219 875 
Q 3475 181 2306 -181 
L 1972 294 
Q 4150 784 4834 2828 
L 897 2828 
L 897 3303 
z
" transform="scale(0.015625)"/>
        <path id="IPAexGothic-30fc" d="M 588 2688 
L 5809 2688 
L 5809 2175 
L 588 2175 
L 588 2688 
z
" transform="scale(0.015625)"/>
       </defs>
       <use xlink:href="#IPAexGothic-9023"/>
       <use xlink:href="#IPAexGothic-643a" transform="translate(100 0)"/>
       <use xlink:href="#IPAexGothic-30a8" transform="translate(200 0)"/>
       <use xlink:href="#IPAexGothic-30e9" transform="translate(300 0)"/>
       <use xlink:href="#IPAexGothic-30fc" transform="translate(400 0)"/>
      </g>
     </g>
    </g>
    <g id="xtick_6">
     <g id="line2d_6">
      <g>
       <use xlink:href="#m84264cff3d" x="360.157132" y="260.5025" style="stroke: #000000; stroke-width: 0.8"/>
      </g>
     </g>
     <g id="text_6">
      <!-- その他 -->
      <g transform="translate(345.157132 274.993125) scale(0.1 -0.1)">
       <defs>
        <path id="IPAexGothic-305d" d="M 1503 4575 
Q 2897 4641 4378 4813 
L 4641 4488 
Q 3566 3469 2738 2809 
Q 4478 3072 5516 3200 
L 5581 2741 
Q 4425 2644 3884 2394 
Q 2978 1972 2978 1131 
Q 2978 659 3506 450 
Q 3953 272 4819 269 
L 4838 -250 
Q 3725 -241 3200 44 
Q 2497 431 2497 1113 
Q 2497 1916 3403 2534 
Q 1234 2188 781 2106 
L 691 2559 
Q 809 2575 2072 2747 
Q 3203 3694 3872 4378 
Q 2759 4184 1606 4091 
L 1503 4575 
z
" transform="scale(0.015625)"/>
        <path id="IPAexGothic-306e" d="M 3119 469 
Q 5275 766 5275 2425 
Q 5275 3453 4413 3925 
Q 4041 4116 3547 4159 
Q 3394 2525 2850 1400 
Q 2322 306 1722 306 
Q 1384 306 1084 666 
Q 609 1244 609 2003 
Q 609 3025 1397 3794 
Q 2184 4563 3431 4563 
Q 4306 4563 4928 4122 
Q 5813 3506 5813 2425 
Q 5813 438 3431 6 
L 3119 469 
z
M 3053 4147 
Q 2378 4044 1891 3641 
Q 1097 2981 1097 1991 
Q 1097 1366 1434 978 
Q 1581 813 1719 813 
Q 2022 813 2416 1625 
Q 2909 2638 3053 4147 
z
" transform="scale(0.015625)"/>
        <path id="IPAexGothic-4ed6" d="M 2888 2881 
L 2888 581 
Q 2888 322 3022 256 
Q 3166 178 4047 178 
Q 4928 178 5184 228 
Q 5419 278 5466 478 
Q 5506 622 5538 1044 
L 5550 1159 
L 6009 1006 
Q 5934 34 5684 -128 
Q 5444 -281 4091 -281 
Q 2938 -281 2672 -153 
Q 2434 -41 2434 300 
L 2434 2747 
L 1794 2553 
L 1691 2988 
L 2434 3200 
L 2434 4825 
L 2888 4825 
L 2888 3328 
L 3644 3547 
L 3644 5247 
L 4097 5247 
L 4097 3675 
L 5300 4013 
L 5563 3834 
L 5563 1875 
Q 5563 1566 5428 1459 
Q 5319 1369 5059 1369 
Q 4844 1369 4438 1403 
L 4366 1850 
Q 4750 1778 4922 1778 
Q 5122 1778 5122 2009 
L 5122 3541 
L 4097 3238 
L 4097 991 
L 3644 991 
L 3644 3103 
L 2888 2881 
z
M 1503 3775 
L 1503 -447 
L 1063 -447 
L 1063 2900 
Q 797 2431 481 2022 
L 219 2419 
Q 1125 3622 1566 5241 
L 1991 5106 
Q 1822 4531 1503 3775 
z
" transform="scale(0.015625)"/>
       </defs>
       <use xlink:href="#IPAexGothic-305d"/>
       <use xlink:href="#IPAexGothic-306e" transform="translate(100 0)"/>
       <use xlink:href="#IPAexGothic-4ed6" transform="translate(200 0)"/>
      </g>
     </g>
    </g>
   </g>
   <g id="matplotlib.axis_2">
    <g id="ytick_1">
     <g id="line2d_7">
      <path d="M 55.1 260.5025 
L 397.15 260.5025 
" clip-path="url(#pccdf711e3f)" style="fill: none; stroke: #000000; stroke-opacity: 0.2; stroke-width: 0.5; stroke-linecap: square"/>
     </g>
     <g id="line2d_8">
      <defs>
       <path id="me55f965fb1" d="M 0 0 
L -3.5 0 
" style="stroke: #000000; stroke-width: 0.8"/>
      </defs>
      <g>
       <use xlink:href="#me55f965fb1" x="55.1" y="260.5025" style="stroke: #000000; stroke-width: 0.8"/>
      </g>
     </g>
     <g id="text_7">
      <!-- 0 -->
      <g transform="translate(41.801563 264.247813) scale(0.1 -0.1)">
       <defs>
        <path id="IPAexGothic-30" d="M 2038 4725 
Q 2881 4725 3334 3944 
Q 3694 3325 3694 2344 
Q 3694 1372 3334 741 
Q 2888 -31 2016 -31 
Q 1147 -31 700 741 
Q 341 1372 341 2350 
Q 341 3713 1000 4334 
Q 1419 4725 2038 4725 
z
M 2016 4266 
Q 1516 4266 1228 3759 
Q 934 3247 934 2344 
Q 934 1456 1222 947 
Q 1513 447 2016 447 
Q 2619 447 2909 1153 
Q 3100 1622 3100 2375 
Q 3100 3256 2806 3759 
Q 2509 4266 2016 4266 
z
" transform="scale(0.015625)"/>
       </defs>
       <use xlink:href="#IPAexGothic-30"/>
      </g>
     </g>
    </g>
    <g id="ytick_2">
     <g id="line2d_9">
      <path d="M 55.1 223.990992 
L 397.15 223.990992 
" clip-path="url(#pccdf711e3f)" style="fill: none; stroke: #000000; stroke-opacity: 0.2; stroke-width: 0.5; stroke-linecap: square"/>
     </g>
     <g id="line2d_10">
      <g>
       <use xlink:href="#me55f965fb1" x="55.1" y="223.990992" style="stroke: #000000; stroke-width: 0.8"/>
      </g>
     </g>
     <g id="text_8">
      <!-- 20 -->
      <g transform="translate(35.503125 227.736305) scale(0.1 -0.1)">
       <defs>
        <path id="IPAexGothic-32" d="M 3659 63 
L 447 63 
L 447 594 
Q 825 1475 1894 2203 
L 2072 2322 
Q 2619 2697 2791 2906 
Q 2988 3153 2988 3444 
Q 2988 3772 2756 4003 
Q 2500 4259 2084 4259 
Q 1250 4259 991 3328 
L 497 3506 
Q 853 4725 2116 4725 
Q 2806 4725 3216 4316 
Q 3575 3947 3575 3425 
Q 3575 3038 3344 2722 
Q 3131 2416 2366 1938 
L 2231 1856 
Q 1256 1253 978 569 
L 3659 569 
L 3659 63 
z
" transform="scale(0.015625)"/>
       </defs>
       <use xlink:href="#IPAexGothic-32"/>
       <use xlink:href="#IPAexGothic-30" transform="translate(62.988281 0)"/>
      </g>
     </g>
    </g>
    <g id="ytick_3">
     <g id="line2d_11">
      <path d="M 55.1 187.479484 
L 397.15 187.479484 
" clip-path="url(#pccdf711e3f)" style="fill: none; stroke: #000000; stroke-opacity: 0.2; stroke-width: 0.5; stroke-linecap: square"/>
     </g>
     <g id="line2d_12">
      <g>
       <use xlink:href="#me55f965fb1" x="55.1" y="187.479484" style="stroke: #000000; stroke-width: 0.8"/>
      </g>
     </g>
     <g id="text_9">
      <!-- 40 -->
      <g transform="translate(35.503125 191.224797) scale(0.1 -0.1)">
       <defs>
        <path id="IPAexGothic-34" d="M 3813 1159 
L 3059 1159 
L 3059 63 
L 2547 63 
L 2547 1159 
L 197 1159 
L 197 1672 
L 2456 4678 
L 3059 4678 
L 3059 1634 
L 3813 1634 
L 3813 1159 
z
M 2578 4109 
L 2559 4109 
Q 2278 3656 2003 3284 
L 759 1634 
L 2547 1634 
L 2547 3144 
Q 2547 3481 2578 4109 
z
" transform="scale(0.015625)"/>
       </defs>
       <use xlink:href="#IPAexGothic-34"/>
       <use xlink:href="#IPAexGothic-30" transform="translate(62.988281 0)"/>
      </g>
     </g>
    </g>
    <g id="ytick_4">
     <g id="line2d_13">
      <path d="M 55.1 150.967976 
L 397.15 150.967976 
" clip-path="url(#pccdf711e3f)" style="fill: none; stroke: #000000; stroke-opacity: 0.2; stroke-width: 0.5; stroke-linecap: square"/>
     </g>
     <g id="line2d_14">
      <g>
       <use xlink:href="#me55f965fb1" x="55.1" y="150.967976" style="stroke: #000000; stroke-width: 0.8"/>
      </g>
     </g>
     <g id="text_10">
      <!-- 60 -->
      <g transform="translate(35.503125 154.713289) scale(0.1 -0.1)">
       <defs>
        <path id="IPAexGothic-36" d="M 1056 2328 
Q 1509 2981 2234 2981 
Q 2906 2981 3316 2513 
Q 3675 2106 3675 1522 
Q 3675 884 3272 434 
Q 2853 -31 2178 -31 
Q 1375 -31 922 581 
Q 481 1178 481 2228 
Q 481 3425 1013 4109 
Q 1494 4725 2272 4725 
Q 3191 4725 3609 4025 
L 3150 3775 
Q 2894 4266 2300 4266 
Q 1119 4266 1031 2328 
L 1056 2328 
z
M 2141 2547 
Q 1684 2547 1384 2206 
Q 1116 1900 1116 1541 
Q 1116 1156 1353 844 
Q 1672 428 2159 428 
Q 2669 428 2941 844 
Q 3125 1128 3125 1503 
Q 3125 1944 2881 2228 
Q 2600 2547 2141 2547 
z
" transform="scale(0.015625)"/>
       </defs>
       <use xlink:href="#IPAexGothic-36"/>
       <use xlink:href="#IPAexGothic-30" transform="translate(62.988281 0)"/>
      </g>
     </g>
    </g>
    <g id="ytick_5">
     <g id="line2d_15">
      <path d="M 55.1 114.456468 
L 397.15 114.456468 
" clip-path="url(#pccdf711e3f)" style="fill: none; stroke: #000000; stroke-opacity: 0.2; stroke-width: 0.5; stroke-linecap: square"/>
     </g>
     <g id="line2d_16">
      <g>
       <use xlink:href="#me55f965fb1" x="55.1" y="114.456468" style="stroke: #000000; stroke-width: 0.8"/>
      </g>
     </g>
     <g id="text_11">
      <!-- 80 -->
      <g transform="translate(35.503125 118.201781) scale(0.1 -0.1)">
       <defs>
        <path id="IPAexGothic-38" d="M 2541 2425 
Q 3700 2031 3700 1197 
Q 3700 541 3100 197 
Q 2663 -56 2016 -56 
Q 1366 -56 928 197 
Q 347 531 347 1178 
Q 347 1988 1409 2381 
L 1409 2400 
Q 481 2734 481 3509 
Q 481 4100 981 4456 
Q 1406 4756 2019 4756 
Q 2703 4756 3131 4403 
Q 3553 4069 3553 3566 
Q 3553 2706 2541 2444 
L 2541 2425 
z
M 2022 2625 
Q 2997 2856 2997 3528 
Q 2997 3916 2675 4150 
Q 2413 4347 2016 4347 
Q 1606 4347 1331 4128 
Q 1050 3897 1050 3522 
Q 1050 3150 1350 2925 
Q 1494 2809 1722 2722 
Q 1984 2616 2022 2625 
z
M 1978 2209 
Q 922 1931 922 1216 
Q 922 775 1313 556 
Q 1606 391 2009 391 
Q 2575 391 2881 697 
Q 3106 922 3106 1250 
Q 3106 1594 2794 1850 
Q 2609 1994 2350 2100 
Q 2047 2222 1978 2209 
z
" transform="scale(0.015625)"/>
       </defs>
       <use xlink:href="#IPAexGothic-38"/>
       <use xlink:href="#IPAexGothic-30" transform="translate(62.988281 0)"/>
      </g>
     </g>
    </g>
    <g id="ytick_6">
     <g id="line2d_17">
      <path d="M 55.1 77.94496 
L 397.15 77.94496 
" clip-path="url(#pccdf711e3f)" style="fill: none; stroke: #000000; stroke-opacity: 0.2; stroke-width: 0.5; stroke-linecap: square"/>
     </g>
     <g id="line2d_18">
      <g>
       <use xlink:href="#me55f965fb1" x="55.1" y="77.94496" style="stroke: #000000; stroke-width: 0.8"/>
      </g>
     </g>
     <g id="text_12">
      <!-- 100 -->
      <g transform="translate(29.204688 81.690273) scale(0.1 -0.1)">
       <defs>
        <path id="IPAexGothic-31" d="M 2463 63 
L 1900 63 
L 1900 4103 
Q 1372 3922 788 3797 
L 684 4231 
Q 1519 4441 2106 4731 
L 2463 4731 
L 2463 63 
z
" transform="scale(0.015625)"/>
       </defs>
       <use xlink:href="#IPAexGothic-31"/>
       <use xlink:href="#IPAexGothic-30" transform="translate(62.988281 0)"/>
       <use xlink:href="#IPAexGothic-30" transform="translate(125.976562 0)"/>
      </g>
     </g>
    </g>
    <g id="ytick_7">
     <g id="line2d_19">
      <path d="M 55.1 41.433452 
L 397.15 41.433452 
" clip-path="url(#pccdf711e3f)" style="fill: none; stroke: #000000; stroke-opacity: 0.2; stroke-width: 0.5; stroke-linecap: square"/>
     </g>
     <g id="line2d_20">
      <g>
       <use xlink:href="#me55f965fb1" x="55.1" y="41.433452" style="stroke: #000000; stroke-width: 0.8"/>
      </g>
     </g>
     <g id="text_13">
      <!-- 120 -->
      <g transform="translate(29.204688 45.178765) scale(0.1 -0.1)">
       <use xlink:href="#IPAexGothic-31"/>
       <use xlink:href="#IPAexGothic-32" transform="translate(62.988281 0)"/>
       <use xlink:href="#IPAexGothic-30" transform="translate(125.976562 0)"/>
      </g>
     </g>
    </g>
    <g id="text_14">
     <!-- 件数 -->
     <g transform="translate(22.468688 159.89125) rotate(-90) scale(0.144 -0.144)">
      <defs>
       <path id="IPAexGothic-4ef6" d="M 3903 3425 
L 2906 3425 
Q 2697 2825 2309 2247 
L 1991 2572 
Q 2588 3497 2803 4788 
L 3256 4713 
Q 3175 4313 3041 3834 
L 3903 3834 
L 3903 5250 
L 4356 5250 
L 4356 3834 
L 5731 3834 
L 5731 3425 
L 4356 3425 
L 4356 2009 
L 6041 2009 
L 6041 1594 
L 4356 1594 
L 4356 -447 
L 3903 -447 
L 3903 1594 
L 2078 1594 
L 2078 2009 
L 3903 2009 
L 3903 3425 
z
M 1638 3681 
L 1638 -447 
L 1169 -447 
L 1169 2753 
Q 881 2272 575 1863 
L 313 2253 
Q 1238 3463 1650 5184 
L 2125 5069 
Q 1909 4316 1638 3681 
z
" transform="scale(0.015625)"/>
       <path id="IPAexGothic-6570" d="M 2847 1553 
Q 2741 1006 2425 534 
Q 2625 441 3091 203 
L 2809 -188 
Q 2541 0 2144 209 
Q 1569 -291 703 -500 
L 422 -125 
Q 1263 19 1747 406 
Q 1222 650 734 816 
Q 975 1172 1147 1503 
L 1172 1553 
L 359 1553 
L 359 1925 
L 1344 1925 
Q 1406 2066 1569 2475 
L 1691 2450 
L 1691 3372 
Q 1250 2738 550 2303 
L 275 2663 
Q 1019 3013 1528 3641 
L 378 3641 
L 378 4006 
L 1691 4006 
L 1691 5313 
L 2113 5313 
L 2113 4006 
L 3297 4006 
L 3297 3641 
L 2113 3641 
L 2113 3513 
Q 2659 3291 3175 2963 
L 2956 2584 
Q 2553 2922 2113 3159 
L 2113 2372 
L 1966 2372 
Q 1928 2288 1872 2141 
Q 1806 1975 1784 1925 
L 3378 1925 
L 3378 1553 
L 2847 1553 
z
M 2419 1553 
L 1613 1553 
Q 1478 1269 1313 997 
Q 1559 909 2047 703 
Q 2313 1047 2419 1553 
z
M 4363 1163 
Q 3953 1781 3738 2638 
Q 3575 2281 3428 2016 
L 3103 2406 
Q 3675 3444 3916 5291 
L 4363 5200 
Q 4284 4666 4197 4197 
L 6009 4197 
L 6009 3775 
L 5503 3775 
Q 5397 2275 4869 1191 
Q 5419 503 6144 75 
L 5822 -378 
Q 5188 106 4631 788 
Q 4113 34 3341 -463 
L 3031 -78 
Q 3888 406 4363 1163 
z
M 4588 1594 
Q 4938 2388 5059 3775 
L 4100 3775 
Q 4041 3519 3972 3288 
Q 3981 3250 3991 3194 
Q 4175 2256 4588 1594 
z
M 1003 4116 
Q 878 4544 638 4934 
L 1053 5094 
Q 1247 4788 1438 4269 
L 1003 4116 
z
M 2316 4269 
Q 2550 4688 2688 5131 
L 3128 4997 
Q 2966 4588 2675 4128 
L 2316 4269 
z
" transform="scale(0.015625)"/>
      </defs>
      <use xlink:href="#IPAexGothic-4ef6"/>
      <use xlink:href="#IPAexGothic-6570" transform="translate(100 0)"/>
     </g>
    </g>
   </g>
   <g id="line2d_21">
    <path d="M 279.737853 260.5025 
L 279.737853 30.48 
" clip-path="url(#pccdf711e3f)" style="fill: none; stroke-dasharray: 1,1.65; stroke-dashoffset: 0; stroke: #475569"/>
   </g>
   <g id="text_15">
    <!-- 問い合わせカテゴリのパレート分析 -->
    <g transform="translate(87.885 24.48) scale(0.1728 -0.1728)">
     <defs>
      <path id="IPAexGothic-3044" d="M 3369 1447 
Q 2906 122 2278 122 
Q 1966 122 1647 481 
Q 1209 966 1044 1966 
Q 891 2888 891 4313 
L 1422 4313 
Q 1413 2444 1666 1550 
Q 1913 678 2278 678 
Q 2619 678 2925 1791 
L 3369 1447 
z
M 5378 1294 
Q 4928 2797 4034 3809 
L 4488 4031 
Q 5375 3000 5881 1563 
L 5378 1294 
z
" transform="scale(0.015625)"/>
      <path id="IPAexGothic-5408" d="M 1831 3188 
L 4653 3188 
L 4653 2778 
L 1747 2778 
L 1747 3125 
Q 1275 2778 594 2453 
L 294 2828 
Q 2006 3509 2891 5147 
L 3431 5147 
Q 4331 3806 6125 3003 
L 5831 2588 
Q 4119 3416 3175 4731 
Q 2650 3806 1831 3188 
z
M 5113 2088 
L 5113 -450 
L 4638 -450 
L 4638 -97 
L 1766 -97 
L 1766 -450 
L 1284 -450 
L 1284 2088 
L 5113 2088 
z
M 1766 1691 
L 1766 300 
L 4638 300 
L 4638 1691 
L 1766 1691 
z
" transform="scale(0.015625)"/>
      <path id="IPAexGothic-308f" d="M 609 3672 
Q 1272 3750 1894 3884 
L 1934 4978 
L 2406 4972 
L 2369 3934 
L 2753 3634 
Q 2416 3238 2356 3153 
Q 2350 3078 2350 2853 
Q 3322 3616 4219 3616 
Q 4878 3616 5331 3200 
Q 5819 2750 5819 2028 
Q 5819 419 3584 -53 
L 3266 391 
Q 5294 766 5294 2034 
Q 5294 2534 5000 2847 
Q 4691 3175 4175 3175 
Q 3341 3175 2344 2303 
Q 2344 678 2369 -150 
L 1881 -150 
Q 1863 1200 1869 1888 
Q 1766 1781 866 716 
L 513 1081 
Q 1450 2088 1869 2469 
Q 1869 2500 1878 2947 
Q 1881 3225 1888 3456 
Q 1406 3319 744 3178 
L 609 3672 
z
" transform="scale(0.015625)"/>
      <path id="IPAexGothic-305b" d="M 4013 4922 
L 4500 4922 
L 4500 3475 
L 5881 3541 
L 5900 3116 
L 4500 3053 
L 4500 1863 
Q 4500 1363 3994 1363 
Q 3563 1363 3169 1516 
L 3169 1997 
Q 3575 1816 3816 1816 
Q 4013 1816 4013 2028 
L 4013 3028 
L 2191 2944 
L 2191 1044 
Q 2191 613 2550 525 
Q 2784 463 3609 463 
Q 4384 463 5172 544 
L 5191 44 
Q 4403 -19 3641 -19 
Q 2456 -19 2081 172 
Q 1697 375 1697 909 
L 1697 2919 
L 488 2859 
L 469 3291 
L 1697 3347 
L 1697 4609 
L 2191 4609 
L 2191 3366 
L 4013 3456 
L 4013 4922 
z
" transform="scale(0.015625)"/>
      <path id="IPAexGothic-30ab" d="M 2734 4981 
L 3247 4981 
L 3247 3694 
L 5250 3694 
L 5250 3491 
L 5250 3425 
Q 5250 1334 5019 500 
Q 4856 -84 4297 -84 
Q 3788 -84 3247 172 
L 3228 731 
Q 3859 441 4200 441 
Q 4484 441 4553 763 
Q 4706 1478 4738 3234 
L 3206 3234 
Q 3025 906 1159 -134 
L 769 263 
Q 2519 1134 2700 3209 
L 916 3209 
L 916 3669 
L 2734 3669 
L 2734 4981 
z
" transform="scale(0.015625)"/>
      <path id="IPAexGothic-30c6" d="M 563 3072 
L 5741 3072 
L 5741 2613 
L 3578 2613 
Q 3538 1516 3134 872 
Q 2688 156 1663 -256 
L 1313 156 
Q 2338 538 2713 1166 
Q 3003 1644 3034 2613 
L 563 2613 
L 563 3072 
z
M 1406 4588 
L 4941 4588 
L 4941 4128 
L 1406 4128 
L 1406 4588 
z
" transform="scale(0.015625)"/>
      <path id="IPAexGothic-30b4" d="M 1000 4109 
L 5031 4109 
L 5031 50 
L 4519 50 
L 4519 494 
L 928 494 
L 928 988 
L 4519 988 
L 4519 3622 
L 1000 3622 
L 1000 4109 
z
M 6009 4447 
Q 5647 4991 5253 5319 
L 5556 5550 
Q 5941 5241 6328 4722 
L 6009 4447 
z
M 5416 3981 
Q 5125 4472 4678 4872 
L 4991 5113 
Q 5363 4806 5747 4256 
L 5416 3981 
z
" transform="scale(0.015625)"/>
      <path id="IPAexGothic-30ea" d="M 1678 4788 
L 2222 4788 
L 2222 1900 
L 1678 1900 
L 1678 4788 
z
M 4084 4909 
L 4628 4909 
L 4628 2753 
Q 4628 1563 4150 794 
Q 3725 119 2772 -353 
L 2394 78 
Q 3334 494 3706 1094 
Q 4084 1703 4084 2725 
L 4084 4909 
z
" transform="scale(0.015625)"/>
      <path id="IPAexGothic-30d1" d="M 403 897 
Q 1447 2063 1947 3878 
L 2472 3694 
Q 1913 1772 872 538 
L 403 897 
z
M 5416 672 
Q 4669 2269 3659 3719 
L 4122 3963 
Q 5025 2728 5931 1019 
L 5416 672 
z
M 5228 5234 
Q 5538 5234 5750 5000 
Q 5931 4797 5931 4531 
Q 5931 4219 5697 4006 
Q 5497 3822 5228 3822 
Q 4916 3822 4703 4056 
Q 4519 4259 4519 4531 
Q 4519 4841 4753 5050 
Q 4956 5234 5228 5234 
z
M 5228 4953 
Q 5038 4953 4909 4813 
Q 4800 4691 4800 4531 
Q 4800 4341 4941 4213 
Q 5063 4103 5228 4103 
Q 5413 4103 5541 4244 
Q 5650 4366 5650 4531 
Q 5650 4716 5509 4844 
Q 5388 4953 5228 4953 
z
" transform="scale(0.015625)"/>
      <path id="IPAexGothic-30ec" d="M 1538 4706 
L 2075 4706 
L 2075 622 
Q 4059 1375 5172 2894 
L 5481 2431 
Q 4922 1678 3931 1019 
Q 2919 334 1928 -31 
L 1538 269 
L 1538 4706 
z
" transform="scale(0.015625)"/>
      <path id="IPAexGothic-30c8" d="M 2284 4997 
L 2803 4997 
L 2803 3206 
Q 4088 2619 5216 1888 
L 4878 1369 
Q 3819 2175 2803 2688 
L 2803 -184 
L 2284 -184 
L 2284 4997 
z
" transform="scale(0.015625)"/>
      <path id="IPAexGothic-5206" d="M 3031 2431 
Q 2916 1378 2528 759 
Q 1991 -81 941 -469 
L 625 -53 
Q 2356 488 2541 2431 
L 1375 2431 
L 1375 2772 
Q 1044 2431 653 2156 
L 313 2534 
Q 1600 3425 2219 5056 
L 2688 4875 
Q 2200 3672 1453 2847 
L 4966 2847 
Q 4878 559 4741 94 
Q 4666 -163 4459 -250 
Q 4288 -322 3941 -322 
Q 3525 -322 2981 -263 
L 2884 256 
Q 3441 138 3844 138 
Q 4213 138 4281 438 
Q 4388 931 4472 2431 
L 3031 2431 
z
M 5747 2303 
Q 4416 3238 3506 4934 
L 3934 5113 
Q 4747 3572 6084 2747 
L 5747 2303 
z
" transform="scale(0.015625)"/>
      <path id="IPAexGothic-6790" d="M 1363 2669 
L 1350 2625 
Q 1066 1647 550 781 
L 263 1256 
Q 953 2256 1300 3541 
L 397 3541 
L 397 3956 
L 1363 3956 
L 1363 5300 
L 1803 5300 
L 1803 3956 
L 2700 3956 
L 2700 3541 
L 1803 3541 
L 1803 2931 
Q 2375 2453 2788 1991 
L 2519 1531 
Q 2156 2053 1803 2434 
L 1803 -447 
L 1363 -447 
L 1363 2669 
z
M 3016 4634 
L 3156 4647 
Q 4450 4763 5319 5075 
L 5709 4678 
Q 4731 4363 3469 4256 
L 3469 3213 
L 6088 3213 
L 6088 2797 
L 5134 2797 
L 5134 -441 
L 4681 -441 
L 4681 2797 
L 3469 2797 
Q 3469 1600 3347 972 
Q 3184 100 2663 -525 
L 2331 -225 
Q 2850 488 2953 1325 
Q 3016 1772 3016 2584 
L 3016 4634 
z
" transform="scale(0.015625)"/>
     </defs>
     <use xlink:href="#IPAexGothic-554f"/>
     <use xlink:href="#IPAexGothic-3044" transform="translate(100 0)"/>
     <use xlink:href="#IPAexGothic-5408" transform="translate(200 0)"/>
     <use xlink:href="#IPAexGothic-308f" transform="translate(300 0)"/>
     <use xlink:href="#IPAexGothic-305b" transform="translate(400 0)"/>
     <use xlink:href="#IPAexGothic-30ab" transform="translate(500 0)"/>
     <use xlink:href="#IPAexGothic-30c6" transform="translate(600 0)"/>
     <use xlink:href="#IPAexGothic-30b4" transform="translate(700 0)"/>
     <use xlink:href="#IPAexGothic-30ea" transform="translate(800 0)"/>
     <use xlink:href="#IPAexGothic-306e" transform="translate(900 0)"/>
     <use xlink:href="#IPAexGothic-30d1" transform="translate(1000 0)"/>
     <use xlink:href="#IPAexGothic-30ec" transform="translate(1100 0)"/>
     <use xlink:href="#IPAexGothic-30fc" transform="translate(1200 0)"/>
     <use xlink:href="#IPAexGothic-30c8" transform="translate(1300 0)"/>
     <use xlink:href="#IPAexGothic-5206" transform="translate(1400 0)"/>
     <use xlink:href="#IPAexGothic-6790" transform="translate(1500 0)"/>
    </g>
   </g>
  </g>
  <g id="axes_2">
   <g id="matplotlib.axis_3">
    <g id="ytick_8">
     <g id="line2d_22">
      <defs>
       <path id="m8c6428f343" d="M 0 0 
L 3.5 0 
" style="stroke: #000000; stroke-width: 0.8"/>
      </defs>
      <g>
       <use xlink:href="#m8c6428f343" x="397.15" y="260.5025" style="stroke: #000000; stroke-width: 0.8"/>
      </g>
     </g>
     <g id="text_16">
      <!-- 0% -->
      <g transform="translate(404.15 264.247813) scale(0.1 -0.1)">
       <defs>
        <path id="IPAexGothic-25" d="M 4088 2481 
Q 4528 2481 4800 2181 
Q 5094 1847 5094 1203 
Q 5094 534 4728 197 
Q 4472 -38 4088 -38 
Q 3647 -38 3378 269 
Q 3084 600 3084 1222 
Q 3084 1906 3444 2244 
Q 3697 2481 4088 2481 
z
M 4081 2097 
Q 3566 2097 3566 1234 
Q 3566 356 4097 356 
Q 4613 356 4613 1241 
Q 4613 2097 4081 2097 
z
M 1331 4731 
Q 1769 4731 2041 4431 
Q 2334 4097 2334 3450 
Q 2334 2781 1969 2447 
Q 1713 2209 1331 2209 
Q 888 2209 619 2516 
Q 325 2850 325 3472 
Q 325 4156 684 4494 
Q 941 4731 1331 4731 
z
M 1322 4347 
Q 806 4347 806 3484 
Q 806 2606 1338 2606 
Q 1859 2606 1859 3484 
Q 1859 3859 1725 4091 
Q 1584 4347 1322 4347 
z
M 4569 4603 
L 1106 -134 
L 856 78 
L 4313 4813 
L 4569 4603 
z
" transform="scale(0.015625)"/>
       </defs>
       <use xlink:href="#IPAexGothic-30"/>
       <use xlink:href="#IPAexGothic-25" transform="translate(62.988281 0)"/>
      </g>
     </g>
    </g>
    <g id="ytick_9">
     <g id="line2d_23">
      <g>
       <use xlink:href="#m8c6428f343" x="397.15" y="216.68869" style="stroke: #000000; stroke-width: 0.8"/>
      </g>
     </g>
     <g id="text_17">
      <!-- 20% -->
      <g transform="translate(404.15 220.434003) scale(0.1 -0.1)">
       <use xlink:href="#IPAexGothic-32"/>
       <use xlink:href="#IPAexGothic-30" transform="translate(62.988281 0)"/>
       <use xlink:href="#IPAexGothic-25" transform="translate(125.976562 0)"/>
      </g>
     </g>
    </g>
    <g id="ytick_10">
     <g id="line2d_24">
      <g>
       <use xlink:href="#m8c6428f343" x="397.15" y="172.874881" style="stroke: #000000; stroke-width: 0.8"/>
      </g>
     </g>
     <g id="text_18">
      <!-- 40% -->
      <g transform="translate(404.15 176.620193) scale(0.1 -0.1)">
       <use xlink:href="#IPAexGothic-34"/>
       <use xlink:href="#IPAexGothic-30" transform="translate(62.988281 0)"/>
       <use xlink:href="#IPAexGothic-25" transform="translate(125.976562 0)"/>
      </g>
     </g>
    </g>
    <g id="ytick_11">
     <g id="line2d_25">
      <g>
       <use xlink:href="#m8c6428f343" x="397.15" y="129.061071" style="stroke: #000000; stroke-width: 0.8"/>
      </g>
     </g>
     <g id="text_19">
      <!-- 60% -->
      <g transform="translate(404.15 132.806384) scale(0.1 -0.1)">
       <use xlink:href="#IPAexGothic-36"/>
       <use xlink:href="#IPAexGothic-30" transform="translate(62.988281 0)"/>
       <use xlink:href="#IPAexGothic-25" transform="translate(125.976562 0)"/>
      </g>
     </g>
    </g>
    <g id="ytick_12">
     <g id="line2d_26">
      <g>
       <use xlink:href="#m8c6428f343" x="397.15" y="85.247262" style="stroke: #000000; stroke-width: 0.8"/>
      </g>
     </g>
     <g id="text_20">
      <!-- 80% -->
      <g transform="translate(404.15 88.992574) scale(0.1 -0.1)">
       <use xlink:href="#IPAexGothic-38"/>
       <use xlink:href="#IPAexGothic-30" transform="translate(62.988281 0)"/>
       <use xlink:href="#IPAexGothic-25" transform="translate(125.976562 0)"/>
      </g>
     </g>
    </g>
    <g id="ytick_13">
     <g id="line2d_27">
      <g>
       <use xlink:href="#m8c6428f343" x="397.15" y="41.433452" style="stroke: #000000; stroke-width: 0.8"/>
      </g>
     </g>
     <g id="text_21">
      <!-- 100% -->
      <g transform="translate(404.15 45.178765) scale(0.1 -0.1)">
       <use xlink:href="#IPAexGothic-31"/>
       <use xlink:href="#IPAexGothic-30" transform="translate(62.988281 0)"/>
       <use xlink:href="#IPAexGothic-30" transform="translate(125.976562 0)"/>
       <use xlink:href="#IPAexGothic-25" transform="translate(188.964844 0)"/>
      </g>
     </g>
    </g>
    <g id="text_22">
     <!-- 累積比率 -->
     <g transform="translate(446.333375 174.29125) rotate(-90) scale(0.144 -0.144)">
      <defs>
       <path id="IPAexGothic-7d2f" d="M 3413 1209 
L 3413 -450 
L 2938 -450 
L 2938 1181 
L 2541 1163 
Q 1875 1131 525 1100 
L 384 1534 
Q 1159 1534 1522 1541 
L 2316 1547 
Q 1847 1988 1313 2353 
L 1644 2628 
Q 1944 2413 2156 2238 
Q 2441 2488 2759 2866 
L 891 2866 
L 891 5025 
L 5503 5025 
L 5503 2866 
L 2913 2866 
L 3194 2694 
Q 2866 2356 2438 2000 
L 2475 1969 
Q 2481 1966 2884 1597 
L 2925 1559 
Q 3644 2125 4191 2713 
L 4606 2481 
Q 4081 1953 3553 1578 
Q 3622 1584 3750 1584 
Q 4428 1606 4722 1625 
L 5050 1638 
Q 4819 1847 4569 2034 
L 4900 2284 
Q 5453 1884 6047 1272 
L 5688 972 
Q 5538 1156 5363 1328 
L 5138 1316 
Q 4447 1259 3641 1216 
L 3413 1209 
z
M 1325 4659 
L 1325 4128 
L 2963 4128 
L 2963 4659 
L 1325 4659 
z
M 1325 3788 
L 1325 3219 
L 2963 3219 
L 2963 3788 
L 1325 3788 
z
M 5063 3219 
L 5063 3788 
L 3394 3788 
L 3394 3219 
L 5063 3219 
z
M 5063 4128 
L 5063 4659 
L 3394 4659 
L 3394 4128 
L 5063 4128 
z
M 494 25 
Q 1316 375 1944 1006 
L 2375 788 
Q 1775 131 869 -347 
L 494 25 
z
M 5575 -213 
Q 4806 431 4081 806 
L 4453 1081 
Q 5194 716 5984 141 
L 5575 -213 
z
" transform="scale(0.015625)"/>
       <path id="IPAexGothic-7a4d" d="M 2369 3513 
L 3981 3513 
L 3981 3828 
L 2656 3828 
L 2656 4153 
L 3981 4153 
L 3981 4447 
L 2472 4447 
L 2472 4788 
L 3981 4788 
L 3981 5313 
L 4403 5313 
L 4403 4788 
L 5966 4788 
L 5966 4447 
L 4403 4447 
L 4403 4153 
L 5747 4153 
L 5747 3828 
L 4403 3828 
L 4403 3513 
L 6081 3513 
L 6081 3166 
L 2309 3166 
L 2309 3297 
L 1678 3297 
L 1678 2713 
Q 2091 2372 2509 1919 
L 2228 1516 
Q 1994 1878 1678 2225 
L 1678 -450 
L 1256 -450 
L 1256 2434 
Q 934 1434 450 741 
L 238 1181 
Q 928 2197 1203 3297 
L 328 3297 
L 328 3700 
L 1256 3700 
L 1256 4550 
Q 856 4469 519 4422 
L 341 4788 
Q 1275 4919 2069 5222 
L 2381 4859 
Q 2031 4738 1678 4647 
L 1678 3700 
L 2369 3700 
L 2369 3513 
z
M 3622 575 
L 3950 306 
Q 3284 -219 2578 -488 
L 2278 -141 
Q 2969 94 3616 575 
L 2791 575 
L 2791 2853 
L 5653 2853 
L 5653 575 
L 3622 575 
z
M 3194 2522 
L 3194 2194 
L 5244 2194 
L 5244 2522 
L 3194 2522 
z
M 3194 1894 
L 3194 1569 
L 5244 1569 
L 5244 1894 
L 3194 1894 
z
M 3194 1269 
L 3194 916 
L 5244 916 
L 5244 1269 
L 3194 1269 
z
M 5791 -422 
Q 5163 6 4466 294 
L 4769 569 
Q 5425 344 6131 -72 
L 5791 -422 
z
" transform="scale(0.015625)"/>
       <path id="IPAexGothic-6bd4" d="M 1525 3250 
L 3003 3250 
L 3003 2822 
L 1525 2822 
L 1525 472 
Q 2469 747 3016 934 
L 3041 531 
Q 1813 59 459 -300 
L 294 159 
Q 694 250 1056 344 
L 1056 5081 
L 1525 5081 
L 1525 3250 
z
M 3794 3028 
Q 4691 3472 5341 4038 
L 5744 3706 
Q 4778 2969 3794 2572 
L 3794 556 
Q 3794 353 3978 313 
Q 4106 288 4472 288 
Q 5169 288 5328 378 
Q 5491 463 5522 1516 
L 5994 1356 
Q 5966 238 5772 34 
Q 5566 -172 4491 -172 
Q 3809 -172 3588 -75 
Q 3334 28 3334 397 
L 3334 5113 
L 3794 5113 
L 3794 3028 
z
" transform="scale(0.015625)"/>
       <path id="IPAexGothic-7387" d="M 3022 2847 
Q 3338 3231 3684 3744 
L 4053 3525 
Q 3506 2766 2919 2181 
L 3266 2200 
Q 3575 2209 3825 2234 
Q 3728 2406 3575 2616 
L 3913 2772 
Q 4244 2350 4541 1766 
L 4156 1547 
Q 4084 1753 3997 1913 
L 3856 1894 
Q 3709 1875 3416 1850 
L 3416 1228 
L 6084 1228 
L 6084 819 
L 3416 819 
L 3416 -447 
L 2941 -447 
L 2941 819 
L 322 819 
L 322 1228 
L 2941 1228 
L 2941 1803 
L 2881 1797 
Q 2306 1759 2031 1747 
L 1903 2163 
Q 2319 2163 2416 2169 
Q 2522 2269 2772 2553 
Q 2347 3028 1916 3347 
L 2184 3653 
L 2447 3425 
Q 2681 3744 2869 4128 
L 547 4128 
L 547 4525 
L 2941 4525 
L 2941 5313 
L 3416 5313 
L 3416 4525 
L 5853 4525 
L 5853 4128 
L 2972 4128 
L 3278 3981 
Q 2991 3509 2697 3188 
Q 2850 3041 3022 2847 
z
M 1497 2822 
Q 1128 3263 691 3566 
L 1000 3847 
Q 1409 3588 1831 3156 
L 1497 2822 
z
M 4219 3078 
Q 4794 3478 5147 3897 
L 5538 3616 
Q 5078 3178 4494 2803 
L 4219 3078 
z
M 5556 1631 
Q 4997 2109 4372 2444 
L 4659 2741 
Q 5356 2381 5894 1984 
L 5556 1631 
z
M 538 1925 
Q 1306 2297 1881 2803 
L 2075 2456 
Q 1622 2034 813 1528 
L 538 1925 
z
" transform="scale(0.015625)"/>
      </defs>
      <use xlink:href="#IPAexGothic-7d2f"/>
      <use xlink:href="#IPAexGothic-7a4d" transform="translate(100 0)"/>
      <use xlink:href="#IPAexGothic-6bd4" transform="translate(200 0)"/>
      <use xlink:href="#IPAexGothic-7387" transform="translate(300 0)"/>
     </g>
    </g>
   </g>
   <g id="line2d_28">
    <path d="M 92.092868 190.956771 
L 145.705721 135.899735 
L 199.318574 95.331393 
L 252.931426 69.251744 
L 306.544279 51.865312 
L 360.157132 41.433452 
" clip-path="url(#pccdf711e3f)" style="fill: none; stroke: #ef4444; stroke-width: 1.2; stroke-linecap: square"/>
    <defs>
     <path id="m3d7c30c4c4" d="M 0 4 
C 1.060812 4 2.078319 3.578535 2.828427 2.828427 
C 3.578535 2.078319 4 1.060812 4 0 
C 4 -1.060812 3.578535 -2.078319 2.828427 -2.828427 
C 2.078319 -3.578535 1.060812 -4 0 -4 
C -1.060812 -4 -2.078319 -3.578535 -2.828427 -2.828427 
C -3.578535 -2.078319 -4 -1.060812 -4 0 
C -4 1.060812 -3.578535 2.078319 -2.828427 2.828427 
C -2.078319 3.578535 -1.060812 4 0 4 
z
" style="stroke: #ef4444"/>
    </defs>
    <g clip-path="url(#pccdf711e3f)">
     <use xlink:href="#m3d7c30c4c4" x="92.092868" y="190.956771" style="fill: #ef4444; stroke: #ef4444"/>
     <use xlink:href="#m3d7c30c4c4" x="145.705721" y="135.899735" style="fill: #ef4444; stroke: #ef4444"/>
     <use xlink:href="#m3d7c30c4c4" x="199.318574" y="95.331393" style="fill: #ef4444; stroke: #ef4444"/>
     <use xlink:href="#m3d7c30c4c4" x="252.931426" y="69.251744" style="fill: #ef4444; stroke: #ef4444"/>
     <use xlink:href="#m3d7c30c4c4" x="306.544279" y="51.865312" style="fill: #ef4444; stroke: #ef4444"/>
     <use xlink:href="#m3d7c30c4c4" x="360.157132" y="41.433452" style="fill: #ef4444; stroke: #ef4444"/>
    </g>
   </g>
   <g id="line2d_29">
    <path d="M 55.1 85.247262 
L 397.15 85.247262 
" clip-path="url(#pccdf711e3f)" style="fill: none; stroke-dasharray: 3.7,1.6; stroke-dashoffset: 0; stroke: #475569"/>
   </g>
  </g>
 </g>
 <defs>
  <clipPath id="pccdf711e3f">
   <rect x="55.1" y="30.48" width="342.05" height="230.0225"/>
  </clipPath>
 </defs>
</svg>
