<?xml version="1.0" encoding="utf-8" standalone="no"?>
<!DOCTYPE svg PUBLIC "-//W3C//DTD SVG 1.1//EN"
  "http://www.w3.org/Graphics/SVG/1.1/DTD/svg11.dtd">
<svg xmlns:xlink="http://www.w3.org/1999/xlink" width="360pt" height="360pt" viewBox="0 0 360 360" xmlns="http://www.w3.org/2000/svg" version="1.1">
 <metadata>
  <rdf:RDF xmlns:dc="http://purl.org/dc/elements/1.1/" xmlns:cc="http://creativecommons.org/ns#" xmlns:rdf="http://www.w3.org/1999/02/22-rdf-syntax-ns#">
   <cc:Work>
    <dc:type rdf:resource="http://purl.org/dc/dcmitype/StillImage"/>
    <dc:date>2025-10-27T02:36:14.920853</dc:date>
    <dc:format>image/svg+xml</dc:format>
    <dc:creator>
     <cc:Agent>
      <dc:title>Matplotlib v3.10.7, https://matplotlib.org/</dc:title>
     </cc:Agent>
    </dc:creator>
   </cc:Work>
  </rdf:RDF>
 </metadata>
 <defs>
  <style type="text/css">*{stroke-linejoin: round; stroke-linecap: butt}</style>
 </defs>
 <g id="figure_1">
  <g id="patch_1">
   <path d="M 0 360 
L 360 360 
L 360 0 
L 0 0 
z
" style="fill: #ffffff"/>
  </g>
  <g id="axes_1">
   <g id="patch_2">
    <path d="M 320.68 189.84 
C 320.68 171.366072 317.041039 153.071779 309.971373 136.004095 
C 302.901706 118.93641 292.538822 103.427258 279.475782 90.364218 
C 266.412742 77.301178 250.90359 66.938294 233.835905 59.868627 
C 216.768221 52.798961 198.473928 49.16 180 49.16 
C 161.526072 49.16 143.231779 52.798961 126.164095 59.868627 
C 109.09641 66.938294 93.587258 77.301178 80.524218 90.364218 
C 67.461178 103.427258 57.098294 118.93641 50.028627 136.004095 
C 42.958961 153.071779 39.32 171.366072 39.32 189.84 
C 39.32 208.313928 42.958961 226.608221 50.028627 243.675905 
C 57.098294 260.74359 67.461178 276.252742 80.524218 289.315782 
C 93.587258 302.378822 109.09641 312.741706 126.164095 319.811373 
C 143.231779 326.881039 161.526072 330.52 180 330.52 
C 198.473928 330.52 216.768221 326.881039 233.835905 319.811373 
C 250.90359 312.741706 266.412742 302.378822 279.475782 289.315782 
C 292.538822 276.252742 302.901706 260.74359 309.971373 243.675905 
C 317.041039 226.608221 320.68 208.313928 320.68 189.84 
M 180 189.84 
C 180 189.84 180 189.84 180 189.84 
C 180 189.84 180 189.84 180 189.84 
C 180 189.84 180 189.84 180 189.84 
C 180 189.84 180 189.84 180 189.84 
C 180 189.84 180 189.84 180 189.84 
C 180 189.84 180 189.84 180 189.84 
C 180 189.84 180 189.84 180 189.84 
C 180 189.84 180 189.84 180 189.84 
C 180 189.84 180 189.84 180 189.84 
C 180 189.84 180 189.84 180 189.84 
C 180 189.84 180 189.84 180 189.84 
C 180 189.84 180 189.84 180 189.84 
C 180 189.84 180 189.84 180 189.84 
C 180 189.84 180 189.84 180 189.84 
C 180 189.84 180 189.84 180 189.84 
C 180 189.84 180 189.84 180 189.84 
z
" style="fill: #ffffff"/>
   </g>
   <g id="patch_3">
    <path d="M 180 189.84 
C 180 189.84 180 189.84 180 189.84 
C 180 189.84 180 189.84 180 189.84 
L 224.371084 177.950804 
C 225.410091 181.828432 225.936327 185.825584 225.936327 189.84 
C 225.936327 193.854416 225.410091 197.851568 224.371084 201.729196 
z
" clip-path="url(#p53efebdc16)" style="fill: #3b82f6; opacity: 0.7; stroke: #ffffff; stroke-linejoin: miter"/>
   </g>
   <g id="patch_4">
    <path d="M 180 189.84 
C 180 189.84 180 189.84 180 189.84 
C 180 189.84 180 189.84 180 189.84 
L 217.895536 151.944464 
C 221.20726 155.256188 224.070621 158.987792 226.412363 163.04381 
C 228.754106 167.099827 230.55409 171.445372 231.766265 175.969271 
z
" clip-path="url(#p53efebdc16)" style="fill: #3b82f6; opacity: 0.7; stroke: #ffffff; stroke-linejoin: miter"/>
   </g>
   <g id="patch_5">
    <path d="M 180 189.84 
C 180 189.84 180 189.84 180 189.84 
C 180 189.84 180 189.84 180 189.84 
L 199.815327 115.888193 
C 206.278041 117.619872 212.485962 120.191277 218.280272 123.536624 
C 224.074583 126.881971 229.405445 130.972485 234.13648 135.70352 
z
" clip-path="url(#p53efebdc16)" style="fill: #3b82f6; opacity: 0.7; stroke: #ffffff; stroke-linejoin: miter"/>
   </g>
   <g id="patch_6">
    <path d="M 180 189.84 
C 180 189.84 180 189.84 180 189.84 
C 180 189.84 180 189.84 180 189.84 
L 154.240075 93.702651 
C 162.641603 91.451468 171.302099 90.311293 180 90.311293 
C 188.697901 90.311293 197.358397 91.451468 205.759925 93.702651 
z
" clip-path="url(#p53efebdc16)" style="fill: #3b82f6; opacity: 0.7; stroke: #ffffff; stroke-linejoin: miter"/>
   </g>
   <g id="patch_7">
    <path d="M 180 189.84 
C 180 189.84 180 189.84 180 189.84 
C 180 189.84 180 189.84 180 189.84 
L 96.088456 105.928456 
C 103.42156 98.595352 111.684397 92.255054 120.665578 87.069767 
C 129.646759 81.884479 139.269037 77.898802 149.286243 75.214699 
z
" clip-path="url(#p53efebdc16)" style="fill: #3b82f6; opacity: 0.7; stroke: #ffffff; stroke-linejoin: miter"/>
   </g>
   <g id="patch_8">
    <path d="M 180 189.84 
C 180 189.84 180 189.84 180 189.84 
C 180 189.84 180 189.84 180 189.84 
L 50.584338 155.163178 
C 53.614776 143.853429 58.114735 132.989567 63.969092 122.849524 
C 69.823448 112.70948 76.981849 103.380471 85.26116 95.10116 
z
" clip-path="url(#p53efebdc16)" style="fill: #3b82f6; opacity: 0.7; stroke: #ffffff; stroke-linejoin: miter"/>
   </g>
   <g id="patch_9">
    <path d="M 180 189.84 
C 180 189.84 180 189.84 180 189.84 
C 180 189.84 180 189.84 180 189.84 
L 57.979519 222.535289 
C 55.122248 211.871812 53.675102 200.879644 53.675102 189.84 
C 53.675102 178.800356 55.122248 167.808188 57.979519 157.144711 
z
" clip-path="url(#p53efebdc16)" style="fill: #3b82f6; opacity: 0.7; stroke: #ffffff; stroke-linejoin: miter"/>
   </g>
   <g id="patch_10">
    <path d="M 180 189.84 
C 180 189.84 180 189.84 180 189.84 
C 180 189.84 180 189.84 180 189.84 
L 104.208928 265.631072 
C 97.585479 259.007623 91.858759 251.544416 87.175273 243.432381 
C 82.491788 235.320346 78.891821 226.629257 76.46747 217.581458 
z
" clip-path="url(#p53efebdc16)" style="fill: #3b82f6; opacity: 0.7; stroke: #ffffff; stroke-linejoin: miter"/>
   </g>
   <g id="patch_11">
    <path d="M 180 189.84 
C 180 189.84 180 189.84 180 189.84 
C 180 189.84 180 189.84 180 189.84 
L 158.20314 271.186988 
C 151.094155 269.282141 144.265442 266.453595 137.891701 262.773714 
C 131.517959 259.093832 125.65401 254.594266 120.449872 249.390128 
z
" clip-path="url(#p53efebdc16)" style="fill: #3b82f6; opacity: 0.7; stroke: #ffffff; stroke-linejoin: miter"/>
   </g>
   <g id="patch_12">
    <path d="M 180 189.84 
C 180 189.84 180 189.84 180 189.84 
C 180 189.84 180 189.84 180 189.84 
L 197.833794 256.396626 
C 192.017352 257.955137 186.021624 258.74449 180 258.74449 
C 173.978376 258.74449 167.982648 257.955137 162.166206 256.396626 
z
" clip-path="url(#p53efebdc16)" style="fill: #3b82f6; opacity: 0.7; stroke: #ffffff; stroke-linejoin: miter"/>
   </g>
   <g id="patch_13">
    <path d="M 180 189.84 
C 180 189.84 180 189.84 180 189.84 
C 180 189.84 180 189.84 180 189.84 
L 220.60236 230.44236 
C 217.054084 233.990636 213.055937 237.058522 208.710204 239.567532 
C 204.364471 242.076542 199.70853 244.005096 194.861495 245.303855 
z
" clip-path="url(#p53efebdc16)" style="fill: #3b82f6; opacity: 0.7; stroke: #ffffff; stroke-linejoin: miter"/>
   </g>
   <g id="patch_14">
    <path d="M 180 189.84 
C 180 189.84 180 189.84 180 189.84 
C 180 189.84 180 189.84 180 189.84 
L 228.068675 202.719963 
C 226.943083 206.920726 225.27167 210.955875 223.097195 214.722177 
C 220.922719 218.488479 218.263885 221.953539 215.188712 225.028712 
z
" clip-path="url(#p53efebdc16)" style="fill: #3b82f6; opacity: 0.7; stroke: #ffffff; stroke-linejoin: miter"/>
   </g>
   <g id="matplotlib.axis_1">
    <g id="xtick_1">
     <g id="line2d_1">
      <path d="M 180 189.84 
L 320.68 189.84 
" clip-path="url(#p53efebdc16)" style="fill: none; stroke: #000000; stroke-opacity: 0.5; stroke-width: 0.5; stroke-linecap: square"/>
     </g>
     <g id="text_1">
      <!-- 1月 -->
      <g transform="translate(326.530781 192.635312) scale(0.1 -0.1)">
       <defs>
        <path id="IPAexGothic-31" d="M 2463 63 
L 1900 63 
L 1900 4103 
Q 1372 3922 788 3797 
L 684 4231 
Q 1519 4441 2106 4731 
L 2463 4731 
L 2463 63 
z
" transform="scale(0.015625)"/>
        <path id="IPAexGothic-6708" d="M 5044 4984 
L 5044 256 
Q 5044 -78 4869 -203 
Q 4734 -300 4403 -300 
Q 3894 -300 3253 -247 
L 3169 244 
Q 3750 159 4294 159 
Q 4503 159 4547 263 
Q 4569 313 4569 438 
L 4569 1672 
L 1953 1672 
Q 1906 956 1716 475 
Q 1538 6 1116 -472 
L 744 -63 
Q 1259 475 1403 1244 
Q 1500 1772 1500 2650 
L 1500 4984 
L 5044 4984 
z
M 1981 4569 
L 1981 3541 
L 4569 3541 
L 4569 4569 
L 1981 4569 
z
M 1981 3144 
L 1981 2556 
Q 1981 2288 1975 2147 
L 1975 2069 
L 4569 2069 
L 4569 3144 
L 1981 3144 
z
" transform="scale(0.015625)"/>
       </defs>
       <use xlink:href="#IPAexGothic-31"/>
       <use xlink:href="#IPAexGothic-6708" transform="translate(62.988281 0)"/>
      </g>
     </g>
    </g>
    <g id="xtick_2">
     <g id="line2d_2">
      <path d="M 180 189.84 
L 301.832454 119.5 
" clip-path="url(#p53efebdc16)" style="fill: none; stroke: #000000; stroke-opacity: 0.5; stroke-width: 0.5; stroke-linecap: square"/>
     </g>
     <g id="text_2">
      <!-- 2月 -->
      <g transform="translate(305.807591 115.295312) scale(0.1 -0.1)">
       <defs>
        <path id="IPAexGothic-32" d="M 3659 63 
L 447 63 
L 447 594 
Q 825 1475 1894 2203 
L 2072 2322 
Q 2619 2697 2791 2906 
Q 2988 3153 2988 3444 
Q 2988 3772 2756 4003 
Q 2500 4259 2084 4259 
Q 1250 4259 991 3328 
L 497 3506 
Q 853 4725 2116 4725 
Q 2806 4725 3216 4316 
Q 3575 3947 3575 3425 
Q 3575 3038 3344 2722 
Q 3131 2416 2366 1938 
L 2231 1856 
Q 1256 1253 978 569 
L 3659 569 
L 3659 63 
z
" transform="scale(0.015625)"/>
       </defs>
       <use xlink:href="#IPAexGothic-32"/>
       <use xlink:href="#IPAexGothic-6708" transform="translate(62.988281 0)"/>
      </g>
     </g>
    </g>
    <g id="xtick_3">
     <g id="line2d_3">
      <path d="M 180 189.84 
L 250.34 68.007546 
" clip-path="url(#p53efebdc16)" style="fill: none; stroke: #000000; stroke-opacity: 0.5; stroke-width: 0.5; stroke-linecap: square"/>
     </g>
     <g id="text_3">
      <!-- 3月 -->
      <g transform="translate(249.190781 58.678503) scale(0.1 -0.1)">
       <defs>
        <path id="IPAexGothic-33" d="M 2381 2419 
Q 3506 2216 3506 1278 
Q 3506 716 3128 356 
Q 2709 -31 1944 -31 
Q 797 -31 288 881 
L 756 1131 
Q 1109 441 1938 441 
Q 2425 441 2694 691 
Q 2950 928 2950 1291 
Q 2950 1719 2566 1978 
Q 2216 2213 1644 2213 
L 1363 2213 
L 1363 2669 
L 1656 2669 
Q 2231 2669 2534 2888 
Q 2859 3119 2859 3509 
Q 2859 3934 2494 4138 
Q 2259 4278 1931 4278 
Q 1238 4278 903 3578 
L 434 3803 
Q 897 4725 1938 4725 
Q 2597 4725 3006 4394 
Q 3416 4069 3416 3534 
Q 3416 3028 3019 2706 
Q 2763 2500 2381 2444 
L 2381 2419 
z
" transform="scale(0.015625)"/>
       </defs>
       <use xlink:href="#IPAexGothic-33"/>
       <use xlink:href="#IPAexGothic-6708" transform="translate(62.988281 0)"/>
      </g>
     </g>
    </g>
    <g id="xtick_4">
     <g id="line2d_4">
      <path d="M 180 189.84 
L 180 49.16 
" clip-path="url(#p53efebdc16)" style="fill: none; stroke: #000000; stroke-opacity: 0.5; stroke-width: 0.5; stroke-linecap: square"/>
     </g>
     <g id="text_4">
      <!-- 4月 -->
      <g transform="translate(171.850781 37.955312) scale(0.1 -0.1)">
       <defs>
        <path id="IPAexGothic-34" d="M 3813 1159 
L 3059 1159 
L 3059 63 
L 2547 63 
L 2547 1159 
L 197 1159 
L 197 1672 
L 2456 4678 
L 3059 4678 
L 3059 1634 
L 3813 1634 
L 3813 1159 
z
M 2578 4109 
L 2559 4109 
Q 2278 3656 2003 3284 
L 759 1634 
L 2547 1634 
L 2547 3144 
Q 2547 3481 2578 4109 
z
" transform="scale(0.015625)"/>
       </defs>
       <use xlink:href="#IPAexGothic-34"/>
       <use xlink:href="#IPAexGothic-6708" transform="translate(62.988281 0)"/>
      </g>
     </g>
    </g>
    <g id="xtick_5">
     <g id="line2d_5">
      <path d="M 180 189.84 
L 109.66 68.007546 
" clip-path="url(#p53efebdc16)" style="fill: none; stroke: #000000; stroke-opacity: 0.5; stroke-width: 0.5; stroke-linecap: square"/>
     </g>
     <g id="text_5">
      <!-- 5月 -->
      <g transform="translate(94.510781 58.678503) scale(0.1 -0.1)">
       <defs>
        <path id="IPAexGothic-35" d="M 1178 2603 
Q 1634 2963 2172 2963 
Q 2816 2963 3241 2528 
Q 3638 2113 3638 1497 
Q 3638 938 3297 513 
Q 2869 -31 2031 -31 
Q 959 -31 469 784 
L 938 1028 
Q 1309 434 2013 434 
Q 2466 434 2769 716 
Q 3081 1013 3081 1503 
Q 3081 1966 2806 2241 
Q 2519 2528 2056 2528 
Q 1406 2528 1072 2028 
L 591 2091 
L 884 4634 
L 3406 4634 
L 3406 4153 
L 1341 4153 
L 1134 2603 
L 1178 2603 
z
" transform="scale(0.015625)"/>
       </defs>
       <use xlink:href="#IPAexGothic-35"/>
       <use xlink:href="#IPAexGothic-6708" transform="translate(62.988281 0)"/>
      </g>
     </g>
    </g>
    <g id="xtick_6">
     <g id="line2d_6">
      <path d="M 180 189.84 
L 58.167546 119.5 
" clip-path="url(#p53efebdc16)" style="fill: none; stroke: #000000; stroke-opacity: 0.5; stroke-width: 0.5; stroke-linecap: square"/>
     </g>
     <g id="text_6">
      <!-- 6月 -->
      <g transform="translate(37.893972 115.295312) scale(0.1 -0.1)">
       <defs>
        <path id="IPAexGothic-36" d="M 1056 2328 
Q 1509 2981 2234 2981 
Q 2906 2981 3316 2513 
Q 3675 2106 3675 1522 
Q 3675 884 3272 434 
Q 2853 -31 2178 -31 
Q 1375 -31 922 581 
Q 481 1178 481 2228 
Q 481 3425 1013 4109 
Q 1494 4725 2272 4725 
Q 3191 4725 3609 4025 
L 3150 3775 
Q 2894 4266 2300 4266 
Q 1119 4266 1031 2328 
L 1056 2328 
z
M 2141 2547 
Q 1684 2547 1384 2206 
Q 1116 1900 1116 1541 
Q 1116 1156 1353 844 
Q 1672 428 2159 428 
Q 2669 428 2941 844 
Q 3125 1128 3125 1503 
Q 3125 1944 2881 2228 
Q 2600 2547 2141 2547 
z
" transform="scale(0.015625)"/>
       </defs>
       <use xlink:href="#IPAexGothic-36"/>
       <use xlink:href="#IPAexGothic-6708" transform="translate(62.988281 0)"/>
      </g>
     </g>
    </g>
    <g id="xtick_7">
     <g id="line2d_7">
      <path d="M 180 189.84 
L 39.32 189.84 
" clip-path="url(#p53efebdc16)" style="fill: none; stroke: #000000; stroke-opacity: 0.5; stroke-width: 0.5; stroke-linecap: square"/>
     </g>
     <g id="text_7">
      <!-- 7月 -->
      <g transform="translate(17.170781 192.635312) scale(0.1 -0.1)">
       <defs>
        <path id="IPAexGothic-37" d="M 3597 4263 
Q 2238 2106 1778 63 
L 1131 63 
Q 1581 1834 2950 4128 
L 428 4128 
L 428 4634 
L 3597 4634 
L 3597 4263 
z
" transform="scale(0.015625)"/>
       </defs>
       <use xlink:href="#IPAexGothic-37"/>
       <use xlink:href="#IPAexGothic-6708" transform="translate(62.988281 0)"/>
      </g>
     </g>
    </g>
    <g id="xtick_8">
     <g id="line2d_8">
      <path d="M 180 189.84 
L 58.167546 260.18 
" clip-path="url(#p53efebdc16)" style="fill: none; stroke: #000000; stroke-opacity: 0.5; stroke-width: 0.5; stroke-linecap: square"/>
     </g>
     <g id="text_8">
      <!-- 8月 -->
      <g transform="translate(37.893972 269.975312) scale(0.1 -0.1)">
       <defs>
        <path id="IPAexGothic-38" d="M 2541 2425 
Q 3700 2031 3700 1197 
Q 3700 541 3100 197 
Q 2663 -56 2016 -56 
Q 1366 -56 928 197 
Q 347 531 347 1178 
Q 347 1988 1409 2381 
L 1409 2400 
Q 481 2734 481 3509 
Q 481 4100 981 4456 
Q 1406 4756 2019 4756 
Q 2703 4756 3131 4403 
Q 3553 4069 3553 3566 
Q 3553 2706 2541 2444 
L 2541 2425 
z
M 2022 2625 
Q 2997 2856 2997 3528 
Q 2997 3916 2675 4150 
Q 2413 4347 2016 4347 
Q 1606 4347 1331 4128 
Q 1050 3897 1050 3522 
Q 1050 3150 1350 2925 
Q 1494 2809 1722 2722 
Q 1984 2616 2022 2625 
z
M 1978 2209 
Q 922 1931 922 1216 
Q 922 775 1313 556 
Q 1606 391 2009 391 
Q 2575 391 2881 697 
Q 3106 922 3106 1250 
Q 3106 1594 2794 1850 
Q 2609 1994 2350 2100 
Q 2047 2222 1978 2209 
z
" transform="scale(0.015625)"/>
       </defs>
       <use xlink:href="#IPAexGothic-38"/>
       <use xlink:href="#IPAexGothic-6708" transform="translate(62.988281 0)"/>
      </g>
     </g>
    </g>
    <g id="xtick_9">
     <g id="line2d_9">
      <path d="M 180 189.84 
L 109.66 311.672454 
" clip-path="url(#p53efebdc16)" style="fill: none; stroke: #000000; stroke-opacity: 0.5; stroke-width: 0.5; stroke-linecap: square"/>
     </g>
     <g id="text_9">
      <!-- 9月 -->
      <g transform="translate(94.510781 326.592122) scale(0.1 -0.1)">
       <defs>
        <path id="IPAexGothic-39" d="M 2984 2356 
Q 2544 1716 1813 1716 
Q 1253 1716 847 2056 
Q 366 2459 366 3163 
Q 366 3813 769 4266 
Q 1181 4725 1869 4725 
Q 2800 4725 3241 3950 
Q 3559 3378 3559 2472 
Q 3559 1250 3041 588 
Q 2553 -31 1769 -31 
Q 859 -31 391 703 
L 853 953 
Q 1156 428 1753 428 
Q 2922 428 3009 2356 
L 2984 2356 
z
M 1888 4278 
Q 1450 4278 1172 3950 
Q 922 3653 922 3200 
Q 922 2741 1159 2478 
Q 1434 2163 1906 2163 
Q 2431 2163 2728 2572 
Q 2925 2847 2925 3169 
Q 2925 3553 2694 3863 
Q 2375 4278 1888 4278 
z
" transform="scale(0.015625)"/>
       </defs>
       <use xlink:href="#IPAexGothic-39"/>
       <use xlink:href="#IPAexGothic-6708" transform="translate(62.988281 0)"/>
      </g>
     </g>
    </g>
    <g id="xtick_10">
     <g id="line2d_10">
      <path d="M 180 189.84 
L 180 330.52 
" clip-path="url(#p53efebdc16)" style="fill: none; stroke: #000000; stroke-opacity: 0.5; stroke-width: 0.5; stroke-linecap: square"/>
     </g>
     <g id="text_10">
      <!-- 10月 -->
      <g transform="translate(168.701562 347.315313) scale(0.1 -0.1)">
       <defs>
        <path id="IPAexGothic-30" d="M 2038 4725 
Q 2881 4725 3334 3944 
Q 3694 3325 3694 2344 
Q 3694 1372 3334 741 
Q 2888 -31 2016 -31 
Q 1147 -31 700 741 
Q 341 1372 341 2350 
Q 341 3713 1000 4334 
Q 1419 4725 2038 4725 
z
M 2016 4266 
Q 1516 4266 1228 3759 
Q 934 3247 934 2344 
Q 934 1456 1222 947 
Q 1513 447 2016 447 
Q 2619 447 2909 1153 
Q 3100 1622 3100 2375 
Q 3100 3256 2806 3759 
Q 2509 4266 2016 4266 
z
" transform="scale(0.015625)"/>
       </defs>
       <use xlink:href="#IPAexGothic-31"/>
       <use xlink:href="#IPAexGothic-30" transform="translate(62.988281 0)"/>
       <use xlink:href="#IPAexGothic-6708" transform="translate(125.976562 0)"/>
      </g>
     </g>
    </g>
    <g id="xtick_11">
     <g id="line2d_11">
      <path d="M 180 189.84 
L 250.34 311.672454 
" clip-path="url(#p53efebdc16)" style="fill: none; stroke: #000000; stroke-opacity: 0.5; stroke-width: 0.5; stroke-linecap: square"/>
     </g>
     <g id="text_11">
      <!-- 11月 -->
      <g transform="translate(246.041563 326.592122) scale(0.1 -0.1)">
       <use xlink:href="#IPAexGothic-31"/>
       <use xlink:href="#IPAexGothic-31" transform="translate(62.988281 0)"/>
       <use xlink:href="#IPAexGothic-6708" transform="translate(125.976562 0)"/>
      </g>
     </g>
    </g>
    <g id="xtick_12">
     <g id="line2d_12">
      <path d="M 180 189.84 
L 301.832454 260.18 
" clip-path="url(#p53efebdc16)" style="fill: none; stroke: #000000; stroke-opacity: 0.5; stroke-width: 0.5; stroke-linecap: square"/>
     </g>
     <g id="text_12">
      <!-- 12月 -->
      <g transform="translate(302.658372 269.975313) scale(0.1 -0.1)">
       <use xlink:href="#IPAexGothic-31"/>
       <use xlink:href="#IPAexGothic-32" transform="translate(62.988281 0)"/>
       <use xlink:href="#IPAexGothic-6708" transform="translate(125.976562 0)"/>
      </g>
     </g>
    </g>
   </g>
   <g id="matplotlib.axis_2"/>
   <g id="patch_15">
    <path d="M 320.68 189.84 
C 320.68 171.366072 317.041039 153.071779 309.971373 136.004095 
C 302.901706 118.93641 292.538822 103.427258 279.475782 90.364218 
C 266.412742 77.301178 250.90359 66.938294 233.835905 59.868627 
C 216.768221 52.798961 198.473928 49.16 180 49.16 
C 161.526072 49.16 143.231779 52.798961 126.164095 59.868627 
C 109.09641 66.938294 93.587258 77.301178 80.524218 90.364218 
C 67.461178 103.427258 57.098294 118.93641 50.028627 136.004095 
C 42.958961 153.071779 39.32 171.366072 39.32 189.84 
C 39.32 208.313928 42.958961 226.608221 50.028627 243.675905 
C 57.098294 260.74359 67.461178 276.252742 80.524218 289.315782 
C 93.587258 302.378822 109.09641 312.741706 126.164095 319.811373 
C 143.231779 326.881039 161.526072 330.52 180 330.52 
C 198.473928 330.52 216.768221 326.881039 233.835905 319.811373 
C 250.90359 312.741706 266.412742 302.378822 279.475782 289.315782 
C 292.538822 276.252742 302.901706 260.74359 309.971373 243.675905 
C 317.041039 226.608221 320.68 208.313928 320.68 189.84 
" style="fill: none; stroke: #000000; stroke-width: 0.8; stroke-linejoin: miter; stroke-linecap: square"/>
   </g>
   <g id="text_13">
    <!-- 月別問い合わせ件数（極座標チャート） -->
    <g transform="translate(24.48 24.464687) scale(0.1728 -0.1728)">
     <defs>
      <path id="IPAexGothic-5225" d="M 1922 2963 
Q 1906 2453 1894 2209 
L 3341 2209 
Q 3313 550 3175 63 
Q 3059 -366 2413 -366 
Q 2072 -366 1753 -313 
L 1691 134 
Q 2084 63 2413 63 
Q 2694 63 2759 319 
Q 2856 722 2888 1753 
Q 2888 1800 2894 1819 
L 1863 1819 
Q 1709 350 700 -481 
L 353 -147 
Q 1075 403 1306 1256 
Q 1450 1822 1478 2963 
L 700 2963 
L 700 4984 
L 3278 4984 
L 3278 2963 
L 1922 2963 
z
M 1141 4588 
L 1141 3353 
L 2838 3353 
L 2838 4588 
L 1141 4588 
z
M 3972 4597 
L 4425 4597 
L 4425 1159 
L 3972 1159 
L 3972 4597 
z
M 5309 5044 
L 5763 5044 
L 5763 191 
Q 5763 -141 5581 -263 
Q 5438 -359 5116 -359 
Q 4688 -359 4253 -313 
L 4156 178 
Q 4625 116 5072 116 
Q 5309 116 5309 353 
L 5309 5044 
z
" transform="scale(0.015625)"/>
      <path id="IPAexGothic-554f" d="M 4384 2291 
L 4384 525 
L 2400 525 
L 2400 172 
L 1972 172 
L 1972 2291 
L 4384 2291 
z
M 3956 1919 
L 2400 1919 
L 2400 897 
L 3956 897 
L 3956 1919 
z
M 2913 4984 
L 2913 2884 
L 1094 2884 
L 1094 -450 
L 641 -450 
L 641 4984 
L 2913 4984 
z
M 1094 4606 
L 1094 4109 
L 2497 4109 
L 2497 4606 
L 1094 4606 
z
M 1094 3769 
L 1094 3250 
L 2497 3250 
L 2497 3769 
L 1094 3769 
z
M 5753 4984 
L 5753 91 
Q 5753 -403 5244 -403 
Q 4875 -403 4444 -366 
L 4366 97 
Q 4750 38 5063 38 
Q 5300 38 5300 281 
L 5300 2884 
L 3444 2884 
L 3444 4984 
L 5753 4984 
z
M 3859 4606 
L 3859 4109 
L 5300 4109 
L 5300 4606 
L 3859 4606 
z
M 3859 3769 
L 3859 3250 
L 5300 3250 
L 5300 3769 
L 3859 3769 
z
" transform="scale(0.015625)"/>
      <path id="IPAexGothic-3044" d="M 3369 1447 
Q 2906 122 2278 122 
Q 1966 122 1647 481 
Q 1209 966 1044 1966 
Q 891 2888 891 4313 
L 1422 4313 
Q 1413 2444 1666 1550 
Q 1913 678 2278 678 
Q 2619 678 2925 1791 
L 3369 1447 
z
M 5378 1294 
Q 4928 2797 4034 3809 
L 4488 4031 
Q 5375 3000 5881 1563 
L 5378 1294 
z
" transform="scale(0.015625)"/>
      <path id="IPAexGothic-5408" d="M 1831 3188 
L 4653 3188 
L 4653 2778 
L 1747 2778 
L 1747 3125 
Q 1275 2778 594 2453 
L 294 2828 
Q 2006 3509 2891 5147 
L 3431 5147 
Q 4331 3806 6125 3003 
L 5831 2588 
Q 4119 3416 3175 4731 
Q 2650 3806 1831 3188 
z
M 5113 2088 
L 5113 -450 
L 4638 -450 
L 4638 -97 
L 1766 -97 
L 1766 -450 
L 1284 -450 
L 1284 2088 
L 5113 2088 
z
M 1766 1691 
L 1766 300 
L 4638 300 
L 4638 1691 
L 1766 1691 
z
" transform="scale(0.015625)"/>
      <path id="IPAexGothic-308f" d="M 609 3672 
Q 1272 3750 1894 3884 
L 1934 4978 
L 2406 4972 
L 2369 3934 
L 2753 3634 
Q 2416 3238 2356 3153 
Q 2350 3078 2350 2853 
Q 3322 3616 4219 3616 
Q 4878 3616 5331 3200 
Q 5819 2750 5819 2028 
Q 5819 419 3584 -53 
L 3266 391 
Q 5294 766 5294 2034 
Q 5294 2534 5000 2847 
Q 4691 3175 4175 3175 
Q 3341 3175 2344 2303 
Q 2344 678 2369 -150 
L 1881 -150 
Q 1863 1200 1869 1888 
Q 1766 1781 866 716 
L 513 1081 
Q 1450 2088 1869 2469 
Q 1869 2500 1878 2947 
Q 1881 3225 1888 3456 
Q 1406 3319 744 3178 
L 609 3672 
z
" transform="scale(0.015625)"/>
      <path id="IPAexGothic-305b" d="M 4013 4922 
L 4500 4922 
L 4500 3475 
L 5881 3541 
L 5900 3116 
L 4500 3053 
L 4500 1863 
Q 4500 1363 3994 1363 
Q 3563 1363 3169 1516 
L 3169 1997 
Q 3575 1816 3816 1816 
Q 4013 1816 4013 2028 
L 4013 3028 
L 2191 2944 
L 2191 1044 
Q 2191 613 2550 525 
Q 2784 463 3609 463 
Q 4384 463 5172 544 
L 5191 44 
Q 4403 -19 3641 -19 
Q 2456 -19 2081 172 
Q 1697 375 1697 909 
L 1697 2919 
L 488 2859 
L 469 3291 
L 1697 3347 
L 1697 4609 
L 2191 4609 
L 2191 3366 
L 4013 3456 
L 4013 4922 
z
" transform="scale(0.015625)"/>
      <path id="IPAexGothic-4ef6" d="M 3903 3425 
L 2906 3425 
Q 2697 2825 2309 2247 
L 1991 2572 
Q 2588 3497 2803 4788 
L 3256 4713 
Q 3175 4313 3041 3834 
L 3903 3834 
L 3903 5250 
L 4356 5250 
L 4356 3834 
L 5731 3834 
L 5731 3425 
L 4356 3425 
L 4356 2009 
L 6041 2009 
L 6041 1594 
L 4356 1594 
L 4356 -447 
L 3903 -447 
L 3903 1594 
L 2078 1594 
L 2078 2009 
L 3903 2009 
L 3903 3425 
z
M 1638 3681 
L 1638 -447 
L 1169 -447 
L 1169 2753 
Q 881 2272 575 1863 
L 313 2253 
Q 1238 3463 1650 5184 
L 2125 5069 
Q 1909 4316 1638 3681 
z
" transform="scale(0.015625)"/>
      <path id="IPAexGothic-6570" d="M 2847 1553 
Q 2741 1006 2425 534 
Q 2625 441 3091 203 
L 2809 -188 
Q 2541 0 2144 209 
Q 1569 -291 703 -500 
L 422 -125 
Q 1263 19 1747 406 
Q 1222 650 734 816 
Q 975 1172 1147 1503 
L 1172 1553 
L 359 1553 
L 359 1925 
L 1344 1925 
Q 1406 2066 1569 2475 
L 1691 2450 
L 1691 3372 
Q 1250 2738 550 2303 
L 275 2663 
Q 1019 3013 1528 3641 
L 378 3641 
L 378 4006 
L 1691 4006 
L 1691 5313 
L 2113 5313 
L 2113 4006 
L 3297 4006 
L 3297 3641 
L 2113 3641 
L 2113 3513 
Q 2659 3291 3175 2963 
L 2956 2584 
Q 2553 2922 2113 3159 
L 2113 2372 
L 1966 2372 
Q 1928 2288 1872 2141 
Q 1806 1975 1784 1925 
L 3378 1925 
L 3378 1553 
L 2847 1553 
z
M 2419 1553 
L 1613 1553 
Q 1478 1269 1313 997 
Q 1559 909 2047 703 
Q 2313 1047 2419 1553 
z
M 4363 1163 
Q 3953 1781 3738 2638 
Q 3575 2281 3428 2016 
L 3103 2406 
Q 3675 3444 3916 5291 
L 4363 5200 
Q 4284 4666 4197 4197 
L 6009 4197 
L 6009 3775 
L 5503 3775 
Q 5397 2275 4869 1191 
Q 5419 503 6144 75 
L 5822 -378 
Q 5188 106 4631 788 
Q 4113 34 3341 -463 
L 3031 -78 
Q 3888 406 4363 1163 
z
M 4588 1594 
Q 4938 2388 5059 3775 
L 4100 3775 
Q 4041 3519 3972 3288 
Q 3981 3250 3991 3194 
Q 4175 2256 4588 1594 
z
M 1003 4116 
Q 878 4544 638 4934 
L 1053 5094 
Q 1247 4788 1438 4269 
L 1003 4116 
z
M 2316 4269 
Q 2550 4688 2688 5131 
L 3128 4997 
Q 2966 4588 2675 4128 
L 2316 4269 
z
" transform="scale(0.015625)"/>
      <path id="IPAexGothic-ff08" d="M 5419 -434 
Q 4197 769 4197 2438 
Q 4197 4097 5419 5300 
L 5919 5300 
Q 4678 4078 4678 2425 
Q 4678 788 5919 -434 
L 5419 -434 
z
" transform="scale(0.015625)"/>
      <path id="IPAexGothic-6975" d="M 1106 2556 
Q 797 1497 378 800 
L 153 1250 
Q 763 2266 1050 3553 
L 294 3553 
L 294 3956 
L 1106 3956 
L 1106 5306 
L 1516 5306 
L 1516 3956 
L 2225 3956 
L 2225 3553 
L 1516 3553 
L 1516 2881 
Q 1966 2491 2250 2094 
L 2016 1691 
Q 1794 2047 1516 2381 
L 1516 -447 
L 1106 -447 
L 1106 2556 
z
M 4281 3931 
L 4281 853 
Q 4281 550 4141 456 
Q 4031 384 3763 384 
Q 3494 384 3116 434 
L 3066 853 
Q 3391 775 3672 775 
Q 3878 775 3878 978 
L 3878 3584 
L 3219 3584 
Q 3391 4178 3469 4519 
L 2213 4519 
L 2213 4903 
L 5850 4903 
L 5850 4519 
L 3884 4519 
Q 3841 4259 3750 3931 
L 4281 3931 
z
M 3550 3309 
L 3550 1313 
L 2706 1313 
L 2706 928 
L 2341 928 
L 2341 3309 
L 3550 3309 
z
M 2706 2950 
L 2706 1663 
L 3178 1663 
L 3178 2950 
L 2706 2950 
z
M 5428 1972 
Q 5684 1613 5959 1172 
L 5691 794 
Q 5494 1147 5253 1516 
L 5216 1441 
Q 5009 978 4606 478 
L 4331 806 
Q 4756 1272 4991 1906 
Q 4688 2331 4428 2638 
L 4659 2897 
Q 4919 2638 5138 2353 
Q 5238 2725 5319 3244 
L 4416 3244 
L 4416 3622 
L 5528 3622 
L 5741 3438 
Q 5613 2559 5428 1972 
z
M 2078 147 
L 6041 147 
L 6041 -263 
L 2078 -263 
L 2078 147 
z
" transform="scale(0.015625)"/>
      <path id="IPAexGothic-5ea7" d="M 3719 172 
L 6047 172 
L 6047 -238 
L 1231 -238 
L 1231 172 
L 3284 172 
L 3284 941 
L 1634 941 
L 1634 1338 
L 3284 1338 
L 3284 3878 
L 3719 3878 
L 3719 1338 
L 5625 1338 
L 5625 941 
L 3719 941 
L 3719 172 
z
M 3759 4500 
L 6013 4500 
L 6013 4084 
L 1359 4084 
L 1359 2869 
Q 1359 1638 1231 909 
Q 1106 197 744 -403 
L 353 -38 
Q 738 625 834 1422 
Q 891 1950 891 2875 
L 891 4500 
L 3272 4500 
L 3272 5300 
L 3759 5300 
L 3759 4500 
z
M 2428 2894 
Q 2828 2591 3234 2119 
L 2931 1778 
Q 2597 2228 2284 2522 
Q 2072 2031 1684 1631 
L 1378 1941 
Q 2031 2556 2197 3763 
L 2613 3675 
Q 2541 3222 2428 2894 
z
M 4872 2944 
Q 5419 2594 5903 2119 
L 5588 1772 
Q 5156 2263 4725 2597 
Q 4466 2041 4072 1638 
L 3766 1953 
Q 4447 2644 4647 3781 
L 5075 3675 
Q 4994 3281 4872 2944 
z
" transform="scale(0.015625)"/>
      <path id="IPAexGothic-6a19" d="M 1113 2534 
Q 813 1522 384 794 
L 153 1250 
Q 763 2228 1063 3547 
L 294 3547 
L 294 3956 
L 1113 3956 
L 1113 5306 
L 1522 5306 
L 1522 3956 
L 2144 3956 
L 2144 3547 
L 1522 3547 
L 1522 3009 
Q 1991 2634 2309 2288 
L 2059 1844 
Q 1813 2222 1522 2550 
L 1522 -447 
L 1113 -447 
L 1113 2534 
z
M 3353 4109 
L 3353 4641 
L 2100 4641 
L 2100 5019 
L 5997 5019 
L 5997 4641 
L 4753 4641 
L 4753 4109 
L 5778 4109 
L 5778 2769 
L 2356 2769 
L 2356 4109 
L 3353 4109 
z
M 3756 4109 
L 4350 4109 
L 4350 4641 
L 3756 4641 
L 3756 4109 
z
M 3359 3756 
L 2772 3756 
L 2772 3122 
L 3359 3122 
L 3359 3756 
z
M 3756 3756 
L 3756 3122 
L 4350 3122 
L 4350 3756 
L 3756 3756 
z
M 4741 3756 
L 4741 3122 
L 5363 3122 
L 5363 3756 
L 4741 3756 
z
M 4300 1191 
L 4300 19 
Q 4300 -409 3809 -409 
Q 3469 -409 3175 -372 
L 3097 78 
Q 3416 0 3675 0 
Q 3866 0 3866 184 
L 3866 1191 
L 2100 1191 
L 2100 1563 
L 6072 1563 
L 6072 1191 
L 4300 1191 
z
M 2481 2350 
L 5669 2350 
L 5669 1984 
L 2481 1984 
L 2481 2350 
z
M 1938 13 
Q 2534 406 2938 1069 
L 3322 891 
Q 2903 150 2272 -306 
L 1938 13 
z
M 5722 -191 
Q 5166 459 4666 838 
L 4978 1088 
Q 5572 681 6094 134 
L 5722 -191 
z
" transform="scale(0.015625)"/>
      <path id="IPAexGothic-30c1" d="M 3088 2853 
L 3088 3981 
Q 2359 3847 1531 3797 
L 1288 4238 
Q 3200 4344 4553 4872 
L 4909 4456 
Q 4244 4216 3606 4078 
L 3606 2913 
L 5806 2913 
L 5806 2459 
L 3600 2459 
Q 3559 1422 3188 850 
Q 2722 138 1738 -256 
L 1347 153 
Q 2319 500 2709 1081 
Q 3031 1563 3081 2400 
L 597 2400 
L 597 2853 
L 3088 2853 
z
" transform="scale(0.015625)"/>
      <path id="IPAexGothic-30e3" d="M 2559 3903 
L 2803 2816 
L 4863 3169 
L 5191 2894 
Q 4672 1875 4103 1203 
L 3666 1447 
Q 4175 2013 4525 2688 
L 2900 2388 
L 3450 -116 
L 2969 -231 
L 2419 2297 
L 1172 2069 
L 1075 2516 
L 2328 2731 
L 2094 3809 
L 2559 3903 
z
" transform="scale(0.015625)"/>
      <path id="IPAexGothic-30fc" d="M 588 2688 
L 5809 2688 
L 5809 2175 
L 588 2175 
L 588 2688 
z
" transform="scale(0.015625)"/>
      <path id="IPAexGothic-30c8" d="M 2284 4997 
L 2803 4997 
L 2803 3206 
Q 4088 2619 5216 1888 
L 4878 1369 
Q 3819 2175 2803 2688 
L 2803 -184 
L 2284 -184 
L 2284 4997 
z
" transform="scale(0.015625)"/>
      <path id="IPAexGothic-ff09" d="M 481 -434 
Q 1722 788 1722 2431 
Q 1722 4066 481 5300 
L 981 5300 
Q 2203 4097 2203 2431 
Q 2203 769 981 -434 
L 481 -434 
z
" transform="scale(0.015625)"/>
     </defs>
     <use xlink:href="#IPAexGothic-6708"/>
     <use xlink:href="#IPAexGothic-5225" transform="translate(100 0)"/>
     <use xlink:href="#IPAexGothic-554f" transform="translate(200 0)"/>
     <use xlink:href="#IPAexGothic-3044" transform="translate(300 0)"/>
     <use xlink:href="#IPAexGothic-5408" transform="translate(400 0)"/>
     <use xlink:href="#IPAexGothic-308f" transform="translate(500 0)"/>
     <use xlink:href="#IPAexGothic-305b" transform="translate(600 0)"/>
     <use xlink:href="#IPAexGothic-4ef6" transform="translate(700 0)"/>
     <use xlink:href="#IPAexGothic-6570" transform="translate(800 0)"/>
     <use xlink:href="#IPAexGothic-ff08" transform="translate(900 0)"/>
     <use xlink:href="#IPAexGothic-6975" transform="translate(1000 0)"/>
     <use xlink:href="#IPAexGothic-5ea7" transform="translate(1100 0)"/>
     <use xlink:href="#IPAexGothic-6a19" transform="translate(1200 0)"/>
     <use xlink:href="#IPAexGothic-30c1" transform="translate(1300 0)"/>
     <use xlink:href="#IPAexGothic-30e3" transform="translate(1400 0)"/>
     <use xlink:href="#IPAexGothic-30fc" transform="translate(1500 0)"/>
     <use xlink:href="#IPAexGothic-30c8" transform="translate(1600 0)"/>
     <use xlink:href="#IPAexGothic-ff09" transform="translate(1700 0)"/>
    </g>
   </g>
  </g>
 </g>
 <defs>
  <clipPath id="p53efebdc16">
   <path d="M 320.68 189.84 
C 320.68 171.366072 317.041039 153.071779 309.971373 136.004095 
C 302.901706 118.93641 292.538822 103.427258 279.475782 90.364218 
C 266.412742 77.301178 250.90359 66.938294 233.835905 59.868627 
C 216.768221 52.798961 198.473928 49.16 180 49.16 
C 161.526072 49.16 143.231779 52.798961 126.164095 59.868627 
C 109.09641 66.938294 93.587258 77.301178 80.524218 90.364218 
C 67.461178 103.427258 57.098294 118.93641 50.028627 136.004095 
C 42.958961 153.071779 39.32 171.366072 39.32 189.84 
C 39.32 208.313928 42.958961 226.608221 50.028627 243.675905 
C 57.098294 260.74359 67.461178 276.252742 80.524218 289.315782 
C 93.587258 302.378822 109.09641 312.741706 126.164095 319.811373 
C 143.231779 326.881039 161.526072 330.52 180 330.52 
C 198.473928 330.52 216.768221 326.881039 233.835905 319.811373 
C 250.90359 312.741706 266.412742 302.378822 279.475782 289.315782 
C 292.538822 276.252742 302.901706 260.74359 309.971373 243.675905 
C 317.041039 226.608221 320.68 208.313928 320.68 189.84 
M 180 189.84 
C 180 189.84 180 189.84 180 189.84 
C 180 189.84 180 189.84 180 189.84 
C 180 189.84 180 189.84 180 189.84 
C 180 189.84 180 189.84 180 189.84 
C 180 189.84 180 189.84 180 189.84 
C 180 189.84 180 189.84 180 189.84 
C 180 189.84 180 189.84 180 189.84 
C 180 189.84 180 189.84 180 189.84 
C 180 189.84 180 189.84 180 189.84 
C 180 189.84 180 189.84 180 189.84 
C 180 189.84 180 189.84 180 189.84 
C 180 189.84 180 189.84 180 189.84 
C 180 189.84 180 189.84 180 189.84 
C 180 189.84 180 189.84 180 189.84 
C 180 189.84 180 189.84 180 189.84 
C 180 189.84 180 189.84 180 189.84 
z
"/>
  </clipPath>
 </defs>
</svg>
