<?xml version="1.0" encoding="utf-8" standalone="no"?>
<!DOCTYPE svg PUBLIC "-//W3C//DTD SVG 1.1//EN"
  "http://www.w3.org/Graphics/SVG/1.1/DTD/svg11.dtd">
<svg xmlns:xlink="http://www.w3.org/1999/xlink" width="432pt" height="345.6pt" viewBox="0 0 432 345.6" xmlns="http://www.w3.org/2000/svg" version="1.1">
 <metadata>
  <rdf:RDF xmlns:dc="http://purl.org/dc/elements/1.1/" xmlns:cc="http://creativecommons.org/ns#" xmlns:rdf="http://www.w3.org/1999/02/22-rdf-syntax-ns#">
   <cc:Work>
    <dc:type rdf:resource="http://purl.org/dc/dcmitype/StillImage"/>
    <dc:date>2025-10-29T08:53:13.087142</dc:date>
    <dc:format>image/svg+xml</dc:format>
    <dc:creator>
     <cc:Agent>
      <dc:title>Matplotlib v3.10.7, https://matplotlib.org/</dc:title>
     </cc:Agent>
    </dc:creator>
   </cc:Work>
  </rdf:RDF>
 </metadata>
 <defs>
  <style type="text/css">*{stroke-linejoin: round; stroke-linecap: butt}</style>
 </defs>
 <g id="figure_1">
  <g id="patch_1">
   <path d="M 0 345.6 
L 432 345.6 
L 432 0 
L 0 0 
z
" style="fill: #ffffff"/>
  </g>
  <g id="axes_1">
   <g id="patch_2">
    <path d="M 46.69 300.04 
L 404.184 300.04 
L 404.184 30.48 
L 46.69 30.48 
z
" style="fill: #ffffff"/>
   </g>
   <g id="patch_3">
    <path d="M 225.437 287.787273 
L 392.267533 287.787273 
L 392.267533 258.957326 
L 225.437 258.957326 
z
" clip-path="url(#p0319773cb9)" style="fill: #38bdf8"/>
   </g>
   <g id="patch_4">
    <path d="M 225.437 251.74984 
L 376.378911 251.74984 
L 376.378911 222.919893 
L 225.437 222.919893 
z
" clip-path="url(#p0319773cb9)" style="fill: #38bdf8"/>
   </g>
   <g id="patch_5">
    <path d="M 225.437 215.712406 
L 356.518133 215.712406 
L 356.518133 186.88246 
L 225.437 186.88246 
z
" clip-path="url(#p0319773cb9)" style="fill: #38bdf8"/>
   </g>
   <g id="patch_6">
    <path d="M 225.437 179.674973 
L 332.6852 179.674973 
L 332.6852 150.845027 
L 225.437 150.845027 
z
" clip-path="url(#p0319773cb9)" style="fill: #38bdf8"/>
   </g>
   <g id="patch_7">
    <path d="M 225.437 143.63754 
L 312.824422 143.63754 
L 312.824422 114.807594 
L 225.437 114.807594 
z
" clip-path="url(#p0319773cb9)" style="fill: #38bdf8"/>
   </g>
   <g id="patch_8">
    <path d="M 225.437 107.600107 
L 288.991489 107.600107 
L 288.991489 78.77016 
L 225.437 78.77016 
z
" clip-path="url(#p0319773cb9)" style="fill: #38bdf8"/>
   </g>
   <g id="patch_9">
    <path d="M 225.437 71.562674 
L 273.102867 71.562674 
L 273.102867 42.732727 
L 225.437 42.732727 
z
" clip-path="url(#p0319773cb9)" style="fill: #38bdf8"/>
   </g>
   <g id="patch_10">
    <path d="M 225.437 287.787273 
L 66.550778 287.787273 
L 66.550778 258.957326 
L 225.437 258.957326 
z
" clip-path="url(#p0319773cb9)" style="fill: #f472b6"/>
   </g>
   <g id="patch_11">
    <path d="M 225.437 251.74984 
L 82.4394 251.74984 
L 82.4394 222.919893 
L 225.437 222.919893 
z
" clip-path="url(#p0319773cb9)" style="fill: #f472b6"/>
   </g>
   <g id="patch_12">
    <path d="M 225.437 215.712406 
L 86.411556 215.712406 
L 86.411556 186.88246 
L 225.437 186.88246 
z
" clip-path="url(#p0319773cb9)" style="fill: #f472b6"/>
   </g>
   <g id="patch_13">
    <path d="M 225.437 179.674973 
L 110.244489 179.674973 
L 110.244489 150.845027 
L 225.437 150.845027 
z
" clip-path="url(#p0319773cb9)" style="fill: #f472b6"/>
   </g>
   <g id="patch_14">
    <path d="M 225.437 143.63754 
L 130.105267 143.63754 
L 130.105267 114.807594 
L 225.437 114.807594 
z
" clip-path="url(#p0319773cb9)" style="fill: #f472b6"/>
   </g>
   <g id="patch_15">
    <path d="M 225.437 107.600107 
L 157.910356 107.600107 
L 157.910356 78.77016 
L 225.437 78.77016 
z
" clip-path="url(#p0319773cb9)" style="fill: #f472b6"/>
   </g>
   <g id="patch_16">
    <path d="M 225.437 71.562674 
L 173.798978 71.562674 
L 173.798978 42.732727 
L 225.437 42.732727 
z
" clip-path="url(#p0319773cb9)" style="fill: #f472b6"/>
   </g>
   <g id="matplotlib.axis_1">
    <g id="xtick_1">
     <g id="line2d_1">
      <path d="M 66.550778 300.04 
L 66.550778 30.48 
" clip-path="url(#p0319773cb9)" style="fill: none; stroke: #000000; stroke-opacity: 0.2; stroke-width: 0.5; stroke-linecap: square"/>
     </g>
     <g id="line2d_2">
      <defs>
       <path id="m653a2e7349" d="M 0 0 
L 0 3.5 
" style="stroke: #000000; stroke-width: 0.8"/>
      </defs>
      <g>
       <use xlink:href="#m653a2e7349" x="66.550778" y="300.04" style="stroke: #000000; stroke-width: 0.8"/>
      </g>
     </g>
     <g id="text_1">
      <!-- 4000 -->
      <g transform="translate(53.953903 314.530625) scale(0.1 -0.1)">
       <defs>
        <path id="IPAexGothic-34" d="M 3813 1159 
L 3059 1159 
L 3059 63 
L 2547 63 
L 2547 1159 
L 197 1159 
L 197 1672 
L 2456 4678 
L 3059 4678 
L 3059 1634 
L 3813 1634 
L 3813 1159 
z
M 2578 4109 
L 2559 4109 
Q 2278 3656 2003 3284 
L 759 1634 
L 2547 1634 
L 2547 3144 
Q 2547 3481 2578 4109 
z
" transform="scale(0.015625)"/>
        <path id="IPAexGothic-30" d="M 2038 4725 
Q 2881 4725 3334 3944 
Q 3694 3325 3694 2344 
Q 3694 1372 3334 741 
Q 2888 -31 2016 -31 
Q 1147 -31 700 741 
Q 341 1372 341 2350 
Q 341 3713 1000 4334 
Q 1419 4725 2038 4725 
z
M 2016 4266 
Q 1516 4266 1228 3759 
Q 934 3247 934 2344 
Q 934 1456 1222 947 
Q 1513 447 2016 447 
Q 2619 447 2909 1153 
Q 3100 1622 3100 2375 
Q 3100 3256 2806 3759 
Q 2509 4266 2016 4266 
z
" transform="scale(0.015625)"/>
       </defs>
       <use xlink:href="#IPAexGothic-34"/>
       <use xlink:href="#IPAexGothic-30" transform="translate(62.988281 0)"/>
       <use xlink:href="#IPAexGothic-30" transform="translate(125.976562 0)"/>
       <use xlink:href="#IPAexGothic-30" transform="translate(188.964844 0)"/>
      </g>
     </g>
    </g>
    <g id="xtick_2">
     <g id="line2d_3">
      <path d="M 145.993889 300.04 
L 145.993889 30.48 
" clip-path="url(#p0319773cb9)" style="fill: none; stroke: #000000; stroke-opacity: 0.2; stroke-width: 0.5; stroke-linecap: square"/>
     </g>
     <g id="line2d_4">
      <g>
       <use xlink:href="#m653a2e7349" x="145.993889" y="300.04" style="stroke: #000000; stroke-width: 0.8"/>
      </g>
     </g>
     <g id="text_2">
      <!-- 2000 -->
      <g transform="translate(133.397014 314.530625) scale(0.1 -0.1)">
       <defs>
        <path id="IPAexGothic-32" d="M 3659 63 
L 447 63 
L 447 594 
Q 825 1475 1894 2203 
L 2072 2322 
Q 2619 2697 2791 2906 
Q 2988 3153 2988 3444 
Q 2988 3772 2756 4003 
Q 2500 4259 2084 4259 
Q 1250 4259 991 3328 
L 497 3506 
Q 853 4725 2116 4725 
Q 2806 4725 3216 4316 
Q 3575 3947 3575 3425 
Q 3575 3038 3344 2722 
Q 3131 2416 2366 1938 
L 2231 1856 
Q 1256 1253 978 569 
L 3659 569 
L 3659 63 
z
" transform="scale(0.015625)"/>
       </defs>
       <use xlink:href="#IPAexGothic-32"/>
       <use xlink:href="#IPAexGothic-30" transform="translate(62.988281 0)"/>
       <use xlink:href="#IPAexGothic-30" transform="translate(125.976562 0)"/>
       <use xlink:href="#IPAexGothic-30" transform="translate(188.964844 0)"/>
      </g>
     </g>
    </g>
    <g id="xtick_3">
     <g id="line2d_5">
      <path d="M 225.437 300.04 
L 225.437 30.48 
" clip-path="url(#p0319773cb9)" style="fill: none; stroke: #000000; stroke-opacity: 0.2; stroke-width: 0.5; stroke-linecap: square"/>
     </g>
     <g id="line2d_6">
      <g>
       <use xlink:href="#m653a2e7349" x="225.437" y="300.04" style="stroke: #000000; stroke-width: 0.8"/>
      </g>
     </g>
     <g id="text_3">
      <!-- 0 -->
      <g transform="translate(222.287781 314.530625) scale(0.1 -0.1)">
       <use xlink:href="#IPAexGothic-30"/>
      </g>
     </g>
    </g>
    <g id="xtick_4">
     <g id="line2d_7">
      <path d="M 304.880111 300.04 
L 304.880111 30.48 
" clip-path="url(#p0319773cb9)" style="fill: none; stroke: #000000; stroke-opacity: 0.2; stroke-width: 0.5; stroke-linecap: square"/>
     </g>
     <g id="line2d_8">
      <g>
       <use xlink:href="#m653a2e7349" x="304.880111" y="300.04" style="stroke: #000000; stroke-width: 0.8"/>
      </g>
     </g>
     <g id="text_4">
      <!-- 2000 -->
      <g transform="translate(292.283236 314.530625) scale(0.1 -0.1)">
       <use xlink:href="#IPAexGothic-32"/>
       <use xlink:href="#IPAexGothic-30" transform="translate(62.988281 0)"/>
       <use xlink:href="#IPAexGothic-30" transform="translate(125.976562 0)"/>
       <use xlink:href="#IPAexGothic-30" transform="translate(188.964844 0)"/>
      </g>
     </g>
    </g>
    <g id="xtick_5">
     <g id="line2d_9">
      <path d="M 384.323222 300.04 
L 384.323222 30.48 
" clip-path="url(#p0319773cb9)" style="fill: none; stroke: #000000; stroke-opacity: 0.2; stroke-width: 0.5; stroke-linecap: square"/>
     </g>
     <g id="line2d_10">
      <g>
       <use xlink:href="#m653a2e7349" x="384.323222" y="300.04" style="stroke: #000000; stroke-width: 0.8"/>
      </g>
     </g>
     <g id="text_5">
      <!-- 4000 -->
      <g transform="translate(371.726347 314.530625) scale(0.1 -0.1)">
       <use xlink:href="#IPAexGothic-34"/>
       <use xlink:href="#IPAexGothic-30" transform="translate(62.988281 0)"/>
       <use xlink:href="#IPAexGothic-30" transform="translate(125.976562 0)"/>
       <use xlink:href="#IPAexGothic-30" transform="translate(188.964844 0)"/>
      </g>
     </g>
    </g>
    <g id="text_6">
     <!-- ユーザー数 -->
     <g transform="translate(189.437 331.217125) scale(0.144 -0.144)">
      <defs>
       <path id="IPAexGothic-30e6" d="M 1313 4006 
L 4584 4006 
Q 4488 2603 4275 1050 
L 5759 1050 
L 5759 563 
L 641 563 
L 641 1050 
L 3744 1050 
Q 3928 2344 4013 3525 
L 1313 3525 
L 1313 4006 
z
" transform="scale(0.015625)"/>
       <path id="IPAexGothic-30fc" d="M 588 2688 
L 5809 2688 
L 5809 2175 
L 588 2175 
L 588 2688 
z
" transform="scale(0.015625)"/>
       <path id="IPAexGothic-30b6" d="M 3963 4919 
L 4475 4919 
L 4475 3531 
L 5856 3531 
L 5856 3072 
L 4475 3072 
Q 4456 1719 4122 1063 
Q 3697 222 2613 -325 
L 2234 38 
Q 3294 525 3681 1319 
Q 3944 1853 3963 3072 
L 2300 3072 
L 2300 1575 
L 1788 1575 
L 1788 3072 
L 481 3072 
L 481 3531 
L 1788 3531 
L 1788 4797 
L 2300 4797 
L 2300 3531 
L 3963 3531 
L 3963 4919 
z
M 5313 4044 
Q 5084 4559 4725 4984 
L 5081 5166 
Q 5400 4806 5691 4256 
L 5313 4044 
z
M 5941 4409 
Q 5681 4913 5331 5306 
L 5684 5503 
Q 6034 5113 6303 4628 
L 5941 4409 
z
" transform="scale(0.015625)"/>
       <path id="IPAexGothic-6570" d="M 2847 1553 
Q 2741 1006 2425 534 
Q 2625 441 3091 203 
L 2809 -188 
Q 2541 0 2144 209 
Q 1569 -291 703 -500 
L 422 -125 
Q 1263 19 1747 406 
Q 1222 650 734 816 
Q 975 1172 1147 1503 
L 1172 1553 
L 359 1553 
L 359 1925 
L 1344 1925 
Q 1406 2066 1569 2475 
L 1691 2450 
L 1691 3372 
Q 1250 2738 550 2303 
L 275 2663 
Q 1019 3013 1528 3641 
L 378 3641 
L 378 4006 
L 1691 4006 
L 1691 5313 
L 2113 5313 
L 2113 4006 
L 3297 4006 
L 3297 3641 
L 2113 3641 
L 2113 3513 
Q 2659 3291 3175 2963 
L 2956 2584 
Q 2553 2922 2113 3159 
L 2113 2372 
L 1966 2372 
Q 1928 2288 1872 2141 
Q 1806 1975 1784 1925 
L 3378 1925 
L 3378 1553 
L 2847 1553 
z
M 2419 1553 
L 1613 1553 
Q 1478 1269 1313 997 
Q 1559 909 2047 703 
Q 2313 1047 2419 1553 
z
M 4363 1163 
Q 3953 1781 3738 2638 
Q 3575 2281 3428 2016 
L 3103 2406 
Q 3675 3444 3916 5291 
L 4363 5200 
Q 4284 4666 4197 4197 
L 6009 4197 
L 6009 3775 
L 5503 3775 
Q 5397 2275 4869 1191 
Q 5419 503 6144 75 
L 5822 -378 
Q 5188 106 4631 788 
Q 4113 34 3341 -463 
L 3031 -78 
Q 3888 406 4363 1163 
z
M 4588 1594 
Q 4938 2388 5059 3775 
L 4100 3775 
Q 4041 3519 3972 3288 
Q 3981 3250 3991 3194 
Q 4175 2256 4588 1594 
z
M 1003 4116 
Q 878 4544 638 4934 
L 1053 5094 
Q 1247 4788 1438 4269 
L 1003 4116 
z
M 2316 4269 
Q 2550 4688 2688 5131 
L 3128 4997 
Q 2966 4588 2675 4128 
L 2316 4269 
z
" transform="scale(0.015625)"/>
      </defs>
      <use xlink:href="#IPAexGothic-30e6"/>
      <use xlink:href="#IPAexGothic-30fc" transform="translate(100 0)"/>
      <use xlink:href="#IPAexGothic-30b6" transform="translate(200 0)"/>
      <use xlink:href="#IPAexGothic-30fc" transform="translate(300 0)"/>
      <use xlink:href="#IPAexGothic-6570" transform="translate(400 0)"/>
     </g>
    </g>
   </g>
   <g id="matplotlib.axis_2">
    <g id="ytick_1">
     <g id="line2d_11">
      <defs>
       <path id="ma6a9fb3700" d="M 0 0 
L -3.5 0 
" style="stroke: #000000; stroke-width: 0.8"/>
      </defs>
      <g>
       <use xlink:href="#ma6a9fb3700" x="46.69" y="273.372299" style="stroke: #000000; stroke-width: 0.8"/>
      </g>
     </g>
     <g id="text_7">
      <!-- 18-24 -->
      <g transform="translate(10.916563 277.117612) scale(0.1 -0.1)">
       <defs>
        <path id="IPAexGothic-31" d="M 2463 63 
L 1900 63 
L 1900 4103 
Q 1372 3922 788 3797 
L 684 4231 
Q 1519 4441 2106 4731 
L 2463 4731 
L 2463 63 
z
" transform="scale(0.015625)"/>
        <path id="IPAexGothic-38" d="M 2541 2425 
Q 3700 2031 3700 1197 
Q 3700 541 3100 197 
Q 2663 -56 2016 -56 
Q 1366 -56 928 197 
Q 347 531 347 1178 
Q 347 1988 1409 2381 
L 1409 2400 
Q 481 2734 481 3509 
Q 481 4100 981 4456 
Q 1406 4756 2019 4756 
Q 2703 4756 3131 4403 
Q 3553 4069 3553 3566 
Q 3553 2706 2541 2444 
L 2541 2425 
z
M 2022 2625 
Q 2997 2856 2997 3528 
Q 2997 3916 2675 4150 
Q 2413 4347 2016 4347 
Q 1606 4347 1331 4128 
Q 1050 3897 1050 3522 
Q 1050 3150 1350 2925 
Q 1494 2809 1722 2722 
Q 1984 2616 2022 2625 
z
M 1978 2209 
Q 922 1931 922 1216 
Q 922 775 1313 556 
Q 1606 391 2009 391 
Q 2575 391 2881 697 
Q 3106 922 3106 1250 
Q 3106 1594 2794 1850 
Q 2609 1994 2350 2100 
Q 2047 2222 1978 2209 
z
" transform="scale(0.015625)"/>
        <path id="IPAexGothic-2d" d="M 1969 1703 
L 319 1703 
L 319 2203 
L 1969 2203 
L 1969 1703 
z
" transform="scale(0.015625)"/>
       </defs>
       <use xlink:href="#IPAexGothic-31"/>
       <use xlink:href="#IPAexGothic-38" transform="translate(62.988281 0)"/>
       <use xlink:href="#IPAexGothic-2d" transform="translate(125.976562 0)"/>
       <use xlink:href="#IPAexGothic-32" transform="translate(161.767578 0)"/>
       <use xlink:href="#IPAexGothic-34" transform="translate(224.755859 0)"/>
      </g>
     </g>
    </g>
    <g id="ytick_2">
     <g id="line2d_12">
      <g>
       <use xlink:href="#ma6a9fb3700" x="46.69" y="237.334866" style="stroke: #000000; stroke-width: 0.8"/>
      </g>
     </g>
     <g id="text_8">
      <!-- 25-29 -->
      <g transform="translate(10.916563 241.080179) scale(0.1 -0.1)">
       <defs>
        <path id="IPAexGothic-35" d="M 1178 2603 
Q 1634 2963 2172 2963 
Q 2816 2963 3241 2528 
Q 3638 2113 3638 1497 
Q 3638 938 3297 513 
Q 2869 -31 2031 -31 
Q 959 -31 469 784 
L 938 1028 
Q 1309 434 2013 434 
Q 2466 434 2769 716 
Q 3081 1013 3081 1503 
Q 3081 1966 2806 2241 
Q 2519 2528 2056 2528 
Q 1406 2528 1072 2028 
L 591 2091 
L 884 4634 
L 3406 4634 
L 3406 4153 
L 1341 4153 
L 1134 2603 
L 1178 2603 
z
" transform="scale(0.015625)"/>
        <path id="IPAexGothic-39" d="M 2984 2356 
Q 2544 1716 1813 1716 
Q 1253 1716 847 2056 
Q 366 2459 366 3163 
Q 366 3813 769 4266 
Q 1181 4725 1869 4725 
Q 2800 4725 3241 3950 
Q 3559 3378 3559 2472 
Q 3559 1250 3041 588 
Q 2553 -31 1769 -31 
Q 859 -31 391 703 
L 853 953 
Q 1156 428 1753 428 
Q 2922 428 3009 2356 
L 2984 2356 
z
M 1888 4278 
Q 1450 4278 1172 3950 
Q 922 3653 922 3200 
Q 922 2741 1159 2478 
Q 1434 2163 1906 2163 
Q 2431 2163 2728 2572 
Q 2925 2847 2925 3169 
Q 2925 3553 2694 3863 
Q 2375 4278 1888 4278 
z
" transform="scale(0.015625)"/>
       </defs>
       <use xlink:href="#IPAexGothic-32"/>
       <use xlink:href="#IPAexGothic-35" transform="translate(62.988281 0)"/>
       <use xlink:href="#IPAexGothic-2d" transform="translate(125.976562 0)"/>
       <use xlink:href="#IPAexGothic-32" transform="translate(161.767578 0)"/>
       <use xlink:href="#IPAexGothic-39" transform="translate(224.755859 0)"/>
      </g>
     </g>
    </g>
    <g id="ytick_3">
     <g id="line2d_13">
      <g>
       <use xlink:href="#ma6a9fb3700" x="46.69" y="201.297433" style="stroke: #000000; stroke-width: 0.8"/>
      </g>
     </g>
     <g id="text_9">
      <!-- 30-34 -->
      <g transform="translate(10.916563 205.042746) scale(0.1 -0.1)">
       <defs>
        <path id="IPAexGothic-33" d="M 2381 2419 
Q 3506 2216 3506 1278 
Q 3506 716 3128 356 
Q 2709 -31 1944 -31 
Q 797 -31 288 881 
L 756 1131 
Q 1109 441 1938 441 
Q 2425 441 2694 691 
Q 2950 928 2950 1291 
Q 2950 1719 2566 1978 
Q 2216 2213 1644 2213 
L 1363 2213 
L 1363 2669 
L 1656 2669 
Q 2231 2669 2534 2888 
Q 2859 3119 2859 3509 
Q 2859 3934 2494 4138 
Q 2259 4278 1931 4278 
Q 1238 4278 903 3578 
L 434 3803 
Q 897 4725 1938 4725 
Q 2597 4725 3006 4394 
Q 3416 4069 3416 3534 
Q 3416 3028 3019 2706 
Q 2763 2500 2381 2444 
L 2381 2419 
z
" transform="scale(0.015625)"/>
       </defs>
       <use xlink:href="#IPAexGothic-33"/>
       <use xlink:href="#IPAexGothic-30" transform="translate(62.988281 0)"/>
       <use xlink:href="#IPAexGothic-2d" transform="translate(125.976562 0)"/>
       <use xlink:href="#IPAexGothic-33" transform="translate(161.767578 0)"/>
       <use xlink:href="#IPAexGothic-34" transform="translate(224.755859 0)"/>
      </g>
     </g>
    </g>
    <g id="ytick_4">
     <g id="line2d_14">
      <g>
       <use xlink:href="#ma6a9fb3700" x="46.69" y="165.26" style="stroke: #000000; stroke-width: 0.8"/>
      </g>
     </g>
     <g id="text_10">
      <!-- 35-39 -->
      <g transform="translate(10.916563 169.005312) scale(0.1 -0.1)">
       <use xlink:href="#IPAexGothic-33"/>
       <use xlink:href="#IPAexGothic-35" transform="translate(62.988281 0)"/>
       <use xlink:href="#IPAexGothic-2d" transform="translate(125.976562 0)"/>
       <use xlink:href="#IPAexGothic-33" transform="translate(161.767578 0)"/>
       <use xlink:href="#IPAexGothic-39" transform="translate(224.755859 0)"/>
      </g>
     </g>
    </g>
    <g id="ytick_5">
     <g id="line2d_15">
      <g>
       <use xlink:href="#ma6a9fb3700" x="46.69" y="129.222567" style="stroke: #000000; stroke-width: 0.8"/>
      </g>
     </g>
     <g id="text_11">
      <!-- 40-44 -->
      <g transform="translate(10.916563 132.967879) scale(0.1 -0.1)">
       <use xlink:href="#IPAexGothic-34"/>
       <use xlink:href="#IPAexGothic-30" transform="translate(62.988281 0)"/>
       <use xlink:href="#IPAexGothic-2d" transform="translate(125.976562 0)"/>
       <use xlink:href="#IPAexGothic-34" transform="translate(161.767578 0)"/>
       <use xlink:href="#IPAexGothic-34" transform="translate(224.755859 0)"/>
      </g>
     </g>
    </g>
    <g id="ytick_6">
     <g id="line2d_16">
      <g>
       <use xlink:href="#ma6a9fb3700" x="46.69" y="93.185134" style="stroke: #000000; stroke-width: 0.8"/>
      </g>
     </g>
     <g id="text_12">
      <!-- 45-49 -->
      <g transform="translate(10.916563 96.930446) scale(0.1 -0.1)">
       <use xlink:href="#IPAexGothic-34"/>
       <use xlink:href="#IPAexGothic-35" transform="translate(62.988281 0)"/>
       <use xlink:href="#IPAexGothic-2d" transform="translate(125.976562 0)"/>
       <use xlink:href="#IPAexGothic-34" transform="translate(161.767578 0)"/>
       <use xlink:href="#IPAexGothic-39" transform="translate(224.755859 0)"/>
      </g>
     </g>
    </g>
    <g id="ytick_7">
     <g id="line2d_17">
      <g>
       <use xlink:href="#ma6a9fb3700" x="46.69" y="57.147701" style="stroke: #000000; stroke-width: 0.8"/>
      </g>
     </g>
     <g id="text_13">
      <!-- 50-54 -->
      <g transform="translate(10.916563 60.893013) scale(0.1 -0.1)">
       <use xlink:href="#IPAexGothic-35"/>
       <use xlink:href="#IPAexGothic-30" transform="translate(62.988281 0)"/>
       <use xlink:href="#IPAexGothic-2d" transform="translate(125.976562 0)"/>
       <use xlink:href="#IPAexGothic-35" transform="translate(161.767578 0)"/>
       <use xlink:href="#IPAexGothic-34" transform="translate(224.755859 0)"/>
      </g>
     </g>
    </g>
   </g>
   <g id="line2d_18">
    <path d="M 225.437 300.04 
L 225.437 30.48 
" clip-path="url(#p0319773cb9)" style="fill: none; stroke: #0f172a; stroke-linecap: square"/>
   </g>
   <g id="text_14">
    <!-- 4200 -->
    <g transform="translate(395.445258 276.167612) scale(0.1 -0.1)">
     <use xlink:href="#IPAexGothic-34"/>
     <use xlink:href="#IPAexGothic-32" transform="translate(62.988281 0)"/>
     <use xlink:href="#IPAexGothic-30" transform="translate(125.976562 0)"/>
     <use xlink:href="#IPAexGothic-30" transform="translate(188.964844 0)"/>
    </g>
   </g>
   <g id="text_15">
    <!-- 4000 -->
    <g transform="translate(55.428742 276.167612) scale(0.1 -0.1)">
     <use xlink:href="#IPAexGothic-34"/>
     <use xlink:href="#IPAexGothic-30" transform="translate(62.988281 0)"/>
     <use xlink:href="#IPAexGothic-30" transform="translate(125.976562 0)"/>
     <use xlink:href="#IPAexGothic-30" transform="translate(188.964844 0)"/>
    </g>
   </g>
   <g id="text_16">
    <!-- 3800 -->
    <g transform="translate(379.556636 240.130179) scale(0.1 -0.1)">
     <use xlink:href="#IPAexGothic-33"/>
     <use xlink:href="#IPAexGothic-38" transform="translate(62.988281 0)"/>
     <use xlink:href="#IPAexGothic-30" transform="translate(125.976562 0)"/>
     <use xlink:href="#IPAexGothic-30" transform="translate(188.964844 0)"/>
    </g>
   </g>
   <g id="text_17">
    <!-- 3600 -->
    <g transform="translate(71.317364 240.130179) scale(0.1 -0.1)">
     <defs>
      <path id="IPAexGothic-36" d="M 1056 2328 
Q 1509 2981 2234 2981 
Q 2906 2981 3316 2513 
Q 3675 2106 3675 1522 
Q 3675 884 3272 434 
Q 2853 -31 2178 -31 
Q 1375 -31 922 581 
Q 481 1178 481 2228 
Q 481 3425 1013 4109 
Q 1494 4725 2272 4725 
Q 3191 4725 3609 4025 
L 3150 3775 
Q 2894 4266 2300 4266 
Q 1119 4266 1031 2328 
L 1056 2328 
z
M 2141 2547 
Q 1684 2547 1384 2206 
Q 1116 1900 1116 1541 
Q 1116 1156 1353 844 
Q 1672 428 2159 428 
Q 2669 428 2941 844 
Q 3125 1128 3125 1503 
Q 3125 1944 2881 2228 
Q 2600 2547 2141 2547 
z
" transform="scale(0.015625)"/>
     </defs>
     <use xlink:href="#IPAexGothic-33"/>
     <use xlink:href="#IPAexGothic-36" transform="translate(62.988281 0)"/>
     <use xlink:href="#IPAexGothic-30" transform="translate(125.976562 0)"/>
     <use xlink:href="#IPAexGothic-30" transform="translate(188.964844 0)"/>
    </g>
   </g>
   <g id="text_18">
    <!-- 3300 -->
    <g transform="translate(359.695858 204.092746) scale(0.1 -0.1)">
     <use xlink:href="#IPAexGothic-33"/>
     <use xlink:href="#IPAexGothic-33" transform="translate(62.988281 0)"/>
     <use xlink:href="#IPAexGothic-30" transform="translate(125.976562 0)"/>
     <use xlink:href="#IPAexGothic-30" transform="translate(188.964844 0)"/>
    </g>
   </g>
   <g id="text_19">
    <!-- 3500 -->
    <g transform="translate(75.28952 204.092746) scale(0.1 -0.1)">
     <use xlink:href="#IPAexGothic-33"/>
     <use xlink:href="#IPAexGothic-35" transform="translate(62.988281 0)"/>
     <use xlink:href="#IPAexGothic-30" transform="translate(125.976562 0)"/>
     <use xlink:href="#IPAexGothic-30" transform="translate(188.964844 0)"/>
    </g>
   </g>
   <g id="text_20">
    <!-- 2700 -->
    <g transform="translate(335.862924 168.055312) scale(0.1 -0.1)">
     <defs>
      <path id="IPAexGothic-37" d="M 3597 4263 
Q 2238 2106 1778 63 
L 1131 63 
Q 1581 1834 2950 4128 
L 428 4128 
L 428 4634 
L 3597 4634 
L 3597 4263 
z
" transform="scale(0.015625)"/>
     </defs>
     <use xlink:href="#IPAexGothic-32"/>
     <use xlink:href="#IPAexGothic-37" transform="translate(62.988281 0)"/>
     <use xlink:href="#IPAexGothic-30" transform="translate(125.976562 0)"/>
     <use xlink:href="#IPAexGothic-30" transform="translate(188.964844 0)"/>
    </g>
   </g>
   <g id="text_21">
    <!-- 2900 -->
    <g transform="translate(99.122453 168.055312) scale(0.1 -0.1)">
     <use xlink:href="#IPAexGothic-32"/>
     <use xlink:href="#IPAexGothic-39" transform="translate(62.988281 0)"/>
     <use xlink:href="#IPAexGothic-30" transform="translate(125.976562 0)"/>
     <use xlink:href="#IPAexGothic-30" transform="translate(188.964844 0)"/>
    </g>
   </g>
   <g id="text_22">
    <!-- 2200 -->
    <g transform="translate(316.002147 132.017879) scale(0.1 -0.1)">
     <use xlink:href="#IPAexGothic-32"/>
     <use xlink:href="#IPAexGothic-32" transform="translate(62.988281 0)"/>
     <use xlink:href="#IPAexGothic-30" transform="translate(125.976562 0)"/>
     <use xlink:href="#IPAexGothic-30" transform="translate(188.964844 0)"/>
    </g>
   </g>
   <g id="text_23">
    <!-- 2400 -->
    <g transform="translate(118.983231 132.017879) scale(0.1 -0.1)">
     <use xlink:href="#IPAexGothic-32"/>
     <use xlink:href="#IPAexGothic-34" transform="translate(62.988281 0)"/>
     <use xlink:href="#IPAexGothic-30" transform="translate(125.976562 0)"/>
     <use xlink:href="#IPAexGothic-30" transform="translate(188.964844 0)"/>
    </g>
   </g>
   <g id="text_24">
    <!-- 1600 -->
    <g transform="translate(292.169213 95.980446) scale(0.1 -0.1)">
     <use xlink:href="#IPAexGothic-31"/>
     <use xlink:href="#IPAexGothic-36" transform="translate(62.988281 0)"/>
     <use xlink:href="#IPAexGothic-30" transform="translate(125.976562 0)"/>
     <use xlink:href="#IPAexGothic-30" transform="translate(188.964844 0)"/>
    </g>
   </g>
   <g id="text_25">
    <!-- 1700 -->
    <g transform="translate(146.78832 95.980446) scale(0.1 -0.1)">
     <use xlink:href="#IPAexGothic-31"/>
     <use xlink:href="#IPAexGothic-37" transform="translate(62.988281 0)"/>
     <use xlink:href="#IPAexGothic-30" transform="translate(125.976562 0)"/>
     <use xlink:href="#IPAexGothic-30" transform="translate(188.964844 0)"/>
    </g>
   </g>
   <g id="text_26">
    <!-- 1200 -->
    <g transform="translate(276.280591 59.943013) scale(0.1 -0.1)">
     <use xlink:href="#IPAexGothic-31"/>
     <use xlink:href="#IPAexGothic-32" transform="translate(62.988281 0)"/>
     <use xlink:href="#IPAexGothic-30" transform="translate(125.976562 0)"/>
     <use xlink:href="#IPAexGothic-30" transform="translate(188.964844 0)"/>
    </g>
   </g>
   <g id="text_27">
    <!-- 1300 -->
    <g transform="translate(162.676942 59.943013) scale(0.1 -0.1)">
     <use xlink:href="#IPAexGothic-31"/>
     <use xlink:href="#IPAexGothic-33" transform="translate(62.988281 0)"/>
     <use xlink:href="#IPAexGothic-30" transform="translate(125.976562 0)"/>
     <use xlink:href="#IPAexGothic-30" transform="translate(188.964844 0)"/>
    </g>
   </g>
   <g id="text_28">
    <!-- 年齢帯別の会員数（人口ピラミッド） -->
    <g transform="translate(78.557 24.48) scale(0.1728 -0.1728)">
     <defs>
      <path id="IPAexGothic-5e74" d="M 1772 4159 
Q 1444 3422 875 2803 
L 528 3166 
Q 1322 3941 1631 5259 
L 2109 5156 
Q 1994 4759 1931 4563 
L 5694 4563 
L 5694 4159 
L 3756 4159 
L 3756 3128 
L 5434 3128 
L 5434 2725 
L 3756 2725 
L 3756 1509 
L 6078 1509 
L 6078 1094 
L 3756 1094 
L 3756 -450 
L 3275 -450 
L 3275 1094 
L 447 1094 
L 447 1509 
L 1534 1509 
L 1534 3128 
L 3275 3128 
L 3275 4159 
L 1772 4159 
z
M 3275 2725 
L 1994 2725 
L 1994 1509 
L 3275 1509 
L 3275 2725 
z
" transform="scale(0.015625)"/>
      <path id="IPAexGothic-9f62" d="M 2094 4709 
L 2956 4709 
L 2956 4350 
L 2094 4350 
L 2094 3744 
L 3397 3744 
L 3397 3372 
L 244 3372 
L 244 3744 
L 866 3744 
L 866 4819 
L 1250 4819 
L 1250 3744 
L 1703 3744 
L 1703 5313 
L 2094 5313 
L 2094 4709 
z
M 872 2100 
L 1659 2100 
L 1659 3219 
L 2019 3219 
L 2019 2100 
L 2797 2100 
L 2797 3219 
L 3181 3219 
L 3181 2878 
L 3231 2931 
Q 3944 3719 4338 5209 
L 4794 5209 
Q 5306 3847 6234 2969 
L 5978 2559 
Q 5656 2891 5338 3322 
L 5338 2975 
L 3988 2975 
L 3988 3256 
Q 3728 2828 3422 2484 
L 3181 2872 
L 3181 -416 
L 2797 -416 
L 2797 -178 
L 872 -178 
L 872 -447 
L 481 -447 
L 481 3219 
L 872 3219 
L 872 2100 
z
M 1600 1759 
L 872 1759 
L 872 188 
L 2797 188 
L 2797 1759 
L 2019 1759 
L 2019 1534 
Q 2413 1303 2750 1013 
L 2522 713 
Q 2325 947 2019 1197 
L 2019 316 
L 1659 316 
L 1659 1331 
Q 1444 856 1094 488 
L 884 813 
Q 1322 1194 1600 1759 
z
M 5306 3366 
Q 4831 4034 4581 4722 
Q 4428 4066 4050 3366 
L 5306 3366 
z
M 5888 2338 
L 5888 538 
Q 5888 91 5450 91 
Q 5203 91 4916 141 
L 4863 556 
Q 5163 500 5350 500 
Q 5491 500 5491 684 
L 5491 1947 
L 4622 1947 
L 4622 -447 
L 4213 -447 
L 4213 1947 
L 3469 1947 
L 3469 2338 
L 5888 2338 
z
M 1216 2194 
Q 1116 2634 959 2969 
L 1291 3066 
Q 1441 2775 1553 2297 
L 1216 2194 
z
M 2091 2316 
Q 2284 2753 2359 3091 
L 2725 2969 
Q 2556 2506 2375 2203 
L 2091 2316 
z
" transform="scale(0.015625)"/>
      <path id="IPAexGothic-5e2f" d="M 1381 4494 
L 1381 5153 
L 1822 5153 
L 1822 4494 
L 2956 4494 
L 2956 5313 
L 3397 5313 
L 3397 4494 
L 4569 4494 
L 4569 5153 
L 5009 5153 
L 5009 4494 
L 5944 4494 
L 5944 4128 
L 5009 4128 
L 5009 3213 
L 1381 3213 
L 1381 4128 
L 447 4128 
L 447 4494 
L 1381 4494 
z
M 4569 4128 
L 3397 4128 
L 3397 3566 
L 4569 3566 
L 4569 4128 
z
M 2956 4128 
L 1822 4128 
L 1822 3566 
L 2956 3566 
L 2956 4128 
z
M 5938 2778 
L 5938 1600 
L 5491 1600 
L 5491 2400 
L 3366 2400 
L 3366 1881 
L 5175 1881 
L 5175 447 
Q 5175 13 4619 13 
Q 4228 13 3884 44 
L 3831 494 
Q 4209 428 4519 428 
Q 4722 428 4722 622 
L 4722 1516 
L 3366 1516 
L 3366 -447 
L 2919 -447 
L 2919 1516 
L 1700 1516 
L 1700 -63 
L 1253 -63 
L 1253 1881 
L 2919 1881 
L 2919 2400 
L 900 2400 
L 900 1600 
L 453 1600 
L 453 2778 
L 5938 2778 
z
" transform="scale(0.015625)"/>
      <path id="IPAexGothic-5225" d="M 1922 2963 
Q 1906 2453 1894 2209 
L 3341 2209 
Q 3313 550 3175 63 
Q 3059 -366 2413 -366 
Q 2072 -366 1753 -313 
L 1691 134 
Q 2084 63 2413 63 
Q 2694 63 2759 319 
Q 2856 722 2888 1753 
Q 2888 1800 2894 1819 
L 1863 1819 
Q 1709 350 700 -481 
L 353 -147 
Q 1075 403 1306 1256 
Q 1450 1822 1478 2963 
L 700 2963 
L 700 4984 
L 3278 4984 
L 3278 2963 
L 1922 2963 
z
M 1141 4588 
L 1141 3353 
L 2838 3353 
L 2838 4588 
L 1141 4588 
z
M 3972 4597 
L 4425 4597 
L 4425 1159 
L 3972 1159 
L 3972 4597 
z
M 5309 5044 
L 5763 5044 
L 5763 191 
Q 5763 -141 5581 -263 
Q 5438 -359 5116 -359 
Q 4688 -359 4253 -313 
L 4156 178 
Q 4625 116 5072 116 
Q 5309 116 5309 353 
L 5309 5044 
z
" transform="scale(0.015625)"/>
      <path id="IPAexGothic-306e" d="M 3119 469 
Q 5275 766 5275 2425 
Q 5275 3453 4413 3925 
Q 4041 4116 3547 4159 
Q 3394 2525 2850 1400 
Q 2322 306 1722 306 
Q 1384 306 1084 666 
Q 609 1244 609 2003 
Q 609 3025 1397 3794 
Q 2184 4563 3431 4563 
Q 4306 4563 4928 4122 
Q 5813 3506 5813 2425 
Q 5813 438 3431 6 
L 3119 469 
z
M 3053 4147 
Q 2378 4044 1891 3641 
Q 1097 2981 1097 1991 
Q 1097 1366 1434 978 
Q 1581 813 1719 813 
Q 2022 813 2416 1625 
Q 2909 2638 3053 4147 
z
" transform="scale(0.015625)"/>
      <path id="IPAexGothic-4f1a" d="M 1863 3272 
L 4641 3272 
L 4641 2863 
L 1759 2863 
L 1759 3194 
Q 1734 3175 1638 3113 
Q 1238 2816 594 2497 
L 288 2863 
Q 1959 3597 2894 5147 
L 3431 5147 
Q 4341 3784 6131 3047 
L 5825 2631 
Q 4063 3497 3175 4731 
Q 2653 3881 1863 3272 
z
M 2822 1703 
Q 2531 997 2119 322 
L 2388 341 
Q 3366 409 4325 506 
L 4641 538 
Q 4169 1028 3859 1306 
L 4209 1550 
Q 5088 797 5778 -31 
L 5388 -350 
Q 5156 -50 4928 219 
L 4831 206 
Q 3106 -53 844 -238 
L 684 231 
Q 816 238 1191 263 
L 1631 288 
Q 2022 934 2322 1703 
L 641 1703 
L 641 2125 
L 5759 2125 
L 5759 1703 
L 2822 1703 
z
" transform="scale(0.015625)"/>
      <path id="IPAexGothic-54e1" d="M 4978 4991 
L 4978 3731 
L 1416 3731 
L 1416 4991 
L 4978 4991 
z
M 1869 4631 
L 1869 4084 
L 4525 4084 
L 4525 4631 
L 1869 4631 
z
M 5300 3347 
L 5300 641 
L 1094 641 
L 1094 3347 
L 5300 3347 
z
M 1550 2981 
L 1550 2566 
L 4844 2566 
L 4844 2981 
L 1550 2981 
z
M 1550 2213 
L 1550 1797 
L 4844 1797 
L 4844 2213 
L 1550 2213 
z
M 1550 1444 
L 1550 1000 
L 4844 1000 
L 4844 1444 
L 1550 1444 
z
M 397 -91 
Q 1353 141 2216 616 
L 2656 372 
Q 1781 -194 738 -494 
L 397 -91 
z
M 5509 -397 
Q 4547 59 3641 359 
L 4044 634 
Q 4934 397 5894 -13 
L 5509 -397 
z
" transform="scale(0.015625)"/>
      <path id="IPAexGothic-ff08" d="M 5419 -434 
Q 4197 769 4197 2438 
Q 4197 4097 5419 5300 
L 5919 5300 
Q 4678 4078 4678 2425 
Q 4678 788 5919 -434 
L 5419 -434 
z
" transform="scale(0.015625)"/>
      <path id="IPAexGothic-4eba" d="M 3434 5081 
L 3434 4659 
Q 3434 3131 4050 2069 
Q 4669 994 6022 275 
L 5644 -197 
Q 4359 588 3641 1863 
Q 3394 2300 3225 3009 
Q 2822 766 819 -325 
L 441 97 
Q 1856 759 2438 1972 
Q 2919 2959 2919 4634 
L 2919 5081 
L 3434 5081 
z
" transform="scale(0.015625)"/>
      <path id="IPAexGothic-53e3" d="M 5425 4500 
L 5425 -56 
L 4913 -56 
L 4913 391 
L 1478 391 
L 1478 -97 
L 966 -97 
L 966 4500 
L 5425 4500 
z
M 1478 4047 
L 1478 838 
L 4913 838 
L 4913 4047 
L 1478 4047 
z
" transform="scale(0.015625)"/>
      <path id="IPAexGothic-30d4" d="M 1331 4756 
L 1856 4756 
L 1856 2759 
Q 3528 3134 4722 3872 
L 5106 3456 
Q 3619 2663 1856 2278 
L 1856 1044 
Q 1856 725 2047 650 
Q 2241 566 3138 566 
Q 4141 566 5369 697 
L 5369 184 
Q 4231 78 3238 78 
Q 1913 78 1619 275 
Q 1331 459 1331 947 
L 1331 4756 
z
M 5478 5222 
Q 5788 5222 5997 4988 
Q 6181 4788 6181 4519 
Q 6181 4206 5947 3994 
Q 5747 3809 5478 3809 
Q 5166 3809 4953 4044 
Q 4769 4247 4769 4519 
Q 4769 4828 5003 5041 
Q 5206 5222 5478 5222 
z
M 5478 4941 
Q 5288 4941 5159 4800 
Q 5050 4678 5050 4519 
Q 5050 4328 5191 4200 
Q 5313 4091 5478 4091 
Q 5663 4091 5791 4231 
Q 5900 4353 5900 4519 
Q 5900 4703 5759 4831 
Q 5638 4941 5478 4941 
z
" transform="scale(0.015625)"/>
      <path id="IPAexGothic-30e9" d="M 1447 4709 
L 4922 4709 
L 4922 4234 
L 1447 4234 
L 1447 4709 
z
M 897 3303 
L 5172 3303 
L 5478 3013 
Q 5069 1669 4219 875 
Q 3475 181 2306 -181 
L 1972 294 
Q 4150 784 4834 2828 
L 897 2828 
L 897 3303 
z
" transform="scale(0.015625)"/>
      <path id="IPAexGothic-30df" d="M 4606 3353 
Q 3022 4028 1600 4375 
L 1888 4806 
Q 3403 4425 4881 3813 
L 4606 3353 
z
M 4184 1863 
Q 2906 2466 1747 2763 
L 2028 3213 
Q 3169 2903 4466 2328 
L 4184 1863 
z
M 4631 -159 
Q 3119 638 1125 1234 
L 1413 1678 
Q 3228 1169 4953 319 
L 4631 -159 
z
" transform="scale(0.015625)"/>
      <path id="IPAexGothic-30c3" d="M 1775 1984 
Q 1553 2666 1275 3175 
L 1716 3391 
Q 2034 2866 2247 2209 
L 1775 1984 
z
M 3003 2297 
Q 2813 2978 2522 3469 
L 2978 3681 
Q 3291 3166 3484 2522 
L 3003 2297 
z
M 1928 372 
Q 3094 744 3731 1569 
Q 4275 2263 4469 3525 
L 4975 3406 
Q 4734 1975 4016 1119 
Q 3406 391 2266 -44 
L 1928 372 
z
" transform="scale(0.015625)"/>
      <path id="IPAexGothic-30c9" d="M 2247 4959 
L 2766 4959 
L 2766 3169 
Q 4050 2581 5178 1850 
L 4841 1331 
Q 3781 2138 2766 2650 
L 2766 -225 
L 2247 -225 
L 2247 4959 
z
M 5263 3847 
Q 4900 4388 4506 4716 
L 4806 4947 
Q 5191 4638 5581 4122 
L 5263 3847 
z
M 4666 3378 
Q 4375 3869 3931 4269 
L 4244 4513 
Q 4616 4206 5000 3653 
L 4666 3378 
z
" transform="scale(0.015625)"/>
      <path id="IPAexGothic-ff09" d="M 481 -434 
Q 1722 788 1722 2431 
Q 1722 4066 481 5300 
L 981 5300 
Q 2203 4097 2203 2431 
Q 2203 769 981 -434 
L 481 -434 
z
" transform="scale(0.015625)"/>
     </defs>
     <use xlink:href="#IPAexGothic-5e74"/>
     <use xlink:href="#IPAexGothic-9f62" transform="translate(100 0)"/>
     <use xlink:href="#IPAexGothic-5e2f" transform="translate(200 0)"/>
     <use xlink:href="#IPAexGothic-5225" transform="translate(300 0)"/>
     <use xlink:href="#IPAexGothic-306e" transform="translate(400 0)"/>
     <use xlink:href="#IPAexGothic-4f1a" transform="translate(500 0)"/>
     <use xlink:href="#IPAexGothic-54e1" transform="translate(600 0)"/>
     <use xlink:href="#IPAexGothic-6570" transform="translate(700 0)"/>
     <use xlink:href="#IPAexGothic-ff08" transform="translate(800 0)"/>
     <use xlink:href="#IPAexGothic-4eba" transform="translate(900 0)"/>
     <use xlink:href="#IPAexGothic-53e3" transform="translate(1000 0)"/>
     <use xlink:href="#IPAexGothic-30d4" transform="translate(1100 0)"/>
     <use xlink:href="#IPAexGothic-30e9" transform="translate(1200 0)"/>
     <use xlink:href="#IPAexGothic-30df" transform="translate(1300 0)"/>
     <use xlink:href="#IPAexGothic-30c3" transform="translate(1400 0)"/>
     <use xlink:href="#IPAexGothic-30c9" transform="translate(1500 0)"/>
     <use xlink:href="#IPAexGothic-ff09" transform="translate(1600 0)"/>
    </g>
   </g>
   <g id="legend_1">
    <g id="patch_17">
     <path d="M 327.384 85.4175 
L 389.784 85.4175 
Q 392.184 85.4175 392.184 83.0175 
L 392.184 44.88 
Q 392.184 42.48 389.784 42.48 
L 327.384 42.48 
Q 324.984 42.48 324.984 44.88 
L 324.984 83.0175 
Q 324.984 85.4175 327.384 85.4175 
z
" style="fill: #ffffff; opacity: 0.8; stroke: #cccccc; stroke-linejoin: miter"/>
    </g>
    <g id="patch_18">
     <path d="M 329.784 56.26875 
L 353.784 56.26875 
L 353.784 47.86875 
L 329.784 47.86875 
z
" style="fill: #38bdf8"/>
    </g>
    <g id="text_29">
     <!-- 男性 -->
     <g transform="translate(363.384 56.26875) scale(0.12 -0.12)">
      <defs>
       <path id="IPAexGothic-7537" d="M 3306 2572 
L 3306 2003 
L 5666 2003 
Q 5569 419 5466 103 
Q 5322 -331 4691 -331 
Q 4181 -331 3569 -281 
L 3494 206 
Q 4116 103 4597 103 
Q 4953 103 5031 391 
Q 5131 759 5178 1594 
L 3269 1594 
Q 3138 775 2550 281 
Q 1975 -197 928 -475 
L 628 -63 
Q 2631 428 2794 1544 
L 647 1544 
L 647 1953 
L 2838 1953 
L 2838 2572 
L 1063 2572 
L 1063 4978 
L 5331 4978 
L 5331 2572 
L 3306 2572 
z
M 1516 4606 
L 1516 3969 
L 2956 3969 
L 2956 4606 
L 1516 4606 
z
M 1516 3609 
L 1516 2944 
L 2956 2944 
L 2956 3609 
L 1516 3609 
z
M 4878 2944 
L 4878 3609 
L 3397 3609 
L 3397 2944 
L 4878 2944 
z
M 4878 3969 
L 4878 4606 
L 3397 4606 
L 3397 3969 
L 4878 3969 
z
" transform="scale(0.015625)"/>
       <path id="IPAexGothic-6027" d="M 3106 3788 
L 3900 3788 
L 3900 5216 
L 4353 5216 
L 4353 3788 
L 5884 3788 
L 5884 3372 
L 4353 3372 
L 4353 2069 
L 5756 2069 
L 5756 1653 
L 4353 1653 
L 4353 153 
L 6081 153 
L 6081 -269 
L 2231 -269 
L 2231 153 
L 3900 153 
L 3900 1653 
L 2606 1653 
L 2606 2069 
L 3900 2069 
L 3900 3372 
L 2984 3372 
Q 2806 2803 2544 2325 
L 2147 2613 
Q 2638 3428 2875 4875 
L 3313 4778 
Q 3234 4309 3106 3788 
z
M 269 2188 
Q 459 2891 525 3950 
L 934 3884 
Q 884 2694 672 1931 
L 269 2188 
z
M 1997 3047 
Q 1872 3591 1650 4078 
L 1984 4256 
Q 2216 3844 2394 3291 
L 1997 3047 
z
M 1159 5313 
L 1613 5313 
L 1613 -447 
L 1159 -447 
L 1159 5313 
z
" transform="scale(0.015625)"/>
      </defs>
      <use xlink:href="#IPAexGothic-7537"/>
      <use xlink:href="#IPAexGothic-6027" transform="translate(100 0)"/>
     </g>
    </g>
    <g id="patch_19">
     <path d="M 329.784 78.3375 
L 353.784 78.3375 
L 353.784 69.9375 
L 329.784 69.9375 
z
" style="fill: #f472b6"/>
    </g>
    <g id="text_30">
     <!-- 女性 -->
     <g transform="translate(363.384 78.3375) scale(0.12 -0.12)">
      <defs>
       <path id="IPAexGothic-5973" d="M 1869 1659 
Q 1816 1553 1600 1172 
L 1159 1353 
Q 1744 2413 2088 3266 
L 481 3266 
L 481 3700 
L 2259 3700 
Q 2538 4419 2741 5197 
L 3228 5081 
Q 2988 4238 2778 3700 
L 5916 3700 
L 5916 3266 
L 4822 3266 
Q 4813 3253 4813 3222 
Q 4575 2003 3950 1166 
Q 4828 731 5800 169 
L 5403 -266 
Q 4622 263 3631 809 
Q 2672 -53 788 -331 
L 519 103 
Q 2313 322 3194 1031 
Q 2678 1300 2003 1603 
L 1869 1659 
z
M 2056 2031 
L 2228 1953 
Q 2947 1659 3522 1372 
Q 3534 1397 3547 1409 
Q 4050 2063 4309 3209 
L 4328 3266 
L 2613 3266 
Q 2378 2666 2056 2031 
z
" transform="scale(0.015625)"/>
      </defs>
      <use xlink:href="#IPAexGothic-5973"/>
      <use xlink:href="#IPAexGothic-6027" transform="translate(100 0)"/>
     </g>
    </g>
   </g>
  </g>
 </g>
 <defs>
  <clipPath id="p0319773cb9">
   <rect x="46.69" y="30.48" width="357.494" height="269.56"/>
  </clipPath>
 </defs>
</svg>
