<?xml version="1.0" encoding="utf-8" standalone="no"?>
<!DOCTYPE svg PUBLIC "-//W3C//DTD SVG 1.1//EN"
  "http://www.w3.org/Graphics/SVG/1.1/DTD/svg11.dtd">
<svg xmlns:xlink="http://www.w3.org/1999/xlink" width="360pt" height="360pt" viewBox="0 0 360 360" xmlns="http://www.w3.org/2000/svg" version="1.1">
 <metadata>
  <rdf:RDF xmlns:dc="http://purl.org/dc/elements/1.1/" xmlns:cc="http://creativecommons.org/ns#" xmlns:rdf="http://www.w3.org/1999/02/22-rdf-syntax-ns#">
   <cc:Work>
    <dc:type rdf:resource="http://purl.org/dc/dcmitype/StillImage"/>
    <dc:date>2025-10-29T08:53:13.169676</dc:date>
    <dc:format>image/svg+xml</dc:format>
    <dc:creator>
     <cc:Agent>
      <dc:title>Matplotlib v3.10.7, https://matplotlib.org/</dc:title>
     </cc:Agent>
    </dc:creator>
   </cc:Work>
  </rdf:RDF>
 </metadata>
 <defs>
  <style type="text/css">*{stroke-linejoin: round; stroke-linecap: butt}</style>
 </defs>
 <g id="figure_1">
  <g id="patch_1">
   <path d="M 0 360 
L 360 360 
L 360 0 
L 0 0 
z
" style="fill: #ffffff"/>
  </g>
  <g id="axes_1">
   <g id="patch_2">
    <path d="M 278.94 189.885 
C 278.94 172.279089 275.472019 154.844373 268.734529 138.578632 
C 261.997038 122.312891 252.121065 107.532453 239.671806 95.083194 
C 227.222547 82.633935 212.442109 72.757962 196.176368 66.020471 
C 179.910627 59.282981 162.475911 55.815 144.87 55.815 
C 127.264089 55.815 109.829373 59.282981 93.563632 66.020471 
C 77.297891 72.757962 62.517453 82.633935 50.068194 95.083194 
C 37.618935 107.532453 27.742962 122.312891 21.005471 138.578632 
C 14.267981 154.844373 10.8 172.279089 10.8 189.885 
C 10.8 207.490911 14.267981 224.925627 21.005471 241.191368 
C 27.742962 257.457109 37.618935 272.237547 50.068194 284.686806 
C 62.517453 297.136065 77.297891 307.012038 93.563632 313.749529 
C 109.829373 320.487019 127.264089 323.955 144.87 323.955 
C 162.475911 323.955 179.910627 320.487019 196.176368 313.749529 
C 212.442109 307.012038 227.222547 297.136065 239.671806 284.686806 
C 252.121065 272.237547 261.997038 257.457109 268.734529 241.191368 
C 275.472019 224.925627 278.94 207.490911 278.94 189.885 
M 144.87 189.885 
C 144.87 189.885 144.87 189.885 144.87 189.885 
C 144.87 189.885 144.87 189.885 144.87 189.885 
C 144.87 189.885 144.87 189.885 144.87 189.885 
C 144.87 189.885 144.87 189.885 144.87 189.885 
C 144.87 189.885 144.87 189.885 144.87 189.885 
C 144.87 189.885 144.87 189.885 144.87 189.885 
C 144.87 189.885 144.87 189.885 144.87 189.885 
C 144.87 189.885 144.87 189.885 144.87 189.885 
C 144.87 189.885 144.87 189.885 144.87 189.885 
C 144.87 189.885 144.87 189.885 144.87 189.885 
C 144.87 189.885 144.87 189.885 144.87 189.885 
C 144.87 189.885 144.87 189.885 144.87 189.885 
C 144.87 189.885 144.87 189.885 144.87 189.885 
C 144.87 189.885 144.87 189.885 144.87 189.885 
C 144.87 189.885 144.87 189.885 144.87 189.885 
C 144.87 189.885 144.87 189.885 144.87 189.885 
z
" style="fill: #ffffff"/>
   </g>
   <g id="patch_3">
    <path d="M 257.4888 189.885 
L 182.156918 75.127668 
L 58.098073 126.841505 
L 60.267371 251.352408 
L 181.328319 302.092169 
z
" clip-path="url(#p91b524e86a)" style="fill: #2563eb; opacity: 0.25; stroke: #2563eb; stroke-linejoin: miter"/>
   </g>
   <g id="patch_4">
    <path d="M 246.7632 189.885 
L 178.842525 85.328319 
L 51.590179 122.113243 
L 47.251582 260.808932 
L 175.528132 284.241029 
z
" clip-path="url(#p91b524e86a)" style="fill: #f97316; opacity: 0.25; stroke: #f97316; stroke-linejoin: miter"/>
   </g>
   <g id="matplotlib.axis_1">
    <g id="xtick_1">
     <g id="line2d_1">
      <path d="M 144.87 189.885 
L 278.94 189.885 
" clip-path="url(#p91b524e86a)" style="fill: none; stroke: #000000; stroke-opacity: 0.5; stroke-width: 0.5; stroke-linecap: square"/>
     </g>
     <g id="text_1">
      <!-- UX -->
      <g transform="translate(285.774375 192.680313) scale(0.1 -0.1)">
       <defs>
        <path id="IPAexGothic-55" d="M 4219 4634 
L 4219 1631 
Q 4219 994 3906 594 
Q 3400 -63 2388 -63 
Q 1372 -63 856 594 
Q 550 988 550 1631 
L 550 4634 
L 1113 4634 
L 1113 1700 
Q 1113 1134 1388 831 
Q 1753 428 2388 428 
Q 3031 428 3388 831 
Q 3663 1144 3663 1700 
L 3663 4634 
L 4219 4634 
z
" transform="scale(0.015625)"/>
        <path id="IPAexGothic-58" d="M 4203 63 
L 3469 63 
L 2163 1972 
L 881 63 
L 159 63 
L 1822 2369 
L 203 4634 
L 922 4634 
L 2181 2753 
L 3450 4634 
L 4166 4634 
L 2528 2375 
L 4203 63 
z
" transform="scale(0.015625)"/>
       </defs>
       <use xlink:href="#IPAexGothic-55"/>
       <use xlink:href="#IPAexGothic-58" transform="translate(74.707031 0)"/>
      </g>
     </g>
    </g>
    <g id="xtick_2">
     <g id="line2d_2">
      <path d="M 144.87 189.885 
L 186.299908 62.376853 
" clip-path="url(#p91b524e86a)" style="fill: none; stroke: #000000; stroke-opacity: 0.5; stroke-width: 0.5; stroke-linecap: square"/>
     </g>
     <g id="text_2">
      <!-- 機能 -->
      <g transform="translate(180.626146 51.857374) scale(0.1 -0.1)">
       <defs>
        <path id="IPAexGothic-6a5f" d="M 3916 2125 
Q 3806 2984 3806 4238 
L 3806 5313 
L 4216 5313 
L 4216 4300 
Q 4216 3081 4300 2278 
L 4313 2150 
L 5175 2150 
Q 4984 2350 4822 2469 
L 5144 2669 
Q 5325 2541 5547 2309 
L 5309 2150 
L 6006 2150 
L 6006 1797 
L 4363 1797 
Q 4450 1278 4688 869 
Q 4931 1150 5194 1631 
L 5553 1431 
Q 5284 953 4913 531 
Q 4941 491 4959 475 
Q 5278 78 5438 78 
Q 5581 78 5669 844 
L 6066 628 
Q 5881 -422 5559 -422 
Q 5163 -422 4631 244 
Q 4069 -275 3384 -519 
L 3116 -191 
Q 3881 88 4406 569 
Q 4072 1116 3966 1772 
L 3084 1772 
Q 3078 1747 3078 1675 
Q 3078 1650 3063 1431 
Q 3534 1153 3934 781 
L 3684 441 
Q 3328 816 3031 1056 
Q 2906 91 2238 -494 
L 1950 -172 
Q 2478 241 2603 891 
Q 2659 1197 2681 1772 
L 2116 1772 
L 2116 2125 
L 3916 2125 
z
M 1113 2534 
Q 813 1522 384 794 
L 153 1250 
Q 763 2228 1063 3547 
L 294 3547 
L 294 3956 
L 1113 3956 
L 1113 5306 
L 1522 5306 
L 1522 3956 
L 2138 3956 
L 2138 3547 
L 1522 3547 
L 1522 2881 
Q 1875 2588 2150 2228 
L 1888 1884 
Q 1753 2144 1522 2434 
L 1522 -447 
L 1113 -447 
L 1113 2534 
z
M 2750 3334 
Q 2441 3850 2131 4159 
L 2347 4469 
Q 2384 4425 2509 4275 
Q 2734 4703 2913 5228 
L 3263 5025 
Q 3028 4447 2719 3988 
Q 2766 3919 2838 3803 
Q 2913 3684 2938 3647 
Q 3175 4066 3347 4434 
L 3666 4244 
Q 3263 3431 2809 2841 
Q 3097 2872 3347 2900 
Q 3347 2913 3334 2950 
Q 3313 3063 3231 3303 
L 3519 3372 
Q 3716 2891 3781 2413 
L 3456 2297 
Q 3453 2316 3428 2484 
Q 3416 2575 3403 2631 
Q 2906 2506 2175 2438 
L 2072 2797 
Q 2109 2800 2194 2803 
Q 2263 2806 2297 2809 
Q 2369 2809 2413 2816 
L 2438 2853 
Q 2538 2994 2750 3334 
z
M 4875 3413 
Q 4559 3916 4263 4206 
L 4478 4506 
Q 4494 4488 4559 4406 
Q 4609 4350 4641 4306 
Q 4891 4769 5038 5216 
L 5394 5013 
Q 5147 4466 4838 4025 
Q 4963 3844 5050 3700 
Q 5241 4019 5466 4469 
L 5784 4256 
Q 5497 3725 4991 3009 
Q 5356 3031 5547 3053 
Q 5466 3281 5381 3450 
L 5681 3553 
Q 5872 3181 6022 2669 
L 5709 2503 
Q 5697 2550 5663 2678 
Q 5641 2759 5631 2797 
Q 5019 2669 4434 2619 
L 4338 2975 
Q 4513 2975 4594 2981 
Q 4778 3256 4875 3413 
z
" transform="scale(0.015625)"/>
        <path id="IPAexGothic-80fd" d="M 888 3903 
Q 1228 4475 1509 5325 
L 1991 5203 
Q 1684 4497 1344 3941 
L 1325 3916 
L 1406 3916 
Q 1972 3928 2522 3966 
L 2584 3966 
Q 2438 4216 2181 4556 
L 2541 4753 
Q 3025 4141 3372 3475 
L 2988 3213 
Q 2909 3375 2775 3634 
Q 1938 3513 447 3456 
L 319 3897 
Q 613 3897 734 3903 
L 888 3903 
z
M 2963 3072 
L 2963 50 
Q 2963 -384 2413 -384 
Q 2100 -384 1822 -347 
L 1753 97 
Q 2091 38 2328 38 
Q 2534 38 2534 225 
L 2534 934 
L 1150 934 
L 1150 -447 
L 722 -447 
L 722 3072 
L 2963 3072 
z
M 1150 2688 
L 1150 2194 
L 2534 2194 
L 2534 2688 
L 1150 2688 
z
M 1150 1822 
L 1150 1306 
L 2534 1306 
L 2534 1822 
L 1150 1822 
z
M 3934 4153 
Q 4806 4444 5431 4872 
L 5803 4525 
Q 4866 4013 3934 3763 
L 3934 3206 
Q 3934 3022 4069 2981 
Q 4188 2950 4550 2950 
Q 5344 2950 5431 3116 
Q 5497 3234 5516 3828 
L 5963 3706 
Q 5934 2825 5719 2675 
Q 5522 2534 4594 2534 
Q 3897 2534 3678 2644 
Q 3494 2741 3494 3034 
L 3494 5209 
L 3934 5209 
L 3934 4153 
z
M 3934 1338 
Q 3947 1344 3984 1356 
Q 4816 1628 5472 2041 
L 5841 1684 
Q 4884 1203 3934 959 
L 3934 353 
Q 3934 131 4088 81 
Q 4203 38 4625 38 
Q 5228 38 5375 100 
Q 5556 188 5584 991 
L 6053 872 
Q 6025 203 5919 -44 
Q 5816 -281 5478 -341 
Q 5253 -384 4722 -384 
Q 3966 -384 3738 -294 
Q 3494 -197 3494 116 
L 3494 2338 
L 3934 2338 
L 3934 1338 
z
" transform="scale(0.015625)"/>
       </defs>
       <use xlink:href="#IPAexGothic-6a5f"/>
       <use xlink:href="#IPAexGothic-80fd" transform="translate(100 0)"/>
      </g>
     </g>
    </g>
    <g id="xtick_3">
     <g id="line2d_3">
      <path d="M 144.87 189.885 
L 36.405092 111.080631 
" clip-path="url(#p91b524e86a)" style="fill: none; stroke: #000000; stroke-opacity: 0.5; stroke-width: 0.5; stroke-linecap: square"/>
     </g>
     <g id="text_3">
      <!-- 安定性 -->
      <g transform="translate(10.078854 105.64695) scale(0.1 -0.1)">
       <defs>
        <path id="IPAexGothic-5b89" d="M 4728 2381 
Q 4484 1484 3969 872 
Q 5034 406 5778 31 
L 5394 -353 
Q 4466 163 3616 538 
Q 2703 -194 838 -403 
L 550 31 
Q 2269 166 3147 738 
Q 2625 963 1925 1216 
Q 1863 1119 1663 831 
L 1259 1050 
Q 1688 1653 2088 2381 
L 416 2381 
L 416 2784 
L 2284 2784 
Q 2559 3388 2713 3828 
L 3169 3706 
Q 2969 3178 2791 2784 
L 5984 2784 
L 5984 2381 
L 4728 2381 
z
M 4244 2381 
L 2597 2381 
Q 2459 2097 2206 1659 
L 2150 1563 
Q 2750 1359 3366 1113 
L 3525 1050 
Q 4019 1572 4244 2381 
z
M 3419 4428 
L 5753 4428 
L 5753 3159 
L 5278 3159 
L 5278 4025 
L 1116 4025 
L 1116 3159 
L 641 3159 
L 641 4428 
L 2931 4428 
L 2931 5313 
L 3419 5313 
L 3419 4428 
z
" transform="scale(0.015625)"/>
        <path id="IPAexGothic-5b9a" d="M 3431 303 
Q 3931 225 4709 225 
Q 5191 225 6053 263 
Q 5963 59 5888 -228 
Q 5234 -250 4844 -250 
Q 3569 -250 3003 -78 
Q 2259 153 1750 903 
Q 1441 163 806 -459 
L 475 -75 
Q 1416 759 1684 2419 
L 2125 2303 
Q 2031 1756 1909 1356 
Q 2338 678 2972 416 
L 2972 2944 
L 1434 2944 
L 1434 3353 
L 4959 3353 
L 4959 2944 
L 3431 2944 
L 3431 1984 
L 5397 1984 
L 5397 1569 
L 3431 1569 
L 3431 303 
z
M 3419 4428 
L 5750 4428 
L 5750 3166 
L 5275 3166 
L 5275 4025 
L 1122 4025 
L 1122 3166 
L 647 3166 
L 647 4428 
L 2938 4428 
L 2938 5313 
L 3419 5313 
L 3419 4428 
z
" transform="scale(0.015625)"/>
        <path id="IPAexGothic-6027" d="M 3106 3788 
L 3900 3788 
L 3900 5216 
L 4353 5216 
L 4353 3788 
L 5884 3788 
L 5884 3372 
L 4353 3372 
L 4353 2069 
L 5756 2069 
L 5756 1653 
L 4353 1653 
L 4353 153 
L 6081 153 
L 6081 -269 
L 2231 -269 
L 2231 153 
L 3900 153 
L 3900 1653 
L 2606 1653 
L 2606 2069 
L 3900 2069 
L 3900 3372 
L 2984 3372 
Q 2806 2803 2544 2325 
L 2147 2613 
Q 2638 3428 2875 4875 
L 3313 4778 
Q 3234 4309 3106 3788 
z
M 269 2188 
Q 459 2891 525 3950 
L 934 3884 
Q 884 2694 672 1931 
L 269 2188 
z
M 1997 3047 
Q 1872 3591 1650 4078 
L 1984 4256 
Q 2216 3844 2394 3291 
L 1997 3047 
z
M 1159 5313 
L 1613 5313 
L 1613 -447 
L 1159 -447 
L 1159 5313 
z
" transform="scale(0.015625)"/>
       </defs>
       <use xlink:href="#IPAexGothic-5b89"/>
       <use xlink:href="#IPAexGothic-5b9a" transform="translate(100 0)"/>
       <use xlink:href="#IPAexGothic-6027" transform="translate(200 0)"/>
      </g>
     </g>
    </g>
    <g id="xtick_4">
     <g id="line2d_4">
      <path d="M 144.87 189.885 
L 36.405092 268.689369 
" clip-path="url(#p91b524e86a)" style="fill: none; stroke: #000000; stroke-opacity: 0.5; stroke-width: 0.5; stroke-linecap: square"/>
     </g>
     <g id="text_4">
      <!-- 速度 -->
      <g transform="translate(15.078854 279.713675) scale(0.1 -0.1)">
       <defs>
        <path id="IPAexGothic-901f" d="M 3766 1809 
Q 3256 1066 2481 569 
L 2175 913 
Q 3125 1413 3644 2206 
L 2406 2206 
L 2406 3641 
L 3766 3641 
L 3766 4172 
L 2047 4172 
L 2047 4569 
L 3766 4569 
L 3766 5313 
L 4194 5313 
L 4194 4569 
L 5913 4569 
L 5913 4172 
L 4194 4172 
L 4194 3641 
L 5553 3641 
L 5553 2206 
L 4194 2206 
L 4194 2034 
L 4250 2009 
Q 4988 1653 5803 1125 
L 5497 753 
Q 4834 1244 4194 1638 
L 4194 350 
L 3766 350 
L 3766 1809 
z
M 3766 3269 
L 2822 3269 
L 2822 2578 
L 3766 2578 
L 3766 3269 
z
M 4194 3269 
L 4194 2578 
L 5138 2578 
L 5138 3269 
L 4194 3269 
z
M 1831 781 
Q 2084 456 2450 319 
Q 2903 147 4134 147 
Q 5069 147 6119 222 
Q 6000 9 5944 -263 
Q 5025 -294 4428 -294 
Q 2800 -294 2272 -63 
Q 1869 119 1600 491 
Q 1131 -53 666 -444 
L 372 44 
Q 881 344 1378 775 
L 1378 2303 
L 397 2303 
L 397 2731 
L 1831 2731 
L 1831 781 
z
M 1619 3622 
Q 1206 4169 619 4697 
L 959 4991 
Q 1488 4581 1972 3975 
L 1619 3622 
z
" transform="scale(0.015625)"/>
        <path id="IPAexGothic-5ea6" d="M 3516 4622 
L 5794 4622 
L 5794 4231 
L 1278 4231 
L 1278 3547 
L 2328 3547 
L 2328 4041 
L 2759 4041 
L 2759 3547 
L 4097 3547 
L 4097 4041 
L 4525 4041 
L 4525 3547 
L 5825 3547 
L 5825 3163 
L 4525 3163 
L 4525 2266 
L 2328 2266 
L 2328 3163 
L 1278 3163 
L 1278 2747 
Q 1278 1434 1131 775 
Q 1006 203 606 -441 
L 269 -50 
Q 653 541 763 1381 
Q 825 1869 825 2747 
L 825 4622 
L 3034 4622 
L 3034 5313 
L 3516 5313 
L 3516 4622 
z
M 2759 3163 
L 2759 2619 
L 4097 2619 
L 4097 3163 
L 2759 3163 
z
M 3609 263 
Q 2784 -231 1472 -494 
L 1222 -97 
Q 2444 63 3213 491 
Q 2544 909 2119 1522 
L 1575 1522 
L 1575 1900 
L 4897 1900 
L 5125 1700 
Q 4628 994 3994 516 
Q 4769 200 5925 56 
L 5638 -397 
Q 4434 -163 3609 263 
z
M 2606 1522 
Q 2984 1044 3578 716 
Q 4163 1119 4422 1522 
L 2606 1522 
z
" transform="scale(0.015625)"/>
       </defs>
       <use xlink:href="#IPAexGothic-901f"/>
       <use xlink:href="#IPAexGothic-5ea6" transform="translate(100 0)"/>
      </g>
     </g>
    </g>
    <g id="xtick_5">
     <g id="line2d_5">
      <path d="M 144.87 189.885 
L 186.299908 317.393147 
" clip-path="url(#p91b524e86a)" style="fill: none; stroke: #000000; stroke-opacity: 0.5; stroke-width: 0.5; stroke-linecap: square"/>
     </g>
     <g id="text_5">
      <!-- サポート -->
      <g transform="translate(170.626146 333.503251) scale(0.1 -0.1)">
       <defs>
        <path id="IPAexGothic-30b5" d="M 3994 4919 
L 4506 4919 
L 4506 3531 
L 5888 3531 
L 5888 3072 
L 4506 3072 
Q 4488 1719 4153 1063 
Q 3728 222 2644 -325 
L 2266 38 
Q 3325 525 3713 1319 
Q 3975 1853 3994 3072 
L 2331 3072 
L 2331 1575 
L 1819 1575 
L 1819 3072 
L 513 3072 
L 513 3531 
L 1819 3531 
L 1819 4797 
L 2331 4797 
L 2331 3531 
L 3994 3531 
L 3994 4919 
z
" transform="scale(0.015625)"/>
        <path id="IPAexGothic-30dd" d="M 5188 5453 
Q 5497 5453 5706 5219 
Q 5891 5016 5891 4747 
Q 5891 4434 5656 4222 
Q 5453 4038 5188 4038 
Q 4872 4038 4659 4272 
Q 4475 4475 4475 4747 
Q 4475 5059 4709 5269 
Q 4916 5453 5188 5453 
z
M 5188 5172 
Q 4997 5172 4866 5031 
Q 4756 4909 4756 4747 
Q 4756 4556 4897 4428 
Q 5022 4319 5188 4319 
Q 5372 4319 5500 4459 
Q 5609 4584 5609 4747 
Q 5609 4934 5469 5063 
Q 5347 5172 5188 5172 
z
M 2972 4978 
L 3478 4978 
L 3478 3794 
L 5584 3794 
L 5584 3341 
L 3478 3341 
L 3478 397 
Q 3478 -147 2844 -147 
Q 2428 -147 2019 -72 
L 1909 459 
Q 2300 359 2716 359 
Q 2972 359 2972 616 
L 2972 3341 
L 822 3341 
L 822 3794 
L 2972 3794 
L 2972 4978 
z
M 603 922 
Q 988 1294 1222 1694 
Q 1438 2063 1600 2572 
L 2050 2369 
Q 1859 1766 1588 1325 
Q 1372 975 1000 556 
L 603 922 
z
M 5313 709 
Q 4847 1700 4309 2388 
L 4719 2656 
Q 5269 2016 5775 1031 
L 5313 709 
z
" transform="scale(0.015625)"/>
        <path id="IPAexGothic-30fc" d="M 588 2688 
L 5809 2688 
L 5809 2175 
L 588 2175 
L 588 2688 
z
" transform="scale(0.015625)"/>
        <path id="IPAexGothic-30c8" d="M 2284 4997 
L 2803 4997 
L 2803 3206 
Q 4088 2619 5216 1888 
L 4878 1369 
Q 3819 2175 2803 2688 
L 2803 -184 
L 2284 -184 
L 2284 4997 
z
" transform="scale(0.015625)"/>
       </defs>
       <use xlink:href="#IPAexGothic-30b5"/>
       <use xlink:href="#IPAexGothic-30dd" transform="translate(100 0)"/>
       <use xlink:href="#IPAexGothic-30fc" transform="translate(200 0)"/>
       <use xlink:href="#IPAexGothic-30c8" transform="translate(300 0)"/>
      </g>
     </g>
    </g>
   </g>
   <g id="matplotlib.axis_2">
    <g id="ytick_1">
     <g id="line2d_6">
      <path d="M 225.312 189.885 
C 225.312 179.321453 223.231212 168.860624 219.188717 159.101179 
C 215.146223 149.341735 209.220639 140.473472 201.751084 133.003916 
C 194.281528 125.534361 185.413265 119.608777 175.653821 115.566283 
C 165.894376 111.523788 155.433547 109.443 144.87 109.443 
C 134.306453 109.443 123.845624 111.523788 114.086179 115.566283 
C 104.326735 119.608777 95.458472 125.534361 87.988916 133.003916 
C 80.519361 140.473472 74.593777 149.341735 70.551283 159.101179 
C 66.508788 168.860624 64.428 179.321453 64.428 189.885 
C 64.428 200.448547 66.508788 210.909376 70.551283 220.668821 
C 74.593777 230.428265 80.519361 239.296528 87.988916 246.766084 
C 95.458472 254.235639 104.326735 260.161223 114.086179 264.203717 
C 123.845624 268.246212 134.306453 270.327 144.87 270.327 
C 155.433547 270.327 165.894376 268.246212 175.653821 264.203717 
C 185.413265 260.161223 194.281528 254.235639 201.751084 246.766084 
C 209.220639 239.296528 215.146223 230.428265 219.188717 220.668821 
C 223.231212 210.909376 225.312 200.448547 225.312 189.885 
" clip-path="url(#p91b524e86a)" style="fill: none; stroke: #000000; stroke-opacity: 0.5; stroke-width: 0.5; stroke-linecap: square"/>
     </g>
     <g id="text_6">
      <!-- 3 -->
      <g transform="translate(219.188717 157.201179) scale(0.1 -0.1)">
       <defs>
        <path id="IPAexGothic-33" d="M 2381 2419 
Q 3506 2216 3506 1278 
Q 3506 716 3128 356 
Q 2709 -31 1944 -31 
Q 797 -31 288 881 
L 756 1131 
Q 1109 441 1938 441 
Q 2425 441 2694 691 
Q 2950 928 2950 1291 
Q 2950 1719 2566 1978 
Q 2216 2213 1644 2213 
L 1363 2213 
L 1363 2669 
L 1656 2669 
Q 2231 2669 2534 2888 
Q 2859 3119 2859 3509 
Q 2859 3934 2494 4138 
Q 2259 4278 1931 4278 
Q 1238 4278 903 3578 
L 434 3803 
Q 897 4725 1938 4725 
Q 2597 4725 3006 4394 
Q 3416 4069 3416 3534 
Q 3416 3028 3019 2706 
Q 2763 2500 2381 2444 
L 2381 2419 
z
" transform="scale(0.015625)"/>
       </defs>
       <use xlink:href="#IPAexGothic-33"/>
      </g>
     </g>
    </g>
    <g id="ytick_2">
     <g id="line2d_7">
      <path d="M 252.126 189.885 
C 252.126 175.800271 249.351616 161.852499 243.961623 148.839906 
C 238.571631 135.827313 230.670852 124.002962 220.711445 114.043555 
C 210.752038 104.084148 198.927687 96.183369 185.915094 90.793377 
C 172.902501 85.403384 158.954729 82.629 144.87 82.629 
C 130.785271 82.629 116.837499 85.403384 103.824906 90.793377 
C 90.812313 96.183369 78.987962 104.084148 69.028555 114.043555 
C 59.069148 124.002962 51.168369 135.827313 45.778377 148.839906 
C 40.388384 161.852499 37.614 175.800271 37.614 189.885 
C 37.614 203.969729 40.388384 217.917501 45.778377 230.930094 
C 51.168369 243.942687 59.069148 255.767038 69.028555 265.726445 
C 78.987962 275.685852 90.812313 283.586631 103.824906 288.976623 
C 116.837499 294.366616 130.785271 297.141 144.87 297.141 
C 158.954729 297.141 172.902501 294.366616 185.915094 288.976623 
C 198.927687 283.586631 210.752038 275.685852 220.711445 265.726445 
C 230.670852 255.767038 238.571631 243.942687 243.961623 230.930094 
C 249.351616 217.917501 252.126 203.969729 252.126 189.885 
" clip-path="url(#p91b524e86a)" style="fill: none; stroke: #000000; stroke-opacity: 0.5; stroke-width: 0.5; stroke-linecap: square"/>
     </g>
     <g id="text_7">
      <!-- 4 -->
      <g transform="translate(243.961623 146.939906) scale(0.1 -0.1)">
       <defs>
        <path id="IPAexGothic-34" d="M 3813 1159 
L 3059 1159 
L 3059 63 
L 2547 63 
L 2547 1159 
L 197 1159 
L 197 1672 
L 2456 4678 
L 3059 4678 
L 3059 1634 
L 3813 1634 
L 3813 1159 
z
M 2578 4109 
L 2559 4109 
Q 2278 3656 2003 3284 
L 759 1634 
L 2547 1634 
L 2547 3144 
Q 2547 3481 2578 4109 
z
" transform="scale(0.015625)"/>
       </defs>
       <use xlink:href="#IPAexGothic-34"/>
      </g>
     </g>
    </g>
    <g id="ytick_3">
     <g id="line2d_8">
      <path d="M 278.94 189.885 
C 278.94 172.279089 275.472019 154.844373 268.734529 138.578632 
C 261.997038 122.312891 252.121065 107.532453 239.671806 95.083194 
C 227.222547 82.633935 212.442109 72.757962 196.176368 66.020471 
C 179.910627 59.282981 162.475911 55.815 144.87 55.815 
C 127.264089 55.815 109.829373 59.282981 93.563632 66.020471 
C 77.297891 72.757962 62.517453 82.633935 50.068194 95.083194 
C 37.618935 107.532453 27.742962 122.312891 21.005471 138.578632 
C 14.267981 154.844373 10.8 172.279089 10.8 189.885 
C 10.8 207.490911 14.267981 224.925627 21.005471 241.191368 
C 27.742962 257.457109 37.618935 272.237547 50.068194 284.686806 
C 62.517453 297.136065 77.297891 307.012038 93.563632 313.749529 
C 109.829373 320.487019 127.264089 323.955 144.87 323.955 
C 162.475911 323.955 179.910627 320.487019 196.176368 313.749529 
C 212.442109 307.012038 227.222547 297.136065 239.671806 284.686806 
C 252.121065 272.237547 261.997038 257.457109 268.734529 241.191368 
C 275.472019 224.925627 278.94 207.490911 278.94 189.885 
" clip-path="url(#p91b524e86a)" style="fill: none; stroke: #000000; stroke-opacity: 0.5; stroke-width: 0.5; stroke-linecap: square"/>
     </g>
     <g id="text_8">
      <!-- 5 -->
      <g transform="translate(268.734529 136.678632) scale(0.1 -0.1)">
       <defs>
        <path id="IPAexGothic-35" d="M 1178 2603 
Q 1634 2963 2172 2963 
Q 2816 2963 3241 2528 
Q 3638 2113 3638 1497 
Q 3638 938 3297 513 
Q 2869 -31 2031 -31 
Q 959 -31 469 784 
L 938 1028 
Q 1309 434 2013 434 
Q 2466 434 2769 716 
Q 3081 1013 3081 1503 
Q 3081 1966 2806 2241 
Q 2519 2528 2056 2528 
Q 1406 2528 1072 2028 
L 591 2091 
L 884 4634 
L 3406 4634 
L 3406 4153 
L 1341 4153 
L 1134 2603 
L 1178 2603 
z
" transform="scale(0.015625)"/>
       </defs>
       <use xlink:href="#IPAexGothic-35"/>
      </g>
     </g>
    </g>
   </g>
   <g id="line2d_9">
    <path d="M 257.4888 189.885 
L 182.156918 75.127668 
L 58.098073 126.841505 
L 60.267371 251.352408 
L 181.328319 302.092169 
L 257.4888 189.885 
" clip-path="url(#p91b524e86a)" style="fill: none; stroke: #2563eb; stroke-width: 2; stroke-linecap: square"/>
   </g>
   <g id="line2d_10">
    <path d="M 246.7632 189.885 
L 178.842525 85.328319 
L 51.590179 122.113243 
L 47.251582 260.808932 
L 175.528132 284.241029 
L 246.7632 189.885 
" clip-path="url(#p91b524e86a)" style="fill: none; stroke: #f97316; stroke-width: 2; stroke-linecap: square"/>
   </g>
   <g id="patch_5">
    <path d="M 278.94 189.885 
C 278.94 172.279089 275.472019 154.844373 268.734529 138.578632 
C 261.997038 122.312891 252.121065 107.532453 239.671806 95.083194 
C 227.222547 82.633935 212.442109 72.757962 196.176368 66.020471 
C 179.910627 59.282981 162.475911 55.815 144.87 55.815 
C 127.264089 55.815 109.829373 59.282981 93.563632 66.020471 
C 77.297891 72.757962 62.517453 82.633935 50.068194 95.083194 
C 37.618935 107.532453 27.742962 122.312891 21.005471 138.578632 
C 14.267981 154.844373 10.8 172.279089 10.8 189.885 
C 10.8 207.490911 14.267981 224.925627 21.005471 241.191368 
C 27.742962 257.457109 37.618935 272.237547 50.068194 284.686806 
C 62.517453 297.136065 77.297891 307.012038 93.563632 313.749529 
C 109.829373 320.487019 127.264089 323.955 144.87 323.955 
C 162.475911 323.955 179.910627 320.487019 196.176368 313.749529 
C 212.442109 307.012038 227.222547 297.136065 239.671806 284.686806 
C 252.121065 272.237547 261.997038 257.457109 268.734529 241.191368 
C 275.472019 224.925627 278.94 207.490911 278.94 189.885 
" style="fill: none; stroke: #000000; stroke-width: 0.8; stroke-linejoin: miter; stroke-linecap: square"/>
   </g>
   <g id="text_9">
    <!-- KPI 比較レーダーチャート -->
    <g transform="translate(42.69255 38.366749) scale(0.1728 -0.1728)">
     <defs>
      <path id="IPAexGothic-4b" d="M 4141 63 
L 3413 63 
L 1678 2347 
L 1172 1856 
L 1172 63 
L 609 63 
L 609 4634 
L 1172 4634 
L 1172 2450 
L 3200 4634 
L 3956 4634 
L 2041 2694 
L 4141 63 
z
" transform="scale(0.015625)"/>
      <path id="IPAexGothic-50" d="M 609 4634 
L 1941 4634 
Q 3688 4634 3688 3322 
Q 3688 1934 1906 1934 
L 1172 1934 
L 1172 63 
L 609 63 
L 609 4634 
z
M 1172 2381 
L 1800 2381 
Q 3100 2381 3100 3316 
Q 3100 4181 1894 4181 
L 1172 4181 
L 1172 2381 
z
" transform="scale(0.015625)"/>
      <path id="IPAexGothic-49" d="M 1203 63 
L 634 63 
L 634 4634 
L 1203 4634 
L 1203 63 
z
" transform="scale(0.015625)"/>
      <path id="IPAexGothic-20" transform="scale(0.015625)"/>
      <path id="IPAexGothic-6bd4" d="M 1525 3250 
L 3003 3250 
L 3003 2822 
L 1525 2822 
L 1525 472 
Q 2469 747 3016 934 
L 3041 531 
Q 1813 59 459 -300 
L 294 159 
Q 694 250 1056 344 
L 1056 5081 
L 1525 5081 
L 1525 3250 
z
M 3794 3028 
Q 4691 3472 5341 4038 
L 5744 3706 
Q 4778 2969 3794 2572 
L 3794 556 
Q 3794 353 3978 313 
Q 4106 288 4472 288 
Q 5169 288 5328 378 
Q 5491 463 5522 1516 
L 5994 1356 
Q 5966 238 5772 34 
Q 5566 -172 4491 -172 
Q 3809 -172 3588 -75 
Q 3334 28 3334 397 
L 3334 5113 
L 3794 5113 
L 3794 3028 
z
" transform="scale(0.015625)"/>
      <path id="IPAexGothic-8f03" d="M 1413 3688 
L 1413 4153 
L 384 4153 
L 384 4538 
L 1413 4538 
L 1413 5313 
L 1816 5313 
L 1816 4538 
L 2875 4538 
L 2875 4153 
L 1816 4153 
L 1816 3688 
L 2734 3688 
L 2734 1516 
L 1816 1516 
L 1816 1013 
L 2931 1013 
L 2931 628 
L 1816 628 
L 1816 -447 
L 1413 -447 
L 1413 628 
L 294 628 
L 294 1013 
L 1413 1013 
L 1413 1516 
L 531 1516 
L 531 3688 
L 1413 3688 
z
M 1425 3353 
L 903 3353 
L 903 2778 
L 1425 2778 
L 1425 3353 
z
M 1803 3353 
L 1803 2778 
L 2363 2778 
L 2363 3353 
L 1803 3353 
z
M 1425 2456 
L 903 2456 
L 903 1856 
L 1425 1856 
L 1425 2456 
z
M 1803 2456 
L 1803 1856 
L 2363 1856 
L 2363 2456 
L 1803 2456 
z
M 4241 1013 
Q 3791 1606 3550 2338 
L 3916 2509 
Q 4091 1900 4478 1363 
Q 4825 1941 4978 2638 
L 5375 2491 
Q 5194 1719 4747 1031 
Q 5294 444 6144 44 
L 5859 -378 
Q 5069 50 4497 691 
Q 3853 -78 3050 -481 
L 2750 -128 
Q 3644 259 4241 1013 
z
M 4647 4263 
L 6059 4263 
L 6059 3853 
L 2963 3853 
L 2963 4263 
L 4206 4263 
L 4206 5313 
L 4647 5313 
L 4647 4263 
z
M 2847 2297 
Q 3406 2859 3738 3700 
L 4119 3541 
Q 3769 2644 3153 1991 
L 2847 2297 
z
M 5759 2106 
Q 5334 2863 4734 3541 
L 5075 3731 
Q 5731 3044 6097 2419 
L 5759 2106 
z
" transform="scale(0.015625)"/>
      <path id="IPAexGothic-30ec" d="M 1538 4706 
L 2075 4706 
L 2075 622 
Q 4059 1375 5172 2894 
L 5481 2431 
Q 4922 1678 3931 1019 
Q 2919 334 1928 -31 
L 1538 269 
L 1538 4706 
z
" transform="scale(0.015625)"/>
      <path id="IPAexGothic-30c0" d="M 4806 4219 
L 5141 3944 
Q 4625 2388 3884 1416 
Q 3019 281 1650 -344 
L 1294 66 
Q 1959 338 2441 694 
Q 2881 1022 3359 1556 
Q 2747 2181 1972 2747 
Q 1431 2159 1000 1831 
L 653 2191 
Q 2144 3284 2694 4988 
L 3188 4853 
Q 3153 4731 2938 4219 
L 4806 4219 
z
M 2722 3772 
Q 2538 3478 2266 3125 
Q 3022 2572 3669 1959 
Q 4194 2763 4575 3772 
L 2722 3772 
z
M 6009 4469 
Q 5647 5009 5256 5338 
L 5556 5569 
Q 5941 5259 6331 4744 
L 6009 4469 
z
M 5397 4031 
Q 5106 4522 4659 4922 
L 4972 5166 
Q 5344 4856 5728 4306 
L 5397 4031 
z
" transform="scale(0.015625)"/>
      <path id="IPAexGothic-30c1" d="M 3088 2853 
L 3088 3981 
Q 2359 3847 1531 3797 
L 1288 4238 
Q 3200 4344 4553 4872 
L 4909 4456 
Q 4244 4216 3606 4078 
L 3606 2913 
L 5806 2913 
L 5806 2459 
L 3600 2459 
Q 3559 1422 3188 850 
Q 2722 138 1738 -256 
L 1347 153 
Q 2319 500 2709 1081 
Q 3031 1563 3081 2400 
L 597 2400 
L 597 2853 
L 3088 2853 
z
" transform="scale(0.015625)"/>
      <path id="IPAexGothic-30e3" d="M 2559 3903 
L 2803 2816 
L 4863 3169 
L 5191 2894 
Q 4672 1875 4103 1203 
L 3666 1447 
Q 4175 2013 4525 2688 
L 2900 2388 
L 3450 -116 
L 2969 -231 
L 2419 2297 
L 1172 2069 
L 1075 2516 
L 2328 2731 
L 2094 3809 
L 2559 3903 
z
" transform="scale(0.015625)"/>
     </defs>
     <use xlink:href="#IPAexGothic-4b"/>
     <use xlink:href="#IPAexGothic-50" transform="translate(64.599609 0)"/>
     <use xlink:href="#IPAexGothic-49" transform="translate(126.708984 0)"/>
     <use xlink:href="#IPAexGothic-20" transform="translate(155.615234 0)"/>
     <use xlink:href="#IPAexGothic-6bd4" transform="translate(182.617188 0)"/>
     <use xlink:href="#IPAexGothic-8f03" transform="translate(282.617188 0)"/>
     <use xlink:href="#IPAexGothic-30ec" transform="translate(382.617188 0)"/>
     <use xlink:href="#IPAexGothic-30fc" transform="translate(482.617188 0)"/>
     <use xlink:href="#IPAexGothic-30c0" transform="translate(582.617188 0)"/>
     <use xlink:href="#IPAexGothic-30fc" transform="translate(682.617188 0)"/>
     <use xlink:href="#IPAexGothic-30c1" transform="translate(782.617188 0)"/>
     <use xlink:href="#IPAexGothic-30e3" transform="translate(882.617188 0)"/>
     <use xlink:href="#IPAexGothic-30fc" transform="translate(982.617188 0)"/>
     <use xlink:href="#IPAexGothic-30c8" transform="translate(1082.617188 0)"/>
    </g>
   </g>
   <g id="legend_1">
    <g id="patch_6">
     <path d="M 238.671375 83.9385 
L 344.982 83.9385 
Q 347.382 83.9385 347.382 81.5385 
L 347.382 43.401 
Q 347.382 41.001 344.982 41.001 
L 238.671375 41.001 
Q 236.271375 41.001 236.271375 43.401 
L 236.271375 81.5385 
Q 236.271375 83.9385 238.671375 83.9385 
z
" style="fill: #ffffff; opacity: 0.8; stroke: #cccccc; stroke-linejoin: miter"/>
    </g>
    <g id="line2d_11">
     <path d="M 241.071375 50.58975 
L 253.071375 50.58975 
L 265.071375 50.58975 
" style="fill: none; stroke: #2563eb; stroke-width: 2; stroke-linecap: square"/>
    </g>
    <g id="text_10">
     <!-- プロダクトA -->
     <g transform="translate(274.671375 54.78975) scale(0.12 -0.12)">
      <defs>
       <path id="IPAexGothic-30d7" d="M 4825 4275 
L 5125 4000 
Q 4884 2378 4081 1381 
Q 3294 413 1888 -116 
L 1522 331 
Q 4069 1113 4550 3803 
L 966 3738 
L 966 4225 
L 4825 4275 
z
M 5597 5509 
Q 5906 5509 6119 5275 
Q 6303 5075 6303 4806 
Q 6303 4494 6069 4281 
Q 5866 4097 5597 4097 
Q 5284 4097 5072 4331 
Q 4888 4534 4888 4806 
Q 4888 5116 5122 5328 
Q 5328 5509 5597 5509 
z
M 5597 5228 
Q 5409 5228 5278 5088 
Q 5169 4966 5169 4806 
Q 5169 4616 5309 4488 
Q 5434 4378 5597 4378 
Q 5784 4378 5913 4519 
Q 6022 4641 6022 4806 
Q 6022 4991 5881 5119 
Q 5759 5228 5597 5228 
z
" transform="scale(0.015625)"/>
       <path id="IPAexGothic-30ed" d="M 1147 4269 
L 5250 4269 
L 5250 172 
L 4725 172 
L 4725 569 
L 1672 569 
L 1672 172 
L 1147 172 
L 1147 4269 
z
M 1672 3781 
L 1672 1063 
L 4725 1063 
L 4725 3781 
L 1672 3781 
z
" transform="scale(0.015625)"/>
       <path id="IPAexGothic-30af" d="M 4934 4191 
L 5272 3941 
Q 4894 2334 4031 1300 
Q 3275 391 2028 -225 
L 1656 184 
Q 2875 691 3641 1625 
Q 4403 2553 4691 3731 
L 2903 3731 
Q 2188 2653 1356 1959 
L 978 2309 
Q 2328 3400 2931 5022 
L 3422 4881 
Q 3363 4672 3141 4191 
L 4934 4191 
z
" transform="scale(0.015625)"/>
       <path id="IPAexGothic-41" d="M 4056 63 
L 3444 63 
L 2938 1409 
L 1100 1409 
L 603 63 
L -6 63 
L 1806 4666 
L 2259 4666 
L 4056 63 
z
M 2778 1863 
L 2316 3078 
Q 2125 3588 2028 4000 
L 2009 4000 
Q 1897 3563 1716 3078 
L 1263 1863 
L 2778 1863 
z
" transform="scale(0.015625)"/>
      </defs>
      <use xlink:href="#IPAexGothic-30d7"/>
      <use xlink:href="#IPAexGothic-30ed" transform="translate(100 0)"/>
      <use xlink:href="#IPAexGothic-30c0" transform="translate(200 0)"/>
      <use xlink:href="#IPAexGothic-30af" transform="translate(300 0)"/>
      <use xlink:href="#IPAexGothic-30c8" transform="translate(400 0)"/>
      <use xlink:href="#IPAexGothic-41" transform="translate(500 0)"/>
     </g>
    </g>
    <g id="line2d_12">
     <path d="M 241.071375 72.6585 
L 253.071375 72.6585 
L 265.071375 72.6585 
" style="fill: none; stroke: #f97316; stroke-width: 2; stroke-linecap: square"/>
    </g>
    <g id="text_11">
     <!-- プロダクトB -->
     <g transform="translate(274.671375 76.8585) scale(0.12 -0.12)">
      <defs>
       <path id="IPAexGothic-42" d="M 2688 2425 
Q 3816 2225 3816 1338 
Q 3816 556 3041 222 
Q 2672 63 2094 63 
L 609 63 
L 609 4634 
L 1916 4634 
Q 2494 4634 2869 4500 
Q 3644 4222 3644 3491 
Q 3644 2609 2688 2447 
L 2688 2425 
z
M 1159 2656 
L 1844 2656 
Q 3063 2656 3063 3431 
Q 3063 4181 1881 4181 
L 1159 4181 
L 1159 2656 
z
M 1159 522 
L 2016 522 
Q 3222 522 3222 1369 
Q 3222 1897 2625 2100 
Q 2278 2222 1875 2222 
L 1159 2222 
L 1159 522 
z
" transform="scale(0.015625)"/>
      </defs>
      <use xlink:href="#IPAexGothic-30d7"/>
      <use xlink:href="#IPAexGothic-30ed" transform="translate(100 0)"/>
      <use xlink:href="#IPAexGothic-30c0" transform="translate(200 0)"/>
      <use xlink:href="#IPAexGothic-30af" transform="translate(300 0)"/>
      <use xlink:href="#IPAexGothic-30c8" transform="translate(400 0)"/>
      <use xlink:href="#IPAexGothic-42" transform="translate(500 0)"/>
     </g>
    </g>
   </g>
  </g>
 </g>
 <defs>
  <clipPath id="p91b524e86a">
   <path d="M 278.94 189.885 
C 278.94 172.279089 275.472019 154.844373 268.734529 138.578632 
C 261.997038 122.312891 252.121065 107.532453 239.671806 95.083194 
C 227.222547 82.633935 212.442109 72.757962 196.176368 66.020471 
C 179.910627 59.282981 162.475911 55.815 144.87 55.815 
C 127.264089 55.815 109.829373 59.282981 93.563632 66.020471 
C 77.297891 72.757962 62.517453 82.633935 50.068194 95.083194 
C 37.618935 107.532453 27.742962 122.312891 21.005471 138.578632 
C 14.267981 154.844373 10.8 172.279089 10.8 189.885 
C 10.8 207.490911 14.267981 224.925627 21.005471 241.191368 
C 27.742962 257.457109 37.618935 272.237547 50.068194 284.686806 
C 62.517453 297.136065 77.297891 307.012038 93.563632 313.749529 
C 109.829373 320.487019 127.264089 323.955 144.87 323.955 
C 162.475911 323.955 179.910627 320.487019 196.176368 313.749529 
C 212.442109 307.012038 227.222547 297.136065 239.671806 284.686806 
C 252.121065 272.237547 261.997038 257.457109 268.734529 241.191368 
C 275.472019 224.925627 278.94 207.490911 278.94 189.885 
M 144.87 189.885 
C 144.87 189.885 144.87 189.885 144.87 189.885 
C 144.87 189.885 144.87 189.885 144.87 189.885 
C 144.87 189.885 144.87 189.885 144.87 189.885 
C 144.87 189.885 144.87 189.885 144.87 189.885 
C 144.87 189.885 144.87 189.885 144.87 189.885 
C 144.87 189.885 144.87 189.885 144.87 189.885 
C 144.87 189.885 144.87 189.885 144.87 189.885 
C 144.87 189.885 144.87 189.885 144.87 189.885 
C 144.87 189.885 144.87 189.885 144.87 189.885 
C 144.87 189.885 144.87 189.885 144.87 189.885 
C 144.87 189.885 144.87 189.885 144.87 189.885 
C 144.87 189.885 144.87 189.885 144.87 189.885 
C 144.87 189.885 144.87 189.885 144.87 189.885 
C 144.87 189.885 144.87 189.885 144.87 189.885 
C 144.87 189.885 144.87 189.885 144.87 189.885 
C 144.87 189.885 144.87 189.885 144.87 189.885 
z
"/>
  </clipPath>
 </defs>
</svg>
