<?xml version="1.0" encoding="utf-8" standalone="no"?>
<!DOCTYPE svg PUBLIC "-//W3C//DTD SVG 1.1//EN"
  "http://www.w3.org/Graphics/SVG/1.1/DTD/svg11.dtd">
<svg xmlns:xlink="http://www.w3.org/1999/xlink" width="460.8pt" height="288pt" viewBox="0 0 460.8 288" xmlns="http://www.w3.org/2000/svg" version="1.1">
 <metadata>
  <rdf:RDF xmlns:dc="http://purl.org/dc/elements/1.1/" xmlns:cc="http://creativecommons.org/ns#" xmlns:rdf="http://www.w3.org/1999/02/22-rdf-syntax-ns#">
   <cc:Work>
    <dc:type rdf:resource="http://purl.org/dc/dcmitype/StillImage"/>
    <dc:date>2025-10-29T09:07:44.524304</dc:date>
    <dc:format>image/svg+xml</dc:format>
    <dc:creator>
     <cc:Agent>
      <dc:title>Matplotlib v3.10.7, https://matplotlib.org/</dc:title>
     </cc:Agent>
    </dc:creator>
   </cc:Work>
  </rdf:RDF>
 </metadata>
 <defs>
  <style type="text/css">*{stroke-linejoin: round; stroke-linecap: butt}</style>
 </defs>
 <g id="figure_1">
  <g id="patch_1">
   <path d="M 0 288 
L 460.8 288 
L 460.8 0 
L 0 0 
z
" style="fill: #ffffff"/>
  </g>
  <g id="axes_1">
   <g id="patch_2">
    <path d="M 43.45 260.84 
L 443.700301 260.84 
L 443.700301 30.48 
L 43.45 30.48 
z
" style="fill: #ffffff"/>
   </g>
   <g id="patch_3">
    <path d="M 201.911713 76.770496 
L 201.916125 76.770496 
C 201.919434 76.770496 201.92164 76.770496 201.924949 76.770496 
L 201.929361 76.770496 
L 201.991127 76.770496 
C 201.995806 76.770496 202.000298 76.768635 202.003606 76.765327 
C 202.006914 76.762019 202.008775 76.757527 202.008775 76.752848 
L 202.008775 76.646963 
L 202.003481 76.646963 
L 239.068677 45.54557 
L 276.133874 76.646963 
L 276.12858 76.646963 
L 276.12858 76.752848 
C 276.12858 96.407782 268.31236 115.277807 254.414223 129.175944 
C 240.516086 143.074081 221.646061 150.890301 201.991127 150.890301 
L 255.092673 150.890301 
C 268.197522 150.890301 280.779036 156.101735 290.045563 165.368262 
C 299.312091 174.634789 304.523524 187.216303 304.523524 200.321152 
L 304.523524 200.40939 
L 304.528819 200.40939 
L 279.816923 221.145133 
L 255.105027 200.40939 
L 255.110321 200.40939 
L 255.110321 200.321152 
C 255.110321 200.316473 255.10846 200.311981 255.105152 200.308673 
C 255.101844 200.305365 255.097352 200.303504 255.092673 200.303504 
L 255.030907 200.303504 
L 219.718114 200.303504 
C 229.080057 200.303504 238.068136 204.026488 244.688029 210.646382 
C 251.307923 217.266275 255.030907 226.254354 255.030907 235.616297 
L 255.030907 235.686887 
L 255.036201 235.686887 
L 237.383334 250.499402 
L 219.730467 235.686887 
L 219.735762 235.686887 
L 219.735762 235.616297 
C 219.735762 235.611619 219.733901 235.607127 219.730593 235.603818 
C 219.727284 235.60051 219.722793 235.59865 219.718114 235.59865 
L 219.656348 235.59865 
L 201.991127 235.59865 
C 206.674438 235.59865 211.170723 237.461072 214.482324 240.772673 
C 217.793925 244.084274 219.656348 248.580559 219.656348 253.26387 
L 219.656348 253.33446 
L 219.661642 253.33446 
L 210.832561 260.742938 
L 202.003481 253.33446 
L 202.008775 253.33446 
L 202.008775 253.26387 
C 202.008775 253.259191 202.006914 253.254699 202.003606 253.251391 
C 202.000298 253.248083 201.995806 253.246222 201.991127 253.246222 
L 201.929361 253.246222 
L 201.929361 253.246222 
L 201.924949 253.246222 
C 201.92164 253.246222 201.919434 253.246222 201.916125 253.246222 
L 201.911713 253.246222 
L 201.823475 253.246222 
L 275.863834 165.008359 
L 201.823475 76.770496 
L 201.902889 76.770496 
L 201.911713 76.770496 
z
" clip-path="url(#pa0947f1ccf)" style="fill: #264653; stroke: #000000; stroke-linejoin: miter"/>
   </g>
   <g id="patch_4">
    <path d="M 202.008775 76.536635 
L 202.008775 76.532223 
C 202.008775 76.528914 202.008775 76.526708 202.008775 76.523399 
L 202.008775 76.518987 
L 202.008775 76.457221 
C 202.008775 76.452542 202.006914 76.448051 202.003606 76.444742 
C 202.000298 76.441434 201.995806 76.439573 201.991127 76.439573 
L 201.902889 76.439573 
L 201.902889 76.444868 
L 182.647954 53.497729 
L 201.902889 30.55059 
L 201.902889 30.555885 
L 201.991127 30.555885 
C 214.16025 30.555885 225.843405 35.395206 234.448274 44.000075 
C 243.053143 52.604944 247.892464 64.288099 247.892464 76.457221 
L 247.892464 65.789263 
C 247.892464 61.105952 249.754886 56.609667 253.066487 53.298066 
C 256.378088 49.986465 260.874373 48.124043 265.557684 48.124043 
L 265.610627 48.124043 
L 265.610627 48.118749 
L 273.019105 56.947829 
L 265.610627 65.77691 
L 265.610627 65.771616 
L 265.557684 65.771616 
C 265.553005 65.771616 265.548514 65.773476 265.545205 65.776785 
C 265.541897 65.780093 265.540036 65.784585 265.540036 65.789263 
L 265.540036 65.85103 
L 265.540036 76.457221 
C 265.540036 73.645363 266.658234 70.945795 268.646518 68.957511 
C 270.634802 66.969227 273.33437 65.85103 276.146228 65.85103 
L 276.19917 65.85103 
L 276.19917 65.845736 
L 280.646034 71.145302 
L 276.19917 76.444868 
L 276.19917 76.439573 
L 276.146228 76.439573 
C 276.141549 76.439573 276.137057 76.441434 276.133749 76.444742 
C 276.130441 76.448051 276.12858 76.452542 276.12858 76.457221 
L 276.12858 76.518987 
L 276.12858 76.518987 
L 276.12858 76.523399 
C 276.12858 76.526708 276.12858 76.528914 276.12858 76.532223 
L 276.12858 76.536635 
L 276.12858 76.64252 
L 239.068677 45.54557 
L 202.008775 76.64252 
L 202.008775 76.563106 
L 202.008775 76.536635 
z
" clip-path="url(#pa0947f1ccf)" style="fill: #2a9d8f; stroke: #000000; stroke-linejoin: miter"/>
   </g>
   <g id="matplotlib.axis_1">
    <g id="xtick_1">
     <g id="line2d_1">
      <defs>
       <path id="m84d78111c0" d="M 0 0 
L 0 3.5 
" style="stroke: #000000; stroke-width: 0.8"/>
      </defs>
      <g>
       <use xlink:href="#m84d78111c0" x="113.682674" y="260.84" style="stroke: #000000; stroke-width: 0.8"/>
      </g>
     </g>
     <g id="text_1">
      <!-- −500 -->
      <g transform="translate(100.843611 275.330625) scale(0.1 -0.1)">
       <defs>
        <path id="IPAexGothic-2212" d="M 416 2222 
L 3922 2222 
L 3922 1856 
L 416 1856 
L 416 2222 
z
" transform="scale(0.015625)"/>
        <path id="IPAexGothic-35" d="M 1178 2603 
Q 1634 2963 2172 2963 
Q 2816 2963 3241 2528 
Q 3638 2113 3638 1497 
Q 3638 938 3297 513 
Q 2869 -31 2031 -31 
Q 959 -31 469 784 
L 938 1028 
Q 1309 434 2013 434 
Q 2466 434 2769 716 
Q 3081 1013 3081 1503 
Q 3081 1966 2806 2241 
Q 2519 2528 2056 2528 
Q 1406 2528 1072 2028 
L 591 2091 
L 884 4634 
L 3406 4634 
L 3406 4153 
L 1341 4153 
L 1134 2603 
L 1178 2603 
z
" transform="scale(0.015625)"/>
        <path id="IPAexGothic-30" d="M 2038 4725 
Q 2881 4725 3334 3944 
Q 3694 3325 3694 2344 
Q 3694 1372 3334 741 
Q 2888 -31 2016 -31 
Q 1147 -31 700 741 
Q 341 1372 341 2350 
Q 341 3713 1000 4334 
Q 1419 4725 2038 4725 
z
M 2016 4266 
Q 1516 4266 1228 3759 
Q 934 3247 934 2344 
Q 934 1456 1222 947 
Q 1513 447 2016 447 
Q 2619 447 2909 1153 
Q 3100 1622 3100 2375 
Q 3100 3256 2806 3759 
Q 2509 4266 2016 4266 
z
" transform="scale(0.015625)"/>
       </defs>
       <use xlink:href="#IPAexGothic-2212"/>
       <use xlink:href="#IPAexGothic-35" transform="translate(67.822266 0)"/>
       <use xlink:href="#IPAexGothic-30" transform="translate(130.810547 0)"/>
       <use xlink:href="#IPAexGothic-30" transform="translate(193.798828 0)"/>
      </g>
     </g>
    </g>
    <g id="xtick_2">
     <g id="line2d_2">
      <g>
       <use xlink:href="#m84d78111c0" x="201.920537" y="260.84" style="stroke: #000000; stroke-width: 0.8"/>
      </g>
     </g>
     <g id="text_2">
      <!-- 0 -->
      <g transform="translate(198.771318 275.330625) scale(0.1 -0.1)">
       <use xlink:href="#IPAexGothic-30"/>
      </g>
     </g>
    </g>
    <g id="xtick_3">
     <g id="line2d_3">
      <g>
       <use xlink:href="#m84d78111c0" x="290.1584" y="260.84" style="stroke: #000000; stroke-width: 0.8"/>
      </g>
     </g>
     <g id="text_3">
      <!-- 500 -->
      <g transform="translate(280.710744 275.330625) scale(0.1 -0.1)">
       <use xlink:href="#IPAexGothic-35"/>
       <use xlink:href="#IPAexGothic-30" transform="translate(62.988281 0)"/>
       <use xlink:href="#IPAexGothic-30" transform="translate(125.976562 0)"/>
      </g>
     </g>
    </g>
    <g id="xtick_4">
     <g id="line2d_4">
      <g>
       <use xlink:href="#m84d78111c0" x="378.396263" y="260.84" style="stroke: #000000; stroke-width: 0.8"/>
      </g>
     </g>
     <g id="text_4">
      <!-- 1000 -->
      <g transform="translate(365.799388 275.330625) scale(0.1 -0.1)">
       <defs>
        <path id="IPAexGothic-31" d="M 2463 63 
L 1900 63 
L 1900 4103 
Q 1372 3922 788 3797 
L 684 4231 
Q 1519 4441 2106 4731 
L 2463 4731 
L 2463 63 
z
" transform="scale(0.015625)"/>
       </defs>
       <use xlink:href="#IPAexGothic-31"/>
       <use xlink:href="#IPAexGothic-30" transform="translate(62.988281 0)"/>
       <use xlink:href="#IPAexGothic-30" transform="translate(125.976562 0)"/>
       <use xlink:href="#IPAexGothic-30" transform="translate(188.964844 0)"/>
      </g>
     </g>
    </g>
   </g>
   <g id="matplotlib.axis_2">
    <g id="ytick_1">
     <g id="line2d_5">
      <defs>
       <path id="mdaba7570af" d="M 0 0 
L -3.5 0 
" style="stroke: #000000; stroke-width: 0.8"/>
      </defs>
      <g>
       <use xlink:href="#mdaba7570af" x="43.45" y="235.59865" style="stroke: #000000; stroke-width: 0.8"/>
      </g>
     </g>
     <g id="text_5">
      <!-- −400 -->
      <g transform="translate(10.771875 239.343962) scale(0.1 -0.1)">
       <defs>
        <path id="IPAexGothic-34" d="M 3813 1159 
L 3059 1159 
L 3059 63 
L 2547 63 
L 2547 1159 
L 197 1159 
L 197 1672 
L 2456 4678 
L 3059 4678 
L 3059 1634 
L 3813 1634 
L 3813 1159 
z
M 2578 4109 
L 2559 4109 
Q 2278 3656 2003 3284 
L 759 1634 
L 2547 1634 
L 2547 3144 
Q 2547 3481 2578 4109 
z
" transform="scale(0.015625)"/>
       </defs>
       <use xlink:href="#IPAexGothic-2212"/>
       <use xlink:href="#IPAexGothic-34" transform="translate(67.822266 0)"/>
       <use xlink:href="#IPAexGothic-30" transform="translate(130.810547 0)"/>
       <use xlink:href="#IPAexGothic-30" transform="translate(193.798828 0)"/>
      </g>
     </g>
    </g>
    <g id="ytick_2">
     <g id="line2d_6">
      <g>
       <use xlink:href="#mdaba7570af" x="43.45" y="200.303504" style="stroke: #000000; stroke-width: 0.8"/>
      </g>
     </g>
     <g id="text_6">
      <!-- −200 -->
      <g transform="translate(10.771875 204.048817) scale(0.1 -0.1)">
       <defs>
        <path id="IPAexGothic-32" d="M 3659 63 
L 447 63 
L 447 594 
Q 825 1475 1894 2203 
L 2072 2322 
Q 2619 2697 2791 2906 
Q 2988 3153 2988 3444 
Q 2988 3772 2756 4003 
Q 2500 4259 2084 4259 
Q 1250 4259 991 3328 
L 497 3506 
Q 853 4725 2116 4725 
Q 2806 4725 3216 4316 
Q 3575 3947 3575 3425 
Q 3575 3038 3344 2722 
Q 3131 2416 2366 1938 
L 2231 1856 
Q 1256 1253 978 569 
L 3659 569 
L 3659 63 
z
" transform="scale(0.015625)"/>
       </defs>
       <use xlink:href="#IPAexGothic-2212"/>
       <use xlink:href="#IPAexGothic-32" transform="translate(67.822266 0)"/>
       <use xlink:href="#IPAexGothic-30" transform="translate(130.810547 0)"/>
       <use xlink:href="#IPAexGothic-30" transform="translate(193.798828 0)"/>
      </g>
     </g>
    </g>
    <g id="ytick_3">
     <g id="line2d_7">
      <g>
       <use xlink:href="#mdaba7570af" x="43.45" y="165.008359" style="stroke: #000000; stroke-width: 0.8"/>
      </g>
     </g>
     <g id="text_7">
      <!-- 0 -->
      <g transform="translate(30.151563 168.753672) scale(0.1 -0.1)">
       <use xlink:href="#IPAexGothic-30"/>
      </g>
     </g>
    </g>
    <g id="ytick_4">
     <g id="line2d_8">
      <g>
       <use xlink:href="#mdaba7570af" x="43.45" y="129.713214" style="stroke: #000000; stroke-width: 0.8"/>
      </g>
     </g>
     <g id="text_8">
      <!-- 200 -->
      <g transform="translate(17.554688 133.458526) scale(0.1 -0.1)">
       <use xlink:href="#IPAexGothic-32"/>
       <use xlink:href="#IPAexGothic-30" transform="translate(62.988281 0)"/>
       <use xlink:href="#IPAexGothic-30" transform="translate(125.976562 0)"/>
      </g>
     </g>
    </g>
    <g id="ytick_5">
     <g id="line2d_9">
      <g>
       <use xlink:href="#mdaba7570af" x="43.45" y="94.418069" style="stroke: #000000; stroke-width: 0.8"/>
      </g>
     </g>
     <g id="text_9">
      <!-- 400 -->
      <g transform="translate(17.554688 98.163381) scale(0.1 -0.1)">
       <use xlink:href="#IPAexGothic-34"/>
       <use xlink:href="#IPAexGothic-30" transform="translate(62.988281 0)"/>
       <use xlink:href="#IPAexGothic-30" transform="translate(125.976562 0)"/>
      </g>
     </g>
    </g>
    <g id="ytick_6">
     <g id="line2d_10">
      <g>
       <use xlink:href="#mdaba7570af" x="43.45" y="59.122923" style="stroke: #000000; stroke-width: 0.8"/>
      </g>
     </g>
     <g id="text_10">
      <!-- 600 -->
      <g transform="translate(17.554688 62.868236) scale(0.1 -0.1)">
       <defs>
        <path id="IPAexGothic-36" d="M 1056 2328 
Q 1509 2981 2234 2981 
Q 2906 2981 3316 2513 
Q 3675 2106 3675 1522 
Q 3675 884 3272 434 
Q 2853 -31 2178 -31 
Q 1375 -31 922 581 
Q 481 1178 481 2228 
Q 481 3425 1013 4109 
Q 1494 4725 2272 4725 
Q 3191 4725 3609 4025 
L 3150 3775 
Q 2894 4266 2300 4266 
Q 1119 4266 1031 2328 
L 1056 2328 
z
M 2141 2547 
Q 1684 2547 1384 2206 
Q 1116 1900 1116 1541 
Q 1116 1156 1353 844 
Q 1672 428 2159 428 
Q 2669 428 2941 844 
Q 3125 1128 3125 1503 
Q 3125 1944 2881 2228 
Q 2600 2547 2141 2547 
z
" transform="scale(0.015625)"/>
       </defs>
       <use xlink:href="#IPAexGothic-36"/>
       <use xlink:href="#IPAexGothic-30" transform="translate(62.988281 0)"/>
       <use xlink:href="#IPAexGothic-30" transform="translate(125.976562 0)"/>
      </g>
     </g>
    </g>
   </g>
   <g id="text_11">
    <!-- 流入 -->
    <g transform="translate(265.837362 167.803672) scale(0.1 -0.1)">
     <defs>
      <path id="IPAexGothic-6d41" d="M 4128 4416 
L 5931 4416 
L 5931 4019 
L 3794 4019 
Q 3591 3531 3275 2988 
Q 3328 2988 3353 2988 
Q 3756 2997 4441 3047 
L 4909 3072 
Q 4684 3328 4341 3688 
L 4678 3903 
Q 5231 3397 5838 2644 
L 5472 2341 
Q 5322 2566 5178 2753 
Q 4053 2597 2188 2528 
L 2053 2956 
Q 2138 2959 2331 2963 
Q 2469 2966 2547 2969 
L 2797 2975 
Q 3094 3503 3281 4019 
L 2078 4019 
L 2078 4416 
L 3659 4416 
L 3659 5313 
L 4128 5313 
L 4128 4416 
z
M 1622 3853 
Q 1150 4372 700 4709 
L 1006 5069 
Q 1553 4684 1947 4244 
L 1622 3853 
z
M 1428 2388 
Q 988 2897 469 3250 
L 775 3609 
Q 1288 3266 1756 2759 
L 1428 2388 
z
M 347 13 
Q 972 800 1466 1931 
L 1806 1575 
Q 1294 403 725 -384 
L 347 13 
z
M 3559 2156 
L 4000 2156 
L 4000 -172 
L 3559 -172 
L 3559 2156 
z
M 4609 2266 
L 5050 2266 
L 5050 288 
Q 5050 116 5300 116 
Q 5544 116 5581 328 
Q 5622 538 5631 984 
L 6069 819 
Q 6028 106 5953 -75 
Q 5866 -256 5672 -294 
Q 5478 -325 5191 -325 
Q 4881 -325 4756 -247 
Q 4609 -150 4609 97 
L 4609 2266 
z
M 2563 2241 
L 3003 2241 
L 3003 1941 
Q 3003 856 2766 347 
Q 2541 -144 1966 -513 
L 1659 -147 
Q 2291 250 2453 863 
Q 2563 1291 2563 1953 
L 2563 2241 
z
" transform="scale(0.015625)"/>
      <path id="IPAexGothic-5165" d="M 3275 3078 
Q 2806 619 819 -334 
L 447 91 
Q 2934 1156 3000 4550 
L 1472 4550 
L 1472 4984 
L 3525 4984 
L 3525 4728 
Q 3525 3053 4116 2041 
Q 4734 972 6022 275 
L 5650 -200 
Q 3697 1044 3275 3078 
z
" transform="scale(0.015625)"/>
     </defs>
     <use xlink:href="#IPAexGothic-6d41"/>
     <use xlink:href="#IPAexGothic-5165" transform="translate(100 0)"/>
    </g>
   </g>
   <g id="text_12">
    <!-- 無料登録 -->
    <g transform="translate(219.068677 48.314411) scale(0.1 -0.1)">
     <defs>
      <path id="IPAexGothic-7121" d="M 5134 4238 
L 5134 3188 
L 6044 3188 
L 6044 2791 
L 5134 2791 
L 5134 1716 
L 5850 1716 
L 5850 1319 
L 544 1319 
L 544 1716 
L 1409 1716 
L 1409 2791 
L 353 2791 
L 353 3188 
L 1409 3188 
L 1409 4044 
Q 1156 3691 884 3438 
L 572 3731 
Q 1291 4394 1666 5306 
L 2094 5159 
Q 2038 5041 1800 4628 
L 5697 4628 
L 5697 4238 
L 5134 4238 
z
M 1825 4238 
L 1825 3188 
L 2516 3188 
L 2516 4238 
L 1825 4238 
z
M 2906 4238 
L 2906 3188 
L 3597 3188 
L 3597 4238 
L 2906 4238 
z
M 3988 4238 
L 3988 3188 
L 4719 3188 
L 4719 4238 
L 3988 4238 
z
M 4719 2791 
L 3988 2791 
L 3988 1716 
L 4719 1716 
L 4719 2791 
z
M 3597 2791 
L 2906 2791 
L 2906 1716 
L 3597 1716 
L 3597 2791 
z
M 2516 2791 
L 1825 2791 
L 1825 1716 
L 2516 1716 
L 2516 2791 
z
M 506 -159 
Q 997 369 1294 1106 
L 1716 934 
Q 1400 91 909 -488 
L 506 -159 
z
M 2466 -441 
Q 2391 256 2222 903 
L 2656 991 
Q 2869 350 2963 -331 
L 2466 -441 
z
M 3859 -341 
Q 3659 413 3381 953 
L 3822 1094 
Q 4100 578 4347 -159 
L 3859 -341 
z
M 5569 -359 
Q 5094 469 4616 991 
L 5006 1209 
Q 5578 609 6009 -63 
L 5569 -359 
z
" transform="scale(0.015625)"/>
      <path id="IPAexGothic-6599" d="M 1559 1947 
Q 1194 997 600 316 
L 319 731 
Q 1078 1528 1450 2600 
L 394 2600 
L 394 3003 
L 1559 3003 
L 1559 5313 
L 2000 5313 
L 2000 3003 
L 3069 3003 
L 3069 2600 
L 2000 2600 
L 2000 2319 
Q 2472 2047 2984 1653 
L 2722 1238 
Q 2366 1575 2000 1872 
L 2000 -447 
L 1559 -447 
L 1559 1947 
z
M 5278 1778 
L 6078 1941 
L 6116 1503 
L 5297 1338 
L 5297 -416 
L 4844 -416 
L 4844 1247 
L 2925 863 
L 2859 1306 
L 4825 1691 
L 4825 5178 
L 5278 5178 
L 5278 1778 
z
M 869 3334 
Q 738 4025 472 4650 
L 881 4825 
Q 1122 4228 1297 3475 
L 869 3334 
z
M 2213 3481 
Q 2506 4094 2700 4881 
L 3166 4753 
Q 2919 3966 2616 3347 
L 2213 3481 
z
M 4172 2016 
Q 3672 2625 3200 2994 
L 3475 3294 
Q 4022 2872 4478 2353 
L 4172 2016 
z
M 4288 3431 
Q 3781 4031 3294 4403 
L 3597 4725 
Q 4178 4253 4606 3763 
L 4288 3431 
z
" transform="scale(0.015625)"/>
      <path id="IPAexGothic-767b" d="M 4703 3684 
Q 5106 4013 5459 4441 
L 5838 4178 
Q 5397 3741 5022 3463 
Q 5447 3175 6091 2897 
L 5797 2500 
Q 5122 2834 4513 3294 
L 4513 3006 
L 2047 3006 
L 2047 3288 
Q 1356 2750 606 2397 
L 294 2763 
Q 1034 3050 1650 3525 
Q 1234 3934 869 4184 
L 1203 4481 
Q 1600 4172 1966 3788 
Q 2391 4169 2738 4647 
L 1400 4647 
L 1400 5044 
L 3450 5044 
Q 3728 4609 4038 4281 
Q 4403 4581 4769 5025 
L 5144 4763 
Q 4747 4353 4294 4025 
Q 4469 3866 4703 3684 
z
M 4391 3391 
Q 3688 3950 3219 4584 
Q 2800 3934 2169 3391 
L 4391 3391 
z
M 1441 2584 
L 4953 2584 
L 4953 1153 
L 1441 1153 
L 1441 2584 
z
M 4500 2213 
L 1894 2213 
L 1894 1525 
L 4500 1525 
L 4500 2213 
z
M 2150 141 
Q 2022 513 1747 941 
L 2188 1106 
Q 2406 797 2631 269 
L 2284 141 
L 3666 141 
Q 3941 578 4147 1094 
L 4613 922 
Q 4388 463 4159 141 
L 5944 141 
L 5944 -250 
L 447 -250 
L 447 141 
L 2150 141 
z
" transform="scale(0.015625)"/>
      <path id="IPAexGothic-9332" d="M 2706 500 
L 2759 525 
Q 3331 825 3944 1369 
L 4063 991 
Q 3641 569 2859 72 
L 2681 428 
Q 1697 -9 481 -378 
L 294 44 
Q 822 178 1422 366 
L 1422 2138 
L 409 2138 
L 409 2522 
L 1422 2522 
L 1422 3181 
L 794 3181 
Q 691 3056 475 2816 
L 256 3194 
Q 1047 4072 1478 5325 
L 1900 5222 
Q 1894 5209 1859 5116 
Q 1834 5056 1819 5013 
Q 2475 4491 2950 3925 
L 2663 3516 
Q 2206 4138 1716 4609 
L 1663 4653 
Q 1344 3963 1075 3566 
L 2503 3566 
L 2503 3181 
L 1838 3181 
L 1838 2522 
L 2700 2522 
L 2700 2138 
L 1838 2138 
L 1838 506 
Q 2125 606 2675 838 
L 2706 500 
z
M 4609 2706 
Q 4753 2106 4953 1716 
Q 5263 1997 5631 2494 
L 6003 2194 
Q 5622 1775 5141 1381 
Q 5513 809 6163 331 
L 5825 -31 
Q 5000 631 4597 1753 
L 4597 6 
Q 4597 -416 4128 -416 
Q 3909 -416 3534 -384 
L 3450 72 
Q 3706 6 4013 6 
Q 4181 6 4181 184 
L 4181 2706 
L 2697 2706 
L 2697 3091 
L 4878 3091 
L 4878 3706 
L 3150 3706 
L 3150 4078 
L 4878 4078 
L 4878 4672 
L 2978 4672 
L 2978 5050 
L 5300 5050 
L 5300 3091 
L 6094 3091 
L 6094 2706 
L 4609 2706 
z
M 775 544 
Q 672 1153 472 1722 
L 875 1838 
Q 1069 1259 1178 672 
L 775 544 
z
M 1991 903 
Q 2194 1388 2328 1966 
L 2750 1838 
Q 2569 1241 2341 813 
L 1991 903 
z
M 3641 1350 
Q 3322 1831 2944 2169 
L 3250 2425 
Q 3644 2078 3969 1656 
L 3641 1350 
z
" transform="scale(0.015625)"/>
     </defs>
     <use xlink:href="#IPAexGothic-7121"/>
     <use xlink:href="#IPAexGothic-6599" transform="translate(100 0)"/>
     <use xlink:href="#IPAexGothic-767b" transform="translate(200 0)"/>
     <use xlink:href="#IPAexGothic-9332" transform="translate(300 0)"/>
    </g>
   </g>
   <g id="text_13">
    <!-- カート離脱 -->
    <g transform="translate(254.816923 223.966916) scale(0.1 -0.1)">
     <defs>
      <path id="IPAexGothic-30ab" d="M 2734 4981 
L 3247 4981 
L 3247 3694 
L 5250 3694 
L 5250 3491 
L 5250 3425 
Q 5250 1334 5019 500 
Q 4856 -84 4297 -84 
Q 3788 -84 3247 172 
L 3228 731 
Q 3859 441 4200 441 
Q 4484 441 4553 763 
Q 4706 1478 4738 3234 
L 3206 3234 
Q 3025 906 1159 -134 
L 769 263 
Q 2519 1134 2700 3209 
L 916 3209 
L 916 3669 
L 2734 3669 
L 2734 4981 
z
" transform="scale(0.015625)"/>
      <path id="IPAexGothic-30fc" d="M 588 2688 
L 5809 2688 
L 5809 2175 
L 588 2175 
L 588 2688 
z
" transform="scale(0.015625)"/>
      <path id="IPAexGothic-30c8" d="M 2284 4997 
L 2803 4997 
L 2803 3206 
Q 4088 2619 5216 1888 
L 4878 1369 
Q 3819 2175 2803 2688 
L 2803 -184 
L 2284 -184 
L 2284 4997 
z
" transform="scale(0.015625)"/>
      <path id="IPAexGothic-96e2" d="M 2219 881 
Q 2134 1103 1972 1381 
L 2291 1497 
Q 2578 1041 2756 488 
L 2413 300 
Q 2381 416 2322 613 
Q 1750 481 1003 384 
L 894 769 
Q 1128 778 1209 788 
Q 1297 1072 1425 1656 
L 838 1656 
L 838 -447 
L 428 -447 
L 428 2009 
L 1497 2009 
Q 1516 2116 1559 2419 
L 588 2419 
L 588 4109 
L 984 4109 
L 984 2772 
L 2656 2772 
L 2656 4109 
L 3053 4109 
L 3053 2419 
L 1972 2419 
Q 1925 2106 1906 2009 
L 3225 2009 
L 3225 56 
Q 3225 -219 3103 -300 
Q 3003 -384 2725 -384 
Q 2381 -384 2169 -359 
L 2119 56 
Q 2416 0 2631 0 
Q 2816 0 2816 197 
L 2816 1656 
L 1816 1656 
Q 1809 1616 1788 1525 
Q 1775 1469 1772 1444 
Q 1681 1081 1594 819 
L 1809 838 
Q 2084 859 2219 881 
z
M 5125 2419 
L 5125 1556 
L 5919 1556 
L 5919 1184 
L 5125 1184 
L 5125 275 
L 6103 275 
L 6103 -122 
L 4044 -122 
L 4044 -447 
L 3641 -447 
L 3641 3066 
Q 3466 2653 3306 2400 
L 3056 2725 
Q 3653 3759 3909 5259 
L 4319 5172 
Q 4181 4553 4038 4109 
L 4019 4044 
L 4747 4044 
Q 4947 4572 5066 5222 
L 5491 5113 
Q 5297 4428 5138 4044 
L 6041 4044 
L 6041 3659 
L 5125 3659 
L 5125 2791 
L 5919 2791 
L 5919 2419 
L 5125 2419 
z
M 4728 3659 
L 4044 3659 
L 4044 2791 
L 4728 2791 
L 4728 3659 
z
M 4728 2419 
L 4044 2419 
L 4044 1556 
L 4728 1556 
L 4728 2419 
z
M 4728 1184 
L 4044 1184 
L 4044 275 
L 4728 275 
L 4728 1184 
z
M 2022 4697 
L 3378 4697 
L 3378 4325 
L 281 4325 
L 281 4697 
L 1594 4697 
L 1594 5313 
L 2022 5313 
L 2022 4697 
z
M 1625 3481 
Q 1419 3625 1056 3834 
L 1291 4084 
Q 1541 3944 1863 3731 
Q 2025 3916 2181 4172 
L 2509 4000 
Q 2316 3728 2138 3531 
Q 2500 3238 2591 3163 
L 2353 2881 
Q 2094 3119 1894 3284 
Q 1634 3031 1297 2834 
L 1063 3097 
Q 1375 3259 1625 3481 
z
" transform="scale(0.015625)"/>
      <path id="IPAexGothic-8131" d="M 3509 1947 
L 2844 1947 
L 2844 3859 
L 4378 3859 
Q 4716 4450 4953 5228 
L 5434 5050 
Q 5100 4313 4878 3938 
Q 4866 3913 4847 3884 
Q 4834 3863 4831 3859 
L 5747 3859 
L 5747 1947 
L 4941 1947 
L 4941 275 
Q 4941 156 4991 125 
Q 5056 94 5247 94 
Q 5553 94 5600 234 
Q 5647 400 5656 994 
L 6106 831 
Q 6078 -25 5925 -194 
Q 5778 -359 5234 -359 
Q 4878 -359 4725 -309 
Q 4500 -231 4500 91 
L 4500 1947 
L 3950 1947 
Q 3950 984 3688 447 
Q 3438 -63 2741 -475 
L 2434 -97 
Q 3184 284 3388 903 
Q 3509 1278 3509 1928 
L 3509 1947 
z
M 5313 2338 
L 5313 3469 
L 3278 3469 
L 3278 2338 
L 5313 2338 
z
M 2272 4978 
L 2272 38 
Q 2272 -222 2175 -306 
Q 2069 -403 1791 -403 
Q 1509 -403 1313 -378 
L 1241 63 
Q 1456 19 1691 19 
Q 1875 19 1875 191 
L 1875 1684 
L 1038 1684 
Q 1009 272 591 -519 
L 238 -184 
Q 641 584 641 2063 
L 641 4978 
L 2272 4978 
z
M 1038 4581 
L 1038 3541 
L 1875 3541 
L 1875 4581 
L 1038 4581 
z
M 1038 3156 
L 1038 2069 
L 1875 2069 
L 1875 3156 
L 1038 3156 
z
M 3547 3988 
Q 3331 4553 3053 4966 
L 3456 5166 
Q 3741 4747 3975 4191 
L 3547 3988 
z
" transform="scale(0.015625)"/>
     </defs>
     <use xlink:href="#IPAexGothic-30ab"/>
     <use xlink:href="#IPAexGothic-30fc" transform="translate(100 0)"/>
     <use xlink:href="#IPAexGothic-30c8" transform="translate(200 0)"/>
     <use xlink:href="#IPAexGothic-96e2" transform="translate(300 0)"/>
     <use xlink:href="#IPAexGothic-8131" transform="translate(400 0)"/>
    </g>
   </g>
   <g id="text_14">
    <!-- FAQ閲覧 -->
    <g transform="translate(217.354428 253.321185) scale(0.1 -0.1)">
     <defs>
      <path id="IPAexGothic-46" d="M 3469 4141 
L 1172 4141 
L 1172 2656 
L 3206 2656 
L 3206 2188 
L 1172 2188 
L 1172 63 
L 609 63 
L 609 4634 
L 3469 4634 
L 3469 4141 
z
" transform="scale(0.015625)"/>
      <path id="IPAexGothic-41" d="M 4056 63 
L 3444 63 
L 2938 1409 
L 1100 1409 
L 603 63 
L -6 63 
L 1806 4666 
L 2259 4666 
L 4056 63 
z
M 2778 1863 
L 2316 3078 
Q 2125 3588 2028 4000 
L 2009 4000 
Q 1897 3563 1716 3078 
L 1263 1863 
L 2778 1863 
z
" transform="scale(0.015625)"/>
      <path id="IPAexGothic-51" d="M 4800 88 
L 4494 -306 
Q 3991 38 3681 281 
Q 3181 -25 2528 -25 
Q 1634 -25 1050 556 
Q 378 1219 378 2350 
Q 378 3469 1044 4138 
Q 1631 4725 2541 4725 
Q 3456 4725 4044 4138 
Q 4709 3469 4709 2350 
Q 4709 1306 4059 588 
Q 4413 319 4800 88 
z
M 3669 900 
Q 4122 1403 4122 2338 
Q 4122 3291 3578 3838 
Q 3150 4266 2541 4266 
Q 1947 4266 1519 3838 
Q 981 3300 981 2350 
Q 981 1406 1513 875 
Q 1947 441 2575 441 
Q 3003 441 3297 619 
Q 2844 931 2381 1209 
L 2663 1594 
Q 3225 1222 3669 900 
z
" transform="scale(0.015625)"/>
      <path id="IPAexGothic-95b2" d="M 4709 31 
Q 4547 -25 4050 -25 
Q 3594 -25 3453 78 
Q 3347 156 3347 366 
L 3347 1197 
L 2847 1197 
L 2847 1069 
Q 2847 72 1594 -225 
L 1369 128 
Q 2444 309 2444 1044 
L 2444 1197 
L 1881 1197 
L 1881 2431 
L 2469 2431 
Q 2331 2747 2100 3019 
L 2469 3178 
Q 2681 2931 2881 2584 
L 2553 2431 
L 3372 2431 
Q 3578 2759 3763 3184 
L 4197 3038 
Q 4000 2697 3834 2475 
L 3794 2431 
L 4441 2431 
L 4441 1197 
L 3756 1197 
L 3756 494 
Q 3756 347 4103 347 
Q 4469 347 4519 463 
Q 4563 575 4581 922 
L 4984 813 
Q 4956 147 4728 38 
Q 4978 0 5197 0 
Q 5356 0 5356 134 
L 5356 3275 
L 3428 3275 
L 3428 5056 
L 5809 5056 
L 5809 19 
Q 5809 -241 5694 -325 
Q 5600 -403 5319 -403 
Q 4991 -403 4794 -378 
L 4709 31 
z
M 2284 2091 
L 2284 1538 
L 4038 1538 
L 4038 2091 
L 2284 2091 
z
M 3841 4709 
L 3841 4325 
L 5356 4325 
L 5356 4709 
L 3841 4709 
z
M 3841 4013 
L 3841 3616 
L 5356 3616 
L 5356 4013 
L 3841 4013 
z
M 2919 5056 
L 2919 3275 
L 1028 3275 
L 1028 -450 
L 581 -450 
L 581 5056 
L 2919 5056 
z
M 1028 4709 
L 1028 4325 
L 2509 4325 
L 2509 4709 
L 1028 4709 
z
M 1028 4013 
L 1028 3616 
L 2509 3616 
L 2509 4013 
L 1028 4013 
z
" transform="scale(0.015625)"/>
      <path id="IPAexGothic-89a7" d="M 4147 672 
L 4147 206 
Q 4147 53 4281 25 
Q 4444 -13 4872 -13 
Q 5491 -13 5556 128 
Q 5597 219 5606 634 
L 6059 500 
Q 6031 -122 5831 -275 
Q 5653 -416 4744 -416 
Q 4088 -416 3903 -338 
Q 3706 -253 3706 38 
L 3706 672 
L 2753 672 
Q 2609 -394 641 -519 
L 372 -109 
Q 1259 -81 1766 103 
Q 2219 266 2303 672 
L 1184 672 
L 1184 2753 
L 5203 2753 
L 5203 672 
L 4147 672 
z
M 1619 2447 
L 1619 2150 
L 4775 2150 
L 4775 2447 
L 1619 2447 
z
M 1619 1869 
L 1619 1575 
L 4775 1575 
L 4775 1869 
L 1619 1869 
z
M 1619 1294 
L 1619 978 
L 4775 978 
L 4775 1294 
L 1619 1294 
z
M 2197 4819 
L 2197 4494 
L 3113 4494 
L 3113 3628 
L 2197 3628 
L 2197 3297 
L 3284 3297 
L 3284 2984 
L 609 2984 
L 609 5131 
L 3253 5131 
L 3253 4819 
L 2197 4819 
z
M 1806 4819 
L 1006 4819 
L 1006 4494 
L 1806 4494 
L 1806 4819 
z
M 2728 4213 
L 1006 4213 
L 1006 3903 
L 2728 3903 
L 2728 4213 
z
M 1806 3628 
L 1006 3628 
L 1006 3297 
L 1806 3297 
L 1806 3628 
z
M 4153 4672 
L 5953 4672 
L 5953 4313 
L 4000 4313 
Q 3831 3963 3488 3550 
L 3206 3859 
Q 3747 4484 3913 5344 
L 4347 5275 
Q 4263 4938 4153 4672 
z
M 3663 3669 
L 5813 3669 
L 5813 3309 
L 3663 3309 
L 3663 3669 
z
" transform="scale(0.015625)"/>
     </defs>
     <use xlink:href="#IPAexGothic-46"/>
     <use xlink:href="#IPAexGothic-41" transform="translate(57.177734 0)"/>
     <use xlink:href="#IPAexGothic-51" transform="translate(120.898438 0)"/>
     <use xlink:href="#IPAexGothic-95b2" transform="translate(200.585938 0)"/>
     <use xlink:href="#IPAexGothic-89a7" transform="translate(300.585938 0)"/>
    </g>
   </g>
   <g id="text_15">
    <!-- 直帰 -->
    <g transform="translate(200.832561 263.564722) scale(0.1 -0.1)">
     <defs>
      <path id="IPAexGothic-76f4" d="M 3297 3688 
L 5222 3688 
L 5222 684 
L 1984 684 
L 1984 3688 
L 2847 3688 
Q 2859 3741 2913 4044 
L 2931 4153 
L 647 4153 
L 647 4538 
L 2994 4538 
L 3009 4609 
Q 3056 4944 3103 5338 
L 3584 5288 
Q 3556 5047 3469 4538 
L 5881 4538 
L 5881 4153 
L 3400 4153 
Q 3328 3819 3297 3688 
z
M 4781 3316 
L 2425 3316 
L 2425 2809 
L 4781 2809 
L 4781 3316 
z
M 2425 2450 
L 2425 1953 
L 4781 1953 
L 4781 2450 
L 2425 2450 
z
M 2425 1594 
L 2425 1056 
L 4781 1056 
L 4781 1594 
L 2425 1594 
z
M 1331 244 
L 6081 244 
L 6081 -153 
L 1331 -153 
L 1331 -447 
L 878 -447 
L 878 3213 
L 1331 3213 
L 1331 244 
z
" transform="scale(0.015625)"/>
      <path id="IPAexGothic-5e30" d="M 5472 5044 
L 5472 3109 
L 2541 3109 
L 2541 3481 
L 5031 3481 
L 5031 3909 
L 2700 3909 
L 2700 4269 
L 5031 4269 
L 5031 4672 
L 2559 4672 
L 2559 5044 
L 5472 5044 
z
M 6022 2675 
L 6022 1631 
L 5594 1631 
L 5594 2297 
L 4244 2297 
L 4244 1784 
L 5503 1784 
L 5503 384 
Q 5503 -19 5056 -19 
Q 4809 -19 4488 13 
L 4441 428 
Q 4719 378 4928 378 
Q 5088 378 5088 544 
L 5088 1419 
L 4244 1419 
L 4244 -447 
L 3816 -447 
L 3816 1419 
L 3091 1419 
L 3091 -97 
L 2675 -97 
L 2675 1784 
L 3816 1784 
L 3816 2297 
L 2584 2297 
L 2584 1631 
L 2156 1631 
L 2156 2675 
L 6022 2675 
z
M 634 4441 
L 1063 4441 
L 1063 1869 
L 634 1869 
L 634 4441 
z
M 1484 5209 
L 1931 5209 
L 1931 3109 
Q 1931 1747 1722 1019 
Q 1463 153 819 -513 
L 506 -122 
Q 1072 388 1313 1216 
Q 1484 1841 1484 2975 
L 1484 5209 
z
" transform="scale(0.015625)"/>
     </defs>
     <use xlink:href="#IPAexGothic-76f4"/>
     <use xlink:href="#IPAexGothic-5e30" transform="translate(100 0)"/>
    </g>
   </g>
   <g id="text_16">
    <!-- 無料登録 -->
    <g transform="translate(219.068677 48.367354) scale(0.1 -0.1)">
     <use xlink:href="#IPAexGothic-7121"/>
     <use xlink:href="#IPAexGothic-6599" transform="translate(100 0)"/>
     <use xlink:href="#IPAexGothic-767b" transform="translate(200 0)"/>
     <use xlink:href="#IPAexGothic-9332" transform="translate(300 0)"/>
    </g>
   </g>
   <g id="text_17">
    <!-- 有料化 -->
    <g transform="translate(167.621482 56.293041) scale(0.1 -0.1)">
     <defs>
      <path id="IPAexGothic-6709" d="M 2353 3334 
L 5197 3334 
L 5197 103 
Q 5197 -178 5088 -288 
Q 4966 -409 4584 -409 
Q 4113 -409 3684 -366 
L 3634 109 
Q 4109 13 4513 13 
Q 4750 13 4750 250 
L 4750 941 
L 2238 941 
L 2238 -447 
L 1784 -447 
L 1784 2438 
Q 1241 1734 581 1247 
L 288 1613 
Q 1616 2578 2163 3988 
L 509 3988 
L 509 4391 
L 2309 4391 
Q 2453 4866 2538 5300 
L 2988 5256 
Q 2884 4778 2769 4391 
L 5953 4391 
L 5953 3988 
L 2634 3988 
Q 2516 3650 2353 3334 
z
M 2238 2950 
L 2238 2328 
L 4750 2328 
L 4750 2950 
L 2238 2950 
z
M 2238 1950 
L 2238 1313 
L 4750 1313 
L 4750 1950 
L 2238 1950 
z
" transform="scale(0.015625)"/>
      <path id="IPAexGothic-5316" d="M 1831 3700 
L 1831 -341 
L 1356 -341 
L 1356 2772 
Q 1069 2275 678 1772 
L 378 2138 
Q 1319 3278 1856 5166 
L 2319 5013 
Q 2100 4319 1831 3700 
z
M 3425 2906 
Q 4528 3350 5306 3969 
L 5703 3616 
Q 4728 2919 3425 2444 
L 3425 575 
Q 3425 353 3584 306 
Q 3738 263 4334 263 
Q 5072 263 5250 347 
Q 5384 403 5422 594 
Q 5475 872 5506 1497 
L 5978 1331 
Q 5931 319 5775 106 
Q 5641 -75 5331 -141 
Q 5041 -206 4244 -206 
Q 3438 -206 3181 -78 
Q 2931 47 2931 384 
L 2931 5113 
L 3425 5113 
L 3425 2906 
z
" transform="scale(0.015625)"/>
     </defs>
     <use xlink:href="#IPAexGothic-6709"/>
     <use xlink:href="#IPAexGothic-6599" transform="translate(100 0)"/>
     <use xlink:href="#IPAexGothic-5316" transform="translate(200 0)"/>
    </g>
   </g>
   <g id="text_18">
    <!-- 再来訪 -->
    <g transform="translate(258.045576 59.743142) scale(0.1 -0.1)">
     <defs>
      <path id="IPAexGothic-518d" d="M 2959 3750 
L 2959 4447 
L 513 4447 
L 513 4850 
L 5881 4850 
L 5881 4447 
L 3400 4447 
L 3400 3750 
L 5313 3750 
L 5313 1556 
L 6066 1556 
L 6066 1147 
L 5313 1147 
L 5313 103 
Q 5313 -372 4731 -372 
Q 4234 -372 3822 -313 
L 3750 178 
Q 4250 88 4616 88 
Q 4859 88 4859 328 
L 4859 1147 
L 1538 1147 
L 1538 -447 
L 1084 -447 
L 1084 1147 
L 322 1147 
L 322 1556 
L 1084 1556 
L 1084 3750 
L 2959 3750 
z
M 2959 3372 
L 1538 3372 
L 1538 2663 
L 2959 2663 
L 2959 3372 
z
M 3400 3372 
L 3400 2663 
L 4859 2663 
L 4859 3372 
L 3400 3372 
z
M 2959 2291 
L 1538 2291 
L 1538 1556 
L 2959 1556 
L 2959 2291 
z
M 3400 2291 
L 3400 1556 
L 4859 1556 
L 4859 2291 
L 3400 2291 
z
" transform="scale(0.015625)"/>
      <path id="IPAexGothic-6765" d="M 3403 1691 
L 3403 -447 
L 2944 -447 
L 2944 1647 
Q 2141 481 666 -166 
L 353 219 
Q 1878 806 2809 2063 
L 481 2063 
L 481 2472 
L 2944 2472 
L 2944 3897 
L 806 3897 
L 806 4306 
L 2944 4306 
L 2944 5313 
L 3403 5313 
L 3403 4306 
L 5584 4306 
L 5584 3897 
L 3403 3897 
L 3403 2472 
L 3947 2472 
Q 4297 3125 4522 3828 
L 5009 3641 
Q 4784 3094 4428 2472 
L 5913 2472 
L 5913 2063 
L 3556 2063 
Q 4522 969 6084 384 
L 5759 -63 
Q 4181 647 3403 1691 
z
M 1831 2534 
Q 1606 3188 1325 3628 
L 1747 3803 
Q 2031 3369 2294 2719 
L 1831 2534 
z
" transform="scale(0.015625)"/>
      <path id="IPAexGothic-8a2a" d="M 4034 3797 
L 4034 3509 
Q 4034 3072 4028 2859 
L 5684 2859 
Q 5625 691 5484 147 
Q 5406 -134 5234 -228 
Q 5097 -313 4775 -313 
Q 4422 -313 4034 -263 
L 3969 197 
Q 4359 122 4697 122 
Q 5003 122 5069 409 
Q 5181 1006 5228 2341 
L 5234 2456 
L 4006 2456 
Q 3881 459 2784 -447 
L 2459 -97 
Q 3131 422 3369 1241 
Q 3591 1991 3591 3406 
L 3591 3797 
L 2684 3797 
L 2684 4213 
L 3938 4213 
L 3938 5209 
L 4384 5209 
L 4384 4213 
L 6041 4213 
L 6041 3797 
L 4034 3797 
z
M 2388 1684 
L 2388 -128 
L 959 -128 
L 959 -447 
L 538 -447 
L 538 1684 
L 2388 1684 
z
M 959 1313 
L 959 244 
L 1966 244 
L 1966 1313 
L 959 1313 
z
M 634 5044 
L 2294 5044 
L 2294 4659 
L 634 4659 
L 634 5044 
z
M 347 4206 
L 2509 4206 
L 2509 3816 
L 347 3816 
L 347 4206 
z
M 634 3359 
L 2294 3359 
L 2294 2975 
L 634 2975 
L 634 3359 
z
M 634 2522 
L 2294 2522 
L 2294 2138 
L 634 2138 
L 634 2522 
z
" transform="scale(0.015625)"/>
     </defs>
     <use xlink:href="#IPAexGothic-518d"/>
     <use xlink:href="#IPAexGothic-6765" transform="translate(100 0)"/>
     <use xlink:href="#IPAexGothic-8a2a" transform="translate(200 0)"/>
    </g>
   </g>
   <g id="text_19">
    <!-- 離脱 -->
    <g transform="translate(270.672506 73.940614) scale(0.1 -0.1)">
     <use xlink:href="#IPAexGothic-96e2"/>
     <use xlink:href="#IPAexGothic-8131" transform="translate(100 0)"/>
    </g>
   </g>
   <g id="text_20">
    <!-- 来訪後の顧客フロー（サンキーダイアグラム） -->
    <g transform="translate(62.135151 24.48) scale(0.1728 -0.1728)">
     <defs>
      <path id="IPAexGothic-5f8c" d="M 3309 2475 
Q 3184 2469 2291 2425 
L 2125 2859 
Q 2625 2859 2822 2866 
L 3169 2878 
L 3488 3194 
Q 2891 3844 2375 4238 
L 2700 4563 
Q 2878 4409 3097 4191 
Q 3563 4781 3828 5297 
L 4263 5075 
Q 3853 4431 3366 3916 
Q 3538 3744 3769 3475 
Q 4366 4109 4756 4647 
L 5178 4391 
Q 4525 3594 3719 2891 
L 4519 2925 
Q 5022 2950 5197 2963 
Q 4978 3316 4741 3591 
L 5106 3794 
Q 5606 3197 5972 2516 
L 5569 2259 
Q 5494 2428 5381 2638 
Q 5363 2631 5309 2628 
Q 5259 2625 5234 2622 
Q 4741 2566 3806 2509 
Q 3728 2338 3550 2041 
L 5050 2041 
L 5319 1791 
Q 4978 1122 4441 631 
Q 5069 256 5984 25 
L 5663 -419 
Q 4734 -106 4109 338 
Q 3372 -225 2194 -531 
L 1900 -116 
Q 3009 66 3775 594 
Q 3331 969 3053 1356 
Q 2663 900 2259 625 
L 1959 941 
Q 2838 1559 3309 2475 
z
M 4109 863 
Q 4528 1244 4728 1656 
L 3322 1656 
Q 3613 1263 4109 863 
z
M 1588 2753 
L 1588 -447 
L 1147 -447 
L 1147 2209 
Q 869 1891 550 1613 
L 250 1947 
Q 1216 2806 1803 3938 
L 2206 3738 
Q 1906 3188 1588 2753 
z
M 294 3716 
Q 1213 4375 1663 5209 
L 2078 4997 
Q 1475 4016 588 3372 
L 294 3716 
z
" transform="scale(0.015625)"/>
      <path id="IPAexGothic-306e" d="M 3119 469 
Q 5275 766 5275 2425 
Q 5275 3453 4413 3925 
Q 4041 4116 3547 4159 
Q 3394 2525 2850 1400 
Q 2322 306 1722 306 
Q 1384 306 1084 666 
Q 609 1244 609 2003 
Q 609 3025 1397 3794 
Q 2184 4563 3431 4563 
Q 4306 4563 4928 4122 
Q 5813 3506 5813 2425 
Q 5813 438 3431 6 
L 3119 469 
z
M 3053 4147 
Q 2378 4044 1891 3641 
Q 1097 2981 1097 1991 
Q 1097 1366 1434 978 
Q 1581 813 1719 813 
Q 2022 813 2416 1625 
Q 2909 2638 3053 4147 
z
" transform="scale(0.015625)"/>
      <path id="IPAexGothic-9867" d="M 1819 2413 
L 2303 2413 
Q 2434 2663 2553 3022 
L 2938 2919 
Q 2822 2634 2681 2413 
L 3316 2413 
L 3316 2088 
L 2625 2088 
L 2625 1716 
L 3228 1716 
L 3228 1403 
L 2625 1403 
L 2625 1022 
L 3228 1022 
L 3228 709 
L 2625 709 
L 2625 303 
L 3406 303 
L 3406 -38 
L 1722 -38 
L 1722 -384 
L 1350 -384 
L 1350 1581 
Q 1263 1441 1138 1281 
L 1025 1569 
Q 956 313 525 -391 
L 225 -38 
Q 522 509 591 1119 
Q 647 1572 647 2413 
L 647 4206 
L 3156 4206 
L 3156 3078 
L 1044 3078 
L 1044 2497 
Q 1044 2069 1031 1697 
Q 1428 2259 1675 3034 
L 2041 2925 
Q 1975 2734 1819 2413 
z
M 1722 2088 
L 1722 1716 
L 2272 1716 
L 2272 2088 
L 1722 2088 
z
M 1722 1403 
L 1722 1022 
L 2272 1022 
L 2272 1403 
L 1722 1403 
z
M 2772 3866 
L 1044 3866 
L 1044 3419 
L 2772 3419 
L 2772 3866 
z
M 2272 709 
L 1722 709 
L 1722 303 
L 2272 303 
L 2272 709 
z
M 4750 4025 
L 5775 4025 
L 5775 697 
L 5244 697 
Q 5263 684 5288 659 
Q 5728 325 6134 -134 
L 5781 -428 
Q 5338 113 4884 472 
L 5225 697 
L 3638 697 
L 3638 4025 
L 4359 4025 
Q 4444 4378 4481 4653 
L 3413 4653 
L 3413 5044 
L 6056 5044 
L 6056 4653 
L 4919 4653 
L 4897 4569 
Q 4809 4197 4750 4025 
z
M 5378 3653 
L 4034 3653 
L 4034 3041 
L 5378 3041 
L 5378 3653 
z
M 4034 2681 
L 4034 2069 
L 5378 2069 
L 5378 2681 
L 4034 2681 
z
M 4034 1709 
L 4034 1069 
L 5378 1069 
L 5378 1709 
L 4034 1709 
z
M 438 5044 
L 3278 5044 
L 3278 4653 
L 438 4653 
L 438 5044 
z
M 3234 -219 
Q 3753 125 4128 672 
L 4494 469 
Q 4103 -113 3572 -519 
L 3234 -219 
z
" transform="scale(0.015625)"/>
      <path id="IPAexGothic-5ba2" d="M 2903 2375 
Q 2503 2628 2141 2997 
Q 1647 2528 953 2197 
L 666 2516 
Q 1838 3078 2488 4097 
L 2931 3988 
Q 2788 3756 2750 3700 
L 4556 3700 
L 4844 3488 
Q 4319 2822 3697 2394 
Q 4603 1975 6103 1684 
L 5841 1269 
Q 4194 1663 3300 2150 
Q 2616 1738 1644 1422 
L 1606 1409 
L 4997 1409 
L 4997 -447 
L 4538 -447 
L 4538 -159 
L 1944 -159 
L 1944 -447 
L 1484 -447 
L 1484 1372 
Q 978 1213 556 1103 
L 294 1488 
Q 1859 1797 2903 2375 
z
M 3281 2606 
Q 3794 2941 4153 3322 
L 2463 3322 
L 2409 3266 
Q 2738 2913 3281 2606 
z
M 1944 1025 
L 1944 238 
L 4538 238 
L 4538 1025 
L 1944 1025 
z
M 3413 4544 
L 5778 4544 
L 5778 3256 
L 5319 3256 
L 5319 4159 
L 1081 4159 
L 1081 3256 
L 613 3256 
L 613 4544 
L 2938 4544 
L 2938 5313 
L 3413 5313 
L 3413 4544 
z
" transform="scale(0.015625)"/>
      <path id="IPAexGothic-30d5" d="M 4966 4294 
L 5263 4019 
Q 4819 894 1966 -97 
L 1600 353 
Q 4234 1156 4684 3822 
L 1044 3756 
L 1044 4244 
L 4966 4294 
z
" transform="scale(0.015625)"/>
      <path id="IPAexGothic-30ed" d="M 1147 4269 
L 5250 4269 
L 5250 172 
L 4725 172 
L 4725 569 
L 1672 569 
L 1672 172 
L 1147 172 
L 1147 4269 
z
M 1672 3781 
L 1672 1063 
L 4725 1063 
L 4725 3781 
L 1672 3781 
z
" transform="scale(0.015625)"/>
      <path id="IPAexGothic-ff08" d="M 5419 -434 
Q 4197 769 4197 2438 
Q 4197 4097 5419 5300 
L 5919 5300 
Q 4678 4078 4678 2425 
Q 4678 788 5919 -434 
L 5419 -434 
z
" transform="scale(0.015625)"/>
      <path id="IPAexGothic-30b5" d="M 3994 4919 
L 4506 4919 
L 4506 3531 
L 5888 3531 
L 5888 3072 
L 4506 3072 
Q 4488 1719 4153 1063 
Q 3728 222 2644 -325 
L 2266 38 
Q 3325 525 3713 1319 
Q 3975 1853 3994 3072 
L 2331 3072 
L 2331 1575 
L 1819 1575 
L 1819 3072 
L 513 3072 
L 513 3531 
L 1819 3531 
L 1819 4797 
L 2331 4797 
L 2331 3531 
L 3994 3531 
L 3994 4919 
z
" transform="scale(0.015625)"/>
      <path id="IPAexGothic-30f3" d="M 2444 3084 
Q 1816 3656 1056 4084 
L 1381 4519 
Q 2063 4191 2816 3559 
L 2444 3084 
z
M 1100 609 
Q 3984 1106 5216 3828 
L 5619 3469 
Q 4413 794 1434 103 
L 1100 609 
z
" transform="scale(0.015625)"/>
      <path id="IPAexGothic-30ad" d="M 2919 5056 
L 3169 3834 
L 4916 4134 
L 5000 3688 
L 3253 3397 
L 3475 2284 
L 5634 2656 
L 5722 2194 
L 3566 1844 
L 3969 -147 
L 3475 -263 
L 3072 1759 
L 834 1388 
L 744 1856 
L 2984 2203 
L 2759 3322 
L 1019 3034 
L 941 3488 
L 2669 3750 
L 2428 4959 
L 2919 5056 
z
" transform="scale(0.015625)"/>
      <path id="IPAexGothic-30c0" d="M 4806 4219 
L 5141 3944 
Q 4625 2388 3884 1416 
Q 3019 281 1650 -344 
L 1294 66 
Q 1959 338 2441 694 
Q 2881 1022 3359 1556 
Q 2747 2181 1972 2747 
Q 1431 2159 1000 1831 
L 653 2191 
Q 2144 3284 2694 4988 
L 3188 4853 
Q 3153 4731 2938 4219 
L 4806 4219 
z
M 2722 3772 
Q 2538 3478 2266 3125 
Q 3022 2572 3669 1959 
Q 4194 2763 4575 3772 
L 2722 3772 
z
M 6009 4469 
Q 5647 5009 5256 5338 
L 5556 5569 
Q 5941 5259 6331 4744 
L 6009 4469 
z
M 5397 4031 
Q 5106 4522 4659 4922 
L 4972 5166 
Q 5344 4856 5728 4306 
L 5397 4031 
z
" transform="scale(0.015625)"/>
      <path id="IPAexGothic-30a4" d="M 3131 -231 
L 3131 2875 
Q 2091 2088 1106 1656 
L 781 2059 
Q 3016 3000 4469 4916 
L 4916 4641 
Q 4384 3938 3675 3316 
L 3675 -231 
L 3131 -231 
z
" transform="scale(0.015625)"/>
      <path id="IPAexGothic-30a2" d="M 5388 4556 
L 5747 4200 
Q 5081 3022 4019 2191 
L 3647 2547 
Q 4519 3178 5081 4091 
L 850 4013 
L 850 4500 
L 5388 4556 
z
M 1216 256 
Q 2319 813 2616 1691 
Q 2797 2200 2797 3628 
L 3313 3628 
Q 3303 1981 3059 1356 
Q 2697 431 1594 -153 
L 1216 256 
z
" transform="scale(0.015625)"/>
      <path id="IPAexGothic-30b0" d="M 4769 4128 
L 5106 3878 
Q 4728 2272 3866 1238 
Q 3106 328 1863 -288 
L 1491 122 
Q 2709 628 3475 1563 
Q 4238 2491 4525 3669 
L 2738 3669 
Q 2022 2591 1191 1897 
L 813 2247 
Q 2163 3338 2766 4959 
L 3256 4819 
Q 3197 4609 2975 4128 
L 4769 4128 
z
M 6009 4422 
Q 5647 4966 5253 5294 
L 5556 5522 
Q 5941 5213 6328 4697 
L 6009 4422 
z
M 5416 3956 
Q 5125 4447 4678 4844 
L 4991 5088 
Q 5363 4781 5747 4231 
L 5416 3956 
z
" transform="scale(0.015625)"/>
      <path id="IPAexGothic-30e9" d="M 1447 4709 
L 4922 4709 
L 4922 4234 
L 1447 4234 
L 1447 4709 
z
M 897 3303 
L 5172 3303 
L 5478 3013 
Q 5069 1669 4219 875 
Q 3475 181 2306 -181 
L 1972 294 
Q 4150 784 4834 2828 
L 897 2828 
L 897 3303 
z
" transform="scale(0.015625)"/>
      <path id="IPAexGothic-30e0" d="M 609 891 
L 719 897 
L 884 903 
Q 1053 916 1263 925 
Q 1413 931 1447 934 
Q 2291 2888 2856 4706 
L 3394 4525 
Q 2841 2859 2019 981 
Q 3553 1109 4659 1275 
Q 4200 1950 3669 2588 
L 4122 2838 
Q 5075 1700 5788 513 
L 5319 194 
Q 5038 691 4922 866 
Q 2919 509 822 328 
L 609 891 
z
" transform="scale(0.015625)"/>
      <path id="IPAexGothic-ff09" d="M 481 -434 
Q 1722 788 1722 2431 
Q 1722 4066 481 5300 
L 981 5300 
Q 2203 4097 2203 2431 
Q 2203 769 981 -434 
L 481 -434 
z
" transform="scale(0.015625)"/>
     </defs>
     <use xlink:href="#IPAexGothic-6765"/>
     <use xlink:href="#IPAexGothic-8a2a" transform="translate(100 0)"/>
     <use xlink:href="#IPAexGothic-5f8c" transform="translate(200 0)"/>
     <use xlink:href="#IPAexGothic-306e" transform="translate(300 0)"/>
     <use xlink:href="#IPAexGothic-9867" transform="translate(400 0)"/>
     <use xlink:href="#IPAexGothic-5ba2" transform="translate(500 0)"/>
     <use xlink:href="#IPAexGothic-30d5" transform="translate(600 0)"/>
     <use xlink:href="#IPAexGothic-30ed" transform="translate(700 0)"/>
     <use xlink:href="#IPAexGothic-30fc" transform="translate(800 0)"/>
     <use xlink:href="#IPAexGothic-ff08" transform="translate(900 0)"/>
     <use xlink:href="#IPAexGothic-30b5" transform="translate(1000 0)"/>
     <use xlink:href="#IPAexGothic-30f3" transform="translate(1100 0)"/>
     <use xlink:href="#IPAexGothic-30ad" transform="translate(1200 0)"/>
     <use xlink:href="#IPAexGothic-30fc" transform="translate(1300 0)"/>
     <use xlink:href="#IPAexGothic-30c0" transform="translate(1400 0)"/>
     <use xlink:href="#IPAexGothic-30a4" transform="translate(1500 0)"/>
     <use xlink:href="#IPAexGothic-30a2" transform="translate(1600 0)"/>
     <use xlink:href="#IPAexGothic-30b0" transform="translate(1700 0)"/>
     <use xlink:href="#IPAexGothic-30e9" transform="translate(1800 0)"/>
     <use xlink:href="#IPAexGothic-30e0" transform="translate(1900 0)"/>
     <use xlink:href="#IPAexGothic-ff09" transform="translate(2000 0)"/>
    </g>
   </g>
  </g>
 </g>
 <defs>
  <clipPath id="pa0947f1ccf">
   <rect x="43.45" y="30.48" width="400.250301" height="230.36"/>
  </clipPath>
 </defs>
</svg>
