<?xml version="1.0" encoding="utf-8" standalone="no"?>
<!DOCTYPE svg PUBLIC "-//W3C//DTD SVG 1.1//EN"
  "http://www.w3.org/Graphics/SVG/1.1/DTD/svg11.dtd">
<svg xmlns:xlink="http://www.w3.org/1999/xlink" width="460.8pt" height="302.4pt" viewBox="0 0 460.8 302.4" xmlns="http://www.w3.org/2000/svg" version="1.1">
 <metadata>
  <rdf:RDF xmlns:dc="http://purl.org/dc/elements/1.1/" xmlns:cc="http://creativecommons.org/ns#" xmlns:rdf="http://www.w3.org/1999/02/22-rdf-syntax-ns#">
   <cc:Work>
    <dc:type rdf:resource="http://purl.org/dc/dcmitype/StillImage"/>
    <dc:date>2025-10-29T09:07:44.688819</dc:date>
    <dc:format>image/svg+xml</dc:format>
    <dc:creator>
     <cc:Agent>
      <dc:title>Matplotlib v3.10.7, https://matplotlib.org/</dc:title>
     </cc:Agent>
    </dc:creator>
   </cc:Work>
  </rdf:RDF>
 </metadata>
 <defs>
  <style type="text/css">*{stroke-linejoin: round; stroke-linecap: butt}</style>
 </defs>
 <g id="figure_1">
  <g id="patch_1">
   <path d="M 0 302.4 
L 460.8 302.4 
L 460.8 0 
L 0 0 
z
" style="fill: #ffffff"/>
  </g>
  <g id="axes_1">
   <g id="patch_2">
    <path d="M 12.550668 141.02 
L 145.729332 141.02 
L 145.729332 48.48 
L 12.550668 48.48 
z
" style="fill: #ffffff"/>
   </g>
   <g id="FillBetweenPolyCollection_1">
    <defs>
     <path id="ma28f4e346c" d="M 18.604244 -165.586364 
L 18.604244 -227.852683 
L 29.610745 -232.811295 
L 40.617246 -227.408531 
L 51.623747 -236.824168 
L 62.630248 -239.818302 
L 73.636749 -235.482085 
L 84.643251 -239.868634 
L 95.649752 -240.516319 
L 106.656253 -239.525358 
L 117.662754 -239.157975 
L 128.669255 -236.320318 
L 139.675756 -249.713636 
L 139.675756 -165.586364 
L 139.675756 -165.586364 
L 128.669255 -165.586364 
L 117.662754 -165.586364 
L 106.656253 -165.586364 
L 95.649752 -165.586364 
L 84.643251 -165.586364 
L 73.636749 -165.586364 
L 62.630248 -165.586364 
L 51.623747 -165.586364 
L 40.617246 -165.586364 
L 29.610745 -165.586364 
L 18.604244 -165.586364 
z
" style="stroke: #bae6fd; stroke-opacity: 0.15"/>
    </defs>
    <g clip-path="url(#p279ef8b496)">
     <use xlink:href="#ma28f4e346c" x="0" y="302.4" style="fill: #bae6fd; fill-opacity: 0.15; stroke: #bae6fd; stroke-opacity: 0.15"/>
    </g>
   </g>
   <g id="matplotlib.axis_1">
    <g id="xtick_1">
     <g id="line2d_1">
      <defs>
       <path id="m8bf1744fa4" d="M 0 0 
L 0 3.5 
" style="stroke: #000000; stroke-width: 0.8"/>
      </defs>
      <g>
       <use xlink:href="#m8bf1744fa4" x="18.604244" y="141.02" style="stroke: #000000; stroke-width: 0.8"/>
      </g>
     </g>
    </g>
    <g id="xtick_2">
     <g id="line2d_2">
      <g>
       <use xlink:href="#m8bf1744fa4" x="73.636749" y="141.02" style="stroke: #000000; stroke-width: 0.8"/>
      </g>
     </g>
    </g>
    <g id="xtick_3">
     <g id="line2d_3">
      <g>
       <use xlink:href="#m8bf1744fa4" x="139.675756" y="141.02" style="stroke: #000000; stroke-width: 0.8"/>
      </g>
     </g>
    </g>
   </g>
   <g id="matplotlib.axis_2"/>
   <g id="line2d_4">
    <path d="M 18.604244 74.547317 
L 29.610745 69.588705 
L 40.617246 74.991469 
L 51.623747 65.575832 
L 62.630248 62.581698 
L 73.636749 66.917915 
L 84.643251 62.531366 
L 95.649752 61.883681 
L 106.656253 62.874642 
L 117.662754 63.242025 
L 128.669255 66.079682 
L 139.675756 52.686364 
" clip-path="url(#p279ef8b496)" style="fill: none; stroke: #0ea5e9; stroke-width: 1.8; stroke-linecap: square"/>
   </g>
   <g id="text_1">
    <!-- 47.8 -->
    <g transform="translate(126.895907 50.976364) scale(0.09 -0.09)">
     <defs>
      <path id="IPAexGothic-34" d="M 3813 1159 
L 3059 1159 
L 3059 63 
L 2547 63 
L 2547 1159 
L 197 1159 
L 197 1672 
L 2456 4678 
L 3059 4678 
L 3059 1634 
L 3813 1634 
L 3813 1159 
z
M 2578 4109 
L 2559 4109 
Q 2278 3656 2003 3284 
L 759 1634 
L 2547 1634 
L 2547 3144 
Q 2547 3481 2578 4109 
z
" transform="scale(0.015625)"/>
      <path id="IPAexGothic-37" d="M 3597 4263 
Q 2238 2106 1778 63 
L 1131 63 
Q 1581 1834 2950 4128 
L 428 4128 
L 428 4634 
L 3597 4634 
L 3597 4263 
z
" transform="scale(0.015625)"/>
      <path id="IPAexGothic-2e" d="M 1184 63 
L 494 63 
L 494 753 
L 1184 753 
L 1184 63 
z
" transform="scale(0.015625)"/>
      <path id="IPAexGothic-38" d="M 2541 2425 
Q 3700 2031 3700 1197 
Q 3700 541 3100 197 
Q 2663 -56 2016 -56 
Q 1366 -56 928 197 
Q 347 531 347 1178 
Q 347 1988 1409 2381 
L 1409 2400 
Q 481 2734 481 3509 
Q 481 4100 981 4456 
Q 1406 4756 2019 4756 
Q 2703 4756 3131 4403 
Q 3553 4069 3553 3566 
Q 3553 2706 2541 2444 
L 2541 2425 
z
M 2022 2625 
Q 2997 2856 2997 3528 
Q 2997 3916 2675 4150 
Q 2413 4347 2016 4347 
Q 1606 4347 1331 4128 
Q 1050 3897 1050 3522 
Q 1050 3150 1350 2925 
Q 1494 2809 1722 2722 
Q 1984 2616 2022 2625 
z
M 1978 2209 
Q 922 1931 922 1216 
Q 922 775 1313 556 
Q 1606 391 2009 391 
Q 2575 391 2881 697 
Q 3106 922 3106 1250 
Q 3106 1594 2794 1850 
Q 2609 1994 2350 2100 
Q 2047 2222 1978 2209 
z
" transform="scale(0.015625)"/>
     </defs>
     <use xlink:href="#IPAexGothic-34"/>
     <use xlink:href="#IPAexGothic-37" transform="translate(62.988281 0)"/>
     <use xlink:href="#IPAexGothic-2e" transform="translate(125.976562 0)"/>
     <use xlink:href="#IPAexGothic-38" transform="translate(152.392578 0)"/>
    </g>
   </g>
   <g id="text_2">
    <!-- UU -->
    <g transform="translate(70.922656 42.48) scale(0.11 -0.11)">
     <defs>
      <path id="IPAexGothic-55" d="M 4219 4634 
L 4219 1631 
Q 4219 994 3906 594 
Q 3400 -63 2388 -63 
Q 1372 -63 856 594 
Q 550 988 550 1631 
L 550 4634 
L 1113 4634 
L 1113 1700 
Q 1113 1134 1388 831 
Q 1753 428 2388 428 
Q 3031 428 3388 831 
Q 3663 1144 3663 1700 
L 3663 4634 
L 4219 4634 
z
" transform="scale(0.015625)"/>
     </defs>
     <use xlink:href="#IPAexGothic-55"/>
     <use xlink:href="#IPAexGothic-55" transform="translate(74.707031 0)"/>
    </g>
   </g>
  </g>
  <g id="axes_2">
   <g id="patch_3">
    <path d="M 162.550668 141.02 
L 295.729332 141.02 
L 295.729332 48.48 
L 162.550668 48.48 
z
" style="fill: #ffffff"/>
   </g>
   <g id="FillBetweenPolyCollection_2">
    <defs>
     <path id="mbb3fc1f896" d="M 168.604244 -165.586364 
L 168.604244 -236.195386 
L 179.610745 -245.963914 
L 190.617246 -240.247287 
L 201.623747 -238.696526 
L 212.630248 -235.741836 
L 223.636749 -243.622631 
L 234.643251 -237.170419 
L 245.649752 -245.146817 
L 256.656253 -238.442142 
L 267.662754 -241.003095 
L 278.669255 -235.241039 
L 289.675756 -249.713636 
L 289.675756 -165.586364 
L 289.675756 -165.586364 
L 278.669255 -165.586364 
L 267.662754 -165.586364 
L 256.656253 -165.586364 
L 245.649752 -165.586364 
L 234.643251 -165.586364 
L 223.636749 -165.586364 
L 212.630248 -165.586364 
L 201.623747 -165.586364 
L 190.617246 -165.586364 
L 179.610745 -165.586364 
L 168.604244 -165.586364 
z
" style="stroke: #bae6fd; stroke-opacity: 0.15"/>
    </defs>
    <g clip-path="url(#pb57cc637bd)">
     <use xlink:href="#mbb3fc1f896" x="0" y="302.4" style="fill: #bae6fd; fill-opacity: 0.15; stroke: #bae6fd; stroke-opacity: 0.15"/>
    </g>
   </g>
   <g id="matplotlib.axis_3">
    <g id="xtick_4">
     <g id="line2d_5">
      <g>
       <use xlink:href="#m8bf1744fa4" x="168.604244" y="141.02" style="stroke: #000000; stroke-width: 0.8"/>
      </g>
     </g>
    </g>
    <g id="xtick_5">
     <g id="line2d_6">
      <g>
       <use xlink:href="#m8bf1744fa4" x="223.636749" y="141.02" style="stroke: #000000; stroke-width: 0.8"/>
      </g>
     </g>
    </g>
    <g id="xtick_6">
     <g id="line2d_7">
      <g>
       <use xlink:href="#m8bf1744fa4" x="289.675756" y="141.02" style="stroke: #000000; stroke-width: 0.8"/>
      </g>
     </g>
    </g>
   </g>
   <g id="matplotlib.axis_4"/>
   <g id="line2d_8">
    <path d="M 168.604244 66.204614 
L 179.610745 56.436086 
L 190.617246 62.152713 
L 201.623747 63.703474 
L 212.630248 66.658164 
L 223.636749 58.777369 
L 234.643251 65.229581 
L 245.649752 57.253183 
L 256.656253 63.957858 
L 267.662754 61.396905 
L 278.669255 67.158961 
L 289.675756 52.686364 
" clip-path="url(#pb57cc637bd)" style="fill: none; stroke: #0ea5e9; stroke-width: 1.8; stroke-linecap: square"/>
   </g>
   <g id="text_3">
    <!-- 139.1 -->
    <g transform="translate(271.227313 50.976364) scale(0.09 -0.09)">
     <defs>
      <path id="IPAexGothic-31" d="M 2463 63 
L 1900 63 
L 1900 4103 
Q 1372 3922 788 3797 
L 684 4231 
Q 1519 4441 2106 4731 
L 2463 4731 
L 2463 63 
z
" transform="scale(0.015625)"/>
      <path id="IPAexGothic-33" d="M 2381 2419 
Q 3506 2216 3506 1278 
Q 3506 716 3128 356 
Q 2709 -31 1944 -31 
Q 797 -31 288 881 
L 756 1131 
Q 1109 441 1938 441 
Q 2425 441 2694 691 
Q 2950 928 2950 1291 
Q 2950 1719 2566 1978 
Q 2216 2213 1644 2213 
L 1363 2213 
L 1363 2669 
L 1656 2669 
Q 2231 2669 2534 2888 
Q 2859 3119 2859 3509 
Q 2859 3934 2494 4138 
Q 2259 4278 1931 4278 
Q 1238 4278 903 3578 
L 434 3803 
Q 897 4725 1938 4725 
Q 2597 4725 3006 4394 
Q 3416 4069 3416 3534 
Q 3416 3028 3019 2706 
Q 2763 2500 2381 2444 
L 2381 2419 
z
" transform="scale(0.015625)"/>
      <path id="IPAexGothic-39" d="M 2984 2356 
Q 2544 1716 1813 1716 
Q 1253 1716 847 2056 
Q 366 2459 366 3163 
Q 366 3813 769 4266 
Q 1181 4725 1869 4725 
Q 2800 4725 3241 3950 
Q 3559 3378 3559 2472 
Q 3559 1250 3041 588 
Q 2553 -31 1769 -31 
Q 859 -31 391 703 
L 853 953 
Q 1156 428 1753 428 
Q 2922 428 3009 2356 
L 2984 2356 
z
M 1888 4278 
Q 1450 4278 1172 3950 
Q 922 3653 922 3200 
Q 922 2741 1159 2478 
Q 1434 2163 1906 2163 
Q 2431 2163 2728 2572 
Q 2925 2847 2925 3169 
Q 2925 3553 2694 3863 
Q 2375 4278 1888 4278 
z
" transform="scale(0.015625)"/>
     </defs>
     <use xlink:href="#IPAexGothic-31"/>
     <use xlink:href="#IPAexGothic-33" transform="translate(62.988281 0)"/>
     <use xlink:href="#IPAexGothic-39" transform="translate(125.976562 0)"/>
     <use xlink:href="#IPAexGothic-2e" transform="translate(188.964844 0)"/>
     <use xlink:href="#IPAexGothic-31" transform="translate(215.380859 0)"/>
    </g>
   </g>
   <g id="text_4">
    <!-- PV -->
    <g transform="translate(222.219453 42.48) scale(0.11 -0.11)">
     <defs>
      <path id="IPAexGothic-50" d="M 609 4634 
L 1941 4634 
Q 3688 4634 3688 3322 
Q 3688 1934 1906 1934 
L 1172 1934 
L 1172 63 
L 609 63 
L 609 4634 
z
M 1172 2381 
L 1800 2381 
Q 3100 2381 3100 3316 
Q 3100 4181 1894 4181 
L 1172 4181 
L 1172 2381 
z
" transform="scale(0.015625)"/>
      <path id="IPAexGothic-56" d="M 4078 4634 
L 2222 0 
L 1806 0 
L -6 4634 
L 622 4634 
L 1703 1766 
Q 1916 1194 2034 784 
L 2053 784 
Q 2188 1256 2381 1766 
L 3450 4634 
L 4078 4634 
z
" transform="scale(0.015625)"/>
     </defs>
     <use xlink:href="#IPAexGothic-50"/>
     <use xlink:href="#IPAexGothic-56" transform="translate(62.109375 0)"/>
    </g>
   </g>
  </g>
  <g id="axes_3">
   <g id="patch_4">
    <path d="M 312.550668 141.02 
L 445.729332 141.02 
L 445.729332 48.48 
L 312.550668 48.48 
z
" style="fill: #ffffff"/>
   </g>
   <g id="FillBetweenPolyCollection_3">
    <defs>
     <path id="mcd8d1913fa" d="M 318.604244 -165.586364 
L 318.604244 -167.463638 
L 329.610745 -174.372627 
L 340.617246 -183.696547 
L 351.623747 -188.313892 
L 362.630248 -198.389743 
L 373.636749 -202.622809 
L 384.643251 -212.792043 
L 395.649752 -217.592656 
L 406.656253 -223.686646 
L 417.662754 -233.087445 
L 428.669255 -239.056056 
L 439.675756 -249.713636 
L 439.675756 -165.586364 
L 439.675756 -165.586364 
L 428.669255 -165.586364 
L 417.662754 -165.586364 
L 406.656253 -165.586364 
L 395.649752 -165.586364 
L 384.643251 -165.586364 
L 373.636749 -165.586364 
L 362.630248 -165.586364 
L 351.623747 -165.586364 
L 340.617246 -165.586364 
L 329.610745 -165.586364 
L 318.604244 -165.586364 
z
" style="stroke: #bae6fd; stroke-opacity: 0.15"/>
    </defs>
    <g clip-path="url(#p7ab1193f8d)">
     <use xlink:href="#mcd8d1913fa" x="0" y="302.4" style="fill: #bae6fd; fill-opacity: 0.15; stroke: #bae6fd; stroke-opacity: 0.15"/>
    </g>
   </g>
   <g id="matplotlib.axis_5">
    <g id="xtick_7">
     <g id="line2d_9">
      <g>
       <use xlink:href="#m8bf1744fa4" x="318.604244" y="141.02" style="stroke: #000000; stroke-width: 0.8"/>
      </g>
     </g>
    </g>
    <g id="xtick_8">
     <g id="line2d_10">
      <g>
       <use xlink:href="#m8bf1744fa4" x="373.636749" y="141.02" style="stroke: #000000; stroke-width: 0.8"/>
      </g>
     </g>
    </g>
    <g id="xtick_9">
     <g id="line2d_11">
      <g>
       <use xlink:href="#m8bf1744fa4" x="439.675756" y="141.02" style="stroke: #000000; stroke-width: 0.8"/>
      </g>
     </g>
    </g>
   </g>
   <g id="matplotlib.axis_6"/>
   <g id="line2d_12">
    <path d="M 318.604244 134.936362 
L 329.610745 128.027373 
L 340.617246 118.703453 
L 351.623747 114.086108 
L 362.630248 104.010257 
L 373.636749 99.777191 
L 384.643251 89.607957 
L 395.649752 84.807344 
L 406.656253 78.713354 
L 417.662754 69.312555 
L 428.669255 63.343944 
L 439.675756 52.686364 
" clip-path="url(#p7ab1193f8d)" style="fill: none; stroke: #0ea5e9; stroke-width: 1.8; stroke-linecap: square"/>
   </g>
   <g id="text_5">
    <!-- 8.3 -->
    <g transform="translate(432.5645 50.976364) scale(0.09 -0.09)">
     <use xlink:href="#IPAexGothic-38"/>
     <use xlink:href="#IPAexGothic-2e" transform="translate(62.988281 0)"/>
     <use xlink:href="#IPAexGothic-33" transform="translate(89.404297 0)"/>
    </g>
   </g>
   <g id="text_6">
    <!-- CVR -->
    <g transform="translate(368.083281 42.48) scale(0.11 -0.11)">
     <defs>
      <path id="IPAexGothic-43" d="M 4353 1088 
Q 4181 694 3859 428 
Q 3313 -31 2559 -31 
Q 1588 -31 959 653 
Q 378 1294 378 2331 
Q 378 3406 1013 4078 
Q 1619 4725 2534 4725 
Q 3813 4725 4322 3628 
L 3809 3391 
Q 3425 4238 2541 4238 
Q 1891 4238 1453 3744 
Q 994 3216 994 2322 
Q 994 1550 1384 1056 
Q 1841 472 2563 472 
Q 3456 472 3878 1319 
L 4353 1088 
z
" transform="scale(0.015625)"/>
      <path id="IPAexGothic-52" d="M 4072 63 
L 3394 63 
Q 3138 641 2828 1197 
Q 2584 1641 2344 1825 
Q 2050 2044 1625 2044 
L 1172 2044 
L 1172 63 
L 609 63 
L 609 4634 
L 2009 4634 
Q 2713 4634 3131 4378 
Q 3688 4044 3688 3381 
Q 3688 2784 3181 2459 
Q 2906 2272 2522 2216 
L 2522 2197 
Q 2941 2050 3247 1581 
Q 3516 1166 4072 63 
z
M 1172 2478 
L 1869 2478 
Q 3106 2478 3106 3369 
Q 3106 4181 1928 4181 
L 1172 4181 
L 1172 2478 
z
" transform="scale(0.015625)"/>
     </defs>
     <use xlink:href="#IPAexGothic-43"/>
     <use xlink:href="#IPAexGothic-56" transform="translate(72.509766 0)"/>
     <use xlink:href="#IPAexGothic-52" transform="translate(136.230469 0)"/>
    </g>
   </g>
  </g>
  <g id="axes_4">
   <g id="patch_5">
    <path d="M 12.550668 258.28 
L 145.729332 258.28 
L 145.729332 165.74 
L 12.550668 165.74 
z
" style="fill: #ffffff"/>
   </g>
   <g id="FillBetweenPolyCollection_4">
    <defs>
     <path id="md8e4d41633" d="M 18.604244 -48.326364 
L 18.604244 -116.284957 
L 29.610745 -118.893736 
L 40.617246 -118.265945 
L 51.623747 -117.541625 
L 62.630248 -119.77246 
L 73.636749 -124.29829 
L 84.643251 -120.749907 
L 95.649752 -119.547724 
L 106.656253 -119.671231 
L 117.662754 -123.21034 
L 128.669255 -122.190019 
L 139.675756 -132.453636 
L 139.675756 -48.326364 
L 139.675756 -48.326364 
L 128.669255 -48.326364 
L 117.662754 -48.326364 
L 106.656253 -48.326364 
L 95.649752 -48.326364 
L 84.643251 -48.326364 
L 73.636749 -48.326364 
L 62.630248 -48.326364 
L 51.623747 -48.326364 
L 40.617246 -48.326364 
L 29.610745 -48.326364 
L 18.604244 -48.326364 
z
" style="stroke: #bae6fd; stroke-opacity: 0.15"/>
    </defs>
    <g clip-path="url(#p2835328c9e)">
     <use xlink:href="#md8e4d41633" x="0" y="302.4" style="fill: #bae6fd; fill-opacity: 0.15; stroke: #bae6fd; stroke-opacity: 0.15"/>
    </g>
   </g>
   <g id="matplotlib.axis_7">
    <g id="xtick_10">
     <g id="line2d_13">
      <g>
       <use xlink:href="#m8bf1744fa4" x="18.604244" y="258.28" style="stroke: #000000; stroke-width: 0.8"/>
      </g>
     </g>
     <g id="text_7">
      <!-- 1月 -->
      <g transform="translate(12.084869 271.2725) scale(0.08 -0.08)">
       <defs>
        <path id="IPAexGothic-6708" d="M 5044 4984 
L 5044 256 
Q 5044 -78 4869 -203 
Q 4734 -300 4403 -300 
Q 3894 -300 3253 -247 
L 3169 244 
Q 3750 159 4294 159 
Q 4503 159 4547 263 
Q 4569 313 4569 438 
L 4569 1672 
L 1953 1672 
Q 1906 956 1716 475 
Q 1538 6 1116 -472 
L 744 -63 
Q 1259 475 1403 1244 
Q 1500 1772 1500 2650 
L 1500 4984 
L 5044 4984 
z
M 1981 4569 
L 1981 3541 
L 4569 3541 
L 4569 4569 
L 1981 4569 
z
M 1981 3144 
L 1981 2556 
Q 1981 2288 1975 2147 
L 1975 2069 
L 4569 2069 
L 4569 3144 
L 1981 3144 
z
" transform="scale(0.015625)"/>
       </defs>
       <use xlink:href="#IPAexGothic-31"/>
       <use xlink:href="#IPAexGothic-6708" transform="translate(62.988281 0)"/>
      </g>
     </g>
    </g>
    <g id="xtick_11">
     <g id="line2d_14">
      <g>
       <use xlink:href="#m8bf1744fa4" x="73.636749" y="258.28" style="stroke: #000000; stroke-width: 0.8"/>
      </g>
     </g>
     <g id="text_8">
      <!-- 6月 -->
      <g transform="translate(67.117374 271.2725) scale(0.08 -0.08)">
       <defs>
        <path id="IPAexGothic-36" d="M 1056 2328 
Q 1509 2981 2234 2981 
Q 2906 2981 3316 2513 
Q 3675 2106 3675 1522 
Q 3675 884 3272 434 
Q 2853 -31 2178 -31 
Q 1375 -31 922 581 
Q 481 1178 481 2228 
Q 481 3425 1013 4109 
Q 1494 4725 2272 4725 
Q 3191 4725 3609 4025 
L 3150 3775 
Q 2894 4266 2300 4266 
Q 1119 4266 1031 2328 
L 1056 2328 
z
M 2141 2547 
Q 1684 2547 1384 2206 
Q 1116 1900 1116 1541 
Q 1116 1156 1353 844 
Q 1672 428 2159 428 
Q 2669 428 2941 844 
Q 3125 1128 3125 1503 
Q 3125 1944 2881 2228 
Q 2600 2547 2141 2547 
z
" transform="scale(0.015625)"/>
       </defs>
       <use xlink:href="#IPAexGothic-36"/>
       <use xlink:href="#IPAexGothic-6708" transform="translate(62.988281 0)"/>
      </g>
     </g>
    </g>
    <g id="xtick_12">
     <g id="line2d_15">
      <g>
       <use xlink:href="#m8bf1744fa4" x="139.675756" y="258.28" style="stroke: #000000; stroke-width: 0.8"/>
      </g>
     </g>
     <g id="text_9">
      <!-- 12月 -->
      <g transform="translate(130.637006 271.2725) scale(0.08 -0.08)">
       <defs>
        <path id="IPAexGothic-32" d="M 3659 63 
L 447 63 
L 447 594 
Q 825 1475 1894 2203 
L 2072 2322 
Q 2619 2697 2791 2906 
Q 2988 3153 2988 3444 
Q 2988 3772 2756 4003 
Q 2500 4259 2084 4259 
Q 1250 4259 991 3328 
L 497 3506 
Q 853 4725 2116 4725 
Q 2806 4725 3216 4316 
Q 3575 3947 3575 3425 
Q 3575 3038 3344 2722 
Q 3131 2416 2366 1938 
L 2231 1856 
Q 1256 1253 978 569 
L 3659 569 
L 3659 63 
z
" transform="scale(0.015625)"/>
       </defs>
       <use xlink:href="#IPAexGothic-31"/>
       <use xlink:href="#IPAexGothic-32" transform="translate(62.988281 0)"/>
       <use xlink:href="#IPAexGothic-6708" transform="translate(125.976562 0)"/>
      </g>
     </g>
    </g>
    <g id="text_10">
     <!-- 月 -->
     <g transform="translate(71.94 287.579) scale(0.144 -0.144)">
      <use xlink:href="#IPAexGothic-6708"/>
     </g>
    </g>
   </g>
   <g id="matplotlib.axis_8"/>
   <g id="line2d_16">
    <path d="M 18.604244 186.115043 
L 29.610745 183.506264 
L 40.617246 184.134055 
L 51.623747 184.858375 
L 62.630248 182.62754 
L 73.636749 178.10171 
L 84.643251 181.650093 
L 95.649752 182.852276 
L 106.656253 182.728769 
L 117.662754 179.18966 
L 128.669255 180.209981 
L 139.675756 169.946364 
" clip-path="url(#p2835328c9e)" style="fill: none; stroke: #0ea5e9; stroke-width: 1.8; stroke-linecap: square"/>
   </g>
   <g id="text_11">
    <!-- 70.6 -->
    <g transform="translate(126.895907 168.236364) scale(0.09 -0.09)">
     <defs>
      <path id="IPAexGothic-30" d="M 2038 4725 
Q 2881 4725 3334 3944 
Q 3694 3325 3694 2344 
Q 3694 1372 3334 741 
Q 2888 -31 2016 -31 
Q 1147 -31 700 741 
Q 341 1372 341 2350 
Q 341 3713 1000 4334 
Q 1419 4725 2038 4725 
z
M 2016 4266 
Q 1516 4266 1228 3759 
Q 934 3247 934 2344 
Q 934 1456 1222 947 
Q 1513 447 2016 447 
Q 2619 447 2909 1153 
Q 3100 1622 3100 2375 
Q 3100 3256 2806 3759 
Q 2509 4266 2016 4266 
z
" transform="scale(0.015625)"/>
     </defs>
     <use xlink:href="#IPAexGothic-37"/>
     <use xlink:href="#IPAexGothic-30" transform="translate(62.988281 0)"/>
     <use xlink:href="#IPAexGothic-2e" transform="translate(125.976562 0)"/>
     <use xlink:href="#IPAexGothic-36" transform="translate(152.392578 0)"/>
    </g>
   </g>
   <g id="text_12">
    <!-- 注文数 -->
    <g transform="translate(62.64 159.74) scale(0.11 -0.11)">
     <defs>
      <path id="IPAexGothic-6ce8" d="M 4147 141 
L 6016 141 
L 6016 -275 
L 1853 -275 
L 1853 141 
L 3678 141 
L 3678 1741 
L 2231 1741 
L 2231 2163 
L 3678 2163 
L 3678 3506 
L 2034 3506 
L 2034 3922 
L 5838 3922 
L 5838 3506 
L 4147 3506 
L 4147 2163 
L 5703 2163 
L 5703 1741 
L 4147 1741 
L 4147 141 
z
M 466 0 
Q 1144 847 1688 2022 
L 2028 1691 
Q 1556 584 838 -403 
L 466 0 
z
M 1419 2297 
Q 944 2813 434 3188 
L 753 3547 
Q 1281 3191 1753 2681 
L 1419 2297 
z
M 1619 3775 
Q 1159 4331 659 4691 
L 991 5044 
Q 1509 4650 1963 4166 
L 1619 3775 
z
M 4116 4050 
Q 3572 4566 2872 4978 
L 3200 5331 
Q 3850 4953 4472 4434 
L 4116 4050 
z
" transform="scale(0.015625)"/>
      <path id="IPAexGothic-6587" d="M 1563 3609 
L 456 3609 
L 456 4025 
L 2934 4025 
L 2934 5172 
L 3422 5172 
L 3422 4025 
L 5950 4025 
L 5950 3609 
L 4747 3609 
Q 4378 2169 3588 1272 
Q 4491 584 5922 203 
L 5566 -275 
Q 4147 181 3247 947 
Q 2222 56 797 -384 
L 456 91 
Q 2013 466 2913 1253 
Q 2031 2166 1563 3609 
z
M 2044 3609 
Q 2469 2347 3234 1581 
Q 3928 2388 4228 3609 
L 2044 3609 
z
" transform="scale(0.015625)"/>
      <path id="IPAexGothic-6570" d="M 2847 1553 
Q 2741 1006 2425 534 
Q 2625 441 3091 203 
L 2809 -188 
Q 2541 0 2144 209 
Q 1569 -291 703 -500 
L 422 -125 
Q 1263 19 1747 406 
Q 1222 650 734 816 
Q 975 1172 1147 1503 
L 1172 1553 
L 359 1553 
L 359 1925 
L 1344 1925 
Q 1406 2066 1569 2475 
L 1691 2450 
L 1691 3372 
Q 1250 2738 550 2303 
L 275 2663 
Q 1019 3013 1528 3641 
L 378 3641 
L 378 4006 
L 1691 4006 
L 1691 5313 
L 2113 5313 
L 2113 4006 
L 3297 4006 
L 3297 3641 
L 2113 3641 
L 2113 3513 
Q 2659 3291 3175 2963 
L 2956 2584 
Q 2553 2922 2113 3159 
L 2113 2372 
L 1966 2372 
Q 1928 2288 1872 2141 
Q 1806 1975 1784 1925 
L 3378 1925 
L 3378 1553 
L 2847 1553 
z
M 2419 1553 
L 1613 1553 
Q 1478 1269 1313 997 
Q 1559 909 2047 703 
Q 2313 1047 2419 1553 
z
M 4363 1163 
Q 3953 1781 3738 2638 
Q 3575 2281 3428 2016 
L 3103 2406 
Q 3675 3444 3916 5291 
L 4363 5200 
Q 4284 4666 4197 4197 
L 6009 4197 
L 6009 3775 
L 5503 3775 
Q 5397 2275 4869 1191 
Q 5419 503 6144 75 
L 5822 -378 
Q 5188 106 4631 788 
Q 4113 34 3341 -463 
L 3031 -78 
Q 3888 406 4363 1163 
z
M 4588 1594 
Q 4938 2388 5059 3775 
L 4100 3775 
Q 4041 3519 3972 3288 
Q 3981 3250 3991 3194 
Q 4175 2256 4588 1594 
z
M 1003 4116 
Q 878 4544 638 4934 
L 1053 5094 
Q 1247 4788 1438 4269 
L 1003 4116 
z
M 2316 4269 
Q 2550 4688 2688 5131 
L 3128 4997 
Q 2966 4588 2675 4128 
L 2316 4269 
z
" transform="scale(0.015625)"/>
     </defs>
     <use xlink:href="#IPAexGothic-6ce8"/>
     <use xlink:href="#IPAexGothic-6587" transform="translate(100 0)"/>
     <use xlink:href="#IPAexGothic-6570" transform="translate(200 0)"/>
    </g>
   </g>
  </g>
  <g id="axes_5">
   <g id="patch_6">
    <path d="M 162.550668 258.28 
L 295.729332 258.28 
L 295.729332 165.74 
L 162.550668 165.74 
z
" style="fill: #ffffff"/>
   </g>
   <g id="FillBetweenPolyCollection_5">
    <defs>
     <path id="m9bf1045d89" d="M 168.604244 -61.974059 
L 168.604244 -48.326364 
L 179.610745 -56.017139 
L 190.617246 -64.346238 
L 201.623747 -72.844804 
L 212.630248 -79.580952 
L 223.636749 -86.531806 
L 234.643251 -94.273407 
L 245.649752 -102.301939 
L 256.656253 -111.146824 
L 267.662754 -116.91127 
L 278.669255 -125.344708 
L 289.675756 -132.453636 
L 289.675756 -61.974059 
L 289.675756 -61.974059 
L 278.669255 -61.974059 
L 267.662754 -61.974059 
L 256.656253 -61.974059 
L 245.649752 -61.974059 
L 234.643251 -61.974059 
L 223.636749 -61.974059 
L 212.630248 -61.974059 
L 201.623747 -61.974059 
L 190.617246 -61.974059 
L 179.610745 -61.974059 
L 168.604244 -61.974059 
z
" style="stroke: #bae6fd; stroke-opacity: 0.15"/>
    </defs>
    <g clip-path="url(#p8129400ac2)">
     <use xlink:href="#m9bf1045d89" x="0" y="302.4" style="fill: #bae6fd; fill-opacity: 0.15; stroke: #bae6fd; stroke-opacity: 0.15"/>
    </g>
   </g>
   <g id="matplotlib.axis_9">
    <g id="xtick_13">
     <g id="line2d_17">
      <g>
       <use xlink:href="#m8bf1744fa4" x="168.604244" y="258.28" style="stroke: #000000; stroke-width: 0.8"/>
      </g>
     </g>
     <g id="text_13">
      <!-- 1月 -->
      <g transform="translate(162.084869 271.2725) scale(0.08 -0.08)">
       <use xlink:href="#IPAexGothic-31"/>
       <use xlink:href="#IPAexGothic-6708" transform="translate(62.988281 0)"/>
      </g>
     </g>
    </g>
    <g id="xtick_14">
     <g id="line2d_18">
      <g>
       <use xlink:href="#m8bf1744fa4" x="223.636749" y="258.28" style="stroke: #000000; stroke-width: 0.8"/>
      </g>
     </g>
     <g id="text_14">
      <!-- 6月 -->
      <g transform="translate(217.117374 271.2725) scale(0.08 -0.08)">
       <use xlink:href="#IPAexGothic-36"/>
       <use xlink:href="#IPAexGothic-6708" transform="translate(62.988281 0)"/>
      </g>
     </g>
    </g>
    <g id="xtick_15">
     <g id="line2d_19">
      <g>
       <use xlink:href="#m8bf1744fa4" x="289.675756" y="258.28" style="stroke: #000000; stroke-width: 0.8"/>
      </g>
     </g>
     <g id="text_15">
      <!-- 12月 -->
      <g transform="translate(280.637006 271.2725) scale(0.08 -0.08)">
       <use xlink:href="#IPAexGothic-31"/>
       <use xlink:href="#IPAexGothic-32" transform="translate(62.988281 0)"/>
       <use xlink:href="#IPAexGothic-6708" transform="translate(125.976562 0)"/>
      </g>
     </g>
    </g>
    <g id="text_16">
     <!-- 月 -->
     <g transform="translate(221.94 287.579) scale(0.144 -0.144)">
      <use xlink:href="#IPAexGothic-6708"/>
     </g>
    </g>
   </g>
   <g id="matplotlib.axis_10"/>
   <g id="line2d_20">
    <path d="M 168.604244 254.073636 
L 179.610745 246.382861 
L 190.617246 238.053762 
L 201.623747 229.555196 
L 212.630248 222.819048 
L 223.636749 215.868194 
L 234.643251 208.126593 
L 245.649752 200.098061 
L 256.656253 191.253176 
L 267.662754 185.48873 
L 278.669255 177.055292 
L 289.675756 169.946364 
" clip-path="url(#p8129400ac2)" style="fill: none; stroke: #0ea5e9; stroke-width: 1.8; stroke-linecap: square"/>
   </g>
   <g id="text_17">
    <!-- 6.7 -->
    <g transform="translate(282.5645 168.236364) scale(0.09 -0.09)">
     <use xlink:href="#IPAexGothic-36"/>
     <use xlink:href="#IPAexGothic-2e" transform="translate(62.988281 0)"/>
     <use xlink:href="#IPAexGothic-37" transform="translate(89.404297 0)"/>
    </g>
   </g>
   <g id="text_18">
    <!-- 解約率 -->
    <g transform="translate(212.64 159.74) scale(0.11 -0.11)">
     <defs>
      <path id="IPAexGothic-89e3" d="M 4538 2222 
L 4538 2906 
L 4953 2906 
L 4953 2222 
L 5850 2222 
L 5850 1850 
L 4953 1850 
L 4953 1159 
L 6072 1159 
L 6072 775 
L 4953 775 
L 4953 -447 
L 4538 -447 
L 4538 775 
L 3303 775 
L 3303 1159 
L 4538 1159 
L 4538 1850 
L 3897 1850 
Q 3781 1528 3622 1269 
L 3303 1544 
Q 3600 2072 3706 2734 
L 4103 2663 
Q 4053 2416 4006 2222 
L 4538 2222 
z
M 2394 3803 
L 3141 3803 
L 3141 63 
Q 3141 -213 3006 -306 
Q 2900 -384 2622 -384 
Q 2250 -384 1919 -341 
L 1853 103 
Q 2278 31 2547 31 
Q 2744 31 2744 213 
L 2744 1319 
L 1241 1319 
Q 1191 303 722 -513 
L 394 -178 
Q 863 566 863 1869 
L 863 3181 
Q 738 3000 516 2741 
L 281 3094 
Q 1106 4053 1363 5319 
L 1797 5238 
Q 1747 5044 1719 4959 
L 1700 4891 
L 2653 4891 
L 2853 4684 
Q 2653 4238 2394 3803 
z
M 1809 3450 
L 1259 3450 
L 1259 2747 
L 1809 2747 
L 1809 3450 
z
M 2175 3450 
L 2175 2747 
L 2744 2747 
L 2744 3450 
L 2175 3450 
z
M 1809 2406 
L 1259 2406 
L 1259 1672 
L 1809 1672 
L 1809 2406 
z
M 2175 2406 
L 2175 1672 
L 2744 1672 
L 2744 2406 
L 2175 2406 
z
M 1969 3803 
Q 2172 4141 2322 4531 
L 1572 4531 
Q 1409 4100 1247 3803 
L 1969 3803 
z
M 4622 4594 
Q 4534 3469 3597 2897 
L 3297 3225 
Q 4088 3625 4191 4594 
L 3316 4594 
L 3316 4978 
L 5844 4978 
Q 5813 3791 5734 3422 
Q 5688 3194 5556 3103 
Q 5444 3031 5184 3031 
Q 4863 3031 4556 3078 
L 4500 3475 
Q 4819 3422 5044 3422 
Q 5266 3422 5313 3600 
Q 5372 3831 5400 4594 
L 4622 4594 
z
" transform="scale(0.015625)"/>
      <path id="IPAexGothic-7d04" d="M 1416 3028 
Q 956 3631 481 4072 
L 781 4397 
Q 916 4263 1044 4122 
Q 1409 4619 1722 5313 
L 2144 5119 
Q 1797 4484 1294 3841 
Q 1463 3638 1666 3359 
Q 2116 4009 2431 4563 
L 2834 4341 
Q 2159 3288 1519 2572 
Q 2209 2616 2491 2638 
Q 2306 2991 2203 3163 
L 2566 3341 
Q 2906 2816 3213 2059 
L 2803 1831 
Q 2716 2109 2631 2309 
Q 2266 2250 1997 2222 
L 1997 -447 
L 1569 -447 
L 1569 2169 
L 1472 2163 
Q 1131 2128 488 2081 
L 347 2516 
L 731 2528 
L 1025 2547 
L 1063 2591 
Q 1284 2853 1416 3028 
z
M 5916 4147 
Q 5869 1009 5653 103 
Q 5578 -206 5344 -313 
Q 5175 -384 4847 -384 
Q 4438 -384 4028 -341 
L 3938 147 
Q 4425 69 4834 69 
Q 5116 69 5191 247 
Q 5381 709 5447 3444 
L 5453 3731 
L 3866 3731 
Q 3644 3116 3303 2638 
L 2984 2981 
Q 3503 3719 3784 5172 
L 4231 5063 
Q 4150 4659 4006 4147 
L 5916 4147 
z
M 419 213 
Q 697 825 822 1766 
L 1244 1691 
Q 1097 609 847 -13 
L 419 213 
z
M 2631 319 
Q 2478 1069 2216 1734 
L 2594 1863 
Q 2853 1313 3078 538 
L 2631 319 
z
M 4316 1288 
Q 4022 2056 3572 2631 
L 3931 2847 
Q 4400 2269 4713 1538 
L 4316 1288 
z
" transform="scale(0.015625)"/>
      <path id="IPAexGothic-7387" d="M 3022 2847 
Q 3338 3231 3684 3744 
L 4053 3525 
Q 3506 2766 2919 2181 
L 3266 2200 
Q 3575 2209 3825 2234 
Q 3728 2406 3575 2616 
L 3913 2772 
Q 4244 2350 4541 1766 
L 4156 1547 
Q 4084 1753 3997 1913 
L 3856 1894 
Q 3709 1875 3416 1850 
L 3416 1228 
L 6084 1228 
L 6084 819 
L 3416 819 
L 3416 -447 
L 2941 -447 
L 2941 819 
L 322 819 
L 322 1228 
L 2941 1228 
L 2941 1803 
L 2881 1797 
Q 2306 1759 2031 1747 
L 1903 2163 
Q 2319 2163 2416 2169 
Q 2522 2269 2772 2553 
Q 2347 3028 1916 3347 
L 2184 3653 
L 2447 3425 
Q 2681 3744 2869 4128 
L 547 4128 
L 547 4525 
L 2941 4525 
L 2941 5313 
L 3416 5313 
L 3416 4525 
L 5853 4525 
L 5853 4128 
L 2972 4128 
L 3278 3981 
Q 2991 3509 2697 3188 
Q 2850 3041 3022 2847 
z
M 1497 2822 
Q 1128 3263 691 3566 
L 1000 3847 
Q 1409 3588 1831 3156 
L 1497 2822 
z
M 4219 3078 
Q 4794 3478 5147 3897 
L 5538 3616 
Q 5078 3178 4494 2803 
L 4219 3078 
z
M 5556 1631 
Q 4997 2109 4372 2444 
L 4659 2741 
Q 5356 2381 5894 1984 
L 5556 1631 
z
M 538 1925 
Q 1306 2297 1881 2803 
L 2075 2456 
Q 1622 2034 813 1528 
L 538 1925 
z
" transform="scale(0.015625)"/>
     </defs>
     <use xlink:href="#IPAexGothic-89e3"/>
     <use xlink:href="#IPAexGothic-7d04" transform="translate(100 0)"/>
     <use xlink:href="#IPAexGothic-7387" transform="translate(200 0)"/>
    </g>
   </g>
  </g>
  <g id="axes_6">
   <g id="patch_7">
    <path d="M 312.550668 258.28 
L 445.729332 258.28 
L 445.729332 165.74 
L 312.550668 165.74 
z
" style="fill: #ffffff"/>
   </g>
   <g id="FillBetweenPolyCollection_6">
    <defs>
     <path id="me8c8a689f7" d="M 318.604244 -48.326364 
L 318.604244 -109.915669 
L 329.610745 -112.163971 
L 340.617246 -107.763934 
L 351.623747 -122.998981 
L 362.630248 -117.448299 
L 373.636749 -117.045881 
L 384.643251 -117.723326 
L 395.649752 -121.902548 
L 406.656253 -124.90269 
L 417.662754 -128.837479 
L 428.669255 -128.810956 
L 439.675756 -132.453636 
L 439.675756 -48.326364 
L 439.675756 -48.326364 
L 428.669255 -48.326364 
L 417.662754 -48.326364 
L 406.656253 -48.326364 
L 395.649752 -48.326364 
L 384.643251 -48.326364 
L 373.636749 -48.326364 
L 362.630248 -48.326364 
L 351.623747 -48.326364 
L 340.617246 -48.326364 
L 329.610745 -48.326364 
L 318.604244 -48.326364 
z
" style="stroke: #bae6fd; stroke-opacity: 0.15"/>
    </defs>
    <g clip-path="url(#p287f68ec9b)">
     <use xlink:href="#me8c8a689f7" x="0" y="302.4" style="fill: #bae6fd; fill-opacity: 0.15; stroke: #bae6fd; stroke-opacity: 0.15"/>
    </g>
   </g>
   <g id="matplotlib.axis_11">
    <g id="xtick_16">
     <g id="line2d_21">
      <g>
       <use xlink:href="#m8bf1744fa4" x="318.604244" y="258.28" style="stroke: #000000; stroke-width: 0.8"/>
      </g>
     </g>
     <g id="text_19">
      <!-- 1月 -->
      <g transform="translate(312.084869 271.2725) scale(0.08 -0.08)">
       <use xlink:href="#IPAexGothic-31"/>
       <use xlink:href="#IPAexGothic-6708" transform="translate(62.988281 0)"/>
      </g>
     </g>
    </g>
    <g id="xtick_17">
     <g id="line2d_22">
      <g>
       <use xlink:href="#m8bf1744fa4" x="373.636749" y="258.28" style="stroke: #000000; stroke-width: 0.8"/>
      </g>
     </g>
     <g id="text_20">
      <!-- 6月 -->
      <g transform="translate(367.117374 271.2725) scale(0.08 -0.08)">
       <use xlink:href="#IPAexGothic-36"/>
       <use xlink:href="#IPAexGothic-6708" transform="translate(62.988281 0)"/>
      </g>
     </g>
    </g>
    <g id="xtick_18">
     <g id="line2d_23">
      <g>
       <use xlink:href="#m8bf1744fa4" x="439.675756" y="258.28" style="stroke: #000000; stroke-width: 0.8"/>
      </g>
     </g>
     <g id="text_21">
      <!-- 12月 -->
      <g transform="translate(430.637006 271.2725) scale(0.08 -0.08)">
       <use xlink:href="#IPAexGothic-31"/>
       <use xlink:href="#IPAexGothic-32" transform="translate(62.988281 0)"/>
       <use xlink:href="#IPAexGothic-6708" transform="translate(125.976562 0)"/>
      </g>
     </g>
    </g>
    <g id="text_22">
     <!-- 月 -->
     <g transform="translate(371.94 287.579) scale(0.144 -0.144)">
      <use xlink:href="#IPAexGothic-6708"/>
     </g>
    </g>
   </g>
   <g id="matplotlib.axis_12"/>
   <g id="line2d_24">
    <path d="M 318.604244 192.484331 
L 329.610745 190.236029 
L 340.617246 194.636066 
L 351.623747 179.401019 
L 362.630248 184.951701 
L 373.636749 185.354119 
L 384.643251 184.676674 
L 395.649752 180.497452 
L 406.656253 177.49731 
L 417.662754 173.562521 
L 428.669255 173.589044 
L 439.675756 169.946364 
" clip-path="url(#p287f68ec9b)" style="fill: none; stroke: #0ea5e9; stroke-width: 1.8; stroke-linecap: square"/>
   </g>
   <g id="text_23">
    <!-- 30.6 -->
    <g transform="translate(426.895907 168.236364) scale(0.09 -0.09)">
     <use xlink:href="#IPAexGothic-33"/>
     <use xlink:href="#IPAexGothic-30" transform="translate(62.988281 0)"/>
     <use xlink:href="#IPAexGothic-2e" transform="translate(125.976562 0)"/>
     <use xlink:href="#IPAexGothic-36" transform="translate(152.392578 0)"/>
    </g>
   </g>
   <g id="text_24">
    <!-- NPS -->
    <g transform="translate(368.327344 159.74) scale(0.11 -0.11)">
     <defs>
      <path id="IPAexGothic-4e" d="M 4244 63 
L 3731 63 
L 1697 3150 
Q 1466 3500 1141 4097 
L 1116 4097 
L 1128 3797 
Q 1159 2803 1159 2469 
L 1159 63 
L 609 63 
L 609 4634 
L 1366 4634 
L 3113 1978 
Q 3453 1447 3713 966 
L 3738 966 
Q 3694 1897 3694 2469 
L 3694 4634 
L 4244 4634 
L 4244 63 
z
" transform="scale(0.015625)"/>
      <path id="IPAexGothic-53" d="M 2919 3641 
Q 2563 4259 1853 4259 
Q 1453 4259 1213 4009 
Q 1028 3803 1028 3534 
Q 1028 3238 1266 3047 
Q 1444 2913 1984 2688 
L 2200 2597 
Q 2925 2306 3191 1953 
Q 3422 1644 3422 1259 
Q 3422 644 2969 288 
Q 2559 -31 1931 -31 
Q 881 -31 313 766 
L 753 1100 
Q 1203 459 1938 459 
Q 2288 459 2534 625 
Q 2841 847 2841 1216 
Q 2841 1503 2616 1728 
Q 2375 1959 1728 2206 
L 1541 2278 
Q 453 2694 453 3481 
Q 453 4006 806 4347 
Q 1203 4725 1863 4725 
Q 2841 4725 3359 3956 
L 2919 3641 
z
" transform="scale(0.015625)"/>
     </defs>
     <use xlink:href="#IPAexGothic-4e"/>
     <use xlink:href="#IPAexGothic-50" transform="translate(75.976562 0)"/>
     <use xlink:href="#IPAexGothic-53" transform="translate(138.085938 0)"/>
    </g>
   </g>
  </g>
  <g id="text_25">
   <!-- 主要指標のスパークラインパネル -->
   <g transform="translate(125.4 16.534875) scale(0.14 -0.14)">
    <defs>
     <path id="IPAexGothic-4e3b" d="M 3419 3481 
L 3419 2188 
L 5409 2188 
L 5409 1766 
L 3419 1766 
L 3419 231 
L 5922 231 
L 5922 -197 
L 475 -197 
L 475 231 
L 2931 231 
L 2931 1766 
L 984 1766 
L 984 2188 
L 2931 2188 
L 2931 3481 
L 703 3481 
L 703 3909 
L 5697 3909 
L 5697 3481 
L 3419 3481 
z
M 3344 4031 
Q 2788 4494 1953 4934 
L 2363 5247 
Q 3066 4891 3753 4359 
L 3344 4031 
z
" transform="scale(0.015625)"/>
     <path id="IPAexGothic-8981" d="M 2278 4025 
L 2278 4581 
L 528 4581 
L 528 4978 
L 5856 4978 
L 5856 4581 
L 4081 4581 
L 4081 4025 
L 5522 4025 
L 5522 2547 
L 863 2547 
L 863 4025 
L 2278 4025 
z
M 2694 4025 
L 3659 4025 
L 3659 4581 
L 2694 4581 
L 2694 4025 
z
M 2278 3666 
L 1316 3666 
L 1316 2906 
L 2278 2906 
L 2278 3666 
z
M 2694 3666 
L 2694 2906 
L 3659 2906 
L 3659 3666 
L 2694 3666 
z
M 4081 3666 
L 4081 2906 
L 5075 2906 
L 5075 3666 
L 4081 3666 
z
M 3066 338 
Q 2547 503 1694 722 
L 1503 775 
Q 1816 1141 2066 1503 
L 447 1503 
L 447 1900 
L 2316 1900 
Q 2497 2225 2641 2516 
L 3084 2366 
Q 2984 2172 2834 1900 
L 5950 1900 
L 5950 1503 
L 4619 1503 
Q 4369 878 3988 484 
Q 4750 263 5797 -91 
L 5413 -488 
Q 4441 -100 3597 172 
Q 2706 -406 869 -531 
L 625 -97 
Q 2122 -28 3066 338 
z
M 3513 619 
Q 3934 1025 4134 1503 
L 2597 1503 
Q 2413 1213 2238 984 
L 2213 953 
Q 2656 853 3513 619 
z
" transform="scale(0.015625)"/>
     <path id="IPAexGothic-6307" d="M 1303 4006 
L 1303 5300 
L 1744 5300 
L 1744 4006 
L 2494 4006 
L 2494 3591 
L 1744 3591 
L 1744 2394 
Q 1997 2456 2538 2625 
L 2575 2247 
Q 1997 2047 1744 1966 
L 1744 -13 
Q 1744 -291 1609 -378 
Q 1500 -447 1219 -447 
Q 959 -447 606 -416 
L 522 56 
Q 859 0 1109 0 
Q 1303 0 1303 191 
L 1303 1831 
Q 941 1725 472 1606 
L 325 2047 
Q 1025 2197 1303 2272 
L 1303 3591 
L 413 3591 
L 413 4006 
L 1303 4006 
z
M 3184 4234 
Q 4325 4397 5309 4784 
L 5675 4422 
Q 4597 4034 3184 3859 
L 3184 3544 
Q 3184 3313 3356 3263 
Q 3513 3225 4344 3225 
Q 5372 3225 5475 3384 
Q 5544 3500 5572 4000 
L 6025 3884 
Q 5978 3200 5841 3028 
Q 5731 2878 5475 2841 
Q 5109 2791 4297 2791 
Q 3203 2791 2994 2888 
Q 2731 3003 2731 3328 
L 2731 5216 
L 3184 5216 
L 3184 4234 
z
M 5619 2394 
L 5619 -447 
L 5178 -447 
L 5178 -159 
L 3263 -159 
L 3263 -447 
L 2822 -447 
L 2822 2394 
L 5619 2394 
z
M 3263 2009 
L 3263 1325 
L 5178 1325 
L 5178 2009 
L 3263 2009 
z
M 3263 953 
L 3263 225 
L 5178 225 
L 5178 953 
L 3263 953 
z
" transform="scale(0.015625)"/>
     <path id="IPAexGothic-6a19" d="M 1113 2534 
Q 813 1522 384 794 
L 153 1250 
Q 763 2228 1063 3547 
L 294 3547 
L 294 3956 
L 1113 3956 
L 1113 5306 
L 1522 5306 
L 1522 3956 
L 2144 3956 
L 2144 3547 
L 1522 3547 
L 1522 3009 
Q 1991 2634 2309 2288 
L 2059 1844 
Q 1813 2222 1522 2550 
L 1522 -447 
L 1113 -447 
L 1113 2534 
z
M 3353 4109 
L 3353 4641 
L 2100 4641 
L 2100 5019 
L 5997 5019 
L 5997 4641 
L 4753 4641 
L 4753 4109 
L 5778 4109 
L 5778 2769 
L 2356 2769 
L 2356 4109 
L 3353 4109 
z
M 3756 4109 
L 4350 4109 
L 4350 4641 
L 3756 4641 
L 3756 4109 
z
M 3359 3756 
L 2772 3756 
L 2772 3122 
L 3359 3122 
L 3359 3756 
z
M 3756 3756 
L 3756 3122 
L 4350 3122 
L 4350 3756 
L 3756 3756 
z
M 4741 3756 
L 4741 3122 
L 5363 3122 
L 5363 3756 
L 4741 3756 
z
M 4300 1191 
L 4300 19 
Q 4300 -409 3809 -409 
Q 3469 -409 3175 -372 
L 3097 78 
Q 3416 0 3675 0 
Q 3866 0 3866 184 
L 3866 1191 
L 2100 1191 
L 2100 1563 
L 6072 1563 
L 6072 1191 
L 4300 1191 
z
M 2481 2350 
L 5669 2350 
L 5669 1984 
L 2481 1984 
L 2481 2350 
z
M 1938 13 
Q 2534 406 2938 1069 
L 3322 891 
Q 2903 150 2272 -306 
L 1938 13 
z
M 5722 -191 
Q 5166 459 4666 838 
L 4978 1088 
Q 5572 681 6094 134 
L 5722 -191 
z
" transform="scale(0.015625)"/>
     <path id="IPAexGothic-306e" d="M 3119 469 
Q 5275 766 5275 2425 
Q 5275 3453 4413 3925 
Q 4041 4116 3547 4159 
Q 3394 2525 2850 1400 
Q 2322 306 1722 306 
Q 1384 306 1084 666 
Q 609 1244 609 2003 
Q 609 3025 1397 3794 
Q 2184 4563 3431 4563 
Q 4306 4563 4928 4122 
Q 5813 3506 5813 2425 
Q 5813 438 3431 6 
L 3119 469 
z
M 3053 4147 
Q 2378 4044 1891 3641 
Q 1097 2981 1097 1991 
Q 1097 1366 1434 978 
Q 1581 813 1719 813 
Q 2022 813 2416 1625 
Q 2909 2638 3053 4147 
z
" transform="scale(0.015625)"/>
     <path id="IPAexGothic-30b9" d="M 4359 4481 
L 4716 4147 
Q 4328 3072 3647 2150 
Q 4659 1434 5659 453 
L 5234 19 
Q 4256 1088 3353 1778 
Q 2372 597 1044 -31 
L 653 403 
Q 3128 1453 4097 4000 
L 1241 3963 
L 1228 4453 
L 4359 4481 
z
" transform="scale(0.015625)"/>
     <path id="IPAexGothic-30d1" d="M 403 897 
Q 1447 2063 1947 3878 
L 2472 3694 
Q 1913 1772 872 538 
L 403 897 
z
M 5416 672 
Q 4669 2269 3659 3719 
L 4122 3963 
Q 5025 2728 5931 1019 
L 5416 672 
z
M 5228 5234 
Q 5538 5234 5750 5000 
Q 5931 4797 5931 4531 
Q 5931 4219 5697 4006 
Q 5497 3822 5228 3822 
Q 4916 3822 4703 4056 
Q 4519 4259 4519 4531 
Q 4519 4841 4753 5050 
Q 4956 5234 5228 5234 
z
M 5228 4953 
Q 5038 4953 4909 4813 
Q 4800 4691 4800 4531 
Q 4800 4341 4941 4213 
Q 5063 4103 5228 4103 
Q 5413 4103 5541 4244 
Q 5650 4366 5650 4531 
Q 5650 4716 5509 4844 
Q 5388 4953 5228 4953 
z
" transform="scale(0.015625)"/>
     <path id="IPAexGothic-30fc" d="M 588 2688 
L 5809 2688 
L 5809 2175 
L 588 2175 
L 588 2688 
z
" transform="scale(0.015625)"/>
     <path id="IPAexGothic-30af" d="M 4934 4191 
L 5272 3941 
Q 4894 2334 4031 1300 
Q 3275 391 2028 -225 
L 1656 184 
Q 2875 691 3641 1625 
Q 4403 2553 4691 3731 
L 2903 3731 
Q 2188 2653 1356 1959 
L 978 2309 
Q 2328 3400 2931 5022 
L 3422 4881 
Q 3363 4672 3141 4191 
L 4934 4191 
z
" transform="scale(0.015625)"/>
     <path id="IPAexGothic-30e9" d="M 1447 4709 
L 4922 4709 
L 4922 4234 
L 1447 4234 
L 1447 4709 
z
M 897 3303 
L 5172 3303 
L 5478 3013 
Q 5069 1669 4219 875 
Q 3475 181 2306 -181 
L 1972 294 
Q 4150 784 4834 2828 
L 897 2828 
L 897 3303 
z
" transform="scale(0.015625)"/>
     <path id="IPAexGothic-30a4" d="M 3131 -231 
L 3131 2875 
Q 2091 2088 1106 1656 
L 781 2059 
Q 3016 3000 4469 4916 
L 4916 4641 
Q 4384 3938 3675 3316 
L 3675 -231 
L 3131 -231 
z
" transform="scale(0.015625)"/>
     <path id="IPAexGothic-30f3" d="M 2444 3084 
Q 1816 3656 1056 4084 
L 1381 4519 
Q 2063 4191 2816 3559 
L 2444 3084 
z
M 1100 609 
Q 3984 1106 5216 3828 
L 5619 3469 
Q 4413 794 1434 103 
L 1100 609 
z
" transform="scale(0.015625)"/>
     <path id="IPAexGothic-30cd" d="M 1288 3834 
L 4803 3834 
L 5066 3559 
Q 4419 2813 3466 2134 
L 3466 -294 
L 2953 -294 
L 2953 1800 
Q 1963 1203 1056 891 
L 731 1328 
Q 1797 1631 2844 2281 
Q 3675 2794 4253 3381 
L 1288 3381 
L 1288 3834 
z
M 3669 4031 
Q 3094 4459 2291 4850 
L 2572 5222 
Q 3334 4884 4000 4428 
L 3669 4031 
z
M 5441 838 
Q 4781 1413 3859 1966 
L 4159 2316 
Q 5078 1819 5825 1247 
L 5441 838 
z
" transform="scale(0.015625)"/>
     <path id="IPAexGothic-30eb" d="M 353 331 
Q 1313 994 1544 2022 
Q 1684 2650 1684 4397 
L 2203 4397 
L 2203 4153 
L 2203 4116 
Q 2203 2259 1934 1491 
Q 1619 588 744 -38 
L 353 331 
z
M 3125 4666 
L 3650 4666 
L 3650 769 
Q 4875 1488 5672 2734 
L 6000 2278 
Q 5075 966 3516 63 
L 3125 359 
L 3125 4666 
z
" transform="scale(0.015625)"/>
    </defs>
    <use xlink:href="#IPAexGothic-4e3b"/>
    <use xlink:href="#IPAexGothic-8981" transform="translate(100 0)"/>
    <use xlink:href="#IPAexGothic-6307" transform="translate(200 0)"/>
    <use xlink:href="#IPAexGothic-6a19" transform="translate(300 0)"/>
    <use xlink:href="#IPAexGothic-306e" transform="translate(400 0)"/>
    <use xlink:href="#IPAexGothic-30b9" transform="translate(500 0)"/>
    <use xlink:href="#IPAexGothic-30d1" transform="translate(600 0)"/>
    <use xlink:href="#IPAexGothic-30fc" transform="translate(700 0)"/>
    <use xlink:href="#IPAexGothic-30af" transform="translate(800 0)"/>
    <use xlink:href="#IPAexGothic-30e9" transform="translate(900 0)"/>
    <use xlink:href="#IPAexGothic-30a4" transform="translate(1000 0)"/>
    <use xlink:href="#IPAexGothic-30f3" transform="translate(1100 0)"/>
    <use xlink:href="#IPAexGothic-30d1" transform="translate(1200 0)"/>
    <use xlink:href="#IPAexGothic-30cd" transform="translate(1300 0)"/>
    <use xlink:href="#IPAexGothic-30eb" transform="translate(1400 0)"/>
   </g>
  </g>
 </g>
 <defs>
  <clipPath id="p279ef8b496">
   <rect x="12.550668" y="48.48" width="133.178663" height="92.54"/>
  </clipPath>
  <clipPath id="pb57cc637bd">
   <rect x="162.550668" y="48.48" width="133.178663" height="92.54"/>
  </clipPath>
  <clipPath id="p7ab1193f8d">
   <rect x="312.550668" y="48.48" width="133.178663" height="92.54"/>
  </clipPath>
  <clipPath id="p2835328c9e">
   <rect x="12.550668" y="165.74" width="133.178663" height="92.54"/>
  </clipPath>
  <clipPath id="p8129400ac2">
   <rect x="162.550668" y="165.74" width="133.178663" height="92.54"/>
  </clipPath>
  <clipPath id="p287f68ec9b">
   <rect x="312.550668" y="165.74" width="133.178663" height="92.54"/>
  </clipPath>
 </defs>
</svg>
