<?xml version="1.0" encoding="utf-8" standalone="no"?>
<!DOCTYPE svg PUBLIC "-//W3C//DTD SVG 1.1//EN"
  "http://www.w3.org/Graphics/SVG/1.1/DTD/svg11.dtd">
<svg xmlns:xlink="http://www.w3.org/1999/xlink" width="432pt" height="432pt" viewBox="0 0 432 432" xmlns="http://www.w3.org/2000/svg" version="1.1">
 <metadata>
  <rdf:RDF xmlns:dc="http://purl.org/dc/elements/1.1/" xmlns:cc="http://creativecommons.org/ns#" xmlns:rdf="http://www.w3.org/1999/02/22-rdf-syntax-ns#">
   <cc:Work>
    <dc:type rdf:resource="http://purl.org/dc/dcmitype/StillImage"/>
    <dc:date>2025-10-29T09:07:44.787194</dc:date>
    <dc:format>image/svg+xml</dc:format>
    <dc:creator>
     <cc:Agent>
      <dc:title>Matplotlib v3.10.7, https://matplotlib.org/</dc:title>
     </cc:Agent>
    </dc:creator>
   </cc:Work>
  </rdf:RDF>
 </metadata>
 <defs>
  <style type="text/css">*{stroke-linejoin: round; stroke-linecap: butt}</style>
 </defs>
 <g id="figure_1">
  <g id="patch_1">
   <path d="M 0 432 
L 432 432 
L 432 0 
L 0 0 
z
" style="fill: #ffffff"/>
  </g>
  <g id="axes_1">
   <g id="patch_2">
    <path d="M 389.2775 230.84 
C 389.2775 208.295189 384.836664 185.969598 376.209138 165.140908 
C 367.581612 144.312219 354.935181 125.385497 338.993592 109.443908 
C 323.052003 93.502319 304.125281 80.855888 283.296592 72.228362 
C 262.467902 63.600836 240.142311 59.16 217.5975 59.16 
C 195.052689 59.16 172.727098 63.600836 151.898408 72.228362 
C 131.069719 80.855888 112.142997 93.502319 96.201408 109.443908 
C 80.259819 125.385497 67.613388 144.312219 58.985862 165.140908 
C 50.358336 185.969598 45.9175 208.295189 45.9175 230.84 
C 45.9175 253.384811 50.358336 275.710402 58.985862 296.539092 
C 67.613388 317.367781 80.259819 336.294503 96.201408 352.236092 
C 112.142997 368.177681 131.069719 380.824112 151.898408 389.451638 
C 172.727098 398.079164 195.052689 402.52 217.5975 402.52 
C 240.142311 402.52 262.467902 398.079164 283.296592 389.451638 
C 304.125281 380.824112 323.052003 368.177681 338.993592 352.236092 
C 354.935181 336.294503 367.581612 317.367781 376.209138 296.539092 
C 384.836664 275.710402 389.2775 253.384811 389.2775 230.84 
M 217.5975 230.84 
C 217.5975 230.84 217.5975 230.84 217.5975 230.84 
C 217.5975 230.84 217.5975 230.84 217.5975 230.84 
C 217.5975 230.84 217.5975 230.84 217.5975 230.84 
C 217.5975 230.84 217.5975 230.84 217.5975 230.84 
C 217.5975 230.84 217.5975 230.84 217.5975 230.84 
C 217.5975 230.84 217.5975 230.84 217.5975 230.84 
C 217.5975 230.84 217.5975 230.84 217.5975 230.84 
C 217.5975 230.84 217.5975 230.84 217.5975 230.84 
C 217.5975 230.84 217.5975 230.84 217.5975 230.84 
C 217.5975 230.84 217.5975 230.84 217.5975 230.84 
C 217.5975 230.84 217.5975 230.84 217.5975 230.84 
C 217.5975 230.84 217.5975 230.84 217.5975 230.84 
C 217.5975 230.84 217.5975 230.84 217.5975 230.84 
C 217.5975 230.84 217.5975 230.84 217.5975 230.84 
C 217.5975 230.84 217.5975 230.84 217.5975 230.84 
C 217.5975 230.84 217.5975 230.84 217.5975 230.84 
z
" style="fill: #ffffff"/>
   </g>
   <g id="FillBetweenPolyCollection_1">
    <defs>
     <path id="md8aeb3fe53" d="M 217.5975 -280.857915 
L 217.5975 -201.16 
L 217.5975 -201.16 
L 217.5975 -201.16 
L 217.5975 -201.16 
L 217.5975 -201.16 
L 217.5975 -201.16 
L 217.5975 -201.16 
L 217.5975 -201.16 
L 217.5975 -201.16 
L 217.5975 -201.16 
L 217.5975 -201.16 
L 217.5975 -201.16 
L 217.5975 -201.16 
L 217.5975 -201.16 
L 217.5975 -201.16 
L 217.5975 -201.16 
L 217.5975 -201.16 
L 217.5975 -201.16 
L 217.5975 -201.16 
L 217.5975 -201.16 
L 217.5975 -201.16 
L 217.5975 -201.16 
L 217.5975 -201.16 
L 217.5975 -201.16 
L 217.5975 -201.16 
L 217.5975 -201.16 
L 217.5975 -201.16 
L 217.5975 -201.16 
L 217.5975 -201.16 
L 217.5975 -201.16 
L 217.5975 -201.16 
L 217.5975 -201.16 
L 217.5975 -201.16 
L 217.5975 -201.16 
L 217.5975 -201.16 
L 217.5975 -201.16 
L 217.5975 -201.16 
L 217.5975 -201.16 
L 217.5975 -201.16 
L 217.5975 -201.16 
L 217.5975 -201.16 
L 217.5975 -201.16 
L 217.5975 -201.16 
L 217.5975 -201.16 
L 217.5975 -201.16 
L 217.5975 -201.16 
L 217.5975 -201.16 
L 217.5975 -201.16 
L 217.5975 -201.16 
L 217.5975 -201.16 
L 217.5975 -201.16 
L 217.5975 -201.16 
L 217.5975 -201.16 
L 217.5975 -201.16 
L 217.5975 -201.16 
L 217.5975 -201.16 
L 217.5975 -201.16 
L 217.5975 -201.16 
L 217.5975 -201.16 
L 217.5975 -201.16 
L 217.5975 -201.16 
L 217.5975 -201.16 
L 217.5975 -201.16 
L 217.5975 -201.16 
L 217.5975 -201.16 
L 217.5975 -201.16 
L 217.5975 -201.16 
L 217.5975 -201.16 
L 217.5975 -201.16 
L 217.5975 -201.16 
L 217.5975 -201.16 
L 217.5975 -201.16 
L 217.5975 -201.16 
L 217.5975 -201.16 
L 217.5975 -201.16 
L 217.5975 -201.16 
L 217.5975 -201.16 
L 217.5975 -201.16 
L 217.5975 -201.16 
L 217.5975 -201.16 
L 217.5975 -201.16 
L 217.5975 -201.16 
L 217.5975 -201.16 
L 217.5975 -201.16 
L 217.5975 -201.16 
L 217.5975 -201.16 
L 217.5975 -201.16 
L 217.5975 -201.16 
L 217.5975 -201.16 
L 217.5975 -201.16 
L 217.5975 -201.16 
L 217.5975 -201.16 
L 217.5975 -201.16 
L 217.5975 -201.16 
L 217.5975 -201.16 
L 217.5975 -201.16 
L 217.5975 -201.16 
L 217.5975 -201.16 
L 217.5975 -201.16 
L 217.5975 -201.16 
L 217.5975 -201.16 
L 217.5975 -201.16 
L 217.5975 -201.16 
L 217.5975 -201.16 
L 217.5975 -201.16 
L 217.5975 -201.16 
L 217.5975 -201.16 
L 217.5975 -201.16 
L 217.5975 -201.16 
L 217.5975 -201.16 
L 217.5975 -201.16 
L 217.5975 -201.16 
L 217.5975 -201.16 
L 217.5975 -201.16 
L 217.5975 -201.16 
L 217.5975 -201.16 
L 217.5975 -201.16 
L 217.5975 -201.16 
L 217.5975 -201.16 
L 217.5975 -201.16 
L 217.5975 -201.16 
L 217.5975 -201.16 
L 217.5975 -201.16 
L 217.5975 -201.16 
L 217.5975 -201.16 
L 217.5975 -201.16 
L 217.5975 -201.16 
L 217.5975 -201.16 
L 217.5975 -201.16 
L 217.5975 -201.16 
L 217.5975 -201.16 
L 217.5975 -201.16 
L 217.5975 -201.16 
L 217.5975 -201.16 
L 217.5975 -201.16 
L 217.5975 -201.16 
L 217.5975 -201.16 
L 217.5975 -201.16 
L 217.5975 -201.16 
L 217.5975 -201.16 
L 217.5975 -201.16 
L 217.5975 -201.16 
L 217.5975 -201.16 
L 217.5975 -201.16 
L 217.5975 -201.16 
L 217.5975 -201.16 
L 217.5975 -201.16 
L 217.5975 -201.16 
L 217.5975 -201.16 
L 217.5975 -201.16 
L 217.5975 -201.16 
L 217.5975 -201.16 
L 217.5975 -201.16 
L 217.5975 -201.16 
L 217.5975 -201.16 
L 217.5975 -201.16 
L 217.5975 -201.16 
L 217.5975 -201.16 
L 217.5975 -201.16 
L 217.5975 -201.16 
L 217.5975 -201.16 
L 217.5975 -201.16 
L 217.5975 -201.16 
L 217.5975 -201.16 
L 217.5975 -201.16 
L 217.5975 -201.16 
L 217.5975 -201.16 
L 217.5975 -201.16 
L 217.5975 -201.16 
L 217.5975 -201.16 
L 217.5975 -201.16 
L 217.5975 -201.16 
L 217.5975 -201.16 
L 217.5975 -201.16 
L 217.5975 -201.16 
L 217.5975 -201.16 
L 217.5975 -201.16 
L 217.5975 -201.16 
L 217.5975 -201.16 
L 217.5975 -201.16 
L 217.5975 -201.16 
L 217.5975 -201.16 
L 217.5975 -201.16 
L 217.5975 -201.16 
L 217.5975 -201.16 
L 217.5975 -201.16 
L 217.5975 -201.16 
L 217.5975 -201.16 
L 217.5975 -201.16 
L 217.5975 -201.16 
L 217.5975 -201.16 
L 217.5975 -201.16 
L 217.5975 -201.16 
L 217.5975 -201.16 
L 217.5975 -201.16 
L 217.5975 -201.16 
L 217.5975 -201.16 
L 217.5975 -201.16 
L 217.5975 -201.16 
L 217.5975 -201.16 
L 217.5975 -201.16 
L 217.5975 -201.16 
L 217.5975 -201.16 
L 217.5975 -201.16 
L 217.5975 -201.16 
L 217.5975 -201.16 
L 217.5975 -201.16 
L 217.5975 -201.16 
L 217.5975 -201.16 
L 217.5975 -201.16 
L 217.5975 -201.16 
L 217.5975 -201.16 
L 217.5975 -201.16 
L 217.5975 -201.16 
L 217.5975 -201.16 
L 217.5975 -201.16 
L 217.5975 -201.16 
L 217.5975 -201.16 
L 217.5975 -201.16 
L 217.5975 -201.16 
L 217.5975 -201.16 
L 217.5975 -201.16 
L 217.5975 -201.16 
L 217.5975 -201.16 
L 217.5975 -201.16 
L 217.5975 -201.16 
L 217.5975 -201.16 
L 217.5975 -201.16 
L 217.5975 -201.16 
L 217.5975 -201.16 
L 217.5975 -201.16 
L 217.5975 -201.16 
L 217.5975 -201.16 
L 217.5975 -201.16 
L 217.5975 -201.16 
L 217.5975 -201.16 
L 217.5975 -201.16 
L 217.5975 -201.16 
L 217.5975 -201.16 
L 217.5975 -201.16 
L 217.5975 -201.16 
L 217.5975 -201.16 
L 217.5975 -201.16 
L 217.5975 -201.16 
L 217.5975 -201.16 
L 217.5975 -201.16 
L 217.5975 -201.16 
L 217.5975 -201.16 
L 217.5975 -201.16 
L 217.5975 -201.16 
L 217.5975 -201.16 
L 217.5975 -201.16 
L 217.5975 -201.16 
L 217.5975 -201.16 
L 217.5975 -201.16 
L 217.5975 -201.16 
L 217.5975 -201.16 
L 217.5975 -201.16 
L 217.5975 -201.16 
L 217.5975 -201.16 
L 217.5975 -201.16 
L 217.5975 -201.16 
L 217.5975 -201.16 
L 217.5975 -201.16 
L 217.5975 -201.16 
L 217.5975 -201.16 
L 217.5975 -201.16 
L 217.5975 -201.16 
L 217.5975 -201.16 
L 217.5975 -201.16 
L 217.5975 -201.16 
L 217.5975 -201.16 
L 217.5975 -201.16 
L 217.5975 -201.16 
L 217.5975 -201.16 
L 217.5975 -201.16 
L 217.5975 -201.16 
L 217.5975 -201.16 
L 217.5975 -201.16 
L 217.5975 -201.16 
L 217.5975 -201.16 
L 217.5975 -201.16 
L 217.5975 -201.16 
L 217.5975 -201.16 
L 217.5975 -201.16 
L 217.5975 -201.16 
L 217.5975 -201.16 
L 217.5975 -201.16 
L 217.5975 -201.16 
L 217.5975 -201.16 
L 217.5975 -201.16 
L 217.5975 -201.16 
L 217.5975 -201.16 
L 217.5975 -201.16 
L 217.5975 -201.16 
L 217.5975 -201.16 
L 217.5975 -201.16 
L 217.5975 -201.16 
L 217.5975 -201.16 
L 217.5975 -201.16 
L 217.5975 -201.16 
L 217.5975 -201.16 
L 217.5975 -201.16 
L 217.5975 -201.16 
L 217.5975 -201.16 
L 217.5975 -201.16 
L 217.5975 -201.16 
L 217.5975 -201.16 
L 217.5975 -201.16 
L 217.5975 -201.16 
L 217.5975 -201.16 
L 217.5975 -201.16 
L 217.5975 -201.16 
L 217.5975 -201.16 
L 217.5975 -201.16 
L 217.5975 -201.16 
L 217.5975 -201.16 
L 217.5975 -201.16 
L 217.5975 -201.16 
L 217.5975 -201.16 
L 217.5975 -201.16 
L 217.5975 -201.16 
L 217.5975 -201.16 
L 217.5975 -201.16 
L 217.5975 -201.16 
L 217.5975 -201.16 
L 217.5975 -201.16 
L 217.5975 -201.16 
L 217.5975 -201.16 
L 217.5975 -201.16 
L 217.5975 -201.16 
L 217.5975 -201.16 
L 217.5975 -201.16 
L 217.5975 -201.16 
L 217.5975 -201.16 
L 217.5975 -201.16 
L 217.5975 -201.16 
L 217.5975 -201.16 
L 217.5975 -201.16 
L 217.5975 -201.16 
L 217.5975 -201.16 
L 217.5975 -201.16 
L 217.5975 -201.16 
L 217.5975 -201.16 
L 217.5975 -201.16 
L 217.5975 -201.16 
L 217.5975 -201.16 
L 217.5975 -201.16 
L 217.5975 -201.16 
L 217.5975 -201.16 
L 217.5975 -201.16 
L 217.5975 -201.16 
L 217.5975 -201.16 
L 217.5975 -201.16 
L 217.5975 -201.16 
L 217.5975 -201.16 
L 217.5975 -201.16 
L 217.5975 -201.16 
L 217.5975 -201.16 
L 217.5975 -201.16 
L 217.5975 -201.16 
L 217.5975 -201.16 
L 217.5975 -201.16 
L 217.5975 -201.16 
L 217.5975 -201.16 
L 310.50889 -284.817791 
L 310.50889 -284.817791 
L 284.573328 -293.344319 
L 266.295122 -310.536651 
L 246.003671 -334.800528 
L 217.5975 -332.40149 
L 183.602948 -361.091791 
L 154.998446 -341.759778 
L 137.31513 -311.659202 
L 123.169211 -286.183614 
L 115.099299 -260.337364 
L 91.50765 -242.129076 
L 85.656555 -215.027552 
L 59.453862 -184.538434 
L 71.446293 -153.672594 
L 101.582094 -134.178474 
L 130.495852 -122.733324 
L 149.020011 -106.771184 
L 166.05616 -85.396256 
L 188.61676 -64.816339 
L 217.5975 -48.287821 
L 250.019092 -48.628404 
L 275.246926 -71.67727 
L 286.655997 -106.109133 
L 297.752407 -128.988197 
L 324.61858 -139.371351 
L 353.66466 -156.9491 
L 367.022678 -185.454781 
L 354.736444 -215.573884 
L 345.050519 -242.571996 
L 317.924277 -259.083692 
L 300.229244 -275.561956 
L 293.170914 -305.17788 
L 276.612524 -333.709914 
L 248.258241 -345.407443 
L 217.5975 -354.447439 
L 189.18757 -334.818211 
L 171.063301 -305.677522 
L 148.318943 -296.513753 
L 134.346831 -276.119239 
L 93.077536 -273.051635 
L 74.202675 -247.751803 
L 71.07866 -216.559751 
L 84.84108 -187.206738 
L 107.112411 -165.261218 
L 119.972342 -144.796089 
L 124.140339 -117.010795 
L 133.78448 -85.801274 
L 154.445423 -59.318113 
L 189.560975 -69.258518 
L 217.5975 -78.298753 
L 241.647561 -88.01336 
L 258.534973 -109.21293 
L 288.231482 -103.940665 
L 322.058561 -107.102838 
L 352.155218 -123.473065 
L 356.528261 -156.018659 
L 355.880509 -186.62587 
L 327.896808 -212.752924 
L 321.512592 -234.92406 
L 325.231129 -263.302305 
L 319.782045 -293.167378 
L 308.439425 -326.193183 
L 274.825974 -329.697256 
L 242.285787 -317.309258 
L 217.5975 -314.172249 
L 194.602692 -309.342068 
L 167.05311 -314.68456 
L 136.364995 -312.966951 
L 106.125482 -301.529856 
L 92.884824 -273.162897 
L 97.105045 -240.310372 
L 112.812433 -212.173354 
L 110.820413 -189.937276 
L 105.502171 -164.73802 
L 102.213379 -134.542947 
L 106.280188 -100.929442 
L 135.947568 -88.77851 
L 162.391048 -77.164278 
L 196.045759 -99.767029 
L 217.5975 -97.20366 
L 242.121599 -85.783187 
L 272.045141 -78.868597 
L 304.367632 -81.731159 
L 324.999144 -104.455125 
L 331.102421 -135.627903 
L 322.021736 -167.230509 
L 320.846714 -190.30807 
L 328.323866 -212.79781 
L 340.906984 -241.22568 
L 352.08806 -278.808161 
L 317.049953 -290.707391 
L 286.586478 -296.115183 
L 259.815607 -295.98342 
L 239.491164 -304.161589 
L 217.5975 -311.931954 
L 191.197368 -325.362854 
L 156.67782 -337.987842 
L 133.892493 -316.370058 
L 124.024161 -285.413813 
L 132.384237 -250.3579 
L 117.56246 -233.663355 
L 97.721139 -213.759513 
L 87.360916 -187.471583 
L 79.207893 -156.194491 
L 105.235361 -136.287689 
L 126.911317 -119.505794 
L 157.763515 -118.805585 
L 174.732096 -104.882727 
L 192.752989 -84.275764 
L 217.5975 -62.728026 
L 246.789923 -63.820449 
L 275.812295 -70.40743 
L 289.999378 -101.507364 
L 292.189799 -133.996792 
L 304.201546 -151.159131 
L 314.492418 -169.676933 
L 344.808142 -187.789623 
L 361.264144 -216.259973 
L 348.602655 -243.726155 
L 317.351469 -258.752981 
L 293.782353 -269.75715 
L 271.161784 -274.884912 
L 261.214905 -299.126295 
L 244.041808 -325.570689 
L 217.5975 -335.371125 
L 192.302711 -320.162628 
L 168.202273 -312.103496 
L 158.278666 -282.80537 
L 144.703297 -266.794235 
L 124.368027 -254.986061 
L 95.774144 -240.742808 
L 77.964498 -215.83602 
L 82.535159 -186.964376 
L 112.779189 -167.102466 
L 121.749022 -145.821856 
L 147.106021 -137.689188 
L 153.388211 -112.783496 
L 163.955406 -80.677884 
L 190.215188 -72.33635 
L 217.5975 -71.972341 
L 240.719025 -92.381779 
L 258.382926 -109.554433 
L 273.702693 -123.937826 
L 303.426565 -123.879163 
L 326.130309 -138.498553 
L 344.65908 -159.87519 
L 348.225829 -187.430409 
L 327.783502 -212.741016 
L 314.414348 -232.617701 
L 305.637594 -251.989972 
L 298.276079 -273.803319 
L 288.425441 -298.646298 
L 271.309321 -321.798725 
L 244.394294 -327.229006 
L 217.5975 -314.852718 
L 197.492209 -295.747959 
L 180.775917 -283.86263 
L 154.517674 -287.981931 
L 125.946794 -283.682666 
L 105.603686 -265.819659 
L 94.64855 -241.108535 
L 111.534413 -212.30768 
L 113.890259 -190.25993 
L 134.785951 -174.252897 
L 135.062195 -153.508219 
L 130.79639 -123.003929 
L 141.678976 -96.667116 
L 164.066628 -80.927693 
L 195.187127 -95.727485 
L 217.5975 -104.079423 
L 236.99608 -109.896856 
L 258.741193 -108.749753 
L 290.359259 -101.012031 
L 316.51646 -112.092969 
L 325.483643 -138.871906 
L 325.710394 -166.031991 
L 317.853356 -190.622685 
L 307.597833 -210.619416 
L 312.507884 -231.998253 
L 321.075066 -260.9028 
L 312.35733 -286.482135 
L 294.68283 -307.258855 
L 260.69315 -297.954414 
L 234.834747 -282.254872 
L 217.5975 -285.593049 
L 194.734564 -308.721656 
L 173.51698 -300.16647 
L 149.873946 -294.373475 
L 128.907023 -281.017264 
L 124.141293 -255.116966 
L 133.31829 -228.543975 
L 125.501507 -210.839679 
L 114.063892 -190.278179 
L 104.156169 -164.300677 
L 106.129888 -136.804144 
L 123.835298 -116.736134 
L 154.014471 -113.645468 
L 180.983601 -118.923837 
L 200.834014 -122.294 
L 217.5975 -101.942554 
L 241.651489 -87.994881 
L 268.383282 -87.093267 
L 285.595382 -107.568945 
L 292.735301 -133.50562 
L 294.173409 -156.948878 
L 300.080101 -174.359778 
L 308.27938 -191.62895 
L 336.190242 -213.624599 
L 333.905109 -238.950633 
L 316.27476 -258.131343 
L 296.536126 -272.236658 
L 272.337749 -276.503489 
L 252.734341 -280.078638 
L 237.903079 -296.690239 
L 217.5975 -318.162101 
L 191.874996 -322.174867 
L 171.749441 -304.136426 
L 157.25998 -284.207472 
L 153.243089 -259.104972 
L 150.021209 -240.17519 
L 137.451061 -227.201157 
L 104.407815 -213.056715 
L 100.470278 -188.849433 
L 104.421143 -164.386772 
L 127.949341 -149.401611 
L 154.3758 -144.234925 
L 168.042811 -132.953822 
L 178.378559 -113.072817 
L 194.208113 -91.121587 
L 217.5975 -87.331146 
L 241.122406 -90.484021 
L 258.397423 -109.521873 
L 272.664276 -125.367085 
L 275.348149 -149.161082 
L 290.510476 -159.063674 
L 320.381692 -167.763391 
L 333.229189 -189.00662 
L 328.988224 -212.867637 
L 324.419072 -235.868433 
L 290.242046 -243.101348 
L 279.276109 -256.695669 
L 266.968819 -269.113791 
L 259.629492 -295.565399 
L 242.814221 -319.795343 
L 217.5975 -319.225471 
L 198.112475 -292.829835 
L 183.714774 -277.261849 
L 166.984578 -270.822711 
L 148.425627 -263.442634 
L 119.903134 -257.563869 
L 113.914124 -234.848771 
L 103.064614 -213.197891 
L 122.172553 -191.130434 
L 129.715747 -172.605487 
L 147.28272 -160.563743 
L 152.523516 -142.567121 
L 155.800232 -116.103357 
L 168.654453 -91.232118 
L 194.347669 -91.778145 
L 217.5975 -105.388093 
L 234.185685 -123.118724 
L 247.739743 -133.459415 
L 269.653716 -129.510765 
L 292.685271 -133.550668 
L 307.556386 -149.222213 
L 321.415757 -167.427403 
L 308.765642 -191.577842 
L 297.763379 -209.585773 
L 294.746108 -226.227102 
L 286.637977 -241.020538 
L 296.823103 -272.495053 
L 284.914158 -293.81343 
L 261.626631 -300.051047 
L 236.754949 -291.28871 
L 217.5975 -285.893199 
L 203.452552 -267.706747 
L 181.676544 -281.839788 
L 156.418687 -285.365413 
L 136.901128 -273.81934 
L 131.113418 -251.091608 
L 125.345595 -231.134461 
L 136.288775 -209.705891 
L 141.032847 -193.112731 
L 134.077007 -174.022547 
L 127.557172 -149.175192 
L 134.280781 -126.141289 
L 157.936186 -119.043246 
L 182.305035 -121.891826 
L 201.00199 -123.084265 
L 217.5975 -127.020845 
L 236.12383 -114.00047 
L 259.444777 -107.169477 
L 282.037562 -112.465863 
L 295.7119 -130.825478 
L 295.003268 -156.469759 
L 281.09251 -180.52922 
L 281.812457 -194.410736 
L 301.510253 -209.979586 
L 313.026332 -232.166707 
L 308.124645 -253.425871 
L 290.029267 -266.377856 
L 267.813153 -270.275916 
L 249.136559 -271.997887 
L 232.320163 -270.424684 
L 217.5975 -283.044858 
L 195.095917 -307.021623 
L 171.684341 -304.282644 
L 153.319744 -289.630741 
L 147.873887 -263.939423 
L 147.190699 -241.809386 
L 145.719993 -224.514418 
L 140.744275 -209.237599 
L 117.139825 -190.601473 
L 114.29505 -167.594999 
L 130.262428 -150.737072 
L 150.579034 -140.816302 
L 176.005238 -143.913163 
L 193.463579 -146.954326 
L 201.610654 -125.947804 
L 217.5975 -103.019881 
L 240.102576 -95.281943 
L 258.650181 -108.954168 
L 271.078587 -127.549598 
L 268.550061 -155.282108 
L 277.708351 -166.454984 
L 299.723276 -174.475718 
L 311.620717 -191.277762 
L 318.772921 -211.793965 
L 313.984869 -232.478155 
L 290.453569 -243.223471 
L 269.247264 -247.665656 
L 252.791135 -249.599883 
L 247.66312 -268.688487 
L 236.306179 -289.177413 
L 217.5975 -308.269768 
L 198.536126 -290.836713 
L 181.86102 -281.425448 
L 179.044204 -254.22406 
L 170.136282 -243.894272 
L 154.748851 -237.445685 
L 132.987926 -228.651317 
L 116.648852 -211.77013 
L 122.302429 -191.144084 
L 140.151358 -175.996223 
L 156.01753 -165.606788 
L 167.779603 -156.303764 
L 174.088699 -141.275273 
L 178.841414 -114.112405 
L 195.729335 -98.278371 
L 217.5975 -95.583731 
L 233.736513 -125.231915 
L 245.071133 -139.453211 
L 249.248403 -157.59627 
L 273.745319 -150.604277 
L 295.126434 -156.398649 
L 317.077269 -168.837064 
L 312.526009 -191.182612 
L 291.71819 -208.950398 
L 277.254879 -220.543857 
L 266.185954 -229.212557 
L 276.907787 -254.563223 
L 271.658906 -275.569142 
L 259.187423 -294.572496 
L 238.358568 -298.833144 
L 217.5975 -280.857915 
z
" style="stroke: #bae6fd; stroke-opacity: 0.5"/>
    </defs>
    <g clip-path="url(#p60edf65f11)">
     <use xlink:href="#md8aeb3fe53" x="0" y="432" style="fill: #bae6fd; fill-opacity: 0.5; stroke: #bae6fd; stroke-opacity: 0.5"/>
    </g>
   </g>
   <g id="matplotlib.axis_1">
    <g id="xtick_1">
     <g id="line2d_1">
      <path d="M 217.5975 230.84 
L 217.5975 59.16 
" clip-path="url(#p60edf65f11)" style="fill: none; stroke: #000000; stroke-opacity: 0.5; stroke-width: 0.5; stroke-linecap: square"/>
     </g>
     <g id="text_1">
      <!-- 0° -->
      <g transform="translate(212.749063 47.955313) scale(0.1 -0.1)">
       <defs>
        <path id="IPAexGothic-30" d="M 2038 4725 
Q 2881 4725 3334 3944 
Q 3694 3325 3694 2344 
Q 3694 1372 3334 741 
Q 2888 -31 2016 -31 
Q 1147 -31 700 741 
Q 341 1372 341 2350 
Q 341 3713 1000 4334 
Q 1419 4725 2038 4725 
z
M 2016 4266 
Q 1516 4266 1228 3759 
Q 934 3247 934 2344 
Q 934 1456 1222 947 
Q 1513 447 2016 447 
Q 2619 447 2909 1153 
Q 3100 1622 3100 2375 
Q 3100 3256 2806 3759 
Q 2509 4266 2016 4266 
z
" transform="scale(0.015625)"/>
        <path id="IPAexGothic-b0" d="M 1056 5300 
Q 1363 5300 1581 5063 
Q 1766 4856 1766 4584 
Q 1766 4372 1650 4197 
Q 1441 3866 1050 3866 
Q 878 3866 709 3956 
Q 331 4159 331 4591 
Q 331 4944 631 5166 
Q 816 5300 1056 5300 
z
M 1050 5019 
Q 916 5019 784 4928 
Q 613 4803 613 4584 
Q 613 4472 669 4366 
Q 794 4147 1056 4147 
Q 1200 4147 1313 4231 
Q 1484 4366 1484 4584 
Q 1484 4791 1331 4916 
Q 1209 5019 1050 5019 
z
" transform="scale(0.015625)"/>
       </defs>
       <use xlink:href="#IPAexGothic-30"/>
       <use xlink:href="#IPAexGothic-b0" transform="translate(62.988281 0)"/>
      </g>
     </g>
    </g>
    <g id="xtick_2">
     <g id="line2d_2">
      <path d="M 217.5975 230.84 
L 338.993592 109.443908 
" clip-path="url(#p60edf65f11)" style="fill: none; stroke: #000000; stroke-opacity: 0.5; stroke-width: 0.5; stroke-linecap: square"/>
     </g>
     <g id="text_2">
      <!-- 45° -->
      <g transform="translate(340.895431 102.339725) scale(0.1 -0.1)">
       <defs>
        <path id="IPAexGothic-34" d="M 3813 1159 
L 3059 1159 
L 3059 63 
L 2547 63 
L 2547 1159 
L 197 1159 
L 197 1672 
L 2456 4678 
L 3059 4678 
L 3059 1634 
L 3813 1634 
L 3813 1159 
z
M 2578 4109 
L 2559 4109 
Q 2278 3656 2003 3284 
L 759 1634 
L 2547 1634 
L 2547 3144 
Q 2547 3481 2578 4109 
z
" transform="scale(0.015625)"/>
        <path id="IPAexGothic-35" d="M 1178 2603 
Q 1634 2963 2172 2963 
Q 2816 2963 3241 2528 
Q 3638 2113 3638 1497 
Q 3638 938 3297 513 
Q 2869 -31 2031 -31 
Q 959 -31 469 784 
L 938 1028 
Q 1309 434 2013 434 
Q 2466 434 2769 716 
Q 3081 1013 3081 1503 
Q 3081 1966 2806 2241 
Q 2519 2528 2056 2528 
Q 1406 2528 1072 2028 
L 591 2091 
L 884 4634 
L 3406 4634 
L 3406 4153 
L 1341 4153 
L 1134 2603 
L 1178 2603 
z
" transform="scale(0.015625)"/>
       </defs>
       <use xlink:href="#IPAexGothic-34"/>
       <use xlink:href="#IPAexGothic-35" transform="translate(62.988281 0)"/>
       <use xlink:href="#IPAexGothic-b0" transform="translate(125.976562 0)"/>
      </g>
     </g>
    </g>
    <g id="xtick_3">
     <g id="line2d_3">
      <path d="M 217.5975 230.84 
L 389.2775 230.84 
" clip-path="url(#p60edf65f11)" style="fill: none; stroke: #000000; stroke-opacity: 0.5; stroke-width: 0.5; stroke-linecap: square"/>
     </g>
     <g id="text_3">
      <!-- 90° -->
      <g transform="translate(395.279844 233.635313) scale(0.1 -0.1)">
       <defs>
        <path id="IPAexGothic-39" d="M 2984 2356 
Q 2544 1716 1813 1716 
Q 1253 1716 847 2056 
Q 366 2459 366 3163 
Q 366 3813 769 4266 
Q 1181 4725 1869 4725 
Q 2800 4725 3241 3950 
Q 3559 3378 3559 2472 
Q 3559 1250 3041 588 
Q 2553 -31 1769 -31 
Q 859 -31 391 703 
L 853 953 
Q 1156 428 1753 428 
Q 2922 428 3009 2356 
L 2984 2356 
z
M 1888 4278 
Q 1450 4278 1172 3950 
Q 922 3653 922 3200 
Q 922 2741 1159 2478 
Q 1434 2163 1906 2163 
Q 2431 2163 2728 2572 
Q 2925 2847 2925 3169 
Q 2925 3553 2694 3863 
Q 2375 4278 1888 4278 
z
" transform="scale(0.015625)"/>
       </defs>
       <use xlink:href="#IPAexGothic-39"/>
       <use xlink:href="#IPAexGothic-30" transform="translate(62.988281 0)"/>
       <use xlink:href="#IPAexGothic-b0" transform="translate(125.976562 0)"/>
      </g>
     </g>
    </g>
    <g id="xtick_4">
     <g id="line2d_4">
      <path d="M 217.5975 230.84 
L 338.993592 352.236092 
" clip-path="url(#p60edf65f11)" style="fill: none; stroke: #000000; stroke-opacity: 0.5; stroke-width: 0.5; stroke-linecap: square"/>
     </g>
     <g id="text_4">
      <!-- 135° -->
      <g transform="translate(337.746212 364.9309) scale(0.1 -0.1)">
       <defs>
        <path id="IPAexGothic-31" d="M 2463 63 
L 1900 63 
L 1900 4103 
Q 1372 3922 788 3797 
L 684 4231 
Q 1519 4441 2106 4731 
L 2463 4731 
L 2463 63 
z
" transform="scale(0.015625)"/>
        <path id="IPAexGothic-33" d="M 2381 2419 
Q 3506 2216 3506 1278 
Q 3506 716 3128 356 
Q 2709 -31 1944 -31 
Q 797 -31 288 881 
L 756 1131 
Q 1109 441 1938 441 
Q 2425 441 2694 691 
Q 2950 928 2950 1291 
Q 2950 1719 2566 1978 
Q 2216 2213 1644 2213 
L 1363 2213 
L 1363 2669 
L 1656 2669 
Q 2231 2669 2534 2888 
Q 2859 3119 2859 3509 
Q 2859 3934 2494 4138 
Q 2259 4278 1931 4278 
Q 1238 4278 903 3578 
L 434 3803 
Q 897 4725 1938 4725 
Q 2597 4725 3006 4394 
Q 3416 4069 3416 3534 
Q 3416 3028 3019 2706 
Q 2763 2500 2381 2444 
L 2381 2419 
z
" transform="scale(0.015625)"/>
       </defs>
       <use xlink:href="#IPAexGothic-31"/>
       <use xlink:href="#IPAexGothic-33" transform="translate(62.988281 0)"/>
       <use xlink:href="#IPAexGothic-35" transform="translate(125.976562 0)"/>
       <use xlink:href="#IPAexGothic-b0" transform="translate(188.964844 0)"/>
      </g>
     </g>
    </g>
    <g id="xtick_5">
     <g id="line2d_5">
      <path d="M 217.5975 230.84 
L 217.5975 402.52 
" clip-path="url(#p60edf65f11)" style="fill: none; stroke: #000000; stroke-opacity: 0.5; stroke-width: 0.5; stroke-linecap: square"/>
     </g>
     <g id="text_5">
      <!-- 180° -->
      <g transform="translate(206.450625 419.315313) scale(0.1 -0.1)">
       <defs>
        <path id="IPAexGothic-38" d="M 2541 2425 
Q 3700 2031 3700 1197 
Q 3700 541 3100 197 
Q 2663 -56 2016 -56 
Q 1366 -56 928 197 
Q 347 531 347 1178 
Q 347 1988 1409 2381 
L 1409 2400 
Q 481 2734 481 3509 
Q 481 4100 981 4456 
Q 1406 4756 2019 4756 
Q 2703 4756 3131 4403 
Q 3553 4069 3553 3566 
Q 3553 2706 2541 2444 
L 2541 2425 
z
M 2022 2625 
Q 2997 2856 2997 3528 
Q 2997 3916 2675 4150 
Q 2413 4347 2016 4347 
Q 1606 4347 1331 4128 
Q 1050 3897 1050 3522 
Q 1050 3150 1350 2925 
Q 1494 2809 1722 2722 
Q 1984 2616 2022 2625 
z
M 1978 2209 
Q 922 1931 922 1216 
Q 922 775 1313 556 
Q 1606 391 2009 391 
Q 2575 391 2881 697 
Q 3106 922 3106 1250 
Q 3106 1594 2794 1850 
Q 2609 1994 2350 2100 
Q 2047 2222 1978 2209 
z
" transform="scale(0.015625)"/>
       </defs>
       <use xlink:href="#IPAexGothic-31"/>
       <use xlink:href="#IPAexGothic-38" transform="translate(62.988281 0)"/>
       <use xlink:href="#IPAexGothic-30" transform="translate(125.976562 0)"/>
       <use xlink:href="#IPAexGothic-b0" transform="translate(188.964844 0)"/>
      </g>
     </g>
    </g>
    <g id="xtick_6">
     <g id="line2d_6">
      <path d="M 217.5975 230.84 
L 96.201408 352.236092 
" clip-path="url(#p60edf65f11)" style="fill: none; stroke: #000000; stroke-opacity: 0.5; stroke-width: 0.5; stroke-linecap: square"/>
     </g>
     <g id="text_6">
      <!-- 225° -->
      <g transform="translate(75.155038 364.9309) scale(0.1 -0.1)">
       <defs>
        <path id="IPAexGothic-32" d="M 3659 63 
L 447 63 
L 447 594 
Q 825 1475 1894 2203 
L 2072 2322 
Q 2619 2697 2791 2906 
Q 2988 3153 2988 3444 
Q 2988 3772 2756 4003 
Q 2500 4259 2084 4259 
Q 1250 4259 991 3328 
L 497 3506 
Q 853 4725 2116 4725 
Q 2806 4725 3216 4316 
Q 3575 3947 3575 3425 
Q 3575 3038 3344 2722 
Q 3131 2416 2366 1938 
L 2231 1856 
Q 1256 1253 978 569 
L 3659 569 
L 3659 63 
z
" transform="scale(0.015625)"/>
       </defs>
       <use xlink:href="#IPAexGothic-32"/>
       <use xlink:href="#IPAexGothic-32" transform="translate(62.988281 0)"/>
       <use xlink:href="#IPAexGothic-35" transform="translate(125.976562 0)"/>
       <use xlink:href="#IPAexGothic-b0" transform="translate(188.964844 0)"/>
      </g>
     </g>
    </g>
    <g id="xtick_7">
     <g id="line2d_7">
      <path d="M 217.5975 230.84 
L 45.9175 230.84 
" clip-path="url(#p60edf65f11)" style="fill: none; stroke: #000000; stroke-opacity: 0.5; stroke-width: 0.5; stroke-linecap: square"/>
     </g>
     <g id="text_7">
      <!-- 270° -->
      <g transform="translate(20.770625 233.635313) scale(0.1 -0.1)">
       <defs>
        <path id="IPAexGothic-37" d="M 3597 4263 
Q 2238 2106 1778 63 
L 1131 63 
Q 1581 1834 2950 4128 
L 428 4128 
L 428 4634 
L 3597 4634 
L 3597 4263 
z
" transform="scale(0.015625)"/>
       </defs>
       <use xlink:href="#IPAexGothic-32"/>
       <use xlink:href="#IPAexGothic-37" transform="translate(62.988281 0)"/>
       <use xlink:href="#IPAexGothic-30" transform="translate(125.976562 0)"/>
       <use xlink:href="#IPAexGothic-b0" transform="translate(188.964844 0)"/>
      </g>
     </g>
    </g>
    <g id="xtick_8">
     <g id="line2d_8">
      <path d="M 217.5975 230.84 
L 96.201408 109.443908 
" clip-path="url(#p60edf65f11)" style="fill: none; stroke: #000000; stroke-opacity: 0.5; stroke-width: 0.5; stroke-linecap: square"/>
     </g>
     <g id="text_8">
      <!-- 315° -->
      <g transform="translate(75.155038 102.339725) scale(0.1 -0.1)">
       <use xlink:href="#IPAexGothic-33"/>
       <use xlink:href="#IPAexGothic-31" transform="translate(62.988281 0)"/>
       <use xlink:href="#IPAexGothic-35" transform="translate(125.976562 0)"/>
       <use xlink:href="#IPAexGothic-b0" transform="translate(188.964844 0)"/>
      </g>
     </g>
    </g>
   </g>
   <g id="matplotlib.axis_2">
    <g id="ytick_1">
     <g id="line2d_9">
      <path d="M 217.5975 151.109426 
C 228.067623 151.109426 238.435937 153.171812 248.10907 157.178555 
C 257.782202 161.185297 266.572034 167.058476 273.975529 174.461971 
C 281.379024 181.865466 287.252203 190.655298 291.258945 200.32843 
C 295.265688 210.001563 297.328074 220.369877 297.328074 230.84 
C 297.328074 241.310123 295.265688 251.678437 291.258945 261.35157 
C 287.252203 271.024702 281.379024 279.814534 273.975529 287.218029 
C 266.572034 294.621524 257.782202 300.494703 248.10907 304.501445 
C 238.435937 308.508188 228.067623 310.570574 217.5975 310.570574 
C 207.127377 310.570574 196.759063 308.508188 187.08593 304.501445 
C 177.412798 300.494703 168.622966 294.621524 161.219471 287.218029 
C 153.815976 279.814534 147.942797 271.024702 143.936055 261.35157 
C 139.929312 251.678437 137.866926 241.310123 137.866926 230.84 
C 137.866926 220.369877 139.929312 210.001563 143.936055 200.32843 
C 147.942797 190.655298 153.815976 181.865466 161.219471 174.461971 
C 168.622966 167.058476 177.412798 161.185297 187.08593 157.178555 
C 196.759063 153.171812 207.127377 151.109426 217.5975 151.109426 
" clip-path="url(#p60edf65f11)" style="fill: none; stroke: #000000; stroke-opacity: 0.5; stroke-width: 0.5; stroke-linecap: square"/>
     </g>
     <g id="text_9">
      <!-- 5 -->
      <g transform="translate(248.10907 155.278555) scale(0.1 -0.1)">
       <use xlink:href="#IPAexGothic-35"/>
      </g>
     </g>
    </g>
    <g id="ytick_2">
     <g id="line2d_10">
      <path d="M 217.5975 119.217197 
C 232.255672 119.217197 246.771312 122.104537 260.313697 127.713977 
C 273.856083 133.323416 286.161848 141.545866 296.526741 151.910759 
C 306.891634 162.275652 315.114084 174.581417 320.723523 188.123803 
C 326.332963 201.666188 329.220303 216.181828 329.220303 230.84 
C 329.220303 245.498172 326.332963 260.013812 320.723523 273.556197 
C 315.114084 287.098583 306.891634 299.404348 296.526741 309.769241 
C 286.161848 320.134134 273.856083 328.356584 260.313697 333.966023 
C 246.771312 339.575463 232.255672 342.462803 217.5975 342.462803 
C 202.939328 342.462803 188.423688 339.575463 174.881303 333.966023 
C 161.338917 328.356584 149.033152 320.134134 138.668259 309.769241 
C 128.303366 299.404348 120.080916 287.098583 114.471477 273.556197 
C 108.862037 260.013812 105.974697 245.498172 105.974697 230.84 
C 105.974697 216.181828 108.862037 201.666188 114.471477 188.123803 
C 120.080916 174.581417 128.303366 162.275652 138.668259 151.910759 
C 149.033152 141.545866 161.338917 133.323416 174.881303 127.713977 
C 188.423688 122.104537 202.939328 119.217197 217.5975 119.217197 
" clip-path="url(#p60edf65f11)" style="fill: none; stroke: #000000; stroke-opacity: 0.5; stroke-width: 0.5; stroke-linecap: square"/>
     </g>
     <g id="text_10">
      <!-- 7 -->
      <g transform="translate(260.313697 125.813977) scale(0.1 -0.1)">
       <use xlink:href="#IPAexGothic-37"/>
      </g>
     </g>
    </g>
    <g id="ytick_3">
     <g id="line2d_11">
      <path d="M 217.5975 87.324967 
C 236.443721 87.324967 255.106687 91.037262 272.518325 98.249399 
C 289.929963 105.461535 305.751662 116.033256 319.077953 129.359547 
C 332.404244 142.685838 342.975965 158.507537 350.188101 175.919175 
C 357.400238 193.330813 361.112533 211.993779 361.112533 230.84 
C 361.112533 249.686221 357.400238 268.349187 350.188101 285.760825 
C 342.975965 303.172463 332.404244 318.994162 319.077953 332.320453 
C 305.751662 345.646744 289.929963 356.218465 272.518325 363.430601 
C 255.106687 370.642738 236.443721 374.355033 217.5975 374.355033 
C 198.751279 374.355033 180.088313 370.642738 162.676675 363.430601 
C 145.265037 356.218465 129.443338 345.646744 116.117047 332.320453 
C 102.790756 318.994162 92.219035 303.172463 85.006899 285.760825 
C 77.794762 268.349187 74.082467 249.686221 74.082467 230.84 
C 74.082467 211.993779 77.794762 193.330813 85.006899 175.919175 
C 92.219035 158.507537 102.790756 142.685838 116.117047 129.359547 
C 129.443338 116.033256 145.265037 105.461535 162.676675 98.249399 
C 180.088313 91.037262 198.751279 87.324967 217.5975 87.324967 
" clip-path="url(#p60edf65f11)" style="fill: none; stroke: #000000; stroke-opacity: 0.5; stroke-width: 0.5; stroke-linecap: square"/>
     </g>
     <g id="text_11">
      <!-- 9 -->
      <g transform="translate(272.518325 96.349399) scale(0.1 -0.1)">
       <use xlink:href="#IPAexGothic-39"/>
      </g>
     </g>
    </g>
   </g>
   <g id="line2d_12">
    <path d="M 217.5975 151.142085 
L 238.358568 133.166856 
L 259.187423 137.427504 
L 271.658906 156.430858 
L 276.907787 177.436777 
L 266.185954 202.787443 
L 277.254879 211.456143 
L 291.71819 223.049602 
L 312.526009 240.817388 
L 317.077269 263.162936 
L 295.126434 275.601351 
L 273.745319 281.395723 
L 249.248403 274.40373 
L 245.071133 292.546789 
L 233.736513 306.768085 
L 217.5975 336.416269 
L 195.729335 333.721629 
L 178.841414 317.887595 
L 174.088699 290.724727 
L 167.779603 275.696236 
L 156.01753 266.393212 
L 140.151358 256.003777 
L 122.302429 240.855916 
L 116.648852 220.22987 
L 132.987926 203.348683 
L 154.748851 194.554315 
L 170.136282 188.105728 
L 179.044204 177.77594 
L 181.86102 150.574552 
L 198.536126 141.163287 
L 217.5975 123.730232 
L 236.306179 142.822587 
L 247.66312 163.311513 
L 252.791135 182.400117 
L 269.247264 184.334344 
L 290.453569 188.776529 
L 313.984869 199.521845 
L 318.772921 220.206035 
L 311.620717 240.722238 
L 299.723276 257.524282 
L 277.708351 265.545016 
L 268.550061 276.717892 
L 271.078587 304.450402 
L 258.650181 323.045832 
L 240.102576 336.718057 
L 217.5975 328.980119 
L 201.610654 306.052196 
L 193.463579 285.045674 
L 176.005238 288.086837 
L 150.579034 291.183698 
L 130.262428 281.262928 
L 114.29505 264.405001 
L 117.139825 241.398527 
L 140.744275 222.762401 
L 145.719993 207.485582 
L 147.190699 190.190614 
L 147.873887 168.060577 
L 153.319744 142.369259 
L 171.684341 127.717356 
L 195.095917 124.978377 
L 217.5975 148.955142 
L 232.320163 161.575316 
L 249.136559 160.002113 
L 267.813153 161.724084 
L 290.029267 165.622144 
L 308.124645 178.574129 
L 313.026332 199.833293 
L 301.510253 222.020414 
L 281.812457 237.589264 
L 281.09251 251.47078 
L 295.003268 275.530241 
L 295.7119 301.174522 
L 282.037562 319.534137 
L 259.444777 324.830523 
L 236.12383 317.99953 
L 217.5975 304.979155 
L 201.00199 308.915735 
L 182.305035 310.108174 
L 157.936186 312.956754 
L 134.280781 305.858711 
L 127.557172 282.824808 
L 134.077007 257.977453 
L 141.032847 238.887269 
L 136.288775 222.294109 
L 125.345595 200.865539 
L 131.113418 180.908392 
L 136.901128 158.18066 
L 156.418687 146.634587 
L 181.676544 150.160212 
L 203.452552 164.293253 
L 217.5975 146.106801 
L 236.754949 140.71129 
L 261.626631 131.948953 
L 284.914158 138.18657 
L 296.823103 159.504947 
L 286.637977 190.979462 
L 294.746108 205.772898 
L 297.763379 222.414227 
L 308.765642 240.422158 
L 321.415757 264.572597 
L 307.556386 282.777787 
L 292.685271 298.449332 
L 269.653716 302.489235 
L 247.739743 298.540585 
L 234.185685 308.881276 
L 217.5975 326.611907 
L 194.347669 340.221855 
L 168.654453 340.767882 
L 155.800232 315.896643 
L 152.523516 289.432879 
L 147.28272 271.436257 
L 129.715747 259.394513 
L 122.172553 240.869566 
L 103.064614 218.802109 
L 113.914124 197.151229 
L 119.903134 174.436131 
L 148.425627 168.557366 
L 166.984578 161.177289 
L 183.714774 154.738151 
L 198.112475 139.170165 
L 217.5975 112.774529 
L 242.814221 112.204657 
L 259.629492 136.434601 
L 266.968819 162.886209 
L 279.276109 175.304331 
L 290.242046 188.898652 
L 324.419072 196.131567 
L 328.988224 219.132363 
L 333.229189 242.99338 
L 320.381692 264.236609 
L 290.510476 272.936326 
L 275.348149 282.838918 
L 272.664276 306.632915 
L 241.122406 341.515979 
L 217.5975 344.668854 
L 194.208113 340.878413 
L 178.378559 318.927183 
L 168.042811 299.046178 
L 154.3758 287.765075 
L 127.949341 282.598389 
L 104.421143 267.613228 
L 100.470278 243.150567 
L 104.407815 218.943285 
L 137.451061 204.798843 
L 150.021209 191.82481 
L 153.243089 172.895028 
L 157.25998 147.792528 
L 171.749441 127.863574 
L 191.874996 109.825133 
L 217.5975 113.837899 
L 237.903079 135.309761 
L 252.734341 151.921362 
L 272.337749 155.496511 
L 296.536126 159.763342 
L 316.27476 173.868657 
L 333.905109 193.049367 
L 336.190242 218.375401 
L 308.27938 240.37105 
L 300.080101 257.640222 
L 294.173409 275.051122 
L 292.735301 298.49438 
L 285.595382 324.431055 
L 268.383282 344.906733 
L 241.651489 344.005119 
L 217.5975 330.057446 
L 200.834014 309.706 
L 180.983601 313.076163 
L 154.014471 318.354532 
L 123.835298 315.263866 
L 106.129888 295.195856 
L 104.156169 267.699323 
L 114.063892 241.721821 
L 125.501507 221.160321 
L 133.31829 203.456025 
L 124.141293 176.883034 
L 128.907023 150.982736 
L 149.873946 137.626525 
L 173.51698 131.83353 
L 194.734564 123.278344 
L 217.5975 146.406951 
L 234.834747 149.745128 
L 260.69315 134.045586 
L 294.68283 124.741145 
L 312.35733 145.517865 
L 321.075066 171.0972 
L 312.507884 200.001747 
L 307.597833 221.380584 
L 317.853356 241.377315 
L 325.710394 265.968009 
L 325.483643 293.128094 
L 316.51646 319.907031 
L 290.359259 330.987969 
L 258.741193 323.250247 
L 236.99608 322.103144 
L 217.5975 327.920577 
L 195.187127 336.272515 
L 164.066628 351.072307 
L 141.678976 335.332884 
L 130.79639 308.996071 
L 135.062195 278.491781 
L 134.785951 257.747103 
L 113.890259 241.74007 
L 111.534413 219.69232 
L 94.64855 190.891465 
L 105.603686 166.180341 
L 125.946794 148.317334 
L 154.517674 144.018069 
L 180.775917 148.13737 
L 197.492209 136.252041 
L 217.5975 117.147282 
L 244.394294 104.770994 
L 271.309321 110.201275 
L 288.425441 133.353702 
L 298.276079 158.196681 
L 305.637594 180.010028 
L 314.414348 199.382299 
L 327.783502 219.258984 
L 348.225829 244.569591 
L 344.65908 272.12481 
L 326.130309 293.501447 
L 303.426565 308.120837 
L 273.702693 308.062174 
L 258.382926 322.445567 
L 240.719025 339.618221 
L 217.5975 360.027659 
L 190.215188 359.66365 
L 163.955406 351.322116 
L 153.388211 319.216504 
L 147.106021 294.310812 
L 121.749022 286.178144 
L 112.779189 264.897534 
L 82.535159 245.035624 
L 77.964498 216.16398 
L 95.774144 191.257192 
L 124.368027 177.013939 
L 144.703297 165.205765 
L 158.278666 149.19463 
L 168.202273 119.896504 
L 192.302711 111.837372 
L 217.5975 96.628875 
L 244.041808 106.429311 
L 261.214905 132.873705 
L 271.161784 157.115088 
L 293.782353 162.24285 
L 317.351469 173.247019 
L 348.602655 188.273845 
L 361.264144 215.740027 
L 344.808142 244.210377 
L 314.492418 262.323067 
L 304.201546 280.840869 
L 292.189799 298.003208 
L 289.999378 330.492636 
L 275.812295 361.59257 
L 246.789923 368.179551 
L 217.5975 369.271974 
L 192.752989 347.724236 
L 174.732096 327.117273 
L 157.763515 313.194415 
L 126.911317 312.494206 
L 105.235361 295.712311 
L 79.207893 275.805509 
L 87.360916 244.528417 
L 97.721139 218.240487 
L 117.56246 198.336645 
L 132.384237 181.6421 
L 124.024161 146.586187 
L 133.892493 115.629942 
L 156.67782 94.012158 
L 191.197368 106.637146 
L 217.5975 120.068046 
L 239.491164 127.838411 
L 259.815607 136.01658 
L 286.586478 135.884817 
L 317.049953 141.292609 
L 352.08806 153.191839 
L 340.906984 190.77432 
L 328.323866 219.20219 
L 320.846714 241.69193 
L 322.021736 264.769491 
L 331.102421 296.372097 
L 324.999144 327.544875 
L 304.367632 350.268841 
L 272.045141 353.131403 
L 242.121599 346.216813 
L 217.5975 334.79634 
L 196.045759 332.232971 
L 162.391048 354.835722 
L 135.947568 343.22149 
L 106.280188 331.070558 
L 102.213379 297.457053 
L 105.502171 267.26198 
L 110.820413 242.062724 
L 112.812433 219.826646 
L 97.105045 191.689628 
L 92.884824 158.837103 
L 106.125482 130.470144 
L 136.364995 119.033049 
L 167.05311 117.31544 
L 194.602692 122.657932 
L 217.5975 117.827751 
L 242.285787 114.690742 
L 274.825974 102.302744 
L 308.439425 105.806817 
L 319.782045 138.832622 
L 325.231129 168.697695 
L 321.512592 197.07594 
L 327.896808 219.247076 
L 355.880509 245.37413 
L 356.528261 275.981341 
L 352.155218 308.526935 
L 322.058561 324.897162 
L 288.231482 328.059335 
L 258.534973 322.78707 
L 241.647561 343.98664 
L 217.5975 353.701247 
L 189.560975 362.741482 
L 154.445423 372.681887 
L 133.78448 346.198726 
L 124.140339 314.989205 
L 119.972342 287.203911 
L 107.112411 266.738782 
L 84.84108 244.793262 
L 71.07866 215.440249 
L 74.202675 184.248197 
L 93.077536 158.948365 
L 134.346831 155.880761 
L 148.318943 135.486247 
L 171.063301 126.322478 
L 189.18757 97.181789 
L 217.5975 77.552561 
L 248.258241 86.592557 
L 276.612524 98.290086 
L 293.170914 126.82212 
L 300.229244 156.438044 
L 317.924277 172.916308 
L 345.050519 189.428004 
L 354.736444 216.426116 
L 367.022678 246.545219 
L 353.66466 275.0509 
L 324.61858 292.628649 
L 297.752407 303.011803 
L 286.655997 325.890867 
L 275.246926 360.32273 
L 250.019092 383.371596 
L 217.5975 383.712179 
L 188.61676 367.183661 
L 166.05616 346.603744 
L 149.020011 325.228816 
L 130.495852 309.266676 
L 101.582094 297.821526 
L 71.446293 278.327406 
L 59.453862 247.461566 
L 85.656555 216.972448 
L 91.50765 189.870924 
L 115.099299 171.662636 
L 123.169211 145.816386 
L 137.31513 120.340798 
L 154.998446 90.240222 
L 183.602948 70.908209 
L 217.5975 99.59851 
L 246.003671 97.199472 
L 266.295122 121.463349 
L 284.573328 138.655681 
L 310.50889 147.182209 
L 310.50889 147.182209 
" clip-path="url(#p60edf65f11)" style="fill: none; stroke: #38bdf8; stroke-width: 1.2; stroke-linecap: square"/>
   </g>
   <g id="patch_3">
    <path d="M 217.5975 59.16 
C 195.052689 59.16 172.727098 63.600836 151.898408 72.228362 
C 131.069719 80.855888 112.142997 93.502319 96.201408 109.443908 
C 80.259819 125.385497 67.613388 144.312219 58.985862 165.140908 
C 50.358336 185.969598 45.9175 208.295189 45.9175 230.84 
C 45.9175 253.384811 50.358336 275.710402 58.985862 296.539092 
C 67.613388 317.367781 80.259819 336.294503 96.201408 352.236092 
C 112.142997 368.177681 131.069719 380.824112 151.898408 389.451638 
C 172.727098 398.079164 195.052689 402.52 217.5975 402.52 
C 240.142311 402.52 262.467902 398.079164 283.296592 389.451638 
C 304.125281 380.824112 323.052003 368.177681 338.993592 352.236092 
C 354.935181 336.294503 367.581612 317.367781 376.209138 296.539092 
C 384.836664 275.710402 389.2775 253.384811 389.2775 230.84 
C 389.2775 208.295189 384.836664 185.969598 376.209138 165.140908 
C 367.581612 144.312219 354.935181 125.385497 338.993592 109.443908 
C 323.052003 93.502319 304.125281 80.855888 283.296592 72.228362 
C 262.467902 63.600836 240.142311 59.16 217.5975 59.16 
" style="fill: none; stroke: #000000; stroke-width: 0.8; stroke-linejoin: miter; stroke-linecap: square"/>
   </g>
   <g id="text_12">
    <!-- 1月 -->
    <g transform="translate(209.448281 60.562882) scale(0.1 -0.1)">
     <defs>
      <path id="IPAexGothic-6708" d="M 5044 4984 
L 5044 256 
Q 5044 -78 4869 -203 
Q 4734 -300 4403 -300 
Q 3894 -300 3253 -247 
L 3169 244 
Q 3750 159 4294 159 
Q 4503 159 4547 263 
Q 4569 313 4569 438 
L 4569 1672 
L 1953 1672 
Q 1906 956 1716 475 
Q 1538 6 1116 -472 
L 744 -63 
Q 1259 475 1403 1244 
Q 1500 1772 1500 2650 
L 1500 4984 
L 5044 4984 
z
M 1981 4569 
L 1981 3541 
L 4569 3541 
L 4569 4569 
L 1981 4569 
z
M 1981 3144 
L 1981 2556 
Q 1981 2288 1975 2147 
L 1975 2069 
L 4569 2069 
L 4569 3144 
L 1981 3144 
z
" transform="scale(0.015625)"/>
     </defs>
     <use xlink:href="#IPAexGothic-31"/>
     <use xlink:href="#IPAexGothic-6708" transform="translate(62.988281 0)"/>
    </g>
   </g>
   <g id="text_13">
    <!-- 2月 -->
    <g transform="translate(295.984497 83.750191) scale(0.1 -0.1)">
     <use xlink:href="#IPAexGothic-32"/>
     <use xlink:href="#IPAexGothic-6708" transform="translate(62.988281 0)"/>
    </g>
   </g>
   <g id="text_14">
    <!-- 3月 -->
    <g transform="translate(359.333403 147.099097) scale(0.1 -0.1)">
     <use xlink:href="#IPAexGothic-33"/>
     <use xlink:href="#IPAexGothic-6708" transform="translate(62.988281 0)"/>
    </g>
   </g>
   <g id="text_15">
    <!-- 4月 -->
    <g transform="translate(382.520712 233.635313) scale(0.1 -0.1)">
     <use xlink:href="#IPAexGothic-34"/>
     <use xlink:href="#IPAexGothic-6708" transform="translate(62.988281 0)"/>
    </g>
   </g>
   <g id="text_16">
    <!-- 5月 -->
    <g transform="translate(359.333403 320.171528) scale(0.1 -0.1)">
     <use xlink:href="#IPAexGothic-35"/>
     <use xlink:href="#IPAexGothic-6708" transform="translate(62.988281 0)"/>
    </g>
   </g>
   <g id="text_17">
    <!-- 6月 -->
    <g transform="translate(295.984497 383.520434) scale(0.1 -0.1)">
     <defs>
      <path id="IPAexGothic-36" d="M 1056 2328 
Q 1509 2981 2234 2981 
Q 2906 2981 3316 2513 
Q 3675 2106 3675 1522 
Q 3675 884 3272 434 
Q 2853 -31 2178 -31 
Q 1375 -31 922 581 
Q 481 1178 481 2228 
Q 481 3425 1013 4109 
Q 1494 4725 2272 4725 
Q 3191 4725 3609 4025 
L 3150 3775 
Q 2894 4266 2300 4266 
Q 1119 4266 1031 2328 
L 1056 2328 
z
M 2141 2547 
Q 1684 2547 1384 2206 
Q 1116 1900 1116 1541 
Q 1116 1156 1353 844 
Q 1672 428 2159 428 
Q 2669 428 2941 844 
Q 3125 1128 3125 1503 
Q 3125 1944 2881 2228 
Q 2600 2547 2141 2547 
z
" transform="scale(0.015625)"/>
     </defs>
     <use xlink:href="#IPAexGothic-36"/>
     <use xlink:href="#IPAexGothic-6708" transform="translate(62.988281 0)"/>
    </g>
   </g>
   <g id="text_18">
    <!-- 7月 -->
    <g transform="translate(209.448281 406.707743) scale(0.1 -0.1)">
     <use xlink:href="#IPAexGothic-37"/>
     <use xlink:href="#IPAexGothic-6708" transform="translate(62.988281 0)"/>
    </g>
   </g>
   <g id="text_19">
    <!-- 8月 -->
    <g transform="translate(122.912066 383.520434) scale(0.1 -0.1)">
     <use xlink:href="#IPAexGothic-38"/>
     <use xlink:href="#IPAexGothic-6708" transform="translate(62.988281 0)"/>
    </g>
   </g>
   <g id="text_20">
    <!-- 9月 -->
    <g transform="translate(59.56316 320.171528) scale(0.1 -0.1)">
     <use xlink:href="#IPAexGothic-39"/>
     <use xlink:href="#IPAexGothic-6708" transform="translate(62.988281 0)"/>
    </g>
   </g>
   <g id="text_21">
    <!-- 10月 -->
    <g transform="translate(33.226632 233.635313) scale(0.1 -0.1)">
     <use xlink:href="#IPAexGothic-31"/>
     <use xlink:href="#IPAexGothic-30" transform="translate(62.988281 0)"/>
     <use xlink:href="#IPAexGothic-6708" transform="translate(125.976562 0)"/>
    </g>
   </g>
   <g id="text_22">
    <!-- 11月 -->
    <g transform="translate(56.413941 147.099097) scale(0.1 -0.1)">
     <use xlink:href="#IPAexGothic-31"/>
     <use xlink:href="#IPAexGothic-31" transform="translate(62.988281 0)"/>
     <use xlink:href="#IPAexGothic-6708" transform="translate(125.976562 0)"/>
    </g>
   </g>
   <g id="text_23">
    <!-- 12月 -->
    <g transform="translate(119.762847 83.750191) scale(0.1 -0.1)">
     <use xlink:href="#IPAexGothic-31"/>
     <use xlink:href="#IPAexGothic-32" transform="translate(62.988281 0)"/>
     <use xlink:href="#IPAexGothic-6708" transform="translate(125.976562 0)"/>
    </g>
   </g>
   <g id="text_24">
    <!-- 2024年 日次ユーザー滞在時間のスパイラルプロット -->
    <g transform="translate(12.0573 24.464688) scale(0.1728 -0.1728)">
     <defs>
      <path id="IPAexGothic-5e74" d="M 1772 4159 
Q 1444 3422 875 2803 
L 528 3166 
Q 1322 3941 1631 5259 
L 2109 5156 
Q 1994 4759 1931 4563 
L 5694 4563 
L 5694 4159 
L 3756 4159 
L 3756 3128 
L 5434 3128 
L 5434 2725 
L 3756 2725 
L 3756 1509 
L 6078 1509 
L 6078 1094 
L 3756 1094 
L 3756 -450 
L 3275 -450 
L 3275 1094 
L 447 1094 
L 447 1509 
L 1534 1509 
L 1534 3128 
L 3275 3128 
L 3275 4159 
L 1772 4159 
z
M 3275 2725 
L 1994 2725 
L 1994 1509 
L 3275 1509 
L 3275 2725 
z
" transform="scale(0.015625)"/>
      <path id="IPAexGothic-20" transform="scale(0.015625)"/>
      <path id="IPAexGothic-65e5" d="M 5231 4800 
L 5231 -288 
L 4744 -288 
L 4744 128 
L 1647 128 
L 1647 -288 
L 1159 -288 
L 1159 4800 
L 5231 4800 
z
M 1647 4372 
L 1647 2731 
L 4744 2731 
L 4744 4372 
L 1647 4372 
z
M 1647 2297 
L 1647 556 
L 4744 556 
L 4744 2297 
L 1647 2297 
z
" transform="scale(0.015625)"/>
      <path id="IPAexGothic-6b21" d="M 3519 3750 
L 2950 3750 
Q 2678 3041 2231 2444 
L 1853 2772 
Q 2600 3756 2878 5184 
L 3353 5094 
Q 3241 4603 3103 4166 
L 5541 4166 
L 5841 3928 
Q 5406 2903 4906 2222 
L 4484 2481 
Q 4963 3072 5247 3750 
L 3994 3750 
L 3994 3263 
Q 3994 1384 6028 91 
L 5681 -353 
Q 4166 622 3794 2194 
Q 3669 1413 3391 922 
Q 2903 72 1931 -488 
L 1613 -72 
Q 3519 888 3519 3359 
L 3519 3750 
z
M 1438 3200 
Q 959 3884 509 4294 
L 881 4628 
Q 1413 4153 1841 3597 
L 1438 3200 
z
M 325 250 
Q 984 938 1600 2003 
L 1950 1656 
Q 1319 538 697 -184 
L 325 250 
z
" transform="scale(0.015625)"/>
      <path id="IPAexGothic-30e6" d="M 1313 4006 
L 4584 4006 
Q 4488 2603 4275 1050 
L 5759 1050 
L 5759 563 
L 641 563 
L 641 1050 
L 3744 1050 
Q 3928 2344 4013 3525 
L 1313 3525 
L 1313 4006 
z
" transform="scale(0.015625)"/>
      <path id="IPAexGothic-30fc" d="M 588 2688 
L 5809 2688 
L 5809 2175 
L 588 2175 
L 588 2688 
z
" transform="scale(0.015625)"/>
      <path id="IPAexGothic-30b6" d="M 3963 4919 
L 4475 4919 
L 4475 3531 
L 5856 3531 
L 5856 3072 
L 4475 3072 
Q 4456 1719 4122 1063 
Q 3697 222 2613 -325 
L 2234 38 
Q 3294 525 3681 1319 
Q 3944 1853 3963 3072 
L 2300 3072 
L 2300 1575 
L 1788 1575 
L 1788 3072 
L 481 3072 
L 481 3531 
L 1788 3531 
L 1788 4797 
L 2300 4797 
L 2300 3531 
L 3963 3531 
L 3963 4919 
z
M 5313 4044 
Q 5084 4559 4725 4984 
L 5081 5166 
Q 5400 4806 5691 4256 
L 5313 4044 
z
M 5941 4409 
Q 5681 4913 5331 5306 
L 5684 5503 
Q 6034 5113 6303 4628 
L 5941 4409 
z
" transform="scale(0.015625)"/>
      <path id="IPAexGothic-6ede" d="M 2431 4494 
L 2431 5153 
L 2834 5153 
L 2834 4494 
L 3609 4494 
L 3609 5313 
L 4019 5313 
L 4019 4494 
L 4819 4494 
L 4819 5153 
L 5222 5153 
L 5222 4494 
L 6072 4494 
L 6072 4128 
L 5222 4128 
L 5222 3213 
L 2431 3213 
L 2431 4128 
L 1644 4128 
L 1644 4494 
L 2431 4494 
z
M 4819 4128 
L 4019 4128 
L 4019 3559 
L 4819 3559 
L 4819 4128 
z
M 3609 4128 
L 2834 4128 
L 2834 3559 
L 3609 3559 
L 3609 4128 
z
M 5978 2778 
L 5978 1694 
L 5550 1694 
L 5550 2406 
L 4019 2406 
L 4019 1888 
L 5413 1888 
L 5413 453 
Q 5413 38 4913 38 
Q 4638 38 4338 72 
L 4288 500 
Q 4566 447 4794 447 
Q 4997 447 4997 666 
L 4997 1522 
L 4019 1522 
L 4019 -447 
L 3603 -447 
L 3603 1522 
L 2750 1522 
L 2750 -63 
L 2334 -63 
L 2334 1888 
L 3603 1888 
L 3603 2406 
L 2181 2406 
L 2181 1694 
L 1753 1694 
L 1753 2778 
L 5978 2778 
z
M 1325 3944 
Q 894 4475 494 4775 
L 794 5106 
Q 1191 4822 1638 4313 
L 1325 3944 
z
M 1131 2450 
Q 697 2963 288 3263 
L 581 3603 
Q 984 3309 1441 2816 
L 1131 2450 
z
M 338 -103 
Q 841 778 1166 1925 
L 1534 1650 
Q 1150 322 722 -428 
L 338 -103 
z
" transform="scale(0.015625)"/>
      <path id="IPAexGothic-5728" d="M 2200 4372 
Q 2322 4719 2456 5269 
L 2938 5159 
Q 2781 4625 2694 4372 
L 5913 4372 
L 5913 3963 
L 2541 3963 
Q 2528 3938 2522 3919 
Q 2266 3272 1900 2709 
L 1900 -447 
L 1447 -447 
L 1447 2081 
Q 1028 1581 538 1184 
L 256 1538 
Q 972 2109 1447 2816 
L 1447 3253 
L 1663 3163 
Q 1859 3519 2047 3963 
L 575 3963 
L 575 4372 
L 2200 4372 
z
M 3803 2431 
L 3803 3609 
L 4244 3609 
L 4244 2431 
L 5619 2431 
L 5619 2034 
L 4244 2034 
L 4244 263 
L 5997 263 
L 5997 -153 
L 2216 -153 
L 2216 263 
L 3803 263 
L 3803 2034 
L 2491 2034 
L 2491 2431 
L 3803 2431 
z
" transform="scale(0.015625)"/>
      <path id="IPAexGothic-6642" d="M 2328 4728 
L 2328 563 
L 934 563 
L 934 56 
L 519 56 
L 519 4728 
L 2328 4728 
z
M 934 4331 
L 934 2881 
L 1906 2881 
L 1906 4331 
L 934 4331 
z
M 934 2497 
L 934 953 
L 1906 953 
L 1906 2497 
L 934 2497 
z
M 3938 4372 
L 3938 5313 
L 4378 5313 
L 4378 4372 
L 5772 4372 
L 5772 3981 
L 4378 3981 
L 4378 3194 
L 6072 3194 
L 6072 2803 
L 5203 2803 
L 5203 2047 
L 5959 2047 
L 5959 1650 
L 5216 1650 
L 5216 31 
Q 5216 -447 4691 -447 
Q 4394 -447 3888 -391 
L 3784 78 
Q 4272 0 4591 0 
Q 4775 0 4775 172 
L 4775 1650 
L 2581 1650 
L 2581 2047 
L 4763 2047 
L 4763 2803 
L 2538 2803 
L 2538 3194 
L 3938 3194 
L 3938 3981 
L 2716 3981 
L 2716 4372 
L 3938 4372 
z
M 3669 384 
Q 3331 950 2956 1325 
L 3291 1575 
Q 3719 1147 4025 659 
L 3669 384 
z
" transform="scale(0.015625)"/>
      <path id="IPAexGothic-9593" d="M 4450 2566 
L 4450 353 
L 2375 353 
L 2375 -25 
L 1953 -25 
L 1953 2566 
L 4450 2566 
z
M 4028 2200 
L 2375 2200 
L 2375 1653 
L 4028 1653 
L 4028 2200 
z
M 4028 1300 
L 2375 1300 
L 2375 719 
L 4028 719 
L 4028 1300 
z
M 2913 5019 
L 2913 3059 
L 1056 3059 
L 1056 -447 
L 609 -447 
L 609 5019 
L 2913 5019 
z
M 1056 4659 
L 1056 4206 
L 2497 4206 
L 2497 4659 
L 1056 4659 
z
M 1056 3881 
L 1056 3413 
L 2497 3413 
L 2497 3881 
L 1056 3881 
z
M 5788 5019 
L 5788 91 
Q 5788 -225 5641 -331 
Q 5525 -409 5231 -409 
Q 4803 -409 4481 -366 
L 4419 97 
Q 4853 38 5128 38 
Q 5341 38 5341 244 
L 5341 3059 
L 3438 3059 
L 3438 5019 
L 5788 5019 
z
M 3853 4659 
L 3853 4206 
L 5341 4206 
L 5341 4659 
L 3853 4659 
z
M 3853 3881 
L 3853 3413 
L 5341 3413 
L 5341 3881 
L 3853 3881 
z
" transform="scale(0.015625)"/>
      <path id="IPAexGothic-306e" d="M 3119 469 
Q 5275 766 5275 2425 
Q 5275 3453 4413 3925 
Q 4041 4116 3547 4159 
Q 3394 2525 2850 1400 
Q 2322 306 1722 306 
Q 1384 306 1084 666 
Q 609 1244 609 2003 
Q 609 3025 1397 3794 
Q 2184 4563 3431 4563 
Q 4306 4563 4928 4122 
Q 5813 3506 5813 2425 
Q 5813 438 3431 6 
L 3119 469 
z
M 3053 4147 
Q 2378 4044 1891 3641 
Q 1097 2981 1097 1991 
Q 1097 1366 1434 978 
Q 1581 813 1719 813 
Q 2022 813 2416 1625 
Q 2909 2638 3053 4147 
z
" transform="scale(0.015625)"/>
      <path id="IPAexGothic-30b9" d="M 4359 4481 
L 4716 4147 
Q 4328 3072 3647 2150 
Q 4659 1434 5659 453 
L 5234 19 
Q 4256 1088 3353 1778 
Q 2372 597 1044 -31 
L 653 403 
Q 3128 1453 4097 4000 
L 1241 3963 
L 1228 4453 
L 4359 4481 
z
" transform="scale(0.015625)"/>
      <path id="IPAexGothic-30d1" d="M 403 897 
Q 1447 2063 1947 3878 
L 2472 3694 
Q 1913 1772 872 538 
L 403 897 
z
M 5416 672 
Q 4669 2269 3659 3719 
L 4122 3963 
Q 5025 2728 5931 1019 
L 5416 672 
z
M 5228 5234 
Q 5538 5234 5750 5000 
Q 5931 4797 5931 4531 
Q 5931 4219 5697 4006 
Q 5497 3822 5228 3822 
Q 4916 3822 4703 4056 
Q 4519 4259 4519 4531 
Q 4519 4841 4753 5050 
Q 4956 5234 5228 5234 
z
M 5228 4953 
Q 5038 4953 4909 4813 
Q 4800 4691 4800 4531 
Q 4800 4341 4941 4213 
Q 5063 4103 5228 4103 
Q 5413 4103 5541 4244 
Q 5650 4366 5650 4531 
Q 5650 4716 5509 4844 
Q 5388 4953 5228 4953 
z
" transform="scale(0.015625)"/>
      <path id="IPAexGothic-30a4" d="M 3131 -231 
L 3131 2875 
Q 2091 2088 1106 1656 
L 781 2059 
Q 3016 3000 4469 4916 
L 4916 4641 
Q 4384 3938 3675 3316 
L 3675 -231 
L 3131 -231 
z
" transform="scale(0.015625)"/>
      <path id="IPAexGothic-30e9" d="M 1447 4709 
L 4922 4709 
L 4922 4234 
L 1447 4234 
L 1447 4709 
z
M 897 3303 
L 5172 3303 
L 5478 3013 
Q 5069 1669 4219 875 
Q 3475 181 2306 -181 
L 1972 294 
Q 4150 784 4834 2828 
L 897 2828 
L 897 3303 
z
" transform="scale(0.015625)"/>
      <path id="IPAexGothic-30eb" d="M 353 331 
Q 1313 994 1544 2022 
Q 1684 2650 1684 4397 
L 2203 4397 
L 2203 4153 
L 2203 4116 
Q 2203 2259 1934 1491 
Q 1619 588 744 -38 
L 353 331 
z
M 3125 4666 
L 3650 4666 
L 3650 769 
Q 4875 1488 5672 2734 
L 6000 2278 
Q 5075 966 3516 63 
L 3125 359 
L 3125 4666 
z
" transform="scale(0.015625)"/>
      <path id="IPAexGothic-30d7" d="M 4825 4275 
L 5125 4000 
Q 4884 2378 4081 1381 
Q 3294 413 1888 -116 
L 1522 331 
Q 4069 1113 4550 3803 
L 966 3738 
L 966 4225 
L 4825 4275 
z
M 5597 5509 
Q 5906 5509 6119 5275 
Q 6303 5075 6303 4806 
Q 6303 4494 6069 4281 
Q 5866 4097 5597 4097 
Q 5284 4097 5072 4331 
Q 4888 4534 4888 4806 
Q 4888 5116 5122 5328 
Q 5328 5509 5597 5509 
z
M 5597 5228 
Q 5409 5228 5278 5088 
Q 5169 4966 5169 4806 
Q 5169 4616 5309 4488 
Q 5434 4378 5597 4378 
Q 5784 4378 5913 4519 
Q 6022 4641 6022 4806 
Q 6022 4991 5881 5119 
Q 5759 5228 5597 5228 
z
" transform="scale(0.015625)"/>
      <path id="IPAexGothic-30ed" d="M 1147 4269 
L 5250 4269 
L 5250 172 
L 4725 172 
L 4725 569 
L 1672 569 
L 1672 172 
L 1147 172 
L 1147 4269 
z
M 1672 3781 
L 1672 1063 
L 4725 1063 
L 4725 3781 
L 1672 3781 
z
" transform="scale(0.015625)"/>
      <path id="IPAexGothic-30c3" d="M 1775 1984 
Q 1553 2666 1275 3175 
L 1716 3391 
Q 2034 2866 2247 2209 
L 1775 1984 
z
M 3003 2297 
Q 2813 2978 2522 3469 
L 2978 3681 
Q 3291 3166 3484 2522 
L 3003 2297 
z
M 1928 372 
Q 3094 744 3731 1569 
Q 4275 2263 4469 3525 
L 4975 3406 
Q 4734 1975 4016 1119 
Q 3406 391 2266 -44 
L 1928 372 
z
" transform="scale(0.015625)"/>
      <path id="IPAexGothic-30c8" d="M 2284 4997 
L 2803 4997 
L 2803 3206 
Q 4088 2619 5216 1888 
L 4878 1369 
Q 3819 2175 2803 2688 
L 2803 -184 
L 2284 -184 
L 2284 4997 
z
" transform="scale(0.015625)"/>
     </defs>
     <use xlink:href="#IPAexGothic-32"/>
     <use xlink:href="#IPAexGothic-30" transform="translate(62.988281 0)"/>
     <use xlink:href="#IPAexGothic-32" transform="translate(125.976562 0)"/>
     <use xlink:href="#IPAexGothic-34" transform="translate(188.964844 0)"/>
     <use xlink:href="#IPAexGothic-5e74" transform="translate(251.953125 0)"/>
     <use xlink:href="#IPAexGothic-20" transform="translate(351.953125 0)"/>
     <use xlink:href="#IPAexGothic-65e5" transform="translate(378.955078 0)"/>
     <use xlink:href="#IPAexGothic-6b21" transform="translate(478.955078 0)"/>
     <use xlink:href="#IPAexGothic-30e6" transform="translate(578.955078 0)"/>
     <use xlink:href="#IPAexGothic-30fc" transform="translate(678.955078 0)"/>
     <use xlink:href="#IPAexGothic-30b6" transform="translate(778.955078 0)"/>
     <use xlink:href="#IPAexGothic-30fc" transform="translate(878.955078 0)"/>
     <use xlink:href="#IPAexGothic-6ede" transform="translate(978.955078 0)"/>
     <use xlink:href="#IPAexGothic-5728" transform="translate(1078.955078 0)"/>
     <use xlink:href="#IPAexGothic-6642" transform="translate(1178.955078 0)"/>
     <use xlink:href="#IPAexGothic-9593" transform="translate(1278.955078 0)"/>
     <use xlink:href="#IPAexGothic-306e" transform="translate(1378.955078 0)"/>
     <use xlink:href="#IPAexGothic-30b9" transform="translate(1478.955078 0)"/>
     <use xlink:href="#IPAexGothic-30d1" transform="translate(1578.955078 0)"/>
     <use xlink:href="#IPAexGothic-30a4" transform="translate(1678.955078 0)"/>
     <use xlink:href="#IPAexGothic-30e9" transform="translate(1778.955078 0)"/>
     <use xlink:href="#IPAexGothic-30eb" transform="translate(1878.955078 0)"/>
     <use xlink:href="#IPAexGothic-30d7" transform="translate(1978.955078 0)"/>
     <use xlink:href="#IPAexGothic-30ed" transform="translate(2078.955078 0)"/>
     <use xlink:href="#IPAexGothic-30c3" transform="translate(2178.955078 0)"/>
     <use xlink:href="#IPAexGothic-30c8" transform="translate(2278.955078 0)"/>
    </g>
   </g>
  </g>
 </g>
 <defs>
  <clipPath id="p60edf65f11">
   <path d="M 389.2775 230.84 
C 389.2775 208.295189 384.836664 185.969598 376.209138 165.140908 
C 367.581612 144.312219 354.935181 125.385497 338.993592 109.443908 
C 323.052003 93.502319 304.125281 80.855888 283.296592 72.228362 
C 262.467902 63.600836 240.142311 59.16 217.5975 59.16 
C 195.052689 59.16 172.727098 63.600836 151.898408 72.228362 
C 131.069719 80.855888 112.142997 93.502319 96.201408 109.443908 
C 80.259819 125.385497 67.613388 144.312219 58.985862 165.140908 
C 50.358336 185.969598 45.9175 208.295189 45.9175 230.84 
C 45.9175 253.384811 50.358336 275.710402 58.985862 296.539092 
C 67.613388 317.367781 80.259819 336.294503 96.201408 352.236092 
C 112.142997 368.177681 131.069719 380.824112 151.898408 389.451638 
C 172.727098 398.079164 195.052689 402.52 217.5975 402.52 
C 240.142311 402.52 262.467902 398.079164 283.296592 389.451638 
C 304.125281 380.824112 323.052003 368.177681 338.993592 352.236092 
C 354.935181 336.294503 367.581612 317.367781 376.209138 296.539092 
C 384.836664 275.710402 389.2775 253.384811 389.2775 230.84 
M 217.5975 230.84 
C 217.5975 230.84 217.5975 230.84 217.5975 230.84 
C 217.5975 230.84 217.5975 230.84 217.5975 230.84 
C 217.5975 230.84 217.5975 230.84 217.5975 230.84 
C 217.5975 230.84 217.5975 230.84 217.5975 230.84 
C 217.5975 230.84 217.5975 230.84 217.5975 230.84 
C 217.5975 230.84 217.5975 230.84 217.5975 230.84 
C 217.5975 230.84 217.5975 230.84 217.5975 230.84 
C 217.5975 230.84 217.5975 230.84 217.5975 230.84 
C 217.5975 230.84 217.5975 230.84 217.5975 230.84 
C 217.5975 230.84 217.5975 230.84 217.5975 230.84 
C 217.5975 230.84 217.5975 230.84 217.5975 230.84 
C 217.5975 230.84 217.5975 230.84 217.5975 230.84 
C 217.5975 230.84 217.5975 230.84 217.5975 230.84 
C 217.5975 230.84 217.5975 230.84 217.5975 230.84 
C 217.5975 230.84 217.5975 230.84 217.5975 230.84 
C 217.5975 230.84 217.5975 230.84 217.5975 230.84 
z
"/>
  </clipPath>
 </defs>
</svg>
