<?xml version="1.0" encoding="utf-8" standalone="no"?>
<!DOCTYPE svg PUBLIC "-//W3C//DTD SVG 1.1//EN"
  "http://www.w3.org/Graphics/SVG/1.1/DTD/svg11.dtd">
<svg xmlns:xlink="http://www.w3.org/1999/xlink" width="460.8pt" height="288pt" viewBox="0 0 460.8 288" xmlns="http://www.w3.org/2000/svg" version="1.1">
 <metadata>
  <rdf:RDF xmlns:dc="http://purl.org/dc/elements/1.1/" xmlns:cc="http://creativecommons.org/ns#" xmlns:rdf="http://www.w3.org/1999/02/22-rdf-syntax-ns#">
   <cc:Work>
    <dc:type rdf:resource="http://purl.org/dc/dcmitype/StillImage"/>
    <dc:date>2025-10-29T08:53:13.756523</dc:date>
    <dc:format>image/svg+xml</dc:format>
    <dc:creator>
     <cc:Agent>
      <dc:title>Matplotlib v3.10.7, https://matplotlib.org/</dc:title>
     </cc:Agent>
    </dc:creator>
   </cc:Work>
  </rdf:RDF>
 </metadata>
 <defs>
  <style type="text/css">*{stroke-linejoin: round; stroke-linecap: butt}</style>
 </defs>
 <g id="figure_1">
  <g id="patch_1">
   <path d="M 0 288 
L 460.8 288 
L 460.8 0 
L 0 0 
z
" style="fill: #ffffff"/>
  </g>
  <g id="axes_1">
   <g id="patch_2">
    <path d="M 55.55 242.44 
L 450 242.44 
L 450 30.48 
L 55.55 30.48 
z
" style="fill: #ffffff"/>
   </g>
   <g id="FillBetweenPolyCollection_1">
    <path d="M 73.479545 183.172132 
L 73.479545 228.018983 
L 89.070455 231.444932 
L 104.661364 218.003514 
L 120.252273 215.553973 
L 135.843182 211.58668 
L 151.434091 203.209208 
L 167.025 204.752953 
L 182.615909 194.250376 
L 198.206818 205.038871 
L 213.797727 192.661042 
L 229.388636 205.574516 
L 244.979545 215.89672 
L 260.570455 226.077486 
L 276.161364 219.04834 
L 291.752273 232.805455 
L 307.343182 226.774928 
L 322.934091 209.753191 
L 338.525 206.955123 
L 354.115909 196.150062 
L 369.706818 198.268722 
L 385.297727 195.431276 
L 400.888636 205.523274 
L 416.479545 198.262919 
L 432.070455 212.28384 
L 432.070455 178.318441 
L 432.070455 178.318441 
L 416.479545 182.85659 
L 400.888636 183.871584 
L 385.297727 178.331112 
L 369.706818 166.920737 
L 354.115909 159.923511 
L 338.525 157.399516 
L 322.934091 156.905802 
L 307.343182 166.065734 
L 291.752273 169.198263 
L 276.161364 172.390994 
L 260.570455 183.945253 
L 244.979545 182.75969 
L 229.388636 183.917424 
L 213.797727 177.362598 
L 198.206818 178.817919 
L 182.615909 169.67127 
L 167.025 162.884728 
L 151.434091 154.721204 
L 135.843182 156.309513 
L 120.252273 157.028086 
L 104.661364 165.980099 
L 89.070455 180.701825 
L 73.479545 183.172132 
z
" clip-path="url(#pc292d38249)" style="fill: #0ea5e9; fill-opacity: 0.9"/>
   </g>
   <g id="FillBetweenPolyCollection_2">
    <path d="M 73.479545 122.831652 
L 73.479545 183.172132 
L 89.070455 180.701825 
L 104.661364 165.980099 
L 120.252273 157.028086 
L 135.843182 156.309513 
L 151.434091 154.721204 
L 167.025 162.884728 
L 182.615909 169.67127 
L 198.206818 178.817919 
L 213.797727 177.362598 
L 229.388636 183.917424 
L 244.979545 182.75969 
L 260.570455 183.945253 
L 276.161364 172.390994 
L 291.752273 169.198263 
L 307.343182 166.065734 
L 322.934091 156.905802 
L 338.525 157.399516 
L 354.115909 159.923511 
L 369.706818 166.920737 
L 385.297727 178.331112 
L 400.888636 183.871584 
L 416.479545 182.85659 
L 432.070455 178.318441 
L 432.070455 131.677291 
L 432.070455 131.677291 
L 416.479545 138.967728 
L 400.888636 139.649794 
L 385.297727 145.421499 
L 369.706818 145.450421 
L 354.115909 145.480446 
L 338.525 135.127508 
L 322.934091 130.721477 
L 307.343182 120.151288 
L 291.752273 120.960113 
L 276.161364 118.004042 
L 260.570455 120.059938 
L 244.979545 127.456768 
L 229.388636 136.630292 
L 213.797727 141.320544 
L 198.206818 144.002168 
L 182.615909 145.010298 
L 167.025 135.370568 
L 151.434091 133.278014 
L 135.843182 132.088237 
L 120.252273 125.793317 
L 104.661364 119.399589 
L 89.070455 118.723808 
L 73.479545 122.831652 
z
" clip-path="url(#pc292d38249)" style="fill: #22d3ee; fill-opacity: 0.9"/>
   </g>
   <g id="FillBetweenPolyCollection_3">
    <path d="M 73.479545 81.193555 
L 73.479545 122.831652 
L 89.070455 118.723808 
L 104.661364 119.399589 
L 120.252273 125.793317 
L 135.843182 132.088237 
L 151.434091 133.278014 
L 167.025 135.370568 
L 182.615909 145.010298 
L 198.206818 144.002168 
L 213.797727 141.320544 
L 229.388636 136.630292 
L 244.979545 127.456768 
L 260.570455 120.059938 
L 276.161364 118.004042 
L 291.752273 120.960113 
L 307.343182 120.151288 
L 322.934091 130.721477 
L 338.525 135.127508 
L 354.115909 145.480446 
L 369.706818 145.450421 
L 385.297727 145.421499 
L 400.888636 139.649794 
L 416.479545 138.967728 
L 432.070455 131.677291 
L 432.070455 83.582113 
L 432.070455 83.582113 
L 416.479545 81.039879 
L 400.888636 83.480151 
L 385.297727 88.212426 
L 369.706818 98.09539 
L 354.115909 104.472465 
L 338.525 107.428992 
L 322.934091 109.242815 
L 307.343182 100.354432 
L 291.752273 93.935519 
L 276.161364 93.471378 
L 260.570455 84.358064 
L 244.979545 81.20328 
L 229.388636 81.304374 
L 213.797727 88.049354 
L 198.206818 85.463249 
L 182.615909 95.887553 
L 167.025 106.411383 
L 151.434091 112.16714 
L 135.843182 109.580781 
L 120.252273 104.993029 
L 104.661364 99.766423 
L 89.070455 82.503819 
L 73.479545 81.193555 
z
" clip-path="url(#pc292d38249)" style="fill: #818cf8; fill-opacity: 0.9"/>
   </g>
   <g id="FillBetweenPolyCollection_4">
    <path d="M 73.479545 59.306426 
L 73.479545 81.193555 
L 89.070455 82.503819 
L 104.661364 99.766423 
L 120.252273 104.993029 
L 135.843182 109.580781 
L 151.434091 112.16714 
L 167.025 106.411383 
L 182.615909 95.887553 
L 198.206818 85.463249 
L 213.797727 88.049354 
L 229.388636 81.304374 
L 244.979545 81.20328 
L 260.570455 84.358064 
L 276.161364 93.471378 
L 291.752273 93.935519 
L 307.343182 100.354432 
L 322.934091 109.242815 
L 338.525 107.428992 
L 354.115909 104.472465 
L 369.706818 98.09539 
L 385.297727 88.212426 
L 400.888636 83.480151 
L 416.479545 81.039879 
L 432.070455 83.582113 
L 432.070455 62.280557 
L 432.070455 62.280557 
L 416.479545 57.728772 
L 400.888636 42.193754 
L 385.297727 42.358737 
L 369.706818 42.51827 
L 354.115909 45.817181 
L 338.525 54.85293 
L 322.934091 58.226707 
L 307.343182 61.80225 
L 291.752273 60.726842 
L 276.161364 74.938918 
L 260.570455 58.916092 
L 244.979545 62.98389 
L 229.388636 52.441389 
L 213.797727 55.59405 
L 198.206818 40.114545 
L 182.615909 46.331469 
L 167.025 47.633775 
L 151.434091 58.178162 
L 135.843182 54.176344 
L 120.252273 70.537249 
L 104.661364 73.424349 
L 89.070455 66.416249 
L 73.479545 59.306426 
z
" clip-path="url(#pc292d38249)" style="fill: #f472b6; fill-opacity: 0.9"/>
   </g>
   <g id="matplotlib.axis_1">
    <g id="xtick_1">
     <g id="line2d_1">
      <path d="M 73.479545 242.44 
L 73.479545 30.48 
" clip-path="url(#pc292d38249)" style="fill: none; stroke: #000000; stroke-opacity: 0.15; stroke-width: 0.5; stroke-linecap: square"/>
     </g>
     <g id="line2d_2">
      <defs>
       <path id="mc3a38e6ac5" d="M 0 0 
L 0 3.5 
" style="stroke: #000000; stroke-width: 0.8"/>
      </defs>
      <g>
       <use xlink:href="#mc3a38e6ac5" x="73.479545" y="242.44" style="stroke: #000000; stroke-width: 0.8"/>
      </g>
     </g>
     <g id="text_1">
      <!-- 0時 -->
      <g transform="translate(65.330327 256.930625) scale(0.1 -0.1)">
       <defs>
        <path id="IPAexGothic-30" d="M 2038 4725 
Q 2881 4725 3334 3944 
Q 3694 3325 3694 2344 
Q 3694 1372 3334 741 
Q 2888 -31 2016 -31 
Q 1147 -31 700 741 
Q 341 1372 341 2350 
Q 341 3713 1000 4334 
Q 1419 4725 2038 4725 
z
M 2016 4266 
Q 1516 4266 1228 3759 
Q 934 3247 934 2344 
Q 934 1456 1222 947 
Q 1513 447 2016 447 
Q 2619 447 2909 1153 
Q 3100 1622 3100 2375 
Q 3100 3256 2806 3759 
Q 2509 4266 2016 4266 
z
" transform="scale(0.015625)"/>
        <path id="IPAexGothic-6642" d="M 2328 4728 
L 2328 563 
L 934 563 
L 934 56 
L 519 56 
L 519 4728 
L 2328 4728 
z
M 934 4331 
L 934 2881 
L 1906 2881 
L 1906 4331 
L 934 4331 
z
M 934 2497 
L 934 953 
L 1906 953 
L 1906 2497 
L 934 2497 
z
M 3938 4372 
L 3938 5313 
L 4378 5313 
L 4378 4372 
L 5772 4372 
L 5772 3981 
L 4378 3981 
L 4378 3194 
L 6072 3194 
L 6072 2803 
L 5203 2803 
L 5203 2047 
L 5959 2047 
L 5959 1650 
L 5216 1650 
L 5216 31 
Q 5216 -447 4691 -447 
Q 4394 -447 3888 -391 
L 3784 78 
Q 4272 0 4591 0 
Q 4775 0 4775 172 
L 4775 1650 
L 2581 1650 
L 2581 2047 
L 4763 2047 
L 4763 2803 
L 2538 2803 
L 2538 3194 
L 3938 3194 
L 3938 3981 
L 2716 3981 
L 2716 4372 
L 3938 4372 
z
M 3669 384 
Q 3331 950 2956 1325 
L 3291 1575 
Q 3719 1147 4025 659 
L 3669 384 
z
" transform="scale(0.015625)"/>
       </defs>
       <use xlink:href="#IPAexGothic-30"/>
       <use xlink:href="#IPAexGothic-6642" transform="translate(62.988281 0)"/>
      </g>
     </g>
    </g>
    <g id="xtick_2">
     <g id="line2d_3">
      <path d="M 120.252273 242.44 
L 120.252273 30.48 
" clip-path="url(#pc292d38249)" style="fill: none; stroke: #000000; stroke-opacity: 0.15; stroke-width: 0.5; stroke-linecap: square"/>
     </g>
     <g id="line2d_4">
      <g>
       <use xlink:href="#mc3a38e6ac5" x="120.252273" y="242.44" style="stroke: #000000; stroke-width: 0.8"/>
      </g>
     </g>
     <g id="text_2">
      <!-- 3時 -->
      <g transform="translate(112.103054 256.930625) scale(0.1 -0.1)">
       <defs>
        <path id="IPAexGothic-33" d="M 2381 2419 
Q 3506 2216 3506 1278 
Q 3506 716 3128 356 
Q 2709 -31 1944 -31 
Q 797 -31 288 881 
L 756 1131 
Q 1109 441 1938 441 
Q 2425 441 2694 691 
Q 2950 928 2950 1291 
Q 2950 1719 2566 1978 
Q 2216 2213 1644 2213 
L 1363 2213 
L 1363 2669 
L 1656 2669 
Q 2231 2669 2534 2888 
Q 2859 3119 2859 3509 
Q 2859 3934 2494 4138 
Q 2259 4278 1931 4278 
Q 1238 4278 903 3578 
L 434 3803 
Q 897 4725 1938 4725 
Q 2597 4725 3006 4394 
Q 3416 4069 3416 3534 
Q 3416 3028 3019 2706 
Q 2763 2500 2381 2444 
L 2381 2419 
z
" transform="scale(0.015625)"/>
       </defs>
       <use xlink:href="#IPAexGothic-33"/>
       <use xlink:href="#IPAexGothic-6642" transform="translate(62.988281 0)"/>
      </g>
     </g>
    </g>
    <g id="xtick_3">
     <g id="line2d_5">
      <path d="M 167.025 242.44 
L 167.025 30.48 
" clip-path="url(#pc292d38249)" style="fill: none; stroke: #000000; stroke-opacity: 0.15; stroke-width: 0.5; stroke-linecap: square"/>
     </g>
     <g id="line2d_6">
      <g>
       <use xlink:href="#mc3a38e6ac5" x="167.025" y="242.44" style="stroke: #000000; stroke-width: 0.8"/>
      </g>
     </g>
     <g id="text_3">
      <!-- 6時 -->
      <g transform="translate(158.875781 256.930625) scale(0.1 -0.1)">
       <defs>
        <path id="IPAexGothic-36" d="M 1056 2328 
Q 1509 2981 2234 2981 
Q 2906 2981 3316 2513 
Q 3675 2106 3675 1522 
Q 3675 884 3272 434 
Q 2853 -31 2178 -31 
Q 1375 -31 922 581 
Q 481 1178 481 2228 
Q 481 3425 1013 4109 
Q 1494 4725 2272 4725 
Q 3191 4725 3609 4025 
L 3150 3775 
Q 2894 4266 2300 4266 
Q 1119 4266 1031 2328 
L 1056 2328 
z
M 2141 2547 
Q 1684 2547 1384 2206 
Q 1116 1900 1116 1541 
Q 1116 1156 1353 844 
Q 1672 428 2159 428 
Q 2669 428 2941 844 
Q 3125 1128 3125 1503 
Q 3125 1944 2881 2228 
Q 2600 2547 2141 2547 
z
" transform="scale(0.015625)"/>
       </defs>
       <use xlink:href="#IPAexGothic-36"/>
       <use xlink:href="#IPAexGothic-6642" transform="translate(62.988281 0)"/>
      </g>
     </g>
    </g>
    <g id="xtick_4">
     <g id="line2d_7">
      <path d="M 213.797727 242.44 
L 213.797727 30.48 
" clip-path="url(#pc292d38249)" style="fill: none; stroke: #000000; stroke-opacity: 0.15; stroke-width: 0.5; stroke-linecap: square"/>
     </g>
     <g id="line2d_8">
      <g>
       <use xlink:href="#mc3a38e6ac5" x="213.797727" y="242.44" style="stroke: #000000; stroke-width: 0.8"/>
      </g>
     </g>
     <g id="text_4">
      <!-- 9時 -->
      <g transform="translate(205.648509 256.930625) scale(0.1 -0.1)">
       <defs>
        <path id="IPAexGothic-39" d="M 2984 2356 
Q 2544 1716 1813 1716 
Q 1253 1716 847 2056 
Q 366 2459 366 3163 
Q 366 3813 769 4266 
Q 1181 4725 1869 4725 
Q 2800 4725 3241 3950 
Q 3559 3378 3559 2472 
Q 3559 1250 3041 588 
Q 2553 -31 1769 -31 
Q 859 -31 391 703 
L 853 953 
Q 1156 428 1753 428 
Q 2922 428 3009 2356 
L 2984 2356 
z
M 1888 4278 
Q 1450 4278 1172 3950 
Q 922 3653 922 3200 
Q 922 2741 1159 2478 
Q 1434 2163 1906 2163 
Q 2431 2163 2728 2572 
Q 2925 2847 2925 3169 
Q 2925 3553 2694 3863 
Q 2375 4278 1888 4278 
z
" transform="scale(0.015625)"/>
       </defs>
       <use xlink:href="#IPAexGothic-39"/>
       <use xlink:href="#IPAexGothic-6642" transform="translate(62.988281 0)"/>
      </g>
     </g>
    </g>
    <g id="xtick_5">
     <g id="line2d_9">
      <path d="M 260.570455 242.44 
L 260.570455 30.48 
" clip-path="url(#pc292d38249)" style="fill: none; stroke: #000000; stroke-opacity: 0.15; stroke-width: 0.5; stroke-linecap: square"/>
     </g>
     <g id="line2d_10">
      <g>
       <use xlink:href="#mc3a38e6ac5" x="260.570455" y="242.44" style="stroke: #000000; stroke-width: 0.8"/>
      </g>
     </g>
     <g id="text_5">
      <!-- 12時 -->
      <g transform="translate(249.272017 256.930625) scale(0.1 -0.1)">
       <defs>
        <path id="IPAexGothic-31" d="M 2463 63 
L 1900 63 
L 1900 4103 
Q 1372 3922 788 3797 
L 684 4231 
Q 1519 4441 2106 4731 
L 2463 4731 
L 2463 63 
z
" transform="scale(0.015625)"/>
        <path id="IPAexGothic-32" d="M 3659 63 
L 447 63 
L 447 594 
Q 825 1475 1894 2203 
L 2072 2322 
Q 2619 2697 2791 2906 
Q 2988 3153 2988 3444 
Q 2988 3772 2756 4003 
Q 2500 4259 2084 4259 
Q 1250 4259 991 3328 
L 497 3506 
Q 853 4725 2116 4725 
Q 2806 4725 3216 4316 
Q 3575 3947 3575 3425 
Q 3575 3038 3344 2722 
Q 3131 2416 2366 1938 
L 2231 1856 
Q 1256 1253 978 569 
L 3659 569 
L 3659 63 
z
" transform="scale(0.015625)"/>
       </defs>
       <use xlink:href="#IPAexGothic-31"/>
       <use xlink:href="#IPAexGothic-32" transform="translate(62.988281 0)"/>
       <use xlink:href="#IPAexGothic-6642" transform="translate(125.976562 0)"/>
      </g>
     </g>
    </g>
    <g id="xtick_6">
     <g id="line2d_11">
      <path d="M 307.343182 242.44 
L 307.343182 30.48 
" clip-path="url(#pc292d38249)" style="fill: none; stroke: #000000; stroke-opacity: 0.15; stroke-width: 0.5; stroke-linecap: square"/>
     </g>
     <g id="line2d_12">
      <g>
       <use xlink:href="#mc3a38e6ac5" x="307.343182" y="242.44" style="stroke: #000000; stroke-width: 0.8"/>
      </g>
     </g>
     <g id="text_6">
      <!-- 15時 -->
      <g transform="translate(296.044744 256.930625) scale(0.1 -0.1)">
       <defs>
        <path id="IPAexGothic-35" d="M 1178 2603 
Q 1634 2963 2172 2963 
Q 2816 2963 3241 2528 
Q 3638 2113 3638 1497 
Q 3638 938 3297 513 
Q 2869 -31 2031 -31 
Q 959 -31 469 784 
L 938 1028 
Q 1309 434 2013 434 
Q 2466 434 2769 716 
Q 3081 1013 3081 1503 
Q 3081 1966 2806 2241 
Q 2519 2528 2056 2528 
Q 1406 2528 1072 2028 
L 591 2091 
L 884 4634 
L 3406 4634 
L 3406 4153 
L 1341 4153 
L 1134 2603 
L 1178 2603 
z
" transform="scale(0.015625)"/>
       </defs>
       <use xlink:href="#IPAexGothic-31"/>
       <use xlink:href="#IPAexGothic-35" transform="translate(62.988281 0)"/>
       <use xlink:href="#IPAexGothic-6642" transform="translate(125.976562 0)"/>
      </g>
     </g>
    </g>
    <g id="xtick_7">
     <g id="line2d_13">
      <path d="M 354.115909 242.44 
L 354.115909 30.48 
" clip-path="url(#pc292d38249)" style="fill: none; stroke: #000000; stroke-opacity: 0.15; stroke-width: 0.5; stroke-linecap: square"/>
     </g>
     <g id="line2d_14">
      <g>
       <use xlink:href="#mc3a38e6ac5" x="354.115909" y="242.44" style="stroke: #000000; stroke-width: 0.8"/>
      </g>
     </g>
     <g id="text_7">
      <!-- 18時 -->
      <g transform="translate(342.817472 256.930625) scale(0.1 -0.1)">
       <defs>
        <path id="IPAexGothic-38" d="M 2541 2425 
Q 3700 2031 3700 1197 
Q 3700 541 3100 197 
Q 2663 -56 2016 -56 
Q 1366 -56 928 197 
Q 347 531 347 1178 
Q 347 1988 1409 2381 
L 1409 2400 
Q 481 2734 481 3509 
Q 481 4100 981 4456 
Q 1406 4756 2019 4756 
Q 2703 4756 3131 4403 
Q 3553 4069 3553 3566 
Q 3553 2706 2541 2444 
L 2541 2425 
z
M 2022 2625 
Q 2997 2856 2997 3528 
Q 2997 3916 2675 4150 
Q 2413 4347 2016 4347 
Q 1606 4347 1331 4128 
Q 1050 3897 1050 3522 
Q 1050 3150 1350 2925 
Q 1494 2809 1722 2722 
Q 1984 2616 2022 2625 
z
M 1978 2209 
Q 922 1931 922 1216 
Q 922 775 1313 556 
Q 1606 391 2009 391 
Q 2575 391 2881 697 
Q 3106 922 3106 1250 
Q 3106 1594 2794 1850 
Q 2609 1994 2350 2100 
Q 2047 2222 1978 2209 
z
" transform="scale(0.015625)"/>
       </defs>
       <use xlink:href="#IPAexGothic-31"/>
       <use xlink:href="#IPAexGothic-38" transform="translate(62.988281 0)"/>
       <use xlink:href="#IPAexGothic-6642" transform="translate(125.976562 0)"/>
      </g>
     </g>
    </g>
    <g id="xtick_8">
     <g id="line2d_15">
      <path d="M 400.888636 242.44 
L 400.888636 30.48 
" clip-path="url(#pc292d38249)" style="fill: none; stroke: #000000; stroke-opacity: 0.15; stroke-width: 0.5; stroke-linecap: square"/>
     </g>
     <g id="line2d_16">
      <g>
       <use xlink:href="#mc3a38e6ac5" x="400.888636" y="242.44" style="stroke: #000000; stroke-width: 0.8"/>
      </g>
     </g>
     <g id="text_8">
      <!-- 21時 -->
      <g transform="translate(389.590199 256.930625) scale(0.1 -0.1)">
       <use xlink:href="#IPAexGothic-32"/>
       <use xlink:href="#IPAexGothic-31" transform="translate(62.988281 0)"/>
       <use xlink:href="#IPAexGothic-6642" transform="translate(125.976562 0)"/>
      </g>
     </g>
    </g>
    <g id="text_9">
     <!-- 時間帯 -->
     <g transform="translate(231.175 273.617125) scale(0.144 -0.144)">
      <defs>
       <path id="IPAexGothic-9593" d="M 4450 2566 
L 4450 353 
L 2375 353 
L 2375 -25 
L 1953 -25 
L 1953 2566 
L 4450 2566 
z
M 4028 2200 
L 2375 2200 
L 2375 1653 
L 4028 1653 
L 4028 2200 
z
M 4028 1300 
L 2375 1300 
L 2375 719 
L 4028 719 
L 4028 1300 
z
M 2913 5019 
L 2913 3059 
L 1056 3059 
L 1056 -447 
L 609 -447 
L 609 5019 
L 2913 5019 
z
M 1056 4659 
L 1056 4206 
L 2497 4206 
L 2497 4659 
L 1056 4659 
z
M 1056 3881 
L 1056 3413 
L 2497 3413 
L 2497 3881 
L 1056 3881 
z
M 5788 5019 
L 5788 91 
Q 5788 -225 5641 -331 
Q 5525 -409 5231 -409 
Q 4803 -409 4481 -366 
L 4419 97 
Q 4853 38 5128 38 
Q 5341 38 5341 244 
L 5341 3059 
L 3438 3059 
L 3438 5019 
L 5788 5019 
z
M 3853 4659 
L 3853 4206 
L 5341 4206 
L 5341 4659 
L 3853 4659 
z
M 3853 3881 
L 3853 3413 
L 5341 3413 
L 5341 3881 
L 3853 3881 
z
" transform="scale(0.015625)"/>
       <path id="IPAexGothic-5e2f" d="M 1381 4494 
L 1381 5153 
L 1822 5153 
L 1822 4494 
L 2956 4494 
L 2956 5313 
L 3397 5313 
L 3397 4494 
L 4569 4494 
L 4569 5153 
L 5009 5153 
L 5009 4494 
L 5944 4494 
L 5944 4128 
L 5009 4128 
L 5009 3213 
L 1381 3213 
L 1381 4128 
L 447 4128 
L 447 4494 
L 1381 4494 
z
M 4569 4128 
L 3397 4128 
L 3397 3566 
L 4569 3566 
L 4569 4128 
z
M 2956 4128 
L 1822 4128 
L 1822 3566 
L 2956 3566 
L 2956 4128 
z
M 5938 2778 
L 5938 1600 
L 5491 1600 
L 5491 2400 
L 3366 2400 
L 3366 1881 
L 5175 1881 
L 5175 447 
Q 5175 13 4619 13 
Q 4228 13 3884 44 
L 3831 494 
Q 4209 428 4519 428 
Q 4722 428 4722 622 
L 4722 1516 
L 3366 1516 
L 3366 -447 
L 2919 -447 
L 2919 1516 
L 1700 1516 
L 1700 -63 
L 1253 -63 
L 1253 1881 
L 2919 1881 
L 2919 2400 
L 900 2400 
L 900 1600 
L 453 1600 
L 453 2778 
L 5938 2778 
z
" transform="scale(0.015625)"/>
      </defs>
      <use xlink:href="#IPAexGothic-6642"/>
      <use xlink:href="#IPAexGothic-9593" transform="translate(100 0)"/>
      <use xlink:href="#IPAexGothic-5e2f" transform="translate(200 0)"/>
     </g>
    </g>
   </g>
   <g id="matplotlib.axis_2">
    <g id="ytick_1">
     <g id="line2d_17">
      <defs>
       <path id="m5e9eca28b4" d="M 0 0 
L -3.5 0 
" style="stroke: #000000; stroke-width: 0.8"/>
      </defs>
      <g>
       <use xlink:href="#m5e9eca28b4" x="55.55" y="231.490118" style="stroke: #000000; stroke-width: 0.8"/>
      </g>
     </g>
     <g id="text_10">
      <!-- −30 -->
      <g transform="translate(29.170313 235.235431) scale(0.1 -0.1)">
       <defs>
        <path id="IPAexGothic-2212" d="M 416 2222 
L 3922 2222 
L 3922 1856 
L 416 1856 
L 416 2222 
z
" transform="scale(0.015625)"/>
       </defs>
       <use xlink:href="#IPAexGothic-2212"/>
       <use xlink:href="#IPAexGothic-33" transform="translate(67.822266 0)"/>
       <use xlink:href="#IPAexGothic-30" transform="translate(130.810547 0)"/>
      </g>
     </g>
    </g>
    <g id="ytick_2">
     <g id="line2d_18">
      <g>
       <use xlink:href="#m5e9eca28b4" x="55.55" y="198.565083" style="stroke: #000000; stroke-width: 0.8"/>
      </g>
     </g>
     <g id="text_11">
      <!-- −20 -->
      <g transform="translate(29.170313 202.310395) scale(0.1 -0.1)">
       <use xlink:href="#IPAexGothic-2212"/>
       <use xlink:href="#IPAexGothic-32" transform="translate(67.822266 0)"/>
       <use xlink:href="#IPAexGothic-30" transform="translate(130.810547 0)"/>
      </g>
     </g>
    </g>
    <g id="ytick_3">
     <g id="line2d_19">
      <g>
       <use xlink:href="#m5e9eca28b4" x="55.55" y="165.640047" style="stroke: #000000; stroke-width: 0.8"/>
      </g>
     </g>
     <g id="text_12">
      <!-- −10 -->
      <g transform="translate(29.170313 169.385359) scale(0.1 -0.1)">
       <use xlink:href="#IPAexGothic-2212"/>
       <use xlink:href="#IPAexGothic-31" transform="translate(67.822266 0)"/>
       <use xlink:href="#IPAexGothic-30" transform="translate(130.810547 0)"/>
      </g>
     </g>
    </g>
    <g id="ytick_4">
     <g id="line2d_20">
      <g>
       <use xlink:href="#m5e9eca28b4" x="55.55" y="132.715011" style="stroke: #000000; stroke-width: 0.8"/>
      </g>
     </g>
     <g id="text_13">
      <!-- 0 -->
      <g transform="translate(42.251563 136.460323) scale(0.1 -0.1)">
       <use xlink:href="#IPAexGothic-30"/>
      </g>
     </g>
    </g>
    <g id="ytick_5">
     <g id="line2d_21">
      <g>
       <use xlink:href="#m5e9eca28b4" x="55.55" y="99.789975" style="stroke: #000000; stroke-width: 0.8"/>
      </g>
     </g>
     <g id="text_14">
      <!-- 10 -->
      <g transform="translate(35.953125 103.535287) scale(0.1 -0.1)">
       <use xlink:href="#IPAexGothic-31"/>
       <use xlink:href="#IPAexGothic-30" transform="translate(62.988281 0)"/>
      </g>
     </g>
    </g>
    <g id="ytick_6">
     <g id="line2d_22">
      <g>
       <use xlink:href="#m5e9eca28b4" x="55.55" y="66.864939" style="stroke: #000000; stroke-width: 0.8"/>
      </g>
     </g>
     <g id="text_15">
      <!-- 20 -->
      <g transform="translate(35.953125 70.610252) scale(0.1 -0.1)">
       <use xlink:href="#IPAexGothic-32"/>
       <use xlink:href="#IPAexGothic-30" transform="translate(62.988281 0)"/>
      </g>
     </g>
    </g>
    <g id="ytick_7">
     <g id="line2d_23">
      <g>
       <use xlink:href="#m5e9eca28b4" x="55.55" y="33.939903" style="stroke: #000000; stroke-width: 0.8"/>
      </g>
     </g>
     <g id="text_16">
      <!-- 30 -->
      <g transform="translate(35.953125 37.685216) scale(0.1 -0.1)">
       <use xlink:href="#IPAexGothic-33"/>
       <use xlink:href="#IPAexGothic-30" transform="translate(62.988281 0)"/>
      </g>
     </g>
    </g>
    <g id="text_17">
     <!-- セッション数 -->
     <g transform="translate(22.434312 179.66) rotate(-90) scale(0.144 -0.144)">
      <defs>
       <path id="IPAexGothic-30bb" d="M 2059 4878 
L 2584 4878 
L 2584 3397 
L 5291 3731 
L 5606 3444 
Q 4838 2313 4006 1556 
L 3569 1875 
Q 4297 2459 4844 3231 
L 2584 2931 
L 2584 978 
Q 2584 734 2738 669 
Q 2922 584 3616 584 
Q 4419 584 5425 697 
L 5444 172 
Q 4563 103 3844 103 
Q 2678 103 2359 256 
Q 2059 403 2059 863 
L 2059 2859 
L 638 2675 
L 588 3150 
L 2059 3334 
L 2059 4878 
z
" transform="scale(0.015625)"/>
       <path id="IPAexGothic-30c3" d="M 1775 1984 
Q 1553 2666 1275 3175 
L 1716 3391 
Q 2034 2866 2247 2209 
L 1775 1984 
z
M 3003 2297 
Q 2813 2978 2522 3469 
L 2978 3681 
Q 3291 3166 3484 2522 
L 3003 2297 
z
M 1928 372 
Q 3094 744 3731 1569 
Q 4275 2263 4469 3525 
L 4975 3406 
Q 4734 1975 4016 1119 
Q 3406 391 2266 -44 
L 1928 372 
z
" transform="scale(0.015625)"/>
       <path id="IPAexGothic-30b7" d="M 2828 3531 
Q 2219 4056 1613 4359 
L 1913 4781 
Q 2503 4491 3169 3981 
L 2828 3531 
z
M 1163 500 
Q 3944 1094 5338 3525 
L 5688 3128 
Q 4297 700 1484 0 
L 1163 500 
z
M 2072 2278 
Q 1466 2800 831 3109 
L 1131 3541 
Q 1806 3213 2406 2725 
L 2072 2278 
z
" transform="scale(0.015625)"/>
       <path id="IPAexGothic-30e7" d="M 1625 3469 
L 4653 3469 
L 4653 0 
L 4172 0 
L 4172 294 
L 1553 294 
L 1553 753 
L 4172 753 
L 4172 1734 
L 1766 1734 
L 1766 2169 
L 4172 2169 
L 4172 3028 
L 1625 3028 
L 1625 3469 
z
" transform="scale(0.015625)"/>
       <path id="IPAexGothic-30f3" d="M 2444 3084 
Q 1816 3656 1056 4084 
L 1381 4519 
Q 2063 4191 2816 3559 
L 2444 3084 
z
M 1100 609 
Q 3984 1106 5216 3828 
L 5619 3469 
Q 4413 794 1434 103 
L 1100 609 
z
" transform="scale(0.015625)"/>
       <path id="IPAexGothic-6570" d="M 2847 1553 
Q 2741 1006 2425 534 
Q 2625 441 3091 203 
L 2809 -188 
Q 2541 0 2144 209 
Q 1569 -291 703 -500 
L 422 -125 
Q 1263 19 1747 406 
Q 1222 650 734 816 
Q 975 1172 1147 1503 
L 1172 1553 
L 359 1553 
L 359 1925 
L 1344 1925 
Q 1406 2066 1569 2475 
L 1691 2450 
L 1691 3372 
Q 1250 2738 550 2303 
L 275 2663 
Q 1019 3013 1528 3641 
L 378 3641 
L 378 4006 
L 1691 4006 
L 1691 5313 
L 2113 5313 
L 2113 4006 
L 3297 4006 
L 3297 3641 
L 2113 3641 
L 2113 3513 
Q 2659 3291 3175 2963 
L 2956 2584 
Q 2553 2922 2113 3159 
L 2113 2372 
L 1966 2372 
Q 1928 2288 1872 2141 
Q 1806 1975 1784 1925 
L 3378 1925 
L 3378 1553 
L 2847 1553 
z
M 2419 1553 
L 1613 1553 
Q 1478 1269 1313 997 
Q 1559 909 2047 703 
Q 2313 1047 2419 1553 
z
M 4363 1163 
Q 3953 1781 3738 2638 
Q 3575 2281 3428 2016 
L 3103 2406 
Q 3675 3444 3916 5291 
L 4363 5200 
Q 4284 4666 4197 4197 
L 6009 4197 
L 6009 3775 
L 5503 3775 
Q 5397 2275 4869 1191 
Q 5419 503 6144 75 
L 5822 -378 
Q 5188 106 4631 788 
Q 4113 34 3341 -463 
L 3031 -78 
Q 3888 406 4363 1163 
z
M 4588 1594 
Q 4938 2388 5059 3775 
L 4100 3775 
Q 4041 3519 3972 3288 
Q 3981 3250 3991 3194 
Q 4175 2256 4588 1594 
z
M 1003 4116 
Q 878 4544 638 4934 
L 1053 5094 
Q 1247 4788 1438 4269 
L 1003 4116 
z
M 2316 4269 
Q 2550 4688 2688 5131 
L 3128 4997 
Q 2966 4588 2675 4128 
L 2316 4269 
z
" transform="scale(0.015625)"/>
      </defs>
      <use xlink:href="#IPAexGothic-30bb"/>
      <use xlink:href="#IPAexGothic-30c3" transform="translate(100 0)"/>
      <use xlink:href="#IPAexGothic-30b7" transform="translate(200 0)"/>
      <use xlink:href="#IPAexGothic-30e7" transform="translate(300 0)"/>
      <use xlink:href="#IPAexGothic-30f3" transform="translate(400 0)"/>
      <use xlink:href="#IPAexGothic-6570" transform="translate(500 0)"/>
     </g>
    </g>
   </g>
   <g id="text_18">
    <!-- チャネル別流入構成のストリームグラフ -->
    <g transform="translate(97.255 24.48) scale(0.1728 -0.1728)">
     <defs>
      <path id="IPAexGothic-30c1" d="M 3088 2853 
L 3088 3981 
Q 2359 3847 1531 3797 
L 1288 4238 
Q 3200 4344 4553 4872 
L 4909 4456 
Q 4244 4216 3606 4078 
L 3606 2913 
L 5806 2913 
L 5806 2459 
L 3600 2459 
Q 3559 1422 3188 850 
Q 2722 138 1738 -256 
L 1347 153 
Q 2319 500 2709 1081 
Q 3031 1563 3081 2400 
L 597 2400 
L 597 2853 
L 3088 2853 
z
" transform="scale(0.015625)"/>
      <path id="IPAexGothic-30e3" d="M 2559 3903 
L 2803 2816 
L 4863 3169 
L 5191 2894 
Q 4672 1875 4103 1203 
L 3666 1447 
Q 4175 2013 4525 2688 
L 2900 2388 
L 3450 -116 
L 2969 -231 
L 2419 2297 
L 1172 2069 
L 1075 2516 
L 2328 2731 
L 2094 3809 
L 2559 3903 
z
" transform="scale(0.015625)"/>
      <path id="IPAexGothic-30cd" d="M 1288 3834 
L 4803 3834 
L 5066 3559 
Q 4419 2813 3466 2134 
L 3466 -294 
L 2953 -294 
L 2953 1800 
Q 1963 1203 1056 891 
L 731 1328 
Q 1797 1631 2844 2281 
Q 3675 2794 4253 3381 
L 1288 3381 
L 1288 3834 
z
M 3669 4031 
Q 3094 4459 2291 4850 
L 2572 5222 
Q 3334 4884 4000 4428 
L 3669 4031 
z
M 5441 838 
Q 4781 1413 3859 1966 
L 4159 2316 
Q 5078 1819 5825 1247 
L 5441 838 
z
" transform="scale(0.015625)"/>
      <path id="IPAexGothic-30eb" d="M 353 331 
Q 1313 994 1544 2022 
Q 1684 2650 1684 4397 
L 2203 4397 
L 2203 4153 
L 2203 4116 
Q 2203 2259 1934 1491 
Q 1619 588 744 -38 
L 353 331 
z
M 3125 4666 
L 3650 4666 
L 3650 769 
Q 4875 1488 5672 2734 
L 6000 2278 
Q 5075 966 3516 63 
L 3125 359 
L 3125 4666 
z
" transform="scale(0.015625)"/>
      <path id="IPAexGothic-5225" d="M 1922 2963 
Q 1906 2453 1894 2209 
L 3341 2209 
Q 3313 550 3175 63 
Q 3059 -366 2413 -366 
Q 2072 -366 1753 -313 
L 1691 134 
Q 2084 63 2413 63 
Q 2694 63 2759 319 
Q 2856 722 2888 1753 
Q 2888 1800 2894 1819 
L 1863 1819 
Q 1709 350 700 -481 
L 353 -147 
Q 1075 403 1306 1256 
Q 1450 1822 1478 2963 
L 700 2963 
L 700 4984 
L 3278 4984 
L 3278 2963 
L 1922 2963 
z
M 1141 4588 
L 1141 3353 
L 2838 3353 
L 2838 4588 
L 1141 4588 
z
M 3972 4597 
L 4425 4597 
L 4425 1159 
L 3972 1159 
L 3972 4597 
z
M 5309 5044 
L 5763 5044 
L 5763 191 
Q 5763 -141 5581 -263 
Q 5438 -359 5116 -359 
Q 4688 -359 4253 -313 
L 4156 178 
Q 4625 116 5072 116 
Q 5309 116 5309 353 
L 5309 5044 
z
" transform="scale(0.015625)"/>
      <path id="IPAexGothic-6d41" d="M 4128 4416 
L 5931 4416 
L 5931 4019 
L 3794 4019 
Q 3591 3531 3275 2988 
Q 3328 2988 3353 2988 
Q 3756 2997 4441 3047 
L 4909 3072 
Q 4684 3328 4341 3688 
L 4678 3903 
Q 5231 3397 5838 2644 
L 5472 2341 
Q 5322 2566 5178 2753 
Q 4053 2597 2188 2528 
L 2053 2956 
Q 2138 2959 2331 2963 
Q 2469 2966 2547 2969 
L 2797 2975 
Q 3094 3503 3281 4019 
L 2078 4019 
L 2078 4416 
L 3659 4416 
L 3659 5313 
L 4128 5313 
L 4128 4416 
z
M 1622 3853 
Q 1150 4372 700 4709 
L 1006 5069 
Q 1553 4684 1947 4244 
L 1622 3853 
z
M 1428 2388 
Q 988 2897 469 3250 
L 775 3609 
Q 1288 3266 1756 2759 
L 1428 2388 
z
M 347 13 
Q 972 800 1466 1931 
L 1806 1575 
Q 1294 403 725 -384 
L 347 13 
z
M 3559 2156 
L 4000 2156 
L 4000 -172 
L 3559 -172 
L 3559 2156 
z
M 4609 2266 
L 5050 2266 
L 5050 288 
Q 5050 116 5300 116 
Q 5544 116 5581 328 
Q 5622 538 5631 984 
L 6069 819 
Q 6028 106 5953 -75 
Q 5866 -256 5672 -294 
Q 5478 -325 5191 -325 
Q 4881 -325 4756 -247 
Q 4609 -150 4609 97 
L 4609 2266 
z
M 2563 2241 
L 3003 2241 
L 3003 1941 
Q 3003 856 2766 347 
Q 2541 -144 1966 -513 
L 1659 -147 
Q 2291 250 2453 863 
Q 2563 1291 2563 1953 
L 2563 2241 
z
" transform="scale(0.015625)"/>
      <path id="IPAexGothic-5165" d="M 3275 3078 
Q 2806 619 819 -334 
L 447 91 
Q 2934 1156 3000 4550 
L 1472 4550 
L 1472 4984 
L 3525 4984 
L 3525 4728 
Q 3525 3053 4116 2041 
Q 4734 972 6022 275 
L 5650 -200 
Q 3697 1044 3275 3078 
z
" transform="scale(0.015625)"/>
      <path id="IPAexGothic-69cb" d="M 1206 2594 
Q 925 1575 456 788 
L 194 1250 
Q 856 2238 1153 3547 
L 328 3547 
L 328 3956 
L 1206 3956 
L 1206 5306 
L 1628 5306 
L 1628 3956 
L 2306 3956 
L 2306 3547 
L 1628 3547 
L 1628 2906 
Q 2213 2391 2447 2106 
L 2191 1647 
Q 1931 2031 1628 2406 
L 1628 -447 
L 1206 -447 
L 1206 2594 
z
M 5006 3194 
L 6100 3194 
L 6100 2841 
L 4328 2841 
L 4328 2509 
L 5647 2509 
L 5647 1025 
L 6131 1025 
L 6131 672 
L 5647 672 
L 5647 78 
Q 5647 -191 5525 -294 
Q 5413 -397 5106 -397 
Q 4716 -397 4409 -353 
L 4347 84 
Q 4759 13 5069 13 
Q 5228 13 5228 197 
L 5228 672 
L 3047 672 
L 3047 -447 
L 2631 -447 
L 2631 672 
L 1978 672 
L 1978 1025 
L 2631 1025 
L 2631 2509 
L 3913 2509 
L 3913 2841 
L 2175 2841 
L 2175 3194 
L 3222 3194 
L 3222 3631 
L 2522 3631 
L 2522 3956 
L 3222 3956 
L 3222 4369 
L 2291 4369 
L 2291 4709 
L 3222 4709 
L 3222 5313 
L 3644 5313 
L 3644 4709 
L 4591 4709 
L 4591 5313 
L 5006 5313 
L 5006 4709 
L 5953 4709 
L 5953 4369 
L 5006 4369 
L 5006 3956 
L 5759 3956 
L 5759 3631 
L 5006 3631 
L 5006 3194 
z
M 4591 3194 
L 4591 3631 
L 3644 3631 
L 3644 3194 
L 4591 3194 
z
M 4591 4369 
L 3644 4369 
L 3644 3956 
L 4591 3956 
L 4591 4369 
z
M 3047 2169 
L 3047 1759 
L 3925 1759 
L 3925 2169 
L 3047 2169 
z
M 3047 1434 
L 3047 1025 
L 3925 1025 
L 3925 1434 
L 3047 1434 
z
M 4316 2169 
L 4316 1759 
L 5228 1759 
L 5228 2169 
L 4316 2169 
z
M 4316 1434 
L 4316 1025 
L 5228 1025 
L 5228 1434 
L 4316 1434 
z
" transform="scale(0.015625)"/>
      <path id="IPAexGothic-6210" d="M 4322 1650 
Q 4809 2375 5153 3309 
L 5563 3116 
Q 5159 2053 4566 1200 
Q 4881 675 5250 384 
Q 5388 275 5441 275 
Q 5544 275 5641 1119 
L 6063 875 
Q 5919 -328 5550 -328 
Q 5397 -328 5141 -150 
Q 4644 203 4250 806 
Q 3659 97 2825 -431 
L 2497 -59 
Q 3341 434 4009 1228 
Q 3491 2244 3272 3738 
L 1347 3738 
L 1347 2847 
L 2947 2847 
Q 2897 1366 2813 953 
Q 2706 453 2191 453 
Q 1900 453 1563 509 
L 1513 978 
Q 1981 888 2153 888 
Q 2350 888 2391 1100 
Q 2453 1416 2491 2463 
L 1347 2463 
L 1347 2303 
Q 1347 606 609 -438 
L 256 -78 
Q 878 772 878 2316 
L 878 4153 
L 3216 4153 
Q 3159 4672 3119 5291 
L 3594 5291 
Q 3619 4716 3681 4184 
L 5959 4184 
L 5959 3769 
L 3741 3769 
L 3759 3641 
Q 3956 2413 4322 1650 
z
M 4934 4225 
Q 4597 4656 4300 4897 
L 4659 5172 
Q 5003 4916 5319 4506 
L 4934 4225 
z
" transform="scale(0.015625)"/>
      <path id="IPAexGothic-306e" d="M 3119 469 
Q 5275 766 5275 2425 
Q 5275 3453 4413 3925 
Q 4041 4116 3547 4159 
Q 3394 2525 2850 1400 
Q 2322 306 1722 306 
Q 1384 306 1084 666 
Q 609 1244 609 2003 
Q 609 3025 1397 3794 
Q 2184 4563 3431 4563 
Q 4306 4563 4928 4122 
Q 5813 3506 5813 2425 
Q 5813 438 3431 6 
L 3119 469 
z
M 3053 4147 
Q 2378 4044 1891 3641 
Q 1097 2981 1097 1991 
Q 1097 1366 1434 978 
Q 1581 813 1719 813 
Q 2022 813 2416 1625 
Q 2909 2638 3053 4147 
z
" transform="scale(0.015625)"/>
      <path id="IPAexGothic-30b9" d="M 4359 4481 
L 4716 4147 
Q 4328 3072 3647 2150 
Q 4659 1434 5659 453 
L 5234 19 
Q 4256 1088 3353 1778 
Q 2372 597 1044 -31 
L 653 403 
Q 3128 1453 4097 4000 
L 1241 3963 
L 1228 4453 
L 4359 4481 
z
" transform="scale(0.015625)"/>
      <path id="IPAexGothic-30c8" d="M 2284 4997 
L 2803 4997 
L 2803 3206 
Q 4088 2619 5216 1888 
L 4878 1369 
Q 3819 2175 2803 2688 
L 2803 -184 
L 2284 -184 
L 2284 4997 
z
" transform="scale(0.015625)"/>
      <path id="IPAexGothic-30ea" d="M 1678 4788 
L 2222 4788 
L 2222 1900 
L 1678 1900 
L 1678 4788 
z
M 4084 4909 
L 4628 4909 
L 4628 2753 
Q 4628 1563 4150 794 
Q 3725 119 2772 -353 
L 2394 78 
Q 3334 494 3706 1094 
Q 4084 1703 4084 2725 
L 4084 4909 
z
" transform="scale(0.015625)"/>
      <path id="IPAexGothic-30fc" d="M 588 2688 
L 5809 2688 
L 5809 2175 
L 588 2175 
L 588 2688 
z
" transform="scale(0.015625)"/>
      <path id="IPAexGothic-30e0" d="M 609 891 
L 719 897 
L 884 903 
Q 1053 916 1263 925 
Q 1413 931 1447 934 
Q 2291 2888 2856 4706 
L 3394 4525 
Q 2841 2859 2019 981 
Q 3553 1109 4659 1275 
Q 4200 1950 3669 2588 
L 4122 2838 
Q 5075 1700 5788 513 
L 5319 194 
Q 5038 691 4922 866 
Q 2919 509 822 328 
L 609 891 
z
" transform="scale(0.015625)"/>
      <path id="IPAexGothic-30b0" d="M 4769 4128 
L 5106 3878 
Q 4728 2272 3866 1238 
Q 3106 328 1863 -288 
L 1491 122 
Q 2709 628 3475 1563 
Q 4238 2491 4525 3669 
L 2738 3669 
Q 2022 2591 1191 1897 
L 813 2247 
Q 2163 3338 2766 4959 
L 3256 4819 
Q 3197 4609 2975 4128 
L 4769 4128 
z
M 6009 4422 
Q 5647 4966 5253 5294 
L 5556 5522 
Q 5941 5213 6328 4697 
L 6009 4422 
z
M 5416 3956 
Q 5125 4447 4678 4844 
L 4991 5088 
Q 5363 4781 5747 4231 
L 5416 3956 
z
" transform="scale(0.015625)"/>
      <path id="IPAexGothic-30e9" d="M 1447 4709 
L 4922 4709 
L 4922 4234 
L 1447 4234 
L 1447 4709 
z
M 897 3303 
L 5172 3303 
L 5478 3013 
Q 5069 1669 4219 875 
Q 3475 181 2306 -181 
L 1972 294 
Q 4150 784 4834 2828 
L 897 2828 
L 897 3303 
z
" transform="scale(0.015625)"/>
      <path id="IPAexGothic-30d5" d="M 4966 4294 
L 5263 4019 
Q 4819 894 1966 -97 
L 1600 353 
Q 4234 1156 4684 3822 
L 1044 3756 
L 1044 4244 
L 4966 4294 
z
" transform="scale(0.015625)"/>
     </defs>
     <use xlink:href="#IPAexGothic-30c1"/>
     <use xlink:href="#IPAexGothic-30e3" transform="translate(100 0)"/>
     <use xlink:href="#IPAexGothic-30cd" transform="translate(200 0)"/>
     <use xlink:href="#IPAexGothic-30eb" transform="translate(300 0)"/>
     <use xlink:href="#IPAexGothic-5225" transform="translate(400 0)"/>
     <use xlink:href="#IPAexGothic-6d41" transform="translate(500 0)"/>
     <use xlink:href="#IPAexGothic-5165" transform="translate(600 0)"/>
     <use xlink:href="#IPAexGothic-69cb" transform="translate(700 0)"/>
     <use xlink:href="#IPAexGothic-6210" transform="translate(800 0)"/>
     <use xlink:href="#IPAexGothic-306e" transform="translate(900 0)"/>
     <use xlink:href="#IPAexGothic-30b9" transform="translate(1000 0)"/>
     <use xlink:href="#IPAexGothic-30c8" transform="translate(1100 0)"/>
     <use xlink:href="#IPAexGothic-30ea" transform="translate(1200 0)"/>
     <use xlink:href="#IPAexGothic-30fc" transform="translate(1300 0)"/>
     <use xlink:href="#IPAexGothic-30e0" transform="translate(1400 0)"/>
     <use xlink:href="#IPAexGothic-30b0" transform="translate(1500 0)"/>
     <use xlink:href="#IPAexGothic-30e9" transform="translate(1600 0)"/>
     <use xlink:href="#IPAexGothic-30d5" transform="translate(1700 0)"/>
    </g>
   </g>
   <g id="legend_1">
    <g id="patch_3">
     <path d="M 72.35 56.26875 
L 96.35 56.26875 
L 96.35 47.86875 
L 72.35 47.86875 
z
" style="fill: #0ea5e9; fill-opacity: 0.9"/>
    </g>
    <g id="text_19">
     <!-- 自然検索 -->
     <g transform="translate(105.95 56.26875) scale(0.12 -0.12)">
      <defs>
       <path id="IPAexGothic-81ea" d="M 2591 4353 
Q 2719 4766 2816 5294 
L 3359 5191 
Q 3250 4809 3072 4353 
L 5291 4353 
L 5291 -450 
L 4822 -450 
L 4822 -72 
L 1569 -72 
L 1569 -450 
L 1100 -450 
L 1100 4353 
L 2591 4353 
z
M 1569 3956 
L 1569 3028 
L 4822 3028 
L 4822 3956 
L 1569 3956 
z
M 1569 2644 
L 1569 1716 
L 4822 1716 
L 4822 2644 
L 1569 2644 
z
M 1569 1331 
L 1569 325 
L 4822 325 
L 4822 1331 
L 1569 1331 
z
" transform="scale(0.015625)"/>
       <path id="IPAexGothic-7136" d="M 1047 3103 
L 1013 3066 
Q 919 2944 644 2669 
L 363 3006 
Q 1294 3881 1609 5288 
L 2056 5184 
Q 2028 5081 1988 4944 
Q 1941 4794 1934 4775 
L 2953 4775 
L 3222 4569 
Q 3159 4231 3056 3903 
L 3888 3903 
L 3888 5209 
L 4328 5209 
L 4328 3903 
L 5850 3903 
L 5850 3519 
L 4431 3519 
Q 4866 2256 5997 1613 
L 5647 1216 
Q 5084 1631 4597 2328 
Q 4328 2713 4175 3172 
Q 3934 1794 2734 1113 
L 2422 1459 
Q 3681 2113 3863 3519 
L 2916 3519 
Q 2288 1900 791 1063 
L 469 1413 
Q 1209 1769 1738 2372 
Q 1431 2756 1047 3103 
z
M 1263 3391 
Q 1597 3144 2006 2713 
Q 2159 2938 2294 3178 
Q 1919 3494 1488 3750 
Q 1403 3591 1263 3391 
z
M 2478 3569 
Q 2647 3975 2722 4391 
L 1800 4391 
Q 1731 4222 1659 4069 
Q 2131 3828 2478 3569 
z
M 5209 4128 
Q 4963 4559 4647 4884 
L 4994 5113 
Q 5303 4825 5581 4378 
L 5209 4128 
z
M 500 -172 
Q 950 316 1250 978 
L 1659 800 
Q 1341 50 903 -494 
L 500 -172 
z
M 2453 -434 
Q 2381 294 2228 819 
L 2656 922 
Q 2859 369 2966 -319 
L 2453 -434 
z
M 3853 -341 
Q 3672 363 3419 856 
L 3847 991 
Q 4109 569 4334 -178 
L 3853 -341 
z
M 5569 -366 
Q 5191 328 4713 878 
L 5097 1069 
Q 5634 538 6009 -91 
L 5569 -366 
z
" transform="scale(0.015625)"/>
       <path id="IPAexGothic-691c" d="M 4125 1119 
Q 3803 -72 2459 -481 
L 2178 -106 
Q 3588 250 3828 1438 
L 2997 1438 
L 2997 1113 
L 2581 1113 
L 2581 2869 
L 3850 2869 
L 3850 3353 
L 3188 3353 
L 3188 3566 
Q 2788 3166 2375 2888 
L 2094 3238 
Q 3263 3956 3753 5241 
L 4225 5241 
Q 4891 4109 6125 3403 
L 5816 3028 
Q 5425 3288 5013 3647 
L 5013 3353 
L 4266 3353 
L 4266 2869 
L 5575 2869 
L 5575 1150 
L 5159 1150 
L 5159 1438 
L 4359 1438 
Q 4781 466 6016 16 
L 5681 -394 
Q 4497 197 4125 1119 
z
M 3856 2516 
L 2997 2516 
L 2997 1784 
L 3856 1784 
L 3856 2516 
z
M 4259 2516 
L 4259 1784 
L 5159 1784 
L 5159 2516 
L 4259 2516 
z
M 3334 3725 
L 4928 3725 
Q 4363 4263 4016 4831 
Q 3759 4225 3334 3725 
z
M 1200 2594 
Q 928 1569 450 794 
L 188 1256 
Q 850 2238 1147 3547 
L 322 3547 
L 322 3956 
L 1200 3956 
L 1200 5306 
L 1622 5306 
L 1622 3956 
L 2325 3956 
L 2325 3547 
L 1622 3547 
L 1622 2900 
Q 2088 2484 2394 2119 
L 2141 1666 
Q 1897 2078 1622 2400 
L 1622 -447 
L 1200 -447 
L 1200 2594 
z
" transform="scale(0.015625)"/>
       <path id="IPAexGothic-7d22" d="M 3419 1247 
L 3419 -450 
L 2931 -450 
L 2931 1222 
L 2547 1209 
Q 1831 1178 525 1144 
L 384 1575 
Q 1184 1575 2222 1588 
L 2450 1594 
Q 1797 2219 1297 2566 
L 1631 2834 
Q 1916 2634 2163 2419 
Q 2569 2784 2913 3238 
L 978 3238 
L 978 2559 
L 538 2559 
L 538 3616 
L 2950 3616 
L 2950 4206 
L 703 4206 
L 703 4603 
L 2950 4603 
L 2950 5313 
L 3403 5313 
L 3403 4603 
L 5691 4603 
L 5691 4206 
L 3403 4206 
L 3403 3616 
L 5869 3616 
L 5869 2559 
L 5428 2559 
L 5428 3238 
L 3059 3238 
L 3328 3059 
Q 2847 2500 2450 2175 
Q 2597 2056 2913 1741 
Q 3644 2325 4256 3025 
L 4653 2778 
Q 4041 2134 3444 1663 
L 3384 1619 
L 3719 1631 
L 3866 1631 
L 4678 1663 
L 4788 1669 
L 5038 1681 
Q 4778 1919 4531 2125 
L 4841 2359 
Q 5500 1869 6053 1284 
L 5691 984 
Q 5469 1244 5350 1369 
L 5116 1350 
Q 4909 1341 4531 1313 
L 3419 1247 
z
M 544 -6 
Q 1394 366 2003 984 
L 2431 769 
Q 1753 59 922 -366 
L 544 -6 
z
M 5538 -281 
Q 4797 372 4006 800 
L 4372 1069 
Q 5228 644 5922 91 
L 5538 -281 
z
" transform="scale(0.015625)"/>
      </defs>
      <use xlink:href="#IPAexGothic-81ea"/>
      <use xlink:href="#IPAexGothic-7136" transform="translate(100 0)"/>
      <use xlink:href="#IPAexGothic-691c" transform="translate(200 0)"/>
      <use xlink:href="#IPAexGothic-7d22" transform="translate(300 0)"/>
     </g>
    </g>
    <g id="patch_4">
     <path d="M 72.35 78.3375 
L 96.35 78.3375 
L 96.35 69.9375 
L 72.35 69.9375 
z
" style="fill: #22d3ee; fill-opacity: 0.9"/>
    </g>
    <g id="text_20">
     <!-- 広告 -->
     <g transform="translate(105.95 78.3375) scale(0.12 -0.12)">
      <defs>
       <path id="IPAexGothic-5e83" d="M 3522 4313 
L 5744 4313 
L 5744 3884 
L 1434 3884 
L 1434 2925 
Q 1434 1584 1256 813 
Q 1109 150 769 -378 
L 403 19 
Q 772 622 875 1428 
Q 959 1991 959 2925 
L 959 4313 
L 3034 4313 
L 3034 5209 
L 3522 5209 
L 3522 4313 
z
M 2125 434 
Q 2738 1709 3194 3628 
L 3681 3500 
Q 3231 1713 2631 475 
L 3066 500 
Q 3813 553 4856 678 
Q 4459 1344 3969 2003 
L 4331 2247 
Q 5209 1131 5838 38 
L 5409 -294 
Q 5266 -25 5075 313 
Q 3734 63 1684 -109 
L 1497 403 
Q 1816 413 2125 434 
z
" transform="scale(0.015625)"/>
       <path id="IPAexGothic-544a" d="M 1844 4269 
L 3003 4269 
L 3003 5313 
L 3478 5313 
L 3478 4269 
L 5538 4269 
L 5538 3859 
L 3478 3859 
L 3478 2906 
L 5916 2906 
L 5916 2503 
L 481 2503 
L 481 2906 
L 3003 2906 
L 3003 3859 
L 1666 3859 
Q 1444 3400 1147 3034 
L 763 3372 
Q 1316 3981 1594 5038 
L 2056 4934 
Q 1959 4591 1844 4269 
z
M 5250 1900 
L 5250 -447 
L 4775 -447 
L 4775 -116 
L 1763 -116 
L 1763 -447 
L 1288 -447 
L 1288 1900 
L 5250 1900 
z
M 1763 1503 
L 1763 275 
L 4775 275 
L 4775 1503 
L 1763 1503 
z
" transform="scale(0.015625)"/>
      </defs>
      <use xlink:href="#IPAexGothic-5e83"/>
      <use xlink:href="#IPAexGothic-544a" transform="translate(100 0)"/>
     </g>
    </g>
    <g id="patch_5">
     <path d="M 72.35 100.40625 
L 96.35 100.40625 
L 96.35 92.00625 
L 72.35 92.00625 
z
" style="fill: #818cf8; fill-opacity: 0.9"/>
    </g>
    <g id="text_21">
     <!-- SNS -->
     <g transform="translate(105.95 100.40625) scale(0.12 -0.12)">
      <defs>
       <path id="IPAexGothic-53" d="M 2919 3641 
Q 2563 4259 1853 4259 
Q 1453 4259 1213 4009 
Q 1028 3803 1028 3534 
Q 1028 3238 1266 3047 
Q 1444 2913 1984 2688 
L 2200 2597 
Q 2925 2306 3191 1953 
Q 3422 1644 3422 1259 
Q 3422 644 2969 288 
Q 2559 -31 1931 -31 
Q 881 -31 313 766 
L 753 1100 
Q 1203 459 1938 459 
Q 2288 459 2534 625 
Q 2841 847 2841 1216 
Q 2841 1503 2616 1728 
Q 2375 1959 1728 2206 
L 1541 2278 
Q 453 2694 453 3481 
Q 453 4006 806 4347 
Q 1203 4725 1863 4725 
Q 2841 4725 3359 3956 
L 2919 3641 
z
" transform="scale(0.015625)"/>
       <path id="IPAexGothic-4e" d="M 4244 63 
L 3731 63 
L 1697 3150 
Q 1466 3500 1141 4097 
L 1116 4097 
L 1128 3797 
Q 1159 2803 1159 2469 
L 1159 63 
L 609 63 
L 609 4634 
L 1366 4634 
L 3113 1978 
Q 3453 1447 3713 966 
L 3738 966 
Q 3694 1897 3694 2469 
L 3694 4634 
L 4244 4634 
L 4244 63 
z
" transform="scale(0.015625)"/>
      </defs>
      <use xlink:href="#IPAexGothic-53"/>
      <use xlink:href="#IPAexGothic-4e" transform="translate(58.496094 0)"/>
      <use xlink:href="#IPAexGothic-53" transform="translate(134.472656 0)"/>
     </g>
    </g>
    <g id="patch_6">
     <path d="M 72.35 122.475 
L 96.35 122.475 
L 96.35 114.075 
L 72.35 114.075 
z
" style="fill: #f472b6; fill-opacity: 0.9"/>
    </g>
    <g id="text_22">
     <!-- 紹介 -->
     <g transform="translate(105.95 122.475) scale(0.12 -0.12)">
      <defs>
       <path id="IPAexGothic-7d39" d="M 1328 3066 
Q 847 3700 431 4097 
L 731 4409 
Q 916 4225 963 4166 
Q 1356 4713 1634 5319 
L 2063 5106 
Q 1641 4400 1213 3878 
Q 1434 3597 1569 3413 
Q 1916 3894 2281 4550 
L 2678 4313 
Q 1966 3216 1391 2553 
Q 1984 2591 2319 2619 
L 2356 2619 
Q 2222 2956 2125 3169 
L 2466 3316 
Q 2772 2728 2959 2075 
L 2581 1906 
Q 2531 2091 2466 2309 
Q 2081 2253 1984 2241 
L 1897 2228 
L 1897 -447 
L 1475 -447 
L 1475 2175 
Q 1147 2128 456 2081 
L 322 2522 
Q 519 2522 634 2528 
L 938 2541 
L 963 2572 
Q 1009 2628 1281 3003 
L 1328 3066 
z
M 4391 4513 
Q 4363 3756 4116 3266 
Q 3834 2694 3163 2325 
L 2881 2663 
Q 3591 3031 3809 3663 
Q 3944 4038 3963 4513 
L 2938 4513 
L 2938 4922 
L 5881 4922 
Q 5872 3347 5753 2894 
Q 5656 2534 5159 2534 
Q 4884 2534 4500 2578 
L 4444 3028 
Q 4778 2950 5069 2950 
Q 5291 2950 5338 3163 
Q 5422 3550 5441 4513 
L 4391 4513 
z
M 5769 2106 
L 5769 -447 
L 5334 -447 
L 5334 -56 
L 3625 -56 
L 3625 -447 
L 3197 -447 
L 3197 2106 
L 5769 2106 
z
M 3625 1709 
L 3625 334 
L 5334 334 
L 5334 1709 
L 3625 1709 
z
M 409 213 
Q 641 822 731 1759 
L 1141 1709 
Q 1053 681 831 -19 
L 409 213 
z
M 2484 263 
Q 2356 1091 2131 1747 
L 2497 1856 
Q 2769 1213 2925 434 
L 2484 263 
z
" transform="scale(0.015625)"/>
       <path id="IPAexGothic-4ecb" d="M 281 2772 
Q 2000 3591 2888 5147 
L 3431 5147 
Q 4394 3766 6131 2950 
L 5825 2541 
Q 4134 3403 3169 4738 
Q 2325 3256 588 2388 
L 281 2772 
z
M 1913 3016 
L 2413 3016 
L 2413 2113 
Q 2413 1175 2219 628 
Q 1978 -56 1234 -531 
L 869 -172 
Q 1588 247 1797 909 
Q 1913 1253 1913 1972 
L 1913 3016 
z
M 4128 3072 
L 4628 3072 
L 4628 -372 
L 4128 -372 
L 4128 3072 
z
" transform="scale(0.015625)"/>
      </defs>
      <use xlink:href="#IPAexGothic-7d39"/>
      <use xlink:href="#IPAexGothic-4ecb" transform="translate(100 0)"/>
     </g>
    </g>
   </g>
  </g>
 </g>
 <defs>
  <clipPath id="pc292d38249">
   <rect x="55.55" y="30.48" width="394.45" height="211.96"/>
  </clipPath>
 </defs>
</svg>
