<?xml version="1.0" encoding="utf-8" standalone="no"?>
<!DOCTYPE svg PUBLIC "-//W3C//DTD SVG 1.1//EN"
  "http://www.w3.org/Graphics/SVG/1.1/DTD/svg11.dtd">
<svg xmlns:xlink="http://www.w3.org/1999/xlink" width="460.8pt" height="230.4pt" viewBox="0 0 460.8 230.4" xmlns="http://www.w3.org/2000/svg" version="1.1">
 <metadata>
  <rdf:RDF xmlns:dc="http://purl.org/dc/elements/1.1/" xmlns:cc="http://creativecommons.org/ns#" xmlns:rdf="http://www.w3.org/1999/02/22-rdf-syntax-ns#">
   <cc:Work>
    <dc:type rdf:resource="http://purl.org/dc/dcmitype/StillImage"/>
    <dc:date>2025-10-29T09:07:45.007993</dc:date>
    <dc:format>image/svg+xml</dc:format>
    <dc:creator>
     <cc:Agent>
      <dc:title>Matplotlib v3.10.7, https://matplotlib.org/</dc:title>
     </cc:Agent>
    </dc:creator>
   </cc:Work>
  </rdf:RDF>
 </metadata>
 <defs>
  <style type="text/css">*{stroke-linejoin: round; stroke-linecap: butt}</style>
 </defs>
 <g id="figure_1">
  <g id="patch_1">
   <path d="M 0 230.4 
L 460.8 230.4 
L 460.8 0 
L 0 0 
z
" style="fill: #ffffff"/>
  </g>
  <g id="axes_1">
   <g id="patch_2">
    <path d="M 56.18 179.665517 
L 450 179.665517 
L 450 30.48 
L 56.18 30.48 
z
" style="fill: #ffffff"/>
   </g>
   <g id="patch_3">
    <path d="M 74.080909 105.072759 
L 92.208412 105.072759 
L 92.208412 51.792217 
L 74.080909 51.792217 
z
" clip-path="url(#p482e2e7cbd)" style="fill: #22c55e"/>
   </g>
   <g id="patch_4">
    <path d="M 96.740288 105.072759 
L 114.867791 105.072759 
L 114.867791 51.792217 
L 96.740288 51.792217 
z
" clip-path="url(#p482e2e7cbd)" style="fill: #22c55e"/>
   </g>
   <g id="patch_5">
    <path d="M 119.399666 105.072759 
L 137.527169 105.072759 
L 137.527169 158.353301 
L 119.399666 158.353301 
z
" clip-path="url(#p482e2e7cbd)" style="fill: #ef4444"/>
   </g>
   <g id="patch_6">
    <path d="M 142.059045 105.072759 
L 160.186548 105.072759 
L 160.186548 51.792217 
L 142.059045 51.792217 
z
" clip-path="url(#p482e2e7cbd)" style="fill: #22c55e"/>
   </g>
   <g id="patch_7">
    <path d="M 164.718423 105.072759 
L 182.845926 105.072759 
L 182.845926 51.792217 
L 164.718423 51.792217 
z
" clip-path="url(#p482e2e7cbd)" style="fill: #22c55e"/>
   </g>
   <g id="patch_8">
    <path d="M 187.377802 105.072759 
L 205.505305 105.072759 
L 205.505305 51.792217 
L 187.377802 51.792217 
z
" clip-path="url(#p482e2e7cbd)" style="fill: #22c55e"/>
   </g>
   <g id="patch_9">
    <path d="M 210.037181 105.072759 
L 228.164684 105.072759 
L 228.164684 158.353301 
L 210.037181 158.353301 
z
" clip-path="url(#p482e2e7cbd)" style="fill: #ef4444"/>
   </g>
   <g id="patch_10">
    <path d="M 232.696559 105.072759 
L 250.824062 105.072759 
L 250.824062 158.353301 
L 232.696559 158.353301 
z
" clip-path="url(#p482e2e7cbd)" style="fill: #ef4444"/>
   </g>
   <g id="patch_11">
    <path d="M 255.355938 105.072759 
L 273.483441 105.072759 
L 273.483441 51.792217 
L 255.355938 51.792217 
z
" clip-path="url(#p482e2e7cbd)" style="fill: #22c55e"/>
   </g>
   <g id="patch_12">
    <path d="M 278.015316 105.072759 
L 296.142819 105.072759 
L 296.142819 158.353301 
L 278.015316 158.353301 
z
" clip-path="url(#p482e2e7cbd)" style="fill: #ef4444"/>
   </g>
   <g id="patch_13">
    <path d="M 300.674695 105.072759 
L 318.802198 105.072759 
L 318.802198 51.792217 
L 300.674695 51.792217 
z
" clip-path="url(#p482e2e7cbd)" style="fill: #22c55e"/>
   </g>
   <g id="patch_14">
    <path d="M 323.334074 105.072759 
L 341.461577 105.072759 
L 341.461577 51.792217 
L 323.334074 51.792217 
z
" clip-path="url(#p482e2e7cbd)" style="fill: #22c55e"/>
   </g>
   <g id="patch_15">
    <path d="M 345.993452 105.072759 
L 364.120955 105.072759 
L 364.120955 51.792217 
L 345.993452 51.792217 
z
" clip-path="url(#p482e2e7cbd)" style="fill: #22c55e"/>
   </g>
   <g id="patch_16">
    <path d="M 368.652831 105.072759 
L 386.780334 105.072759 
L 386.780334 158.353301 
L 368.652831 158.353301 
z
" clip-path="url(#p482e2e7cbd)" style="fill: #ef4444"/>
   </g>
   <g id="patch_17">
    <path d="M 391.312209 105.072759 
L 409.439712 105.072759 
L 409.439712 158.353301 
L 391.312209 158.353301 
z
" clip-path="url(#p482e2e7cbd)" style="fill: #ef4444"/>
   </g>
   <g id="patch_18">
    <path d="M 413.971588 105.072759 
L 432.099091 105.072759 
L 432.099091 158.353301 
L 413.971588 158.353301 
z
" clip-path="url(#p482e2e7cbd)" style="fill: #ef4444"/>
   </g>
   <g id="matplotlib.axis_1">
    <g id="xtick_1">
     <g id="line2d_1">
      <defs>
       <path id="mea4568c594" d="M 0 0 
L 0 3.5 
" style="stroke: #000000; stroke-width: 0.8"/>
      </defs>
      <g>
       <use xlink:href="#mea4568c594" x="83.144661" y="179.665517" style="stroke: #000000; stroke-width: 0.8"/>
      </g>
     </g>
     <g id="text_1">
      <!-- 1戦目 -->
      <g transform="translate(78.990863 213.185945) rotate(-60) scale(0.1 -0.1)">
       <defs>
        <path id="IPAexGothic-31" d="M 2463 63 
L 1900 63 
L 1900 4103 
Q 1372 3922 788 3797 
L 684 4231 
Q 1519 4441 2106 4731 
L 2463 4731 
L 2463 63 
z
" transform="scale(0.015625)"/>
        <path id="IPAexGothic-6226" d="M 3281 1716 
L 2116 1716 
L 2116 1113 
L 3513 1113 
L 3513 722 
L 2116 722 
L 2116 -450 
L 1694 -450 
L 1694 722 
L 313 722 
L 313 1113 
L 1694 1113 
L 1694 1716 
L 556 1716 
L 556 3950 
L 2256 3950 
Q 2541 4472 2788 5256 
L 3250 5084 
Q 2994 4453 2678 3950 
L 3281 3950 
L 3281 3431 
L 3966 3481 
Q 3966 3584 3959 3669 
Q 3931 4294 3922 5238 
L 4356 5238 
Q 4366 4078 4400 3513 
L 6047 3628 
L 6059 3225 
L 4425 3100 
Q 4475 2191 4650 1563 
Q 5050 2175 5303 2863 
L 5694 2688 
Q 5347 1772 4822 1069 
Q 4994 659 5156 459 
Q 5334 222 5419 222 
Q 5581 222 5669 1241 
L 6091 966 
Q 5888 -359 5522 -359 
Q 5044 -359 4516 684 
Q 3953 13 3269 -481 
L 2947 -128 
Q 3744 381 4331 1119 
Q 4056 1881 3991 3066 
L 3281 3009 
L 3281 1716 
z
M 2884 2088 
L 2884 2675 
L 2097 2675 
L 2097 2088 
L 2884 2088 
z
M 2884 3028 
L 2884 3578 
L 2097 3578 
L 2097 3028 
L 2884 3028 
z
M 953 3578 
L 953 3028 
L 1713 3028 
L 1713 3578 
L 953 3578 
z
M 953 2675 
L 953 2088 
L 1713 2088 
L 1713 2675 
L 953 2675 
z
M 850 4084 
Q 697 4578 453 4959 
L 819 5141 
Q 1109 4653 1247 4256 
L 850 4084 
z
M 1725 4153 
Q 1591 4697 1381 5106 
L 1766 5253 
Q 1966 4884 2128 4319 
L 1725 4153 
z
M 5309 3853 
Q 5003 4528 4747 4903 
L 5094 5088 
Q 5475 4566 5694 4078 
L 5309 3853 
z
" transform="scale(0.015625)"/>
        <path id="IPAexGothic-76ee" d="M 5266 4819 
L 5266 -384 
L 4791 -384 
L 4791 38 
L 1600 38 
L 1600 -384 
L 1125 -384 
L 1125 4819 
L 5266 4819 
z
M 1600 4416 
L 1600 3384 
L 4791 3384 
L 4791 4416 
L 1600 4416 
z
M 1600 2988 
L 1600 1966 
L 4791 1966 
L 4791 2988 
L 1600 2988 
z
M 1600 1563 
L 1600 447 
L 4791 447 
L 4791 1563 
L 1600 1563 
z
" transform="scale(0.015625)"/>
       </defs>
       <use xlink:href="#IPAexGothic-31"/>
       <use xlink:href="#IPAexGothic-6226" transform="translate(62.988281 0)"/>
       <use xlink:href="#IPAexGothic-76ee" transform="translate(162.988281 0)"/>
      </g>
     </g>
    </g>
    <g id="xtick_2">
     <g id="line2d_2">
      <g>
       <use xlink:href="#mea4568c594" x="105.804039" y="179.665517" style="stroke: #000000; stroke-width: 0.8"/>
      </g>
     </g>
     <g id="text_2">
      <!-- 2戦目 -->
      <g transform="translate(101.650241 213.185945) rotate(-60) scale(0.1 -0.1)">
       <defs>
        <path id="IPAexGothic-32" d="M 3659 63 
L 447 63 
L 447 594 
Q 825 1475 1894 2203 
L 2072 2322 
Q 2619 2697 2791 2906 
Q 2988 3153 2988 3444 
Q 2988 3772 2756 4003 
Q 2500 4259 2084 4259 
Q 1250 4259 991 3328 
L 497 3506 
Q 853 4725 2116 4725 
Q 2806 4725 3216 4316 
Q 3575 3947 3575 3425 
Q 3575 3038 3344 2722 
Q 3131 2416 2366 1938 
L 2231 1856 
Q 1256 1253 978 569 
L 3659 569 
L 3659 63 
z
" transform="scale(0.015625)"/>
       </defs>
       <use xlink:href="#IPAexGothic-32"/>
       <use xlink:href="#IPAexGothic-6226" transform="translate(62.988281 0)"/>
       <use xlink:href="#IPAexGothic-76ee" transform="translate(162.988281 0)"/>
      </g>
     </g>
    </g>
    <g id="xtick_3">
     <g id="line2d_3">
      <g>
       <use xlink:href="#mea4568c594" x="128.463418" y="179.665517" style="stroke: #000000; stroke-width: 0.8"/>
      </g>
     </g>
     <g id="text_3">
      <!-- 3戦目 -->
      <g transform="translate(124.30962 213.185945) rotate(-60) scale(0.1 -0.1)">
       <defs>
        <path id="IPAexGothic-33" d="M 2381 2419 
Q 3506 2216 3506 1278 
Q 3506 716 3128 356 
Q 2709 -31 1944 -31 
Q 797 -31 288 881 
L 756 1131 
Q 1109 441 1938 441 
Q 2425 441 2694 691 
Q 2950 928 2950 1291 
Q 2950 1719 2566 1978 
Q 2216 2213 1644 2213 
L 1363 2213 
L 1363 2669 
L 1656 2669 
Q 2231 2669 2534 2888 
Q 2859 3119 2859 3509 
Q 2859 3934 2494 4138 
Q 2259 4278 1931 4278 
Q 1238 4278 903 3578 
L 434 3803 
Q 897 4725 1938 4725 
Q 2597 4725 3006 4394 
Q 3416 4069 3416 3534 
Q 3416 3028 3019 2706 
Q 2763 2500 2381 2444 
L 2381 2419 
z
" transform="scale(0.015625)"/>
       </defs>
       <use xlink:href="#IPAexGothic-33"/>
       <use xlink:href="#IPAexGothic-6226" transform="translate(62.988281 0)"/>
       <use xlink:href="#IPAexGothic-76ee" transform="translate(162.988281 0)"/>
      </g>
     </g>
    </g>
    <g id="xtick_4">
     <g id="line2d_4">
      <g>
       <use xlink:href="#mea4568c594" x="151.122796" y="179.665517" style="stroke: #000000; stroke-width: 0.8"/>
      </g>
     </g>
     <g id="text_4">
      <!-- 4戦目 -->
      <g transform="translate(146.968999 213.185945) rotate(-60) scale(0.1 -0.1)">
       <defs>
        <path id="IPAexGothic-34" d="M 3813 1159 
L 3059 1159 
L 3059 63 
L 2547 63 
L 2547 1159 
L 197 1159 
L 197 1672 
L 2456 4678 
L 3059 4678 
L 3059 1634 
L 3813 1634 
L 3813 1159 
z
M 2578 4109 
L 2559 4109 
Q 2278 3656 2003 3284 
L 759 1634 
L 2547 1634 
L 2547 3144 
Q 2547 3481 2578 4109 
z
" transform="scale(0.015625)"/>
       </defs>
       <use xlink:href="#IPAexGothic-34"/>
       <use xlink:href="#IPAexGothic-6226" transform="translate(62.988281 0)"/>
       <use xlink:href="#IPAexGothic-76ee" transform="translate(162.988281 0)"/>
      </g>
     </g>
    </g>
    <g id="xtick_5">
     <g id="line2d_5">
      <g>
       <use xlink:href="#mea4568c594" x="173.782175" y="179.665517" style="stroke: #000000; stroke-width: 0.8"/>
      </g>
     </g>
     <g id="text_5">
      <!-- 5戦目 -->
      <g transform="translate(169.628377 213.185945) rotate(-60) scale(0.1 -0.1)">
       <defs>
        <path id="IPAexGothic-35" d="M 1178 2603 
Q 1634 2963 2172 2963 
Q 2816 2963 3241 2528 
Q 3638 2113 3638 1497 
Q 3638 938 3297 513 
Q 2869 -31 2031 -31 
Q 959 -31 469 784 
L 938 1028 
Q 1309 434 2013 434 
Q 2466 434 2769 716 
Q 3081 1013 3081 1503 
Q 3081 1966 2806 2241 
Q 2519 2528 2056 2528 
Q 1406 2528 1072 2028 
L 591 2091 
L 884 4634 
L 3406 4634 
L 3406 4153 
L 1341 4153 
L 1134 2603 
L 1178 2603 
z
" transform="scale(0.015625)"/>
       </defs>
       <use xlink:href="#IPAexGothic-35"/>
       <use xlink:href="#IPAexGothic-6226" transform="translate(62.988281 0)"/>
       <use xlink:href="#IPAexGothic-76ee" transform="translate(162.988281 0)"/>
      </g>
     </g>
    </g>
    <g id="xtick_6">
     <g id="line2d_6">
      <g>
       <use xlink:href="#mea4568c594" x="196.441554" y="179.665517" style="stroke: #000000; stroke-width: 0.8"/>
      </g>
     </g>
     <g id="text_6">
      <!-- 6戦目 -->
      <g transform="translate(192.287756 213.185945) rotate(-60) scale(0.1 -0.1)">
       <defs>
        <path id="IPAexGothic-36" d="M 1056 2328 
Q 1509 2981 2234 2981 
Q 2906 2981 3316 2513 
Q 3675 2106 3675 1522 
Q 3675 884 3272 434 
Q 2853 -31 2178 -31 
Q 1375 -31 922 581 
Q 481 1178 481 2228 
Q 481 3425 1013 4109 
Q 1494 4725 2272 4725 
Q 3191 4725 3609 4025 
L 3150 3775 
Q 2894 4266 2300 4266 
Q 1119 4266 1031 2328 
L 1056 2328 
z
M 2141 2547 
Q 1684 2547 1384 2206 
Q 1116 1900 1116 1541 
Q 1116 1156 1353 844 
Q 1672 428 2159 428 
Q 2669 428 2941 844 
Q 3125 1128 3125 1503 
Q 3125 1944 2881 2228 
Q 2600 2547 2141 2547 
z
" transform="scale(0.015625)"/>
       </defs>
       <use xlink:href="#IPAexGothic-36"/>
       <use xlink:href="#IPAexGothic-6226" transform="translate(62.988281 0)"/>
       <use xlink:href="#IPAexGothic-76ee" transform="translate(162.988281 0)"/>
      </g>
     </g>
    </g>
    <g id="xtick_7">
     <g id="line2d_7">
      <g>
       <use xlink:href="#mea4568c594" x="219.100932" y="179.665517" style="stroke: #000000; stroke-width: 0.8"/>
      </g>
     </g>
     <g id="text_7">
      <!-- 7戦目 -->
      <g transform="translate(214.947134 213.185945) rotate(-60) scale(0.1 -0.1)">
       <defs>
        <path id="IPAexGothic-37" d="M 3597 4263 
Q 2238 2106 1778 63 
L 1131 63 
Q 1581 1834 2950 4128 
L 428 4128 
L 428 4634 
L 3597 4634 
L 3597 4263 
z
" transform="scale(0.015625)"/>
       </defs>
       <use xlink:href="#IPAexGothic-37"/>
       <use xlink:href="#IPAexGothic-6226" transform="translate(62.988281 0)"/>
       <use xlink:href="#IPAexGothic-76ee" transform="translate(162.988281 0)"/>
      </g>
     </g>
    </g>
    <g id="xtick_8">
     <g id="line2d_8">
      <g>
       <use xlink:href="#mea4568c594" x="241.760311" y="179.665517" style="stroke: #000000; stroke-width: 0.8"/>
      </g>
     </g>
     <g id="text_8">
      <!-- 8戦目 -->
      <g transform="translate(237.606513 213.185945) rotate(-60) scale(0.1 -0.1)">
       <defs>
        <path id="IPAexGothic-38" d="M 2541 2425 
Q 3700 2031 3700 1197 
Q 3700 541 3100 197 
Q 2663 -56 2016 -56 
Q 1366 -56 928 197 
Q 347 531 347 1178 
Q 347 1988 1409 2381 
L 1409 2400 
Q 481 2734 481 3509 
Q 481 4100 981 4456 
Q 1406 4756 2019 4756 
Q 2703 4756 3131 4403 
Q 3553 4069 3553 3566 
Q 3553 2706 2541 2444 
L 2541 2425 
z
M 2022 2625 
Q 2997 2856 2997 3528 
Q 2997 3916 2675 4150 
Q 2413 4347 2016 4347 
Q 1606 4347 1331 4128 
Q 1050 3897 1050 3522 
Q 1050 3150 1350 2925 
Q 1494 2809 1722 2722 
Q 1984 2616 2022 2625 
z
M 1978 2209 
Q 922 1931 922 1216 
Q 922 775 1313 556 
Q 1606 391 2009 391 
Q 2575 391 2881 697 
Q 3106 922 3106 1250 
Q 3106 1594 2794 1850 
Q 2609 1994 2350 2100 
Q 2047 2222 1978 2209 
z
" transform="scale(0.015625)"/>
       </defs>
       <use xlink:href="#IPAexGothic-38"/>
       <use xlink:href="#IPAexGothic-6226" transform="translate(62.988281 0)"/>
       <use xlink:href="#IPAexGothic-76ee" transform="translate(162.988281 0)"/>
      </g>
     </g>
    </g>
    <g id="xtick_9">
     <g id="line2d_9">
      <g>
       <use xlink:href="#mea4568c594" x="264.419689" y="179.665517" style="stroke: #000000; stroke-width: 0.8"/>
      </g>
     </g>
     <g id="text_9">
      <!-- 9戦目 -->
      <g transform="translate(260.265892 213.185945) rotate(-60) scale(0.1 -0.1)">
       <defs>
        <path id="IPAexGothic-39" d="M 2984 2356 
Q 2544 1716 1813 1716 
Q 1253 1716 847 2056 
Q 366 2459 366 3163 
Q 366 3813 769 4266 
Q 1181 4725 1869 4725 
Q 2800 4725 3241 3950 
Q 3559 3378 3559 2472 
Q 3559 1250 3041 588 
Q 2553 -31 1769 -31 
Q 859 -31 391 703 
L 853 953 
Q 1156 428 1753 428 
Q 2922 428 3009 2356 
L 2984 2356 
z
M 1888 4278 
Q 1450 4278 1172 3950 
Q 922 3653 922 3200 
Q 922 2741 1159 2478 
Q 1434 2163 1906 2163 
Q 2431 2163 2728 2572 
Q 2925 2847 2925 3169 
Q 2925 3553 2694 3863 
Q 2375 4278 1888 4278 
z
" transform="scale(0.015625)"/>
       </defs>
       <use xlink:href="#IPAexGothic-39"/>
       <use xlink:href="#IPAexGothic-6226" transform="translate(62.988281 0)"/>
       <use xlink:href="#IPAexGothic-76ee" transform="translate(162.988281 0)"/>
      </g>
     </g>
    </g>
    <g id="xtick_10">
     <g id="line2d_10">
      <g>
       <use xlink:href="#mea4568c594" x="287.079068" y="179.665517" style="stroke: #000000; stroke-width: 0.8"/>
      </g>
     </g>
     <g id="text_10">
      <!-- 10戦目 -->
      <g transform="translate(281.350661 218.640552) rotate(-60) scale(0.1 -0.1)">
       <defs>
        <path id="IPAexGothic-30" d="M 2038 4725 
Q 2881 4725 3334 3944 
Q 3694 3325 3694 2344 
Q 3694 1372 3334 741 
Q 2888 -31 2016 -31 
Q 1147 -31 700 741 
Q 341 1372 341 2350 
Q 341 3713 1000 4334 
Q 1419 4725 2038 4725 
z
M 2016 4266 
Q 1516 4266 1228 3759 
Q 934 3247 934 2344 
Q 934 1456 1222 947 
Q 1513 447 2016 447 
Q 2619 447 2909 1153 
Q 3100 1622 3100 2375 
Q 3100 3256 2806 3759 
Q 2509 4266 2016 4266 
z
" transform="scale(0.015625)"/>
       </defs>
       <use xlink:href="#IPAexGothic-31"/>
       <use xlink:href="#IPAexGothic-30" transform="translate(62.988281 0)"/>
       <use xlink:href="#IPAexGothic-6226" transform="translate(125.976562 0)"/>
       <use xlink:href="#IPAexGothic-76ee" transform="translate(225.976562 0)"/>
      </g>
     </g>
    </g>
    <g id="xtick_11">
     <g id="line2d_11">
      <g>
       <use xlink:href="#mea4568c594" x="309.738446" y="179.665517" style="stroke: #000000; stroke-width: 0.8"/>
      </g>
     </g>
     <g id="text_11">
      <!-- 11戦目 -->
      <g transform="translate(304.010039 218.640552) rotate(-60) scale(0.1 -0.1)">
       <use xlink:href="#IPAexGothic-31"/>
       <use xlink:href="#IPAexGothic-31" transform="translate(62.988281 0)"/>
       <use xlink:href="#IPAexGothic-6226" transform="translate(125.976562 0)"/>
       <use xlink:href="#IPAexGothic-76ee" transform="translate(225.976562 0)"/>
      </g>
     </g>
    </g>
    <g id="xtick_12">
     <g id="line2d_12">
      <g>
       <use xlink:href="#mea4568c594" x="332.397825" y="179.665517" style="stroke: #000000; stroke-width: 0.8"/>
      </g>
     </g>
     <g id="text_12">
      <!-- 12戦目 -->
      <g transform="translate(326.669418 218.640552) rotate(-60) scale(0.1 -0.1)">
       <use xlink:href="#IPAexGothic-31"/>
       <use xlink:href="#IPAexGothic-32" transform="translate(62.988281 0)"/>
       <use xlink:href="#IPAexGothic-6226" transform="translate(125.976562 0)"/>
       <use xlink:href="#IPAexGothic-76ee" transform="translate(225.976562 0)"/>
      </g>
     </g>
    </g>
    <g id="xtick_13">
     <g id="line2d_13">
      <g>
       <use xlink:href="#mea4568c594" x="355.057204" y="179.665517" style="stroke: #000000; stroke-width: 0.8"/>
      </g>
     </g>
     <g id="text_13">
      <!-- 13戦目 -->
      <g transform="translate(349.328797 218.640552) rotate(-60) scale(0.1 -0.1)">
       <use xlink:href="#IPAexGothic-31"/>
       <use xlink:href="#IPAexGothic-33" transform="translate(62.988281 0)"/>
       <use xlink:href="#IPAexGothic-6226" transform="translate(125.976562 0)"/>
       <use xlink:href="#IPAexGothic-76ee" transform="translate(225.976562 0)"/>
      </g>
     </g>
    </g>
    <g id="xtick_14">
     <g id="line2d_14">
      <g>
       <use xlink:href="#mea4568c594" x="377.716582" y="179.665517" style="stroke: #000000; stroke-width: 0.8"/>
      </g>
     </g>
     <g id="text_14">
      <!-- 14戦目 -->
      <g transform="translate(371.988175 218.640552) rotate(-60) scale(0.1 -0.1)">
       <use xlink:href="#IPAexGothic-31"/>
       <use xlink:href="#IPAexGothic-34" transform="translate(62.988281 0)"/>
       <use xlink:href="#IPAexGothic-6226" transform="translate(125.976562 0)"/>
       <use xlink:href="#IPAexGothic-76ee" transform="translate(225.976562 0)"/>
      </g>
     </g>
    </g>
    <g id="xtick_15">
     <g id="line2d_15">
      <g>
       <use xlink:href="#mea4568c594" x="400.375961" y="179.665517" style="stroke: #000000; stroke-width: 0.8"/>
      </g>
     </g>
     <g id="text_15">
      <!-- 15戦目 -->
      <g transform="translate(394.647554 218.640552) rotate(-60) scale(0.1 -0.1)">
       <use xlink:href="#IPAexGothic-31"/>
       <use xlink:href="#IPAexGothic-35" transform="translate(62.988281 0)"/>
       <use xlink:href="#IPAexGothic-6226" transform="translate(125.976562 0)"/>
       <use xlink:href="#IPAexGothic-76ee" transform="translate(225.976562 0)"/>
      </g>
     </g>
    </g>
    <g id="xtick_16">
     <g id="line2d_16">
      <g>
       <use xlink:href="#mea4568c594" x="423.035339" y="179.665517" style="stroke: #000000; stroke-width: 0.8"/>
      </g>
     </g>
     <g id="text_16">
      <!-- 16戦目 -->
      <g transform="translate(417.306932 218.640552) rotate(-60) scale(0.1 -0.1)">
       <use xlink:href="#IPAexGothic-31"/>
       <use xlink:href="#IPAexGothic-36" transform="translate(62.988281 0)"/>
       <use xlink:href="#IPAexGothic-6226" transform="translate(125.976562 0)"/>
       <use xlink:href="#IPAexGothic-76ee" transform="translate(225.976562 0)"/>
      </g>
     </g>
    </g>
   </g>
   <g id="matplotlib.axis_2">
    <g id="ytick_1">
     <g id="line2d_17">
      <defs>
       <path id="m3f7cab537a" d="M 0 0 
L -3.5 0 
" style="stroke: #000000; stroke-width: 0.8"/>
      </defs>
      <g>
       <use xlink:href="#m3f7cab537a" x="56.18" y="158.353301" style="stroke: #000000; stroke-width: 0.8"/>
      </g>
     </g>
     <g id="text_17">
      <!-- 負け -->
      <g transform="translate(29.18 162.098613) scale(0.1 -0.1)">
       <defs>
        <path id="IPAexGothic-8ca0" d="M 3897 3803 
L 5356 3803 
L 5356 716 
L 1363 716 
L 1363 3356 
Q 1122 3144 716 2875 
L 409 3222 
Q 1725 4066 2309 5316 
L 2772 5228 
Q 2706 5100 2578 4856 
L 4338 4856 
L 4588 4684 
Q 4225 4169 3897 3803 
z
M 3359 3803 
Q 3666 4138 3897 4472 
L 2347 4472 
Q 2184 4213 1822 3803 
L 3359 3803 
z
M 1816 3419 
L 1816 2894 
L 4903 2894 
L 4903 3419 
L 1816 3419 
z
M 1816 2534 
L 1816 2003 
L 4903 2003 
L 4903 2534 
L 1816 2534 
z
M 1816 1638 
L 1816 1100 
L 4903 1100 
L 4903 1638 
L 1816 1638 
z
M 575 -97 
Q 1625 153 2438 684 
L 2828 416 
Q 2028 -159 878 -513 
L 575 -97 
z
M 5606 -416 
Q 4575 109 3750 397 
L 4116 684 
Q 4988 419 5991 -13 
L 5606 -416 
z
" transform="scale(0.015625)"/>
        <path id="IPAexGothic-3051" d="M 2553 3481 
Q 2891 3463 3219 3463 
Q 3691 3463 4338 3506 
Q 4303 4434 4250 4897 
L 4763 4897 
Q 4769 4772 4825 3566 
Q 5319 3634 5709 3744 
L 5747 3291 
Q 5356 3159 4838 3109 
Q 4844 2875 4844 2606 
Q 4844 1434 4575 856 
Q 4250 138 3347 -313 
L 2938 56 
Q 3809 441 4094 1006 
Q 4363 1525 4363 2625 
Q 4363 2853 4359 3059 
Q 3722 3009 3175 3009 
Q 2791 3009 2591 3022 
L 2553 3481 
z
M 1925 2088 
L 2253 1881 
Q 1697 872 1678 166 
L 1259 72 
Q 941 1184 941 2272 
Q 941 3181 1344 4872 
L 1819 4750 
Q 1416 3166 1416 2163 
Q 1416 1722 1491 1222 
L 1925 2088 
z
" transform="scale(0.015625)"/>
       </defs>
       <use xlink:href="#IPAexGothic-8ca0"/>
       <use xlink:href="#IPAexGothic-3051" transform="translate(100 0)"/>
      </g>
     </g>
    </g>
    <g id="ytick_2">
     <g id="line2d_18">
      <g>
       <use xlink:href="#m3f7cab537a" x="56.18" y="105.072759" style="stroke: #000000; stroke-width: 0.8"/>
      </g>
     </g>
    </g>
    <g id="ytick_3">
     <g id="line2d_19">
      <g>
       <use xlink:href="#m3f7cab537a" x="56.18" y="51.792217" style="stroke: #000000; stroke-width: 0.8"/>
      </g>
     </g>
     <g id="text_18">
      <!-- 勝ち -->
      <g transform="translate(29.18 55.537529) scale(0.1 -0.1)">
       <defs>
        <path id="IPAexGothic-52dd" d="M 2984 1728 
L 3822 1728 
L 3822 2325 
L 4238 2325 
L 4238 1759 
L 5478 1759 
Q 5459 503 5344 -6 
Q 5259 -391 4756 -391 
Q 4441 -391 4072 -347 
L 4006 97 
Q 4353 38 4653 38 
Q 4894 38 4941 300 
Q 5013 697 5031 1375 
L 4200 1375 
Q 4056 159 2919 -506 
L 2625 -153 
Q 3584 338 3778 1350 
L 2906 1350 
L 2906 1650 
Q 2806 1544 2553 1325 
L 2266 1672 
Q 2769 2031 3175 2631 
L 2344 2631 
L 2344 3003 
L 3347 3003 
Q 3488 3281 3591 3628 
L 2575 3628 
L 2575 3994 
L 3688 3994 
Q 3822 4613 3884 5306 
L 4322 5275 
Q 4234 4450 4128 3994 
L 5863 3994 
L 5863 3628 
L 4713 3628 
Q 4866 3275 5038 3003 
L 6081 3003 
L 6081 2631 
L 5319 2631 
Q 5694 2200 6209 1888 
L 5928 1497 
Q 5250 2003 4819 2631 
L 3638 2631 
Q 3341 2122 2984 1728 
z
M 4316 3628 
L 4013 3628 
Q 3931 3322 3791 3003 
L 4597 3003 
Q 4431 3341 4316 3628 
z
M 2203 4978 
L 2203 31 
Q 2203 -228 2106 -313 
Q 1997 -403 1728 -403 
Q 1447 -403 1250 -378 
L 1178 63 
Q 1394 19 1634 19 
Q 1806 19 1806 191 
L 1806 1684 
L 1031 1684 
Q 1003 259 591 -519 
L 231 -184 
Q 641 575 641 2063 
L 641 4978 
L 2203 4978 
z
M 1031 4581 
L 1031 3541 
L 1806 3541 
L 1806 4581 
L 1031 4581 
z
M 1031 3156 
L 1031 2069 
L 1806 2069 
L 1806 3156 
L 1031 3156 
z
M 3100 4038 
Q 2909 4519 2644 4903 
L 3016 5088 
Q 3269 4722 3488 4238 
L 3100 4038 
z
M 4609 4206 
Q 4850 4631 5025 5141 
L 5466 4984 
Q 5197 4394 4975 4038 
L 4609 4206 
z
" transform="scale(0.015625)"/>
        <path id="IPAexGothic-3061" d="M 684 4084 
Q 1250 4038 2131 4038 
Q 2269 4706 2328 5113 
L 2809 5044 
Q 2709 4494 2616 4056 
Q 3625 4103 4575 4300 
L 4634 3841 
Q 3650 3663 2509 3616 
Q 2281 2638 2003 1913 
Q 2956 2644 3956 2644 
Q 4522 2644 4891 2425 
Q 5447 2109 5447 1466 
Q 5447 -66 2425 -159 
L 2206 294 
Q 4941 344 4941 1472 
Q 4941 2234 3878 2234 
Q 3228 2234 2522 1819 
Q 2091 1563 1766 1216 
L 1356 1509 
Q 1756 2484 2028 3597 
Q 1122 3597 703 3622 
L 684 4084 
z
" transform="scale(0.015625)"/>
       </defs>
       <use xlink:href="#IPAexGothic-52dd"/>
       <use xlink:href="#IPAexGothic-3061" transform="translate(100 0)"/>
      </g>
     </g>
    </g>
    <g id="text_19">
     <!-- 結果 -->
     <g transform="translate(22.444 119.472759) rotate(-90) scale(0.144 -0.144)">
      <defs>
       <path id="IPAexGothic-7d50" d="M 1241 3084 
Q 794 3713 378 4128 
L 666 4422 
Q 828 4259 916 4153 
Q 1300 4750 1541 5331 
L 1956 5119 
Q 1547 4363 1150 3859 
Q 1228 3759 1466 3425 
Q 1844 4016 2138 4550 
L 2522 4313 
Q 1853 3213 1313 2572 
Q 1647 2581 2253 2631 
Q 2134 2909 2009 3156 
L 2353 3303 
Q 2656 2775 2878 2106 
L 2494 1925 
Q 2469 2022 2425 2156 
Q 2384 2284 2372 2322 
Q 2334 2319 2222 2300 
Q 1966 2259 1778 2234 
L 1778 -447 
L 1363 -447 
L 1363 2181 
L 1291 2175 
Q 1000 2144 428 2106 
L 281 2534 
Q 672 2547 863 2553 
Q 909 2613 972 2700 
Q 1059 2816 1241 3084 
z
M 4134 4325 
L 4134 5309 
L 4563 5309 
L 4563 4325 
L 6113 4325 
L 6113 3934 
L 4563 3934 
L 4563 3034 
L 5906 3034 
L 5906 2650 
L 2859 2650 
L 2859 3034 
L 4134 3034 
L 4134 3934 
L 2719 3934 
L 2719 4325 
L 4134 4325 
z
M 5631 1997 
L 5631 -450 
L 5203 -450 
L 5203 -103 
L 3550 -103 
L 3550 -450 
L 3122 -450 
L 3122 1997 
L 5631 1997 
z
M 3550 1613 
L 3550 281 
L 5203 281 
L 5203 1613 
L 3550 1613 
z
M 353 197 
Q 581 863 647 1759 
L 1056 1709 
Q 988 709 769 -13 
L 353 197 
z
M 2334 313 
Q 2206 1147 1997 1759 
L 2363 1869 
Q 2609 1253 2766 488 
L 2334 313 
z
" transform="scale(0.015625)"/>
       <path id="IPAexGothic-679c" d="M 3809 1666 
Q 4656 800 6088 297 
L 5784 -131 
Q 4256 494 3406 1563 
L 3406 -447 
L 2947 -447 
L 2947 1519 
Q 2203 425 647 -281 
L 334 109 
Q 1769 697 2575 1666 
L 378 1666 
L 378 2075 
L 2947 2075 
L 2947 2625 
L 1109 2625 
L 1109 5013 
L 5288 5013 
L 5288 2625 
L 3406 2625 
L 3406 2075 
L 6016 2075 
L 6016 1666 
L 3809 1666 
z
M 1556 4628 
L 1556 3994 
L 2959 3994 
L 2959 4628 
L 1556 4628 
z
M 1556 3628 
L 1556 3009 
L 2959 3009 
L 2959 3628 
L 1556 3628 
z
M 4834 3009 
L 4834 3628 
L 3394 3628 
L 3394 3009 
L 4834 3009 
z
M 4834 3994 
L 4834 4628 
L 3394 4628 
L 3394 3994 
L 4834 3994 
z
" transform="scale(0.015625)"/>
      </defs>
      <use xlink:href="#IPAexGothic-7d50"/>
      <use xlink:href="#IPAexGothic-679c" transform="translate(100 0)"/>
     </g>
    </g>
   </g>
   <g id="line2d_20">
    <path d="M 56.18 105.072759 
L 450 105.072759 
" clip-path="url(#p482e2e7cbd)" style="fill: none; stroke: #475569; stroke-linecap: square"/>
   </g>
   <g id="text_20">
    <!-- +2 -->
    <g transform="translate(145.236234 43.800135) scale(0.09 -0.09)">
     <defs>
      <path id="IPAexGothic-2b" d="M 2369 1856 
L 2369 219 
L 1984 219 
L 1984 1856 
L 416 1856 
L 416 2216 
L 1984 2216 
L 1984 3725 
L 2369 3725 
L 2369 2216 
L 3922 2216 
L 3922 1856 
L 2369 1856 
z
" transform="scale(0.015625)"/>
     </defs>
     <use xlink:href="#IPAexGothic-2b"/>
     <use xlink:href="#IPAexGothic-32" transform="translate(67.822266 0)"/>
    </g>
   </g>
   <g id="text_21">
    <!-- +2 -->
    <g transform="translate(235.873748 43.800135) scale(0.09 -0.09)">
     <use xlink:href="#IPAexGothic-2b"/>
     <use xlink:href="#IPAexGothic-32" transform="translate(67.822266 0)"/>
    </g>
   </g>
   <g id="text_22">
    <!-- +4 -->
    <g transform="translate(326.511263 43.800135) scale(0.09 -0.09)">
     <use xlink:href="#IPAexGothic-2b"/>
     <use xlink:href="#IPAexGothic-34" transform="translate(67.822266 0)"/>
    </g>
   </g>
   <g id="text_23">
    <!-- +2 -->
    <g transform="translate(417.148777 43.800135) scale(0.09 -0.09)">
     <use xlink:href="#IPAexGothic-2b"/>
     <use xlink:href="#IPAexGothic-32" transform="translate(67.822266 0)"/>
    </g>
   </g>
   <g id="text_24">
    <!-- 直近16試合の勝敗シーケンス -->
    <g transform="translate(138.5263 24.48) scale(0.1728 -0.1728)">
     <defs>
      <path id="IPAexGothic-76f4" d="M 3297 3688 
L 5222 3688 
L 5222 684 
L 1984 684 
L 1984 3688 
L 2847 3688 
Q 2859 3741 2913 4044 
L 2931 4153 
L 647 4153 
L 647 4538 
L 2994 4538 
L 3009 4609 
Q 3056 4944 3103 5338 
L 3584 5288 
Q 3556 5047 3469 4538 
L 5881 4538 
L 5881 4153 
L 3400 4153 
Q 3328 3819 3297 3688 
z
M 4781 3316 
L 2425 3316 
L 2425 2809 
L 4781 2809 
L 4781 3316 
z
M 2425 2450 
L 2425 1953 
L 4781 1953 
L 4781 2450 
L 2425 2450 
z
M 2425 1594 
L 2425 1056 
L 4781 1056 
L 4781 1594 
L 2425 1594 
z
M 1331 244 
L 6081 244 
L 6081 -153 
L 1331 -153 
L 1331 -447 
L 878 -447 
L 878 3213 
L 1331 3213 
L 1331 244 
z
" transform="scale(0.015625)"/>
      <path id="IPAexGothic-8fd1" d="M 1831 788 
Q 1856 747 1875 728 
Q 2113 444 2481 306 
Q 2934 147 4134 147 
Q 5078 147 6119 222 
Q 6000 9 5944 -263 
Q 5025 -294 4459 -294 
Q 3431 -294 2975 -244 
Q 2050 -138 1600 491 
Q 1131 -53 666 -444 
L 372 44 
Q 881 344 1378 775 
L 1378 2303 
L 397 2303 
L 397 2731 
L 1831 2731 
L 1831 788 
z
M 2681 4678 
Q 4106 4756 5278 5116 
L 5631 4719 
Q 4625 4416 3128 4291 
L 3128 3419 
L 5950 3419 
L 5950 3009 
L 4903 3009 
L 4903 463 
L 4453 463 
L 4453 3009 
L 3128 3009 
L 3128 2925 
Q 3119 1234 2603 481 
L 2244 781 
Q 2553 1281 2628 1991 
Q 2681 2494 2681 3309 
L 2681 4678 
z
M 1625 3622 
Q 1253 4131 634 4703 
L 972 4997 
Q 1481 4584 1984 3969 
L 1625 3622 
z
" transform="scale(0.015625)"/>
      <path id="IPAexGothic-8a66" d="M 4384 3969 
Q 4369 4425 4353 5300 
L 4781 5300 
Q 4791 4594 4813 4134 
L 4822 4000 
L 6075 4000 
L 6075 3591 
L 4834 3591 
L 4847 3394 
Q 4903 1969 5203 1000 
Q 5447 256 5563 256 
Q 5669 256 5716 1222 
L 6113 959 
Q 5969 -378 5641 -378 
Q 5369 -378 5069 191 
Q 4541 1191 4416 3341 
L 4397 3566 
L 2547 3566 
L 2547 3816 
L 353 3816 
L 353 4206 
L 2581 4206 
L 2581 3969 
L 4384 3969 
z
M 2406 1684 
L 2406 -128 
L 966 -128 
L 966 -447 
L 544 -447 
L 544 1684 
L 2406 1684 
z
M 966 1313 
L 966 244 
L 1984 244 
L 1984 1313 
L 966 1313 
z
M 3750 2303 
L 3750 831 
Q 4016 903 4581 1088 
L 4606 722 
Q 3750 369 2759 134 
L 2578 556 
Q 2903 619 3334 722 
L 3334 2303 
L 2731 2303 
L 2731 2694 
L 4319 2694 
L 4319 2303 
L 3750 2303 
z
M 641 5044 
L 2313 5044 
L 2313 4659 
L 641 4659 
L 641 5044 
z
M 641 3359 
L 2313 3359 
L 2313 2975 
L 641 2975 
L 641 3359 
z
M 641 2522 
L 2313 2522 
L 2313 2138 
L 641 2138 
L 641 2522 
z
M 5513 4191 
Q 5331 4659 5063 5031 
L 5422 5222 
Q 5716 4806 5897 4403 
L 5513 4191 
z
" transform="scale(0.015625)"/>
      <path id="IPAexGothic-5408" d="M 1831 3188 
L 4653 3188 
L 4653 2778 
L 1747 2778 
L 1747 3125 
Q 1275 2778 594 2453 
L 294 2828 
Q 2006 3509 2891 5147 
L 3431 5147 
Q 4331 3806 6125 3003 
L 5831 2588 
Q 4119 3416 3175 4731 
Q 2650 3806 1831 3188 
z
M 5113 2088 
L 5113 -450 
L 4638 -450 
L 4638 -97 
L 1766 -97 
L 1766 -450 
L 1284 -450 
L 1284 2088 
L 5113 2088 
z
M 1766 1691 
L 1766 300 
L 4638 300 
L 4638 1691 
L 1766 1691 
z
" transform="scale(0.015625)"/>
      <path id="IPAexGothic-306e" d="M 3119 469 
Q 5275 766 5275 2425 
Q 5275 3453 4413 3925 
Q 4041 4116 3547 4159 
Q 3394 2525 2850 1400 
Q 2322 306 1722 306 
Q 1384 306 1084 666 
Q 609 1244 609 2003 
Q 609 3025 1397 3794 
Q 2184 4563 3431 4563 
Q 4306 4563 4928 4122 
Q 5813 3506 5813 2425 
Q 5813 438 3431 6 
L 3119 469 
z
M 3053 4147 
Q 2378 4044 1891 3641 
Q 1097 2981 1097 1991 
Q 1097 1366 1434 978 
Q 1581 813 1719 813 
Q 2022 813 2416 1625 
Q 2909 2638 3053 4147 
z
" transform="scale(0.015625)"/>
      <path id="IPAexGothic-6557" d="M 5409 3775 
L 5394 3628 
Q 5250 2106 4769 1228 
Q 5297 584 6094 94 
L 5766 -384 
Q 5072 128 4513 819 
Q 3947 41 3028 -481 
L 2713 -72 
Q 3641 369 4231 1209 
Q 3778 1872 3481 2897 
Q 3297 2500 3009 2091 
L 2706 2481 
Q 3425 3513 3653 5291 
L 4128 5209 
Q 4003 4522 3922 4191 
L 5941 4191 
L 5941 3775 
L 5409 3775 
z
M 4953 3775 
L 3809 3775 
L 3781 3691 
Q 3759 3613 3731 3538 
Q 3972 2453 4481 1638 
Q 4850 2394 4953 3775 
z
M 2631 4978 
L 2631 1019 
L 616 1019 
L 616 4978 
L 2631 4978 
z
M 1031 4588 
L 1031 3803 
L 2216 3803 
L 2216 4588 
L 1031 4588 
z
M 1031 3431 
L 1031 2650 
L 2216 2650 
L 2216 3431 
L 1031 3431 
z
M 1031 2278 
L 1031 1416 
L 2216 1416 
L 2216 2278 
L 1031 2278 
z
M 263 -153 
Q 753 338 1031 984 
L 1441 781 
Q 1075 -6 603 -500 
L 263 -153 
z
M 2431 -128 
Q 2091 431 1747 756 
L 2113 984 
Q 2550 566 2809 191 
L 2431 -128 
z
" transform="scale(0.015625)"/>
      <path id="IPAexGothic-30b7" d="M 2828 3531 
Q 2219 4056 1613 4359 
L 1913 4781 
Q 2503 4491 3169 3981 
L 2828 3531 
z
M 1163 500 
Q 3944 1094 5338 3525 
L 5688 3128 
Q 4297 700 1484 0 
L 1163 500 
z
M 2072 2278 
Q 1466 2800 831 3109 
L 1131 3541 
Q 1806 3213 2406 2725 
L 2072 2278 
z
" transform="scale(0.015625)"/>
      <path id="IPAexGothic-30fc" d="M 588 2688 
L 5809 2688 
L 5809 2175 
L 588 2175 
L 588 2688 
z
" transform="scale(0.015625)"/>
      <path id="IPAexGothic-30b1" d="M 5638 3275 
L 4178 3275 
Q 4141 1972 3738 1234 
Q 3241 322 2150 -256 
L 1766 141 
Q 2931 678 3353 1644 
Q 3619 2263 3647 3275 
L 2097 3275 
Q 1694 2456 972 1784 
L 594 2128 
Q 1781 3203 2138 4966 
L 2628 4856 
Q 2503 4281 2303 3744 
L 5638 3744 
L 5638 3275 
z
" transform="scale(0.015625)"/>
      <path id="IPAexGothic-30f3" d="M 2444 3084 
Q 1816 3656 1056 4084 
L 1381 4519 
Q 2063 4191 2816 3559 
L 2444 3084 
z
M 1100 609 
Q 3984 1106 5216 3828 
L 5619 3469 
Q 4413 794 1434 103 
L 1100 609 
z
" transform="scale(0.015625)"/>
      <path id="IPAexGothic-30b9" d="M 4359 4481 
L 4716 4147 
Q 4328 3072 3647 2150 
Q 4659 1434 5659 453 
L 5234 19 
Q 4256 1088 3353 1778 
Q 2372 597 1044 -31 
L 653 403 
Q 3128 1453 4097 4000 
L 1241 3963 
L 1228 4453 
L 4359 4481 
z
" transform="scale(0.015625)"/>
     </defs>
     <use xlink:href="#IPAexGothic-76f4"/>
     <use xlink:href="#IPAexGothic-8fd1" transform="translate(100 0)"/>
     <use xlink:href="#IPAexGothic-31" transform="translate(200 0)"/>
     <use xlink:href="#IPAexGothic-36" transform="translate(262.988281 0)"/>
     <use xlink:href="#IPAexGothic-8a66" transform="translate(325.976562 0)"/>
     <use xlink:href="#IPAexGothic-5408" transform="translate(425.976562 0)"/>
     <use xlink:href="#IPAexGothic-306e" transform="translate(525.976562 0)"/>
     <use xlink:href="#IPAexGothic-52dd" transform="translate(625.976562 0)"/>
     <use xlink:href="#IPAexGothic-6557" transform="translate(725.976562 0)"/>
     <use xlink:href="#IPAexGothic-30b7" transform="translate(825.976562 0)"/>
     <use xlink:href="#IPAexGothic-30fc" transform="translate(925.976562 0)"/>
     <use xlink:href="#IPAexGothic-30b1" transform="translate(1025.976562 0)"/>
     <use xlink:href="#IPAexGothic-30f3" transform="translate(1125.976562 0)"/>
     <use xlink:href="#IPAexGothic-30b9" transform="translate(1225.976562 0)"/>
    </g>
   </g>
  </g>
 </g>
 <defs>
  <clipPath id="p482e2e7cbd">
   <rect x="56.18" y="30.48" width="393.82" height="149.185517"/>
  </clipPath>
 </defs>
</svg>
